<svg width="1080" height="246" viewBox="0 0 1080 246" fill="none" xmlns="http://www.w3.org/2000/svg">
<path d="M378.528 160.464V182.755H275.803V165.145L341.093 86.0106H277.14V63.7192H376.746V81.3294L311.233 160.464H378.528Z" fill="#0A0A0A"/>
<path d="M514.232 123.906C514.232 125.838 514.084 128.587 513.786 132.154H420.42C422.054 140.922 426.288 147.906 433.122 153.108C440.104 158.16 448.72 160.687 458.97 160.687C472.043 160.687 482.813 156.377 491.28 147.758L506.21 164.922C500.862 171.312 494.103 176.142 485.933 179.411C477.762 182.681 468.552 184.316 458.301 184.316C445.229 184.316 433.716 181.715 423.763 176.514C413.81 171.312 406.085 164.105 400.588 154.891C395.24 145.529 392.566 134.977 392.566 123.237C392.566 111.646 395.166 101.243 400.365 92.0293C405.713 82.667 413.067 75.3851 422.426 70.1838C431.785 64.9825 442.332 62.3818 454.068 62.3818C465.655 62.3818 475.979 64.9825 485.041 70.1838C494.252 75.2365 501.382 82.4441 506.433 91.8064C511.632 101.02 514.232 111.72 514.232 123.906ZM454.068 84.6732C445.154 84.6732 437.578 87.3482 431.339 92.6981C425.248 97.8994 421.534 104.884 420.197 113.652H487.715C486.527 105.033 482.887 98.048 476.796 92.6981C470.706 87.3482 463.129 84.6732 454.068 84.6732Z" fill="#0A0A0A"/>
<path d="M540.973 17.3535H568.827V182.755H540.973V17.3535Z" fill="#0A0A0A"/>
<path d="M659.965 184.316C647.635 184.316 636.567 181.715 626.763 176.514C616.958 171.312 609.308 164.105 603.811 154.891C598.315 145.529 595.566 134.977 595.566 123.237C595.566 111.497 598.315 101.02 603.811 91.8064C609.308 82.5927 616.884 75.3851 626.54 70.1838C636.344 64.9825 647.486 62.3818 659.965 62.3818C671.7 62.3818 681.951 64.7596 690.715 69.5151C699.629 74.2706 706.313 81.1066 710.77 90.0231L689.378 102.506C685.962 97.0077 681.654 92.921 676.454 90.246C671.403 87.4225 665.833 86.0107 659.742 86.0107C649.343 86.0107 640.727 89.4287 633.893 96.2647C627.06 102.952 623.643 111.943 623.643 123.237C623.643 134.531 626.986 143.597 633.671 150.433C640.504 157.12 649.194 160.464 659.742 160.464C665.833 160.464 671.403 159.126 676.454 156.451C681.654 153.628 685.962 149.467 689.378 143.968L710.77 156.451C706.165 165.368 699.406 172.278 690.492 177.182C681.728 181.938 671.552 184.316 659.965 184.316Z" fill="#0A0A0A"/>
<path d="M786.532 184.316C774.499 184.316 763.655 181.715 753.999 176.514C744.343 171.312 736.766 164.105 731.27 154.891C725.922 145.529 723.248 134.977 723.248 123.237C723.248 111.497 725.922 101.02 731.27 91.8064C736.766 82.5927 744.343 75.3851 753.999 70.1838C763.655 64.9825 774.499 62.3818 786.532 62.3818C798.713 62.3818 809.632 64.9825 819.288 70.1838C828.944 75.3851 836.446 82.5927 841.794 91.8064C847.291 101.02 850.039 111.497 850.039 123.237C850.039 134.977 847.291 145.529 841.794 154.891C836.446 164.105 828.944 171.312 819.288 176.514C809.632 181.715 798.713 184.316 786.532 184.316ZM786.532 160.464C796.782 160.464 805.25 157.046 811.935 150.21C818.62 143.374 821.962 134.383 821.962 123.237C821.962 112.092 818.62 103.101 811.935 96.2647C805.25 89.4287 796.782 86.0107 786.532 86.0107C776.282 86.0107 767.814 89.4287 761.129 96.2647C754.593 103.101 751.325 112.092 751.325 123.237C751.325 134.383 754.593 143.374 761.129 150.21C767.814 157.046 776.282 160.464 786.532 160.464Z" fill="#0A0A0A"/>
<path d="M903.295 81.1066C911.317 68.6234 925.43 62.3818 945.633 62.3818V88.9085C943.256 88.4627 941.102 88.2398 939.171 88.2398C928.327 88.2398 919.859 91.4349 913.768 97.8251C907.678 104.067 904.632 113.132 904.632 125.021V182.755H876.778V63.7193H903.295V81.1066Z" fill="#0A0A0A"/>
<path d="M1080 123.906C1080 125.838 1079.85 128.587 1079.56 132.154H986.189C987.823 140.922 992.057 147.906 998.89 153.108C1005.87 158.16 1014.49 160.687 1024.74 160.687C1037.81 160.687 1048.58 156.377 1057.05 147.758L1071.98 164.922C1066.63 171.312 1059.87 176.142 1051.7 179.411C1043.53 182.681 1034.32 184.316 1024.07 184.316C1011 184.316 999.484 181.715 989.531 176.514C979.578 171.312 971.853 164.105 966.357 154.891C961.009 145.529 958.335 134.977 958.335 123.237C958.335 111.646 960.935 101.243 966.134 92.0293C971.482 82.667 978.835 75.3851 988.194 70.1838C997.553 64.9825 1008.1 62.3818 1019.84 62.3818C1031.42 62.3818 1041.75 64.9825 1050.81 70.1838C1060.02 75.2365 1067.15 82.4441 1072.2 91.8064C1077.4 101.02 1080 111.72 1080 123.906ZM1019.84 84.6732C1010.92 84.6732 1003.35 87.3482 997.108 92.6981C991.017 97.8994 987.303 104.884 985.966 113.652H1053.48C1052.3 105.033 1048.66 98.048 1042.57 92.6981C1036.47 87.3482 1028.9 84.6732 1019.84 84.6732Z" fill="#0A0A0A"/>
<circle cx="122.58" cy="123.218" r="122.58" fill="#1B63EF"/>
<path d="M116.067 129.638L118.444 128.266C120.615 127.012 124.136 127.012 126.307 128.266L128.683 129.638L122.375 133.28L116.067 129.638Z" fill="white"/>
<path d="M116.091 129.649L122.399 133.291L122.399 188.649L116.091 185.007L116.091 129.649Z" fill="white"/>
<path d="M122.209 133.31L128.517 129.668L128.517 185.026L122.209 188.668L122.209 133.31Z" fill="white"/>
<path d="M122.501 188.493L154.042 170.283L154.042 180.311C154.042 182.818 152.281 185.867 150.11 187.121L122.501 203.061L122.501 188.493Z" fill="white"/>
<path d="M91.0332 170.283L122.574 188.493L122.574 203.061L94.9649 187.121C92.7935 185.867 91.0332 182.818 91.0332 180.311L91.0332 170.283Z" fill="white"/>
<path d="M126.578 111.282L132.886 114.924L132.886 122.208L130.51 120.836C128.338 119.583 126.578 116.534 126.578 114.026L126.578 111.282Z" fill="white"/>
<path d="M126.578 111.282L170.735 85.7882L177.043 89.4302L132.886 114.924L126.578 111.282Z" fill="white"/>
<path d="M144.934 71.2207L153.618 66.2067C155.79 64.953 159.31 64.953 161.482 66.2067L189.091 82.1467L176.474 89.4307L144.934 71.2207Z" fill="white"/>
<path d="M132.697 114.916L176.854 89.4215L176.854 96.7055L132.697 122.2L132.697 114.916Z" fill="white"/>
<path d="M176.4 89.2847L189.017 82.0007L189.017 113.881C189.017 116.388 187.256 119.437 185.085 120.691L176.4 125.705L176.4 89.2847Z" fill="white"/>
<path d="M56.0684 81.8545L83.6773 65.9145C85.8487 64.6608 89.3693 64.6608 91.5408 65.9145L100.225 70.9285L68.6846 89.1385L56.0684 81.8545Z" fill="white"/>
<path d="M112.593 114.487L118.901 110.845L118.901 113.589C118.901 116.096 117.141 119.145 114.969 120.399L112.593 121.771L112.593 114.487Z" fill="white"/>
<path d="M68.5977 88.9932L112.755 114.487L112.755 121.771L68.5977 96.2772L68.5977 88.9932Z" fill="white"/>
<path d="M56.0684 81.709L68.6846 88.993L68.6846 125.413L60.0001 120.399C57.8287 119.145 56.0684 116.096 56.0684 113.589L56.0684 81.709Z" fill="white"/>
<path d="M68.7942 89.2522C68.6857 89.1895 68.6857 89.0879 68.7942 89.0252L74.7092 85.6102C74.8178 85.5475 74.9938 85.5475 75.1024 85.6102L118.866 110.877C118.975 110.94 118.975 111.041 118.866 111.104L112.951 114.519C112.843 114.582 112.667 114.582 112.558 114.519L68.7942 89.2522Z" fill="white"/>
<path d="M176.4 132.867C176.4 130.36 178.16 127.311 180.331 126.057L189.016 121.043L189.016 150.179L176.4 157.463L176.4 132.867Z" fill="white"/>
<path d="M157.461 172.791C157.461 170.284 159.221 167.235 161.393 165.981L189.001 150.041L189.001 160.069C189.001 162.577 187.241 165.626 185.07 166.879L157.461 182.819L157.461 172.791Z" fill="white"/>
<path d="M56.0684 150.179L83.6773 166.119C85.8487 167.372 87.609 170.421 87.609 172.929L87.609 182.957L60.0001 167.017C57.8287 165.763 56.0684 162.714 56.0684 160.207L56.0684 150.179Z" fill="white"/>
<path d="M56.0684 121.042L64.7529 126.056C66.9243 127.31 68.6846 130.359 68.6846 132.866L68.6846 157.462L56.0684 150.178L56.0684 121.042Z" fill="white"/>
<path d="M90.4491 61.8965L110.635 50.2421L123.251 57.5261L106.997 66.9105C104.826 68.1642 101.305 68.1642 99.1336 66.9105L90.4491 61.8965Z" fill="white"/>
<path d="M109.679 50.8252L118.363 45.8112C120.535 44.5575 124.056 44.5575 126.227 45.8112L155.097 62.4796L146.413 67.4936C144.242 68.7473 140.721 68.7473 138.549 67.4936L109.679 50.8252Z" fill="white"/>
</svg>
