<svg width="1080" height="1080" viewBox="0 0 1080 1080" fill="none" xmlns="http://www.w3.org/2000/svg">
<g clip-path="url(#clip0_125_125)">
<mask id="mask0_125_125" style="mask-type:luminance" maskUnits="userSpaceOnUse" x="0" y="0" width="1080" height="1080">
<path d="M1080 0H0V1080H1080V0Z" fill="white"/>
</mask>
<g mask="url(#mask0_125_125)">
<path d="M540 1080C838.234 1080 1080 838.234 1080 540C1080 241.766 838.234 0 540 0C241.766 0 0 241.766 0 540C0 838.234 241.766 1080 540 1080Z" fill="#1B63EF"/>
<path d="M511.3 568.3L521.8 562.3C531.4 556.8 546.9 556.8 556.4 562.3L566.9 568.3L539.1 584.3L511.3 568.3Z" fill="white"/>
<path d="M511.4 568.3L539.2 584.3V828.2L511.4 812.2V568.3Z" fill="white"/>
<path d="M538.4 584.5L566.2 568.5V812.4L538.4 828.4V584.5Z" fill="white"/>
<path d="M539.6 827.6L678.5 747.4V791.6C678.5 802.6 670.7 816.1 661.2 821.6L539.6 891.8V827.6Z" fill="white"/>
<path d="M401 747.3L540 827.6V891.8L418.4 821.6C408.8 816.1 401.1 802.6 401.1 791.6V747.3H401Z" fill="white"/>
<path d="M557.6 487.4L585.4 503.4V535.5L574.9 529.5C565.3 524 557.6 510.5 557.6 499.5V487.4Z" fill="white"/>
<path d="M557.6 487.4L752.1 375.1L779.9 391.1L585.4 503.5L557.6 487.4Z" fill="white"/>
<path d="M638.5 310.9L676.8 288.8C686.4 283.3 701.9 283.3 711.4 288.8L833 359.1L777.4 391.2L638.5 310.9Z" fill="white"/>
<path d="M584.6 503.4L779.1 391.1V423.2L584.6 535.5V503.4Z" fill="white"/>
<path d="M777.1 390.5L832.7 358.4V498.8C832.7 509.8 824.9 523.3 815.4 528.8L777.1 551V390.5Z" fill="white"/>
<path d="M247 357.8L368.6 287.6C378.2 282.1 393.7 282.1 403.2 287.6L441.5 309.7L302.6 389.9L247 357.8Z" fill="white"/>
<path d="M496 501.5L523.8 485.5V497.6C523.8 508.6 516 522.1 506.5 527.6L496 533.6V501.5Z" fill="white"/>
<path d="M302.2 389.2L496.7 501.5V533.6L302.2 421.3V389.2Z" fill="white"/>
<path d="M247 357.1L302.6 389.2V549.6L264.3 527.5C254.7 522 247 508.5 247 497.5V357.1Z" fill="white"/>
<path d="M303.1 390.4C302.6 390.1 302.6 389.7 303.1 389.4L329.2 374.4C329.7 374.1 330.5 374.1 330.9 374.4L523.7 485.7C524.2 486 524.2 486.4 523.7 486.7L497.6 501.7C497.1 502 496.3 502 495.9 501.7L303.1 390.4Z" fill="white"/>
<path d="M777.1 582.5C777.1 571.5 784.9 558 794.4 552.5L832.7 530.4V658.8L777.1 690.9V582.5Z" fill="white"/>
<path d="M693.7 758.4C693.7 747.4 701.5 733.9 711 728.4L832.6 658.2V702.4C832.6 713.4 824.8 726.9 815.3 732.4L693.7 802.6V758.4Z" fill="white"/>
<path d="M247 658.8L368.6 729C378.2 734.5 385.9 748 385.9 759V803.2L264.3 733C254.7 727.5 247 714 247 703V658.8Z" fill="white"/>
<path d="M247 530.4L285.3 552.5C294.9 558 302.6 571.5 302.6 582.5V690.9L247 658.8V530.4Z" fill="white"/>
<path d="M398.5 269.9L487.4 218.6L543 250.7L471.4 292C461.8 297.5 446.3 297.5 436.8 292L398.5 269.9Z" fill="white"/>
<path d="M483.2 221.1L521.5 199C531.1 193.5 546.6 193.5 556.1 199L683.3 272.4L645 294.5C635.4 300 619.9 300 610.4 294.5L483.2 221.1Z" fill="white"/>
</g>
<path d="M872.508 319.635H833.839C833.839 315.202 834.83 311.761 836.813 309.312C838.913 306.862 841.946 305.637 845.912 305.637H872.508V282.89C872.508 278.341 873.792 275.075 876.358 273.092C879.041 271.108 883.065 270.117 888.431 270.117V305.637H926.926C926.926 310.07 925.876 313.511 923.776 315.961C921.793 318.41 918.76 319.635 914.678 319.635H888.431V342.557C888.431 351.072 883.124 355.33 872.508 355.33V319.635Z" fill="white"/>
</g>
<defs>
<clipPath id="clip0_125_125">
<rect width="1080" height="1080" fill="white"/>
</clipPath>
</defs>
</svg>
