<?xml version="1.0" encoding="utf-8"?>
<!-- Generator: Adobe Illustrator 22.0.0, SVG Export Plug-In . SVG Version: 6.00 Build 0)  -->
<svg version="1.1" id="Cube" xmlns="http://www.w3.org/2000/svg" xmlns:xlink="http://www.w3.org/1999/xlink" x="0px" y="0px"
	 viewBox="0 0 3435.4 812.9" style="enable-background:new 0 0 3435.4 812.9;" xml:space="preserve">
<style type="text/css">
	.st0{fill:#FFFFFF;}
	.st1{fill:#232220;}
</style>
<path id="zelcore" class="st0" d="M947.8,258.3h239.4L929.8,570.6v72h409.5v-81h-279.9l266.4-312.3v-72h-378L947.8,258.3
	L947.8,258.3z M1449.1,369c0.4-16.7,4-33.2,10.3-48.6c6-14.5,14.5-27.7,25.2-39.2c10.7-11.2,23.5-20.1,37.8-26.1
	c14.7-6.3,31.1-9.5,49.1-9.5c17.4,0,33.1,3.5,47.2,10.3c13.6,6.6,25.9,15.7,36,27c10.1,11.5,18.1,24.8,23.4,39.2
	c5.7,15,9.2,30.8,10.3,46.8h-239.3V369z M1791.1,436.5c4.3-33.9,2-68.2-6.8-101.2c-8.7-32.7-22.7-61.6-41.8-86.8
	c-19.2-25.2-43.4-45.4-72.4-60.8c-29.1-15.3-62-22.9-98.6-22.9c-34.8,0-66,6.6-93.6,19.8c-27,12.8-51.1,31-70.7,53.6
	c-19.5,22.5-34.5,48.6-45,78.3c-10.6,30.2-15.9,62-15.8,94c0,36,4.9,69,14.8,99s24.6,55.8,44.1,77.4c19.5,21.6,43.3,38.4,71.6,50.4
	c28.2,12,60.6,18,97.2,18c24.5,0.1,48.9-3.4,72.4-10.3c22.4-6.6,43.6-16.9,62.6-30.6c18.8-13.7,34.9-30.6,47.7-50
	c13.2-19.8,22.5-42.3,27.9-67.5h-97.2c-9,25.8-22.7,45.2-40.9,58c-18.3,12.9-42.5,19.4-72.4,19.3c-21.6,0-40.2-3.8-55.8-11.2
	c-15-7-28.2-17.3-38.7-30.2c-10.5-13.1-18.2-28-22.9-44.1c-5.1-16.9-7.7-34.5-7.7-52.2L1791.1,436.5L1791.1,436.5z M1827.1,642.6
	h102.6V0h-102.6V642.6z M2375.2,323.1c-2.4-25.8-9-48.4-19.8-67.9c-10.3-18.9-24.6-35.3-41.9-48.1c-17.7-12.9-37.5-22.5-58.5-28.4
	c-21.9-6.3-45.5-9.4-70.6-9.4c-34.2,0-64.5,6.3-90.9,18.9c-25.7,12-48.4,29.5-66.6,51.3c-18,21.6-31.6,46.8-40.9,75.6
	s-13.9,59.4-13.9,91.8c-0.1,31.5,4,62.8,12.2,93.2c8.1,29.7,20.7,55.9,37.8,78.7c17.1,22.8,39,40.9,65.7,54.5
	c26.7,13.5,58.9,20.2,96.8,20.2c23.9,0.1,47.6-3.8,70.2-11.7c21.7-7.5,41.8-19,59.4-33.8c17.4-14.7,31.8-32.8,43.2-54.5
	c11.4-21.6,18.9-46.2,22.5-73.8h-34.2c-2.8,20.2-8.8,39.8-18,58c-8.6,17.2-20.4,32.6-34.6,45.5c-14.3,12.7-30.8,22.8-48.6,29.7
	c-18.3,7.2-38.3,10.8-59.9,10.8c-30,0-56.1-5.4-78.3-16.2c-21.9-10.6-41-26.1-55.8-45.5c-15-19.5-26.1-42.4-33.3-68.8
	c-7.2-26.4-10.8-55.2-10.8-86.4c-0.1-26.1,3.9-52,11.7-77c7.4-24.1,18.9-46.6,34.2-66.6c15-19.5,34-35.5,55.8-46.8
	c22.2-11.7,47.7-17.6,76.5-17.6c19.9-0.1,39.8,2.6,58.9,8.1c18.3,5.4,34.3,13.2,48.1,23.4c13.9,10.3,25.4,23.5,33.8,38.7
	c8.7,15.6,13.9,33.6,15.8,54L2375.2,323.1L2375.2,323.1z M2407.2,504.9c9.3,29.4,22.9,55.1,40.9,77c18.1,22,40.9,39.8,66.6,52.2
	c26.4,12.9,56.7,19.3,90.9,19.3s64.5-6.5,90.9-19.3c25.7-12.4,48.5-30.2,66.6-52.2c18-21.9,31.7-47.5,40.9-77
	c9.3-29.4,13.9-60.6,13.9-93.6s-4.6-64-13.9-93.2c-9.3-29.1-23-54.7-40.9-76.9c-18.1-22.2-40.8-40.2-66.6-52.7
	c-26.4-12.9-56.7-19.3-90.9-19.4s-64.5,6.4-90.9,19.4c-25.8,12.4-48.5,30.4-66.6,52.6c-18,22.2-31.7,47.9-40.9,76.9
	c-9.3,29.1-14,60.2-13.9,93.2C2393.2,444.3,2397.9,475.5,2407.2,504.9z M2439.1,331.6c7.8-25.5,19.2-48.1,34.2-68
	c14.9-19.7,33.9-35.8,55.8-47.2c22.2-11.7,47.7-17.6,76.5-17.6s54.3,5.9,76.5,17.6c21.9,11.4,40.9,27.6,55.8,47.2
	c15,19.8,26.4,42.5,34.2,68c15.6,52,15.6,107.3,0,159.3c-7.8,25.5-19.2,48.2-34.2,68c-14.9,19.7-33.9,35.8-55.8,47.2
	c-22.2,11.7-47.7,17.5-76.5,17.5s-54.3-5.9-76.5-17.5c-21.9-11.4-40.9-27.6-55.8-47.2c-15-19.8-26.4-42.5-34.2-68
	C2423.5,439,2423.5,383.6,2439.1,331.6L2439.1,331.6z M2887.3,180h-34.2v462.6h34.2V389.7c0.6-17.4,2.1-32.4,4.5-45
	c2.1-11.7,5.5-23.2,9.9-34.2c4-9.9,9.3-19.3,15.8-27.9c6.9-9.1,14.2-17.8,22.1-26.1c21-20.4,43-33.6,66.1-39.6s43.6-7.8,61.6-5.4
	v-34.2c-20.5-0.7-40.9,1.6-60.8,6.8c-18.7,4.8-36.6,12.2-53.1,22.1c-15.3,9.1-29,20.6-40.5,34.2c-11.1,13.2-18.8,27.3-22.9,42.3
	h-2.7L2887.3,180L2887.3,180z M3434.5,415.8c0-2.4,0.1-5.5,0.4-9.5c0.3-3.9,0.4-7.3,0.4-10.3c0-31.2-4.4-60.4-13.1-87.8
	c-8.7-27.3-21.4-51.3-38.2-72c-16.9-20.8-38.3-37.6-62.6-49.1c-24.9-12-53.6-18-85.9-18c-35.4,0-66.2,6.8-92.2,20.2
	c-25.5,13-47.7,31.4-65.2,54c-17.4,22.5-30.5,48.6-39.1,78.3c-8.8,30.3-13.2,61.6-13.1,93.1c0,33.6,4.2,65,12.6,94
	c8.4,29.1,21.2,54.3,38.2,75.6c17.2,21.4,39.1,38.6,63.9,50.4c25.5,12.3,55.4,18.4,89.6,18.5c55.8,0,100.7-14.4,134.6-43.2
	c33.9-28.8,55.9-70.2,66.1-124.2h-34.2c-10.2,43.2-28.9,77-56,101.2c-27.1,24.3-63.8,36.5-110.1,36.5c-28.3,0-53.1-5.4-74.4-16.2
	c-20.9-10.4-39.1-25.5-53.2-44.1c-14.1-18.6-24.8-40.2-32-64.8c-7.3-25.1-10.9-51.2-10.8-77.4v-5.4h374.3V415.8z M3061,386.1
	c1.8-23.9,6.6-47.5,14.4-70.2c7.8-22.8,19-42.7,33.4-59.8c14.7-17.3,32.8-31.4,53.2-41.4c21.1-10.5,45.4-15.7,73.1-15.8
	c25.9,0,48.9,5.1,69,15.3c19.8,9.9,37.3,23.9,51.4,40.9c14.4,17.6,25.3,37.7,32,59.4c7.3,23.2,11.6,47.2,12.6,71.5L3061,386.1
	L3061,386.1z"/>
<g>
	<path class="st1" d="M402.7,802.9c-53,0-104.4-10.4-152.9-30.9c-46.8-19.8-88.8-48.1-124.8-84.2C89,651.8,60.6,609.8,40.9,563.1
		C20.4,514.6,10,463.2,10,410.2s10.4-104.4,30.9-152.9C60.6,210.6,89,168.6,125,132.5c36.1-36.1,78.1-64.4,124.8-84.2
		c48.4-20.5,99.8-30.9,152.9-30.9s104.4,10.4,152.9,30.9c46.8,19.8,88.8,48.1,124.8,84.2c36.1,36.1,64.4,78.1,84.2,124.8
		c20.5,48.4,30.9,99.8,30.9,152.9S785,514.6,764.5,563.1c-19.8,46.8-48.1,88.8-84.2,124.8c-36.1,36.1-78.1,64.4-124.8,84.2
		C507.1,792.5,455.7,802.9,402.7,802.9z"/>
	<path class="st0" d="M402.7,27.5c51.7,0,101.8,10.1,149,30.1c45.6,19.3,86.5,46.9,121.7,82c35.2,35.2,62.7,76.1,82,121.7
		c20,47.2,30.1,97.3,30.1,149s-10.1,101.8-30.1,149c-19.3,45.6-46.9,86.5-82,121.7c-35.2,35.2-76.1,62.7-121.7,82
		c-47.2,20-97.3,30.1-149,30.1s-101.8-10.1-149-30.1c-45.6-19.3-86.5-46.9-121.7-82c-35.2-35.2-62.7-76.1-82-121.7
		C30.1,512,20,461.9,20,410.2s10.1-101.8,30.1-149c19.3-45.6,46.9-86.5,82-121.7c35.2-35.2,76.1-62.7,121.7-82
		C300.9,37.6,351,27.5,402.7,27.5 M402.7,7.5C180.3,7.5,0,187.8,0,410.2s180.3,402.7,402.7,402.7s402.7-180.3,402.7-402.7
		S625.1,7.5,402.7,7.5L402.7,7.5z"/>
</g>
<g id="Box_Left">
	<path id="Box_Left-2" class="st0" d="M100.6,398.7l122.6-71l122.2,71v142l-122.2,71l-122.6-71V398.7z"/>
</g>
<g id="Box_Right">
	<path id="Box_Left-3" class="st0" d="M460.5,398.7l122.6-71l122.2,71v142l-122.2,71l-122.6-71L460.5,398.7L460.5,398.7z"/>
</g>
<g id="Box_Main">
	<path id="Box_Main-2" class="st0" d="M247.9,274.4L402.7,184l155.2,90.4v50.8l-111,64.4v130l-44.2,25.6l-43.8-25.6v-130l-111-64.4
		L247.9,274.4L247.9,274.4z"/>
</g>
</svg>
