<svg xmlns="http://www.w3.org/2000/svg" viewBox="0 0 32.3 32.31">
  <g id="Layer_2" data-name="Layer 2">
    <g id="Layer_1-2" data-name="Layer 1">
      <g>
        <path id="Контур_14168" data-name="Контур 14168" d="M0,24.52v4.4a1.5,1.5,0,0,0,3,0V13.6H.63a.63.63,0,0,0-.63.63V24.52Z" fill="#fff"/>
        <path id="Контур_14169" data-name="Контур 14169" d="M31.67,0H5.52a.63.63,0,0,0-.63.63h0V29.87a2.45,2.45,0,0,1-2.45,2.44H29A3.35,3.35,0,0,0,32.3,29V.63A.63.63,0,0,0,31.67,0ZM18.27,3.79c.19,0,.34.06.38.22L19.8,7.89l.6-2.56c.05-.2.31-.31.57-.31s.52.11.57.31l.6,2.56L23.29,4c0-.16.2-.22.38-.22.34,0,.76.21.76.47a.34.34,0,0,1,0,.1L22.91,9a.78.78,0,0,1-.78.39c-.34,0-.7-.13-.76-.39L21,7.18,20.58,9c-.06.26-.43.39-.77.39S19.11,9.23,19,9l-1.5-4.61a.44.44,0,0,1,0-.1c0-.26.42-.47.77-.47Zm-4.76.36c0-.24.26-.36.52-.36h2.7c.25,0,.35.26.35.51s-.13.52-.35.52h-2V6.1h1.13c.23,0,.36.22.36.46s-.11.45-.36.45H14.69V8.29h2c.23,0,.36.24.36.52s-.11.51-.36.51H14c-.25,0-.51-.12-.51-.37V4.15Zm-5,0c0-.25.3-.36.59-.36s.59,0,.87.59l1.23,2.34V4.15c0-.25.3-.36.59-.36s.59.11.59.36V9c0,.25-.3.37-.59.37A.68.68,0,0,1,11.14,9L9.7,6.38V9c0,.24-.3.37-.59.37S8.52,9.19,8.52,9Zm7,24.28H9.33a.95.95,0,0,1,0-1.89h6.16a.95.95,0,1,1,0,1.89Zm0-3.78H9.33a.95.95,0,0,1,0-1.89h6.16a.95.95,0,1,1,0,1.89Zm0-3.78H9.33a.95.95,0,0,1,0-1.89h6.16a.95.95,0,1,1,0,1.89Zm13,6.62a.94.94,0,0,1-.94.94h-8.3a1,1,0,0,1-1-.94V19.93a1,1,0,0,1,1-.95h8.29a.94.94,0,0,1,.95.95Zm-.94-10.4H9.33a.95.95,0,0,1,0-1.89H27.58a.95.95,0,0,1,0,1.89Zm0-3.78H9.33a.95.95,0,0,1,0-1.89H27.58a.95.95,0,0,1,0,1.89Zm-.85-3.92c-1,0-1.83-.48-1.83-1,0-.26.23-.64.52-.64s.58.56,1.28.56c.35,0,.74-.13.74-.5,0-.91-2.4-.75-2.4-2.52C25,4.17,26,3.74,27,3.74c.4,0,1.5.08,1.5.67,0,.2-.13.62-.46.62s-.42-.29-1-.29-.76.22-.76.45c0,.76,2.4.62,2.4,2.52A1.67,1.67,0,0,1,27,9.41Z" fill="#fff"/>
      </g>
    </g>
  </g>
</svg>
