<svg xmlns="http://www.w3.org/2000/svg" width="1024" height="716" viewBox="0 0 1024 716">
  <defs>
    <style>
      .cls-1 {
        fill-rule: evenodd;
      }
    </style>
  </defs>
  <path id="BTCM" class="cls-1" d="M236.67,392.342l-15.748,7.744V341.913l15.748-7.744v58.173Zm21.379-10.514L242.3,389.573V331.4l15.736-7.739h0.011v58.167Zm5.631-2.769V320.886l15.748-7.745v58.173Zm-48.248,5.333V400.05L157,371.314V355.656Zm0-21.257v15.658L157,350.057V334.4Zm0-21.258v15.658L157,328.8V313.141ZM316.51,294.771v89.772H362.4c21.473,0,35.278-9.722,35.278-25.1,0-11.4-7.031-20.373-18.024-22.665,9.333-2.687,15.212-10.256,15.212-19.346,0-13.832-13.421-22.665-34.385-22.665H316.51Zm26.459,19.978h16.105c5.242,0,8.565,2.826,8.565,7.43,0,4.742-3.323,7.805-8.565,7.805H342.969V314.749Zm0,33.435h16.105c6.776,0,10.993,3.063,10.993,7.924,0,5.256-4.217,8.6-10.993,8.6H342.969v-16.52Zm70.687-53.413h26.586v89.78H413.656v-89.78Zm111.588,21.262V294.771h-68.9v21.262h21.027v68.51H504.09v-68.51h21.154ZM582.851,294c-27.737,0-48.188,19.346-48.188,45.469,0,26.519,20.067,46.24,47.293,46.24,13.55,0,28.249-6.8,37.964-17.29l-15.34-16.4c-6.135,6.284-14.442,10.375-21.345,10.375-12.144,0-21.346-10-21.346-23.179,0-13.2,9.2-23.061,21.346-23.061,7.414,0,15.723,4.742,21.345,11.915l15.34-18.179C610.844,300.146,596.4,294,582.851,294Zm92.544,0c-28.121,0-48.829,19.207-48.829,45.588,0,26.519,20.708,46.121,48.829,46.121s48.829-19.721,48.829-46.121C724.224,313.346,703.516,294,675.4,294Zm0.383,22.29c11.76,0,21.218,9.861,21.218,23.436s-9.458,23.693-21.218,23.693-21.984-10.117-21.984-23.693S663.891,316.29,675.778,316.29Zm63.529-21.519h26.587v89.78H739.307v-89.78ZM867,384.543V294.771H842.715v50.212L804.75,294.771H782v89.772h24.414V334.608l37.964,49.935H867ZM341.911,422.681V400.317h-7.8l-4.873,11.672-4.874-11.672h-7.8v22.364h6.434V410.427l3.823,10.088h4.841l3.823-10.088v12.254h6.434Zm19.653-3.157,1.115,3.157h7.868l-9.079-22.364h-7.58l-9.429,22.364h7.581l1.147-3.157h8.377Zm-1.816-5.3H355.1l2.357-6.542Zm27.139-3.317v5.2a8.345,8.345,0,0,1-2.931.741,5.024,5.024,0,0,1-5.032-5.335,4.974,4.974,0,0,1,4.969-5.266,8.5,8.5,0,0,1,5.51,2.371l4.173-5.084a15.393,15.393,0,0,0-9.651-3.442c-7.3,0-12.582,4.822-12.582,11.421,0,6.646,5.1,11.49,12.1,11.49a19.635,19.635,0,0,0,9.779-2.872v-9.222h-6.339Zm25.546,8.618,1.115,3.157h7.867l-9.078-22.364h-7.581l-9.428,22.364h7.581l1.146-3.157h8.378Zm-1.816-5.3h-4.65l2.357-6.542Zm32.649-9.278v-4.628H423.39v5.677h10.034l-10.416,12.059v4.628h20.481V417H432.85Zm3.727-4.628h7.39V422.69h-7.39V400.317Zm33.541,22.364V400.317h-6.689V411.8l-8.824-11.478h-6.179v22.364h6.721V411.26l8.791,11.421h6.18Zm23.348-16.756v-5.608H484.993v22.364h19.175v-5.608H492.383v-2.781h10.448v-5.62H492.383v-2.747h11.5ZM316.509,294.764,267.6,319.007"/>
</svg>
