<svg xmlns="http://www.w3.org/2000/svg" width="1024" height="716" viewBox="0 0 1024 716">
  <defs>
    <style>
      .cls-1 {
        fill-rule: evenodd;
      }
    </style>
  </defs>
  <path id="CCN" class="cls-1" d="M306.694,272.076a87.235,87.235,0,0,0-13.837,1.126q-3.561-.6-7.153-0.915a68.207,68.207,0,0,0-7.333-.316,86.307,86.307,0,0,0-12.358.886A2.634,2.634,0,0,0,264.7,274a2.4,2.4,0,0,0-.242.66l-2.323,10.733A75.091,75.091,0,0,1,272.7,428.37a9.9,9.9,0,0,1-12.87-5.424,9.784,9.784,0,0,1-.514-5.7l7.65-36.207,9.809,15.011,11.965-7.775-16.145-24.738a12.7,12.7,0,0,0-17.519-3.663l-24.792,16.137,7.816,11.9,14.908-9.683L245.235,415a22.74,22.74,0,0,0,12.75,25.429h0c9.7,3.752,21.02,4.683,34.238,1.966,46.935,8,91.5-23.372,99.538-70.063s-23.494-91.023-70.429-99.02A86.726,86.726,0,0,0,306.694,272.076Zm27.628,86.463c0-27.74-13.852-53.589-35.852-70.3a72.2,72.2,0,0,1,2.535,138.206c20.325-16.558,33.272-41.221,33.317-67.9v-0.015ZM330.2,426.268a85.54,85.54,0,0,0,.5-136.674A72.192,72.192,0,0,1,330.2,426.268ZM222.314,336.053l-9.808-15.011-11.966,7.82,16.176,24.663a12.7,12.7,0,0,0,17.518,3.663l24.807-16.167-7.816-11.9L236.317,338.8l7.711-36.7a23.028,23.028,0,0,0-31.19-25.924C178.932,289.7,155,322.273,155,358.554c0,40,28.851,76.135,69.306,86.463l2.806-13.315A75.091,75.091,0,0,1,216.55,288.723a9.9,9.9,0,0,1,12.87,5.424,9.776,9.776,0,0,1,.514,5.7ZM863.99,320.006a61.7,61.7,0,0,0-13.58-18.764,65.956,65.956,0,0,0-45.238-17.787H787.245a66.1,66.1,0,0,0-45.267,17.787A61.545,61.545,0,0,0,728.4,320.006a52.312,52.312,0,0,0-5.01,22.231v91.282h32.5V345.525a27.505,27.505,0,0,1,2.731-12.429A29.33,29.33,0,0,1,765.8,323.8a32.463,32.463,0,0,1,10.125-5.839,33.157,33.157,0,0,1,11.316-2.1h17.942a33.236,33.236,0,0,1,11.257,2.042,32.408,32.408,0,0,1,10.124,5.839,29.33,29.33,0,0,1,7.183,9.292,27.533,27.533,0,0,1,2.747,12.489v88.054H869V342.252A52.3,52.3,0,0,0,863.99,320.006ZM606.927,293.812a62.078,62.078,0,0,0-18.877,13.51,65.288,65.288,0,0,0-13.006,20.13,64.122,64.122,0,0,0-4.874,24.873v17.787a64.127,64.127,0,0,0,4.874,24.949,65.3,65.3,0,0,0,13.022,20.054,62,62,0,0,0,18.876,13.51,53.061,53.061,0,0,0,22.333,4.984h72.746V401.23H632.5A27.9,27.9,0,0,1,620,398.513a29.451,29.451,0,0,1-9.295-7.145,32.137,32.137,0,0,1-5.855-10.072,32.6,32.6,0,0,1-2.067-11.184V352.264a32.675,32.675,0,0,1,2.022-11.243,32.176,32.176,0,0,1,5.9-10.012,29.45,29.45,0,0,1,9.34-7.145,27.931,27.931,0,0,1,12.509-2.717h69.517V288.828H629.26A53.061,53.061,0,0,0,606.927,293.812Zm-146.578,0a62.036,62.036,0,0,0-18.877,13.51,65.22,65.22,0,0,0-13.007,20.13,64.258,64.258,0,0,0-4.874,24.812v17.848a64.276,64.276,0,0,0,4.874,24.949,65.238,65.238,0,0,0,13.007,20.129,61.961,61.961,0,0,0,18.877,13.51,53.053,53.053,0,0,0,22.332,4.984h72.746V401.23h-69.5a27.9,27.9,0,0,1-12.539-2.717,29.45,29.45,0,0,1-9.34-7.145,32.225,32.225,0,0,1-5.87-10.072,32.694,32.694,0,0,1-2.052-11.184V352.264a32.765,32.765,0,0,1,2.1-11.243,32.194,32.194,0,0,1,5.87-10.072,29.448,29.448,0,0,1,9.3-7.085,27.931,27.931,0,0,1,12.509-2.717h69.517V288.828H482.681A53.056,53.056,0,0,0,460.349,293.812Z"/>
</svg>
