<svg xmlns="http://www.w3.org/2000/svg" width="1024" height="716" viewBox="0 0 1024 716">
  <defs>
    <style>
      .cls-1 {
        fill-rule: evenodd;
      }
    </style>
  </defs>
  <path id="Coindesk" class="cls-1" d="M488.884,362.436a24.926,24.926,0,1,0,24.926-24.924,24.951,24.951,0,0,0-24.926,24.924M700.1,337.512a24.924,24.924,0,1,0,24.926,24.924A24.955,24.955,0,0,0,700.1,337.512m0,188.9a24.924,24.924,0,1,0,24.926,24.922A24.956,24.956,0,0,0,700.1,526.41m52.491-397.268A66.493,66.493,0,0,0,654.94,122.1c-0.971.913-1.954,1.81-2.991,2.637l-6.05,4.843a63.867,63.867,0,0,1-85.64-5.289l-0.78-.8a66.167,66.167,0,0,0-29.42-17.114l-0.031-.008q-3.2-.87-6.473-1.424c-0.614-.105-1.233-0.131-1.853-0.22-1.577-.223-3.153-0.446-4.743-0.551-0.937-.066-1.876-0.035-2.816-0.061-1.27-.029-2.54-0.1-3.81-0.06-1.151.039-2.3,0.178-3.447,0.273-1.055.089-2.11,0.131-3.162,0.267-1.285.171-2.558,0.446-3.836,0.693-0.9.17-1.81,0.3-2.7,0.5-1.367.32-2.71,0.753-4.059,1.162-0.784.236-1.582,0.425-2.361,0.7-1.4.48-2.768,1.073-4.143,1.653-0.695.291-1.409,0.541-2.1,0.858-1.409.653-2.776,1.414-4.146,2.167-0.616.341-1.254,0.638-1.865,1-1.38.821-2.711,1.753-4.041,2.682-0.559.39-1.141,0.739-1.692,1.149q-1.985,1.523-3.857,3.182c-0.507.444-1.045,0.848-1.546,1.309-0.17.158-.357,0.289-0.524,0.446-0.969.916-1.955,1.811-2.992,2.64l-6.05,4.843a63.847,63.847,0,0,1-85.073-4.762c-0.373-.394-0.79-0.766-1.176-1.154l-0.17-.174L371.3,123.4c-0.981-.979-1.92-1.986-2.975-2.918A65.753,65.753,0,0,0,335.7,104.981c-0.2-.034-0.4-0.047-0.6-0.079-1.837-.3-3.682-0.524-5.537-0.663-0.734-.061-1.471-0.066-2.211-0.1q-2.013-.1-4.028-0.079c-0.845.013-1.684,0.063-2.529,0.108q-1.914.1-3.82,0.3-1.212.138-2.419,0.32-2.05.3-4.086,0.735c-0.664.142-1.325,0.281-1.983,0.441-1.617.393-3.212,0.858-4.8,1.372-0.383.126-.771,0.236-1.151,0.367a65.275,65.275,0,0,0-22.058,12.785c-0.352.307-.646,0.653-0.99,0.968l-0.091.089a67.434,67.434,0,0,0-4.839,4.933c-0.034.039-.071,0.068-0.1,0.107-0.2.231-.372,0.483-0.577,0.719a66.06,66.06,0,0,0-11.72,19.882l-0.061.157q-0.99,2.691-1.739,5.462c-0.021.084-.053,0.171-0.074,0.255-0.5,1.857-.91,3.725-1.249,5.614l-0.026.155a66.7,66.7,0,0,0,1.979,31.368c0.411,1.356.834,2.71,1.335,4.043,0.152,0.4.336,0.787,0.5,1.185,0.684,1.716,1.435,3.4,2.266,5.064,0.1,0.184.195,0.359,0.289,0.54q1.481,2.872,3.238,5.589a64.87,64.87,0,0,0,5.843,7.828c0.9,1.024,1.881,1.931,2.828,2.886l0.1,0.111,0.131,0.123c0.806,0.8,1.6,1.632,2.433,2.387a62.333,62.333,0,0,1-.478,89.491,67.2,67.2,0,0,0-9.983,11.57l-0.265.407q-1.818,2.7-3.362,5.572c-0.149.278-.293,0.559-0.44,0.842A66.035,66.035,0,0,0,260.7,339.6c-0.17.572-.341,1.141-0.493,1.719q-0.621,2.363-1.068,4.767c-0.134.724-.275,1.448-0.388,2.177q-0.322,2.165-.5,4.348c-0.079.884-.165,1.765-0.21,2.652-0.058,1.272-.052,2.545-0.039,3.817,0.008,1.063,0,2.123.068,3.18s0.184,2.1.3,3.143c0.132,1.273.252,2.537,0.454,3.8,0.124,0.745.305,1.479,0.452,2.227,0.3,1.538.611,3.07,1.023,4.589,0.079,0.288.184,0.564,0.268,0.852a66.233,66.233,0,0,0,18.969,30.607,62.365,62.365,0,0,1-.495,90.4c-0.289.271-.525,0.567-0.806,0.84-1.28,1.238-2.563,2.479-3.765,3.841-0.165.186-.307,0.4-0.472,0.588-0.223.259-.42,0.535-0.643,0.8q-1.89,2.256-3.548,4.644c-0.369.53-.708,1.071-1.059,1.608-0.858,1.312-1.669,2.648-2.417,4.009-0.415.748-.813,1.493-1.2,2.251-0.567,1.128-1.086,2.272-1.587,3.427-0.423.965-.851,1.928-1.223,2.912-0.3.8-.551,1.608-0.819,2.414a66.559,66.559,0,0,0-3.258,26.813c0.021,0.286.052,0.577,0.078,0.865,0.166,1.727.381,3.445,0.682,5.161,0.05,0.294.119,0.585,0.179,0.879a66.207,66.207,0,0,0,3.956,13.2c0.507,1.222,1.013,2.445,1.6,3.641,0.341,0.7.734,1.383,1.1,2.073,0.724,1.356,1.48,2.694,2.3,4.009,0.368,0.58.748,1.152,1.137,1.726q1.4,2.09,2.983,4.082c0.388,0.494.771,0.984,1.173,1.464,0.356,0.425.669,0.874,1.036,1.294,0.716,0.808,1.5,1.516,2.241,2.282,0.619,0.64,1.222,1.289,1.873,1.913,1.181,1.123,2.4,2.157,3.642,3.174,0.522,0.439.984,0.914,1.524,1.333,0.21,0.168.438,0.3,0.651,0.465,0.525,0.4,1.06.758,1.593,1.136a63.371,63.371,0,0,0,9.9,5.824c0.383,0.186.761,0.378,1.149,0.551,1.887,0.853,3.794,1.627,5.738,2.293,0.042,0.013.079,0.031,0.119,0.042q3.069,1.042,6.221,1.779c0.32,0.076.642,0.12,0.965,0.191,1.666,0.365,3.34.675,5.027,0.908,0.667,0.094,1.333.157,1.994,0.231q3.159,0.35,6.339.4c1.4,0.018,2.808-.019,4.209-0.084,0.645-.034,1.286-0.045,1.931-0.092a67.174,67.174,0,0,0,12.248-2.107c0.367-.1.729-0.226,1.094-0.33q2.534-.729,5-1.659c0.407-.152.811-0.314,1.215-0.477q2.514-1.008,4.941-2.214c0.288-.147.582-0.284,0.874-0.433a64.9,64.9,0,0,0,10.815-6.979c0.123-.094.223-0.2,0.341-0.3,0.249-.2.477-0.438,0.721-0.64q2.438-2.01,4.684-4.237l1.619-1.705a62.344,62.344,0,0,1,90.7.189,66.5,66.5,0,1,0,3.02-93.8c-0.969.913-1.955,1.81-2.992,2.642l-6.05,4.84a63.844,63.844,0,0,1-85.215-4.893c-0.84-.892-1.663-1.8-2.427-2.749l-4.841-6.055a63.878,63.878,0,0,1,4.828-85.165A66.216,66.216,0,0,0,390.8,359.527c0.016-1.084.084-2.162,0.053-3.246-0.016-.38-0.074-0.755-0.092-1.131A66.212,66.212,0,0,0,372.347,312.4q-1.132-1.19-2.173-2.461l-4.841-6.058a63.894,63.894,0,0,1,5.182-85.544c0.286-.278.6-0.512,0.882-0.8l1.737-1.832a62.352,62.352,0,0,1,90.7.189c0.7,0.753,1.474,1.4,2.2,2.112s1.469,1.459,2.238,2.144c1.012,0.905,2.062,1.739,3.114,2.571,0.829,0.656,1.653,1.309,2.506,1.915,1.054,0.756,2.135,1.451,3.222,2.138,0.91,0.572,1.823,1.134,2.755,1.658,1.083,0.612,2.177,1.181,3.293,1.724,0.983,0.483,1.967.945,2.967,1.378a66.662,66.662,0,0,0,6.507,2.4c1.107,0.346,2.214.666,3.332,0.955s2.241,0.524,3.366.753c1.092,0.217,2.183.425,3.28,0.59,1.186,0.173,2.369.3,3.561,0.409,1.057,0.1,2.114.2,3.174,0.252,1.252,0.058,2.5.05,3.752,0.039,1.011-.01,2.016,0,3.023-0.062q1.98-.131,3.949-0.376c0.934-.105,1.868-0.189,2.8-0.333,1.417-.225,2.82-0.54,4.224-0.858,0.813-.181,1.632-0.33,2.44-0.543q2.355-.646,4.657-1.469c0.622-.218,1.254-0.386,1.868-0.619q2.877-1.1,5.639-2.466c0.228-.113.47-0.2,0.695-0.315a66.474,66.474,0,0,0,17.081-12.357l1.737-1.832a62.346,62.346,0,0,1,90.7.189,66.5,66.5,0,0,0,100.671-86.756"/>
</svg>
