<svg xmlns="http://www.w3.org/2000/svg" width="1024" height="716" viewBox="0 0 1024 716">
  <defs>
    <style>
      .cls-1 {
        fill-rule: evenodd;
      }
    </style>
  </defs>
  <path id="Cointelegraph" class="cls-1" d="M555,478l-92,40,1-6c-18.218,4.482-32.5,5.557-51.253,6.334-85.9-.838-154.07-45.613-154.86-98.849v-19.82c28.212,40.855,85.646,68.239,154.86,67.242C435.516,467.538,454,465.875,476,460l5-18c-24.432,7.606-42.657,8.826-68.253,9.092-85.9.167-154.07-44.617-154.86-98.85V336.376c28.212,37.772,85.52,65.165,154.86,63.289C442.709,401.259,466.519,398,494,386l4-19c-28.272,14.188-53.62,18.056-85.253,16.841-85.889,1.047-154.07-43.77-154.86-98.883V269.134c28.212,38.651,85.646,66.036,154.86,67.242C450.125,335.322,478.815,329.167,512,312l5-23c-32.854,22.271-64.526,30.59-104.253,31.56-85.889-1.918-154.07-46.668-154.86-102.845,0.79-53.4,68.954-98.179,154.86-98.849,51.2,0.712,98.756,18.6,127.069,47.464L543,167h14l2.67-.67C531.508,128.131,475.193,103,412.747,103,317.683,103,242,155.181,242,217.715V423.4c3.364,61.044,77.321,110.753,170.745,110.753C474.444,534.158,525.232,513.15,555,478ZM522.519,614l32.063-135.708-92.171,39.9,56.1-235.538h-108.2L438.37,166.883H783.005L754.952,282.646H642.742l-24.016,63.875,124.227-51.938Zm56.105-163.679L562.6,530.162,694.845,330.554,586.637,378.463,634.7,266.679H742.927l20.039-83.837H450.386l-20.022,83.837H538.555L486.419,490.246Z"/>
</svg>
