<svg xmlns="http://www.w3.org/2000/svg" width="1024" height="716" viewBox="0 0 1024 716">
  <defs>
    <style>
      .cls-1 {
        fill-rule: evenodd;
      }
    </style>
  </defs>
  <path id="Cryptoinsider" class="cls-1" d="M575.339,392.747l28.691,17.18-81.615,51.539-86.036-56.029v-96.97l86.036-50.821,54.607,29.744,27.008-18.1-81.615-46.174L405.256,290.7V423.8l117.159,72.03L632.6,428.239,720,484.373,522.415,614,305.009,490.1V234.5L522.415,102.988,720,223.117l-30.136,21.248L522.415,146.5,340.681,255.309V466.05L522.415,570.272l137.7-87.972L632.6,463.924l-110.188,67.73L375.1,443.059v-168.6l147.314-89.656,137.7,79.863-83.091,57.22-54.607-28.452-57.288,34.278v61.1l57.288,36.759Zm-26.533-47.268h90.306v27.673H548.806s-6.458,14.215-26.391,14.215c-12.491,0-26.147-13.14-26.147-28.58s15.868-28,26.147-28C543.562,330.79,548.806,345.479,548.806,345.479Z"/>
</svg>
