<svg xmlns="http://www.w3.org/2000/svg" width="1024" height="716" viewBox="0 0 1024 716">
  <defs>
    <style>
      .cls-1 {
        fill-rule: evenodd;
      }
    </style>
  </defs>
  <path id="Medium" class="cls-1" d="M776.548,560.467L823,606.7v2.433h-239.6V606.7l48.9-46.233c4.89-4.867,7.335-9.734,7.335-17.034V256.3c0-12.167,0-29.2,2.445-43.8L480.721,614h-2.445L312.026,244.133c-2.444-9.733-4.889-9.733-7.334-14.6V472.867c-2.445,17.033,0,31.633,7.334,46.233l66.011,87.6v2.433H202.008V606.7l66.011-90.033c7.335-14.6,9.779-31.634,7.335-46.234V202.767c0-12.167-2.445-26.767-12.225-36.5l-44.007-60.834V103h171.14l141.8,313.9L656.751,103H823v2.433l-46.453,53.534A26.223,26.223,0,0,0,769.214,176V545.867C769.214,550.733,771.659,558.033,776.548,560.467Z"/>
</svg>
