<svg width="13" height="14" viewBox="0 0 13 14" fill="none" xmlns="http://www.w3.org/2000/svg">
<path d="M12.3164 0.12326H1.32053C1.25017 0.12326 1.1827 0.151243 1.13296 0.201052C1.08321 0.250862 1.05526 0.318418 1.05526 0.388858V12.6943C1.05504 12.967 0.946676 13.2284 0.754005 13.4211C0.561334 13.6137 0.300128 13.7219 0.0278168 13.7218H11.1729C11.5461 13.7218 11.904 13.5735 12.168 13.3094C12.432 13.0453 12.5805 12.6871 12.5808 12.3134V0.388858C12.5808 0.318563 12.553 0.251135 12.5034 0.201349C12.4538 0.151564 12.3866 0.123483 12.3164 0.12326V0.12326ZM6.68308 1.71853C6.75959 1.71853 6.82307 1.74379 6.84241 1.81071L7.32586 3.44345L7.5781 2.36801C7.59702 2.28382 7.70842 2.23752 7.81689 2.23752C7.92535 2.23752 8.03675 2.28214 8.05567 2.36801L8.30791 3.44345L8.79094 1.81113C8.80986 1.74421 8.87502 1.71895 8.95027 1.71895C9.09362 1.71895 9.27187 1.80819 9.27187 1.91636C9.27191 1.93063 9.26978 1.94482 9.26557 1.95845L8.63203 3.89846C8.59997 3.95552 8.55165 4.00173 8.49325 4.0312C8.43485 4.06066 8.36901 4.07204 8.30412 4.06388C8.16077 4.06388 8.00985 4.00958 7.98252 3.89846L7.81689 3.14417L7.65125 3.89846C7.62561 4.01 7.473 4.06388 7.32965 4.06388C7.18629 4.06388 7.03537 4.00958 7.00174 3.89846L6.36821 1.95719C6.36399 1.94356 6.36186 1.92937 6.3619 1.9151C6.3619 1.80692 6.54015 1.71853 6.6835 1.71853H6.68308ZM4.68074 1.87132C4.68074 1.76946 4.78921 1.71853 4.89725 1.71853H6.03231C6.13741 1.71853 6.18197 1.83007 6.18197 1.93152C6.18197 2.04937 6.12774 2.15123 6.03231 2.15123H5.17891V2.69085H5.65648C5.75191 2.69085 5.80614 2.78303 5.80614 2.88489C5.80614 2.96907 5.76158 3.07262 5.65648 3.07262H5.17807V3.61223H6.03105C6.12648 3.61223 6.18071 3.7141 6.18071 3.83195C6.18071 3.93381 6.13615 4.04494 6.03105 4.04494H4.89598C4.78794 4.04494 4.67948 3.994 4.67948 3.89214V1.87175L4.68074 1.87132ZM2.58297 1.87132C2.58297 1.76652 2.70909 1.71853 2.83143 1.71853C3.00967 1.71853 3.07652 1.73453 3.19759 1.96687L3.71341 2.95013V1.86838C3.71341 1.76357 3.83953 1.71895 3.96187 1.71895C4.0842 1.71895 4.21032 1.76357 4.21032 1.86838V3.89214C4.21032 3.994 4.0842 4.04494 3.96187 4.04494C3.9077 4.05246 3.85252 4.04381 3.80324 4.02007C3.75396 3.99634 3.71277 3.95857 3.68483 3.9115L3.07988 2.80997V3.89172C3.07988 3.99358 2.95376 4.04451 2.83143 4.04451C2.70909 4.04451 2.58297 3.99358 2.58297 3.89172V1.87132V1.87132ZM5.51396 12.0907H2.92433C2.8188 12.0907 2.7176 12.0488 2.64297 11.9741C2.56835 11.8993 2.52643 11.798 2.52643 11.6923C2.52643 11.5867 2.56835 11.4854 2.64297 11.4106C2.7176 11.3359 2.8188 11.294 2.92433 11.294H5.51396C5.6195 11.294 5.7207 11.3359 5.79533 11.4106C5.86995 11.4854 5.91187 11.5867 5.91187 11.6923C5.91187 11.798 5.86995 11.8993 5.79533 11.9741C5.7207 12.0488 5.6195 12.0907 5.51396 12.0907V12.0907ZM5.51396 10.4997H2.92433C2.8188 10.4997 2.7176 10.4577 2.64297 10.383C2.56835 10.3083 2.52643 10.2069 2.52643 10.1013C2.52643 9.99562 2.56835 9.89429 2.64297 9.81958C2.7176 9.74486 2.8188 9.70289 2.92433 9.70289H5.51396C5.6195 9.70289 5.7207 9.74486 5.79533 9.81958C5.86995 9.89429 5.91187 9.99562 5.91187 10.1013C5.91187 10.2069 5.86995 10.3083 5.79533 10.383C5.7207 10.4577 5.6195 10.4997 5.51396 10.4997V10.4997ZM5.51396 8.90862H2.92433C2.8188 8.90862 2.7176 8.86665 2.64297 8.79193C2.56835 8.71722 2.52643 8.61588 2.52643 8.51022C2.52643 8.40456 2.56835 8.30323 2.64297 8.22851C2.7176 8.1538 2.8188 8.11183 2.92433 8.11183H5.51396C5.6195 8.11183 5.7207 8.1538 5.79533 8.22851C5.86995 8.30323 5.91187 8.40456 5.91187 8.51022C5.91187 8.61588 5.86995 8.71722 5.79533 8.79193C5.7207 8.86665 5.6195 8.90862 5.51396 8.90862V8.90862ZM10.9904 11.6926C10.9903 11.7981 10.9484 11.8993 10.8738 11.974C10.7993 12.0486 10.6982 12.0906 10.5927 12.0907H7.10558C7.00014 12.0906 6.89905 12.0486 6.82449 11.974C6.74993 11.8993 6.708 11.7981 6.70789 11.6926V8.51043C6.708 8.40486 6.74993 8.30365 6.82449 8.229C6.89905 8.15435 7.00014 8.11236 7.10558 8.11225H10.5923C10.6978 8.11236 10.7989 8.15435 10.8734 8.229C10.948 8.30365 10.9899 8.40486 10.99 8.51043L10.9904 11.6926ZM10.5927 7.31756H2.92475C2.81922 7.31756 2.71802 7.27558 2.64339 7.20087C2.56877 7.12616 2.52685 7.02482 2.52685 6.91916C2.52685 6.8135 2.56877 6.71216 2.64339 6.63745C2.71802 6.56274 2.81922 6.52076 2.92475 6.52076H10.5927C10.6983 6.52076 10.7995 6.56274 10.8741 6.63745C10.9487 6.71216 10.9907 6.8135 10.9907 6.91916C10.9907 7.02482 10.9487 7.12616 10.8741 7.20087C10.7995 7.27558 10.6983 7.31756 10.5927 7.31756V7.31756ZM10.5927 5.72649H2.92475C2.81922 5.72649 2.71802 5.68452 2.64339 5.60981C2.56877 5.53509 2.52685 5.43376 2.52685 5.3281C2.52685 5.22244 2.56877 5.1211 2.64339 5.04639C2.71802 4.97167 2.81922 4.9297 2.92475 4.9297H10.5927C10.6983 4.9297 10.7995 4.97167 10.8741 5.04639C10.9487 5.1211 10.9907 5.22244 10.9907 5.3281C10.9907 5.43376 10.9487 5.53509 10.8741 5.60981C10.7995 5.68452 10.6983 5.72649 10.5927 5.72649V5.72649ZM10.2363 4.0765C9.81922 4.0765 9.46904 3.87278 9.46904 3.66274C9.46904 3.55457 9.56447 3.39546 9.68554 3.39546C9.8352 3.39546 9.93063 3.63075 10.2266 3.63075C10.3729 3.63075 10.5356 3.57351 10.5356 3.4203C10.5356 3.03516 9.52663 3.10208 9.52663 2.35748C9.52663 1.88016 9.94366 1.69875 10.3418 1.69875C10.5099 1.69875 10.9753 1.73074 10.9753 1.97866C10.9753 2.06284 10.9181 2.23963 10.7781 2.23963C10.6634 2.23963 10.6028 2.11882 10.3422 2.11882C10.116 2.11882 10.024 2.211 10.024 2.30992C10.024 2.62813 11.0329 2.56752 11.0329 3.36936C11.0344 3.47055 11.014 3.57085 10.9732 3.66343C10.9324 3.75601 10.8721 3.83869 10.7965 3.90581C10.7209 3.97294 10.6317 4.02294 10.535 4.0524C10.4383 4.08186 10.3364 4.09008 10.2363 4.0765V4.0765Z" fill="white"/>
</svg>
