<svg id="NewsBTC" xmlns="http://www.w3.org/2000/svg" width="1024" height="716" viewBox="0 0 1024 716">
  <defs>
    <style>
      .cls-1, .cls-2, .cls-3 {
        fill-rule: evenodd;
      }

      .cls-2, .cls-3 {
        fill: #fff;
      }

      .cls-2 {
        opacity: 0.5;
      }
    </style>
  </defs>
  <path id="Out" class="cls-1" d="M296.96,229.12S424.8,148.252,512,100.24c101.219,54.15,215.04,128.88,215.04,128.88s26.4,128.652,0,257.76C692.942,516.368,512,615.76,512,615.76S333.469,517.3,296.96,486.88C271.756,344.978,296.96,229.12,296.96,229.12Z"/>
  <path id="Transparent" class="cls-2" d="M493,463c-9.91.094-15-5-15-10V370s-3.7-3.755-11,4,83-112,83-112v95s2.558,7.965,11,1C566.327,350.345,508.809,462.667,493,463Z"/>
  <path id="N" class="cls-3" d="M296.96,486.88S333.465,516.2,359,528c2.232-3.112,189.357-263,191-265,0.23-6.354-6-9-6-9H464ZM672,194l56,35.12V235L570,463H487c-4.759-1.948-3-7-3-7Z"/>
</svg>
