<svg xmlns="http://www.w3.org/2000/svg" width="1024" height="716" viewBox="0 0 1024 716">
  <defs>
    <style>
      .cls-1 {
        fill-rule: evenodd;
      }
    </style>
  </defs>
  <path id="Reddit" class="cls-1" d="M610.365,453.166a44.551,44.551,0,0,1-44.8-44.509c0-25.262,20.585-45.713,44.8-45.713s44.8,20.451,44.8,45.713c1.21,24.059-19.374,44.509-44.8,44.509m8.476,74.584c-31.482,31.276-90.815,33.682-107.767,33.682s-76.285-2.406-107.768-33.682a11.578,11.578,0,0,1,0-16.842,11.759,11.759,0,0,1,16.953,0c19.374,19.247,61.754,26.465,90.815,26.465,30.272,0,71.441-7.218,90.815-26.465a11.758,11.758,0,0,1,16.952,0,11.576,11.576,0,0,1,0,16.842M365.769,408.657a45.844,45.844,0,0,1,46.014-45.713c25.428,0,44.8,20.451,44.8,45.713a44.554,44.554,0,0,1-44.8,44.509c-25.429,0-46.014-20.45-46.014-44.509m435.914-45.713c0-34.885-29.061-63.756-64.176-63.756a62.507,62.507,0,0,0-43.592,18.044c-43.591-31.277-102.924-51.727-169.521-54.133l29.06-135.934,94.448,20.45c1.211,24.059,20.585,43.307,44.8,43.307a44.51,44.51,0,1,0,0-89.019c-18.164,0-32.694,10.826-39.959,25.262L547.4,104.309c-2.422-1.2-6.054,0-8.476,1.2a8.123,8.123,0,0,0-4.844,7.217L502.6,260.693V263.1c-67.809,1.2-128.352,21.653-173.155,52.93a62.507,62.507,0,0,0-43.591-18.044c-35.115,0-64.176,28.871-64.176,63.756a64.014,64.014,0,0,0,37.537,57.742C258,425.5,258,432.716,258,438.731c0,97.439,113.822,175.631,254.283,175.631S766.568,536.17,766.568,438.731c0-6.015,0-13.233-1.211-19.248,20.585-8.42,36.326-31.276,36.326-56.539"/>
</svg>
