<?xml version="1.0" encoding="utf-8"?>
<!-- Generator: Adobe Illustrator 28.2.0, SVG Export Plug-In . SVG Version: 6.00 Build 0)  -->
<svg version="1.1" id="Layer_1" xmlns="http://www.w3.org/2000/svg" xmlns:xlink="http://www.w3.org/1999/xlink" x="0px" y="0px"
	 viewBox="0 0 132 132" style="enable-background:new 0 0 132 132;" xml:space="preserve">
<style type="text/css">
	.st0{fill:#1B63EF;}
</style>
<path id="path829" class="st0" d="M31.7,100.1c0-0.1,5.3-7,11.9-15.3S62.2,61,70.3,50.6l14.9-19h15.1v68.4l-5.8,0.1l-5.8,0.1
	l-0.1-26.3C88.6,51,88.5,47.5,88,47.5c-0.3,0-9.9,11.9-21.3,26.4l-20.7,26.4h-7.1C34.9,100.2,31.7,100.1,31.7,100.1L31.7,100.1z"/>
<path class="st0" d="M117,7c4.4,0,8,3.6,8,8v102c0,4.4-3.6,8-8,8H15c-4.4,0-8-3.6-8-8V15c0-4.4,3.6-8,8-8H117 M117,0H15
	C6.7,0,0,6.7,0,15v102c0,8.3,6.7,15,15,15h102c8.3,0,15-6.7,15-15V15C132,6.7,125.3,0,117,0L117,0z"/>
</svg>
