<?xml version="1.0" encoding="utf-8"?>
<!-- Generator: Adobe Illustrator 28.2.0, SVG Export Plug-In . SVG Version: 6.00 Build 0)  -->
<svg version="1.1" id="Layer_1" xmlns="http://www.w3.org/2000/svg" xmlns:xlink="http://www.w3.org/1999/xlink" x="0px" y="0px"
	 viewBox="0 0 132 132" style="enable-background:new 0 0 132 132;" xml:space="preserve">
<style type="text/css">
	.st0{fill:#1B63EF;}
	.st1{fill:#FFFFFF;}
</style>
<path class="st0" d="M117,7c4.4,0,8,3.6,8,8v102c0,4.4-3.6,8-8,8H15c-4.4,0-8-3.6-8-8V15c0-4.4,3.6-8,8-8H117 M117,0H15
	C6.7,0,0,6.7,0,15v102c0,8.3,6.7,15,15,15h102c8.3,0,15-6.7,15-15V15C132,6.7,125.3,0,117,0L117,0z"/>
<g>
	<g>
		<path class="st1" d="M104.9,37.5c-2.1-0.9-4.5-0.4-6.1,1.2l-19.9,20v11.5l21.4-21.4v37.9H64l-4.3-7.1l-7,7.1l0,0l-8.1,8.2h58.4
			c3.1,0,5.6-2.6,5.6-5.7V42.8C108.4,40.5,107.1,38.4,104.9,37.5L104.9,37.5z"/>
		<path class="st1" d="M43,86.7l24.9-25.1v22.5h8.1V55.6c0-2.3-1.4-4.4-3.5-5.2c-2.1-0.9-4.5-0.4-6.1,1.2l-43,43.3H41l8.1-8.2H43z"
			/>
	</g>
</g>
</svg>
