<svg xmlns="http://www.w3.org/2000/svg" viewBox="0 0 132 132">
  <g id="Layer_2" data-name="Layer 2">
    <g id="Layer_1-2" data-name="Layer 1">
      <g id="Сгруппировать_185908" data-name="Сгруппировать 185908">
        <g id="Сгруппировать_185901" data-name="Сгруппировать 185901">
          <g id="Сгруппировать_185882" data-name="Сгруппировать 185882">
            <path id="Прямоугольник_193252" data-name="Прямоугольник 193252" d="M66,0h0a66,66,0,0,1,66,66h0a66,66,0,0,1-66,66h0A66,66,0,0,1,0,66H0A66,66,0,0,1,66,0Z" fill="#f0b90b"/>
            <path id="Прямоугольник_193253" data-name="Прямоугольник 193253" d="M66,10h0a56,56,0,0,1,56,56h0a56,56,0,0,1-56,56h0A56,56,0,0,1,10,66h0A56,56,0,0,1,66,10Z" fill="#1d1d1d"/>
          </g>
          <g id="icon_dex" data-name="icon dex">
            <path id="Контур_14035" data-name="Контур 14035" d="M66.41,32,48.35,42.41,55,46.26l11.42-6.57,11.41,6.57,6.64-3.85Z" fill="#fff"/>
            <path id="Контур_14036" data-name="Контур 14036" d="M77.82,51.7l6.64,3.85v7.69L73.05,69.81V82.94l-6.64,3.85-6.64-3.85V69.81L48.35,63.24V55.55L55,51.7l11.42,6.56Z" fill="#fff"/>
            <path id="Контур_14037" data-name="Контур 14037" d="M84.46,68.68v7.69l-6.64,3.85v-7.7Z" fill="#fff"/>
            <path id="Контур_14038" data-name="Контур 14038" d="M77.76,85.66,89.18,79.1V66l6.64-3.85V82.94L77.76,93.35Z" fill="#fff"/>
            <path id="Контур_14039" data-name="Контур 14039" d="M89.18,52.83,82.54,49l6.64-3.85L95.81,49v7.69l-6.63,3.85Z" fill="#fff"/>
            <path id="Контур_14040" data-name="Контур 14040" d="M59.77,96.13V88.44l6.64,3.85,6.64-3.85v7.69L66.41,100Z" fill="#fff"/>
            <path id="Контур_14041" data-name="Контур 14041" d="M55,80.22l-6.64-3.85V68.68L55,72.52Z" fill="#fff"/>
            <path id="Контур_14042" data-name="Контур 14042" d="M66.41,52.83,59.77,49l6.64-3.85L73.05,49Z" fill="#fff"/>
            <path id="Контур_14043" data-name="Контур 14043" d="M50.28,49l-6.64,3.85v7.69L37,56.67V49l6.64-3.85Z" fill="#fff"/>
            <path id="Контур_14044" data-name="Контур 14044" d="M37,62.11,43.64,66V79.1l11.42,6.56v7.69L37,82.94Z" fill="#fff"/>
          </g>
        </g>
      </g>
    </g>
  </g>
</svg>
