<?xml version="1.0" encoding="utf-8"?>
<!-- Generator: Adobe Illustrator 28.2.0, SVG Export Plug-In . SVG Version: 6.00 Build 0)  -->
<svg version="1.1" id="Layer_1" xmlns="http://www.w3.org/2000/svg" xmlns:xlink="http://www.w3.org/1999/xlink" x="0px" y="0px"
	 viewBox="0 0 132 132" style="enable-background:new 0 0 132 132;" xml:space="preserve">
<style type="text/css">
	.st0{fill:#1B63EF;}
</style>
<g>
	<path id="Контур_14033" class="st0" d="M53.1,61L66,48.1l13,13l7.5-7.5L66,33L45.5,53.5L53.1,61 M32.7,66.3l7.5-7.5l7.5,7.5
		l-7.5,7.5L32.7,66.3z M53.1,71.7L66,84.6l13-12.9l7.5,7.5l0,0L66,99.7L45.5,79.2l0,0L53.1,71.7 M84.3,66.3l7.5-7.5l7.5,7.5
		l-7.5,7.5L84.3,66.3z"/>
	<path id="Контур_14034" class="st0" d="M73.7,66.3L73.7,66.3l-7.6-7.7l-5.7,5.7l0,0L59.7,65l-1.3,1.3l0,0l7.7,7.7L73.7,66.3
		L73.7,66.3"/>
</g>
<g>
	<path class="st0" d="M117,7c4.4,0,8,3.6,8,8v102c0,4.4-3.6,8-8,8H15c-4.4,0-8-3.6-8-8V15c0-4.4,3.6-8,8-8H117 M117,0H15
		C6.7,0,0,6.7,0,15v102c0,8.3,6.7,15,15,15h102c8.3,0,15-6.7,15-15V15C132,6.7,125.3,0,117,0L117,0z"/>
</g>
</svg>
