<?xml version="1.0" encoding="utf-8"?>
<!-- Generator: Adobe Illustrator 28.2.0, SVG Export Plug-In . SVG Version: 6.00 Build 0)  -->
<svg version="1.1"
	 id="svg12" xmlns:svg="http://www.w3.org/2000/svg" xmlns:inkscape="http://www.inkscape.org/namespaces/inkscape" xmlns:sodipodi="http://sodipodi.sourceforge.net/DTD/sodipodi-0.dtd"
	 xmlns="http://www.w3.org/2000/svg" xmlns:xlink="http://www.w3.org/1999/xlink" x="0px" y="0px" viewBox="0 0 132 132"
	 style="enable-background:new 0 0 132 132;" xml:space="preserve">
<style type="text/css">
	.st0{fill:#FFFFFF;}
	.st1{font-family:'ArialMT';}
	.st2{font-size:32.4136px;}
	.st3{fill:#1B63EF;}
</style>
<sodipodi:namedview  bordercolor="#666666" borderopacity="1.0" id="namedview14" inkscape:current-layer="svg12" inkscape:cx="66" inkscape:cy="66" inkscape:pagecheckerboard="0" inkscape:pageopacity="0.0" inkscape:pageshadow="2" inkscape:window-height="1377" inkscape:window-maximized="1" inkscape:window-width="2560" inkscape:window-x="-8" inkscape:window-y="-8" inkscape:zoom="6.6136364" pagecolor="#ffffff" showgrid="false">
	</sodipodi:namedview>
<g>
	<g id="Layer_2-2">
		<g id="Layer_1-3" transform="matrix(0.84008401,0,0,0.84008401,-12.722772,10.277228)">
			<path id="Контур_14033" class="st0" d="M52.8,61l12.9-12.9l13,13l7.5-7.5L65.7,33L45.2,53.5L52.8,61 M32.4,66.3l7.5-7.5
				l7.5,7.5l-7.5,7.5L32.4,66.3z M52.8,71.7l12.9,12.9l13-12.9l7.5,7.5l0,0L65.7,99.7L45.2,79.2l0,0L52.8,71.7 M84,66.3l7.5-7.5
				l7.5,7.5l-7.5,7.5L84,66.3z"/>
			<path id="Контур_14034" class="st0" d="M73.4,66.3L73.4,66.3l-7.6-7.7l-5.7,5.7l0,0L59.4,65l-1.3,1.3l0,0l7.7,7.7
				L73.4,66.3L73.4,66.3"/>
		</g>
	</g>
	<text transform="matrix(1 0 0 1 63.5113 77.5813)" class="st0 st1 st2">.US</text>
</g>
<path class="st3" d="M117,7c4.4,0,8,3.6,8,8v102c0,4.4-3.6,8-8,8H15c-4.4,0-8-3.6-8-8V15c0-4.4,3.6-8,8-8H117 M117,0H15
	C6.7,0,0,6.7,0,15v102c0,8.3,6.7,15,15,15h102c8.3,0,15-6.7,15-15V15C132,6.7,125.3,0,117,0L117,0z"/>
</svg>
