<?xml version="1.0" encoding="utf-8"?>
<!-- Generator: Adobe Illustrator 28.2.0, SVG Export Plug-In . SVG Version: 6.00 Build 0)  -->
<svg version="1.1" id="Layer_1" xmlns="http://www.w3.org/2000/svg" xmlns:xlink="http://www.w3.org/1999/xlink" x="0px" y="0px"
	 viewBox="0 0 132 132" style="enable-background:new 0 0 132 132;" xml:space="preserve">
<style type="text/css">
	.st0{fill:#FFFFFF;}
	.st1{fill:#1B63EF;}
</style>
<g>
	<path id="Контур_14035" class="st0" d="M66,32L47.9,42.4l6.7,3.8L66,39.6l11.4,6.6l6.6-3.8L66,32z"/>
	<path id="Контур_14036" class="st0" d="M77.4,51.7l6.6,3.8v7.7l-11.4,6.6v13.1L66,86.7l-6.6-3.8V69.8L48,63.2v-7.7l6.7-3.8
		l11.4,6.6L77.4,51.7z"/>
	<path id="Контур_14037" class="st0" d="M84.1,68.7v7.7l-6.6,3.8v-7.7L84.1,68.7z"/>
	<path id="Контур_14038" class="st0" d="M77.4,85.7l11.4-6.6V66l6.6-3.8V83l-18,10.3V85.7z"/>
	<path id="Контур_14039" class="st0" d="M88.8,52.8L82.1,49l6.6-3.8l6.6,3.8v7.7l-6.6,3.8L88.8,52.8L88.8,52.8z"/>
	<path id="Контур_14040" class="st0" d="M59.4,96.1v-7.7l6.6,3.8l6.6-3.8v7.7L66,100L59.4,96.1z"/>
	<path id="Контур_14041" class="st0" d="M54.6,80.2L48,76.4v-7.7l6.6,3.8V80.2z"/>
	<path id="Контур_14042" class="st0" d="M66,52.8L59.4,49l6.6-3.8l6.6,3.8L66,52.8z"/>
	<path id="Контур_14043" class="st0" d="M49.9,49l-6.6,3.8v7.7l-6.7-3.8V49l6.6-3.8L49.9,49z"/>
	<path id="Контур_14044" class="st0" d="M36.6,62.1l6.6,3.9v13.1l11.4,6.6v7.7l-18-10.5V62.1z"/>
</g>
<g>
	<path class="st1" d="M117,7c4.4,0,8,3.6,8,8v102c0,4.4-3.6,8-8,8H15c-4.4,0-8-3.6-8-8V15c0-4.4,3.6-8,8-8H117 M117,0H15
		C6.7,0,0,6.7,0,15v102c0,8.3,6.7,15,15,15h102c8.3,0,15-6.7,15-15V15C132,6.7,125.3,0,117,0L117,0z"/>
</g>
</svg>
