<svg xmlns="http://www.w3.org/2000/svg" viewBox="0 0 132 132">
  <g id="Layer_2" data-name="Layer 2">
    <g id="Layer_1-2" data-name="Layer 1">
      <g id="Сгруппировать_185902" data-name="Сгруппировать 185902">
        <g id="Сгруппировать_185895" data-name="Сгруппировать 185895">
          <path id="Прямоугольник_193240" data-name="Прямоугольник 193240" d="M66,0h0a66,66,0,0,1,66,66h0a66,66,0,0,1-66,66h0A66,66,0,0,1,0,66H0A66,66,0,0,1,66,0Z" fill="#f0b92a"/>
          <path id="Прямоугольник_193241" data-name="Прямоугольник 193241" d="M66,10h0a56,56,0,0,1,56,56h0a56,56,0,0,1-56,56h0A56,56,0,0,1,10,66h0A56,56,0,0,1,66,10Z" fill="#1d1d1d"/>
          <g id="Layer_2-2" data-name="Layer 2">
            <g id="Layer_1-3" data-name="Layer 1">
              <path id="Контур_14033" data-name="Контур 14033" d="M53.39,61,66.33,48.07l13,13,7.54-7.54L66.33,33,45.85,53.48,53.39,61M33,66.33l7.53-7.53,7.54,7.53-7.54,7.53Zm20.39,5.32L66.33,84.6l13-12.95,7.54,7.52h0L66.33,99.66,45.85,79.18h0l7.55-7.52M84.6,66.33l7.53-7.53,7.53,7.53-7.53,7.54Z" fill="#fff"/>
              <path id="Контур_14034" data-name="Контур 14034" d="M74,66.33h0l-7.64-7.65-5.65,5.65h0L60,65l-1.34,1.34h0L66.33,74,74,66.33h0" fill="#fff"/>
            </g>
          </g>
        </g>
      </g>
    </g>
  </g>
</svg>
