<?xml version="1.0" encoding="UTF-8" standalone="no"?>
<svg
   viewBox="0 0 132 132"
   version="1.1"
   id="svg12"
   sodipodi:docname="BinanceUS.svg"
   inkscape:version="1.1.1 (3bf5ae0d25, 2021-09-20)"
   xmlns:inkscape="http://www.inkscape.org/namespaces/inkscape"
   xmlns:sodipodi="http://sodipodi.sourceforge.net/DTD/sodipodi-0.dtd"
   xmlns="http://www.w3.org/2000/svg"
   xmlns:svg="http://www.w3.org/2000/svg">
  <defs
     id="defs16" />
  <sodipodi:namedview
     id="namedview14"
     pagecolor="#ffffff"
     bordercolor="#666666"
     borderopacity="1.0"
     inkscape:pageshadow="2"
     inkscape:pageopacity="0.0"
     inkscape:pagecheckerboard="0"
     showgrid="false"
     inkscape:zoom="6.6136364"
     inkscape:cx="66"
     inkscape:cy="66"
     inkscape:window-width="2560"
     inkscape:window-height="1377"
     inkscape:window-x="-8"
     inkscape:window-y="-8"
     inkscape:window-maximized="1"
     inkscape:current-layer="svg12" />
  <g
     id="Layer_1-2"
     data-name="Layer 1">
    <g
       id="Сгруппировать_185902"
       data-name="Сгруппировать 185902">
      <g
         id="Сгруппировать_185895"
         data-name="Сгруппировать 185895">
        <path
           id="Прямоугольник_193240"
           data-name="Прямоугольник 193240"
           d="m 66,0 v 0 a 66,66 0 0 1 66,66 v 0 a 66,66 0 0 1 -66,66 v 0 A 66,66 0 0 1 0,66 v 0 A 66,66 0 0 1 66,0 Z"
           fill="#f0b92a" />
        <path
           id="Прямоугольник_193241"
           data-name="Прямоугольник 193241"
           d="m 66,10 v 0 a 56,56 0 0 1 56,56 v 0 a 56,56 0 0 1 -56,56 v 0 A 56,56 0 0 1 10,66 v 0 A 56,56 0 0 1 66,10 Z"
           fill="#1d1d1d" />
        <g
           id="Layer_2-2"
           data-name="Layer 2">
          <g
             id="Layer_1-3"
             data-name="Layer 1"
             transform="matrix(0.84008401,0,0,0.84008401,-12.722772,10.277228)">
            <path
               id="Контур_14033"
               data-name="Контур 14033"
               d="m 53.39,61 12.94,-12.93 13,13 7.54,-7.54 L 66.33,33 45.85,53.48 53.39,61 M 33,66.33 l 7.53,-7.53 7.54,7.53 -7.54,7.53 z m 20.39,5.32 12.94,12.95 13,-12.95 7.54,7.52 v 0 L 66.33,99.66 45.85,79.18 v 0 l 7.55,-7.52 m 31.2,-5.33 7.53,-7.53 7.53,7.53 -7.53,7.54 z"
               fill="#ffffff" />
            <path
               id="Контур_14034"
               data-name="Контур 14034"
               d="m 74,66.33 v 0 l -7.64,-7.65 -5.65,5.65 v 0 L 60,65 58.66,66.34 v 0 L 66.33,74 74,66.33 v 0"
               fill="#ffffff" />
          </g>
        </g>
      </g>
    </g>
  </g>
  <text
     xml:space="preserve"
     style="font-size:32.4136px;line-height:1.25;font-family:Arial;-inkscape-font-specification:'Arial, Normal';font-variant-ligatures:none;stroke-width:1.2155;fill:#ffffff;fill-opacity:1"
     x="64.056183"
     y="77.598099"
     id="text2639"><tspan
       sodipodi:role="line"
       id="tspan2637"
       x="64.056183"
       y="77.598099"
       style="stroke-width:1.2155;fill:#ffffff;fill-opacity:1">.US</tspan></text>
</svg>
