<?xml version="1.0" encoding="utf-8"?>
<!-- Generator: Adobe Illustrator 28.2.0, SVG Export Plug-In . SVG Version: 6.00 Build 0)  -->
<svg version="1.1" id="Layer_1" xmlns="http://www.w3.org/2000/svg" xmlns:xlink="http://www.w3.org/1999/xlink" x="0px" y="0px"
	 viewBox="0 0 132 132" style="enable-background:new 0 0 132 132;" xml:space="preserve">
<style type="text/css">
	.st0{fill-rule:evenodd;clip-rule:evenodd;fill:#1B63EF;}
	.st1{fill:#1B63EF;}
</style>
<g transform="matrix(.833748 0 0 .83375 64.8748 47.6389)">
	<path class="st0" d="M27.2-15.7C21.3-20.5,13.1-23,2.8-23H-23v3.6H2.3c8.8,0,16.8,1.8,21.6,6c4.9,4.2,8.6,10.5,8.6,18.2
		c0,7.5-3.2,13-8.3,17.2s-14.1,6-23.1,6H-28v3.6H1.3c10.9,0,19.4-2.4,25.5-7.1S36,13.1,36,4.5C36.1-4.1,33.1-10.8,27.2-15.7"/>
	<path class="st0" d="M25-10.4c-3.7-2.8-7.9-5-19.9-5h-19.9v3.5H4.7c10.2,0.1,13.9,1.3,17.4,3.8c4.4,3.2,7.1,7.3,7.1,12.9
		c0,5.4-2.8,9.2-7.2,12.5c-4.5,3.3-11.4,3.4-14.2,3.4c-1.1,0-14.8,0-14.8,0v3.5H4c9.7-0.2,15.4-0.8,20.8-4.8c5-3.7,7.7-8.6,7.7-14.9
		C32.5-3.7,28.4-7.9,25-10.4 M23.2-5.8C20.4-7.5,18-8.7,6.6-8.7H-7.7v2.3H6.2c10.1,0,14,1.8,15.1,2.5c2.3,1.4,5.3,3.7,5.3,8.3
		c0,3-1.7,6.7-4.3,8.1C19.9,13.8,15.6,15,8.1,15h-46.7v2.3H8.2c9.1,0,12.3-1,15.5-2.8s5.4-5.4,5.4-10.1C29.1-0.8,26.2-4,23.2-5.8"/>
	<path class="st0" d="M32.3,19.7c-5.9-4.9-14.1-7.3-24.4-7.3c-13.9,0-11.4,0-17.3,0V16H7.4c8.8,0,16.8,1.8,21.7,6s8.6,10.5,8.6,18.2
		c0,7.5-3.2,13-8.3,17.2s-14.1,6-23.1,6h-29.1V67H6.5c10.9,0,19.4-2.4,25.5-7.1s9.2-11.4,9.2-20S38.2,24.6,32.3,19.7"/>
	<path class="st0" d="M30.1,24.9c-3.7-2.8-7.9-5-19.9-5h-27.1v3.5H9.8c10.2,0.1,13.9,1.3,17.4,3.8c4.4,3.3,7.1,7.3,7.1,12.9
		c0,5.4-2.8,9.2-7.2,12.5c-4.5,3.3-11.4,3.3-14.2,3.4c-1.1,0-14.8,0-14.8,0v3.5H9.2c9.7-0.2,15.4-0.8,20.8-4.8
		c5-3.7,7.7-8.6,7.7-14.9C37.6,31.6,33.5,27.5,30.1,24.9 M14.4,34.9H-11v2h25.4V34.9z M14.2,42H-0.5v1.7h14.8L14.2,42z M-15.3,34.9
		h-7.5v2h7.5L-15.3,34.9z M-4.7,41.9h-22.8v2h22.8C-4.7,43.9-4.7,41.9-4.7,41.9z M-13-8.2h-8.9v1.6h8.9V-8.2z M-7.7,4.7h-20.4v1.9
		h20.4C-7.7,6.6-7.7,4.7-7.7,4.7z M-6.1,56.9h-21.5v2.4h21.5V56.9z"/>
	<path class="st0" d="M-27.5,63.5h-5.4v3.4h5.4V63.5z M14.3-1h-33.7v1.9h33.7V-1z M13.6,4.7H-2.6v1.9h16.2
		C13.6,6.6,13.6,4.7,13.6,4.7z M28.4,29.9c-2.8-1.7-5.2-2.8-16.6-2.8H-6.5v2.2h17.8c10.1,0,14,1.7,15.1,2.4c2.3,1.3,5.3,3.5,5.3,8
		c0,2.9-1.7,6.4-4.3,7.8c-2.4,1.3-6.7,2.4-14.2,2.4h-46.7v2.2h46.9c9.1,0,12.3-1,15.5-2.7s5.4-5.3,5.4-9.8
		C34.2,34.7,31.3,31.7,28.4,29.9"/>
</g>
<path class="st1" d="M117,7c4.4,0,8,3.6,8,8v102c0,4.4-3.6,8-8,8H15c-4.4,0-8-3.6-8-8V15c0-4.4,3.6-8,8-8H117 M117,0H15
	C6.7,0,0,6.7,0,15v102c0,8.3,6.7,15,15,15h102c8.3,0,15-6.7,15-15V15C132,6.7,125.3,0,117,0L117,0z"/>
</svg>
