<svg xmlns="http://www.w3.org/2000/svg" xmlns:xlink="http://www.w3.org/1999/xlink" width="250" height="250" xmlns:v="https://vecta.io/nano"><defs><path d="M.15 74.92l94.15.76s20.78 2.64 38.53 18.23c1.01.88 4.96 0 4.96 0l-.48-93.5L.15.57v74.35" id="A"/></defs><path d="M125 0h0c69.036 0 125 55.964 125 125h0c0 69.036-55.964 125-125 125h0C55.964 250 0 194.036 0 125h0C0 55.964 55.964 0 125 0z" fill="#08aba6"/><path d="M125 18.939h0c58.576 0 106.061 47.485 106.061 106.061h0c0 58.576-47.485 106.061-106.061 106.061h0c-58.576 0-106.061-47.485-106.061-106.061h0C18.939 66.424 66.424 18.939 125 18.939z" fill="#1d1d1d"/><g transform="matrix(.833748 0 0 .83375 64.8748 47.6389)" fill="#fff" fill-rule="evenodd"><mask id="B" fill="#fff"><use xlink:href="#A"/></mask><path d="M117.79 21.47c-11.2-9.22-26.61-13.84-46.23-13.84H22.68v6.83h47.98c16.68 0 31.78 3.44 41 11.4 9.22 7.97 16.21 19.83 16.21 34.47 0 14.13-6.05 24.6-15.64 32.52s-26.69 11.41-43.81 11.41H13.3v6.83l55.5-.01c20.65 0 36.78-4.49 48.39-13.45 11.61-8.97 17.41-21.58 17.41-37.85 0-16.31-5.6-29.08-16.81-38.31" mask="url(#B)"/><path d="M113.65 31.37c-6.97-5.29-14.98-9.55-37.64-9.55h-37.7v6.66h36.86c19.32.2 26.41 2.38 32.91 7.19 8.32 6.15 13.48 13.74 13.48 24.36 0 10.24-5.24 17.49-13.6 23.64-8.55 6.3-21.62 6.37-26.94 6.49-2.01.05-27.99 0-27.99 0v6.66l20.92-.01c18.34-.41 29.22-1.5 39.35-9.03 9.51-7.05 14.54-16.36 14.54-28.15 0-15.55-7.78-23.39-14.19-28.26m-3.37 8.79c-5.23-3.28-9.82-5.49-31.47-5.49h-27.1v4.38h26.35c19.18 0 26.45 3.41 28.65 4.76 4.31 2.64 9.99 6.94 9.99 15.7 0 5.6-3.31 12.63-8.2 15.39-4.46 2.51-12.61 4.76-26.97 4.76H-6.99v4.38h88.85c17.31 0 23.25-1.92 29.35-5.29 6.12-3.37 10.2-10.3 10.2-19.2 0-9.94-5.55-15.9-11.13-19.39" mask="url(#B)"/><path d="M127.51 88.48c-11.2-9.23-26.62-13.84-46.23-13.84-26.24 0-21.67-.01-32.7-.01v6.83h31.79c16.68 0 31.79 3.44 41.01 11.4 9.22 7.97 16.2 19.83 16.2 34.48 0 14.12-6.04 24.59-15.63 32.51s-26.7 11.41-43.82 11.41H23.02v6.83l55.5-.01c20.65 0 36.77-4.48 48.38-13.45 11.61-8.96 17.42-21.58 17.42-37.84 0-16.32-5.6-29.09-16.81-38.31"/><path d="M123.37 98.37c-6.97-5.28-14.98-9.55-37.64-9.55H34.48v6.66h50.41c19.32.2 26.4 2.38 32.9 7.19 8.33 6.16 13.49 13.74 13.49 24.36 0 10.24-5.24 17.49-13.6 23.65-8.55 6.29-21.62 6.37-26.95 6.49-2.01.04-27.99 0-27.99 0v6.65h20.93c18.33-.42 29.22-1.51 39.35-9.03 9.5-7.06 14.53-16.37 14.53-28.16 0-15.54-7.77-23.39-14.18-28.26m-29.89 18.88H45.45v3.72h48.03zm-.28 13.53H65.26v3.2H93.2zm-55.95-13.53H23.02v3.72h14.23zm20.12 13.27H14.15v3.72h43.22zM41.64 35.69H24.8v3.07h16.84zm10 24.4H13.07v3.57h38.57zm3.18 98.81H14.15v4.46h40.67z"/><path d="M14.18 171.36H4.01v6.46h10.17zM93.29 49.19H29.43v3.57h63.86zm-1.21 10.9H61.36v3.57h30.72zM120 107.83c-5.24-3.17-9.83-5.3-31.47-5.3H54v4.23h33.77c19.18 0 26.46 3.29 28.66 4.6 4.3 2.55 9.99 6.69 9.99 15.15 0 5.41-3.31 12.19-8.21 14.85-4.46 2.43-12.61 4.6-26.97 4.6H2.73v4.23l88.84-.01c17.32 0 23.26-1.85 29.36-5.1 6.11-3.26 10.19-9.95 10.19-18.54 0-9.59-5.54-15.34-11.12-18.71"/></g></svg>