<?xml version="1.0" encoding="utf-8"?>
<!-- Generator: Adobe Illustrator 28.2.0, SVG Export Plug-In . SVG Version: 6.00 Build 0)  -->
<svg version="1.1" id="Layer_1" xmlns="http://www.w3.org/2000/svg" xmlns:xlink="http://www.w3.org/1999/xlink" x="0px" y="0px"
	 viewBox="0 0 132 132" style="enable-background:new 0 0 132 132;" xml:space="preserve">
<style type="text/css">
	.st0{fill:#1B63EF;}
</style>
<g id="Page-1" transform="matrix(4.4389407,0,0,4.4334975,50,63.841379)">
	<g id="Desktop-HD-Copy-2" transform="translate(-100,-56)">
		<g id="bitmex" transform="translate(100,56)">
			<g id="Group">
				<polygon id="Path" class="st0" points="4,-1.3 5.4,-6.7 1.8,-6.7 -1.8,-6.7 -5.3,7.6 -1.7,7.6 0.5,-1.3 				"/>
				<polygon id="polygon5" class="st0" points="1.8,7.6 5.4,7.6 9,7.6 11.2,-1.3 12.5,-6.7 9,-6.7 7.6,-1.3 6.7,2.3 3.2,2.3 				"/>
			</g>
		</g>
	</g>
</g>
<path class="st0" d="M117,7c4.4,0,8,3.6,8,8v102c0,4.4-3.6,8-8,8H15c-4.4,0-8-3.6-8-8V15c0-4.4,3.6-8,8-8H117 M117,0H15
	C6.7,0,0,6.7,0,15v102c0,8.3,6.7,15,15,15h102c8.3,0,15-6.7,15-15V15C132,6.7,125.3,0,117,0L117,0z"/>
</svg>
