<?xml version="1.0" encoding="UTF-8" standalone="no"?>
<svg
   width="250"
   height="250"
   viewBox="0 0 250 250"
   version="1.1"
   id="svg12"
   sodipodi:docname="Bitmex.svg"
   inkscape:version="1.1.1 (3bf5ae0d25, 2021-09-20)"
   xmlns:inkscape="http://www.inkscape.org/namespaces/inkscape"
   xmlns:sodipodi="http://sodipodi.sourceforge.net/DTD/sodipodi-0.dtd"
   xmlns="http://www.w3.org/2000/svg"
   xmlns:svg="http://www.w3.org/2000/svg"
   xmlns:rdf="http://www.w3.org/1999/02/22-rdf-syntax-ns#"
   xmlns:cc="http://creativecommons.org/ns#"
   xmlns:dc="http://purl.org/dc/elements/1.1/">
  <defs
     id="defs16" />
  <sodipodi:namedview
     id="namedview14"
     pagecolor="#ffffff"
     bordercolor="#666666"
     borderopacity="1.0"
     inkscape:pageshadow="2"
     inkscape:pageopacity="0.0"
     inkscape:pagecheckerboard="0"
     showgrid="false"
     inkscape:zoom="2.5439589"
     inkscape:cx="63.090642"
     inkscape:cy="104.36489"
     inkscape:window-width="2560"
     inkscape:window-height="1361"
     inkscape:window-x="-9"
     inkscape:window-y="-9"
     inkscape:window-maximized="1"
     inkscape:current-layer="svg12" />
  <title
     id="title2">bitmex_logo</title>
  <path
     d="m 125,0 v 0 c 69.036,0 125,55.964 125,125 v 0 c 0,69.036 -55.964,125 -125,125 v 0 C 55.964,250 0,194.036 0,125 v 0 C 0,55.964 55.964,0 125,0 Z"
     fill="#08aba6"
     id="path5" />
  <path
     d="m 125.061,19 v 0 c 58.576,0 106.061,47.485 106.061,106.061 v 0 c 0,58.576 -47.485,106.061 -106.061,106.061 v 0 C 66.485,231.122 19,183.637 19,125.061 v 0 C 19,66.485 66.485,19 125.061,19 Z"
     fill="#1d1d1d"
     id="path7" />
  <g
     id="Page-1"
     stroke="none"
     stroke-width="1"
     fill="none"
     fill-rule="evenodd"
     transform="matrix(4.4389407,0,0,4.4334975,50,63.841379)">
    <g
       id="Desktop-HD-Copy-2"
       transform="translate(-100,-56)"
       fill-rule="nonzero">
      <g
         id="bitmex"
         transform="translate(100,56)">
        <g
           id="Group">
          <polygon
             id="Path"
             fill="#ff0504"
             points="17.736051,10.378667 20.275107,0.26133333 13.516738,0.26133333 6.72103,0.26133333 0,27.328 6.7583691,27.328 10.977682,10.378667 " />
          <polygon
             id="polygon5"
             fill="#125bff"
             points="13.516738,27.328 20.275107,27.328 27.070815,27.328 31.290129,10.378667 33.791846,0.26133333 27.033476,0.26133333 24.494421,10.378667 22.814163,17.173333 16.055794,17.173333 " />
        </g>
      </g>
    </g>
  </g>
  <metadata
     id="metadata833">
    <rdf:RDF>
      <cc:Work
         rdf:about="">
        <dc:title>bitmex_logo</dc:title>
      </cc:Work>
    </rdf:RDF>
  </metadata>
</svg>
