<svg xmlns="http://www.w3.org/2000/svg" viewBox="0 0 132 132">
  <g id="Layer_2" data-name="Layer 2">
    <g id="Layer_1-2" data-name="Layer 1">
      <g id="Сгруппировать_185904" data-name="Сгруппировать 185904">
        <g id="Сгруппировать_185897" data-name="Сгруппировать 185897">
          <g id="Сгруппировать_185878" data-name="Сгруппировать 185878">
            <path id="Прямоугольник_193244" data-name="Прямоугольник 193244" d="M66,0h0a66,66,0,0,1,66,66h0a66,66,0,0,1-66,66h0A66,66,0,0,1,0,66H0A66,66,0,0,1,66,0Z" fill="#1c6fe8"/>
            <path id="Прямоугольник_193245" data-name="Прямоугольник 193245" d="M66,10h0a56,56,0,0,1,56,56h0a56,56,0,0,1-56,56h0A56,56,0,0,1,10,66h0A56,56,0,0,1,66,10Z" fill="#1d1d1d"/>
          </g>
          <g id="Group_185893" data-name="Group 185893">
            <path id="Контур_14016" data-name="Контур 14016" d="M96.28,78.51V35H52.77V47.87h7.95V43H88.33v27.6H78.51V52.78H35v43.5H78.51V83.42h-8v4.91H43V60.72h9.83V78.51Zm-25.73-8H60.72V60.72h9.83Z" fill="#fff"/>
          </g>
        </g>
      </g>
    </g>
  </g>
</svg>
