<?xml version="1.0" encoding="utf-8"?>
<!-- Generator: Adobe Illustrator 28.2.0, SVG Export Plug-In . SVG Version: 6.00 Build 0)  -->
<svg version="1.1" id="Layer_1" xmlns="http://www.w3.org/2000/svg" xmlns:xlink="http://www.w3.org/1999/xlink" x="0px" y="0px"
	 viewBox="0 0 132 132" style="enable-background:new 0 0 132 132;" xml:space="preserve">
<style type="text/css">
	.st0{fill:#FFFFFF;}
	.st1{fill:#1B63EF;}
</style>
<g id="Сгруппировать_185840">
	<path id="Контур_13975" class="st0" d="M94.1,38.8c-3.9,0.2-7.7,0.8-11.5,1.7c-8.5,2-14.8,5.3-18.7,9.8c-0.9,1-1.7,2-2.4,2.9
		c-1.5,0.4-5.8,1.6-7.8,2c-1.1,0.2-2.1,0.9-2.7,1.8c-1.4,2-3.8,6.2-4,6.4l-2.8,4.8l5.1-2.2c2.2-1,5.4-1.7,6.3-1.1c0,0,0.1,0,0.1,0.3
		c0,1.5,0.3,2.9,1,4.3c-1.4,1.1-2.2,2.8-2.1,4.6v6.3h6.3c1.8,0.1,3.5-0.7,4.6-2.1c1.3,0.6,2.8,1,4.3,1c0.2,0,0.3,0.1,0.3,0.1
		c0.5,0.9-0.1,4-1.1,6.3l-2.3,5l4.8-2.8c0.2-0.1,4.4-2.5,6.4-3.9c0.9-0.6,1.6-1.6,1.8-2.8c0.4-2,1.5-6.2,2-7.8
		c0.9-0.7,1.9-1.5,2.9-2.4C95,61.7,96,41.5,96,40.7l0.1-2L94.1,38.8L94.1,38.8z M56.4,61.2c-1.3-0.3-2.6-0.4-3.9-0.1
		c0.5-0.8,1-1.6,1.4-2.2c0.1-0.2,0.3-0.3,0.5-0.3c0.9-0.2,2.3-0.5,3.7-0.9C57.5,58.9,56.9,60,56.4,61.2z M62.5,75.8
		c-0.4,0.5-1,0.8-1.6,0.7h-0.6l3.8-5.9l-5.9,3.8v-0.6c-0.1-0.6,0.2-1.2,0.7-1.6l7.2-5.7c0.4-0.3,0.8-0.5,1.3-0.6l1.9-0.5l-0.4,1.9
		c-0.1,0.5-0.3,0.9-0.6,1.3L62.5,75.8L62.5,75.8z M76.1,80.4c0,0.2-0.2,0.4-0.3,0.5c-0.6,0.4-1.4,0.9-2.2,1.4
		c0.3-1.3,0.2-2.6-0.1-3.9c1.2-0.5,2.4-1,3.5-1.7C76.6,78.1,76.2,79.4,76.1,80.4L76.1,80.4z M82.1,68.2c-6.3,5.5-9.7,7.2-12.2,7.3
		h-0.1c-0.7,0-1.4-0.1-2-0.4l3.4-4.3c0.6-0.8,1.1-1.7,1.4-2.7l1.8-7.6l-7.6,1.8c-1,0.2-1.9,0.7-2.7,1.4L59.8,67
		c-0.2-0.6-0.4-1.3-0.4-2v-0.1c0-2.5,1.7-6,7.3-12.2c6.7-7.6,20.5-9.6,25.6-10.1C91.6,47.8,89.6,61.6,82.1,68.2L82.1,68.2z"/>
	<path id="Контур_13976" class="st0" d="M53.9,89.2c-2.3,0.4-4.7,0.6-7,0.6c-1.4,0-2.7,0-4.1-0.2c0.5-0.9,1-1.8,1.5-2.8
		c0.8-1.9,1.5-3.9,2-5.9c0.5-1.9,1-3.8,1.7-5.6c0.6-1.9,1.4-3.7,2.2-5.6c-0.7,0.7-1.4,1.5-2,2.3s-1.2,1.7-1.7,2.5
		c-1,1.8-1.9,3.6-2.7,5.5c-0.7,1.8-1.5,3.6-2.4,5.3c-0.9,1.6-2,3.2-3.2,4.6L36,92.4l3.2,0.4c2.6,0.4,5.1,0.5,7.7,0.4
		c1.3,0,2.6-0.1,3.9-0.4c1.3-0.2,2.6-0.5,3.8-0.9c2.5-0.7,4.9-1.9,7-3.4c1.1-0.8,2-1.6,2.8-2.6c0.8-1,1.5-2.1,2.1-3.2
		c-1.7,1.7-3.7,3.1-5.9,4.2C58.5,88,56.2,88.7,53.9,89.2L53.9,89.2z"/>
	<path id="Контур_13977" class="st0" d="M80.8,60.4c1.7,0,3.3-0.7,4.5-1.9c2.5-2.5,2.5-6.5,0-9l0,0c-1.2-1.2-2.8-1.9-4.5-1.9
		s-3.3,0.7-4.5,1.9c-2.5,2.5-2.4,6.5,0.1,9C77.4,59.7,79.1,60.4,80.8,60.4z M78.8,52c0.5-0.5,1.2-0.8,2-0.8s1.5,0.3,2,0.8
		c1.2,1,1.4,2.7,0.4,3.9s-2.7,1.4-3.9,0.4c-0.1-0.1-0.2-0.2-0.3-0.3l-0.1-0.1C77.9,54.8,77.9,53.1,78.8,52L78.8,52z"/>
</g>
<path class="st1" d="M117,7c4.4,0,8,3.6,8,8v102c0,4.4-3.6,8-8,8H15c-4.4,0-8-3.6-8-8V15c0-4.4,3.6-8,8-8H117 M117,0H15
	C6.7,0,0,6.7,0,15v102c0,8.3,6.7,15,15,15h102c8.3,0,15-6.7,15-15V15C132,6.7,125.3,0,117,0L117,0z"/>
</svg>
