<svg xmlns="http://www.w3.org/2000/svg" viewBox="0 0 132 132">
  <g id="Layer_2" data-name="Layer 2">
    <g id="Layer_1-2" data-name="Layer 1">
      <g id="Сгруппировать_185915" data-name="Сгруппировать 185915">
        <g id="Сгруппировать_185911" data-name="Сгруппировать 185911">
          <path id="Прямоугольник_193236" data-name="Прямоугольник 193236" d="M66,0h0a66,66,0,0,1,66,66h0a66,66,0,0,1-66,66h0A66,66,0,0,1,0,66H0A66,66,0,0,1,66,0Z" fill="#20d078"/>
          <path id="Прямоугольник_193237" data-name="Прямоугольник 193237" d="M66,10h0a56,56,0,0,1,56,56h0a56,56,0,0,1-56,56h0A56,56,0,0,1,10,66h0A56,56,0,0,1,66,10Z" fill="#1d1d1d"/>
          <g id="Сгруппировать_185840" data-name="Сгруппировать 185840">
            <path id="Контур_13975" data-name="Контур 13975" d="M94.14,39.09a65,65,0,0,0-11.53,1.73c-8.48,2-14.83,5.3-18.73,9.79-.87,1-1.68,2-2.4,2.86-1.55.41-5.81,1.59-7.76,2A4.46,4.46,0,0,0,51,57.24c-1.4,2-3.85,6.21-4,6.4l-2.81,4.8,5.12-2.22c2.23-1,5.36-1.68,6.27-1.13,0,0,.09,0,.13.32a9.71,9.71,0,0,0,1,4.26,5.41,5.41,0,0,0-2.09,4.58v6.26h6.26a5.62,5.62,0,0,0,4.58-2.08,10.53,10.53,0,0,0,4.27,1c.22,0,.27.09.27.13.54.91-.14,4-1.14,6.27L66.69,91l4.81-2.82c.18-.09,4.36-2.54,6.4-3.94a4.36,4.36,0,0,0,1.82-2.77c.4-2,1.54-6.22,2-7.76.9-.73,1.86-1.54,2.86-2.4C95,62,96,41.81,96,41l.09-2-2,.09ZM56.44,61.55a8.39,8.39,0,0,0-3.86-.09c.5-.82,1-1.59,1.41-2.18a.64.64,0,0,1,.5-.32c.9-.18,2.31-.54,3.72-.86a16.07,16.07,0,0,0-1.77,3.45Zm6.17,14.56a1.84,1.84,0,0,1-1.59.73h-.59l3.76-5.9-5.9,3.81v-.64A1.77,1.77,0,0,1,59,72.53l7.21-5.72a2.84,2.84,0,0,1,1.32-.63l1.9-.46L69,67.63a3.21,3.21,0,0,1-.64,1.31L62.6,76.11Zm13.52,4.58a.89.89,0,0,1-.32.5c-.59.41-1.36.91-2.18,1.41a8.39,8.39,0,0,0-.09-3.86A18.51,18.51,0,0,0,77,77c-.32,1.36-.68,2.72-.86,3.67Zm6-12.16c-6.27,5.54-9.71,7.17-12.2,7.26h-.1a5.74,5.74,0,0,1-2-.36l3.36-4.26a7.78,7.78,0,0,0,1.36-2.73l1.82-7.62-7.63,1.82A6.68,6.68,0,0,0,64,64L59.7,67.31a5.92,5.92,0,0,1-.36-2v-.09c0-2.45,1.72-6,7.26-12.2,6.67-7.58,20.46-9.62,25.63-10.12-.5,5.21-2.54,19-10.12,25.68Z" fill="#fff"/>
            <path id="Контур_13976" data-name="Контур 13976" d="M53.92,89.48a41.39,41.39,0,0,1-7,.63c-1.36,0-2.72,0-4.13-.18.54-.91,1-1.82,1.5-2.77a36,36,0,0,0,2-5.9,50.35,50.35,0,0,1,1.68-5.62q.95-2.79,2.18-5.58a17.92,17.92,0,0,0-1.95,2.31c-.59.82-1.18,1.68-1.73,2.54a41.81,41.81,0,0,0-2.72,5.49,46.15,46.15,0,0,1-2.4,5.26,26.67,26.67,0,0,1-3.22,4.59L36,92.7l3.22.45a43.22,43.22,0,0,0,7.71.45,28.27,28.27,0,0,0,3.9-.36,26.36,26.36,0,0,0,3.82-.86,24.08,24.08,0,0,0,7-3.4,16.15,16.15,0,0,0,2.85-2.63,13.58,13.58,0,0,0,2.09-3.22,20.38,20.38,0,0,1-5.94,4.17,28.1,28.1,0,0,1-6.76,2.18Z" fill="#fff"/>
            <path id="Контур_13977" data-name="Контур 13977" d="M80.8,60.69a6.58,6.58,0,0,0,4.54-1.86,6.39,6.39,0,0,0,0-9h0a6.29,6.29,0,0,0-4.54-1.86,6.48,6.48,0,0,0-4.54,1.86A6.38,6.38,0,0,0,80.8,60.69Zm-2-8.35a2.71,2.71,0,0,1,2-.82,2.65,2.65,0,0,1,2,.82,2.76,2.76,0,1,1-3.78,4l-.12-.12a2.83,2.83,0,0,1,0-3.9Z" fill="#fff"/>
          </g>
        </g>
      </g>
    </g>
  </g>
</svg>
