<?xml version="1.0" encoding="UTF-8" standalone="no"?>
<svg
   viewBox="0 0 132 132"
   version="1.1"
   id="svg12"
   sodipodi:docname="CoinbasePro.svg"
   width="132"
   height="132"
   inkscape:version="1.1.1 (3bf5ae0d25, 2021-09-20)"
   xmlns:inkscape="http://www.inkscape.org/namespaces/inkscape"
   xmlns:sodipodi="http://sodipodi.sourceforge.net/DTD/sodipodi-0.dtd"
   xmlns="http://www.w3.org/2000/svg"
   xmlns:svg="http://www.w3.org/2000/svg">
  <defs
     id="defs16" />
  <sodipodi:namedview
     id="namedview14"
     pagecolor="#ffffff"
     bordercolor="#666666"
     borderopacity="1.0"
     inkscape:pageshadow="2"
     inkscape:pageopacity="0.0"
     inkscape:pagecheckerboard="0"
     showgrid="false"
     width="132px"
     inkscape:zoom="3.4101562"
     inkscape:cx="134.74456"
     inkscape:cy="128"
     inkscape:window-width="2560"
     inkscape:window-height="1361"
     inkscape:window-x="-9"
     inkscape:window-y="-9"
     inkscape:window-maximized="1"
     inkscape:current-layer="g232" />
  <g
     id="g485"
     transform="translate(-125.32371,5.967796)">
    <g
       id="Layer_2"
       data-name="Layer 2"
       transform="translate(38.436804,-11.847361)">
      <g
         id="Layer_1-2"
         data-name="Layer 1"
         transform="translate(86.886906,5.879565)">
        <g
           id="Сгруппировать_185896"
           data-name="Сгруппировать 185896">
          <g
             id="Сгруппировать_185877"
             data-name="Сгруппировать 185877">
            <path
               id="Прямоугольник_193242"
               data-name="Прямоугольник 193242"
               d="m 66,0 v 0 a 66,66 0 0 1 66,66 v 0 a 66,66 0 0 1 -66,66 v 0 A 66,66 0 0 1 0,66 v 0 A 66,66 0 0 1 66,0 Z"
               fill="#5741d9" />
            <path
               id="Прямоугольник_193243"
               data-name="Прямоугольник 193243"
               d="m 66,10 v 0 a 56,56 0 0 1 56,56 v 0 a 56,56 0 0 1 -56,56 v 0 A 56,56 0 0 1 10,66 v 0 A 56,56 0 0 1 66,10 Z"
               fill="#1d1d1d" />
          </g>
          <g
             id="kraken-horizontal.53c4b4ce372977ef3776e390e668055a" />
        </g>
      </g>
    </g>
  </g>
  <g
     fill="#0e70e2"
     id="g10"
     transform="translate(65.099657,-65.099656)">
    <g
       id="g232"
       transform="translate(2.3459336,36.36197)">
      <path
         d="M -33.445591,61.087422 H -16.83588 V 128.53291 H -33.445591 Z"
         id="path4"
         style="fill:#ffffff;fill-opacity:1;stroke-width:0.503325" />
      <path
         d="M -9.7893346,45.987686 H 6.8203784 V 143.63266 H -9.7893346 Z"
         id="path6"
         style="fill:#ffffff;fill-opacity:1;stroke-width:0.503325" />
      <path
         d="M 13.866922,61.087422 H 30.476633 V 128.53291 H 13.866922 Z"
         id="path8"
         style="fill:#ffffff;fill-opacity:1;stroke-width:0.503325" />
    </g>
  </g>
</svg>
