<?xml version="1.0" encoding="utf-8"?>
<!-- Generator: Adobe Illustrator 28.2.0, SVG Export Plug-In . SVG Version: 6.00 Build 0)  -->
<svg version="1.1" id="Layer_1" xmlns="http://www.w3.org/2000/svg" xmlns:xlink="http://www.w3.org/1999/xlink" x="0px" y="0px"
	 viewBox="0 0 132 132" style="enable-background:new 0 0 132 132;" xml:space="preserve">
<style type="text/css">
	.st0{fill-rule:evenodd;clip-rule:evenodd;fill:#FFFFFF;}
	.st1{fill:#1B63EF;}
</style>
<g id="Page-1">
	<g id="Logo-Copy">
		<path id="Combined-Shape" class="st0" d="M56.6,91L56.6,91c-0.4,0.3-0.8,0.5-1.2,0.7l0,0c-0.8,0.4-1.6,0.6-2.5,0.7l0,0
			c-0.2,0-0.4,0.1-0.7,0.1h-0.1c-4-0.2-7-3.5-6.9-7.5c0.2-3.8,3.2-6.8,7-6.9h0.2c3.8,0.1,6.8,3.1,6.9,6.9c0,0.2,0,0.3,0,0.4
			c0,0.5-0.1,0.9-0.2,1.4c0,0.2-0.1,0.4-0.2,0.6c-0.1,0.2-0.1,0.5-0.2,0.7c-0.1,0.2-0.2,0.5-0.4,0.7c-0.1,0.1-0.2,0.3-0.2,0.4
			c-0.2,0.3-0.4,0.5-0.6,0.8c-0.1,0.1-0.1,0.2-0.2,0.2C57.1,90.6,56.8,90.8,56.6,91z M70,45.9c-0.1-0.4-0.1-0.8-0.1-1.2
			s0.1-0.8,0.2-1.3c0-0.1,0.1-0.2,0.1-0.3c0.1-0.3,0.2-0.7,0.3-1c0-0.1,0.1-0.3,0.2-0.4s0.2-0.5,0.4-0.7l0.3-0.5l0.3-0.3
			c0.3-0.3,0.6-0.7,1-0.9l0.1-0.1c0.2-0.2,0.5-0.3,0.7-0.5c1.1-0.7,2.3-1,3.6-1h0.2c4,0,7.2,3.3,7.1,7.3s-3.3,7.1-7.3,7h-0.2
			c-3.1-0.1-5.7-2.1-6.6-5.1C70.2,46.6,70.1,46.3,70,45.9z M69.4,60.3c11.3,3.2,17.7,7.5,17.5,17.4v0.2c-0.2,7.4-3.9,12.6-9.8,15.2
			l0,0C72.6,95.7,61.6,96,55.9,96c4.4-1.6,7.4-5.7,7.5-10.4c0-0.2,0-0.4,0-0.7c2.3-0.2,4.7-0.6,6.9-1.3l0,0c2.7-0.8,4.2-2.4,4.3-4.7
			v-0.2c0.1-3.2-1.8-4.8-11.2-7.5c-11.3-3.1-18.5-6.4-18.3-17.7v-0.2c0-6.2,3.5-11.8,9.1-14.5l0,0c4.2-2.5,11.5-2.9,15.9-2.8
			c-3.3,2.6-4.8,6.9-3.9,11c-2,0.2-3.9,0.6-5.8,1.3c-1.7,0.6-2.9,2.2-3,4v0.2C57.4,56.3,59.7,57.6,69.4,60.3L69.4,60.3z"/>
	</g>
</g>
<path class="st1" d="M117,7c4.4,0,8,3.6,8,8v102c0,4.4-3.6,8-8,8H15c-4.4,0-8-3.6-8-8V15c0-4.4,3.6-8,8-8H117 M117,0H15
	C6.7,0,0,6.7,0,15v102c0,8.3,6.7,15,15,15h102c8.3,0,15-6.7,15-15V15C132,6.7,125.3,0,117,0L117,0z"/>
</svg>
