<svg xmlns="http://www.w3.org/2000/svg" xmlns:xlink="http://www.w3.org/1999/xlink" viewBox="0 0 132 132">
  <defs>
    <linearGradient id="linear-gradient" x1="1700.97" y1="393.32" x2="1700.97" y2="392.32" gradientTransform="matrix(132, 0, 0, -132, -224462.36, 51918.25)" gradientUnits="userSpaceOnUse">
      <stop offset="0" stop-color="#4c35d5"/>
      <stop offset="1" stop-color="#2897d0"/>
    </linearGradient>
  </defs>
  <g id="Layer_2" data-name="Layer 2">
    <g id="Layer_1-2" data-name="Layer 1">
      <g id="Сгруппировать_185913" data-name="Сгруппировать 185913">
        <g id="Сгруппировать_185909" data-name="Сгруппировать 185909">
          <path id="Прямоугольник_193193" data-name="Прямоугольник 193193" d="M66,0h0a66,66,0,0,1,66,66h0a66,66,0,0,1-66,66h0A66,66,0,0,1,0,66H0A66,66,0,0,1,66,0Z" fill="url(#linear-gradient)"/>
          <path id="Прямоугольник_193233" data-name="Прямоугольник 193233" d="M66,10h0a56,56,0,0,1,56,56h0a56,56,0,0,1-56,56h0A56,56,0,0,1,10,66h0A56,56,0,0,1,66,10Z" fill="#1d1d1d"/>
          <g id="Page-1">
            <g id="Logo-Copy">
              <path id="Combined-Shape" d="M56.46,90.93l-.09.08a7.72,7.72,0,0,1-1.06.65h0a7.21,7.21,0,0,1-2.49.72h0c-.22,0-.44.06-.67.06H52a7.19,7.19,0,0,1,.14-14.37h.15A7.13,7.13,0,0,1,59.22,85c0,.15,0,.29,0,.43a6.36,6.36,0,0,1-.17,1.38,5,5,0,0,1-.16.55c-.08.25-.14.49-.24.73a6.61,6.61,0,0,1-.36.7c-.08.14-.16.3-.25.44a7,7,0,0,1-.59.76c-.07.07-.12.15-.19.22A5.86,5.86,0,0,1,56.46,90.93ZM69.94,45.79a6.86,6.86,0,0,1-.1-1.2A9,9,0,0,1,70,43.33c0-.11.05-.22.08-.33a6.07,6.07,0,0,1,.33-1c0-.13.12-.26.18-.4s.24-.46.38-.68l.34-.5.28-.33a6.43,6.43,0,0,1,1-.93l.14-.12a7.78,7.78,0,0,1,.7-.47,6.92,6.92,0,0,1,3.57-1h.15a7.19,7.19,0,0,1-.15,14.38H76.8a7.11,7.11,0,0,1-6.62-5.09A7.28,7.28,0,0,1,69.94,45.79Zm-.65,14.45C80.62,63.48,87,67.75,86.76,77.66v.16C86.62,85.19,82.88,90.36,77,93h0c-4.54,2.59-15.49,2.9-21.2,2.87a11.32,11.32,0,0,0,7.52-10.4c0-.22,0-.45,0-.67a34.7,34.7,0,0,0,6.92-1.27h0c2.67-.75,4.24-2.4,4.29-4.74v-.16c.06-3.17-1.83-4.83-11.18-7.46C52,68,44.78,64.7,45,53.41v-.16A16,16,0,0,1,54.1,38.8v0C58.25,36.25,65.58,35.94,70,36a11.24,11.24,0,0,0-3.91,11,21.57,21.57,0,0,0-5.76,1.35,4.5,4.5,0,0,0-3,4v.16c-.07,3.74,2.31,5,12,7.72Z" fill="#fff" fill-rule="evenodd"/>
            </g>
          </g>
        </g>
      </g>
    </g>
  </g>
</svg>
