<?xml version="1.0" encoding="utf-8"?>
<!-- Generator: Adobe Illustrator 28.2.0, SVG Export Plug-In . SVG Version: 6.00 Build 0)  -->
<svg version="1.1" id="FTX" xmlns="http://www.w3.org/2000/svg" xmlns:xlink="http://www.w3.org/1999/xlink" x="0px" y="0px"
	 viewBox="0 0 132 132" style="enable-background:new 0 0 132 132;" xml:space="preserve">
<style type="text/css">
	.st0{fill:#FFFFFF;}
	.st1{fill:#1B63EF;}
</style>
<g id="Layer_1-2" transform="translate(0 0)">
	<path id="Path_472521" class="st0" d="M50.6,35.1c17,0,34,0,51,0c0,5.5,0,11,0,16.5c-17,0-34,0-51,0C50.6,46.1,50.6,40.6,50.6,35.1
		z"/>
	<path id="Path_472522" class="st0" d="M30.5,57.8c5.5,0,11,0,16.5,0c0,5.5,0,11,0,16.5c-5.5,0-11,0-16.5,0
		C30.4,68.7,30.4,63.3,30.5,57.8z"/>
	<path id="Path_472523" class="st0" d="M50.6,57.8c12.3,0,24.6,0,36.8,0c0,5.5,0,11,0,16.5c-12.3,0-24.6,0-36.8,0
		C50.5,68.7,50.5,63.2,50.6,57.8z"/>
	<path id="Path_472524" class="st0" d="M50.6,80.5c5.5-0.1,11-0.1,16.4,0c0.1,5.5,0.1,11,0,16.4c-5.5,0.1-11,0.1-16.4,0
		C50.5,91.4,50.5,85.9,50.6,80.5z"/>
</g>
<path class="st1" d="M117,7c4.4,0,8,3.6,8,8v102c0,4.4-3.6,8-8,8H15c-4.4,0-8-3.6-8-8V15c0-4.4,3.6-8,8-8H117 M117,0H15
	C6.7,0,0,6.7,0,15v102c0,8.3,6.7,15,15,15h102c8.3,0,15-6.7,15-15V15C132,6.7,125.3,0,117,0L117,0z"/>
</svg>
