<?xml version="1.0" encoding="utf-8"?>
<!-- Generator: Adobe Illustrator 28.2.0, SVG Export Plug-In . SVG Version: 6.00 Build 0)  -->
<svg version="1.1" id="Layer_1" xmlns="http://www.w3.org/2000/svg" xmlns:xlink="http://www.w3.org/1999/xlink" x="0px" y="0px"
	 viewBox="0 0 132 132" style="enable-background:new 0 0 132 132;" xml:space="preserve">
<style type="text/css">
	.st0{fill:#FFFFFF;}
	.st1{enable-background:new    ;}
	.st2{fill:#1B63EF;}
</style>
<g>
	<path id="Path_472521" class="st0" d="M50.6,35.1h51c0,5.5,0,11,0,16.5c-17,0-34,0-51,0C50.6,46.1,50.6,40.6,50.6,35.1z"/>
	<path id="Path_472522" class="st0" d="M30.5,57.8c5.5,0,11,0,16.5,0c0,5.5,0,11,0,16.5c-5.5,0-11,0-16.5,0
		C30.4,68.7,30.4,63.3,30.5,57.8z"/>
	<path id="Path_472523" class="st0" d="M50.6,57.8c12.3,0,24.6,0,36.8,0c0,5.5,0,11,0,16.5c-12.3,0-24.6,0-36.8,0
		C50.5,68.7,50.5,63.2,50.6,57.8z"/>
	<path id="Path_472524" class="st0" d="M50.6,80.5c5.5-0.1,11-0.1,16.4,0c0.1,5.5,0.1,11,0,16.4c-5.5,0.1-11,0.1-16.4,0
		C50.5,91.4,50.5,85.9,50.6,80.5z"/>
	<g class="st1">
		<path class="st0" d="M71.5,93.1c-0.7-0.7-1.1-1.7-1.1-3.1v-5.1h2.1v5c0,1.6,0.7,2.4,2,2.4c0.7,0,1.2-0.2,1.5-0.6s0.5-1,0.5-1.9v-5
			h2.2V90c0,1.3-0.4,2.4-1.1,3.1s-1.7,1.1-3,1.1S72.2,93.8,71.5,93.1z"/>
		<path class="st0" d="M81.7,93.9c-0.7-0.2-1.2-0.4-1.6-0.8l0.7-1.6c0.4,0.3,0.9,0.5,1.4,0.7s1.1,0.3,1.6,0.3c0.6,0,1-0.1,1.3-0.3
			c0.3-0.2,0.4-0.4,0.4-0.7c0-0.2-0.1-0.4-0.3-0.5c-0.2-0.1-0.4-0.3-0.6-0.3c-0.3-0.1-0.6-0.2-1.1-0.3c-0.7-0.2-1.3-0.3-1.7-0.5
			c-0.4-0.2-0.8-0.4-1.1-0.8s-0.5-0.8-0.5-1.5c0-0.5,0.1-1,0.4-1.4s0.7-0.8,1.3-1c0.6-0.3,1.3-0.4,2.1-0.4c0.6,0,1.1,0.1,1.7,0.2
			s1,0.3,1.5,0.6l-0.7,1.6c-0.8-0.5-1.7-0.7-2.5-0.7c-0.6,0-1,0.1-1.3,0.3c-0.3,0.2-0.4,0.4-0.4,0.8c0,0.3,0.2,0.5,0.5,0.7
			s0.8,0.3,1.5,0.4c0.7,0.2,1.3,0.3,1.7,0.5c0.4,0.2,0.8,0.4,1.1,0.8c0.3,0.4,0.5,0.8,0.5,1.4c0,0.5-0.1,1-0.4,1.4s-0.7,0.8-1.3,1
			c-0.6,0.3-1.3,0.4-2.1,0.4S82.3,94.1,81.7,93.9z"/>
	</g>
</g>
<path class="st2" d="M117,7c4.4,0,8,3.6,8,8v102c0,4.4-3.6,8-8,8H15c-4.4,0-8-3.6-8-8V15c0-4.4,3.6-8,8-8H117 M117,0H15
	C6.7,0,0,6.7,0,15v102c0,8.3,6.7,15,15,15h102c8.3,0,15-6.7,15-15V15C132,6.7,125.3,0,117,0L117,0z"/>
<path class="st2" d="M117,7c4.4,0,8,3.6,8,8v102c0,4.4-3.6,8-8,8H15c-4.4,0-8-3.6-8-8V15c0-4.4,3.6-8,8-8H117 M117,0H15
	C6.7,0,0,6.7,0,15v102c0,8.3,6.7,15,15,15h102c8.3,0,15-6.7,15-15V15C132,6.7,125.3,0,117,0L117,0z"/>
</svg>
