<?xml version="1.0" encoding="UTF-8" standalone="no"?>
<!-- Generator: Adobe Illustrator 25.0.1, SVG Export Plug-In . SVG Version: 6.00 Build 0)  -->

<svg
   version="1.1"
   id="图层_1"
   x="0px"
   y="0px"
   viewBox="0 0 132 132"
   xml:space="preserve"
   sodipodi:docname="Gateio.svg"
   width="132"
   height="132"
   inkscape:version="1.1.1 (3bf5ae0d25, 2021-09-20)"
   xmlns:inkscape="http://www.inkscape.org/namespaces/inkscape"
   xmlns:sodipodi="http://sodipodi.sourceforge.net/DTD/sodipodi-0.dtd"
   xmlns="http://www.w3.org/2000/svg"
   xmlns:svg="http://www.w3.org/2000/svg"><defs
   id="defs9" /><sodipodi:namedview
   id="namedview7"
   pagecolor="#ffffff"
   bordercolor="#666666"
   borderopacity="1.0"
   inkscape:pageshadow="2"
   inkscape:pageopacity="0.0"
   inkscape:pagecheckerboard="0"
   showgrid="false"
   width="132px"
   inkscape:zoom="1.746"
   inkscape:cx="28.923253"
   inkscape:cy="276.91867"
   inkscape:window-width="2560"
   inkscape:window-height="1361"
   inkscape:window-x="-9"
   inkscape:window-y="-9"
   inkscape:window-maximized="1"
   inkscape:current-layer="图层_1" />
<style
   type="text/css"
   id="style2">
	.st0{fill:#DE5959;}
</style>

<g
   id="Layer_1-2"
   data-name="Layer 1"><g
     id="Сгруппировать_185907"
     data-name="Сгруппировать 185907"
     transform="translate(-16.036655,14.318442)"><g
       id="Сгруппировать_185900"
       data-name="Сгруппировать 185900"
       transform="translate(23.482245,5.7273769)"><g
         id="Сгруппировать_185881"
         data-name="Сгруппировать 185881"
         transform="translate(-7.44559,-20.045819)"><path
           id="Прямоугольник_193250"
           data-name="Прямоугольник 193250"
           d="m 66,0 v 0 a 66,66 0 0 1 66,66 v 0 a 66,66 0 0 1 -66,66 v 0 A 66,66 0 0 1 0,66 v 0 A 66,66 0 0 1 66,0 Z"
           fill="#0093dd" /><path
           id="Прямоугольник_193251"
           data-name="Прямоугольник 193251"
           d="m 66,10 v 0 a 56,56 0 0 1 56,56 v 0 a 56,56 0 0 1 -56,56 v 0 A 56,56 0 0 1 10,66 v 0 A 56,56 0 0 1 66,10 Z"
           fill="#1d1d1d" /></g></g></g></g><path
   class="st0"
   d="m 56.255285,65.285015 -0.787284,-0.787293 c -0.594486,-0.594477 -1.606716,-0.176733 -1.606716,0.658755 v 11.198791 c 0,0.514143 0.417744,0.931887 0.947961,0.931887 h 11.19879 c 0.835488,0 1.253232,-1.01223 0.658746,-1.606707 -0.36954,-0.369549 -0.36954,-0.964026 0,-1.31751 L 78.588586,62.409002 c 0.369549,-0.369549 0.369549,-0.964026 0,-1.31751 l -1.092564,-1.07649 c -0.594477,-0.594486 -0.176733,-1.606716 0.658755,-1.606716 h 11.19879 c 0.514143,0 0.947961,0.417744 0.947961,0.931896 v 11.198781 c 0,0.835489 -1.01223,1.253242 -1.606716,0.658756 l -0.755154,-0.755155 c -0.369549,-0.369549 -0.964026,-0.369549 -1.317501,0 L 66.522179,90.52647 c -0.36954,0.36954 -0.964026,0.36954 -1.333566,0 L 40.605905,65.94377 c -0.36954,-0.369549 -0.36954,-0.964026 0,-1.333575 L 74.668213,30.612153 c 0.36954,-0.36954 0.36954,-0.964026 0,-1.333566 l -8.001431,-8.001432 c -0.36954,-0.36954 -0.964026,-0.36954 -1.333566,0 L 21.277155,65.333219 c -0.36954,0.36954 -0.36954,0.964026 0,1.333566 l 44.056061,44.056055 c 0.36954,0.36954 0.964026,0.36954 1.333566,0 L 110.72284,66.666785 c 0.36954,-0.36954 0.36954,-0.964026 0,-1.333566 L 84.790504,39.433009 c -0.369549,-0.36954 -0.964035,-0.36954 -1.333575,0 L 57.58886,65.30108 c -0.369549,0.353475 -0.964026,0.353475 -1.333575,-0.01611 z"
   id="path4"
   style="stroke-width:0.160672;fill:#ffffff;fill-opacity:1" /></svg>
