<?xml version="1.0" encoding="UTF-8" standalone="no"?>
<svg
   enable-background="new 0 0 88 135.9"
   viewBox="0 0 132 132.00001"
   version="1.1"
   id="svg6"
   sodipodi:docname="Huobi.svg"
   width="132"
   height="132"
   inkscape:version="1.1.1 (3bf5ae0d25, 2021-09-20)"
   xmlns:inkscape="http://www.inkscape.org/namespaces/inkscape"
   xmlns:sodipodi="http://sodipodi.sourceforge.net/DTD/sodipodi-0.dtd"
   xmlns="http://www.w3.org/2000/svg"
   xmlns:svg="http://www.w3.org/2000/svg">
  <defs
     id="defs10" />
  <sodipodi:namedview
     id="namedview8"
     pagecolor="#ffffff"
     bordercolor="#666666"
     borderopacity="1.0"
     inkscape:pageshadow="2"
     inkscape:pageopacity="0.0"
     inkscape:pagecheckerboard="0"
     showgrid="false"
     width="132px"
     inkscape:zoom="6.4238413"
     inkscape:cx="54.095358"
     inkscape:cy="67.949997"
     inkscape:window-width="2560"
     inkscape:window-height="1361"
     inkscape:window-x="-9"
     inkscape:window-y="-9"
     inkscape:window-maximized="1"
     inkscape:current-layer="svg6" />
  <g
     id="Сгруппировать_185881"
     data-name="Сгруппировать 185881">
    <path
       id="Прямоугольник_193250"
       data-name="Прямоугольник 193250"
       d="m 66,0 v 0 a 66,66 0 0 1 66,66 v 0 a 66,66 0 0 1 -66,66 v 0 A 66,66 0 0 1 0,66 v 0 A 66,66 0 0 1 66,0 Z"
       fill="#0093dd" />
    <path
       id="Прямоугольник_193251"
       data-name="Прямоугольник 193251"
       d="m 66,10 v 0 a 56,56 0 0 1 56,56 v 0 a 56,56 0 0 1 -56,56 v 0 A 56,56 0 0 1 10,66 v 0 A 56,56 0 0 1 66,10 Z"
       fill="#1d1d1d" />
  </g>
  <g
     id="g28"
     transform="translate(157.42203,14.74528)">
    <g
       id="g847"
       transform="matrix(0.729,0,0,0.729,-77.296138,18.107259)">
      <g
         id="g1016"
         transform="translate(-63.207611,-23.062236)">
        <path
           d="M 57.8,41.8 C 57.8,22.3 48.4,5.5 41.2,0 c 0,0 -0.5,-0.3 -0.5,0.5 -0.6,37.7 -19.7,48 -30.3,61.7 -24.3,31.8 -1.7,66.6 21.3,73 12.9,3.6 -3,-6.4 -5,-27.4 -2.4,-25.5 31.1,-44.9 31.1,-66"
           fill="#282e5b"
           id="path2"
           style="fill:#ffffff;fill-opacity:1" />
        <path
           d="m 70.4,54.7 c -0.1,-0.1 -0.3,-0.1 -0.5,0 0,0 0,0 -0.1,0.1 -0.4,4.7 -5.6,14.9 -12.1,24.2 -22.1,31.6 -9.5,46.8 -2.4,55 4.1,4.8 0,0 10.3,-4.9 0.8,-0.4 20,-10.6 22.1,-33.7 C 89.8,72.9 75.5,58.8 70.4,54.7"
           fill="#059bdc"
           id="path4"
           style="fill:#ffffff;fill-opacity:1" />
      </g>
    </g>
  </g>
</svg>
