<?xml version="1.0" encoding="utf-8"?>
<!-- Generator: Adobe Illustrator 28.2.0, SVG Export Plug-In . SVG Version: 6.00 Build 0)  -->
<svg version="1.1"
	 id="svg6" xmlns:svg="http://www.w3.org/2000/svg" xmlns:inkscape="http://www.inkscape.org/namespaces/inkscape" xmlns:sodipodi="http://sodipodi.sourceforge.net/DTD/sodipodi-0.dtd"
	 xmlns="http://www.w3.org/2000/svg" xmlns:xlink="http://www.w3.org/1999/xlink" x="0px" y="0px" viewBox="0 0 132 132"
	 style="enable-background:new 0 0 132 132;" xml:space="preserve">
<style type="text/css">
	.st0{fill:#1B63EF;}
</style>
<sodipodi:namedview  bordercolor="#666666" borderopacity="1.0" id="namedview8" inkscape:current-layer="svg6" inkscape:cx="54.095358" inkscape:cy="67.949997" inkscape:pagecheckerboard="0" inkscape:pageopacity="0.0" inkscape:pageshadow="2" inkscape:window-height="1361" inkscape:window-maximized="1" inkscape:window-width="2560" inkscape:window-x="-9" inkscape:window-y="-9" inkscape:zoom="6.4238413" pagecolor="#ffffff" showgrid="false" width="132px">
	</sodipodi:namedview>
<g id="g28" transform="translate(157.42203,14.74528)">
	<g id="g847" transform="matrix(0.729,0,0,0.729,-77.296138,18.107259)">
		<g id="g1016" transform="translate(-63.207611,-23.062236)">
			<path id="path2" class="st0" d="M55.2,47.1c0-16-7.7-29.7-13.6-34.2c0,0-0.4-0.2-0.4,0.4c-0.5,30.9-16.1,39.3-24.8,50.5
				c-19.9,26-1.4,54.5,17.4,59.8c10.6,2.9-2.5-5.2-4.1-22.4C27.8,80.3,55.2,64.4,55.2,47.1"/>
			<path id="path4" class="st0" d="M65.5,57.7c-0.1-0.1-0.2-0.1-0.4,0c0,0,0,0-0.1,0.1c-0.3,3.8-4.6,12.2-9.9,19.8
				c-18.1,25.9-7.8,38.3-2,45c3.4,3.9,0,0,8.4-4c0.7-0.3,16.4-8.7,18.1-27.6C81.4,72.6,69.7,61,65.5,57.7"/>
		</g>
	</g>
</g>
<path class="st0" d="M117,7c4.4,0,8,3.6,8,8v102c0,4.4-3.6,8-8,8H15c-4.4,0-8-3.6-8-8V15c0-4.4,3.6-8,8-8H117 M117,0H15
	C6.7,0,0,6.7,0,15v102c0,8.3,6.7,15,15,15h102c8.3,0,15-6.7,15-15V15C132,6.7,125.3,0,117,0L117,0z"/>
</svg>
