<?xml version="1.0" encoding="utf-8"?>
<!-- Generator: Adobe Illustrator 28.2.0, SVG Export Plug-In . SVG Version: 6.00 Build 0)  -->
<svg version="1.1" id="Layer_1" xmlns="http://www.w3.org/2000/svg" xmlns:xlink="http://www.w3.org/1999/xlink" x="0px" y="0px"
	 viewBox="0 0 132 132" style="enable-background:new 0 0 132 132;" xml:space="preserve">
<style type="text/css">
	.st0{fill:#1B63EF;}
</style>
<path class="st0" d="M117,7c4.4,0,8,3.6,8,8v102c0,4.4-3.6,8-8,8H15c-4.4,0-8-3.6-8-8V15c0-4.4,3.6-8,8-8H117 M117,0H15
	C6.7,0,0,6.7,0,15v102c0,8.3,6.7,15,15,15h102c8.3,0,15-6.7,15-15V15C132,6.7,125.3,0,117,0L117,0z"/>
<g>
	<path class="st0" d="M72.3,38.6c-2.2-0.9-4.5-1.5-6.9-1.8c-0.2,0-0.2,0,0-0.1c0.3,0,0.5,0,0.8,0c12,0.6,22.5,8.4,26.4,19.9
		c0,0.1,0,0.1-0.1,0c-1.8-2-3.7-3.8-5.7-5.4c-0.2-0.2-0.4-0.4-0.6-0.7C82.9,45,78.3,41,72.3,38.6z"/>
	<path class="st0" d="M46.1,43.2c11.6-8.8,28-6.7,37.2,4.5l0,0l0,0l0,0c-2.7-2.6-5.7-4.6-9.1-5.8c-14.1-5.3-29.5,2.4-33.9,16.8
		c0,0.1-0.1,0.1-0.1,0.1c-1.4,0.4-2.8,0.5-4.2,0.4c-0.1,0-0.1,0-0.1-0.1C37.5,52.5,40.9,47.2,46.1,43.2z"/>
	<path class="st0" d="M52.6,63.6L52.6,63.6C52.5,63.6,52.5,63.6,52.6,63.6C52.5,63.6,52.5,63.6,52.6,63.6z"/>
	<path class="st0" d="M52.6,63.6L52.6,63.6C52.5,63.6,52.5,63.6,52.6,63.6C52.5,63.6,52.5,63.6,52.6,63.6z"/>
	<path class="st0" d="M77.1,62.2L77.1,62.2L77.1,62.2L77.1,62.2z"/>
	<path class="st0" d="M81.4,59.4L81.4,59.4L81.4,59.4L81.4,59.4z"/>
	<path class="st0" d="M81.4,59.4L81.4,59.4L81.4,59.4L81.4,59.4z"/>
	<path class="st0" d="M105.8,64.8c-1.4,0.6-2.7,1-4-0.1c-0.5-0.4-1.1-0.9-1.5-1.3c-1.4-1.2-2.7-2.1-3.9-2.6
		c-1.2-0.5-2.3-0.4-3.6-0.2c-0.2,0-0.2,0,0-0.1c0.5-0.3,1.1-0.5,1.8-0.5c0.1,0,0.1,0,0-0.1c-1.1-1.5-2.3-3-3.6-4.3
		c-2-2.1-4.3-4-6.7-5.6c-4-2.7-8.2-4.6-12.9-5.8c-0.1,0-0.1,0-0.2,0C64.7,51.3,56.9,56,47.7,58.6c-0.3,0.1-0.3,0.1,0-0.1l4-1.9
		c0.2-0.1,0.2-0.1,0-0.1c-2.6,0.1-5.1,0.6-7.6,1.5c-1,0.3-2.2,0.9-3.1,1.2c-0.7,0.2-1.6,0.4-2.6,0.5c-0.9,0-1.8,0-2.7,0
		c-1.2-0.1-2-0.1-2.4,0c-0.8,0.1-1.6,0.3-2.4,0.7c-2.3,1.1-3.9,3-4.6,5.6c-0.2,0.8-0.3,1.8,0,2.5c0.9,1.6,3.6,0.6,4.8,0
		c1-0.5,2-0.7,3.1-0.3c0,0,0.1,0,0,0.1c-1.2,1.7-1.3,3.4-0.3,5.3c0,0.1,0.1,0.1,0.2,0c1.5-1.4,2.1-3.3,1.5-5.2
		c-0.4-1.2-1.2-1.7-2.5-1.5c-1.7,0.3-3.2,0.7-4.6,1.1c-0.3-0.1-0.4-0.2-0.5-0.4c-0.1-0.3-0.1-0.6,0-0.9c0.5-2.1,2-4.4,4.4-4.4
		c1.1,0.2,1.8,0.4,2.1,0.4c1.4,0.3,2.9,0.3,4.4,0.2c0.1,0,0.1,0,0.2-0.1c0.9-1,1.9-1.7,3.1-2.2l0,0l0,0l0,0c-2.1,1.2-3.9,3-4.1,5.6
		c-0.1,1.4-0.1,2.6-0.7,3.9c-0.5,1.1-1.2,2-2.2,2.8c0,0-0.1,0.1-0.1,0.2c0,2.4-0.4,4.6-1.3,6.8c-0.3,0.7-0.6,1.4-1,2
		c-0.2,0.3-0.3,0.7-0.4,1c-0.2,1.1-0.3,2.3-0.5,3.4c0,0.1,0,0.1,0.1,0.1c2,1.3,4.1,1.4,6.3,0.3l0,0v-0.1L36,83.2c0-0.1,0-0.1,0-0.2
		c0.2-1.7,0.9-3.2,1.9-4.6c1.3-1.7,2.9-3,5-3.7c2.9-1,5.6-1.7,7.3-4.5c1.3-2.1,1.9-4.1,1.6-6.5h0.1c0.8,3.4,0,6.3-2.4,8.7v0.1
		l1.3,0.7c0.3,0.1,0.5,0.3,0.7,0.4c4.9,2.2,10,2.6,15.2,1.2c0.1,0,0.2-0.1,0.2-0.2l3.7-4.4h0.1l1.9,0.8c0.1,0,0.1,0,0.2,0l2.9-1.6
		l0,0c0,0,0,0,0-0.1c-2.8-1.2-5.8-2-8.9-2.4c-0.1,0-0.1,0-0.1-0.1l-0.1-0.4c-0.7-2.6-0.5-5.2,0.9-7.4c0.2-0.3,0.2-0.3,0.1,0.1
		c-0.7,2.3-0.9,4.6-0.5,7c0,0.1,0,0.1,0.1,0.1c0.2,0,0.3,0,0.4,0c2.9,0.4,5.7,1.2,8.4,2.5c0.6,0.3,1.3,0.7,2.1,1.1
		c0.3,0.2,0.5,0.3,0.6,0.5c0.1,0.1,0.1,0.1,0,0.1l-1.4-0.6c-0.1,0-0.1,0-0.2,0l-4.6,2.6c-0.1,0-0.1,0-0.2,0l-1.6-1.1
		c-0.1-0.1-0.1,0-0.2,0l-2.6,4.2l0,0l0,0l3.7-0.2c0.1,0,0.1,0,0.2,0.1c0.7,0.6,1.4,1,2.3,1.3c0.2,0.1,0.4,0,0.5-0.2
		c1.1-1.4,2.3-2.7,4.2-2.7c1.1,0,2.1,0,3.2,0.2l0,0c0,0,0.1,0,0.1-0.1l0.3-4.4c0-0.1,0-0.1-0.1-0.1L80,67l-3-3.1v-0.1l0.9-1.8
		c0.5-1.2,0.7-2.4,0.6-3.7c0-0.6-0.2-1.2-0.4-1.7c0,0,0,0,0-0.1l0,0c0,0,0,0,0.1,0c0.7,1.2,0.9,2.4,0.7,3.8c-0.2,1-0.5,2-0.9,3v0.1
		l4.7,4.9c0.1,0.1,0.1,0,0.1,0l0.5-1.1c0-0.1,0-0.1,0-0.2c-0.6-2-0.5-4.2,1-5.7c0.2-0.2,0.2-0.2,0.1,0.1c-0.5,1-0.7,1.9-0.6,2.9
		c0,1.2,0.2,2.8,0.5,4.7c0,0.1,0,0.1,0.1,0.1c0.2-0.1,0.3-0.2,0.4-0.3h0.1c0.1,0,0.1,0,0.1,0.1c-0.9,1.5-2.1,4.1,0.7,4.5
		c0.9,0.1,1.8,0.2,2.9,0.3c0.1,0,0.1,0,0.1-0.1c-0.3-1.6,0.2-2.7,1.2-3.6c0.8-0.7,1.6-1.3,2.5-1.9c0.1,0,0.1-0.1,0.1-0.2
		c0.3-1,0.7-1.9,1.3-2.8c0.2-0.3,0.4-0.5,0.6-0.7c0.1,0,0.1-0.1,0-0.1s-0.2,0-0.3,0L93.2,64c-0.1,0-0.1-0.1,0-0.1
		c1.2-0.7,2.5-0.4,3.8,0.3c1.1,0.6,2.2,1.1,3.2,1.6c0.5,0.2,0.9,0.3,1.4,0.4C103.1,66.5,104.7,65.8,105.8,64.8
		C105.9,64.8,105.9,64.8,105.8,64.8z M52.6,63.6C52.5,63.6,52.5,63.6,52.6,63.6C52.5,63.6,52.5,63.6,52.6,63.6L52.6,63.6z
		 M53.6,72.3L53.6,72.3L53.6,72.3L53.6,72.3z M79.2,67.2L79.2,67.2L79.2,67.2L79.2,67.2z M77.1,62.2L77.1,62.2L77.1,62.2L77.1,62.2z
		 M81.2,59.5L81.2,59.5L81.2,59.5L81.2,59.5z M81.4,59.4L81.4,59.4L81.4,59.4L81.4,59.4z M90.4,67.5c-0.1,0-0.1,0-0.2,0
		c-0.3-0.3-0.5-0.7-0.4-1.2l0.4-0.9l0,0h0.1l0.4,0.6C91.1,66.6,91,67.1,90.4,67.5z"/>
	<path class="st0" d="M77.1,62.2L77.1,62.2L77.1,62.2L77.1,62.2z"/>
	<path class="st0" d="M79.2,67.2L79.2,67.2L79.2,67.2L79.2,67.2z"/>
	<path class="st0" d="M35.7,67.5c-0.1-0.2-0.2-0.3-0.2-0.5c-0.1-1.3-0.1-2.5-0.1-3.6c0-0.1,0-0.1,0.1-0.1c0.9,0.1,1.8,0.1,2.8,0
		c0,0,0.1,0,0.1,0.1l0,0c-0.9,1.5-0.8,2.9-1,4.6c-0.1,1-0.5,2-1.2,3c-0.1,0.1-0.1,0.1-0.1,0c0-0.2,0-0.4,0-0.6
		C36.3,69.4,36.1,68.4,35.7,67.5z"/>
	<path class="st0" d="M88.6,73.9c0.2-0.1,0.3-0.2,0.3-0.4c-0.1-1.3,0.3-2.4,1.3-3.3c0.8-0.7,1.6-1.3,2.4-1.8
		c0.1-0.1,0.2-0.2,0.3-0.3c0.3-0.9,0.6-1.7,1-2.5c0.1-0.2,0.2-0.2,0.2,0c0.1,10.7-5.4,20.4-14.6,25.7c-12.5,7.3-28.2,4.3-37.4-6.7
		l0,0l0,0l0,0C52.8,95,69.8,95.3,80.8,85.2c3.3-3.1,5.8-6.8,7.4-11.1c0-0.1,0.1-0.1,0.1-0.1L88.6,73.9z"/>
	<path class="st0" d="M79.2,67.2L79.2,67.2L79.2,67.2L79.2,67.2z"/>
	<path class="st0" d="M49.5,73.4c-0.7,0.5-1.2,1.1-1.7,1.9c-0.4,0.7-0.2,1.7-0.1,2.4c0.1,0.8,0.6,1.6,0.9,2.3c0,0.1,0,0.1,0,0.2
		c-1,1-3.3,0.8-4.4,0.4c-0.7-0.2-1.1-0.8-1-1.5c0.1-0.5,0.2-1.1,0.2-1.6c0-0.3,0.1-0.5,0.3-0.8c0.3-0.5,0.6-1,0.9-1.4
		c0-0.1,0.1-0.1,0.1-0.1C46.3,74.6,47.9,74,49.5,73.4C49.6,73.2,49.6,73.3,49.5,73.4z"/>
	<path class="st0" d="M71.6,81.7c-1.7,0.8-3.9,1.2-5.4-0.2c-0.1,0-0.1-0.1,0-0.2c0.3-1,0.3-2.1,0-3.3c0-0.1,0-0.1,0-0.2
		c0.3-0.3,0.6-0.7,0.8-1.2c0-0.1,0.1-0.1,0.2-0.1c1.2,0.1,2.4,0,3.5-0.5c0.1,0,0.1,0,0.1,0.1l-0.9,2.8c0,0.1,0,0.1,0,0.2l1.7,2.4
		C71.7,81.6,71.7,81.6,71.6,81.7z"/>
	<path class="st0" d="M60.7,91.8c-9.2-0.6-17.1-5.6-21.8-13.6c0-0.1,0-0.1,0-0.2c0.6-0.8,1.4-1.4,2.2-1.9h0.1l1.3,2.6
		c0,0.1,0,0.1,0,0.2c0,0.2,0,0.3-0.1,0.5c-0.1,1,0.8,1.7,1.7,1.9c0.1,0,0.1,0.1,0.2,0.1c4.4,5.8,10.6,9.4,17.9,10.3l0,0l0,0l0,0
		C61.7,91.8,61.2,91.8,60.7,91.8z"/>
</g>
</svg>
