<svg xmlns="http://www.w3.org/2000/svg" viewBox="0 0 132 132">
  <g id="Layer_2" data-name="Layer 2">
    <g id="Layer_1-2" data-name="Layer 1">
      <g id="Сгруппировать_185916" data-name="Сгруппировать 185916">
        <g id="Сгруппировать_185912" data-name="Сгруппировать 185912">
          <path id="Прямоугольник_193238" data-name="Прямоугольник 193238" d="M66,0h0a66,66,0,0,1,66,66h0a66,66,0,0,1-66,66h0A66,66,0,0,1,0,66H0A66,66,0,0,1,66,0Z" fill="#1cb97a"/>
          <path id="Прямоугольник_193239" data-name="Прямоугольник 193239" d="M66,10h0a56,56,0,0,1,56,56h0a56,56,0,0,1-56,56h0A56,56,0,0,1,10,66h0A56,56,0,0,1,66,10Z" fill="#1d1d1d"/>
          <path d="M105,65v.25h-.71v.2l-1.94,0c0-.09,0-.17,0-.25h-.45V65h-.46v-.25h-.25v-.21l-.25,0v-.21l-.24,0V64h-.25v-.24l-.46-.05v-.2l-.25,0v-.21h-.25V63h-.24v-.25H98.9v-.21l-.46,0v-.2h-.25v-.25l-.45,0v-.21h-.29v-.25H97v-.25h-.5v-.21l-.45,0v-.21l-.75,0v-.2H93.38v-.25l1,0v-.46h-.25v-.25h-.21v-.21l-.25,0c0-.15,0-.3,0-.45h-.21v-.25h-.25v-.25h-.24v-.25h-.21V58l-.25,0c0-.15,0-.3,0-.46h-.21v-.24h-.25V57h-.25v-.25h-.2v-.21l-.25,0v-.25H91V56h-.25v-.25h-.25v-.2h-.21v-.25H90V55h-.24v-.25h-.25v-.25h-.25v-.25h-.21v-.2h-.25v-.25h-.25v-.25h-.25v-.25h-.45v-.25h-.25v-.25h-.25v-.21l-.25,0v-.2h-.25v-.25l-.45,0v-.21h-.25v-.25h-.25v-.21l-.46,0v-.21l-.24,0v-.21H85a2,2,0,0,1,0-.24l-.46,0v-.2h-.25v-.25l-.46,0v-.21h-.24v-.21l-.46,0v-.21l-.29,0v-.21l-.46,0V49l-.45,0v-.2h-.25c0-.09,0-.17,0-.25h-.46v-.25h-.5V48h-.45v-.21l-.5,0v-.21l-.46,0v-.2l-.49-.05V47h-.5v-.25h-.5v-.25H77v-.25h-.5v-.21l-.71,0v-.2l-.49,0v-.2l-.71,0v-.21h-.7v-.25h-.75v-.25h-.7v-.21l-1,0v-.21h-.25v.21H71v.25h-.25v.25H70.5v.25h-.21v.21l-.25,0v.2h-.21a1.87,1.87,0,0,1,0,.25h-.25v.25H69.3v.25h-.21a2.17,2.17,0,0,0,0,.25H68.8V47h-.21v.2h-.25v.25l-.45,0v.21l-.25,0V48l-.25,0v.21h-.25v.25h-.25v.25h-.25v.2h-.2c0,.09,0,.17,0,.25l-.41,0v.21l-.29,0v.21h-.21l0,.25h-.25v.25h-.41v.21l-.29,0v.25h-.25v.2l-.46,0v.21l-.25,0v.21h-.25v.25h-.45v.25h-.25v.21l-.5,0v.25h-.25v.2l-.45,0v.21h-.25v.25h-.46a2.17,2.17,0,0,1,0,.25h-.45v.25h-.29v.21l-.46,0V54l-.46,0v.2l-.49,0v.21l-.46,0v.21l-.5,0V55h-.25v.21l-.7,0v.25h-.46v.2l-.5,0V56l-.49,0v.21h-.46c0,.08,0,.17,0,.25l-.7,0v.21h-.5V57h-.5v.2l-.7,0v.2l-.71,0v.21h-.46l0,.25h-.7a2.17,2.17,0,0,0,0,.25h-.92v.25h-.49v-.25h.45V58l.5,0v-.21l.5,0v-.21l.45,0v-.2h.46c0-.09,0-.17,0-.25h.46l0-.25h-2.2V57H48.15v.2l-1.2,0v.2l-1,0v.21l-.79,0v.21h-.66l0,.25h-.7v.25h-.71v.21l-.49,0v.2l-.5,0v.2l-.7,0v.21l-.71,0v.21l-1,0v.21h-7v.21l-.75,0v.21l-.7,0v.2l-.46.05v.2l-.49,0v.21h-.25v.25l-.46,0v.21h-.25v.25h-.25v.25h-.24v.25h-.25v.2h-.21c0,.09,0,.17,0,.25h-.21V63h-.25v.5h-.25v.25h-.2c0,.16,0,.33,0,.49h-.2c0,.16,0,.31,0,.46H27c0,.25,0,.5,0,.75h-.21c0,.23,0,.47,0,.7h-.21v2.45h.21c0,.16,0,.33,0,.49H27v.21l.45,0v.21h1.95v-.21l1,0v-.21l.7,0v-.2l.5,0v-.2H32l.05-.25h2.36v.45h-.21v.29h-.25v.71h-.2c0,.9,0,1.8,0,2.69h.21c0,.24,0,.47,0,.71h.21c0,.16,0,.33,0,.5h.5v-.25h.21v-.21l.25,0V73h.24v-.46h.25v-.29h.21c0-.23,0-.47,0-.7h.21c0-.32,0-.64,0-1h.21V69.37h-.21c0-.33,0-.66,0-1h-.21c0-.17,0-.33,0-.5h-.21v-.25h-.25v-.25h-.24v-.2l-.46-.05v-.2H33.19v.2L32,67.18v.2l-.95,0v.21l-1,0v.21l-.75,0v.21h-.45v-.25h-.25c0-.57,0-1.13,0-1.7h.21v-.7h.24V65h.25v-.46h.21c0-.09,0-.19,0-.29h.21V64l.25,0c0-.15,0-.3,0-.45l.41,0v-.21h.25v-.21l.29,0v-.21l.71,0v-.21h1.7v.21l1.41,0V63h4.6v-.25h.21v-.21h.24v-.24h.25v-.25l.46,0v-.21h.25V62h-.25v.24h-.21c0,.09,0,.17,0,.25h-.21v.25h-.25V63H39.7v.25h-.21c0,.16,0,.33,0,.5h-.21c0,.15,0,.3,0,.45H39c0,.17,0,.33,0,.5h-.21v.75h-.21c0,.73,0,1.46,0,2.19h-.2c0,.56,0,1.11,0,1.66H38c0,.25,0,.5,0,.75h-.21v.5h-.25V71h-.21c0,.1,0,.19,0,.29h-.21c0,.15,0,.31,0,.46h-.21V72h-.24v.24h-.25v.25h-.25v.21h-.21c0,.08,0,.17,0,.25h-.21c0,.9,0,1.8,0,2.69h-.21v1.46h-.24v1h-.21c0,.25,0,.5,0,.75h-.21c0,.23,0,.47,0,.7h-.21c0,.18,0,.36,0,.54h-.21c0,.22,0,.44,0,.66h-.21v.5h-.25v.5h-.24V82h-.21c0,.16,0,.33,0,.49H33c0,.56,0,1.11,0,1.66h-.21v1.45l-.25,0v1h.25v.25h.5v.25h.5v.2a11.46,11.46,0,0,0,3.6.25,4.29,4.29,0,0,1,.91-.25v-.2h.5v-.75h-.21c0-.15,0-.31,0-.46h-.2c0-.08,0-.16,0-.25H38c0-.15,0-.3,0-.45h-.21v-.29h-.25v-.46h-.21l0-.25h-.21c0-.16,0-.33,0-.49h-.21v-.25h-.24v-.71h.2c0-.33,0-.66,0-1H37c0-.24,0-.47,0-.71h.21c0-.16,0-.33,0-.5h.21V80h.25v-.5H38v-.46h.2c0-.08,0-.16,0-.24h.2v-.25h.25c0-.16,0-.31,0-.46H39v-.25h.25v-.25h.21c0-.08,0-.16,0-.25h.21v-.24h.24v-.25h.25v-.21h.21c0-.08,0-.17,0-.25l.46,0v-.21h.25c0-.08,0-.16,0-.25h.41a1.87,1.87,0,0,0,0-.25h.46c0-.08,0-.16,0-.24h.66v-.21l.5,0V75l.71,0v-.21l.74,0v-.21l.71,0v-.21l.54,0V74l.66,0v-.2h.5v-.25h.5v-.25h.45V73l.25,0v-.21l.46,0v-.21h.24c0-.08,0-.16,0-.25h.2V72h.25v-.25h.25v-.25h.25v-.25h.21c0-.15,0-.3,0-.46h.21v-.24l.24,0v-.45H51v-.46l.25,0v-.46h.21c0-.16,0-.33,0-.49h.21c0-.25,0-.5,0-.75H52c0-.32,0-.64,0-.95h.21c0-.57,0-1.14,0-1.7h.2v2.65h-.2c0,.33,0,.66,0,1H52c0,.23,0,.47,0,.7h-.21v.5h-.25v.45l-.25,0V71H51v.29h-.2c0,.15,0,.31-.05.46h-.24V72h-.21v.2l-.25,0v.25h-.25c.06.3.14.18.21.46h.25a2.17,2.17,0,0,0,0,.25h.45v.25h.5v.25h.5V74h.5v.21l.66,0v.21l.54,0v.21l.7,0v.21h.71c0,.08,0,.16,0,.25h.91a1.87,1.87,0,0,1,0,.25H57v.2l1.91,0v.21H63v-.21l1.7,0v-.2h1.2v-.21l1,0V75l.25,0v-.21h.25v-.25h.21c0-.08,0-.16,0-.25h.2V74h.25v-.24h.25v-.46h.25V73h.21l0-.25h.21c0-.08,0-.16,0-.25h.21v-.25h.24V72h.25v-.46H70c0-.1,0-.19,0-.29h.25V71h.21v-.21l.25,0v-.2h.49v.2l.5,0V71l.71,0v.21h.74v-.21l.46,0v-.21l.5,0v-.2l.45,0v-.2h.46v-.25h.29v-.21l.45,0v-.25h-.2v-.21l-.5,0v-.21l-.75,0v-.2l-.7,0v-.2l-.71,0v-.21H72.2v-.25h-.75v-.21l-1,0v-.21l-1.2,0v-.21l-1.41,0v-.2l-1-.05c0-.3,0-.6,0-.91h-.21c0-.5,0-1,0-1.49h-.2V63h.2c0-.48,0-1,0-1.45h.21v-.71l.25,0v-.7h.25v-.46h.21v.71h-.21c0,.48,0,1,0,1.45h-.21v3.85l.21,0c0,.24,0,.47,0,.71l1.45,0v.21H70v.21l1.2,0v.2l.75.05v.2l.91,0v.21l.54,0v.21l.71,0v.21l.7,0v.21h.5v.25h.45v.2l.5,0v.2l.5,0v.21l.46,0v.21l.49,0v.21l.46,0v.21h-.75v-.21h-.2v.21H76.8v.25h-.29v.2l-.46,0v.2l-.49,0V71l-.46,0v.21l-.5,0v.21h-.25v.25H73.9a1.87,1.87,0,0,0,0,.25H73.4v.24h-.46v.21l-.49,0v-.25H72c0-.08,0-.16,0-.24H71.7v-.25h-.46v-.25h-.49v.25h-.21c0,.08,0,.16,0,.25h-.21c0,.15,0,.3,0,.45H70v.25l-.25,0v.46h-.25v.25h-.2l0,.25h-.21c0,.15,0,.3,0,.45h-.21v.25l-.25,0v.46h-.25v.25h-.25v.49H72v.21l.46,0v.21l.29,0v.21l.45,0v.21l.5,0v.21h.95v-.25h.25v-.25h.21v-.21l.25,0c0-.15,0-.3,0-.46h.21a2,2,0,0,1,0-.24H76v-.21l.25,0V75l.25,0v-.21l.29,0v-.21l.46,0v-.21l1.45,0V74h1.45v.21h1.9V71.32h.21c0-.58,0-1.16,0-1.74h-.25v-.46h-.24v-.24h-.25v-.25h-.25v-.25h-.21v-.21l-.25,0v-.21h-.2c0-.08,0-.16,0-.25h-.2c0-.08,0-.16,0-.25h-.2a2,2,0,0,1,0-.24h-.21v-.25h-.25v-.25h-.25v-.25h-.25v-.25h-.25V66h-.2v-.25h-.25v-.24h-.25v-.25H78L78,65h-.21v-.25H77.5v-.25h-.24v-.25H77v-.5h.25v-.45h.2c0-.17,0-.33,0-.5h.21c0-.23,0-.47,0-.7H78c0-.25,0-.5,0-.75h.21c0-.32,0-.64,0-.95h.21v-2h.25v2.65l-.21,0c0,.32,0,.64,0,1h-.25v.7H78c0,.17,0,.33,0,.5h-.21v.45H78L78,64h.21v.25h.25v.25h.25v.25H79V65h.2v.21l.25,0v.25h.25v.2l.25,0v.21h.21v.25l.24,0v.21h.25v.25h.25v.25h.25v.25h.21c0,.15,0,.3,0,.45h.21l0,.25h.21a2.17,2.17,0,0,0,0,.25h.2v.25h.71c0-.17,0-.33,0-.5H83v-1.7h-.21v-2.4H83c0-.25,0-.5,0-.75h.21v-.5h.25v-.45h.24c0,.31,0,.63,0,1h-.2v3.15h.2c0,.65,0,1.3,0,1.95H84c0,.33,0,.66,0,1h.25c0,.32,0,.64,0,1H84c0,.16,0,.33,0,.5h-.21c0,.31,0,.63,0,1h-.2v.25h.2c0,.32,0,.63,0,1H84A2.17,2.17,0,0,1,84,73h.21v.25h.5v.25l1.41,0v.21h2.19V72.27h.21c0-.24,0-.49,0-.74h.21c0-.15,0-.31,0-.46H89v-.25l.25,0v-.2l.25,0v-.2h.25v-.25H90v-.25h.25v-.21l.25,0v-.21h.25v-.25l.46,0v-.2h.24c0-.09,0-.17,0-.25h.2c0-.09,0-.17,0-.25h.46v-.25h.21c0-.24,0-.47,0-.71h.21c0-.18,0-.35,0-.53h.21c0-.24,0-.47,0-.71h.2v-.46h.25v-.49h.25V65h.21v-.25h.25c0-.15,0-.3,0-.46l-1,0V64h.25v-.24h2.16V64l.5,0v.21l.7,0v.21l.5,0v.21l.45,0V65h.5v.25h.25v.2l.71,0v.2l.45,0v.21l.5,0v.21l.74,0v.21h2.41v-.21l.7,0V66l.5,0v-.25h.25v-.2l.46,0v-.2h.37V65Zm-56.09,9-.71,0v.21l-.7,0v.21l-.54,0v.21l-.71,0v.21l-.7,0v.21H45v.25h-.25v.24h-.2c0,.17,0,.34,0,.5h-.2c0,.15,0,.31,0,.46h-.21v.25H43.8v1h-.21v2.41h.21v.2l.5,0v.25H45V81h2.9v-.21l.71,0v-.21h.25c0-.31,0-.63,0-1h-.21v-.5H48.4c0-.16,0-.33,0-.49h-.21c0-.4,0-.81,0-1.21H47.9v-1.7h.21c0-.16,0-.33,0-.49h.21v-.25h.25c0-.15,0-.31,0-.46h.21v-.25h.25V74h.24v-.24h-.49Zm22.63,7.34-.25,0v-.46H71v-.25h-.21c0-.16,0-.33,0-.49H70.5v-.25h-.21c0-.15,0-.31,0-.46H70v-.74h.21c0-.25,0-.5,0-.75h.21c0-.25,0-.5,0-.75h.21v-.91h-.21v.21l-.75,0v.21l-2.65,0v.21h-.25v.45h-.21a2.54,2.54,0,0,1,0,.29h-.2v.21l-.25,0v1h.2V81h-.2v.75h.25V82h.45v.24h.5v.21l1.2,0v.21h.21v-.21l1.49,0v-.21H71V82h.49v-.25h.21v-.21h-.21Z" fill="#fff" fill-rule="evenodd"/>
        </g>
      </g>
    </g>
  </g>
</svg>
