<svg xmlns="http://www.w3.org/2000/svg" viewBox="0 0 132 132">
  <g id="Layer_2" data-name="Layer 2">
    <g id="Layer_1-2" data-name="Layer 1">
      <g id="Сгруппировать_185903" data-name="Сгруппировать 185903">
        <g id="Сгруппировать_185896" data-name="Сгруппировать 185896">
          <g id="Сгруппировать_185877" data-name="Сгруппировать 185877">
            <path id="Прямоугольник_193242" data-name="Прямоугольник 193242" d="M66,0h0a66,66,0,0,1,66,66h0a66,66,0,0,1-66,66h0A66,66,0,0,1,0,66H0A66,66,0,0,1,66,0Z" fill="#5741d9"/>
            <path id="Прямоугольник_193243" data-name="Прямоугольник 193243" d="M66,10h0a56,56,0,0,1,56,56h0a56,56,0,0,1-56,56h0A56,56,0,0,1,10,66h0A56,56,0,0,1,66,10Z" fill="#1d1d1d"/>
          </g>
          <g id="kraken-horizontal.53c4b4ce372977ef3776e390e668055a">
            <path id="_0da8ffff" data-name="#0da8ffff" d="M63.65,40.07a32.54,32.54,0,0,1,16.52,3.3A33,33,0,0,1,96.49,61.59a32,32,0,0,1,1.92,10.84v13.7a7.19,7.19,0,0,1-.11,1.67A4.7,4.7,0,0,1,95.7,91a5.05,5.05,0,0,1-2.9.33,4.67,4.67,0,0,1-3.72-4.46c0-4.25,0-8.49,0-12.76a6.35,6.35,0,0,0-.62-3.56,4.67,4.67,0,0,0-8.72,2.2c0,4.32,0,8.62,0,12.93a8.45,8.45,0,0,1-.2,2.4,4.68,4.68,0,0,1-8.53,1,6.62,6.62,0,0,1-.61-3.69c0-4.29,0-8.57,0-12.86a4.68,4.68,0,0,0-9.3-.46,5,5,0,0,0,0,.67V85.22a8.64,8.64,0,0,1-.29,3.12,4.69,4.69,0,0,1-8.78,0,7.53,7.53,0,0,1-.27-2.83c0-4.3,0-8.61,0-12.93A4.66,4.66,0,0,0,43,70.37a4.71,4.71,0,0,0-.62,2.34v14a4.63,4.63,0,0,1-1.66,3.58,4.73,4.73,0,0,1-5.8.19A4.51,4.51,0,0,1,33,86.78V72.62A32.83,32.83,0,0,1,63.65,40.07Z" fill="#fff"/>
          </g>
        </g>
      </g>
    </g>
  </g>
</svg>
