<?xml version="1.0" encoding="utf-8"?>
<!-- Generator: Adobe Illustrator 28.2.0, SVG Export Plug-In . SVG Version: 6.00 Build 0)  -->
<svg version="1.1" id="Layer_1" xmlns="http://www.w3.org/2000/svg" xmlns:xlink="http://www.w3.org/1999/xlink" x="0px" y="0px"
	 viewBox="0 0 132 132" style="enable-background:new 0 0 132 132;" xml:space="preserve">
<style type="text/css">
	.st0{fill-rule:evenodd;clip-rule:evenodd;fill:#1B63EF;}
	.st1{fill:#1B63EF;}
</style>
<g id="kucoin-token-kcs-logo">
	<path id="Контур_14032" class="st0" d="M56.4,66l17,17.3l10.8-10.8c1.6-1.8,4.4-2,6.2-0.4c0.1,0.1,0.3,0.2,0.4,0.4l0,0
		c2,2,2,5.2,0,7.2L76.7,94.2c-1.8,1.9-4.8,2-6.7,0.2l0,0l-0.2-0.2l0,0l-20.3-21v12.5c0.1,2.7-2,5-4.7,5.1s-5-2-5.1-4.7
		c0-0.1,0-0.3,0-0.4V46.3c-0.1-2.7,2-5,4.7-5.1s5,2,5.1,4.7c0,0.1,0,0.3,0,0.4v12.5l20.3-21c1.8-1.9,4.8-2,6.7-0.2l0,0l0.2,0.2l0,0
		l14.1,14.5c2,2,2,5.2,0,7.2c-1.6,1.8-4.3,2-6.1,0.5c-0.2-0.1-0.3-0.3-0.5-0.5l0,0L73.5,48.3L56.4,66z M73.4,61.1
		c2.7,0,4.9,2.2,4.9,4.9c0,2.7-2.2,4.9-4.9,4.9c-2.7,0-4.9-2.2-4.9-4.9l0,0l0,0C68.6,63.3,70.8,61.1,73.4,61.1L73.4,61.1z"/>
</g>
<path class="st1" d="M117,7c4.4,0,8,3.6,8,8v102c0,4.4-3.6,8-8,8H15c-4.4,0-8-3.6-8-8V15c0-4.4,3.6-8,8-8H117 M117,0H15
	C6.7,0,0,6.7,0,15v102c0,8.3,6.7,15,15,15h102c8.3,0,15-6.7,15-15V15C132,6.7,125.3,0,117,0L117,0z"/>
</svg>
