<svg xmlns="http://www.w3.org/2000/svg" viewBox="0 0 132 132">
  <g id="Layer_2" data-name="Layer 2">
    <g id="Layer_1-2" data-name="Layer 1">
      <g id="Сгруппировать_185907" data-name="Сгруппировать 185907">
        <g id="Сгруппировать_185900" data-name="Сгруппировать 185900">
          <g id="Сгруппировать_185881" data-name="Сгруппировать 185881">
            <path id="Прямоугольник_193250" data-name="Прямоугольник 193250" d="M66,0h0a66,66,0,0,1,66,66h0a66,66,0,0,1-66,66h0A66,66,0,0,1,0,66H0A66,66,0,0,1,66,0Z" fill="#0093dd"/>
            <path id="Прямоугольник_193251" data-name="Прямоугольник 193251" d="M66,10h0a56,56,0,0,1,56,56h0a56,56,0,0,1-56,56h0A56,56,0,0,1,10,66h0A56,56,0,0,1,66,10Z" fill="#1d1d1d"/>
          </g>
          <g id="kucoin-token-kcs-logo">
            <path id="Контур_14032" data-name="Контур 14032" d="M56.72,65.66,73.76,83,84.58,72.22a4.38,4.38,0,0,1,6.18-.38c.13.12.26.25.38.38h0a5.16,5.16,0,0,1,0,7.21L77,93.85a4.75,4.75,0,0,1-6.72.17l-.17-.17h0l-20.32-21V85.33a4.92,4.92,0,1,1-9.83,0V46a4.92,4.92,0,1,1,9.83,0V58.45l20.33-21a4.75,4.75,0,0,1,6.72-.16l.16.16h0L91.14,51.9a5.14,5.14,0,0,1,0,7.21,4.32,4.32,0,0,1-6.55,0h0L73.76,48Zm17-4.91a4.92,4.92,0,1,1-4.91,4.92h0A5,5,0,0,1,73.76,60.75Z" fill="#fff" fill-rule="evenodd"/>
          </g>
        </g>
      </g>
    </g>
  </g>
</svg>
