<svg xmlns="http://www.w3.org/2000/svg" viewBox="0 0 132 132">
  <g id="Layer_2" data-name="Layer 2">
    <g id="Layer_1-2" data-name="Layer 1">
      <g id="Сгруппировать_185914" data-name="Сгруппировать 185914">
        <g id="Сгруппировать_185910" data-name="Сгруппировать 185910">
          <path id="Прямоугольник_193234" data-name="Прямоугольник 193234" d="M66,0h0a66,66,0,0,1,66,66h0a66,66,0,0,1-66,66h0A66,66,0,0,1,0,66H0A66,66,0,0,1,66,0Z" fill="#31cb9e"/>
          <path id="Прямоугольник_193235" data-name="Прямоугольник 193235" d="M66,10h0a56,56,0,0,1,56,56h0a56,56,0,0,1-56,56h0A56,56,0,0,1,10,66h0A56,56,0,0,1,66,10Z" fill="#1d1d1d"/>
          <g id="kyber-network-knc-logo">
            <path id="Контур_13978" data-name="Контур 13978" d="M63,65.78l23.7,13.57a1.25,1.25,0,0,0,1.72-.42,1.28,1.28,0,0,0,.18-.66v-25A1.25,1.25,0,0,0,87.33,52a1.33,1.33,0,0,0-.67.19Z" fill="#fff"/>
            <path id="Контур_13979" data-name="Контур 13979" d="M86.16,46.18,70,34.27a1.29,1.29,0,0,0-1.81.23,1.35,1.35,0,0,0-.22.45L62,61.49,86,48.22a1.19,1.19,0,0,0,.52-1.61,1.21,1.21,0,0,0-.38-.43" fill="#fff"/>
            <path id="Контур_13980" data-name="Контур 13980" d="M69.94,97.28,86.16,85.36A1.22,1.22,0,0,0,86,83.29L62,70l5.92,26.54a1.27,1.27,0,0,0,1.54,1,1.19,1.19,0,0,0,.47-.22" fill="#fff"/>
            <path id="Контур_13981" data-name="Контур 13981" d="M56.8,65.28,63,36.47A1.22,1.22,0,0,0,62,35a1.2,1.2,0,0,0-.94.19L45.28,47.33A3.27,3.27,0,0,0,44,49.94V80.65a3.26,3.26,0,0,0,1.28,2.64L61,95.36a1.22,1.22,0,0,0,1.7-.3,1.25,1.25,0,0,0,.2-.94Z" fill="#fff"/>
          </g>
        </g>
      </g>
    </g>
  </g>
</svg>
