<?xml version="1.0" encoding="utf-8"?>
<!-- Generator: Adobe Illustrator 28.2.0, SVG Export Plug-In . SVG Version: 6.00 Build 0)  -->
<svg version="1.1" id="Layer_1" xmlns="http://www.w3.org/2000/svg" xmlns:xlink="http://www.w3.org/1999/xlink" x="0px" y="0px"
	 viewBox="0 0 132 132" style="enable-background:new 0 0 132 132;" xml:space="preserve">
<style type="text/css">
	.st0{fill:#1B63EF;}
</style>
<g id="kyber-network-knc-logo">
	<path id="Контур_13978" class="st0" d="M62.7,66l23.7,13.6c0.6,0.4,1.4,0.2,1.7-0.4l0,0c0.1-0.2,0.2-0.4,0.2-0.7v-25
		c0-0.7-0.5-1.3-1.2-1.3l0,0c-0.2,0-0.5,0.1-0.7,0.2L62.7,66z"/>
	<path id="Контур_13979" class="st0" d="M85.9,46.4L69.7,34.5c-0.6-0.4-1.4-0.3-1.8,0.2l0,0c-0.1,0.1-0.2,0.3-0.2,0.5l-6,26.5
		l24-13.3c0.6-0.3,0.8-1,0.5-1.6l0,0C86.1,46.7,86,46.5,85.9,46.4"/>
	<path id="Контур_13980" class="st0" d="M69.6,97.5l16.2-11.9c0.5-0.4,0.7-1.2,0.3-1.7c-0.1-0.2-0.3-0.3-0.4-0.4l-24-13.3
		l5.9,26.5c0.1,0.7,0.8,1.1,1.5,1c0,0,0,0,0.1,0S69.5,97.6,69.6,97.5"/>
	<path id="Контур_13981" class="st0" d="M56.5,65.5l6.2-28.8c0.1-0.7-0.3-1.3-0.9-1.5c0,0,0,0-0.1,0c-0.3-0.1-0.7,0-0.9,0.2
		L45,47.5c-0.8,0.6-1.3,1.6-1.3,2.6v30.7c0,1,0.5,2,1.3,2.6l15.7,12.1c0.6,0.4,1.3,0.3,1.7-0.3l0,0c0.2-0.3,0.3-0.6,0.2-0.9
		L56.5,65.5z"/>
</g>
<path class="st0" d="M117,7c4.4,0,8,3.6,8,8v102c0,4.4-3.6,8-8,8H15c-4.4,0-8-3.6-8-8V15c0-4.4,3.6-8,8-8H117 M117,0H15
	C6.7,0,0,6.7,0,15v102c0,8.3,6.7,15,15,15h102c8.3,0,15-6.7,15-15V15C132,6.7,125.3,0,117,0L117,0z"/>
</svg>
