<?xml version="1.0" encoding="utf-8"?>
<!-- Generator: Adobe Illustrator 28.2.0, SVG Export Plug-In . SVG Version: 6.00 Build 0)  -->
<svg version="1.1"
	 id="svg12" xmlns:svg="http://www.w3.org/2000/svg" xmlns:inkscape="http://www.inkscape.org/namespaces/inkscape" xmlns:sodipodi="http://sodipodi.sourceforge.net/DTD/sodipodi-0.dtd"
	 xmlns="http://www.w3.org/2000/svg" xmlns:xlink="http://www.w3.org/1999/xlink" x="0px" y="0px" viewBox="0 0 132 132"
	 style="enable-background:new 0 0 132 132;" xml:space="preserve">
<style type="text/css">
	.st0{fill:#1B63EF;}
	.st1{clip-path:url(#SVGID_00000157988179712738709070000017076708089130918587_);}
	.st2{fill-rule:evenodd;clip-rule:evenodd;fill:#FFFFFF;}
	.st3{clip-path:url(#SVGID_00000155108781480734062600000014282802779602962843_);}
	.st4{fill:none;}
	.st5{fill:none;stroke:#FFFFFF;stroke-width:5.3498;}
	.st6{fill:#FFFFFF;}
	.st7{clip-path:url(#SVGID_00000151529636726229731240000015318850379570181049_);}
</style>
<sodipodi:namedview  bordercolor="#666666" borderopacity="1.0" id="namedview14" inkscape:current-layer="Сгруппировать_185895" inkscape:cx="9.6479283" inkscape:cy="28.495044" inkscape:pagecheckerboard="0" inkscape:pageopacity="0.0" inkscape:pageshadow="2" inkscape:window-height="1017" inkscape:window-maximized="1" inkscape:window-width="1920" inkscape:window-x="-8" inkscape:window-y="-8" inkscape:zoom="2.2284577" pagecolor="#ffffff" showgrid="false">
	</sodipodi:namedview>
<path class="st0" d="M117,7c4.4,0,8,3.6,8,8v102c0,4.4-3.6,8-8,8H15c-4.4,0-8-3.6-8-8V15c0-4.4,3.6-8,8-8H117 M117,0H15
	C6.7,0,0,6.7,0,15v102c0,8.3,6.7,15,15,15h102c8.3,0,15-6.7,15-15V15C132,6.7,125.3,0,117,0L117,0z"/>
<g>
	<g>
		<g>
			<g>
				<g>
					<g>
						<g>
							<g>
								<g>
									<defs>
										<rect id="SVGID_1_" x="46" y="46" width="40" height="40"/>
									</defs>
									<clipPath id="SVGID_00000023249865246907139560000014287119489797919129_">
										<use xlink:href="#SVGID_1_"  style="overflow:visible;"/>
									</clipPath>
									<g style="clip-path:url(#SVGID_00000023249865246907139560000014287119489797919129_);">
										<path class="st2" d="M66,86c11,0,20-9,20-20s-9-20-20-20s-20,9-20,20S55,86,66,86z M65.3,66.8L64.9,67l0,0v9l-4.1-2.4v1.6
											c0,0.4,0.3,0.9,0.6,1.1L66,79l0,0l0,0l0,0l0,0l4.5-2.6c0.4-0.2,0.6-0.7,0.6-1.1v-1.6L67,76.1v-9l0,0l-0.4-0.2
											C66.3,66.6,65.7,66.6,65.3,66.8z M67.7,65.8L67.7,65.8L67.7,65.8l7.1-4.1v4.7l1.4-0.8c0.4-0.2,0.6-0.7,0.6-1.1v-5.2l0,0
											l0,0l0,0l0,0l-4.5-2.6c-0.4-0.2-0.9-0.2-1.3,0l-1.4,0.8l4.2,2.4L66.6,64v0.4c0,0.4,0.3,0.9,0.6,1.1L67.7,65.8L67.7,65.8
											L67.7,65.8z M59.7,56.7l-4.5,2.6l0,0l0,0v5.2c0,0.4,0.3,0.9,0.6,1.1l1.4,0.8v-4.7l7.2,4.1l0,0l0,0l0,0l0,0l0.4-0.2
											c0.4-0.2,0.6-0.7,0.6-1.1V64l0,0l0,0l0,0l-7.1-4.1l0,0l4.1-2.4L61,56.7C60.6,56.4,60,56.4,59.7,56.7z M74.8,67.6
											c0-0.4,0.3-0.9,0.6-1.1l1.4-0.8v4.8l0,0V72c0,0.4-0.3,0.9-0.6,1.1l-4.5,2.6v-1.6c0-0.4,0.3-0.9,0.6-1.1l2.4-1.4L74.8,67.6
											L74.8,67.6z M57.2,71.6l2.4,1.4c0.4,0.2,0.6,0.7,0.6,1.1v1.6l-4.5-2.6c-0.4-0.2-0.6-0.7-0.6-1.1v-1.6v-4.8l1.4,0.8
											c0.4,0.2,0.6,0.7,0.6,1.1L57.2,71.6L57.2,71.6z M60.8,56l3.3-1.9l0,0l1.3-0.7c0.4-0.2,0.9-0.2,1.3,0l4.7,2.7L70,56.9
											c-0.4,0.2-0.9,0.2-1.3,0L66,55.4l-2.5,1.4c-0.4,0.2-0.9,0.2-1.3,0L60.8,56z"/>
									</g>
								</g>
							</g>
						</g>
					</g>
				</g>
			</g>
		</g>
	</g>
</g>
<g>
	<g>
		<g>
			<g>
				<g>
					<defs>
						<polygon id="SVGID_00000158747883195527356680000004152784985024348038_" points="28.6,58.4 39,58.4 83.9,40.5 88.3,33.5 
							64.2,22.1 27.3,41.5 						"/>
					</defs>
					<clipPath id="SVGID_00000071555904138523764910000003430312577436184458_">
						<use xlink:href="#SVGID_00000158747883195527356680000004152784985024348038_"  style="overflow:visible;"/>
					</clipPath>
					
						<g id="Mask_Group_19_00000149355165236507293900000010873734993626260917_" style="clip-path:url(#SVGID_00000071555904138523764910000003430312577436184458_);">
						<g id="Ellipse_447_00000133530469753244528680000016607469594725138365_" transform="translate(-23726 11520)">
							<circle class="st4" cx="23792.1" cy="-11454.1" r="37.4"/>
							<circle class="st5" cx="23792.1" cy="-11454.1" r="34.8"/>
						</g>
					</g>
				</g>
			</g>
		</g>
		<path class="st6" d="M34.4,70.9L21.2,57.7H35c-0.5,2.1-0.7,4.3-0.8,6.5C34.1,66.4,34.2,68.6,34.4,70.9z"/>
	</g>
	<g>
		<g>
			<g>
				<g>
					<defs>
						<polygon id="SVGID_00000000216006580982341260000007599539196878831271_" points="103.4,73.6 93,73.6 48.1,91.5 43.7,98.5 
							67.8,109.9 104.7,90.5 						"/>
					</defs>
					<clipPath id="SVGID_00000106135286837160959370000007253987246436111807_">
						<use xlink:href="#SVGID_00000000216006580982341260000007599539196878831271_"  style="overflow:visible;"/>
					</clipPath>
					
						<g id="Mask_Group_19_00000114757736267906920030000002183791434012395451_" style="clip-path:url(#SVGID_00000106135286837160959370000007253987246436111807_);">
						<g id="Ellipse_447_00000019668123109921042760000000650799229752783013_" transform="translate(-23726 11520)">
							<circle class="st4" cx="23791.9" cy="-11453.9" r="37.4"/>
							<circle class="st5" cx="23791.9" cy="-11453.9" r="34.8"/>
						</g>
					</g>
				</g>
			</g>
		</g>
		<path class="st6" d="M97.6,61.1l13.2,13.2H97c0.5-2.1,0.7-4.3,0.8-6.5C97.9,65.6,97.8,63.4,97.6,61.1z"/>
	</g>
</g>
</svg>
