<?xml version="1.0" encoding="UTF-8" standalone="no"?>
<svg
   viewBox="0 0 132 132"
   version="1.1"
   id="svg12"
   sodipodi:docname="Binance - Copy.svg"
   inkscape:version="1.1 (c68e22c387, 2021-05-23)"
   xmlns:inkscape="http://www.inkscape.org/namespaces/inkscape"
   xmlns:sodipodi="http://sodipodi.sourceforge.net/DTD/sodipodi-0.dtd"
   xmlns="http://www.w3.org/2000/svg"
   xmlns:svg="http://www.w3.org/2000/svg">
  <defs
     id="defs16" />
  <sodipodi:namedview
     id="namedview14"
     pagecolor="#ffffff"
     bordercolor="#666666"
     borderopacity="1.0"
     inkscape:pageshadow="2"
     inkscape:pageopacity="0.0"
     inkscape:pagecheckerboard="0"
     showgrid="false"
     inkscape:zoom="2.2284577"
     inkscape:cx="12.116003"
     inkscape:cy="28.495043"
     inkscape:window-width="1920"
     inkscape:window-height="1017"
     inkscape:window-x="-8"
     inkscape:window-y="-8"
     inkscape:window-maximized="1"
     inkscape:current-layer="Сгруппировать_185895" />
  <g
     id="Layer_2"
     data-name="Layer 2">
    <g
       id="Layer_1-2"
       data-name="Layer 1">
      <g
         id="Сгруппировать_185902"
         data-name="Сгруппировать 185902">
        <g
           id="Сгруппировать_185895"
           data-name="Сгруппировать 185895">
          <path
             id="Прямоугольник_193240"
             data-name="Прямоугольник 193240"
             d="M66,0h0a66,66,0,0,1,66,66h0a66,66,0,0,1-66,66h0A66,66,0,0,1,0,66H0A66,66,0,0,1,66,0Z"
             fill="#f0b92a"
             style="fill:#36c2d8;fill-opacity:1" />
          <path
             id="Прямоугольник_193241"
             data-name="Прямоугольник 193241"
             d="M66,10h0a56,56,0,0,1,56,56h0a56,56,0,0,1-56,56h0A56,56,0,0,1,10,66h0A56,56,0,0,1,66,10Z"
             fill="#1d1d1d" />
          <g
             id="serum-srm-logo"
             transform="matrix(0.51332476,0,0,0.51332476,32.760477,29.057209)">
            <path
               id="Path_472473"
               data-name="Path 472473"
               d="M 87.81,136.9 A 40.432,40.432 0 0 1 47.4,96.49 c 0,-21.68 36.581,-59.968 38.133,-61.572 l 1.915,-2.018 1.966,1.966 c 1.6,1.6 38.806,39.893 38.806,61.572 A 40.443,40.443 0 0 1 87.81,136.9 Z M 87.5,40.713 C 84.292,44.18 77.566,51.682 70.891,60.478 59.042,76.1 52.781,88.522 52.781,96.438 a 35.029,35.029 0 0 0 70.058,0 c 0,-7.916 -6.364,-20.334 -18.42,-35.96 C 97.641,51.734 90.759,44.18 87.5,40.713 Z"
               transform="translate(-22.875,-15.871)"
               fill="#ffffff" />
            <path
               id="Path_472474"
               data-name="Path 472474"
               d="M 75.745,141.982 A 53.406,53.406 0 0 1 22.4,88.636 c 0,-28.768 40.151,-68.92 41.859,-70.575 a 2.7075119,2.7075119 0 1 1 3.829,3.829 C 67.674,22.304 27.833,62.145 27.833,88.636 a 47.9645,47.9645 0 1 0 95.929,0 c 0,-10.866 -7.037,-25.871 -20.386,-43.515 A 253.461,253.461 0 0 0 82.731,21.269 2.7075119,2.7075119 0 0 1 86.56,17.44 c 1.759,1.707 42.635,42.376 42.635,71.2 a 53.561,53.561 0 0 1 -53.449,53.345 z"
               transform="translate(-10.81,-8.017)"
               fill="#ffffff" />
            <path
               id="Path_472475"
               data-name="Path 472475"
               d="M 64.935,146.9 A 65.01,65.01 0 0 1 0,81.964 C 0,67.164 7.451,48.953 22.094,27.894 A 240.477,240.477 0 0 1 43.98,0.834 2.708,2.708 0 1 1 47.861,4.611 241.858,241.858 0 0 0 26.492,31.051 C 12.677,50.868 5.381,68.46 5.381,81.964 a 59.5545,59.5545 0 1 0 119.109,0 c 0,-13.5 -7.347,-31.1 -21.266,-50.914 A 242.682,242.682 0 0 0 81.648,4.611 2.708,2.708 0 0 1 85.529,0.834 c 1.811,1.863 44.342,46.05 44.342,81.131 A 65.01,65.01 0 0 1 64.935,146.9 Z"
               fill="#ffffff" />
          </g>
        </g>
      </g>
    </g>
  </g>
</svg>
