<?xml version="1.0" encoding="utf-8"?>
<!-- Generator: Adobe Illustrator 28.2.0, SVG Export Plug-In . SVG Version: 6.00 Build 0)  -->
<svg version="1.1"
	 id="svg12" xmlns:svg="http://www.w3.org/2000/svg" xmlns:inkscape="http://www.inkscape.org/namespaces/inkscape" xmlns:sodipodi="http://sodipodi.sourceforge.net/DTD/sodipodi-0.dtd"
	 xmlns="http://www.w3.org/2000/svg" xmlns:xlink="http://www.w3.org/1999/xlink" x="0px" y="0px" viewBox="0 0 132 132"
	 style="enable-background:new 0 0 132 132;" xml:space="preserve">
<style type="text/css">
	.st0{fill:#1B63EF;}
</style>
<g id="serum-srm-logo" transform="matrix(0.51332476,0,0,0.51332476,32.760477,29.057209)">
	<path id="Path_472473" class="st0" d="M64.8,119.6c-22.3,0-40.4-18.1-40.4-40.4c0-21.7,36.6-60,38.1-61.6l1.9-2l2,2
		c1.6,1.6,38.8,39.9,38.8,61.6C105.2,101.4,87.1,119.5,64.8,119.6z M64.4,23.4c-3.2,3.5-9.9,11-16.6,19.8
		c-11.8,15.6-18.1,28-18.1,36c0,19.3,15.7,35,35,35s35-15.7,35-35c0-7.9-6.4-20.3-18.4-36C74.6,34.4,67.7,26.8,64.4,23.4z"/>
	<path id="Path_472474" class="st0" d="M64.8,132.5c-29.4,0-53.3-23.9-53.3-53.3c0-28.8,40.2-68.9,41.9-70.6c1.1-1.1,2.8-1.1,3.8,0
		c1.1,1.1,1.1,2.8,0,3.8c-0.4,0.4-40.3,40.3-40.3,66.7c0,26.5,21.5,48,48,48s48-21.5,48-48c0-10.9-7-25.9-20.4-43.5
		C86,27.3,79.1,19.3,71.7,11.8c-1.1-1.1-1.1-2.8,0-3.8c1.1-1.1,2.8-1.1,3.8,0c1.8,1.7,42.6,42.4,42.6,71.2
		C118.1,108.6,94.2,132.4,64.8,132.5L64.8,132.5z"/>
	<path id="Path_472475" class="st0" d="M64.8,145.4c-35.8,0-64.9-29.1-64.9-64.9c0-14.8,7.5-33,22.1-54.1
		c6.6-9.5,13.9-18.6,21.9-27.1c1-1.1,2.7-1.1,3.8-0.1s1.1,2.7,0.1,3.8c0,0,0,0-0.1,0.1C40,11.4,32.8,20.2,26.3,29.5
		C12.5,49.4,5.2,67,5.2,80.5c0,32.9,26.6,59.6,59.5,59.6s59.6-26.6,59.6-59.5l0,0c0-13.5-7.3-31.1-21.3-50.9
		c-6.6-9.3-13.8-18.1-21.6-26.4c-1-1.1-1-2.8,0.1-3.8s2.7-1,3.8,0.1c1.8,1.9,44.3,46,44.3,81.1C129.6,116.3,100.6,145.4,64.8,145.4z
		"/>
</g>
<path class="st0" d="M117,7c4.4,0,8,3.6,8,8v102c0,4.4-3.6,8-8,8H15c-4.4,0-8-3.6-8-8V15c0-4.4,3.6-8,8-8H117 M117,0H15
	C6.7,0,0,6.7,0,15v102c0,8.3,6.7,15,15,15h102c8.3,0,15-6.7,15-15V15C132,6.7,125.3,0,117,0L117,0z"/>
</svg>
