<?xml version="1.0" encoding="utf-8"?>
<!-- Generator: Adobe Illustrator 28.2.0, SVG Export Plug-In . SVG Version: 6.00 Build 0)  -->
<svg version="1.1" id="Layer_1" xmlns="http://www.w3.org/2000/svg" xmlns:xlink="http://www.w3.org/1999/xlink" x="0px" y="0px"
	 viewBox="0 0 132 132" style="enable-background:new 0 0 132 132;" xml:space="preserve">
<style type="text/css">
	.st0{fill:#1B63EF;}
</style>
<g id="logo">
	<path id="Контур_14025" class="st0" d="M55.9,73.4h-4.6V62h-6.5v-3.4h17.5V62H56C55.9,62,55.9,73.4,55.9,73.4z M83.5,70v3.4
		H67.2V58.6h16.3V62H71.9v2.5h10.9v3H71.9v2.4L83.5,70L83.5,70z M94.7,73.4h-6.2l7.2-7.3l-6.9-7.5h6l4.1,4.6l4.1-4.6h6.1l-7,7.5
		l7.3,7.3h-6.2L98.9,69L94.7,73.4z M40.1,58.6v3.1H28.3v0.2c-0.1,0-0.2,0-0.3,0c-0.2,0-0.4,0.1-0.6,0.2c-0.2,0.1-0.3,0.2-0.4,0.4
		s-0.2,0.4-0.2,0.6c-0.1,0.4,0.2,0.8,0.5,0.9c0.3,0.1,0.6,0.2,1,0.2v0.2h7.1h0.7c0.4,0,0.7,0,1,0.1c0.8,0,1.7,0.3,2.3,0.8
		c-0.2,0.2-0.2,0.6,0,0.9c0.1,0.1,0.2,0.2,0.2,0.3c-0.3,0.9-0.1,2.1-0.3,2.8c-0.1,0.3,0,0.6,0.2,0.8c-0.3,0.6-0.4,1.3-0.3,1.9
		l-1.1,1.1c-0.6,0.2-1.3,0.3-2,0.3H22.7v-3.2h11.9h0.3c0.2,0,0.4-0.1,0.6-0.2c0.2-0.1,0.3-0.2,0.5-0.4c0.1-0.2,0.2-0.4,0.2-0.6
		c0-0.3-0.1-0.5-0.2-0.7c-0.1-0.2-0.3-0.3-0.5-0.4h-0.1c-0.2-0.1-0.5-0.1-0.7-0.1v-0.3H27l-1-0.1c-1.1,0-2.1-0.4-2.8-1.1l0.1-0.1
		c0.2-0.3,0.3-0.7,0.4-1.1c0.1-0.6-0.3-1.1-0.2-1.6s0.5-0.7,0.4-1.2s-0.5-1-0.6-1.6c0-0.1,0-0.2-0.1-0.3l1.4-1.4
		c0.6-0.2,1.1-0.3,1.7-0.3h13.8V58.6z"/>
	<path id="Контур_14026" class="st0" d="M27.1,58.6V62c-0.4,0-0.8,0.4-0.7,0.8l0,0c0,0.1,0,0.2,0,0.2
		c-0.2,0.4-0.1,0.9,0.3,1.1l0,0c0.1,0,0.2,0.1,0.3,0.1l0,0v3.2h-4.4v-6.9l0.3-0.3l0,0l1.4-1.4l0,0l0.3-0.3h2.5V58.6z"/>
	<path id="Контур_14027" class="st0" d="M28.3,61.7h-2.5v2.6h2.6L28.3,61.7L28.3,61.7z M39.9,64.4v7L39.3,72l0,0l-1.1,1.1l0,0
		l-0.3,0.3h-2.5v-9H39.9z"/>
	<path id="Контур_14028" class="st0" d="M34.6,67.6h1.7v2.7h-1.9v-0.1h0.2V67.6z"/>
	<path id="Контур_14029" class="st0" d="M34.4,70.2h0.2v0.2H22.7v-0.2H34.4L34.4,70.2z M40.1,61.3H28.3V62h11.8V61.3z
		 M38.1,73.1L38.1,73.1l-0.3,0.3l0,0L38.1,73.1z M39.9,71.4L39.9,71.4L39.3,72l0,0L39.9,71.4L39.9,71.4z"/>
	<path id="Контур_14030" class="st0" d="M38.6,70l-2,2l1.4,1.4l2-2L38.6,70L38.6,70z"/>
</g>
<path class="st0" d="M117,7c4.4,0,8,3.6,8,8v102c0,4.4-3.6,8-8,8H15c-4.4,0-8-3.6-8-8V15c0-4.4,3.6-8,8-8H117 M117,0H15
	C6.7,0,0,6.7,0,15v102c0,8.3,6.7,15,15,15h102c8.3,0,15-6.7,15-15V15C132,6.7,125.3,0,117,0L117,0z"/>
</svg>
