<svg xmlns="http://www.w3.org/2000/svg" viewBox="0 0 132 132">
  <g id="Layer_2" data-name="Layer 2">
    <g id="Layer_1-2" data-name="Layer 1">
      <g id="Сгруппировать_185905" data-name="Сгруппировать 185905">
        <g id="Сгруппировать_185898" data-name="Сгруппировать 185898">
          <g id="Сгруппировать_185879" data-name="Сгруппировать 185879">
            <path id="Прямоугольник_193246" data-name="Прямоугольник 193246" d="M66,0h0a66,66,0,0,1,66,66h0a66,66,0,0,1-66,66h0A66,66,0,0,1,0,66H0A66,66,0,0,1,66,0Z" fill="#fff"/>
            <path id="Прямоугольник_193247" data-name="Прямоугольник 193247" d="M66,10h0a56,56,0,0,1,56,56h0a56,56,0,0,1-56,56h0A56,56,0,0,1,10,66h0A56,56,0,0,1,66,10Z" fill="#1d1d1d"/>
          </g>
          <g id="logo">
            <path id="Контур_14025" data-name="Контур 14025" d="M56.17,73.84H51.54V62.44H45V59H62.47v3.44h-6.3v11.4Zm27.62-3.45v3.45H67.51V59H83.79v3.44H72.14v2.49H83.07v3H72.14v2.45H83.79Zm11.15,3.45H88.7l7.2-7.33L89,59h6l4.1,4.59L103.16,59h6.09l-7,7.51,7.32,7.33h-6.2l-4.22-4.45ZM40.36,59v3.07H28.54v.15c-.1,0-.2,0-.3,0a1.86,1.86,0,0,0-.57.16,1,1,0,0,0-.42.37,1.09,1.09,0,0,0-.16.64.91.91,0,0,0,.51.94,2.58,2.58,0,0,0,.95.21v.24h7.1l.74,0c.41,0,.74,0,1,.07a3.77,3.77,0,0,1,2.33.81.64.64,0,0,0,0,.87c.09.13.18.23.25.34-.27.89-.11,2.1-.33,2.81a.71.71,0,0,0,.23.79,3.22,3.22,0,0,0-.26,1.91l-1.14,1.14a6.6,6.6,0,0,1-2,.26H23V70.63H34.87l.3,0a2.27,2.27,0,0,0,.62-.16,1.08,1.08,0,0,0,.45-.37,1.12,1.12,0,0,0,.17-.64,1.07,1.07,0,0,0-.24-.73,1.24,1.24,0,0,0-.53-.37l-.08,0a3.13,3.13,0,0,0-.69-.14v-.28H27.26l-1-.07a3.83,3.83,0,0,1-2.82-1.15l.06-.1a3.27,3.27,0,0,0,.35-1.11c.08-.56-.32-1.12-.23-1.62s.47-.68.41-1.24-.53-1-.64-1.64a.62.62,0,0,0-.09-.26l1.4-1.4A4.92,4.92,0,0,1,26.44,59Z" fill="#fff"/>
            <path id="Контур_14026" data-name="Контур 14026" d="M27.37,59v3.47a.79.79,0,0,0-.73.85.54.54,0,0,0,.05.22A.8.8,0,0,0,27,64.63a.85.85,0,0,0,.31.09h.05v3.16H23V61l.3-.3h0l1.4-1.4h0L25,59Z" fill="#fff"/>
            <path id="Контур_14027" data-name="Контур 14027" d="M28.55,62.15H26v2.57h2.56V62.15Zm11.67,2.66v7l-.65.65h0l-1.14,1.14h0l-.27.27H35.64v-9Z" fill="#fff"/>
            <path id="Контур_14028" data-name="Контур 14028" d="M34.87,68.07H36.6v2.67H34.68v-.11h.19V68.07Z" fill="#fff"/>
            <path id="Контур_14029" data-name="Контур 14029" d="M34.68,70.63h.19v.25H23v-.24H34.68Zm5.68-8.88H28.54v.69H40.36ZM38.43,73.58h0l-.27.27h0Zm1.79-1.79v0l-.65.64h0l.65-.65Z" fill="#fff"/>
            <path id="Контур_14030" data-name="Контур 14030" d="M38.86,70.45l-2,2,1.36,1.36,2-2-1.36-1.35Z" fill="#fff"/>
          </g>
        </g>
      </g>
    </g>
  </g>
</svg>
