<svg xmlns="http://www.w3.org/2000/svg" viewBox="0 0 245 245"><defs><style>.cls-1{fill:#1c324f;}.cls-2{fill:#fff;}</style></defs><title>1inch_2</title><g id="Layer_2" data-name="Layer 2"><g id="Layer_1-2" data-name="Layer 1"><circle id="path1530" class="cls-1" cx="122.5" cy="122.5" r="122.5"/><path class="cls-1" d="M122.5,207.6c45.29,0,82-36.41,82-81.32S167.79,45,122.5,45s-82,36.41-82,81.33S77.21,207.6,122.5,207.6Z"/><path class="cls-1" d="M100.37,76.67,71.67,65.29v4.06l24.6,22-1.64,22.77L87.25,145l-9.84,13.83,2.46,19.52L92.17,180l9.84-1.62,9.84,1.62,17.22-10.57,3.28-17.08,20.5-19.51,9,6.5,9,13v26l12.3-3.26,12.3-26.83,3.28-34.16L154.49,49.84l-7.38-1.63Z"/><path class="cls-2" d="M56.89,123.67a44.49,44.49,0,0,1,1.32-8.13A71.24,71.24,0,0,1,71.49,86.27a40.86,40.86,0,0,1,3.44-4.07l-7.38-6.83c-1.31,1.95-2.62,3.9-3.77,5.85a80.22,80.22,0,0,0-10.33,42.29,51.33,51.33,0,0,0,.82,8.62,78.68,78.68,0,0,0,4.26,16.43,82.78,82.78,0,0,1-2.13-16.75A46.3,46.3,0,0,1,56.89,123.67Z"/><path class="cls-1" d="M90.51,71c-4.1-2-9.84-4.55-13.94-6.5,3.78-3.58,10.66-7.32,16.4-9.76C88.87,58,88.87,64.8,90.51,71Z"/><path class="cls-2" d="M74,98.63a60.9,60.9,0,0,0-4.26,17.56,19.59,19.59,0,0,0-.17,4.39,38.08,38.08,0,0,0,.17,4.4l.16,2.27a9.17,9.17,0,0,0,.33,2.12l.65,4.39.17-4.39a9.47,9.47,0,0,1,.16-2.12l.33-2.11c.16-1.47.49-2.93.66-4.23a28.84,28.84,0,0,1,1-4.07A55.64,55.64,0,0,1,86.74,93.1l-6.39-6A50.06,50.06,0,0,0,74,98.63Z"/><path class="cls-1" d="M168.91,70.81c-8.69-3.09-12.13-2.11-12.13-2.11s-5.41,14.47-26.08,15.45C130.87,84.31,149.4,95.05,168.91,70.81Z"/><path class="cls-2" d="M193.84,85.62a30.83,30.83,0,0,1,7.38,5c-14.76-50.75-62.65-45.06-63.63-44.73,1.15-1.79,5.41-4.55,9.35-6,0,0-20.34-7.16-38.87,5.53.33-2.93,3.93-7.32,3.93-7.32C86.42,49,84.78,62,89.7,69.84c-4.1-2-8.2-3.74-12.3-5.69C64.77,58.13,54,53.09,53.29,52.92c-1.15-.32-1.64.17-1.64.17s-.49.48.49,1.46C67.07,69.35,76.58,78.3,92.49,92.77c-2.63,5.86-2.95,8.78-1.64,11.87,1.8,4.23,1.64,6.35,1,9.11-.82,2.77-7.38,27.33-8.53,30.09-1.14,2.93-9.84,12.69-10,15.94s2.46,17.57,6.07,19.68c2.79,1.46,9.51,4.55,14.43,5.2a5.44,5.44,0,0,0,4.1-.48c3.28-2.12,4.1-2.44,6.23-2.28l.49.16a30.49,30.49,0,0,0,3.12.65c2.79.33,6.4.33,9.35-1.62,4.26-3.26,11.48-7.32,13.94-9.44A16.27,16.27,0,0,0,136,160.11c0-4.07,2.79-7.32,5.9-10.58,3-2.92,10.33-10.08,13.29-13.17,7.54,2.6,10.33,13.34,10.33,19.19,0,16.27-13.29,40-43.79,41.8-1.15,0-2.3.16-3.61.16-39.69,0-72.16-34.8-72.16-75.63,0-32.2,19.51-54,19.68-54.17A79.57,79.57,0,0,0,40.5,126.28c0,44.89,36.74,81.32,82,81.32s82-36.43,82-81.32A81.3,81.3,0,0,0,193.84,85.62Zm-112-10.41-6.89-5.86c3.12,1.63,6.23,3.25,9,4.72,8.53,4.39,15.58,8.29,16.89,9.27l.33.32a3.55,3.55,0,0,1,.16,4.72c-.82,1.14-1.8.81-3.28-.16C96.75,87.4,89.7,81.87,81.83,75.21Zm47.72,84.57a10.49,10.49,0,0,1-3,7,64.89,64.89,0,0,1-6.4,4.4c-2.29,1.62-4.75,3.09-6.72,4.55a6.33,6.33,0,0,1-4.26.49l-5.09-.65c3.12-3.09,11.65-9.76,14.43-11.06,3.28-1.63,5.25-3.42,3.78-7.16-1.32-3.9-6.4-3.74-6.4-3.74a17.65,17.65,0,0,1,5.58-.49c-3.12-1.3-7.38-1-9.52.49-2.29,1.63-3,8.29-4.42,12.36-1.48,4.23-4.76,6-9.68,9.43-2.79,1.79-4.59,2.28-5.9,2.12a55.57,55.57,0,0,1-8.37-3.42c-1.31-2.44-2.95-10.08-3.11-13.17.65-1.63,3.28-4.88,4.59-6.83,2.62-3.58,4.1-5.69,4.75-7.65,1.15-2.76,5.91-20.16,7.71-27.48,1.81,3.09,4.27,8.29,3.12,11.22,5.9-6.18,3.28-13.5,2-16.43-1.15-2.93-2.46-8.62.16-14.15,2.46-5.53,11-20.49,11-20.49s1.47,3.9,4.59,3.58c2.95-.33,31.32-31.88,31.32-31.88s4.43,14.64-3.77,23.58-15.09,9.92-15.09,9.92a26.64,26.64,0,0,0,18.7-2c2.46,8.78,4.59,17.89,4.59,19-.65,1.14-9.84,16.43-10.66,17.4-.33.33-3,.65-4.59.65-3,.49-4.76.66-5.58,1.14-1.31.82-8.85,15-12.46,21.8a14,14,0,0,0-9.18,4.71c1.31-.65,5.08-.65,7.87-.65,2.46.17,9.18,5.05,10,12.69Zm-19.19,6.83c1.81-2,2.14-5.69,2.46-6.83s1-3.25,2.46-3.42,4.6.82,4.27,3.26c-.33,2.27-2.79,2.44-4.76,3.58A48.74,48.74,0,0,0,110.36,166.61Zm71.34,2.12a41.85,41.85,0,0,0-22.79-33.83c7.38-.82,26.4-6.51,15.91-35.3.32,1.3,3.28,15.62-5.09,23.1-8.53,7.64-21,4.39-22.47,4.39-1.31-.16-7.54,5.85-16.07,17.4a18.18,18.18,0,0,0-8.53-1.62c4.27-8,10.66-19.36,11.65-20.34.33-.32,3.11-.65,4.75-.81,3.28-.32,4.92-.65,5.58-1.3.33-.49,2.62-4.07,4.92-8a43.39,43.39,0,0,0,5.9.33c.33-.33,4.76-8.14,4.92-9.11.17-.65-2.95-12.85-4.92-20.66C196,102,202.37,144,181.7,168.73Z"/><path class="cls-1" d="M142.67,72c4.59-4.06,3.94-11.06,3.94-11.06L132.83,76C132.67,76,136.93,76.83,142.67,72Z"/><path class="cls-2" d="M91.18,158l2.29-6.5s-7,8.94-7.71,10.24c-.65,1.47-.32,4.23,2,4.39s5.41-2.76,5.74-5C94,158,91.18,158,91.18,158Z"/><path class="cls-2" d="M112.82,118.63c4.92-.49,13.78-4.39,17.55-7.48a7.46,7.46,0,0,0-2.79-12.52c2-3.26,5.25-10.09,5.25-10.09S111.68,113.1,110,113.43s-2.3-5.86-2.3-5.86C102.82,119.44,111.18,122.37,112.82,118.63Z"/><path class="cls-1" d="M114.63,115.54l11-13.82s4.76,3.25,1.64,7C123.32,113.1,114.63,115.54,114.63,115.54Z"/><path class="cls-1" d="M143.83,53.9,136.29,62a42.15,42.15,0,0,0-17.55,10.41C118.74,69.35,127.76,55.85,143.83,53.9Z"/><path class="cls-1" d="M153.34,60.89a31.81,31.81,0,0,0-.33-6.83c9.84,1.3,21.49,7,34.77,19.84C176.79,67.89,165.15,62.36,153.34,60.89Z"/><path class="cls-1" d="M156.29,71.47s36.58,15.93,43.3,60.66C200.57,73.9,158.92,71,156.29,71.47Z"/><path class="cls-1" d="M103,45.77c-.49,1.3-21.15,23.26,4.6,31.88C93.48,65.12,102.83,45.93,103,45.77Z"/><path class="cls-1" d="M114,74.23s2.13-24.88,17.22-31.55C130.05,43,99.39,52.27,114,74.23Z"/></g></g></svg>