<?xml version="1.0" encoding="UTF-8" standalone="no"?>
<svg
   xmlns:dc="http://purl.org/dc/elements/1.1/"
   xmlns:cc="http://creativecommons.org/ns#"
   xmlns:rdf="http://www.w3.org/1999/02/22-rdf-syntax-ns#"
   xmlns:svg="http://www.w3.org/2000/svg"
   xmlns="http://www.w3.org/2000/svg"
   id="svg8"
   version="1.1"
   viewBox="0 0 67.733332 67.733335"
   height="256"
   width="256">
  <defs
     id="defs2">
    <linearGradient
       id="a"
       x1="703.832"
       y1="176.152"
       x2="126.488"
       y2="661.92799"
       gradientUnits="userSpaceOnUse">
      <stop
         offset="0"
         stop-color="#b6509e"
         id="stop1405" />
      <stop
         offset="1"
         stop-color="#2ebac6"
         id="stop1407" />
    </linearGradient>
    <clipPath
       id="c">
      <rect
         width="800"
         height="800"
         id="rect1410" />
    </clipPath>
  </defs>
  <metadata
     id="metadata5">
    <rdf:RDF>
      <cc:Work
         rdf:about="">
        <dc:format>image/svg+xml</dc:format>
        <dc:type
           rdf:resource="http://purl.org/dc/dcmitype/StillImage" />
        <dc:title></dc:title>
      </cc:Work>
    </rdf:RDF>
  </metadata>
  <g
     transform="translate(0,-229.26665)"
     id="layer1">
    <g
       transform="matrix(0.08353469,0,0,0.08353469,0.45279067,229.71944)"
       id="b"
       clip-path="url(#c)">
      <circle
         style="fill:url(#a)"
         cx="388"
         cy="388"
         r="388"
         transform="translate(12,12)"
         id="circle1415" />
      <path
         style="fill:#ffffff"
         d="M 343.986,341.581 212.753,24.422 C 205.337,8.033 194.374,0 179.864,0 h -11.607 c -14.51,0 -25.473,8.033 -32.889,24.422 L 78.3,162.6 H 35.089 a 23.63,23.63 0 0 0 -23.538,23.458 v 0.321 a 23.63,23.63 0 0 0 23.538,23.458 H 58.3 L 3.812,341.581 a 27.793,27.793 0 0 0 -1.612,9 c 0,7.391 2.257,13.175 6.449,17.674 4.192,4.499 9.995,6.745 17.412,6.745 A 23.574,23.574 0 0 0 39.6,370.5 c 4.192,-2.892 7.094,-7.069 9.351,-11.889 l 59.974,-148.779 h 41.595 a 23.63,23.63 0 0 0 23.538,-23.458 v -0.643 A 23.63,23.63 0 0 0 150.52,162.273 H 128.274 L 174.06,48.2 298.845,358.612 c 2.257,4.82 5.159,9 9.351,11.889 a 23.574,23.574 0 0 0 13.543,4.5 q 11.124,0 17.412,-6.748 c 4.192,-4.5 6.449,-10.283 6.449,-17.674 a 21.246,21.246 0 0 0 -1.614,-8.998 z"
         transform="translate(225.8,213)"
         id="path1417" />
    </g>
  </g>
</svg>
