<svg width="64" height="64" viewBox="0 0 64 64" fill="none" xmlns="http://www.w3.org/2000/svg">
<circle cx="32" cy="32" r="32" fill="#161B25"/>
<path fill-rule="evenodd" clip-rule="evenodd" d="M28.2963 7.75757H35.7037V17.0441C34.4156 16.6969 33.061 16.5118 31.6633 16.5118C30.507 16.5118 29.3803 16.6385 28.2963 16.8788V7.75757ZM23.8577 18.6196L17.4771 12.239L12.2392 17.4768L18.5372 23.7748C19.8671 21.6569 21.6954 19.8837 23.8577 18.6196ZM16.6207 28.2963H7.75757V35.7037H16.6207C16.3295 34.517 16.175 33.2765 16.175 32C16.175 30.7235 16.3295 29.483 16.6207 28.2963ZM18.537 40.225L12.239 46.523L17.4768 51.7609L23.8574 45.3803C21.6952 44.1161 19.8669 42.3429 18.537 40.225ZM28.2963 47.1212V56.2424H35.7037V46.9559C34.4156 47.303 33.061 47.4882 31.6633 47.4882C30.507 47.4882 29.3803 47.3615 28.2963 47.1212ZM39.8885 45.1261L46.5232 51.7608L51.761 46.523L45.0437 39.8056C43.7796 41.9678 42.0064 43.7961 39.8885 45.1261ZM46.7059 35.7037H56.2424V28.2963H46.7059C46.9971 29.483 47.1515 30.7235 47.1515 32C47.1515 33.2765 46.9971 34.517 46.7059 35.7037ZM45.0435 24.1941L51.7608 17.4769L46.5229 12.2391L39.8883 18.8738C42.0062 20.2037 43.7794 22.0319 45.0435 24.1941Z" fill="#B8B5F8"/>
</svg>
