<svg id="ADA" xmlns="http://www.w3.org/2000/svg" width="512" height="512" viewBox="0 0 512 512">
<defs>
    <style>
      .cls-1 {
        fill: #3cc8c8;
      }

      .cls-1, .cls-2 {
        fill-rule: evenodd;
      }

      .cls-2 {
        fill: #fff;
      }
    </style>
  </defs>
  <path id="Full" class="cls-1" d="M11,256c0,135.094,109.906,245,245,245S501,391.094,501,256,391.094,11,256,11,11,120.906,11,256Z"/>
  <path id="Cardano" class="cls-2" d="M230.456,234.09a21.651,21.651,0,0,1-9.68-41.037,20.591,20.591,0,0,1,9.68-2.43,21.726,21.726,0,0,1,9.949,41.037,21.656,21.656,0,0,1-9.949,2.43m-25.275,44.276h-1.345a21.667,21.667,0,0,1-20.166-22.948,21.553,21.553,0,1,1,43.022,2.7,21.555,21.555,0,0,1-21.511,20.248m25.544,44.007a22.5,22.5,0,0,1-11.831-3.51,21.161,21.161,0,0,1-9.142-13.769,22.747,22.747,0,0,1,2.957-16.2,21.276,21.276,0,0,1,18.016-9.719,21.7,21.7,0,0,1,21.242,17.279,21.364,21.364,0,0,1-21.242,25.918m50.82,0a21.751,21.751,0,0,1-20.705-28.348A21.349,21.349,0,0,1,271.6,281.606a20.591,20.591,0,0,1,9.68-2.43,21.6,21.6,0,1,1,.269,43.2M306.82,278.1h-1.344a21.349,21.349,0,0,1-20.167-22.948,21.881,21.881,0,0,1,22.856-20.518,21.126,21.126,0,0,1,14.788,7.289,22.279,22.279,0,0,1,5.378,15.659A21.582,21.582,0,0,1,306.82,278.1M281.276,233.82a22.5,22.5,0,0,1-11.831-3.51,21.753,21.753,0,0,1-6.185-29.968,21.276,21.276,0,0,1,18.016-9.719,22.5,22.5,0,0,1,11.831,3.51,21.751,21.751,0,0,1,6.184,29.967,21.272,21.272,0,0,1-18.015,9.72m-72.331-80.184a10.831,10.831,0,1,1-14.52-4.86,10.842,10.842,0,0,1,14.52,4.86M143.6,245.969a10.812,10.812,0,1,1-11.293,10.259A10.829,10.829,0,0,1,143.6,245.969m47.056,102.862a10.5,10.5,0,0,1,14.788-2.97,10.657,10.657,0,0,1,3.227,14.849,10.8,10.8,0,0,1-14.789,3.239,10.973,10.973,0,0,1-3.226-15.118M303.056,359.36a10.831,10.831,0,1,1,14.52,4.859,10.841,10.841,0,0,1-14.52-4.859M368.4,267.027a10.812,10.812,0,1,1,11.294-10.259A10.829,10.829,0,0,1,368.4,267.027M321.34,164.165a10.716,10.716,0,1,1-3.227-14.849,10.563,10.563,0,0,1,3.227,14.849M185.283,120.428a6.982,6.982,0,1,1-9.411-2.969,6.751,6.751,0,0,1,9.411,2.969m-82.011,129.32a6.9,6.9,0,1,1-7.26,6.48,7.1,7.1,0,0,1,7.26-6.48m70.718,136.07a6.982,6.982,0,1,1,1.882,9.719,6.921,6.921,0,0,1-1.882-9.719m152.728,6.749a6.982,6.982,0,1,1,9.411,2.97,6.75,6.75,0,0,1-9.411-2.97m82.01-129.32a6.9,6.9,0,1,1,7.26-6.479,7.306,7.306,0,0,1-7.26,6.479M338.011,127.178a6.982,6.982,0,1,1-1.882-9.719,6.921,6.921,0,0,1,1.882,9.719M187.434,202.5a12.678,12.678,0,1,1-17.478,3.78,12.177,12.177,0,0,1,17.478-3.78M175.065,288.9a12.667,12.667,0,1,1-5.646,17.009,12.7,12.7,0,0,1,5.646-17.009m67.491,54.266a12.664,12.664,0,1,1,11.831,13.5,13.057,13.057,0,0,1-11.831-13.5m82.011-32.4a12.678,12.678,0,1,1,17.477-3.78,12.687,12.687,0,0,1-17.477,3.78M336.935,224.1a12.667,12.667,0,1,1,5.647-17.008,12.7,12.7,0,0,1-5.647,17.008m-68.566-54.265a12.664,12.664,0,1,1-11.831-13.5,12.674,12.674,0,0,1,11.831,13.5m-127.99,9.719a9.018,9.018,0,0,1,2.42,12.419,8.707,8.707,0,0,1-12.369,2.43,8.937,8.937,0,0,1,9.949-14.849m-8.6,139.039a8.868,8.868,0,1,1-4.033,11.879,8.985,8.985,0,0,1,4.033-11.879m114.815,76.944a8.89,8.89,0,1,1,8.336,9.449,8.983,8.983,0,0,1-8.336-9.449m125.033-62.095a9.052,9.052,0,1,1,12.369-2.7,8.817,8.817,0,0,1-12.369,2.7m8.6-139.039a8.867,8.867,0,1,1,4.034-11.879,8.985,8.985,0,0,1-4.034,11.879M264.605,117.459a8.89,8.89,0,1,1-8.336-9.45,8.984,8.984,0,0,1,8.336,9.45"/>
</svg>
