<?xml version="1.0" encoding="utf-8"?>
<!-- Generator: Adobe Illustrator 22.0.0, SVG Export Plug-In . SVG Version: 6.00 Build 0)  -->
<svg version="1.1" id="ADA" xmlns="http://www.w3.org/2000/svg" xmlns:xlink="http://www.w3.org/1999/xlink" x="0px" y="0px"
	 viewBox="0 0 490 490" style="enable-background:new 0 0 490 490;" xml:space="preserve">
<style type="text/css">
	.st0{fill:#3CC8C8;}
	.st1{fill:#FFFFFF;}
</style>
<path id="Full" class="st0" d="M0,245c0,135.1,109.9,245,245,245s245-109.9,245-245S380.1,0,245,0S0,109.9,0,245z"/>
<path id="Cardano" class="st1" d="M219.5,223.1c-12,0-21.7-9.7-21.7-21.6c0-8.2,4.6-15.8,12-19.4c3-1.6,6.3-2.4,9.7-2.4
	c12,0,21.7,9.7,21.7,21.7c0,8.1-4.5,15.6-11.8,19.3C226.3,222.3,222.9,223.1,219.5,223.1 M194.2,267.4h-1.3
	c-11.9-0.8-20.9-11.1-20.2-22.9c0.7-11.9,11-20.9,22.9-20.2s20.9,11,20.2,22.9l0,0C215,258.5,205.6,267.4,194.2,267.4 M219.7,311.4
	c-4.2,0-8.3-1.3-11.8-3.5c-4.8-3.2-8.1-8.1-9.1-13.8c-1.1-5.6,0-11.4,3-16.2c3.9-6.1,10.7-9.8,18-9.7c10.3,0,19.1,7.2,21.2,17.3
	c2.5,11.5-4.8,22.9-16.3,25.4C223,311.2,221.4,311.4,219.7,311.4 M270.5,311.4c-12,0-21.7-9.8-21.7-21.8c0-2.2,0.3-4.4,1-6.6
	c1.8-5.4,5.7-9.9,10.8-12.4c3-1.6,6.3-2.4,9.7-2.4c11.9-0.1,21.7,9.5,21.7,21.5C292.1,301.6,282.5,311.3,270.5,311.4 M295.8,267.1
	h-1.3c-11.8-0.6-20.8-10.7-20.2-22.4c0-0.2,0-0.3,0-0.5c0.7-11.9,10.9-21.1,22.9-20.5c5.7,0.3,11,3,14.8,7.3
	c3.7,4.3,5.7,9.9,5.4,15.7C316.8,258.1,307.3,267.1,295.8,267.1 M270.3,222.8c-4.2,0-8.3-1.3-11.8-3.5c-9.9-6.6-12.7-20-6.2-30
	c3.9-6.1,10.7-9.8,18-9.7c4.2,0,8.3,1.3,11.8,3.5c9.9,6.6,12.7,20,6.2,30C284.3,219.2,277.5,222.9,270.3,222.8 M197.9,142.6
	c2.7,5.4,0.5,11.9-4.9,14.5s-11.9,0.5-14.5-4.9s-0.5-11.9,4.9-14.5c0,0,0,0,0,0C188.8,135.1,195.3,137.3,197.9,142.6 M132.6,235
	c6,0.3,10.6,5.3,10.3,11.3s-5.3,10.6-11.3,10.3c-6-0.3-10.6-5.3-10.3-11.3c0,0,0,0,0,0C121.6,239.3,126.7,234.7,132.6,235
	 M179.7,337.8c3.1-4.9,9.6-6.3,14.5-3.2c0.1,0.1,0.2,0.1,0.3,0.2c5,3.1,6.5,9.7,3.3,14.7c0,0-0.1,0.1-0.1,0.1
	c-3.2,4.9-9.8,6.4-14.8,3.2C177.8,349.7,176.4,342.9,179.7,337.8 M292.1,348.4c-2.7-5.4-0.5-11.9,4.9-14.5
	c5.4-2.7,11.9-0.5,14.5,4.9c2.7,5.4,0.5,11.9-4.9,14.5c0,0,0,0,0,0C301.2,355.9,294.7,353.7,292.1,348.4 M357.4,256
	c-6-0.3-10.6-5.3-10.3-11.3c0.3-6,5.3-10.6,11.3-10.3s10.6,5.3,10.3,11.3c0,0,0,0,0,0C368.4,251.7,363.3,256.3,357.4,256
	 M310.3,153.2c-3.2,5-9.8,6.4-14.8,3.2s-6.4-9.8-3.2-14.8c3.2-5,9.8-6.4,14.8-3.2c5,3.1,6.5,9.6,3.4,14.5
	C310.5,153,310.4,153.1,310.3,153.2 M174.3,109.4c1.8,3.4,0.5,7.6-3,9.4c-3.4,1.8-7.6,0.5-9.4-3c-1.8-3.4-0.5-7.6,3-9.4c0,0,0,0,0,0
	c3.2-1.8,7.4-0.7,9.2,2.6C174.1,109.2,174.2,109.3,174.3,109.4 M92.3,238.7c3.8,0.2,6.7,3.5,6.5,7.3c-0.2,3.8-3.5,6.7-7.3,6.5
	c-3.8-0.2-6.7-3.5-6.5-7.3c0,0,0,0,0,0C85.3,241.5,88.5,238.6,92.3,238.7 M163,374.8c2.2-3.2,6.5-4,9.7-1.9c3.2,2.2,4,6.5,1.9,9.7
	c-2.2,3.2-6.5,4-9.7,1.9c-3.2-2.1-4.1-6.4-2-9.6C162.9,374.9,163,374.9,163,374.8 M315.7,381.6c-1.8-3.4-0.5-7.6,3-9.4
	c3.4-1.8,7.6-0.5,9.4,3c1.8,3.4,0.5,7.6-3,9.4c0,0,0,0,0,0c-3.2,1.8-7.4,0.7-9.2-2.6C315.9,381.8,315.8,381.7,315.7,381.6
	 M397.7,252.2c-3.8-0.2-6.7-3.5-6.5-7.3c0.2-3.8,3.5-6.7,7.3-6.5c3.8,0.2,6.7,3.5,6.5,7.3c0,0,0,0,0,0
	C404.6,249.5,401.4,252.2,397.7,252.2 M327,116.2c-2.2,3.2-6.5,4-9.7,1.9c-3.2-2.2-4-6.5-1.9-9.7c2.2-3.2,6.5-4,9.7-1.9
	c3.2,2.1,4.1,6.4,2,9.6C327.1,116.1,327,116.1,327,116.2 M176.4,191.5c5.9,3.8,7.6,11.6,3.8,17.5c-3.8,5.9-11.6,7.6-17.5,3.8
	c-5.9-3.8-7.6-11.6-3.8-17.5c0,0,0,0,0-0.1c3.4-5.8,10.9-7.7,16.7-4.3C175.9,191.1,176.2,191.3,176.4,191.5 M164.1,277.9
	c6.3-3.1,13.9-0.6,17,5.7s0.6,13.9-5.7,17c-6.3,3.1-13.9,0.6-17-5.6C155.3,288.7,157.8,281,164.1,277.9 M231.6,332.2
	c0.5-7,6.5-12.2,13.5-11.8c7,0.5,12.2,6.5,11.8,13.5c-0.5,7-6.5,12.2-13.4,11.8C236.5,345,231.3,339.1,231.6,332.2 M313.6,299.8
	c-5.9-3.8-7.6-11.6-3.8-17.5c3.8-5.9,11.6-7.6,17.5-3.8c5.9,3.8,7.6,11.6,3.8,17.5c0,0,0,0,0,0.1
	C327.2,301.8,319.4,303.5,313.6,299.8 M325.9,213.1c-6.3,3.1-13.9,0.6-17-5.7c-3.1-6.3-0.6-13.9,5.7-17c6.3-3.1,13.9-0.6,17,5.6
	C334.7,202.3,332.2,210,325.9,213.1 M257.4,158.8c-0.5,7-6.5,12.2-13.5,11.8c-7-0.5-12.2-6.5-11.8-13.5c0.5-7,6.5-12.2,13.4-11.8
	C252.5,145.8,257.8,151.8,257.4,158.8C257.4,158.8,257.4,158.8,257.4,158.8 M129.4,168.6c4.1,2.8,5.1,8.3,2.4,12.4
	c-2.6,4.1-8,5.2-12,2.7c-0.1-0.1-0.2-0.2-0.3-0.2c-4.1-2.8-5.2-8.3-2.4-12.4C119.8,166.9,125.3,165.8,129.4,168.6 M120.8,307.6
	c4.4-2.2,9.7-0.4,11.9,4c2.2,4.4,0.4,9.7-4,11.9c-4.4,2.2-9.7,0.4-11.9-4C114.6,315.1,116.4,309.8,120.8,307.6 M235.6,384.5
	c0.3-4.9,4.5-8.6,9.4-8.3c4.9,0.3,8.6,4.5,8.3,9.4c-0.3,4.9-4.5,8.6-9.4,8.3C239,393.6,235.3,389.4,235.6,384.5 M360.6,322.4
	c-4.2-2.7-5.5-8.2-2.9-12.5s8.2-5.5,12.5-2.9s5.5,8.2,2.9,12.5c0,0.1-0.1,0.1-0.1,0.2c-2.6,4.1-8,5.4-12.1,2.8
	C360.8,322.5,360.7,322.5,360.6,322.4 M369.2,183.4c-4.4,2.2-9.7,0.4-11.9-4c-2.2-4.4-0.4-9.7,4-11.9c4.4-2.2,9.7-0.4,11.9,4
	C375.4,175.9,373.6,181.2,369.2,183.4 M253.6,106.5c-0.3,4.9-4.5,8.6-9.4,8.3c-4.9-0.3-8.6-4.5-8.3-9.4c0.3-4.9,4.5-8.6,9.4-8.3
	C250.2,97.4,253.9,101.6,253.6,106.5"/>
</svg>
