<?xml version="1.0" encoding="UTF-8" standalone="no"?>
<svg
   viewBox="0 0 490 490"
   version="1.1"
   id="svg8"
   sodipodi:docname="ADA_BEP20.svg"
   inkscape:version="1.1 (c68e22c387, 2021-05-23)"
   xmlns:inkscape="http://www.inkscape.org/namespaces/inkscape"
   xmlns:sodipodi="http://sodipodi.sourceforge.net/DTD/sodipodi-0.dtd"
   xmlns="http://www.w3.org/2000/svg"
   xmlns:svg="http://www.w3.org/2000/svg">
  <defs
     id="defs12" />
  <sodipodi:namedview
     id="namedview10"
     pagecolor="#ffffff"
     bordercolor="#666666"
     borderopacity="1.0"
     inkscape:pageshadow="2"
     inkscape:pageopacity="0.0"
     inkscape:pagecheckerboard="0"
     showgrid="false"
     inkscape:zoom="1.7816327"
     inkscape:cx="245"
     inkscape:cy="245"
     inkscape:window-width="2560"
     inkscape:window-height="1361"
     inkscape:window-x="-9"
     inkscape:window-y="-9"
     inkscape:window-maximized="1"
     inkscape:current-layer="svg8" />
  <path
     d="M245 0C109.9 0 0 109.9 0 245s109.9 245 245 245 245-109.9 245-245S380.1 0 245 0z"
     fill="#3cc8c8"
     id="path2" />
  <path
     d="M219.5 223.1c-12 0-21.7-9.7-21.7-21.6 0-8.2 4.6-15.8 12-19.4 3-1.6 6.3-2.4 9.7-2.4 12 0 21.7 9.7 21.7 21.7 0 8.1-4.5 15.6-11.8 19.3a21.58 21.58 0 0 1-9.9 2.4m-25.3 44.3h-1.3c-11.9-.8-20.9-11.1-20.2-22.9.7-11.9 11-20.9 22.9-20.2s20.9 11 20.2 22.9h0c-.8 11.3-10.2 20.2-21.6 20.2m25.5 44c-4.2 0-8.3-1.3-11.8-3.5-4.8-3.2-8.1-8.1-9.1-13.8-1.1-5.6 0-11.4 3-16.2 3.9-6.1 10.7-9.8 18-9.7 10.3 0 19.1 7.2 21.2 17.3 2.5 11.5-4.8 22.9-16.3 25.4-1.7.3-3.3.5-5 .5m50.8 0c-12 0-21.7-9.8-21.7-21.8 0-2.2.3-4.4 1-6.6 1.8-5.4 5.7-9.9 10.8-12.4 3-1.6 6.3-2.4 9.7-2.4 11.9-.1 21.7 9.5 21.7 21.5.1 11.9-9.5 21.6-21.5 21.7m25.3-44.3h-1.3c-11.8-.6-20.8-10.7-20.2-22.4v-.5c.7-11.9 10.9-21.1 22.9-20.5 5.7.3 11 3 14.8 7.3 3.7 4.3 5.7 9.9 5.4 15.7-.6 11.4-10.1 20.4-21.6 20.4m-25.5-44.3c-4.2 0-8.3-1.3-11.8-3.5-9.9-6.6-12.7-20-6.2-30 3.9-6.1 10.7-9.8 18-9.7 4.2 0 8.3 1.3 11.8 3.5 9.9 6.6 12.7 20 6.2 30-4 6.1-10.8 9.8-18 9.7m-72.4-80.2c2.7 5.4.5 11.9-4.9 14.5s-11.9.5-14.5-4.9-.5-11.9 4.9-14.5 11.9-.4 14.5 4.9M132.6 235c6 .3 10.6 5.3 10.3 11.3s-5.3 10.6-11.3 10.3-10.6-5.3-10.3-11.3 5.4-10.6 11.3-10.3m47.1 102.8c3.1-4.9 9.6-6.3 14.5-3.2.1.1.2.1.3.2 5 3.1 6.5 9.7 3.3 14.7l-.1.1c-3.2 4.9-9.8 6.4-14.8 3.2-5.1-3.1-6.5-9.9-3.2-15m112.4 10.6c-2.7-5.4-.5-11.9 4.9-14.5 5.4-2.7 11.9-.5 14.5 4.9 2.7 5.4.5 11.9-4.9 14.5s-11.9.4-14.5-4.9m65.3-92.4c-6-.3-10.6-5.3-10.3-11.3s5.3-10.6 11.3-10.3 10.6 5.3 10.3 11.3-5.4 10.6-11.3 10.3m-47.1-102.8c-3.2 5-9.8 6.4-14.8 3.2s-6.4-9.8-3.2-14.8 9.8-6.4 14.8-3.2c5 3.1 6.5 9.6 3.4 14.5 0 .1-.1.2-.2.3m-136-43.8c1.8 3.4.5 7.6-3 9.4-3.4 1.8-7.6.5-9.4-3-1.8-3.4-.5-7.6 3-9.4 3.2-1.8 7.4-.7 9.2 2.6 0 .2.1.3.2.4m-82 129.3c3.8.2 6.7 3.5 6.5 7.3s-3.5 6.7-7.3 6.5-6.7-3.5-6.5-7.3c.3-3.7 3.5-6.6 7.3-6.5M163 374.8a7.05 7.05 0 0 1 9.7-1.9 7.05 7.05 0 0 1 1.9 9.7 7.05 7.05 0 0 1-9.7 1.9 6.94 6.94 0 0 1-2-9.6s.1 0 .1-.1m152.7 6.8c-1.8-3.4-.5-7.6 3-9.4 3.4-1.8 7.6-.5 9.4 3 1.8 3.4.5 7.6-3 9.4-3.2 1.8-7.4.7-9.2-2.6 0-.2-.1-.3-.2-.4m82-129.4c-3.8-.2-6.7-3.5-6.5-7.3s3.5-6.7 7.3-6.5 6.7 3.5 6.5 7.3c-.4 3.8-3.6 6.5-7.3 6.5m-70.7-136a7.05 7.05 0 0 1-9.7 1.9 7.05 7.05 0 0 1-1.9-9.7 7.05 7.05 0 0 1 9.7-1.9 6.94 6.94 0 0 1 2 9.6s-.1 0-.1.1m-150.6 75.3c5.9 3.8 7.6 11.6 3.8 17.5s-11.6 7.6-17.5 3.8-7.6-11.6-3.8-17.5v-.1c3.4-5.8 10.9-7.7 16.7-4.3.3.2.6.4.8.6m-12.3 86.4c6.3-3.1 13.9-.6 17 5.7s.6 13.9-5.7 17-13.9.6-17-5.6c-3.1-6.3-.6-14 5.7-17.1m67.5 54.3c.5-7 6.5-12.2 13.5-11.8 7 .5 12.2 6.5 11.8 13.5-.5 7-6.5 12.2-13.4 11.8-7-.7-12.2-6.6-11.9-13.5m82-32.4c-5.9-3.8-7.6-11.6-3.8-17.5s11.6-7.6 17.5-3.8 7.6 11.6 3.8 17.5v.1c-3.9 5.7-11.7 7.4-17.5 3.7m12.3-86.7c-6.3 3.1-13.9.6-17-5.7s-.6-13.9 5.7-17 13.9-.6 17 5.6c3.1 6.3.6 14-5.7 17.1m-68.5-54.3c-.5 7-6.5 12.2-13.5 11.8-7-.5-12.2-6.5-11.8-13.5.5-7 6.5-12.2 13.4-11.8 7 .5 12.3 6.5 11.9 13.5m-128 9.8c4.1 2.8 5.1 8.3 2.4 12.4-2.6 4.1-8 5.2-12 2.7-.1-.1-.2-.2-.3-.2-4.1-2.8-5.2-8.3-2.4-12.4a8.69 8.69 0 0 1 12.3-2.5m-8.6 139c4.4-2.2 9.7-.4 11.9 4s.4 9.7-4 11.9-9.7.4-11.9-4-.4-9.7 4-11.9m114.8 76.9c.3-4.9 4.5-8.6 9.4-8.3s8.6 4.5 8.3 9.4-4.5 8.6-9.4 8.3-8.6-4.5-8.3-9.4m125-62.1c-4.2-2.7-5.5-8.2-2.9-12.5s8.2-5.5 12.5-2.9 5.5 8.2 2.9 12.5c0 .1-.1.1-.1.2-2.6 4.1-8 5.4-12.1 2.8-.1 0-.2 0-.3-.1m8.6-139c-4.4 2.2-9.7.4-11.9-4s-.4-9.7 4-11.9 9.7-.4 11.9 4 .4 9.7-4 11.9m-115.6-76.9c-.3 4.9-4.5 8.6-9.4 8.3s-8.6-4.5-8.3-9.4 4.5-8.6 9.4-8.3 8.6 4.5 8.3 9.4"
     fill="#fff"
     id="path4" />
  <path
     d="M245.681 21.982C122.367 21.982 22.043 122.027 22.043 245s100.324 223.018 223.638 223.018S469.32 367.973 469.32 245 368.996 21.982 245.681 21.982m0-21.982c135.368 0 245.681 109.998 245.681 245S381.059 490 245.681 490 0 379.998 0 245 110.314 0 245.681 0z"
     fill="#474747"
     id="path6"
     style="fill:#e8a607;fill-opacity:1" />
</svg>
