<!-- Made by Zel Technologies GmbH, https://zeltechnologies.com -->
<svg id="AdEx" xmlns="http://www.w3.org/2000/svg" width="256" height="256" viewBox="0 0 512 512">
<defs>
    <style>
      .cls-1 {
        fill: #1b75bc;
      }

      .cls-1, .cls-2 {
        fill-rule: evenodd;
      }

      .cls-2 {
        fill: #fff;
      }
    </style>
  </defs>
  <path id="Main" class="cls-1" d="M11,256c0,135.094,109.906,245,245,245S501,391.094,501,256,391.094,11,256,11,11,120.906,11,256Z"/>
  <path id="X" class="cls-2" d="M134,181l45-43,77,74,77-74,45,43-77,75,78,74-46,43-77-74-77,75-45-44,77-74Z"/>
  <path id="Top" class="cls-2" d="M184,133l38,37,34-33,34,33,38-37L256,63Z"/>
  <path id="Bottom" class="cls-2" d="M184,379l38-37,34,33,34-33,38,37-72,70Z"/>
</svg>
