<!-- Made by Zel Technologies GmbH, https://zeltechnologies.com -->
<svg id="adToken" xmlns="http://www.w3.org/2000/svg" width="256" height="256" viewBox="0 0 512 512">
  <defs>
    <style>
      .cls-1 {
        fill: #2350a4;
      }

      .cls-1, .cls-2 {
        fill-rule: evenodd;
      }

      .cls-2 {
        fill: #fff;
      }
    </style>
  </defs>
  <path id="Full" class="cls-1" d="M11,256c0,135.094,109.906,245,245,245S501,391.094,501,256,391.094,11,256,11,11,120.906,11,256Z"/>
  <path id="adToken-2" data-name="adToken" class="cls-2" d="M106,121.537l15.2-15.2,15.2,15.2-15.2,15.2Zm0,46,15.2-15.2,15.2,15.2-15.2,15.2Zm23-23,15.2-15.2,15.2,15.2-15.2,15.2Zm23-23,15.2-15.2,15.2,15.2-15.2,15.2Zm-24,68,15.2-15.2,15.2,15.2-15.2,15.2Zm23-23,15.2-15.2,15.2,15.2-15.2,15.2Zm23-23,15.2-15.2,15.2,15.2-15.2,15.2Zm-24,69,15.2-15.2,15.2,15.2-15.2,15.2Zm46-46,15.2-15.2,15.2,15.2-15.2,15.2Zm-23,69,15.2-15.2,15.2,15.2-15.2,15.2Zm23,21,15.2-15.2,15.2,15.2-15.2,15.2Zm-45,0,15.2-15.2,15.2,15.2-15.2,15.2Zm68-67,15.2-15.2,15.2,15.2-15.2,15.2Zm22,22,15.2-15.2,15.2,15.2-15.2,15.2Zm0-43,15.2-15.2,15.2,15.2-15.2,15.2ZM391.844,106l15.164,15.165-15.164,15.164-15.165-15.164Zm-45.887,0,15.164,15.165-15.164,15.164-15.165-15.164ZM368.9,128.944l15.165,15.164L368.9,159.273l-15.165-15.165Zm22.944,22.943,15.164,15.165-15.164,15.164-15.165-15.164Zm-67.833-23.941,15.164,15.165-15.164,15.164-15.165-15.164Zm22.943,22.943,15.165,15.165-15.165,15.165-15.165-15.165ZM369.9,173.833L385.062,189,369.9,204.162,354.733,189Zm-68.831-23.941,15.165,15.165-15.165,15.164L285.9,165.057Zm45.887,45.887,15.165,15.165-15.165,15.164-15.165-15.164Zm-68.83-22.944L293.288,188l-15.164,15.165L262.959,188Zm45.887,45.887,15.164,15.165-15.164,15.165-15.165-15.165Zm-21.946,21.946,15.164,15.165L302.065,271,286.9,255.833Zm42.894,0,15.165,15.165L344.959,271l-15.165-15.165ZM407,391.439l-15.2,15.225-15.2-15.225,15.2-15.225Zm0-46.069L391.8,360.6,376.6,345.37l15.2-15.225ZM384,368.4l-15.2,15.225L353.6,368.4l15.2-15.225Zm-23,23.035-15.2,15.225-15.2-15.225,15.2-15.225Zm24-68.1-15.2,15.225-15.2-15.225,15.2-15.225Zm-23,23.034L346.8,361.6l-15.2-15.225,15.2-15.225Zm-23,23.035-15.2,15.225-15.2-15.225,15.2-15.225Zm24-69.1-15.2,15.225L332.6,300.3l15.2-15.225Zm-46,46.069L301.8,361.6l-15.2-15.225,15.2-15.225Zm23-69.1-15.2,15.225-15.2-15.225,15.2-15.225Zm-46,46.07-15.2,15.225-15.2-15.225,15.2-15.225ZM272,301.3l-15.2,15.225L241.6,301.3l15.2-15.225Zm0,43.065-15.2,15.225-15.2-15.225,15.2-15.225ZM121.156,407l-15.164-15.188,15.164-15.187,15.165,15.187Zm45.887,0-15.164-15.188,15.164-15.187,15.165,15.187ZM144.1,384.022l-15.165-15.188L144.1,353.647l15.165,15.187Zm-22.944-22.978-15.164-15.188,15.164-15.187,15.165,15.187Zm67.833,23.977-15.164-15.188,15.164-15.187,15.165,15.187Zm-22.943-22.978-15.165-15.188,15.165-15.187,15.165,15.187ZM143.1,339.065l-15.164-15.188L143.1,308.689l15.165,15.188Zm68.831,23.977-15.165-15.188,15.165-15.187L227.1,347.854Zm-45.887-45.956L150.881,301.9l15.165-15.188L181.211,301.9Zm68.83,22.978-15.164-15.188,15.164-15.187,15.165,15.187Zm-45.887-45.956L173.825,278.92l15.164-15.188,15.165,15.188Z"/>
</svg>
