<?xml version="1.0" encoding="utf-8"?>
<!-- Generator: Adobe Illustrator 22.0.0, SVG Export Plug-In . SVG Version: 6.00 Build 0)  -->
<svg version="1.1" id="adToken" xmlns="http://www.w3.org/2000/svg" xmlns:xlink="http://www.w3.org/1999/xlink" x="0px" y="0px"
	 viewBox="0 0 245 245" style="enable-background:new 0 0 245 245;" xml:space="preserve">
<style type="text/css">
	.st0{fill:#2350A4;}
	.st1{fill:#FFFFFF;}
</style>
<path id="Full" class="st0" d="M0,122.5C0,190,55,245,122.5,245S245,190,245,122.5S190,0,122.5,0S0,55,0,122.5z"/>
<path id="adToken-2" class="st1" d="M47.5,55.3l7.6-7.6l7.6,7.6l-7.6,7.6L47.5,55.3z M47.5,78.3l7.6-7.6l7.6,7.6l-7.6,7.6L47.5,78.3
	z M59,66.8l7.6-7.6l7.6,7.6l-7.6,7.6L59,66.8z M70.5,55.3l7.6-7.6l7.6,7.6l-7.6,7.6L70.5,55.3z M58.5,89.3l7.6-7.6l7.6,7.6l-7.6,7.6
	L58.5,89.3z M70,77.8l7.6-7.6l7.6,7.6l-7.6,7.6L70,77.8z M81.5,66.3l7.6-7.6l7.6,7.6l-7.6,7.6L81.5,66.3z M69.5,100.8l7.6-7.6
	l7.6,7.6l-7.6,7.6L69.5,100.8z M92.5,77.8l7.6-7.6l7.6,7.6l-7.6,7.6L92.5,77.8z M81,112.3l7.6-7.6l7.6,7.6l-7.6,7.6L81,112.3z
	 M92.5,122.8l7.6-7.6l7.6,7.6l-7.6,7.6L92.5,122.8z M70,122.8l7.6-7.6l7.6,7.6l-7.6,7.6L70,122.8z M104,89.3l7.6-7.6l7.6,7.6
	l-7.6,7.6L104,89.3z M115,100.3l7.6-7.6l7.6,7.6l-7.6,7.6L115,100.3z M115,78.8l7.6-7.6l7.6,7.6l-7.6,7.6L115,78.8z M190.4,47.5
	l7.6,7.6l-7.6,7.6l-7.6-7.6L190.4,47.5z M167.5,47.5l7.6,7.6l-7.6,7.6l-7.6-7.6L167.5,47.5z M178.9,59l7.6,7.6l-7.6,7.6l-7.6-7.6
	L178.9,59z M190.4,70.4L198,78l-7.6,7.6l-7.6-7.6L190.4,70.4z M156.5,58.5l7.6,7.6l-7.6,7.6l-7.6-7.6L156.5,58.5z M168,69.9l7.6,7.6
	l-7.6,7.6l-7.6-7.6L168,69.9z M179.4,81.4L187,89l-7.6,7.6l-7.6-7.6L179.4,81.4z M145,69.4l7.6,7.6l-7.6,7.6l-7.6-7.6L145,69.4z
	 M168,92.4l7.6,7.6l-7.6,7.6l-7.6-7.6L168,92.4z M133.6,80.9l7.6,7.6l-7.6,7.6l-7.6-7.6L133.6,80.9z M156.5,103.9l7.6,7.6l-7.6,7.6
	l-7.6-7.6L156.5,103.9z M145.5,114.8l7.6,7.6l-7.6,7.6l-7.6-7.6L145.5,114.8z M167,114.8l7.6,7.6L167,130l-7.6-7.6L167,114.8z
	 M198,190.2l-7.6,7.6l-7.6-7.6l7.6-7.6L198,190.2z M198,167.2l-7.6,7.6l-7.6-7.6l7.6-7.6L198,167.2z M186.5,178.7l-7.6,7.6l-7.6-7.6
	l7.6-7.6L186.5,178.7z M175,190.2l-7.6,7.6l-7.6-7.6l7.6-7.6L175,190.2z M187,156.2l-7.6,7.6l-7.6-7.6l7.6-7.6L187,156.2z
	 M175.5,167.7l-7.6,7.6l-7.6-7.6l7.6-7.6L175.5,167.7z M164,179.2l-7.6,7.6l-7.6-7.6l7.6-7.6L164,179.2z M176,144.7l-7.6,7.6
	l-7.6-7.6l7.6-7.6L176,144.7z M153,167.7l-7.6,7.6l-7.6-7.6l7.6-7.6L153,167.7z M164.5,133.1l-7.6,7.6l-7.6-7.6l7.6-7.6L164.5,133.1
	z M141.5,156.2l-7.6,7.6l-7.6-7.6l7.6-7.6L141.5,156.2z M130.5,145.1l-7.6,7.6l-7.6-7.6l7.6-7.6L130.5,145.1z M130.5,166.7l-7.6,7.6
	l-7.6-7.6l7.6-7.6L130.5,166.7z M55.1,198l-7.6-7.6l7.6-7.6l7.6,7.6L55.1,198z M78,198l-7.6-7.6l7.6-7.6l7.6,7.6L78,198z
	 M66.6,186.5l-7.6-7.6l7.6-7.6l7.6,7.6L66.6,186.5z M55.1,175l-7.6-7.6l7.6-7.6l7.6,7.6L55.1,175z M89,187l-7.6-7.6l7.6-7.6l7.6,7.6
	L89,187z M77.5,175.5l-7.6-7.6l7.6-7.6l7.6,7.6L77.5,175.5z M66.1,164l-7.6-7.6l7.6-7.6l7.6,7.6L66.1,164z M100.5,176l-7.6-7.6
	l7.6-7.6l7.6,7.6L100.5,176z M77.5,153l-7.6-7.6l7.6-7.6l7.6,7.6L77.5,153z M111.9,164.5l-7.6-7.6l7.6-7.6l7.6,7.6L111.9,164.5z
	 M89,141.6l-7.6-7.6l7.6-7.6l7.6,7.6L89,141.6z"/>
</svg>
