<?xml version="1.0" encoding="utf-8"?>
<!-- Generator: Adobe Illustrator 22.0.0, SVG Export Plug-In . SVG Version: 6.00 Build 0)  -->
<svg version="1.1" id="AdEx" xmlns="http://www.w3.org/2000/svg" xmlns:xlink="http://www.w3.org/1999/xlink" x="0px" y="0px"
	 viewBox="0 0 245 245" style="enable-background:new 0 0 245 245;" xml:space="preserve">
<style type="text/css">
	.st0{fill:#1B75BC;}
	.st1{fill:#FFFFFF;}
</style>
<path id="Main" class="st0" d="M0,122.5C0,190,55,245,122.5,245S245,190,245,122.5S190,0,122.5,0S0,55,0,122.5z"/>
<path id="X" class="st1" d="M61.5,85L84,63.5l38.5,37l38.5-37L183.5,85L145,122.5l39,37L161,181l-38.5-37L84,181.5l-22.5-22l38.5-37
	L61.5,85z"/>
<path id="Top" class="st1" d="M86.5,61l19,18.5l17-16.5l17,16.5l19-18.5l-36-35L86.5,61z"/>
<path id="Bottom" class="st1" d="M86.5,184l19-18.5l17,16.5l17-16.5l19,18.5l-36,35L86.5,184z"/>
</svg>
