<svg id="Aeternity" xmlns="http://www.w3.org/2000/svg" width="256" height="256" viewBox="0 0 512 512">
<defs>
    <style>
      .cls-1 {
        fill: #de3f6b;
      }

      .cls-1, .cls-2 {
        fill-rule: evenodd;
      }

      .cls-2 {
        fill: #fff;
      }
    </style>
  </defs>
  <path id="Main" class="cls-1" d="M11,256c0,135.094,109.906,245,245,245S501,391.094,501,256,391.094,11,256,11,11,120.906,11,256Z"/>
  <path id="Aeternity-2" data-name="Aeternity" class="cls-2" d="M235,270l14,19s-29.618,46-84,46c-27.8,0-75-24.464-75-79s48.719-79,75-79c57.178,0,77.238,40.116,91,58,28.238,38.569,53.8,80,89,80,40.587,0,56-34,56-34h21s-15.044,54-77,54c-53.868-.721-81.474-49.8-89-61-4.1-6.1-13.6-20.56-26-37-14.9-19.749-34.12-41.433-65-40,0-.879-55.206,6.826-55,59,0,48.007,45.448,59,55,59C211.461,315,235,270,235,270Zm30-50,12,19s26.818-42,68-42c49.343,0,57,51,57,51H328v17h95s-1-17.613-1-21-14.48-67-77-67C296.74,177,265,220,265,220Z"/>
</svg>
