<?xml version="1.0" encoding="utf-8"?>
<!-- Generator: Adobe Illustrator 22.0.0, SVG Export Plug-In . SVG Version: 6.00 Build 0)  -->
<svg version="1.1" id="Aeternity" xmlns="http://www.w3.org/2000/svg" xmlns:xlink="http://www.w3.org/1999/xlink" x="0px" y="0px"
	 viewBox="0 0 245 245" style="enable-background:new 0 0 245 245;" xml:space="preserve">
<style type="text/css">
	.st0{fill:#DE3F6B;}
	.st1{fill:#FFFFFF;}
</style>
<path id="Main" class="st0" d="M0,122.5C0,190,55,245,122.5,245S245,190,245,122.5S190,0,122.5,0S0,55,0,122.5z"/>
<path id="Aeternity-2" class="st1" d="M112,129.5l7,9.5c0,0-14.8,23-42,23c-13.9,0-37.5-12.2-37.5-39.5S63.9,83,77,83
	c28.6,0,38.6,20.1,45.5,29c14.1,19.3,26.9,40,44.5,40c20.3,0,28-17,28-17h10.5c0,0-7.5,27-38.5,27c-26.9-0.4-40.7-24.9-44.5-30.5
	c-2.1-3.1-6.8-10.3-13-18.5c-7.4-9.9-17.1-20.7-32.5-20c0-0.4-27.6,3.4-27.5,29.5c0,24,22.7,29.5,27.5,29.5
	C100.2,152,112,129.5,112,129.5z M127,104.5l6,9.5c0,0,13.4-21,34-21c24.7,0,28.5,25.5,28.5,25.5h-37v8.5H206c0,0-0.5-8.8-0.5-10.5
	S198.3,83,167,83C142.9,83,127,104.5,127,104.5z"/>
</svg>
