<?xml version="1.0" encoding="utf-8"?>
<!-- Generator: Adobe Illustrator 22.0.0, SVG Export Plug-In . SVG Version: 6.00 Build 0)  -->
<svg version="1.1" id="AERGO" xmlns="http://www.w3.org/2000/svg" xmlns:xlink="http://www.w3.org/1999/xlink" x="0px" y="0px"
	 viewBox="0 0 490 490" style="enable-background:new 0 0 490 490;" xml:space="preserve">
<style type="text/css">
	.st0{fill:#FF33B2;}
	.st1{fill:#FFFFFF;}
	.st2{fill:#DBDBDB;}
</style>
<path id="Full" class="st0" d="M0,245c0,135.1,109.9,245,245,245s245-109.9,245-245S380.1,0,245,0S0,109.9,0,245z"/>
<path id="AERGO-2" class="st1" d="M340.2,245.9l-27.7-27.6c-3.5,3.1-7.2,5.9-11.1,8.4c-15,8.1-30.5,15-46.6,20.6l-38,14.5l-7.6,2.8
	c-20.8,7.7-55.6,20.6-74,44.9c-11.1,15.4-17.4,33.7-18.3,52.6v1h40.7l0.1-0.9c0.7-10.9,4.3-21.4,10.5-30.3
	c11.4-15,40.3-25.7,55.9-31.5l12.8-4.8l38-14.6c15.9-6.2,31.4-13.5,46.4-21.7C328.1,255.5,334.5,251,340.2,245.9L340.2,245.9z
	 M286.9,301.9c-3.1-5.6-7.3-12.8-12.1-20.8l-20-33.8c-2.7-4.8-24.3-32.4-28.4-61c-1.8-15.1,2.3-30.3,11.4-42.4l-29.1-29
	c-18.9,20.3-27.6,48.1-23.5,75.5c3.8,37.1,29.8,68.4,31.6,71.4l20.1,33.8c5.6,9.5,10.5,17.8,14.1,24.2c7.7,12.8,12,27.3,12.5,42.3v1
	h40.7v-1C303.7,340.9,297.8,320.1,286.9,301.9L286.9,301.9z"/>
<path class="st2" d="M278.3,126.1c14.5,0.2,28.5,5.9,38.9,16c12.5,12.6,17.5,30.8,13.2,48c-2.7,11.1-9,21.1-17.8,28.3l27.7,27.6
	c15.9-13.5,26.8-31.9,31.1-52.3c4.6-23.6-1.1-48.1-15.6-67.4C343,110,325.6,97.8,305.9,91.5C288,87.1,269.3,87,251.3,91
	c-16,4.2-30.7,12.4-42.6,23.9l29.1,29C247.9,132.2,262.8,125.6,278.3,126.1z"/>
</svg>
