<!-- Made by Zel Technologies GmbH, https://zeltechnologies.com -->
<svg id="Aeron" xmlns="http://www.w3.org/2000/svg" width="256" height="256" viewBox="0 0 512 512">
  <defs>
    <style>
      .cls-1 {
        fill: #033152;
      }

      .cls-1, .cls-2, .cls-3 {
        fill-rule: evenodd;
      }

      .cls-2 {
        fill: none;
        stroke: #fff;
        stroke-width: 10px;
      }

      .cls-3 {
        fill: #fff;
      }
    </style>
  </defs>
  <path id="Full" class="cls-1" d="M11,256c0,135.094,109.906,245,245,245S501,391.094,501,256,391.094,11,256,11,11,120.906,11,256Z"/>
  <g id="Aeron-2" data-name="Aeron">
    <path id="Shield" class="cls-2" d="M111.217,131.4Q168.55,98.479,256,98.526q87.42,0,144.784,32.875a20.393,20.393,0,0,1,10.2,18.94L403.29,275.087A167.228,167.228,0,0,1,327.371,405.1L267.1,444.191a20.394,20.394,0,0,1-22.192,0L184.629,405.1A167.228,167.228,0,0,1,108.71,275.087l-7.693-124.746A20.394,20.394,0,0,1,111.217,131.4Z"/>
    <path id="Plane" class="cls-3" d="M336.438,226.17a16.617,16.617,0,1,1-16.617,16.617A16.617,16.617,0,0,1,336.438,226.17Zm-80.06,142.751a16.617,16.617,0,1,1-16.617,16.617A16.617,16.617,0,0,1,256.378,368.921ZM172.541,226.17a16.617,16.617,0,1,1-16.616,16.617A16.617,16.617,0,0,1,172.541,226.17Zm83.837,161.256v55.892M256,183.874a9.233,9.233,0,0,0-9,9.007v33.025l-48.02,30.023,5.148,11.274L247,252.927v33.025l-12,9.007v9.007l21.009-6,21.009,6v-9.007l-12-9.007V252.927l42.136,15.029,5.884-12.027L265,225.906V192.881A9.233,9.233,0,0,0,256,183.874Z"/>
    <path id="Down" class="cls-2" d="M112.874,131.468L249.91,379.358h0a7.552,7.552,0,0,0,13.239-.035L399.126,130.248"/>
    <path id="Up" class="cls-2" d="M123.448,335.426l129.96-232.321h0a4.531,4.531,0,0,1,7.939.053L387.8,336.444"/>
    <path id="Middle" class="cls-2" d="M139.309,360.7q16.77,3.955,118.119,28.614l117.529-30.967"/>
    <path id="Last" class="cls-2" d="M256.378,387.426v55.892"/>
  </g>
</svg>
