<?xml version="1.0" encoding="UTF-8"?><svg id="CIRCLE_OUTLINE_BLACK" xmlns="http://www.w3.org/2000/svg" viewBox="0 0 512 512"><circle cx="256" cy="256" r="256" fill="#ebe8e1" stroke-width="0"/><path d="M372.5388,120.33387c-1.93608-7.18563-9.34389-11.46357-16.52666-9.5725l-.01786.00357c-120.76254,21.84693-179.08342,67.48617-179.65781,67.94482l-1.40991,1.12378c-11.7647,7.95363-22.80854,17.28751-30.30673,29.63196-9.18457,15.26499-6.97398,32.35747,5.45852,45.12271,14.91243,16.45021,35.39839,26.00271,56.07582,32.03955,49.94361,13.58825,101.94045,17.63686,153.17859,19.48292l.16217-2.18898c-50.61445-6.0597-101.22353-13.31034-149.39252-29.45335-18.04837-6.51979-35.73149-15.72293-47.9168-30.4564-6.87271-7.66786-8.28083-16.41378-2.23613-25.16184,15.49057-22.91999,67.23112-41.0398,93.73392-52.04614,3.12058-1.19665,6.25349-2.37544,9.38389-3.55781,3.19077-1.04662,6.25795-2.14469,9.14706-3.29704,21.03821-8.39228,90.73836-22.84998,91.43992-22.99501l.78015-.16146-.09002-.30148c2.8884-1.11092,5.29099-3.15702,6.85557-5.87538,1.80605-3.1363,2.28043-6.7877,1.33882-10.28192Z" fill="#0a0a18" stroke-width="0"/><path d="M372.5388,145.25423c-1.93608-7.18563-9.34389-11.46357-16.52666-9.5725l-.01786.00357c-120.76254,21.84693-179.08342,67.48617-179.65781,67.94482l-1.40991,1.12378c-11.7647,7.95363-22.80854,17.28751-30.30673,29.63196-9.18457,15.26499-6.97398,32.35747,5.45852,45.12271,14.91243,16.45021,35.39839,26.00271,56.07582,32.03955,49.94361,13.58825,101.94045,17.63686,153.17859,19.48292l.16217-2.18898c-50.61445-6.0597-101.22353-13.31034-149.39252-29.45335-18.04837-6.51979-35.73149-15.72293-47.9168-30.4564-6.87271-7.66786-8.28083-16.41378-2.23613-25.16184,15.49057-22.91999,67.23112-41.0398,93.73392-52.04614,3.12058-1.19665,6.25349-2.37544,9.38389-3.55781,3.19077-1.04662,6.25795-2.14469,9.14706-3.29704,21.03821-8.39228,90.73836-22.84998,91.43992-22.99501l.78015-.16146-.09002-.30148c2.8884-1.11092,5.29099-3.15702,6.85557-5.87538,1.80605-3.1363,2.28043-6.7877,1.33882-10.28192Z" fill="#1037fe" stroke-width="0"/><path d="M372.5388,167.20113c-1.93608-7.18563-9.34389-11.46357-16.52666-9.5725l-.01786.00357c-120.76254,21.84693-179.08342,67.48617-179.65781,67.94482l-1.40991,1.12378c-11.7647,7.95363-22.80854,17.28751-30.30673,29.63196-9.18457,15.26499-6.97398,32.35747,5.45852,45.12271,14.91243,16.45021,35.39839,26.00271,56.07582,32.03955,49.94361,13.58825,101.94045,17.63686,153.17859,19.48292l.16217-2.18898c-50.61445-6.0597-101.22353-13.31034-149.39252-29.45335-18.04837-6.51979-35.73149-15.72293-47.9168-30.4564-6.87271-7.66786-8.28083-16.41378-2.23613-25.16184,15.49057-22.91999,67.23112-41.0398,93.73392-52.04614,3.12058-1.19665,6.25349-2.37544,9.38389-3.55781,3.19077-1.04662,6.25795-2.14469,9.14706-3.29704,21.03821-8.39228,90.73836-22.84998,91.43992-22.99501l.78015-.16146-.09002-.30148c2.8884-1.11092,5.29099-3.15702,6.85557-5.87538,1.80605-3.1363,2.28043-6.7877,1.33882-10.28192Z" fill="#9eaefe" stroke-width="0"/><path d="M372.5388,190.23359c-1.93608-7.18563-9.34389-11.46357-16.52666-9.5725l-.01786.00357c-120.76254,21.84693-179.08342,67.48617-179.65781,67.94482l-1.40991,1.12378c-11.7647,7.95363-22.80854,17.28751-30.30673,29.63196-9.18457,15.26499-6.97398,32.35747,5.45852,45.12271,14.91243,16.45021,35.39839,26.00271,56.07582,32.03955,49.94361,13.58825,101.94045,17.63686,153.17859,19.48292l.16217-2.18898c-50.61445-6.0597-101.22353-13.31034-149.39252-29.45335-18.04837-6.51979-35.73149-15.72293-47.9168-30.4564-6.87271-7.66786-8.28083-16.41378-2.23613-25.16184,15.49057-22.91999,67.23112-41.0398,93.73392-52.04614,3.12058-1.19665,6.25349-2.37544,9.38389-3.55781,3.19077-1.04662,6.25795-2.14469,9.14706-3.29704,21.03821-8.39228,90.73836-22.84998,91.43992-22.99501l.78015-.16146-.09002-.30148c2.8884-1.11092,5.29099-3.15702,6.85557-5.87538,1.80605-3.1363,2.28043-6.7877,1.33882-10.28192Z" fill="#f5f3e6" stroke-width="0"/><path d="M372.5388,215.90911c-1.93608-7.18563-9.34389-11.46357-16.52666-9.5725l-.01786.00357c-120.76254,21.84693-179.08342,67.48617-179.65781,67.94482l-1.40991,1.12378c-11.7647,7.95363-22.80854,17.28751-30.30673,29.63196-9.18457,15.26499-6.97398,32.35747,5.45852,45.12271,14.91243,16.45021,35.39839,26.00271,56.07582,32.03955,49.94361,13.58825,101.94045,17.63686,153.17859,19.48292l.16217-2.18898c-50.61445-6.0597-101.22353-13.31034-149.39252-29.45335-18.04837-6.51979-35.73149-15.72293-47.9168-30.4564-6.87271-7.66786-8.28083-16.41378-2.23613-25.16184,15.49057-22.91999,67.23112-41.0398,93.73392-52.04614,3.12058-1.19665,6.25349-2.37544,9.38389-3.55781,3.19077-1.04662,6.25795-2.14469,9.14706-3.29704,21.03821-8.39228,90.73836-22.84998,91.43992-22.99501l.78015-.16146-.09002-.30148c2.8884-1.11092,5.29099-3.15702,6.85557-5.87538,1.80605-3.1363,2.28043-6.7877,1.33882-10.28192Z" fill="#fb3828" stroke-width="0"/></svg>