<svg id="AGI" xmlns="http://www.w3.org/2000/svg" width="512" height="512" viewBox="0 0 512 512">
<defs>
    <style>
      .cls-1 {
        fill: #5a2ff1;
      }

      .cls-1, .cls-2 {
        fill-rule: evenodd;
      }

      .cls-2 {
        fill: #fff;
      }
    </style>
  </defs>
  <path id="Full" class="cls-1" d="M11,256c0,135.094,109.906,245,245,245S501,391.094,501,256,391.094,11,256,11,11,120.906,11,256Z"/>
  <path id="S" class="cls-2" d="M240.174,88.834c-12.782,12.2-24.047,25.588-30.354,40.336a74.9,74.9,0,0,0-4.857,45.6A68.97,68.97,0,0,0,225.469,213.1c10.692,10.67,25.127,19.471,40.473,28.884s31.872,19.845,45.667,35.578a95.123,95.123,0,0,1,23.17,57.224,97.556,97.556,0,0,1-14.266,57.768,121.425,121.425,0,0,1-41.384,38.7,4.567,4.567,0,0,1-6.307-1.6,4.68,4.68,0,0,1,.978-5.878A119.331,119.331,0,0,0,305.234,384.2a78.462,78.462,0,0,0,5.734-46.826,67.442,67.442,0,0,0-20.877-39.418c-10.928-10.6-25.329-19.064-40.844-28.1s-32.176-18.927-46.712-34.151a97.2,97.2,0,0,1-17.741-26.641,96.982,96.982,0,0,1-7.487-30.855,95.259,95.259,0,0,1,14.739-59.025,115.611,115.611,0,0,1,43-37.651,4.51,4.51,0,0,1,5.16,7.306h-0.034Zm36.459-7.476a3.625,3.625,0,0,0-4.317.986,4.443,4.443,0,0,0,.169,5.845A192.356,192.356,0,0,1,296.094,116.6c25.936,44.515,3.373,84.952-2.26,95.147l-0.236.51a12.927,12.927,0,0,0,.607,13.048,11.783,11.783,0,0,0,16.56,2.991c20.237-17.874,22.227-55.084,22.361-62.763a97.31,97.31,0,0,0-2.968-22.9,92.889,92.889,0,0,0-8.532-20.83,100.419,100.419,0,0,0-12.817-16.991,109.577,109.577,0,0,0-32.176-23.447h0ZM235.486,431.635a3.558,3.558,0,0,0,4.317-.951,4.476,4.476,0,0,0-.168-5.879,190.305,190.305,0,0,1-23.609-28.374c-25.936-44.549-3.2-84.953,2.259-95.147l0.237-.476a12.929,12.929,0,0,0-.608-13.049,11.748,11.748,0,0,0-16.56-2.99c-20.438,17.7-22.327,54.879-22.462,62.559a96.924,96.924,0,0,0,2.968,22.9,93.2,93.2,0,0,0,8.7,20.933,103.122,103.122,0,0,0,12.816,17.228,109.429,109.429,0,0,0,32.176,23.243h-0.068Z"/>
</svg>
