<?xml version="1.0" encoding="utf-8"?>
<!-- Generator: Adobe Illustrator 22.0.0, SVG Export Plug-In . SVG Version: 6.00 Build 0)  -->
<svg version="1.1" id="AGI" xmlns="http://www.w3.org/2000/svg" xmlns:xlink="http://www.w3.org/1999/xlink" x="0px" y="0px"
	 viewBox="0 0 490 490" style="enable-background:new 0 0 490 490;" xml:space="preserve">
<style type="text/css">
	.st0{fill:#5A2FF1;}
	.st1{fill:#FFFFFF;}
</style>
<path id="Full" class="st0" d="M0,245c0,135.1,109.9,245,245,245s245-109.9,245-245S380.1,0,245,0S0,109.9,0,245z"/>
<path id="S" class="st1" d="M229.2,77.8c-12.8,12.2-24,25.6-30.4,40.3c-6.3,14.3-8,30.3-4.9,45.6c2.5,14.7,9.7,28.1,20.5,38.3
	c10.7,10.7,25.1,19.5,40.5,28.9s31.9,19.8,45.7,35.6c13.9,16,22,36.1,23.2,57.2c1.4,20.3-3.6,40.5-14.3,57.8
	c-10.5,16-24.7,29.2-41.4,38.7c-2.2,1.3-5,0.6-6.3-1.5c0,0,0,0,0-0.1c-1.1-1.9-0.7-4.4,1-5.9c13.2-10.8,23.9-24.3,31.4-39.6
	c6.7-14.7,8.7-31,5.7-46.8c-2.3-15.1-9.6-29-20.9-39.4c-10.9-10.6-25.3-19.1-40.8-28.1s-32.2-18.9-46.7-34.2
	c-7.3-7.8-13.3-16.8-17.7-26.6c-4.2-9.8-6.7-20.2-7.5-30.9c-1.7-20.8,3.5-41.5,14.7-59c11-16,25.7-28.9,43-37.7
	c2.2-1.2,4.9-0.3,6.1,1.9C231.1,74.2,230.7,76.5,229.2,77.8L229.2,77.8L229.2,77.8z M265.6,70.4c-1.5-0.7-3.3-0.3-4.3,1
	c-1.4,1.7-1.3,4.2,0.2,5.8c8.8,8.7,16.7,18.2,23.6,28.4c25.9,44.5,3.4,85-2.3,95.1l-0.2,0.5c-2.2,4.1-1.9,9.1,0.6,13
	c3.7,5.4,11,6.8,16.4,3.1c0.1,0,0.1-0.1,0.2-0.1c20.2-17.9,22.2-55.1,22.4-62.8c-0.1-7.7-1.1-15.4-3-22.9c-2-7.3-4.9-14.3-8.5-20.8
	c-3.7-6.1-8-11.8-12.8-17C288.6,84.1,277.7,76.2,265.6,70.4L265.6,70.4L265.6,70.4z M224.5,420.6c1.5,0.7,3.3,0.3,4.3-1
	c1.4-1.7,1.3-4.2-0.2-5.9c-8.8-8.7-16.7-18.2-23.6-28.4c-25.9-44.5-3.2-85,2.3-95.1l0.2-0.5c2.2-4.1,1.9-9.1-0.6-13
	c-3.6-5.4-10.9-6.8-16.3-3.2c-0.1,0.1-0.2,0.1-0.2,0.2c-20.4,17.7-22.3,54.9-22.5,62.6c0.1,7.7,1.1,15.4,3,22.9
	c2,7.3,5,14.3,8.7,20.9c3.7,6.2,8,11.9,12.8,17.2C201.6,407,212.5,414.9,224.5,420.6L224.5,420.6L224.5,420.6z"/>
</svg>
