<?xml version="1.0" encoding="UTF-8" standalone="no"?>
<svg
   xmlns:dc="http://purl.org/dc/elements/1.1/"
   xmlns:cc="http://creativecommons.org/ns#"
   xmlns:rdf="http://www.w3.org/1999/02/22-rdf-syntax-ns#"
   xmlns:svg="http://www.w3.org/2000/svg"
   xmlns="http://www.w3.org/2000/svg"
   xmlns:sodipodi="http://sodipodi.sourceforge.net/DTD/sodipodi-0.dtd"
   xmlns:inkscape="http://www.inkscape.org/namespaces/inkscape"
   width="235.99995"
   height="235.99995"
   version="1.1"
   id="svg10"
   sodipodi:docname="AGIX_ERC20.svg"
   inkscape:version="1.0.2-2 (e86c870879, 2021-01-15)">
  <metadata
     id="metadata16">
    <rdf:RDF>
      <cc:Work
         rdf:about="">
        <dc:format>image/svg+xml</dc:format>
        <dc:type
           rdf:resource="http://purl.org/dc/dcmitype/StillImage" />
      </cc:Work>
    </rdf:RDF>
  </metadata>
  <defs
     id="defs14" />
  <sodipodi:namedview
     pagecolor="#ffffff"
     bordercolor="#666666"
     borderopacity="1"
     objecttolerance="10"
     gridtolerance="10"
     guidetolerance="10"
     inkscape:pageopacity="0"
     inkscape:pageshadow="2"
     inkscape:window-width="1920"
     inkscape:window-height="1017"
     id="namedview12"
     showgrid="false"
     inkscape:zoom="3.3203125"
     inkscape:cx="118"
     inkscape:cy="118"
     inkscape:window-x="-8"
     inkscape:window-y="-8"
     inkscape:window-maximized="1"
     inkscape:current-layer="svg10" />
  <g
     transform="scale(1.388235)"
     id="g8">
    <rect
       width="170"
       height="170"
       ry="85"
       fill="#220d3a"
       id="rect4"
       x="0"
       y="0" />
    <path
       d="M 77.902,10.24 C 72.155,15.68 67.1,21.636 64.25,28.22 a 33.143,33.143 0 0 0 -2.168,20.33 30.658,30.658 0 0 0 9.214,17.098 c 4.794,4.762 11.281,8.679 18.145,12.879 6.819,4.247 14.319,8.852 20.518,15.864 a 42.169,42.169 0 0 1 10.41,25.511 43.157,43.157 0 0 1 -6.405,25.789 c -4.756,7.525 -11.513,13.049 -18.601,17.269 a 2.062,2.062 0 0 1 -2.385,-3.347 c 5.979,-5.1 11.135,-11.034 14.175,-17.675 a 34.736,34.736 0 0 0 2.58,-20.887 30.025,30.025 0 0 0 -9.382,-17.566 C 95.416,98.759 88.906,94.986 81.977,90.946 75.099,86.85 67.513,82.523 60.988,75.721 A 43.32,43.32 0 0 1 53.021,63.843 42.844,42.844 0 0 1 49.656,50.091 C 49.02,40.942 51.173,31.257 56.275,23.768 A 51.737,51.737 0 0 1 75.59,6.981 2.015,2.015 0 0 1 77.902,10.24 Z M 94.273,6.905 a 49.158,49.158 0 0 1 14.457,10.375 44.97,44.97 0 0 1 5.759,7.682 41.269,41.269 0 0 1 3.873,9.323 42.498,42.498 0 0 1 1.346,10.214 c -0.07,3.42 -0.911,20.003 -10.058,27.98 a 5.322,5.322 0 0 1 -7.438,-1.335 5.78,5.78 0 0 1 -0.271,-5.825 l 0.117,-0.215 c 2.455,-4.629 12.661,-22.622 1.011,-42.48 A 85.455,85.455 0 0 0 92.433,9.964 L 92.419,9.952 A 1.97,1.97 0 0 1 92.34,7.332 1.616,1.616 0 0 1 94.272,6.905 Z m -18.478,156.19 a 49.206,49.206 0 0 1 -14.457,-10.375 44.939,44.939 0 0 1 -5.759,-7.684 41.23,41.23 0 0 1 -3.873,-9.322 42.432,42.432 0 0 1 -1.344,-10.216 c 0.068,-3.42 0.911,-20.001 10.057,-27.979 a 5.321,5.321 0 0 1 7.438,1.335 5.777,5.777 0 0 1 0.271,5.825 l -0.117,0.215 c -2.455,4.629 -12.661,22.621 -1.009,42.48 a 85.37,85.37 0 0 0 10.634,12.661 l 0.012,0.012 a 1.97,1.97 0 0 1 0.079,2.62 1.615,1.615 0 0 1 -1.932,0.427 z"
       fill="#ffffff"
       id="path6" />
  </g>
</svg>
