<svg xmlns="http://www.w3.org/2000/svg" width="256" height="256" xmlns:v="https://vecta.io/nano"><path d="M6.557 128c0 66.964 54.479 121.443 121.443 121.443S249.443 194.964 249.443 128 194.964 6.557 128 6.557 6.557 61.036 6.557 128z" fill="#fff" fill-rule="evenodd" stroke="#b0b0b0" stroke-width="13.114" paint-order="normal"/><g transform="matrix(1.388235 0 0 1.388235 10 10)"><rect width="170" height="170" ry="85" fill="#220d3a"/><path d="M77.902 10.24C72.155 15.68 67.1 21.636 64.25 28.22a33.143 33.143 0 0 0-2.168 20.33 30.658 30.658 0 0 0 9.214 17.098c4.794 4.762 11.281 8.679 18.145 12.879 6.819 4.247 14.319 8.852 20.518 15.864a42.169 42.169 0 0 1 10.41 25.511 43.157 43.157 0 0 1-6.405 25.789c-4.756 7.525-11.513 13.049-18.601 17.269a2.062 2.062 0 0 1-2.385-3.347c5.979-5.1 11.135-11.034 14.175-17.675a34.736 34.736 0 0 0 2.58-20.887 30.025 30.025 0 0 0-9.382-17.566c-4.935-4.726-11.445-8.499-18.374-12.539-6.878-4.096-14.464-8.423-20.989-15.225a43.32 43.32 0 0 1-7.967-11.878 42.844 42.844 0 0 1-3.365-13.752c-.636-9.149 1.517-18.834 6.619-26.323A51.737 51.737 0 0 1 75.59 6.981a2.015 2.015 0 0 1 2.312 3.259zm16.371-3.335A49.158 49.158 0 0 1 108.73 17.28a44.97 44.97 0 0 1 5.759 7.682 41.269 41.269 0 0 1 3.873 9.323 42.498 42.498 0 0 1 1.346 10.214c-.07 3.42-.911 20.003-10.058 27.98a5.322 5.322 0 0 1-7.438-1.335 5.78 5.78 0 0 1-.271-5.825l.117-.215c2.455-4.629 12.661-22.622 1.011-42.48a85.455 85.455 0 0 0-10.636-12.66l-.014-.012a1.97 1.97 0 0 1-.079-2.62 1.616 1.616 0 0 1 1.932-.427zm-18.478 156.19a49.206 49.206 0 0 1-14.457-10.375 44.939 44.939 0 0 1-5.759-7.684 41.23 41.23 0 0 1-3.873-9.322 42.432 42.432 0 0 1-1.344-10.216c.068-3.42.911-20.001 10.057-27.979a5.321 5.321 0 0 1 7.438 1.335 5.777 5.777 0 0 1 .271 5.825l-.117.215c-2.455 4.629-12.661 22.621-1.009 42.48a85.37 85.37 0 0 0 10.634 12.661l.012.012a1.97 1.97 0 0 1 .079 2.62 1.615 1.615 0 0 1-1.932.427z" fill="#fff"/></g></svg>