<svg id="AION" xmlns="http://www.w3.org/2000/svg" width="256" height="256" viewBox="0 0 512 512">
<defs>
    <style>
      .cls-1 {
        fill: #4221cc;
      }

      .cls-1, .cls-2, .cls-3 {
        fill-rule: evenodd;
      }

      .cls-2, .cls-3 {
        fill: none;
        stroke: #fff;
        stroke-linejoin: round;
        stroke-width: 30px;
      }

      .cls-2 {
        stroke-linecap: round;
      }
    </style>
  </defs>
  <path id="Main" class="cls-1" d="M11,256c0,135.094,109.906,245,245,245S501,391.094,501,256,391.094,11,256,11,11,120.906,11,256Z"/>
  <path id="Inner" class="cls-2" d="M227.8,184.779c41.228-16.758,87.623,1.572,103.625,40.941s-4.446,84.869-45.674,101.627-87.623-1.571-103.626-40.94S186.567,201.538,227.8,184.779Z"/>
  <path id="Outer" class="cls-3" d="M102.884,219.336A156.88,156.88,0,0,1,204.931,106.265M255.5,97.92a156.1,156.1,0,0,1,61.084,12.362m35.362,20.858a156.314,156.314,0,0,1,60.04,117.874m-2.964,36.435A156.767,156.767,0,0,1,287.243,407.861m-47.138,2.472A156.623,156.623,0,0,1,99.446,267.43"/>
</svg>
