<?xml version="1.0" encoding="UTF-8"?><svg id="CIRCLE_OUTLINE_BLACK" xmlns="http://www.w3.org/2000/svg" xmlns:xlink="http://www.w3.org/1999/xlink" viewBox="0 0 512 512"><defs><clipPath id="clippath"><circle cx="256" cy="-306" r="256" fill="none" stroke-width="0"/></clipPath></defs><g clip-path="url(#clippath)"><circle cx="213.2937" cy="-295.85908" r="300.115" fill="none" stroke-width="0"/></g><circle cx="256" cy="256" r="234.41813" fill="#fff" stroke-width="0"/><path d="M215.94123,3.1978C43.80393,30.04428-51.32727,218.89181,28.75088,374.74481c94.10719,183.00692,360.1469,183.00692,454.25408,0C578.95539,187.84416,423.09995-28.97698,215.94123,3.1978ZM313.01809,40.29102c155.13862,41.08944,217.39886,230.85919,116.73797,355.97193-128.41179,159.74676-386.05453,75.72348-396.6019-129.41639C25.47402,117.14162,167.91483,1.86573,313.01809,40.29102ZM306.25957,144.09056c-7.57772,6.96779-163.33076,193.35607-169.78207,203.19299-8.29454,12.60348,3.17446,30.12543,17.30589,26.53907,3.68647-.9222,32.35895-33.09698,76.39168-85.76524l70.55478-84.22825,1.33121,81.76903c1.43362,90.58123,1.12643,89.14669,18.43231,89.14669,17.71549,0,17.5107,1.8444,17.5107-118.24744,0-104.51681-.20482-108.10317-5.12009-113.12407-6.8609-6.76291-18.7395-6.4555-26.62442.71722Z" fill="#000" fill-rule="evenodd" stroke-width="0"/></svg>