<svg xmlns="http://www.w3.org/2000/svg" width="256" height="256" viewBox="0 0 512 512">
<defs>
    <style>
      .cls-2 {
        fill: #00a3ff;
      }

      .cls-2, .cls-3 {
        fill-rule: evenodd;
      }

      .cls-3 {
        fill: none;
        stroke: #fff;
        stroke-linecap: round;
        stroke-width: 9px;
      }
    </style>
  </defs>
  <g id="AirSwap">
    <path id="Main" class="cls-2" d="M11,256c0,135.094,109.906,245,245,245S501,391.094,501,256,391.094,11,256,11,11,120.906,11,256Z"/>
    <path id="AirSwap-2" data-name="AirSwap" class="cls-3" d="M113,256c6.761-6.7,143-143,143-143S394.272,252.673,397,256C326.828,330.351,189.5,329.827,113,256ZM221,364c34-1.98,74.983-18.721,92-29-15.193,18.194-59,63-59,63S236.49,379.873,221,364ZM180,245c66.537-27.263,145.428-1.7,163,11-9.248,5.579-30.343,18.258-59,22C259.648,258.4,207.761,247.507,180,245Z"/>
  </g>
</svg>
