<?xml version="1.0" encoding="UTF-8"?>
<svg xmlns="http://www.w3.org/2000/svg" version="1.1" viewBox="0 0 250 250">
  <defs>
    <style>
      .cls-1 {
        fill: none;
      }

      .cls-2, .cls-3 {
        fill-rule: evenodd;
      }

      .cls-4 {
        fill: #fff;
      }

      .cls-3 {
        fill: #ff5d51;
      }
    </style>
  </defs>
  <!-- Generator: Adobe Illustrator 28.6.0, SVG Export Plug-In . SVG Version: 1.2.0 Build 709)  -->
  <g>
    <g id="Layer_1">
      <circle class="cls-4" cx="125" cy="125" r="122.5"/>
      <g id="g1007">
        <rect id="rect9865" class="cls-1" x="1.2" y="1.3" width="247.5" height="247.5"/>
        <path id="path9867" class="cls-2" d="M109,151c0-2.1-1.7-3.5-3.7-3.2l-24.6,4.3c-2.1.4-3.7,2.4-3.7,4.5v46.5c0,2.1,1.7,3.5,3.7,3.2l24.6-4.3c2.1-.4,3.7-2.4,3.7-4.5v-46.5Z"/>
        <path id="path9871" class="cls-3" d="M173,46.8c0-2.1-1.7-3.5-3.7-3.2l-24.6,4.3c-2.1.4-3.7,2.4-3.7,4.5v46.5c0,2.1,1.7,3.5,3.7,3.2l24.6-4.3c2.1-.4,3.7-2.4,3.7-4.5v-46.5Z"/>
        <path id="path9875" class="cls-2" d="M113,57.7c-1-2.1-3.5-3.5-5.7-3.1l-26.4,4.6c-2.2.4-3.2,2.4-2.3,4.5l58.4,128.5c1,2.1,3.5,3.5,5.7,3.1l26.4-4.6c2.2-.4,3.2-2.4,2.3-4.5L113,57.7Z"/>
      </g>
    </g>
  </g>
</svg>