<?xml version="1.0" encoding="UTF-8" standalone="no"?>
<!-- Generator: Adobe Illustrator 22.0.0, SVG Export Plug-In . SVG Version: 6.00 Build 0)  -->

<svg
   version="1.1"
   id="Bancor"
   x="0px"
   y="0px"
   viewBox="0 0 245 245"
   style="enable-background:new 0 0 245 245;"
   xml:space="preserve"
   xmlns="http://www.w3.org/2000/svg"
   xmlns:svg="http://www.w3.org/2000/svg"><defs
   id="defs831" />
<style
   type="text/css"
   id="style824">
	.st0{fill:#000D2B;}
	.st1{fill:#FFFFFF;}
</style>
<path
   id="Main"
   class="st0"
   d="m 0,122.83465 c 0,67.68439 55.150249,122.83464 122.83465,122.83464 67.68439,0 122.83464,-55.15025 122.83464,-122.83464 C 245.66929,55.150249 190.51904,0 122.83465,0 55.150249,0 0,55.150249 0,122.83465 Z"
   style="stroke-width:1.00273;fill:#000000" />

<polygon
   points="83.8,70.3 87.8,85 95.4,113.4 113,113.4 105.4,85 97.8,56.7 95.8,49.4 108,28.3 90.2,28.3 89.6,26.2 83.4,3 82.6,0 65.5,0 65.1,0.6 49.1,28.3 32.7,56.7 16.4,85 0,113.4 19.6,113.4 36,85 52.4,56.7 68.7,28.3 71.4,23.8 72.6,28.3 77.6,47 72,56.7 55.6,85 39.3,113.4 58.9,113.4 75.3,85 "
   id="polygon915"
   transform="matrix(1.3378859,0,0,1.3378859,47.244094,47.244094)"
   style="stroke-width:1.00004997;stroke-miterlimit:4;stroke-dasharray:none;fill:#ffffff" /></svg>
