<?xml version="1.0" encoding="UTF-8" standalone="no"?>
<svg
   xmlns:dc="http://purl.org/dc/elements/1.1/"
   xmlns:cc="http://creativecommons.org/ns#"
   xmlns:rdf="http://www.w3.org/1999/02/22-rdf-syntax-ns#"
   xmlns:svg="http://www.w3.org/2000/svg"
   xmlns="http://www.w3.org/2000/svg"
   xmlns:sodipodi="http://sodipodi.sourceforge.net/DTD/sodipodi-0.dtd"
   xmlns:inkscape="http://www.inkscape.org/namespaces/inkscape"
   width="236"
   height="236"
   version="1.1"
   id="svg12"
   sodipodi:docname="ALICE_ERC20.svg"
   inkscape:version="1.0.2-2 (e86c870879, 2021-01-15)">
  <metadata
     id="metadata18">
    <rdf:RDF>
      <cc:Work
         rdf:about="">
        <dc:format>image/svg+xml</dc:format>
        <dc:type
           rdf:resource="http://purl.org/dc/dcmitype/StillImage" />
      </cc:Work>
    </rdf:RDF>
  </metadata>
  <defs
     id="defs16" />
  <sodipodi:namedview
     pagecolor="#ffffff"
     bordercolor="#666666"
     borderopacity="1"
     objecttolerance="10"
     gridtolerance="10"
     guidetolerance="10"
     inkscape:pageopacity="0"
     inkscape:pageshadow="2"
     inkscape:window-width="1920"
     inkscape:window-height="1017"
     id="namedview14"
     showgrid="false"
     inkscape:zoom="3.3203125"
     inkscape:cx="118"
     inkscape:cy="118"
     inkscape:window-x="-8"
     inkscape:window-y="-8"
     inkscape:window-maximized="1"
     inkscape:current-layer="svg12" />
  <circle
     cx="118"
     cy="118"
     r="118"
     fill="#f9f6f2"
     paint-order="stroke fill markers"
     id="circle4" />
  <path
     d="m 97.174,135.441 c -7.578,-7.863 -8.731,-10.458 -8.731,-19.655 0,-13.092 7.672,-23.657 19.951,-27.474 23.003,-7.151 43.061,22.078 29.644,43.197 -5.673,8.93 -12.712,12.807 -23.436,12.909 -7.159,0.068 -10.242,-1.52 -17.429,-8.977 z"
     fill="#fceaaa"
     id="path6" />
  <path
     d="m 106.644,14.015 c -11.072,0.312 -21.588,5.501 -26.121,15.413 -2.847,6.225 -3.574,13.022 -2.982,27.819 0.431,10.77 0.63,19.584 0.444,19.583 C 77.799,76.829 72.233,74.215 65.616,71.019 49.152,63.066 38.753,63.341 29.445,71.976 l -7.344,6.813 -3.497,7.939 c -7.84,17.797 4.158,38.738 7.995,43.379 6.362,7.695 19.832,14.393 28.941,14.393 h 7.757 l -4.726,9.917 c -3.082,6.464 -4.76,14.556 -4.818,23.243 -0.081,12.037 0.643,14.119 7.498,21.457 4.174,4.469 10.738,9.791 14.582,11.831 16.019,8.499 38.421,-1.271 52.422,-22.865 l 7.199,-11.107 -6.637,-10.86 c -3.651,-5.974 -6.641,-11.911 -6.641,-13.194 0,-1.283 2.866,2.354 6.369,8.085 18.798,30.757 56.902,44.246 74.779,26.474 3.698,-3.676 7.3,-9.077 8.007,-12 0.707,-2.923 1.938,-5.313 2.732,-5.314 2.779,-0.003 2.324,-12.939 -0.861,-24.501 -1.808,-6.564 -6.514,-15.364 -10.757,-20.117 l -7.542,-8.445 10.3,-11.512 C 216.899,92.521 218.298,86.775 213.188,72.856 204.057,47.984 179.136,40.01 153.29,53.692 c -4.647,2.46 -8.851,4.471 -9.347,4.471 -0.496,0 -1.53,-5.499 -2.297,-12.219 -0.767,-6.72 -3.254,-14.857 -5.53,-18.084 -6.768,-9.594 -18.4,-14.158 -29.472,-13.846 z m -1.876,19.424 c 0.411,-0.226 1.402,1.348 2.987,4.38 1.866,3.57 4.161,15.578 5.099,26.684 0.938,11.106 3.083,19.493 4.292,19.723 18.98,3.612 30.378,19.689 27.391,37.369 -2.407,14.251 -0.791,11.62 9.991,17.291 14.253,7.497 33.284,20.65 38.459,26.584 6.579,7.543 2.191,5.484 -12.896,-6.052 -7.734,-5.914 -19.652,-13.682 -26.481,-17.264 l -12.417,-6.513 -7.296,6.763 c -5.682,5.268 -9.459,6.763 -17.082,6.763 -9.688,0 -9.879,0.16 -18.487,15.432 -4.783,8.486 -11.123,17.412 -14.09,19.834 -9.256,7.554 -10.59,4.821 -2.121,-4.348 4.445,-4.813 11.159,-13.954 14.916,-20.317 l 6.83,-11.571 -7.862,-9.028 c -7.255,-8.332 -9.921,-10.061 -9.438,-22.345 0.378,-9.601 1.504,-15.108 -1.429,-19.725 -2.187,-3.444 3.617,7.492 -2.618,-7.894 -0.431,-1.063 1.458,-0.52 1.498,0.656 0.04,1.176 1.514,4.112 3.272,6.522 3.088,4.231 2.04,2.962 8.822,-2.96 3.863,-3.373 13.485,-7.828 13.485,-7.828 4.175,0.665 2.281,-14.064 -2.037,-34.432 -2.537,-11.969 -3.474,-17.348 -2.789,-17.724 z m 78.618,38.998 9.628,0.278 -10.41,1.823 c -5.725,1.004 -12.809,3.102 -15.742,4.662 -2.933,1.56 -10.139,7.664 -16.014,13.563 -5.875,5.899 -8.584,6.39 -8.584,4.635 0,-4.553 15.295,-18.215 24.075,-22.022 4.078,-1.768 11.75,-3.091 17.046,-2.94 z M 53.911,100.885 c 4.493,0.106 9.454,0.928 14.556,2.502 6.657,2.054 13.496,4.673 15.193,5.82 7.046,4.761 0.651,6.177 -8.666,1.919 -10.917,-4.989 -24.221,-6.138 -34.901,-3.017 -6.229,1.82 -6.473,1.671 -3.215,-1.9 3.36,-3.683 9.544,-5.5 17.033,-5.323 z"
     fill="#e88296"
     id="path8" />
  <path
     d="m 105.31,144.925 c -3.711,-2.433 -8.771,-6.911 -11.244,-9.952 -2.848,-3.501 -1.376,-2.768 4.014,1.999 12.557,11.106 27.873,10.042 38.303,-2.662 l 4.086,-4.977 -2.479,5.25 c -5.685,12.04 -22.145,17.249 -32.68,10.342 z"
     fill="#b59a6b"
     id="path10" />
</svg>
