<svg xmlns="http://www.w3.org/2000/svg" width="256" height="256" xmlns:v="https://vecta.io/nano"><path d="M6.557 128c0 66.964 54.479 121.443 121.443 121.443S249.443 194.964 249.443 128 194.964 6.557 128 6.557 6.557 61.036 6.557 128z" fill="#fff" fill-rule="evenodd" stroke="#b0b0b0" stroke-width="13.114" paint-order="normal"/><circle cx="128" cy="128" r="118" fill="#f9f6f2" paint-order="stroke fill markers"/><path d="M107.174 145.441c-7.578-7.863-8.731-10.458-8.731-19.655 0-13.092 7.672-23.657 19.951-27.474 23.003-7.151 43.061 22.078 29.644 43.197-5.673 8.93-12.712 12.807-23.436 12.909-7.159.068-10.242-1.52-17.429-8.977z" fill="#fceaaa"/><path d="M116.644 24.015c-11.072.312-21.588 5.501-26.121 15.413-2.847 6.225-3.574 13.022-2.982 27.819.431 10.77.63 19.584.444 19.583s-5.752-2.615-12.369-5.811c-16.464-7.953-26.863-7.678-36.171.957l-7.344 6.813-3.497 7.939c-7.84 17.797 4.158 38.738 7.995 43.379 6.362 7.695 19.832 14.393 28.941 14.393h7.757l-4.726 9.917c-3.082 6.464-4.76 14.556-4.818 23.243-.081 12.037.643 14.119 7.498 21.457 4.174 4.469 10.738 9.791 14.582 11.831 16.019 8.499 38.421-1.271 52.422-22.865l7.199-11.107-6.637-10.86c-3.651-5.974-6.641-11.911-6.641-13.194s2.866 2.354 6.369 8.085c18.798 30.757 56.902 44.246 74.779 26.474 3.698-3.676 7.3-9.077 8.007-12s1.938-5.313 2.732-5.314c2.779-.003 2.324-12.939-.861-24.501-1.808-6.564-6.514-15.364-10.757-20.117l-7.542-8.445 10.3-11.512c11.696-13.071 13.095-18.817 7.985-32.736-9.131-24.872-34.052-32.846-59.898-19.164-4.647 2.46-8.851 4.471-9.347 4.471s-1.53-5.499-2.297-12.219-3.254-14.857-5.53-18.084c-6.768-9.594-18.4-14.158-29.472-13.846zm-1.876 19.424c.411-.226 1.402 1.348 2.987 4.38 1.866 3.57 4.161 15.578 5.099 26.684s3.083 19.493 4.292 19.723c18.98 3.612 30.378 19.689 27.391 37.369-2.407 14.251-.791 11.62 9.991 17.291 14.253 7.497 33.284 20.65 38.459 26.584 6.579 7.543 2.191 5.484-12.896-6.052-7.734-5.914-19.652-13.682-26.481-17.264l-12.417-6.513-7.296 6.763c-5.682 5.268-9.459 6.763-17.082 6.763-9.688 0-9.879.16-18.487 15.432-4.783 8.486-11.123 17.412-14.09 19.834-9.256 7.554-10.59 4.821-2.121-4.348 4.445-4.813 11.159-13.954 14.916-20.317l6.83-11.571-7.862-9.028c-7.255-8.332-9.921-10.061-9.438-22.345.378-9.601 1.504-15.108-1.429-19.725-2.187-3.444 3.617 7.492-2.618-7.894-.431-1.063 1.458-.52 1.498.656s1.514 4.112 3.272 6.522c3.088 4.231 2.04 2.962 8.822-2.96 3.863-3.373 13.485-7.828 13.485-7.828 4.175.665 2.281-14.064-2.037-34.432-2.537-11.969-3.474-17.348-2.789-17.724zm78.618 38.998l9.628.278-10.41 1.823c-5.725 1.004-12.809 3.102-15.742 4.662s-10.139 7.664-16.014 13.563-8.584 6.39-8.584 4.635c0-4.553 15.295-18.215 24.075-22.022 4.078-1.768 11.75-3.091 17.046-2.94zM63.911 110.885c4.493.106 9.454.928 14.556 2.502 6.657 2.054 13.496 4.673 15.193 5.82 7.046 4.761.651 6.177-8.666 1.919-10.917-4.989-24.221-6.138-34.901-3.017-6.229 1.82-6.473 1.671-3.215-1.9 3.36-3.683 9.544-5.5 17.033-5.323z" fill="#e88296"/><path d="M115.31 154.925c-3.711-2.433-8.771-6.911-11.244-9.952-2.848-3.501-1.376-2.768 4.014 1.999 12.557 11.106 27.873 10.042 38.303-2.662l4.086-4.977-2.479 5.25c-5.685 12.04-22.145 17.249-32.68 10.342z" fill="#b59a6b"/></svg>