<?xml version="1.0" encoding="UTF-8" standalone="no"?>
<svg
   viewBox="0 0 100 100"
   version="1.1"
   id="svg28"
   sodipodi:docname="ALPHA_BEP20.svg"
   inkscape:version="1.1 (c68e22c387, 2021-05-23)"
   xmlns:inkscape="http://www.inkscape.org/namespaces/inkscape"
   xmlns:sodipodi="http://sodipodi.sourceforge.net/DTD/sodipodi-0.dtd"
   xmlns="http://www.w3.org/2000/svg"
   xmlns:svg="http://www.w3.org/2000/svg">
  <sodipodi:namedview
     id="namedview30"
     pagecolor="#ffffff"
     bordercolor="#666666"
     borderopacity="1.0"
     inkscape:pageshadow="2"
     inkscape:pageopacity="0.0"
     inkscape:pagecheckerboard="0"
     showgrid="false"
     inkscape:zoom="8.73"
     inkscape:cx="50"
     inkscape:cy="50"
     inkscape:window-width="2560"
     inkscape:window-height="1361"
     inkscape:window-x="-9"
     inkscape:window-y="-9"
     inkscape:window-maximized="1"
     inkscape:current-layer="svg28" />
  <defs
     id="defs5">
    <filter
       id="A"
       filterUnits="userSpaceOnUse"
       x="0"
       y="0"
       width="100"
       height="100">
      <feColorMatrix
         values="1 0 0 0 0  0 1 0 0 0  0 0 1 0 0  0 0 0 1 0"
         id="feColorMatrix2" />
    </filter>
  </defs>
  <mask
     maskUnits="userSpaceOnUse"
     x="0"
     y="0"
     width="100"
     height="100"
     id="B">
    <g
       filter="url(#A)"
       id="g9">
      <path
         d="M0 0h100v100H0z"
         fill-rule="evenodd"
         fill="#fff"
         id="path7" />
    </g>
  </mask>
  <path
     d="M50,0C22.4,0,0,22.4,0,50s22.4,50,50,50s50-22.4,50-50S77.6,0,50,0"
     mask="url(#B)"
     fill-rule="evenodd"
     fill="#29b2ff"
     id="path12" />
  <g
     fill-rule="evenodd"
     fill="#fff"
     id="g18">
    <path
       d="M35.7 34.6l-23 30.6h4.7l5-6.7h16v-3.8H25.2l15.1-20.1zm51.6 30.6l-23-30.6h-4.6l15.1 20.1H61.6v3.8h16l5 6.7z"
       id="path14" />
    <path
       d="M48.1 65.2h3.8V17.9h-3.8zM22 57.7h15.7v-2.2H22z"
       id="path16" />
  </g>
  <path
     d="M22 57.7h15.7v-2.2H22z"
     fill="none"
     stroke="#fff"
     stroke-width="1.493"
     id="path20" />
  <path
     d="M62.3 57.7H78v-2.2H62.3z"
     fill-rule="evenodd"
     fill="#fff"
     id="path22" />
  <path
     d="M62.3 57.7H78v-2.2H62.3z"
     fill="none"
     stroke="#fff"
     stroke-width="1.493"
     id="path24" />
  <path
     d="M50 4.487c-25.096 0-45.514 20.423-45.514 45.526S24.904 95.539 50 95.539s45.514-20.423 45.514-45.526S75.096 4.487 50 4.487M50 0c27.549 0 50 22.454 50 50.013s-22.449 50.013-50 50.013S0 77.571 0 50.013 22.451 0 50 0z"
     fill="#474747"
     id="path26"
     style="fill:#e8a607;fill-opacity:1" />
</svg>
