<svg xmlns="http://www.w3.org/2000/svg" viewBox="0 0 100 100" xmlns:v="https://vecta.io/nano"><defs><filter id="A" filterUnits="userSpaceOnUse" x="0" y="0" width="100" height="100"><feColorMatrix values="1 0 0 0 0  0 1 0 0 0  0 0 1 0 0  0 0 0 1 0"/></filter></defs><mask maskUnits="userSpaceOnUse" x="0" y="0" width="100" height="100" id="B"><g filter="url(#A)"><path d="M0 0h100v100H0z" fill-rule="evenodd" fill="#fff"/></g></mask><path d="M50,0C22.4,0,0,22.4,0,50s22.4,50,50,50s50-22.4,50-50S77.6,0,50,0" mask="url(#B)" fill-rule="evenodd" fill="#29b2ff"/><g fill-rule="evenodd" fill="#fff"><path d="M35.7 34.6l-23 30.6h4.7l5-6.7h16v-3.8H25.2l15.1-20.1zm51.6 30.6l-23-30.6h-4.6l15.1 20.1H61.6v3.8h16l5 6.7z"/><path d="M48.1 65.2h3.8V17.9h-3.8zM22 57.7h15.7v-2.2H22z"/></g><path d="M22 57.7h15.7v-2.2H22z" fill="none" stroke="#fff" stroke-width="1.493"/><path d="M62.3 57.7H78v-2.2H62.3z" fill-rule="evenodd" fill="#fff"/><path d="M62.3 57.7H78v-2.2H62.3z" fill="none" stroke="#fff" stroke-width="1.493"/><path d="M50 4.487c-25.096 0-45.514 20.423-45.514 45.526S24.904 95.539 50 95.539s45.514-20.423 45.514-45.526S75.096 4.487 50 4.487M50 0c27.549 0 50 22.454 50 50.013s-22.449 50.013-50 50.013S0 77.571 0 50.013 22.451 0 50 0z" fill="#b0b0b0"/></svg>