<?xml version="1.0" encoding="UTF-8" standalone="no"?>
<svg
   xmlns:dc="http://purl.org/dc/elements/1.1/"
   xmlns:cc="http://creativecommons.org/ns#"
   xmlns:rdf="http://www.w3.org/1999/02/22-rdf-syntax-ns#"
   xmlns:svg="http://www.w3.org/2000/svg"
   xmlns="http://www.w3.org/2000/svg"
   xmlns:sodipodi="http://sodipodi.sourceforge.net/DTD/sodipodi-0.dtd"
   xmlns:inkscape="http://www.inkscape.org/namespaces/inkscape"
   viewBox="0 0 100 100"
   version="1.1"
   id="svg28"
   sodipodi:docname="ALPHA_BEP20.svg"
   inkscape:version="1.0.2-2 (e86c870879, 2021-01-15)">
  <metadata
     id="metadata18">
    <rdf:RDF>
      <cc:Work
         rdf:about="">
        <dc:format>image/svg+xml</dc:format>
        <dc:type
           rdf:resource="http://purl.org/dc/dcmitype/StillImage" />
      </cc:Work>
    </rdf:RDF>
  </metadata>
  <sodipodi:namedview
     id="namedview30"
     pagecolor="#ffffff"
     bordercolor="#666666"
     borderopacity="1.0"
     inkscape:pageshadow="2"
     inkscape:pageopacity="0.0"
     inkscape:pagecheckerboard="0"
     showgrid="false"
     inkscape:zoom="8.73"
     inkscape:cx="50"
     inkscape:cy="50"
     inkscape:window-width="1920"
     inkscape:window-height="1017"
     inkscape:window-x="-8"
     inkscape:window-y="-8"
     inkscape:window-maximized="1"
     inkscape:current-layer="svg28"
     inkscape:document-rotation="0" />
  <defs
     id="defs5">
    <filter
       id="A"
       filterUnits="userSpaceOnUse"
       x="0"
       y="0"
       width="100"
       height="100">
      <feColorMatrix
         values="1 0 0 0 0  0 1 0 0 0  0 0 1 0 0  0 0 0 1 0"
         id="feColorMatrix2" />
    </filter>
  </defs>
  <mask
     maskUnits="userSpaceOnUse"
     x="0"
     y="0"
     width="100"
     height="100"
     id="B">
    <g
       filter="url(#A)"
       id="g9">
      <path
         d="M0 0h100v100H0z"
         fill-rule="evenodd"
         fill="#fff"
         id="path7" />
    </g>
  </mask>
  <path
     d="M50,0C22.4,0,0,22.4,0,50s22.4,50,50,50s50-22.4,50-50S77.6,0,50,0"
     mask="url(#B)"
     fill-rule="evenodd"
     fill="#29b2ff"
     id="path12" />
  <g
     fill-rule="evenodd"
     fill="#fff"
     id="g18">
    <path
       d="M35.7 34.6l-23 30.6h4.7l5-6.7h16v-3.8H25.2l15.1-20.1zm51.6 30.6l-23-30.6h-4.6l15.1 20.1H61.6v3.8h16l5 6.7z"
       id="path14" />
    <path
       d="M48.1 65.2h3.8V17.9h-3.8zM22 57.7h15.7v-2.2H22z"
       id="path16" />
  </g>
  <path
     d="M22 57.7h15.7v-2.2H22z"
     fill="none"
     stroke="#fff"
     stroke-width="1.493"
     id="path20" />
  <path
     d="M62.3 57.7H78v-2.2H62.3z"
     fill-rule="evenodd"
     fill="#fff"
     id="path22" />
  <path
     d="M62.3 57.7H78v-2.2H62.3z"
     fill="none"
     stroke="#fff"
     stroke-width="1.493"
     id="path24" />
</svg>
