<?xml version="1.0" encoding="utf-8"?>
<!-- Generator: Adobe Illustrator 22.0.0, SVG Export Plug-In . SVG Version: 6.00 Build 0)  -->
<svg version="1.1" id="AMB" xmlns="http://www.w3.org/2000/svg" xmlns:xlink="http://www.w3.org/1999/xlink" x="0px" y="0px"
	 viewBox="0 0 490 490" style="enable-background:new 0 0 490 490;" xml:space="preserve">
<style type="text/css">
	.st0{fill:#8AE3FF;}
	.st1{fill:#FFFFFF;}
</style>
<path id="Full" class="st0" d="M0,245c0,135.1,109.9,245,245,245s245-109.9,245-245S380.1,0,245,0S0,109.9,0,245z"/>
<path id="Dots" class="st1" d="M154.8,245.1c5.3,0,9.6,4.2,9.6,9.5s-4.2,9.6-9.5,9.6c-5.3,0-9.6-4.2-9.6-9.5c0,0,0,0,0,0
	C145.3,249.4,149.5,245.1,154.8,245.1z M336.6,223.3c5.3,0,9.6,4.2,9.6,9.5c0,5.3-4.2,9.6-9.5,9.6c-5.3,0-9.6-4.2-9.6-9.5
	c0,0,0,0,0,0C327,227.6,331.3,223.3,336.6,223.3C336.6,223.3,336.6,223.3,336.6,223.3z"/>
<path id="Middle" class="st1" d="M335.7,236.1c-2.2,0-4-1.6-4.3-3.8c-5.7-38.4-36.1-68.4-74.6-73.6c-2.4-0.3-4.1-2.5-3.7-4.9
	c0.3-2.4,2.5-4,4.8-3.8c42.1,5.6,75.8,38.9,82.1,81.1c0.4,2.4-1.3,4.7-3.7,5c0,0,0,0,0,0C336.2,236.1,336,236.1,335.7,236.1z
	 M313.1,311.1c-1.1,0-2.1-0.4-2.9-1.1c-1.8-1.6-2-4.3-0.4-6.1c0,0,0,0,0,0c12.3-13.5,20-30.5,22-48.6c0.2-2.4,2.3-4.1,4.7-3.9
	c2.4,0.2,4.1,2.3,3.9,4.7c0,0.1,0,0.2,0,0.3c-2.3,19.9-10.8,38.6-24.2,53.4C315.4,310.7,314.3,311.1,313.1,311.1z M257.5,340.4
	c-2.2,0-4-1.6-4.3-3.8c-0.3-2.4,1.3-4.5,3.7-4.8c0,0,0.1,0,0.1,0c14.6-2,28.5-7.6,40.3-16.4c1.9-1.4,4.7-1,6.1,0.9s1,4.7-0.9,6.1
	l0,0c-13,9.7-28.3,16-44.5,18.2C257.9,340.5,257.7,340.4,257.5,340.4z M233.5,340.4H233c-43.5-5.7-77.5-40.4-82.5-84
	c-0.4-2.4,1.2-4.6,3.6-5c2.4-0.4,4.6,1.2,5,3.6c0,0.1,0,0.2,0,0.3c4.5,39.7,35.4,71.2,74.9,76.5c2.4,0.3,4,2.5,3.8,4.9
	C237.5,338.8,235.7,340.5,233.5,340.4z M155.2,236.1h-0.7c-2.4-0.4-4-2.6-3.8-5c2.8-19.4,11.6-37.5,25.1-51.8
	c1.6-1.8,4.3-1.9,6.1-0.3c1.8,1.6,1.9,4.3,0.3,6.1c0,0-0.1,0.1-0.1,0.1c-12.3,13-20.3,29.4-22.8,47.1
	C159.1,234.5,157.3,236.1,155.2,236.1z M192.4,174.9c-1.4,0-2.7-0.7-3.6-1.8c-1.4-2-0.9-4.7,1-6.1c0,0,0,0,0,0
	c12.7-9,27.4-14.9,42.8-16.9c2.4-0.3,4.5,1.4,4.8,3.8c0.3,2.4-1.4,4.5-3.7,4.8c-14,1.9-27.4,7.2-38.9,15.5
	C194.2,174.7,193.3,175,192.4,174.9L192.4,174.9z M245.5,322.8c-42.7,0-77.3-34.9-77.3-77.5c0-42.8,34.8-77.5,77.3-77.5
	c42.7,0,77.2,34.9,77.2,77.5C322.8,288,288.2,322.7,245.5,322.8z M245.5,176.4c-37.8,0-68.6,30.9-68.6,68.9s30.8,68.9,68.6,68.9
	s68.6-30.9,68.6-68.9C314,207.3,283.3,176.4,245.5,176.4L245.5,176.4z M270.8,223.9c0-13.7-11.1-24.7-24.8-24.7
	c-13.7,0-24.7,11.1-24.7,24.8c0,8.3,4.2,16,11.1,20.6l0.4-1.8c0.7-3.3,3.6-5.8,7-5.9h12.5c3.4,0.1,6.4,2.6,7,5.9l0.4,1.8
	C266.6,239.9,270.7,232.2,270.8,223.9L270.8,223.9z M232.4,244.5l-6.8,41.7c-0.5,2.7,1.2,5.3,3.9,5.8c0.4,0.1,0.7,0.1,1.1,0.1h30.8
	c2.7,0.1,5-2,5.1-4.7c0-0.4,0-0.9-0.1-1.3l-6.8-41.7C251.4,250.1,240.7,250.1,232.4,244.5L232.4,244.5z M252.3,236.6h-12.6
	c-3.4,0.1-6.4,2.6-7,5.9l-0.4,1.8c4.1,2.7,8.8,4.1,13.6,4.1c4.9,0,9.6-1.4,13.6-4.1l-0.4-1.8C258.7,239.2,255.7,236.7,252.3,236.6
	L252.3,236.6z"/>
<path id="Bottom" class="st1" d="M245.5,348C126.1,348,72.4,252.8,70,248.9c-2.2-4-0.7-8.9,3.2-11.1c4-2.2,8.9-0.7,11.1,3.2
	c0.5,0.9,51.6,90.7,161.1,90.7s160.6-89.8,161.1-90.7c2.2-4,7.2-5.4,11.1-3.2c4,2.2,5.4,7.2,3.2,11.1C418.6,253,364.9,348,245.5,348
	z"/>
<path id="Top" class="st1" d="M413.8,253.2c-3,0-5.7-1.5-7.2-4.1c-0.5-0.9-51.6-90.7-161.1-90.7S84.9,248.1,84.4,249
	c-2.2,4-7.2,5.4-11.1,3.2c-4-2.2-5.4-7.2-3.2-11.1c2.2-4,55.9-99.1,175.5-99.1c119.4,0,173.1,95.2,175.5,99.1
	c2.2,4,0.7,8.9-3.2,11.2C416.5,252.8,415.2,253.1,413.8,253.2z"/>
</svg>
