<svg id="AMB" xmlns="http://www.w3.org/2000/svg" width="512" height="512" viewBox="0 0 512 512">
<defs>
    <style>
      .cls-1 {
        fill: #8ae3ff;
      }

      .cls-1, .cls-2 {
        fill-rule: evenodd;
      }

      .cls-2 {
        fill: #fff;
      }
    </style>
  </defs>
  <path id="Full" class="cls-1" d="M11,256c0,135.094,109.906,245,245,245S501,391.094,501,256,391.094,11,256,11,11,120.906,11,256Z"/>
  <path id="Dots" class="cls-2" d="M165.806,256.085a9.535,9.535,0,1,1-9.5,9.535A9.518,9.518,0,0,1,165.806,256.085Zm181.746-21.767a9.535,9.535,0,1,1-9.5,9.534A9.516,9.516,0,0,1,347.552,234.318Z"/>
  <path id="Middle" class="cls-2" d="M346.655,247.09a4.42,4.42,0,0,1-4.3-3.778,87.04,87.04,0,0,0-74.563-73.578,4.351,4.351,0,0,1,1.076-8.635c42.12,5.576,75.817,38.858,82.09,81.134a4.437,4.437,0,0,1-3.764,5.037C347.193,247.09,347.014,247.09,346.655,247.09Zm-22.583,75.018a4.059,4.059,0,0,1-2.868-1.079,4.309,4.309,0,0,1-.359-6.117,87.053,87.053,0,0,0,22.046-48.572,4.336,4.336,0,1,1,8.6,1.079,96.274,96.274,0,0,1-24.2,53.43A4.589,4.589,0,0,1,324.072,322.108Zm-55.564,29.324a4.42,4.42,0,0,1-4.3-3.778,4.3,4.3,0,0,1,3.764-4.857A87.347,87.347,0,0,0,308.3,326.426a4.366,4.366,0,0,1,5.2,7.016,95.882,95.882,0,0,1-44.451,18.17A0.656,0.656,0,0,0,268.508,351.432Zm-24.017,0h-0.538A95.529,95.529,0,0,1,161.5,267.419a4.336,4.336,0,1,1,8.6-1.079,86.945,86.945,0,0,0,74.92,76.457,4.4,4.4,0,0,1,3.764,4.857A4.285,4.285,0,0,1,244.491,351.432ZM166.164,247.09h-0.716a4.606,4.606,0,0,1-3.764-5.037,95.251,95.251,0,0,1,25.093-51.811,4.319,4.319,0,1,1,6.273,5.937,85.744,85.744,0,0,0-22.763,47.133A4.113,4.113,0,0,1,166.164,247.09Zm37.282-61.165a4.674,4.674,0,0,1-3.585-1.8,4.376,4.376,0,0,1,1.075-6.117,95.5,95.5,0,0,1,42.838-16.91,4.351,4.351,0,0,1,1.075,8.635,85.4,85.4,0,0,0-38.894,15.471A4.1,4.1,0,0,1,203.446,185.925ZM256.5,333.8c-42.659,0-77.251-34.9-77.251-77.537,0-42.816,34.772-77.536,77.251-77.536,42.658,0,77.25,34.9,77.25,77.536A77.4,77.4,0,0,1,256.5,333.8Zm0-146.438c-37.819,0-68.648,30.943-68.648,68.9s30.829,68.9,68.648,68.9,68.647-30.943,68.647-68.9C324.968,218.307,294.318,187.364,256.5,187.364Zm25.272,47.493a24.735,24.735,0,1,0-38.357,20.689l0.359-1.8a7.449,7.449,0,0,1,6.99-5.937h12.547a7.293,7.293,0,0,1,6.99,5.937l0.358,1.8A25.027,25.027,0,0,0,281.772,234.857Zm-38.357,20.689L236.6,297.282a4.989,4.989,0,0,0,5.019,5.937h30.829a4.9,4.9,0,0,0,5.018-5.937l-6.811-41.736A24.5,24.5,0,0,1,243.415,255.546Zm19.9-7.916H250.764a7.293,7.293,0,0,0-6.99,5.937l-0.359,1.8a25.326,25.326,0,0,0,13.622,4.137,23.881,23.881,0,0,0,13.622-4.137l-0.358-1.8A7.294,7.294,0,0,0,263.311,247.63Z"/>
  <path id="Bottom" class="cls-2" d="M256.5,358.988c-119.372,0-173.143-95.167-175.473-99.125a8.189,8.189,0,1,1,14.339-7.915c0.538,0.9,51.62,90.669,161.134,90.669s160.6-89.77,161.133-90.669a8.189,8.189,0,1,1,14.339,7.915C429.642,264,375.871,358.988,256.5,358.988Z"/>
  <path id="Top" class="cls-2" d="M424.8,264.181a8.051,8.051,0,0,1-7.169-4.138c-0.538-.9-51.62-90.669-161.133-90.669S95.9,259.144,95.366,260.043a8.189,8.189,0,1,1-14.339-7.915C83.178,248.17,136.949,153,256.5,153c119.371,0,173.142,95.167,175.472,99.125a8.263,8.263,0,0,1-3.226,11.153A10.455,10.455,0,0,1,424.8,264.181Z"/>
</svg>
