<?xml version="1.0" encoding="UTF-8" standalone="no"?>
<svg
   xmlns:dc="http://purl.org/dc/elements/1.1/"
   xmlns:cc="http://creativecommons.org/ns#"
   xmlns:rdf="http://www.w3.org/1999/02/22-rdf-syntax-ns#"
   xmlns:svg="http://www.w3.org/2000/svg"
   xmlns="http://www.w3.org/2000/svg"
   id="svg2670"
   version="1.1"
   viewBox="0 0 67.733332 67.733335"
   height="256"
   width="256">
  <defs
     id="defs2664" />
  <metadata
     id="metadata2667">
    <rdf:RDF>
      <cc:Work
         rdf:about="">
        <dc:format>image/svg+xml</dc:format>
        <dc:type
           rdf:resource="http://purl.org/dc/dcmitype/StillImage" />
        <dc:title></dc:title>
      </cc:Work>
    </rdf:RDF>
  </metadata>
  <g
     transform="translate(0,-229.26665)"
     id="layer1">
    <circle
       r="32.411457"
       cy="263.13333"
       cx="33.866665"
       id="path3215"
       style="opacity:1;fill:#ffffff;fill-opacity:1;fill-rule:nonzero;stroke:none;stroke-width:0.69222212;stroke-linecap:round;stroke-linejoin:round;stroke-miterlimit:4;stroke-dasharray:none;stroke-dashoffset:0;stroke-opacity:1;paint-order:stroke fill markers" />
    <path
       style="stroke-width:0.07788724"
       d="m 17.421036,278.68743 c -0.02336,-0.46731 -0.03116,-0.93464 -0.0078,-1.40196 0.155774,-0.0468 0.31155,-0.0779 0.475113,-0.10121 0.467323,-0.0779 0.934646,-0.19472 1.386392,-0.32713 0.12462,-0.0389 0.24924,-0.0857 0.373859,-0.13241 0.599731,-0.23365 1.129366,-0.62309 1.534379,-1.12157 0.280394,-0.35049 0.521844,-0.73214 0.73214,-1.12937 0.295971,-0.5452 0.552999,-1.11379 0.786661,-1.69015 0.467323,-1.16831 0.934648,-2.32883 1.394182,-3.49714 1.5889,-4.01897 3.177799,-8.03796 4.7667,-12.05694 1.503223,-3.82427 2.983081,-7.64853 4.431784,-11.49617 0.03115,-0.0779 0.06231,-0.15577 0.09346,-0.23365 0.537422,-0.14799 1.059267,-0.30377 1.604478,-0.45175 0.03116,0.0779 0.06231,0.14798 0.08567,0.21809 0.615308,1.71352 1.230618,3.42704 1.838138,5.14834 2.095168,5.84933 4.190334,11.69087 6.340022,17.51684 0.591944,1.5889 1.183887,3.1856 1.783618,4.77449 0.233662,0.64647 0.514056,1.28515 0.833394,1.89266 0.140197,0.26482 0.288183,0.51406 0.451746,0.7633 0.498478,0.77887 1.269562,1.33187 2.165267,1.56553 0.482898,0.12462 0.965801,0.22588 1.464278,0.28819 l 0.350494,0.0546 c 0.04673,0.15577 0.02337,0.30376 0.02337,0.45174 0,0.14799 0,0.31934 0,0.47511 0.0078,0.15578 0,0.30376 -0.0078,0.45954 -0.04673,0.007 -0.08567,0.0155 -0.132408,0.0234 -0.05453,0 -0.109041,0 -0.163562,0 H 37.866437 c -0.01558,-0.0234 -0.02336,-0.0546 -0.03115,-0.0857 0,-0.4206 0,-0.84118 0,-1.26177 0,-0.0156 0.0078,-0.0389 0.01558,-0.0546 0.101259,-0.0312 0.202507,-0.0467 0.31155,-0.0623 0.506267,-0.0701 1.004745,-0.16357 1.503223,-0.29597 0.194718,-0.0546 0.397225,-0.12463 0.584155,-0.20251 0.09346,-0.0389 0.186929,-0.0857 0.280394,-0.1402 0.49069,-0.2726 0.685408,-0.70099 0.638675,-1.24619 -0.02336,-0.24924 -0.06231,-0.49069 -0.132408,-0.73215 -0.101248,-0.37386 -0.233662,-0.73993 -0.358281,-1.09821 -2.554703,-7.12669 -5.07825,-14.26116 -7.578431,-21.41121 -0.02337,-0.0778 -0.03894,-0.16357 -0.116831,-0.23366 -0.02336,0.0155 -0.06231,0.0312 -0.07789,0.0467 -0.02336,0.0389 -0.03894,0.0778 -0.04673,0.11683 -1.222829,3.51272 -2.523547,7.00207 -3.816475,10.48363 -0.958013,2.57807 -1.916026,5.16392 -2.803941,7.76536 -0.358281,1.04368 -0.700985,2.09516 -1.0359,3.14664 -0.132409,0.40502 -0.225873,0.81782 -0.288182,1.23061 -0.04673,0.2804 -0.05452,0.5608 -0.02337,0.84898 0.03895,0.36607 0.233662,0.70098 0.537422,0.91907 0.194718,0.1402 0.412803,0.24924 0.646464,0.32713 0.366071,0.1324 0.739929,0.22587 1.121577,0.28818 0.420591,0.0779 0.841183,0.1402 1.269562,0.20251 0.03115,0.007 0.05453,0.007 0.09346,0.0155 0.0078,0.0312 0.01558,0.0623 0.02336,0.0935 0,0.40501 0,0.81782 0,1.22283 0,0.0234 -0.0078,0.0467 -0.01558,0.0701 -0.03895,0.008 -0.07789,0.0156 -0.116831,0.0156 -0.05452,0 -0.109042,0 -0.163563,0 l -10.865271,0.0389 z"
       id="path3309" />
  </g>
</svg>
