<svg xmlns="http://www.w3.org/2000/svg" width="256" height="256" xmlns:v="https://vecta.io/nano"><path d="M140.379 33.724l64.554 32.51c9.363 4.852 15.276 14.071 15.276 24.746v15.042h-23.653V90.98c0-1.456-.986-2.911-2.464-3.882l-64.554-32.51c-.986-.485-2.464-.485-3.942 0l-64.554 32.51c-1.478.485-2.464 1.941-2.464 3.882v15.042H34.924V90.98c0-10.19 5.913-19.894 15.276-24.746l64.554-32.51c7.884-3.882 17.247-3.882 25.625 0zm7.392 93.163c0-11.16-9.363-19.894-20.204-19.894-11.334 0-20.204 8.734-20.204 19.894s9.363 19.894 20.204 19.894 20.204-8.734 20.204-19.894zm45.828 41.729c1.478-.485 2.464-1.941 2.464-3.882v-15.042h23.653v15.042c0 10.19-5.913 19.894-15.276 24.746l-64.554 32.51c-3.942 1.941-8.377 2.911-12.812 2.911s-8.87-.97-12.812-2.911L50.2 189.48c-9.363-4.852-15.276-14.071-15.276-24.746v-15.042h23.653v15.042c0 1.456.986 2.911 2.464 3.882l54.698 27.172v-27.172c-18.726-5.337-32.031-21.835-32.031-41.729 0-23.776 19.711-43.67 44.35-43.67 24.146 0 44.35 19.409 44.35 43.67 0 19.894-13.798 36.877-32.031 41.729v27.172z" fill-rule="evenodd" fill="#245ae5" fill-opacity=".9"/><path d="M128.345 16.885c-61.536 0-111.6 50.064-111.6 111.6s50.064 111.6 111.6 111.6 111.6-50.064 111.6-111.6-50.064-111.6-111.6-111.6m0-11c67.551 0 122.6 55.044 122.6 122.6s-55.044 122.6-122.6 122.6-122.6-55.046-122.6-122.6 55.049-122.6 122.6-122.6z" fill="#474747"/></svg>