<?xml version="1.0" encoding="UTF-8" standalone="no"?>
<svg
   xmlns:dc="http://purl.org/dc/elements/1.1/"
   xmlns:cc="http://creativecommons.org/ns#"
   xmlns:rdf="http://www.w3.org/1999/02/22-rdf-syntax-ns#"
   xmlns:svg="http://www.w3.org/2000/svg"
   xmlns="http://www.w3.org/2000/svg"
   xmlns:sodipodi="http://sodipodi.sourceforge.net/DTD/sodipodi-0.dtd"
   xmlns:inkscape="http://www.inkscape.org/namespaces/inkscape"
   width="236"
   height="236"
   fill-rule="evenodd"
   version="1.1"
   id="svg10"
   sodipodi:docname="ANKR_ERC20.svg"
   inkscape:version="1.0.2-2 (e86c870879, 2021-01-15)">
  <metadata
     id="metadata16">
    <rdf:RDF>
      <cc:Work
         rdf:about="">
        <dc:format>image/svg+xml</dc:format>
        <dc:type
           rdf:resource="http://purl.org/dc/dcmitype/StillImage" />
      </cc:Work>
    </rdf:RDF>
  </metadata>
  <defs
     id="defs14" />
  <sodipodi:namedview
     pagecolor="#ffffff"
     bordercolor="#666666"
     borderopacity="1"
     objecttolerance="10"
     gridtolerance="10"
     guidetolerance="10"
     inkscape:pageopacity="0"
     inkscape:pageshadow="2"
     inkscape:window-width="1920"
     inkscape:window-height="1017"
     id="namedview12"
     showgrid="false"
     inkscape:zoom="3.3203125"
     inkscape:cx="118"
     inkscape:cy="118"
     inkscape:window-x="-8"
     inkscape:window-y="-8"
     inkscape:window-maximized="1"
     inkscape:current-layer="svg10" />
  <g
     transform="scale(7.375)"
     id="g8">
    <circle
       fill="#2e6bf6"
       fill-rule="nonzero"
       cx="16"
       cy="16"
       r="16"
       id="circle4" />
    <path
       d="m 17.314,6.3 6.62,3.35 c 0.96,0.5 1.566,1.45 1.566,2.55 v 1.55 H 23.074 V 12.2 c 0,-0.15 -0.1,-0.3 -0.252,-0.4 l -6.62,-3.35 c -0.1,-0.05 -0.253,-0.05 -0.404,0 L 9.178,11.8 C 9.027,11.85 8.926,12 8.926,12.2 v 1.55 H 6.5 V 12.2 c 0,-1.05 0.606,-2.05 1.566,-2.55 l 6.62,-3.35 c 0.809,-0.4 1.769,-0.4 2.628,0 z m 0.758,9.6 c 0,-1.15 -0.96,-2.05 -2.072,-2.05 -1.162,0 -2.072,0.9 -2.072,2.05 0,1.15 0.96,2.05 2.072,2.05 1.112,0 2.072,-0.9 2.072,-2.05 z m 4.7,4.3 c 0.15,-0.05 0.252,-0.2 0.252,-0.4 v -1.55 h 2.425 v 1.55 c 0,1.05 -0.606,2.05 -1.566,2.55 l -6.62,3.35 C 16.859,25.9 16.404,26 15.949,26 A 2.97,2.97 0 0 1 14.636,25.7 L 8.066,22.35 C 7.106,21.85 6.5,20.9 6.5,19.8 v -1.55 h 2.426 v 1.55 c 0,0.15 0.1,0.3 0.252,0.4 l 5.61,2.8 v -2.8 c -1.921,-0.55 -3.285,-2.25 -3.285,-4.3 0,-2.45 2.02,-4.5 4.548,-4.5 2.476,0 4.547,2 4.547,4.5 0,2.05 -1.414,3.8 -3.284,4.3 V 23 l 5.457,-2.8 z"
       fill="#ffffff"
       id="path6" />
  </g>
</svg>
