<?xml version="1.0" encoding="utf-8"?>
<!-- Generator: Adobe Illustrator 22.0.0, SVG Export Plug-In . SVG Version: 6.00 Build 0)  -->
<svg version="1.1" id="ANON" xmlns="http://www.w3.org/2000/svg" xmlns:xlink="http://www.w3.org/1999/xlink" x="0px" y="0px"
	 viewBox="0 0 245 245" style="enable-background:new 0 0 245 245;" xml:space="preserve">
<style type="text/css">
	.st0{fill:#BA252B;}
	.st1{fill:none;stroke:#FFFFFF;stroke-width:7;stroke-linecap:round;stroke-linejoin:round;}
	.st2{fill:#FFFFFF;}
</style>
<path id="Main-F" class="st0" d="M0,122.5C0,190,55,245,122.5,245S245,190,245,122.5S190,0,122.5,0S0,55,0,122.5z"/>
<circle id="Round" class="st1" cx="122.5" cy="122.5" r="87.5"/>
<path class="st2" d="M171.5,50l-7-4L141,79l-6.5-2l23-33.5l-7.5-3l-63.5,89l-16-4l-12,17L75,146l-21.5,30l5,5.5l25-33L90,150l-26,37
	l6,4.5l28.5-39l43,10.5l6.5,43.5l19-8.5L149.5,81L171.5,50z M111,135.5l22-30.5l5.5,37L111,135.5z"/>
</svg>
