<?xml version="1.0" encoding="utf-8"?>
<!-- Generator: Adobe Illustrator 22.0.0, SVG Export Plug-In . SVG Version: 6.00 Build 0)  -->
<svg version="1.1" id="Lager_1" xmlns="http://www.w3.org/2000/svg" xmlns:xlink="http://www.w3.org/1999/xlink" x="0px" y="0px"
	 viewBox="0 0 256 256" style="enable-background:new 0 0 256 256;" xml:space="preserve">
<style type="text/css">
	.st0{fill:#01C0E3;}
	.st1{fill:#FFFFFF;}
	.st2{fill:none;stroke:#FFFFFF;stroke-width:20;}
</style>
<g id="Page-1">
	<g id="Aragon">
		<path id="Full" class="st0" d="M0,128c0,70.6,57.4,128,128,128s128-57.4,128-128S198.6,0,128,0S0,57.4,0,128z"/>
		<path id="A-Nose" class="st1" d="M170.4,94c3.7,5,5.7,11,5.7,17.3c0,7.5-3.1,14.5-8.4,20.1l3.2,12h9.8l10.3-11.7l2.8-17.1
			l0.6-10.2L184.2,93L170.4,94z"/>
		<path id="A-Body" class="st1" d="M57.1,144.9l1.8,7.1c0,0,21.1,43.2,68.6,59.3c0,0,44.5-18.4,63.7-49.6l-27.8-23.1
			c0,0-12.7,10.1-31.5,10.1s-44.4-11.2-44.4-34.3s26.5-31.6,26.5-31.6l-11.3-2.8H73.7L55.4,124L57.1,144.9z"/>
		<path id="A-Round" class="st1" d="M133.8,57.5c28.8,0.1,52.1,23.4,52.1,52.3s-23.4,52.1-52.2,52.1c-28.8,0-52.1-23.4-52.1-52.2
			c0-13.9,5.5-27.1,15.3-36.9S119.9,57.5,133.8,57.5L133.8,57.5z"/>
		<path id="A-Background" class="st0" d="M216.9,98.4c-0.8-0.8-24.2-25.5-88.4-47.6l-0.4-0.2C65.9,72,39.2,98.4,39.2,98.4
			c2.4,14.1,8.5,29.8,14.1,42c0.5,1,7.8,14,13.3,21.1c-3.2-7.1-6.7-13.2-6.7-23.8c0-29.9,23.2-54.1,52.2-55.2c0.7,0,1.4,0,2.1,0.1
			l-6.9-6.9c0,0,27.8-4.7,63.6,16.9c0,0,0.5,1.1,0,4.3c0,0,16.8,7.2,18.3,21.3c1.4,14.1-7.5,22.1-14.7,23.3c0,0,3.7-5.8-2-8.9
			c-1.3-0.7-2.7-1-4.1-0.9l0,0c-11,0-12.3,12.5-12.3,12.5c-0.1,0.6-0.1,1.3-0.1,1.9c0,0-1.8,18.4,30.9,18c0,0,16.6-18.8,21-35.6
			c1.6-6.2,2.8-10.9,3.5-14.3c1.8-4.9,3.6-10,5.4-15.2L216.9,98.4z"/>
		<path id="A-Eye" class="st0" d="M156.5,98.6c1.4-0.7,2.6-1.6,3.7-2.8c2.3,0.3,4.6,0.9,6.9,1.6c-6.3-3.8-14.9-6-24.4-6
			c0,0,3.6,5.2,13.7,7.3L156.5,98.6z"/>
		<path id="A-Shield" class="st2" d="M41.8,96.7c3.4,15.5,8.8,30.6,16,44.7c7.4,14.5,16.4,27.1,26.7,37.6
			c12.2,12.4,27,21.9,43.3,27.8c16.1-5.8,30.7-15.2,43.3-27.8c10.3-10.4,19.3-23,26.7-37.6c7.2-14.1,12.6-29.1,16-44.6
			c-34-28-76.1-42.8-86-46C117.9,53.9,76,68.5,41.8,96.7z"/>
	</g>
</g>
</svg>
