<?xml version="1.0" encoding="utf-8"?>
<!-- Generator: Adobe Illustrator 22.0.0, SVG Export Plug-In . SVG Version: 6.00 Build 0)  -->
<svg version="1.1" id="Aurora" xmlns="http://www.w3.org/2000/svg" xmlns:xlink="http://www.w3.org/1999/xlink" x="0px" y="0px"
	 viewBox="0 0 245 245" style="enable-background:new 0 0 245 245;" xml:space="preserve">
<style type="text/css">
	.st0{fill:#6EE4E5;}
	.st1{fill:none;stroke:#FFFFFF;stroke-width:4;stroke-linecap:round;stroke-linejoin:round;}
	.st2{fill:none;stroke:#FFFFFF;stroke-linecap:round;stroke-linejoin:round;}
</style>
<path id="Full" class="st0" d="M0,122.5C0,190,55,245,122.5,245S245,190,245,122.5S190,0,122.5,0S0,55,0,122.5z"/>
<g id="Aurora-2">
	<path id="Left" class="st1" d="M122.5,47L41,141.5l81.5,56.5V47z"/>
	<path id="Right" class="st1" d="M122.5,47l81.5,94.5L122.5,198V47z"/>
	<path id="First_Line" class="st2" d="M69.5,161.5c7.3-5.8,52,12.6,31-35s21.5-11,21.5-11s20.1,16.3,25.5,22"/>
	<path id="Second_Line" class="st2" d="M108,62c-3.9,17.7,14.5,37.7,35.5,47.5c12.2,7,58,8.5,35.5,50"/>
</g>
</svg>
