<svg xmlns="http://www.w3.org/2000/svg" width="250" height="250" fill="none" xmlns:v="https://vecta.io/nano"><circle cx="125" cy="125" r="125" fill="#fff"/><g transform="matrix(2.078928 0 0 2.078928 28.938703 26.765901)"><path d="M35.604 9.785c-.395 0-.643.428-.445.771l33.315 57.818h21.722c.396 0 .643-.429.445-.772l-33.324-57.56c-.092-.159-.261-.256-.445-.256z" fill="url(#A)"/><path d="M12.198 48.844H79.78l10.86 18.758c.198.343-.049.771-.445.771H1.783c-.396 0-.643-.429-.445-.771z" fill="url(#B)"/><path d="M57.167 9.781L23.35 68.369H1.782c-.396 0-.643-.428-.445-.771l33.23-57.56c.092-.159.261-.257.445-.257z" fill="url(#C)"/></g><defs><linearGradient id="A" x1="51" y1="19.549" x2="78.575" y2="67.299" gradientUnits="userSpaceOnUse"><stop stop-color="#08aeea"/><stop offset="1" stop-color="#2af598"/></linearGradient><linearGradient id="B" x1="27.616" y1="60.15" x2="63.591" y2="60.425" gradientUnits="userSpaceOnUse"><stop stop-color="#08aeea"/><stop offset="1" stop-color="#2af598"/></linearGradient><linearGradient id="C" x1="47.483" y1=".767" x2="29.184" y2="31.034" gradientUnits="userSpaceOnUse"><stop stop-color="#08aeea"/><stop offset="1" stop-color="#2af598"/></linearGradient></defs></svg>