<svg width="256" height="256" viewBox="0 0 490 490" version="1.1" xmlns="http://www.w3.org/2000/svg" xmlns:xlink="http://www.w3.org/1999/xlink">
    <defs></defs>
    <g id="Page-1" stroke="none" stroke-width="1" fill="none" fill-rule="evenodd">
        <g id="Aragon">
            <path d="M0,245 C0,380.094 109.906,490 245,490 C380.094,490 490,380.094 490,245 C490,109.906 380.094,0 245,0 C109.906,0 0,109.906 0,245 Z" id="Full" fill="#01C0E3"></path>
            <path d="M326.186,179.979 C333.293521,189.524702 337.125625,201.111862 337.111,213.013 C337.111,227.438 331.152,240.762 321,251.553 L327.179,274.566 L345.943,274.566 L365.696,252.213 L370.996,219.513 L372.096,200.022 L352.564,178 L326.186,179.979 Z" id="A-Nose" fill="#FFFFFF"></path>
            <path d="M109.201,277.428 L112.621,290.972 C112.621,290.972 153.009,373.672 243.935,404.389 C243.935,404.389 329.123,369.153 365.869,309.361 L312.681,265.206 C312.681,265.206 288.405,284.475 252.321,284.475 C216.237,284.475 167.242,263.003 167.242,218.738 C167.242,174.473 218.002,158.285 218.002,158.285 L196.374,153 L141.091,153 L106,237.352 L109.201,277.428 Z" id="A-Body" fill="#FFFFFF"></path>
            <path d="M256.085,110.000056 C311.215196,110.117081 355.823325,154.882824 355.745901,210.01309 C355.668478,265.143355 310.93479,309.783629 255.804483,309.745808 C200.674176,309.707986 156.00178,265.006376 156,209.876056 C156.027303,183.359452 166.58738,157.939791 185.357048,139.209318 C204.126716,120.478846 229.568397,109.971929 256.085,110.000056 L256.085,110.000056 Z" id="A-Round" fill="#FFFFFF"></path>
            <path d="M415.091,188.394 C413.546,186.853 368.745,139.504 245.928,97.33 L245.156,97 C126.201,137.74 75,188.392 75,188.392 C79.635,215.37 91.331,245.431 101.925,268.775 C102.807,270.757 116.932,295.643 127.415,309.187 C121.235,295.643 114.504,283.861 114.504,263.6 C114.504,206.451 158.864,159.983 214.369,158 C215.693,158 217.127,158 218.452,158.11 L205.21,144.897 C205.21,144.897 258.51,135.978 326.923,177.271 C326.923,177.271 327.916,179.363 326.923,185.529 C326.923,185.529 359.145,199.404 361.903,226.382 C364.661,253.36 347.558,268.775 333.765,270.982 C333.765,270.982 340.937,259.86 329.903,253.914 C327.50591,252.609743 324.792682,251.999569 322.068,252.152 L322.068,252.152 C300.991,252.152 298.568,276.152 298.568,276.152 C298.38439,277.354136 298.310419,278.570473 298.347,279.786 C298.347,279.786 294.816,314.912 357.493,314.251 C357.493,314.251 389.273,278.351 397.66,246.091 C400.75,234.199 402.96,225.279 404.391,218.673 C407.924333,209.313 411.345,199.623 414.653,189.603 L415.091,188.394 Z" id="A-Background" fill="#01C0E3"></path>
            <path d="M299.483,188.766063 C302.127274,187.428944 304.517557,185.640039 306.546,183.480063 C310.993555,184.129084 315.383823,185.123423 319.677,186.454063 C307.649,179.186063 291.207,174.892063 273,175.002063 C273,175.002063 279.952,184.912063 299.263,188.986063 L299.483,188.766063 Z" id="A-Eye" fill="#01C0E3"></path>
            <path d="M80,185.03525 C86.4775398,214.785962 96.7749871,243.57417 110.636193,270.683768 C124.826825,298.453023 142.040718,322.641158 161.800731,342.580993 C185.088305,366.269033 213.386632,384.439369 244.617049,395.757292 C275.522976,384.6124 303.382142,366.688413 327.439497,342.466561 C347.116751,322.609485 364.329622,298.382524 378.598926,270.461034 C392.403753,243.404206 402.697349,214.695443 409.230011,185.031163 C344.167053,131.444134 263.612817,103.191607 244.610919,97 C225.707105,103.103739 145.557469,131.030338 80,185.03525 Z" id="A-Shield" stroke="#FFFFFF" stroke-width="20"></path>
        </g>
    </g>
</svg>