<?xml version="1.0" encoding="UTF-8"?>
<svg xmlns="http://www.w3.org/2000/svg" version="1.1" viewBox="0 0 250 250">
  <defs>
    <style>
      .cls-1 {
        fill: none;
      }

      .cls-2 {
        fill: #12aaff;
      }

      .cls-3 {
        fill: #fff;
      }

      .cls-4 {
        fill: #9dcced;
      }

      .cls-5 {
        fill: #213147;
      }
    </style>
  </defs>
  <!-- Generator: Adobe Illustrator 28.6.0, SVG Export Plug-In . SVG Version: 1.2.0 Build 709)  -->
  <g>
    <g id="Layer_1">
      <circle class="cls-3" cx="125" cy="125" r="122.5"/>
      <g id="Layer_x5F_1">
        <g id="_2405588477232">
          <rect class="cls-1" x="28.8" y="28.8" width="192.4" height="192.4"/>
          <g>
            <path class="cls-5" d="M46.2,87.3v75.4c0,4.8,2.5,9.2,6.8,11.7l65.4,37.7c4.2,2.4,9.3,2.4,13.5,0l65.4-37.7c4.2-2.4,6.8-6.9,6.8-11.7v-75.4c0-4.8-2.5-9.2-6.8-11.7l-65.4-37.7c-4.2-2.4-9.3-2.4-13.5,0l-65.4,37.7c-4.2,2.4-6.7,6.9-6.7,11.7h0Z"/>
            <g>
              <path class="cls-2" d="M139.2,139.6l-9.3,25.6c-.2.7-.2,1.5,0,2.2l16,44,18.6-10.7-22.2-61c-.5-1.4-2.5-1.4-3,0Z"/>
              <path class="cls-2" d="M157.9,96.7c-.5-1.4-2.5-1.4-3,0l-9.3,25.6c-.2.7-.2,1.5,0,2.2l26.2,72,18.6-10.7-32.5-89h0Z"/>
            </g>
            <path class="cls-4" d="M125,40.7c.5,0,.9.2,1.3.4l70.7,40.8c.8.5,1.3,1.4,1.3,2.3v81.6c0,.9-.5,1.8-1.3,2.3l-70.7,40.8c-.4.2-.8.4-1.3.4s-.9-.2-1.3-.4l-70.7-40.8c-.8-.5-1.3-1.4-1.3-2.3v-81.7c0-.9.5-1.8,1.3-2.3l70.7-40.8c.4-.2.8-.4,1.3-.4h0ZM125,28.8c-2.5,0-5,.6-7.3,1.9l-70.7,40.8c-4.5,2.6-7.3,7.4-7.3,12.6v81.6c0,5.2,2.8,10,7.3,12.6l70.7,40.8c2.2,1.3,4.8,1.9,7.3,1.9s5-.6,7.3-1.9l70.7-40.8c4.5-2.6,7.3-7.4,7.3-12.6v-81.6c0-5.2-2.8-10-7.3-12.6l-70.7-40.8c-2.2-1.3-4.8-1.9-7.3-1.9h0Z"/>
            <polygon class="cls-5" points="78.2 196.5 84.7 178.7 97.8 189.5 85.6 200.7 78.2 196.5"/>
            <g>
              <path class="cls-3" d="M119,78.4h-17.9c-1.3,0-2.5.8-3,2.1l-38.4,105.3,18.6,10.7,42.3-116c.4-1.1-.4-2.2-1.5-2.2h0Z"/>
              <path class="cls-3" d="M150.4,78.4h-17.9c-1.3,0-2.5.8-3,2.1l-43.9,120.2,18.6,10.7,47.7-130.9c.4-1.1-.4-2.2-1.5-2.2h0Z"/>
            </g>
          </g>
        </g>
      </g>
    </g>
  </g>
</svg>