<?xml version="1.0" encoding="utf-8"?>
<!-- Generator: Adobe Illustrator 22.0.0, SVG Export Plug-In . SVG Version: 6.00 Build 0)  -->
<svg version="1.1" id="Aeron" xmlns="http://www.w3.org/2000/svg" xmlns:xlink="http://www.w3.org/1999/xlink" x="0px" y="0px"
	 viewBox="0 0 245 245" style="enable-background:new 0 0 245 245;" xml:space="preserve">
<style type="text/css">
	.st0{fill:#033152;}
	.st1{fill:none;stroke:#FFFFFF;stroke-width:5;}
	.st2{fill:#FFFFFF;}
</style>
<path id="Full" class="st0" d="M0,122.5C0,190,55,245,122.5,245S245,190,245,122.5S190,0,122.5,0S0,55,0,122.5z"/>
<g id="Aeron-2">
	<path id="Shield" class="st1" d="M50.1,60.2c19.1-11,43.2-16.5,72.4-16.4c29.1,0,53.3,5.5,72.4,16.4c3.4,1.9,5.3,5.6,5.1,9.5
		l-3.8,62.4c-1.6,26.5-15.7,50.6-38,65l-30.1,19.5c-3.4,2.2-7.7,2.2-11.1,0l-30.1-19.5c-22.2-14.4-36.3-38.5-38-65L45,69.7
		C44.8,65.8,46.7,62.1,50.1,60.2z"/>
	<path id="Plane" class="st2" d="M162.7,107.6c4.6,0,8.3,3.7,8.3,8.3c0,4.6-3.7,8.3-8.3,8.3s-8.3-3.7-8.3-8.3
		C154.4,111.3,158.1,107.6,162.7,107.6L162.7,107.6z M122.7,179c4.6,0,8.3,3.7,8.3,8.3s-3.7,8.3-8.3,8.3c-4.6,0-8.3-3.7-8.3-8.3
		C114.4,182.7,118.1,179,122.7,179L122.7,179L122.7,179z M80.8,107.6c4.6,0,8.3,3.7,8.3,8.3c0,4.6-3.7,8.3-8.3,8.3
		c-4.6,0-8.3-3.7-8.3-8.3c0,0,0,0,0,0C72.5,111.3,76.2,107.6,80.8,107.6z M122.7,188.2v27.9 M122.5,86.4c-2.5,0.1-4.4,2-4.5,4.5
		v16.5l-24,15l2.6,5.6L118,121v16.5l-6,4.5v4.5l10.5-3l10.5,3V142l-6-4.5V121l21.1,7.5l2.9-6l-24-15V90.9
		C126.9,88.5,125,86.5,122.5,86.4z"/>
	<path id="Down" class="st1" d="M50.9,60.2l68.5,123.9l0,0c1,1.8,3.3,2.5,5.1,1.5c0.6-0.3,1.1-0.9,1.5-1.5l68-124.5"/>
	<path id="Up" class="st1" d="M56.2,162.2l65-116.2l0,0c0.6-1.1,2-1.5,3.1-0.9c0.4,0.2,0.7,0.5,0.9,0.9l63.2,116.6"/>
	<path id="Middle" class="st1" d="M64.2,174.9c5.6,1.3,25.3,6.1,59.1,14.3l58.8-15.5"/>
	<path id="Last" class="st1" d="M122.7,188.2v27.9"/>
</g>
</svg>
