<svg xmlns="http://www.w3.org/2000/svg" width="250" height="250" xmlns:v="https://vecta.io/nano"><circle cx="125" cy="125" r="119.388" fill="#1b2737" stroke="#fff" stroke-width="1.224"/><path d="M33.285 173.558c.249-1.697 81.825-83.442 84.901-85.077 5.163-2.744 12.48-.453 15.29 4.787 1.081 2.015 1.555 4.711 1.555 8.846v5.948l22.794-22.737 22.794-22.737 3.58-1.376c4.34-1.668 11.971 2.733 12.937 7.981h0v49.544 49.544l.038 6.643-6.643-.038h-78.72c-70.926 0-78.701-.132-78.525-1.331zm58.782-22.491c3.721-3.743 7.36-6.806 8.085-6.806.738 0 2.986 2.812 5.102 6.381l3.783 6.381h4.489 4.489V134.62v-22.403l-11.078 11.188-22.826 22.828-11.748 11.64h6.469 6.469zm88.054-28.324V88.464l-22.545 22.602-22.545 22.602v11.677 11.677h22.545 22.545z" fill="#fff"/></svg>