<?xml version="1.0" encoding="UTF-8"?><svg id="CIRCLE_OUTLINE_BLACK" xmlns="http://www.w3.org/2000/svg" xmlns:xlink="http://www.w3.org/1999/xlink" viewBox="0 0 512 512"><defs><mask id="mask" x="95.08301" y="117.51662" width="321.83972" height="252.58583" maskUnits="userSpaceOnUse"><g id="mask0_660_83399"><path d="M416.91755,117.51662H95.08943v252.58583h321.82812V117.51662Z" fill="#fff"/></g></mask></defs><path d="M255.99985,512.0001c141.385,0,256.00015-114.61512,256.00015-256.00015S397.38485-.0001,255.99985-.0001,0,114.61495,0,255.99995s114.615,256.00015,255.99985,256.00015Z" fill="#1f2925"/><g mask="url(#mask)"><path d="M289.96147,117.51662h-67.93457c-7.82446,0-14.95453,4.46462-18.35005,11.48342l-34.73059,71.81028c-4.34456,8.97954,2.2242,19.39806,12.23878,19.39806h46.86877c6.51846,0,12.45939-3.72161,15.29359-9.57167l12.64757-26.14691,64.79214,133.94669-87.53866-63.11791c-3.48149-2.50324-7.65571-3.85625-11.95162-3.85625h-64.08009c-7.82541,0-14.95437,4.46462-18.35021,11.48277l-42.42004,87.75929c-4.34554,8.97951,2.22371,19.39806,12.23941,19.39806h46.86698c6.51799,0,12.45892-3.71997,15.29473-9.57169l34.4418-71.2019,94.89101,71.9287c7.56974,5.73329,16.80397,8.8449,26.31076,8.8449h76.8281c10.01618,0,16.58494-10.41855,12.24041-19.39806l-107.24822-221.70436c-3.39552-7.0188-10.52559-11.48342-18.35002-11.48342Z" fill="#d7fe51"/></g></svg>