<svg id="Atlant" xmlns="http://www.w3.org/2000/svg" width="256" height="256" viewBox="0 0 512 512">
  <defs>
    <style>
      .cls-1 {
        fill: #004dff;
      }

      .cls-1, .cls-2 {
        fill-rule: evenodd;
      }

      .cls-2 {
        fill: #fff;
      }
    </style>
  </defs>
  <path id="Full" class="cls-1" d="M11,256c0,135.094,109.906,245,245,245S501,391.094,501,256,391.094,11,256,11,11,120.906,11,256Z"/>
  <path id="Atlant-2" data-name="Atlant" class="cls-2" d="M276.869,99.543c19.79,10.447,27.658,35.545,17.577,56.041L177.062,394.245c-10.087,20.5-34.31,28.652-54.094,18.2s-27.658-35.538-17.577-56.034l117.39-238.661c10.081-20.5,34.3-28.652,54.088-18.205V99.543ZM360.618,262.7l-45.353,91.152L335.012,394c10.075,20.485,34.267,28.634,54.039,18.187s27.639-35.507,17.552-55.985l-45.991-93.5h0.006Z"/>
</svg>
