<?xml version="1.0" encoding="utf-8"?>
<!-- Generator: Adobe Illustrator 22.0.0, SVG Export Plug-In . SVG Version: 6.00 Build 0)  -->
<svg version="1.1" id="Atlant" xmlns="http://www.w3.org/2000/svg" xmlns:xlink="http://www.w3.org/1999/xlink" x="0px" y="0px"
	 viewBox="0 0 245 245" style="enable-background:new 0 0 245 245;" xml:space="preserve">
<style type="text/css">
	.st0{fill:#004DFF;}
	.st1{fill:#FFFFFF;}
</style>
<path id="Full" class="st0" d="M0,122.5C0,190,55,245,122.5,245S245,190,245,122.5S190,0,122.5,0S0,55,0,122.5z"/>
<path id="Atlant-2" class="st1" d="M132.9,44.3c9.9,5.2,13.8,17.8,8.8,28L83,191.6c-5,10.2-17.2,14.3-27,9.1s-13.8-17.8-8.8-28
	l58.7-119.3C110.9,43.1,123,39,132.9,44.3L132.9,44.3z M174.8,125.9l-22.7,45.6l9.9,20.1c5,10.2,17.1,14.3,27,9.1s13.8-17.8,8.8-28
	L174.8,125.9L174.8,125.9L174.8,125.9z"/>
</svg>
