<svg xmlns="http://www.w3.org/2000/svg" xmlns:xlink="http://www.w3.org/1999/xlink" width="96" height="96" xmlns:v="https://vecta.io/nano"><defs><path id="A" d="M8 15.5L.5.5h15z"/><path d="M26 20.487L12.588 49.322c-.443.924-.673 1.674-1.648 1.674L2.081 51c-1.27 0-1.97-.331-1.354-1.674L22.39 2.112c.442-.785.717-1.362 1.693-1.362h3.835c.975 0 1.25.577 1.693 1.362l21.661 47.214C51.89 50.669 51.189 51 49.919 51l-8.859-.004c-.975 0-1.205-.75-1.648-1.674L26 20.487h0z" id="B"/></defs><circle cx="48" cy="48" r="48" fill="#17181d"/><g fill="none" fill-rule="evenodd"><g transform="translate(40 67)"><mask id="C" fill="#fff"><use xlink:href="#A"/></mask><path fill="#32feff" mask="url(#C)" d="M-3.25 19.25h22.5v-22.5h-22.5z"/></g><g transform="translate(22 21)"><mask id="D" fill="#fff"><use xlink:href="#B"/></mask><path fill="#fff" mask="url(#D)" d="M-3.25 54.75h58.5V-3h-58.5z"/></g></g></svg>