<?xml version="1.0" encoding="UTF-8" standalone="no"?>
<svg
   xmlns:dc="http://purl.org/dc/elements/1.1/"
   xmlns:cc="http://creativecommons.org/ns#"
   xmlns:rdf="http://www.w3.org/1999/02/22-rdf-syntax-ns#"
   xmlns:svg="http://www.w3.org/2000/svg"
   xmlns="http://www.w3.org/2000/svg"
   xmlns:sodipodi="http://sodipodi.sourceforge.net/DTD/sodipodi-0.dtd"
   xmlns:inkscape="http://www.inkscape.org/namespaces/inkscape"
   version="1.1"
   id="svg2"
   width="236"
   height="236"
   viewBox="0 0 236 236"
   sodipodi:docname="AUDIO_ERC20.svg"
   inkscape:version="1.0.2-2 (e86c870879, 2021-01-15)">
  <metadata
     id="metadata10">
    <rdf:RDF>
      <cc:Work
         rdf:about="">
        <dc:format>image/svg+xml</dc:format>
        <dc:type
           rdf:resource="http://purl.org/dc/dcmitype/StillImage" />
      </cc:Work>
    </rdf:RDF>
  </metadata>
  <defs
     id="defs6" />
  <sodipodi:namedview
     id="namedview4"
     pagecolor="#ffffff"
     bordercolor="#666666"
     borderopacity="1.0"
     inkscape:pageshadow="2"
     inkscape:pageopacity="0.0"
     inkscape:pagecheckerboard="0"
     showgrid="false"
     inkscape:zoom="3.3512476"
     inkscape:cx="236.32617"
     inkscape:cy="138.75057"
     inkscape:window-width="1920"
     inkscape:window-height="1017"
     inkscape:window-x="-8"
     inkscape:window-y="-8"
     inkscape:window-maximized="1"
     inkscape:current-layer="g8"
     inkscape:document-rotation="0" />
  <g
     inkscape:groupmode="layer"
     inkscape:label="Image"
     id="g8"
     transform="translate(-10,-10)">
    <g
       id="g9368"
       transform="matrix(0.0944,0,0,0.0944,10,10.000012)">
      <circle
         style="fill:#d127e3;fill-opacity:1;stroke-width:1.00685;paint-order:stroke fill markers"
         id="path972"
         cx="1250"
         cy="1249.9999"
         r="1250" />
      <path
         style="fill:#ffffff;fill-opacity:1;stroke:#000000;stroke-width:0.796566;stroke-opacity:1"
         d="m 838.20073,1948.8717 c -15.15175,-1.9109 -29.05954,-13.4174 -33.93736,-28.0777 -2.14733,-6.454 -2.20027,-20.2593 -0.10149,-26.463 0.80893,-2.3912 38.37646,-67.3025 83.48338,-144.2474 78.1916,-133.3818 82.27437,-140.1609 87.63166,-145.504 3.4472,-3.438 7.3661,-6.4389 10.1392,-7.764 9.873,-4.7177 -4.1574,-4.4181 207.43128,-4.4283 213.6297,-0.015 198.0075,0.3518 208.4337,-4.831 16.8998,-8.4007 25.9393,-30.8263 19.2977,-47.8745 -2.528,-6.4893 -209.5,-359.4719 -213.2116,-363.6239 -7.1838,-8.0364 -18.2316,-12.8961 -29.318,-12.8961 -11.7238,0 -20.5553,3.5395 -28.581,11.4545 -4.3461,4.2862 -14.2523,20.8384 -101.4782,169.5593 -53.16398,90.6451 -98.19787,166.9673 -100.07516,169.6044 -5.70791,8.0183 -14.96202,13.9262 -25.2164,16.0983 -3.34004,0.7074 -45.16441,0.8759 -171.78314,0.692 l -167.36815,-0.2431 -4.81634,-1.8012 c -13.88128,-5.1914 -23.96678,-16.5054 -27.3638,-30.6969 -1.70725,-7.132 -1.11435,-16.331 1.49855,-23.2502 1.06271,-2.814 134.14724,-230.2771 295.74341,-505.47316 326.26933,-555.63268 297.47623,-507.93199 310.40303,-514.23513 16.5673,-8.07837 36.3493,-5.01589 49.0536,7.59407 4.3936,4.36104 41.4961,67.44547 421.2604,716.25892 229.0433,391.3122 417.1474,713.4516 418.0088,715.8653 7.7241,21.6398 -5.0269,46.7797 -27.1372,53.5045 -5.128,1.5597 -8.7287,1.5687 -591.265,1.4656 -322.3578,-0.057 -588.18725,-0.3662 -590.7319,-0.6873 z"
         id="path845"
         sodipodi:nodetypes="sssssscssssssssscssssssscssss" />
    </g>
  </g>
</svg>
