<svg id="Aurora" xmlns="http://www.w3.org/2000/svg" width="256" height="256" viewBox="0 0 512 512">
  <defs>
    <style>
      .cls-1 {
        fill: #6ee4e5;
      }

      .cls-1, .cls-2, .cls-3 {
        fill-rule: evenodd;
      }

      .cls-2, .cls-3 {
        fill: none;
        stroke: #fff;
        stroke-linecap: round;
        stroke-linejoin: round;
      }

      .cls-2 {
        stroke-width: 8px;
      }

      .cls-3 {
        stroke-width: 3px;
      }
    </style>
  </defs>
  <path id="Full" class="cls-1" d="M11,256c0,135.094,109.906,245,245,245S501,391.094,501,256,391.094,11,256,11,11,120.906,11,256Z"/>
  <g id="Aurora-2" data-name="Aurora">
    <path id="Left" class="cls-2" d="M256,105L93,294,256,407V105Z"/>
    <path id="Right" class="cls-2" d="M256,105.031L419,294.012,256,407V105.031Z"/>
    <path id="First_Line" data-name="First Line" class="cls-3" d="M150,334c14.635-11.5,104.047,25.225,62-70s43-22,43-22,40.237,32.547,51,44"/>
    <path id="Second_Line" data-name="Second Line" class="cls-3" d="M227,135c-7.8,35.4,29,75.405,71,95,24.31,13.924,115.954,17,71,100"/>
  </g>
</svg>
