<svg xmlns="http://www.w3.org/2000/svg" width="340" height="340" xmlns:v="https://vecta.io/nano"><defs><linearGradient id="A" x1="185.726" y1="50.096" x2="183.389" y2="237.427" gradientUnits="userSpaceOnUse"><stop offset="0" stop-color="#e256ca"/><stop offset="1" stop-color="#8c89d0"/></linearGradient><linearGradient id="B" x1="207.146" y1="182.096" x2="204.943" y2="299.746" gradientUnits="userSpaceOnUse"><stop offset="0" stop-color="#5993d5"/><stop offset="1" stop-color="#01e7d6"/></linearGradient></defs><g transform="translate(-13.631 7.4)"><path d="M14.96 169.667c18.791.382 281.386-.738 337.823.236.421 78.516-78.052 163.003-169.098 162.74-94.036-.303-168.854-71.277-168.726-162.976z" fill="url(#B)"/><path d="M180.66 330.153c-1.106-3.461-37.199-83.29-57.985-128.25-6.866-14.85-14.099-32.532-14.392-33.234 12.2-.782 17.416-1.285 28.504-1.549l12.458 30.783c5.619 13.885 14.89 34.225 19.883 45.5l11.037 25.5c2.999 7.654 4.339 7.024 8.942-4.203 2.209-5.388 9.634-22.622 16.499-38.297l17.882-41 6.777-15.529c7.54-.2 20.834-.249 28.888.322-1.515 3.512-4.552 9.711-7.927 16.807-13.327 28.015-65.863 143.669-65.863 144.993 0 2.88-3.651 1.45-4.703-1.842zM14.362 162.903C14.107 59.647 105.207-7.519 184.167-7.4c75.673.114 169.354 66.673 168.759 170.952-172.424 2.181-188.114 2.196-338.564-.649z" fill="url(#A)"/><path d="M14.96 169.667c-.329-.329-.598-1.985-.598-3.681v-3.083h44.736c40.753 0 44.765-.147 45.054-1.648.302-1.566-24.048-57.307-25.905-59.302-15.204-2.313-43.67 17.575-52.266 26.518-17.533 8.047 5.402-43.679 14.097-54.321 1.961-3.399 4.109-1.251 7.006.577 8.047 5.08 20.279 7.038 20.279 3.247-2.466-8.936-6.732-15.901-11.168-25.151 0-.906 13.972-15.78 18.237-17.592 6.769 14.254 9.443 31.372 22.503 42.172 9.038 2.464 15.686 8.634 25.385 10.493 2.852 7.306-23.372-.82-17.6 11.975l2.538 5.544 76.302-.256 76.302-.256 3.727-7.5c7.723-15.54 7.357-16.579-4.484-12.723-4.599 1.498-9.011 2.723-9.803 2.722s3.461-2.813 9.452-6.25c15.965-9.159 17.127-10.497 25.612-29.499 3.991-8.937 7.561-16.25 7.933-16.25 2.233 0 28.257 25.501 28.062 30.244-.019.47-2.635.557-5.855.193-7.253-.821-9.458.252-11.979 5.826l-39.744 90.394c.398 1.037 9.574 1.357 45.039 1.572 29.004.176 44.686-.078 44.96-.73.231-.55.421 1.025.421 3.5s-.421 3.5-.421 3.5c-43.92-.171-261.291.182-335.862-.161-.803-.004-1.632.254-1.961-.075zm219.792-8.514c3.172-4.969 13.728-29.998 13.216-31.335-.469-1.223-9.771-1.393-64.314-1.173-59.133.239-63.789.381-64.093 1.96-.263 1.367 9.02 23.632 12.945 31.048.863 1.631 4.324 1.75 50.868 1.75h49.942zm69.61-41.766c0-3.131 18.543-12.958 29.168-15.459 7.587-1.786 8.613-1.786 11.635 8.363 2.545 8.546 1.729 9.156-1.554 8.886-10.423-.109-31.821 1.825-39.25-1.79zM81.648 29.429c6.387-5.517 16.522-12.362 27.171-17.479 9.003-5.017 9.762-3.977 17.363-1.684 15.108 6.431 47.909 8.62 59.505 17.136-28.916.359-81.255 12.162-104.04 2.026z" fill="#01e7d6"/></g></svg>