<svg xmlns="http://www.w3.org/2000/svg" xmlns:xlink="http://www.w3.org/1999/xlink" width="250" height="250" xmlns:v="https://vecta.io/nano"><defs><linearGradient id="A" x1="17.337" x2="80" y1="74.339" y2="74.339" xlink:href="#R"><stop offset="0" stop-color="#000040"/><stop offset=".325" stop-color="#000043"/><stop offset=".585" stop-color="#00004d"/><stop offset=".823" stop-color="#00005e"/><stop offset="1" stop-color="#000070"/></linearGradient><linearGradient id="B" x1="48.668" x2="48.668" y1="68.69" y2="80" xlink:href="#R"><stop offset=".35" stop-color="#00209f"/><stop offset=".645" stop-color="#001f9d"/><stop offset=".752" stop-color="#001d96"/><stop offset=".828" stop-color="#00198b"/><stop offset=".889" stop-color="#00137a"/><stop offset=".941" stop-color="#000c64"/><stop offset=".987" stop-color="#000349"/><stop offset="1" stop-color="#000040"/></linearGradient><linearGradient id="C" x1="17.337" x2="80" y1="55.314" y2="55.314" xlink:href="#R"><stop offset="0" stop-color="#00209f"/><stop offset=".021" stop-color="#0222a1"/><stop offset=".244" stop-color="#1333b2"/><stop offset=".487" stop-color="#1d3dbc"/><stop offset=".791" stop-color="#2040bf"/><stop offset=".841" stop-color="#1e3dbc"/><stop offset=".882" stop-color="#1933b2"/><stop offset=".919" stop-color="#1122a1"/><stop offset=".954" stop-color="#050a89"/><stop offset=".966" stop-color="#00007f"/><stop offset="1" stop-color="#2040bf"/></linearGradient><linearGradient id="D" x1="17.337" x2="80.001" y1="46.992" y2="46.992" xlink:href="#R"><stop offset="0" stop-color="#dfdfdf"/><stop offset=".021" stop-color="#e1e1e1"/><stop offset=".244" stop-color="#f2f2f2"/><stop offset=".487" stop-color="#fcfcfc"/><stop offset=".791" stop-color="#fff"/><stop offset=".841" stop-color="#fcfcfc"/><stop offset=".882" stop-color="#f2f2f2"/><stop offset=".919" stop-color="#e1e1e1"/><stop offset=".954" stop-color="#c9c9c9"/><stop offset=".966" stop-color="#bfbfbf"/><stop offset="1" stop-color="#fff"/></linearGradient><linearGradient xlink:href="#D" id="E" x1="17.336" y1="68.287" y2="68.287"/><linearGradient xlink:href="#D" id="F" x1="17.339" x2="79.999" y1="67.46" y2="67.46"/><linearGradient xlink:href="#D" id="G" x1="17.336" x2="80" y1="52.273" y2="52.273"/><linearGradient xlink:href="#D" id="H" x1="17.338" x2="80" y1="39.61" y2="39.61"/><linearGradient xlink:href="#D" id="I" x2="80" y1="46.991" y2="46.991"/><linearGradient xlink:href="#D" id="J" x1="17.333" y1="54.692" y2="54.692"/><linearGradient id="K" x1="17.337" x2="80.001" y1="47.594" y2="47.594" xlink:href="#R"><stop offset="0" stop-color="#bf1010"/><stop offset=".021" stop-color="#c11212"/><stop offset=".244" stop-color="#d22323"/><stop offset=".487" stop-color="#dc2d2d"/><stop offset=".791" stop-color="#df3030"/><stop offset=".841" stop-color="#dc2e2e"/><stop offset=".882" stop-color="#d22626"/><stop offset=".919" stop-color="#c11919"/><stop offset=".954" stop-color="#a90808"/><stop offset=".966" stop-color="#9f0000"/><stop offset="1" stop-color="#df3030"/></linearGradient><linearGradient xlink:href="#K" id="L" x2="80" y1="39.541" y2="39.541"/><linearGradient xlink:href="#K" id="M" x2="80" y1="41.511" y2="41.511"/><linearGradient xlink:href="#K" id="N" x1="17.336" y1="53.237" y2="53.237"/><linearGradient xlink:href="#K" id="O" x2="79.999" y1="55.028" y2="55.028"/><linearGradient xlink:href="#D" id="P"/><linearGradient xlink:href="#K" id="Q"/><linearGradient id="R" gradientUnits="userSpaceOnUse"/></defs><circle cx="125" cy="125" r="125" fill="#cdcdcd" fill-rule="evenodd"/><g transform="matrix(2.41095 0 0 2.417397 27.123882 21.608937)"><path fill="#0e3ca5" d="M32.585 59.26c2 7.4 9.176 13.045 12.8 12.812.127-.009 13.745-2.547 21.2-15 5.8-9.694 3.826-19.051-4.064-19.255-2.839.207-33.745 7.348-29.934 21.445m29.198-47.527l-.008-.007.011-.006a34.632 34.632 0 0 0-36.5-5.267A20.236 20.236 0 0 0 23.1 7.53c-.486.259-.972.516-1.444.8l.115.035a15.78 15.78 0 0 0-3.655 3.46C8.172 24.953 41.486 34.5 59.3 34.528c8.191 5.883 10.491-16.56 2.485-22.793z"/><path fill="#5493f7" d="M27.3 12C22.723 18.88 7.478 23.727 4.971 22.972l-.017-.032q.155-.311.313-.618a36.705 36.705 0 0 1 10.87-12.684q1.407-1.03 2.913-1.928a10.8 10.8 0 0 1 5.04-1.343c6.789.13 3.244 5.58 3.207 5.635m-3.753 48.611c.329 2.162-.008 10.7-.45 11.418-.381.024-1.174.072-3.471-1.217a36.438 36.438 0 0 1-17.952-25.8 36.9 36.9 0 0 1 0-11.841 36.275 36.275 0 0 1 1.383-5.616q.183-.55.383-1.092c2.631 3.5 5.676 6.665 8.264 10.2 2.465 3.366 5.856 8.852 6.546 10.024 4.284 7.278 4.967 11.768 5.294 13.925m50.648-21.52A36.4 36.4 0 0 1 71.648 52.5c-4.3 4.621-33.283-6.753-33.567-6.877C34.116 43.886 22.05 38.6 20.961 30.3 19.4 18.351 43.63 10.027 54.28 9.711c1.277.015 5.163.06 7.429 1.9a36.411 36.411 0 0 1 12.48 27.482M54.568 71.467c-3.16 1.474-6.638.4-5.734-2.677 1.735-5.908 16.886-11.966 20.232-12.3.413-.04.588.241.405.561a36.866 36.866 0 0 1-14.9 14.411"/><path fill="url(#A)" d="M17.337 77.254a2.552 2.552 0 0 0 2.328 2.714c30.7.21 60.335-1.2 60.335-5.8 0-13.924-62.663 3.086-62.663 3.086z"/><path fill="url(#B)" d="M17.337 77.254a2.549 2.549 0 0 0 2.34 2.714c30.691.233 60.286-.731 60.323-5.8 0-13.924-62.663 3.086-62.663 3.086zm2.341 2.537a2.194 2.194 0 0 1-.245-.014 2.4 2.4 0 0 1-1.987-1.763 2.368 2.368 0 0 0 2.229 1.761c30.671-.192 59.844-9.635 59.844-5.477 0 4.244-29.171 5.702-59.841 5.493z"/><path fill="url(#C)" d="M19.68 37.823a2.342 2.342 0 0 0-2.343 2.343v37.088a2.343 2.343 0 0 0 2.328 2.346C50.364 79.37 80.037 69.209 80 74.169V32.394c.037-4.96-29.626 5.199-60.32 5.429z"/><path fill="url(#P)" d="M20.856 58.7a329.404 329.404 0 0 0 4.791-3.345l2.216-1.588 2.577-1.883v6.369l2.618-.215 2.62-.244v-6.365a428.424 428.424 0 0 0 4.789 2.671l2.213 1.2 2.577 1.376a162.267 162.267 0 0 0 3.501-.505v-2.334a446.829 446.829 0 0 1-6.952-3.673l2.427-.308 2.117-.286 2.407-.356v-6.965a192.494 192.494 0 0 1-4.522.641l-2.43.307 2.429-1.918 2.117-1.693 2.406-1.965v-2.378q-1.692.255-3.439.5l-.054.047-2.582 2.046-2.214 1.744-2.212 1.72-2.578 1.975V36.91q-2.7.272-5.458.474l.22 3.167v3.185a254.275 254.275 0 0 1-4.793-2.899l-2.212-1.385-2.577-1.637-.011-.007-1.167.015a2.342 2.342 0 0 0-2.343 2.343v.026l2.428 1.59 2.117 1.359 2.424 1.531a211.265 211.265 0 0 1-4.541.127l-2.428.021v6.96a155.708 155.708 0 0 0 4.545-.065l2.424-.082a343.395 343.395 0 0 1-4.542 3.145l-2.427 1.63v2.334l1.759-.009 1.76-.033z"/><path fill="url(#E)" d="M35.781 67.612l1.095-1.753 1.1-1.758-1.853.888-1.852.876-.606-1.821-.6-1.824-.606 1.931-.6 1.929-1.852-.556-1.852-.577 1.1 1.574 1.094 1.567-1.7 1.123-1.7 1.105a179.818 179.818 0 0 0 3.947.088l-.271 1.975-.273 1.975 1.364-1.537 1.362-1.546 1.363 1.306 1.364 1.3-.271-1.928-.273-1.927 1.974-.367 1.971-.385-1.7-.823-1.725-.835z"/><path fill="url(#F)" d="M65.7 66.973l1.036-1.743-1.752.968-.572-1.689-.574 1.891-1.753-.359 1.037 1.386-1.613 1.238 1.869-.161-.257 1.906 1.291-1.59 1.289 1.136-.256-1.817 1.866-.481-1.611-.685z"/><path fill="url(#G)" d="M57.881 51.8l1.04-1.744-1.756.967-.575-1.69-.57 1.887-1.752-.376 1.038 1.4-1.615 1.222 1.87-.143-.258 1.9 1.288-1.581 1.292 1.14-.257-1.816 1.87-.485-1.615-.681z"/><path fill="url(#H)" d="M63.379 40.653l-.258 1.907 1.291-1.591 1.289 1.136-.257-1.816 1.867-.481-1.611-.686 1.035-1.743-1.751.969-.572-1.688-.574 1.89-1.752-.359 1.038 1.385-1.613 1.24z"/><path fill="url(#I)" d="M72.658 46.566l1.235-1.715a19.562 19.562 0 0 0-1.97.917l-.573-1.708-.573 1.872-1.752-.4 1.036 1.4-1.61 1.211 1.866-.128-.257 1.9 1.29-1.554 1.31 1.18-.274-1.823a31.555 31.555 0 0 1 2.25-.428l-1.978-.724z"/><path fill="url(#J)" d="M67.987 54.072l-.453-1.04-.454 1.19-1.2.291.917.621-.287 1.218 1.02-.806 1.02.469-.287-1.123.917-.924-1.193.104z"/><path fill="url(#Q)" d="M20.441 50.356a214.403 214.403 0 0 0 5.253-.173 163.305 163.305 0 0 0 5.8-.365v8.356l3.141-.277v-8.356a241.434 241.434 0 0 0 8.343-.922l2.7-.354 3.084-.449V43.64l-3.082.449-2.7.355-2.555.313-2.689.3-3.1.308v-8.353q-1.56.15-3.142.276v8.359a160.516 160.516 0 0 1-5.795.364l-2.554.1-2.7.073-3.105.033v4.176l3.101-.037z"/><path fill="url(#L)" d="M43.613 37.877l-2.426 1.914-2.415 1.891-2.817 2.164 2.345-.241 2.808-2.194 2.425-1.913 2.428-1.933 2.8-2.28c.014-.016.023-.032.037-.048q-1.114.168-2.253.332a.236.236 0 0 1-.107.059l-2.825 2.249z"/><path fill="url(#M)" d="M22.647 42.847l2.828 1.777 2.344-.12-2.816-1.732-2.42-1.522a302.52 302.52 0 0 1-4.426-2.85 2.325 2.325 0 0 0-.709 1.089l2.724 1.782 2.475 1.576z"/><path fill="url(#N)" d="M43.467 51.833a344 344 0 0 1-2.831-1.532l-2.337.265a332.695 332.695 0 0 0 5.232 2.858 406.814 406.814 0 0 0 5.225 2.749v-1.557l-2.817-1.47-2.472-1.313z"/><path fill="url(#O)" d="M25 53.477l-2.421 1.7-2.426 1.672-2.819 1.9 2.346-.019 2.818-1.937 2.422-1.7 2.423-1.727 2.817-2.051-2.344.153A294.383 294.383 0 0 1 25 53.477z"/></g></svg>