<?xml version="1.0" encoding="UTF-8" standalone="no"?>
<svg
   width="256"
   height="256"
   version="1.1"
   id="svg10"
   sodipodi:docname="AVAX_BEP20.svg"
   inkscape:version="1.1 (c68e22c387, 2021-05-23)"
   xmlns:inkscape="http://www.inkscape.org/namespaces/inkscape"
   xmlns:sodipodi="http://sodipodi.sourceforge.net/DTD/sodipodi-0.dtd"
   xmlns="http://www.w3.org/2000/svg"
   xmlns:svg="http://www.w3.org/2000/svg">
  <defs
     id="defs14" />
  <sodipodi:namedview
     id="namedview12"
     pagecolor="#ffffff"
     bordercolor="#666666"
     borderopacity="1.0"
     inkscape:pageshadow="2"
     inkscape:pageopacity="0.0"
     inkscape:pagecheckerboard="0"
     showgrid="false"
     inkscape:zoom="3.4101562"
     inkscape:cx="128"
     inkscape:cy="128"
     inkscape:window-width="2560"
     inkscape:window-height="1361"
     inkscape:window-x="-9"
     inkscape:window-y="-9"
     inkscape:window-maximized="1"
     inkscape:current-layer="svg10" />
  <g
     transform="matrix(.929134 0 0 .929134 10 10)"
     id="g6">
    <circle
       cx="127"
       cy="127"
       r="127"
       fill-rule="evenodd"
       fill="#e84142"
       id="circle2" />
    <path
       d="M171.8 130.3c4.4-7.6 11.5-7.6 15.9 0l27.4 48.1c4.4 7.6.8 13.8-8 13.8h-55.2c-8.7 0-12.3-6.2-8-13.8zm-53-92.6c4.4-7.6 11.4-7.6 15.8 0l6.1 11L155.1 74c3.5 7.2 3.5 15.7 0 22.9l-48.3 83.7c-4.4 6.8-11.7 11.1-19.8 11.6H46.9c-8.8 0-12.4-6.1-8-13.8z"
       fill="#fff"
       id="path4" />
  </g>
  <path
     d="M128 11.485C63.753 11.485 11.485 63.753 11.485 128S63.753 244.515 128 244.515 244.516 192.247 244.516 128 192.247 11.485 128 11.485M128 0c70.527 0 128 57.468 128 128s-57.468 128-128 128S0 198.53 0 128 57.473 0 128 0z"
     fill="#474747"
     id="path8"
     style="fill:#e8a607;fill-opacity:1" />
</svg>
