<?xml version="1.0" encoding="UTF-8" standalone="no"?>
<svg
   xmlns:dc="http://purl.org/dc/elements/1.1/"
   xmlns:cc="http://creativecommons.org/ns#"
   xmlns:rdf="http://www.w3.org/1999/02/22-rdf-syntax-ns#"
   xmlns:svg="http://www.w3.org/2000/svg"
   xmlns="http://www.w3.org/2000/svg"
   xmlns:sodipodi="http://sodipodi.sourceforge.net/DTD/sodipodi-0.dtd"
   xmlns:inkscape="http://www.inkscape.org/namespaces/inkscape"
   width="236.00003"
   height="236.00003"
   version="1.1"
   id="svg10"
   sodipodi:docname="AVAX_BEP20.svg"
   inkscape:version="1.0.2-2 (e86c870879, 2021-01-15)">
  <metadata
     id="metadata9">
    <rdf:RDF>
      <cc:Work
         rdf:about="">
        <dc:format>image/svg+xml</dc:format>
        <dc:type
           rdf:resource="http://purl.org/dc/dcmitype/StillImage" />
      </cc:Work>
    </rdf:RDF>
  </metadata>
  <defs
     id="defs14" />
  <sodipodi:namedview
     id="namedview12"
     pagecolor="#ffffff"
     bordercolor="#666666"
     borderopacity="1.0"
     inkscape:pageshadow="2"
     inkscape:pageopacity="0.0"
     inkscape:pagecheckerboard="0"
     showgrid="false"
     inkscape:zoom="3.4101562"
     inkscape:cx="118"
     inkscape:cy="118"
     inkscape:window-width="1920"
     inkscape:window-height="1017"
     inkscape:window-x="-8"
     inkscape:window-y="-8"
     inkscape:window-maximized="1"
     inkscape:current-layer="svg10"
     inkscape:document-rotation="0" />
  <g
     transform="scale(0.929134)"
     id="g6">
    <circle
       cx="127"
       cy="127"
       r="127"
       fill-rule="evenodd"
       fill="#e84142"
       id="circle2" />
    <path
       d="m 171.8,130.3 c 4.4,-7.6 11.5,-7.6 15.9,0 l 27.4,48.1 c 4.4,7.6 0.8,13.8 -8,13.8 h -55.2 c -8.7,0 -12.3,-6.2 -8,-13.8 z m -53,-92.6 c 4.4,-7.6 11.4,-7.6 15.8,0 l 6.1,11 14.4,25.3 c 3.5,7.2 3.5,15.7 0,22.9 l -48.3,83.7 c -4.4,6.8 -11.7,11.1 -19.8,11.6 H 46.9 c -8.8,0 -12.4,-6.1 -8,-13.8 z"
       fill="#ffffff"
       id="path4" />
  </g>
</svg>
