<?xml version="1.0" encoding="UTF-8" standalone="no"?>
<svg
   viewBox="0 0 28 28"
   version="1.1"
   id="svg14"
   sodipodi:docname="AVAXP.svg"
   inkscape:version="1.1.1 (3bf5ae0d25, 2021-09-20)"
   xmlns:inkscape="http://www.inkscape.org/namespaces/inkscape"
   xmlns:sodipodi="http://sodipodi.sourceforge.net/DTD/sodipodi-0.dtd"
   xmlns="http://www.w3.org/2000/svg"
   xmlns:svg="http://www.w3.org/2000/svg">
  <sodipodi:namedview
     id="namedview16"
     pagecolor="#ffffff"
     bordercolor="#666666"
     borderopacity="1.0"
     inkscape:pageshadow="2"
     inkscape:pageopacity="0.0"
     inkscape:pagecheckerboard="0"
     showgrid="false"
     inkscape:zoom="31.178571"
     inkscape:cx="11.786942"
     inkscape:cy="14"
     inkscape:window-width="2560"
     inkscape:window-height="1377"
     inkscape:window-x="-8"
     inkscape:window-y="-8"
     inkscape:window-maximized="1"
     inkscape:current-layer="svg14" />
  <defs
     id="defs7">
    <linearGradient
       id="linear-gradient"
       x1="1085"
       y1="373.21"
       x2="1085"
       y2="372.21"
       gradientTransform="matrix(28, 0, 0, -28, -30366.07, 10449.82)"
       gradientUnits="userSpaceOnUse">
      <stop
         offset="0"
         stop-color="#2674c8"
         id="stop2" />
      <stop
         offset="1"
         stop-color="#133a64"
         id="stop4" />
    </linearGradient>
  </defs>
  <g
     id="Layer_2"
     data-name="Layer 2">
    <g
       id="Layer_1-2"
       data-name="Layer 1">
      <g
         id="avalanche-avax-logo">
        <circle
           id="Эллипс_162"
           data-name="Эллипс 162"
           cx="14"
           cy="14"
           r="14"
           fill="url(#linear-gradient)" />
        <path
           id="Контур_13586"
           data-name="Контур 13586"
           d="M19.12,14.39a.94.94,0,0,1,1.18-.59,1,1,0,0,1,.59.59l3.05,5.35c.49.85.09,1.54-.89,1.54H16.9c-1,0-1.37-.69-.89-1.54Zm-5.9-10.3a.92.92,0,0,1,1.17-.59.94.94,0,0,1,.59.59l.68,1.22,1.6,2.82a2.9,2.9,0,0,1,0,2.54L11.88,20a2.85,2.85,0,0,1-2.2,1.29H5.22c-1,0-1.38-.68-.89-1.54Z"
           fill="#fff" />
      </g>
    </g>
  </g>
  <text
     xml:space="preserve"
     style="font-size:7.78648px;line-height:1.25;font-family:Arial;-inkscape-font-specification:'Arial, Normal';font-variant-ligatures:none;fill:#ffffff;fill-opacity:1;stroke-width:0.291988"
     x="11.112197"
     y="27.079859"
     id="text3299"><tspan
       sodipodi:role="line"
       id="tspan3297"
       x="11.112197"
       y="27.079859"
       style="fill:#ffffff;fill-opacity:1;stroke-width:0.291988">P</tspan></text>
</svg>
