<svg xmlns="http://www.w3.org/2000/svg" width="256" height="256" xmlns:v="https://vecta.io/nano"><g transform="matrix(.929134 0 0 .929134 10 10)"><circle cx="127" cy="127" r="127" fill-rule="evenodd" fill="#e84142"/><path d="M171.8 130.3c4.4-7.6 11.5-7.6 15.9 0l27.4 48.1c4.4 7.6.8 13.8-8 13.8h-55.2c-8.7 0-12.3-6.2-8-13.8zm-53-92.6c4.4-7.6 11.4-7.6 15.8 0l6.1 11L155.1 74c3.5 7.2 3.5 15.7 0 22.9l-48.3 83.7c-4.4 6.8-11.7 11.1-19.8 11.6H46.9c-8.8 0-12.4-6.1-8-13.8z" fill="#fff"/></g><path d="M128 11.485C63.753 11.485 11.485 63.753 11.485 128S63.753 244.515 128 244.515 244.516 192.247 244.516 128 192.247 11.485 128 11.485M128 0c70.527 0 128 57.468 128 128s-57.468 128-128 128S0 198.53 0 128 57.473 0 128 0z" fill="#474747"/></svg>