<svg xmlns="http://www.w3.org/2000/svg" width="245" height="245" viewBox="0 0 245 245">
  <g id="Group_9455" data-name="Group 9455" transform="translate(-10171 309)">
    <g id="BNB" transform="translate(10171 -309)">
      <path id="Main_copy_14" d="M0,122.5C0,190,55,245,122.5,245S245,190,245,122.5,190,0,122.5,0,0,55,0,122.5Z" fill="#0068e4"/>
    </g>
    <g id="Layer_2" data-name="Layer 2" transform="translate(10220.995 -241.999)">
      <g id="Layer_1" data-name="Layer 1" transform="translate(0.005 -0.001)">
        <path id="Path_474770" data-name="Path 474770" d="M57.63,49.925l6.06-6.565s2.02-2.02-1.01-4.545-35.351-25.251-50.5-28.786c0,0-8.585-4.545-11.11,5.555S.563,84.771,6.623,103.457c0,0,2.525,13.13,16.16,4.04s85.347-76.762,85.347-76.762,15.15-15.655,18.181,2.02,4.04,27.271,2.525,38.886-5.05,10.605-14.14,5.555-22.473-15.4-22.473-15.4-1.515-2.525-4.545,0a39.608,39.608,0,0,0-5.05,5.05s-2.525,2.525-.505,4.545,20.2,15.15,34.341,22.221,13.13,6.565,14.645,7.07,13.635,7.575,14.645-12.12-1.515-57.067-4.545-72.722-8.08-20.706-20.2-10.605S41.722,77.448,39.7,78.963,23.541,99.669,19,75.933s-2.02-39.391-2.02-39.391,0-8.08,7.575-6.06a27.955,27.955,0,0,1,10.57,5.08,1.379,1.379,0,0,1,.429,1.566,6,6,0,0,1-1.4,1.939L21.016,52.2s-3.03,2.02-1.515,8.08,3.03,6.565,7.07,2.02S44.247,44.622,44.247,44.622s1.01-1.515,3.03.505,6.565,5.555,6.565,5.555S55.357,52.7,57.63,49.925Z" transform="translate(-0.005 0.001)" fill="#fff"/>
      </g>
    </g>
  </g>
</svg>
