<svg xmlns="http://www.w3.org/2000/svg" width="290" height="290" viewBox="0 0 290 290">
  <g id="BABENA" transform="translate(0.299 0.299)">
    <circle id="path838" cx="145" cy="145" r="145" transform="translate(-0.299 -0.299)" fill="#fff"/>
    <g id="svgg" transform="translate(60.292 60.292)">
      <path id="path0" d="M16.882.253c0,.183-.2.258-.717.27-1.043.024-1.54.2-1.722.608-.115.257-.374.392-.908.472-1.042.156-1.166.223-1.283.688-.08.319-.214.41-.606.41-.315,0-.5.087-.5.233,0,.348-.473.676-1.249.865-.5.122-.707.265-.742.516-.032.223-.241.4-.585.506a.789.789,0,0,0-.632.582.55.55,0,0,1-.554.476c-.382.044-.457.135-.457.549,0,.435-.06.5-.5.5-.413,0-.5.076-.549.457a.55.55,0,0,1-.476.554.793.793,0,0,0-.584.639c-.1.345-.27.544-.458.544-.4,0-.646.509-.646,1.34,0,.65-.027.686-.506.686-.448,0-.506.057-.506.5a.675.675,0,0,1-.464.719c-.377.18-.492.382-.609,1.075-.105.619-.242.9-.5,1.011-.43.192-.581.687-.6,1.973-.013.743-.076.971-.27.971C.03,17.388,0,19.958,0,39.5S.03,61.618.253,61.618s.253.371.254,2.321c0,2.5.175,3.489.655,3.746.258.138.32.477.408,2.229.1,2.051.108,2.07.617,2.468s.513.415.513,2.044c0,1.694.122,2.047.709,2.047.27,0,.3.168.3,1.508,0,1.691.183,2.366.677,2.495.286.075.336.232.336,1.056,0,1.186.26,1.984.689,2.12a.514.514,0,0,1,.325.555,3.059,3.059,0,0,0,.689,2.215c.4.4.482.632.525,1.551.049,1.034.069,1.079.515,1.13s.464.095.464.979c0,.976.319,1.814.753,1.981q.26.1.26.769c0,.926.26,1.536.655,1.536.271,0,.344.165.441,1,.108.929.152,1.011.6,1.109s.486.163.533,1.065.076.962.514,1.012.464.08.464,1.14v1.086h-.506c-.45,0-.506.056-.506.506s-.059.506-.482.506c-.4,0-.509.095-.638.542a.785.785,0,0,1-.573.64.552.552,0,0,0-.47.545c-.041.344-.158.459-.506.5s-.466.155-.508.517c-.035.307-.152.464-.346.464-.456,0-.7.35-.7,1.01a.836.836,0,0,1-.513.908,1.263,1.263,0,0,0-.612.8c-.074.37-.194.493-.48.493-.425,0-.584.373-.587,1.381,0,.552-.054.628-.466.675s-.469.126-.518.813c-.055.771-.4,1.351-.816,1.351-.165,0-.227.273-.227.992,0,.959-.016,1-.489,1.09-.456.091-.5.165-.6,1.1-.095.815-.187,1.032-.5,1.175-.471.214-.6.791-.6,2.673,0,1.144-.048,1.414-.253,1.414-.223,0-.253,1.575-.253,13.168s.03,13.168.253,13.168c.194,0,.257.228.27.971.022,1.292.174,1.782.611,1.977.275.122.391.369.478,1.013.13.965.316,1.273.772,1.273.263,0,.317.129.317.747,0,.758.31,1.278.761,1.278.137,0,.252.223.284.549.043.45.133.558.5.6.4.046.456.143.557.9.1.744.176.877.611,1.041.38.143.5.3.5.636,0,.36.1.468.495.547s.506.2.549.57.152.482.508.523.466.156.506.506.155.466.506.506.466.156.506.506c.043.376.147.463.6.507.476.046.549.116.549.528,0,.385.089.493.474.57a.964.964,0,0,1,.669.521c.157.344.356.447,1.035.538.749.1.847.16.893.555.042.364.15.453.6.5.408.04.549.135.549.374,0,.423.494.671,1.34.671.559,0,.686.059.686.317,0,.462.323.66,1.28.787.637.084.889.2,1.009.469.192.431.686.582,1.974.6.743.013.971.076.971.27,0,.223,1.426.253,11.817.253s11.817-.03,11.817-.253c0-.185.192-.253.717-.254.72,0,1.815-.509,1.815-.841,0-.094.184-.171.41-.171a.937.937,0,0,0,.941-.856c0-.258.12-.325.577-.325.8,0,1.112-.149,1.289-.614a.593.593,0,0,1,.46-.4.713.713,0,0,0,.713-.688c0-.176.182-.319.484-.379.372-.074.507-.216.587-.612s.191-.515.516-.515.438-.112.522-.5a.828.828,0,0,1,.445-.605c.382-.121.654-.716.654-1.428,0-.4.078-.493.464-.538s.473-.143.519-.623a2.042,2.042,0,0,1,.633-1.165,1.6,1.6,0,0,0,.579-1.5c0-.67.062-.9.241-.9.575,0,.772-.5.772-1.946,0-1.291.038-1.453.43-1.845.65-.649,1.569-.608,1.706.077.089.443.173.506.671.506.371,0,.57.081.57.233,0,.36.4.612,1.2.747.588.1.747.205.826.543.084.36.233.44,1.062.573.76.121.964.218.964.458,0,.4.5.654,1.3.654.566,0,.674.065.841.506.18.479.242.506,1.123.506s.934.02.985.464.106.467,1.012.514.965.078,1.067.541.178.5,1.1.6c.848.1,1,.168,1.086.506s.238.409,1.093.506c.805.091,1.026.184,1.166.491.192.422.8.6,2.079.6.68,0,.823.053.823.3,0,.52.369.709,1.378.709.778,0,1.007.063,1.142.316a2.648,2.648,0,0,0,2.094.866c.606,0,.787.068.868.324.135.423.931.689,2.064.689.785,0,.967.065,1.31.464.378.439.489.467,2.071.521,1.671.057,1.672.057,1.857.549l.186.492h3.381l.414.53.415.53,2.032.084c1.768.073,2.042.123,2.111.385.125.478,1.184.664,3.789.665,2.025,0,2.406.041,2.406.254s2.57.253,22.115.253,22.115-.03,22.115-.253c0-.194.228-.257.971-.27,1.281-.022,1.782-.173,1.97-.6.111-.249.4-.392,1.013-.5.694-.124.9-.241,1.078-.617a.672.672,0,0,1,.717-.464c.44,0,.5-.058.5-.506,0-.464.048-.506.58-.506.822,0,1.446-.274,1.446-.636,0-.2.19-.363.549-.468s.566-.281.6-.531.211-.4.549-.477c.411-.09.5-.194.5-.6,0-.432.061-.493.493-.493.409,0,.512-.085.6-.5.074-.338.226-.513.477-.549s.421-.23.531-.6.268-.549.468-.549c.362,0,.636-.624.636-1.446,0-.532.042-.58.506-.58.448,0,.506-.057.506-.5a.672.672,0,0,1,.464-.717c.376-.179.493-.384.617-1.078.109-.612.252-.9.5-1.013.422-.188.573-.689.6-1.97.013-.743.076-.971.27-.971.222,0,.253-1.107.253-8.947s-.031-8.947-.253-8.947c-.2,0-.254-.24-.255-1.14,0-1.492-.122-1.881-.609-2-.3-.076-.4-.217-.4-.568,0-1.121-.184-1.522-.7-1.522-.466,0-.485-.032-.488-.8,0-.92-.105-1.133-.62-1.294a.623.623,0,0,1-.422-.571c-.041-.356-.154-.468-.517-.51-.385-.044-.464-.135-.464-.535s-.089-.5-.487-.589a.64.64,0,0,1-.579-.562.933.933,0,0,0-.484-.624,1.236,1.236,0,0,1-.558-.549.61.61,0,0,0-.633-.38c-.406,0-.466-.066-.466-.506s-.058-.506-.493-.506c-.411,0-.512-.085-.6-.506-.088-.4-.2-.506-.536-.506-.619,0-1.527-.478-1.626-.855-.071-.271-.238-.326-.993-.326-.853,0-.919-.03-1.1-.506s-.24-.506-1.147-.506c-.837,0-1.019-.063-1.463-.506-.476-.476-.586-.506-1.818-.506-1.3,0-1.87-.24-1.87-.792,0-.179-1.139-.39-2.106-.39a1.233,1.233,0,0,1-.991-.506c-.4-.444-.563-.506-1.361-.506a1.626,1.626,0,0,1-1.451-.506c-.483-.451-.658-.506-1.6-.506-.915,0-1.072-.046-1.148-.336q-.177-.677-1.988-.677c-.688,0-1-.066-1-.211-.006-.526-.359-.707-1.716-.88-1.234-.158-1.41-.223-1.456-.538-.057-.393-.582-.562-1.784-.571-.737-.005-1.153-.227-1.335-.712-.089-.236-.314-.3-1.129-.3-.775,0-1.018-.058-1.018-.244,0-.479-.709-.769-1.881-.769-1.108,0-1.133-.01-1.237-.486-.1-.452-.177-.493-1.129-.6-.8-.09-1.041-.184-1.105-.432-.1-.393-.878-.675-1.854-.675-.648,0-.779-.064-1.03-.505-.266-.468-.358-.506-1.247-.506-.921,0-.962-.02-1.013-.466s-.111-.469-1.067-.549-1.016-.114-1.065-.533-.13-.458-1.055-.566c-.825-.1-1-.172-1-.431,0-.415-.5-.665-1.323-.665-.592,0-.69-.059-.846-.506-.17-.486-.157-.506.31-.506a.971.971,0,0,0,.847-.506.993.993,0,0,1,1.03-.506c.874,0,1.779-.387,1.916-.819.074-.233.282-.36.649-.4.449-.043.55-.131.594-.517s.13-.465.591-.466c.872,0,1.294-.182,1.4-.59a.673.673,0,0,1,.589-.482c.358-.072.493-.2.493-.455,0-.243.165-.419.519-.552a.853.853,0,0,0,.61-.651.532.532,0,0,1,.536-.507c.342-.04.457-.157.5-.508a.623.623,0,0,1,.422-.571c.506-.158.617-.374.62-1.209,0-.6.058-.717.328-.717a.937.937,0,0,0,.856-.941c0-.225.077-.41.171-.41.371,0,.84-1.1.841-1.967,0-.815.033-.881.507-1.046l.506-.176V85.273c0-1.383.031-1.527.347-1.627.613-.195.666-.79.666-7.573V69.447l-.506-.374-.506-.374,0-2.147c0-2.274-.053-2.493-.588-2.593-.25-.047-.349-.215-.38-.652-.146-2.045-.227-2.36-.63-2.461-.341-.086-.411-.238-.512-1.105-.109-.939-.15-1.012-.606-1.1s-.489-.152-.489-.887c0-.831-.212-1.194-.7-1.194-.207,0-.309-.16-.346-.549-.043-.45-.133-.558-.5-.6-.4-.046-.456-.144-.555-.893-.09-.679-.194-.879-.538-1.035a.964.964,0,0,1-.521-.669c-.077-.385-.184-.474-.57-.474-.412,0-.482-.072-.528-.549-.043-.454-.131-.558-.507-.6-.351-.041-.466-.156-.506-.506s-.155-.466-.506-.506-.466-.156-.506-.506-.154-.466-.523-.508-.493-.163-.57-.549c-.082-.409-.182-.495-.584-.495-.368,0-.485-.079-.485-.328,0-.4-.212-.546-1.1-.777a1.226,1.226,0,0,1-.9-.633.676.676,0,0,0-.717-.457c-.366,0-.5-.08-.5-.3,0-.5-.357-.709-1.194-.709-.734,0-.8-.034-.886-.484s-.166-.492-1.1-.6c-.874-.1-1.018-.166-1.106-.517-.1-.413-.406-.492-2.463-.639-.437-.031-.606-.13-.652-.38-.1-.536-.32-.585-2.593-.588l-2.147,0-.374-.506-.374-.506-6.679,0c-7.249,0-7.394.014-7.543.609l-.1.4H79.009l-.451.506c-.415.466-.541.506-1.563.507-1.411,0-2.315.247-2.423.658-.064.246-.306.342-1.095.433-.853.1-1.07.195-1.376.61a1.017,1.017,0,0,1-1.023.493c-.885,0-1.539.269-1.646.677-.065.25-.231.336-.65.336a.693.693,0,0,0-.784.464c-.173.36-.374.485-.9.555-.839.113-1.1.267-1.1.658,0,.2-.165.339-.493.405a1.263,1.263,0,0,0-.8.612c-.405.685-.906.689-.906.007,0-.448-.057-.506-.5-.506-.493,0-.5-.011-.549-1.055-.048-1.011-.07-1.057-.514-1.109s-.464-.1-.464-.88c0-.959-.418-1.958-.869-2.076-.256-.067-.313-.248-.313-.993,0-.95-.2-1.316-.709-1.316-.256,0-.3-.147-.3-.943,0-.893-.027-.953-.506-1.134s-.507-.249-.523-1.125c-.023-1.263-.177-1.746-.622-1.944-.289-.129-.374-.309-.374-.791,0-.978-.26-1.49-.755-1.49-.426,0-.426,0-.426-1.593,0-1.825-.173-2.459-.671-2.459-.315,0-.342-.108-.344-1.393,0-1.524-.066-1.711-.631-1.888-.359-.112-.38-.207-.382-1.753,0-1.984-.087-2.338-.582-2.462-.362-.091-.388-.2-.463-1.862-.081-1.823-.249-2.29-.823-2.29-.261,0-.317-.164-.359-1.055-.048-1.011-.07-1.057-.514-1.109s-.464-.087-.464-1.059-.012-1.008-.506-1.107c-.45-.09-.507-.169-.509-.713,0-1.016-.162-1.372-.609-1.372-.316,0-.4-.09-.4-.42,0-.3-.176-.535-.589-.8-.5-.326-.589-.476-.591-1.029s-.068-.673-.5-.836a.724.724,0,0,1-.549-.619c-.038-.323-.161-.443-.5-.482s-.469-.169-.542-.537-.2-.5-.568-.539-.482-.153-.523-.507a.55.55,0,0,0-.511-.554.978.978,0,0,1-.623-.475,1.123,1.123,0,0,0-.862-.53,1.351,1.351,0,0,1-.98-.633.8.8,0,0,0-.78-.478c-.374,0-.5-.079-.5-.317,0-.449-.306-.647-1.2-.781-.583-.087-.827-.214-.956-.5-.186-.408-.794-.6-1.912-.6-.469,0-.654-.072-.654-.253C35.789.031,34.626,0,26.336,0s-9.454.031-9.454.253m11.9,10.194a7.777,7.777,0,0,1,2.448.48,11.056,11.056,0,0,0,1.455.536,3.886,3.886,0,0,1,1.1.487,5.074,5.074,0,0,0,.853.5,20.328,20.328,0,0,1,4.705,4.621c.111.269.272.489.357.489s.3.35.487.777a6.561,6.561,0,0,0,.653,1.184,4.134,4.134,0,0,1,.528,1.291,4.813,4.813,0,0,0,.5,1.306,5.716,5.716,0,0,1,.5,1.688,24.725,24.725,0,0,0,.592,2.532c.21.7.473,1.757.584,2.357A7.462,7.462,0,0,0,44,30.265a8.67,8.67,0,0,1,.486,1.721,9.035,9.035,0,0,0,.567,1.887,7.9,7.9,0,0,1,.532,1.656,5.3,5.3,0,0,0,.436,1.364,7.8,7.8,0,0,1,.553,1.526A12.6,12.6,0,0,0,47.25,40.3a3.419,3.419,0,0,1,.358,1.013,4.932,4.932,0,0,0,.492,1.269,8.266,8.266,0,0,1,.606,1.519,6.483,6.483,0,0,0,.585,1.4,5.951,5.951,0,0,1,.577,1.46,1.666,1.666,0,0,0,.349.815,2.21,2.21,0,0,1,.441.819c.11.341.494,1.236.853,1.989a11.49,11.49,0,0,1,.652,1.535.965.965,0,0,0,.321.456,1.723,1.723,0,0,1,.422.828,2.621,2.621,0,0,0,.516,1.02,3.773,3.773,0,0,1,.612,1.1,3.321,3.321,0,0,0,.487.953,3.957,3.957,0,0,1,.522.928,7.271,7.271,0,0,0,.618,1.163,2.31,2.31,0,0,1,.386.806,3.914,3.914,0,0,0,.591,1.093,4.007,4.007,0,0,1,.591,1.08,1.845,1.845,0,0,0,.424.726,5.045,5.045,0,0,1,.666,1.081,2.541,2.541,0,0,0,.5.8.707.707,0,0,1,.263.425,2.9,2.9,0,0,0,.493.887,13.734,13.734,0,0,1,.839,1.334,8.01,8.01,0,0,0,.861,1.245l.514.591.516-.591a7.2,7.2,0,0,0,.782-1.1A15.142,15.142,0,0,1,64.3,65.272c.52-.638,1.059-1.322,1.2-1.521a45.206,45.206,0,0,1,3.959-3.905A16.185,16.185,0,0,1,72.166,57.9a2.6,2.6,0,0,0,.757-.506,2.4,2.4,0,0,1,.765-.5,5,5,0,0,0,1.1-.591,4.2,4.2,0,0,1,1.179-.591,2.342,2.342,0,0,0,.85-.393,5.827,5.827,0,0,1,1.432-.62,5.656,5.656,0,0,0,1.2-.455,6.581,6.581,0,0,1,1.519-.471c.639-.133,1.657-.4,2.26-.6,2.669-.862,16.017-.849,17.139.017a9.544,9.544,0,0,0,1.519.494,7.151,7.151,0,0,1,1.6.574,4.851,4.851,0,0,0,1.042.5,3.129,3.129,0,0,1,1,.545,2.609,2.609,0,0,0,.809.5,2.437,2.437,0,0,1,.689.383,5.033,5.033,0,0,0,.754.579c1.522,1.022,5.329,5.179,5.329,5.82a1.821,1.821,0,0,0,.391.66,4.624,4.624,0,0,1,.617,1.068,9.077,9.077,0,0,0,.52,1.1,7.991,7.991,0,0,1,.569,1.6,11.876,11.876,0,0,0,.51,1.6c.936,2.01.818,12.454-.162,14.406a4.63,4.63,0,0,0-.42,1.042,10.586,10.586,0,0,1-8.02,5.7c-1.879.106-1.743.707-1.8-7.951-.045-6.346-.088-7.412-.306-7.55-.478-.3-16.826-.208-17.9.1-.508.147-1.493.421-2.189.609a6.185,6.185,0,0,0-1.522.568,4.927,4.927,0,0,1-.928.531c-1.416.643-5.315,4.034-5.315,4.624a2.09,2.09,0,0,1-.391.605,4.713,4.713,0,0,0-.62,1.068,6.1,6.1,0,0,1-.535,1.036,4.872,4.872,0,0,0-.587,2.561c.154.608,5.219,5.868,8.548,8.877.882.8,1.87,1.706,2.195,2.02a14.889,14.889,0,0,0,1.182,1.012c.325.243.761.594.97.782.984.885,1.555,1.348,3.814,3.089.449.346,1,.8,1.232,1.009a1.541,1.541,0,0,0,.578.38,2.264,2.264,0,0,1,.71.524,5.859,5.859,0,0,0,1.138.826,3.828,3.828,0,0,1,.912.658,1.044,1.044,0,0,0,.547.356.684.684,0,0,1,.436.338c.116.186.3.338.411.338a3.59,3.59,0,0,1,.986.6,7.17,7.17,0,0,0,1.153.745,3.348,3.348,0,0,1,.7.413,18.515,18.515,0,0,0,2.883,1.787.713.713,0,0,1,.42.266,4.567,4.567,0,0,0,1.056.69,8.566,8.566,0,0,1,1.023.584,21.965,21.965,0,0,0,2.624,1.414,9.441,9.441,0,0,1,1.316.759,2.591,2.591,0,0,0,.877.42,2.1,2.1,0,0,1,.828.433,3.982,3.982,0,0,0,1.162.6,5.064,5.064,0,0,1,1.211.591,3.44,3.44,0,0,0,1.029.485,3.058,3.058,0,0,1,1.018.508,3.192,3.192,0,0,0,1.082.517,4.094,4.094,0,0,1,1.113.479,4.909,4.909,0,0,0,1.1.52,12.246,12.246,0,0,1,1.435.6,10.077,10.077,0,0,0,1.519.6,4.262,4.262,0,0,1,1.157.514,2.835,2.835,0,0,0,1.013.414,6.143,6.143,0,0,1,1.386.512,10.278,10.278,0,0,0,1.768.659,4.51,4.51,0,0,1,1.256.485,3.8,3.8,0,0,0,1.187.431,10.953,10.953,0,0,1,1.773.588,10.843,10.843,0,0,0,1.846.593,7.9,7.9,0,0,1,1.6.522,6.7,6.7,0,0,0,1.639.475,8.583,8.583,0,0,1,1.831.526,7.986,7.986,0,0,0,1.684.506,9.609,9.609,0,0,1,2.539.675,10.388,10.388,0,0,0,1.857.418,9.288,9.288,0,0,1,2.044.512,3.489,3.489,0,0,0,1.013.352,11.354,11.354,0,0,1,4.052,2.086A16.405,16.405,0,0,1,157.5,137a14.01,14.01,0,0,0,.5,1.351c.636,1.434.553,6.874-.127,8.375a12.448,12.448,0,0,0-.529,1.416,18.15,18.15,0,0,1-1.885,3.554,17.4,17.4,0,0,1-7.623,5.758,4.99,4.99,0,0,0-1.073.415c-.628.512-26.705.657-30.366.169l-3.123-.416c-1.068-.142-2.739-.343-3.714-.446a18.764,18.764,0,0,1-2.532-.419,17.853,17.853,0,0,0-2.195-.421c-.789-.1-1.891-.309-2.448-.453s-1.811-.435-2.785-.646a22.6,22.6,0,0,1-2.261-.579,18.744,18.744,0,0,0-1.951-.522,11.484,11.484,0,0,1-1.96-.585,4.406,4.406,0,0,0-1.088-.358,11.674,11.674,0,0,1-2.448-.743,5.4,5.4,0,0,0-1.013-.343,13.846,13.846,0,0,1-1.688-.6,10.211,10.211,0,0,0-1.348-.492,32.785,32.785,0,0,1-4.163-1.713,3.937,3.937,0,0,0-1.022-.406,4.473,4.473,0,0,1-1.072-.4c-.46-.222-1.595-.757-2.523-1.188s-1.8-.853-1.941-.937-1.013-.541-1.941-1.015-2.22-1.162-2.87-1.527-1.613-.891-2.14-1.169a5,5,0,0,1-1.065-.677,3.037,3.037,0,0,0-.856-.514c-.412-.188-.75-.407-.75-.487s-.285-.281-.633-.446a19.839,19.839,0,0,1-2.743-1.774,2.624,2.624,0,0,0-.535-.344A83.534,83.534,0,0,1,54.7,133.4c-.232-.2-.916-.756-1.519-1.229-1.038-.814-2.346-1.918-3.386-2.858l-1.684-1.519c-1.57-1.416-4.683-4.513-6.853-6.818-1.657-1.76-1.727-1.812-2.287-1.707-.89.167-2.815,1.874-3.9,3.46a7.647,7.647,0,0,1-.635.844,4.805,4.805,0,0,0-.482.922,6.012,6.012,0,0,1-.6,1.1,4.764,4.764,0,0,0-.508,1.272,16.857,16.857,0,0,1-.568,1.688c-.355.834-.545,18.38-.2,18.722.127.128,2.484.2,7.557.235,8.548.057,7.974-.064,7.974,1.685,0,1.7-1.029,3.89-2.766,5.876A10.067,10.067,0,0,1,41.4,157.5c-.395.126-.717.283-.717.35,0,.812-12.593.887-14.178.084a9.869,9.869,0,0,0-1.5-.483,7.766,7.766,0,0,1-1.656-.613,2.7,2.7,0,0,0-.786-.348,21.556,21.556,0,0,1-2.9-1.637c-.093-.073-.473-.359-.844-.635a17.822,17.822,0,0,1-2.139-1.888,19.143,19.143,0,0,1-3.179-4.019,1.8,1.8,0,0,0-.422-.7,2.152,2.152,0,0,1-.422-.623,10.967,10.967,0,0,0-.591-1.35,7.238,7.238,0,0,1-.591-1.485,8.976,8.976,0,0,0-.421-1.472c-.926-2.65-.976-14.322-.074-17.106a17.365,17.365,0,0,0,.516-2.09,8.589,8.589,0,0,1,.56-1.857,8.442,8.442,0,0,0,.52-1.435,4.048,4.048,0,0,1,.526-1.179,2.309,2.309,0,0,0,.4-.863,2.26,2.26,0,0,1,.391-.852,14.564,14.564,0,0,0,.79-1.376,4.719,4.719,0,0,1,.706-1.077.9.9,0,0,0,.307-.466,14.34,14.34,0,0,1,1.941-2.719,33.084,33.084,0,0,1,8.638-7.276c1.218-.637,1.338-1.25.488-2.484a4.34,4.34,0,0,1-.6-1.07,1.785,1.785,0,0,0-.391-.674,4.676,4.676,0,0,1-.619-1.068,3.871,3.871,0,0,0-.436-.844c-.115-.139-.633-1.08-1.152-2.091s-1.01-1.922-1.09-2.026a6.327,6.327,0,0,1-.461-1.032,4.549,4.549,0,0,0-.614-1.171,1.116,1.116,0,0,1-.3-.57,5.8,5.8,0,0,0-.527-1.277,13.562,13.562,0,0,1-.766-1.835c-.132-.441-.3-.8-.375-.8a2.765,2.765,0,0,1-.446-1.055,6.94,6.94,0,0,0-.617-1.5,6.208,6.208,0,0,1-.579-1.511,6.638,6.638,0,0,0-.51-1.427,6.238,6.238,0,0,1-.5-1.359,11.236,11.236,0,0,0-.586-1.678,7.775,7.775,0,0,1-.5-1.587,6.724,6.724,0,0,0-.436-1.429,11.324,11.324,0,0,1-.569-1.968,10.93,10.93,0,0,0-.577-1.971,10.607,10.607,0,0,1-.534-2.184,12.13,12.13,0,0,0-.528-2.232,7.724,7.724,0,0,1-.417-1.773,35.951,35.951,0,0,0-.728-3.985,28.658,28.658,0,0,1-.428-3.039c-.1-1.068-.25-2.359-.343-2.87a44.474,44.474,0,0,1-.666-7.934c-.393-11.1-.18-24.838.4-25.989.12-.237.388-.914.6-1.5a9.029,9.029,0,0,1,.782-1.67,2.782,2.782,0,0,0,.4-.75c0-.685,4.674-5.37,5.357-5.37a5.784,5.784,0,0,0,1.058-.591,4.02,4.02,0,0,1,1.213-.591,5.261,5.261,0,0,0,1.272-.452c1.4-.65,3.819-.844,7.222-.58" fill="#070504" fill-rule="evenodd"/>
      <path id="path1" d="M101.96,110.656a51.562,51.562,0,0,1-5.518.68,7.816,7.816,0,0,0-2.7.474,4.945,4.945,0,0,1-2.232.713,2.427,2.427,0,0,0-1.1.427,3.406,3.406,0,0,1-1.175.54,3.239,3.239,0,0,0-1.2.59,2.211,2.211,0,0,1-.989.485,1.4,1.4,0,0,0-.869.5,1.31,1.31,0,0,1-.736.479,2.877,2.877,0,0,0-1.049.588,3.514,3.514,0,0,1-.934.606.788.788,0,0,0-.473.436.752.752,0,0,1-.439.428,36.267,36.267,0,0,0-4.95,4.924.791.791,0,0,1-.443.475.46.46,0,0,0-.329.379,1.624,1.624,0,0,1-.46.755,4.076,4.076,0,0,0-.72,1.191A1.665,1.665,0,0,1,75,126.2c-.207.092-.377.26-.377.374,0,.279-.64.605-1,.511-.222-.058-.292.03-.292.368a4.3,4.3,0,0,1-.47,1.37,27.936,27.936,0,0,0-2.044,6.158c-.155.743-.356,1.654-.447,2.026s-.215,5.021-.276,10.332c-.087,7.575-.158,9.7-.33,9.876s-2.314.243-9.96.328c-5.358.06-10.045.183-10.416.273s-1.245.292-1.941.449a33.332,33.332,0,0,0-5.776,1.91.91.91,0,0,1-.717.173c-.388-.074-.428-.03-.428.473a1.35,1.35,0,0,1-1.278,1.255.5.5,0,0,0-.49.321,2.313,2.313,0,0,1-1.392.861,1.955,1.955,0,0,0-.639.506,1.618,1.618,0,0,1-.764.506c-.153,0-.365.19-.471.422s-.32.422-.476.422a33.446,33.446,0,0,0-4.867,4.878.759.759,0,0,1-.436.442.828.828,0,0,0-.441.555,1.612,1.612,0,0,1-.487.745,2.9,2.9,0,0,0-.66,1.008,2.541,2.541,0,0,1-.591.928,1.5,1.5,0,0,0-.42.828,2.2,2.2,0,0,1-.484.983,3.239,3.239,0,0,0-.59,1.2,3.522,3.522,0,0,1-.528,1.173,3.583,3.583,0,0,0-.486,1.381,9.322,9.322,0,0,1-.593,1.941,6.725,6.725,0,0,0-.524,2.618c-.06.946-.23,2.579-.377,3.63a28.426,28.426,0,0,0-.239,6.889c.345,2,.69,4.677.69,5.349a2.033,2.033,0,0,0,.415,1.225,4.643,4.643,0,0,1,.611,1.508,2.308,2.308,0,0,0,.5,1.159,1.971,1.971,0,0,1,.51.846,4.127,4.127,0,0,0,.688,1.187,2,2,0,0,1,.482.805c0,.138.19.338.422.444s.422.289.422.406a13.867,13.867,0,0,0,2.673,2.77c.1,0,.336.228.535.506a1.155,1.155,0,0,0,.658.506,1.221,1.221,0,0,1,.669.4,3,3,0,0,0,1.055.622,2.12,2.12,0,0,1,.891.524,2.155,2.155,0,0,0,1.043.484,5.15,5.15,0,0,1,1.431.577,5.346,5.346,0,0,0,2.448.591c1.018.109,2.268.265,2.779.346a47.61,47.61,0,0,0,7.344,0c.464-.079,1.437-.233,2.162-.343a2.853,2.853,0,0,0,1.726-.607,2.133,2.133,0,0,1,.914-.509.814.814,0,0,0,.607-.42,1.244,1.244,0,0,1,.563-.558,1.692,1.692,0,0,0,.66-.674c.109-.239.312-.435.452-.435s.3-.209.366-.464a3.669,3.669,0,0,1,.594-1.08,2.22,2.22,0,0,0,.482-.958,7.741,7.741,0,0,1,.2-1.2,1.869,1.869,0,0,0,.008-1.27l-.189-.416-7.056-.051c-7.749-.056-7.62-.038-7.964-1.1-.663-2.041.034-20.2.8-20.945a2.992,2.992,0,0,0,.52-1.093,2.6,2.6,0,0,1,.472-1.011,3.378,3.378,0,0,0,.577-.963,5.391,5.391,0,0,1,1.538-2.039,3.853,3.853,0,0,0,.678-.886.436.436,0,0,1,.353-.3c.136,0,.409-.228.607-.506a1.7,1.7,0,0,1,.765-.608.75.75,0,0,0,.5-.407c.123-.388.4-.492,1.674-.618a4.088,4.088,0,0,0,1.213-.248,18.474,18.474,0,0,1,2.026-.779l1.839-.633H85.871l.581.483c.319.265.885.76,1.256,1.1a48.039,48.039,0,0,0,3.8,3.114c.6.436,1.175.857,1.27.933s.4.284.675.46.958.665,1.515,1.086,1.351.984,1.764,1.252.831.555.928.639.785.506,1.528.938a15.938,15.938,0,0,1,1.435.9,5.831,5.831,0,0,0,.844.536c.418.235,1.253.712,1.857,1.059,2.813,1.621,10.157,5.318,10.567,5.318a9.554,9.554,0,0,1,1.192.506,7.5,7.5,0,0,0,1.248.506,3.938,3.938,0,0,1,.886.351,15.269,15.269,0,0,0,1.659.662c.522.171,1.32.461,1.773.646a15.069,15.069,0,0,0,1.667.546,8.215,8.215,0,0,1,1.347.463,11.809,11.809,0,0,0,1.795.565,16.78,16.78,0,0,1,1.885.561,13.74,13.74,0,0,0,1.919.516,19.545,19.545,0,0,1,2,.5,18.937,18.937,0,0,0,2.363.505c.928.147,2.076.377,2.551.511s2.146.393,3.714.575,3.611.453,4.54.6a18.407,18.407,0,0,0,2.951.219c1.4-.056,1.243.094,1.685-1.6a2.782,2.782,0,0,1,.4-.928,6.048,6.048,0,0,0,.548-.759,6.248,6.248,0,0,1,1.346-1.266l1.009-.725h4.254l.813.633a5.871,5.871,0,0,0,.912.634c.311,0,1.562,2.247,1.685,3.024.186,1.177-.1,1.1,4.547,1.2,5.317.108,4.977.355,4.448-3.235a7.2,7.2,0,0,0-.56-2.279,2.507,2.507,0,0,1-.652-1.322,3.091,3.091,0,0,0-.591-1.048,3.889,3.889,0,0,1-.591-.936c0-.089-.19-.312-.422-.494a1.067,1.067,0,0,1-.422-.577c0-.134-.181-.327-.4-.428a1.373,1.373,0,0,1-.587-.587c-.1-.222-.3-.4-.436-.4s-.42-.228-.626-.506a1.205,1.205,0,0,0-.654-.506,1.05,1.05,0,0,1-.6-.355,2.685,2.685,0,0,0-1.521-.827,1.919,1.919,0,0,1-.81-.393,4.2,4.2,0,0,0-1.935-.59,6.8,6.8,0,0,1-1.941-.52,4.584,4.584,0,0,0-1.541-.433c-1.539-.165-2.6-.436-2.751-.7a3.088,3.088,0,0,0-1.532-.412c-1.289-.162-1.984-.384-2.229-.714a5.352,5.352,0,0,0-1.382-.354,6.1,6.1,0,0,1-1.761-.543,5.359,5.359,0,0,0-1.605-.515,5.028,5.028,0,0,1-1.622-.545,3.391,3.391,0,0,0-1.232-.461,5.8,5.8,0,0,1-1.586-.577,5.884,5.884,0,0,0-1.658-.582,2.42,2.42,0,0,1-1.114-.416,3.193,3.193,0,0,0-1.753-.688,2.022,2.022,0,0,1-.892-.422,2.02,2.02,0,0,0-.881-.422,3.28,3.28,0,0,1-1.7-.732,1.707,1.707,0,0,0-.825-.362c-.731-.137-1.562-.539-1.562-.755,0-.084-.422-.246-.938-.362a2.038,2.038,0,0,1-1.091-.495,1.912,1.912,0,0,0-.961-.5,3.614,3.614,0,0,1-1.231-.6,2.5,2.5,0,0,0-.975-.5,2.781,2.781,0,0,1-1.017-.507,3.658,3.658,0,0,0-1.181-.584,1.831,1.831,0,0,1-.924-.528,1.722,1.722,0,0,0-.883-.514,3.1,3.1,0,0,1-1.1-.566,3.361,3.361,0,0,0-1.055-.589,1.967,1.967,0,0,1-.844-.5,1.315,1.315,0,0,0-.663-.409,2.853,2.853,0,0,1-.93-.514,5.079,5.079,0,0,0-1.1-.661,1.855,1.855,0,0,1-.795-.588,1.087,1.087,0,0,0-.675-.43,2.877,2.877,0,0,1-1.061-.593,2.7,2.7,0,0,0-.9-.557.793.793,0,0,1-.5-.428.96.96,0,0,0-.637-.46,2.191,2.191,0,0,1-.92-.539,3.017,3.017,0,0,0-.936-.615,1.175,1.175,0,0,1-.646-.573.574.574,0,0,0-.487-.4,1.3,1.3,0,0,1-.722-.39,7.865,7.865,0,0,0-1.1-.846,2.25,2.25,0,0,1-.717-.592c0-.074-.266-.262-.591-.417s-.591-.4-.591-.542-.206-.3-.5-.36a.814.814,0,0,1-.6-.418,1.054,1.054,0,0,0-.455-.507,29.135,29.135,0,0,1-3.484-2.849,4.277,4.277,0,0,0-.781-.594,1.281,1.281,0,0,1-.5-.539.916.916,0,0,0-.538-.462.744.744,0,0,1-.482-.433,1.3,1.3,0,0,0-.59-.589,1.291,1.291,0,0,1-.585-.572.775.775,0,0,0-.516-.426.723.723,0,0,1-.515-.509.722.722,0,0,0-.515-.509.946.946,0,0,1-.578-.537.912.912,0,0,0-.507-.523,1.187,1.187,0,0,1-.587-.562,1.281,1.281,0,0,0-.584-.581.769.769,0,0,1-.438-.5.722.722,0,0,0-.5-.5.724.724,0,0,1-.5-.5,1.02,1.02,0,0,0-.512-.586,1.252,1.252,0,0,1-.568-.6.941.941,0,0,0-.495-.517.741.741,0,0,1-.437-.417,2.954,2.954,0,0,0-.577-.81,1.945,1.945,0,0,1,.014-2.366,3.779,3.779,0,0,0,.479-1.14,3.1,3.1,0,0,1,.617-1.216,1.233,1.233,0,0,0,.392-.7,1.911,1.911,0,0,1,.525-.89,3.919,3.919,0,0,0,.672-.949,1.108,1.108,0,0,1,.572-.549.583.583,0,0,0,.425-.5c0-.223.149-.376.434-.448a.941.941,0,0,0,.593-.525,1.26,1.26,0,0,1,.663-.606,1.073,1.073,0,0,0,.588-.451,1.722,1.722,0,0,1,.8-.568,4.6,4.6,0,0,0,1.056-.621,3.454,3.454,0,0,1,1.182-.533,3.537,3.537,0,0,0,1.169-.515c.811-.734,18.458-1.431,20.559-.812,1.211.357,1.147-.079,1.147,7.842v7.136l.452.206a5.525,5.525,0,0,0,3.6-.664,6.859,6.859,0,0,1,1.14-.578c.209-.063.38-.215.38-.339s.266-.382.591-.574.591-.467.591-.611.19-.349.422-.455a.651.651,0,0,0,.422-.549,2.089,2.089,0,0,1,.487-.948,3.312,3.312,0,0,0,.669-1.684c.1-.6.3-1.625.441-2.275a26.008,26.008,0,0,0,0-7.259c-.139-.743-.341-2.146-.447-3.118-.141-1.287-.279-1.859-.5-2.1a3.5,3.5,0,0,1-.645-1.83,1.19,1.19,0,0,0-.423-.663,1.184,1.184,0,0,1-.422-.664.518.518,0,0,0-.169-.4.469.469,0,0,1-.169-.365,1,1,0,0,0-.4-.576,1.589,1.589,0,0,1-.5-.8.7.7,0,0,0-.444-.58.747.747,0,0,1-.461-.4,14.869,14.869,0,0,0-2.742-2.759c-.1,0-.3-.19-.451-.422s-.384-.422-.516-.422a1.558,1.558,0,0,1-.7-.467,3.509,3.509,0,0,0-1.188-.707,2.263,2.263,0,0,1-.934-.531,1.592,1.592,0,0,0-.874-.41,5.394,5.394,0,0,1-1.429-.555,6.206,6.206,0,0,0-2.532-.645c-.975-.114-2.494-.325-3.376-.469a31.128,31.128,0,0,0-5.923-.2" transform="translate(-11.994 -57.242)" fill="#faba04" fill-rule="evenodd"/>
      <path id="path2" d="M36.952,22.961a12.008,12.008,0,0,0-1.6.376,14.753,14.753,0,0,1-1.89.427,2.508,2.508,0,0,0-1.277.489,3.7,3.7,0,0,1-1.148.611,2.194,2.194,0,0,0-.884.46,1.93,1.93,0,0,1-.615.466,16.264,16.264,0,0,0-2.88,2.632,2.2,2.2,0,0,1-.464.636A5.57,5.57,0,0,0,24.776,31.2a2.915,2.915,0,0,1-.558,1.016,2.394,2.394,0,0,0-.512,1.36,15.074,15.074,0,0,1-.461,2.064c-.621,2.037-.6,20.307.034,25.862.09.789.27,3.068.4,5.065a32.848,32.848,0,0,0,.437,4.136,15.985,15.985,0,0,1,.68,3.879,13.374,13.374,0,0,0,.489,2.59,13.576,13.576,0,0,1,.517,2.394,11.048,11.048,0,0,0,.529,2.314,9.451,9.451,0,0,1,.506,1.941,9.777,9.777,0,0,0,.586,2.107,7.474,7.474,0,0,1,.514,1.773,6,6,0,0,0,.511,1.659,7.328,7.328,0,0,1,.566,1.663,6.586,6.586,0,0,0,.5,1.517,5.752,5.752,0,0,1,.69,2.083,1.225,1.225,0,0,0,.328.672,3.169,3.169,0,0,1,.513,1.217,5.188,5.188,0,0,0,.589,1.476,4.083,4.083,0,0,1,.522,1.266,2.847,2.847,0,0,0,.247.823,5.381,5.381,0,0,1,.84,1.745,2.157,2.157,0,0,0,.427.879,4.881,4.881,0,0,1,.628,1.257,3.114,3.114,0,0,0,.5,1.008,2.657,2.657,0,0,1,.466.928,4.83,4.83,0,0,0,.563,1.189,5.914,5.914,0,0,1,.608,1.224c.114.348.273.633.355.633.151,0,.557.8.753,1.477.06.209.179.38.263.38a3.319,3.319,0,0,1,.836,1.579.413.413,0,0,0,.261.342,1.56,1.56,0,0,1,.522.735c.515,1.253,1.565,1.941,2.057,1.347a33.35,33.35,0,0,1,5.77-1.906c.7-.157,1.57-.36,1.941-.45s5.059-.213,10.416-.273c7.646-.086,9.788-.157,9.96-.328s.243-2.3.33-9.876c.061-5.311.185-9.961.276-10.332s.292-1.283.447-2.026.387-1.692.516-2.11a26.4,26.4,0,0,1,1.317-3.61c.925-1.451.869-2.352-.225-3.6a2.952,2.952,0,0,1-.612-1.073.8.8,0,0,0-.389-.58,1.325,1.325,0,0,1-.512-.759,2.952,2.952,0,0,0-.617-1.039,1.25,1.25,0,0,1-.4-.578,4.151,4.151,0,0,0-.591-1.064,5.079,5.079,0,0,1-.591-1,3.294,3.294,0,0,0-.5-.806,3.713,3.713,0,0,1-.61-1.216,1.421,1.421,0,0,0-.4-.76,2.722,2.722,0,0,1-.583-.957,7.39,7.39,0,0,0-.593-1.182,6.271,6.271,0,0,1-.531-1.023,3.6,3.6,0,0,0-.537-.92,2.521,2.521,0,0,1-.454-.876,4.089,4.089,0,0,0-.567-1.107,3.337,3.337,0,0,1-.525-1.142,2.22,2.22,0,0,0-.428-.928,4.071,4.071,0,0,1-.595-1.173,6.376,6.376,0,0,0-.577-1.266,5.036,5.036,0,0,1-.517-1.2,3.758,3.758,0,0,0-.425-1.013,4.99,4.99,0,0,1-.675-1.726,3.791,3.791,0,0,0-.5-1.049,3.991,3.991,0,0,1-.519-1.4,2.606,2.606,0,0,0-.435-1.149A3.928,3.928,0,0,1,58,51.942a5.935,5.935,0,0,0-.535-1.476,6.047,6.047,0,0,1-.531-1.575,5.317,5.317,0,0,0-.4-1.326,9.076,9.076,0,0,1-.758-2.609,2.706,2.706,0,0,0-.33-1.013,5.42,5.42,0,0,1-.687-2.363,5.79,5.79,0,0,0-.441-1.57,8.126,8.126,0,0,1-.507-2.026,11.357,11.357,0,0,0-.523-2.229,15.091,15.091,0,0,1-.573-1.835,5.31,5.31,0,0,0-.541-1.435,4.9,4.9,0,0,1-.5-1.02,4.807,4.807,0,0,0-.617-1.129,2.4,2.4,0,0,1-.421-.708A21.957,21.957,0,0,0,47,25.783a3.262,3.262,0,0,1-.727-.619.758.758,0,0,0-.52-.3,3.048,3.048,0,0,1-1.045-.492,4.328,4.328,0,0,0-1.591-.606,18.011,18.011,0,0,1-1.941-.42,14.194,14.194,0,0,0-4.22-.387" transform="translate(-11.799 -11.867)" fill="#f8d079" fill-rule="evenodd"/>
      <path id="path3" d="M34.747,21.558a7.256,7.256,0,0,0-2.157.566,5.261,5.261,0,0,1-1.272.452,4.02,4.02,0,0,0-1.213.591,5.784,5.784,0,0,1-1.058.591c-.682,0-5.357,4.685-5.357,5.37a2.782,2.782,0,0,1-.4.75,9.029,9.029,0,0,0-.782,1.67c-.207.59-.475,1.267-.6,1.5-.583,1.151-.8,14.885-.4,25.989a44.474,44.474,0,0,0,.666,7.934c.093.511.247,1.8.343,2.87a28.658,28.658,0,0,0,.428,3.039,35.951,35.951,0,0,1,.728,3.985,7.724,7.724,0,0,0,.417,1.773,12.13,12.13,0,0,1,.528,2.232,10.607,10.607,0,0,0,.534,2.184,10.929,10.929,0,0,1,.577,1.971A11.323,11.323,0,0,0,26.295,87a6.724,6.724,0,0,1,.436,1.429,7.776,7.776,0,0,0,.5,1.587,11.236,11.236,0,0,1,.586,1.678,6.238,6.238,0,0,0,.5,1.359,6.638,6.638,0,0,1,.51,1.427,6.207,6.207,0,0,0,.579,1.511,6.94,6.94,0,0,1,.617,1.5,2.765,2.765,0,0,0,.446,1.055c.074,0,.243.361.375.8a13.562,13.562,0,0,0,.766,1.835,5.8,5.8,0,0,1,.527,1.277,1.116,1.116,0,0,0,.3.57,4.549,4.549,0,0,1,.614,1.171,6.327,6.327,0,0,0,.461,1.032c.081.1.571,1.015,1.09,2.026s1.037,1.952,1.152,2.091a3.871,3.871,0,0,1,.436.844,4.676,4.676,0,0,0,.619,1.068,1.785,1.785,0,0,1,.391.674,4.341,4.341,0,0,0,.6,1.07c.85,1.234.73,1.846-.488,2.484a33.084,33.084,0,0,0-8.638,7.276,14.339,14.339,0,0,0-1.941,2.719.9.9,0,0,1-.307.466,4.719,4.719,0,0,0-.706,1.077,14.566,14.566,0,0,1-.79,1.376,2.26,2.26,0,0,0-.391.852,2.309,2.309,0,0,1-.4.863,4.048,4.048,0,0,0-.526,1.179,8.443,8.443,0,0,1-.52,1.435,8.589,8.589,0,0,0-.56,1.857,17.365,17.365,0,0,1-.516,2.09c-.9,2.784-.852,14.456.074,17.106a8.976,8.976,0,0,1,.421,1.472,7.238,7.238,0,0,0,.591,1.485,10.965,10.965,0,0,1,.591,1.35,2.152,2.152,0,0,0,.422.622,1.8,1.8,0,0,1,.422.7,19.143,19.143,0,0,0,3.179,4.019,17.821,17.821,0,0,0,2.139,1.888c.371.276.751.562.844.635a21.553,21.553,0,0,0,2.9,1.637,2.7,2.7,0,0,1,.786.348,7.767,7.767,0,0,0,1.656.613,9.87,9.87,0,0,1,1.5.483c1.585.8,14.178.728,14.178-.084,0-.067.323-.224.717-.35,2.917-.929,6.2-5.33,6.2-8.3,0-1.749.574-1.628-7.974-1.685-5.073-.034-7.43-.107-7.557-.235-.342-.342-.152-17.888.2-18.722a16.859,16.859,0,0,0,.568-1.688,4.764,4.764,0,0,1,.508-1.272,6.012,6.012,0,0,0,.6-1.1,4.8,4.8,0,0,1,.482-.922,7.651,7.651,0,0,0,.635-.844c1.086-1.586,3.012-3.293,3.9-3.46.56-.105.631-.053,2.287,1.707,2.17,2.3,5.282,5.4,6.853,6.818l1.684,1.519c1.04.94,2.348,2.044,3.386,2.858.6.473,1.287,1.026,1.519,1.229a83.529,83.529,0,0,0,6.893,5.013,2.624,2.624,0,0,1,.535.344,19.837,19.837,0,0,0,2.743,1.774c.348.165.633.365.633.446s.337.3.75.487a3.038,3.038,0,0,1,.856.514,5,5,0,0,0,1.065.677c.527.277,1.49.8,2.14,1.169s1.941,1.052,2.87,1.527,1.8.931,1.941,1.015,1.013.506,1.941.937,2.064.966,2.523,1.188a4.473,4.473,0,0,0,1.072.4,3.938,3.938,0,0,1,1.022.406,32.784,32.784,0,0,0,4.163,1.713,10.211,10.211,0,0,1,1.348.492,13.844,13.844,0,0,0,1.688.6,5.4,5.4,0,0,1,1.013.343,11.675,11.675,0,0,0,2.448.743,4.406,4.406,0,0,1,1.088.358,11.485,11.485,0,0,0,1.96.585,18.736,18.736,0,0,1,1.951.522,22.6,22.6,0,0,0,2.261.579c.975.211,2.228.5,2.785.646s1.659.349,2.448.453a17.852,17.852,0,0,1,2.195.421,18.765,18.765,0,0,0,2.532.419c.975.1,2.646.3,3.714.446l3.123.416c3.66.487,29.738.342,30.366-.169a4.99,4.99,0,0,1,1.073-.415,17.4,17.4,0,0,0,7.623-5.758,18.151,18.151,0,0,0,1.885-3.554,12.448,12.448,0,0,1,.529-1.416c.68-1.5.763-6.941.127-8.375a14.009,14.009,0,0,1-.5-1.351,16.405,16.405,0,0,0-5.632-7.522,11.354,11.354,0,0,0-4.052-2.086,3.489,3.489,0,0,1-1.013-.352,9.289,9.289,0,0,0-2.044-.512,10.387,10.387,0,0,1-1.857-.418,9.607,9.607,0,0,0-2.539-.675,7.985,7.985,0,0,1-1.684-.506,8.584,8.584,0,0,0-1.831-.526,6.7,6.7,0,0,1-1.639-.475,7.9,7.9,0,0,0-1.6-.522,10.843,10.843,0,0,1-1.846-.593,10.954,10.954,0,0,0-1.773-.588,3.8,3.8,0,0,1-1.187-.431,4.511,4.511,0,0,0-1.256-.485,10.276,10.276,0,0,1-1.768-.659,6.143,6.143,0,0,0-1.386-.512,2.835,2.835,0,0,1-1.013-.414,4.262,4.262,0,0,0-1.157-.514,10.078,10.078,0,0,1-1.519-.6,12.247,12.247,0,0,0-1.435-.6,4.909,4.909,0,0,1-1.1-.52,4.094,4.094,0,0,0-1.113-.479,3.192,3.192,0,0,1-1.082-.517,3.058,3.058,0,0,0-1.018-.508,3.44,3.44,0,0,1-1.029-.485,5.065,5.065,0,0,0-1.211-.591,3.982,3.982,0,0,1-1.162-.6,2.1,2.1,0,0,0-.828-.433,2.592,2.592,0,0,1-.877-.42,9.438,9.438,0,0,0-1.316-.759,21.963,21.963,0,0,1-2.624-1.414,8.566,8.566,0,0,0-1.023-.584,4.567,4.567,0,0,1-1.056-.69.713.713,0,0,0-.42-.266,18.516,18.516,0,0,1-2.883-1.787,3.348,3.348,0,0,0-.7-.413,7.171,7.171,0,0,1-1.153-.745,3.59,3.59,0,0,0-.986-.6c-.11,0-.295-.152-.411-.338a.684.684,0,0,0-.436-.338,1.044,1.044,0,0,1-.547-.356,3.828,3.828,0,0,0-.912-.658,5.859,5.859,0,0,1-1.138-.826,2.263,2.263,0,0,0-.71-.524,1.541,1.541,0,0,1-.578-.38c-.228-.209-.782-.663-1.232-1.009-2.259-1.741-2.83-2.2-3.814-3.089-.208-.187-.645-.539-.97-.782a14.888,14.888,0,0,1-1.182-1.012c-.325-.314-1.313-1.223-2.195-2.02-3.329-3.009-8.394-8.27-8.548-8.877a4.871,4.871,0,0,1,.587-2.561,6.1,6.1,0,0,0,.535-1.036,4.714,4.714,0,0,1,.62-1.068,2.09,2.09,0,0,0,.391-.605c0-.59,3.9-3.982,5.315-4.624a4.928,4.928,0,0,0,.928-.531,6.185,6.185,0,0,1,1.522-.568c.7-.188,1.681-.462,2.189-.609,1.074-.311,17.422-.4,17.9-.1.217.138.26,1.2.306,7.55.061,8.658-.075,8.057,1.8,7.951a10.586,10.586,0,0,0,8.02-5.7,4.63,4.63,0,0,1,.42-1.042c.98-1.952,1.1-12.4.162-14.406a11.876,11.876,0,0,1-.51-1.6,7.991,7.991,0,0,0-.569-1.6,9.074,9.074,0,0,1-.52-1.1,4.624,4.624,0,0,0-.617-1.068,1.822,1.822,0,0,1-.391-.66c0-.64-3.807-4.8-5.329-5.82a5.033,5.033,0,0,1-.754-.579,2.437,2.437,0,0,0-.689-.383,2.609,2.609,0,0,1-.809-.5,3.129,3.129,0,0,0-1-.545,4.851,4.851,0,0,1-1.042-.5,7.152,7.152,0,0,0-1.6-.574,9.544,9.544,0,0,1-1.519-.494c-1.122-.866-14.47-.879-17.139-.017-.6.195-1.621.463-2.26.6a6.581,6.581,0,0,0-1.519.471,5.656,5.656,0,0,1-1.2.455,5.826,5.826,0,0,0-1.432.62,2.342,2.342,0,0,1-.85.393,4.2,4.2,0,0,0-1.179.591,4.994,4.994,0,0,1-1.1.591,2.4,2.4,0,0,0-.765.5,2.6,2.6,0,0,1-.757.506,16.184,16.184,0,0,0-2.706,1.948,45.2,45.2,0,0,0-3.959,3.905c-.139.2-.679.882-1.2,1.521a15.139,15.139,0,0,0-1.212,1.666,7.2,7.2,0,0,1-.782,1.1l-.516.591-.514-.591a8.01,8.01,0,0,1-.861-1.245,13.733,13.733,0,0,0-.839-1.334,2.9,2.9,0,0,1-.493-.887.707.707,0,0,0-.263-.425,2.541,2.541,0,0,1-.5-.8,5.046,5.046,0,0,0-.666-1.081,1.845,1.845,0,0,1-.424-.726,4.007,4.007,0,0,0-.591-1.08,3.914,3.914,0,0,1-.591-1.093,2.31,2.31,0,0,0-.386-.806,7.271,7.271,0,0,1-.618-1.163,3.957,3.957,0,0,0-.522-.928,3.321,3.321,0,0,1-.487-.953,3.772,3.772,0,0,0-.612-1.1,2.621,2.621,0,0,1-.516-1.02,1.723,1.723,0,0,0-.422-.828.965.965,0,0,1-.321-.456,11.49,11.49,0,0,0-.652-1.535c-.359-.753-.743-1.649-.853-1.989a2.21,2.21,0,0,0-.441-.819,1.666,1.666,0,0,1-.349-.815,5.951,5.951,0,0,0-.577-1.46,6.483,6.483,0,0,1-.585-1.4,8.266,8.266,0,0,0-.606-1.519,4.931,4.931,0,0,1-.492-1.269,3.419,3.419,0,0,0-.358-1.013,12.6,12.6,0,0,1-.675-1.878,7.8,7.8,0,0,0-.553-1.526,5.3,5.3,0,0,1-.436-1.364,7.9,7.9,0,0,0-.532-1.656,9.035,9.035,0,0,1-.567-1.887,8.67,8.67,0,0,0-.486-1.721,7.463,7.463,0,0,1-.452-1.573c-.111-.6-.374-1.66-.584-2.357A24.726,24.726,0,0,1,53.4,34.9a5.716,5.716,0,0,0-.5-1.688,4.812,4.812,0,0,1-.5-1.306,4.134,4.134,0,0,0-.528-1.291,6.561,6.561,0,0,1-.653-1.184c-.183-.427-.4-.777-.487-.777s-.246-.22-.357-.489a20.328,20.328,0,0,0-4.705-4.621,5.074,5.074,0,0,1-.853-.5,3.886,3.886,0,0,0-1.1-.487,11.056,11.056,0,0,1-1.455-.536c-1.15-.529-4.628-.745-7.512-.466m6.033.781c.4.141,1.194.368,1.775.5a7.2,7.2,0,0,1,1.848.75,4.493,4.493,0,0,0,.94.5c1.03,0,4.514,4.025,5.936,6.857a10.045,10.045,0,0,1,.773,1.81,5.062,5.062,0,0,0,.4,1.175,11.437,11.437,0,0,1,.617,2.411,10.777,10.777,0,0,0,.522,2.18,8.111,8.111,0,0,1,.465,1.688A11.011,11.011,0,0,0,54.5,41.99c.157.418.473,1.479.7,2.359a10.939,10.939,0,0,0,.563,1.776,8.511,8.511,0,0,1,.506,1.524,10.147,10.147,0,0,0,.567,1.684,6.057,6.057,0,0,1,.435,1.266,5.359,5.359,0,0,0,.51,1.351,6.742,6.742,0,0,1,.576,1.505,6.6,6.6,0,0,0,.591,1.519,4.9,4.9,0,0,1,.507,1.162,9.452,9.452,0,0,0,.621,1.5,3.942,3.942,0,0,1,.413.994A7.106,7.106,0,0,0,61.082,60a6.444,6.444,0,0,1,.591,1.419.96.96,0,0,0,.321.559,2.436,2.436,0,0,1,.5,1.01,3.807,3.807,0,0,0,.49,1.129,25.264,25.264,0,0,1,1.229,2.225,33.074,33.074,0,0,0,2.129,4.034,4.946,4.946,0,0,1,.5.987,4.391,4.391,0,0,0,.606,1.087,1.119,1.119,0,0,1,.3.509,4.6,4.6,0,0,0,.591,1.059,6.954,6.954,0,0,1,.591.972,6.171,6.171,0,0,0,.549.913c.3.45.679,1.037.839,1.3s.36.6.444.739.242.443.35.675a7.854,7.854,0,0,0,.923,1.258l.727.836.723-.751A6.449,6.449,0,0,0,74.535,78.5a1.828,1.828,0,0,1,.447-.717c.069,0,.258-.225.42-.5a5.208,5.208,0,0,1,.5-.718c.113-.119.482-.559.82-.977a32.52,32.52,0,0,1,3.771-3.809c.555-.458,1.159-.966,1.34-1.128a1.292,1.292,0,0,1,.442-.3,2.634,2.634,0,0,0,.642-.506,1.916,1.916,0,0,1,.752-.506,2.29,2.29,0,0,0,.8-.431,9.39,9.39,0,0,1,1.257-.755c.371-.178.789-.4.928-.485A24.062,24.062,0,0,1,90.2,66.134a8.889,8.889,0,0,0,1.351-.506,5.5,5.5,0,0,1,1.435-.41,37.848,37.848,0,0,0,3.8-.739,72.993,72.993,0,0,1,12.324-.063c.418.119,1.443.372,2.279.562a16.553,16.553,0,0,1,2.617.846c1.026.468,1.3.606,2.617,1.31a25.447,25.447,0,0,1,2.855,2.077,20.425,20.425,0,0,1,5.181,6.711c.191.418.531,1.147.756,1.621a4.288,4.288,0,0,1,.408,1.2,12.15,12.15,0,0,0,.461,1.84c.457,1.482.461,1.541.464,6.392l0,4.9-.585,1.6a9.354,9.354,0,0,1-.886,1.931,1.113,1.113,0,0,0-.3.524,13.872,13.872,0,0,1-2.508,2.609,1.98,1.98,0,0,0-.625.376c-1.1.861-4.512,1.775-4.82,1.289-.08-.126-.147-3.5-.148-7.5,0-7.144-.008-7.276-.356-7.649l-.354-.379-9.4.052-9.4.052-1.242.549a8.682,8.682,0,0,1-1.519.561,2.207,2.207,0,0,0-.784.337,12.631,12.631,0,0,1-1.224.657c-.395.183-.717.413-.717.512s-.192.252-.427.341a12.181,12.181,0,0,0-3.551,3.486,5.3,5.3,0,0,1-.7.929c-.781.347-2.09,4.525-1.672,5.334.74,1.432,8.356,8.919,12.89,12.674.3.248.749.66,1,.915a1.618,1.618,0,0,0,.651.464,1.525,1.525,0,0,1,.632.464,11.643,11.643,0,0,0,1.386,1.14c.524.371,1.193.884,1.488,1.14a2.011,2.011,0,0,0,.746.464c.115,0,.291.151.39.336a1.89,1.89,0,0,0,.694.6,19.881,19.881,0,0,1,2.3,1.6,9.545,9.545,0,0,0,.828.536,7.353,7.353,0,0,1,1.04.755,1.451,1.451,0,0,0,.644.39,2.164,2.164,0,0,1,.8.506,2.574,2.574,0,0,0,.724.506,4.68,4.68,0,0,1,.978.591,3.936,3.936,0,0,0,1.034.591.62.62,0,0,1,.39.225,4.417,4.417,0,0,0,.991.628,8.68,8.68,0,0,1,1.282.787,1.765,1.765,0,0,0,.687.386,2.756,2.756,0,0,1,.874.5,2.622,2.622,0,0,0,.935.506,2.71,2.71,0,0,1,.928.451,10.861,10.861,0,0,0,1.332.752c.371.168.865.415,1.1.549a24.229,24.229,0,0,0,3.043,1.461,2.766,2.766,0,0,1,.807.426,5.2,5.2,0,0,0,1.3.608,4.344,4.344,0,0,1,1.152.523,4.9,4.9,0,0,0,1.191.555,6.739,6.739,0,0,1,1.3.57,2.532,2.532,0,0,0,.8.356,8.619,8.619,0,0,1,1.481.591,8,8,0,0,0,1.515.591,4.7,4.7,0,0,1,1.172.49,6.664,6.664,0,0,0,1.643.612,3.364,3.364,0,0,1,1.152.424,6.067,6.067,0,0,0,1.509.583,11.107,11.107,0,0,1,1.681.577,8.606,8.606,0,0,0,1.609.514,5.53,5.53,0,0,1,1.37.454,6.781,6.781,0,0,0,1.593.494,11.652,11.652,0,0,1,1.922.57,11.681,11.681,0,0,0,2.069.571,9.851,9.851,0,0,1,1.857.5,8.172,8.172,0,0,0,1.661.455c.65.116,1.751.386,2.448.6s1.514.43,1.817.482a13.547,13.547,0,0,1,3.416,1.6,1.94,1.94,0,0,0,.694.522A17.9,17.9,0,0,1,166,144.554a1.566,1.566,0,0,0,.406.635,3.333,3.333,0,0,1,.6,1.027,3.921,3.921,0,0,0,.514,1,5.64,5.64,0,0,1,.6,1.657,10.8,10.8,0,0,0,.492,1.671,6.913,6.913,0,0,1,.276,3.208c-.085.418-.308,1.367-.5,2.11s-.4,1.768-.461,2.279a2.82,2.82,0,0,1-.506,1.389,2.684,2.684,0,0,0-.494.948,2.081,2.081,0,0,1-.418.822,4.563,4.563,0,0,0-.569.825c-.444.845-3.627,3.951-4.049,3.951a1.25,1.25,0,0,0-.607.4,1.906,1.906,0,0,1-.85.5,2.651,2.651,0,0,0-.959.5,2.879,2.879,0,0,1-1.332.526c-.464.065-1.627.272-2.582.458-1.879.367-19.1.37-23.331,0-.975-.084-3.558-.242-5.74-.352a42.2,42.2,0,0,1-4.3-.344c-.186-.08-.49-.2-.675-.26a29.666,29.666,0,0,0-4.267-.586,6.455,6.455,0,0,1-1.688-.346,18.449,18.449,0,0,0-2.739-.6,10.3,10.3,0,0,1-2.363-.571,7.91,7.91,0,0,0-2.026-.5,7.935,7.935,0,0,1-2.239-.6,6.515,6.515,0,0,0-1.895-.525,2.917,2.917,0,0,1-1.284-.35,5.321,5.321,0,0,0-2.287-.741,2.266,2.266,0,0,1-.967-.4,5.736,5.736,0,0,0-1.653-.623,3.925,3.925,0,0,1-1.39-.526,2.474,2.474,0,0,0-1.1-.41,4.5,4.5,0,0,1-1.512-.59,4.469,4.469,0,0,0-1.472-.589,1.914,1.914,0,0,1-.94-.355,3.3,3.3,0,0,0-1.687-.731.983.983,0,0,1-.612-.344,2.966,2.966,0,0,0-1.159-.6,3.146,3.146,0,0,1-1.168-.587,1.892,1.892,0,0,0-.948-.438,2.4,2.4,0,0,1-1.071-.5,3.406,3.406,0,0,0-1.126-.6,3.053,3.053,0,0,1-1.081-.59,2.144,2.144,0,0,0-.859-.493,2.486,2.486,0,0,1-.9-.492,2.384,2.384,0,0,0-.858-.481,3.663,3.663,0,0,1-1.078-.613,2.4,2.4,0,0,0-.915-.51,1.573,1.573,0,0,1-.745-.5,2.313,2.313,0,0,0-1.049-.609.868.868,0,0,1-.672-.41,1.2,1.2,0,0,0-.639-.521,7.258,7.258,0,0,1-1.285-.778,3.222,3.222,0,0,0-.953-.559.377.377,0,0,1-.3-.244,1.458,1.458,0,0,0-.6-.506,5.383,5.383,0,0,1-.975-.7,2.362,2.362,0,0,0-.918-.524.972.972,0,0,1-.632-.49,1.027,1.027,0,0,0-.6-.505,1.363,1.363,0,0,1-.685-.511c-.146-.223-.365-.406-.486-.406a1.377,1.377,0,0,1-.629-.438,4.086,4.086,0,0,0-.914-.7,4.322,4.322,0,0,1-.954-.744,1.514,1.514,0,0,0-.693-.482c-.134,0-.327-.183-.428-.407a1.044,1.044,0,0,0-.519-.513,1.425,1.425,0,0,1-.6-.521c-.15-.228-.353-.415-.451-.415a3.274,3.274,0,0,1-.9-.718,15.589,15.589,0,0,0-1.272-1.14c-.573-.436-5.681-5.5-7.985-7.912-1.933-2.027-2.611-1.929-5.237.761a12.336,12.336,0,0,0-2.45,3.1c-.167.325-.471.857-.676,1.182a2.579,2.579,0,0,0-.373.8,5.4,5.4,0,0,1-.405,1.1c-.695,1.529-.777,2.786-.777,11.886,0,8.563,0,8.567.367,8.957l.367.391h7.216c3.969,0,7.336.046,7.483.1.374.143.35,1.429-.04,2.225a11.249,11.249,0,0,0-.539,1.386,4.37,4.37,0,0,1-.621,1.237,1.953,1.953,0,0,0-.389.627,14.241,14.241,0,0,1-2.581,2.525,1.213,1.213,0,0,0-.531.31,9.525,9.525,0,0,1-1.952.886l-1.6.577H44.876c-3.917,0-4.886-.048-5.655-.28-.511-.154-1.5-.4-2.195-.556a13.952,13.952,0,0,1-3.63-1.4c-1.656-.826-2.11-1.083-2.11-1.193,0-.068-.247-.266-.549-.441a15.713,15.713,0,0,1-2.212-1.746,26.9,26.9,0,0,1-2.735-3.2c-.174-.3-.367-.549-.429-.549s-.209-.247-.328-.549a5.844,5.844,0,0,0-.612-1.086,2.122,2.122,0,0,1-.4-.76,5.729,5.729,0,0,0-.5-1.207,7.382,7.382,0,0,1-.606-1.6c-.059-.341-.306-1.379-.55-2.307a56.5,56.5,0,0,1-.237-12.408c.1-.511.368-1.97.593-3.242a14.489,14.489,0,0,1,.658-2.7,7.566,7.566,0,0,0,.551-1.485,7.038,7.038,0,0,1,.584-1.519,5.578,5.578,0,0,0,.507-1.1,3.6,3.6,0,0,1,.522-1.013,3.229,3.229,0,0,0,.493-.95,2.444,2.444,0,0,1,.512-.9,2.713,2.713,0,0,0,.536-.822,3.4,3.4,0,0,1,.606-.924,1.519,1.519,0,0,0,.385-.517,1.226,1.226,0,0,1,.3-.458c.162-.181.595-.7.96-1.154a32.076,32.076,0,0,1,5.5-5.158,3.494,3.494,0,0,0,.726-.631.467.467,0,0,1,.338-.22,2.5,2.5,0,0,0,.784-.38c.32-.209.928-.569,1.351-.8a2.137,2.137,0,0,0,.122-3.461A13.012,13.012,0,0,1,36.7,109.78a7.878,7.878,0,0,0-.724-1.162,2.1,2.1,0,0,1-.389-.79,3.368,3.368,0,0,0-.511-1.017,4.858,4.858,0,0,1-.6-1.161,3.273,3.273,0,0,0-.483-.943,3.754,3.754,0,0,1-.512-.928c-.122-.325-.476-1.131-.787-1.79a11.278,11.278,0,0,1-.565-1.324,2.01,2.01,0,0,0-.313-.573,3.374,3.374,0,0,1-.434-.955,8.9,8.9,0,0,0-.594-1.44,7.978,7.978,0,0,1-.595-1.519,4.673,4.673,0,0,0-.44-1.138,8.352,8.352,0,0,1-.592-1.519,7.05,7.05,0,0,0-.5-1.318,7.613,7.613,0,0,1-.509-1.519,8.125,8.125,0,0,0-.588-1.675,4.192,4.192,0,0,1-.413-1.266,8.241,8.241,0,0,0-.712-2.324,10.247,10.247,0,0,1-.457-1.773,9.567,9.567,0,0,0-.486-1.812,12.737,12.737,0,0,1-.55-2.271,20.878,20.878,0,0,0-.513-2.373,27.106,27.106,0,0,1-.577-3.046c-.187-1.295-.45-2.772-.584-3.282a27.9,27.9,0,0,1-.43-3.415c-.1-1.368-.261-3.077-.351-3.8s-.25-2.071-.357-3c-.281-2.433-.3-24.739-.021-25.66.112-.371.375-1.321.585-2.11a6.585,6.585,0,0,1,.646-1.723,3.327,3.327,0,0,0,.491-.928,3.555,3.555,0,0,1,.566-1.014,5.071,5.071,0,0,0,.529-.7c.788-1.351,4.151-4.418,4.846-4.418a3.336,3.336,0,0,0,.9-.484,5.909,5.909,0,0,1,1.628-.7,13.816,13.816,0,0,0,1.546-.463,14.522,14.522,0,0,1,6.919-.111M151.552,148.951a4.428,4.428,0,0,0-2.181,1.864,7.184,7.184,0,0,1-.542.918,4.9,4.9,0,0,0-.052,4.366c1.733,2.7,4.838,3.663,7.274,2.255.884-.511,1.849-1.4,1.849-1.7a2.7,2.7,0,0,1,.422-.709,4.951,4.951,0,0,0-.178-4.22,2.159,2.159,0,0,1-.313-.611c-.6-1.969-4.258-3.228-6.279-2.16" transform="translate(-11.028 -11.097)" fill="#9b731b" fill-rule="evenodd"/>
      <path id="path4" d="M36.055,22.639a14.542,14.542,0,0,0-1.857.48c-.557.188-1.165.382-1.351.431s.042.046.506-.005a12.919,12.919,0,0,0,1.941-.438,11.64,11.64,0,0,1,5.67.018,17.536,17.536,0,0,0,2.011.452,4.328,4.328,0,0,1,1.591.606,3.171,3.171,0,0,0,1,.492c.552,0-1.387-1.019-2.383-1.253-.58-.136-1.379-.362-1.775-.5a18.561,18.561,0,0,0-5.358-.28m-4.727,1.538a3,3,0,0,1-.888.493c-.734.019-4.071,3.05-4.871,4.423a5.071,5.071,0,0,1-.529.7,3.555,3.555,0,0,0-.566,1.014,3.337,3.337,0,0,1-.527.964,1.094,1.094,0,0,0-.3.524c0,.379.828-.693.991-1.283a5.57,5.57,0,0,1,1.415-2.141,2.2,2.2,0,0,0,.464-.636A16.264,16.264,0,0,1,29.4,25.6a1.93,1.93,0,0,0,.615-.466,2.195,2.195,0,0,1,.884-.46,3.739,3.739,0,0,0,1.164-.626c.593-.55.086-.46-.732.13m14.812.838a1.154,1.154,0,0,0,.519.437,21.968,21.968,0,0,1,3.83,3.986,2.4,2.4,0,0,0,.421.708,4.807,4.807,0,0,1,.617,1.129,4.9,4.9,0,0,0,.5,1.02,5.3,5.3,0,0,1,.54,1.435c.285,1.222.921,2.674.942,2.151a4.585,4.585,0,0,0-.408-1.313,5.43,5.43,0,0,1-.422-1.224c0-1.052-2.352-4.767-4.149-6.551-1.631-1.62-2.871-2.54-2.394-1.777M23.26,33.749c-.167.627-.395,1.443-.506,1.814-.271.9-.26,23.223.013,25.576.29,2.506.7,6.253.769,7.09.036.418.035-.266,0-1.519a68.452,68.452,0,0,0-.6-7.175c-.411-3.092-.287-22.363.154-23.972a11.043,11.043,0,0,0,.536-2.954,6.271,6.271,0,0,0-.364,1.14m30.289,3.007a8.715,8.715,0,0,0,.616,3.024,5.389,5.389,0,0,1,.4,1.1c.1.462.115.4.051-.276a4.925,4.925,0,0,0-.365-1.435,8.058,8.058,0,0,1-.482-1.75c-.11-.655-.208-.951-.219-.664m1.172,5.154a3.657,3.657,0,0,0,.585,1.84,2.736,2.736,0,0,1,.328,1.013,10.191,10.191,0,0,0,.818,2.765,4.733,4.733,0,0,1,.367,1.283c.112.813.914,2.386.924,1.812a1.5,1.5,0,0,0-.238-.675,9.084,9.084,0,0,1-.6-1.721,8.512,8.512,0,0,0-.506-1.524,10.968,10.968,0,0,1-.565-1.776c-.563-2.156-1.1-3.6-1.111-3.018m3.045,9.236a3.814,3.814,0,0,0,.675,1.99c.409.37.423.043.025-.558a5.129,5.129,0,0,1-.489-1.049c-.106-.331-.2-.5-.211-.382m1.1,3.071a4.7,4.7,0,0,0,.863,2.09,1.6,1.6,0,0,1,.211.633,3.656,3.656,0,0,0,.652,1.566,2.576,2.576,0,0,1,.368.9,5.022,5.022,0,0,0,.523,1.245,6.246,6.246,0,0,1,.581,1.266,4.265,4.265,0,0,0,.576,1.165,2.79,2.79,0,0,1,.406.591c.059.139.063.025.009-.253a2.043,2.043,0,0,0-.423-.855,1.185,1.185,0,0,1-.326-.591,6.769,6.769,0,0,0-.591-1.392,7.106,7.106,0,0,1-.59-1.368,3.942,3.942,0,0,0-.413-.994,9.452,9.452,0,0,1-.621-1.5,4.882,4.882,0,0,0-.5-1.151,6.129,6.129,0,0,1-.56-1.266l-.269-.842.1.76M63.15,64.265a2.117,2.117,0,0,0,.439.878,4.052,4.052,0,0,1,.59,1.122,2.521,2.521,0,0,0,.454.876,3.6,3.6,0,0,1,.537.92,6.271,6.271,0,0,0,.531,1.023,7.391,7.391,0,0,1,.593,1.182,2.722,2.722,0,0,0,.583.957,1.421,1.421,0,0,1,.4.76,3.713,3.713,0,0,0,.61,1.216,3.294,3.294,0,0,1,.5.806,5.079,5.079,0,0,0,.591,1,4.15,4.15,0,0,1,.591,1.064,1.25,1.25,0,0,0,.4.578,2.952,2.952,0,0,1,.617,1.039,1.325,1.325,0,0,0,.512.759.783.783,0,0,1,.386.566,3.64,3.64,0,0,0,.653,1.17c.307.383.677.863.822,1.067a.766.766,0,0,0,1.284-.16.846.846,0,0,1,.444-.457,1.7,1.7,0,0,0,.627-.873,4.076,4.076,0,0,1,.72-1.191,1.624,1.624,0,0,0,.46-.755.46.46,0,0,1,.329-.379.791.791,0,0,0,.443-.475,36.267,36.267,0,0,1,4.95-4.924.752.752,0,0,0,.439-.428.788.788,0,0,1,.473-.436,3.515,3.515,0,0,0,.934-.606,2.876,2.876,0,0,1,1.049-.588,1.31,1.31,0,0,0,.736-.479,1.4,1.4,0,0,1,.869-.5,2.211,2.211,0,0,0,.989-.485,3.239,3.239,0,0,1,1.2-.59,3.406,3.406,0,0,0,1.175-.54,2.427,2.427,0,0,1,1.1-.427,4.95,4.95,0,0,0,2.231-.712,8.277,8.277,0,0,1,2.785-.484c1.372-.127,2.988-.309,3.592-.4a30.922,30.922,0,0,1,7.681-.083c.928.153,2.486.371,3.461.485a6.206,6.206,0,0,1,2.532.645,5.393,5.393,0,0,0,1.429.555,1.592,1.592,0,0,1,.874.41,2.263,2.263,0,0,0,.934.531,3.509,3.509,0,0,1,1.188.706,1.558,1.558,0,0,0,.7.467c.132,0,.364.19.516.422s.355.422.451.422a14.869,14.869,0,0,1,2.742,2.759.747.747,0,0,0,.461.4.7.7,0,0,1,.444.58,1.589,1.589,0,0,0,.5.8,1,1,0,0,1,.4.576.469.469,0,0,0,.169.365.518.518,0,0,1,.169.4,1.184,1.184,0,0,0,.422.664,1.19,1.19,0,0,1,.423.663,3.5,3.5,0,0,0,.645,1.83c.226.242.363.814.5,2.1.106.972.308,2.376.447,3.118a26.009,26.009,0,0,1,0,7.259c-.143.65-.341,1.674-.441,2.275a3.312,3.312,0,0,1-.669,1.684,2.089,2.089,0,0,0-.487.948.651.651,0,0,1-.422.549c-.232.106-.422.311-.422.455s-.266.42-.591.611-.591.45-.591.574-.171.276-.38.339a6.86,6.86,0,0,0-1.14.578,5.525,5.525,0,0,1-3.6.664l-.452-.206V92.777c0-6.209-.034-7.169-.261-7.4-1.045-1.045-20.248-.717-21.445.366a3.537,3.537,0,0,1-1.169.515,3.454,3.454,0,0,0-1.182.533,4.6,4.6,0,0,1-1.056.621,1.722,1.722,0,0,0-.8.568,1.073,1.073,0,0,1-.588.451,1.26,1.26,0,0,0-.663.606.941.941,0,0,1-.593.525c-.286.072-.434.225-.434.448a.583.583,0,0,1-.425.5,1.108,1.108,0,0,0-.572.549,3.919,3.919,0,0,1-.672.949,1.911,1.911,0,0,0-.525.89,1.233,1.233,0,0,1-.393.7,3.1,3.1,0,0,0-.617,1.216,3.779,3.779,0,0,1-.479,1.14,1.945,1.945,0,0,0-.014,2.366,2.954,2.954,0,0,1,.577.81.741.741,0,0,0,.437.417.941.941,0,0,1,.495.517,1.252,1.252,0,0,0,.568.6,1.02,1.02,0,0,1,.512.586.724.724,0,0,0,.5.5.722.722,0,0,1,.5.5.769.769,0,0,0,.439.5,1.281,1.281,0,0,1,.584.581A1.187,1.187,0,0,0,91,103.9a.912.912,0,0,1,.507.523.946.946,0,0,0,.578.537.722.722,0,0,1,.515.509.723.723,0,0,0,.515.509.774.774,0,0,1,.516.426,1.291,1.291,0,0,0,.585.572,1.3,1.3,0,0,1,.59.589.744.744,0,0,0,.482.433.916.916,0,0,1,.538.462,1.281,1.281,0,0,0,.5.539,4.277,4.277,0,0,1,.781.594,29.134,29.134,0,0,0,3.484,2.849,1.054,1.054,0,0,1,.455.507.814.814,0,0,0,.6.418c.3.06.5.207.5.36s.266.387.591.542.591.342.591.417a2.25,2.25,0,0,0,.717.592,7.864,7.864,0,0,1,1.1.846,1.3,1.3,0,0,0,.722.39.574.574,0,0,1,.487.4,1.175,1.175,0,0,0,.646.573,3.017,3.017,0,0,1,.936.615,2.191,2.191,0,0,0,.92.539.96.96,0,0,1,.637.46.793.793,0,0,0,.5.428,2.7,2.7,0,0,1,.9.557,2.877,2.877,0,0,0,1.061.593,1.087,1.087,0,0,1,.675.43,1.855,1.855,0,0,0,.795.588,5.079,5.079,0,0,1,1.1.661,2.854,2.854,0,0,0,.93.514,1.316,1.316,0,0,1,.663.409,1.967,1.967,0,0,0,.844.5,3.361,3.361,0,0,1,1.055.589,3.1,3.1,0,0,0,1.1.566,1.722,1.722,0,0,1,.883.514,1.831,1.831,0,0,0,.924.528,3.658,3.658,0,0,1,1.181.584,2.78,2.78,0,0,0,1.017.507,2.5,2.5,0,0,1,.975.5,3.613,3.613,0,0,0,1.231.6,1.912,1.912,0,0,1,.961.5,2.038,2.038,0,0,0,1.091.495c.516.116.938.279.938.362,0,.217.83.618,1.562.755a1.708,1.708,0,0,1,.825.362,3.28,3.28,0,0,0,1.7.732,2.02,2.02,0,0,1,.881.422,2.022,2.022,0,0,0,.892.422,3.193,3.193,0,0,1,1.753.688,2.42,2.42,0,0,0,1.114.416,5.885,5.885,0,0,1,1.658.582,5.8,5.8,0,0,0,1.586.577,3.39,3.39,0,0,1,1.232.461,5.028,5.028,0,0,0,1.622.545,5.359,5.359,0,0,1,1.605.515,6.1,6.1,0,0,0,1.761.543,5.352,5.352,0,0,1,1.382.354c.245.329.939.552,2.229.714a3.088,3.088,0,0,1,1.532.412c.147.263,1.212.533,2.751.7a4.584,4.584,0,0,1,1.541.433,6.8,6.8,0,0,0,1.941.52,4.2,4.2,0,0,1,1.936.59,1.92,1.92,0,0,0,.81.393,2.685,2.685,0,0,1,1.521.827,1.05,1.05,0,0,0,.6.355,1.205,1.205,0,0,1,.654.506c.206.279.487.506.626.506s.334.181.436.4a1.373,1.373,0,0,0,.587.587c.222.1.4.294.4.428a1.067,1.067,0,0,0,.422.577c.232.182.422.4.422.494a3.888,3.888,0,0,0,.591.936,3.091,3.091,0,0,1,.591,1.048,2.507,2.507,0,0,0,.652,1.322,7.2,7.2,0,0,1,.56,2.279c.529,3.59.869,3.343-4.448,3.235-4.649-.094-4.361-.019-4.547-1.2-.123-.777-1.374-3.022-1.685-3.024a5.87,5.87,0,0,1-.912-.634l-.813-.633h-4.254l-1.009.725a6.248,6.248,0,0,0-1.346,1.266,6.047,6.047,0,0,1-.548.759,2.783,2.783,0,0,0-.4.928c-.442,1.7-.284,1.548-1.685,1.6a18.407,18.407,0,0,1-2.951-.219c-.928-.148-2.971-.419-4.539-.6s-3.24-.441-3.714-.575-1.622-.364-2.551-.511a18.94,18.94,0,0,1-2.363-.505,19.547,19.547,0,0,0-2-.5,13.74,13.74,0,0,1-1.919-.516,16.778,16.778,0,0,0-1.885-.561,11.8,11.8,0,0,1-1.795-.565,8.211,8.211,0,0,0-1.347-.463,15.065,15.065,0,0,1-1.667-.546c-.452-.184-1.25-.475-1.773-.646a15.266,15.266,0,0,1-1.659-.662,3.938,3.938,0,0,0-.886-.351,7.5,7.5,0,0,1-1.248-.506,9.554,9.554,0,0,0-1.192-.506c-.409,0-7.754-3.7-10.567-5.318-.6-.348-1.439-.825-1.857-1.059a5.832,5.832,0,0,1-.844-.536,15.94,15.94,0,0,0-1.435-.9c-.743-.433-1.431-.855-1.528-.938s-.516-.371-.928-.639-1.207-.831-1.764-1.252-1.239-.91-1.515-1.086-.58-.383-.675-.46-.667-.5-1.27-.933a48.039,48.039,0,0,1-3.8-3.114c-.371-.338-.937-.832-1.256-1.1l-.581-.483H56.313l-1.839.633a18.472,18.472,0,0,0-2.026.779,4.088,4.088,0,0,1-1.213.248c-1.269.126-1.551.23-1.674.618a.75.75,0,0,1-.5.407,1.7,1.7,0,0,0-.765.608c-.2.278-.471.506-.607.506a.436.436,0,0,0-.353.3,3.854,3.854,0,0,1-.678.886,5.391,5.391,0,0,0-1.538,2.039,3.378,3.378,0,0,1-.577.963,2.6,2.6,0,0,0-.472,1.011,2.992,2.992,0,0,1-.52,1.093c-.77.75-1.467,18.9-.8,20.945.344,1.057.214,1.04,7.964,1.1l7.056.051.189.416a1.869,1.869,0,0,1-.008,1.27,7.741,7.741,0,0,0-.2,1.2,2.221,2.221,0,0,1-.482.958,3.669,3.669,0,0,0-.594,1.08c-.062.255-.227.464-.366.464s-.343.2-.452.435a1.692,1.692,0,0,1-.66.674,1.245,1.245,0,0,0-.563.558.814.814,0,0,1-.607.42,2.133,2.133,0,0,0-.914.509,2.853,2.853,0,0,1-1.726.607c-.725.109-1.7.264-2.162.343a47.612,47.612,0,0,1-7.344,0c-.511-.082-1.761-.238-2.779-.346a5.346,5.346,0,0,1-2.448-.591,5.151,5.151,0,0,0-1.431-.577,2.156,2.156,0,0,1-1.043-.484,2.12,2.12,0,0,0-.891-.524,3,3,0,0,1-1.055-.622,1.221,1.221,0,0,0-.669-.4,1.155,1.155,0,0,1-.658-.506c-.2-.279-.439-.506-.535-.506a13.867,13.867,0,0,1-2.673-2.77c0-.118-.19-.3-.422-.406s-.422-.305-.422-.444a2,2,0,0,0-.482-.805,4.128,4.128,0,0,1-.688-1.187,1.971,1.971,0,0,0-.51-.846,2.308,2.308,0,0,1-.5-1.159,4.643,4.643,0,0,0-.611-1.508,2.033,2.033,0,0,1-.415-1.225c0-.672-.345-3.346-.69-5.349a28.426,28.426,0,0,1,.239-6.889c.147-1.05.317-2.684.377-3.63a6.725,6.725,0,0,1,.524-2.618,9.322,9.322,0,0,0,.593-1.941,3.583,3.583,0,0,1,.486-1.381,3.522,3.522,0,0,0,.528-1.173,3.239,3.239,0,0,1,.59-1.2,2.2,2.2,0,0,0,.484-.983,1.5,1.5,0,0,1,.42-.828,2.54,2.54,0,0,0,.591-.928,2.9,2.9,0,0,1,.66-1.008,1.612,1.612,0,0,0,.487-.745.828.828,0,0,1,.441-.555.759.759,0,0,0,.436-.442,33.447,33.447,0,0,1,4.867-4.878c.156,0,.37-.19.476-.422s.318-.422.471-.422a1.618,1.618,0,0,0,.764-.506,1.955,1.955,0,0,1,.639-.506,2.313,2.313,0,0,0,1.392-.861.5.5,0,0,1,.49-.321c1.034,0,1.753-1.589,1-2.214a3.137,3.137,0,0,1-.577-.931c-.3-.709-.6-1.026-.791-.838-.057.057.018.2.166.312a2.128,2.128,0,0,1-.05,3.5c-.422.232-1.03.593-1.351.8a2.5,2.5,0,0,1-.784.38.467.467,0,0,0-.338.22,3.493,3.493,0,0,1-.726.631,32.075,32.075,0,0,0-5.5,5.158c-.365.454-.8.974-.96,1.154a1.226,1.226,0,0,0-.3.458,1.519,1.519,0,0,1-.385.517,3.4,3.4,0,0,0-.606.924,2.712,2.712,0,0,1-.536.822,2.444,2.444,0,0,0-.512.9,3.229,3.229,0,0,1-.493.95,3.6,3.6,0,0,0-.522,1.013,5.578,5.578,0,0,1-.507,1.1,7.038,7.038,0,0,0-.584,1.519,7.566,7.566,0,0,1-.551,1.485,14.49,14.49,0,0,0-.658,2.7c-.225,1.272-.493,2.731-.593,3.242A56.5,56.5,0,0,0,23,152.723c.244.928.491,1.967.55,2.307a7.381,7.381,0,0,0,.606,1.6,5.729,5.729,0,0,1,.5,1.207,2.122,2.122,0,0,0,.4.76,5.844,5.844,0,0,1,.612,1.086c.119.3.266.549.328.549s.254.247.429.549a26.9,26.9,0,0,0,2.735,3.2,15.714,15.714,0,0,0,2.212,1.746c.3.174.549.373.549.441,0,.111.455.368,2.11,1.193a13.952,13.952,0,0,0,3.63,1.4c.7.152,1.684.4,2.195.556.769.232,1.739.28,5.655.28h4.727l1.6-.577a9.525,9.525,0,0,0,1.952-.886,1.213,1.213,0,0,1,.531-.31,14.241,14.241,0,0,0,2.581-2.525,1.953,1.953,0,0,1,.389-.627,4.37,4.37,0,0,0,.621-1.237,11.25,11.25,0,0,1,.539-1.386c.39-.8.414-2.082.04-2.225-.147-.057-3.514-.1-7.483-.1H43.794l-.367-.391c-.367-.39-.367-.394-.367-8.957,0-9.1.082-10.357.777-11.886a5.4,5.4,0,0,0,.405-1.1,2.579,2.579,0,0,1,.373-.8c.2-.325.509-.857.676-1.182a12.336,12.336,0,0,1,2.45-3.1c2.626-2.69,3.3-2.788,5.237-.761,2.3,2.416,7.412,7.477,7.985,7.912a15.593,15.593,0,0,1,1.272,1.14,3.274,3.274,0,0,0,.9.718c.1,0,.3.178.438.4a1.882,1.882,0,0,0,.665.581,1.053,1.053,0,0,1,.515.533.472.472,0,0,0,.369.348,1.5,1.5,0,0,1,.709.482,4.32,4.32,0,0,0,.954.744,4.087,4.087,0,0,1,.914.7,1.377,1.377,0,0,0,.629.438c.121,0,.339.183.486.406a1.363,1.363,0,0,0,.685.511,1.027,1.027,0,0,1,.6.505.972.972,0,0,0,.632.49,2.362,2.362,0,0,1,.918.524,5.38,5.38,0,0,0,.975.7,1.457,1.457,0,0,1,.6.506.377.377,0,0,0,.3.244,3.222,3.222,0,0,1,.953.559,7.257,7.257,0,0,0,1.285.778,1.2,1.2,0,0,1,.639.521.868.868,0,0,0,.672.41,2.313,2.313,0,0,1,1.049.609,1.573,1.573,0,0,0,.745.5,2.4,2.4,0,0,1,.915.51,3.663,3.663,0,0,0,1.078.613,2.384,2.384,0,0,1,.858.481,2.486,2.486,0,0,0,.9.492,2.145,2.145,0,0,1,.859.493,3.053,3.053,0,0,0,1.081.59,3.406,3.406,0,0,1,1.126.6,2.4,2.4,0,0,0,1.071.5,1.892,1.892,0,0,1,.948.438,3.146,3.146,0,0,0,1.168.587,2.966,2.966,0,0,1,1.159.6.983.983,0,0,0,.612.344,3.3,3.3,0,0,1,1.687.731,1.914,1.914,0,0,0,.94.355,4.47,4.47,0,0,1,1.472.589,4.5,4.5,0,0,0,1.512.59,2.474,2.474,0,0,1,1.1.41,3.925,3.925,0,0,0,1.39.526,5.734,5.734,0,0,1,1.653.622,2.266,2.266,0,0,0,.967.4,5.32,5.32,0,0,1,2.287.741,2.918,2.918,0,0,0,1.284.35,6.514,6.514,0,0,1,1.895.525,7.934,7.934,0,0,0,2.239.6,7.91,7.91,0,0,1,2.026.5,10.3,10.3,0,0,0,2.363.571,18.445,18.445,0,0,1,2.739.6,6.455,6.455,0,0,0,1.688.346,29.667,29.667,0,0,1,4.267.586c.186.063.49.18.675.26a42.2,42.2,0,0,0,4.3.344c2.182.109,4.765.268,5.74.352,4.236.366,21.452.364,23.331,0,.956-.187,2.118-.393,2.582-.458a2.879,2.879,0,0,0,1.332-.526,2.651,2.651,0,0,1,.959-.5,1.905,1.905,0,0,0,.85-.5,1.25,1.25,0,0,1,.607-.4c.422,0,3.6-3.106,4.049-3.951a4.562,4.562,0,0,1,.569-.825,2.081,2.081,0,0,0,.418-.822,2.684,2.684,0,0,1,.494-.948,2.82,2.82,0,0,0,.506-1.389c.066-.511.273-1.536.461-2.279s.41-1.692.5-2.11a6.913,6.913,0,0,0-.276-3.208,10.8,10.8,0,0,1-.492-1.671,5.64,5.64,0,0,0-.6-1.657,3.921,3.921,0,0,1-.514-1,3.333,3.333,0,0,0-.6-1.027,1.566,1.566,0,0,1-.406-.635,17.905,17.905,0,0,0-3.527-3.478,1.94,1.94,0,0,1-.694-.522,13.546,13.546,0,0,0-3.416-1.6c-.3-.053-1.121-.27-1.817-.482s-1.8-.482-2.448-.6a8.172,8.172,0,0,1-1.661-.455,9.85,9.85,0,0,0-1.857-.5,11.684,11.684,0,0,1-2.069-.571,11.655,11.655,0,0,0-1.922-.57,6.781,6.781,0,0,1-1.593-.494,5.529,5.529,0,0,0-1.37-.454,8.607,8.607,0,0,1-1.609-.514,11.109,11.109,0,0,0-1.681-.577,6.066,6.066,0,0,1-1.509-.583,3.364,3.364,0,0,0-1.152-.424,6.665,6.665,0,0,1-1.643-.612,4.7,4.7,0,0,0-1.172-.49,8,8,0,0,1-1.515-.591,8.619,8.619,0,0,0-1.481-.591,2.533,2.533,0,0,1-.8-.356,6.738,6.738,0,0,0-1.3-.57,4.9,4.9,0,0,1-1.191-.555,4.344,4.344,0,0,0-1.152-.523,5.2,5.2,0,0,1-1.3-.608,2.766,2.766,0,0,0-.807-.426,24.229,24.229,0,0,1-3.043-1.461c-.232-.134-.726-.381-1.1-.549a10.86,10.86,0,0,1-1.332-.752,2.709,2.709,0,0,0-.928-.451,2.621,2.621,0,0,1-.935-.506,2.756,2.756,0,0,0-.874-.5,1.765,1.765,0,0,1-.687-.386,8.675,8.675,0,0,0-1.282-.787,4.417,4.417,0,0,1-.991-.628.62.62,0,0,0-.39-.225,3.936,3.936,0,0,1-1.034-.591,4.68,4.68,0,0,0-.978-.591,2.574,2.574,0,0,1-.724-.506,2.163,2.163,0,0,0-.8-.506,1.451,1.451,0,0,1-.644-.39,7.354,7.354,0,0,0-1.04-.755,9.545,9.545,0,0,1-.828-.536,19.88,19.88,0,0,0-2.3-1.6,1.891,1.891,0,0,1-.694-.6c-.1-.185-.274-.336-.39-.336a2.011,2.011,0,0,1-.746-.464c-.3-.255-.964-.768-1.488-1.14a11.645,11.645,0,0,1-1.386-1.14,1.525,1.525,0,0,0-.632-.464,1.617,1.617,0,0,1-.651-.464c-.249-.255-.7-.667-1-.915-4.534-3.754-12.149-11.242-12.89-12.674-.419-.809.891-4.987,1.672-5.334a5.3,5.3,0,0,0,.7-.929A12.181,12.181,0,0,1,92.1,88.321c.235-.089.427-.243.427-.341s.323-.329.717-.512a12.63,12.63,0,0,0,1.224-.657,2.207,2.207,0,0,1,.784-.337,8.682,8.682,0,0,0,1.519-.561l1.242-.549,9.4-.052,9.4-.052.354.379c.348.373.354.5.356,7.649,0,4,.068,7.373.148,7.5.308.486,3.724-.428,4.82-1.289a1.98,1.98,0,0,1,.625-.376,13.871,13.871,0,0,0,2.508-2.609,1.113,1.113,0,0,1,.3-.524,9.354,9.354,0,0,0,.886-1.931l.585-1.6,0-4.9c0-4.851-.007-4.91-.464-6.392a12.149,12.149,0,0,1-.461-1.84,4.288,4.288,0,0,0-.408-1.2c-.225-.474-.565-1.2-.756-1.621a20.425,20.425,0,0,0-5.181-6.711,25.445,25.445,0,0,0-2.855-2.077c-1.314-.7-1.591-.842-2.617-1.31a16.553,16.553,0,0,0-2.617-.846c-.836-.19-1.861-.443-2.279-.562a72.993,72.993,0,0,0-12.324.063,37.848,37.848,0,0,1-3.8.739,5.5,5.5,0,0,0-1.435.41,8.889,8.889,0,0,1-1.351.506,24.061,24.061,0,0,0-3.545,1.533c-.139.089-.557.307-.928.485a9.391,9.391,0,0,0-1.257.755,2.29,2.29,0,0,1-.8.431,1.916,1.916,0,0,0-.752.506,2.635,2.635,0,0,1-.642.506,1.292,1.292,0,0,0-.442.3c-.181.162-.785.67-1.34,1.128a32.523,32.523,0,0,0-3.771,3.809c-.338.418-.708.858-.82.977a5.21,5.21,0,0,0-.5.718c-.162.275-.352.5-.42.5a1.828,1.828,0,0,0-.447.717,6.449,6.449,0,0,1-1.046,1.469L73.4,81.3l-.727-.836a7.853,7.853,0,0,1-.923-1.258c-.108-.232-.265-.536-.35-.675s-.285-.472-.444-.739-.538-.854-.839-1.3a6.172,6.172,0,0,1-.549-.913,6.956,6.956,0,0,0-.591-.972,4.6,4.6,0,0,1-.591-1.059,1.119,1.119,0,0,0-.3-.509,4.392,4.392,0,0,1-.606-1.087,4.947,4.947,0,0,0-.5-.987,10.036,10.036,0,0,1-.7-1.222l-1.432-2.812c-1.11-2.179-1.692-3.093-1.692-2.658M23.658,69.882a11.219,11.219,0,0,0,.318,1.941c.181.763.4,1.843.485,2.4.135.886.158.928.176.338a21.744,21.744,0,0,0-.723-4.389c-.222-.769-.245-.795-.256-.29m1.1,6.283a8.046,8.046,0,0,0,.331,1.655,13.7,13.7,0,0,1,.443,1.99,3.24,3.24,0,0,0,.278,1.173,14.935,14.935,0,0,0-.643-3.975,13.962,13.962,0,0,1-.4-1.351c-.046-.232-.048,0-.006.506m1.088,5.376a2.677,2.677,0,0,0,.284.881,8.515,8.515,0,0,1,.5,1.8A10.223,10.223,0,0,0,27.078,86a11.63,11.63,0,0,1,.676,1.9c.04.186.04-.028,0-.475a6.264,6.264,0,0,0-.469-1.688,9.591,9.591,0,0,1-.581-2.072c-.24-1.567-.864-3.1-.864-2.121m2.026,7.205a1.529,1.529,0,0,0,.264.72,4.947,4.947,0,0,1,.49,1.093c.134.425.232.571.241.36a4.565,4.565,0,0,0-.688-2.009c-.255-.42-.307-.448-.308-.164m1.013,2.874a2.3,2.3,0,0,0,.275.835,10.923,10.923,0,0,1,.574,1.435c.165.511.307.769.316.574a6.112,6.112,0,0,0-.764-2.338c-.224-.464-.4-.689-.4-.506m1.181,3.358a4.017,4.017,0,0,0,.321.633,4.7,4.7,0,0,1,.444,1.145,8.163,8.163,0,0,0,.587,1.519c.256.513.512,1.047.569,1.186s.062-.041.008-.4a3.762,3.762,0,0,0-.5-1.266,5.108,5.108,0,0,1-.581-1.419c-.214-.967-.85-2.012-.85-1.4m2.026,5.007a.678.678,0,0,0,.165.419,4.808,4.808,0,0,1,.5.836c.184.368.337.539.341.38a2.684,2.684,0,0,0-.347-.928c-.449-.811-.659-1.036-.659-.706m1.013,2.08a5.052,5.052,0,0,0,.4.919,14.552,14.552,0,0,1,.618,1.373,3.619,3.619,0,0,0,.5.928,3.273,3.273,0,0,1,.483.943,4.858,4.858,0,0,0,.6,1.161,3.368,3.368,0,0,1,.511,1.017,2.025,2.025,0,0,0,.389.781,6.3,6.3,0,0,1,.668,1.078c.737,1.47,1.119,2.084,1.18,1.9a2.905,2.905,0,0,0-.794-1.562c-.085,0-.2-.171-.263-.38-.2-.681-.6-1.477-.753-1.477-.081,0-.241-.285-.355-.633a5.914,5.914,0,0,0-.608-1.224,4.83,4.83,0,0,1-.563-1.189,2.657,2.657,0,0,0-.466-.928,3.114,3.114,0,0,1-.5-1.008c-.183-.617-1.055-2.022-1.055-1.7m123.033,47.493a5.449,5.449,0,0,1,2.33,2.133,2.159,2.159,0,0,0,.313.611,4.951,4.951,0,0,1,.178,4.22,2.7,2.7,0,0,0-.422.709c0,.3-.966,1.193-1.849,1.7-2.435,1.408-5.541.445-7.274-2.255a4.9,4.9,0,0,1,.052-4.366,7.186,7.186,0,0,0,.542-.918,4.835,4.835,0,0,1,6.13-1.837" transform="translate(-11.66 -11.676)" fill="#d48d04" fill-rule="evenodd"/>
    </g>
  </g>
</svg>
