<?xml version="1.0" encoding="UTF-8" standalone="no"?>
<svg
   xmlns:dc="http://purl.org/dc/elements/1.1/"
   xmlns:cc="http://creativecommons.org/ns#"
   xmlns:rdf="http://www.w3.org/1999/02/22-rdf-syntax-ns#"
   xmlns:svg="http://www.w3.org/2000/svg"
   xmlns="http://www.w3.org/2000/svg"
   xmlns:sodipodi="http://sodipodi.sourceforge.net/DTD/sodipodi-0.dtd"
   xmlns:inkscape="http://www.inkscape.org/namespaces/inkscape"
   width="234.98283"
   height="235.0435"
   version="1.1"
   id="svg31"
   sodipodi:docname="BAKE_BEP20.svg"
   inkscape:version="1.0.2-2 (e86c870879, 2021-01-15)">
  <metadata
     id="metadata20">
    <rdf:RDF>
      <cc:Work
         rdf:about="">
        <dc:format>image/svg+xml</dc:format>
        <dc:type
           rdf:resource="http://purl.org/dc/dcmitype/StillImage" />
      </cc:Work>
    </rdf:RDF>
  </metadata>
  <defs
     id="defs35" />
  <sodipodi:namedview
     id="namedview33"
     pagecolor="#ffffff"
     bordercolor="#666666"
     borderopacity="1.0"
     inkscape:pageshadow="2"
     inkscape:pageopacity="0.0"
     inkscape:pagecheckerboard="0"
     showgrid="false"
     inkscape:zoom="3.4101562"
     inkscape:cx="116.99923"
     inkscape:cy="117.00403"
     inkscape:window-width="1920"
     inkscape:window-height="1017"
     inkscape:window-x="-8"
     inkscape:window-y="-8"
     inkscape:window-maximized="1"
     inkscape:current-layer="svg31"
     inkscape:document-rotation="0" />
  <radialGradient
     id="A"
     cx="-160.022"
     cy="828.81201"
     r="1"
     gradientTransform="matrix(0,14.3808,14.2359,0,-11784.651,2315.6199)"
     gradientUnits="userSpaceOnUse">
    <stop
       offset=".334"
       stop-color="#f7b450"
       id="stop2" />
    <stop
       offset=".648"
       stop-color="#ffc977"
       id="stop4" />
    <stop
       offset="1"
       stop-color="#f90"
       id="stop6" />
  </radialGradient>
  <g
     transform="matrix(8.230347,0,0,8.1659,0.0329556,0.29397251)"
     id="g27">
    <path
       d="m 21.6,13.9 c 0.2,-0.1 0.5,0.1 0.5,0.3 l 0.4,1.5 c 0.1,0.2 -0.1,0.5 -0.3,0.5 -0.2,0.1 -0.5,-0.1 -0.5,-0.3 l -0.4,-1.5 c -0.1,-0.2 0,-0.5 0.3,-0.5 z M 10.1,2.7 C 10,2.5 10,2.2 10.2,2.1 L 11.5,1.2 C 11.7,1.1 12,1.1 12.1,1.3 12.2,1.6 12.2,1.8 12,2 l -1.3,0.9 c -0.2,0 -0.5,0 -0.6,-0.2 z"
       fill="#ffffff"
       id="path11" />
    <path
       d="m 16.8,8 c -1.5,-0.3 -3.1,-0.1 -4.5,0.8 2,-0.7 4.3,-0.2 5.9,1.4 2.2,2.3 2.2,6 0,8.2 -0.3,0.3 -0.6,0.5 -0.9,0.7 0.8,-0.3 1.6,-0.7 2.2,-1.4 1.6,-1.6 2,-3.9 1.4,-5.9 -1.7,-0.6 -3.2,-2 -4.1,-3.8 z"
       fill-rule="evenodd"
       fill="#ffae54"
       id="path13" />
    <g
       stroke="#ac562a"
       stroke-width="1.072"
       id="g19">
      <path
         d="m 26.3,21 v 0 C 22.7,27.7 14.3,30.2 7.7,26.5 1,22.9 -1.4,14.4 2.2,7.7 4.6,3.3 9,0.7 13.7,0.5 c 0.6,0 1.1,0.3 1.4,0.9 0.3,0.6 0.5,1.4 0.4,2.2 v 0.9 c 0,1.4 0.4,2.8 1,4 -2.9,-1.1 -6.2,0.1 -7.7,2.9 -1.7,3.1 -0.5,6.9 2.5,8.6 3,1.7 6.9,0.5 8.5,-2.5 v 0 c 0.9,-1.7 1,-3.7 0.3,-5.4 1.2,0.6 2.5,0.9 3.9,0.9 0.8,0 1.5,-0.1 2.3,-0.3 0.4,-0.1 0.9,-0.1 1.2,0.1 0.3,0.2 0.5,0.4 0.5,0.7 0.1,2.5 -0.5,5.1 -1.7,7.5 z"
         fill="url(#A)"
         id="path15"
         style="fill:url(#A)" />
      <path
         d="m 22.7,18.3 0.5,-0.2 c 0.4,1 -0.1,1.9 -0.4,2.6 v 0.1 c -0.2,0.4 -0.4,0.7 -0.4,1 -0.1,0.5 -0.1,1 0,1.3 0.1,0.3 0.4,0.6 0.8,0.7 0.3,0.1 0.8,0 1.4,-0.4 2.4,-2.8 3.5,-6.4 3.3,-9.8 0,-0.3 -0.2,-0.6 -0.5,-0.8 -0.3,-0.2 -0.8,-0.2 -1.2,-0.1 A 8.33,8.33 0 0 1 24,13 c -1.4,0 -2.7,-0.3 -3.9,-1 0.7,1.7 0.6,3.6 -0.2,5.3 -0.1,0.3 -0.3,0.5 -0.5,0.8 0.4,-0.1 0.8,-0.3 1.4,-0.7 0.7,-0.5 1.6,0 1.9,0.9 z m 0,0 c 0.3,0.8 -0.1,1.5 -0.4,2.2 -0.2,0.4 -0.4,0.8 -0.5,1.2 z M 13.1,8.1 v 0 0 C 11.7,8.5 10.6,8.3 9.8,7.9 9,7.4 8.3,6.7 8,5.9 7.6,5 7.5,4.1 7.7,3.3 7.9,2.5 8.3,1.9 8.9,1.6 c 1.7,-0.7 3.5,-1.1 5.2,-1.1 0.5,0 0.9,0.3 1.2,0.8 0.3,0.5 0.4,1.2 0.3,1.8 -0.1,0.4 -0.1,0.9 -0.1,1.4 0,1.4 0.4,2.8 1,4 C 15.4,8 14.2,7.9 13.1,8.1 Z"
         fill="#ac562a"
         id="path17" />
    </g>
    <circle
       cx="3.8"
       cy="11.2"
       r="0.69999999"
       fill="#ac562a"
       id="circle21" />
    <circle
       cx="14.2"
       cy="23.700001"
       r="0.69999999"
       fill="#ac562a"
       id="circle23" />
    <circle
       cx="9.8000002"
       cy="24.299999"
       r="1.2"
       fill="#ac562a"
       id="circle25" />
  </g>
</svg>
