<svg xmlns="http://www.w3.org/2000/svg" width="245.2" height="245.2" xmlns:v="https://vecta.io/nano"><g transform="matrix(7 0 0 7 10.6 10.6)"><circle cx="16" cy="16" r="16" fill="#516aff"/><path d="M18.8 11.6l2.8 1.6v-8L16 2.4 7.3 7.3v17.4l8.7 5 8.6-5.1V16l-8.3-5-2.8 1.4 8.3 4.9.1 5.9-5.9 3.3-6-3.4V8.7l6-3.3 2.8 1.5v4.7zm-3.1 4.8l1.9-1 2.1 1.3-6.2 3.5V13l2.2 1.3" fill="#fff"/></g><path d="M122.6 11C61.064 11 11 61.064 11 122.6s50.064 111.6 111.6 111.6 111.6-50.064 111.6-111.6S184.136 11 122.6 11m0-11c67.551 0 122.6 55.044 122.6 122.6s-55.044 122.6-122.6 122.6S0 190.154 0 122.6 55.049 0 122.6 0z" fill="#b0b0b0"/></svg>