<?xml version="1.0" encoding="UTF-8" standalone="no"?>
<svg
   viewBox="0 0 2000 1719"
   width="2000"
   height="2000"
   version="1.1"
   id="svg12"
   sodipodi:docname="BAT_BEP20.svg"
   inkscape:version="1.1 (c68e22c387, 2021-05-23)"
   xmlns:inkscape="http://www.inkscape.org/namespaces/inkscape"
   xmlns:sodipodi="http://sodipodi.sourceforge.net/DTD/sodipodi-0.dtd"
   xmlns="http://www.w3.org/2000/svg"
   xmlns:svg="http://www.w3.org/2000/svg">
  <defs
     id="defs16" />
  <sodipodi:namedview
     id="namedview14"
     pagecolor="#ffffff"
     bordercolor="#666666"
     borderopacity="1.0"
     inkscape:pageshadow="2"
     inkscape:pageopacity="0.0"
     inkscape:pagecheckerboard="0"
     showgrid="false"
     inkscape:zoom="0.4365"
     inkscape:cx="1000"
     inkscape:cy="1000"
     inkscape:window-width="2560"
     inkscape:window-height="1361"
     inkscape:window-x="-9"
     inkscape:window-y="-9"
     inkscape:window-maximized="1"
     inkscape:current-layer="svg12" />
  <path
     fill="#662d91"
     d="M1791.642 1309.63l-788.526-451.512L207 1311.5z"
     id="path2" />
  <path
     fill="#9e1f63"
     d="M1003.37-50.5l-.254 908.618 788.526 451.512z"
     id="path4" />
  <path
     fill="#ff5000"
     d="M207 1311.5l796.116-453.382.254-908.618z"
     id="path6" />
  <path
     fill="#fff"
     stroke="#ff5000"
     stroke-miterlimit="10"
     d="M1001.5 500.694l-325.525 543.73h652.508z"
     stroke-width="19.808"
     id="path8" />
  <path
     d="M1000-50.777c-501.929 0-910.277 408.349-910.277 910.277S498.071 1769.777 1000 1769.777s910.277-408.349 910.277-910.277S1501.929-50.777 1000-50.777m0-89.723c550.989 0 1000 448.971 1000 1000s-448.971 1000-1000 1000S0 1410.513 0 859.5c0-551.03 449.011-1000 1000-1000z"
     fill="#474747"
     id="path10"
     style="fill:#e8a607;fill-opacity:1" />
</svg>
