<svg xmlns="http://www.w3.org/2000/svg" viewBox="0 0 2000 1719" width="2000" height="2000" xmlns:v="https://vecta.io/nano"><path fill="#662d91" d="M1791.642 1309.63l-788.526-451.512L207 1311.5z"/><path fill="#9e1f63" d="M1003.37-50.5l-.254 908.618 788.526 451.512z"/><path fill="#ff5000" d="M207 1311.5l796.116-453.382.254-908.618z"/><path fill="#fff" stroke="#ff5000" stroke-miterlimit="10" d="M1001.5 500.694l-325.525 543.73h652.508z" stroke-width="19.808"/><path d="M1000-50.777c-501.929 0-910.277 408.349-910.277 910.277S498.071 1769.777 1000 1769.777s910.277-408.349 910.277-910.277S1501.929-50.777 1000-50.777m0-89.723c550.989 0 1000 448.971 1000 1000s-448.971 1000-1000 1000S0 1410.513 0 859.5c0-551.03 449.011-1000 1000-1000z" fill="#474747"/></svg>