<?xml version="1.0" encoding="utf-8"?>
<!-- Generator: Adobe Illustrator 22.0.0, SVG Export Plug-In . SVG Version: 6.00 Build 0)  -->
<svg version="1.1" id="Bigbom" xmlns="http://www.w3.org/2000/svg" xmlns:xlink="http://www.w3.org/1999/xlink" x="0px" y="0px"
	 viewBox="0 0 245 245" style="enable-background:new 0 0 245 245;" xml:space="preserve">
<style type="text/css">
	.st0{fill:#4DAE4A;}
	.st1{fill:none;stroke:#FFFFFF;stroke-width:8.5;stroke-linecap:round;stroke-linejoin:round;}
	.st2{fill:#FFFFFF;}
</style>
<path id="Main" class="st0" d="M0,122.5C0,190,55,245,122.5,245S245,190,245,122.5S190,0,122.5,0S0,55,0,122.5z"/>
<path id="Lines" class="st1" d="M80.5,61v72 M95.5,31.5V133 M111,48.5V133 M126,61v72 M65.3,89.6v65 M137,190
	c25-9.4,27-27.5,27-27.5"/>
<path id="Out" class="st2" d="M136.5,88.5c0,3.7,0.2,5.5,0,9c16.8,1.8,45.1,19.4,46,56c0,21.8-18.2,56-55.5,56
	c-37.8-1.7-56.7-28.6-57.5-57c-2.8,0.1-5.7,0.1-8.5,0c0,23.5,16,63.4,64,65c44.3,0,64.5-37.4,64.5-64
	C190.2,104.5,144.8,88.5,136.5,88.5z"/>
</svg>
