<?xml version="1.0" encoding="utf-8"?>
<!-- Generator: Adobe Illustrator 22.0.0, SVG Export Plug-In . SVG Version: 6.00 Build 0)  -->
<svg version="1.1" id="Bitcoin_Cash" xmlns="http://www.w3.org/2000/svg" xmlns:xlink="http://www.w3.org/1999/xlink" x="0px"
	 y="0px" viewBox="0 0 245 245" style="enable-background:new 0 0 245 245;" xml:space="preserve">
<style type="text/css">
	.st0{fill:#4CCA47;}
	.st1{fill:#FFFFFF;}
</style>
<path id="Full" class="st0" d="M0,122.5C0,190,55,245,122.5,245S245,190,245,122.5S190,0,122.5,0S0,55,0,122.5z"/>
<path class="st1" d="M184.4,126.8c-5.6-25.1-26.6-21-26.6-21s11.3-10.2,5.2-25c-7.5-22.9-39.4-14.2-39.4-14.2l-6.2-21.8L104,48.5
	l6.4,21.1l-10.8,3.3l-6-21.4l-13.4,3.7L86,77.3l-26.6,7.9l4.2,14.3l11.2-3.6c0,0,6.8-0.4,7.9,4.7c1.3,4.6,17,59.5,17,59.5
	s1.3,3.8-4.1,5.8c-5,1.5-9,2.3-9,2.3l1.9,17.4l26.9-7.4l6.2,21.8l13.4-3.7l-6.2-21.8l10.3-3.1l6.2,21.8l13.9-4l-6.7-21.6
	C152.6,167.7,193.9,155.6,184.4,126.8z M112.5,115.2l-7.9-26.6c0,0,29.1-11.4,34.5,3.8C145.3,108.9,112.5,115.2,112.5,115.2z
	 M124.5,157.9l-8-28.9c0,0,36.1-15.8,41,4C162.7,150,124.5,157.9,124.5,157.9z"/>
</svg>
