<?xml version="1.0" encoding="UTF-8" standalone="no"?>
<svg
   viewBox="0 0 245 245"
   version="1.1"
   id="svg8"
   sodipodi:docname="BCH_BEP20.svg"
   inkscape:version="1.1 (c68e22c387, 2021-05-23)"
   xmlns:inkscape="http://www.inkscape.org/namespaces/inkscape"
   xmlns:sodipodi="http://sodipodi.sourceforge.net/DTD/sodipodi-0.dtd"
   xmlns="http://www.w3.org/2000/svg"
   xmlns:svg="http://www.w3.org/2000/svg">
  <defs
     id="defs12" />
  <sodipodi:namedview
     id="namedview10"
     pagecolor="#ffffff"
     bordercolor="#666666"
     borderopacity="1.0"
     inkscape:pageshadow="2"
     inkscape:pageopacity="0.0"
     inkscape:pagecheckerboard="0"
     showgrid="false"
     inkscape:zoom="3.5632653"
     inkscape:cx="122.5"
     inkscape:cy="122.5"
     inkscape:window-width="2560"
     inkscape:window-height="1361"
     inkscape:window-x="-9"
     inkscape:window-y="-9"
     inkscape:window-maximized="1"
     inkscape:current-layer="svg8" />
  <path
     d="M0,122.5C0,190,55,245,122.5,245S245,190,245,122.5S190,0,122.5,0S0,55,0,122.5z"
     fill="#4cca47"
     id="path2" />
  <path
     d="M184.4 126.8c-5.6-25.1-26.6-21-26.6-21s11.3-10.2 5.2-25c-7.5-22.9-39.4-14.2-39.4-14.2l-6.2-21.8-13.4 3.7 6.4 21.1-10.8 3.3-6-21.4-13.4 3.7L86 77.3l-26.6 7.9 4.2 14.3 11.2-3.6s6.8-.4 7.9 4.7l17 59.5s1.3 3.8-4.1 5.8c-5 1.5-9 2.3-9 2.3l1.9 17.4 26.9-7.4 6.2 21.8 13.4-3.7-6.2-21.8 10.3-3.1 6.2 21.8 13.9-4-6.7-21.6c.1.1 41.4-12 31.9-40.8zm-71.9-11.6l-7.9-26.6s29.1-11.4 34.5 3.8c6.2 16.5-26.6 22.8-26.6 22.8zm12 42.7l-8-28.9s36.1-15.8 41 4c5.2 17-33 24.9-33 24.9z"
     fill="#fff"
     id="path4" />
  <path
     d="M122.6 11C61.064 11 11 61.064 11 122.6s50.064 111.6 111.6 111.6 111.6-50.064 111.6-111.6S184.136 11 122.6 11m0-11c67.551 0 122.6 55.044 122.6 122.6s-55.044 122.6-122.6 122.6S0 190.154 0 122.6 55.049 0 122.6 0z"
     fill="#474747"
     id="path6"
     style="fill:#e8a607;fill-opacity:1" />
</svg>
