<svg id="BCPT" xmlns="http://www.w3.org/2000/svg" width="512" height="512" viewBox="0 0 512 512">
<defs>
    <style>
      .cls-1 {
        fill: #f90;
      }

      .cls-1, .cls-2 {
        fill-rule: evenodd;
      }

      .cls-2 {
        fill: #fff;
      }
    </style>
  </defs>
  <path id="Full" class="cls-1" d="M11,256c0,135.094,109.906,245,245,245S501,391.094,501,256,391.094,11,256,11,11,120.906,11,256Z"/>
  <path id="BCPT-2" data-name="BCPT" class="cls-2" d="M256,417a161,161,0,1,1,93.708-291.934c-24.014,32.729-44.531,60.978-59.093,80.7A61.007,61.007,0,0,0,195,256c0,32.112,24.5,58.606,56,61,0,0.847,0,4,0,4h5v4s12.651-.149,22.606-6.223C279.587,320.965,282,326,282,326l3-2,7,13a74.082,74.082,0,0,0,18-13c1.177,1.895,2,3,2,3l3-3,6,6a128.02,128.02,0,0,0,11-14,5.948,5.948,0,0,0,2,1l2-3s48.439,31.172,48,32C359.991,391.324,299.843,417,256,417Zm33-204a13.294,13.294,0,0,1,2,2l73-75s-3.342-5.235-7-6C356.043,135.061,290.524,211.194,289,213Zm4,13a15.379,15.379,0,0,1,2,3c1.075-.569,98-55,98-55s-2.489-5.136-5-7C386.738,167.677,293,226,293,226Z"/>
</svg>
