<?xml version="1.0" encoding="utf-8"?>
<!-- Generator: Adobe Illustrator 22.0.0, SVG Export Plug-In . SVG Version: 6.00 Build 0)  -->
<svg version="1.1" id="BCPT" xmlns="http://www.w3.org/2000/svg" xmlns:xlink="http://www.w3.org/1999/xlink" x="0px" y="0px"
	 viewBox="0 0 490 490" style="enable-background:new 0 0 490 490;" xml:space="preserve">
<style type="text/css">
	.st0{fill:#FF9900;}
	.st1{fill:#FFFFFF;}
</style>
<path id="Full" class="st0" d="M0,245c0,135.1,109.9,245,245,245s245-109.9,245-245S380.1,0,245,0S0,109.9,0,245z"/>
<path id="BCPT-2" class="st1" d="M245,406c-88.9,0-161-72.1-161-161S156.1,84,245,84c33.6,0,66.3,10.5,93.7,30.1
	c-24,32.7-44.5,61-59.1,80.7c-27.7-19.1-65.7-12.1-84.8,15.6c-7,10.2-10.8,22.2-10.8,34.6c0,32.1,24.5,58.6,56,61c0,0.8,0,4,0,4h5v4
	c0,0,12.7-0.1,22.6-6.2c1,2.2,3.4,7.2,3.4,7.2l3-2l7,13c6.6-3.4,12.7-7.8,18-13c1.2,1.9,2,3,2,3l3-3l6,6c4-4.4,7.7-9.1,11-14
	c0.6,0.5,1.3,0.8,2,1l2-3c0,0,48.4,31.2,48,32C349,380.3,288.8,406,245,406z M278,202c0.7,0.6,1.4,1.3,2,2l73-75c0,0-3.3-5.2-7-6
	C345,124.1,279.5,200.2,278,202z M282,215c0.8,0.9,1.5,1.9,2,3c1.1-0.6,98-55,98-55s-2.5-5.1-5-7C375.7,156.7,282,215,282,215z"/>
</svg>
