<?xml version="1.0" encoding="utf-8"?>
<!-- Generator: Adobe Illustrator 22.0.0, SVG Export Plug-In . SVG Version: 6.00 Build 0)  -->
<svg version="1.1" id="BF" xmlns="http://www.w3.org/2000/svg" xmlns:xlink="http://www.w3.org/1999/xlink" x="0px" y="0px"
	 viewBox="0 0 490 490" style="enable-background:new 0 0 490 490;" xml:space="preserve">
<style type="text/css">
	.st0{fill:#14C393;}
	.st1{fill:#FFFFFF;}
</style>
<path id="Full" class="st0" d="M0,245c0,135.1,109.9,245,245,245s245-109.9,245-245S380.1,0,245,0S0,109.9,0,245z"/>
<path id="BF-2" class="st1" d="M288,288.6c0.1,23.5-18.8,42.6-42.3,42.8s-42.6-18.8-42.8-42.3c0-0.1,0-0.3,0-0.4v-44.8H288V288.6
	L288,288.6z M327.3,205v-35H288v73.8h-85.1V170h-39.3v118.6c0,45.4,36.7,82.3,81.9,82.3s81.9-36.9,81.9-82.3L327.3,205L327.3,205z
	 M368.4,170c0.1,19.2-15.4,34.9-34.7,35c0,0-0.1,0-0.1,0H156.2c-19.3-0.1-34.8-15.7-34.8-35H82c0,42.4,32.5,73.8,74.7,73.8h177.5
	c42.2,0,73.9-31.3,73.9-73.8H368.4L368.4,170z M288,288.6c0.1,23.5-18.8,42.6-42.3,42.8s-42.6-18.8-42.8-42.3c0-0.1,0-0.3,0-0.4
	v-44.8H288V288.6L288,288.6z M288,243.8h-85.1V170h-39.3v118.6c0,45.4,36.7,82.3,81.9,82.3s81.9-36.9,81.9-82.3v-44.8L288,243.8
	L288,243.8z"/>
</svg>
