<svg id="Bigbom" xmlns="http://www.w3.org/2000/svg" width="256" height="256" viewBox="0 0 512 512">
<defs>
    <style>
      .cls-1 {
        fill: #4dae4a;
      }

      .cls-1, .cls-2, .cls-3 {
        fill-rule: evenodd;
      }

      .cls-2 {
        fill: none;
        stroke: #fff;
        stroke-linecap: round;
        stroke-linejoin: round;
        stroke-width: 17px;
      }

      .cls-3 {
        fill: #fff;
      }
    </style>
  </defs>
  <path id="Main" class="cls-1" d="M11,256c0,135.094,109.906,245,245,245S501,391.094,501,256,391.094,11,256,11,11,120.906,11,256Z"/>
  <path id="Lines" class="cls-2" d="M172,133V277M202,74V277m31-169V277m30-144V277M141,190V320m144,71c49.922-18.9,54-55,54-55"/>
  <path id="Out" class="cls-3" d="M284,188c0.074,7.329.35,11.065,0,18,33.5,3.51,90.108,38.893,92,112,0,43.507-36.406,112-111,112-75.52-3.345-113.408-57.12-115-114a164.412,164.412,0,0,1-17,0c0,46.935,32,126.738,128,130,88.632,0,129-74.8,129-128C391.393,220,300.553,188,284,188Z"/>
</svg>
