<svg id="BnB" xmlns="http://www.w3.org/2000/svg" width="256" height="256" viewBox="0 0 512 512">
<defs>
    <style>
      .cls-1 {
        fill: #f3ba2f;
      }

      .cls-1, .cls-2 {
        fill-rule: evenodd;
      }

      .cls-2 {
        fill: #fff;
      }
    </style>
  </defs>
  <path id="Main_copy_14" data-name="Main copy 14" class="cls-1" d="M11,256c0,135.094,109.906,245,245,245S501,391.094,501,256,391.094,11,256,11,11,120.906,11,256Z"/>
  <path id="BnB-2" data-name="BnB" class="cls-2" d="M164.865,198.691l90.619-90.7,90.69,90.7-33.3,33.516-57.39-57.452-57.532,57.452ZM221.794,255.5l33.69-33.43,33.808,33.43-33.808,33.711ZM140.75,222.07l33.466,33.43L140.75,289.211,107.984,255.5ZM336.19,255.5l34.161-33.43,32.641,33.43-32.641,33.711Zm-23.316,23.552,33.3,33.354-90.69,90.606-90.619-90.606,33.087-33.354,57.532,57.636Z"/>
</svg>
