<svg xmlns="http://www.w3.org/2000/svg" viewBox="0 0 490 490"><defs><style>.a{fill:#f3ba2f;}.b{fill:#fff;}</style></defs><title>BinanceDex</title><rect class="a" width="490" height="490" rx="60.06" ry="60.06"/><path class="b" d="M157.28,161.06l-32.89,19v38L91.48,199v-38l32.91-19ZM387.6,142l-32.88,19,32.88,19v38l32.92-19v-38Zm-65.8-38L288.91,85,256,66,190.2,104.06l-32.92,19,32.92,19,32.88-19,32.92-19,32.92,19,32.88,19,32.92-19ZM256,142l-32.91,19,32.91,19,32.92-19Zm65.81,38-32.89,19L256,218l-65.79-38-32.92,19v38l32.92,19,32.88,19v76L256,370l32.92-19V275l32.88-19,32.92-19V199Zm0,114v38l32.92-18.87v-38Zm65.8-38v76l-65.8,38v38l32.92-19,32.89-19,32.91-19V237ZM124.39,332V256L91.48,237V351l32.91,19,32.89,19,32.92,19V370Zm164.49,57L256,408l-32.91-19v38L256,446l32.92-19V389ZM157.28,275v38.14l32.88,19h0V294Z" transform="translate(-10 -10)"/></svg>