<?xml version="1.0" encoding="UTF-8"?><svg id="CIRCLE_OUTLINE_BLACK" xmlns="http://www.w3.org/2000/svg" viewBox="0 0 512 512"><circle cx="256" cy="256" r="256" fill="#182610"/><path d="M126.10897,385.99195c-3.20337-3.34698-5.65991-7.31138-7.24025-11.6639-1.5799-4.35251-2.24093-8.97795-1.93909-13.58874.30184-4.61122,1.56568-9.12154,3.70614-13.21578,2.14047-4.10799,5.09978-7.71368,8.70546-10.60097,10.5872-7.64167,18.47381-8.00085,27.53846-10.16978,15.39936-3.72081,28.64403-15.34157,26.24527-32.37773-3.95064-27.93899-38.82936-16.64852-38.82936-38.29593s34.82138-10.35692,38.82936-38.26746c2.39876-16.90681-10.84592-28.55646-26.24527-32.37774-9.06466-2.16892-16.95127-2.55655-27.50957-10.19867-3.60568-2.8873-6.57966-6.5072-8.72013-10.60099-2.14003-4.12267-3.4043-8.61876-3.70615-13.24423-.3014-4.61078.35919-9.25046,1.93953-13.60296,1.5799-4.35251,4.05111-8.31737,7.25447-11.66433,3.34696-3.20336,7.31182-5.67368,11.6501-7.25403,4.33828-1.5799,8.97841-2.24093,13.58964-1.93909,4.61122.3014,9.10777,1.56568,13.21622,3.70614,4.09378,2.14003,7.71413,5.11356,10.60142,8.71924,7.64212,10.58676,8.0302,18.48715,10.19911,27.55091,3.72081,15.41359,15.34246,28.65737,32.36529,26.25862,27.89719-3.9502,16.63475-38.85605,38.25457-38.85605s10.35738,34.86273,38.28348,38.85605c16.89391,2.39874,28.51512-10.84503,32.36528-26.25862,2.16893-9.06376,2.52811-16.96415,10.156-27.55091,2.88776-3.60567,6.50766-6.57921,10.60187-8.71924,4.0938-2.14046,8.60455-3.40474,13.21578-3.70614,4.61125-.30184,9.23712.35919,13.58964,1.93909,4.3383,1.58034,8.31782,4.05066,11.65055,7.25403,3.20336,3.33273,5.67412,7.31182,7.25449,11.66433,1.57988,4.3525,2.24091,8.97751,1.93909,13.60296-.30185,4.61124-1.56569,9.12155-3.70616,13.23001-2.14047,4.10801-5.11399,7.71368-8.71968,10.60097-10.58719,7.64167-18.47382,8.02976-27.50956,10.19868-15.44293,3.69191-28.67336,15.34157-26.27418,32.37773,3.95065,27.91055,38.82936,16.60541,38.82936,38.26704s-34.85028,10.35692-38.82936,38.29591c-2.39918,16.90726,10.84593,28.52801,26.27418,32.21993,9.02153,2.19783,16.92237,2.55701,27.50956,10.19868,3.60569,2.8873,6.57921,6.5072,8.71968,10.60097,2.14047,4.10845,3.40431,8.60455,3.70616,13.22999.30182,4.61079-.35921,9.25047-1.93909,13.60299-1.58037,4.35249-4.05112,8.31735-7.25449,11.6643-3.33273,3.20339-7.31225,5.67368-11.65055,7.25405-4.35251,1.57988-8.97839,2.24091-13.58964,1.93909-4.61122-.30142-9.12197-1.56569-13.21578-3.70616-4.09421-2.14001-7.71411-5.11356-10.60187-8.73346-7.6421-10.58676-7.98707-18.48714-10.156-27.55135-3.72081-15.41314-15.34246-28.65738-32.36528-26.25818-27.9261,3.95019-16.63474,38.85603-38.28348,38.85603s-10.35738-34.86273-38.25457-38.85603c-16.89346-2.39921-28.51511,10.84503-32.36529,26.28707-2.16892,9.03531-2.557,16.93569-10.19911,27.52245-2.8873,3.6199-6.49298,6.59345-10.60142,8.73346-4.09424,2.14047-8.605,3.40474-13.21622,3.70616-4.61122.30182-9.23712-.35921-13.58964-1.93909-4.3525-1.58037-8.31737-4.05066-11.6501-7.25405" fill="#d7f9c0"/></svg>