<svg id="Bitcoin_SV" data-name="Bitcoin SV" xmlns="http://www.w3.org/2000/svg" width="256" height="256" viewBox="0 0 512 512">
  <defs>
    <style>
      .cls-1 {
        fill: #eab300;
      }

      .cls-1, .cls-2 {
        fill-rule: evenodd;
      }

      .cls-2 {
        fill: #fff;
      }
    </style>
  </defs>
  <path id="Full" class="cls-1" d="M11,256c0,135.094,109.906,245,245,245S501,391.094,501,256,391.094,11,256,11,11,120.906,11,256Z"/>
  <path id="Dragon" class="cls-2" d="M132.126,183.074c5.164,1.86,9.728,4.649,15.426,8.542-35.991,27.633-27.309,93.768-63.419,92.253-4.217.118-15.955,1.194-20.568-11.959,16.652,10.124,24.247.535,24-1.708-26.884,9.731-33.049-18.431-32.566-22.209,1.447-14.012,8.021-17.361,10.284-18.792-3.726,27.129,18.765,30.7,20.568,30.751,16.8-.753,24-15.376,24-15.376s-8.924,8.419-18.854,8.542c-14.018.3-18.943-10.8-18.854-17.084a16.721,16.721,0,0,1,5.142-11.958c4.8,11.647,11.643,11.642,15.426,11.958C120.725,235.123,112.981,201.7,132.126,183.074ZM94.417,213.825c11.747,0.7,8.57,15.376,8.57,15.376s-4.6-1.669-6.856-1.709-3.048,1.151-5.142,1.709c-8.326-1.086-8.57-10.251-8.57-10.251s5.5,3.635,6.856,3.417C90.473,216.855,90.847,214.424,94.417,213.825Zm65.133-18.792c-1.5.144-15.793,12.908-18.854,20.5,4.741-2.118,6.6-2.912,6.856-1.709-11.641,10.158-18.718,33.51-17.14,37.585,1.879-3.631,4.733-5.9,5.142-5.125C128.2,263,125.764,290.4,133.84,292.411c-1.1-9.686,1.714-10.25,1.714-10.25s2.684,13.554,5.142,18.792c0.83,23.875,10.284,25.626,10.284,25.626s-3.266-9.654-1.714-11.959c3.076,0.153,10.063,12.714,13.712,13.667,0.082,25.658,14.4,24.816,15.426,23.918-3.194-3.655-2.689-6.767-1.714-6.834,7.455-1.649,26.3,16.766,47.993,22.209-4.115,7.636-6.532,22.567-8.57,22.21-3.551.024-5.839-18.656-12-18.793-1.776-.836-5.79.515-6.856,0-5.653-7.311-13.712,0-13.712,0s8.84-1.207,10.284,1.709c0.751,1.346-2.5,3.831,0,8.542,5.978,0.859,8.233,3.778,8.57,5.125,0.521,3.889,1.765,10.1,0,10.25-6.685.524-12.065-15.09-18.854-15.375-7-2.317-6.349,3.738-8.57,1.708-9.147-1.8-12,6.834-12,6.834s6.071-2.4,8.57-1.709c2.99,0.707,1.32,4.1,1.714,5.125,2,3.854,16.951,2.022,18.854,11.959-18.481-4.227-30.351,7.143-30.852,10.25-0.567,2.847,1.83,3.757,1.714,5.126-1.38,3.726.2,10.209,3.428,11.958-1.319-5.248-1.306-10.407,0-10.25,1.431,1.064,5.989,1.75,6.856,1.708,2.836-1.1,7.028-8.448,8.57-8.542,4.929-.576,13.469,1.793,15.426,1.709s4.731-.685,5.142,0c0.041,3.474-11.8,12.167-12,15.375a15.613,15.613,0,0,0,0,8.542c-0.211,9.462,3.277,11.935,3.428,11.959,0.294-2.071-.734-6.318,0-6.834a10.7,10.7,0,0,0,6.856,0c2.859,0.26,7.531-15.963,10.284-18.792,1.5-4.922,13.346-7.584,15.427-11.959,0.941,4.153,5.73,7.895,6.856,8.542,1.962,0.953,5.668-.466,6.856,0s2.24,9,1.714,11.959c2.427,0.743,4.278-3.2,5.142-5.125,1.4-5.045,1.3-12.373,0-18.792-2.251-5.7-11.682-9.023-13.712-10.251-0.525-2.1,11.057-6.84,12-6.833,2.085,0.447,2.338,5.735,0,8.542,5.222-1.992,7-4.862,8.57-6.834,0.1-7.343,5.616-10.318,6.856-10.25,3.8,0.209,4.37,5.774,1.714,10.25,16.947-5.729,13.052-18.98,18.854-20.5,101.851-14.858,126.993-97.264,121.7-153.755,5.705,2.041,12.006,1.975,12,3.417-4.235,2.531-6.79,7.919-6.856,10.25,3.655,12.306,12,11.959,12,11.959s-3.719-4.024-3.428-6.834c4.862-.265,5.727-6.343,5.142-8.542,6.852-.574,16.942,12.344,17.14,13.668,2.875,1.2,5.521-.138,6.856,0s0.219,1.987,0,3.416c3.746-.121,3.84-4.9,1.714-6.833-1.375-10.7-12.6-12.252-12-13.667-0.3-4.352,8.749-5.266,10.284-5.125,2.18,0.147,2.016,1.729,3.428,1.708a5.565,5.565,0,0,1,5.142-1.708c0.754,0.1,3.232,2.151,3.428,1.708,1.519-6.923-6.8-11.989-8.57-11.959-4.442-.1-7.5,1.955-8.57,1.709-2.634-3.249,7.143-4.251,5.142-10.251a6.35,6.35,0,0,0,5.142,0c-0.854-4.207-4.822-5.789-8.57-5.125-10.5-2.667-7.855,11.125-12,11.959-1.885-.9.132-8.532,1.682-8.8,2.187-3.377-1.449-5.46-1.682-6.573,0.508-2.464,1.786-4.815,1.714-6.833-3.287.435-5.438,1.662-8.26,5.576-1.2.347-1.867-.507-3.262,0.973-1.053,3.48,2.278,11.938-.476,15.66-4.339-9.045-24.076-21.208-29.138-22.209-2.273-16.273-12.083-11.969-13.713-29.043-2.439-1.1-3.869,8.4-3.428,11.959,3.512,14.283.942,18.35,0,18.792-1.772,1.575-2.1-3.334-3.428-3.417-1.617-1.309-2.059,4.664-2.445,9.544,0.457,7.5,3.9,12.328,4.159,14.374-1.122,4.164-5.476,10.538-6.856,10.25s-2.01-6.495-3.428-6.833c-1.6.88-1.975,7.879-1.714,11.958,0.525,4.068,2.22,9.718,1.714,11.959-1.813,4.519-6.53,7.027-8.57,6.834s-2.191-3.911-1.714-6.834c-4.39-.074-5.142,15.376-5.142,15.376s0.751,7.854,0,10.25c-2.093,4.683-7.08,6.956-8.57,8.542-3.633-.1-1.31-11.6-1.714-11.959-9.338,2.283-10.159,26.5-10.284,30.751-8.452,1.186-8.692,6.57-12,6.834-1.082.094-3.263-3.534-3.428-6.834-0.14-2.536,1.245-3.519,1.714-6.833-20.935,3.776-22.7,42.414-47.993,42.709-26.467-2.611-41.224-37.824-39.422-47.835-8.49,3.706-10.328,3.31-13.713,3.417-13.174-.118-16.295-8.66-17.14-11.959-9.326-3.859-8.87-11.632-8.57-13.667-8.792,1.5-9.9-6-10.284-8.542-0.42-5.915,1.24-8.288,3.428-10.25-1.258-3.853-10.412-9.528-10.284-11.959,2-4.665,9.387-11.559,12-11.958-2.193-1.859-2.876-9.752,3.062-13.841C182.716,199.565,166.218,194.818,159.55,195.033Zm-3.428-51.252c0.835-2.333,9.353-10.233,13.712-11.959,0.275-.71-1.592-6.653-8.57-1.708,1.889-9.57,12.277-10.244,13.712-10.25,4.182-.1,8.322,2.29,10.284,1.708,2.369-3,9.193-6.265,10.284-6.834,0.711-4.429-5.159-2.692-6.856-1.708-0.4-7.342,10.645-8.38,12-8.542,8.429,0.461,11.554,5.265,13.713,5.125,3.9-3.458,9.742-3.71,12-3.417,0.025-5.07-6.555-3.914-8.57-3.416,3.922-5.7,9.447-5.35,12-5.126,8.7-.232,10.68,4.495,12,6.834a16.843,16.843,0,0,1,13.712,0c1.6-5.519-4.28-6.71-6.856-6.834,6.435-3.911,12.2-2.607,13.712-1.708,3.393,1.769,7.092,6.63,8.57,8.542a20.189,20.189,0,0,1,12,3.417s1.7-7.352-5.142-6.834c0.509-3.891,5.8-3.406,6.856-3.416,12.541,2.362,12.56,11.764,13.712,13.668,6.357,0.852,11.14,7.149,12,5.125,2.9-8.824-7.616-9.187-3.428-10.251,15.252-.485,18.812,13.189,18.854,15.376s4.586-.38,10.284,5.125c2.308-4.926-4.907-8.454-5.142-10.25,12.454-.733,14.728,12.018,15.426,13.667,1.969,2.723,5.335,5.474,6.856,5.125,2.4-1.684-.88-6.529-1.714-8.542,8.323-1.322,17.14,20.5,17.14,20.5s1.808,10.463,0,13.667-0.559,5.785-1.714,6.834-0.37,8.552-1.714,11.958c-2.235,2.452-4.7,6.636-5.142,8.542s0.373,16.413,0,18.793c-0.813.707-4.286,1.587-6.856,5.125a16.794,16.794,0,0,0-1.714,3.417c-0.431.791,0.378,5.818,0,13.667-12.234,4.249-12.686,20.875-15.426,18.792,0.272-6.625,1.812-14.5,1.714-18.792s-0.114-4.9-1.714-11.959a25.874,25.874,0,0,0-3.428-11.959s5.8-6.226,6.856-10.25,0-11.959,0-11.959,0.228-20.614-12-20.5c-11.981.232-12.049,14.233-12,17.084-0.523,1.1-21.694-16.371-46.279-17.084-4.241.095-19.7,0.262-30.852,8.542-1.069-.071-23.746-15.072-51.421-15.375C183.148,155.314,160.619,152.333,156.122,143.781Zm-22.282-5.125c15.453,16.56,24.878,19.539,32.1,22.561,8.158,2.031,25.416,3.036,38.4,6.315,16,3.286,28.884,12.109,32.332,15.542,3.569,0.357,6.7-1.866,8.57-1.708,6.025,1.119,7.028,9.98,6.856,11.958s-1.749,8-1.714,10.251c0.78,3.872,1.8,4.921,3.428,5.125s4.6-1.928,8.57-1.708c3.111-.026,6.316,3.25,8.57,3.416,10.086,2.643,20.841-18.811,27.424-17.084,8.492,0.3,11.922,1.449,15.427,1.709,14.466,3.09,11.1-19.752,13.712-22.209,4.594,0.326,1.387,21.37-1.714,23.917-3.406,5.331-25.71,3.417-25.71,3.417s-4.549,2.15-5.143,6.834c-0.208,4.172,5.61,4.709,6.857,5.125s4.052,9.873,5.142,10.25,9.1,0.907,10.284,1.709c-2.388,2.56-2.8,3.545-5.142,3.416s-6.07-1.974-6.856-1.708,0.52,7.024,0,8.542c-2.394,1-5.29-2.9-6.857-3.417-1.87-1.043-5.406,5.125-6.856,5.125-3.056-.577-2.717-3-5.142-3.417s-3.669,5.367-5.142,5.126-2.394-5.465-5.142-5.126c-0.19,8.084-8.57,10.251-8.57,10.251s2.682-4.148,1.714-6.834c-4.869-1.327-6.861,6.31-6.856,10.251-0.043,13.421,17.634,44.556,17.14,52.96-0.239,16.347-12.342,19.546-15.426,18.792-15.526,1.525-28.831-26.449-29.138-32.459,6.251,5.37,17.269,23.679,25.71,23.917,9.423,0.249,10.186-11.227,10.284-13.667-1.139-9.181-18.429-40.233-18.854-46.127a32.1,32.1,0,0,1,0-8.542s-10.457,1.163-12,0c-2.457-4.054-5.808.436-6.856,0,1.993-8.5-5.424-10.491-6.856-10.25s-1.987,2.7-1.714,5.125C225,242.261,236.76,249.609,238.4,249.7s2.262-3.435,3.428-3.416c3.752-.335,4.48,7.036,5.142,8.542-0.331,3.065,1.7,4.964,1.714,8.542-1.257,10.988-12.53,12.02-17.14,11.958,8.783-5.688,6.856-11.958,6.856-11.958s-9.03-.839-10.284,0c-2.327,4.925-9.637,9.062-15.426,8.541-10.536.691-10.917-8.514-12-10.25,0.06-2.758-4.863.6-5.142,0-0.8-3.264,3.684-8.4,3.428-10.25a7.9,7.9,0,0,0-12-3.417c-0.779-7.849,8.158-9.494,8.57-10.25-1.211-2.014-3.683-1.224-5.142-1.709-4.158-1.886-7.6-6.468-8.57-8.542,3.864-6.57,13.719-8.753,15.426-8.542,2.634,0.359,12.976,1.317,18.855,8.542,1.816-12.669-23.952-15.477-27.425-15.375,2.229-4.77,10.7-5.131,12-5.125s6.025-2.451,8.57-3.417c1.367-4.712-19.743-11.064-24-11.959-10.218-2.173-31.258-7.52-37.708-10.25s-27-13.176-30.853-32.46c16.009,13.977,24.589,18.506,30.853,20.5,9.087,4.257,33.276,5.53,42.85,6.834,15.994,2.3,27.9,10.081,29.139,10.25,3.748-.817,7.748-2.37,8.57-3.417-5.849-4.477-13.12-6.924-17.547-8.416-9.767-2.871-18.824-5.229-36.422-6.562C149.649,167.205,133.088,147,133.84,138.656Zm87.415,73.461c2.266-.556,10.284,0,10.284,0s4.34-3.452,6.856-3.417,5.607,2.9,5.142,5.125c-3.452,4.916-7.648,6.9-10.284,6.834C224.506,219.589,220.889,213.8,221.255,212.117Zm56.562,6.833c1.931-1.776,7.084-1.732,8.57-1.708s4.992,0.143,6.856,1.708c2.9,1.219,3.494,2.313,3.428,3.417s-4.092,3.436-6.856,3.417C285.063,220.626,278.193,222,277.817,218.95ZM270.961,249.7c2.021,2.271,5.087,5.063,6.856,5.126,2.358-1.656,5.008-1.384,6.856-1.709,1.453-3.168-1.63-8.209-1.714-10.25,3.307-1.581,7.252,7.784,10.284,5.125,5.087-1.127.814-8.153,1.714-8.542,1.634,0.061,9.325,6.966,10.285,8.542,3.528,2.707,6.491,9.226,5.142,10.25-2.673-2.259-3.89-1.9-5.142-1.708-2.356-.646-0.465,7.986-1.714,8.542-2.09-.066-6.049-3.878-8.571-3.417,0.359,3.855-.614,11.672-1.714,11.959-1.817-3.5-6.926-8.507-8.57-8.542s-5.433,4.132-6.856,3.417C276,267.067,269.283,250.379,270.961,249.7Z"/>
</svg>
