<svg id="Bitcoin_Cash" data-name="Bitcoin Cash" xmlns="http://www.w3.org/2000/svg" width="256" height="256" viewBox="0 0 512 512">
<defs>
    <style>
      .cls-1 {
        fill: #4cca47;
      }

      .cls-1, .cls-2 {
        fill-rule: evenodd;
      }

      .cls-2 {
        fill: #fff;
      }
    </style>
  </defs>
  <path id="Full" class="cls-1" d="M11,256c0,135.094,109.906,245,245,245S501,391.094,501,256,391.094,11,256,11,11,120.906,11,256Z"/>
  <path id="B" class="cls-2" d="M171.453,121.591L183.061,165.7l-53.266,15.742,8.438,28.614,22.419-7.169s13.605-.88,15.794,9.356c2.584,9.129,34.019,118.923,34.019,118.923s2.639,7.5-8.258,11.7c-9.969,2.912-18.089,4.67-18.089,4.67l3.876,34.713,53.765-14.876,12.474,43.605,26.883-7.438-12.474-43.6,20.687-6.17L301.8,397.363l27.749-7.938-13.34-43.105s82.673-24.1,63.639-81.775c-11.173-50.267-53.151-42.06-53.151-42.06s22.648-20.4,10.445-49.909c-15.064-45.789-78.765-28.426-78.765-28.426l-12.474-43.6-26.883,7.438,12.84,42.239-21.553,6.67-11.973-42.739Zm48.794,66.514s58.122-22.722,69,7.507c12.447,33.137-53.256,45.758-53.256,45.758Zm23.68,81.014,16.009,57.73s76.546-15.935,66.014-49.661C316.1,237.562,243.927,269.119,243.927,269.119Z"/>
</svg>
