<svg xmlns="http://www.w3.org/2000/svg" viewBox="0 0 490 490"><defs><style>.a{fill:#14c393;}.b{fill:#fff;}</style></defs><title>Bitforex</title><rect class="a" width="490" height="490" rx="60.06" ry="60.06"/><path class="b" d="M302.7,295.54a46.17,46.17,0,0,1-92.33,0V247.31H302.7Zm42.66-90.09V167.78H302.7v79.53H210.37V167.78H167.71V295.54a88.83,88.83,0,0,0,177.65,0V205.45Z" transform="translate(-10 -10)"/><path class="b" d="M389.88,167.78a37.65,37.65,0,0,1-37.71,37.67H159.62a37.74,37.74,0,0,1-37.73-37.67H79.1c0,45.7,35.3,79.53,81.05,79.53H352.71c45.77,0,80.19-33.69,80.19-79.53Z" transform="translate(-10 -10)"/><path class="b" d="M302.7,295.54a46.17,46.17,0,0,1-92.33,0V247.31H302.7Zm0-48.23H210.37V167.78H167.71V295.54a88.83,88.83,0,0,0,177.65,0V247.31Z" transform="translate(-10 -10)"/></svg>