<svg id="BitMEX" xmlns="http://www.w3.org/2000/svg" viewBox="0 0 490 490"><defs><style>.cls-1{fill:#eb4a60;}.cls-2{fill:#fff;}</style></defs><title>Bitmex</title><g id="Rounded_Rectangle_Bild" data-name="Rounded Rectangle Bild"><rect class="cls-1" width="490" height="490" rx="60.06" ry="60.06"/></g><path class="cls-2" d="M196.89,137.22H340.35a9.47,9.47,0,0,1-1.89,5.24c-4.85,8.33-9.22,17-14,25.33-6.8,11.92-13.07,24.13-19.93,36-4.34,8.57-9.25,16.88-13.89,25.3H207c-1.45,0-2.9.08-4.36.16-1.21,3.21-3.23,6.07-4.85,9-2.13,3.45-3.85,7.13-5.95,10.58-2.22,4.63-5.29,8.79-7.53,13.35-4.61,7.83-8.92,15.78-13.44,23.7q-7.07,12.13-13.81,24.62c-1.91,2.95-3.65,6-5.26,9.12-9.43,16.47-18.56,33-28,49.42a20.08,20.08,0,0,1-3.13,4.86c-16.15-.11-32.29,0-48.44,0a24.39,24.39,0,0,0-5.89.82c0-4.47,3-8,5-11.75,2.43-5,5.67-9.71,8.11-14.76,19.35-34.63,38.5-69.37,57.79-104,4.37-7.53,8.12-15.21,12.52-22.6,5.49-9.71,10.6-19.64,16.31-29.24,1.83-4,4.28-7.7,6.28-11.62,7.12-12.66,14.1-25.4,21.19-38.06A22,22,0,0,1,196.89,137.22Z" transform="translate(-10 -10)"/><path class="cls-2" d="M363.12,188.21c9.55-16.69,18.78-33.57,28.47-50.19H443.4a11.24,11.24,0,0,1,2.24.35c-1.73,2.61-3.17,5.38-4.69,8.1q-18.74,33.65-37.38,67.32c-5.22,9.14-10.07,18.49-15.37,27.58l-.52.18-.1,1.14Q351,308.26,314.74,373.91,243.4,374,172,374c2.71-5.66,5.92-11.06,8.93-16.56,13.59-25,27.49-49.67,40.85-74.58q43.83-.07,87.68,0c18.05-31.48,35.71-63.13,53.63-94.61Z" transform="translate(-10 -10)"/></svg>