<?xml version="1.0" encoding="UTF-8" standalone="no"?>
<svg
   width="400"
   height="400"
   version="1.1"
   id="svg21"
   sodipodi:docname="BKA.svg"
   inkscape:version="1.1.1 (3bf5ae0d25, 2021-09-20)"
   xmlns:inkscape="http://www.inkscape.org/namespaces/inkscape"
   xmlns:sodipodi="http://sodipodi.sourceforge.net/DTD/sodipodi-0.dtd"
   xmlns="http://www.w3.org/2000/svg"
   xmlns:svg="http://www.w3.org/2000/svg">
  <sodipodi:namedview
     id="namedview23"
     pagecolor="#ffffff"
     bordercolor="#666666"
     borderopacity="1.0"
     inkscape:pageshadow="2"
     inkscape:pageopacity="0.0"
     inkscape:pagecheckerboard="0"
     showgrid="false"
     inkscape:zoom="2.1825"
     inkscape:cx="200.45819"
     inkscape:cy="200"
     inkscape:window-width="2560"
     inkscape:window-height="1377"
     inkscape:window-x="-8"
     inkscape:window-y="-8"
     inkscape:window-maximized="1"
     inkscape:current-layer="svg21" />
  <defs
     id="defs9">
    <linearGradient
       id="A"
       x1="59.544"
       y1="336.846"
       x2="334.185"
       y2="53.747"
       gradientUnits="userSpaceOnUse"
       gradientTransform="matrix(0.98231346,0,0,0.98231342,3.5373086,3.5373087)">
      <stop
         offset="0"
         stop-color="#d4287d"
         id="stop2" />
      <stop
         offset=".503"
         stop-color="#672c8d"
         id="stop4" />
      <stop
         offset="1"
         stop-color="#e28630"
         id="stop6" />
    </linearGradient>
  </defs>
  <circle
     cx="200"
     cy="200"
     fill="#fff"
     fill-opacity="0"
     stroke="url(#A)"
     stroke-width="20.799"
     id="circle11"
     style="fill:#1d1d1d;fill-opacity:1;stroke:url(#A);stroke-width:27.5048;stroke-miterlimit:4;stroke-dasharray:none"
     r="186.24762" />
  <g
     fill="#ffffff"
     id="g34"
     transform="matrix(0.8846307,0,0,0.93835658,32.395988,18.954129)">
    <g
       id="g32">
      <g
         id="g30">
        <path
           d="m 6.640625,0 v -115.35938 h 35.6875 c 4.09375,0 7.601563,1.52344 10.53125,4.5625 2.9375,3.04297 4.40625,6.77735 4.40625,11.20313 v 24.90625 c 0,3.648438 -0.667969,6.746094 -2,9.296875 -0.886719,1.875 -2.265625,3.480469 -4.140625,4.8125 h 6.140625 v 44.8125 c 0,4.429687 -1.46875,8.164063 -4.40625,11.203125 C 49.929688,-1.519531 46.421875,0 42.328125,0 Z M 39,-74.6875 v -23.25 H 24.890625 v 30.71875 z m 0,20.578125 -14.109375,7.296875 v 29.390625 H 39 Z m 0,0"
           transform="translate(58.875,185.744)"
           id="path28" />
      </g>
    </g>
  </g>
  <g
     fill="#ffffff"
     id="g42"
     transform="matrix(0.8846307,0,0,0.93835658,32.395988,18.954129)">
    <g
       id="g40">
      <g
         id="g38">
        <path
           d="m 6.640625,0 v -99.59375 c 0,-4.42578 1.460937,-8.16016 4.390625,-11.20313 2.9375,-3.03906 6.453125,-4.5625 10.546875,-4.5625 h 20.75 c 4.09375,0 7.601563,1.52344 10.53125,4.5625 2.9375,3.04297 4.40625,6.77735 4.40625,11.20313 V 0 H 39 V -48.96875 L 24.890625,-41.5 V 0 Z m 18.25,-61.90625 L 39,-69.375 V -97.9375 H 24.890625 Z m 0,0"
           transform="translate(122.774,185.744)"
           id="path36" />
      </g>
    </g>
  </g>
  <g
     fill="#ffffff"
     id="g50"
     transform="matrix(0.8846307,0,0,0.93835658,32.395988,18.954129)">
    <g
       id="g48">
      <g
         id="g46">
        <path
           d="m 39,-31.53125 18.265625,-9.140625 v 24.90625 c 0,4.429687 -1.46875,8.164063 -4.40625,11.203125 C 49.929688,-1.519531 46.421875,0 42.328125,0 h -20.75 c -4.09375,0 -7.609375,-1.546875 -10.546875,-4.640625 -2.929688,-3.101563 -4.390625,-6.8125 -4.390625,-11.125 V -99.59375 c 0,-4.42578 1.460937,-8.16016 4.390625,-11.20313 2.9375,-3.03906 6.453125,-4.5625 10.546875,-4.5625 h 20.75 c 4.09375,0 7.601563,1.52344 10.53125,4.5625 2.9375,3.04297 4.40625,6.77735 4.40625,11.20313 V -89.625 L 39,-80.5 V -97.9375 H 24.890625 v 80.515625 H 39 Z m 0,0"
           transform="translate(186.674,185.744)"
           id="path44" />
      </g>
    </g>
  </g>
  <g
     fill="#ffffff"
     id="g58"
     transform="matrix(0.8846307,0,0,0.93835658,32.395988,18.954129)">
    <g
       id="g56">
      <g
         id="g54">
        <path
           d="M 70.546875,0 H 51.125 l -18.421875,-47.140625 -7.8125,16.09375 V 0 h -18.25 v -115.35938 h 18.25 v 43.656255 l 19.59375,-43.656255 H 64.40625 l -21.75,46.812505 z m 0,0"
           transform="translate(248.913,185.744)"
           id="path52" />
      </g>
    </g>
  </g>
  <g
     fill="#ff008a"
     id="g66"
     transform="matrix(0.8846307,0,0,0.93835658,32.395988,18.954129)">
    <g
       id="g64">
      <g
         id="g62">
        <path
           d="m 6.109375,0 v -91.71875 c 0,-4.082031 1.347656,-7.523438 4.046875,-10.32813 2.707031,-2.80078 5.945312,-4.20312 9.71875,-4.20312 h 19.109375 c 3.769531,0 7.003906,1.40234 9.703125,4.20312 2.695312,2.804692 4.046875,6.246099 4.046875,10.32813 V 0 h -16.8125 v -45.09375 l -12.984375,6.875 V 0 Z M 22.9375,-57.015625 35.921875,-63.90625 V -90.203125 H 22.9375 Z m 0,0"
           transform="translate(53.355,315.494)"
           id="path60" />
      </g>
    </g>
  </g>
  <g
     fill="#ff008a"
     id="g74"
     transform="matrix(0.8846307,0,0,0.93835658,32.395988,18.954129)">
    <g
       id="g72">
      <g
         id="g70">
        <path
           d="M 6.109375,0 V -106.25 H 22.9375 v 90.203125 H 47.390625 V 0 Z m 0,0"
           transform="translate(112.21,315.494)"
           id="path68" />
      </g>
    </g>
  </g>
  <g
     fill="#ff008a"
     id="g82"
     transform="matrix(0.8846307,0,0,0.93835658,32.395988,18.954129)">
    <g
       id="g80">
      <g
         id="g78">
        <path
           d="M 6.109375,0 V -106.25 H 22.9375 v 90.203125 H 47.390625 V 0 Z m 0,0"
           transform="translate(161.894,315.494)"
           id="path76" />
      </g>
    </g>
  </g>
  <g
     fill="#ff008a"
     id="g90"
     transform="matrix(0.8846307,0,0,0.93835658,32.395988,18.954129)">
    <g
       id="g88">
      <g
         id="g86">
        <path
           d="M 46.625,-90.203125 H 22.9375 v 28.59375 L 46.625,-73.84375 v 18.8125 L 22.9375,-42.8125 v 26.765625 H 46.625 V 0 H 6.109375 v -91.71875 c 0,-4.082031 1.347656,-7.523438 4.046875,-10.32813 2.707031,-2.80078 5.945312,-4.20312 9.71875,-4.20312 h 26.75 z m 0,0"
           transform="translate(211.577,315.494)"
           id="path84" />
      </g>
    </g>
  </g>
  <g
     fill="#ff008a"
     id="g98"
     transform="matrix(0.8846307,0,0,0.93835658,32.395988,18.954129)">
    <g
       id="g96">
      <g
         id="g94">
        <path
           d="M 6.109375,-106.25 H 22.9375 v 44.640625 l 12.984375,-6.875 V -106.25 h 16.8125 v 91.734375 c 0,4.074219 -1.351563,7.511719 -4.046875,10.3125 C 45.988281,-1.398438 42.753906,0 38.984375,0 H 19.875 C 16.101562,0 12.863281,-1.425781 10.15625,-4.28125 7.457031,-7.132812 6.109375,-10.546875 6.109375,-14.515625 V -19.875 L 22.9375,-28.28125 v 12.234375 H 35.921875 V -49.6875 l -29.8125,15.296875 z m 0,0"
           transform="translate(262.788,315.494)"
           id="path92" />
      </g>
    </g>
  </g>
</svg>
