<?xml version="1.0" encoding="UTF-8"?>
<svg id="Layer_1" data-name="Layer 1" xmlns="http://www.w3.org/2000/svg" viewBox="0 0 450 450">
  <defs>
    <style>
      .cls-1 {
        fill: #2c403e;
      }

      .cls-2 {
        fill: #73bfb4;
      }

      .cls-3 {
        fill: none;
      }
    </style>
  </defs>
  <rect class="cls-3" width="450" height="450"/>
  <path class="cls-2" d="M209.79,7.29c173.71-11.46,290.65,176.46,202.38,327.38-83.32,142.45-291.32,142.82-374.97.63C-44.92,195.73,48.87,17.91,209.79,7.29Z"/>
  <path class="cls-1" d="M236.35,108.35c13.08-12.25,29.74-22.64,47.65-25.34-7.28,21.48-.62,46.29-12.81,66.68-4.97,8.31-10.95,9.71-20.09,11.41,1.73,13.96,1.21,25.77-4.93,38.58-3.9,8.14-9.4,10.5-8.09,20.74,2.8,21.84,38.07,48.96,45.93,76.06,5.21,17.97,3.37,34.54-4.01,51.52,32.73-8.95,45.14-41.66,39-73,4.03,4.88,5.57,14.27,6.03,20.46,2.75,37.09-13.9,68.24-53.49,70.59-20.96,1.24-51.18,1.35-72.08,0-2.52-.16-4.9-1.01-7.41-1.09-1.03-9.13.13-14.11,9.94-15.44-6.28-5.86-11.93-12.23-16.5-19.52-.13,4.24-2.16,8.4-2.49,12.52-.36,4.39.95,19.05-.5,21.5-1.75,2.97-24.79,2.65-28.11,1.09s-3.3-7.94-1.88-11.08c2.09-4.66,11.1-3.82,11.54-5.68.59-2.49-1.02-6.05-1.1-8.8-.53-19.92,1.14-44.82-.95-64.05-.58-5.32-3.39-11.22-3.88-17.12-1.28-15.31,3-19.9,6.89-32.86,4.43-14.77-2.23-14.88-7.5-26.53s-6.56-25.25-3.51-37.98c-11.54-1-17.36-3.51-22.55-13.96-9.77-19.66-5.79-43.11-10.45-64.04,24.45,3.91,42.76,20.18,58.72,37.85,10.05-1.59,19.43-3.68,29.76-2.84,3.23.26,13.2,3.21,14.82,2.83,2.47-.59,9.7-10.29,12.05-12.49Z"/>
</svg>
