<?xml version="1.0" encoding="UTF-8"?>
<svg xmlns="http://www.w3.org/2000/svg" version="1.1" viewBox="0 0 250 250">
  <defs>
    <style>
      .cls-1 {
        fill: #fcfc03;
      }
    </style>
  </defs>
  <!-- Generator: Adobe Illustrator 28.7.1, SVG Export Plug-In . SVG Version: 1.2.0 Build 142)  -->
  <g>
    <g id="Layer_1">
      <path class="cls-1" d="M125,247.5c67.7,0,122.5-54.8,122.5-122.5S192.7,2.5,125,2.5,2.5,57.3,2.5,125s54.8,122.5,122.5,122.5Z"/>
      <g>
        <path d="M172,124l25.8-12.8,8.9-27.2-17.8-12.9h-118.2l-27.3,20.3h139l-7.4,22.9h-55.7l-5.4,16.7h55.7l-15.6,48.1,26.1-12.9,9.3-28.8-17.5-12.8.2-.4Z"/>
        <path d="M82.6,158.3l16.1-50.1-17.8-13.4-26.8,84.1h99.9l6.7-20.7h-78Z"/>
      </g>
    </g>
  </g>
</svg>