<?xml version="1.0" encoding="UTF-8"?><svg id="Layer_1" xmlns="http://www.w3.org/2000/svg" width="128" height="128" viewBox="0 0 128 128"><defs><style>.cls-1{fill:#f46825;}.cls-2{fill:#0b0609;}</style></defs><circle class="cls-2" cx="64" cy="64" r="64"/><path class="cls-1" d="M61.04,56.51c-.74.68-1.46,1.39-2.25,2.02-.25.2-.66.27-1,.27l-31.08.02c-.75,0-1.01-.25-.93-.97.04-.32-.07-.68.03-.97.1-.26.38-.47.61-.66.08-.06.25-.01.39-.01h33.44s.58,0,.58,0l.21.3h0ZM61.25,47.5H27.17c-1.23,0-1.89-1.09-1.32-2.19.07-.14.29-.25.46-.28.29-.05.59-.02.88-.02l30.1-.04c1.28,0,2.28.26,3.08,1.28.27.35.71.57,1.07.85l-.18.4h0ZM61.53,41.38c-.84.79-1.5,1.47-2.22,2.07-.24.2-.66.28-.99.28-10.52.01-21.04,0-31.56.02-.82,0-1.06-.33-.95-1.05.09-.58-.4-1.46.83-1.46h34.31c.09,0,.19.05.58.13h0ZM61.06,32.48l-1.13.05c-10.92,0-21.84,0-32.76-.01-.43,0-1.19-.06-1.24-.24-.16-.61-.1-1.28-.06-1.93,0-.11.34-.25.54-.29.29-.05.59-.02.88-.02l29.61-.06c2.05-.03,2.91,1.19,4.15,2.49h0ZM69.15,56.21h30.08c.39.01,1.1.12,1.12.27.11.69.06,1.42,0,2.12,0,.09-.45.2-.69.2-9.21.01-18.42.01-27.64,0-.32,0-.63-.12-.87-.33-.73-.65-1.41-1.35-2.11-2.03l.11-.22h0ZM57.33,59.95c-1.28,1.46-2.28,2.59-4.39,2.55l-25.77-.06c-1.23,0-1.9-1.09-1.32-2.19.07-.14.29-.25.46-.28.25-.05.52-.02.78-.02h29.01s1.22,0,1.22,0h0ZM57.34,28.79h-1.12c-9.74,0-19.48,0-29.22-.01-.39,0-1.07-.13-1.1-.3-.12-.62-.09-1.3.02-1.93.03-.14.62-.26.95-.26l10.82-.02c5.05,0,10.11.13,15.15-.06,2.12-.08,3.2,1.03,4.49,2.57h0ZM72.89,59.95h.86l25.56-.02c.88,0,1.23.21,1.19,1.14-.04.83-.03,1.4-1.17,1.39l-23.3-.05c-.52,0-1.1-.31-1.54-.62-.63-.45-1.17-1.03-1.75-1.56l.15-.28h0ZM80.22,55.08c-4.09,0-7.88.01-11.66-.03-.22,0-.6-.37-.63-.61-.27-1.87-.16-1.97,1.74-1.97l6.67-.02c.9-.02,1.56.22,2.13.9.46.54,1.02,1.01,1.75,1.72h0ZM52.02,55.08c.48-.84.89-1.62,1.37-2.36.1-.16.45-.23.68-.23l7.26-.02c.61,0,.83.25.79.82-.01.16,0,.33,0,.49,0,.87-.43,1.3-1.28,1.3h-8.82s0,0,0,0ZM30.27,55.08c-1.24,0-2.49-.02-3.73,0-.55,0-.75-.2-.75-.75.02-2.23-.17-1.83,1.8-1.85l6.19-.02c.74-.01,1.02.24.94.96-.03.29-.03.59,0,.88.05.6-.23.8-.81.79-1.21-.03-2.42,0-3.64,0,0,0,0,0,0,0ZM52.5,48.73h8.71c.68-.02.92.22.93.89.03,1.57.05,1.6-1.5,1.63l-6.47.08c-.6.01-.83-.19-.93-.82-.09-.59-.46-1.14-.74-1.78h0ZM30.2,51.25c-1.18,0-2.35-.02-3.53,0-.69.02-.95-.27-.89-.94.03-.29-.08-.63.03-.87.13-.28.43-.68.66-.68,2.52-.05,5.03-.05,7.55,0,.23,0,.5.42.67.69.09.14.02.38.02.58,0,.87-.43,1.3-1.28,1.3h-3.23s0-.08,0-.08h0Z"/><path class="cls-1" d="M30.27,36.25c-1.21,0-2.42-.02-3.63,0-.63.02-.92-.19-.86-.84.03-.29.02-.59,0-.88-.03-.52.17-.79.72-.8l7.45-.08c.53,0,.79.2.76.75-.02.32-.03.65,0,.98.07.7-.26.9-.92.88-1.18-.04-2.35-.01-3.53-.01h0s0,0,0,0ZM52.01,33.74h2.4l6.58-.02c1.05-.03,1.15.49,1.15,1.33,0,.8-.1,1.27-1.11,1.23-2.23-.07-4.46-.03-6.68-.01-.62,0-.99-.07-1.15-.83-.12-.54-.67-1-1.19-1.71h0ZM52.52,40.04l.79-1.95c.12-.23.42-.52.64-.53,2.51-.04,5.03-.03,7.55,0,.21,0,.55.34.6.57.32,1.6.06,1.9-1.55,1.9h-7.15s-.86,0-.86,0h0ZM72.47,48.74c1.08,0,2.16.06,3.23-.02.94-.07,1.24.31,1.12,1.18-.03.19-.02.39,0,.59.04.54-.22.77-.75.77h-7.45c-.55,0-.75-.28-.73-.8.02-.33.02-.65,0-.98-.03-.55.22-.75.76-.74h3.82ZM72.34,47.49c-1.18,0-2.36-.02-3.54,0-.67.02-.92-.22-.93-.91-.02-1.6-.05-1.6,1.59-1.6l6.39-.02c.93-.03,1.01.44.96,1.15-.05.65.23,1.44-.94,1.38-1.18-.06-2.36-.01-3.54-.01h0s0,0,0,0ZM72.31,28.79c-1.18,0-2.36-.02-3.54.01-.61.02-.94-.17-.88-.83.03-.32-.09-.69.04-.97.12-.28.45-.68.7-.68,2.49-.05,4.98-.05,7.47,0,.24,0,.58.39.69.68.12.31,0,.71.03,1.07.04.58-.25.73-.77.72h-3.74s0,0,0,0ZM72.33,43.74c-1.21,0-2.43-.02-3.64,0-.59.01-.92-.23-.79-.8s-.52-1.61.59-1.65c2.59-.1,5.18-.04,7.77,0,.19,0,.46.37.53.62.09.33,0,.71.03,1.07.04.55-.21.76-.75.75h-3.74s0,0,0,0h0Z"/><path class="cls-1" d="M72.42,40.04c-1.21,0-2.43-.03-3.64,0-1.19.04-.84-.8-.89-1.42-.06-.66.03-1.12.91-1.1,2.39.05,4.79.04,7.18.01.64,0,.84.23.85.86.01,1.63.04,1.63-1.56,1.63h-2.85s0,0,0,0ZM30.24,37.53c1.18,0,2.36.03,3.54-.01.74-.03.96.26.95.97-.01,1.55.02,1.55-1.56,1.55-2.13,0-4.26-.06-6.39,0-1.22.04-.93-.75-.99-1.43-.07-.77.15-1.15,1.01-1.1,1.14.06,2.29.02,3.44.02h0s0,0,0,0ZM72.41,36.26c-1.24,0-2.48-.02-3.72,0-.59.01-.84-.22-.8-.8.02-.29.02-.59,0-.88-.04-.57.2-.84.79-.84h7.35c.58,0,.84.24.79.83-.02.26-.03.52,0,.78.07.67-.19.94-.88.91-1.17-.04-2.35-.01-3.53-.01h0ZM72.3,32.54c-1.18,0-2.36-.02-3.54,0-.62.02-.93-.18-.87-.84.03-.29.02-.59,0-.88-.03-.53.19-.78.74-.77l7.47.04c.24,0,.57.39.69.67.12.28,0,.64.03.97.05.59-.19.82-.79.81-1.24-.03-2.49,0-3.73,0h0ZM103.59,80.57c-1.31,1.37-2.18,2.57-4.23,2.54l-29.91-.05c-1.36,0-1.95-.86-1.42-2.11.07-.17.32-.31.51-.36.25-.07.52-.03.78-.03h32.96s1.31,0,1.31,0h0ZM103.49,86.74l-1.03.06c-11.07,0-22.15,0-33.23,0-.39,0-1.08-.11-1.12-.29-.14-.61-.08-1.28-.04-1.92,0-.1.29-.23.47-.26.32-.04.65-.02.98-.02l29.49-.06c2.09-.03,3.26.91,4.48,2.49h0ZM60.79,95.84c-.75.68-1.47,1.39-2.25,2.02-.25.2-.66.26-1,.26-9.17.01-18.35.02-27.52-.01-.46,0-.99-.26-1.37-.55-.67-.51-1.26-1.13-1.88-1.7l.13-.23h33.68l.21.22h0ZM103.14,71.85h-33.69c-1.42,0-1.86-.6-1.42-2,.06-.19.32-.4.53-.45.31-.08.65-.04.98-.04l29.32-.05c2.06-.03,3.04,1.09,4.29,2.54h0ZM99.28,68.11h-10.71c-6.45,0-12.91,0-19.36-.01-.39,0-1.07-.13-1.1-.29-.12-.62-.1-1.3.03-1.92.03-.16.68-.27,1.04-.27l14.55-.02,11.79-.02c1.12-.02,1.94.27,2.65,1.12.37.44.88.76,1.33,1.13l-.22.29h0ZM57.01,99.53c-.71.66-1.4,1.36-2.15,1.97-.24.2-.67.24-1.02.24-6.72.01-13.45.02-20.17-.01-.47,0-.99-.27-1.38-.55-.65-.48-1.22-1.07-1.82-1.61l.16-.23h26.2l.18.2h0ZM49.78,94.12c.76-.71,1.5-1.43,2.29-2.1.2-.17.55-.21.82-.21l8.07-.02c.68,0,.92.23.94.91.05,1.71.07,1.71-1.6,1.71h-10.33l-.2-.28h0ZM37.54,94.4c-3.7,0-7.4,0-11.1,0-.54,0-.8-.19-.78-.74.01-.29.02-.59,0-.88-.08-.77.24-1.02,1.02-1.01,2.49.04,4.98.05,7.47,0,.83-.02,1.42.22,1.98.82.5.54,1.13.97,1.7,1.44l-.28.35h0ZM99.99,95.53h3.53c.6-.02.85.22.78.8,0,.06,0,.13,0,.2.01,1.07-.5,1.6-1.55,1.6-2.13,0-4.25-.03-6.38.02-.8.02-1.08-.26-.99-1.02.03-.26.03-.52,0-.78-.07-.66.25-.84.87-.83,1.24.03,2.49,0,3.73.01h0ZM99.76,94.4c-1.15,0-2.29-.03-3.44.01-.65.02-.96-.14-.94-.87.04-2.07-.12-1.73,1.72-1.74l6.28-.02c.75-.01,1.02.25.93.97-.03.22-.03.46,0,.68.12.81-.27,1.01-1.02.98-1.18-.05-2.36-.01-3.53-.01h0ZM72.34,98.13c-1.15,0-2.3-.03-3.44.01-.69.03-.97-.23-.92-.9.03-.32.02-.65,0-.98-.02-.56.25-.74.78-.73h7.28c.55,0,.79.21.76.75-.01.33-.02.66,0,.98.06.7-.27.91-.93.88-1.18-.04-2.36-.01-3.54-.01h0ZM72.44,91.79h3.53c.65-.03.89.24.85.86-.02.29-.03.59,0,.88.06.7-.28.89-.93.88-2.32-.03-4.64-.04-6.96,0-.74.01-.95-.27-.96-.97,0-1.65-.04-1.65,1.63-1.65h2.84s0,0,0,0ZM72.41,75.58c-1.18,0-2.36-.02-3.54,0-.61.01-.88-.18-.9-.83-.06-1.69-.01-1.77,1.71-1.77l6.1-.02c.83-.02,1.08.29,1.06,1.08-.03,1.53,0,1.53-1.48,1.53-.98,0-1.97,0-2.95,0h0ZM94.16,73.12l.92-.07,8.06-.02c1.12-.03,1.18.49,1.19,1.36,0,.86-.18,1.22-1.13,1.19-2.29-.07-4.58-.03-6.88-.01-.55,0-.84-.07-1-.74-.13-.58-.69-1.05-1.16-1.72h0ZM94.72,79.34l.7-2.02c.1-.22.46-.44.71-.44,2.49-.03,4.98-.03,7.47.02.24,0,.58.39.67.67.12.35.1.79,0,1.16-.06.24-.37.59-.57.59-3.01.02-6.02,0-9.03-.03-.02,0-.03-.05.04.06h0ZM94.76,88.06h8.77c.61-.01.83.23.78.81-.03.32.09.69-.03.97-.12.29-.44.69-.68.69-2.49.05-4.98.05-7.47.01-.24,0-.6-.25-.7-.47-.27-.62-.44-1.28-.67-2.01h0ZM72.35,90.65c-1.08,0-2.16-.06-3.24.02-.94.06-1.25-.32-1.14-1.19.03-.23.02-.46,0-.68-.02-.55.24-.75.78-.74h7.27c.61,0,.78.26.8.82.07,1.65.05,1.7-1.63,1.7h-2.85s0,.08,0,.08h0ZM57.51,88.05c1.11,0,2.22.03,3.33-.01.74-.03,1.08.19,1.06.99-.05,1.79.26,1.63-1.61,1.62l-6.28-.06c-1.12.02-.94-.7-.96-1.37-.02-.66-.05-1.24.93-1.18,1.17.07,2.35.02,3.53.02h0s0,0,0,0ZM57.57,84.31h3.53c.63-.03.92.2.87.84-.02.29-.01.59,0,.88.02.52-.19.78-.74.78h-7.45c-.56,0-.7-.29-.72-.8-.08-1.69-.09-1.69,1.58-1.69h2.94s0,0,0,0ZM99.89,99.26c1.18,0,2.36.03,3.53-.01.7-.03.95.24.88.91-.03.29.08.63-.03.87-.14.28-.45.67-.69.68-2.49.05-4.97.03-7.46.03-.55,0-.77-.26-.73-.79.02-.32.02-.65,0-.98-.04-.57.24-.73.77-.73,1.24.02,2.49,0,3.73,0h0ZM57.54,83.06c-1.18,0-2.35-.03-3.53.01-.72.03-.97-.23-.96-.96.01-1.53-.02-1.53,1.55-1.54,2.12,0,4.25.05,6.37-.03,1.11-.04.99.61,1.01,1.32.02.73-.02,1.28-1.01,1.22-1.14-.07-2.29-.02-3.43-.02h0s0,0,0,0ZM57.44,79.35c-1.18,0-2.35-.02-3.53,0-.63.01-.85-.24-.86-.87-.03-1.63-.06-1.63,1.55-1.63l6.47-.02c1-.03.92.57.9,1.21-.02.63.18,1.36-.9,1.32-1.21-.05-2.42-.01-3.63-.01h0s0,0,0,0ZM30.02,90.57c-1.14,0-2.29-.03-3.43,0-1.14.04-.9-.75-.93-1.41-.03-.63-.02-1.15.89-1.13,2.35.05,4.7.04,7.05,0,.82-.01.94.41.86,1.04-.07.6.36,1.49-.82,1.49h-3.63s0,0,0,0Z"/><path class="cls-1" d="M57.4,68.11c-1.18,0-2.36-.02-3.54,0-.61.02-.78-.23-.8-.81-.05-1.7-.07-1.7,1.61-1.7l6.2-.02c1.17-.03.98.73,1.03,1.44.05.78-.2,1.14-1.05,1.09-1.14-.06-2.3-.02-3.44-.02h0s0,0,0,0ZM30.01,83.05c-1.18,0-2.36-.02-3.54,0-1.05.03-.78-.73-.81-1.3-.02-.58-.13-1.2.82-1.19h7.17c.59,0,.79.24.81.82.06,1.67.09,1.67-1.62,1.67h-2.85s0,0,0,0ZM29.98,68.11c-1.15,0-2.29-.02-3.44,0-.63.02-.86-.2-.88-.84-.04-1.64-.05-1.66,1.56-1.67,2.06,0,4.13.05,6.19-.02,1.15-.04,1.04.63,1.07,1.38.03.79-.12,1.22-1.06,1.16-1.14-.08-2.29-.02-3.44-.02ZM72.39,76.85c1.18,0,2.36.04,3.53-.01.89-.04.96.48.9,1.12-.05.59.28,1.4-.83,1.4-2.39-.01-4.78-.02-7.17,0-1.1,0-.81-.77-.85-1.38-.04-.62-.04-1.18.88-1.14,1.18.05,2.36.01,3.53.01h0ZM29.99,79.34c-1.15,0-2.29-.04-3.44.01-1,.04-.9-.61-.89-1.24.02-.59-.19-1.28.85-1.26,2.36.04,4.72.02,7.07,0,.61,0,.87.18.89.83.04,1.66.07,1.66-1.64,1.66h-2.85s0,0,0,0h0ZM57.44,75.57c-1.21,0-2.42-.01-3.63,0-.55,0-.78-.21-.75-.75.02-.33.02-.65,0-.98-.03-.53.2-.78.74-.78h7.26c1.15,0,.76.91.82,1.51.08.66-.14,1.04-.92,1.01-1.18-.05-2.35-.01-3.53-.01h0s0,0,0,0ZM30.05,75.57c-1.15,0-2.3-.05-3.44.02-.86.05-1.01-.39-.94-1.07.06-.62-.29-1.47.88-1.45h7.08c.56,0,.87.2.84.8-.02.33-.02.65,0,.98.03.56-.24.74-.78.73-1.21-.02-2.43,0-3.64,0ZM57.48,71.85c-1.18,0-2.36-.02-3.54,0-.61.02-.94-.17-.88-.83.03-.29.02-.59,0-.88-.03-.53.19-.78.74-.78h7.28c1.1,0,.75.84.8,1.43.06.61-.04,1.1-.87,1.07-1.18-.04-2.36-.01-3.54-.01h0s0,0,0,0ZM30.09,71.85c-1.15,0-2.29-.03-3.44.01-.69.02-1-.17-1-.93,0-1.56-.04-1.56,1.55-1.56,2.06,0,4.13.06,6.19-.02,1.12-.04,1.08.57,1.09,1.35.02.77-.1,1.24-1.05,1.17-1.11-.08-2.22-.02-3.34-.02h0ZM72.37,99.26c1.18,0,2.36.03,3.54-.01.7-.03.9.26.91.92.02,1.58.04,1.58-1.55,1.58-2.03,0-4.06-.05-6.09.03-1.1.04-1.21-.47-1.21-1.36,0-.88.23-1.24,1.17-1.17,1.08.08,2.16.02,3.24.02h0ZM30.08,84.32c1.18,0,2.36.04,3.54-.01.94-.04.88.55.85,1.16-.03.6.25,1.37-.86,1.36h-7.08c-1.1,0-.83-.76-.86-1.37-.03-.62-.05-1.19.87-1.14,1.18.05,2.36.01,3.54.01h0Z"/></svg>