<?xml version="1.0" encoding="utf-8"?>
<!-- Generator: Adobe Illustrator 22.0.0, SVG Export Plug-In . SVG Version: 6.00 Build 0)  -->
<svg version="1.1" id="Bluzelle" xmlns="http://www.w3.org/2000/svg" xmlns:xlink="http://www.w3.org/1999/xlink" x="0px" y="0px"
	 viewBox="0 0 245 245" style="enable-background:new 0 0 245 245;" xml:space="preserve">
<style type="text/css">
	.st0{fill:#18578C;}
	.st1{fill:#FFFFFF;}
</style>
<path id="Main" class="st0" d="M0,122.5C0,190,55,245,122.5,245S245,190,245,122.5S190,0,122.5,0S0,55,0,122.5z"/>
<g id="Rectangle">
	<path id="Rectangle_SW" class="st1" d="M93.5,134.5c5.2,9.7,7.2,11.8,17.5,17c-3.8,3.8-15.3,15.4-15.3,15.4l-17.2-17.2
		C78.6,149.7,89.1,138.9,93.5,134.5z"/>
	<path id="Rectangle_SE" class="st1" d="M152,134.5c-5.2,9.7-7.2,11.8-17.5,17.1c3.8,3.8,15.3,15.4,15.3,15.4l17.2-17.2
		C167,149.8,156.5,138.9,152,134.5z"/>
	<path id="Rectangle_NE" class="st1" d="M152,110.5c-5.2-9.7-7.2-11.8-17.5-17.1c3.8-3.8,15.3-15.4,15.3-15.4L167,95.2
		C167,95.2,156.5,106.1,152,110.5z"/>
	<path id="Rectangle_NW" class="st1" d="M93.5,110.5c5.2-9.7,7.2-11.8,17.5-17.1C107.2,89.6,95.7,78,95.7,78L78.5,95.2
		C78.5,95.2,89,106.1,93.5,110.5z"/>
	<path id="Rectangle_W" class="st1" d="M91.7,127c-0.4-4.5-0.5-4.5,0.3-9c-5,0-20,0-20,0l0,8.9C72,126.9,85.9,127,91.7,127z"/>
	<path id="Rectangle_N" class="st1" d="M118,91.7c4.5-0.4,4.5-0.5,9,0.3c0-5,0-20,0-20l-8.9,0C118.1,72,118,85.9,118,91.7z"/>
	<path id="Rectangle_E" class="st1" d="M153.8,118c0.4,4.5,0.5,4.5-0.3,9c5,0,20,0,20,0l0-8.9C173.5,118.1,159.6,118,153.8,118z"/>
	<path id="Rectangle_S" class="st1" d="M127,153.8c-4.5,0.4-4.5,0.5-9-0.3c0,5,0,20,0,20l8.9,0C126.9,173.5,127,159.6,127,153.8z"/>
</g>
<g id="Rounds">
	<circle id="Middle" class="st1" cx="122.5" cy="122.5" r="22"/>
	<circle id="Round_N" class="st1" cx="122.5" cy="48" r="15"/>
	<circle id="Round_NW" class="st1" cx="70" cy="70" r="15"/>
	<circle id="Round_W" class="st1" cx="48.5" cy="122.5" r="15"/>
	<circle id="Round_SW" class="st1" cx="70" cy="175" r="15"/>
	<circle id="Round_S" class="st1" cx="122.5" cy="197" r="15"/>
	<circle id="Round_NE" class="st1" cx="175.5" cy="70" r="15"/>
	<circle id="Round_E" class="st1" cx="197" cy="122.5" r="15"/>
	<circle id="Round_SE" class="st1" cx="175.5" cy="175" r="15"/>
</g>
</svg>
