<?xml version="1.0" encoding="utf-8"?>
<!-- Generator: Adobe Illustrator 22.0.0, SVG Export Plug-In . SVG Version: 6.00 Build 0)  -->
<svg version="1.1" id="BnB" xmlns="http://www.w3.org/2000/svg" xmlns:xlink="http://www.w3.org/1999/xlink" x="0px" y="0px"
	 viewBox="0 0 245 245" style="enable-background:new 0 0 245 245;" xml:space="preserve">
<style type="text/css">
	.st0{fill:#F3BA2F;}
	.st1{fill:#FFFFFF;}
</style>
<path id="Main_copy_14" class="st0" d="M0,122.5C0,190,55,245,122.5,245S245,190,245,122.5S190,0,122.5,0S0,55,0,122.5z"/>
<path id="BnB-2" class="st1" d="M76.9,93.8l45.3-45.3l45.3,45.3l-16.6,16.8l-28.7-28.7l-28.8,28.7L76.9,93.8z M105.4,122.2
	l16.8-16.7l16.9,16.7l-16.9,16.9L105.4,122.2z M64.9,105.5l16.7,16.7l-16.7,16.9l-16.4-16.9L64.9,105.5z M162.6,122.2l17.1-16.7
	l16.3,16.7l-16.3,16.9L162.6,122.2z M150.9,134l16.6,16.7L122.2,196l-45.3-45.3L93.5,134l28.8,28.8L150.9,134z"/>
</svg>
