<svg xmlns="http://www.w3.org/2000/svg" width="244.795" height="244.795" viewBox="0 0 244.795 244.795">
  <g id="BNB_v6" data-name="BNB v6" transform="translate(-2632.102 -2600.765)">
    <path id="Main_copy_14" d="M0,122.4c0,67.444,54.954,122.4,122.4,122.4s122.4-54.954,122.4-122.4S189.841,0,122.4,0,0,54.954,0,122.4Z" transform="translate(2632.102 2600.765)" fill="#f3ba2f"/>
    <circle id="path2008" cx="107.538" cy="107.538" r="107.538" transform="translate(2646.5 2615.163)" fill="#e8a607" stroke="#e8a607" stroke-linecap="round" stroke-linejoin="round" stroke-width="6"/>
    <path id="BnB-2" d="M77.308,94.451,123.259,48.5l45.951,45.951-16.839,17.042L123.259,82.38,94.045,111.493Zm28.91,28.808,17.042-16.94,17.143,16.94L123.259,140.4Zm-41.082-16.94,16.94,16.94L65.136,140.4,48.5,123.259Zm99.1,16.94,17.346-16.94,16.534,16.94L181.586,140.4Zm-11.868,11.97,16.839,16.94L123.259,198.12,77.308,152.169l16.839-16.94,29.214,29.214Z" transform="translate(2630.936 2599.599)" fill="#fff"/>
  </g>
</svg>
