<svg xmlns="http://www.w3.org/2000/svg" width="246.001" height="246.001" viewBox="0 0 246.001 246.001">
  <g id="BNB_ERC20" transform="translate(-2266.038 -2145.701)">
    <g id="Group_13" data-name="Group 13" transform="translate(623 192.663)">
      <g id="Group_12" data-name="Group 12" transform="translate(298 -70)">
        <path id="Main_copy_14" d="M0,120.663c0,66.488,54.175,120.663,120.663,120.663s120.663-54.175,120.663-120.663S187.151,0,120.663,0,0,54.175,0,120.663Z" transform="translate(1347.837 2025.837)" fill="#e8a607"/>
        <path id="BnB-2" d="M76.9,93.8l45.3-45.3,45.3,45.3-16.6,16.8L122.2,81.9,93.4,110.6Zm28.5,28.4,16.8-16.7,16.9,16.7-16.9,16.9ZM64.9,105.5l16.7,16.7L64.9,139.1,48.5,122.2Zm97.7,16.7,17.1-16.7L196,122.2l-16.3,16.9ZM150.9,134l16.6,16.7L122.2,196,76.9,150.7,93.5,134l28.8,28.8Z" transform="translate(1346 2024)" fill="#fff"/>
      </g>
      <circle id="path2008" cx="116.538" cy="116.538" r="116.538" transform="translate(1649.5 1959.5)" fill="none" stroke="#b0b0b0" stroke-linecap="round" stroke-linejoin="round" stroke-width="12.925"/>
    </g>
  </g>
</svg>
