<?xml version="1.0" encoding="UTF-8" standalone="no"?>
<svg
   xmlns:dc="http://purl.org/dc/elements/1.1/"
   xmlns:cc="http://creativecommons.org/ns#"
   xmlns:rdf="http://www.w3.org/1999/02/22-rdf-syntax-ns#"
   xmlns:svg="http://www.w3.org/2000/svg"
   xmlns="http://www.w3.org/2000/svg"
   xmlns:sodipodi="http://sodipodi.sourceforge.net/DTD/sodipodi-0.dtd"
   xmlns:inkscape="http://www.inkscape.org/namespaces/inkscape"
   width="241.326"
   height="241.326"
   viewBox="0 0 241.326 241.326"
   version="1.1"
   id="svg8"
   sodipodi:docname="BNB_ERC20.svg"
   inkscape:version="1.0.2-2 (e86c870879, 2021-01-15)">
  <metadata
     id="metadata14">
    <rdf:RDF>
      <cc:Work
         rdf:about="">
        <dc:format>image/svg+xml</dc:format>
        <dc:type
           rdf:resource="http://purl.org/dc/dcmitype/StillImage" />
      </cc:Work>
    </rdf:RDF>
  </metadata>
  <defs
     id="defs12" />
  <sodipodi:namedview
     pagecolor="#ffffff"
     bordercolor="#666666"
     borderopacity="1"
     objecttolerance="10"
     gridtolerance="10"
     guidetolerance="10"
     inkscape:pageopacity="0"
     inkscape:pageshadow="2"
     inkscape:window-width="1920"
     inkscape:window-height="1017"
     id="namedview10"
     showgrid="false"
     inkscape:zoom="3.4552704"
     inkscape:cx="120.2015"
     inkscape:cy="120.2015"
     inkscape:window-x="-8"
     inkscape:window-y="-8"
     inkscape:window-maximized="1"
     inkscape:current-layer="Group_13" />
  <g
     id="BNB_ERC20"
     transform="translate(-2268.837,-2148.5)">
    <g
       id="Group_13"
       data-name="Group 13"
       transform="translate(623,192.663)">
      <g
         id="Group_12"
         data-name="Group 12"
         transform="translate(298,-70)">
        <path
           id="Main_copy_14"
           d="m 0,120.663 c 0,66.488 54.175,120.663 120.663,120.663 66.488,0 120.663,-54.175 120.663,-120.663 C 241.326,54.175 187.151,0 120.663,0 54.175,0 0,54.175 0,120.663 Z"
           transform="translate(1347.837,2025.837)"
           fill="#e8a607" />
        <path
           id="BnB-2"
           d="m 76.9,93.8 45.3,-45.3 45.3,45.3 -16.6,16.8 -28.7,-28.7 -28.8,28.7 z m 28.5,28.4 16.8,-16.7 16.9,16.7 -16.9,16.9 z M 64.9,105.5 81.6,122.2 64.9,139.1 48.5,122.2 Z m 97.7,16.7 17.1,-16.7 16.3,16.7 -16.3,16.9 z M 150.9,134 167.5,150.7 122.2,196 76.9,150.7 93.5,134 l 28.8,28.8 z"
           transform="translate(1346,2024)"
           fill="#ffffff" />
      </g>
    </g>
  </g>
</svg>
