<?xml version="1.0" encoding="utf-8"?>
<!-- Generator: Adobe Illustrator 22.0.0, SVG Export Plug-In . SVG Version: 6.00 Build 0)  -->
<svg version="1.1" id="Bancor" xmlns="http://www.w3.org/2000/svg" xmlns:xlink="http://www.w3.org/1999/xlink" x="0px" y="0px"
	 viewBox="0 0 245 245" style="enable-background:new 0 0 245 245;" xml:space="preserve">
<style type="text/css">
	.st0{fill:#000D2B;}
	.st1{fill:#FFFFFF;}
</style>
<path id="Main" class="st0" d="M0,122.5C0,190,55,245,122.5,245S245,190,245,122.5S190,0,122.5,0S0,55,0,122.5z"/>
<path id="Main-2" class="st1" d="M87.5,65l35-20L157,65l-35.5,20.5L87.5,65z M78,78v40.5l35.5,20.5V98.5L78,78z M78,133v40.5
	l35.5,21v-41L78,133z M174.5,126.5V167l-47,27v-41L174.5,126.5z M162.5,78.5v40l-35,20.5V98L162.5,78.5z"/>
</svg>
