<svg xmlns="http://www.w3.org/2000/svg" viewBox="0 0 245 245" xmlns:v="https://vecta.io/nano"><path d="M0,122.5C0,190,55,245,122.5,245S245,190,245,122.5S190,0,122.5,0S0,55,0,122.5z" fill="#000d2b"/><path d="M87.5 65l35-20L157 65l-35.5 20.5-34-20.5zM78 78v40.5l35.5 20.5V98.5L78 78zm0 55v40.5l35.5 21v-41L78 133zm96.5-6.5V167l-47 27v-41l47-26.5zm-12-48v40l-35 20.5V98l35-19.5z" fill="#fff"/><path d="M122.6 11C61.064 11 11 61.064 11 122.6s50.064 111.6 111.6 111.6 111.6-50.064 111.6-111.6S184.136 11 122.6 11m0-11c67.551 0 122.6 55.044 122.6 122.6s-55.044 122.6-122.6 122.6S0 190.154 0 122.6 55.049 0 122.6 0z" fill="#474747"/></svg>