<?xml version="1.0" encoding="UTF-8" standalone="no"?>
<svg
   viewBox="0 0 245 245"
   version="1.1"
   id="svg8"
   sodipodi:docname="BNT_BEP20.svg"
   inkscape:version="1.1 (c68e22c387, 2021-05-23)"
   xmlns:inkscape="http://www.inkscape.org/namespaces/inkscape"
   xmlns:sodipodi="http://sodipodi.sourceforge.net/DTD/sodipodi-0.dtd"
   xmlns="http://www.w3.org/2000/svg"
   xmlns:svg="http://www.w3.org/2000/svg">
  <defs
     id="defs12" />
  <sodipodi:namedview
     id="namedview10"
     pagecolor="#ffffff"
     bordercolor="#666666"
     borderopacity="1.0"
     inkscape:pageshadow="2"
     inkscape:pageopacity="0.0"
     inkscape:pagecheckerboard="0"
     showgrid="false"
     inkscape:zoom="3.5632653"
     inkscape:cx="122.5"
     inkscape:cy="122.5"
     inkscape:window-width="2560"
     inkscape:window-height="1361"
     inkscape:window-x="-9"
     inkscape:window-y="-9"
     inkscape:window-maximized="1"
     inkscape:current-layer="svg8" />
  <path
     d="M0,122.5C0,190,55,245,122.5,245S245,190,245,122.5S190,0,122.5,0S0,55,0,122.5z"
     fill="#000d2b"
     id="path2" />
  <path
     d="M87.5 65l35-20L157 65l-35.5 20.5-34-20.5zM78 78v40.5l35.5 20.5V98.5L78 78zm0 55v40.5l35.5 21v-41L78 133zm96.5-6.5V167l-47 27v-41l47-26.5zm-12-48v40l-35 20.5V98l35-19.5z"
     fill="#fff"
     id="path4" />
  <path
     d="M122.6 11C61.064 11 11 61.064 11 122.6s50.064 111.6 111.6 111.6 111.6-50.064 111.6-111.6S184.136 11 122.6 11m0-11c67.551 0 122.6 55.044 122.6 122.6s-55.044 122.6-122.6 122.6S0 190.154 0 122.6 55.049 0 122.6 0z"
     fill="#474747"
     id="path6"
     style="fill:#e8a607;fill-opacity:1" />
</svg>
