<svg xmlns="http://www.w3.org/2000/svg" viewBox="0 0 512 512"><circle cx="256" cy="256" r="256" fill="#50832b"/><path fill="#fff" d="M259.867 221.85s-92.162-57.203-158.9 19.068c0 0 57.84 75.636 158.9-19.068"/><path d="M163.298 272.266q-3.636 0-7.234-.298c-36.724-3.037-56.448-28.313-57.27-29.388l-1.36-1.778 1.474-1.686c15.568-17.792 33.825-29.896 54.262-35.977 16.337-4.86 34.063-5.89 52.685-3.062 31.575 4.796 54.495 18.852 55.455 19.448l3.032 1.882-2.604 2.44c-34.316 32.158-67.395 48.419-98.44 48.419m-58.701-31.309c5.05 5.598 23.095 23.21 52.02 25.565 30.684 2.502 63.86-12.348 98.647-44.14-7.29-3.949-26.494-13.32-50.411-16.921-17.792-2.679-34.69-1.684-50.225 2.954-18.71 5.588-35.532 16.532-50.031 32.542"/><path fill="#fff" stroke="#000" stroke-miterlimit="10" stroke-width="10" d="M428.3 183.079s-41.95-45.763-162.713 37.5l66.102 16.526h38.136l26.695-8.899 18.432-13.347z"/><path d="M242.706 230.17c0 15.765-19.21 28.545-42.908 28.545-23.697 0-42.908-12.78-42.908-28.544s19.21-28.544 42.908-28.544c23.697 0 42.908 12.78 42.908 28.544"/><path d="M162.785 276.065c-10.982 0-21.671-1.975-31.74-5.959-16.53-6.539-32.669-18.773-47.967-36.362-.77-.884-1.932-2.221-2.521-4.04-1.733-5.348 1.611-12.401 10.524-22.197 7.417-8.154 15.94-15.114 16.888-15.881 12.286-9.944 26.596-16.1 41.382-17.801 23.548-2.71 49.856 4.164 78.192 20.429 1.305.749 10.438 6.93 18.098 12.247 17.676 12.272 17.744 12.752 18.03 14.77l.262 1.855-1.342 1.418c-16.316 16.505-31.993 28.747-47.926 37.427-17.171 9.356-34.875 14.094-51.88 14.094m-3.264-95.153q-4.728 0-9.294.525c-13.338 1.535-26.284 7.118-37.437 16.145-.901.73-9.006 7.348-16.041 15.081-7.95 8.739-9.337 13.34-8.903 14.68.108.331.675.983 1.014 1.373 14.484 16.653 29.626 28.182 45.003 34.266 23.511 9.299 50.906 6.552 77.137-7.739 14.332-7.809 28.511-18.689 43.253-33.202-7.64-5.724-28.362-19.879-30.527-21.143-23.144-13.285-44.693-19.986-64.205-19.986"/><ellipse cx="320.877" cy="212.917" stroke="#000" stroke-miterlimit="10" stroke-width="14" rx="34.347" ry="18.297" transform="rotate(-8.812 320.877 212.917)"/><path d="M348.856 241.382c-8.136 0-16.727-.574-25.835-1.719-22.609-2.842-44.98-8.778-64.176-14.12l-.006-.002 2.055-7.382c-1.411-.393-2.401.202-2.411.208 2.572-1.583 15.535-16.139 21.765-23.133 4.608-5.174 6.862-7.698 7.763-8.523 26.402-24.192 49.763-38.692 73.521-45.632 11.818-3.453 23.172-4.624 33.743-3.48 3.991.431 11.731 1.53 18.727 4.038 8.841 3.172 14.018 7.704 15.386 13.471 4.218 17.783 3.074 34.639-3.306 48.744-6.936 15.332-19.715 26.322-36.955 31.782-12.12 3.838-25.435 5.748-40.27 5.748m-80.954-21.293c40.437 11 82.448 19.788 118.911 8.24 15.109-4.784 26.273-14.34 32.287-27.635 5.676-12.547 6.655-27.699 2.832-43.818-.975-4.113-8.758-9.635-27.48-11.66-9.57-1.036-19.922.048-30.771 3.217-22.59 6.6-44.99 20.558-70.493 43.927-.654.6-3.99 4.346-7.218 7.97-4.377 4.914-9.824 11.03-14.4 15.914a244 244 0 0 1-3.668 3.845"/><path fill="#85492d" d="M353.116 272.84q-.71.288-1.445.53c-4.544 1.49-9.43 1.434-14.21 1.364l-57.256-.845c-8.39-.124-16.876-.239-25.06 1.616-15.317 3.47-28.174 13.444-41.472 21.8-19.969 12.547-36.215 12.9-58.882 11.243-4.223-.31-8.517-.633-12.472-2.149-3.57-1.368-6.713-3.652-10.17-5.288-8.668-4.102-19.298-3.777-27.7.849s-14.36 13.433-15.53 22.952c-2.059 16.756 10.52 32.61 25.89 39.596 17.36 7.892 36.68 6.664 55.23 5.968 4.02-.151 8.1-.312 11.922-1.562 2.725-.89 5.24-2.31 7.736-3.721 16.837-9.516 34.167-18.289 50.87-27.978 14.968-8.684 29.18-19.813 46.482-23.407 11.707-2.431 23.823-1.131 35.773-1.516 10.393-.335 21.145-1.903 30.937 1.593 3.668 1.31 7.223 3.332 11.117 3.354 2.706.016 5.314-.947 7.818-1.971a133.8 133.8 0 0 0 27.005-14.899c7.58-5.409 14.793-11.874 18.691-20.331 3.899-8.458 3.811-19.27-2.238-26.35-5.594-6.546-15.208-8.633-23.634-6.862s-15.807 6.845-22.165 12.652c-5.4 4.93-10.523 10.642-17.237 13.362"/><path d="M151.495 374.826c-12.986 0-25.985-1.245-38.272-6.83-8.425-3.83-15.898-10.022-21.043-17.438-5.709-8.23-8.152-17.26-7.064-26.113 1.318-10.727 8.018-20.629 17.486-25.841s21.418-5.578 31.186-.955c1.575.745 3.049 1.59 4.474 2.405 1.862 1.067 3.62 2.075 5.428 2.768 3.462 1.326 7.487 1.62 11.38 1.904 20.765 1.519 36.976 1.642 56.565-10.665 2.499-1.57 5.041-3.238 7.5-4.85 10.858-7.118 22.085-14.48 35.163-17.443 8.671-1.965 17.462-1.836 25.964-1.71l57.255.845c4.414.065 8.977.132 12.96-1.174.4-.131.803-.28 1.2-.44 4.78-1.936 8.777-5.732 13.01-9.751 1.003-.953 2.04-1.938 3.083-2.89 8.17-7.46 16.007-11.9 23.96-13.57 10.503-2.208 21.232.98 27.334 8.12 6.543 7.657 7.67 19.891 2.806 30.444-4.689 10.17-13.629 17.339-19.946 21.846a137.6 137.6 0 0 1-27.779 15.326c-2.672 1.093-5.804 2.257-9.205 2.257h-.086c-3.62-.022-6.842-1.347-9.685-2.516-.937-.385-1.823-.75-2.698-1.062-7.155-2.554-15.01-2.122-23.327-1.665-2.03.112-4.128.227-6.199.293-3.801.123-7.64.08-11.351.035-8.283-.094-16.108-.187-23.765 1.404-12.555 2.607-23.826 9.664-34.726 16.488-3.457 2.164-7.032 4.402-10.614 6.48-9.31 5.402-18.949 10.592-28.269 15.61-7.457 4.016-15.168 8.168-22.637 12.39-2.623 1.482-5.334 3.015-8.432 4.028-4.361 1.426-8.934 1.597-12.968 1.748l-2.92.113c-5.22.203-10.494.409-15.768.409m-32.336-72.757c-4.469 0-8.94 1.088-12.862 3.247-7.35 4.047-12.552 11.735-13.575 20.063-1.901 15.471 10.47 29.64 23.672 35.641 15.623 7.101 33.39 6.408 50.57 5.74l2.932-.113c3.704-.139 7.533-.282 10.874-1.374 2.373-.776 4.64-2.058 7.042-3.415 7.538-4.26 15.284-8.432 22.775-12.466 9.268-4.99 18.851-10.15 28.057-15.491 3.47-2.014 6.99-4.217 10.393-6.348 11.472-7.183 23.335-14.61 37.233-17.496 8.473-1.76 17.085-1.658 25.413-1.563 3.629.042 7.382.086 11.016-.03 1.983-.065 4.038-.178 6.025-.287 8.708-.479 17.713-.974 26.323 2.1a69 69 0 0 1 3.036 1.192c2.41.99 4.687 1.927 6.816 1.94h.041c2.012 0 4.216-.834 6.303-1.687 9.26-3.79 18.086-8.66 26.23-14.472 5.606-4 13.513-10.302 17.438-18.816 4.199-9.11 2.186-17.742-1.672-22.257-4.309-5.043-12.133-7.241-19.933-5.601-6.576 1.382-13.239 5.219-20.37 11.73-.987.902-1.996 1.861-2.973 2.788-4.564 4.334-9.284 8.815-15.408 11.296-.557.226-1.125.434-1.69.62-5.201 1.705-10.652 1.627-15.46 1.554l-57.256-.845c-8.052-.119-16.378-.241-24.158 1.522-11.727 2.658-22.366 9.633-32.654 16.378-2.49 1.633-5.064 3.32-7.625 4.93-21.52 13.523-39.687 13.396-61.2 11.82-4.24-.31-9.046-.661-13.564-2.392-2.36-.905-4.462-2.109-6.495-3.274-1.357-.777-2.639-1.512-3.942-2.128-3.538-1.674-7.444-2.506-11.352-2.506"/><path d="M112.848 317.052c.863 10.05 7.62 18.48 16.67 22.656 9.835 4.539 21.012 4.69 31.568 3.24 19.76-2.715 37.76-12.053 55.316-20.99 17.714-9.016 36.117-18.491 56.235-20.317 12.513-1.135 25.149-.091 37.695-.664a286 286 0 0 0 37.66-4.255c22.233-4.01 53.574-11.714 55.464-39.331.29-4.22-6.28-4.201-6.567 0-.662 9.661-7.56 17.593-15.589 22.363-9.48 5.631-20.714 7.876-31.412 9.953a272 272 0 0 1-35.328 4.477c-11.903.723-23.788.106-35.69.514-19.433.666-37.227 7.48-54.507 15.928-16.646 8.138-32.865 17.648-50.744 22.899-10.147 2.98-21.246 4.801-31.793 3.097-10.249-1.657-21.43-8.159-22.41-19.57-.359-4.18-6.93-4.218-6.568 0"/><path fill="#fff" d="M227.675 226.87a5 5 0 0 0-.794.028 5.5 5.5 0 0 0-2.87.614c-2.17 1.138-3.338 3.607-2.709 5.994.57 2.16 2.585 3.613 4.696 3.651a5.16 5.16 0 0 0 4.828-1.583c1.284-1.413 1.555-3.333.966-5.02-.328-1.973-1.96-3.576-4.117-3.684M223.63 223.377c4.225.202 4.215-6.367 0-6.568l-11.436-.546c-1.859-.089-3.17 1.58-3.284 3.284l-.968 14.405c-.284 4.22 6.286 4.202 6.568 0l.737-10.975zM337.096 210.604l.375-2.543c.35-2.387-1.199-4.321-3.586-4.104-1.856-1.072-4.565-.498-6.297.522-4.588 2.703-4.859 8.897-1.015 12.354.852.767 1.896 1.393 3 1.715.136.04.503.155.852.236-.687 1.977-.118 4.7 1.067 6.34.925 1.28 2.338 2.033 3.815 2.058 1.338.325 2.925-.045 3.85-1.317 2.95-4.063 3.062-9.184.928-13.619-.49-1.02-1.787-1.66-2.989-1.642M338.504 185.497l-1.68 6.783c-1.016 4.103 5.316 5.853 6.333 1.746l1.68-6.783c1.017-4.103-5.316-5.853-6.333-1.746"/></svg>