<?xml version="1.0" encoding="UTF-8"?>
<svg id="Layer_1" data-name="Layer 1" xmlns="http://www.w3.org/2000/svg" version="1.1" viewBox="0 0 250 250">
  <defs>
    <style>
      .cls-1 {
        fill: #3c2d0c;
      }

      .cls-1, .cls-2, .cls-3, .cls-4, .cls-5, .cls-6, .cls-7 {
        stroke-width: 0px;
      }

      .cls-2 {
        fill: #efb99d;
      }

      .cls-3 {
        fill: #e72d36;
      }

      .cls-4 {
        fill: #000;
      }

      .cls-5 {
        fill: #fbfbfb;
      }

      .cls-6 {
        fill: #fdde00;
      }

      .cls-7 {
        fill: #e78c19;
      }
    </style>
  </defs>
  <circle class="cls-6" cx="125" cy="125" r="122.5"/>
  <g>
    <path class="cls-1" d="M63.8,88.1s-6.5,8.2-4.3,45.3c0,0-14.2,36.4-9.4,54.9,4.8,18.5,23.6,17.6,23.6,17.6,0,0,30.1,26.5,53.2,3.1,23.1-23.4-19.3-114-19.3-114l-5.3-31.3s-5.8,4.6-5.1,34.7c.7,30.1-11.8,8.9-11.8,8.9l-21.7-19.3Z"/>
    <path class="cls-7" d="M66.2,120.9l-8,22.4-2.9,15.7s-9.9,34.9,30.9,34.5c0,0,31.8,28.5,52.5,9.4l5.6-6,9.6-14.9,15.9-47.5s-5.1-32.5-37.1-46c0,0-2.7-1.4-7.5.5,0,0-13.3-29.9-21.7-26.2,0,0-7.2,3.8-1,33.3l-11.3,5.1s-12.4-23.5-23.8-18.8c-10.7,4.3-1.3,38.7-1.3,38.7Z"/>
    <path class="cls-2" d="M107.3,77.3l1,13s.7,7.5,8.6,4.8c2.3-.7,4.2-2.3,4-4.9-.1-1.9-1.5-3.7-2.4-5.3-1.6-3.1-2.9-6.4-4.9-9.4-1-1.5-3-4.9-5.2-4.5,0,0-1.7-.5-1.2,6.2Z"/>
    <path class="cls-2" d="M72.5,91.9c.1,0,3.4-4.2,10.1,5.8,6.7,9.9,6,8.6,6,8.6,0,0,3.6,4-3.8,9.1-1.6,1.2-3.4,2.2-5.3,2.9-1.2.4-2.4.7-3.6.7-1.4,0-2.1-.8-2.4-2.1-1.1-4.3-2.4-8.6-3-13.1-.5-3.4-1.5-9.7,2-11.9Z"/>
    <path class="cls-5" d="M150.8,111.9c0,2.4-3.4,4.3-7.7,4.3s-7.7-1.9-7.7-4.3,3.5-5.8,7.8-5.8,7.7,3.5,7.7,5.8Z"/>
    <ellipse class="cls-5" cx="101.6" cy="127.7" rx="8.4" ry="5.4" transform="translate(-59.6 153.2) rotate(-60.5)"/>
    <path class="cls-5" d="M117.2,149.9l21.1-11s26.2-13.7,32.6-3.1c6.4,10.6,0,26.7,0,26.7,0,0-2.8,18.9-22.1,20.6l-10.4,1.4-13.3.3s-21.3,1.2-37-10.4l-5-6s-10-13.7-3-23.6c7-9.9,30.9,5.4,30.9,5.4,0,0,3.3,1.8,6.1-.4Z"/>
    <circle class="cls-3" cx="165" cy="90.2" r="5.1"/>
    <circle class="cls-3" cx="153.8" cy="77.8" r="5.1"/>
    <circle class="cls-3" cx="135.9" cy="73.8" r="5.1"/>
    <path class="cls-3" d="M139.9,37.9c1.1,14.9-1.1,28.5-4.7,28.5s-8.5-14.6-8.5-28.5,3-6.6,6.6-6.6c3.7,0,6.1.9,6.5,6.6Z"/>
    <path class="cls-3" d="M173.4,47.2c-5.5,13.9-13.3,25.2-16.6,23.6s-1.3-16.8,4.8-29.3c2.5-5.2,5.6-4.7,8.8-3.1,3.2,1.6,5.1,3.5,2.9,8.8Z"/>
    <path class="cls-3" d="M197.4,74.3c-12.1,8.8-24.7,14.1-26.6,11-1.9-3.1,8-14.8,19.7-22.2,4.9-3,7.2-.9,9.1,2.1,1.9,3.1,2.4,5.7-2.2,9Z"/>
    <path class="cls-4" d="M116.2,135.2c-.4,0-.9,0-1.3.1,0,.1,0,.3,0,.5,0,1.5-2.4,2.8-5.4,2.9,0,.1,0,.2,0,.4.1,1.9,3.4,3.1,7.2,2.9,3.8-.3,6.8-2.1,6.7-3.9-.2-1.9-3.4-3.1-7.2-2.9Z"/>
    <path class="cls-4" d="M142.9,128.6c-.4,0-.9,0-1.3.1,0,.1,0,.3,0,.5,0,1.5-2.4,2.8-5.4,2.9,0,.1,0,.2,0,.4.1,1.9,3.4,3.1,7.2,2.9,3.8-.3,6.8-2.1,6.7-3.9-.1-1.9-3.4-3.1-7.2-2.9Z"/>
    <path class="cls-4" d="M151.6,136.4s-10.6,3.1-9.9,9c.6,5.9,13.4,9,13.4,9,0,0,3.4,1.4,5.4-1.9,2-3.2,4.9-7.7,4.1-14,0,0-.2-4.7-12.9-2.2Z"/>
  </g>
</svg>