<svg xmlns="http://www.w3.org/2000/svg" width="256" height="256" xmlns:v="https://vecta.io/nano"><g transform="matrix(.996838 0 0 1 -.009968 -.051111)"><ellipse cx="128.416" cy="128.051" rx="123.203" ry="122.812" fill="#4866ff" stroke="#fff" stroke-width=".375"/><path fill="#fff" d="M147.494 52.41c-7.775-1.851-15.99-2.233-20.443-2.338-2.05-.048-3.275 0-3.275 0h-45.83c-15.258 0-27.777 12.427-27.777 27.677v47.803c0 .439 0 .826.048 1.269 0 .434-.044.826-.044 1.264 0 43.076 35.016 77.965 78.243 77.965s78.247-34.89 78.247-77.965c.052-36.545-25.183-67.194-59.165-75.676zm-19.318 123.04a48.9 48.9 0 0 1-43.672-26.752c-.536-.782-.977-1.655-1.221-2.581-.196-.73-.344-1.512-.344-2.29 0-4.727 3.864-8.529 8.608-8.529 3.227 0 6.061 1.755 7.531 4.388.196.339.344.73.488 1.069 5.189 10.528 16.043 17.736 28.61 17.736 17.604 0 31.837-14.178 31.837-31.622 0-17.493-14.233-31.627-31.833-31.627-12.572 0-23.43 7.26-28.615 17.74-.144.391-.292.73-.488 1.069-1.465 2.633-4.304 4.388-7.531 4.388-4.744 0-8.608-3.802-8.608-8.529v-.243-26.313c0-4.679 3.816-8.481 8.512-8.481s8.508 3.802 8.508 8.481v3.85a48.9 48.9 0 0 1 28.218-8.916c26.992 0 48.905 21.729 48.905 48.576s-21.908 48.585-48.905 48.585zm-12.908-48.581c0-7.165 5.817-13.013 13.056-13.013 7.186 0 13.056 5.8 13.056 13.013 0 7.16-5.817 13.009-13.056 13.009-7.191-.048-13.06-5.848-13.06-13.009z"/></g></svg>