<svg id="BRD" xmlns="http://www.w3.org/2000/svg" width="256" height="256" viewBox="0 0 512 512">
  <defs>
    <style>
      .cls-1 {
        fill: #302442;
      }

      .cls-1, .cls-2 {
        fill-rule: evenodd;
      }

      .cls-2 {
        fill: #fff;
      }
    </style>
  </defs>
  <path id="Full" class="cls-1" d="M11,256c0,135.094,109.906,245,245,245S501,391.094,501,256,391.094,11,256,11,11,120.906,11,256Z"/>
  <path id="BRD-2" data-name="BRD" class="cls-2" d="M388,189.75c0-34.71-24-66.75-88-66.75H129.333A13.212,13.212,0,0,0,116,136.35v240.3A13.212,13.212,0,0,0,129.333,390H302.667C369.333,390,396,354.756,396,317.91s-35.2-64.08-72-64.08C360.8,253.83,388,224.46,388,189.75ZM228,283.2h80a24.03,24.03,0,0,1,0,48.06H180V181.74H300c13.333,0,24,8.01,24,21.36s-10.667,21.36-24,21.36H228a13.212,13.212,0,0,0-13.333,13.35v32.04A13.212,13.212,0,0,0,228,283.2Z"/>
</svg>
