<?xml version="1.0" encoding="utf-8"?>
<!-- Generator: Adobe Illustrator 22.0.0, SVG Export Plug-In . SVG Version: 6.00 Build 0)  -->
<svg version="1.1" id="BRD" xmlns="http://www.w3.org/2000/svg" xmlns:xlink="http://www.w3.org/1999/xlink" x="0px" y="0px"
	 viewBox="0 0 245 245" style="enable-background:new 0 0 245 245;" xml:space="preserve">
<style type="text/css">
	.st0{fill:#302442;}
	.st1{fill:#FFFFFF;}
</style>
<path id="Full" class="st0" d="M0,122.5C0,190,55,245,122.5,245S245,190,245,122.5S190,0,122.5,0S0,55,0,122.5z"/>
<path id="BRD-2" class="st1" d="M188.5,89.4c0-17.4-12-33.4-44-33.4H59.2c-3.6,0-6.6,2.9-6.7,6.5c0,0,0,0.1,0,0.1v120.2
	c0,3.6,2.9,6.6,6.5,6.7c0,0,0.1,0,0.1,0h86.7c33.3,0,46.7-17.6,46.7-36s-17.6-32-36-32C174.9,121.4,188.5,106.7,188.5,89.4z
	 M108.5,136.1h40c6.6,0,12,5.4,12,12c0,6.6-5.4,12-12,12h-64V85.4h60c6.7,0,12,4,12,10.7s-5.3,10.7-12,10.7h-36
	c-3.6,0-6.6,2.9-6.7,6.5c0,0,0,0.1,0,0.1v16c0,3.6,2.9,6.6,6.5,6.7C108.4,136.1,108.5,136.1,108.5,136.1z"/>
</svg>
