<?xml version="1.0" encoding="UTF-8"?>
<svg id="Layer_1" data-name="Layer 1" xmlns="http://www.w3.org/2000/svg" version="1.1" viewBox="0 0 250 250">
  <defs>
    <style>
      .cls-1 {
        fill: #5ddefe;
      }

      .cls-1, .cls-2, .cls-3, .cls-4, .cls-5, .cls-6, .cls-7, .cls-8, .cls-9 {
        stroke-width: 0px;
      }

      .cls-2 {
        fill: #037898;
      }

      .cls-3 {
        fill: #000;
      }

      .cls-4 {
        fill: #00acdc;
      }

      .cls-5 {
        fill: #0254fe;
      }

      .cls-6 {
        fill: #5e0939;
      }

      .cls-7 {
        fill: #de3490;
      }

      .cls-8 {
        fill: #810b51;
      }

      .cls-9 {
        fill: #fff;
      }
    </style>
  </defs>
  <path class="cls-5" d="M247.5,125c0,7.5-.7,15-2,22.1-10.4,57.1-60.4,100.4-120.5,100.4S2.5,192.7,2.5,125,57.3,2.5,125,2.5s110.1,43.3,120.5,100.4c1.3,7.2,2,14.6,2,22.1Z"/>
  <path class="cls-9" d="M247.5,125c0,7.5-.7,15-2,22.1h-26.6c1.7-7.1,2.5-14.5,2.5-22.1s-.9-15-2.5-22.1h26.6c1.3,7.2,2,14.6,2,22.1Z"/>
  <path class="cls-1" d="M221.5,125c0,5.9-.5,11.8-1.6,17.4-8.2,45-47.6,79.1-94.9,79.1S28.5,178.3,28.5,125,71.7,28.5,125,28.5s86.7,34.1,94.9,79.1c1,5.6,1.6,11.5,1.6,17.4Z"/>
  <g>
    <path class="cls-3" d="M176.8,154.2c1.3,1.7,1.8,3.6,1.7,5.8-.5,6.6-4.6,10.8-10.5,13.3-.1,0-.3.2-.5.5-.1.1-.2.3-.4.6-3.2,6.7-7.9,11.8-14,15.1-5.2,2.9-10.8,4.6-16.6,5.2-8.6.9-16.2,1.6-24.3.8-17.2-1.7-30.7-11.4-39.4-26-6.5-10.7-9.1-22.1-7.9-34.1.8-8.2,3-15.6,5.1-24.8.7-3.1,1.1-6.2,1.3-9.2,0-.5-.3-1.1-.5-1.4-7.8-9.9-11.2-23.5-4.1-34.5,4.8-7.5,13.2-12,22.1-11.3,10.1.8,16.2,8.2,18.9,17.5,1.7,5.9,1.9,11.8.6,17.7,0,.2,0,.3.2.2,5-1.3,11.2-2.3,18.4-3.2,5.8-.7,9.9-1.2,12.3-1.4.2,0,.3-.1.4-.3,1.4-5.3,3.9-10.1,7.5-14.3,5.3-6.2,13.7-10.8,22-7.8,4.3,1.5,7.1,4.4,8.5,8.7,1.4,4.3,1,9.3-1.2,13.2-2.5,4.5-4,7.2-4.5,11.3,0,.3,0,.5.2.7l2.5,4.3c0,0,0,.1.1.1,1.3.8,2.2,1.5,2.7,1.9,2.3,2,3.6,4.5,3.9,7.6,0,.2,0,.4,0,.6-.2.4-.1.7.2.9,1.5,1.3,2.6,2.3,3.2,3.2,3.4,4.6,3.5,9.1.3,13.5-.5.7-1.6,1.5-2.2,2.4-.1.2-.2.4-.2.6-.3,2-1,2.9-2.4,4.8-.1.2-.2.3-.1.5.4,1.7.3,3.1,0,4.3-.1.4,0,.6.4.7,2.9.6,4.7,1.9,5.5,3.7,2.3,5.3-5.3,7.6-8.9,8.2-.2,0-.3.2-.1.4ZM102.5,192.2c5.1,1.6,10.4,2.4,15.7,2.4,5.5,0,11-.2,16.5-.7,7.2-.6,13.5-2.8,18.8-6.5,1.2-.4,2.4-1.1,3.6-2,3.7-2.9,6.7-6.4,8.9-10.7,0-.2,0-.4-.1-.4,0,0-.2,0-.2,0l-2.7.8c-14.4,2.7-28.6,3.4-42.6,2.1-7.3-.7-14.1-2.3-20.5-4.9-8.2-3.3-14.9-8.9-18.5-16.9-4.6-10.1,3.9-12.4,11.5-13.3,1.8-.2,5-.3,9.4-.2,3.2,0,6.3.2,9.4.4,16.4,1.2,32.9,1.9,49.4,2,.8,0,1.8,0,3.2-.1,3.1-.2,5-.2,7.9-.9,3.5-.8,5.7-1.3,6.5-1.5.1,0,.2,0,.2-.2l.3-4c0,0,0-.1-.1-.1,0,0,0,0,0,0-4.4,1.9-9.1,2.9-14.1,2.8-5.8,0-11.5-1.2-17.2-3.4,0,0,0,0,0-.1v-.2c0,0,0,0,0,0,2.1.6,4,1,5.8,1.5,7.7,1.8,16.5,1.9,23.9-1.2,1.8-.8,3-2,3.6-3.7.2-.5,0-.6-.4-.4-8.8,4.4-17.8,4.7-27,1-5.2-2.1-11-6.8-11.3-12.6-.2-2.8.5-5.1,2.1-7,2.9-3.6,6.8-5.9,11.9-7.1,7.3-1.3,14.4-.5,21.2,2.4l2.4,1.5c.5.3.7.1.6-.4-.4-2.7-1.6-4.8-3.6-6.5-5.1-4.3-13.1-4.6-19.7-2.6-3.2,1-6.5,2.2-9.9,3.8-.9.4-1,.3-.2-.3.9-.7,2.1-1.4,3.4-2.1,2-.8,4-1.5,5.8-2.1,4.7-1.6,9.3-2,13.8-1.1.9.2,1.7.4,2.3.8.7.4.8.2.4-.4-.7-1-1.5-2.2-2.5-3.4-3.5-3.7-7.7-6.5-12.6-8.1-8.4-2.9-17-2.4-25.8-1.3-10.4,1.3-19.1,2.4-28.2,5.2-.1,0-.2,0-.2-.1v-.2c-.1,0,0-.2,0-.2,0,0,0,0,0,0l3.5-1.3c.2,0,.3-.2.4-.4,1-6.5.5-12.8-1.4-19-1.2-3.9-3.1-7.2-5.7-10.1-1-1.1-2.4-2.1-4.2-3.2-1.1-.7-2.1-1.1-3-1.4-5-1.5-10.8-1-15.8,1.3-7.8,3.6-12.9,11.2-13.5,19.8-.6,7.9,2.4,15.3,7.1,21.6,1.4,1.8,3,3.4,4.9,4.5,0,0,.1.1,0,.2v.2c-.1,0-.2,0-.2,0-1.1-.5-2.1-1.3-3.1-2.2-.2-.2-.4-.2-.6,0,0,0-.1.2-.1.3-.2,4.1-.7,7.8-1.5,11.6-1.7,7.6-3.6,14.4-4.3,21.6-.5,4.7-.4,8.9,0,12.6,1.8,12.7,7.4,23.6,16.8,32.8,6.1,5.9,12.6,9.9,19.6,11.8ZM149.3,85c1.4.2,2.9.5,4.4.8,6.6,1.3,12.1,4.3,16.8,8.9,0,0,.2,0,.3,0,0,0,0,0,0-.1.3-2.2,1-4.2,2.1-6.2,1.6-2.8,2.6-4.5,2.9-5.2,1.5-2.9,1.9-6,1.4-9.5-.7-4.3-2.9-7.4-6.5-9.2-5.3-2.4-10.5-2-15.7,1-4.2,2.5-7.5,5.8-10.1,10-1.8,3-3.2,6.1-4.1,9.2,0,.2,0,.3.2.3h8.3ZM186,122.7c.5-7.5-8.6-14.2-20.4-15.1-11.8-.8-21.8,4.6-22.3,12.1s8.6,14.2,20.4,15.1c11.8.8,21.8-4.6,22.3-12.1ZM88.8,154.1c.6-3,4.1-4.2,6.8-4.6,2.9-.5,6.1-.7,9.6-.6,6.7.1,13.4.4,20,.9,11,.8,22.7,1.8,35,2.9,2.5.2,5,.4,7.4.4,6,.1,11.7.1,16.2-3.1,2.2-1.6,1.4-4.5-.7-5.8-2.1-1.2-4.1-1.6-6.1-1.1-5.3,1.4-10,2.1-14,2.1-8.4,0-17.9-.1-28.7-.4-9.5-.3-19.7-1.2-29.4-1.7-6.4-.3-11.6,0-15.7.7-1.9.4-4.3,1.1-5.7,2.1-3.8,2.7-2.1,7.3-.2,10.8,5.1,9.3,15.1,14.7,25.2,17.1,7.3,1.7,14.5,2.6,21.7,2.7,11.5,0,21-.6,28.8-2,7.6-1.4,16.1-3.9,18.1-12.4.7-2.8.2-5.4-1.3-7.8,0,0,0,0-.1,0h-6.6c0,0-.1,0-.1.1,0,0,0,0,0,0,2.1,2.7,2.5,5.3,1.3,7.9-1.9,4.1-8,6.2-12.3,7.2-9.1,2.1-18.5,2.4-28.3,1.9-7.1-.4-14-1.3-20.7-2.8-5.6-1.3-10.5-3.2-14.7-5.7-2.8-1.7-6.5-5.3-5.8-8.8ZM107.4,152.6c6.2,4.5,14.2,7.8,21.7,10,3.3.9,6.9,1.6,10.7,1.9,1.6.1,3.1.1,4.5,0,2.2-.3,3.7-.7,4.4-1,1.4-.7,2.5-1.4,3.1-2.1,2.2-2.5,2.3-5.1.4-7.8-.2-.2-.4-.4-.6-.5-.2,0-.5-.1-.8-.2-2.4-.4-10.8-1.1-25.2-2.1-6.9-.5-13.9-.8-21-.8-.5,0-.6.2-.2.5.8.6,1.8,1.3,2.9,2.2ZM90.2,157.2c1.8,2.8,4.3,4.9,7.5,6.3,3.2,1.4,5.5,2.4,7,2.8,14.4,3.7,28.9,4.9,43.7,3.6,1.6-.1,3.3-.4,5.2-.7,2.6-.5,4.3-.8,5.1-1,1.9-.5,4-1.3,6.3-2.4,2.9-1.4,4.5-3.4,5-6.1.1-2.1-.6-3.9-2-5.2-.2-.2-.5-.3-.7-.3l-14.1-1.1c0,0-.2,0-.2.1,0,0,0,0,0,.1,1,1.3,1.5,2.9,1.7,4.7-.9,3-2.6,5-5.1,6.1-3.5,1.5-7.3,2.1-11.5,1.5,0,0-.7,0-1.8-.2-.7,0-1.4-.2-2.1-.4-5.3-1.1-9-2.1-11.3-3.1-4.2-1.9-7.1-3.2-8.9-4-3.4-1.6-6.6-3.7-9.5-6.2-1.3-1.1-2-1.5-3.6-1.5-3.2,0-6.3.5-9.1,1.7-2.1.8-2.7,2.6-1.7,5.3Z"/>
    <path class="cls-2" d="M96.1,57.6c-.2,3.8-1.1,7.5-2.5,10.9-5.3-4.2-12.5-5.5-17.4,0-1.4,1.5-2.4,3.5-2.9,5.9-1.1,4.7-.3,9,2.3,12.9,0,0,0,.2,0,.3-1,1.1-1.7,2.3-2.3,3.6-.6,1.3-.7,2.7-.4,4,.6,2.7,2.7,4,6.3,3.7,0,1.5-.2,2.9-.7,4-2,5-3.4,9.3-4.3,12.7-1.7,7.2-2.3,14.4-1.6,21.6.9,9.9,3.5,19.3,8,28.2,4.8,9.7,11.9,18,20.5,24.4.9.7,1.4,1.5,1.5,2.5-7-1.9-13.6-5.8-19.6-11.8-9.3-9.2-14.9-20.1-16.8-32.8-.5-3.7-.6-7.9,0-12.6.7-7.3,2.6-14,4.3-21.6.8-3.8,1.3-7.5,1.5-11.6,0-.2.2-.4.4-.4,0,0,.2,0,.3.1,1,.9,2,1.6,3.1,2.2,0,0,0,0,.1,0v-.2c.2,0,.2-.2,0-.2-1.9-1.2-3.5-2.7-4.9-4.5-4.7-6.3-7.7-13.7-7.1-21.6.6-8.5,5.7-16.2,13.5-19.8,4.9-2.3,10.7-2.7,15.8-1.3,1,.3,2,.8,3,1.4Z"/>
    <path class="cls-4" d="M96.1,57.6c1.9,1.1,3.3,2.1,4.2,3.2,2.6,2.9,4.5,6.2,5.7,10.1,1.9,6.2,2.4,12.5,1.4,19,0,.2-.2.4-.4.4l-3.5,1.3c0,0-.1.1-.1.2,0,0,0,0,0,0v.2c.1,0,.2.1.3.1,9.2-2.7,17.8-3.9,28.2-5.2,8.8-1.1,17.4-1.6,25.8,1.3,4.9,1.7,9.1,4.4,12.6,8.1-3.3-.5-6.1-.3-8.5.5-3.9,1.3-6.5,2.2-7.6,2.7-1.3.5-2.6,1.6-3.8,3.1-1.3.7-2.5,1.4-3.4,2.1-.8.6-.7.7.2.3,3.4-1.5,6.7-2.8,9.9-3.8,6.5-2,14.5-1.7,19.7,2.6,2.1,1.7,3.3,3.9,3.6,6.5,0,.5-.1.7-.6.4l-2.4-1.5c.2-.7,0-1.2-.4-1.6-6.3-5-13.1-5.8-20.4-2.1-.2,0-.3.2-.4.4,0,.3-.1.6,0,.9-5.1,1.1-9,3.5-11.9,7.1-1.5,1.9-2.2,4.3-2.1,7,.3,5.8,6.1,10.5,11.3,12.6,9.2,3.7,18.2,3.4,27-1,.4-.2.6,0,.4.4-.6,1.7-1.8,2.9-3.6,3.7-7.4,3.1-16.2,2.9-23.9,1.2-1.8-.4-3.8-.9-5.8-1.5,0,0,0,0,0,0v.2c0,0,0,.1,0,.1,5.6,2.2,11.3,3.3,17.2,3.4,5,0,9.7-.9,14.1-2.8,0,0,.1,0,.2,0,0,0,0,0,0,0l-.3,4c0,.1,0,.2-.2.2-.8.2-3,.6-6.5,1.5-2.9.7-4.8.7-7.9.9-1.4,0-2.5.1-3.2.1-16.5,0-33-.8-49.4-2-3.1-.2-6.2-.4-9.4-.4-4.4,0-7.6,0-9.4.2-7.6.9-16,3.2-11.5,13.3,3.6,8,10.3,13.6,18.5,16.9,6.4,2.6,13.3,4.3,20.5,4.9,13.9,1.3,28.1.6,42.6-2.1-2.3,4.4-5.5,8.6-9.4,12.3-5.3,3.7-11.6,5.9-18.8,6.5-5.5.5-11,.7-16.5.7-5.3,0-10.5-.8-15.7-2.4-.1-1-.6-1.9-1.5-2.5-8.6-6.4-15.7-14.7-20.5-24.4-4.4-9-7.1-18.4-8-28.2-.6-7.2,0-14.4,1.6-21.6.8-3.5,2.3-7.7,4.3-12.7.5-1.1.7-2.5.7-4,5.3-.8,10.6-3.4,15.2-6,2.2-1.3,3.7-2.2,4.5-2.8,0,0,0,0,0-.2h0s0,0-.1,0c-3.2,1.9-7,3.7-11.3,5.7-3.7,1.6-12.1,4.8-13.8-.1-1-2.8,1.3-6.2,3.3-8.1,2.5-2.4,5.5-4.4,9-5.8,4.6-1.9,8-3.3,10.4-4.3.9-.4,1.6-.9,2-1.5.3-.4.4-1,.1-1.5-1.2-2.3-2.8-4.2-4.8-5.7,1.4-3.4,2.2-7,2.5-10.9ZM98.1,100.4l-6,2.2c0,0,0,0,0,0h0c0,.2,0,.2.1.2,5-1.2,10-2,15-2.3,6.6-.4,13.5,1,18.9,5,1.9,1.5,3.1,3.3,3.6,5.6,0,.4,0,.5-.4.3-4.5-3.2-9.5-5.1-15-5.6-8.1-.8-18.1.5-23.5,6.8-2,2.3-2.8,4.9-2.3,7.8.7,4.8,6.1,8.8,10.2,10.6,8,3.4,16.3,4,24.9,1.6,0,0,.2,0,.3,0,0,0,0,0,0,.1,0,0,0,.1,0,.2-3,2.3-6.3,3.8-9.9,4.6-8.9,2-18.7.8-25.9-5.1-.1-.1-.2,0-.2,0v.4c0,.1,0,.2.1.3,2.7,2.6,5.9,4.4,9.5,5.3,7.6,1.9,15,1.4,22.3-1.6,1.7-.7,3.7-2.1,6.1-4.4,1.2-1.1,2.3-2,3.3-2.7,1.5-1.1,2.5-2,3.2-2.8,2.8-3.2,3.4-6.6,1.7-10.2-.7-1.6-2-3-3.3-4.5-.1-.2-.2-.3-.2-.5,0-1.9-.4-3.5-1.5-4.8-1.5-2-3.3-3.6-5.4-4.9-2.4-3-5.8-4.6-10.3-4.8-2.7-.1-5.5,0-8.5.5-2.6.4-4.9,1.3-6.9,2.7Z"/>
    <path class="cls-2" d="M170.6,64.5c-.9.6-2,1-3.3,1.3-1.6.4-2.8.7-3.4,1-5.4,2.5-9.5,6.4-12.1,11.8-.3.5-.7,1.6-1.2,3.2-.4,1.1-.8,2.2-1.3,3.2h-8.3c-.2-.1-.3-.2-.2-.5.9-3.1,2.3-6.1,4.1-9.2,2.5-4.2,5.9-7.5,10.1-10,5.1-3,10.4-3.4,15.7-1Z"/>
    <path class="cls-4" d="M149.3,85c.5-1,1-2.1,1.3-3.2.6-1.6,1-2.7,1.2-3.2,2.6-5.4,6.7-9.3,12.1-11.8.6-.3,1.7-.6,3.4-1,1.3-.3,2.4-.7,3.3-1.3,3.6,1.8,5.8,4.9,6.5,9.2.6,3.5.1,6.7-1.4,9.5-.4.7-1.3,2.4-2.9,5.2-1.1,1.9-1.8,4-2.1,6.2,0,.1-.1.2-.2.2,0,0,0,0-.1,0-4.6-4.6-10.2-7.5-16.8-8.9-1.5-.3-2.9-.6-4.4-.8Z"/>
    <path class="cls-3" d="M93.6,68.4c2,1.5,3.6,3.4,4.8,5.7.2.5.2,1-.1,1.5-.5.6-1.1,1.1-2,1.5-2.3,1-5.8,2.4-10.4,4.3-3.5,1.5-6.5,3.4-9,5.8-2,1.9-4.2,5.3-3.3,8.1,1.7,4.9,10.1,1.8,13.8.1,4.3-1.9,8.1-3.8,11.3-5.7,0,0,0,0,.1,0h0c0,0,0,.1,0,.2-.8.6-2.3,1.5-4.5,2.8-4.6,2.6-9.9,5.1-15.2,6-3.6.3-5.8-1-6.3-3.7-.3-1.4-.2-2.7.4-4,.5-1.2,1.3-2.4,2.3-3.6,0,0,0-.2,0-.3-2.6-3.9-3.4-8.2-2.3-12.9.6-2.4,1.5-4.4,2.9-5.9,5-5.4,12.1-4.1,17.4,0ZM76.5,86.2c3.3-2.9,6.6-4.8,11.3-6.7,2.7-1.1,5.8-2.4,9.3-4.1.3-.2.5-.6.3-.9,0,0,0,0,0,0-2.7-5.2-9-9.6-14.9-8.6-2.8.5-4.9,1.8-6.2,3.7-3.4,5.2-3.7,10.7-.7,16.4.2.4.5.4.8.1Z"/>
    <path class="cls-7" d="M87.8,79.5c-4.8,1.9-8,3.8-11.3,6.7-.3.3-.6.2-.8-.1-3-5.7-2.8-11.2.7-16.4,1.3-2,3.4-3.2,6.2-3.7,5.9-1.1,12.2,3.4,14.9,8.6.2.3,0,.8-.3.9,0,0,0,0,0,0-3.5,1.6-6.6,3-9.3,4.1Z"/>
    <path class="cls-2" d="M170.4,96.3c1,1.2,1.8,2.4,2.5,3.4.4.7.3.8-.4.4-.6-.3-1.4-.6-2.3-.8-4.5-.9-9.2-.5-13.8,1.1-1.9.6-3.8,1.3-5.8,2.1,1.3-1.5,2.6-2.6,3.8-3.1,1.1-.5,3.6-1.4,7.6-2.7,2.4-.8,5.2-1,8.5-.5Z"/>
    <path class="cls-2" d="M123.7,102.1c-6.9-2.7-13.1-3.6-18.7-2.6-3,.5-5.3.8-6.9.9,2-1.4,4.3-2.3,6.9-2.7,3-.4,5.8-.6,8.5-.5,4.4.2,7.9,1.8,10.3,4.8Z"/>
    <path class="cls-3" d="M123.7,102.1c2.1,1.3,3.8,2.9,5.4,4.9,1,1.4,1.5,3,1.5,4.8,0,.2,0,.4.2.5,1.3,1.5,2.5,2.9,3.3,4.5,1.7,3.6,1.1,7-1.7,10.2-.7.8-1.8,1.7-3.2,2.8-1,.7-2,1.6-3.3,2.7-2.4,2.2-4.4,3.7-6.1,4.4-7.2,3-14.6,3.5-22.3,1.6-3.7-.9-6.8-2.7-9.5-5.3,0,0-.1-.2-.1-.3v-.4c0-.2,0-.2.2,0,7.3,5.9,17,7.1,25.9,5.1,3.6-.8,6.9-2.3,9.9-4.6,0,0,0-.1,0-.2,0,0,0-.1,0-.1-.1,0-.2,0-.3,0-8.6,2.4-17,1.8-24.9-1.6-4.1-1.8-9.5-5.7-10.2-10.6-.4-3,.4-5.6,2.3-7.8,5.5-6.2,15.4-7.6,23.5-6.8,5.5.6,10.5,2.4,15,5.6.4.3.5.2.4-.3-.5-2.3-1.7-4.2-3.6-5.6-5.3-4.1-12.3-5.4-18.9-5-5,.3-10.1,1.1-15,2.3,0,0-.1,0-.1,0h0c0-.2,0-.2,0-.2l6-2.2c1.6,0,3.9-.4,6.9-.9,5.6-1,11.8-.1,18.7,2.6ZM133.8,121.2c.5-7.2-9.1-13.7-21.4-14.4h0c-12.3-.8-22.6,4.4-23,11.7h0c-.5,7.2,9.1,13.7,21.4,14.4,0,0,0,0,0,0,12.3.8,22.6-4.4,23-11.7h0Z"/>
    <path class="cls-2" d="M177.5,109.3c-6.8-2.9-13.9-3.7-21.2-2.4,0-.2,0-.5,0-.9,0-.2.2-.3.4-.4,7.3-3.6,14.1-2.9,20.4,2.1.5.4.7.9.4,1.6Z"/>
    <path class="cls-9" d="M133.8,121.2c-.5,7.2-10.8,12.4-23,11.7h0c-12.3-.8-21.8-7.2-21.4-14.4h0c.5-7.2,10.8-12.4,23-11.7,0,0,0,0,0,0,12.3.8,21.8,7.2,21.4,14.4,0,0,0,0,0,0ZM123.4,120.4c.1-5.3-5.4-9.8-12.3-9.9-6.9-.1-12.6,4.1-12.7,9.4-.1,5.3,5.4,9.8,12.3,9.9,6.9.1,12.6-4.1,12.7-9.4Z"/>
    <path class="cls-9" d="M186,122.7c-.5,7.5-10.5,12.9-22.3,12.1-11.8-.8-20.9-7.6-20.4-15.1s10.5-12.9,22.3-12.1c11.8.8,20.9,7.6,20.4,15.1ZM175.3,119c-.7-4.8-6.7-7.9-13.3-6.9,0,0,0,0,0,0-6.6,1-11.4,5.6-10.7,10.4s6.7,7.9,13.3,6.9c0,0,0,0,0,0,6.6-1,11.4-5.6,10.7-10.4Z"/>
    <path class="cls-3" d="M123.4,120.4c-.1,5.3-5.8,9.5-12.7,9.4-6.9-.1-12.4-4.6-12.3-9.9.1-5.3,5.8-9.5,12.7-9.4,6.9.1,12.4,4.6,12.3,9.9ZM117.3,118.2c.2-1.3-1-2.6-2.6-2.8,0,0,0,0,0,0-1.6-.2-3.1.7-3.2,2h0c-.2,1.3,1,2.6,2.6,2.8,0,0,0,0,0,0,1.6.2,3.1-.7,3.2-2,0,0,0,0,0,0Z"/>
    <path class="cls-3" d="M175.3,119c.7,4.8-4.1,9.4-10.7,10.4-6.6,1-12.6-2.1-13.3-6.9h0c-.7-4.8,4.1-9.4,10.7-10.4,6.6-1,12.6,2.1,13.3,6.9h0ZM171.2,118.3c-.2-1.1-1.7-1.7-3.3-1.4,0,0,0,0,0,0-1.6.3-2.7,1.5-2.5,2.6.2,1.1,1.7,1.7,3.3,1.4,0,0,0,0,0,0,1.6-.3,2.7-1.5,2.5-2.6Z"/>
    <ellipse class="cls-9" cx="114.4" cy="117.8" rx="2.4" ry="3" transform="translate(-17.2 216.1) rotate(-82.6)"/>
    <ellipse class="cls-9" cx="168.3" cy="118.9" rx="2.9" ry="2" transform="translate(-19.7 34.6) rotate(-11.1)"/>
    <path class="cls-7" d="M88.8,154.1c-.7,3.5,3,7.2,5.8,8.8,4.1,2.5,9,4.4,14.7,5.7,6.7,1.5,13.6,2.4,20.7,2.8,9.8.5,19.2.2,28.3-1.9,4.3-1,10.3-3.1,12.3-7.2,1.2-2.6.8-5.2-1.3-7.9,0,0,0-.1,0-.2,0,0,0,0,0,0h6.6s0,0,.1,0c1.5,2.4,1.9,5,1.3,7.8-2,8.4-10.5,11-18.1,12.4-7.7,1.4-17.3,2.1-28.8,2-7.2,0-14.4-.9-21.7-2.7-10.1-2.4-20.1-7.7-25.2-17.1-1.9-3.5-3.5-8.1.2-10.8,1.4-1,3.8-1.7,5.7-2.1,4.1-.8,9.3-1,15.7-.7,9.7.5,19.9,1.4,29.4,1.7,10.7.3,20.3.5,28.7.4,4,0,8.7-.7,14-2.1,2-.5,4.1-.2,6.1,1.1,2.1,1.3,2.9,4.2.7,5.8-4.5,3.3-10.2,3.3-16.2,3.1-2.4,0-4.9-.2-7.4-.4-12.3-1.1-24-2.1-35-2.9-6.7-.5-13.4-.8-20-.9-3.6,0-6.8.1-9.6.6-2.7.4-6.2,1.6-6.8,4.6Z"/>
    <path class="cls-7" d="M107.4,152.6c-1.1-.8-2.1-1.5-2.9-2.2-.4-.3-.4-.5.2-.5,7.1,0,14.1.3,21,.8,14.5,1,22.9,1.7,25.2,2.1.3,0,.5.1.8.2.2,0,.4.2.6.5,1.9,2.7,1.7,5.2-.4,7.8-.6.7-1.7,1.4-3.1,2.1-.7.3-2.2.6-4.4,1-1.4.2-2.9.2-4.5,0-3.8-.4-7.4-1-10.7-1.9-7.5-2.1-15.5-5.4-21.7-10Z"/>
    <path class="cls-6" d="M134.3,165.1c-1.3.5-2.5.7-3.9.4-7.7-1.4-15-3.8-21.9-7.2-1.8-.9-3.1-1.5-3.9-1.8-2.8-1.1-5.9-2-8.7-1.4-1.6.3-3.5,1-5.7,2.1-1-2.7-.4-4.5,1.7-5.3,2.8-1.1,5.8-1.7,9.1-1.7,1.6,0,2.3.4,3.6,1.5,3,2.6,6.1,4.6,9.5,6.2,1.7.8,4.7,2.2,8.9,4,2.3,1,6.1,2.1,11.3,3.1Z"/>
    <path class="cls-6" d="M170.1,159.6c-.9,0-2.2-.3-3.9-.8-2.5-.7-6.3-.9-11.4-.9-.1-1.8-.7-3.3-1.7-4.7,0,0,0-.2,0-.2,0,0,0,0,.1,0l14.1,1.1c.3,0,.5.1.7.3,1.5,1.3,2.2,3.1,2,5.2Z"/>
    <path class="cls-8" d="M134.3,165.1c.7.2,1.4.3,2.1.4,1.2.1,1.8.2,1.8.2,4.2.5,8,0,11.5-1.5,2.5-1.1,4.2-3.2,5.1-6.1,5.1,0,8.9.2,11.4.9,1.7.5,3,.7,3.9.8-.4,2.7-2.1,4.8-5,6.1-2.3,1.1-4.5,1.9-6.3,2.4-.9.2-2.6.6-5.1,1-1.9.3-3.6.6-5.2.7-14.7,1.3-29.3.1-43.7-3.6-1.5-.4-3.9-1.3-7-2.8-3.2-1.5-5.7-3.6-7.5-6.3,2.2-1.1,4.2-1.8,5.7-2.1,2.8-.6,5.8.3,8.7,1.4.8.3,2.1.9,3.9,1.8,6.9,3.4,14.2,5.8,21.9,7.2,1.3.2,2.6,0,3.9-.4Z"/>
    <path class="cls-2" d="M153.5,187.4c3.9-3.8,7-7.9,9.4-12.3l2.7-.8c.2,0,.4,0,.4.2,0,0,0,.2,0,.3-2.2,4.2-5.2,7.8-8.9,10.7-1.2.9-2.4,1.6-3.6,2Z"/>
  </g>
</svg>