<?xml version="1.0" encoding="utf-8"?>
<!-- Generator: Adobe Illustrator 22.0.0, SVG Export Plug-In . SVG Version: 6.00 Build 0)  -->
<svg version="1.1" id="Bitcoin_SV" xmlns="http://www.w3.org/2000/svg" xmlns:xlink="http://www.w3.org/1999/xlink" x="0px" y="0px"
	 viewBox="0 0 245 245" style="enable-background:new 0 0 245 245;" xml:space="preserve">
<style type="text/css">
	.st0{fill:#EAB300;}
	.st1{fill:#FFFFFF;}
</style>
<path id="Full" class="st0" d="M0,122.5C0,190,55,245,122.5,245S245,190,245,122.5S190,0,122.5,0S0,55,0,122.5z"/>
<g>
	<path class="st1" d="M88,72.4c13.8,0.2,25.2,7.7,25.7,7.7c5.6-4.1,13.3-4.2,15.4-4.3c12.3,0.4,22.9,9.1,23.1,8.5c0-1.4,0-8.4,6-8.5
		c6.1-0.1,6,10.2,6,10.2s0.5,4,0,6c-0.5,2-3.4,5.1-3.4,5.1c1,1.8,1.6,3.9,1.7,6c0.8,3.5,0.8,3.8,0.9,6s-0.7,6.1-0.9,9.4
		c1.4,1,1.6-7.3,7.7-9.4c0.2-3.9-0.2-6.4,0-6.8c0.2-0.6,0.5-1.2,0.9-1.7c1.3-1.8,3-2.2,3.4-2.6c0.2-1.2-0.2-8.4,0-9.4
		c0.2-1,1.5-3,2.6-4.3c0.7-1.7,0.3-5.5,0.9-6c0.6-0.5,0-1.8,0.9-3.4c0.9-1.6,0-6.8,0-6.8s-4.4-10.9-8.6-10.2c0.4,1,2.1,3.4,0.9,4.3
		c-0.8,0.2-2.4-1.2-3.4-2.6c-0.3-0.8-1.5-7.2-7.7-6.8c0.1,0.9,3.7,2.7,2.6,5.1c-2.8-2.8-5.1-1.5-5.1-2.6s-1.8-7.9-9.4-7.7
		c-2.1,0.5,3.2,0.7,1.7,5.1c-0.4,1-2.8-2.1-6-2.6c-0.6-1-0.6-5.7-6.9-6.8c-0.5,0-3.2-0.2-3.4,1.7c3.4-0.3,2.6,3.4,2.6,3.4
		c-1.8-1.2-3.9-1.8-6-1.7c-0.7-1-2.6-3.4-4.3-4.3c-0.8-0.4-3.6-1.1-6.9,0.9c1.3,0.1,4.2,0.7,3.4,3.4c-2.2-1-4.7-1-6.9,0
		c-0.7-1.2-1.7-3.5-6-3.4c-1.3-0.1-4-0.3-6,2.6c1-0.2,4.3-0.8,4.3,1.7c-1.1-0.1-4,0-6,1.7c-1.1,0.1-2.6-2.3-6.9-2.6
		c-0.7,0.1-6.2,0.6-6,4.3c0.8-0.5,3.8-1.4,3.4,0.9c-0.5,0.3-4,1.9-5.1,3.4c-1,0.3-3.1-0.9-5.1-0.9c-0.7,0-5.9,0.3-6.9,5.1
		c3.5-2.5,4.4,0.5,4.3,0.9c-2.2,0.9-6.4,4.8-6.9,6C74.8,70.7,86.1,72.2,88,72.4z"/>
	<path class="st1" d="M89.7,82.6c-4.8-0.7-16.9-1.3-21.4-3.4c-3.1-1-7.4-3.3-15.4-10.2c1.9,9.6,12.2,14.9,15.4,16.2
		c3.2,1.4,13.7,4,18.9,5.1c2.1,0.4,12.7,3.6,12,6c-1.3,0.5-3.6,1.7-4.3,1.7c-0.6,0-4.9,0.2-6,2.6c1.7-0.1,14.6,1.4,13.7,7.7
		c-2.9-3.6-8.1-4.1-9.4-4.3c-0.9-0.1-5.8,1-7.7,4.3c0.5,1,2.2,3.3,4.3,4.3c0.7,0.2,2-0.2,2.6,0.9c-0.2,0.4-4.7,1.2-4.3,5.1
		c0.3-0.2,0.6-0.4,0.9-0.5c2-0.8,4.3,0.2,5.1,2.2c0.1,0.9-2.1,3.5-1.7,5.1c0.1,0.3,2.6-1.4,2.6,0c0.5,0.9,0.7,5.5,6,5.1
		c2.9,0.3,6.5-1.8,7.7-4.3c0.6-0.4,5.1,0,5.1,0s1,3.1-3.4,6c2.3,0,7.9-0.5,8.6-6c0-1.8-1-2.7-0.9-4.3c-0.3-0.8-0.7-4.4-2.6-4.3
		c-0.6,0-0.9,1.8-1.7,1.7c-0.8,0-6.7-3.7-6.9-6.8c-0.1-1.2,0.1-2.4,0.9-2.6s4.4,0.9,3.4,5.1c0.5,0.2,2.2-2,3.4,0c0.8,0.6,6,0,6,0
		c-0.2,1.4-0.2,2.9,0,4.3c0.2,2.9,8.9,18.5,9.4,23.1c0,1.2-0.4,7-5.1,6.8c-4.2-0.1-9.7-9.3-12.9-12c0.2,3,6.8,17,14.6,16.2
		c1.5,0.4,7.6-1.2,7.7-9.4c0.2-4.2-8.6-19.8-8.6-26.5c0-2,1-5.8,3.4-5.1c0.5,1.3-0.9,3.4-0.9,3.4s4.2-1.1,4.3-5.1
		c1.4-0.2,1.8,2.4,2.6,2.6s1.4-2.8,2.6-2.6c1.2,0.2,1,1.4,2.6,1.7c0.7,0,2.5-3.1,3.4-2.6c0.8,0.3,2.2,2.2,3.4,1.7
		c0.3-0.8-0.4-4.1,0-4.3s2.3,0.8,3.4,0.9c1.2,0.1,1.4-0.4,2.6-1.7c-0.6-0.4-4.6-0.7-5.1-0.9c-0.5-0.2-1.9-4.9-2.6-5.1
		c-0.6-0.2-3.5-0.5-3.4-2.6c0.3-2.3,2.6-3.4,2.6-3.4s11.2,1,12.9-1.7c1.6-1.3,3.2-11.8,0.9-12c-1.3,1.2,0.4,12.6-6.9,11.1
		c-1.8-0.1-3.5-0.7-7.7-0.9c-3.3-0.9-8.7,9.9-13.7,8.5c-1.1-0.1-2.7-1.7-4.3-1.7c-2-0.1-3.5,1-4.3,0.9c-0.8-0.1-1.3-0.6-1.7-2.6
		c0-1.1,0.8-4.1,0.9-5.1s-0.4-5.4-3.4-6c-0.9-0.1-2.5,1-4.3,0.9c-1.7-1.7-8.2-6.1-16.2-7.8c-6.5-1.6-15.1-2.1-19.2-3.2
		c-3.6-1.5-8.3-3-16.1-11.3C61,68,69.3,78.1,81.6,78.5c8.8,0.7,13.3,1.8,18.2,3.3c2.2,0.7,5.8,2,8.8,4.2c-0.4,0.5-2.4,1.3-4.3,1.7
		C103.7,87.7,97.7,83.8,89.7,82.6z M137.7,103.1c0.7,0,2.5,0.1,3.4,0.9c1.5,0.6,1.7,1.2,1.7,1.7c0,0.6-2,1.7-3.4,1.7
		c-2.4-2.6-5.8-1.9-6-3.4C134.4,103.1,137,103.1,137.7,103.1z M105.1,100.6c1.1-0.3,5.1,0,5.1,0s2.2-1.7,3.4-1.7
		c1.3,0,2.8,1.5,2.6,2.6c-1.7,2.5-3.8,3.5-5.1,3.4C106.8,104.3,104.9,101.4,105.1,100.6z"/>
	<path class="st1" d="M147.1,122.8c0.6-0.1,1.2-0.3,2.6,0.9c0.7-0.5-0.8-3.8-2.6-5.1c-0.5-0.8-4.3-4.2-5.1-4.3
		c-0.5,0.2,1.7,3.7-0.9,4.3c-1.5,1.3-3.5-3.4-5.1-2.6c0,1,1.6,3.5,0.9,5.1c-0.9,0.2-2.2,0-3.4,0.9c-0.9,0-2.4-1.4-3.4-2.6
		c-0.8,0.3,2.5,8.7,3.4,9.4c0.7,0.4,2.6-1.7,3.4-1.7c0.8,0,3.4,2.5,4.3,4.3c0.5-0.1,1-4.1,0.9-6c1.3-0.2,3.2,1.7,4.3,1.7
		C146.9,126.8,145.9,122.4,147.1,122.8z"/>
	<path class="st1" d="M219.1,101.4c-2.2,0-3.8,1-4.3,0.9c-1.3-1.6,3.6-2.1,2.6-5.1c0.8,0.4,1.8,0.4,2.6,0c-0.4-2.1-2.4-2.9-4.3-2.6
		c-5.2-1.3-3.9,5.6-6,6c-0.9-0.5,0.1-4.3,0.8-4.4c1.1-1.7-0.7-2.7-0.8-3.3c0.3-1.2,0.9-2.4,0.9-3.4c-1.6,0.2-2.7,0.8-4.1,2.8
		c-0.6,0.2-0.9-0.3-1.6,0.5c-0.5,1.7,1.1,6-0.2,7.8c-2.2-4.5-12-10.6-14.6-11.1c-1.1-8.1-6-6-6.9-14.5c-1.2-0.5-1.9,4.2-1.7,6
		c1.8,7.1,0.5,9.2,0,9.4c-0.9,0.8-1.1-1.7-1.7-1.7c-0.8-0.7-1,2.3-1.2,4.8c0.2,3.8,2,6.2,2.1,7.2c-0.6,2.1-2.7,5.3-3.4,5.1
		c-0.7-0.1-1-3.2-1.7-3.4c-0.8,0.4-1,3.9-0.9,6c0.3,2,1.1,4.9,0.9,6c-0.9,2.3-3.3,3.5-4.3,3.4c-1-0.1-1.1-2-0.9-3.4
		c-2.2,0-2.6,7.7-2.6,7.7s0.4,3.9,0,5.1c-1,2.3-3.5,3.5-4.3,4.3c-1.8,0-0.7-5.8-0.9-6c-4.7,1.1-5.1,13.2-5.1,15.4
		c-4.2,0.6-4.3,3.3-6,3.4c-0.5,0-1.6-1.8-1.7-3.4c-0.1-1.3,0.6-1.8,0.9-3.4c-10.5,1.9-11.4,21.2-24,21.4
		c-13.2-1.3-20.6-18.9-19.7-23.9c-4.2,1.9-5.2,1.7-6.9,1.7c-6.6-0.1-8.1-4.3-8.6-6c-4.7-1.9-4.4-5.8-4.3-6.8c-4.4,0.8-5-3-5.1-4.3
		c-0.2-3,0.6-4.1,1.7-5.1c-0.6-1.9-5.2-4.8-5.1-6c1-2.3,4.7-5.8,6-6c-1.1-0.9-1.4-4.9,1.5-6.9c-0.2-1.1-8.5-3.4-11.8-3.3
		c-0.8,0.1-7.9,6.5-9.4,10.2c2.4-1.1,3.3-1.5,3.4-0.9c-5.8,5.1-9.4,16.8-8.6,18.8c0.9-1.8,2.4-2.9,2.6-2.6
		c-3.7,8.4-4.9,22.1-0.9,23.1c-0.5-4.8,0.9-5.1,0.9-5.1s1.3,6.8,2.6,9.4c0.4,11.9,5.1,12.8,5.1,12.8s-1.6-4.8-0.9-6
		c1.5,0.1,5,6.4,6.9,6.8c0,12.8,7.2,12.4,7.7,12c-1.6-1.8-1.3-3.4-0.9-3.4c3.7-0.8,13.2,8.4,24,11.1c-2.1,3.8-3.3,11.3-4.3,11.1
		c-1.8,0-2.9-9.3-6-9.4c-0.9-0.4-2.9,0.3-3.4,0c-2.8-3.7-6.9,0-6.9,0s4.4-0.6,5.1,0.9c0.4,0.7-1.2,1.9,0,4.3c3,0.4,4.1,1.9,4.3,2.6
		c0.3,1.9,0.9,5,0,5.1c-3.3,0.3-6-7.5-9.4-7.7c-3.5-1.2-3.2,1.9-4.3,0.9c-4.6-0.9-6,3.4-6,3.4s3-1.2,4.3-0.9c1.5,0.4,0.7,2,0.9,2.6
		c1,1.9,8.5,1,9.4,6c-9.2-2.1-15.2,3.6-15.4,5.1c-0.3,1.4,0.9,1.9,0.9,2.6c-0.7,1.9,0.1,5.1,1.7,6c-0.7-2.6-0.7-5.2,0-5.1
		c0.7,0.5,3,0.9,3.4,0.9c1.4-0.6,3.5-4.2,4.3-4.3c2.5-0.3,6.7,0.9,7.7,0.9c1,0,2.4-0.3,2.6,0c0,1.7-5.9,6.1-6,7.7
		c-0.4,1.4-0.4,2.9,0,4.3c-0.1,4.7,1.6,6,1.7,6c0.1-1-0.4-3.2,0-3.4c1.1,0.4,2.3,0.4,3.4,0c1.4,0.1,3.8-8,5.1-9.4
		c0.8-2.5,6.7-3.8,7.7-6c0.5,2.1,2.9,3.9,3.4,4.3c1,0.5,2.8-0.2,3.4,0c0.6,0.2,1.1,4.5,0.9,6c1.2,0.4,2.1-1.6,2.6-2.6
		c0.7-2.5,0.7-6.2,0-9.4c-1.1-2.8-5.8-4.5-6.9-5.1c-0.3-1,5.5-3.4,6-3.4c1,0.2,1.2,2.9,0,4.3c2.6-1,3.5-2.4,4.3-3.4
		c0-3.7,2.8-5.2,3.4-5.1c1.9,0.1,2.2,2.9,0.9,5.1c8.5-2.9,6.5-9.5,9.4-10.2c50.9-7.4,63.5-48.6,60.8-76.9c2.9,1,6,1,6,1.7
		c-2.1,1.3-3.4,4-3.4,5.1c1.8,6.2,6,6,6,6s-1.9-2-1.7-3.4c2.4-0.1,2.9-3.2,2.6-4.3c3.4-0.3,8.5,6.2,8.6,6.8c1.4,0.6,2.8-0.1,3.4,0
		c0.7,0.1,0.1,1,0,1.7c1.9-0.1,1.9-2.5,0.9-3.4c-0.7-5.3-6.3-6.1-6-6.8c-0.2-2.2,4.4-2.6,5.1-2.6c1.1,0.1,1,0.9,1.7,0.9
		c0.7-0.7,1.6-1,2.6-0.9c0.4,0,1.6,1.1,1.7,0.9C224.2,103.9,220,101.4,219.1,101.4z"/>
	<path class="st1" d="M40,109.1c1-0.3,1.4-0.9,2.6-0.9c1.1,0,3.4,0.9,3.4,0.9s1.6-7.3-4.3-7.7c-1.8,0.3-2,1.5-2.6,4.3
		c-0.7,0.1-3.4-1.7-3.4-1.7S35.8,108.6,40,109.1z"/>
	<path class="st1" d="M68.3,90.3c-2.8-1.9-5.1-3.3-7.7-4.3c-9.6,9.3-5.7,26-19.7,26.5c-1.9-0.2-5.3-0.2-7.7-6
		c-1.6,1.6-2.6,3.7-2.6,6c0,3.1,2.4,8.7,9.4,8.5c5-0.1,9.4-4.3,9.4-4.3s-3.6,7.3-12,7.7c-0.9,0-12.1-1.8-10.3-15.4
		c-1.1,0.7-4.4,2.4-5.1,9.4c-0.2,1.9,2.8,16,16.3,11.1c0.1,1.1-3.7,5.9-12,0.9c2.3,6.6,8.2,6,10.3,6
		C54.6,137.2,50.3,104.1,68.3,90.3z"/>
</g>
</svg>
