<?xml version="1.0" encoding="utf-8"?>
<!-- Generator: Adobe Illustrator 22.0.0, SVG Export Plug-In . SVG Version: 6.00 Build 0)  -->
<svg version="1.1" id="Bitcoin" xmlns="http://www.w3.org/2000/svg" xmlns:xlink="http://www.w3.org/1999/xlink" x="0px" y="0px"
	 viewBox="0 0 245 245" style="enable-background:new 0 0 245 245;" xml:space="preserve">
<style type="text/css">
	.st0{fill:#F7931A;}
	.st1{fill:#FFFFFF;}
</style>
<path id="Full" class="st0" d="M0,122.5C0,190,55,245,122.5,245S245,190,245,122.5S190,0,122.5,0S0,55,0,122.5z"/>
<path class="st1" d="M180.5,108c4.9-23.6-27-32-27-32l5.5-22l-13.5-3.5l-5,21.5l-11-2.5L135,48l-13.5-3.5l-6,22l-27-6.5L85,74.5
	L96.5,77c0,0,6.1,3,4.5,8c-1.2,4.6-15,60-15,60s-0.7,3.9-6.5,3c-5-1.2-9-2.5-9-2.5l-7,16l27,7l-5.5,22l13.5,3.5l5.5-22l10.5,2.5
	l-5.5,22l14,3.5l5-22c0,0,41.8,10.2,48-19.5c7.7-24.6-12.5-31.5-12.5-31.5S178.4,123.8,180.5,108z M149.5,150.5c-3.9,17.2-41,5-41,5
	l7.5-29h0C116,126.5,155.1,130.9,149.5,150.5z M154,106c-2.9,17.5-34.5,6.5-34.5,6.5l6.5-27C126,85.5,156.8,90.2,154,106z"/>
</svg>
