<?xml version="1.0" encoding="UTF-8" standalone="no"?>
<svg
   xmlns:dc="http://purl.org/dc/elements/1.1/"
   xmlns:cc="http://creativecommons.org/ns#"
   xmlns:rdf="http://www.w3.org/1999/02/22-rdf-syntax-ns#"
   xmlns:svg="http://www.w3.org/2000/svg"
   xmlns="http://www.w3.org/2000/svg"
   id="Bitcoin"
   width="256"
   height="256"
   viewBox="0 0 512 512"
   version="1.1">
  <metadata
     id="metadata914">
    <rdf:RDF>
      <cc:Work
         rdf:about="">
        <dc:format>image/svg+xml</dc:format>
        <dc:type
           rdf:resource="http://purl.org/dc/dcmitype/StillImage" />
        <dc:title></dc:title>
      </cc:Work>
    </rdf:RDF>
  </metadata>
  <defs
     id="defs907">
    <style
       id="style905">
      .cls-1 {
        fill: #f7931a;
      }

      .cls-1, .cls-2 {
        fill-rule: evenodd;
      }

      .cls-2 {
        fill: #fff;
      }
    </style>
  </defs>
  <path
     id="Full"
     class="cls-1"
     d="M11,256c0,135.094,109.906,245,245,245S501,391.094,501,256,391.094,11,256,11,11,120.906,11,256Z" />
  <path
     id="B"
     class="cls-2"
     d="M253.985,100l-12,44-53.993-13-7,29,23,5s12.221,6.041,9,16c-2.327,9.2-30,120-30,120s-1.465,7.814-13,6c-10.088-2.462-18-5-18-5l-14,32,53.993,14-11,44,27,7,11-44,21,5-11,44,28,7,10-44s83.634,20.468,95.987-39c15.456-49.119-25-63-25-63s29.81-6.344,34-38c9.847-47.187-53.993-64-53.993-64l11-44-27-7-10,43-22-5,11-43Zm9,82s61.688,9.383,55.993,41c-5.788,34.921-68.991,13-68.991,13Zm-20,82-15,58s74.248,24.473,81.989-10C321.255,272.755,242.986,264,242.986,264Z" />
  <circle
     style="opacity:1;fill:none;fill-opacity:1;fill-rule:nonzero;stroke:#e8a607;stroke-width:25.84937286;stroke-linecap:round;stroke-linejoin:round;stroke-miterlimit:4;stroke-dasharray:none;stroke-dashoffset:0;stroke-opacity:1;paint-order:stroke fill markers"
     id="path2008"
     cx="256"
     cy="256"
     r="233.07529" />
</svg>
