<?xml version="1.0" encoding="utf-8"?>
<!-- Generator: Adobe Illustrator 22.0.0, SVG Export Plug-In . SVG Version: 6.00 Build 0)  -->
<svg version="1.1" id="BTCP" xmlns="http://www.w3.org/2000/svg" xmlns:xlink="http://www.w3.org/1999/xlink" x="0px" y="0px"
	 viewBox="0 0 245 245" style="enable-background:new 0 0 245 245;" xml:space="preserve">
<style type="text/css">
	.st0{fill:#272E64;}
	.st1{fill:#FFFFFF;}
</style>
<path id="Main_copy_24" class="st0" d="M0,122.5C0,190,55,245,122.5,245S245,190,245,122.5S190,0,122.5,0S0,55,0,122.5z"/>
<path id="BTCP-2" class="st1" d="M163,127.5c0,0,15.4-3.7,17.5-19.5c4.9-23.6-27-32-27-32l5.5-22l-13.5-3.5l-5,21.5l-11-2.5L135,48
	l-13.5-3.5l-6,22l-27-6.5L85,74.5L96.5,77c0,0,6.1,3,4.5,8c-1.2,4.6-15,60-15,60s-0.7,3.9-6.5,3c-5-1.2-9-2.5-9-2.5l-7,16l27,7
	l-5.5,22l13.5,3.5l10-38.5c0,0,7.9-28.2,8-28.5C149.2,132.8,163,127.5,163,127.5z M126,85.5c0,0,30.8,4.7,28,20.5
	c-2.9,17.5-34.5,6.5-34.5,6.5L126,85.5z"/>
<path id="Addon" class="st1" d="M109.5,196.5L119,158c0,0,26.1,6.9,30.5-6c3-11.2-6-17-6-17s16.2,0.6,26.5-5c1.3,2,9.4,6.7,7.5,22.5
	c-6,36-39.2,24.9-49,25.5c-0.3,1.1-5.5,22-5.5,22L109.5,196.5z"/>
</svg>
