<svg id="BTCP" xmlns="http://www.w3.org/2000/svg" width="256" height="256" viewBox="0 0 512 512">
<defs>
    <style>
      .cls-1 {
        fill: #272e64;
      }

      .cls-1, .cls-2 {
        fill-rule: evenodd;
      }

      .cls-2 {
        fill: #fff;
      }
    </style>
  </defs>
  <path id="Main_copy_24" data-name="Main copy 24" class="cls-1" d="M11,256c0,135.094,109.906,245,245,245S501,391.094,501,256,391.094,11,256,11,11,120.906,11,256Z"/>
  <path id="BTCP-2" data-name="BTCP" class="cls-2" d="M337,266s30.814-7.344,35-39c9.849-47.187-54-64-54-64l11-44-27-7-10,43-22-5,11-43-27-7-12,44-54-13-7,29,23,5s12.222,6.041,9,16c-2.327,9.2-30,120-30,120s-1.465,7.814-13,6c-10.089-2.462-18-5-18-5l-14,32,54,14-11,44,27,7,20-77s15.855-56.466,16-57C309.324,276.592,337,266,337,266Zm-74-84s61.695,9.383,56,41c-5.789,34.921-69,13-69,13Z"/>
  <path id="Addon" class="cls-2" d="M230,404l19-77s52.207,13.828,61-12c5.919-22.378-12-34-12-34s32.448,1.126,53-10c2.585,4.049,18.886,13.489,15,45-12.021,72-78.372,49.865-98,51-0.592,2.211-11,44-11,44Z"/>
</svg>
