<?xml version="1.0" encoding="utf-8"?>
<!-- Generator: Adobe Illustrator 22.0.0, SVG Export Plug-In . SVG Version: 6.00 Build 0)  -->
<svg version="1.1" id="BitcoinZ" xmlns="http://www.w3.org/2000/svg" xmlns:xlink="http://www.w3.org/1999/xlink" x="0px" y="0px"
	 viewBox="0 0 245 245" style="enable-background:new 0 0 245 245;" xml:space="preserve">
<style type="text/css">
	.st0{fill:#42ABCC;}
	.st1{fill:none;stroke:#FFFFFF;stroke-width:15;stroke-linecap:round;}
	.st2{fill:#FFFFFF;}
</style>
<path id="Main_copy_12" class="st0" d="M0,122.5C0,190,55,245,122.5,245S245,190,245,122.5S190,0,122.5,0S0,55,0,122.5z"/>
<path id="Circle" class="st1" d="M147.5,201.4c-7.8,2.5-16,3.8-24.2,3.9c-45.8,0.5-83.4-36.2-84-82c-0.5-45.8,36.2-83.4,82-84
	c45.8-0.5,83.4,36.2,84,82c0.1,7.9-0.9,15.7-3,23.3"/>
<path class="st2" d="M156,131c-2.8-11.6-17-13.5-17-13.5s10-5.8,6-21c-3.9-13.4-15.9-13.2-18.5-13c-2.8,0.6-5.5,1-5.5,1
	s-3.6,0.5-3.5-1.5c-0.4-1.9-1.5-6-1.5-6s-0.9-2.1-3-1.5c-2.1,0.5-4.1,1.2-6,2c-1.4,0.5-1,3-1,3l1,5c0,0,0.4,2-1.5,2.5
	s-16,3.5-16,3.5s-5,2.1-4,7s12.8,57.5,14,62s7,4,7,4L121,161c0,0,2.7-0.6,3,1.5c0.4,1.6,1.5,6,1.5,6s0.4,2,2.5,1.7
	c2.1-0.4,6.5-1.7,6.5-1.7s1.6-0.6,1-3.5s-1-5-1-5s-0.7-1.5,2-2.5C138.5,157,161.3,153.7,156,131z M106,111.5c-1.7-7.8,4-9.5,4-9.5
	l10.5-2.5c0,0,7.2-1.7,9,5.5s-4.5,9.5-4.5,9.5l-11.5,2.5C113.5,117,107.7,119.3,106,111.5z M134,143l-14,3.5c0,0-7.2,0.8-7.5-6.5
	c-2.6-7.4,3-9,3-9l13.5-3c0,0,6.5-2.8,9,5S134,143,134,143z"/>
<path id="Z" class="st2" d="M167,159h20c0,0,1.8,0.7,2,2.5c0.1,0.8,0.1,1.7,0,2.5c-0.1,0.5-0.2,1-0.5,1.5c0,0-11.1,13.8-12.5,15.5
	c-1,2.6,1.5,3,1.5,3h9.5c0,0,2,0.4,2,3s-1.5,3.5-1.5,3.5H166c0,0-1.8-1-2-2.5c-0.1-1-0.1-2,0-3c1.1-1.5,13.5-16.5,13.5-16.5
	c0.5-1.1,0.1-2.4-1-3c-1.8,0-10,0-10,0s-1.9,0.6-2-3S167,159,167,159z"/>
</svg>
