<svg id="BitcoinZ" xmlns="http://www.w3.org/2000/svg" width="256" height="256" viewBox="0 0 512 512">
<defs>
    <style>
      .cls-1 {
        fill: #42abcc;
      }

      .cls-1, .cls-2, .cls-3 {
        fill-rule: evenodd;
      }

      .cls-2 {
        fill: none;
        stroke: #fff;
        stroke-linecap: round;
        stroke-width: 29px;
      }

      .cls-3 {
        fill: #fff;
      }
    </style>
  </defs>
  <path id="Main_copy_12" data-name="Main copy 12" class="cls-1" d="M11,256c0,135.094,109.906,245,245,245S501,391.094,501,256,391.094,11,256,11,11,120.906,11,256Z"/>
  <path id="Circle" class="cls-2" d="M305.969,413.884a164.234,164.234,0,0,1-48.364,7.789A166.005,166.005,0,1,1,415.583,300.287"/>
  <path id="B" class="cls-3" d="M182,208c-1.941-9.842,8-14,8-14s28.254-6.088,32-7,3-5,3-5l-2-10s-0.858-4.9,2-6a74.967,74.967,0,0,1,12-4c4.284-1.115,6,3,6,3s2.242,8.265,3,12c-0.171,4.027,7,3,7,3s5.368-.888,11-2c5.133-.474,29.121-0.877,37,26,8.1,30.483-12,42-12,42s28.337,3.79,34,27c10.529,45.479-34.955,51.988-39,53-5.327,1.9-4,5-4,5s0.835,4.192,2,10-2,7-2,7-8.785,2.7-12.971,3.4S262,348,262,348s-2.3-8.83-3-12c-0.552-4.245-6-3-6-3l-29,7s-11.613,1.068-14-8S183.941,217.842,182,208Zm49,7,21-5s14.5-3.469,18,11-9,19-9,19l-23,5s-11.6,4.611-15-11S231,215,231,215Zm11,58,27-6s13.046-5.536,18,10-8,20-8,20l-28,7s-14.48,1.683-15-13C230.762,276.3,242,273,242,273Z"/>
  <path id="Z" class="cls-3" d="M345,329h40s3.627,1.416,4,5a19.028,19.028,0,0,1,0,5,7.023,7.023,0,0,1-1,3s-22.1,27.552-25,31c-2.056,5.173,3,6,3,6h19s4.035,0.718,4,6-3,7-3,7H343s-3.69-1.917-4-5a21.389,21.389,0,0,1,0-6c2.269-3.071,27-33,27-33a4.614,4.614,0,0,0-2-6c-3.629-.019-20,0-20,0s-3.8,1.148-4-6S345,329,345,329Z"/>
</svg>
