<?xml version="1.0" encoding="utf-8"?>
<!-- Generator: Adobe Illustrator 22.0.0, SVG Export Plug-In . SVG Version: 6.00 Build 0)  -->
<svg version="1.1" id="Bitcoin_Gold" xmlns="http://www.w3.org/2000/svg" xmlns:xlink="http://www.w3.org/1999/xlink" x="0px"
	 y="0px" viewBox="0 0 245 245" style="enable-background:new 0 0 245 245;" xml:space="preserve">
<style type="text/css">
	.st0{fill:#EBA809;}
	.st1{fill:none;stroke:#FFFFFF;stroke-width:13;stroke-linecap:round;stroke-linejoin:round;}
	.st2{fill:#FFFFFF;}
</style>
<path id="Main_copy_26" class="st0" d="M0,122.5C0,190,55,245,122.5,245S245,190,245,122.5S190,0,122.5,0S0,55,0,122.5z"/>
<circle id="Circle" class="st1" cx="122.5" cy="122.5" r="83"/>
<path id="B" class="st2" d="M74.5,74.5h30v-15h14v15h8.5v-15h12.5v15h5c12.5,0,23.5,15,22.5,27.5c0,10-9,16.5-9,16.5s14,6,14,23.5
	c0,20-15,27.5-22.5,27.5h-10V182H127v-12.5h-9V182h-13.5v-12.5h-30l9-16.5H92V89.5h-7.5L74.5,74.5z M107,89.5V113h35
	c0,0,8.5-3.5,8.5-11c0-10-8.5-12.5-8.5-12.5H107z M107,129.5v24h40c0,0,10-1.5,10-11.5s-10-12.5-10-12.5H107z"/>
</svg>
