<svg id="Bitcoin_Gold" data-name="Bitcoin Gold" xmlns="http://www.w3.org/2000/svg" width="256" height="256" viewBox="0 0 512 512">
<defs>
    <style>
      .cls-1 {
        fill: #eba809;
      }

      .cls-1, .cls-3 {
        fill-rule: evenodd;
      }

      .cls-2 {
        fill: none;
        stroke: #fff;
        stroke-linecap: round;
        stroke-linejoin: round;
        stroke-width: 13px;
      }

      .cls-3 {
        fill: #fff;
      }
    </style>
  </defs>
  <path id="Main_copy_26" data-name="Main copy 26" class="cls-1" d="M11,256c0,135.094,109.906,245,245,245S501,391.094,501,256,391.094,11,256,11,11,120.906,11,256Z"/>
  <circle id="Circle" class="cls-2" cx="256" cy="256" r="166.094"/>
  <path id="B" class="cls-3" d="M160,160h60V130h28v30h17V130h25v30h10c25,0,46.96,30,45,55,0,20-18,33-18,33s28,12,28,47c0,40-30,55-45,55H290v25H265V350H247v25H220V350H160l18-33h17V190H180Zm65,30v47h70s16.973-7,17-22c-0.083-20-17-25-17-25H225Zm0,80v48h80s20-3,20-23-20-25-20-25H225Z"/>
</svg>
