<svg id="Bithereum" xmlns="http://www.w3.org/2000/svg" width="256" height="256" viewBox="0 0 512 512">
  <defs>
    <style>
      .cls-1 {
        fill: #f8c545;
      }

      .cls-1, .cls-2 {
        fill-rule: evenodd;
      }

      .cls-2 {
        fill: #fff;
      }
    </style>
  </defs>
  <path id="Full" class="cls-1" d="M11,256c0,135.094,109.906,245,245,245S501,391.094,501,256,391.094,11,256,11,11,120.906,11,256Z"/>
  <path id="Eth" class="cls-2" d="M256,87L152,259h0l104,61m0,0,104-61h0L256,87m0,338L360,279,256,339.994,152,279,256,425"/>
  <path id="B" class="cls-1" d="M223,199h10v-8h13v8h6v-8h13v8s21,1.213,21,21a22.184,22.184,0,0,1-6,15s9,6.014,9,16c0,21.665-24,23-24,23v6H252v-6h-6v6H233v-6H223V260h7V213h-7V199Zm19.987,14.049H265.18S272,214.133,272,221s-6.82,8-6.82,8H242.987V213.049Zm0,46.921V242H266.18s8.82,0.191,8.82,9-8.82,8.97-8.82,8.97H242.987Z"/>
</svg>
