<?xml version="1.0" encoding="utf-8"?>
<!-- Generator: Adobe Illustrator 22.0.0, SVG Export Plug-In . SVG Version: 6.00 Build 0)  -->
<svg version="1.1" id="Bithereum" xmlns="http://www.w3.org/2000/svg" xmlns:xlink="http://www.w3.org/1999/xlink" x="0px" y="0px"
	 viewBox="0 0 245 245" style="enable-background:new 0 0 245 245;" xml:space="preserve">
<style type="text/css">
	.st0{fill:#F8C545;}
	.st1{fill:#FFFFFF;}
</style>
<path id="Full" class="st0" d="M0,122.5C0,190,55,245,122.5,245S245,190,245,122.5S190,0,122.5,0S0,55,0,122.5z"/>
<path id="Eth" class="st1" d="M122.5,38l-52,86l0,0l52,30.5 M122.5,154.5l52-30.5l0,0l-52-86 M122.5,207l52-73l-52,30.5l-52-30.5
	L122.5,207"/>
<path class="st0" d="M134.5,112c1.9-2,3-4.7,3-7.5C137.5,94.6,127,94,127,94v-4h-6.5v4h-3v-4H111v4h-5v7h3.5v23.5H106v7h5v3h6.5v-3
	h3v3h6.5v-3c0,0,12-0.7,12-11.5C139,115,134.5,112,134.5,112z M116,101h11.1c0,0,3.4,0.5,3.4,4c0,3.4-3.4,4-3.4,4H116V101z
	 M127.6,124.5H116v-9h11.6c0,0,4.4,0.1,4.4,4.5S127.6,124.5,127.6,124.5z"/>
</svg>
