<svg id="BTS" xmlns="http://www.w3.org/2000/svg" width="512" height="512" viewBox="0 0 512 512">
<defs>
    <style>
      .cls-1 {
        fill: #00a9e0;
      }

      .cls-1, .cls-2 {
        fill-rule: evenodd;
      }

      .cls-2 {
        fill: #fff;
      }
    </style>
  </defs>
  <path id="Full" class="cls-1" d="M11,256c0,135.094,109.906,245,245,245S501,391.094,501,256,391.094,11,256,11,11,120.906,11,256Z"/>
  <path id="BitShares" class="cls-2" d="M224.486,299.207L150,226.011v87.656h68.128a40.469,40.469,0,0,1,6.358-14.46h0Zm-5.86,29.7H150a106.076,106.076,0,0,0,26.174,62.883l48.312-48.1a42.923,42.923,0,0,1-5.86-14.781h0ZM325.712,242.6a107.173,107.173,0,0,0-63.027-26.115v68.211a34.217,34.217,0,0,1,14.424,6.106l48.6-48.2h0Zm-38.2,99.608,47.66,47.683a106.355,106.355,0,0,0,24.916-60.978H293.008a44.181,44.181,0,0,1-5.494,13.3h0Zm6.12-28.539H362a106.079,106.079,0,0,0-26.174-62.884l-48.312,48.1a47.432,47.432,0,0,1,6.12,14.781h0ZM186.288,401.885A107.167,107.167,0,0,0,249.315,428V359.79a34.219,34.219,0,0,1-14.424-6.107l-48.6,48.2h0ZM264.6,359.79V428a106.354,106.354,0,0,0,63.027-26.115l-48.083-48.2A40.43,40.43,0,0,1,264.6,359.79h0ZM150.26,203.648c18.329,18.184,75.916,75.574,85.536,85.246a46.342,46.342,0,0,1,13.519-5.416V172.439L150,85c0,0.129.26,115.94,0.26,118.648h0Z"/>
</svg>
