<?xml version="1.0" encoding="utf-8"?>
<!-- Generator: Adobe Illustrator 22.0.0, SVG Export Plug-In . SVG Version: 6.00 Build 0)  -->
<svg version="1.1" id="BTS" xmlns="http://www.w3.org/2000/svg" xmlns:xlink="http://www.w3.org/1999/xlink" x="0px" y="0px"
	 viewBox="0 0 490 490" style="enable-background:new 0 0 490 490;" xml:space="preserve">
<style type="text/css">
	.st0{fill:#00A9E0;}
	.st1{fill:#FFFFFF;}
</style>
<path id="Full" class="st0" d="M0,245c0,135.1,109.9,245,245,245s245-109.9,245-245S380.1,0,245,0S0,109.9,0,245z"/>
<path id="BitShares" class="st1" d="M213.5,288.2L139,215v87.7h68.1C208.3,297.5,210.4,292.6,213.5,288.2L213.5,288.2z M207.6,317.9
	H139c1.6,23.3,10.8,45.4,26.2,62.9l48.3-48.1C210.6,328.2,208.6,323.2,207.6,317.9L207.6,317.9L207.6,317.9z M314.7,231.6
	c-17.6-15.3-39.7-24.5-63-26.1v68.2c5.2,0.9,10.2,3,14.4,6.1L314.7,231.6L314.7,231.6L314.7,231.6z M276.5,331.2l47.7,47.7
	c14.5-17.2,23.3-38.5,24.9-61H282C280.9,322.6,279.1,327.1,276.5,331.2L276.5,331.2L276.5,331.2z M282.6,302.7H351
	c-1.6-23.3-10.8-45.4-26.2-62.9l-48.3,48.1C279.4,292.4,281.4,297.4,282.6,302.7L282.6,302.7L282.6,302.7z M175.3,390.9
	c17.6,15.3,39.7,24.5,63,26.1v-68.2c-5.2-0.9-10.2-3-14.4-6.1L175.3,390.9L175.3,390.9L175.3,390.9z M253.6,348.8V417
	c23.3-1.5,45.5-10.7,63-26.1l-48.1-48.2C264,345.7,258.9,347.8,253.6,348.8L253.6,348.8z M139.3,192.6
	c18.3,18.2,75.9,75.6,85.5,85.2c4.2-2.5,8.8-4.3,13.5-5.4v-111L139,74C139,74.1,139.3,189.9,139.3,192.6L139.3,192.6L139.3,192.6z"
	/>
</svg>
