<?xml version="1.0" encoding="utf-8"?>
<!-- Generator: Adobe Illustrator 22.0.0, SVG Export Plug-In . SVG Version: 6.00 Build 0)  -->
<svg version="1.1" id="BTT" xmlns="http://www.w3.org/2000/svg" xmlns:xlink="http://www.w3.org/1999/xlink" x="0px" y="0px"
	 viewBox="0 0 490 490" style="enable-background:new 0 0 490 490;" xml:space="preserve">
<style type="text/css">
	.st0{fill:#E81A4C;}
	.st1{fill:#FFFFFF;}
</style>
<path id="Full" class="st0" d="M0,245c0,135.1,109.9,245,245,245s245-109.9,245-245S380.1,0,245,0S0,109.9,0,245z"/>
<path id="Form_1136" class="st1" d="M415.5,210.6c-6.8-33.2-23.3-63.8-47.3-87.8C352.4,107,333.6,94.4,313,85.7
	C248,58.1,172.7,72.8,122.8,122.8C107,138.6,94.4,157.4,85.7,178c-22.9,54-16.8,116,16,164.6c53.7,79.4,161.6,100.4,241,46.7
	c27.8-18.8,49.6-45.3,62.7-76.2c4.4-10.5,7.8-21.4,10.1-32.6C420.2,257.4,420.2,233.6,415.5,210.6z M245.5,397.3
	c-83.8,0-151.8-68-151.8-151.8s68-151.8,151.8-151.8s151.8,68,151.8,151.8l0,0C397.3,329.3,329.3,397.3,245.5,397.3z M248.2,384.3
	c0.5,0,1,0,1.5,0l0.7,0c0.5,0,1,0,1.5-0.1l0.6,0c0.7,0,1.4-0.1,2.1-0.1c0,0,0.1,0,0.1,0c0.6,0,1.3-0.1,1.9-0.1c0.2,0,0.4,0,0.6,0
	c0.5,0,1-0.1,1.5-0.1c0.2,0,0.4,0,0.6-0.1c0.6-0.1,1.1-0.1,1.7-0.2l0.3,0c0.7-0.1,1.4-0.2,2.1-0.3c0,0,0,0,0.1,0
	c0.7-0.1,1.3-0.2,2-0.3l0.4-0.1c0.6-0.1,1.1-0.2,1.7-0.3l0.4-0.1c0.7-0.1,1.3-0.2,2-0.3c0,0,0,0,0,0c1.4-0.2,2.8-0.5,4.2-0.8
	l0.3-0.1c0.6-0.1,1.2-0.3,1.8-0.4c0.1,0,0.2,0,0.2-0.1c1.4-0.3,2.8-0.6,4.1-1l0,0c-13.4,0.4-26.7-0.8-39.8-3.7
	c-19.6-4.2-38.4-11.9-54.2-25.1c-25.3-21.1-39.8-52.3-39.5-85.3c0.5-56.8,46.3-102.9,103.2-103.6c1.4,0,2.7,0,4.1,0v-23.6
	c-1.5,0-3,0-4.6,0c-9,0.2-18,1.3-26.7,3.3c-8.8,2-17.4,5-25.6,8.8c-33.2,15.4-58.1,44.3-68.6,79.4c-2.4,8.1-4,16.4-4.8,24.8
	c-0.2,2.6-0.4,5.2-0.5,7.9c0,1-0.1,2-0.1,3c0,0.5,0,1,0,1.5c0.3,18.1,4.4,35.9,12,52.3c4.5,9.7,12.6,24.2,24.4,35.2c0,0,0,0,0,0
	c24.4,19.2,54.5,29.6,85.6,29.5c0.7,0,1.4,0,2.1,0C247.8,384.3,248,384.3,248.2,384.3z M287,361.3c-8.8-0.3-17.6-1.2-26.2-2.8
	c-36.7-6.7-68.2-29-79.8-62.9c-14.1-41.2,7.6-85.7,48.4-99.2c7.8-2.6,15.9-3.9,24.1-4c10.5,0,20.9,2,30.6,6.1l9.9-21.2
	c-3-1.3-6-2.4-9.1-3.4c-20.5-6.6-42.6-6.5-63.1,0.4c-25.6,8.5-46.8,27-58.6,51.2c-11.8,24.2-13.5,52.1-4.7,77.5
	c4.6,13.2,11.8,25.2,21.3,35.4c8.7,9.4,18.9,16.6,31.3,23.1c12.9,6.8,28.7,10.4,45.2,12.7c10.6,1.5,24.9,1.8,33.3,1.7
	c7.3-2.7,10.4-3.8,14.3-5.5c3.4-1.6,6.8-3.3,10.1-5.1c3.4-2,4-2.3,9.6-6c0.5-0.4,1-0.7,1.5-1.1C305.9,361.7,300.9,361.6,287,361.3z
	 M330.9,334.8c-5.5,0.4-13.3,0.8-22.2,0.8c-15.8,0-35.2-1.4-51.8-6.9c-25.6-8.5-49.9-30.5-49.9-57.5c0-27,21.9-48.8,48.8-48.8
	c17.7,0,34,9.6,42.6,25l21.2-10.5c-18.9-35.2-62.8-48.5-98-29.6c-23.5,12.6-38.2,37.1-38.2,63.8c0,9.9,2.2,19.7,6.3,28.8
	c3.8,8.5,9.1,16.2,15.4,23c12.2,12.9,27.5,22.5,44.3,28.1c16.2,5.4,40.2,7.3,63.3,5.7c6.6-0.5,13.1-1.4,19.5-2.8
	c7.9-6.3,15.1-13.4,21.4-21.3l0,0C348.1,333.3,337.8,334.4,330.9,334.8L330.9,334.8z"/>
</svg>
