<?xml version="1.0" encoding="UTF-8" standalone="no"?>
<svg
   xmlns:dc="http://purl.org/dc/elements/1.1/"
   xmlns:cc="http://creativecommons.org/ns#"
   xmlns:rdf="http://www.w3.org/1999/02/22-rdf-syntax-ns#"
   xmlns:svg="http://www.w3.org/2000/svg"
   xmlns="http://www.w3.org/2000/svg"
   xmlns:sodipodi="http://sodipodi.sourceforge.net/DTD/sodipodi-0.dtd"
   xmlns:inkscape="http://www.inkscape.org/namespaces/inkscape"
   width="245.2"
   height="245.2"
   viewBox="0 0 245.2 245.2"
   version="1.1"
   id="svg14"
   sodipodi:docname="BTT_BEP20.svg"
   inkscape:version="1.0.2-2 (e86c870879, 2021-01-15)">
  <metadata
     id="metadata20">
    <rdf:RDF>
      <cc:Work
         rdf:about="">
        <dc:format>image/svg+xml</dc:format>
        <dc:type
           rdf:resource="http://purl.org/dc/dcmitype/StillImage" />
      </cc:Work>
    </rdf:RDF>
  </metadata>
  <defs
     id="defs18" />
  <sodipodi:namedview
     pagecolor="#ffffff"
     bordercolor="#666666"
     borderopacity="1"
     objecttolerance="10"
     gridtolerance="10"
     guidetolerance="10"
     inkscape:pageopacity="0"
     inkscape:pageshadow="2"
     inkscape:window-width="1920"
     inkscape:window-height="1017"
     id="namedview16"
     showgrid="false"
     inkscape:zoom="3.466558"
     inkscape:cx="122.6"
     inkscape:cy="122.6"
     inkscape:window-x="-8"
     inkscape:window-y="-8"
     inkscape:window-maximized="1"
     inkscape:current-layer="btt_bep2" />
  <g
     id="btt_bep2"
     transform="translate(-3759.502,-3690.039)">
    <path
       id="Full"
       d="M 0,122.5 C 0,190 55,245 122.5,245 190,245 245,190 245,122.5 245,55 190,0 122.5,0 55,0 0,55 0,122.5 Z"
       transform="translate(3759.702,3690.239)" />
    <g
       id="download_1_"
       data-name="download (1)"
       transform="translate(3787.151,3717.041)">
      <path
         id="Path_475052"
         data-name="Path 475052"
         d="m 95.023,6.25 a 89.4,89.4 0 0 0 -63.13,152.581 v 0 A 89.347,89.347 0 1 0 95.023,6.25 Z m 0,169.83 A 80.459,80.459 0 1 1 175.4,95.621 80.459,80.459 0 0 1 95.023,176.08 Z"
         fill="#fcfcfc" />
      <path
         id="Path_475053"
         data-name="Path 475053"
         d="m 63.188,159.384 a 60.182,60.182 0 0 1 -1.337,-47.657 57.409,57.409 0 0 1 52.614,-35.563 l 0.037,-8.046 V 66.59 h -1.677 a 68.248,68.248 0 0 0 -44.933,19.186 67.119,67.119 0 0 0 -19.242,40.031 62.9,62.9 0 0 0 12.805,45.8 l 0.161,0.2 a 49.826,49.826 0 0 0 14.854,13 70.847,70.847 0 0 0 31.658,8.714 C 89.027,190.008 71.469,176.949 63.188,159.384 Z"
         transform="translate(-16.199,-22.995)"
         fill="#fcfcfc" />
      <path
         id="Path_475054"
         data-name="Path 475054"
         d="m 179.445,189.614 c -1.857,0.173 -3.757,0.309 -5.632,0.415 -15.813,0.891 -33.285,0.514 -47.242,-7.959 a 41.034,41.034 0 0 1 -10.194,-8.714 c -10.045,-11.957 -9.692,-30.048 3.15,-39.908 11.2,-8.591 28.049,-6.963 37.073,4.023 0.8,0.978 2.55,3.2 2.55,3.2 0,0 2.952,-1.553 3.887,-2.018 l 0.3,-0.142 0.192,-0.1 0.508,-0.248 0.248,-0.124 2.228,-1.1 1.238,-0.619 -0.037,-0.062 a 37.135,37.135 0 0 0 -10.187,-11.1 37.6,37.6 0 0 0 -27.152,-6.585 c -15.361,2.327 -28.074,14.155 -30.605,29.547 -2.612,15.906 5.354,31.162 18.444,40.031 13.616,9.209 30.711,10.491 46.852,9.828 3.782,-0.155 11.493,-0.8 11.475,-0.935 a 80.672,80.672 0 0 0 8.795,-8.324 c 0,0 -5.099,0.826 -5.891,0.894 z"
         transform="translate(-35.645,-42.659)"
         fill="#fcfcfc" />
      <path
         id="Path_475055"
         data-name="Path 475055"
         d="m 142.817,194.36 q -2.9,-0.068 -5.787,-0.347 c -15.9,-1.523 -32.128,-7.538 -42.619,-20.053 -9.729,-11.6 -13.82,-28.049 -9.067,-42.594 a 41.919,41.919 0 0 1 55.034,-25.994 c 0,0 1.857,-4.1 2.067,-4.487 v -0.068 l 0.068,-0.142 0.136,-0.291 c 0.619,-1.281 1.182,-2.581 1.813,-3.843 -13.35,-4.772 -27.74,-5.013 -40.811,0.935 a 51.853,51.853 0 0 0 -20.016,78.249 c 5.713,7.644 13.616,13.542 22.052,17.949 13.4,6.919 32.685,7.8 34.04,7.5 6.653,-1.584 16.2,-6.14 18.153,-7.644 a 78.9,78.9 0 0 1 -10.744,0.842 q -2.136,0.043 -4.319,-0.012 z"
         transform="translate(-25.748,-33.053)"
         fill="#fcfcfc" />
    </g>
  </g>
</svg>
