<svg id="BTT" xmlns="http://www.w3.org/2000/svg" width="512" height="512" viewBox="0 0 512 512">
<defs>
    <style>
      .cls-1 {
        fill: #e81a4c;
      }

      .cls-1, .cls-2 {
        fill-rule: evenodd;
      }

      .cls-2 {
        fill: #fff;
      }
    </style>
  </defs>
  <path id="Full" class="cls-1" d="M11,256c0,135.094,109.906,245,245,245S501,391.094,501,256,391.094,11,256,11,11,120.906,11,256Z"/>
  <path id="Form_1136" data-name="Form 1136" class="cls-2" d="M426.474,221.571a173.372,173.372,0,0,0-47.293-87.752,173.665,173.665,0,0,0-55.136-37.168,173.431,173.431,0,0,0-190.226,37.168,173.726,173.726,0,0,0-37.168,55.137,173.314,173.314,0,0,0,16,164.573,173.583,173.583,0,0,0,303.7-29.484,172.88,172.88,0,0,0,10.125-32.615A174.822,174.822,0,0,0,426.474,221.571ZM256.5,408.311A151.81,151.81,0,1,1,408.309,256.5,151.811,151.811,0,0,1,256.5,408.311Zm2.7-13.042q0.732-.014,1.461-0.035l0.689-.022q0.755-.025,1.507-0.06l0.558-.025c0.689-.034,1.378-0.071,2.064-0.116,0.041,0,.084-0.005.125-0.009q0.965-.061,1.923-0.139c0.186-.014.371-0.03,0.556-0.046,0.513-.043,1.024-0.087,1.536-0.135,0.19-.018.381-0.036,0.571-0.056q0.852-.082,1.7-0.176l0.331-.036q1.054-.12,2.107-0.253c0.02,0,.039,0,0.057-0.007q0.988-.127,1.975-0.269l0.419-.06q0.841-.123,1.68-0.257l0.4-.064c0.666-.108,1.332-0.219,1.994-0.336a0.007,0.007,0,0,0,.006,0q2.091-.372,4.162-0.8l0.3-.064c0.6-.126,1.2-0.256,1.8-0.392,0.083-.017.165-0.037,0.249-0.055q2.073-.469,4.124-1h0a162.894,162.894,0,0,1-39.755-3.713c-19.621-4.195-38.352-11.877-54.151-25.14a109.794,109.794,0,0,1-39.523-85.252,104.484,104.484,0,0,1,103.157-103.59q2.045-.04,4.092,0v-23.6q-2.277-.033-4.56.012a131.615,131.615,0,0,0-26.732,3.283,129.494,129.494,0,0,0-25.61,8.758,127.72,127.72,0,0,0-68.594,79.365,129.164,129.164,0,0,0-4.8,24.839q-0.366,3.926-.491,7.883-0.048,1.514-.063,3.028,0.006,0.765.02,1.532a130.471,130.471,0,0,0,12.041,52.342c4.5,9.739,12.557,24.162,24.375,35.168a0.28,0.28,0,0,1,.031.028A138.2,138.2,0,0,0,256.5,395.3c0.689,0,1.378-.007,2.064-0.016C258.775,395.278,258.985,395.275,259.2,395.269ZM298,372.347a174.86,174.86,0,0,1-26.2-2.834c-36.687-6.666-68.212-28.977-79.824-62.864-14.125-41.22,7.565-85.654,48.445-99.244a77.416,77.416,0,0,1,24.135-3.972,78.563,78.563,0,0,1,30.56,6.081l9.939-21.164q-4.459-1.9-9.093-3.375a101.662,101.662,0,0,0-63.106.352,100.243,100.243,0,0,0-58.608,51.245,101.362,101.362,0,0,0-4.69,77.531A99.671,99.671,0,0,0,190.873,349.5c8.715,9.445,18.891,16.622,31.254,23.118,12.869,6.761,28.663,10.4,45.171,12.68,10.641,1.471,24.862,1.779,33.3,1.744,7.312-2.708,10.394-3.848,14.335-5.535q5.163-2.37,10.089-5.137c3.372-2,3.961-2.31,9.6-5.991q0.749-.537,1.491-1.083C316.925,372.72,311.892,372.593,298,372.347Zm43.859-26.507c-5.5.376-13.285,0.816-22.222,0.816-15.815,0-35.219-1.377-51.848-6.92-25.567-8.523-49.881-30.522-49.881-57.472a48.8,48.8,0,0,1,91.409-23.784l21.18-10.455a72.39,72.39,0,0,0-136.187,34.241,70.1,70.1,0,0,0,6.257,28.791,84.072,84.072,0,0,0,15.444,22.958,108.342,108.342,0,0,0,44.315,28.107c16.187,5.395,40.158,7.256,63.273,5.658a135.972,135.972,0,0,0,19.481-2.789,139.674,139.674,0,0,0,21.406-21.281h0C359.054,344.3,348.846,345.363,341.858,345.84Z"/>
</svg>
