<svg xmlns="http://www.w3.org/2000/svg" width="245.2" height="245.2" viewBox="0 0 245.2 245.2">
  <g id="btt_bep2" transform="translate(-3759.502 -3690.039)">
    <path id="Full" d="M0,122.5C0,190,55,245,122.5,245S245,190,245,122.5,190,0,122.5,0,0,55,0,122.5Z" transform="translate(3759.702 3690.239)"/>
    <g id="Main_copy_14" transform="translate(3759.502 3690.039)" fill="none">
      <path d="M0,122.6c0,67.554,55.044,122.6,122.6,122.6s122.6-55.044,122.6-122.6S190.151,0,122.6,0,0,55.044,0,122.6Z" stroke="none"/>
      <path d="M 122.6000061035156 11 C 61.06355285644531 11 11 61.06355285644531 11 122.6000061035156 C 11 184.1364593505859 61.06355285644531 234.2000122070312 122.6000061035156 234.2000122070312 C 184.1364593505859 234.2000122070312 234.2000122070312 184.1364593505859 234.2000122070312 122.6000061035156 C 234.2000122070312 61.06355285644531 184.1364593505859 11 122.6000061035156 11 M 122.6000061035156 0 C 190.1512145996094 0 245.2000122070312 55.04379272460938 245.2000122070312 122.6000061035156 C 245.2000122070312 190.1562194824219 190.1562194824219 245.2000122070312 122.6000061035156 245.2000122070312 C 55.04379272460938 245.2000122070312 0 190.1542053222656 0 122.6000061035156 C 0 55.04379272460938 55.04879760742188 0 122.6000061035156 0 Z" stroke="none" fill="#e8a607"/>
    </g>
    <g id="download_1_" data-name="download (1)" transform="translate(3787.151 3717.041)">
      <path id="Path_475052" data-name="Path 475052" d="M95.023,6.25A89.4,89.4,0,0,0,31.893,158.831h0A89.347,89.347,0,1,0,95.023,6.25Zm0,169.83A80.459,80.459,0,1,1,175.4,95.621,80.459,80.459,0,0,1,95.023,176.08Z" transform="translate(0 0)" fill="#fcfcfc"/>
      <path id="Path_475053" data-name="Path 475053" d="M63.188,159.384a60.182,60.182,0,0,1-1.337-47.657,57.409,57.409,0,0,1,52.614-35.563l.037-8.046V66.59h-1.677A68.248,68.248,0,0,0,67.892,85.776a67.119,67.119,0,0,0-19.242,40.031,62.9,62.9,0,0,0,12.805,45.8l.161.2a49.826,49.826,0,0,0,14.854,13,70.847,70.847,0,0,0,31.658,8.714C89.027,190.008,71.469,176.949,63.188,159.384Z" transform="translate(-16.199 -22.995)" fill="#fcfcfc"/>
      <path id="Path_475054" data-name="Path 475054" d="M179.445,189.614c-1.857.173-3.757.309-5.632.415-15.813.891-33.285.514-47.242-7.959a41.034,41.034,0,0,1-10.194-8.714c-10.045-11.957-9.692-30.048,3.15-39.908,11.2-8.591,28.049-6.963,37.073,4.023.8.978,2.55,3.2,2.55,3.2s2.952-1.553,3.887-2.018l.3-.142.192-.1.508-.248.248-.124,2.228-1.1,1.238-.619-.037-.062a37.135,37.135,0,0,0-10.187-11.1,37.6,37.6,0,0,0-27.152-6.585c-15.361,2.327-28.074,14.155-30.605,29.547-2.612,15.906,5.354,31.162,18.444,40.031,13.616,9.209,30.711,10.491,46.852,9.828,3.782-.155,11.493-.8,11.475-.935a80.672,80.672,0,0,0,8.795-8.324S180.237,189.546,179.445,189.614Z" transform="translate(-35.645 -42.659)" fill="#fcfcfc"/>
      <path id="Path_475055" data-name="Path 475055" d="M142.817,194.36q-2.9-.068-5.787-.347c-15.9-1.523-32.128-7.538-42.619-20.053-9.729-11.6-13.82-28.049-9.067-42.594a41.919,41.919,0,0,1,55.034-25.994s1.857-4.1,2.067-4.487v-.068l.068-.142.136-.291c.619-1.281,1.182-2.581,1.813-3.843-13.35-4.772-27.74-5.013-40.811.935a51.853,51.853,0,0,0-20.016,78.249c5.713,7.644,13.616,13.542,22.052,17.949,13.4,6.919,32.685,7.8,34.04,7.5,6.653-1.584,16.2-6.14,18.153-7.644a78.9,78.9,0,0,1-10.744.842Q145,194.415,142.817,194.36Z" transform="translate(-25.748 -33.053)" fill="#fcfcfc"/>
    </g>
  </g>
</svg>
