<?xml version="1.0" encoding="utf-8"?>
<!-- Generator: Adobe Illustrator 22.0.0, SVG Export Plug-In . SVG Version: 6.00 Build 0)  -->
<svg version="1.1" id="Bitcore" xmlns="http://www.w3.org/2000/svg" xmlns:xlink="http://www.w3.org/1999/xlink" x="0px" y="0px"
	 viewBox="0 0 245 245" style="enable-background:new 0 0 245 245;" xml:space="preserve">
<style type="text/css">
	.st0{fill:#ED3483;}
	.st1{fill:#FFFFFF;}
</style>
<path id="Main_F" class="st0" d="M0,122.5C0,190,55,245,122.5,245S245,190,245,122.5S190,0,122.5,0S0,55,0,122.5z"/>
<path id="White_Ring" class="st1" d="M10,122.5c0,62,50.5,112.5,112.5,112.5S235,184.5,235,122.5S184.5,10,122.5,10
	S10,60.5,10,122.5z M19,122.5C19,65.4,65.4,19,122.5,19S226,65.4,226,122.5S179.6,226,122.5,226S19,179.6,19,122.5z"/>
<path class="st1" d="M190.9,105.8c5.6-26.9-30.9-36.4-30.9-36.4l6.3-25l-15.5-4l-5.7,24.5L132.5,62l6.3-24.5l-15.5-4l-6.9,25
	l-30.9-7.4l-4,16.5l13.2,2.8c0,0,7,3.4,5.1,9.1c-1.3,5.2-17.2,68.3-17.2,68.3s-0.8,4.4-7.4,3.4c-5.8-1.4-10.3-2.8-10.3-2.8l-8,18.2
	l30.9,8l-6.3,25l15.4,4l6.3-25l12,2.8l-6.3,25l16,4l5.7-25c0,0,47.9,11.6,54.9-22.2c8.8-28-14.3-35.9-14.3-35.9
	S188.5,123.8,190.9,105.8z M155.4,154.2c-4.4,19.6-46.9,5.7-46.9,5.7l8.6-33C117.1,126.8,161.9,131.8,155.4,154.2z M160.6,103.5
	c-3.3,19.9-39.5,7.4-39.5,7.4l7.4-30.7C128.5,80.2,163.8,85.5,160.6,103.5z"/>
<path id="CORE" class="st1" d="M43.1,124.8c-0.7,0.3-1.3,0.7-1.9,1.2c-0.6,0.5-1,1-1.5,1.6c-0.4,0.6-0.8,1.2-1.1,1.8
	c-0.3,0.6-0.5,1.2-0.7,1.9c-0.4,1.6-0.6,3.2-0.5,4.9c0.1,1.5,0.6,3,1.3,4.3c0.7,1.3,1.7,2.5,2.9,3.4c2.7,2,6,2.9,9.4,2.5
	c1.5-0.2,2.9-0.7,4.2-1.5c1.3-0.8,2.4-1.8,3.3-3.1c0.9-1.3,1.6-2.9,2-4.4c0.4-1.5,0.5-3,0.2-4.6c-0.2-1.6-0.9-3-1.9-4.2l-4,3.2
	c0.6,0.7,1,1.5,1.2,2.3c0.2,0.9,0.2,1.9-0.1,2.8c-0.2,0.8-0.6,1.6-1.2,2.2c-0.5,0.6-1.2,1.2-2,1.5c-0.8,0.4-1.7,0.6-2.5,0.7
	c-2,0.1-3.9-0.4-5.6-1.5c-0.7-0.5-1.4-1.2-1.9-1.9c-1-1.5-1.2-3.3-0.8-5c0.2-0.8,0.6-1.6,1.1-2.2c0.5-0.6,1.1-1.1,1.8-1.4
	L43.1,124.8z M56.5,126.4c1.5-0.2,2.9-0.7,4.2-1.5c1.3-0.8,2.4-1.8,3.3-3.1c1.9-2.7,2.7-6,2.5-9.3c-0.1-1.5-0.6-3-1.3-4.3
	c-0.7-1.3-1.7-2.5-2.9-3.4c-2.7-2-6-2.9-9.4-2.5c-1.5,0.2-2.9,0.7-4.2,1.5c-1.3,0.8-2.4,1.8-3.3,3.1c-1.9,2.7-2.7,6-2.5,9.3
	c0.1,1.5,0.6,3,1.3,4.3c0.7,1.3,1.7,2.5,2.9,3.4C49.8,125.8,53.2,126.7,56.5,126.4L56.5,126.4z M50.3,119.8
	c-0.7-0.5-1.4-1.2-1.8-1.9c-0.5-0.8-0.8-1.6-0.9-2.5c-0.2-2,0.3-3.9,1.5-5.5c0.5-0.7,1.2-1.3,2-1.7c0.8-0.4,1.7-0.7,2.6-0.8
	c2-0.1,3.9,0.4,5.5,1.5c0.7,0.5,1.4,1.2,1.8,1.9c0.5,0.8,0.8,1.6,0.9,2.5c0.2,2-0.3,3.9-1.5,5.5c-0.5,0.7-1.2,1.3-2,1.7
	c-0.8,0.4-1.7,0.7-2.6,0.8C53.8,121.5,51.9,120.9,50.3,119.8z M69.2,103.3l1.3-4.7l-8.6-2.3l0.6-2.3l9.8-2.2l1.5-5.7l-10.6,3
	c0.2-1.4-0.2-2.9-1.1-4c-0.9-1.1-2.2-1.9-3.6-2.2c-1.1-0.3-2.2-0.4-3.3-0.2c-0.9,0.2-1.8,0.6-2.5,1.2c-0.7,0.6-1.3,1.4-1.8,2.3
	c-0.5,1-0.9,2-1.2,3l-2.2,8.3L69.2,103.3z M52.9,93.9l0.8-3.1c0.1-0.4,0.3-0.9,0.4-1.3c0.2-0.4,0.4-0.8,0.7-1.1
	c0.3-0.3,0.6-0.5,1-0.7c0.5-0.1,0.9-0.1,1.4,0c0.5,0.1,0.9,0.4,1.3,0.7c0.3,0.3,0.4,0.7,0.5,1.2c0,0.5,0,0.9-0.1,1.4
	c-0.1,0.5-0.2,0.9-0.3,1.4l-0.8,2.8L52.9,93.9z M74.3,84.3l4.1-15.2L74,68l-2.8,10.4l-4.4-1.2l2.5-9.3l-4.4-1.2L62.4,76l-4-1.1
	l2.6-9.9l-4.4-1.2l-3.9,14.6L74.3,84.3z"/>
</svg>
