<svg xmlns="http://www.w3.org/2000/svg" width="245" height="245" viewBox="0 0 245 245">
  <g id="Bitcore_logo" transform="translate(-2099 -4030)">
    <g id="BNB" transform="translate(2099 4030)">
      <path id="Main_copy_14" d="M0,122.5C0,190,55,245,122.5,245S245,190,245,122.5,190,0,122.5,0,0,55,0,122.5Z" fill="#f4991a"/>
    </g>
    <g id="Group_9061" data-name="Group 9061" transform="translate(2107.028 4043.8)">
      <path id="Path_472459" data-name="Path 472459" d="M160.339,106.389c7.387-3.166,13.06-7.387,17.149-12.928a32.325,32.325,0,0,0,6.2-19.656c0-9.894-3.958-17.413-11.741-22.69s-19-7.915-33.771-7.915H77.23a6.354,6.354,0,0,0-6.2,5.013l-8.047,40.5a5.3,5.3,0,0,0,5.277,6.332H93.852a5.484,5.484,0,0,0,5.277-4.353l3.166-15.83a6.247,6.247,0,0,1,6.2-5.013H129.47c10.29,0,15.566,3.43,15.566,10.29q0,7.321-5.145,11.081c-3.43,2.506-8.443,3.826-15.039,3.826H102.69a5.5,5.5,0,0,0-5.277,4.221l-3.562,17.545a3.044,3.044,0,0,0,3.034,3.694h28.89c4.749,0,8.443.923,11.213,2.77s4.089,4.617,4.089,8.311c0,5.145-1.847,8.97-5.541,11.609s-8.839,3.958-15.566,3.958H92.928a4.158,4.158,0,0,1-4.089-5.013l3.43-17.281a3.552,3.552,0,0,0-3.43-4.221H61a5.484,5.484,0,0,0-5.277,4.353l-8.707,43.8A4.158,4.158,0,0,0,51.11,173.8h66.751c17.809,0,32.32-3.562,43.4-10.554s16.622-17.281,16.622-30.869a26.769,26.769,0,0,0-4.617-15.566A30.075,30.075,0,0,0,160.339,106.389Z" transform="translate(3.499)" fill="#fff"/>
      <path id="Path_472460" data-name="Path 472460" d="M43.425,93.845H54.242a2.663,2.663,0,0,0,2.506-2.111l3.694-18.6A2.579,2.579,0,0,0,57.936,70.1H47.119a2.663,2.663,0,0,0-2.506,2.111l-3.694,18.6A2.452,2.452,0,0,0,43.425,93.845Z" transform="translate(1.554 8.586)" fill="#fff"/>
      <path id="Path_472461" data-name="Path 472461" d="M51.839,114.035l3.694-18.6A2.579,2.579,0,0,0,53.026,92.4H42.209A2.663,2.663,0,0,0,39.7,94.511l-3.694,18.6a2.579,2.579,0,0,0,2.506,3.034H49.333A2.663,2.663,0,0,0,51.839,114.035Z" transform="translate(0 15.704)" fill="#fff"/>
      <path id="Path_472462" data-name="Path 472462" d="M85.789,86.5H62.175a6.635,6.635,0,0,0-6.464,5.277L54.92,95.6a4.429,4.429,0,0,0,4.353,5.277H83.546a2.416,2.416,0,0,0,2.375-1.847L87.9,89.006A2.181,2.181,0,0,0,85.789,86.5Z" transform="translate(6.022 13.821)" fill="#fff"/>
    </g>
  </g>
</svg>
