<svg id="Bitcore" xmlns="http://www.w3.org/2000/svg" width="256" height="256" viewBox="0 0 512 512">
<defs>
    <style>
      .cls-1 {
        fill: #ed3483;
      }

      .cls-1, .cls-2 {
        fill-rule: evenodd;
      }

      .cls-2 {
        fill: #fff;
      }
    </style>
  </defs>
  <path id="Main_F" data-name="Main F" class="cls-1" d="M11,256c0,135.094,109.906,245,245,245S501,391.094,501,256,391.094,11,256,11,11,120.906,11,256Z"/>
  <path id="White_Ring" data-name="White Ring" class="cls-2" d="M31,256c0,124.066,100.934,225,225,225S481,380.066,481,256,380.066,31,256,31,31,131.934,31,256Zm18,0C49,141.86,141.86,49,256,49s207,92.86,207,207S370.14,463,256,463,49,370.14,49,256Z"/>
  <path id="B" class="cls-2" d="M257.772,78l-13.734,50.084-61.8-14.8-8.011,33.01,26.323,5.691s13.988,6.876,10.3,18.212c-2.663,10.47-34.334,136.592-34.334,136.592s-1.677,8.895-14.878,6.83c-11.547-2.8-20.6-5.692-20.6-5.692l-16.022,36.425,61.8,15.935-12.589,50.084,30.9,7.968,12.589-50.084,24.034,5.692L229.16,424.032,261.205,432l11.445-50.084s95.73,23.3,109.869-44.392c17.691-55.91-28.611-71.71-28.611-71.71s34.121-7.222,38.912-43.255c11.271-53.71-61.8-72.848-61.8-72.848l12.589-50.084-30.9-7.968L301.262,140.6l-25.179-5.692,12.59-48.945Zm10.3,93.338s70.609,10.68,64.091,46.668c-6.625,39.75-78.969,14.8-78.969,14.8Zm-22.89,93.337L228.015,330.7S313,358.551,321.862,319.312C334.772,274.641,245.182,264.675,245.182,264.675Z"/>
  <path id="CORE" class="cls-2" d="M97.29,260.65a15.21,15.21,0,0,0-3.83,2.366,18.024,18.024,0,0,0-2.934,3.16,21.338,21.338,0,0,0-2.108,3.61,23.691,23.691,0,0,0-1.354,3.715,27.49,27.49,0,0,0-.912,9.736,22.081,22.081,0,0,0,2.561,8.579,21.281,21.281,0,0,0,5.854,6.755,27.108,27.108,0,0,0,18.743,5.023,21.266,21.266,0,0,0,8.446-2.922,22.043,22.043,0,0,0,6.507-6.15,27.508,27.508,0,0,0,4.077-8.888,22.239,22.239,0,0,0,.49-9.132,17.057,17.057,0,0,0-3.8-8.455l-8.022,6.33A10.673,10.673,0,0,1,123.419,279a11.077,11.077,0,0,1-.169,5.5,11.573,11.573,0,0,1-2.314,4.5,12.132,12.132,0,0,1-3.926,3.091,14.306,14.306,0,0,1-5.075,1.412,17.412,17.412,0,0,1-11.105-2.976,13.921,13.921,0,0,1-3.711-3.8,12.219,12.219,0,0,1-1.536-9.968,11.849,11.849,0,0,1,2.177-4.472,9.658,9.658,0,0,1,3.538-2.738Zm26.7,3.079a21.283,21.283,0,0,0,8.446-2.923,22.039,22.039,0,0,0,6.507-6.149,29.183,29.183,0,0,0,4.989-18.625,22.047,22.047,0,0,0-2.56-8.579,21.286,21.286,0,0,0-5.854-6.755,27.11,27.11,0,0,0-18.743-5.023,21.272,21.272,0,0,0-8.446,2.923,22.089,22.089,0,0,0-6.507,6.149,29.19,29.19,0,0,0-4.989,18.624,22.086,22.086,0,0,0,2.561,8.58,21.29,21.29,0,0,0,5.853,6.755A27.11,27.11,0,0,0,123.989,263.729ZM111.51,250.664a13.135,13.135,0,0,1-3.687-3.89,12.827,12.827,0,0,1-1.757-5,15.716,15.716,0,0,1,2.951-11.016,12.823,12.823,0,0,1,4.024-3.456,13.175,13.175,0,0,1,5.138-1.526,17.406,17.406,0,0,1,11.1,2.977,13.206,13.206,0,0,1,3.656,3.882,12.784,12.784,0,0,1,1.757,5,15.716,15.716,0,0,1-2.951,11.016,12.772,12.772,0,0,1-4.024,3.455,13.184,13.184,0,0,1-5.107,1.535A17.4,17.4,0,0,1,111.51,250.664ZM149.391,217.6l2.544-9.494-17.221-4.616,1.255-4.686,19.635-4.393,3.049-11.381-21.13,6.079a11.066,11.066,0,0,0-2.188-8.023,13.1,13.1,0,0,0-7.123-4.453,14.081,14.081,0,0,0-6.649-.379,11,11,0,0,0-4.962,2.454,15.359,15.359,0,0,0-3.516,4.6,30.492,30.492,0,0,0-2.31,6.068l-4.467,16.676Zm-32.507-18.888,1.663-6.208a19.984,19.984,0,0,1,.884-2.568,7.829,7.829,0,0,1,1.335-2.186,4.638,4.638,0,0,1,1.948-1.305,4.706,4.706,0,0,1,2.8.032,4.5,4.5,0,0,1,2.534,1.494,4.635,4.635,0,0,1,.917,2.3,8.791,8.791,0,0,1-.146,2.733q-0.291,1.457-.634,2.733l-1.5,5.6Zm42.682-19.09,8.136-30.371-8.763-2.348-5.592,20.876-8.763-2.349,5-18.685-8.762-2.348-5.006,18.685-8.033-2.153,5.3-19.78-8.763-2.349-7.843,29.276Z"/>
</svg>
