<?xml version="1.0" encoding="UTF-8" standalone="no"?>
<svg
   xmlns:dc="http://purl.org/dc/elements/1.1/"
   xmlns:cc="http://creativecommons.org/ns#"
   xmlns:rdf="http://www.w3.org/1999/02/22-rdf-syntax-ns#"
   xmlns:svg="http://www.w3.org/2000/svg"
   xmlns="http://www.w3.org/2000/svg"
   xmlns:sodipodi="http://sodipodi.sourceforge.net/DTD/sodipodi-0.dtd"
   xmlns:inkscape="http://www.inkscape.org/namespaces/inkscape"
   height="245"
   width="245"
   xml:space="preserve"
   viewBox="0 0 245 245"
   y="0px"
   x="0px"
   id="BUSD"
   version="1.1"
   sodipodi:docname="BUSD_BEP2.svg"
   inkscape:version="1.0.2-2 (e86c870879, 2021-01-15)"><sodipodi:namedview
   pagecolor="#ffffff"
   bordercolor="#666666"
   borderopacity="1"
   objecttolerance="10"
   gridtolerance="10"
   guidetolerance="10"
   inkscape:pageopacity="0"
   inkscape:pageshadow="2"
   inkscape:window-width="1920"
   inkscape:window-height="1017"
   id="namedview10"
   showgrid="false"
   inkscape:zoom="3.3203125"
   inkscape:cx="122.5"
   inkscape:cy="122.5"
   inkscape:window-x="-8"
   inkscape:window-y="-8"
   inkscape:window-maximized="1"
   inkscape:current-layer="BUSD" /><metadata
   id="metadata881"><rdf:RDF><cc:Work
       rdf:about=""><dc:format>image/svg+xml</dc:format><dc:type
         rdf:resource="http://purl.org/dc/dcmitype/StillImage" /><dc:title /></cc:Work></rdf:RDF></metadata><defs
   id="defs879" />
<style
   id="style872"
   type="text/css">
	.st0{fill:#F0B90B;}
	.st1{fill:#FFFFFF;}
</style>

<g
   transform="scale(0.5)"
   id="g904"><path
     style="fill:#f0b90b"
     id="Full"
     class="st0"
     d="M 0,245 C 0,380.1 109.9,490 245,490 380.1,490 490,380.1 490,245 490,109.9 380.1,0 245,0 109.9,0 0,109.9 0,245 Z" /><path
     style="fill:#ffffff"
     id="BUSD-2"
     class="st1"
     d="m 102,244.5 36.1,-36.1 36.1,36.1 -36.2,36.1 z m 53.7,-53.7 89.8,-89.8 36.1,36.1 -89.8,89.8 z m 0,107.4 143.5,-143.5 36.1,36.1 -143.5,143.5 z M 209.4,352 353,208.4 389.1,244.5 245.5,388 Z" /></g>
</svg>
