<?xml version="1.0" encoding="UTF-8" standalone="no"?>
<svg
   xmlns:dc="http://purl.org/dc/elements/1.1/"
   xmlns:cc="http://creativecommons.org/ns#"
   xmlns:rdf="http://www.w3.org/1999/02/22-rdf-syntax-ns#"
   xmlns:svg="http://www.w3.org/2000/svg"
   xmlns="http://www.w3.org/2000/svg"
   height="256"
   width="256"
   xml:space="preserve"
   viewBox="0 0 256 256"
   y="0px"
   x="0px"
   id="BUSD"
   version="1.1"><metadata
   id="metadata881"><rdf:RDF><cc:Work
       rdf:about=""><dc:format>image/svg+xml</dc:format><dc:type
         rdf:resource="http://purl.org/dc/dcmitype/StillImage" /><dc:title></dc:title></cc:Work></rdf:RDF></metadata><defs
   id="defs879" />
<style
   id="style872"
   type="text/css">
	.st0{fill:#F0B90B;}
	.st1{fill:#FFFFFF;}
</style>

<g
   transform="matrix(0.5,0,0,0.5,5.5,5.5)"
   id="g904"><path
     style="fill:#f0b90b"
     id="Full"
     class="st0"
     d="M 0,245 C 0,380.1 109.9,490 245,490 380.1,490 490,380.1 490,245 490,109.9 380.1,0 245,0 109.9,0 0,109.9 0,245 Z" /><path
     style="fill:#ffffff"
     id="BUSD-2"
     class="st1"
     d="m 102,244.5 36.1,-36.1 36.1,36.1 -36.2,36.1 z m 53.7,-53.7 89.8,-89.8 36.1,36.1 -89.8,89.8 z m 0,107.4 143.5,-143.5 36.1,36.1 -143.5,143.5 z M 209.4,352 353,208.4 389.1,244.5 245.5,388 Z" /></g>
<circle
   r="116.53765"
   cy="128"
   cx="128"
   id="path2008"
   style="opacity:1;fill:none;fill-opacity:1;fill-rule:nonzero;stroke:#e8a607;stroke-width:12.92468739;stroke-linecap:round;stroke-linejoin:round;stroke-miterlimit:4;stroke-dasharray:none;stroke-dashoffset:0;stroke-opacity:1;paint-order:stroke fill markers" /></svg>