<?xml version="1.0" encoding="utf-8"?>
<!-- Generator: Adobe Illustrator 22.0.0, SVG Export Plug-In . SVG Version: 6.00 Build 0)  -->
<svg version="1.1" id="BUSD" xmlns="http://www.w3.org/2000/svg" xmlns:xlink="http://www.w3.org/1999/xlink" x="0px" y="0px"
	 viewBox="0 0 490 490" style="enable-background:new 0 0 490 490;" xml:space="preserve">
<style type="text/css">
	.st0{fill:#F0B90B;}
	.st1{fill:#FFFFFF;}
</style>
<path id="Full" class="st0" d="M0,245c0,135.1,109.9,245,245,245s245-109.9,245-245S380.1,0,245,0S0,109.9,0,245z"/>
<path id="BUSD-2" class="st1" d="M102,244.5l36.1-36.1l36.1,36.1L138,280.6L102,244.5z M155.7,190.8l89.8-89.8l36.1,36.1l-89.8,89.8
	L155.7,190.8z M155.7,298.2l143.5-143.5l36.1,36.1L191.8,334.3L155.7,298.2z M209.4,352L353,208.4l36.1,36.1L245.5,388L209.4,352z"
	/>
</svg>
