<svg id="BXY" xmlns="http://www.w3.org/2000/svg" width="512" height="512" viewBox="0 0 512 512">
<defs>
    <style>
      .cls-1 {
        fill: #00acac;
      }

      .cls-1, .cls-2 {
        fill-rule: evenodd;
      }

      .cls-2 {
        fill: #fff;
      }
    </style>
  </defs>
  <path id="Full" class="cls-1" d="M11,256c0,135.094,109.906,245,245,245S501,391.094,501,256,391.094,11,256,11,11,120.906,11,256Z"/>
  <path id="BXY-2" data-name="BXY" class="cls-2" d="M169.248,248.866c5.668,1.91,26.27,27.378,27.258,30.576-4.462-.353-19.708-2.679-22.745-4.5C167.781,271.354,166.419,253.891,169.248,248.866Zm4.066,56.365c7.561,15.242,16.64,39.91,14.913,58.089-0.364,3.779-1.3,5.835-1.924,9.116,14.082-17.017,32.916-26.454,53.789-32.7-3.391-.115-15.528,3.27-20.686,4.1-8.465,1.37-5.106-5.866-2.735-17.442,5.523-26.953-1.155-45.319-9.193-71.275-5.98-18.978-10.036-41.747-4.67-62.335,4.243-16.206,15.641-32.932,27.279-44.186-4.742-.738-43.149,4.931-47.226,3.945-1.7-.405-6.354-3.281-8.965-4.3-20.831-8.15-42.036-7.267-60.235,6.053-13.094,9.594-22.62,26.029-21.684,42.495,1.362-6.728,2.714-9.594,9.453-20.069,10.515-14.545,33.384-27.98,48.547-15.739,1.83,1.463,5.2,5.108,6.073,8.191-2.849,1.547-6.562,4.174-9.38,6.136a136.756,136.756,0,0,0-27.643,25.322c-6.479,7.88-17.17,25.987-18.512,34.77,5.751-1.193,7-2.19,13.26-.083,24.429,8.213,50.471,51.59,59.55,69.883h0.01Zm170.547-56.489c1.206,7.714,2.922,22.041-4.847,26.267-3.712,2.035-17.481,4.007-22.64,4.4,0.427-1.371,21-28.24,27.476-30.669h0.011ZM294.826,297.3c-3.047,24.066,6.25,39.879,3.317,46.285-5.98,1.609-20.768-4.351-25.438-3.832,18.221,6.832,34.975,12.116,49.046,26.621,1.6,1.661,3.12,4.36,4.9,6.218-1.341-7.412-2.766-7.672-2.059-18.169a93.324,93.324,0,0,1,3.12-17.888c5.585-20.827,15.527-40.1,26.832-57.59,8.34-12.937,22.12-30.254,34.808-38.488,7.176-4.661,12.781-8.1,22.973-4.973,0-4.028-7.176-18.054-9.121-21.273-10.306-16.933-21.195-27.575-37.1-38.985-2.839-2.045-6.365-3.852-9.058-6.063,0.312-2.669,4.409-7.164,6.188-8.5,10.223-7.756,23.826-3.966,33.165,1.837a55.553,55.553,0,0,1,23.358,30.8l1.175,2.616c0.635-6.863-2.049-16.062-4.68-21.4-15.548-31.479-51.926-38.736-82.023-24.139-1.155.561-3.151,1.931-4.327,2.18-4.336.914-38.157-4.308-47.069-4.132,1.144,1.869,2.756,2.938,4.441,4.776,10.17,11.171,19.01,24.71,22.869,40.055,9.567,38.061-10.785,67.962-15.319,104.009l-0.011.011ZM256.482,409.978c11-1.454,35.286-17.214,46.2-23.122-2.268-8.305-9.547-17.13-16.276-21.781a48.263,48.263,0,0,0-29.848-8.7c-15.3.177-31.314,7.247-40.444,18.013-2.1,2.472-6.334,8.42-7.177,12.657,2.964,1.069,18.689,10.652,22.506,13,6.417,3.956,15.4,10.2,25.053,9.936h-0.01Z"/>
</svg>
