<?xml version="1.0" encoding="utf-8"?>
<!-- Generator: Adobe Illustrator 22.0.0, SVG Export Plug-In . SVG Version: 6.00 Build 0)  -->
<svg version="1.1" id="BXY" xmlns="http://www.w3.org/2000/svg" xmlns:xlink="http://www.w3.org/1999/xlink" x="0px" y="0px"
	 viewBox="0 0 490 490" style="enable-background:new 0 0 490 490;" xml:space="preserve">
<style type="text/css">
	.st0{fill:#00ACAC;}
	.st1{fill:#FFFFFF;}
</style>
<path id="Full" class="st0" d="M0,245c0,135.1,109.9,245,245,245s245-109.9,245-245S380.1,0,245,0S0,109.9,0,245z"/>
<path id="BXY-2" class="st1" d="M158.2,237.9c5.7,1.9,26.3,27.4,27.3,30.6c-4.5-0.4-19.7-2.7-22.7-4.5
	C156.8,260.4,155.4,242.9,158.2,237.9z M162.3,294.2c7.6,15.2,16.6,39.9,14.9,58.1c-0.4,3.8-1.3,5.8-1.9,9.1
	c14.1-17,32.9-26.5,53.8-32.7c-3.4-0.1-15.5,3.3-20.7,4.1c-8.5,1.4-5.1-5.9-2.7-17.4c5.5-27-1.2-45.3-9.2-71.3
	c-6-19-10-41.7-4.7-62.3c4.2-16.2,15.6-32.9,27.3-44.2c-4.7-0.7-43.1,4.9-47.2,3.9c-1.7-0.4-6.4-3.3-9-4.3
	c-20.8-8.1-42-7.3-60.2,6.1c-13.1,9.6-22.6,26-21.7,42.5c1.4-6.7,2.7-9.6,9.5-20.1c10.5-14.5,33.4-28,48.5-15.7
	c1.8,1.5,5.2,5.1,6.1,8.2c-2.8,1.5-6.6,4.2-9.4,6.1c-10.3,7.1-19.6,15.7-27.6,25.3c-6.5,7.9-17.2,26-18.5,34.8
	c5.8-1.2,7-2.2,13.3-0.1C127.2,232.5,153.2,275.9,162.3,294.2L162.3,294.2L162.3,294.2z M332.9,237.7c1.2,7.7,2.9,22-4.8,26.3
	c-3.7,2-17.5,4-22.6,4.4C305.8,267,326.4,240.2,332.9,237.7L332.9,237.7L332.9,237.7z M283.8,286.3c-3,24.1,6.2,39.9,3.3,46.3
	c-6,1.6-20.8-4.4-25.4-3.8c18.2,6.8,35,12.1,49,26.6c1.6,1.7,3.1,4.4,4.9,6.2c-1.3-7.4-2.8-7.7-2.1-18.2c0.5-6,1.5-12,3.1-17.9
	c5.6-20.8,15.5-40.1,26.8-57.6c8.3-12.9,22.1-30.3,34.8-38.5c7.2-4.7,12.8-8.1,23-5c0-4-7.2-18.1-9.1-21.3
	c-10.3-16.9-21.2-27.6-37.1-39c-2.8-2-6.4-3.9-9.1-6.1c0.3-2.7,4.4-7.2,6.2-8.5c10.2-7.8,23.8-4,33.2,1.8
	c11.2,7.1,19.5,18.1,23.4,30.8l1.2,2.6c0.6-6.9-2-16.1-4.7-21.4c-15.5-31.5-51.9-38.7-82-24.1c-1.2,0.6-3.2,1.9-4.3,2.2
	c-4.3,0.9-38.2-4.3-47.1-4.1c1.1,1.9,2.8,2.9,4.4,4.8c10.2,11.2,19,24.7,22.9,40.1C308.7,220.3,288.4,250.2,283.8,286.3L283.8,286.3
	L283.8,286.3z M245.5,399c11-1.5,35.3-17.2,46.2-23.1c-2.3-8.3-9.5-17.1-16.3-21.8c-8.7-6.1-19.2-9.2-29.8-8.7
	c-15.3,0.2-31.3,7.2-40.4,18c-2.1,2.5-6.3,8.4-7.2,12.7c3,1.1,18.7,10.7,22.5,13C226.9,393,235.8,399.2,245.5,399L245.5,399
	L245.5,399z"/>
</svg>
