<?xml version="1.0" encoding="utf-8"?>
<!-- Generator: Adobe Illustrator 22.0.0, SVG Export Plug-In . SVG Version: 6.00 Build 0)  -->
<svg version="1.1" id="BZEdge" xmlns="http://www.w3.org/2000/svg" xmlns:xlink="http://www.w3.org/1999/xlink" x="0px" y="0px"
	 viewBox="0 0 245 245" style="enable-background:new 0 0 245 245;" xml:space="preserve">
<style type="text/css">
	.st0{fill:#00C3E2;}
	.st1{fill:#FFFFFF;}
</style>
<path id="Full" class="st0" d="M0,122.5C0,190,55,245,122.5,245S245,190,245,122.5S190,0,122.5,0S0,55,0,122.5z"/>
<path class="st1" d="M197.6,103.9C193.2,89.2,183,81.2,183,81.2l-20.9,20.2c0,0,15.8,19.6,3.1,42.6c-11.1,22.3-38.5,25.3-70.1,25.1
	c0.3-2.2,3.8-23,3.8-23l73.9-72.2h-61l5.9-34.9H88.2L77.7,99H115l-44.6,40.1L61,193.5h68c25-1,55.2-20.9,65.5-44.6
	C199.4,137.5,202.3,118.2,197.6,103.9z M110.1,191.4H63.1l9.4-51.3l48.1-43.6H80.2l32.4-20.2h54L96.9,145l-4.5,26.5h24
	c15.3-0.5,29.3-6.3,29.3-6.3L110.1,191.4z"/>
</svg>
