<svg id="BZEdge" xmlns="http://www.w3.org/2000/svg" width="256" height="256" viewBox="0 0 512 512">
<defs>
    <style>
      .cls-1 {
        fill: #00c3e2;
      }

      .cls-1, .cls-2 {
        fill-rule: evenodd;
      }

      .cls-2 {
        fill: #fff;
      }
    </style>
  </defs>
  <path id="Full" class="cls-1" d="M11,256c0,135.094,109.906,245,245,245S501,391.094,501,256,391.094,11,256,11,11,120.906,11,256Z"/>
  <path id="B" class="cls-2" d="M151.822,289.187L133,398H268.939c49.994-2.037,110.311-41.764,131.06-89.282,9.876-22.621,15.584-61.406,6.274-89.98-8.932-29.384-29.28-45.338-29.28-45.338l-41.827,40.456s31.5,39.13,6.274,85.1c-22.258,44.62-76.984,50.65-140.122,50.221,0.7-4.332,7.669-46.036,7.669-46.036l147.79-144.386h-122L246.631,89H187.376L166.462,208.973h74.592ZM302.4,341.5s-28,11.6-58.558,12.555h-48.1l9.063-53.011L344.229,163.634H236.174L171.342,204.09h80.866l-96.2,87.19L137.183,393.815h94.111Z"/>
</svg>
