<?xml version="1.0" encoding="utf-8"?>
<!-- Generator: Adobe Illustrator 22.0.0, SVG Export Plug-In . SVG Version: 6.00 Build 0)  -->
<svg version="1.1" id="BZX" xmlns="http://www.w3.org/2000/svg" xmlns:xlink="http://www.w3.org/1999/xlink" x="0px" y="0px"
	 viewBox="0 0 490 490" style="enable-background:new 0 0 490 490;" xml:space="preserve">
<style type="text/css">
	.st0{fill:#FFFFFF;}
</style>
<path id="Full" d="M0,245c0,135.1,109.9,245,245,245s245-109.9,245-245S380.1,0,245,0S0,109.9,0,245z"/>
<path id="BZX-2" class="st0" d="M242.6,78L100,162l0,168.5L244.1,413L390,330.7l0-170.1L242.6,78L242.6,78L242.6,78z M162.6,363.1
	c-2.6,0-4.7-2.2-4.6-4.8c0-0.4,0.1-0.8,0.2-1.2l-52.7-29.7l-0.1-46.1c-2.5-0.9-3.7-3.7-2.8-6.2c0.5-1.3,1.5-2.3,2.8-2.8v0h0.2
	c0.4-0.2,0.9-0.2,1.4-0.2c0.5,0,0.9,0.1,1.3,0.2h0l0,0c2.5,0.9,3.9,3.6,3,6.1c-0.5,1.4-1.6,2.5-3,3l0.1,44.3l51.4,28.9
	c0.8-0.7,1.8-1,2.8-1c2.6,0.1,4.7,2.3,4.6,5C167.1,361,165.1,363.1,162.6,363.1L162.6,363.1z M375.5,322l-131.3,72L114.5,320
	l0-149.6l128.1-75.1l133,75.7L375.5,322L375.5,322z M383.2,217.6c-2.4,0-4.4-1.9-4.4-4.3c0,0,0,0,0,0c0-1.9,1.3-3.5,3.1-4l0.1-43
	l-52.7-28.5c-0.7,0.4-1.5,0.7-2.3,0.7c-2.4,0-4.3-1.9-4.4-4.3c0.1-2.4,2.1-4.3,4.6-4.3c2.3,0.1,4.2,2,4.3,4.3c0,0.5-0.1,1-0.3,1.5
	l53.7,29.1l-0.1,44.6c1.8,0.6,3,2.2,3,4C387.6,215.7,385.6,217.6,383.2,217.6L383.2,217.6z M358.9,310.2V179.5L244,246l0,127.1
	L358.9,310.2L358.9,310.2z M331,298.6l0.1,1.3l-0.7,0.9l-9.5,5l-1.4,0.7l-1.1-1.3l-15.9-18.5l-16.6,37.9l-13.8,7.8l-1.5,0.4
	l-1.1-0.8l24.3-55.5l-21.9-25l-0.1-1.3l1.8-1.4l9.3-5.3l16.5,19.2l16.6-38.8l13.8-8l2.1,0.9l-0.1,0.7l-23.2,55.1L331,298.6z
	 M132.1,178.5v130.9l112,63.6l0-127.1L132.1,178.5L132.1,178.5L132.1,178.5z M215.6,258.8c0,1-0.4,1.9-1.2,2.6l-44.1,34
	c-0.6,0.5-0.5,1.4,0.4,1.9l40.4,23.6c0.9,0.6,1.5,1.5,1.6,2.6l0.2,8.9c0,0.9-1.7,0.7-2.6,0.1l-52.7-31.2c-0.9-0.6-1.4-1.5-1.5-2.6
	l-0.1-8.8c0.1-0.9,1.4-2,2.1-2.5l43.5-33.8c0.7-0.5,0.5-1-0.4-1.6l-38-22.7c-0.9-0.6-1.5-1.6-1.6-2.7l-0.1-8.3
	c0-0.9,1.2-1.2,2.1-0.6l50.1,29.7c1,0.7,1.7,1.8,2,3.1L215.6,258.8z M283.4,176.8c-9.2-6.4-21.3-3.9-29.6,0.2l-21.7,12.5
	c9.8,5.4,16.2,9.5,23.7,13.7c10.2-5.5,9.9-5.4,23.8-12.9C279.6,190.4,293.3,184.2,283.4,176.8L283.4,176.8z M241.9,157.7
	c-4.9-3.2-13.3-2-19,1.3c-3.4,2-13.7,8.1-20.9,12.3c6.2,3.5,10.9,6.8,19.3,11.6c6.3-3.2,6-3,22.3-12.7
	C243.5,170.3,251.9,164.2,241.9,157.7L241.9,157.7z M243.5,113.9l-111.5,64.6L244,246l114.9-66.5L243.5,113.9z M304.9,200.8l-6.7,4
	c-0.8,0.4-1.7,0.4-2.5,0l-8.3-4.6c-3,1.8-6,3.5-8.9,5.2l8.1,4.8c0.4,0.2,0.6,0.6,0.5,1c-0.1,0.2-0.2,0.4-0.5,0.5l-8.3,4.9
	c-0.8,0.4-1.7,0.4-2.5,0l-8.2-5c-6.9,3.9-12.3,7.1-12.3,7.1L178.7,172l10.9-6.5l-8.4-5c-0.4-0.1-0.6-0.6-0.5-1
	c0.1-0.2,0.3-0.4,0.5-0.5l7.8-4.6c0.8-0.4,1.7-0.4,2.5,0l8.4,5l8.7-5.2l-8.4-5.2c-0.4-0.2-0.6-0.6-0.4-1.1c0.1-0.2,0.2-0.4,0.5-0.4
	l6.7-4c0.8-0.4,1.7-0.4,2.5,0l8.6,5.1l1.2-0.7c4.8-2.5,20-4.4,29.3,1c13.4,7.7,10.9,14.9,10.9,14.9s21.2-4.4,36.2,6.9
	c13.8,12,5.2,22,2.9,23.1c-0.5,0.3-1,0.6-1.5,1l8,4.7c0.4,0.2,0.6,0.6,0.5,1C305.3,200.5,305.2,200.7,304.9,200.8L304.9,200.8
	L304.9,200.8z"/>
</svg>
