<svg id="BZX" xmlns="http://www.w3.org/2000/svg" width="512" height="512" viewBox="0 0 512 512">
  <defs>
    <style>
      .cls-1, .cls-2 {
        fill-rule: evenodd;
      }

      .cls-2 {
        fill: #fff;
      }
    </style>
  </defs>
  <path id="Full" class="cls-1" d="M11,256c0,135.094,109.906,245,245,245S501,391.094,501,256,391.094,11,256,11,11,120.906,11,256Z"/>
  <path id="BZX-2" data-name="BZX" class="cls-2" d="M253.567,89.007L111.049,173.039,111,341.546,255.092,424l145.893-82.281L401,171.627,253.568,89v0.007Zm-80,285.139a4.708,4.708,0,0,1-4.624-4.787,4.932,4.932,0,0,1,.178-1.241l-52.69-29.681L116.3,292.3a4.8,4.8,0,0,1-.024-8.98v-0.046h0.168a4.475,4.475,0,0,1,1.367-.243,4.129,4.129,0,0,1,1.329.236h0.027v0a4.8,4.8,0,0,1,.032,9.08l0.126,44.344L170.73,365.62a4.533,4.533,0,0,1,2.835-1.028A4.78,4.78,0,0,1,173.564,374.146ZM386.5,333.009L255.154,404.984l-129.7-73.94,0.042-149.55,128.079-75.117,132.986,75.671L386.5,333.009h0Zm7.738-104.415a4.352,4.352,0,0,1-4.42-4.287,4.293,4.293,0,0,1,3.062-4.042l0.074-43.043-52.713-28.47a4.517,4.517,0,0,1-2.335.663,4.466,4.466,0,0,1-4.42-4.287,4.414,4.414,0,0,1,8.824.023,4.083,4.083,0,0,1-.3,1.493L395.728,175.7l-0.084,44.585a4.288,4.288,0,0,1,2.993,4.044A4.342,4.342,0,0,1,394.235,228.594ZM369.9,321.19V190.467L255,257l0.019,127.1L369.9,321.186Zm-27.911-11.6,0.081,1.265-0.722.936-9.46,5.047-1.383.738-1.141-1.326-15.914-18.51-16.582,37.914-13.841,7.814-1.538.438-1.126-.829,24.316-55.529-21.89-25.02-0.1-1.291,1.768-1.419,9.346-5.252,16.453,19.186,16.566-38.759,13.753-8,2.073,0.934-0.119.684L319.3,283.746ZM143.058,189.533V320.45L255.023,384.1,255,257,143.058,189.535v0Zm83.523,80.315a3.583,3.583,0,0,1-1.153,2.578L181.369,306.38c-0.647.5-.469,1.355,0.407,1.893l40.387,23.595a3.6,3.6,0,0,1,1.632,2.618l0.2,8.884c0.017,0.922-1.74.69-2.622,0.147L168.7,312.268a3.142,3.142,0,0,1-1.472-2.588l-0.116-8.826c0.062-.9,1.405-2.042,2.059-2.546l43.486-33.8c0.655-.511.493-1.006-0.38-1.566l-37.952-22.725a3.714,3.714,0,0,1-1.6-2.673l-0.143-8.329c-0.02-.905,1.213-1.2,2.077-0.639l50.123,29.7a5.075,5.075,0,0,1,1.977,3.062Zm67.843-82.032c-9.181-6.438-21.278-3.917-29.574.226l-21.724,12.514c9.763,5.428,16.219,9.5,23.664,13.657,10.177-5.516,9.924-5.373,23.789-12.857C290.579,201.356,304.308,195.169,294.424,187.816Zm-41.571-19.1c-4.947-3.214-13.283-2.024-18.973,1.3-3.367,1.978-13.741,8.059-20.9,12.336,6.155,3.524,10.88,6.773,19.26,11.625,6.343-3.213,6.033-3.044,22.269-12.712C254.507,181.273,262.9,175.241,252.853,168.72Zm1.691-43.786-111.493,64.6L255,257l114.9-66.533Zm61.4,86.849-6.72,4.036a2.812,2.812,0,0,1-2.526.042l-8.252-4.552c-3.014,1.793-6,3.54-8.86,5.194l8.14,4.815a0.793,0.793,0,0,1,0,1.485l-8.337,4.95a2.656,2.656,0,0,1-2.488-.012l-8.245-5.023c-6.886,3.86-12.255,7.066-12.255,7.066l-76.705-46.829,10.883-6.5-8.447-5a0.785,0.785,0,0,1,0-1.474l7.834-4.605a2.706,2.706,0,0,1,2.5,0l8.374,4.955,8.738-5.224-8.4-5.208a0.816,0.816,0,0,1,.013-1.514l6.718-4.022a2.706,2.706,0,0,1,2.5-.011l8.635,5.108,1.152-.691c4.808-2.491,20.022-4.355,29.344.972,13.4,7.659,10.876,14.881,10.876,14.881s21.233-4.394,36.157,6.853c13.809,12.006,5.156,21.959,2.9,23.118-0.514.323-1.033,0.642-1.55,0.965l8.015,4.744a0.792,0.792,0,0,1,0,1.484h0Z"/>
</svg>
