<?xml version="1.0" encoding="UTF-8" standalone="no"?>
<svg
   xmlns:dc="http://purl.org/dc/elements/1.1/"
   xmlns:cc="http://creativecommons.org/ns#"
   xmlns:rdf="http://www.w3.org/1999/02/22-rdf-syntax-ns#"
   xmlns:svg="http://www.w3.org/2000/svg"
   xmlns="http://www.w3.org/2000/svg"
   xmlns:sodipodi="http://sodipodi.sourceforge.net/DTD/sodipodi-0.dtd"
   xmlns:inkscape="http://www.inkscape.org/namespaces/inkscape"
   width="236"
   height="236"
   version="1.1"
   id="svg17"
   sodipodi:docname="C98_BEP20.svg"
   inkscape:version="1.0.2-2 (e86c870879, 2021-01-15)">
  <metadata
     id="metadata12">
    <rdf:RDF>
      <cc:Work
         rdf:about="">
        <dc:format>image/svg+xml</dc:format>
        <dc:type
           rdf:resource="http://purl.org/dc/dcmitype/StillImage" />
      </cc:Work>
    </rdf:RDF>
  </metadata>
  <sodipodi:namedview
     id="namedview19"
     pagecolor="#ffffff"
     bordercolor="#666666"
     borderopacity="1.0"
     inkscape:pageshadow="2"
     inkscape:pageopacity="0.0"
     inkscape:pagecheckerboard="0"
     showgrid="false"
     inkscape:zoom="3.4101562"
     inkscape:cx="117.99906"
     inkscape:cy="117.99905"
     inkscape:window-width="1920"
     inkscape:window-height="1017"
     inkscape:window-x="-8"
     inkscape:window-y="-8"
     inkscape:window-maximized="1"
     inkscape:current-layer="svg17"
     inkscape:document-rotation="0" />
  <defs
     id="defs7">
    <linearGradient
       id="A"
       x1="-40"
       y1="-56.569"
       x2="40"
       y2="-56.569"
       gradientUnits="userSpaceOnUse">
      <stop
         offset="0"
         stop-color="#f1d961"
         id="stop2" />
      <stop
         offset="1"
         stop-color="#cda146"
         id="stop4" />
    </linearGradient>
  </defs>
  <g
     transform="matrix(2.95,0,0,2.95,-9.5484885e-4,-9.5484885e-4)"
     id="g15">
    <circle
       cx="0"
       cy="-56.569"
       r="40"
       transform="rotate(135)"
       fill="url(#A)"
       paint-order="stroke fill markers"
       id="circle11"
       style="fill:url(#A)" />
    <path
       d="M 28.582,22.5 A 10.941,10.941 0 1 0 39.532,33.45 10.956,10.956 0 0 0 28.582,22.5 Z m 0,17.4 a 6.456,6.456 0 1 1 6.456,-6.455 6.477,6.477 0 0 1 -6.456,6.455 z m 32.254,-8.04 a 9.21,9.21 0 0 1 -1.15,4.477 12.567,12.567 0 0 0 -3.928,-2.165 4.93,4.93 0 0 0 0.584,-2.312 4.871,4.871 0 0 0 -9.742,0 4.726,4.726 0 0 0 0.584,2.312 12.583,12.583 0 0 0 -3.929,2.165 9.349,9.349 0 0 1 8.219,-13.837 9.372,9.372 0 0 1 9.362,9.36 z m -9.362,3.788 A 10.941,10.941 0 1 0 62.406,46.6 10.963,10.963 0 0 0 51.474,35.648 Z m 0,17.388 a 6.447,6.447 0 1 1 6.455,-6.436 6.455,6.455 0 0 1 -6.455,6.436 z m -13.53,-4.868 a 9.365,9.365 0 0 1 -18.73,0 h 4.494 a 4.871,4.871 0 1 0 9.742,0 z"
       fill="#252525"
       id="path13" />
  </g>
</svg>
