<svg xmlns="http://www.w3.org/2000/svg" width="256" height="256" xmlns:v="https://vecta.io/nano"><defs><linearGradient id="A" x1="-40" y1="-56.569" x2="40" y2="-56.569" gradientUnits="userSpaceOnUse"><stop offset="0" stop-color="#f1d961"/><stop offset="1" stop-color="#cda146"/></linearGradient></defs><path d="M128 11.485C63.753 11.485 11.485 63.753 11.485 128S63.753 244.515 128 244.515 244.515 192.247 244.515 128 192.247 11.485 128 11.485M128 0c70.527 0 128 57.468 128 128s-57.468 128-128 128S0 198.53 0 128 57.473 0 128 0z" fill="#474747"/><g transform="matrix(2.95 0 0 2.95 9.999988 9.999996)"><circle cx="0" cy="-56.569" r="40" transform="rotate(135)" fill="url(#A)" paint-order="stroke fill markers"/><path d="M28.582 22.5a10.941 10.941 0 1 0 10.95 10.95 10.956 10.956 0 0 0-10.95-10.95zm0 17.4a6.456 6.456 0 1 1 6.456-6.455 6.477 6.477 0 0 1-6.456 6.455zm32.254-8.04a9.21 9.21 0 0 1-1.15 4.477 12.567 12.567 0 0 0-3.928-2.165 4.93 4.93 0 0 0 .584-2.312 4.871 4.871 0 0 0-9.742 0 4.726 4.726 0 0 0 .584 2.312 12.583 12.583 0 0 0-3.929 2.165A9.349 9.349 0 0 1 51.474 22.5a9.372 9.372 0 0 1 9.362 9.36zm-9.362 3.788A10.941 10.941 0 1 0 62.406 46.6a10.963 10.963 0 0 0-10.932-10.952zm0 17.388a6.447 6.447 0 1 1 6.455-6.436 6.455 6.455 0 0 1-6.455 6.436zm-13.53-4.868a9.365 9.365 0 0 1-18.73 0h4.494a4.871 4.871 0 1 0 9.742 0z" fill="#252525"/></g></svg>