<svg xmlns="http://www.w3.org/2000/svg" width="245" height="245" viewBox="0 0 245 245">
  <g id="cake_logo" transform="translate(-874 -625)">
    <circle id="path1530" cx="122.5" cy="122.5" r="122.5" transform="translate(874 625)" fill="#d1884f"/>
    <path id="Path_33" data-name="Path 33" d="M27.075,23.75A19.9,19.9,0,1,1,66.5,19.95v24.7c2.85,0,5.7-.475,8.55-.475a46.085,46.085,0,0,1,8.075.475V19.95A20.07,20.07,0,0,1,103.075,0c12.35,0,21.85,11.4,19.95,23.75L117.8,52.725c18.525,8.075,32.775,22.325,32.775,39.9V103.55c0,14.725-9.5,27.075-23.275,35.15C113.525,147.25,95.475,152,75.05,152s-38.475-4.75-52.25-13.3C9.5,130.625,0,118.275,0,103.55V92.625C0,75.05,13.775,60.8,32.3,52.725Zm83.6,32.775,6.175-34.2A14.04,14.04,0,0,0,103.075,5.7,13.785,13.785,0,0,0,89.3,19.475v31.35a27.084,27.084,0,0,0-6.175-.475c-2.85,0-5.225-.475-8.075-.475a51.626,51.626,0,0,0-8.55.475c-1.9,0-4.275.475-6.175.475V19.95A13.7,13.7,0,1,0,33.25,22.8L39.425,57c-19.95,7.6-33.25,20.9-33.25,36.1v10.925C6.175,127.3,37.05,146.3,75.05,146.3s68.875-19,68.875-42.275V93.1C144.4,77.425,131.1,64.125,110.675,56.525Z" transform="translate(921.212 667.323)" fill="#fff" fill-rule="evenodd"/>
    <path id="Subtraction_3" data-name="Subtraction 3" d="M68.875,139.65a106.419,106.419,0,0,1-26.793-3.332,80.521,80.521,0,0,1-21.895-9.077A48.421,48.421,0,0,1,5.418,113.8,28.618,28.618,0,0,1,0,97.375V87.25c.139,11.137,7.308,21.628,20.188,29.54,13.027,8,30.318,12.41,48.688,12.41s35.66-4.407,48.688-12.41,20.188-18.6,20.188-29.866c0-.157,0-.316,0-.474h.479V97.375h-.474a28.619,28.619,0,0,1-5.418,16.425,48.421,48.421,0,0,1-14.77,13.441,80.521,80.521,0,0,1-21.895,9.077A106.419,106.419,0,0,1,68.875,139.65Z" transform="translate(927.387 674.498)" fill="#fff"/>
    <path id="Path_37" data-name="Path 37" d="M23.8,27.9c0,6.175-3.325,11.4-7.6,11.4S8.6,34.075,8.6,27.9s3.325-11.4,7.6-11.4S23.8,21.725,23.8,27.9Z" transform="translate(953.462 729.198)" fill="#fff"/>
    <path id="Path_34" data-name="Path 34" d="M34.9,27.9c0,6.175-3.325,11.4-7.6,11.4s-7.6-5.225-7.6-11.4,3.325-11.4,7.6-11.4S34.9,21.725,34.9,27.9Z" transform="translate(995.087 729.198)" fill="#fff"/>
  </g>
</svg>
