<svg xmlns="http://www.w3.org/2000/svg" xmlns:xlink="http://www.w3.org/1999/xlink" width="250" height="250" xmlns:v="https://vecta.io/nano"><defs><linearGradient id="A" x1="17.337" x2="80" y1="74.339" y2="74.339" xlink:href="#H"><stop offset="0" stop-color="#700000"/><stop offset=".327" stop-color="#730000"/><stop offset=".59" stop-color="#7d0000"/><stop offset=".83" stop-color="#8e0000"/><stop offset="1" stop-color="#9f0000"/></linearGradient><linearGradient id="B" x1="17.586" x2="17.586" y1="68.427" y2="80.044" xlink:href="#H"><stop offset=".35" stop-color="#dfdfdf"/><stop offset=".645" stop-color="#ddd"/><stop offset=".752" stop-color="#d6d6d6"/><stop offset=".828" stop-color="#cbcbcb"/><stop offset=".889" stop-color="#bababa"/><stop offset=".941" stop-color="#a4a4a4"/><stop offset=".987" stop-color="#898989"/><stop offset="1" stop-color="gray"/></linearGradient><linearGradient id="C" x1="48.669" x2="48.669" y1="68.69" y2="80" xlink:href="#H"><stop offset=".35" stop-color="#cf2000"/><stop offset=".645" stop-color="#cd1f00"/><stop offset=".752" stop-color="#c61d00"/><stop offset=".828" stop-color="#bb1900"/><stop offset=".889" stop-color="#aa1300"/><stop offset=".941" stop-color="#940c00"/><stop offset=".987" stop-color="#790300"/><stop offset="1" stop-color="#700000"/></linearGradient><linearGradient xlink:href="#B" id="D" x1="46.827" x2="46.827" y1="68.69" y2="80"/><linearGradient id="E" x1="17.337" x2="80" y1="55.315" y2="55.315" xlink:href="#H"><stop offset="0" stop-color="#cf2000"/><stop offset=".021" stop-color="#d12201"/><stop offset=".244" stop-color="#e23309"/><stop offset=".487" stop-color="#ec3d0e"/><stop offset=".791" stop-color="#ef4010"/><stop offset=".841" stop-color="#ec3d0f"/><stop offset=".882" stop-color="#e2330d"/><stop offset=".919" stop-color="#d12208"/><stop offset=".954" stop-color="#b90a03"/><stop offset=".966" stop-color="#af0000"/><stop offset="1" stop-color="#ef4010"/></linearGradient><linearGradient id="F" x1="17.337" x2="80" y1="55.687" y2="55.687" xlink:href="#H"><stop offset="0" stop-color="#dfdfdf"/><stop offset=".021" stop-color="#e1e1e1"/><stop offset=".244" stop-color="#f2f2f2"/><stop offset=".487" stop-color="#fcfcfc"/><stop offset=".791" stop-color="#fff"/><stop offset=".841" stop-color="#fcfcfc"/><stop offset=".882" stop-color="#f2f2f2"/><stop offset=".919" stop-color="#e1e1e1"/><stop offset=".954" stop-color="#c9c9c9"/><stop offset=".966" stop-color="#bfbfbf"/><stop offset="1" stop-color="#fff"/></linearGradient><linearGradient xlink:href="#B" id="G"/><linearGradient id="H" gradientUnits="userSpaceOnUse"/></defs><circle cx="125" cy="125" r="125" fill="#cdcdcd" fill-rule="evenodd"/><g transform="matrix(2.41095 0 0 2.417357 27.123882 21.609125)"><path fill="#0e3ca5" d="M32.585 59.261c2 7.4 9.176 13.044 12.8 12.811.127-.008 13.745-2.547 21.2-15 5.8-9.693 3.826-19.051-4.064-19.255-2.839.207-33.745 7.348-29.934 21.446m29.198-47.528l-.008-.006.011-.007a34.628 34.628 0 0 0-36.5-5.266A20.417 20.417 0 0 0 23.1 7.53c-.486.259-.972.516-1.444.8l.115.035a15.78 15.78 0 0 0-3.655 3.46C8.172 24.953 41.486 34.5 59.3 34.529c8.191 5.882 10.491-16.561 2.485-22.794z"/><path fill="#5493f7" d="M27.3 12C22.723 18.88 7.478 23.727 4.971 22.973l-.017-.032q.155-.312.313-.619a36.682 36.682 0 0 1 10.87-12.683q1.407-1.032 2.913-1.929a10.777 10.777 0 0 1 5.04-1.342c6.789.132 3.244 5.579 3.21 5.632m-3.756 48.614c.329 2.161-.008 10.7-.45 11.417-.381.024-1.174.072-3.471-1.217a36.2 36.2 0 0 1-3.486-2.262A36.513 36.513 0 0 1 3.054 50.631a36.275 36.275 0 0 1-1.383-5.616 36.9 36.9 0 0 1 0-11.841 36.3 36.3 0 0 1 1.383-5.616c.122-.366.25-.731.383-1.092 2.631 3.5 5.676 6.665 8.264 10.2 2.465 3.366 5.856 8.852 6.546 10.024 4.284 7.278 4.967 11.768 5.294 13.926m50.648-21.522A36.4 36.4 0 0 1 71.648 52.5c-4.3 4.621-33.283-6.753-33.567-6.877C34.116 43.886 22.05 38.6 20.961 30.3 19.4 18.351 43.63 10.027 54.28 9.711c1.277.015 5.163.061 7.429 1.9a36.411 36.411 0 0 1 12.48 27.482M54.568 71.467c-3.16 1.474-6.638.4-5.734-2.677 1.735-5.908 16.886-11.966 20.232-12.3.413-.04.588.241.405.562a36.87 36.87 0 0 1-14.9 14.41"/><path fill="url(#A)" d="M17.337 77.255a2.55 2.55 0 0 0 2.328 2.713c30.7.211 60.335-1.2 60.335-5.8 0-13.924-62.663 3.087-62.663 3.087z"/><path fill="url(#G)" d="M17.588 78.389v-.007z"/><path fill="url(#C)" d="M61.521 68.919l5.5 5.5c7.72-1.257 12.5-1.8 12.5-.12 0 4.245-29.171 5.7-59.841 5.494a2.19 2.19 0 0 1-.244-.014 2.356 2.356 0 0 1-1.846-1.389v-.007a2.828 2.828 0 0 1-.138-.367 2.689 2.689 0 0 0 .138.367v.007a2.33 2.33 0 0 0 2.087 1.387c3.822-.024 7.622-.191 11.344-.459l-4.386-4.385-9.3 2.323a2.548 2.548 0 0 0 2.34 2.713c30.691.234 60.286-.73 60.323-5.8.002-5.006-8.098-6.014-18.477-5.25z"/><path fill="url(#D)" d="M67.021 74.418l-5.5-5.5c-11.475.844-25.726 3.852-34.888 6.013l4.386 4.385c14.059-1.008 27.021-3.435 36.002-4.898z"/><path fill="url(#E)" d="M19.68 37.824a2.342 2.342 0 0 0-2.343 2.343v37.088a2.343 2.343 0 0 0 2.328 2.345C50.364 79.371 80.038 69.21 80 74.17V32.4c.038-4.966-29.626 5.194-60.32 5.424z"/><path fill="url(#F)" d="M30.816 37.341v41.773c13.841-1.051 26.717-3.561 35.821-5.079V32.26c-9.104 1.518-21.98 4.029-35.821 5.081zM61.15 58.089l-1.811 1.785-2.1 2.072a1.179 1.179 0 0 0-.355 1.128l.685 2.133c-.9.051-1.762.079-2.619.1l-2.566.031-2.633.071c-.239.011-.6.478-.6.755l.071 2.855.062 2.49.073 2.854-1.311.2.124-2.89.11-2.521.124-2.89c0-.275-.4-.611-.635-.549l-2.629.707-2.574.715c-.861.235-1.729.462-2.63.669l.688-2.332a.935.935 0 0 0-.358-1.025l-2.734-1.913-2.39-1.7-2.737-1.968 1.628-.907c.716-.323.516-.706.26-1.649a741.01 741.01 0 0 1-.6-2.119l-.6-2.12 2.284.267 2.287.249a.792.792 0 0 0 .811-.571l.587-2.112 1.8 1.808 1.8 1.793c.515.58 1.557.445 1.233-1l-.538-2.773-.47-2.421-.538-2.776 2.075.8a1.044 1.044 0 0 0 1.488-.4l1.426-2.861 1.415-2.871 2.86 4.874c.324.527.907.384 1.487-.032l2.064-1.4-.535 2.931-.468 2.556-.536 2.929c-.324 1.543.714 1.378 1.225.648l1.79-2.319 1.8-2.324.585 1.947a.588.588 0 0 0 .809.345l2.275-.871 2.27-.877-.6 2.279-.595 2.28c-.255 1.01-.456 1.448.256 1.578l1.618.476-2.1 2.082-1.808 1.784z"/></g></svg>