<svg id="CDT" xmlns="http://www.w3.org/2000/svg" width="512" height="512" viewBox="0 0 512 512">
<defs>
    <style>
      .cls-1 {
        fill: #047fff;
      }

      .cls-1, .cls-2 {
        fill-rule: evenodd;
      }

      .cls-2 {
        fill: #fff;
      }
    </style>
  </defs>
  <path id="Full" class="cls-1" d="M11,256c0,135.094,109.906,245,245,245S501,391.094,501,256,391.094,11,256,11,11,120.906,11,256Z"/>
  <path id="Blox" class="cls-2" d="M126,180.626l130,76.125V408h4l121-69.114s9-4.28,9-16.026V278.787l-24,14.024v17.028c0.068,7.092-.782,10.762-6,14.023-4.711,2.78-69.261,39.538-72,41.067s-8,3.283-8-5.008V242.728s-98.549-57.157-102-59.1c-5.5-3.984-3.641-8.448-1-10.016,2.574-1.559,67.947-38.86,72-41.068,5.748-2.693,11.067-1.783,14,0s17,11.018,17,11.018l23-15.025s-31.025-18.871-36-22.036a23.728,23.728,0,0,0-23,1c-5.178,2.873-97.02,55.719-115,67.11C124.856,178.022,126,180.626,126,180.626Zm-3,13.021,22,14.024V310.84c0,7.882,5,11.018,5,11.018l93,55.091v26.043L131,337.885s-9-4.282-9-14.023S123,193.647,123,193.647Zm171-44.072,23-14.023s47.3,27.83,58,34.056c10.082,5.869,14,8.583,14,24.039s1,68.112,1,68.112l-24,14.024V207.671c0-16.384-16-25.042-16-25.042Z"/>
</svg>
