<?xml version="1.0" encoding="utf-8"?>
<!-- Generator: Adobe Illustrator 22.0.0, SVG Export Plug-In . SVG Version: 6.00 Build 0)  -->
<svg version="1.1" id="CDT" xmlns="http://www.w3.org/2000/svg" xmlns:xlink="http://www.w3.org/1999/xlink" x="0px" y="0px"
	 viewBox="0 0 490 490" style="enable-background:new 0 0 490 490;" xml:space="preserve">
<style type="text/css">
	.st0{fill:#047FFF;}
	.st1{fill:#FFFFFF;}
</style>
<path id="Full" class="st0" d="M0,245c0,135.1,109.9,245,245,245s245-109.9,245-245S380.1,0,245,0S0,109.9,0,245z"/>
<path id="Blox" class="st1" d="M115,169.6l130,76.1V397h4l121-69.1c0,0,9-4.3,9-16v-44.1l-24,14v17c0.1,7.1-0.8,10.8-6,14
	c-4.7,2.8-69.3,39.5-72,41.1s-8,3.3-8-5V231.7c0,0-98.5-57.2-102-59.1c-5.5-4-3.6-8.4-1-10c2.6-1.6,67.9-38.9,72-41.1
	c5.7-2.7,11.1-1.8,14,0s17,11,17,11l23-15c0,0-31-18.9-36-22c-7.3-3.7-16-3.3-23,1c-5.2,2.9-97,55.7-115,67.1
	C113.9,167,115,169.6,115,169.6z M112,182.6l22,14v103.2c0,7.9,5,11,5,11l93,55.1v26l-112-65.1c0,0-9-4.3-9-14S112,182.6,112,182.6z
	 M283,138.6l23-14c0,0,47.3,27.8,58,34.1c10.1,5.9,14,8.6,14,24s1,68.1,1,68.1l-24,14v-68.1c0-16.4-16-25-16-25L283,138.6z"/>
</svg>
