<?xml version="1.0" encoding="UTF-8" standalone="no"?>
<svg
   xmlns:dc="http://purl.org/dc/elements/1.1/"
   xmlns:cc="http://creativecommons.org/ns#"
   xmlns:rdf="http://www.w3.org/1999/02/22-rdf-syntax-ns#"
   xmlns:svg="http://www.w3.org/2000/svg"
   xmlns="http://www.w3.org/2000/svg"
   id="svg1743"
   version="1.1"
   viewBox="0 0 67.733332 67.733335"
   height="256"
   width="256">
  <defs
     id="defs1737" />
  <metadata
     id="metadata1740">
    <rdf:RDF>
      <cc:Work
         rdf:about="">
        <dc:format>image/svg+xml</dc:format>
        <dc:type
           rdf:resource="http://purl.org/dc/dcmitype/StillImage" />
        <dc:title></dc:title>
      </cc:Work>
    </rdf:RDF>
  </metadata>
  <g
     transform="translate(0,-229.26665)"
     id="layer1">
    <g
       id="g2555">
      <circle
         style="opacity:1;fill:#f6f7ff;fill-opacity:1;fill-rule:nonzero;stroke:none;stroke-width:0.73467046;stroke-linecap:round;stroke-linejoin:round;stroke-miterlimit:4;stroke-dasharray:none;stroke-dashoffset:0;stroke-opacity:1;paint-order:stroke fill markers"
         id="path2501"
         cx="33.782768"
         cy="263.10535"
         r="23.155739" />
      <g
         style="fill:#262761"
         id="g2499"
         transform="matrix(1.4477118,0,0,1.4477118,1.3255624,230.68945)">
        <g
           id="Page-1"
           style="fill-rule:evenodd;stroke:none;stroke-width:1">
          <g
             id="Celsius_Website_Logo_Filled"
             style="fill-rule:nonzero">
            <circle
               r="1.119403"
               cy="17.507463"
               cx="33.671642"
               id="Oval" />
            <path
               id="Shape"
               d="m 22.477612,0.02238806 c -12.358209,0 -22.38805976,10.02985094 -22.38805976,22.38805994 0,12.358209 10.02985076,22.388059 22.38805976,22.388059 12.358209,0 22.38806,-10.02985 22.38806,-22.388059 0,-12.358209 -10.029851,-22.38805994 -22.38806,-22.38805994 z M 32.641791,31.768657 C 30,34.679104 26.238806,36.358209 22.343284,36.358209 h -0.02239 c -3.962686,0 -7.746268,-1.701493 -10.388059,-4.656717 -2.6865673,-3 -3.9179106,-6.850746 -3.4925375,-10.858208 C 9.1343284,14.440299 14.283582,9.2686567 20.686567,8.5298508 c 0.537314,-0.067164 1.097015,-0.089552 1.634328,-0.089552 3.089553,0 6.044777,1.0074627 8.507463,2.9104472 0.156717,0.111941 0.246269,0.291045 0.246269,0.492538 0,0.201492 -0.06716,0.380597 -0.223881,0.514925 l -1.477612,1.320895 c -0.156716,0.134329 -0.358209,0.223881 -0.582089,0.223881 -0.179105,0 -0.358209,-0.04478 -0.492538,-0.156716 -1.768656,-1.231344 -3.850746,-1.880597 -5.977612,-1.880597 -3,0 -5.865671,1.298507 -7.858208,3.537313 -2.014926,2.261194 -2.955224,5.19403 -2.597015,8.216418 0.537313,4.813433 4.432835,8.708955 9.268656,9.246269 0.402985,0.04478 0.80597,0.06716 1.208956,0.06716 2.820895,0 5.462686,-1.119403 7.477611,-3.134329 0.156717,-0.156716 0.380597,-0.268656 0.626866,-0.268656 0.156717,0 0.335821,0.04478 0.470149,0.134328 l 1.634329,1.074627 c 0.156716,0.11194 0.268656,0.268657 0.291045,0.470149 0,0.223881 -0.06716,0.425373 -0.201493,0.559702 z M 33.671642,20.88806 c -1.858209,0 -3.380597,-1.522388 -3.380597,-3.380597 0,-1.858209 1.522388,-3.380597 3.380597,-3.380597 1.858209,0 3.380597,1.522388 3.380597,3.380597 0,1.858209 -1.522388,3.380597 -3.380597,3.380597 z" />
          </g>
        </g>
      </g>
    </g>
  </g>
</svg>
