<?xml version="1.0" encoding="utf-8"?>
<!-- Generator: Adobe Illustrator 22.0.0, SVG Export Plug-In . SVG Version: 6.00 Build 0)  -->
<svg version="1.1" id="CELR" xmlns="http://www.w3.org/2000/svg" xmlns:xlink="http://www.w3.org/1999/xlink" x="0px" y="0px"
	 viewBox="0 0 490 490" style="enable-background:new 0 0 490 490;" xml:space="preserve">
<style type="text/css">
	.st0{fill:#FFFFFF;}
</style>
<path id="Full" d="M0,245c0,135.1,109.9,245,245,245s245-109.9,245-245S380.1,0,245,0S0,109.9,0,245z"/>
<path id="Celer" class="st0" d="M396.8,231.9c2.9-7.8,14.8-11.6,22-11.6h3.3v17.4c-4.1,0-8.3-0.2-12.2,1.1c-2.7,0.9-5.2,2.5-7,4.8
	c-3.3,4.5-3.1,7.4-3.3,11.6c-0.2,4.1-0.1,7-0.1,11.1v30.8h-18.9v-76.1h16.4L396.8,231.9z M167.4,279.2
	C153.9,292.6,142.2,299,123,299c-32,0-54-22.5-54-54.1c0-32.5,25-53.9,54.3-53.9c17.1,0,33.4,7.6,44.5,20.6l-13.7,13.2
	c-9.2-9.9-19.3-15-31.3-15c-19.2,0-34.8,14.9-34.8,35.1c0,21.2,15.1,35.4,35.3,35.4c12.6,0,21.2-5.2,30.9-14.9L167.4,279.2z
	 M248.3,282.1c-8.1,11.6-18.8,16.8-34.7,16.8c-24,0-39.5-17.8-39.5-40.1c0-20.8,14.9-40,39.2-40c23.9,0,40.1,17.2,40.1,41.3
	c0,1.7-0.1,2.6-0.1,4.3h-60.9c1.8,11.3,10.4,17.6,21.2,17.6c8.1,0,13.5-2.3,18.8-7.4L248.3,282.1z M234.4,249.3
	c-2.6-8.9-10.7-14.3-20.8-14.3c-9.4,0-16.6,4.7-20.3,14.3H234.4L234.4,249.3z M263,191.4h18.9v105.5H263L263,191.4L263,191.4z
	 M365.7,282.1c-8.1,11.6-18.8,16.8-34.7,16.8c-24,0-39.5-17.8-39.5-40.1c0-20.8,14.9-40,39.2-40c23.9,0,40.1,17.2,40.1,41.3
	c0,1.7-0.1,2.6-0.1,4.3h-60.9c1.8,11.3,10.4,17.6,21.2,17.6c8.1,0,13.5-2.3,18.8-7.4L365.7,282.1z M351.8,249.3
	c-2.6-8.9-10.7-14.3-20.8-14.3c-9.4,0-16.6,4.7-20.3,14.3H351.8L351.8,249.3z"/>
</svg>
