<svg id="CELR" xmlns="http://www.w3.org/2000/svg" width="512" height="512" viewBox="0 0 512 512">
<defs>
    <style>
      .cls-1, .cls-2 {
        fill-rule: evenodd;
      }

      .cls-2 {
        fill: #fff;
      }
    </style>
  </defs>
  <path id="Full" class="cls-1" d="M11,256c0,135.094,109.906,245,245,245S501,391.094,501,256,391.094,11,256,11,11,120.906,11,256Z"/>
  <path id="Celer" class="cls-2" d="M407.766,242.935c2.853-7.833,14.782-11.552,21.966-11.552H433v17.38c-4.1,0-8.278-.217-12.218,1.135a15.08,15.08,0,0,0-7,4.774c-3.348,4.548-3.069,7.358-3.332,11.624-0.248,4.146-.136,6.98-0.136,11.133v30.832H391.449v-76.1H407.8ZM178.4,290.237C164.883,303.56,153.225,310,134.032,310,102.07,310,80,287.516,80,255.855,80,223.341,105.026,202,134.336,202a58.584,58.584,0,0,1,44.507,20.624L165.171,235.8c-9.245-9.885-19.337-15.037-31.283-15.037-19.177,0-34.831,14.892-34.831,35.09,0,21.2,15.071,35.38,35.263,35.38,12.649,0,21.183-5.152,30.851-14.892Zm80.946,2.842c-8.1,11.608-18.786,16.792-34.7,16.792-24.027,0-39.521-17.758-39.521-40.1,0-20.77,14.926-39.969,39.242-39.969,23.883,0,40.088,17.195,40.088,41.257,0,1.722-.136,2.576-0.136,4.3H203.463c1.846,11.319,10.388,17.614,21.183,17.614,8.1,0,13.512-2.286,18.77-7.446Zm-13.935-32.8c-2.557-8.855-10.66-14.322-20.776-14.322-9.381,0-16.636,4.726-20.328,14.322h41.1Zm28.633-57.864h18.905V307.867H274.039V202.411Zm102.705,90.668c-8.1,11.608-18.77,16.792-34.7,16.792-24.028,0-39.521-17.758-39.521-40.1,0-20.77,14.926-39.969,39.241-39.969,23.884,0,40.1,17.195,40.1,41.257,0,1.722-.144,2.576-0.144,4.3H320.866c1.846,11.319,10.388,17.614,21.183,17.614,8.11,0,13.512-2.286,18.77-7.446Zm-13.936-32.8c-2.557-8.855-10.659-14.322-20.775-14.322-9.381,0-16.628,4.726-20.328,14.322h41.1Z"/>
</svg>
