<svg xmlns="http://www.w3.org/2000/svg" viewBox="0 0 490 490"><defs><style>.a{fill:#10d078;}.b{fill:#fff;}</style></defs><title>Changelly</title><rect class="a" width="490" height="490" rx="60.06" ry="60.06"/><path class="b" d="M428.9,103.71c-28.65,2.43-125.34,14.36-171,66.31-48.36,55-53,77.93-42.4,100.68l31.4-24.86a40.52,40.52,0,0,1,15.73-7.67l41.85-10-10,41.85a40.32,40.32,0,0,1-7.7,15.75l-24.83,31.39c22.75,10.59,45.69,5.95,100.67-42.4C414.53,229,426.46,132.35,428.9,103.71ZM326,349.67c1.66-8.19,5.23-22.16,8.32-33.87-12.75,8.71-24,14.52-34.42,17.7,3.9,7.92,3.94,19.58.09,34.69l-.39,1.49c7.91-4.79,16.83-10.32,22.64-14.3a9,9,0,0,0,3.77-5.71Zm-87-27.12,36.32-45.87a26.12,26.12,0,0,0,4.93-10.09l4.48-18.73L266,252.35a25.78,25.78,0,0,0-10,4.91l-45.91,36.33a16.37,16.37,0,0,0-6.17,13.65l0,.39,0,12.3L256,276.59l-43.34,52.14h12.69A16.34,16.34,0,0,0,239,322.54Zm-74.6-89.9c15.12-3.85,26.78-3.81,34.7.1,3.17-10.43,9-21.68,17.69-34.44-11.71,3.1-25.68,6.67-33.87,8.32a9,9,0,0,0-5.71,3.77c-4,5.8-9.51,14.72-14.3,22.63l1.5-.38Zm272-144.09,7.9-.32-.31,7.9c-.22,5.35-6.05,131.67-71.84,189.53q-9.31,8.24-19,16c-2.3,8.39-10.3,37.84-12.93,50.85a23.59,23.59,0,0,1-9.81,14.85c-12.89,8.87-39.4,24.34-40.53,25l-19.27,11.24,8.92-20.45c5.81-13.39,11.8-35.84,6.87-43.86-.8-1.3-2.14-2.69-5.92-2.91v-.05c-9.47-.17-18.56-2.74-27.88-7.53l-2.2,2.78a30.89,30.89,0,0,1-25.64,11.69l-35.58.07.08-35.58A31,31,0,0,1,201,282.15l2.78-2.19c-4.8-9.32-7.39-18.41-7.54-27.9h-.05c-.22-3.76-1.6-5.1-2.91-5.9-8-4.93-30.47,1.06-43.86,6.86L129,261.91l11.22-19.24c.66-1.12,16.13-27.63,25-40.53a23.54,23.54,0,0,1,14.86-9.81c13-2.63,42.47-10.63,50.85-12.92q7.8-9.69,16-19C304.8,94.6,431.13,88.77,436.47,88.56ZM245.33,378.86a77.39,77.39,0,0,0,8.08-8.61c-3.48,7.18-8.55,13.55-14.06,19.43a116.57,116.57,0,0,1-18.55,15.65,138.84,138.84,0,0,1-21.29,11.93c-3.71,1.72-7.52,3.18-11.33,4.64-3.86,1.29-7.73,2.63-11.67,3.68-3.91,1.21-7.91,2-11.87,2.93-4,.72-8,1.63-12,2.09l-6,.82-6.07.57c-4,.44-8.1.51-12.16.72A272.92,272.92,0,0,1,80,429.83L67.05,428l8.32-9.88A167.37,167.37,0,0,0,96,388c5.72-10.74,10.34-22.34,14.81-34.1a253.93,253.93,0,0,1,16-35.13c3.13-5.63,6.46-11.13,10.05-16.44A151.54,151.54,0,0,1,148.41,287a334.42,334.42,0,0,0-15.68,34.56,373.1,373.1,0,0,0-11.79,35.72A239.52,239.52,0,0,1,107.82,394a152,152,0,0,1-9.65,17.39c-1.25,1.91-2.53,3.77-3.84,5.61A315.78,315.78,0,0,0,128,418.49c3.83-.11,7.68-.09,11.48-.38l5.74-.31,5.72-.54,2.86-.27,2.84-.38,5.68-.74c3.76-.67,7.56-1.21,11.27-2.08a168.87,168.87,0,0,0,43.2-15.09,134.13,134.13,0,0,0,19.56-12.33A98.4,98.4,0,0,0,245.33,378.86Zm106-159.18a38.41,38.41,0,1,0-27.18-11.24,38.31,38.31,0,0,0,27.18,11.24Zm-16.86-55.3a23.86,23.86,0,1,1-7,16.88A23.76,23.76,0,0,1,334.49,164.38Z" transform="translate(-10 -10)"/></svg>