<svg id="Chatcoin" xmlns="http://www.w3.org/2000/svg" width="256" height="256" viewBox="0 0 512 512">
<defs>
    <style>
      .cls-1 {
        fill: #0a9dfb;
      }

      .cls-1, .cls-2, .cls-4 {
        fill-rule: evenodd;
      }

      .cls-2 {
        fill: none;
        stroke: #fff;
        stroke-linecap: round;
        stroke-linejoin: round;
        stroke-width: 15px;
      }

      .cls-3, .cls-4 {
        fill: #fff;
      }
    </style>
  </defs>
  <path id="Main" class="cls-1" d="M11,256c0,135.094,109.906,245,245,245S501,391.094,501,256,391.094,11,256,11,11,120.906,11,256Z"/>
  <g id="Chatcoin-2" data-name="Chatcoin">
    <path id="Chat1" class="cls-2" d="M184,347c21.322-11.5,49-28,49-28a101.438,101.438,0,0,0,23,0c14.086,1.044,91.561-19.664,93-91-0.19-38.725-33.4-86.719-93-92-66.483-3.994-120,37.331-120,88,0,55.48,46,79,46,79S183.733,331.086,184,347Z"/>
    <circle id="Round1" class="cls-3" cx="196" cy="230" r="17"/>
    <circle id="Round2" class="cls-3" cx="245" cy="230" r="17"/>
    <circle id="Round3" class="cls-3" cx="294" cy="230" r="17"/>
    <path id="Chat2" class="cls-4" d="M247,331s11.007,0.941,18-1c6.594,6.943,29,11,29,11s4.906,0.887,26-2c6.288,2.457,18,7,18,7s-0.835-10.535-1-14c25.99-17.318,26-42,26-42s-1.655-17-7-24a64.109,64.109,0,0,0,4-14s15,11.54,15,39-24.769,45.251-25,47c-0.157,9.107,3.627,20.509,0,22-7.562,3.263-24.863-9.3-32-9a89.772,89.772,0,0,1-17,1C261.954,351.275,247,331,247,331Z"/>
  </g>
</svg>
