<?xml version="1.0" encoding="utf-8"?>
<!-- Generator: Adobe Illustrator 22.0.0, SVG Export Plug-In . SVG Version: 6.00 Build 0)  -->
<svg version="1.1" id="Chatcoin" xmlns="http://www.w3.org/2000/svg" xmlns:xlink="http://www.w3.org/1999/xlink" x="0px" y="0px"
	 viewBox="0 0 245 245" style="enable-background:new 0 0 245 245;" xml:space="preserve">
<style type="text/css">
	.st0{fill:#0A9DFB;}
	.st1{fill:none;stroke:#FFFFFF;stroke-width:7;stroke-linecap:round;stroke-linejoin:round;}
	.st2{fill:#FFFFFF;}
</style>
<path id="Main" class="st0" d="M0,122.5C0,190,55,245,122.5,245S245,190,245,122.5S190,0,122.5,0S0,55,0,122.5z"/>
<g id="Chatcoin-2">
	<path id="Chat1" class="st1" d="M86.5,168c10.7-5.8,24.5-14,24.5-14c3.8,0.4,7.7,0.4,11.5,0c7,0.5,45.8-9.8,46.5-45.5
		c-0.1-19.4-16.7-43.4-46.5-46c-33.2-2-60,18.7-60,44c0,27.7,23,39.5,23,39.5S86.4,160,86.5,168z"/>
	<circle id="Round1" class="st2" cx="92.5" cy="109.5" r="8.5"/>
	<circle id="Round2" class="st2" cx="117" cy="109.5" r="8.5"/>
	<circle id="Round3" class="st2" cx="141.5" cy="109.5" r="8.5"/>
	<path id="Chat2" class="st2" d="M118,160c0,0,5.5,0.5,9-0.5c3.3,3.5,14.5,5.5,14.5,5.5s2.5,0.4,13-1c3.1,1.2,9,3.5,9,3.5
		s-0.4-5.3-0.5-7c13-8.7,13-21,13-21s-0.8-8.5-3.5-12c0.9-2.2,1.6-4.6,2-7c0,0,7.5,5.8,7.5,19.5s-12.4,22.6-12.5,23.5
		c-0.1,4.6,1.8,10.3,0,11c-3.8,1.6-12.4-4.6-16-4.5c-2.8,0.4-5.7,0.6-8.5,0.5C125.5,170.1,118,160,118,160z"/>
</g>
</svg>
