<?xml version="1.0" encoding="UTF-8" standalone="no"?>
<svg
   xmlns:dc="http://purl.org/dc/elements/1.1/"
   xmlns:cc="http://creativecommons.org/ns#"
   xmlns:rdf="http://www.w3.org/1999/02/22-rdf-syntax-ns#"
   xmlns:svg="http://www.w3.org/2000/svg"
   xmlns="http://www.w3.org/2000/svg"
   id="svg996"
   version="1.1"
   viewBox="0 0 67.733332 67.733335"
   height="256"
   width="256">
  <defs
     id="defs990" />
  <metadata
     id="metadata993">
    <rdf:RDF>
      <cc:Work
         rdf:about="">
        <dc:format>image/svg+xml</dc:format>
        <dc:type
           rdf:resource="http://purl.org/dc/dcmitype/StillImage" />
        <dc:title></dc:title>
      </cc:Work>
    </rdf:RDF>
  </metadata>
  <g
     transform="translate(0,-229.26665)"
     id="layer1">
    <g
       id="g1690">
      <circle
         style="opacity:1;fill:#01c38d;fill-opacity:1;fill-rule:nonzero;stroke:none;stroke-width:0.8806985;stroke-linecap:round;stroke-linejoin:round;stroke-miterlimit:4;stroke-dasharray:none;stroke-dashoffset:0;stroke-opacity:1;paint-order:stroke fill markers"
         id="path1545"
         cx="33.866665"
         cy="263.13333"
         r="32.411457" />
      <path
         style="fill:#ffffff;fill-opacity:1;fill-rule:nonzero;stroke-width:1.35470462"
         d="m 39.518752,239.90904 -3.889533,2.16209 v 18.3682 l 2.124077,1.18235 v -13.98863 l 7.291352,4.05457 0.0071,-0.003 1.415747,0.78605 1.181974,-0.65287 v -1.10409 l -9.896112,-5.49532 v -1.91252 l 1.765451,-0.98113 10.248636,5.69975 v 5.073 l -4.919891,2.72038 -0.166149,-0.0804 c -0.299478,-0.14439 -0.609769,-0.21812 -0.921452,-0.21812 -1.170711,0 -2.123616,0.94533 -2.123616,2.10667 0,1.1614 0.952905,2.10715 2.123616,2.10715 1.086213,0 1.98936,-0.81349 2.100612,-1.89199 l 0.01895,-0.18177 4.965424,-2.74558 4.604914,2.5612 v 11.33149 l -4.61008,2.5612 -18.736513,-10.42302 v -18.87202 l -3.889535,-2.16347 -12.371778,6.88071 v 6.27904 l -5.682681,3.15626 v 13.80146 l 5.682681,3.16045 v 6.2902 l 12.371778,6.88072 3.889535,-2.16302 v -18.40778 l -2.124082,-1.18097 v 14.02824 l -8.713664,-4.83783 -1.182445,0.65288 v 1.10456 l 9.896109,5.49575 v 1.91064 l -1.765453,0.9821 -10.248167,-5.69976 v -5.0739 l 4.919891,-2.71899 0.165231,0.0798 c 0.300892,0.14438 0.610233,0.21812 0.921453,0.21812 1.171179,0 2.124082,-0.94482 2.124082,-2.10668 0,-1.16227 -0.952903,-2.10664 -2.124082,-2.10664 -1.085276,0 -1.987482,0.81303 -2.100142,1.89201 l -0.01781,0.18124 -4.96636,2.74604 -4.604915,-2.56165 V 257.4607 l 4.610549,-2.56074 18.736047,10.42164 v 18.87342 l 3.889534,2.16306 12.372244,-6.88071 v -6.27904 l 5.682683,-3.15581 v -13.80191 l -5.682683,-3.15953 v -6.29111 z m -21.553447,8.11518 10.248166,-5.69975 1.765452,0.98158 v 1.9111 l -12.013618,6.67166 z m 1.101707,5.66902 10.911911,-6.06112 v 12.13059 z m 18.686284,12.80998 10.912855,6.07091 -10.912851,6.06113 z m 0,16.45713 v -1.91018 l 12.01409,-6.67252 v 3.86504 l -10.248634,5.69974 z"
         id="path1612" />
    </g>
  </g>
</svg>
