<?xml version="1.0" encoding="UTF-8" standalone="no"?>
<svg
   xmlns:dc="http://purl.org/dc/elements/1.1/"
   xmlns:cc="http://creativecommons.org/ns#"
   xmlns:rdf="http://www.w3.org/1999/02/22-rdf-syntax-ns#"
   xmlns:svg="http://www.w3.org/2000/svg"
   xmlns="http://www.w3.org/2000/svg"
   width="256"
   height="256"
   viewBox="0 0 67.733332 67.733335"
   version="1.1"
   id="svg8">
  <defs
     id="defs2" />
  <metadata
     id="metadata5">
    <rdf:RDF>
      <cc:Work
         rdf:about="">
        <dc:format>image/svg+xml</dc:format>
        <dc:type
           rdf:resource="http://purl.org/dc/dcmitype/StillImage" />
        <dc:title></dc:title>
      </cc:Work>
    </rdf:RDF>
  </metadata>
  <circle
     r="32.411457"
     cy="33.86668"
     cx="33.866665"
     id="path1832"
     style="opacity:1;fill:#cc0124;fill-opacity:1;fill-rule:nonzero;stroke:none;stroke-width:3.90643501;stroke-linecap:round;stroke-linejoin:round;stroke-miterlimit:4;stroke-dasharray:none;stroke-dashoffset:0;stroke-opacity:1;paint-order:stroke fill markers" />
  <g
     transform="matrix(0.92365614,0,0,0.92365614,2.5855123,2.7970142)"
     id="g3625">
    <g
       id="g1011"
       transform="matrix(0.19608435,0,0,-0.19608435,52.099553,18.49835)">
      <path
         d="m 0,0 c 0,-4.765 -3.862,-8.627 -8.627,-8.627 -4.765,0 -8.627,3.862 -8.627,8.627 0,4.765 3.862,8.627 8.627,8.627 C -3.862,8.627 0,4.765 0,0"
         style="fill:#ffffff;fill-opacity:1;fill-rule:nonzero;stroke:none"
         id="path1013" />
    </g>
    <g
       id="g1015"
       transform="matrix(0.19608435,0,0,-0.19608435,50.407933,17.74905)">
      <path
         d="m 0,0 c -2.107,0 -3.821,-1.714 -3.821,-3.821 0,-2.108 1.714,-3.822 3.821,-3.822 2.106,0 3.821,1.714 3.821,3.822 C 3.821,-1.714 2.106,0 0,0 m 0,-17.255 c -7.407,0 -13.434,6.026 -13.434,13.434 0,7.407 6.027,13.433 13.434,13.433 7.407,0 13.433,-6.026 13.433,-13.433 0,-7.408 -6.026,-13.434 -13.433,-13.434"
         style="fill:#ffffff;fill-opacity:1;fill-rule:nonzero;stroke:none"
         id="path1017" />
    </g>
    <g
       id="g1019"
       transform="matrix(0.19608435,0,0,-0.19608435,42.396809,34.72203)">
      <path
         d="m 0,0 -32.932,22.871 62.125,45.076 z m -38.906,-90.555 -39.036,80.766 36.77,26.681 37.3,-25.906 z M -49.535,22.699 -82.192,-0.996 -115.934,68.813 Z M -112.056,77.822 26.343,77.755 -41.294,28.679 Z m 156.775,1.912 3.275,7.622 -183.609,0.09 97.223,-201.153 82.785,192.683 0.574,0.417 z"
         style="fill:#ffffff;fill-opacity:1;fill-rule:nonzero;stroke:none"
         id="path1021" />
    </g>
    <g
       id="g1023"
       transform="matrix(0.19608435,0,0,-0.19608435,44.011446,36.31771)">
      <path
         d="m 0,0 c 0,-4.765 -3.862,-8.627 -8.627,-8.627 -4.765,0 -8.627,3.862 -8.627,8.627 0,4.765 3.862,8.627 8.627,8.627 C -3.862,8.627 0,4.765 0,0"
         style="fill:#ffffff;fill-opacity:1;fill-rule:nonzero;stroke:none"
         id="path1025" />
    </g>
    <g
       id="g1027"
       transform="matrix(0.19608435,0,0,-0.19608435,42.319846,35.56841)">
      <path
         d="m 0,0 c -2.106,0 -3.821,-1.715 -3.821,-3.821 0,-2.108 1.715,-3.822 3.821,-3.822 2.107,0 3.821,1.714 3.821,3.822 C 3.821,-1.715 2.107,0 0,0 m 0,-17.255 c -7.407,0 -13.433,6.026 -13.433,13.434 0,7.407 6.026,13.432 13.433,13.432 7.407,0 13.434,-6.025 13.434,-13.432 0,-7.408 -6.027,-13.434 -13.434,-13.434"
         style="fill:#ffffff;fill-opacity:1;fill-rule:nonzero;stroke:none"
         id="path1029" />
    </g>
    <g
       id="g1031"
       transform="matrix(0.19608435,0,0,-0.19608435,36.541279,54.77587)">
      <path
         d="m 0,0 c 0,-4.765 -3.862,-8.627 -8.627,-8.627 -4.765,0 -8.627,3.862 -8.627,8.627 0,4.765 3.862,8.627 8.627,8.627 C -3.862,8.627 0,4.765 0,0"
         style="fill:#ffffff;fill-opacity:1;fill-rule:nonzero;stroke:none"
         id="path1033" />
    </g>
    <g
       id="g1035"
       transform="matrix(0.19608435,0,0,-0.19608435,34.849679,54.02658)">
      <path
         d="m 0,0 c -2.107,0 -3.821,-1.714 -3.821,-3.821 0,-2.107 1.714,-3.822 3.821,-3.822 2.106,0 3.821,1.715 3.821,3.822 C 3.821,-1.714 2.106,0 0,0 m 0,-17.254 c -7.407,0 -13.434,6.025 -13.434,13.433 0,7.407 6.027,13.433 13.434,13.433 7.407,0 13.433,-6.026 13.433,-13.433 0,-7.408 -6.026,-13.433 -13.433,-13.433"
         style="fill:#ffffff;fill-opacity:1;fill-rule:nonzero;stroke:none"
         id="path1037" />
    </g>
    <g
       id="g1039"
       transform="matrix(0.19608435,0,0,-0.19608435,27.610637,36.31771)">
      <path
         d="m 0,0 c 0,-4.765 -3.862,-8.627 -8.627,-8.627 -4.765,0 -8.627,3.862 -8.627,8.627 0,4.765 3.862,8.627 8.627,8.627 C -3.862,8.627 0,4.765 0,0"
         style="fill:#ffffff;fill-opacity:1;fill-rule:nonzero;stroke:none"
         id="path1041" />
    </g>
    <g
       id="g1043"
       transform="matrix(0.19608435,0,0,-0.19608435,25.919037,35.56841)">
      <path
         d="m 0,0 c -2.106,0 -3.82,-1.715 -3.82,-3.821 0,-2.108 1.714,-3.822 3.82,-3.822 2.107,0 3.821,1.714 3.821,3.822 C 3.821,-1.715 2.107,0 0,0 m 0,-17.255 c -7.407,0 -13.433,6.026 -13.433,13.434 0,7.407 6.026,13.432 13.433,13.432 7.407,0 13.434,-6.025 13.434,-13.432 0,-7.408 -6.027,-13.434 -13.434,-13.434"
         style="fill:#ffffff;fill-opacity:1;fill-rule:nonzero;stroke:none"
         id="path1045" />
    </g>
    <g
       id="g1047"
       transform="matrix(0.19608435,0,0,-0.19608435,19.017201,18.49835)">
      <path
         d="m 0,0 c 0,-4.765 -3.862,-8.627 -8.627,-8.627 -4.765,0 -8.628,3.862 -8.628,8.627 0,4.765 3.863,8.627 8.628,8.627 C -3.862,8.627 0,4.765 0,0"
         style="fill:#ffffff;fill-opacity:1;fill-rule:nonzero;stroke:none"
         id="path1049" />
    </g>
    <g
       id="g1051"
       transform="matrix(0.19608435,0,0,-0.19608435,17.325601,17.74905)">
      <path
         d="m 0,0 c -2.107,0 -3.821,-1.714 -3.821,-3.821 0,-2.108 1.714,-3.822 3.821,-3.822 2.106,0 3.82,1.714 3.82,3.822 C 3.82,-1.714 2.106,0 0,0 m 0,-17.255 c -7.407,0 -13.434,6.026 -13.434,13.434 0,7.407 6.027,13.433 13.434,13.433 7.407,0 13.433,-6.026 13.433,-13.433 0,-7.408 -6.026,-13.434 -13.433,-13.434"
         style="fill:#ffffff;fill-opacity:1;fill-rule:nonzero;stroke:none"
         id="path1053" />
    </g>
  </g>
</svg>
