<?xml version="1.0" encoding="UTF-8" standalone="no"?>
<svg
   xmlns:dc="http://purl.org/dc/elements/1.1/"
   xmlns:cc="http://creativecommons.org/ns#"
   xmlns:rdf="http://www.w3.org/1999/02/22-rdf-syntax-ns#"
   xmlns:svg="http://www.w3.org/2000/svg"
   xmlns="http://www.w3.org/2000/svg"
   id="svg8"
   version="1.1"
   viewBox="0 0 67.733332 67.733335"
   height="256"
   width="256">
  <defs
     id="defs2" />
  <metadata
     id="metadata5">
    <rdf:RDF>
      <cc:Work
         rdf:about="">
        <dc:format>image/svg+xml</dc:format>
        <dc:type
           rdf:resource="http://purl.org/dc/dcmitype/StillImage" />
        <dc:title></dc:title>
      </cc:Work>
    </rdf:RDF>
  </metadata>
  <g
     transform="translate(0,-229.26665)"
     id="layer1">
    <g
       id="g3780">
      <circle
         style="opacity:1;fill:#cc0124;fill-opacity:1;fill-rule:nonzero;stroke:none;stroke-width:3.90643501;stroke-linecap:round;stroke-linejoin:round;stroke-miterlimit:4;stroke-dasharray:none;stroke-dashoffset:0;stroke-opacity:1;paint-order:stroke fill markers"
         id="path1832"
         cx="33.866665"
         cy="263.13333"
         r="32.411457" />
      <circle
         style="opacity:1;fill:none;fill-opacity:1;fill-rule:nonzero;stroke:#f0b90b;stroke-width:3.41965652;stroke-linecap:round;stroke-linejoin:round;stroke-miterlimit:4;stroke-dasharray:none;stroke-dashoffset:0;stroke-opacity:1;paint-order:stroke fill markers"
         id="path2008"
         cx="33.866665"
         cy="263.13333"
         r="30.833918" />
      <g
         id="g3625"
         transform="matrix(0.92365613,0,0,0.92365613,2.5855103,232.63251)">
        <g
           transform="matrix(0.19608435,0,0,-0.19608435,52.099553,18.49835)"
           id="g1011">
          <path
             id="path1013"
             style="fill:#ffffff;fill-opacity:1;fill-rule:nonzero;stroke:none"
             d="m 0,0 c 0,-4.765 -3.862,-8.627 -8.627,-8.627 -4.765,0 -8.627,3.862 -8.627,8.627 0,4.765 3.862,8.627 8.627,8.627 C -3.862,8.627 0,4.765 0,0" />
        </g>
        <g
           transform="matrix(0.19608435,0,0,-0.19608435,50.407933,17.74905)"
           id="g1015">
          <path
             id="path1017"
             style="fill:#ffffff;fill-opacity:1;fill-rule:nonzero;stroke:none"
             d="m 0,0 c -2.107,0 -3.821,-1.714 -3.821,-3.821 0,-2.108 1.714,-3.822 3.821,-3.822 2.106,0 3.821,1.714 3.821,3.822 C 3.821,-1.714 2.106,0 0,0 m 0,-17.255 c -7.407,0 -13.434,6.026 -13.434,13.434 0,7.407 6.027,13.433 13.434,13.433 7.407,0 13.433,-6.026 13.433,-13.433 0,-7.408 -6.026,-13.434 -13.433,-13.434" />
        </g>
        <g
           transform="matrix(0.19608435,0,0,-0.19608435,42.396809,34.72203)"
           id="g1019">
          <path
             id="path1021"
             style="fill:#ffffff;fill-opacity:1;fill-rule:nonzero;stroke:none"
             d="m 0,0 -32.932,22.871 62.125,45.076 z m -38.906,-90.555 -39.036,80.766 36.77,26.681 37.3,-25.906 z M -49.535,22.699 -82.192,-0.996 -115.934,68.813 Z M -112.056,77.822 26.343,77.755 -41.294,28.679 Z m 156.775,1.912 3.275,7.622 -183.609,0.09 97.223,-201.153 82.785,192.683 0.574,0.417 z" />
        </g>
        <g
           transform="matrix(0.19608435,0,0,-0.19608435,44.011446,36.31771)"
           id="g1023">
          <path
             id="path1025"
             style="fill:#ffffff;fill-opacity:1;fill-rule:nonzero;stroke:none"
             d="m 0,0 c 0,-4.765 -3.862,-8.627 -8.627,-8.627 -4.765,0 -8.627,3.862 -8.627,8.627 0,4.765 3.862,8.627 8.627,8.627 C -3.862,8.627 0,4.765 0,0" />
        </g>
        <g
           transform="matrix(0.19608435,0,0,-0.19608435,42.319846,35.56841)"
           id="g1027">
          <path
             id="path1029"
             style="fill:#ffffff;fill-opacity:1;fill-rule:nonzero;stroke:none"
             d="m 0,0 c -2.106,0 -3.821,-1.715 -3.821,-3.821 0,-2.108 1.715,-3.822 3.821,-3.822 2.107,0 3.821,1.714 3.821,3.822 C 3.821,-1.715 2.107,0 0,0 m 0,-17.255 c -7.407,0 -13.433,6.026 -13.433,13.434 0,7.407 6.026,13.432 13.433,13.432 7.407,0 13.434,-6.025 13.434,-13.432 0,-7.408 -6.027,-13.434 -13.434,-13.434" />
        </g>
        <g
           transform="matrix(0.19608435,0,0,-0.19608435,36.541279,54.77587)"
           id="g1031">
          <path
             id="path1033"
             style="fill:#ffffff;fill-opacity:1;fill-rule:nonzero;stroke:none"
             d="m 0,0 c 0,-4.765 -3.862,-8.627 -8.627,-8.627 -4.765,0 -8.627,3.862 -8.627,8.627 0,4.765 3.862,8.627 8.627,8.627 C -3.862,8.627 0,4.765 0,0" />
        </g>
        <g
           transform="matrix(0.19608435,0,0,-0.19608435,34.849679,54.02658)"
           id="g1035">
          <path
             id="path1037"
             style="fill:#ffffff;fill-opacity:1;fill-rule:nonzero;stroke:none"
             d="m 0,0 c -2.107,0 -3.821,-1.714 -3.821,-3.821 0,-2.107 1.714,-3.822 3.821,-3.822 2.106,0 3.821,1.715 3.821,3.822 C 3.821,-1.714 2.106,0 0,0 m 0,-17.254 c -7.407,0 -13.434,6.025 -13.434,13.433 0,7.407 6.027,13.433 13.434,13.433 7.407,0 13.433,-6.026 13.433,-13.433 0,-7.408 -6.026,-13.433 -13.433,-13.433" />
        </g>
        <g
           transform="matrix(0.19608435,0,0,-0.19608435,27.610637,36.31771)"
           id="g1039">
          <path
             id="path1041"
             style="fill:#ffffff;fill-opacity:1;fill-rule:nonzero;stroke:none"
             d="m 0,0 c 0,-4.765 -3.862,-8.627 -8.627,-8.627 -4.765,0 -8.627,3.862 -8.627,8.627 0,4.765 3.862,8.627 8.627,8.627 C -3.862,8.627 0,4.765 0,0" />
        </g>
        <g
           transform="matrix(0.19608435,0,0,-0.19608435,25.919037,35.56841)"
           id="g1043">
          <path
             id="path1045"
             style="fill:#ffffff;fill-opacity:1;fill-rule:nonzero;stroke:none"
             d="m 0,0 c -2.106,0 -3.82,-1.715 -3.82,-3.821 0,-2.108 1.714,-3.822 3.82,-3.822 2.107,0 3.821,1.714 3.821,3.822 C 3.821,-1.715 2.107,0 0,0 m 0,-17.255 c -7.407,0 -13.433,6.026 -13.433,13.434 0,7.407 6.026,13.432 13.433,13.432 7.407,0 13.434,-6.025 13.434,-13.432 0,-7.408 -6.027,-13.434 -13.434,-13.434" />
        </g>
        <g
           transform="matrix(0.19608435,0,0,-0.19608435,19.017201,18.49835)"
           id="g1047">
          <path
             id="path1049"
             style="fill:#ffffff;fill-opacity:1;fill-rule:nonzero;stroke:none"
             d="m 0,0 c 0,-4.765 -3.862,-8.627 -8.627,-8.627 -4.765,0 -8.628,3.862 -8.628,8.627 0,4.765 3.863,8.627 8.628,8.627 C -3.862,8.627 0,4.765 0,0" />
        </g>
        <g
           transform="matrix(0.19608435,0,0,-0.19608435,17.325601,17.74905)"
           id="g1051">
          <path
             id="path1053"
             style="fill:#ffffff;fill-opacity:1;fill-rule:nonzero;stroke:none"
             d="m 0,0 c -2.107,0 -3.821,-1.714 -3.821,-3.821 0,-2.108 1.714,-3.822 3.821,-3.822 2.106,0 3.82,1.714 3.82,3.822 C 3.82,-1.714 2.106,0 0,0 m 0,-17.255 c -7.407,0 -13.434,6.026 -13.434,13.434 0,7.407 6.027,13.433 13.434,13.433 7.407,0 13.433,-6.026 13.433,-13.433 0,-7.408 -6.026,-13.434 -13.433,-13.434" />
        </g>
      </g>
    </g>
  </g>
</svg>
