<?xml version="1.0" encoding="utf-8"?>
<!-- Generator: Adobe Illustrator 22.0.0, SVG Export Plug-In . SVG Version: 6.00 Build 0)  -->
<svg version="1.1" id="CMM" xmlns="http://www.w3.org/2000/svg" xmlns:xlink="http://www.w3.org/1999/xlink" x="0px" y="0px"
	 viewBox="0 0 245 245" style="enable-background:new 0 0 245 245;" xml:space="preserve">
<style type="text/css">
	.st0{fill:#0097FF;}
	.st1{fill:#FFFFFF;}
</style>
<path id="Full" class="st0" d="M0,122.5C0,190,55,245,122.5,245S245,190,245,122.5S190,0,122.5,0S0,55,0,122.5z"/>
<path id="CMM-2" class="st1" d="M124.1,33c-20.4-0.7-40.5,5.6-56.8,17.9c-5.9,4.4-7.1,12.8-2.7,18.7c0.5,0.7,1.2,1.4,1.8,2l0,0
	c4.7,4.4,11.9,4.8,17.1,0.8c26-20.2,63-17.2,85.4,6.9c4.5,4.6,4.6,11.9,0.3,16.6c-4.5,4.8-12.1,5.1-17,0.6c-0.2-0.2-0.4-0.4-0.6-0.6
	C137,79.7,112,78.5,95.8,93.2s-17.3,39.8-2.6,55.9s39.8,17.3,55.9,2.6c0,0,0,0,0,0c0.9-0.8,1.8-1.7,2.6-2.6c3.5-4,9.3-5.1,14.1-2.7
	c5.9,2.9,8.3,10.1,5.3,16c-0.5,1-1.1,1.9-1.8,2.7c-22.3,24.4-59.5,27.6-85.8,7.5c-5.2-3.9-12.4-3.6-17.2,0.8l0,0
	c-5.5,5-5.9,13.6-0.9,19.1c0.6,0.7,1.3,1.2,2,1.8c39.8,29.5,95.9,21.1,125.4-18.6C222.3,136,214,80,174.3,50.5
	C159.7,39.7,142.2,33.6,124.1,33z M122.5,144.7c-12.2-0.1-22.1-10-22.1-22.3s10-22.1,22.3-22.1c12.2,0.1,22,9.9,22.1,22.1
	c0,12.2-9.9,22.2-22.2,22.2C122.6,144.7,122.5,144.7,122.5,144.7C122.5,144.7,122.5,144.7,122.5,144.7z"/>
</svg>
