<svg id="CMM" xmlns="http://www.w3.org/2000/svg" width="256" height="256" viewBox="0 0 512 512">
<defs>
    <style>
      .cls-1 {
        fill: #0097ff;
      }

      .cls-1, .cls-2 {
        fill-rule: evenodd;
      }

      .cls-2 {
        fill: #fff;
      }
    </style>
  </defs>
  <path id="Full" class="cls-1" d="M11,256c0,135.094,109.906,245,245,245S501,391.094,501,256,391.094,11,256,11,11,120.906,11,256Z"/>
  <path id="CMM-2" data-name="CMM" class="cls-2" d="M259.268,76.926a178.421,178.421,0,0,0-113.592,35.832,26.648,26.648,0,0,0-1.655,41.272h0a26.231,26.231,0,0,0,34.11,1.653A126.928,126.928,0,0,1,348.946,169.44a24.4,24.4,0,0,1,.641,33.273,24.039,24.039,0,0,1-33.951,1.172q-0.606-.565-1.173-1.172a79.177,79.177,0,1,0-5.15,111.789q2.692-2.452,5.15-5.144a23.557,23.557,0,0,1,28.131-5.332,23.82,23.82,0,0,1,6.993,37.325,127.355,127.355,0,0,1-171.509,15.037,26.712,26.712,0,0,0-34.324,1.653h0A26.968,26.968,0,0,0,146,399.686c79.517,58.907,191.782,42.27,250.753-37.16A179.075,179.075,0,0,0,259.268,76.926Zm-3.309,223.42a44.311,44.311,0,1,1,44.518-44.364,44.333,44.333,0,0,1-44.518,44.364h0Z"/>
</svg>
