<?xml version="1.0" encoding="utf-8"?>
<!-- Generator: Adobe Illustrator 22.0.0, SVG Export Plug-In . SVG Version: 6.00 Build 0)  -->
<svg version="1.1" id="CND" xmlns="http://www.w3.org/2000/svg" xmlns:xlink="http://www.w3.org/1999/xlink" x="0px" y="0px"
	 viewBox="0 0 490 490" style="enable-background:new 0 0 490 490;" xml:space="preserve">
<style type="text/css">
	.st0{fill:#0D0520;}
	.st1{fill:#FFFFFF;}
</style>
<path id="Full" class="st0" d="M0,245c0,135.1,109.9,245,245,245s245-109.9,245-245S380.1,0,245,0S0,109.9,0,245z"/>
<path id="Cindicator" class="st1" d="M245.5,414C152.4,414,77,338.6,77,245.5S152.4,77,245.5,77C338.6,77,414,152.4,414,245.5
	C414,338.6,338.6,414,245.5,414C245.5,414,245.5,414,245.5,414z M245.5,400.9c85.8,0,155.4-69.6,155.4-155.4
	c0-85.8-69.6-155.4-155.4-155.4S90.1,159.7,90.1,245.5c0,0,0,0,0,0C90.1,331.3,159.7,400.9,245.5,400.9z M245.8,231.3
	c8,0,14.5,6.5,14.5,14.5c0,8-6.5,14.5-14.5,14.5c-8,0-14.5-6.5-14.5-14.5C231.3,237.8,237.8,231.3,245.8,231.3L245.8,231.3z"/>
</svg>
