<svg id="CND" xmlns="http://www.w3.org/2000/svg" width="512" height="512" viewBox="0 0 512 512">
<defs>
    <style>
      .cls-1 {
        fill: #0d0520;
      }

      .cls-1, .cls-2 {
        fill-rule: evenodd;
      }

      .cls-2 {
        fill: #fff;
      }
    </style>
  </defs>
  <path id="Full" class="cls-1" d="M11,256c0,135.094,109.906,245,245,245S501,391.094,501,256,391.094,11,256,11,11,120.906,11,256Z"/>
  <path id="Cindicator" class="cls-2" d="M256.5,425.018A168.515,168.515,0,1,1,425.018,256.5,168.516,168.516,0,0,1,256.5,425.018Zm0-13.152A155.363,155.363,0,1,0,101.14,256.5,155.371,155.371,0,0,0,256.5,411.866Zm0.324-169.519a14.474,14.474,0,1,1-14.486,14.474A14.479,14.479,0,0,1,256.821,242.347Z"/>
</svg>
