<svg xmlns="http://www.w3.org/2000/svg" xmlns:xlink="http://www.w3.org/1999/xlink" width="250" height="250" xmlns:v="https://vecta.io/nano"><defs><linearGradient id="A" x1="17.336" x2="80" y1="74.339" y2="74.339" gradientUnits="userSpaceOnUse"><stop offset="0" stop-color="#700000"/><stop offset=".327" stop-color="#730000"/><stop offset=".59" stop-color="#7d0000"/><stop offset=".83" stop-color="#8e0000"/><stop offset="1" stop-color="#9f0000"/></linearGradient><linearGradient id="B" x1="48.668" x2="48.668" y1="68.69" y2="80" gradientUnits="userSpaceOnUse"><stop offset=".35" stop-color="#cf2000"/><stop offset=".645" stop-color="#cd1f00"/><stop offset=".752" stop-color="#c61d00"/><stop offset=".828" stop-color="#bb1900"/><stop offset=".889" stop-color="#aa1300"/><stop offset=".941" stop-color="#940c00"/><stop offset=".987" stop-color="#790300"/><stop offset="1" stop-color="#700000"/></linearGradient><linearGradient id="C" x1="17.336" x2="80" y1="55.314" y2="55.314" gradientUnits="userSpaceOnUse"><stop offset="0" stop-color="#cf2000"/><stop offset=".021" stop-color="#d12201"/><stop offset=".244" stop-color="#e23309"/><stop offset=".487" stop-color="#ec3d0e"/><stop offset=".791" stop-color="#ef4010"/><stop offset=".841" stop-color="#ec3d0f"/><stop offset=".882" stop-color="#e2330d"/><stop offset=".919" stop-color="#d12208"/><stop offset=".954" stop-color="#b90a03"/><stop offset=".966" stop-color="#af0000"/><stop offset="1" stop-color="#ef4010"/></linearGradient><linearGradient id="D" x1="17.337" x2="80" y1="48.207" y2="48.207" gradientUnits="userSpaceOnUse"><stop offset="0" stop-color="#fbbf00"/><stop offset=".021" stop-color="#fbc102"/><stop offset=".244" stop-color="#fdd213"/><stop offset=".487" stop-color="#ffdc1d"/><stop offset=".791" stop-color="#ffdf20"/><stop offset=".841" stop-color="#fddc1e"/><stop offset=".882" stop-color="#f8d219"/><stop offset=".919" stop-color="#eec111"/><stop offset=".954" stop-color="#e1a905"/><stop offset=".966" stop-color="#db9f00"/><stop offset="1" stop-color="#ffdf20"/></linearGradient><linearGradient xlink:href="#D" id="E" x1="17.336" x2="80.001" y1="56.125" y2="56.125"/><linearGradient xlink:href="#D" id="F" x1="17.336" x2="80.002" y1="41.503" y2="41.503"/><linearGradient xlink:href="#D" id="G" y1="51.392" y2="51.392"/><linearGradient xlink:href="#D" id="H" x1="17.333" x2="80.005" y1="45.329" y2="45.329"/><linearGradient xlink:href="#D" id="I"/></defs><circle cx="125" cy="125" r="125" fill="#cdcdcd" fill-rule="evenodd"/><g transform="matrix(2.41095 0 0 2.417396 27.123881 21.608989)"><path fill="#0e3ca5" d="M32.585 59.261c2 7.4 9.176 13.044 12.8 12.811.127-.008 13.745-2.547 21.2-15 5.8-9.693 3.826-19.051-4.064-19.255-2.839.207-33.745 7.348-29.934 21.446m29.198-47.528l-.008-.007.011-.006a34.628 34.628 0 0 0-36.5-5.266A20.232 20.232 0 0 0 23.1 7.53c-.486.259-.972.516-1.444.8l.115.035a15.78 15.78 0 0 0-3.655 3.46C8.172 24.953 41.486 34.5 59.3 34.528c8.191 5.883 10.491-16.56 2.485-22.793z"/><path fill="#5493f7" d="M27.3 12C22.723 18.88 7.478 23.727 4.971 22.973l-.017-.033q.155-.311.313-.618a36.682 36.682 0 0 1 10.87-12.683q1.407-1.032 2.913-1.929a10.777 10.777 0 0 1 5.04-1.342c6.789.132 3.244 5.579 3.21 5.632m-3.756 48.613c.329 2.162-.008 10.7-.45 11.418-.381.024-1.174.072-3.471-1.217a36.438 36.438 0 0 1-17.952-25.8 36.9 36.9 0 0 1 0-11.841 36.275 36.275 0 0 1 1.383-5.616c.122-.366.25-.731.383-1.092 2.631 3.5 5.676 6.665 8.264 10.2 2.465 3.366 5.856 8.852 6.546 10.024 4.284 7.278 4.967 11.768 5.294 13.925m50.648-21.52A36.4 36.4 0 0 1 71.648 52.5c-4.3 4.621-33.283-6.753-33.567-6.877C34.116 43.886 22.05 38.6 20.961 30.3 19.4 18.351 43.63 10.027 54.28 9.711c1.277.015 5.163.06 7.429 1.9a36.411 36.411 0 0 1 12.48 27.482M54.568 71.467c-3.16 1.474-6.638.4-5.734-2.677 1.735-5.908 16.886-11.966 20.232-12.3.413-.04.588.241.405.561a36.866 36.866 0 0 1-14.9 14.411"/><path fill="url(#A)" d="M17.336 77.256a2.552 2.552 0 0 0 2.329 2.712c30.7.21 60.335-1.2 60.335-5.8 0-13.924-62.664 3.088-62.664 3.088z"/><path fill="url(#B)" d="M17.336 77.256a2.549 2.549 0 0 0 2.341 2.712c30.691.233 60.286-.731 60.323-5.8 0-13.924-62.664 3.088-62.664 3.088zm2.342 2.535a2.194 2.194 0 0 1-.245-.014 2.4 2.4 0 0 1-1.987-1.763 2.37 2.37 0 0 0 2.229 1.762c30.67-.193 59.844-9.636 59.844-5.478 0 4.244-29.172 5.702-59.841 5.493z"/><path fill="url(#C)" d="M19.68 37.823a2.343 2.343 0 0 0-2.344 2.343v37.09a2.343 2.343 0 0 0 2.329 2.344C50.363 79.37 80.037 69.209 80 74.169V32.4c.037-4.966-29.626 5.193-60.32 5.423z"/><path fill="url(#I)" d="M29.232 46.693l-.708-2.12-.706-2.122-.706 2.2-.706 2.2-2.282.1-2.282.076 1.847 1.278 1.844 1.265-.705 2.2-.7 2.192 1.845-1.415 1.849-1.436 1.848 1.22 1.85 1.2-.706-2.11-.706-2.113 1.846-1.48 1.846-1.5-2.281.2-2.287.165z"/><path fill="url(#E)" d="M38.921 54.159l-.885 1.311-1.436-.316.888 1.125-.888 1.306 1.436-.613.885 1.119v-1.5l1.43-.627-1.43-.3z"/><path fill="url(#F)" d="M38.923 39.536l-.886 1.312-1.435-.316.888 1.125-.888 1.306 1.436-.614.884 1.12v-1.5l1.43-.628-1.43-.3z"/><path fill="url(#G)" d="M42.941 50.793l-.5-1.373-.446 1.507-1.519.211 1.244.719-.445 1.507L42.5 52.3l1.249.712-.5-1.372 1.218-1.071-1.526.224z"/><path fill="url(#H)" d="M41.842 45.8l.027 1.514.873-1.351 1.46.257-.919-1.094.877-1.356-1.445.678-.916-1.1.026 1.514-1.436.668 1.453.27z"/></g></svg>