<?xml version="1.0" encoding="utf-8"?>
<!-- Generator: Adobe Illustrator 22.0.0, SVG Export Plug-In . SVG Version: 6.00 Build 0)  -->
<svg version="1.1" id="CoinFi" xmlns="http://www.w3.org/2000/svg" xmlns:xlink="http://www.w3.org/1999/xlink" x="0px" y="0px"
	 viewBox="0 0 245 245" style="enable-background:new 0 0 245 245;" xml:space="preserve">
<style type="text/css">
	.st0{fill:#23ADF0;}
	.st1{fill:none;stroke:#FFFFFF;stroke-width:5;stroke-linecap:square;}
</style>
<path id="Main" class="st0" d="M0,122.5C0,190,55,245,122.5,245S245,190,245,122.5S190,0,122.5,0S0,55,0,122.5z"/>
<path id="CoinFi-2" class="st1" d="M66,106c-2.7-1.7-5.8-2.6-9-2.5c-4.7,0-17.5,3.8-17.5,18.5c0,15,12.3,18.5,17.5,18.5
	c5,0,9.5-3,9.5-3 M95,103.5c9.8,0,17.5,9,17.5,18.5s-7.4,18.5-17.5,18.5c-9.2,0-18.5-7.9-18.5-18.5C76.5,111.8,84.8,103.5,95,103.5
	C95,103.5,95,103.5,95,103.5z M121.5,104v36.5 M145,132.5h-10v-28c0,0,0.7,0,1.5,0c4.8,6.2,20.9,30.4,25,36c0.8,0,1.5,0,1.5,0V104
	 M134.5,140.5H150 M173,141v-36.5h23 M189.5,122.5H173 M205,104v37.5"/>
</svg>
