<svg id="CoinFi" xmlns="http://www.w3.org/2000/svg" width="256" height="256" viewBox="0 0 512 512">
<defs>
    <style>
      .cls-1 {
        fill: #23adf0;
      }

      .cls-1, .cls-2 {
        fill-rule: evenodd;
      }

      .cls-2 {
        fill: none;
        stroke: #fff;
        stroke-linecap: square;
        stroke-width: 9px;
      }
    </style>
  </defs>
  <path id="Main" class="cls-1" d="M11,256c0,135.094,109.906,245,245,245S501,391.094,501,256,391.094,11,256,11,11,120.906,11,256Z"/>
  <path id="CoinFi-2" data-name="CoinFi" class="cls-2" d="M143,223a32.971,32.971,0,0,0-18-5c-9.4,0-35,7.609-35,37,0,30.03,24.686,37,35,37,9.948-.045,19-6,19-6m57-68c19.571,0,35,18.023,35,37s-14.769,37-35,37c-18.433,0-37-15.7-37-37A36.993,36.993,0,0,1,201,218Zm53,1v73m47-16H281V220s1.482-.067,3,0c9.572,12.307,41.834,60.766,50,72,1.52,0.077,3,0,3,0V219m-57,73h31m46,1V220h46m-13,36H357m64-37v75"/>
</svg>
