<?xml version="1.0" encoding="UTF-8" standalone="no"?>
<!DOCTYPE svg PUBLIC "-//W3C//DTD SVG 1.1//EN" "http://www.w3.org/Graphics/SVG/1.1/DTD/svg11.dtd">
<svg width="100%" height="100%" viewBox="0 0 1250 1863" version="1.1" xmlns="http://www.w3.org/2000/svg" xmlns:xlink="http://www.w3.org/1999/xlink" xml:space="preserve" xmlns:serif="http://www.serif.com/" style="fill-rule:evenodd;clip-rule:evenodd;stroke-linejoin:round;stroke-miterlimit:2;">
    <g transform="matrix(4.16667,0,0,4.16667,0,0)">
        <path d="M168.091,223.745L131.317,223.745C120.286,223.745 112.931,231.1 112.931,242.131L112.931,260.519C112.931,271.549 120.286,278.904 131.317,278.904L168.091,278.904C179.122,278.904 186.477,271.549 186.477,260.519L186.477,242.131C186.477,231.1 179.122,223.745 168.091,223.745Z" style="fill:white;fill-rule:nonzero;"/>
        <path d="M112.931,113.426L186.477,113.426C197.509,113.426 204.863,106.071 204.863,95.04L204.863,76.653C204.863,54.59 173.606,39.881 149.704,39.881C125.802,39.881 94.544,52.751 94.544,76.653L94.544,95.04C94.544,106.071 101.899,113.426 112.931,113.426Z" style="fill:white;fill-rule:nonzero;"/>
        <path d="M278.41,260.52L260.019,260.52L260.019,223.74C260.17,213.59 252.05,205.24 241.9,205.1C231.74,204.95 223.39,213.07 223.25,223.22L223.25,349C223.22,349.58 223.22,350.15 223.25,350.73L223.25,352.45C223.1,353.79 223.1,355.14 223.25,356.47L223.25,394.97C215.23,391.57 205.9,389.22 195.67,389.22C185.44,389.22 176.11,391.57 168.09,394.97L168.09,334.06C168.45,323.91 160.52,315.39 150.37,315.03C149.57,315 148.77,315.03 147.98,315.1C147.2,315.24 146.43,315.44 145.68,315.68C137.12,317.59 131.11,325.29 131.32,334.06L131.32,394.97C123.3,391.57 113.97,389.22 103.74,389.22C93.51,389.22 84.169,391.57 76.159,394.97L76.159,355.9C76.669,353.43 76.669,350.89 76.159,348.43L76.159,223.74C76.4,213.59 68.369,205.16 58.22,204.92C56.72,204.88 55.22,205.03 53.749,205.36C45.19,207.28 39.169,214.97 39.39,223.74L39.39,260.52L20.999,260.52L20.999,205.36C20.999,183.47 35.89,168.59 57.77,168.59L77.879,168.59C78.26,168.6 78.65,168.6 79.03,168.59C99.159,182.06 123.85,186.97 149.7,186.97C175.81,186.97 201.09,182.41 221.53,168.59L241.64,168.59C263.52,168.59 278.41,183.47 278.41,205.36L278.41,260.52ZM278.41,297.29L260.019,297.29L260.019,278.9L278.41,278.9L278.41,297.29ZM278.41,334.06L260.019,334.06L260.019,315.68L278.41,315.68L278.41,334.06ZM223.25,426L168.09,426L168.09,415.65C175.75,411.63 186.08,407.61 195.67,407.61C205.26,407.61 215.59,411.63 223.25,415.65L223.25,426ZM131.32,426L76.159,426L76.159,415.65C83.81,411.63 94.14,407.61 103.74,407.61C113.33,407.61 123.66,411.63 131.32,415.65L131.32,426ZM39.39,297.29L20.999,297.29L20.999,278.9L39.39,278.9L39.39,297.29ZM39.39,334.06L20.999,334.06L20.999,315.68L39.39,315.68L39.39,334.06ZM76.159,85.85C76.159,59.591 83.669,45.371 95.69,35.86C107.71,26.341 126.59,21.491 149.7,21.491C173.04,21.491 191.84,26.051 203.71,35.28C215.59,44.52 223.25,58.551 223.25,85.85C223.25,98.661 221.56,108.56 218.53,116.4C215.13,125.26 210.01,131.51 203.71,136.41C191.84,145.65 173.04,150.2 149.7,150.2C126.59,150.2 107.71,145.35 95.69,135.83C89.499,130.93 84.51,124.79 81.129,116.4C77.93,108.49 76.159,98.58 76.159,85.85ZM299.41,205.36C299.41,178.39 283.65,157.39 260.019,150.24L260.019,134.38C260.019,124.45 251.97,116.4 242.04,116.4L240.61,116.4C243.06,107.44 244.25,97.31 244.25,85.85C244.25,54.71 235.47,33.38 216.61,18.71C201.07,6.621 178.56,0.491 149.7,0.491C121.46,0.491 98.28,7.03 82.659,19.391C63.9,34.25 55.159,55.36 55.159,85.85C55.159,97.301 56.4,107.43 58.94,116.4L57.369,116.4C47.44,116.4 39.379,124.45 39.379,134.38L39.379,150.24C15.76,157.39 0,178.4 0,205.36L0,260.52C0,263.82 0.78,266.93 2.14,269.71C0.78,272.49 0,275.6 0,278.9L0,297.29C0,300.59 0.78,303.7 2.14,306.48C0.78,309.26 0,312.38 0,315.68L0,334.06C0,345.66 9.4,355.06 20.999,355.06L39.39,355.06C45.68,355.06 51.31,352.28 55.159,347.9L55.159,348.43C55.159,349.68 55.27,350.93 55.49,352.16C55.27,353.39 55.159,354.64 55.159,355.9L55.159,394.97C55.159,398.65 56.129,402.2 57.89,405.31C56.14,408.41 55.159,411.96 55.159,415.65L55.159,426C55.159,437.59 64.56,447 76.159,447L131.32,447C139.24,447 146.13,442.61 149.7,436.13C153.28,442.61 160.17,447 168.09,447L223.25,447C234.85,447 244.25,437.59 244.25,426L244.25,415.65C244.25,411.96 243.27,408.41 241.51,405.31C243.28,402.2 244.25,398.65 244.25,394.97L244.25,356.47C244.25,355.8 244.22,355.13 244.15,354.46C244.22,353.79 244.25,353.12 244.25,352.45L244.25,350.73C244.25,350.44 244.24,350.15 244.23,349.86C244.24,349.58 244.25,349.29 244.25,349L244.25,347.9C248.1,352.28 253.73,355.06 260.019,355.06L278.41,355.06C290.01,355.06 299.41,345.66 299.41,334.06L299.41,315.68C299.41,312.38 298.63,309.26 297.27,306.48C298.63,303.7 299.41,300.59 299.41,297.29L299.41,278.9C299.41,275.6 298.63,272.49 297.27,269.71C298.63,266.93 299.41,263.82 299.41,260.52L299.41,205.36Z" style="fill:white;fill-rule:nonzero;"/>
    </g>
</svg>
