<?xml version="1.0" encoding="UTF-8" standalone="no"?>
<svg
   xmlns:dc="http://purl.org/dc/elements/1.1/"
   xmlns:cc="http://creativecommons.org/ns#"
   xmlns:rdf="http://www.w3.org/1999/02/22-rdf-syntax-ns#"
   xmlns:svg="http://www.w3.org/2000/svg"
   xmlns="http://www.w3.org/2000/svg"
   id="svg8"
   version="1.1"
   viewBox="0 0 67.733332 67.733335"
   height="256"
   width="256">
  <defs
     id="defs2" />
  <metadata
     id="metadata5">
    <rdf:RDF>
      <cc:Work
         rdf:about="">
        <dc:format>image/svg+xml</dc:format>
        <dc:type
           rdf:resource="http://purl.org/dc/dcmitype/StillImage" />
        <dc:title></dc:title>
      </cc:Work>
    </rdf:RDF>
  </metadata>
  <g
     transform="translate(0,-229.26665)"
     id="layer1">
    <path
       d="m 1.4552083,263.13332 c 0,17.87181 14.5396477,32.41146 32.4114577,32.41146 17.871811,0 32.411459,-14.53965 32.411459,-32.41146 0,-17.87181 -14.539648,-32.41146 -32.411459,-32.41146 -17.87181,0 -32.4114577,14.53965 -32.4114577,32.41146 z"
       class="cls-1"
       id="Full"
       style="fill:#dc12fc;fill-opacity:0.94117647;stroke-width:0.13229166" />
    <g
       transform="translate(0.13156149,-0.19114729)"
       id="g892">
      <path
         style="fill:#ffffff;fill-opacity:1;stroke-width:0.13722898"
         d="m 30.925235,287.1665 c -2.576004,-0.29917 -5.466743,-1.16723 -7.820563,-2.34843 -1.316329,-0.66057 -3.160881,-1.8515 -3.160881,-1.97047 0,-0.031 4.124019,0.0368 9.038113,0.0212 l 8.928302,-0.0284 -0.129627,0.45743 c -0.04642,0.20756 -0.371964,1.15771 -0.723417,2.11146 l -0.639007,1.73409 -0.614286,0.0842 c -0.815884,0.11183 -3.700709,0.0757 -4.878631,-0.0611 z m 11.164098,-1.44184 c 0,-0.0427 0.164506,-0.6911 0.36557,-1.44091 l 0.383838,-1.44331 2.292127,0.007 c 1.270711,0.004 2.451991,-0.0204 2.451991,0.0106 0,0.13995 -2.143766,1.41746 -3.640203,2.14357 -1.621358,0.78672 -1.853323,0.87722 -1.853323,0.72306 z m -25.150707,-5.3077 c -0.930404,-0.92508 -1.831623,-1.88266 -2.002711,-2.12796 l -0.311067,-0.446 7.797089,10e-6 h 7.797089 l 0.394538,0.49447 c 0.424988,0.53263 1.12403,0.83213 1.721319,0.83213 0.563513,0 1.489514,-0.47669 1.755404,-0.9268 l 0.245305,-0.42722 2.309981,0.0274 h 2.319118 l -0.09068,0.72576 c -0.04987,0.39917 -0.226808,1.3409 -0.393191,2.09274 l -0.320785,1.48467 h -9.75575 -9.710073 z m 26.042239,1.37138 c 0.141358,-0.59475 0.479148,-3.0576 0.479948,-3.49934 l 8.1e-4,-0.446 h 4.675129 4.675131 l -0.311068,0.446 c -0.171087,0.2453 -0.98094,1.23554 -1.910835,2.16012 l -1.820427,1.69705 h -2.911659 -2.976253 z m -11.270153,-3.45685 c -21.140475,12.44566 -10.570237,6.22283 0,0 z m -18.248745,-2.14405 c -0.60718,-0.93861 -1.847074,-3.43079 -2.299838,-4.62266 l -0.221553,-0.58322 h 6.109492 6.109492 l 0.819461,0.41366 c 0.85037,0.42926 0.96786,0.40819 0.605836,-0.10867 l -0.213626,-0.30499 h 2.889591 2.88959 v 0.52862 c 0,0.9831 0.899154,1.92188 1.954717,2.04086 1.201779,0.13546 2.286954,-0.79535 2.335109,-2.00294 l -0.04172,-0.549 2.348495,-0.0175 h 2.284184 l 0.08816,0.8435 c 0.113453,1.08545 0.113722,3.87197 4.12e-4,4.69835 l -0.08771,0.63991 h -2.35381 -2.263587 l -0.09743,-0.74089 c -0.206137,-0.70476 -0.765604,-1.34155 -1.44832,-1.47015 -0.823414,-0.15511 -1.425564,0.0182 -2.051596,0.50973 -0.278342,0.27834 -0.452571,0.52347 -0.600898,0.94943 -0.101559,0.3792 -0.06343,0.65754 -0.09249,0.75188 -0.137399,0.007 -1.815117,-0.006 -8.068532,-0.006 H 14.08904 l -0.627118,-0.96942 z m 30.126844,0.86648 c -0.0055,-0.0566 -0.0034,-0.5352 0.0047,-1.06353 0.01607,-1.04583 -0.216438,-4.13357 -0.351898,-4.67329 l -0.08422,-0.33556 h 6.669371 6.669373 l -0.221552,0.58322 c -0.452765,1.19187 -1.692659,3.68405 -2.29984,4.62266 l -0.627117,0.96942 h -4.874397 c -2.680918,0 -4.878916,-0.0463 -4.884438,-0.10292 z m -27.24068,-6.85112 -5.644391,-0.0358 -0.233463,-0.92478 c -0.6234297,-2.46951 -0.90036,-5.96427 -0.6675002,-8.16511 l 0.1268236,-1.14992 h 1.6729796 1.696367 l -0.229925,0.56877 c -0.333489,0.79815 -0.241425,0.86468 0.220079,0.15903 l 0.461391,-0.7278 4.784769,0.002 c 2.632726,8.5e-4 4.77644,-0.002 4.821915,0.003 0.04568,0.004 -0.533619,0.89666 -1.110026,1.73031 -0.576408,0.83366 -1.297593,2.04657 -1.602633,2.69537 -0.489991,1.04218 -0.553469,1.29212 -0.544756,2.14491 0.01224,1.19817 0.380213,2.07962 1.303526,3.03754 0.360035,0.37353 0.617062,0.63367 0.599084,0.63907 -0.01798,0.005 -2.538132,-0.0118 -5.65424,0.024 z m 7.764206,-0.84957 c 0,-0.97958 0.547136,-2.15951 1.721477,-3.71246 1.709712,-2.26093 2.370482,-3.41177 2.756876,-4.80155 l 0.261662,-0.91203 h 2.731599 2.556206 l 0.748149,0.90394 c 1.612791,2.09594 2.907267,4.85299 3.638223,7.7489 l 0.400396,1.57412 -2.394815,-0.001 -2.42711,0.0117 -0.363134,-0.4302 c -0.48989,-0.52482 -1.598905,-0.65222 -2.363001,-0.31346 -0.325848,0.14446 -0.600299,0.35642 -0.880509,0.72705 -0.262684,0.007 -0.353949,0.0102 -3.177941,0.0102 h -3.208078 z m 8.788742,-1.39016 c 1.153306,-0.27953 1.78413,-1.5965 1.498582,-2.63068 -0.678817,-2.45847 -4.249249,-1.95065 -4.249249,0.60437 0,0.79787 0.433982,1.45159 1.230938,1.8542 0.687043,0.34708 1.214829,0.20811 1.519729,0.17211 z m 10.008516,1.61187 c -0.888264,-3.43264 -2.014497,-5.89739 -3.887745,-8.50831 l -0.844814,-1.13944 9.686204,0.006 c 9.018061,0.005 9.583482,-0.0205 9.713005,-0.006 0.165297,0.40376 0.324571,3.123 -0.09128,6.93748 -0.09287,0.49059 -0.208053,1.32044 -0.385691,1.97581 l -0.357154,1.31768 H 49.901317 43.060515 Z M 10.11498,258.9688 c 0,-0.12072 0.159233,-0.84767 0.353851,-1.61544 2.144492,-8.45996 8.881157,-15.20151 17.281298,-17.29382 2.384554,-0.59394 3.320457,-0.7044 5.968236,-0.7044 2.64778,0 3.583683,0.11046 5.968237,0.7044 8.40014,2.09231 15.136806,8.83386 17.281298,17.29382 0.194617,0.76777 0.372847,1.63046 0.397699,1.74861 0.02949,0.14019 -1.046338,-0.0112 -9.985966,0.0194 l -9.942118,0.0341 -0.377056,-0.46993 c -0.91503,-1.19967 -4.282624,-3.81612 -6.470464,-5.02723 l -0.864093,-0.47833 1.511463,-0.98556 c 3.783494,-2.46703 7.153524,-3.73 10.499052,-3.93469 1.371913,-0.0839 5.225466,0.29371 6.382176,0.62545 1.032235,0.29604 0.486101,-0.12735 -1.663457,-1.28959 -2.183335,-1.18051 -4.21403,-1.78058 -6.589472,-1.9472 -3.357484,-0.23549 -7.902096,1.12107 -9.6361,2.87638 -0.383597,0.3883 -0.971434,1.21968 -1.306305,1.8475 -0.937578,1.75778 -0.90702,1.74386 -1.084395,0.49416 -0.08483,-0.5977 -0.223195,-2.06501 -0.307469,-3.26069 -0.178852,-2.53754 -0.07179,-3.02853 0.840001,-3.85227 0.703497,-0.63557 1.239953,-0.84759 2.998678,-1.18514 1.953655,-0.37496 2.306044,-0.55326 0.907387,-0.4591 -3.284745,0.22112 -7.13057,0.99401 -8.743943,1.75725 -0.831548,0.39339 -1.535836,1.08865 -1.839855,1.81627 -0.597014,1.42885 0.37002,3.99699 2.223796,5.90569 0.536549,0.55245 0.90796,1.00317 0.825361,1.00161 -0.0826,-0.002 -0.860342,-0.11962 -1.728315,-0.26233 -0.867974,-0.14272 -2.142935,-0.30328 -2.833248,-0.35681 -1.164609,-0.0903 -1.310038,-0.0722 -2.016786,0.25137 -0.8861,0.40567 -1.702443,1.18123 -2.54134,2.41437 -0.677911,0.9965 -1.592155,2.7718 -1.950993,3.78847 l -0.258712,0.73033 -1.640955,-0.006 c -1.443749,0.0336 -1.277152,0.006 -1.715369,0.006 z m 4.795984,-0.64486 c 1.440221,-1.79393 2.987823,-2.74187 5.311885,-3.25365 1.521929,-0.33514 5.715478,-0.97163 5.805903,-0.8812 0.195053,0.19505 -0.508659,2.06964 -1.281092,3.41264 l -0.868205,1.50952 -4.829239,0.0361 -4.82924,0.008 z m 14.138261,-0.41345 c -0.0018,-0.69815 -0.06574,-1.53996 -0.14199,-1.8707 -0.07625,-0.33073 -0.108033,-0.63193 -0.07063,-0.66933 0.129278,-0.12928 2.327655,1.5492 3.499657,2.67203 l 1.176263,1.1269 -2.229971,0.005 -2.229971,0.005 -0.0034,-1.26937 z"
         id="path1126" />
      <path
         style="opacity:1;fill:#ffffff;fill-opacity:1;fill-rule:nonzero;stroke:none;stroke-width:0.12274022;stroke-linecap:round;stroke-linejoin:miter;stroke-miterlimit:4;stroke-dasharray:none;stroke-dashoffset:65.67904663;stroke-opacity:1;paint-order:normal"
         id="path1128"
         d="m 30.806552,277.14928 a 1.4826242,1.4271247 0 0 1 0.705139,-1.33647 1.4826242,1.4271247 0 0 1 1.557226,0.007 1.4826242,1.4271247 0 0 1 0.691391,1.34311" />
      <path
         style="fill:#ffffff;fill-opacity:1;stroke:none;stroke-width:0.26458332px;stroke-linecap:butt;stroke-linejoin:miter;stroke-opacity:1"
         d="m 31.13505,277.80219 c 0.04522,-0.0129 2.344819,-0.006 2.344819,-0.006 0,0 -0.432792,0.68472 -1.059368,0.68472 -0.626575,0 -1.039987,-0.25193 -1.285451,-0.67826 z"
         id="path873" />
    </g>
  </g>
</svg>
