<?xml version="1.0" encoding="UTF-8" standalone="no"?>
<svg
   xmlns:dc="http://purl.org/dc/elements/1.1/"
   xmlns:cc="http://creativecommons.org/ns#"
   xmlns:rdf="http://www.w3.org/1999/02/22-rdf-syntax-ns#"
   xmlns:svg="http://www.w3.org/2000/svg"
   xmlns="http://www.w3.org/2000/svg"
   id="svg1014"
   version="1.1"
   viewBox="0 0 120.91458 120.91459"
   height="457"
   width="457">
  <defs
     id="defs1008" />
  <metadata
     id="metadata1011">
    <rdf:RDF>
      <cc:Work
         rdf:about="">
        <dc:format>image/svg+xml</dc:format>
        <dc:type
           rdf:resource="http://purl.org/dc/dcmitype/StillImage" />
        <dc:title></dc:title>
      </cc:Work>
    </rdf:RDF>
  </metadata>
  <g
     transform="translate(0,-176.0854)"
     id="layer1">
    <g
       id="g1565"
       transform="translate(1.0172526e-6,176.0854)">
      <circle
         id="Main"
         class="cls-1"
         cx="60.457291"
         cy="60.457291"
         r="60.448856"
         style="fill:#ffffff;stroke-width:0.26454642" />
      <g
         style="clip-rule:evenodd;fill-rule:evenodd;stroke-linejoin:round;stroke-miterlimit:2"
         id="g958"
         transform="matrix(0.04428473,0,0,0.04428473,32.833747,19.171805)">
        <g
           id="g944"
           transform="scale(4.16667)">
          <path
             id="path938"
             style="fill:#455a64;fill-rule:nonzero"
             d="m 168.091,223.745 h -36.774 c -11.031,0 -18.386,7.355 -18.386,18.386 v 18.388 c 0,11.03 7.355,18.385 18.386,18.385 h 36.774 c 11.031,0 18.386,-7.355 18.386,-18.385 v -18.388 c 0,-11.031 -7.355,-18.386 -18.386,-18.386 z" />
          <path
             id="path940"
             style="fill:#455a64;fill-rule:nonzero"
             d="m 112.931,113.426 h 73.546 c 11.032,0 18.386,-7.355 18.386,-18.386 V 76.653 c 0,-22.063 -31.257,-36.772 -55.159,-36.772 -23.902,0 -55.16,12.87 -55.16,36.772 V 95.04 c 0,11.031 7.355,18.386 18.387,18.386 z" />
          <path
             id="path942"
             style="fill:#455a64;fill-rule:nonzero"
             d="m 278.41,260.52 h -18.391 v -36.78 c 0.151,-10.15 -7.969,-18.5 -18.119,-18.64 -10.16,-0.15 -18.51,7.97 -18.65,18.12 V 349 c -0.03,0.58 -0.03,1.15 0,1.73 v 1.72 c -0.15,1.34 -0.15,2.69 0,4.02 v 38.5 c -8.02,-3.4 -17.35,-5.75 -27.58,-5.75 -10.23,0 -19.56,2.35 -27.58,5.75 v -60.91 c 0.36,-10.15 -7.57,-18.67 -17.72,-19.03 -0.8,-0.03 -1.6,0 -2.39,0.07 -0.78,0.14 -1.55,0.34 -2.3,0.58 -8.56,1.91 -14.57,9.61 -14.36,18.38 v 60.91 c -8.02,-3.4 -17.35,-5.75 -27.58,-5.75 -10.23,0 -19.571,2.35 -27.581,5.75 V 355.9 c 0.51,-2.47 0.51,-5.01 0,-7.47 V 223.74 c 0.241,-10.15 -7.79,-18.58 -17.939,-18.82 -1.5,-0.04 -3,0.11 -4.471,0.44 -8.559,1.92 -14.58,9.61 -14.359,18.38 v 36.78 H 20.999 v -55.16 c 0,-21.89 14.891,-36.77 36.771,-36.77 h 20.109 c 0.381,0.01 0.771,0.01 1.151,0 20.129,13.47 44.82,18.38 70.67,18.38 26.11,0 51.39,-4.56 71.83,-18.38 h 20.11 c 21.88,0 36.77,14.88 36.77,36.77 z m 0,36.77 H 260.019 V 278.9 h 18.391 z m 0,36.77 H 260.019 V 315.68 H 278.41 Z M 223.25,426 h -55.16 v -10.35 c 7.66,-4.02 17.99,-8.04 27.58,-8.04 9.59,0 19.92,4.02 27.58,8.04 z m -91.93,0 H 76.159 v -10.35 c 7.651,-4.02 17.981,-8.04 27.581,-8.04 9.59,0 19.92,4.02 27.58,8.04 z M 39.39,297.29 H 20.999 V 278.9 H 39.39 Z m 0,36.77 H 20.999 V 315.68 H 39.39 Z M 76.159,85.85 c 0,-26.259 7.51,-40.479 19.531,-49.99 12.02,-9.519 30.9,-14.369 54.01,-14.369 23.34,0 42.14,4.56 54.01,13.789 11.88,9.24 19.54,23.271 19.54,50.57 0,12.811 -1.69,22.71 -4.72,30.55 -3.4,8.86 -8.52,15.11 -14.82,20.01 -11.87,9.24 -30.67,13.79 -54.01,13.79 -23.11,0 -41.99,-4.85 -54.01,-14.37 -6.191,-4.9 -11.18,-11.04 -14.561,-19.43 -3.199,-7.91 -4.97,-17.82 -4.97,-30.55 z M 299.41,205.36 c 0,-26.97 -15.76,-47.97 -39.391,-55.12 v -15.86 c 0,-9.93 -8.049,-17.98 -17.979,-17.98 h -1.43 c 2.45,-8.96 3.64,-19.09 3.64,-30.55 0,-31.14 -8.78,-52.47 -27.64,-67.14 C 201.07,6.621 178.56,0.491 149.7,0.491 121.46,0.491 98.28,7.03 82.659,19.391 63.9,34.25 55.159,55.36 55.159,85.85 c 0,11.451 1.241,21.58 3.781,30.55 h -1.571 c -9.929,0 -17.99,8.05 -17.99,17.98 v 15.86 C 15.76,157.39 0,178.4 0,205.36 v 55.16 c 0,3.3 0.78,6.41 2.14,9.19 C 0.78,272.49 0,275.6 0,278.9 v 18.39 c 0,3.3 0.78,6.41 2.14,9.19 -1.36,2.78 -2.14,5.9 -2.14,9.2 v 18.38 c 0,11.6 9.4,21 20.999,21 H 39.39 c 6.29,0 11.92,-2.78 15.769,-7.16 v 0.53 c 0,1.25 0.111,2.5 0.331,3.73 -0.22,1.23 -0.331,2.48 -0.331,3.74 v 39.07 c 0,3.68 0.97,7.23 2.731,10.34 -1.75,3.1 -2.731,6.65 -2.731,10.34 V 426 c 0,11.59 9.401,21 21,21 h 55.161 c 7.92,0 14.81,-4.39 18.38,-10.87 3.58,6.48 10.47,10.87 18.39,10.87 h 55.16 c 11.6,0 21,-9.41 21,-21 v -10.35 c 0,-3.69 -0.98,-7.24 -2.74,-10.34 1.77,-3.11 2.74,-6.66 2.74,-10.34 v -38.5 c 0,-0.67 -0.03,-1.34 -0.1,-2.01 0.07,-0.67 0.1,-1.34 0.1,-2.01 v -1.72 c 0,-0.29 -0.01,-0.58 -0.02,-0.87 0.01,-0.28 0.02,-0.57 0.02,-0.86 v -1.1 c 3.85,4.38 9.48,7.16 15.769,7.16 h 18.391 c 11.6,0 21,-9.4 21,-21 v -18.38 c 0,-3.3 -0.78,-6.42 -2.14,-9.2 1.36,-2.78 2.14,-5.89 2.14,-9.19 V 278.9 c 0,-3.3 -0.78,-6.41 -2.14,-9.19 1.36,-2.78 2.14,-5.89 2.14,-9.19 z" />
        </g>
      </g>
    </g>
  </g>
</svg>
