<svg xmlns="http://www.w3.org/2000/svg" viewBox="0 0 490 490"><defs><style>.a{fill:#3f2b96;}.b{fill:#fff;}</style></defs><title>CoinSwitch</title><rect class="a" width="490" height="490" rx="60.06" ry="60.06"/><path class="b" d="M191.09,408.93c-.2.14-.36.32-.55.45a43.1,43.1,0,0,1-6.38,3.94l0,0a42.26,42.26,0,0,1-15.07,4.34h0c-1.36.13-2.68.4-4.08.4h-.87c-23.77-.48-42.65-20.37-42.17-44.42.48-23.75,19.66-42.67,43-42.67h.89c22.91.49,41.07,19,42,41.83,0,.89.21,1.71.19,2.6a40.86,40.86,0,0,1-1,8.36c-.24,1.15-.69,2.21-1,3.32-.46,1.48-.85,3-1.44,4.39a41.57,41.57,0,0,1-2.21,4.24c-.49.88-.93,1.82-1.48,2.67a46.15,46.15,0,0,1-3.59,4.63c-.4.44-.73.92-1.15,1.34a42.61,42.61,0,0,1-5,4.55Z" transform="translate(-10 -10)"/><path class="b" d="M272.71,135.54a40.54,40.54,0,0,1-.57-7.27,42.55,42.55,0,0,1,.9-7.63c.13-.68.29-1.35.45-2a43,43,0,0,1,2-6.13c.33-.84.75-1.61,1.13-2.42a44.88,44.88,0,0,1,2.3-4.13c.66-1.05,1.34-2,2.07-3,.53-.7,1.1-1.34,1.66-2a41.5,41.5,0,0,1,5.77-5.63c.29-.24.56-.48.86-.71a44,44,0,0,1,4.21-2.88,42.46,42.46,0,0,1,21.67-6.1H316c23.76.48,42.63,20.38,42.15,44.42-.46,23.74-19.63,42.67-43,42.67h-.89c-19-.39-34.76-13.34-40.07-30.81a43.35,43.35,0,0,1-1.51-6.34Z" transform="translate(-10 -10)"/><path class="b" d="M268.75,223.05c68.65,19.6,107,45.48,105.84,105.48v1c-.88,44.6-23.5,75.92-59.46,91.94l0,.06c-27.53,15.63-93.8,17.51-128.36,17.38a68.46,68.46,0,0,0,45.51-63c0-1.39-.08-2.74-.13-4.11a207.33,207.33,0,0,0,41.93-7.69v-.05c16.18-4.54,25.67-14.52,26-28.7v-1c.39-19.18-11.1-29.24-67.67-45.16-68.17-19.1-112-39.19-110.67-107.54v-1c.81-40,21.83-70.85,55.05-87.52l0-.1c25.16-15.33,69.57-17.22,96.09-16.78a68,68,0,0,0-23.65,66.32,130.86,130.86,0,0,0-34.9,8.16c-11.6,5.12-17.83,14.06-18,24.55l0,1c-.44,22.61,14,30.29,72.51,46.74Z" transform="translate(-10 -10)"/></svg>