<svg width="256px" height="256px" viewBox="0 0 490 490" version="1.1" xmlns="http://www.w3.org/2000/svg" xmlns:xlink="http://www.w3.org/1999/xlink">
    <g id="Page-1" stroke="none" stroke-width="1" fill="none" fill-rule="evenodd">
        <g id="CoinBene">
            <path d="M0,245 C0,380.094 109.906,490 245,490 C380.094,490 490,380.094 490,245 C490,109.906 380.094,0 245,0 C109.906,0 0,109.906 0,245 Z" id="Full" fill="#465FF0"></path>
            <path d="M415.346,223.707 C420.993463,229.354144 424.166201,237.013507 424.166201,245 C424.166201,252.986493 420.993463,260.645856 415.346,266.293 L266.293,415.346 C260.645856,420.993463 252.986493,424.166201 245,424.166201 C237.013507,424.166201 229.354144,420.993463 223.707,415.346 L74.654,266.293 C69.0065371,260.645856 65.8337988,252.986493 65.8337988,245 C65.8337988,237.013507 69.0065371,229.354144 74.654,223.707 L223.707,74.654 C229.354144,69.0065371 237.013507,65.8337988 245,65.8337988 C252.986493,65.8337988 260.645856,69.0065371 266.293,74.654 L415.346,223.707 Z" id="Rounded_Rectangle_867" fill="#FFFFFF"></path>
            <path d="M312,200.843071 L312,187 C312,181.69567 309.892863,176.608592 306.142136,172.857864 C302.391408,169.107137 297.30433,167 292,167 L198,167 L198,167 C186.954305,167 178,175.954305 178,187 L178,303 C178,314.045695 186.954305,323 198,323 L292,323 C303.045695,323 312,314.045695 312,303 L312,218.299786 L282,236.156929 L282,283 C282,288.522847 277.522847,293 272,293 L217,293 C211.477153,293 207,288.522847 207,283 L207,205 C207,199.477153 211.477153,195 217,195 L272,195 C277.522847,195 282,199.477153 282,205 L282,218.700214 L312,200.843071 Z" id="Rounded_Rectangle_868" fill="#465FF0"></path>
        </g>
    </g>
</svg>