<?xml version="1.0" encoding="UTF-8" standalone="no"?>
<svg
   viewBox="0 0 67.733 67.733"
   height="256"
   width="256"
   version="1.1"
   id="svg8"
   sodipodi:docname="COMP_BEP20.svg"
   inkscape:version="1.1 (c68e22c387, 2021-05-23)"
   xmlns:inkscape="http://www.inkscape.org/namespaces/inkscape"
   xmlns:sodipodi="http://sodipodi.sourceforge.net/DTD/sodipodi-0.dtd"
   xmlns="http://www.w3.org/2000/svg"
   xmlns:svg="http://www.w3.org/2000/svg">
  <defs
     id="defs12" />
  <sodipodi:namedview
     id="namedview10"
     pagecolor="#ffffff"
     bordercolor="#666666"
     borderopacity="1.0"
     inkscape:pageshadow="2"
     inkscape:pageopacity="0.0"
     inkscape:pagecheckerboard="0"
     showgrid="false"
     inkscape:zoom="3.4101562"
     inkscape:cx="128"
     inkscape:cy="128"
     inkscape:window-width="2560"
     inkscape:window-height="1361"
     inkscape:window-x="-9"
     inkscape:window-y="-9"
     inkscape:window-maximized="1"
     inkscape:current-layer="svg8" />
  <path
     d="M1.532 33.923c0 17.872 14.54 32.411 32.411 32.411s32.411-14.54 32.411-32.411S51.815 1.512 33.943 1.512 1.532 16.052 1.532 33.923z"
     fill="#00d395"
     fill-rule="evenodd"
     id="path2" />
  <path
     d="M30.67 23.322l12.7 7.588s2.009.955 1.982 2.953l-.018 14.027 2.861-1.687s.897-.448.825-1.39c-.027-1.013-.009-20.09-.009-20.09s.135-1.247-1.085-1.973l-14.73-8.684s-.63-.43-1.454-.272c-.447.085-1.08.42-1.084 1.501.027.448.012 8.029.012 8.029zm-6.462 10.576l12.709 7.624s1.758.883 1.731 2.881l-.084 7.515 3.187-1.8s.844-.415.793-1.432c-.027-1.013.014-13.353.014-13.353s.1-1.65-1.12-2.377l-14.774-8.69s-.7-.543-1.507-.27c-.875.295-.957.873-.961 1.873.027.448.012 8.029.012 8.029zm-6.796 8.22l.025-6.291s-.063-.609.52-1.148 1.357-.285 1.655-.089 14.891 8.689 14.891 8.689 1.313.736 1.281 2.473 0 6.697 0 6.697.057.679-.679 1.287-1.452.374-1.953.082-14.193-8.695-14.193-8.695-1.558-.982-1.547-3.006z"
     fill="#fff"
     id="path4" />
  <path
     d="M33.834 3.039c-16.982 0-30.799 13.832-30.799 30.834s13.816 30.834 30.799 30.834 30.799-13.832 30.799-30.834S50.817 3.039 33.834 3.039m0-3.039c18.642 0 33.834 15.208 33.834 33.873S52.478 67.747 33.834 67.747 0 52.538 0 33.873 15.192 0 33.834 0z"
     fill="#474747"
     id="path6"
     style="fill:#e8a607;fill-opacity:1" />
</svg>
