<?xml version="1.0" encoding="UTF-8" standalone="no"?>
<svg
   xmlns:dc="http://purl.org/dc/elements/1.1/"
   xmlns:cc="http://creativecommons.org/ns#"
   xmlns:rdf="http://www.w3.org/1999/02/22-rdf-syntax-ns#"
   xmlns:svg="http://www.w3.org/2000/svg"
   xmlns="http://www.w3.org/2000/svg"
   xmlns:sodipodi="http://sodipodi.sourceforge.net/DTD/sodipodi-0.dtd"
   xmlns:inkscape="http://www.inkscape.org/namespaces/inkscape"
   viewBox="0 0 64.822 64.822"
   height="244.99774"
   width="244.99774"
   version="1.1"
   id="svg8"
   sodipodi:docname="COMP_BEP20.svg"
   inkscape:version="1.0.2-2 (e86c870879, 2021-01-15)">
  <metadata
     id="metadata8">
    <rdf:RDF>
      <cc:Work
         rdf:about="">
        <dc:format>image/svg+xml</dc:format>
        <dc:type
           rdf:resource="http://purl.org/dc/dcmitype/StillImage" />
      </cc:Work>
    </rdf:RDF>
  </metadata>
  <defs
     id="defs12" />
  <sodipodi:namedview
     id="namedview10"
     pagecolor="#ffffff"
     bordercolor="#666666"
     borderopacity="1.0"
     inkscape:pageshadow="2"
     inkscape:pageopacity="0.0"
     inkscape:pagecheckerboard="0"
     showgrid="false"
     inkscape:zoom="3.4101562"
     inkscape:cx="122.20974"
     inkscape:cy="122.28533"
     inkscape:window-width="1920"
     inkscape:window-height="1017"
     inkscape:window-x="-8"
     inkscape:window-y="-8"
     inkscape:window-maximized="1"
     inkscape:current-layer="svg8"
     inkscape:document-rotation="0" />
  <path
     d="m 0,32.411 c 0,17.872 14.54,32.411 32.411,32.411 17.871,0 32.411,-14.54 32.411,-32.411 C 64.822,14.54 50.283,0 32.411,0 14.539,0 0,14.54 0,32.411 Z"
     fill="#00d395"
     fill-rule="evenodd"
     id="path2" />
  <path
     d="m 29.138,21.81 12.7,7.588 c 0,0 2.009,0.955 1.982,2.953 l -0.018,14.027 2.861,-1.687 c 0,0 0.897,-0.448 0.825,-1.39 -0.027,-1.013 -0.009,-20.09 -0.009,-20.09 0,0 0.135,-1.247 -1.085,-1.973 l -14.73,-8.684 c 0,0 -0.63,-0.43 -1.454,-0.272 -0.447,0.085 -1.08,0.42 -1.084,1.501 0.027,0.448 0.012,8.029 0.012,8.029 z m -6.462,10.576 12.709,7.624 c 0,0 1.758,0.883 1.731,2.881 l -0.084,7.515 3.187,-1.8 c 0,0 0.844,-0.415 0.793,-1.432 -0.027,-1.013 0.014,-13.353 0.014,-13.353 0,0 0.1,-1.65 -1.12,-2.377 l -14.774,-8.69 c 0,0 -0.7,-0.543 -1.507,-0.27 -0.875,0.295 -0.957,0.873 -0.961,1.873 0.027,0.448 0.012,8.029 0.012,8.029 z m -6.796,8.22 0.025,-6.291 c 0,0 -0.063,-0.609 0.52,-1.148 0.583,-0.539 1.357,-0.285 1.655,-0.089 0.298,0.196 14.891,8.689 14.891,8.689 0,0 1.313,0.736 1.281,2.473 -0.032,1.737 0,6.697 0,6.697 0,0 0.057,0.679 -0.679,1.287 -0.736,0.608 -1.452,0.374 -1.953,0.082 -0.501,-0.292 -14.193,-8.695 -14.193,-8.695 0,0 -1.558,-0.982 -1.547,-3.006 z"
     fill="#ffffff"
     id="path4" />
</svg>
