<?xml version="1.0" encoding="utf-8"?>
<!-- Generator: Adobe Illustrator 22.0.0, SVG Export Plug-In . SVG Version: 6.00 Build 0)  -->
<svg version="1.1" id="Lager_1" xmlns="http://www.w3.org/2000/svg" xmlns:xlink="http://www.w3.org/1999/xlink" x="0px" y="0px"
	 viewBox="0 0 256 256" style="enable-background:new 0 0 256 256;" xml:space="preserve">
<style type="text/css">
	.st0{fill:#465FF0;}
	.st1{fill:#FFFFFF;}
</style>
<g id="Page-1">
	<g id="CoinBene">
		<path id="Full" class="st0" d="M0,128c0,70.6,57.4,128,128,128s128-57.4,128-128S198.6,0,128,0S0,57.4,0,128z"/>
		<path id="Rounded_Rectangle_867" class="st1" d="M217,116.9c3,3,4.6,7,4.6,11.1c0,4.2-1.7,8.2-4.6,11.1L139.1,217
			c-3,3-7,4.6-11.1,4.6c-4.2,0-8.2-1.7-11.1-4.6L39,139.1c-3-3-4.6-7-4.6-11.1c0-4.2,1.7-8.2,4.6-11.1L116.9,39c3-3,7-4.6,11.1-4.6
			c4.2,0,8.2,1.7,11.1,4.6L217,116.9z"/>
		<path id="Rounded_Rectangle_868" class="st0" d="M163,104.9v-7.2c0-2.8-1.1-5.4-3.1-7.4c-2-2-4.6-3.1-7.4-3.1h-49.1l0,0
			c-5.8,0-10.4,4.7-10.4,10.4v60.6c0,5.8,4.7,10.4,10.4,10.4h49.1c5.8,0,10.4-4.7,10.4-10.4v-44.3l-15.7,9.3v24.5
			c0,2.9-2.3,5.2-5.2,5.2h-28.7c-2.9,0-5.2-2.3-5.2-5.2v-40.8c0-2.9,2.3-5.2,5.2-5.2h28.7c2.9,0,5.2,2.3,5.2,5.2v7.2L163,104.9z"/>
	</g>
</g>
</svg>
