<svg xmlns="http://www.w3.org/2000/svg" width="244.8" height="244.8" viewBox="0 0 244.8 244.8">
  <g id="cope-solana" transform="translate(-3533.6 -6866.958)">
    <g id="media-solana" transform="translate(678.075 727)">
      <path id="Main_copy_10" d="M0,121.252C0,188.064,54.44,242.5,121.252,242.5S242.5,188.064,242.5,121.252,188.064,0,121.252,0,0,54.44,0,121.252Z" transform="translate(2856.773 6141.206)" fill="#01000f"/>
      <g id="Main_copy_14" transform="translate(2855.525 6139.958)" fill="none">
        <path d="M0,122.4c0,67.444,54.954,122.4,122.4,122.4s122.4-54.954,122.4-122.4S189.841,0,122.4,0,0,54.954,0,122.4Z" stroke="none"/>
        <path d="M 122.4000015258789 11 C 60.97383117675781 11 11 60.97383117675781 11 122.4000015258789 C 11 183.826171875 60.97383117675781 233.8000030517578 122.4000015258789 233.8000030517578 C 183.826171875 233.8000030517578 233.8000030517578 183.826171875 233.8000030517578 122.4000015258789 C 233.8000030517578 60.97383117675781 183.826171875 11 122.4000015258789 11 M 122.4000015258789 0 C 189.8410034179688 0 244.8000030517578 54.95399475097656 244.8000030517578 122.4000015258789 C 244.8000030517578 189.8460083007813 189.8460083007813 244.8000030517578 122.4000015258789 244.8000030517578 C 54.95399475097656 244.8000030517578 0 189.843994140625 0 122.4000015258789 C 0 54.95399475097656 54.95899963378906 0 122.4000015258789 0 Z" stroke="none" fill="#1ae5ae"/>
      </g>
    </g>
    <g id="Group_9264" data-name="Group 9264" transform="translate(-14.215 -3.475)">
      <ellipse id="Ellipse_853" data-name="Ellipse 853" cx="14.5" cy="14" rx="14.5" ry="14" transform="translate(3611.215 6978.475)" fill="#fff"/>
      <circle id="Ellipse_854" data-name="Ellipse 854" cx="14" cy="14" r="14" transform="translate(3656.215 6978.475)" fill="#fff"/>
      <ellipse id="Ellipse_855" data-name="Ellipse 855" cx="14.5" cy="14" rx="14.5" ry="14" transform="translate(3700.215 6978.475)" fill="#fff"/>
    </g>
  </g>
</svg>
