<svg xmlns="http://www.w3.org/2000/svg" viewBox="0 0 3500 3500" xmlns:v="https://vecta.io/nano"><path d="M1750 0c966.5 0 1750 783.5 1750 1750s-783.5 1750-1750 1750S0 2716.5 0 1750 783.5 0 1750 0h0z" fill="#00467a"/><linearGradient id="A" gradientUnits="userSpaceOnUse" x1="1480.345" y1="2304.537" x2="1252.889" y2="1015.488"><stop offset=".1" stop-color="#194aad"/><stop offset=".5" stop-color="#248fcb"/><stop offset=".8" stop-color="#2bbfdf"/></linearGradient><path d="M762.6 1521.6c-35.1 0-50.7 15.6-50.7 46.8v803.7c0 35.1 15.6 46.8 50.7 46.8 386.3 3.9 858.3-339.4 1248.5-608.6V881.7c-386.2 265.3-870 643.8-1248.5 639.9z" fill="url(#A)"/><linearGradient id="B" gradientUnits="userSpaceOnUse" x1="2340.643" y1="902.173" x2="2039.865" y2="2607.772"><stop offset=".1" stop-color="#194aad"/><stop offset=".5" stop-color="#248fcb"/><stop offset=".8" stop-color="#2bbfdf"/></linearGradient><path d="M2795.3 1884.4c35.1 0 50.7-15.6 50.7-46.8v-803.7c0-35.1-15.6-46.8-50.7-46.8-390.2-3.9-858.3 339.4-1248.5 608.6v924.7c386.3-265.3 870.1-643.8 1248.5-636z" fill="url(#B)"/><path d="M2011.1 1810.3v-530.6c-160 101.4-319.9 210.7-468.2 312.1v530.6c163.9-101.4 320-210.7 468.2-312.1z" fill="#194aad"/></svg>