<?xml version="1.0" encoding="UTF-8"?>
<svg xmlns="http://www.w3.org/2000/svg" version="1.1" viewBox="0 0 250 250">
  <defs>
    <style>
      .cls-1 {
        isolation: isolate;
      }

      .cls-2 {
        mix-blend-mode: multiply;
      }

      .cls-3 {
        fill: #071222;
      }

      .cls-4 {
        fill: #fff;
      }
    </style>
  </defs>
  <!-- Generator: Adobe Illustrator 28.7.1, SVG Export Plug-In . SVG Version: 1.2.0 Build 142)  -->
  <g class="cls-1">
    <g id="Layer_1">
      <path class="cls-3" d="M125,247.5c67.7,0,122.5-54.8,122.5-122.5S192.7,2.5,125,2.5,2.5,57.3,2.5,125s54.8,122.5,122.5,122.5Z"/>
      <g>
        <path class="cls-4" d="M125,33l-80.3,46v92l80.3,46,80.2-46v-92l-80.2-46ZM181.5,157.4l-56.4,32.4-56.5-32.4v-64.8l56.5-32.4,56.4,32.4v64.8Z"/>
        <g class="cls-2">
          <path class="cls-4" d="M125,217l80.2-46v-92l-80.2-46v27.3l56.4,32.4v64.8l-56.4,32.3v27.3Z"/>
        </g>
        <g class="cls-2">
          <path class="cls-4" d="M125,33l-80.2,46v92l80.2,46v-27.3l-56.4-32.4v-64.8l56.4-32.3v-27.3Z"/>
        </g>
        <path class="cls-4" d="M162.5,146.5l-37.5,21.5-37.5-21.5v-43l37.5-21.5,37.5,21.5-15.6,8.9-21.9-12.6-21.9,12.6v25l21.9,12.6,21.9-12.6,15.6,9Z"/>
      </g>
    </g>
  </g>
</svg>