<?xml version="1.0" encoding="UTF-8" standalone="no"?>
<svg
   xmlns:dc="http://purl.org/dc/elements/1.1/"
   xmlns:cc="http://creativecommons.org/ns#"
   xmlns:rdf="http://www.w3.org/1999/02/22-rdf-syntax-ns#"
   xmlns:svg="http://www.w3.org/2000/svg"
   xmlns="http://www.w3.org/2000/svg"
   id="svg8"
   version="1.1"
   viewBox="0 0 67.733332 67.733335"
   height="256"
   width="256">
  <defs
     id="defs2" />
  <metadata
     id="metadata5">
    <rdf:RDF>
      <cc:Work
         rdf:about="">
        <dc:format>image/svg+xml</dc:format>
        <dc:type
           rdf:resource="http://purl.org/dc/dcmitype/StillImage" />
        <dc:title></dc:title>
      </cc:Work>
    </rdf:RDF>
  </metadata>
  <g
     transform="translate(0,-229.26665)"
     id="layer1">
    <path
       style="fill:#ffffff;fill-rule:nonzero;stroke-width:3.20658565"
       d="M 125.06925,56.013911 86.590222,78.46001 v 44.37914 l 38.479028,22.25371 38.47903,-22.25371 V 78.299681 Z m 0,0 -38.479028,22.446099 v 44.37914 l 38.479028,22.25371 38.47903,-22.25371 V 78.299681 Z"
       id="path943" />
    <g
       id="g1029">
      <circle
         style="opacity:1;fill:#002559;fill-opacity:1;fill-rule:nonzero;stroke:none;stroke-width:3.35015416;stroke-linecap:round;stroke-linejoin:round;stroke-miterlimit:4;stroke-dasharray:none;stroke-dashoffset:0;stroke-opacity:1;paint-order:stroke fill markers"
         id="path994"
         cx="33.866665"
         cy="263.13333"
         r="32.776825" />
      <path
         style="opacity:1;fill:#ffffff;fill-opacity:1;fill-rule:nonzero;stroke:none;stroke-width:2.78777933;stroke-linecap:round;stroke-linejoin:round;stroke-miterlimit:4;stroke-dasharray:none;stroke-dashoffset:0;stroke-opacity:1;paint-order:stroke fill markers"
         id="path1006"
         d="m 55.321395,275.52022 -21.454726,12.3869 -21.454727,-12.3869 0,-24.77378 21.454727,-12.38689 21.454727,12.38689 z" />
      <path
         id="path945"
         d="M 33.866666,240.60951 14.407652,251.9606 v 22.44273 l 19.459014,11.2538 19.459015,-11.2538 v -22.52381 z m -7.702525,9.72951 h 15.340186 l 1.848614,7.81604 H 24.42905 Z m 6.210667,23.41568 -3.372891,3.12966 h -2.740478 l -6.989033,-12.21054 5.140425,-3.81072 4.589086,2.88643 v 5.14041 l 3.437758,3.24317 z m -2.254,-5.12421 0.518908,-4.86475 -1.621586,-4.37828 h 9.875449 l -1.621585,4.37828 0.48648,4.86475 z m 11.464599,8.20522 h -2.756689 l -3.340464,-3.08101 v -1.54051 l 3.421536,-3.24317 v -5.22149 l 4.540442,-2.96751 5.124205,3.85937 z"
         style="fill:#002559;fill-opacity:1;fill-rule:nonzero;stroke-width:1.62158442" />
    </g>
  </g>
</svg>
