<svg xmlns="http://www.w3.org/2000/svg" width="712" height="712" xmlns:v="https://vecta.io/nano"><defs><linearGradient id="A" x1="386.869" y1="572.066" x2="393.884" y2="210.419" gradientUnits="userSpaceOnUse"><stop offset="0" stop-color="#c237f3"/><stop offset="1" stop-color="#21d9af"/></linearGradient></defs><circle cx="356" cy="356" r="356" fill="url(#A)"/><path d="M328.603 675.877C191.608 664.552 74.657 563.849 43.108 430.045 36.705 402.89 35 387.279 35 355.8c0-31.277 1.711-47.131 7.939-73.582C71.612 160.444 167.665 66.839 290.327 41.136 313.189 36.345 327.59 35 356.007 35c34.132 0 59.738 3.312 87.525 11.322 103.483 29.829 185.272 108.328 218.156 209.38 11.203 34.426 15.344 61.5 15.312 100.098-.044 53.183-9.768 95.341-32.609 141.372-59.353 119.612-183.151 189.67-315.788 178.705zm-22.208-131.229c59.099-6.06 118.013-40.996 154.525-91.633 7.418-10.287 21.803-36.823 21.803-40.219 0-1.121-8.615-1.795-30.849-2.413-45.087-1.253-60.261-3.131-142.969-17.7-26.629-4.691-55.105-4.947-72.305-.651-12.251 3.06-37.158 14.06-40.185 17.747-.933 1.137-3.19 7.948-5.015 15.136-4.324 17.03-4.583 37.399-.67 52.592 9.613 37.325 40.552 62.03 84.004 67.081 13.871 1.612 16.461 1.617 31.661.058zm183.114-161.616c5.532-6.595 9.87-36.897 7.762-54.222-1.229-10.103-1.113-12.946.797-19.511 3.347-11.504 2.078-29.436-3.24-45.779-2.279-7.003-4.143-13.616-4.143-14.696 0-1.622 1.848-1.857 10.623-1.349 27.533 1.593 52.675-11.191 67.702-34.422 5.23-8.085 9.043-17.657 7.607-19.093-2.072-2.071-16.264-4.518-26.277-4.532-13.454-.019-24.004 2.489-34.965 8.312-9.358 4.971-22.591 16.897-27.344 24.643-5.18 8.442-6.445 7.155-5.64-5.736.404-6.466.018-14.746-.913-19.556-5.217-26.984-27.584-50.637-54.887-58.041-8.51-2.308-9.44-1.163-9.993 12.311-.541 13.174 2.099 25.547 7.905 37.057 5.774 11.445 21.605 27.043 33.197 32.707l8.811 4.305 7.444 19.153c8.454 21.753 13.113 38.314 12.502 44.444l-.417 4.184-6.302-8.035c-11.227-14.315-28.066-24.883-49.444-31.032-23.401-3.721-45.261-5.822-69.397-.657-57.918 12.73-113.4 50.389-145.854 98.999-10.604 15.883-18.67 33.145-15.488 33.145.429 0 4.519-2.09 9.089-4.643 17.265-9.647 35.076-13.918 58.049-13.918 18.318 0 33.184 1.989 69.528 9.304 22.074 4.443 43.159 7.463 68.217 9.771 3.284.302 23.286.3 44.45-.004 35.981-.518 38.618-.72 40.621-3.108z" fill="#010202"/></svg>