<?xml version="1.0" encoding="utf-8"?>
<!-- Generator: Adobe Illustrator 22.0.0, SVG Export Plug-In . SVG Version: 6.00 Build 0)  -->
<svg version="1.1" id="Lager_1" xmlns="http://www.w3.org/2000/svg" xmlns:xlink="http://www.w3.org/1999/xlink" x="0px" y="0px"
	 viewBox="0 0 500 500" style="enable-background:new 0 0 500 500;" xml:space="preserve">
<style type="text/css">
	.st0{fill:#FFFFFF;}
</style>
<title>CruXPay</title>
<circle class="st0" cx="250" cy="250" r="250"/>
<g>
	<path d="M93.2,234c-4.5-2.7-9.7-4.1-14.9-4c-15.3,0-24,9.2-24,24.2c0,9.8,6.8,16.1,17.9,16.1c5.2-0.1,10.4-1.4,15-3.9l-1.6,14.5
		c-5.6,1.5-11.4,2.3-17.2,2.4c-20,0-31.4-11.2-31.4-29.5c0-9.7,3.7-19,9.8-25.2c7.6-7.8,16.7-10.9,29.2-10.9
		c7.3,0.1,14.4,1.3,21.3,3.7L93.2,234z"/>
	<path d="M128.3,219.1c14.9,0,22.5,5.2,22.5,15.5c0,9.1-6.1,15-17.2,15.9c4.1,2.5,5.3,5.7,6.2,9.9l4.6,21.3h-16.4l-4.4-20.1
		c-0.8-3.6-2.8-4.8-7.5-4.8h-3l-5.2,24.9H91.3l13.3-62.7L128.3,219.1z M115.5,245.2h6c8,0,12.2-3.2,12.2-8.1c0-4.2-2.9-6.5-8.7-6.5
		h-6.5L115.5,245.2z"/>
	<path d="M179.6,219.1L172,254c-0.6,2.9-1,5.9-1,8.9c0.1,4.7,4,8.5,8.7,8.4c0.1,0,0.1,0,0.2,0c7.5,0,10.6-6,13.2-17.9l7.6-34.3h16.2
		l-8,39c-3.6,17.5-12.6,25.3-29.9,25.3c-16,0-24.6-7.6-24.6-21c0-2.9,0.3-5.7,0.9-8.5l7.6-34.8L179.6,219.1z"/>
</g>
<g>
	<g>
		<path d="M335.5,219.3c17.3,0,25.7,5.1,25.7,17c0,14.2-9.9,23.1-27,23.1c-2.1,0-5.1-0.1-8.9-0.3l-5,22.9h-16.6l13.3-62.7
			L335.5,219.3z M327.7,247.4h4.4c8.2,0,12.7-3.6,12.7-9.4c0-4.8-3.4-7.4-9.8-7.4h-3.9L327.7,247.4z"/>
	</g>
	<g>
		<path d="M400.4,270.2c-0.9,3.9-1.5,7.8-1.9,11.7h-13.5l0.9-7c-3.6,5.3-9.1,8-16.1,8c-9.6,0-15.5-5.6-15.5-13.8
			c0-10.4,9.6-16.9,27.4-16.9c2.5,0,5,0.2,7.5,0.4c0.1-0.5,0.1-1,0.1-1.5c0-4.7-3.1-7.2-8.9-7.2c-5.3,0-10.5,1.2-15.2,3.5l1.9-10.8
			c5-1.8,10.2-2.7,15.4-2.7c14,0,21.6,5.9,21.6,14.8c-0.1,2.8-0.4,5.6-1,8.3L400.4,270.2z M382.7,260.5c-8.7,0-13.2,2.5-13.2,7.2
			c0,3.1,2.4,5.2,6,5.2c5.6,0,10.6-4.5,11.8-12.3C385.8,260.6,384.3,260.5,382.7,260.5z"/>
	</g>
	<g>
		<path d="M424.8,235.5l2.8,18.7c0.5,3.1,1.1,7.3,1.5,12.6c1.9-4.5,3.4-7.8,4.5-9.8l11.6-21.4H462l-29.8,51.1
			c-6,10.2-11.1,15.1-21.8,15.1c-4.2-0.1-8.4-0.9-12.4-2.4l3.8-11.3c2.1,1,4.4,1.6,6.8,1.6c5,0,8.4-2.5,10.4-7.4l-10.4-46.8H424.8z"
			/>
	</g>
</g>
<polygon points="236.5,247.2 250.5,263.4 239.1,281.4 211.8,281.4 "/>
<polygon points="254.7,263.7 268.8,247.2 293.5,281.8 266.7,281.8 "/>
<polygon points="221.4,219 245.1,219 253.7,229.3 288.2,184.4 315.7,184.4 252.4,259.7 "/>
</svg>
