<svg xmlns="http://www.w3.org/2000/svg" viewBox="0 0 500 500"><defs><style>.a{fill:#fff;}.b{isolation:isolate;}</style></defs><title>CruXPay</title><circle class="a" cx="250" cy="250" r="250"/><g class="b"><path d="M93.16,234A27.31,27.31,0,0,0,78.26,230c-15.26,0-24,9.21-24,24.19,0,9.76,6.78,16.08,17.88,16.08a33.36,33.36,0,0,0,15-3.89l-1.63,14.45a68.88,68.88,0,0,1-17.15,2.35C48.38,283.16,37,272,37,253.72c0-9.66,3.7-19,9.75-25.19,7.58-7.76,16.7-10.92,29.25-10.92a68.69,68.69,0,0,1,21.31,3.7Z"/><path d="M128.27,219.05c14.9,0,22.49,5.24,22.49,15.53,0,9.12-6.14,15-17.25,15.89,4.15,2.53,5.33,5.69,6.23,9.93l4.61,21.31H127.91l-4.42-20.13c-.81-3.61-2.8-4.79-7.49-4.79h-3l-5.24,24.92H91.35l13.27-62.66Zm-12.82,26.1h6c8,0,12.19-3.16,12.19-8.13,0-4.24-2.89-6.5-8.67-6.5h-6.5Z"/><path d="M179.55,219.05,172,254a42.15,42.15,0,0,0-1,8.85,8.54,8.54,0,0,0,8.84,8.4c7.5,0,10.57-6,13.19-17.88l7.58-34.31h16.16l-8,39c-3.62,17.51-12.64,25.28-29.89,25.28-16,0-24.56-7.59-24.56-21a37.19,37.19,0,0,1,.91-8.49l7.58-34.76Z"/></g><g class="b"><g class="b"><path d="M335.45,219.27c17.34,0,25.73,5.14,25.73,17,0,14.18-9.93,23.11-27,23.11q-3.12,0-8.94-.27l-5,22.85H303.67l13.27-62.66Zm-7.76,28.08h4.42c8.22,0,12.73-3.61,12.73-9.39,0-4.79-3.43-7.41-9.75-7.41h-3.88Z"/></g><g class="b"><path d="M400.44,270.19a84.83,84.83,0,0,0-1.9,11.74H385.09l.9-7.05c-3.61,5.33-9.12,8-16.07,8-9.57,0-15.53-5.6-15.53-13.81,0-10.39,9.57-16.89,27.36-16.89a74.07,74.07,0,0,1,7.49.45,9.26,9.26,0,0,0,.09-1.53c0-4.7-3.07-7.22-8.94-7.22a33.39,33.39,0,0,0-15.16,3.52l1.89-10.84a45.36,45.36,0,0,1,15.44-2.71c14,0,21.58,5.87,21.58,14.81a46.5,46.5,0,0,1-1,8.31Zm-17.7-9.66c-8.67,0-13.18,2.53-13.18,7.22,0,3.07,2.35,5.24,6,5.24,5.6,0,10.65-4.52,11.83-12.28A41,41,0,0,0,382.74,260.53Z"/></g><g class="b"><path d="M424.8,235.52l2.8,18.69c.45,3.07,1.09,7.31,1.45,12.55,1.89-4.52,3.43-7.77,4.51-9.84l11.56-21.4H462l-29.79,51.1c-6,10.2-11.11,15.08-21.76,15.08a40.29,40.29,0,0,1-12.37-2.35l3.79-11.29a16.72,16.72,0,0,0,6.77,1.63c5,0,8.4-2.53,10.38-7.4l-10.38-46.77Z"/></g></g><polygon points="236.48 247.23 250.53 263.37 239.11 281.37 211.78 281.37 236.48 247.23"/><polygon points="254.7 263.69 268.75 247.23 293.45 281.81 266.66 281.81 254.7 263.69"/><polygon points="221.44 219.02 245.15 219.02 253.72 229.34 288.18 184.44 315.72 184.44 252.4 259.74 221.44 219.02"/></svg>