<svg xmlns="http://www.w3.org/2000/svg" width="250" height="250" xmlns:v="https://vecta.io/nano"><path d="M40.378 95.647h168.099v116.266H40.378z" fill="#fff"/><path d="M45.764 43.333h159.565v54.268H45.764z" fill="#f2da9f"/><path d="M112.146.756C92.403 3.444 73.714 9.098 56.827 19.673a143.18 143.18 0 0 0-7.271 4.943 124.39 124.39 0 0 0-17.677 15.815C23.915 49.068 13.737 65.41 9.328 76.304c-26.033 64.324 3.724 144.097 72.99 167.107a158.63 158.63 0 0 0 9.708 2.799c14.916 3.712 30.032 4.898 45.318 3.397 2.657-.261 6.948-.838 9.576-1.303a120.97 120.97 0 0 0 24.929-7.263c11.72-4.826 29.101-16.241 38.232-25.033 53.807-51.809 51.442-143.989-10.72-190.745a150.72 150.72 0 0 0-6.507-4.579c-10.117-6.645-21.275-11.847-32.899-15.198-2.095-.604-5.524-1.463-7.649-1.948-13.027-2.975-26.935-4.582-40.16-2.782M110.72 66.83l6.62-10.757A2.255 2.255 150.804 0 1 119.26 55h11.366a2.458 2.458 29.196 0 1 2.094 1.17l6.024 9.789a3.698 3.698 91.34 0 1-.094 4.021l-10.008 14.678c-2.011 2.95-5.272 2.95-7.285.001l-10.6-15.513c-.419-.632-.435-1.67-.037-2.316zm87.93 21.19l-12.736-18.679a1.606 1.606 101.012 0 1 .436-2.241l11.254-7.502A1.541 1.541 28.155 0 1 200 60.88v26.724a.739.739 162.857 0 1-1.35.416zm-73.684 84.311c-1.005 0-2.431 1.232-3.187 2.75-4.61 9.254-14.242 27.999-22.878 32.757-1.889 1.04-5.561.687-7.085-.8-12.139-11.839-38.059-75.032-41.108-90.967-.271-1.415-.312-3.798.165-5.153 2.389-6.78 13.445-6.513 19.625-1.389 1.402 1.162 3.087 3.637 3.898 5.271 5.326 10.715 13.334 38.024 21.929 43.403 1.325.829 4.075.977 5.369.119 7.772-5.151 11.974-33.333 21.185-38.762 1.565-.922 4.771-.931 6.312.027 8.761 5.446 11.107 33.098 18.257 38.699 1.249.979 4.108.932 5.418.024 8.207-5.69 14.68-34.893 20.95-44.314.822-1.235 2.628-2.867 3.867-3.69 6.188-4.112 14.563-5.133 18.378-.709 1.546 1.793 1.926 5.845 1.472 8.183-3.571 18.388-29.204 80.316-41.55 89.989-1.368 1.072-4.357 1.288-6.012.686-10.427-3.794-19.899-24.959-24.754-35.959a.3.3 0 0 0-.253-.164zM51.35 58.9l11.656 7.771a2.372 2.372 78.988 0 1 .644 3.309L51.622 87.62a.888.888 17.143 0 1-1.622-.5V59.622a.868.868 151.845 0 1 1.35-.722z" fill="#542d80"/></svg>