<svg xmlns="http://www.w3.org/2000/svg" xmlns:xlink="http://www.w3.org/1999/xlink" viewBox="0 0 490 490"><defs><style>.a{fill:url(#a);}.b{fill:#fff;}</style><linearGradient id="a" x1="245" y1="490" x2="245" gradientUnits="userSpaceOnUse"><stop offset="0" stop-color="#ae3ca9" stop-opacity="0.5"/><stop offset="1" stop-color="#e5e6e5" stop-opacity="0.5"/></linearGradient></defs><title>CryptoWolf</title><rect class="a" width="490" height="490" rx="60.06" ry="60.06"/><polygon class="b" points="117.34 58.92 114.71 168.93 166.86 122.02 117.34 58.92"/><path class="b" d="M256,300.93l-8.2-55.78-60-92.81L91.86,239.41l41.2-3.13L74.67,269.66l59.88,29.9-26.06.34L176.86,341l20.32,73.58,48,28.14L256,433.36l-24.89-29.19L256,390.61Zm-45.76-27.64-15.64.53-20.32-22.93,37.54,8.34,22.42,32.33Z" transform="translate(-10 -10)"/><polygon class="b" points="197.1 131.92 245.97 108.97 245.97 207.51 197.1 131.92"/><polygon class="b" points="374.62 59.25 325.08 122.34 377.23 169.25 374.62 59.25"/><path class="b" d="M256,390.93l24.89,13.56L256,433.68l10.81,9.4,48-28.17,20.32-73.51,68.37-41.18-26-.32L437.33,270l-58.39-33.37,41.2,3.13-95.95-87.08-60,92.81L256,301.25Zm21.76-99,22.42-32.32,37.54-8.35-20.32,22.87-15.64-.5Z" transform="translate(-10 -10)"/><polygon class="b" points="294.86 132.24 245.97 109.29 245.97 207.84 294.86 132.24"/></svg>