<?xml version="1.0" encoding="utf-8"?>
<!-- Generator: Adobe Illustrator 22.0.0, SVG Export Plug-In . SVG Version: 6.00 Build 0)  -->
<svg version="1.1" id="CSO" xmlns="http://www.w3.org/2000/svg" xmlns:xlink="http://www.w3.org/1999/xlink" x="0px" y="0px"
	 viewBox="0 0 490 490" style="enable-background:new 0 0 490 490;" xml:space="preserve">
<style type="text/css">
	.st0{fill:#40ACFE;}
	.st1{fill:#FFFFFF;}
</style>
<path id="Full" class="st0" d="M0,245c0,135.1,109.9,245,245,245s245-109.9,245-245S380.1,0,245,0S0,109.9,0,245z"/>
<path id="Nose" class="st1" d="M227,326.9l18,3.1l18-3.1l-3,10.2l-15,13.1l-15-13.1L227,326.9z"/>
<g id="L1">
	<g>
		<path class="st1" d="M173.3,323.1c1-4,2.1-7.9,3.4-11.7c0.6-1.9,1.2-3.9,1.9-5.8c0.6-1.9,1.3-3.8,2-5.7l2.1-5.9l3.7,5.8
			c2.5,3.9,4.9,7.8,7.3,11.8c2.4,4,4.7,8,6.9,12c2.2,4,4.4,8.1,6.5,12.2l3.1,6.1l3.1,6.2l-1-1.3l4.3,4.3l4.3,4.4l4.2,4.4
			c1.4,1.5,2.8,3,4.1,4.5c2.7,3,5.4,6.1,8.1,9.2c2.6,3.1,5.2,6.4,7.6,9.7c-3.5-2.1-7-4.4-10.3-6.8c-3.3-2.4-6.6-4.8-9.9-7.3
			c-1.6-1.2-3.2-2.5-4.8-3.8l-4.8-3.8l-4.7-3.9l-4.6-4l-0.5-0.4l-0.5-0.8l-3.3-6l-3.3-6.1c-2.1-4.1-4.2-8.2-6.3-12.3
			c-2-4.1-4-8.3-5.9-12.5c-1.9-4.2-3.8-8.4-5.5-12.7l5.9-0.1c-1,1.7-2,3.5-3.1,5.2c-1,1.7-2.1,3.4-3.2,5.1
			C178,316.5,175.8,319.8,173.3,323.1z"/>
		<path class="st1" d="M204,257.7c-1.2,0.6-2.4,1.1-3.7,1.7c-1.2,0.6-2.5,1.1-3.7,1.6c-2.5,1.1-4.9,2.1-7.4,3.1l-1.1,0.4l-1.1-1.1
			c-1.9-1.9-3.8-3.9-5.7-5.8c-1.9-1.9-3.7-3.9-5.6-5.9c-1.8-2-3.7-4-5.5-6c-1.8-2-3.6-4-5.4-6l-9.4-10.7l14.1,3.9
			c4.8,1.3,9.5,2.7,14.2,4.1l7.1,2.1l7.1,2.2c2.4,0.7,4.7,1.5,7,2.3c2.3,0.8,4.7,1.5,7,2.4c4.7,1.6,9.3,3.2,14,4.9l3.1,1.1l0,2.9
			l0,6.4l0,6.4c0,4.3-0.1,8.6-0.3,12.8c-0.2,4.3-0.3,8.6-0.6,12.9c-0.3,4.3-0.6,8.6-1.1,12.9c-0.9-4.2-1.6-8.5-2.4-12.7
			c-0.7-4.2-1.3-8.5-1.9-12.7c-0.5-4.2-1.1-8.5-1.5-12.8l-0.7-6.4l-0.6-6.4l3.1,4c-4.7-1.3-9.5-2.7-14.2-4.2
			c-2.4-0.7-4.7-1.4-7.1-2.2c-2.3-0.8-4.7-1.5-7-2.2l-7-2.3l-7-2.4c-4.7-1.6-9.3-3.3-13.9-5l4.7-6.9c1.6,2.2,3.2,4.3,4.8,6.5
			c1.6,2.2,3.2,4.4,4.7,6.6c1.6,2.2,3.1,4.4,4.6,6.7c1.5,2.2,3,4.5,4.5,6.8l-2.2-0.7c2.6-0.5,5.3-0.9,7.9-1.4c1.3-0.2,2.6-0.4,4-0.6
			C201.4,258.1,202.7,257.9,204,257.7z"/>
	</g>
</g>
<g id="L1_Mirror">
	<g>
		<path class="st1" d="M317.9,322.9c-2.4-3.3-4.7-6.7-6.9-10.1c-1.1-1.7-2.2-3.4-3.2-5.1c-1.1-1.7-2.1-3.5-3.1-5.2l5.9,0.1
			c-1.8,4.3-3.6,8.5-5.5,12.7c-1.9,4.2-3.9,8.4-5.9,12.5c-2,4.1-4.1,8.2-6.3,12.3l-3.3,6.1l-3.3,6l-0.5,0.8l-0.5,0.4l-4.6,4
			l-4.7,3.9l-4.8,3.8c-1.6,1.2-3.2,2.5-4.8,3.7c-3.2,2.5-6.5,4.9-9.9,7.3c-3.4,2.4-6.8,4.6-10.3,6.8c2.4-3.4,5-6.6,7.6-9.7
			c2.6-3.1,5.3-6.2,8.1-9.2c1.4-1.5,2.8-3,4.1-4.5l4.2-4.4l4.3-4.4l4.3-4.3l-1,1.3l3.1-6.2l3.2-6.1c2.1-4.1,4.3-8.1,6.6-12.2
			c2.2-4,4.5-8,6.9-12c2.4-4,4.8-7.9,7.3-11.8l3.7-5.8l2.1,5.9c0.7,1.9,1.4,3.8,2,5.7c0.7,1.9,1.3,3.8,1.9,5.8
			C315.7,315.1,316.9,319,317.9,322.9z"/>
		<path class="st1" d="M287.1,257.6c1.3,0.2,2.7,0.4,4,0.5c1.3,0.2,2.7,0.4,4,0.6c2.7,0.4,5.3,0.9,8,1.4l-2.2,0.7
			c1.5-2.3,3-4.5,4.5-6.8c1.5-2.2,3.1-4.5,4.6-6.7c1.6-2.2,3.1-4.4,4.7-6.6c1.6-2.2,3.2-4.4,4.8-6.5l4.7,6.9c-4.6,1.7-9.3,3.4-14,5
			l-7,2.4l-7,2.3c-4.7,1.5-9.4,3-14.1,4.4c-4.7,1.4-9.5,2.8-14.2,4.1l3.1-4l-0.6,6.4l-0.7,6.4c-0.5,4.3-1,8.5-1.5,12.7
			c-0.6,4.2-1.2,8.5-1.9,12.7c-0.7,4.2-1.4,8.5-2.4,12.7c-0.5-4.3-0.8-8.6-1.1-12.9c-0.3-4.3-0.4-8.6-0.6-12.8
			c-0.1-4.3-0.2-8.6-0.3-12.8l0-6.4l0-6.4l0-2.9l3.1-1.1c4.7-1.7,9.3-3.3,14-4.9c4.7-1.6,9.4-3.1,14.1-4.6l7.1-2.2l7.1-2.1
			c4.7-1.4,9.5-2.8,14.3-4.1l14.2-3.9l-9.5,10.7c-1.8,2-3.6,4-5.4,6c-1.8,2-3.7,4-5.5,6c-1.9,2-3.7,3.9-5.6,5.9
			c-1.9,1.9-3.8,3.9-5.7,5.8l-1.1,1.1l-1.1-0.4c-2.5-1-5-2.1-7.4-3.1c-1.2-0.5-2.5-1.1-3.7-1.6C289.5,258.7,288.3,258.2,287.1,257.6
			z"/>
	</g>
</g>
<g id="L2">
	<path class="st1" d="M173.3,321.8c-5.3-4.5-10.6-9.1-15.8-13.6l-15.7-13.7l-7.8-6.9l-7.8-6.9l-15.5-13.9l-3.1-2.8l1.7-4.8l3.1-8.7
		c1.1-2.9,2.3-5.7,3.6-8.4c2.7-5.5,5-11.2,7.5-16.8l14.8-33.6l3.1-7l6.9,3.2l7.7,3.5l-9.9,10.1l-33-68.9l-8.2-17.1l17.7,6.9
		l68.9,26.7l-3.8-0.4l56.3-8l1.1-0.1l1.1,0.1l56.3,8l-3.8,0.5l66.6-26.7l17.2-6.9l-7.5,16.9L344,201.3l-10.3-9.7l6.9-3.5l7-3.6
		l3.2,7.2l15.2,33.6l3.8,8.4c1.3,2.8,2.5,5.6,3.9,8.4c2.8,5.5,4.7,11.4,6.9,17.2l1.8,4.8l-3.1,2.8l-15.6,13.9l-7.8,6.9l-7.8,6.9
		l-15.7,13.8c-5.3,4.5-10.5,9.1-15.8,13.6c4.3-5.5,8.7-10.9,13.1-16.3l13.2-16.2l6.6-8.1l6.7-8l13.3-16l-1.3,7.5
		c-2.9-5.4-6.1-10.7-8.3-16.5c-1.2-2.8-2.4-5.7-3.7-8.5l-3.8-8.4l-15.2-33.6l10.2,3.6l-6.9,3.5l-18.9,9.6l8.6-19.4l30.7-68.9l9.6,10
		L304.1,163l-1.9,0.7l-2-0.3l-56.3-8h2.1l-56.3,8l-1.9,0.3L186,163l-68.9-26.7l9.5-10.2l33,68.9l9,18.7l-18.9-8.7l-7.7-3.5l10-3.8
		l-14.8,33.6c-2.4,5.6-5,11.2-7.3,16.9c-1.1,2.8-2.4,5.7-3.8,8.4l-4.3,8.2l-1.4-7.6l13.3,16l6.6,8l6.6,8.1l13.2,16.2
		C164.7,310.9,169,316.3,173.3,321.8z"/>
</g>
</svg>
