<svg xmlns="http://www.w3.org/2000/svg" width="250" height="250" xmlns:v="https://vecta.io/nano"><defs><linearGradient id="A" x1="16.821" y1="180.639" x2="237.883" y2="38.341" gradientUnits="userSpaceOnUse"><stop offset="0" stop-color="#bc35e7" stop-opacity=".949"/><stop offset="1" stop-color="#12e4bb" stop-opacity=".988"/></linearGradient></defs><circle cx="125" cy="125" r="125" fill="url(#A)"/><path d="M124.734 239.925c.596-.041 1.519-.041 2.051 0s.044.076-1.083.076-1.563-.035-.967-.076zm4.192-10.03l.108-10.174c.14-.086.137 7.477-.006 16.668-.031 1.972-.077-.95-.102-6.493zm1.594.461c0-5.234.069-9.558.154-9.611s.129 4.178.099 9.401l-.055 9.496.875.079.875.079-.974.036-.974.036zm-14.719 2.191c.024-3.916.07-6.014.102-4.661.144 6.193.148 11.782.008 11.782-.085 0-.134-3.204-.109-7.12zm-2.655 6.773c.2-.052.476-.049.615.008s-.024.099-.363.094-.452-.05-.252-.102zm21.774-8.054l.06-4.149v8.298c-.033 2.282-.06.415-.06-4.149zm1.39 8.055c.328-.086.361-.642.413-6.994l.057-6.901.048 7.018.048 7.018-.461-.024c-.343-.018-.37-.048-.105-.117zm-25.116-.2c.141-.057.372-.057.513 0s.026.103-.256.103-.397-.046-.256-.103zm28.707-.205c.141-.057.372-.057.513 0s.026.103-.256.103-.397-.046-.256-.103zm-31.783-.205c.141-.057.372-.057.513 0s.026.103-.256.103-.397-.046-.256-.103zm1.165-4.577c0-2.648.029-3.732.065-2.408a108.28 108.28 0 0 1 0 4.815c-.036 1.324-.065.241-.065-2.408zm-2.448 4.252c-.162-.456-.209-5.856-.05-5.757.085.053.154 1.373.154 2.935 0 2.08.069 2.867.256 2.943.201.081.199.107-.006.12-.145.009-.304-.099-.354-.24zm36.486-4.457c0-2.536.029-3.573.065-2.305a98.55 98.55 0 0 1 0 4.61c-.036 1.268-.065.231-.065-2.305zm.694 4.368c.148-.059.325-.052.393.016s-.053.117-.269.108c-.239-.01-.287-.058-.124-.124zm-39.575-.205c.148-.059.325-.052.393.016s-.053.117-.269.108c-.239-.01-.287-.058-.124-.124zm40.895.011c.318-.094.359-.408.359-2.742 0-1.45.069-2.68.154-2.732s.108 1.163.051 2.701c-.096 2.607-.13 2.799-.513 2.838-.319.032-.331.018-.051-.064zm-41.921-.216c.148-.059.325-.052.393.016s-.053.117-.269.108c-.239-.01-.287-.058-.124-.124zm-3.076-.615c.148-.059.325-.052.393.016s-.053.117-.269.108c-.239-.01-.287-.058-.124-.124zm49.008 0c.148-.059.325-.052.393.016s-.053.117-.269.108c-.239-.01-.287-.058-.124-.124zm-50.853-.41c.148-.059.325-.052.393.016s-.053.117-.269.108c-.239-.01-.287-.058-.124-.124zm52.699 0c.148-.059.325-.052.393.016s-.053.117-.269.108c-.239-.01-.287-.058-.124-.124zm-53.519-.205c.148-.059.325-.052.393.016s-.053.117-.269.108c-.239-.01-.287-.058-.124-.124zm54.339 0c.148-.059.325-.052.393.016s-.053.117-.269.108c-.239-.01-.287-.058-.124-.124zm-55.159-.205c.148-.059.325-.052.393.016s-.053.117-.269.108c-.239-.01-.287-.058-.124-.124zm-.82-.205c.148-.059.325-.052.393.016s-.053.117-.269.108c-.239-.01-.287-.058-.124-.124zm57.62 0c.148-.059.325-.052.393.016s-.053.117-.269.108c-.239-.01-.287-.058-.124-.124zm4.755-12.973c0-.113.098-.205.217-.205s.16.092.09.205-.167.205-.217.205-.09-.092-.09-.205zm-34.861-2.193c-.055-.812-.026-1.402.064-1.311s.135.755.1 1.476l-.064 1.311zm-1.727-.205c-.111-.292-.088-.316.115-.115.14.139.203.304.14.367s-.178-.051-.255-.253zm-68.425-5.951c-.255-.325-.248-.332.077-.077.342.268.45.436.281.436-.043 0-.204-.161-.359-.359zm-1.025-.82c-.255-.325-.248-.332.077-.077.342.268.45.436.281.436-.043 0-.204-.161-.359-.359zm145.819-.538c0-.043.161-.204.359-.359.325-.255.332-.248.077.077-.268.341-.436.45-.436.281zm-147.049-.486c-.255-.325-.248-.332.077-.077.342.268.45.436.281.436-.043 0-.204-.161-.359-.359zm148.587-.871c.204-.225.417-.41.474-.41s-.064.184-.269.41-.417.41-.474.41.064-.184.269-.41zm-149.913-.256l-.391-.461.461.39c.254.215.461.422.461.461 0 .164-.165.043-.532-.39zm151.554-1.178c.204-.225.417-.41.474-.41s-.064.184-.269.41-.417.41-.474.41.064-.184.269-.41zm-153.293-.359l-.497-.563.564.497c.527.464.658.63.497.63-.037 0-.29-.254-.564-.563zm156.163-2.305c.555-.563 1.056-1.024 1.112-1.024s-.352.461-.907 1.024-1.056 1.024-1.112 1.024.352-.461.907-1.024zm-160.56-1.895l-2.663-2.715 2.717 2.661c2.524 2.472 2.81 2.769 2.663 2.769-.03 0-1.252-1.222-2.717-2.715zm164.456-1.998c.555-.563 1.056-1.024 1.112-1.024s-.352.461-.907 1.024-1.056 1.024-1.112 1.024.352-.461.907-1.024zm-168.877-2.612l-.497-.563.564.497c.527.464.658.63.497.63-.037 0-.29-.254-.564-.563zm171.44-.154c.265-.282.528-.512.584-.512s-.114.231-.379.512-.528.512-.584.512.114-.231.379-.512zm-172.886-1.486c-.255-.325-.248-.332.077-.077.197.155.359.316.359.359 0 .169-.168.06-.436-.281zm174.116.076c0-.043.161-.204.359-.359.325-.255.332-.248.077.077-.268.341-.436.45-.436.281zm-175.347-1.511c-.255-.325-.248-.332.077-.077.197.155.359.316.359.359 0 .169-.168.06-.436-.281zm176.577.076c0-.043.161-.204.359-.359.325-.255.332-.248.077.077-.268.341-.436.45-.436.281zM56.795 178.197l.059-5.071v10.142c-.032 2.789-.059.507-.059-5.071zm138.977-.039l.108-10.277c.14-.086.137 7.695-.006 16.872-.031 1.972-.077-.996-.102-6.596zm-5.993.08l.102-6.905.054 6.749c.03 3.712-.016 6.819-.102 6.905s-.111-2.951-.054-6.748zm-124.993-.553c0-2.817.029-3.998.064-2.624s.035 3.679 0 5.122-.064.319-.064-2.498zm123.442-.307c0-2.761.029-3.89.065-2.51s.035 3.639 0 5.02-.065.251-.065-2.51zm-17.723-4.754c-.056-5.15-.032-9.294.054-9.208s.132 4.3.102 9.364l-.054 9.208zm9.733-6.208l.058-5.7v11.269c-.032 3.135-.058.629-.058-5.569zm-117.511 7.786c0-1.465.033-2.037.073-1.272s.039 1.964-.001 2.664-.072.073-.072-1.392zm116.691-9.015l.058-5.803v11.474c-.032 3.192-.058.639-.058-5.671zm5.282-.871l.102-6.608c.143 9.191.145 16.802.006 16.802-.085 0-.133-4.587-.108-10.194zm-82.99 1.198c0-4.835.069-8.748.154-8.696s.154 4.008.154 8.791-.069 8.696-.154 8.696-.154-3.956-.154-8.791zm-56.21 7.51c-1.371-2.326-1.752-3.022-1.654-3.022.11 0 2.603 3.829 2.603 3.997 0 .363-.405-.053-.948-.975zm52.921-9.476l.06-4.34v8.811c-.033 2.387-.06.375-.06-4.47zm-1.64-1.024l.06-4.34v8.811c-.033 2.387-.06.375-.06-4.47zm-13.556 2.356c0-.958.035-1.35.078-.871s.043 1.263 0 1.742-.078.087-.078-.871zm117.834-43.295l.103-43.479.052 43.325-.103 43.479c-.085.085-.108-19.411-.052-43.325zm4.401 39.35c-.054-.141-.074-13.257-.045-29.147l.053-28.89 1.948-.013 1.948-.013-1.897.072-1.897.072v28.979 28.979l2.512.064 2.512.064-2.518.044c-1.86.033-2.544-.023-2.616-.212zm.824-21.975l.055-10.588v21.309c-.03 5.823-.055.999-.055-10.722zm6.668 15.668c0-.109.138-.198.308-.198s.308.036.308.081-.138.134-.308.198-.308.029-.308-.081zm-28.198-24.786l.055-11.935v23.87c-.03 6.564-.055 1.194-.055-11.935zm-58.744 23.278c0-.044.143-.135.318-.203.182-.07.265-.036.193.081-.12.195-.511.288-.511.122zm-91.044-4.222c0-.113.098-.205.217-.205s.16.092.09.205-.167.205-.217.205-.09-.092-.09-.205zm53.109-.41c-.185-.119-.21-.2-.063-.202.134-.002.301.089.371.202.157.254.086.254-.308 0zm-4.785-3.005c-.19-.19-.173-48.992.017-49.109.085-.052.154 11.007.154 24.576l-.017 24.67c-.009 0-.079-.061-.154-.137zm55.817-.222c-.255-.325-.248-.332.077-.077.197.155.359.316.359.359 0 .169-.168.06-.436-.281zm-104.999.014c.148-.059.325-.052.393.016s-.053.117-.269.108c-.239-.01-.287-.058-.124-.124zm1.012-.201c.141-.057.372-.057.513 0s.026.103-.256.103-.397-.046-.256-.103zm-1.368-.394c.01-.239.058-.287.124-.124.059.148.052.325-.016.393s-.117-.053-.108-.269zm184.37-.208c-.145-.158-.174-.287-.063-.287.213 0 .521.39.4.505-.039.037-.191-.061-.336-.219zm-179.093-.017c.148-.059.325-.052.393.016s-.053.117-.269.108c-.239-.01-.287-.058-.124-.124zm-5.482-1.004c.01-.239.058-.287.124-.124.059.148.052.325-.016.393s-.117-.053-.108-.269zm6.152-.41c.01-.239.058-.287.124-.124.059.148.052.325-.016.393s-.117-.053-.108-.269zm172.639-.092c0-.109.138-.198.308-.198s.308.036.308.081-.138.134-.308.198-.308.029-.308-.081zm-201.141-.523c.01-.239.058-.287.124-.124.059.148.052.325-.016.393s-.117-.053-.108-.269zm22.146-.205c.01-.239.058-.287.124-.124.059.148.052.325-.016.393s-.117-.053-.108-.269zm183.112 0c.01-.239.058-.287.124-.124.059.148.052.325-.016.393s-.117-.053-.108-.269zm-176.961-.41c.01-.239.058-.287.124-.124.059.148.052.325-.016.393s-.117-.053-.108-.269zm-28.502-.82c.01-.239.058-.287.124-.124.059.148.052.325-.016.393s-.117-.053-.108-.269zm22.162-.085c0-.282.047-.397.103-.256a.79.79 0 0 1 0 .512c-.057.141-.103.026-.103-.256zm182.276-.12c.01-.239.058-.287.124-.124.059.148.052.325-.016.393s-.117-.053-.108-.269zm-176.141-.205c.01-.239.058-.287.124-.124.059.148.052.325-.016.393s-.117-.053-.108-.269zm177.576-.41c.01-.239.058-.287.124-.124.059.148.052.325-.016.393s-.117-.053-.108-.269zm-183.916-.495c0-.282.047-.397.103-.256a.79.79 0 0 1 0 .512c-.057.141-.103.026-.103-.256zm-22.162-.12c.01-.239.058-.287.124-.124.059.148.052.325-.016.393s-.117-.053-.108-.269zm28.314-.29c0-.282.047-.397.103-.256a.79.79 0 0 1 0 .512c-.057.141-.103.026-.103-.256zm-6.373-.939c.01-.239.058-.287.124-.124.059.148.052.325-.016.393s-.117-.053-.108-.269zm6.168-.29c0-.282.047-.397.103-.256a.79.79 0 0 1 0 .512c-.057.141-.103.026-.103-.256zm-28.314-.324c.01-.239.058-.287.124-.124.059.148.052.325-.016.393s-.117-.053-.108-.269zm21.941-.615c.01-.239.058-.287.124-.124.059.148.052.325-.016.393s-.117-.053-.108-.269zm183.523 0c.01-.239.058-.287.124-.124.059.148.052.325-.016.393s-.117-.053-.108-.269zm-177.371-.41c.01-.239.058-.287.124-.124.059.148.052.325-.016.393s-.117-.053-.108-.269zm178.806-.205c.01-.239.058-.287.124-.124.059.148.052.325-.016.393s-.117-.053-.108-.269zm21.941-.41c.01-.239.058-.287.124-.124.059.148.052.325-.016.393s-.117-.053-.108-.269zm-229.028-.29c0-.282.047-.397.103-.256a.79.79 0 0 1 0 .512c-.057.141-.103.026-.103-.256zm21.924.085c.01-.239.058-.287.124-.124.059.148.052.325-.016.393s-.117-.053-.108-.269zm78.044.171l7.83-.056.065-.561.065-.561 1.845-.012 1.845-.012-1.794.07-1.794.07v.607.607l-7.946-.049-7.946-.049 7.83-.056zm105.888-.376c.01-.239.058-.287.124-.124.059.148.052.325-.016.393s-.117-.053-.108-.269zm-177.781-.205c.01-.239.058-.287.124-.124.059.148.052.325-.016.393s-.117-.053-.108-.269zm-6.357-.82c.01-.239.058-.287.124-.124.059.148.052.325-.016.393s-.117-.053-.108-.269zm67.498.174c.536-.042 1.412-.042 1.948 0s.097.077-.974.077-1.51-.035-.974-.077zm114.522-.19c.141-.057.372-.057.513 0s.026.103-.256.103-.397-.046-.256-.103zm-175.868-.394c.01-.239.058-.287.124-.124.059.148.052.325-.016.393s-.117-.053-.108-.269zm-5.181-.02c.148-.059.325-.052.393.016s-.053.117-.269.108c-.239-.01-.287-.058-.124-.124zm1.209-.475c.059-.225.143-.41.186-.41s.079.184.079.41-.084.41-.186.41-.138-.184-.079-.41zm65.318.259c.536-.042 1.412-.042 1.948 0s.097.077-.974.077-1.51-.035-.974-.077zm18.692-.133c-.06-.156-.08-.686-.045-1.178l.064-.894 2.461-.011 2.461-.011-2.409.068-2.409.068v1.011 1.011l2.102.066 2.102.066-2.108.043c-1.638.034-2.133-.02-2.217-.241zm121.324-.245c.01-.239.058-.287.124-.124.059.148.052.325-.016.393s-.117-.053-.108-.269zm-229.438-.29c0-.282.047-.397.103-.256a.79.79 0 0 1 0 .512c-.057.141-.103.026-.103-.256zm26.573.274c.141-.057.372-.057.513 0s.026.103-.256.103-.397-.046-.256-.103zm183.196-.274c0-.282.047-.397.103-.256a.79.79 0 0 1 0 .512c-.057.141-.103.026-.103-.256zm-6.152-.41c0-.282.047-.397.103-.256a.79.79 0 0 1 0 .512c-.057.141-.103.026-.103-.256zm-178.207-.529c.01-.239.058-.287.124-.124.059.148.052.325-.016.393s-.117-.053-.108-.269zm-1.435-.82c.01-.239.058-.287.124-.124.059.148.052.325-.016.393s-.117-.053-.108-.269zm65.447.174c.536-.042 1.412-.042 1.948 0s.097.077-.974.077-1.51-.035-.974-.077zm-56.802-8.404l.049-7.94.056 7.828.056 7.828 1.279.073 1.279.073-1.384.04-1.384.039zm4.415 7.791c.369-.046.922-.045 1.23.002s.007.084-.67.083-.929-.039-.56-.085zm52.387-.207c.536-.042 1.412-.042 1.948 0s.097.077-.974.077-1.51-.035-.974-.077zm18.745.014c-.075-.075-.137-.305-.137-.51 0-.354-.414-.376-7.843-.429l-7.843-.056 7.946-.049 7.946-.049v.506.506l2.614.064 2.614.064-2.58.045c-1.419.025-2.642-.017-2.717-.092zm31.529-1.4l.015-1.229 3.332-.008 3.332-.008-3.271.064-3.271.064-.076 1.173-.076 1.173.015-1.229zm20.007-8.398v-9.73l-6.715-.057-6.715-.057 6.818-.048 6.818-.048v9.835l-.103 9.835c-.056 0-.103-4.378-.103-9.73zm50.27 9.32c0-.282.047-.397.103-.256a.79.79 0 0 1 0 .512c-.057.141-.103.026-.103-.256zm19.693-.102c.004-.338.05-.452.102-.252s.049.476-.008.615-.099-.024-.095-.362zM10 129.739c.003-.451.044-.611.093-.356s.047.624-.004.82-.091-.013-.089-.463zm25.407.307c0-.282.047-.397.103-.256a.79.79 0 0 1 0 .512c-.057.141-.103.026-.103-.256zm178.601 0c0-.282.047-.397.103-.256a.79.79 0 0 1 0 .512c-.057.141-.103.026-.103-.256zm-180.069-.99c0-.15-.439-.253-1.179-.277l-1.179-.038 1.106-.076c1.032-.071 1.714.169 1.392.49-.077.077-.14.032-.14-.099zm1.999-.387a6.53 6.53 0 0 1 1.333 0c.367.045.067.083-.666.083s-1.033-.037-.666-.083zm144.204-19.563l.052-19.659c.085.085.131 9.001.102 19.814l-.052 19.659zm-68.346 18.738l6.396-.057.08-.765.08-.765.034.871.034.871-6.51-.048-6.51-.048zm108.569-.256c0-.282.047-.397.103-.256a.79.79 0 0 1 0 .512c-.057.141-.103.026-.103-.256zm-70.486-.281c-.059-.154-.073-.777-.031-1.383l.076-1.103.038 1.276.038 1.276 3.332.062 3.332.062-3.339.046c-2.668.037-3.36-.011-3.446-.235zm64.335-.129c0-.282.047-.397.103-.256a.79.79 0 0 1 0 .512c-.057.141-.103.026-.103-.256zm-34.793-18.441l.055-9.374v18.748c-.031 5.156-.055.937-.055-9.374zm-39.584 17.365l-.602-.666.666.602c.621.561.761.73.602.73-.035 0-.335-.3-.666-.666zm-21.538-1.433l.02-.872 4.306-.007 4.306-.007-4.243.062-4.243.062-.083.817-.083.817.02-.872zm102.271.05c0-.282.047-.397.103-.256a.79.79 0 0 1 0 .512c-.057.141-.103.026-.103-.256zm-6.152-.41c0-.282.047-.397.103-.256a.79.79 0 0 1 0 .512c-.057.141-.103.026-.103-.256zm-114.701-.561a16.71 16.71 0 0 1 2.051.001c.532.042.044.076-1.083.075s-1.563-.035-.967-.076zm115.028-.189c.141-.057.372-.057.513 0s.026.103-.256.103-.397-.046-.256-.103zm2.372-1.094c0-.733.037-1.032.083-.666s.045.966 0 1.332-.083.067-.083-.666zM37.63 120.529v-2.756l-1.179-.074-1.179-.074 1.282-.039 1.282-.039v2.869c0 1.578-.046 2.869-.103 2.869s-.103-1.24-.103-2.756zm30.191-15.724l.105-18.472c.139-.086.138 13.143-.003 30.293-.03 3.606-.076-1.713-.102-11.821zm6.406 1.678l.056-8.35v16.699c-.031 4.592-.056.835-.056-8.35zm44.029 15.879c.004-.338.05-.452.102-.252s.049.476-.008.615-.099-.024-.095-.362zm19.456-.427c.01-.239.058-.287.124-.124.059.148.052.325-.016.393s-.117-.053-.108-.269zM73.36 105.638c-.047-15.329-.028-16.332.309-16.597.318-.249.33-.244.104.046-.197.253-.267 4.002-.309 16.597l-.054 16.27zm32.297 16.06c1.72-.034 4.534-.034 6.254 0s.313.062-3.127.062-4.847-.028-3.127-.062zm32.9-.769c.004-.338.05-.452.102-.252s.049.476-.008.615-.099-.024-.095-.362zM10 120.314c.003-.451.044-.611.093-.356s.047.624-.004.82-.091-.013-.089-.463zm229.86-.717c0-.394.042-.556.094-.359a1.68 1.68 0 0 1 0 .717c-.052.197-.094.036-.094-.359zm-129.5.256l7.83-.056.064-.663.064-.663 4.46-.006 4.46-.006-4.409.061-4.409.061v.713.713l-7.946-.049-7.946-.049zm36.375-.376c.01-.239.058-.287.124-.124.059.148.052.325-.016.393s-.117-.053-.108-.269zm71.58-.495c0-.282.047-.397.103-.256a.79.79 0 0 1 0 .512c-.057.141-.103.026-.103-.256zm-118.597-.561a16.71 16.71 0 0 1 2.051.001c.532.042.044.076-1.083.075s-1.563-.035-.967-.076zm116.886-.194c.148-.059.325-.052.393.016s-.053.117-.269.108c-.239-.01-.287-.058-.124-.124zm2.666-.41c.148-.059.325-.052.393.016s-.053.117-.269.108c-.239-.01-.287-.058-.124-.124zm-186.714-.212c.31-.047.818-.047 1.128 0s.056.085-.564.085-.874-.038-.564-.085zm67.162-.004c.596-.042 1.519-.041 2.051.001s.044.076-1.083.075-1.563-.035-.967-.076zm18.581-.137c-.061-.158-.073-.596-.026-.973.076-.621.087-.604.117.181l.033.867 4.255.06 4.255.06-4.261.047c-3.502.038-4.281-.004-4.372-.241zm29.241.21c0-.043.161-.204.359-.359.325-.255.332-.248.077.077-.268.341-.436.45-.436.281zm66.863-.452c.01-.239.058-.287.124-.124.059.148.052.325-.016.393s-.117-.053-.108-.269zm-204.209-.598c.004-.338.05-.452.102-.252s.049.476-.008.615-.099-.024-.095-.362zm25.214.102c0-.282.047-.397.103-.256a.79.79 0 0 1 0 .512c-.057.141-.103.026-.103-.256zm116.089-.358c.992-.038 2.561-.037 3.486 0s.113.069-1.804.068-2.674-.031-1.682-.069zm88.128-.172c.01-.239.058-.287.124-.124.059.148.052.325-.016.393s-.117-.053-.108-.269zm-99.775-.7c.204-.225.417-.41.474-.41s-.064.184-.269.41-.417.41-.474.41.064-.184.269-.41zm-105.673-.205c0-.282.047-.397.103-.256a.79.79 0 0 1 0 .512c-.057.141-.103.026-.103-.256zm84.087-.82c0-.394.042-.556.094-.359a1.68 1.68 0 0 1 0 .717c-.052.197-.094.036-.094-.359zm-82.668-.12c.01-.239.058-.287.124-.124.059.148.052.325-.016.393s-.117-.053-.108-.269zm-25.222-.205c.01-.239.058-.287.124-.124.059.148.052.325-.016.393s-.117-.053-.108-.269zm23.991-.82c.01-.239.058-.287.124-.124.059.148.052.325-.016.393s-.117-.053-.108-.269zm109.034.184c.148-.059.325-.052.393.016s-.053.117-.269.108c-.239-.01-.287-.058-.124-.124zm4.191-.218a177.05 177.05 0 0 1 6.049 0c1.663.034.302.063-3.025.063s-4.688-.028-3.025-.063zm-110.421-.392c.141-.057.372-.057.513 0s.026.103-.256.103-.397-.046-.256-.103zm-1.218-.209c.148-.059.325-.052.393.016s-.053.117-.269.108c-.239-.01-.287-.058-.124-.124zm-25.356-.68c0-.282.047-.397.103-.256a.79.79 0 0 1 0 .512c-.057.141-.103.026-.103-.256zm22.69.27c.148-.059.325-.052.393.016s-.053.117-.269.108c-.239-.01-.287-.058-.124-.124zm-1.448-.201c.141-.057.372-.057.513 0s.026.103-.256.103-.397-.046-.256-.103zm6.03-.274c0-.282.047-.397.103-.256a.79.79 0 0 1 0 .512c-.057.141-.103.026-.103-.256zm201.346.085c.01-.239.058-.287.124-.124.059.148.052.325-.016.393s-.117-.053-.108-.269zm-207.514-.41c.01-.239.058-.287.124-.124.059.148.052.325-.016.393s-.117-.053-.108-.269zm78.66.171l7.83-.056.065-.561.065-.561 2.615-.01 2.615-.01-2.563.067-2.563.067v.609.609l-7.946-.049-7.946-.049 7.83-.056zm-99.559-1.281c0-.282.047-.397.103-.256a.79.79 0 0 1 0 .512c-.057.141-.103.026-.103-.256zm27.256.085c.01-.239.058-.287.124-.124.059.148.052.325-.016.393s-.117-.053-.108-.269zm-6.135-.29c0-.282.047-.397.103-.256a.79.79 0 0 1 0 .512c-.057.141-.103.026-.103-.256zm67.796.258a16.71 16.71 0 0 1 2.051.001c.532.042.044.076-1.083.075s-1.563-.035-.967-.076zm-61.439-1.283c0-.282.047-.397.103-.256a.79.79 0 0 1 0 .512c-.057.141-.103.026-.103-.256zm-27.288-.324c.01-.239.058-.287.124-.124.059.148.052.325-.016.393s-.117-.053-.108-.269zm21.12 0c.01-.239.058-.287.124-.124.059.148.052.325-.016.393s-.117-.053-.108-.269zm6.357-1.024c.01-.239.058-.287.124-.124.059.148.052.325-.016.393s-.117-.053-.108-.269zm-6.135-.29c0-.282.047-.397.103-.256a.79.79 0 0 1 0 .512c-.057.141-.103.026-.103-.256zm-21.137-.12c.01-.239.058-.287.124-.124.059.148.052.325-.016.393s-.117-.053-.108-.269zm88.522-.032c.596-.042 1.519-.041 2.051.001s.044.076-1.083.075-1.563-.035-.967-.076zm19.678 0c.592-.041 1.561-.041 2.153 0s.108.075-1.077.075-1.669-.034-1.077-.075zm-80.723-.788c.01-.239.058-.287.124-.124.059.148.052.325-.016.393s-.117-.053-.108-.269zm179.572.184c.148-.059.325-.052.393.016s-.053.117-.269.108c-.239-.01-.287-.058-.124-.124zm-118.527-.216c.596-.042 1.519-.041 2.051.001s.044.076-1.083.075-1.563-.035-.967-.076zm19.576.001c.536-.042 1.412-.042 1.948 0s.097.077-.974.077-1.51-.035-.974-.077zM11.4 106.159c.01-.239.058-.287.124-.124.059.148.052.325-.016.393s-.117-.053-.108-.269zm21.12 0c.01-.239.058-.287.124-.124.059.148.052.325-.016.393s-.117-.053-.108-.269zm6.373-.905c0-.282.047-.397.103-.256a.79.79 0 0 1 0 .512c-.057.141-.103.026-.103-.256zm67.57.256c2.164-.033 5.762-.033 7.997 0s.465.06-3.934.06-6.227-.027-4.063-.06zm-94.859-.581c.01-.239.058-.287.124-.124.059.148.052.325-.016.393s-.117-.053-.108-.269zm21.137-.085c0-.282.047-.397.103-.256a.79.79 0 0 1 0 .512c-.057.141-.103.026-.103-.256zm6.34-.939c.01-.239.058-.287.124-.124.059.148.052.325-.016.393s-.117-.053-.108-.269zm-6.152-.41c.01-.239.058-.287.124-.124.059.148.052.325-.016.393s-.117-.053-.108-.269zm18.33-13.096l.057-6.388v12.908c-.031 3.514-.057.579-.057-6.52zm-11.95 12.089c.004-.338.05-.452.102-.252s.049.476-.008.615-.099-.024-.095-.362zm-6.159-.307c0-.282.047-.397.103-.256a.79.79 0 0 1 0 .512c-.057.141-.103.026-.103-.256zm5.056-.345c.148-.059.325-.052.393.016s-.053.117-.269.108c-.239-.01-.287-.058-.124-.124zm-2.666-.41c.148-.059.325-.052.393.016s-.053.117-.269.108c-.239-.01-.287-.058-.124-.124zm-1.448-.201c.141-.057.372-.057.513 0s.026.103-.256.103-.397-.046-.256-.103zm108.88-2.144c.139-.14.305-.203.368-.14s-.051.178-.253.255c-.292.111-.316.088-.115-.115zm-.902-.683c0-.164.078-.25.174-.191s.121.193.056.298c-.166.268-.23.238-.23-.108zm-3.486-2.049c0-.164.078-.25.174-.191s.121.193.056.298c-.166.268-.23.238-.23-.108zm-97.674-.602c0-.044.143-.135.318-.203.182-.07.265-.036.193.081-.12.195-.511.288-.511.122zm186.957-4.153c.141-.057.372-.057.513 0s.026.103-.256.103-.397-.046-.256-.103zM26.929 86.468c.148-.059.325-.052.393.016s-.053.117-.269.108c-.239-.01-.287-.058-.124-.124zm-3.884-.423c-.255-.325-.248-.332.077-.077.197.155.359.316.359.359 0 .169-.168.06-.436-.281zm22.598-.171c.01-.239.058-.287.124-.124.059.148.052.325-.016.393s-.117-.053-.108-.269zm-16.42-.393c.265-.282.528-.512.584-.512s-.114.231-.379.512-.528.512-.584.512.114-.231.379-.512zM21.9 83.023c.002-.563.041-.77.088-.458s.046.772-.003 1.024-.087-.003-.086-.566zm.983.393c.01-.239.058-.287.124-.124.059.148.052.325-.016.393s-.117-.053-.108-.269zm7.587-.649c-.011-.31.102-.46.343-.458.221.002.272.061.133.154-.124.083-.278.289-.343.458-.078.205-.122.154-.133-.154zm-7.587-.581c.01-.239.058-.287.124-.124.059.148.052.325-.016.393s-.117-.053-.108-.269zm19.848-5.771c-.255-.325-.248-.332.077-.077.197.155.359.316.359.359 0 .169-.168.06-.436-.281zm10.279-7.095c0-.043.161-.204.359-.359.325-.255.332-.248.077.077-.268.341-.436.45-.436.281zm.615-.82c0-.043.161-.204.359-.359.325-.255.332-.248.077.077-.268.341-.436.45-.436.281zm-1.025-.82c0-.043.161-.204.359-.359.325-.255.332-.248.077.077-.268.341-.436.45-.436.281zm1.845-.205c0-.043.161-.204.359-.359.325-.255.332-.248.077.077-.268.341-.436.45-.436.281zm-1.23-.615c0-.043.161-.204.359-.359.325-.255.332-.248.077.077-.268.341-.436.45-.436.281zm2.153-.537c.204-.225.417-.41.474-.41s-.064.184-.269.41-.417.41-.474.41.064-.184.269-.41zm-1.025-.82c.204-.225.417-.41.474-.41s-.064.184-.269.41-.417.41-.474.41.064-.184.269-.41zm2.051-.41c.204-.225.417-.41.474-.41s-.064.184-.269.41-.417.41-.474.41.064-.184.269-.41zm-14.456.124c0-.044.143-.135.318-.203.182-.07.265-.036.193.081-.12.195-.511.288-.511.122zm-4.13-.546l-.484-.422.564.343c.31.189.564.379.564.422 0 .16-.171.069-.644-.343zm21.867-.398c.44-.451.847-.82.903-.82s-.258.369-.698.82-.847.82-.903.82.258-.369.698-.82zm-16.507.102c.265-.282.528-.512.584-.512s-.114.231-.379.512-.528.512-.584.512.114-.231.379-.512zm11.996.102c.204-.225.417-.41.474-.41s-.064.184-.269.41-.417.41-.474.41.064-.184.269-.41zm-14.71-.145c.255-.049.624-.047.82.004s-.013.091-.464.089-.612-.044-.356-.093zm-3.764-.521l-.391-.461.461.39c.434.367.555.532.391.532-.039 0-.247-.207-.461-.461zm.83-1.024l-.811-.871.871.81c.479.445.871.837.871.871 0 .155-.179 0-.932-.81zm6.485.461c.299-.627.394-.743.394-.483 0 .11-.144.379-.319.598-.301.375-.305.368-.075-.115zm12.279-.06c.246-.325.186-.467-.52-1.229l-.798-.862.914.869c.893.849.905.877.52 1.229-.377.345-.382.345-.116-.007zm-13.205-.205c.077-.202.192-.316.255-.253s0 .228-.14.367c-.203.201-.226.177-.115-.115zm19.672-1.579c.67-.676 1.264-1.229 1.32-1.229s-.445.553-1.115 1.229-1.264 1.229-1.32 1.229.445-.553 1.115-1.229zm-19.326.307c.003-.451.044-.611.093-.356s.047.624-.004.82-.091-.013-.089-.463zm1.006.307c0-.282.047-.397.103-.256a.79.79 0 0 1 0 .512c-.057.141-.103.026-.103-.256zm-9.039-.529c.01-.239.058-.287.124-.124.059.148.052.325-.016.393s-.117-.053-.108-.269zm9.039-.7c0-.282.047-.397.103-.256a.79.79 0 0 1 0 .512c-.057.141-.103.026-.103-.256zm-.413-1.178c-.224-.522-.219-.535.07-.166.171.219.311.472.311.563 0 .311-.139.166-.381-.398zm12.376-.666c.67-.676 1.264-1.229 1.32-1.229s-.445.553-1.115 1.229-1.264 1.229-1.32 1.229.445-.553 1.115-1.229zm-21.002.7c.01-.239.058-.287.124-.124.059.148.052.325-.016.393s-.117-.053-.108-.269zm6.834-.546l-.391-.461.461.39c.434.367.555.532.391.532-.039 0-.247-.207-.461-.461zm23.697-.614l.911-.973-.808-.871-.808-.871.916.871.916.871-1.019.973-1.019.973zm-22.971-.308l-.707-.768.769.706c.423.388.769.734.769.768 0 .156-.174.009-.831-.706zm-6.141.486c0-.043.161-.204.359-.359.325-.255.332-.248.077.077-.268.341-.436.45-.436.281zm-5.741-.205c0-.043.161-.204.359-.359.325-.255.332-.248.077.077-.268.341-.436.45-.436.281zm9.843-.23c-.282-.161-.415-.296-.296-.3s.396.128.615.294c.506.383.345.386-.32.007zm-4.921.038c0-.035.3-.335.666-.666l.666-.602-.602.666c-.561.621-.731.76-.731.602zm1.791-.371c.139-.14.305-.203.368-.14s-.051.178-.253.255c-.292.111-.316.088-.115-.115zm1.029-.315c.141-.057.372-.057.513 0s.026.103-.256.103-.397-.046-.256-.103zm-1.234-.709c.139-.14.305-.203.368-.14s-.051.178-.253.255c-.292.111-.316.088-.115-.115zm22.098-.999c.67-.676 1.264-1.229 1.32-1.229s-.445.553-1.115 1.229-1.264 1.229-1.32 1.229.445-.553 1.115-1.229zm-21.261.68c.148-.059.325-.052.393.016s-.053.117-.269.108c-.239-.01-.287-.058-.124-.124zm1.64 0c.148-.059.325-.052.393.016s-.053.117-.269.108c-.239-.01-.287-.058-.124-.124zm-7.343-.347c0-.043.161-.204.359-.359.325-.255.332-.248.077.077-.268.341-.436.45-.436.281zm33.629-1.254c.265-.282.528-.512.584-.512s-.114.231-.379.512-.528.512-.584.512.114-.231.379-.512zm-32.193-.59c0-.043.161-.204.359-.359.325-.255.332-.248.077.077-.268.341-.436.45-.436.281zm30.963.013c0-.035.3-.335.666-.666l.666-.602-.602.666c-.561.621-.731.76-.731.602zm-1.845-.653c-.463-.493-.497-.498-.907-.154l-.426.358.394-.465.394-.465.58.555c.319.305.58.584.58.619 0 .151-.163.033-.615-.448zm4.408.102c.204-.225.417-.41.474-.41s-.064.184-.269.41-.417.41-.474.41.064-.184.269-.41zm-32.706-.487c0-.043.161-.204.359-.359.325-.255.332-.248.077.077-.268.341-.436.45-.436.281zm33.936-.537c.204-.225.417-.41.474-.41s-.064.184-.269.41-.417.41-.474.41.064-.184.269-.41zm-1.845-.205c.204-.225.417-.41.474-.41s-.064.184-.269.41-.417.41-.474.41.064-.184.269-.41zm-31.271-.282c0-.043.161-.204.359-.359.325-.255.332-.248.077.077-.268.341-.436.45-.436.281zm34.039-.205c0-.043.161-.204.359-.359.325-.255.332-.248.077.077-.268.341-.436.45-.436.281zm-1.845-.205c0-.043.161-.204.359-.359.325-.255.332-.248.077.077-.268.341-.436.45-.436.281zm2.666-.41c0-.043.161-.204.359-.359.325-.255.332-.248.077.077-.268.341-.436.45-.436.281zm-33.629-.64c.265-.282.528-.512.584-.512s-.114.231-.379.512-.528.512-.584.512.114-.231.379-.512zm31.988.23c0-.043.161-.204.359-.359.325-.255.332-.248.077.077-.268.341-.436.45-.436.281zm2.461-.205c0-.043.161-.204.359-.359.325-.255.332-.248.077.077-.268.341-.436.45-.436.281zm-1.64-.41c0-.043.161-.204.359-.359.325-.255.332-.248.077.077-.268.341-.436.45-.436.281zm2.461-.205c0-.043.161-.204.359-.359.325-.255.332-.248.077.077-.268.341-.436.45-.436.281zm122.724-.332c.204-.225.417-.41.474-.41s-.064.184-.269.41-.417.41-.474.41.064-.184.269-.41zM38.246 49.42c.265-.282.528-.512.584-.512s-.114.231-.379.512-.528.512-.584.512.114-.231.379-.512zm159.429-.512c.204-.225.417-.41.474-.41s-.064.184-.269.41-.417.41-.474.41.064-.184.269-.41zM40.083 47.422c.85-.905 1.034-1.067 1.034-.913 0 .033-.438.471-.974.973l-.974.913zm169.561-.102c-.255-.325-.248-.332.077-.077.342.268.45.436.281.436-.043 0-.204-.161-.359-.359zm-150.876.096c.047-.032.27-.193.496-.359.379-.278.389-.274.129.058-.155.197-.378.359-.496.359s-.176-.026-.129-.058zm18.348-.292c-.111-.292-.088-.316.115-.115.14.139.203.304.14.367s-.178-.051-.255-.253zm-18.802-.419c-.255-.325-.248-.332.077-.077.197.155.359.316.359.359 0 .169-.168.06-.436-.281zm140.077-.359c.265-.282.528-.512.584-.512s-.114.231-.379.512-.528.512-.584.512.114-.231.379-.512zm-139.257-.461c-.255-.325-.248-.332.077-.077.342.268.45.436.281.436-.043 0-.204-.161-.359-.359zm-1.64-.205c-.255-.325-.248-.332.077-.077.197.155.359.316.359.359 0 .169-.168.06-.436-.281zm18.802.094c.077-.202.192-.316.255-.253s0 .228-.14.367c-.203.201-.226.177-.115-.115zm124.352-.017c0-.043.161-.204.359-.359.325-.255.332-.248.077.077-.268.341-.436.45-.436.281zM43.577 43.682c.954-.958 1.78-1.742 1.836-1.742s-.678.784-1.631 1.742-1.78 1.742-1.836 1.742.678-.784 1.631-1.742zm13.302 1.178c-.255-.325-.248-.332.077-.077.197.155.359.316.359.359 0 .169-.168.06-.436-.281zm1.435 0c-.255-.325-.248-.332.077-.077.197.155.359.316.359.359 0 .169-.168.06-.436-.281zm147.862-1.229l-1.121-1.178 1.179 1.12c1.095 1.04 1.273 1.236 1.121 1.236-.032 0-.563-.53-1.179-1.178zm-143.53.896c0-.043.161-.204.359-.359.325-.255.332-.248.077.077-.268.341-.436.45-.436.281zm-5.043-.589l-.391-.461.461.39c.434.367.555.532.391.532-.039 0-.247-.207-.461-.461zm-1.545-.102c-.255-.325-.248-.332.077-.077.342.268.45.436.281.436-.043 0-.204-.161-.359-.359zm5.126-.41c-.255-.325-.248-.332.077-.077.342.268.45.436.281.436-.043 0-.204-.161-.359-.359zm139.037-.41l-.497-.563.564.497c.31.273.564.527.564.563 0 .161-.166.03-.631-.497zm-142.496.281c0-.043.161-.204.359-.359.325-.255.332-.248.077.077-.268.341-.436.45-.436.281zm-2.487-.486c-.255-.325-.248-.332.077-.077.342.268.45.436.281.436-.043 0-.204-.161-.359-.359zm6.876-.102l-.391-.461.461.39c.254.215.461.422.461.461 0 .164-.165.043-.532-.39zm-1.929.051c-.185-.119-.21-.2-.063-.202.134-.002.301.089.371.202.157.254.086.254-.308 0zm-3.076-.077c0-.043.161-.204.359-.359.325-.255.332-.248.077.077-.268.341-.436.45-.436.281zm1.999-.263c.141-.057.372-.057.513 0s.026.103-.256.103-.397-.046-.256-.103zm-4.486-.428c-.255-.325-.248-.332.077-.077.197.155.359.316.359.359 0 .169-.168.06-.436-.281zm1.435 0c-.255-.325-.248-.332.077-.077.342.268.45.436.281.436-.043 0-.204-.161-.359-.359zm4.845-.065c-.338-.217-.51-.394-.382-.395s.451.18.718.402c.61.507.463.504-.336-.007zm137.488.346c0-.043.161-.204.359-.359.325-.255.332-.248.077.077-.268.341-.436.45-.436.281zM55.444 41.172c-.255-.325-.248-.332.077-.077.197.155.359.316.359.359 0 .169-.168.06-.436-.281zm3.013.094c.077-.202.192-.316.255-.253s0 .228-.14.367c-.203.201-.226.177-.115-.115zm-4.653-.299c-.255-.325-.248-.332.077-.077.197.155.359.316.359.359 0 .169-.168.06-.436-.281zm-6.544-.717c.85-.905 1.034-1.067 1.034-.913 0 .033-.438.471-.974.973l-.974.913zm12.328.341c.01-.239.058-.287.124-.124.059.148.052.325-.016.393s-.117-.053-.108-.269zm142.89-.444l-.497-.563.564.497c.31.273.564.527.564.563 0 .161-.166.03-.631-.497zm-116.351-.049c-.072-.116.01-.15.193-.081.355.136.42.283.125.283-.106 0-.249-.091-.318-.203zm-30.964-.412c.204-.225.417-.41.474-.41s-.064.184-.269.41-.417.41-.474.41.064-.184.269-.41zm3.294.06c-.111-.292-.088-.316.115-.115.14.139.203.304.14.367s-.178-.051-.255-.253zm1.131-.18c.01-.239.058-.287.124-.124.059.148.052.325-.016.393s-.117-.053-.108-.269zm-5.143-.393c.265-.282.528-.512.584-.512s-.114.231-.379.512-.528.512-.584.512.114-.231.379-.512zm43.638-.038c.148-.059.325-.052.393.016s-.053.117-.269.108c-.239-.01-.287-.058-.124-.124zm-49.379-.129c0-.035.3-.335.666-.666l.666-.602-.602.666c-.561.621-.731.76-.731.602zm50.2-.076c.148-.059.325-.052.393.016s-.053.117-.269.108c-.239-.01-.287-.058-.124-.124zm-42.049-.201c.141-.057.372-.057.513 0s.026.103-.256.103-.397-.046-.256-.103zm143.562-.428c-.255-.325-.248-.332.077-.077.342.268.45.436.281.436-.043 0-.204-.161-.359-.359zm-51.758-.475c-.21-.34-.022-.387.273-.068.145.158.174.287.063.287s-.262-.098-.336-.219zm-91.597-.131c.255-.049.624-.047.82.004s-.013.091-.464.089-.612-.044-.356-.093zm-6.41-.47c.204-.225.417-.41.474-.41s-.064.184-.269.41-.417.41-.474.41.064-.184.269-.41zm148.33-.154c-.255-.325-.248-.332.077-.077.342.268.45.436.281.436-.043 0-.204-.161-.359-.359zm-147.099-.871c.204-.225.417-.41.474-.41s-.064.184-.269.41-.417.41-.474.41.064-.184.269-.41zm56.713.085c.01-.239.058-.287.124-.124.059.148.052.325-.016.393s-.117-.053-.108-.269zm31.524-.225c.148-.059.325-.052.393.016s-.053.117-.269.108c-.239-.01-.287-.058-.124-.124zm20.765-.184c.01-.239.058-.287.124-.124.059.148.052.325-.016.393s-.117-.053-.108-.269zm-22.213-.016c.141-.057.372-.057.513 0s.026.103-.256.103-.397-.046-.256-.103zm2.528-.189c.01-.239.058-.287.124-.124.059.148.052.325-.016.393s-.117-.053-.108-.269zm-3.746-.02c.148-.059.325-.052.393.016s-.053.117-.269.108c-.239-.01-.287-.058-.124-.124zm-84.648-.142c0-.043.161-.204.359-.359.325-.255.332-.248.077.077-.268.341-.436.45-.436.281zm44.103-.247c.01-.239.058-.287.124-.124.059.148.052.325-.016.393s-.117-.053-.108-.269zm39.098.189c.141-.057.372-.057.513 0s.026.103-.256.103-.397-.046-.256-.103zm-1.218-.209c.148-.059.325-.052.393.016s-.053.117-.269.108c-.239-.01-.287-.058-.124-.124zm-1.448-.201c.141-.057.372-.057.513 0s.026.103-.256.103-.397-.046-.256-.103zm45.625-.581c.003-.451.044-.611.093-.356s.047.624-.004.82-.091-.013-.089-.463zm-46.842.372c.148-.059.325-.052.393.016s-.053.117-.269.108c-.239-.01-.287-.058-.124-.124zm-78.292-.142c0-.043.161-.204.359-.359.325-.255.332-.248.077.077-.268.341-.436.45-.436.281zm42.872-.247c.01-.239.058-.287.124-.124.059.148.052.325-.016.393s-.117-.053-.108-.269zm11.467.14c0-.213.39-.521.506-.399.037.039-.061.191-.219.336s-.287.174-.287.063zm22.505.049c.141-.057.372-.057.513 0s.026.103-.256.103-.397-.046-.256-.103zm10.779-.258c.021-.273.176-.533.345-.579.203-.055.229-.025.075.086-.128.093-.283.354-.345.579-.089.323-.105.305-.075-.086zm4.203.254c.148-.059.325-.052.393.016s-.053.117-.269.108c-.239-.01-.287-.058-.124-.124zm32.248-.389c.01-.239.058-.287.124-.124.059.148.052.325-.016.393s-.117-.053-.108-.269zm-81.422-.7c0-.225.084-.41.186-.41s.138.184.079.41-.143.41-.186.41-.079-.184-.079-.41zm14.11.27c.148-.059.325-.052.393.016s-.053.117-.269.108c-.239-.01-.287-.058-.124-.124zm19.74-.389c.01-.239.058-.287.124-.124.059.148.052.325-.016.393s-.117-.053-.108-.269zm16.76.184c.148-.059.325-.052.393.016s-.053.117-.269.108c-.239-.01-.287-.058-.124-.124zm-33.834-.205c.148-.059.325-.052.393.016s-.053.117-.269.108c-.239-.01-.287-.058-.124-.124zm33.014 0c.148-.059.325-.052.393.016s-.053.117-.269.108c-.239-.01-.287-.058-.124-.124zm31.085-.321l-.391-.461.461.39c.434.367.555.532.391.532-.039 0-.247-.207-.461-.461zm1.352.228c0-.097.231-.176.513-.176s.513.035.513.079-.231.123-.513.176-.513.019-.513-.079zm-97.4-.176c.169-.109.4-.199.513-.199s.067.089-.103.199-.4.199-.513.199-.067-.089.103-.199zm33.59.065c.148-.059.325-.052.393.016s-.053.117-.269.108c-.239-.01-.287-.058-.124-.124zm-35.718-.38c-.198-.515-.14-.648.102-.233.12.206.174.417.122.47s-.154-.054-.224-.237zm28.58.098c0-.119.092-.16.205-.09s.205.167.205.217-.092.09-.205.09-.205-.098-.205-.217zm8.766.081c.141-.057.372-.057.513 0s.026.103-.256.103-.397-.046-.256-.103zm2.256-.205c.141-.057.372-.057.513 0s.026.103-.256.103-.397-.046-.256-.103zm24.414-.004c.148-.059.325-.052.393.016s-.053.117-.269.108c-.239-.01-.287-.058-.124-.124zm-33.219-.205c.148-.059.325-.052.393.016s-.053.117-.269.108c-.239-.01-.287-.058-.124-.124zm12.088-.005c.255-.049.624-.047.82.004s-.013.091-.464.089-.612-.044-.356-.093zm7.382 0c.255-.049.624-.047.82.004s-.013.091-.464.089-.612-.044-.356-.093zm12.724.005c.148-.059.325-.052.393.016s-.053.117-.269.108c-.239-.01-.287-.058-.124-.124zm-34.599-.389c.01-.239.058-.287.124-.124.059.148.052.325-.016.393s-.117-.053-.108-.269zm70.881.189c.141-.057.372-.057.513 0s.026.103-.256.103-.397-.046-.256-.103zm-94.888-.274c.169-.109.4-.199.513-.199s.067.089-.103.199-.4.199-.513.199-.067-.089.103-.199zm28.874.065c.148-.059.325-.052.393.016s-.053.117-.269.108c-.239-.01-.287-.058-.124-.124zm67.398-.27c.204-.225.417-.41.474-.41s-.064.184-.269.41-.417.41-.474.41.064-.184.269-.41zm-78.471.065c.148-.059.325-.052.393.016s-.053.117-.269.108c-.239-.01-.287-.058-.124-.124zm12.508 0c.148-.059.325-.052.393.016s-.053.117-.269.108c-.239-.01-.287-.058-.124-.124zm27.958-.27c0-.282.047-.397.103-.256a.79.79 0 0 1 0 .512c-.057.141-.103.026-.103-.256zm39.454.145c.077-.202.192-.316.255-.253s0 .228-.14.367c-.203.201-.226.177-.115-.115zm-99.156-.145c.169-.109.4-.199.513-.199s.067.089-.103.199-.4.199-.513.199-.067-.089.103-.199zm20.057.065c.148-.059.325-.052.393.016s-.053.117-.269.108c-.239-.01-.287-.058-.124-.124zm13.328 0c.148-.059.325-.052.393.016s-.053.117-.269.108c-.239-.01-.287-.058-.124-.124zm-35.718-.38c-.198-.515-.14-.648.102-.233.12.206.174.417.122.47s-.154-.054-.224-.237zm23.21.175c.148-.059.325-.052.393.016s-.053.117-.269.108c-.239-.01-.287-.058-.124-.124zm4.361-.184c.01-.239.058-.287.124-.124.059.148.052.325-.016.393s-.117-.053-.108-.269zm10.198.184c.148-.059.325-.052.393.016s-.053.117-.269.108c-.239-.01-.287-.058-.124-.124zm-13.739-.205c.148-.059.325-.052.393.016s-.053.117-.269.108c-.239-.01-.287-.058-.124-.124zm16.293-.002c.2-.052.476-.049.615.008s-.024.099-.363.094-.452-.05-.252-.102zm10.64-.473c0-.282.047-.397.103-.256a.79.79 0 0 1 0 .512c-.057.141-.103.026-.103-.256zm50.837-.12c.01-.239.058-.287.124-.124.059.148.052.325-.016.393s-.117-.053-.108-.269zm-103.44-.196c-.198-.515-.14-.648.102-.233.12.206.174.417.122.47s-.154-.054-.224-.237zm63.687-.205c-.218-.247-.21-.3.051-.3.174 0 .316.138.316.307 0 .374-.031.373-.367-.008zm-1.53-.435c.141-.057.372-.057.513 0s.026.103-.256.103-.397-.046-.256-.103zm-61.26-.262c0-.106.091-.249.203-.318s.151.011.081.193c-.136.355-.283.42-.283.125zm51.895-.132c.01-.239.058-.287.124-.124.059.148.052.325-.016.393s-.117-.053-.108-.269zm8.147.184c.148-.059.325-.052.393.016s-.053.117-.269.108c-.239-.01-.287-.058-.124-.124zm-1.448-.201c.141-.057.372-.057.513 0s.026.103-.256.103-.397-.046-.256-.103zm42.997-.53l-.602-.666.666.602c.621.561.761.73.602.73-.035 0-.335-.3-.666-.666zm-44.215.321c.148-.059.325-.052.393.016s-.053.117-.269.108c-.239-.01-.287-.058-.124-.124zm-56.556-.27c.169-.109.4-.199.513-.199s.067.089-.103.199-.4.199-.513.199-.067-.089.103-.199zm55.108.069c.141-.057.372-.057.513 0s.026.103-.256.103-.397-.046-.256-.103zm-57.646-.384c-.198-.515-.14-.648.102-.233.12.206.174.417.122.47s-.154-.054-.224-.237zm56.428.175c.148-.059.325-.052.393.016s-.053.117-.269.108c-.239-.01-.287-.058-.124-.124zm-1.448-.201c.141-.057.372-.057.513 0s.026.103-.256.103-.397-.046-.256-.103zm45.723-.095c.139-.14.305-.203.368-.14s-.051.178-.253.255c-.292.111-.316.088-.115-.115zm-21.716-.999c.043-.451.115-.82.159-.82s.081.369.081.82-.072.82-.159.82-.124-.369-.081-.82zm-76.45.41c.169-.109.4-.199.513-.199s.067.089-.103.199-.4.199-.513.199-.067-.089.103-.199zm2.122-.339c-.023-.389.02-.462.151-.256.224.353.243.8.035.8-.085 0-.168-.245-.185-.544zm95.429-.301c.139-.14.305-.203.368-.14s-.051.178-.253.255c-.292.111-.316.088-.115-.115zm-22.235-.999c0-.62.038-.873.085-.563s.047.817 0 1.127-.085.056-.085-.563zm-77.444.504c-.198-.515-.14-.648.102-.233.12.206.174.417.122.47s-.154-.054-.224-.237zm-1.435-.41c-.198-.515-.14-.648.102-.233.12.206.174.417.122.47s-.154-.054-.224-.237zm73.281.032c0-.043.228-.122.506-.175s.458-.018.398.079c-.105.17-.904.255-.904.097zm-46.38-.676c.148-.059.325-.052.393.016s-.053.117-.269.108c-.239-.01-.287-.058-.124-.124zm-1.397-.475c0-.225.035-.41.079-.41s.127.184.186.41.024.41-.079.41-.186-.184-.186-.41zm-22.761-.205c.169-.109.4-.199.513-.199s.067.089-.103.199-.4.199-.513.199-.067-.089.103-.199zm27.17-.41c.204-.225.417-.41.474-.41s-.064.184-.269.41-.417.41-.474.41.064-.184.269-.41zm-28.605 0c.169-.109.4-.199.513-.199s.067.089-.103.199-.4.199-.513.199-.067-.089.103-.199zm25.375.06c.254-.049.669-.049.923 0s.046.089-.461.089-.715-.04-.461-.089zm53.221-.88c0-.62.038-.873.085-.563s.047.817 0 1.127-.085.056-.085-.563zm-51.12.537c0-.043.161-.204.359-.359.325-.255.332-.248.077.077-.268.341-.436.45-.436.281zm-25.202-.759c.353-.223.8-.243.8-.035 0 .085-.245.168-.544.185-.389.023-.462-.02-.256-.151zm25.857-.496c.004-.338.05-.452.102-.252s.049.476-.008.615-.099-.024-.095-.362zm22.641.344c-.057-.092.163-.129.488-.081.575.084.594.058.67-.908l.078-.995.037 1.076c.037 1.062.029 1.076-.566 1.076-.332 0-.65-.076-.707-.168zm-21.745-1.616c-.111-.292-.088-.316.115-.115.14.139.203.304.14.367s-.178-.051-.255-.253zm48.244-1.085c-.038-.676 0-1.23.084-1.229s.154.554.154 1.23c0 1.587-.148 1.587-.238 0zm-51.474.475c.148-.059.325-.052.393.016s-.053.117-.269.108c-.239-.01-.287-.058-.124-.124zm-1.498-.472c-.072-.116.011-.15.193-.081.355.136.42.283.125.283-.106 0-.249-.091-.318-.203zm26.616-.924c.001-.676.039-.928.085-.56a5.47 5.47 0 0 1-.002 1.229c-.047.308-.084.007-.083-.67zm27.475.102c0-.62.038-.873.085-.563s.047.817 0 1.127-.085.056-.085-.563zm-55.205-.734c.01-.239.058-.287.124-.124.059.148.052.325-.016.393s-.117-.053-.108-.269zm28.96-1.007c.001-.676.039-.928.085-.56a5.47 5.47 0 0 1-.002 1.229c-.047.308-.084.007-.083-.67zm-28.944.102c0-.282.047-.397.103-.256a.79.79 0 0 1 0 .512c-.057.141-.103.026-.103-.256zm53.637-.025c.139-.14.305-.203.368-.14s-.051.178-.253.255c-.292.111-.316.088-.115-.115zm-52.131-.589c.204-.225.417-.41.474-.41s-.064.184-.269.41-.417.41-.474.41.064-.184.269-.41zm-.923-.512c.265-.282.528-.512.584-.512s-.114.231-.379.512-.528.512-.584.512.114-.231.379-.512zm3.447-.038c.148-.059.325-.052.393.016s-.053.117-.269.108c-.239-.01-.287-.058-.124-.124zm-1.138-1.032c.312-.047.773-.046 1.025.003s-.003.087-.567.086-.77-.041-.459-.088zm24.979-.199c-.013-.347-.166-.467-.683-.531l-.666-.083.673-.033c.684-.033 1.009.305.798.831-.058.145-.113.061-.122-.185zm3.636-.409c.148-.059.325-.052.393.016s-.053.117-.269.108c-.239-.01-.287-.058-.124-.124zm-1.141-1.031c.31-.047.818-.047 1.128 0s.056.085-.564.085-.874-.038-.564-.085zm-4.614-.206a6.53 6.53 0 0 1 1.333 0c.367.045.067.083-.666.083s-1.033-.037-.666-.083zm-29.31-1.016c.148-.059.325-.052.393.016s-.053.117-.269.108c-.239-.01-.287-.058-.124-.124zm4.511-1.024c.148-.059.325-.052.393.016s-.053.117-.269.108c-.239-.01-.287-.058-.124-.124zm1.025-.205c.148-.059.325-.052.393.016s-.053.117-.269.108c-.239-.01-.287-.058-.124-.124zm1.025-.205c.148-.059.325-.052.393.016s-.053.117-.269.108c-.239-.01-.287-.058-.124-.124zm1.23-.205c.148-.059.325-.052.393.016s-.053.117-.269.108c-.239-.01-.287-.058-.124-.124zm39.575 0c.148-.059.325-.052.393.016s-.053.117-.269.108c-.239-.01-.287-.058-.124-.124zm-38.345-.205c.148-.059.325-.052.393.016s-.053.117-.269.108c-.239-.01-.287-.058-.124-.124zm37.115 0c.148-.059.325-.052.393.016s-.053.117-.269.108c-.239-.01-.287-.058-.124-.124zm-35.884-.205c.148-.059.325-.052.393.016s-.053.117-.269.108c-.239-.01-.287-.058-.124-.124zm1.435-.205c.148-.059.325-.052.393.016s-.053.117-.269.108c-.239-.01-.287-.058-.124-.124zm31.783 0c.148-.059.325-.052.393.016s-.053.117-.269.108c-.239-.01-.287-.058-.124-.124zm-30.361-.201c.141-.057.372-.057.513 0s.026.103-.256.103-.397-.046-.256-.103zm28.72-.004c.148-.059.325-.052.393.016s-.053.117-.269.108c-.239-.01-.287-.058-.124-.124zm-26.973-.207c.2-.052.476-.049.615.008s-.024.099-.363.094-.452-.05-.252-.102zm25.333.002c.148-.059.325-.052.393.016s-.053.117-.269.108c-.239-.01-.287-.058-.124-.124zm-23.491-.206c.197-.052.52-.052.718 0s.036.094-.359.094-.556-.042-.359-.094zm21.223.006c.141-.057.372-.057.513 0s.026.103-.256.103-.397-.046-.256-.103zm-18.657-.214c.255-.049.624-.047.82.004s-.013.091-.464.089-.612-.044-.356-.093zm16.098.003c.2-.052.476-.049.615.008s-.024.099-.363.094-.452-.05-.252-.102zm-12.619-.211a7.69 7.69 0 0 1 1.435-.002c.425.044.128.081-.662.082s-1.138-.035-.774-.081zm8.407 0a7.69 7.69 0 0 1 1.435-.002c.425.044.128.081-.662.082s-1.138-.035-.774-.081z" fill="#564ba6"/><path d="M119.543 239.615c-.053-.141-.119-4.163-.147-8.939l-.051-8.683-30.348-17.367-30.348-17.367-.053-9.054-.053-9.054 1.23.676 1.23.676.054 7.777.054 7.777 30.348 17.369 30.348 17.369.053 9.538.053 9.538h-1.136c-.721 0-1.171-.094-1.232-.256zm4.161-9.819l-.053-10.075-30.348-17.371-30.348-17.37-.054-6.692-.054-6.692.874.516.874.516.055 4.991.055 4.991 24.447 14.032 30.735 17.642 6.289 3.61 31.034-17.748 31.034-17.748.055-5.035.055-5.035.717-.342.717-.342-.054 6.672-.054 6.672-30.348 17.374-30.348 17.374-.053 10.068-.053 10.068h-2.559-2.559zm-7.606 9.733c-.075-.075-.137-3.233-.137-7.019v-6.882l-28.79-16.647-29.018-16.647c-.357 0-.975 1.428-.692 1.6.128.078 12.924 7.472 28.436 16.431l28.204 16.289.007 6.368.007 6.368-.666-.075-1.538-.182-.871-.107v-5.282-5.282l-18.346-10.585-18.537-10.585c-.105 0-.382.323-.615.717l-.423.717.986.564 18.036 10.399 17.05 9.835.001 4.656.001 4.656-.666-.111c-1.757-.292-1.589.041-1.589-3.142v-2.846l-6.715-3.741-6.769-3.778c-.03-.02.14-.474.376-1.008s.399-.993.361-1.021c-.185-.136-12.945-5.858-13.059-5.856-.259.003-2.55 5.349-2.366 5.524.101.097 3.044 1.52 6.54 3.164l6.357 2.988.436-.93c.24-.511.486-.98.548-1.041s2.887 1.44 6.279 3.337l6.168 3.448v2.174 2.174l-1.999-.378c-1.1-.208-3.505-.747-5.345-1.199-17.281-4.241-32.686-12.055-46.687-23.68-3.38-2.807-11.266-10.677-14.038-14.011-9.673-11.632-16.627-24.082-21.234-38.016-3.917-11.847-5.704-22.985-5.72-35.656-.008-6.473.194-9.835.923-15.334 4.717-35.604 25.919-66.971 57.396-84.913 12.536-7.146 27.569-12.156 41.933-13.977 10.214-1.295 21.05-1.223 30.928.205 17.014 2.459 33.468 8.761 47.612 18.235 10.027 6.716 19.529 15.604 27.291 25.528 2.284 2.92 6.806 9.706 8.79 13.193 14.809 26.02 18.891 56.769 11.369 85.646-6.008 23.064-19.206 43.869-37.602 59.275-12.403 10.387-27.583 18.373-42.97 22.606-2.528.695-7.642 1.922-8.012 1.922-.105 0-.19-.829-.19-1.841v-1.841l.769-.492c.932-.597 11.49-6.48 11.629-6.48.054 0 .299.466.544 1.035s.548.992.672.939c1.262-.534 12.576-5.942 12.717-6.079.112-.109-.29-1.239-.996-2.802l-1.26-2.703c-.06-.063-12.86 5.61-13.173 5.838-.038.027.125.487.361 1.021s.406.989.376 1.012-3.076 1.724-6.769 3.78l-6.715 3.738v2.633 2.633l-.769.13c-.423.071-.93.174-1.128.228-.334.092-.359-.213-.356-4.372l.003-4.47 17.745-10.23 18.032-10.45c.242-.185.214-.339-.172-.971l-.46-.751-18.499 10.678-18.499 10.678v5.068c0 5.739.2 5.169-1.9 5.415l-1.182.139.054-6.222.054-6.222 24.709-14.292 28.44-16.45 3.731-2.158-.419-.71c-.23-.39-.507-.71-.615-.71s-13.155 7.492-28.993 16.648l-28.798 16.648-.002 6.789-.002 6.789-.461.124c-1.267.339-1.179.936-1.179-8.034v-8.163l30.399-17.398 30.399-17.398.053-10.19.053-10.19 2.664-1.576 2.664-1.576-.052-43.33-.052-43.33-37.32-21.495-37.65-21.681c-.251-.141-9.304 4.954-37.627 21.179L51.267 77.515l-.052 43.668-.052 43.668 2.767 1.597 2.767 1.597.053 10.141.053 10.141 30.45 17.432 30.45 17.432.054 8.238.054 8.238h-.788c-.434 0-.85-.061-.925-.137zM49.13 172.862l2.471-1.238-2.494-4.858-2.582-4.949c-.048-.05-.584.152-1.19.449l-1.102.54-1.024-2.293-1.024-2.293 1.037-.357c.57-.196 1.067-.387 1.103-.424.068-.068-3.34-10.381-3.476-10.517-.041-.041-.583.099-1.203.313l-1.128.388-.325-1.359c-.179-.748-.291-1.394-.248-1.436s.512-.158 1.044-.257.987-.203 1.011-.231-.358-2.494-.849-5.481l-.899-5.495c-.003-.036-.167-.019-.365.036a14.17 14.17 0 0 1-1.208.233l-.849.132-.134-1.705c-.073-.938-.184-2.05-.246-2.473l-.112-.768h1.248 1.248v-5.635-5.635h-1.244c-1.086 0-1.231-.045-1.144-.359.055-.197.163-1.268.24-2.38l.139-2.021 1.004.133c.552.073 1.005.061 1.006-.028s.37-2.498.82-5.354l.819-5.349c0-.086-.362-.238-.804-.339l-.804-.183.911-3.163c.501-1.739.947-3.198.99-3.242s.376.073.737.26.727.263.811.169 1.15-2.369 2.369-5.055c2.395-5.28 2.344-4.994.968-5.504-.367-.136-.666-.336-.666-.444 0-.176 2.591-5.229 2.789-5.439.044-.046.298.015.564.136.466.212.592.051 3.384-4.365l2.9-4.724c0-.076-.156-.252-.346-.391-.39-.285-.43-.224 2.689-4.07l1.641-2.023.554.663c.305.365.642.63.751.589.253-.095 8.04-7.389 8.04-7.531 0-.059-.342-.456-.759-.884-.457-.467-.681-.846-.564-.95 1.322-1.172 4.519-3.763 6.142-4.98 1.977-1.482 5.125-3.658 5.291-3.658.044 0 .247.369.451.82s.439.82.523.82 1.985-.885 4.224-1.967l4.935-2.346.865-.379-.506-1.143c-.278-.629-.506-1.22-.506-1.314 0-.218 5.664-2.644 8.366-3.584l2.057-.715.247 1.029c.217.904.3 1.015.684.91a1122.98 1122.98 0 0 1 5.358-1.367l4.982-1.308c.033-.033-.049-.495-.183-1.028-.194-.772-.191-1.001.018-1.129.376-.232 5.143-.962 8.615-1.318 3.912-.402 9.762-.622 11.702-.44l1.548.145-.012.947-.012.947 5.024.781c2.763.429 5.208.758 5.433.73.324-.04.444-.274.58-1.127.127-.804.257-1.075.514-1.072.365.004 5.099 1.027 6.525 1.411l.851.229-.398 1.047c-.219.576-.341 1.105-.27 1.176.214.214 10.234 3.677 10.383 3.587.076-.046.296-.566.489-1.156s.375-1.102.404-1.137 1.424.544 3.099 1.287c3.115 1.382 8.19 4.032 10.355 5.408l1.21.769-.756.97c-.443.568-.678 1.042-.569 1.144.103.096 1.987 1.536 4.186 3.199l4.234 3.206c.158.122.496-.156 1.025-.842.434-.563.87-1.027.968-1.032.212-.01 3.417 2.772 5.871 5.095l1.743 1.651-.974.844c-.536.464-.974.93-.974 1.035s1.629 2.037 3.62 4.293l3.62 4.102.847-.831c.466-.457.936-.828 1.045-.825.218.007 1.94 2.3 1.94 2.583 0 .097-.416.439-.923.76-.558.352-.867.676-.783.82.412.697 5.109 8.108 5.443 8.587l.393.564.928-.544c.771-.451.963-.495 1.131-.256.22.313 2.834 5.677 2.834 5.816 0 .047-.508.245-1.128.44s-1.128.411-1.128.479c0 .154 3.485 10.319 3.566 10.399.032.032.596-.127 1.253-.353s1.236-.37 1.285-.321c.35.35 2.393 9.012 2.227 9.444-.053.138-.61.315-1.237.393s-1.177.205-1.222.282.172 1.753.481 3.725l.818 5.386.255 1.801 1.208-.137 1.208-.137v2.719 2.719l-1.227-.128c-1.154-.121-1.233-.101-1.321.329-.194.95-.759 10.392-.634 10.594.072.116.683.211 1.358.211h1.228l-.112.666-.322 2.1c-.231 1.579-1.027 5.7-1.122 5.8-.033.035-.584-.089-1.224-.275s-1.191-.307-1.222-.268c-.058.071-2.802 10.16-2.856 10.501-.016.102.432.327.996.501s1.056.336 1.095.362-.466 1.391-1.12 3.034l-1.189 2.987h-1.495-1.495v-28.173-28.173h1.025 1.025v19.977c0 19.841.003 19.977.41 19.977s.41-.137.41-20.497V102.78l-1.897.059-1.897.059v29.095 29.095l2.481.057 2.481.057.532-1.184c.292-.651.868-2.06 1.279-3.131s.824-2.027.918-2.125.629-.068 1.223.074c.579.139 1.089.216 1.134.171.164-.164 2.935-10.514 2.852-10.649-.048-.077-.434-.198-.859-.27-1.266-.214-1.262-.197-.744-2.774.26-1.296.599-3.232.753-4.303l.279-1.947 1.063.009c.585.005 1.063-.021 1.063-.057 0-.286.635-8.834.731-9.838l.122-1.281h-1.144-1.144l-.031-2.664-.051-2.92c-.013-.159.425-.323 1.159-.433.812-.122 1.179-.269 1.179-.474 0-.34-1.39-9.549-1.551-10.278-.099-.447-.174-.47-1.104-.342-1.143.157-1.028.326-1.539-2.252-.179-.902-.646-2.878-1.039-4.391-.775-2.986-.822-3.292-.503-3.292.116 0 .527-.132.912-.292l.7-.292-1.768-5.189-1.795-5.234c-.015-.025-.504.107-1.088.294s-1.098.299-1.143.25-.76-1.472-1.588-3.163l-1.558-3.176c-.028-.056.408-.375.969-.708s1.021-.677 1.021-.765c0-.115-5.566-9.032-5.82-9.323-.019-.021-.47.232-1.003.563s-1.004.602-1.047.602-.558-.657-1.144-1.46l-1.066-1.46.746-.614c.438-.36.7-.732.635-.901-.187-.488-6.943-8.064-7.191-8.064-.129 0-.498.275-.82.611l-.586.611-1.964-1.897a118.31 118.31 0 0 0-3.81-3.5c-1.015-.881-1.875-1.683-1.912-1.781s.174-.494.468-.879l.534-.7-1.288-1.01c-3.373-2.645-7.327-5.592-7.503-5.592-.15 0-.839.796-1.378 1.593-.021.031-1.135-.597-2.477-1.394-2.928-1.74-7.62-4.135-10.436-5.327l-2.124-.931c-.04-.035.089-.485.286-1.002s.314-.984.26-1.038c-.154-.154-10.024-3.58-10.313-3.58-.141 0-.373.417-.516.927s-.335.974-.428 1.031-.887-.077-1.766-.298-2.635-.605-3.902-.854c-2.13-.419-2.297-.485-2.216-.886a36.15 36.15 0 0 0 .203-1.159l.116-.726-5.179-.776-5.518-.869c-.277-.076-.383.169-.582 1.348l-.243 1.442h-4.967c-5.463 0-10.008.353-14.653 1.137-1.62.274-3.017.453-3.104.399s-.223-.443-.303-.865c-.303-1.615.07-1.608-5.796-.11l-5.36 1.411c-.043.034.063.624.237 1.311.31 1.23.308 1.252-.127 1.411-3.418 1.256-5.58 2.114-7.617 3.021-1.353.602-2.527 1.095-2.61 1.095s-.339-.369-.569-.82-.497-.82-.594-.82c-.275 0-9.864 4.678-9.864 4.812 0 .066.231.574.513 1.13s.513 1.088.513 1.183-1.038.879-2.307 1.743c-2.729 1.858-6.262 4.579-8.223 6.331l-1.405 1.255-.819-.958-.819-.958-1.775 1.628-4.109 3.846-2.334 2.218.978 1.086.978 1.086-.639.759c-.351.417-1.441 1.781-2.422 3.032l-1.783 2.273-1.609-1.023c-.885-.563-1.637-.986-1.671-.941-.096.125-5.59 8.859-5.747 9.136-.087.153.417.6 1.353 1.202l1.538.999c.041.035-2.782 5.636-2.935 5.824-.032.04-.586-.169-1.231-.464s-1.188-.512-1.207-.482-1.061 2.313-2.315 5.074l-2.281 5.02 1.444.669c1.169.542 1.417.737 1.303 1.024-.077.195-.542 1.738-1.032 3.429-.746 2.574-.951 3.067-1.264 3.031l-1.538-.179-1.165-.137-.121.691c-.22 1.254-1.547 9.978-1.547 10.17 0 .104.623.272 1.384.374 1.208.162 1.379.238 1.341.596-.023.225-.106 1.355-.184 2.51l-.141 2.1h-.876c-1.63 0-1.524-.398-1.524 5.759v5.51h1.124c1.339 0 1.303-.078 1.384 3.065l.055 2.143-1.021.174c-.561.096-1.041.195-1.066.219-.08.079 1.699 10.778 1.81 10.889.059.059.599.014 1.199-.099s1.13-.169 1.177-.122.252.735.457 1.529l.372 1.444-1.054.344c-.58.189-1.077.363-1.106.386-.091.073 3.26 10.241 3.436 10.426.093.098.64.02 1.225-.175s1.092-.316 1.134-.274c.076.076 1.012 2.104 1.757 3.807l.381.871-1.031.522-1.031.522 1.469 2.807c2.248 4.297 3.733 6.803 4.033 6.803.149 0 1.383-.557 2.742-1.238zm-2.477-35.337v-6.249h1.128 1.128v-7.878-7.878l-1.077-.062-1.077-.062-.055-5.379-.055-5.379h-.608-.608l-.055 5.379-.055 5.379-1.282.061-1.282.061v7.879 7.879h1.333 1.333v6.249 6.249h.615.615zm178.084-44.927c.523-.368 1.069-.95 1.213-1.292.225-.534.298-.579.517-.314.77.927 2.559.822 3.525-.206.713-.759.667-2.41-.116-4.136-.322-.71-.686-1.255-.809-1.212-8.639 3.001-8.347 2.88-8.212 3.424.07.282.163.548.208.593s.883-.211 1.864-.568c1.112-.405 1.856-.577 1.976-.457.106.106.24.615.298 1.131.125 1.107-.022 1.329-1.505 2.277-1.262.806-1.392.984-1.222 1.662.13.516.13.516.72.142.325-.206 1.019-.675 1.542-1.044zm2.103-2.506c-.286-.225-.66-.819-.831-1.319l-.31-.91 1.548-.52c.852-.286 1.616-.479 1.698-.428.281.174.665 1.929.535 2.447-.135.538-1.047 1.139-1.726 1.139-.216 0-.627-.184-.914-.409zM28.772 87.343c.711-.372 1.75-1.476 2.165-2.301.495-.983.662-2.33.315-2.549-.507-.321-.798-.2-.798.332 0 .695-.53 1.925-1.086 2.52-1.088 1.165-2.473 1.355-4.159.57-2.359-1.098-2.898-3.439-1.307-5.672.451-.633.455-.669.093-.933-.29-.212-.443-.22-.666-.035-.544.451-1.318 2.268-1.431 3.359-.197 1.903 1.056 3.82 3.069 4.694.872.379 3.095.388 3.805.016zm184.026-15.948c.301-.23.224-.425-.746-1.895l-1.082-1.639 1.292-.871c.711-.479 1.327-.871 1.371-.871s.51.648 1.036 1.439c.849 1.276 1.004 1.414 1.363 1.222.498-.266.499-.313.024-.99-.21-.299-.625-.933-.922-1.41l-.541-.866 1.073-.722c.59-.397 1.13-.722 1.2-.722s.556.645 1.081 1.434c.946 1.421 1.27 1.649 1.715 1.204.305-.304-2.345-4.344-2.748-4.19-.441.169-7.448 4.803-7.448 4.926 0 .203 2.725 4.207 2.863 4.207.074 0 .286-.115.47-.256zm-169.907-6.63c2.239-1.811 2.254-4.744.033-6.749-1.888-1.704-4.303-2.025-5.854-.777-1.788 1.439-2.211 3.569-1.095 5.514 1.082 1.884 2.682 2.79 4.771 2.698 1.176-.052 1.483-.15 2.145-.685zm-3.723-.873c-1.118-.51-2.502-2.055-2.677-2.988-.301-1.604.974-3.185 2.568-3.185 1.019 0 2.823.956 3.563 1.887.758.954.959 2.441.462 3.403-.64 1.236-2.315 1.614-3.915.883zm159.258-15.644l2.802-2.925 1.005.98c.982.958 1.013.971 1.363.585s.295-.456-1.552-2.235c-2.74-2.64-3.13-2.945-3.415-2.66-.382.382-.289.601.676 1.582l.913.929-2.784 2.927c-2.712 2.852-2.775 2.937-2.42 3.33.201.221.419.405.487.408s1.383-1.311 2.924-2.92zM59.467 47.101l.473-.372-1.228-1.579-1.228-1.579.479-.404c1.084-.914 1.845-.804 3.542.513l1.205.935.467-.439.467-.439-1.458-1.104c-1.092-.827-1.631-1.104-2.147-1.104-.618 0-.667-.041-.477-.396.117-.218.212-.736.212-1.151 0-1.045-1.268-2.347-2.283-2.344-.837.003-2.484.92-3.439 1.916-.633.66-.671.766-.41 1.141.515.74 5.207 6.753 5.279 6.765.039.006.283-.156.543-.36zm-3.649-5.621l-.982-1.281.623-.559c1.188-1.067 2.473-1.007 3.021.14.28.586.292.796.075 1.319-.206.496-1.39 1.662-1.689 1.662-.037 0-.508-.576-1.048-1.281zm123.166-6.953c.03-1.14.044-1.167.689-1.288.834-.157 1.81-1.121 1.977-1.953s-.255-1.821-1.064-2.501c-.763-.641-2.867-1.701-3.039-1.53-.067.067-1.114 1.854-2.327 3.972-2.148 3.749-2.194 3.857-1.769 4.099.24.137.498.252.573.256s.562-.73 1.082-1.632 1.015-1.639 1.099-1.639.497.283.917.63c.893.736.929 1.036.367 3.061l-.397 1.432.551.291.551.291.379-1.162c.209-.639.393-1.686.41-2.327zm-1.559-2.64c-.423-.223-.769-.458-.769-.521 0-.289 1.492-2.743 1.668-2.743.349 0 1.294.56 1.699 1.006.88.971.108 2.692-1.198 2.673-.347-.005-.977-.192-1.4-.415zm-95.053.924c2.045-.914 2.178-1.008 1.971-1.406-.122-.234-.244-.454-.272-.487s-.847.307-1.821.757l-1.771.817-.618-1.362c-.34-.749-.577-1.458-.528-1.576s.743-.491 1.541-.829c1.459-.618 1.609-.775 1.263-1.322-.158-.249-.453-.178-1.825.439l-1.637.736-.53-1.22c-.291-.671-.53-1.264-.53-1.317s.74-.43 1.644-.837c1.443-.65 1.628-.793 1.512-1.17-.073-.236-.165-.467-.205-.511-.084-.094-4.373 1.839-4.486 2.023-.145.235 3.665 8.419 3.88 8.334a211.72 211.72 0 0 0 2.411-1.066zm74.119-5.777c-.068-.761-.177-2.766-.242-4.457s-.16-3.272-.21-3.514c-.094-.457-1.284-1.032-1.533-.74-.157.184-4.959 7.197-5.209 7.607-.189.31.184.635.733.64.186.002.647-.473 1.025-1.055l.811-1.243c.069-.104.812.014 1.692.27l1.568.455v1.082c0 1.679.283 2.179 1.308 2.314.099.013.125-.599.057-1.359zm-2.698-3.466c-.564-.172-1.052-.339-1.085-.37s.423-.804 1.013-1.717 1.091-1.639 1.112-1.613c.144.172.296 4.039.158 4.027-.095-.008-.634-.155-1.198-.327zm-48.242 1.744c1.155-.579 1.478-1.235 1.41-2.873-.038-.925-1.045-1.714-2.709-2.121-2.203-.539-2.846-1.501-1.713-2.564.416-.391.744-.489 1.625-.489.98 0 1.113-.051 1.191-.458.102-.532-.18-.685-1.252-.679-1.695.01-3.315 1.278-3.315 2.595 0 1.508.852 2.271 3.069 2.746 1.311.281 1.853.776 1.853 1.692 0 1.078-.59 1.466-2.226 1.466-1.378 0-1.661.129-1.667.755-.006.66 2.367.616 3.736-.07zm24.246-5.732l.151-4.124 1.413.101 1.413.101v-.587-.587h-1.506a58.57 58.57 0 0 1-3.383-.133l-1.877-.133v.519c0 .488.08.528 1.348.663l1.348.144-.142 3.824-.142 3.926c.001.341.108.41.638.41h.589zm.927 210.682v-9.403l30.399-17.397 30.399-17.397.054-7.809.054-7.809 1.122-.633c.617-.348 1.171-.633 1.23-.633s.084 4.069.054 9.042l-.053 9.042-30.348 17.37-30.348 17.37-.053 8.831-.053 8.831h-1.228-1.228zm-34.492-31.645l-29.673-17.04-.009-3.842c-.004-2.113.042-3.842.104-3.842s.385.141.717.312l.605.312.052-44.098.052-44.098 28.81-16.671 29.064-16.782c.235-.102 6.023 3.277 44.55 26.013l14.046 8.289.052 43.669.158 43.669c.058 0 .475-.233.927-.518l.821-.518-.056 3.923-.056 3.923-30.04 17.186-30.245 17.169c-.113-.009-13.558-7.685-29.878-17.057zm56.535-6.373l17.173-9.87.769-.495v-9.205c0-5.063-.069-9.243-.154-9.29s-10.119 5.567-22.3 12.474l-22.351 12.569c-.113.006-5.142-2.921-11.175-6.503l-10.97-6.514-.054-8.647.031-8.647c.047 0 5.098 3.091 11.225 6.868l11.349 6.788c.546-.21 44.086-26.551 44.133-26.7.03-.094-3.282-2.128-7.359-4.52l-7.413-4.349-.632.378-1.566.913-.934.535-12.702-7.574-12.702-7.574-4.357-.003-4.357-.003v-.481c0-.472-.046-.483-2.614-.614-1.438-.073-4.99-.134-7.895-.134h-5.28v.615.615h-1.948-1.948v-2.151-2.151h1.948 1.948v.717.717h7.895 7.895v-.717-.717h4.319 4.319l12.204-7.274 12.341-7.273c.075 0 .96.495 1.965 1.099l1.828 1.098 2.375-1.505 12.659-8.183c.074-.247-43.104-25.809-43.567-25.793-.268.01-17.761 10.309-43.049 25.346l-.666.396v24.444 24.444l1.538.958 1.538.958v8.796c0 4.838-.074 8.796-.164 8.796s-.252-.078-.359-.174-.725-.471-1.374-.835l-1.179-.66v9.827 9.827l21.358 12.392 21.358 12.392 5.247-3.014 21.652-12.39zm-52.743-19.028l-1.48-.859-.007-8.761-.007-8.761 1.589.995 1.589.995.054 8.636c.029 4.75-.017 8.631-.103 8.625s-.822-.398-1.636-.871zm-4.979-2.98l-1.538-.969-.054-8.773-.054-8.773.669.4 1.643.993.974.594v8.761l-.051 8.748c-.028-.007-.743-.448-1.589-.981zm-5.331-3.166l-1.743-1.078-.053-8.753c-.029-4.814.025-8.753.121-8.753s.95.485 1.899 1.079l1.725 1.079.053 8.756c.029 4.816-.017 8.754-.103 8.752s-.94-.489-1.899-1.082zm22.658-22.148l-13.534-8.036-.062-.962-.062-.962h1.959 1.959v.615.615h7.895 7.895v-.615-.615h1.865 1.865l8.337 5.045 8.605 5.295c.215.201-1.023.986-6.261 3.971l-6.727 3.702c-.109-.01-6.289-3.634-13.732-8.054zm18.967-5.553l-8.92-5.418-1.999-.006-1.999-.006v-1.024-1.024h2.395 2.395l9.928 5.77 9.928 5.77-1.198.682c-.659.375-1.291.681-1.403.679s-4.219-2.441-9.125-5.421zm2.256-2.575l-10.15-5.922-2.512-.003-2.512-.003v-.512-.512h-7.895-7.895v.512c0 .51-.007.512-1.948.512h-1.948v-2.262-2.262l1.897.059 1.897.059.062.635.062.635 2.174.133c1.196.073 4.744.133 7.884.133h5.71v-.82-.82h3.141 3.141l11.92 6.915 11.776 7.053c-.355.341-4.148 2.422-4.387 2.407-.147-.009-4.835-2.682-10.417-5.939zm3.794-4.204l-12.098-7.052h-3.435-3.435v-.82-.82h4.238 4.238l11.91 7.099 12.287 7.357c.346.237.303.302-.531.79-.499.292-.946.524-.992.514s-5.528-3.191-12.182-7.069zm-38.653.325v-1.024h1.948 1.948v1.024 1.024h-1.948-1.948zm0-8.188v-.827h1.96 1.96l-.064.768-.064.768-1.897.059-1.897.059zm0-7.999v-.82h1.948 1.948v.82.82h-1.948-1.948zm19.685 0v-.82h3.411 3.411l11.635-6.762 11.916-6.755c.155.004.633.223 1.064.487l.783.481-.68.41-11.894 7.094-11.214 6.684h-4.216-4.216zm-19.685-3.885v-2.262h1.948 1.948v.615.615h7.895 7.895v-.615-.615h2.476 2.476l9.536-5.544 10.01-5.76c.407-.185.778-.037 2.659 1.061 1.202.702 2.152 1.31 2.111 1.351s-5.236 3.072-11.544 6.735l-11.47 6.661-3.127.002-3.127.002v-.615-.615h-7.881-7.881l-.065.563-.065.563-1.897.059-1.897.059zm0-4.311v-1.024h1.948 1.948v1.024 1.024h-1.948-1.948zm19.685 0v-1.024h1.954 1.954l8.74-5.3 8.74-5.3 1.21.72c.665.396 1.136.792 1.045.879s-4.38 2.61-9.532 5.604l-9.367 5.445h-2.372-2.372zm-19.685-2.924v-.875l13.568-7.884 13.892-7.873c.525.017 12.588 7.284 12.394 7.466-.097.092-3.847 2.388-8.334 5.104l-8.158 4.938h-1.839c-1.825 0-1.839-.004-1.839-.512v-.512h-7.895-7.895v.512c0 .51-.007.512-1.948.512h-1.948zm-19.275 65.52c0-5.965-.04-6.864-.308-6.864s-.307-4.137-.306-36.011l.001-36.011 23.836-13.728 24.149-13.728c.172 0 10.991 6.178 24.041 13.728l23.729 13.728.002 42.67.002 42.67h2.871 2.871l-.052-44.081-.052-44.081-5.536-3.216-26.585-15.441-21.223-12.223c-.097.001-12.171 6.9-26.832 15.33L73.412 89.197l-.052 37.533-.052 37.533h-.512-.512v6.864 6.864h3.588 3.588zm96.102 5.498c-.075-.075-.137-19.241-.137-42.592V91.579l-24.296-14.062-24.296-14.062-24.404 14.061-24.404 14.061v36.343 36.343H76.18h-1.845l.004-37.24.004-37.24 26.189-15.043 26.396-15.037c.114.003 10.404 5.927 22.866 13.165l26.089 15.14 3.43 1.98.004 43.387.004 43.387h-1.811c-.996 0-1.873-.061-1.948-.137zM150 129.637v-1.229h3.281 3.281v1.229 1.229h6.767 6.767v-9.835-9.835h-6.767-6.767v1.007 1.007l-6.51.069-6.51.069-1.379.653c-2.611 1.236-4.194 3.483-4.403 6.253-.304 4.01 2.143 7.11 6.346 8.038.538.119.564.18.564 1.35v1.225h2.666H150zm-6.904-2.633c-5.464-1.887-5.926-9.4-.734-11.956l1.374-.676 6.413-.062 6.413-.062v1.019 1.019l-3.655.068c-3.569.066-3.675.081-4.486.618-1.398.925-1.701 1.842-1.701 5.149v2.804h-1.025-1.025v1.229c0 1.392-.001 1.393-1.572.85zm6.904-.85v-1.229h-1.128-1.128l.001-2.817c.001-4.489.32-4.764 5.529-4.764h3.287v5.02 5.02h-3.281-3.281v-1.229z" fill="#011352"/></svg>