<?xml version="1.0" encoding="UTF-8"?><svg id="CIRCLE_OUTLINE_BLACK" xmlns="http://www.w3.org/2000/svg" viewBox="0 0 512 512"><circle cx="256" cy="256" r="256" fill="#fff" stroke-width="0"/><path d="m286.08644,241.21407c-5.32247-10.11029-15.92559-17.0076-28.1448-17.0076-17.55892,0-31.79324,14.23432-31.79324,31.79353s14.23432,31.79296,31.79324,31.79296c12.00812,0,22.45836-6.65937,27.8673-16.48482h123.08794v-30.09407h-122.81044Z" stroke-width="0"/><path d="m257.94163,380.74445c-68.78434,0-124.74445-55.96011-124.74445-124.74445s55.96011-124.74445,124.74445-124.74445c41.6478,0,78.58887,20.51956,101.25833,51.97568l24.4794-17.48517c-28.13435-39.08476-74.01158-64.58457-125.73773-64.58457-85.37824,0-154.83852,69.46028-154.83852,154.83852s69.46028,154.83852,154.83852,154.83852c52.33343,0,98.68003-26.10228,126.72141-65.96698l-24.45708-17.52134c-22.57309,32.25583-59.994,53.39425-102.26433,53.39425Z" stroke-width="0"/></svg>