<?xml version="1.0" encoding="UTF-8" standalone="no"?>
<svg
   xmlns:dc="http://purl.org/dc/elements/1.1/"
   xmlns:cc="http://creativecommons.org/ns#"
   xmlns:rdf="http://www.w3.org/1999/02/22-rdf-syntax-ns#"
   xmlns:svg="http://www.w3.org/2000/svg"
   xmlns="http://www.w3.org/2000/svg"
   xmlns:sodipodi="http://sodipodi.sourceforge.net/DTD/sodipodi-0.dtd"
   xmlns:inkscape="http://www.inkscape.org/namespaces/inkscape"
   width="236.00096"
   height="236.00058"
   version="1.1"
   id="svg6"
   sodipodi:docname="CTSI_ERC20.svg"
   inkscape:version="1.0.2-2 (e86c870879, 2021-01-15)">
  <metadata
     id="metadata12">
    <rdf:RDF>
      <cc:Work
         rdf:about="">
        <dc:format>image/svg+xml</dc:format>
        <dc:type
           rdf:resource="http://purl.org/dc/dcmitype/StillImage" />
      </cc:Work>
    </rdf:RDF>
  </metadata>
  <defs
     id="defs10" />
  <sodipodi:namedview
     pagecolor="#ffffff"
     bordercolor="#666666"
     borderopacity="1"
     objecttolerance="10"
     gridtolerance="10"
     guidetolerance="10"
     inkscape:pageopacity="0"
     inkscape:pageshadow="2"
     inkscape:window-width="1920"
     inkscape:window-height="1017"
     id="namedview8"
     showgrid="false"
     inkscape:zoom="3.3203125"
     inkscape:cx="118.00047"
     inkscape:cy="117.99985"
     inkscape:window-x="-8"
     inkscape:window-y="-8"
     inkscape:window-maximized="1"
     inkscape:current-layer="svg6" />
  <path
     d="m 107.62747,235.40585 c -12.872003,-1.088 -28.673003,-5.347 -40.410003,-10.893 -16.095,-7.605 -32.543,-21.008 -43.286,-35.272 -42.166,-55.99 -26.9909996,-135.724004 32.773,-172.193004 46.616003,-28.445 107.809003,-20.6519996 145.902003,18.582 44.526,45.859 44.526,118.678004 0,164.537004 -19.921,20.517 -46.358,32.881 -75.436,35.28 -9.048,0.746 -10.262,0.744 -19.543,-0.041 z m 13.526,-26.285 15.438,-17.576 18.796,-21.363 11.479,-13.087 h 19.039 c 19.882,0 20.503,-0.083 20.503,-2.739 0,-1.446 -21.09,-60.783004 -22.34,-62.854004 l -0.859,-1.422 h -18.829 -18.829 l -0.605,-1.739 c -5.627,-16.17 -20.561,-57.102 -21.22,-58.164 -0.501,-0.807 -1.499,-1.422 -2.307,-1.422 -1.336,0 -3.225,1.99 -17.146,18.061 l -19.504003,22.337 -18.285,20.928 h -18.94 c -19.789,0 -20.404,0.083 -20.404,2.747 0,1.447 21.736,62.289004 22.67,63.455004 0.48,0.599 5.207,0.836 19.228,0.962 l 18.592,0.167 10.58,29.613 11.294003,30.505 c 1.777,2.22 3.384,1.06 11.652,-8.408 z m -8.96,0.317 -19.201003,-54.33 c 0,-0.589 21.693003,-25.391 22.449003,-25.666 0.229,-0.083 2.456,5.606 4.948,12.644 2.492,7.038 4.931,13.29 5.421,13.892 0.797,0.981 2.586,1.114 17.011,1.264 l 16.12,0.168 -13.872,15.805 c -29.71,33.851 -32.589,37.023 -32.877,36.221 z m -68.286003,-85.293 -9.959,-27.817004 c -0.116,-0.317 14.89,-0.557 34.847,-0.557 h 35.050003 l 4.663,13.051004 c 2.565,7.178 4.582,13.404 4.483,13.836 -0.099,0.432 -5.668,7.061 -12.376,14.73 l -12.195003,13.945 -17.378,0.036 -17.378,0.036 -9.756,-27.261 z m 82.309003,17.303 -4.954,-13.67 -1.415,-3.713 8.628,-9.88 12.477,-14.147 3.849,-4.267004 h 17.556 17.556 l 1.629,4.584004 17.877,49.945 c 0.391,1.046 -1.504,1.106 -34.625,1.106 h -35.038 z m -13.419,-37.263 -4.891,-13.788004 -16.935003,-0.168 -16.935,-0.168 8.669,-9.947 13.978,-15.953 14.287003,-16.28 c 4.938,-5.65 9.173,-10.274 9.412,-10.274 0.239,0 1.145,2.063 2.016,4.584 l 9.564,26.8 7.981,22.979 c 0,0.42 -1.724,2.656 -3.83,4.969 -3.803,4.176004 -13.089,14.738004 -16.597,18.876004 l -1.829,2.159 z"
     id="path4" />
</svg>
