<svg xmlns="http://www.w3.org/2000/svg" width="256" height="256" xmlns:v="https://vecta.io/nano"><path d="M6.557 128c0 66.964 54.479 121.443 121.443 121.443S249.443 194.965 249.443 128 194.964 6.558 128 6.558 6.557 61.036 6.557 128z" fill="#fff" fill-rule="evenodd" stroke="#b0b0b0" stroke-width="13.114" paint-order="normal"/><path d="M117.627 245.406c-12.872-1.088-28.673-5.347-40.41-10.893-16.095-7.605-32.543-21.008-43.286-35.272C-8.235 143.251 6.94 63.517 66.704 27.048 113.32-1.397 174.513 6.396 212.606 45.63c44.526 45.859 44.526 118.678 0 164.537-19.921 20.517-46.358 32.881-75.436 35.28-9.048.746-10.262.744-19.543-.041zm13.526-26.285l15.438-17.576 18.796-21.363 11.479-13.087h19.039c19.882 0 20.503-.083 20.503-2.739 0-1.446-21.09-60.783-22.34-62.854l-.859-1.422H174.38h-18.829l-.605-1.739c-5.627-16.17-20.561-57.102-21.22-58.164-.501-.807-1.499-1.422-2.307-1.422-1.336 0-3.225 1.99-17.146 18.061L94.769 79.153l-18.285 20.928h-18.94c-19.789 0-20.404.083-20.404 2.747 0 1.447 21.736 62.289 22.67 63.455.48.599 5.207.836 19.228.962l18.592.167 10.58 29.613 11.294 30.505c1.777 2.22 3.384 1.06 11.652-8.408zm-8.96.317l-19.201-54.33c0-.589 21.693-25.391 22.449-25.666.229-.083 2.456 5.606 4.948 12.644s4.931 13.29 5.421 13.892c.797.981 2.586 1.114 17.011 1.264l16.12.168-13.872 15.805c-29.71 33.851-32.589 37.023-32.877 36.221zm-68.286-85.293l-9.959-27.817c-.116-.317 14.89-.557 34.847-.557h35.05l4.663 13.051c2.565 7.178 4.582 13.404 4.483 13.836s-5.668 7.061-12.376 14.73L98.42 161.333l-17.378.036-17.378.036-9.756-27.261zm82.309 17.303l-4.954-13.67-1.415-3.713 8.628-9.88 12.477-14.147 3.849-4.267h17.556 17.556l1.629 4.584 17.877 49.945c.391 1.046-1.504 1.106-34.625 1.106h-35.038zm-13.419-37.263l-4.891-13.788-16.935-.168-16.935-.168 8.669-9.947 13.978-15.953 14.287-16.28c4.938-5.65 9.173-10.274 9.412-10.274s1.145 2.063 2.016 4.584l9.564 26.8 7.981 22.979c0 .42-1.724 2.656-3.83 4.969-3.803 4.176-13.089 14.738-16.597 18.876l-1.829 2.159z"/></svg>