<svg id="Civic" xmlns="http://www.w3.org/2000/svg" width="256" height="256" viewBox="0 0 512 512">
<defs>
    <style>
      .cls-1 {
        fill: #3ab03e;
      }

      .cls-1, .cls-2 {
        fill-rule: evenodd;
      }

      .cls-2 {
        fill: #fff;
      }
    </style>
  </defs>
  <path id="Main_copy_18" data-name="Main copy 18" class="cls-1" d="M11,256c0,135.094,109.906,245,245,245S501,391.094,501,256,391.094,11,256,11,11,120.906,11,256Z"/>
  <path id="C" class="cls-2" d="M375,292.08h43C415,355,335,422.55,256,422c-71,0-164-57-164-166C95,150,180,90,256,90c104,0,159,90,164,130H375c0-25-50-92.23-119-88-91,0-123,83-123,124,2,54,37,121.6,123,124C345,380,370,310,375,292.08Z"/>
  <path id="Key" class="cls-2" d="M256,195c-21,0-38,17.869-38,40,0,22.617,25,35,25,35v47h30V270s25.089-12.178,25-35C298.124,221.753,290,195,256,195Z"/>
</svg>
