<?xml version="1.0" encoding="utf-8"?>
<!-- Generator: Adobe Illustrator 22.0.0, SVG Export Plug-In . SVG Version: 6.00 Build 0)  -->
<svg version="1.1" id="Civic" xmlns="http://www.w3.org/2000/svg" xmlns:xlink="http://www.w3.org/1999/xlink" x="0px" y="0px"
	 viewBox="0 0 245 245" style="enable-background:new 0 0 245 245;" xml:space="preserve">
<style type="text/css">
	.st0{fill:#3AB03E;}
	.st1{fill:#FFFFFF;}
</style>
<path id="Main_copy_18" class="st0" d="M0,122.5C0,190,55,245,122.5,245S245,190,245,122.5S190,0,122.5,0S0,55,0,122.5z"/>
<path id="C" class="st1" d="M182,140.5h21.5c-1.5,31.5-41.5,65.2-81,65c-35.5,0-82-28.5-82-83c1.5-53,44-83,82-83
	c52,0,79.5,45,82,65H182c0-12.5-25-46.1-59.5-44C77,60.5,61,102,61,122.5c1,27,18.5,60.8,61.5,62C167,184.5,179.5,149.5,182,140.5z"
	/>
<path id="Key" class="st1" d="M122.5,92c-10.5,0-19,8.9-19,20c0,11.3,12.5,17.5,12.5,17.5V153h15v-23.5c0,0,12.5-6.1,12.5-17.5
	C143.6,105.4,139.5,92,122.5,92z"/>
</svg>
