<?xml version="1.0" encoding="UTF-8" standalone="no"?>
<svg
   xmlns:dc="http://purl.org/dc/elements/1.1/"
   xmlns:cc="http://creativecommons.org/ns#"
   xmlns:rdf="http://www.w3.org/1999/02/22-rdf-syntax-ns#"
   xmlns:svg="http://www.w3.org/2000/svg"
   xmlns="http://www.w3.org/2000/svg"
   id="svg985"
   version="1.1"
   viewBox="0 0 67.733332 67.733335"
   height="256"
   width="256">
  <defs
     id="defs979" />
  <metadata
     id="metadata982">
    <rdf:RDF>
      <cc:Work
         rdf:about="">
        <dc:format>image/svg+xml</dc:format>
        <dc:type
           rdf:resource="http://purl.org/dc/dcmitype/StillImage" />
        <dc:title></dc:title>
      </cc:Work>
    </rdf:RDF>
  </metadata>
  <g
     transform="translate(0,-229.26665)"
     id="layer1">
    <circle
       r="32.411457"
       cy="263.13333"
       cx="33.866665"
       id="path1530"
       style="opacity:1;fill:#062ef5;fill-opacity:1;fill-rule:nonzero;stroke:none;stroke-width:0.41085702;stroke-linecap:round;stroke-linejoin:round;stroke-miterlimit:4;stroke-dasharray:none;stroke-dashoffset:0;stroke-opacity:1;paint-order:stroke fill markers" />
    <path
       style="fill:#f6f7ff;fill-opacity:1;fill-rule:evenodd;stroke:none;stroke-width:1.34200013"
       d="m 25.42831,243.00367 c 2.816922,0 5.109022,2.29503 5.109022,5.11711 0,2.8205 -2.2921,5.11473 -5.109022,5.11473 -0.0914,0 -0.181886,-0.002 -0.271714,-0.005 -1.123212,0.69909 -2.172108,1.75942 -2.967884,3.11271 -0.79887,1.35715 -1.216874,2.79495 -1.280351,4.12186 0.477641,0.77817 0.753201,1.69202 0.753201,2.67018 0,0.97501 -0.273236,1.88652 -0.747779,2.66235 0.08359,1.29132 0.501633,2.68027 1.274929,3.994 0.846087,1.43856 1.977045,2.55001 3.181532,3.24372 0.01877,0 0.03804,-0.002 0.05813,-0.002 1.016393,0 1.963106,0.30078 2.760429,0.81464 0.01775,0 0.03652,0.002 0.05422,0.002 v 0 l 0.03246,0.0543 c 1.36318,0.92003 2.2619,2.47951 2.2619,4.24593 0,2.8205 -2.292094,5.1155 -5.109021,5.1155 -2.818469,0 -5.110563,-2.295 -5.110563,-5.1155 0,-1.08589 0.340594,-2.09276 0.918841,-2.92205 -0.0635,-1.3254 -0.482258,-2.76244 -1.280347,-4.11959 -0.723006,-1.22851 -1.654244,-2.21595 -2.660558,-2.91119 -0.243057,0.0355 -0.490779,0.0553 -0.743133,0.0553 -2.817703,0 -5.109797,-2.29499 -5.109797,-5.11707 0,-2.82051 2.292094,-5.11554 5.109797,-5.11554 0.194313,0 0.386242,0.0102 0.575154,0.0355 1.071345,-0.69914 2.06605,-1.73 2.828537,-3.02669 0.772546,-1.31297 1.190555,-2.70116 1.27494,-3.9909 -0.575154,-0.82701 -0.913434,-1.83073 -0.913434,-2.91272 0,-2.82208 2.292094,-5.11712 5.110563,-5.11712 z m 25.753195,15.01435 c 2.816927,0 5.109021,2.29422 5.109021,5.11549 0,2.82133 -2.292094,5.11631 -5.109021,5.11631 -0.09753,0 -0.195074,-0.003 -0.29185,-0.0103 -1.127858,0.69909 -2.180629,1.76252 -2.979494,3.11966 -0.723782,1.23086 -1.134823,2.52754 -1.253257,3.74754 0.63011,0.85024 1.003227,1.90206 1.003227,3.03988 0,2.82051 -2.292095,5.11549 -5.109798,5.11549 -2.817703,0 -5.109021,-2.29498 -5.109021,-5.11549 0,-1.13316 0.370011,-2.18112 0.99548,-3.02979 -0.08131,-1.29516 -0.4993,-2.69111 -1.275704,-4.01103 -0.719137,-1.22233 -1.644181,-2.2051 -2.644303,-2.89959 -0.212877,0.0253 -0.429609,0.0406 -0.651017,0.0406 -2.816928,0 -5.109022,-2.29499 -5.109022,-5.11555 0,-2.82203 2.292094,-5.11631 5.109022,-5.11631 2.818479,0 5.109796,2.29428 5.109796,5.11631 0,1.03944 -0.311175,2.00668 -0.845311,2.81514 0.105349,1.24707 0.520964,2.57866 1.26332,3.8405 0.846087,1.43775 1.976268,2.54926 3.179975,3.24292 0.106008,8.1e-4 0.211356,0.005 0.316602,0.0103 1.055095,-0.69837 2.034329,-1.7199 2.788291,-3.00036 0.781072,-1.32925 1.199075,-2.73525 1.276481,-4.03817 -0.557345,-0.81925 -0.884015,-1.80827 -0.884015,-2.87244 0,-2.82128 2.292099,-5.11555 5.110578,-5.11555 z m -8.631461,-15.0169 c 2.818479,0 5.110563,2.29504 5.110563,5.11631 0,2.82132 -2.292084,5.11555 -5.110563,5.11555 -2.816927,0 -5.109021,-2.29423 -5.109021,-5.11555 0,-2.82127 2.292094,-5.11631 5.109021,-5.11631 z"
       id="Logo-è“" />
  </g>
</svg>
