<?xml version="1.0" encoding="UTF-8"?><svg id="CIRCLE_OUTLINE_BLACK" xmlns="http://www.w3.org/2000/svg" viewBox="0 0 512 512"><g id="logo"><circle cx="256" cy="256" r="256" fill="#fff"/><path d="m405.54021,221.50466v-68.939h-34.52123v-34.59879h-69.01655v-34.49535h-69.01657v34.49535h-68.99071v34.59879h-34.52121v206.86869h34.49535v34.52123h69.01656v34.49534h68.99071v-34.41777h69.04242v-34.5988h34.52123v-68.939h-69.01657v34.52121h-34.52121v34.41779h-69.01657v-34.41777h-34.49534v-138.03314h34.49534v-34.41777h69.01657v34.41777h34.52121v34.52123h69.01657Z" fill="#3a3a3a"/><rect x="313.50949" y="187.00929" width="23.01415" height="34.49536" fill="#1682fe"/><rect x="278.98828" y="152.48808" width="23.01415" height="34.49534" fill="#1682fe"/><rect x="209.99757" y="83.47151" width="23.01415" height="34.49535" fill="#1682fe"/><rect x="302.02829" y="290.52121" width="34.4695" height="34.52121" fill="#ff5a5a"/><rect x="279.01415" y="325.01657" width="23.01415" height="34.49534" fill="#ff5a5a"/><rect x="209.97171" y="394.03314" width="23.01415" height="34.49534" fill="#ff5a5a"/><rect x="140.95515" y="359.51192" width="23.01414" height="34.49534" fill="#f4bb3b"/><rect x="106.45979" y="256" width="23.01415" height="103.51192" fill="#f4bb3b"/><rect x="106.45979" y="152.48808" width="23.01415" height="103.51192" fill="#60d8a4"/><rect x="140.98101" y="117.99273" width="23.01414" height="34.49535" fill="#1682fe"/></g></svg>