<?xml version="1.0" encoding="UTF-8" standalone="no"?>
<svg
   viewBox="0 0 309.99999 310"
   version="1.1"
   id="svg37"
   sodipodi:docname="CYS.svg"
   width="310"
   height="310"
   inkscape:version="1.1.1 (3bf5ae0d25, 2021-09-20)"
   xmlns:inkscape="http://www.inkscape.org/namespaces/inkscape"
   xmlns:sodipodi="http://sodipodi.sourceforge.net/DTD/sodipodi-0.dtd"
   xmlns="http://www.w3.org/2000/svg"
   xmlns:svg="http://www.w3.org/2000/svg">
  <defs
     id="defs41" />
  <sodipodi:namedview
     id="namedview39"
     pagecolor="#ffffff"
     bordercolor="#666666"
     borderopacity="1.0"
     inkscape:pageshadow="2"
     inkscape:pageopacity="0.0"
     inkscape:pagecheckerboard="0"
     showgrid="false"
     inkscape:zoom="1.4080645"
     inkscape:cx="329.17526"
     inkscape:cy="298.63688"
     inkscape:window-width="2048"
     inkscape:window-height="1089"
     inkscape:window-x="2552"
     inkscape:window-y="-8"
     inkscape:window-maximized="1"
     inkscape:current-layer="svg37" />
  <linearGradient
     id="A"
     gradientUnits="userSpaceOnUse"
     x1="169.269"
     y1="244.13499"
     x2="293.70901"
     y2="244.13499">
    <stop
       offset="0"
       stop-color="#92ffc0"
       id="stop2" />
    <stop
       offset="1"
       stop-color="#4ca0a2"
       id="stop4" />
  </linearGradient>
  <circle
     style="fill:#ffffff;stroke-width:62.079"
     id="path880"
     cx="155"
     cy="155"
     r="155" />
  <linearGradient
     id="B"
     gradientUnits="userSpaceOnUse"
     x1="107.509"
     y1="43.700001"
     x2="270.327"
     y2="43.700001">
    <stop
       offset="0"
       stop-color="#4ca0a2"
       id="stop9" />
    <stop
       offset="1"
       stop-color="#92ffc0"
       id="stop11" />
  </linearGradient>
  <linearGradient
     id="C"
     gradientUnits="userSpaceOnUse"
     x1="31.879"
     y1="253.964"
     x2="206.60899"
     y2="253.964">
    <stop
       offset="0"
       stop-color="#00becf"
       id="stop16" />
    <stop
       offset="1"
       stop-color="#92ffc0"
       id="stop18" />
  </linearGradient>
  <linearGradient
     id="D"
     gradientUnits="userSpaceOnUse"
     x1="-8.6719999"
     y1="149.37801"
     x2="130.772"
     y2="9.9329996">
    <stop
       offset="0"
       stop-color="#f252ed"
       id="stop23" />
    <stop
       offset="1"
       stop-color="#4ca0a2"
       id="stop25" />
  </linearGradient>
  <linearGradient
     id="E"
     gradientUnits="userSpaceOnUse"
     x1="0.23899999"
     y1="182.64799"
     x2="147.55901"
     y2="182.64799">
    <stop
       offset="0"
       stop-color="#511280"
       id="stop30" />
    <stop
       offset="1"
       stop-color="#81ffef"
       id="stop32" />
  </linearGradient>
  <g
     id="g967"
     transform="matrix(1.0553271,0,0,0.99998381,0.04748971,0.10085035)">
    <path
       d="m 276.1,190.5 c 21.1,18.1 23.6,49.9 5.5,71.1 -1.7,2 -3.6,3.9 -5.5,5.5 l -2.8,2.4 c -13.6,11.5 -28.9,20.8 -45.1,27.5 -16.2,6.7 -33.3,10.9 -50.5,12.3 l -8.3,0.5 c 22.9,-20.9 37.3,-51 37.3,-84.4 0,-9.5 -1.1,-18.7 -3.3,-27.4 0.6,-0.6 1.2,-1.3 1.7,-1.9 18,-21.2 49.8,-23.7 71,-5.6 z"
       fill="url(#A)"
       id="path7"
       style="fill:url(#A)" />
    <path
       d="m 269.2,72.5 c 2.6,4.9 0.7,11.1 -4.2,13.7 -4.5,2.4 -10.1,1 -13,-3.1 L 251.9,83 C 238.4,64 219.3,49.8 198.2,42.5 c -13.1,-4.6 -26.9,-6.4 -40.4,-5.7 -13.9,-14.1 -31,-25 -50.2,-31.3 6,-1.7 12.1,-3 18.2,-4 14.5,-2.2 29.3,-2.1 43.6,0.1 7.1,1.2 14.2,2.8 21,5 6.8,2.2 13.5,5 19.8,8.2 25.5,12.8 46.2,33.5 59,57.7 z"
       fill="url(#B)"
       id="path14"
       style="fill:url(#B)" />
    <path
       d="m 203.3,198 c 2.2,8.8 3.3,18 3.3,27.4 0,33.5 -14.4,63.6 -37.3,84.4 -14.4,0.5 -28.8,-0.8 -42.8,-3.9 -16.6,-3.7 -32.6,-10.1 -47.1,-18.5 -3.7,-2.1 -7.1,-4.4 -10.6,-6.8 -3.4,-2.5 -6.8,-4.9 -10,-7.6 -3.3,-2.6 -6.3,-5.4 -9.4,-8.2 -3,-2.9 -5.9,-5.9 -8.6,-9 -3.1,-3.5 -6.1,-7.1 -8.9,-10.8 11.5,3.5 23.6,5.3 36.2,5.3 30.1,0 57.8,-10.6 79.4,-28.3 6.1,0 12.1,-0.8 17.9,-2.2 15,-3.5 28.2,-11.3 37.9,-21.8 z"
       fill="url(#C)"
       id="path21"
       style="fill:url(#C)" />
    <path
       d="m 107.5,5.6 c 19.2,6.3 36.4,17.2 50.2,31.3 A 98.88,98.88 0 0 0 134,41 C 113.5,47 95.4,59.1 82.9,75 73.5,86.8 67.1,100.6 64.2,114.9 38.1,121.6 15.6,137.2 0.2,158.3 -0.5,145.9 0.3,133.4 2.6,121.2 8.4,90.1 24.1,61.6 46.2,40.6 63.8,23.9 85,12 107.5,5.6 Z"
       fill="url(#D)"
       id="path28"
       style="fill:url(#D)" />
    <path
       d="m 116.4,216.3 c 10.1,4 20.7,5.9 31.1,5.8 -21.6,17.7 -49.3,28.3 -79.4,28.3 -12.6,0 -24.8,-1.9 -36.2,-5.3 -7.1,-9.4 -13,-19.6 -17.8,-30.2 C 6,196.9 1.3,177.6 0.3,158.3 c 15.4,-21.1 37.9,-36.8 64,-43.4 a 88.58,88.58 0 0 0 -1.8,14.4 c -0.9,19.1 4.3,38.1 14.1,53.6 9.8,15.4 23.9,27 39.8,33.4 z"
       fill="url(#E)"
       id="path35"
       style="fill:url(#E)" />
  </g>
</svg>
