<?xml version="1.0" encoding="utf-8"?>
<!-- Generator: Adobe Illustrator 22.0.0, SVG Export Plug-In . SVG Version: 6.00 Build 0)  -->
<svg version="1.1" id="DAI" xmlns="http://www.w3.org/2000/svg" xmlns:xlink="http://www.w3.org/1999/xlink" x="0px" y="0px"
	 viewBox="0 0 490 490" style="enable-background:new 0 0 490 490;" xml:space="preserve">
<style type="text/css">
	.st0{fill:#FAB62D;}
	.st1{fill:#FFFFFF;}
</style>
<path id="Full" class="st0" d="M0,245c0,135.1,109.9,245,245,245s245-109.9,245-245S380.1,0,245,0S0,109.9,0,245z"/>
<path id="DAI-2" class="st1" d="M377.9,205.7h-28.6c-15.7-43.7-58-73.7-113.8-73.7h-91.7v73.7H112v26.4h31.9v27.7H112v26.4h31.9V359
	h91.7c55.1,0,97.1-29.7,113.2-72.8h29.1v-26.4h-22.7c0.6-4.7,0.9-9.5,0.9-14.3v-0.6c0-4.3-0.2-8.6-0.6-12.8H378L377.9,205.7
	L377.9,205.7L377.9,205.7z M169.5,155.5h66c40.9,0,71.3,20.2,85.4,50H169.5V155.5L169.5,155.5z M235.6,335.2h-66v-49.1h151.3
	C306.7,315.5,276.3,335.2,235.6,335.2L235.6,335.2z M329.5,246.1c0,4.6-0.3,9.1-1,13.7h-159V232h159.1c0.6,4.4,0.9,8.9,0.9,13.4
	V246.1L329.5,246.1z"/>
</svg>
