<?xml version="1.0" encoding="UTF-8" standalone="no"?>
<svg
   xmlns:dc="http://purl.org/dc/elements/1.1/"
   xmlns:cc="http://creativecommons.org/ns#"
   xmlns:rdf="http://www.w3.org/1999/02/22-rdf-syntax-ns#"
   xmlns:svg="http://www.w3.org/2000/svg"
   xmlns="http://www.w3.org/2000/svg"
   xmlns:sodipodi="http://sodipodi.sourceforge.net/DTD/sodipodi-0.dtd"
   xmlns:inkscape="http://www.inkscape.org/namespaces/inkscape"
   width="236"
   height="236"
   shape-rendering="geometricPrecision"
   image-rendering="optimizeQuality"
   fill-rule="evenodd"
   version="1.1"
   id="svg10"
   sodipodi:docname="DAI_BEP20.svg"
   inkscape:version="1.0.2-2 (e86c870879, 2021-01-15)">
  <metadata
     id="metadata9">
    <rdf:RDF>
      <cc:Work
         rdf:about="">
        <dc:format>image/svg+xml</dc:format>
        <dc:type
           rdf:resource="http://purl.org/dc/dcmitype/StillImage" />
      </cc:Work>
    </rdf:RDF>
  </metadata>
  <defs
     id="defs14" />
  <sodipodi:namedview
     id="namedview12"
     pagecolor="#ffffff"
     bordercolor="#666666"
     borderopacity="1.0"
     inkscape:pageshadow="2"
     inkscape:pageopacity="0.0"
     inkscape:pagecheckerboard="0"
     showgrid="false"
     inkscape:zoom="3.4101562"
     inkscape:cx="118"
     inkscape:cy="118"
     inkscape:window-width="1920"
     inkscape:window-height="1017"
     inkscape:window-x="-8"
     inkscape:window-y="-8"
     inkscape:window-maximized="1"
     inkscape:current-layer="svg10"
     inkscape:document-rotation="0" />
  <g
     fill-rule="nonzero"
     id="g6"
     transform="translate(-10,-10)">
    <path
       fill="#f5ac37"
       d="m 128,10 c 65.176,0 118,52.835 118,118 0,65.176 -52.824,118 -118,118 C 62.835,246 10,193.17 10,128 10,62.835 62.835,10 128,10 Z"
       id="path2" />
    <path
       fill="#fefefd"
       d="m 132.349,136.331 h 44.838 c 0.956,0 1.407,0 1.476,-1.253 a 85.71,85.71 0 0 0 0,-13.716 c 0,-0.887 -0.441,-1.253 -1.402,-1.253 H 88.026 c -1.104,0 -1.402,0.366 -1.402,1.402 v 13.126 c 0,1.694 0,1.694 1.768,1.694 z m 41.307,-31.563 c 0.127,-0.335 0.127,-0.701 0,-1.03 -0.749,-1.63 -1.635,-3.186 -2.666,-4.646 -1.551,-2.496 -3.377,-4.795 -5.459,-6.861 -0.982,-1.248 -2.119,-2.368 -3.393,-3.319 a 53.01,53.01 0 0 0 -22.127,-11.21 c -4.115,-0.924 -8.321,-1.365 -12.537,-1.328 H 87.872 c -1.104,0 -1.253,0.441 -1.253,1.402 v 26.179 c 0,1.104 0,1.402 1.402,1.402 h 85.104 c 0,0 0.738,-0.149 0.887,-0.589 h -0.361 z m 0,46.904 a 17.21,17.21 0 0 0 -3.77,0 H 88.1 c -1.104,0 -1.476,0 -1.476,1.476 v 25.594 c 0,1.179 0,1.476 1.476,1.476 h 37.76 a 18.86,18.86 0 0 0 5.379,-0.366 56.21,56.21 0 0 0 16.01,-3.542 c 1.869,-0.648 3.675,-1.492 5.379,-2.506 h 0.515 c 8.852,-4.604 16.042,-11.836 20.576,-20.715 0,0 0.515,-1.115 -0.064,-1.407 z M 71.804,193.489 v -0.441 -17.183 -5.825 -17.332 c 0,-0.961 0,-1.104 -1.179,-1.104 H 54.62 c -0.887,0 -1.253,0 -1.253,-1.179 v -14.013 h 17.109 c 0.956,0 1.328,0 1.328,-1.253 v -13.865 c 0,-0.887 0,-1.104 -1.179,-1.104 H 54.62 c -0.887,0 -1.253,0 -1.253,-1.179 v -12.978 c 0,-0.812 0,-1.03 1.179,-1.03 h 15.856 c 1.104,0 1.402,0 1.402,-1.402 V 63.849 c 0,-1.179 0,-1.476 1.476,-1.476 h 55.309 a 84.27,84.27 0 0 1 11.948,1.328 c 8.13,1.503 15.941,4.407 23.083,8.554 a 65.05,65.05 0 0 1 12.978,10.031 c 2.921,3.032 5.554,6.314 7.891,9.808 a 59.15,59.15 0 0 1 5.761,11.284 1.92,1.92 0 0 0 2.204,1.551 h 13.201 c 1.694,0 1.694,0 1.768,1.625 v 12.096 c 0,1.179 -0.441,1.476 -1.625,1.476 h -10.179 c -1.03,0 -1.328,0 -1.253,1.328 a 75.34,75.34 0 0 1 0,13.493 c 0,1.253 0,1.402 1.407,1.402 h 11.645 c 0.515,0.664 0,1.328 0,1.997 a 14.9,14.9 0 0 1 0,2.575 v 8.926 c 0,1.253 -0.366,1.625 -1.476,1.625 h -13.939 c -0.972,-0.186 -1.917,0.435 -2.14,1.402 -3.319,8.629 -8.629,16.366 -15.489,22.568 a 88.83,88.83 0 0 1 -7.891,6.34 c -2.952,1.699 -5.825,3.467 -8.852,4.869 a 79.74,79.74 0 0 1 -17.406,5.528 c -5.692,1.02 -11.464,1.482 -17.258,1.402 H 71.782 v -0.074 z"
       id="path4" />
  </g>
</svg>
