<svg xmlns="http://www.w3.org/2000/svg" width="256" height="256" shape-rendering="geometricPrecision" image-rendering="optimizeQuality" fill-rule="evenodd" xmlns:v="https://vecta.io/nano"><g fill-rule="nonzero"><path fill="#f5ac37" d="M128 10c65.176 0 118 52.835 118 118 0 65.176-52.824 118-118 118-65.165 0-118-52.83-118-118C10 62.835 62.835 10 128 10z"/><path fill="#fefefd" d="M132.349 136.331h44.838c.956 0 1.407 0 1.476-1.253a85.71 85.71 0 0 0 0-13.716c0-.887-.441-1.253-1.402-1.253H88.026c-1.104 0-1.402.366-1.402 1.402v13.126c0 1.694 0 1.694 1.768 1.694zm41.307-31.563c.127-.335.127-.701 0-1.03-.749-1.63-1.635-3.186-2.666-4.646-1.551-2.496-3.377-4.795-5.459-6.861-.982-1.248-2.119-2.368-3.393-3.319a53.01 53.01 0 0 0-22.127-11.21c-4.115-.924-8.321-1.365-12.537-1.328H87.872c-1.104 0-1.253.441-1.253 1.402v26.179c0 1.104 0 1.402 1.402 1.402h85.104s.738-.149.887-.589h-.361zm0 46.904a17.21 17.21 0 0 0-3.77 0H88.1c-1.104 0-1.476 0-1.476 1.476v25.594c0 1.179 0 1.476 1.476 1.476h37.76a18.86 18.86 0 0 0 5.379-.366 56.21 56.21 0 0 0 16.01-3.542c1.869-.648 3.675-1.492 5.379-2.506h.515c8.852-4.604 16.042-11.836 20.576-20.715 0 0 .515-1.115-.064-1.407zM71.804 193.489v-.441-17.183-5.825-17.332c0-.961 0-1.104-1.179-1.104H54.62c-.887 0-1.253 0-1.253-1.179v-14.013h17.109c.956 0 1.328 0 1.328-1.253v-13.865c0-.887 0-1.104-1.179-1.104H54.62c-.887 0-1.253 0-1.253-1.179v-12.978c0-.812 0-1.03 1.179-1.03h15.856c1.104 0 1.402 0 1.402-1.402V63.849c0-1.179 0-1.476 1.476-1.476h55.309a84.27 84.27 0 0 1 11.948 1.328c8.13 1.503 15.941 4.407 23.083 8.554a65.05 65.05 0 0 1 12.978 10.031c2.921 3.032 5.554 6.314 7.891 9.808a59.15 59.15 0 0 1 5.761 11.284 1.92 1.92 0 0 0 2.204 1.551h13.201c1.694 0 1.694 0 1.768 1.625v12.096c0 1.179-.441 1.476-1.625 1.476h-10.179c-1.03 0-1.328 0-1.253 1.328a75.34 75.34 0 0 1 0 13.493c0 1.253 0 1.402 1.407 1.402h11.645c.515.664 0 1.328 0 1.997a14.9 14.9 0 0 1 0 2.575v8.926c0 1.253-.366 1.625-1.476 1.625h-13.939c-.972-.186-1.917.435-2.14 1.402-3.319 8.629-8.629 16.366-15.489 22.568a88.83 88.83 0 0 1-7.891 6.34c-2.952 1.699-5.825 3.467-8.852 4.869a79.74 79.74 0 0 1-17.406 5.528c-5.692 1.02-11.464 1.482-17.258 1.402H71.782v-.074z"/></g><path d="M128 11.485C63.753 11.485 11.485 63.753 11.485 128S63.753 244.515 128 244.515 244.515 192.247 244.515 128 192.247 11.485 128 11.485M128 0c70.527 0 128 57.468 128 128s-57.468 128-128 128S0 198.53 0 128 57.473 0 128 0z" fill="#474747"/></svg>