<?xml version="1.0" encoding="utf-8"?>
<!-- Generator: Adobe Illustrator 22.0.0, SVG Export Plug-In . SVG Version: 6.00 Build 0)  -->
<svg version="1.1" id="DASH" xmlns="http://www.w3.org/2000/svg" xmlns:xlink="http://www.w3.org/1999/xlink" x="0px" y="0px"
	 viewBox="0 0 245 245" style="enable-background:new 0 0 245 245;" xml:space="preserve">
<style type="text/css">
	.st0{fill:#008DE4;}
	.st1{fill:#FFFFFF;}
</style>
<path id="Main-F" class="st0" d="M0,122.5C0,190,55,245,122.5,245S245,190,245,122.5S190,0,122.5,0S0,55,0,122.5z"/>
<path id="D" class="st1" d="M54.5,133.5c2.1-9,3.1-22.5,16.5-22.5h50.5c-0.3,7.4-0.9,22.5-16.5,22.5H54.5z M89,91l4-22.5h48.5
	c2.1,0,45.5-3.6,45.5,38c-1,36.3-16.2,69.5-60.5,69.5H74l4-22.5h47c34.4,0,34.4-35.6,35-42.5c0-7.9-3.3-20-27-20H89z"/>
</svg>
