<svg id="DASH" xmlns="http://www.w3.org/2000/svg" width="256" height="256" viewBox="0 0 512 512">
<defs>
    <style>
      .cls-1 {
        fill: #008de4;
      }

      .cls-1, .cls-2 {
        fill-rule: evenodd;
      }

      .cls-2 {
        fill: #fff;
      }
    </style>
  </defs>
  <path id="Main-F" class="cls-1" d="M11,256c0,135.094,109.906,245,245,245S501,391.094,501,256,391.094,11,256,11,11,120.906,11,256Z"/>
  <path id="D" class="cls-2" d="M120,278c4.222-17.944,6.181-45,33-45H254c-0.511,14.886-1.834,45-33,45H120Zm69-85,8-45h97c4.25,0,91-7.172,91,76-1.974,72.533-32.307,139-121,139H159l8-45h94c68.7,0,68.732-71.286,70-85,0-15.854-6.66-40-54-40H189Z"/>
</svg>
