<svg id="DATA" xmlns="http://www.w3.org/2000/svg" width="512" height="512" viewBox="0 0 512 512">
<defs>
    <style>
      .cls-1 {
        fill: #ff5c00;
      }

      .cls-1, .cls-2 {
        fill-rule: evenodd;
      }

      .cls-2 {
        fill: #fff;
      }
    </style>
  </defs>
  <path id="Full" class="cls-1" d="M11,256c0,135.094,109.906,245,245,245S501,391.094,501,256,391.094,11,256,11,11,120.906,11,256Z"/>
  <path id="DATA-2" data-name="DATA" class="cls-2" d="M297.856,104.328V94.692a5.8,5.8,0,0,0-6.055-5.8A125.47,125.47,0,0,0,172.487,209.064a5.108,5.108,0,0,0,5.367,5.132h9.788a5.811,5.811,0,0,0,5.8-5.523,104.563,104.563,0,0,1,99.035-98.885c4.075-.523,5.382-2.749,5.382-5.46M209.751,214.2h9.367a5.778,5.778,0,0,0,5.742-5.4,73.2,73.2,0,0,1,68.078-67.616,5.242,5.242,0,0,0,4.918-5.536v-9.536a5.823,5.823,0,0,0-6.222-5.8,94.11,94.11,0,0,0-87.68,87.668,5.822,5.822,0,0,0,5.8,6.219m88.1-56.625v9.581a5.619,5.619,0,0,1-5.064,5.531,41.838,41.838,0,0,0-36.443,36.339,5.84,5.84,0,0,1-5.774,5.174h-9.354a5.788,5.788,0,0,1-5.786-6.322,62.753,62.753,0,0,1,56.1-56.09A5.791,5.791,0,0,1,297.856,157.571Zm109.81,139.988c-2.71,0-4.937-1.307-5.46-5.379a104.563,104.563,0,0,0-98.9-99.022,5.812,5.812,0,0,1-5.525-5.8v-9.787a5.109,5.109,0,0,1,5.132-5.366,125.473,125.473,0,0,1,120.2,119.3,5.8,5.8,0,0,1-5.806,6.054h-9.638ZM297.782,209.468a5.822,5.822,0,0,1,6.221-5.8,94.111,94.111,0,0,1,87.68,87.668,5.822,5.822,0,0,1-5.8,6.22h-9.538a5.241,5.241,0,0,1-5.536-4.917,73.2,73.2,0,0,0-67.626-68.068,5.779,5.779,0,0,1-5.4-5.74v-9.366Zm56.634,88.091h-9.583A5.618,5.618,0,0,1,339.3,292.5a41.839,41.839,0,0,0-36.344-36.437,5.842,5.842,0,0,1-5.176-5.774v-9.352a5.791,5.791,0,0,1,6.323-5.787,62.752,62.752,0,0,1,56.1,56.091A5.788,5.788,0,0,1,354.416,297.559ZM104.33,214.171c2.711,0,4.938,1.307,5.461,5.381a104.562,104.562,0,0,0,98.9,99.02,5.813,5.813,0,0,1,5.525,5.8v9.787a5.108,5.108,0,0,1-5.132,5.366,125.472,125.472,0,0,1-120.2-119.3,5.8,5.8,0,0,1,5.807-6.054h9.636Zm109.885,88.092a5.823,5.823,0,0,1-6.221,5.8,94.112,94.112,0,0,1-87.68-87.668,5.822,5.822,0,0,1,5.8-6.221h9.538a5.243,5.243,0,0,1,5.536,4.917,73.2,73.2,0,0,0,67.626,68.069,5.778,5.778,0,0,1,5.4,5.74v9.366Zm-56.634-88.092h9.582a5.619,5.619,0,0,1,5.532,5.064,41.844,41.844,0,0,0,36.344,36.438,5.839,5.839,0,0,1,5.176,5.772V270.8a5.791,5.791,0,0,1-6.323,5.786,62.755,62.755,0,0,1-56.1-56.091A5.789,5.789,0,0,1,157.581,214.171Zm56.657,193.5c0-2.711,1.307-4.938,5.381-5.461a104.56,104.56,0,0,0,99.035-98.883,5.812,5.812,0,0,1,5.8-5.525h9.788a5.109,5.109,0,0,1,5.367,5.132A125.471,125.471,0,0,1,220.293,423.11a5.8,5.8,0,0,1-6.055-5.806v-9.635Zm88.1-109.869a5.821,5.821,0,0,1,5.8,6.22,94.109,94.109,0,0,1-87.68,87.667,5.821,5.821,0,0,1-6.221-5.8v-9.537a5.24,5.24,0,0,1,4.918-5.535A73.2,73.2,0,0,0,287.234,303.2a5.778,5.778,0,0,1,5.741-5.4h9.367Zm-88.1,56.626v-9.581a5.62,5.62,0,0,1,5.064-5.531,41.836,41.836,0,0,0,36.443-36.339,5.843,5.843,0,0,1,5.774-5.175h9.354a5.789,5.789,0,0,1,5.787,6.322,62.75,62.75,0,0,1-56.1,56.09,5.79,5.79,0,0,1-6.323-5.786h0Z"/>
</svg>
