<?xml version="1.0" encoding="utf-8"?>
<!-- Generator: Adobe Illustrator 22.0.0, SVG Export Plug-In . SVG Version: 6.00 Build 0)  -->
<svg version="1.1" id="DATA" xmlns="http://www.w3.org/2000/svg" xmlns:xlink="http://www.w3.org/1999/xlink" x="0px" y="0px"
	 viewBox="0 0 490 490" style="enable-background:new 0 0 490 490;" xml:space="preserve">
<style type="text/css">
	.st0{fill:#FF5C00;}
	.st1{fill:#FFFFFF;}
</style>
<path id="Full" class="st0" d="M0,245c0,135.1,109.9,245,245,245s245-109.9,245-245S380.1,0,245,0S0,109.9,0,245z"/>
<path id="DATA-2" class="st1" d="M286.9,93.3v-9.6c0-3.2-2.6-5.8-5.8-5.8c-0.1,0-0.2,0-0.3,0c-64.9,3.1-116.6,55.3-119.3,120.2
	c0,2.8,2.3,5.1,5.1,5.1c0.1,0,0.2,0,0.3,0h9.8c3.1,0,5.6-2.4,5.8-5.5c2.8-53.5,45.6-96.1,99-98.9C285.6,98.3,286.9,96,286.9,93.3
	 M198.8,203.2h9.4c3,0,5.5-2.4,5.7-5.4c2.7-36.3,31.7-65.2,68.1-67.6c2.9-0.2,5.1-2.7,4.9-5.5v-9.5c0-3.2-2.6-5.8-5.8-5.8
	c-0.1,0-0.3,0-0.4,0c-47.1,3.1-84.6,40.6-87.7,87.7c-0.2,3.2,2.2,6,5.4,6.2C198.5,203.2,198.6,203.2,198.8,203.2 M286.9,146.6v9.6
	c0,2.9-2.2,5.2-5.1,5.5c-19,2.3-34.1,17.3-36.4,36.3c-0.3,2.9-2.8,5.2-5.8,5.2h-9.4c-3.2,0-5.8-2.6-5.8-5.8c0-0.2,0-0.4,0-0.6
	c3-29.6,26.5-53.1,56.1-56.1c3.2-0.3,6,2,6.3,5.2C286.8,146.2,286.9,146.4,286.9,146.6L286.9,146.6z M396.7,286.6
	c-2.7,0-4.9-1.3-5.5-5.4c-2.8-53.5-45.4-96.2-98.9-99c-3.1-0.2-5.5-2.7-5.5-5.8v-9.8c-0.1-2.8,2-5.2,4.8-5.4c0.1,0,0.2,0,0.3,0
	c64.9,2.7,117.1,54.4,120.2,119.3c0.1,3.2-2.3,5.9-5.5,6c-0.1,0-0.2,0-0.3,0L396.7,286.6L396.7,286.6z M286.8,198.5
	c0-3.2,2.6-5.8,5.8-5.8c0.1,0,0.3,0,0.4,0c47.1,3.1,84.6,40.6,87.7,87.7c0.2,3.2-2.2,6-5.4,6.2c-0.1,0-0.3,0-0.4,0h-9.5
	c-2.9,0.2-5.4-2-5.5-4.9c-2.5-36.4-31.3-65.4-67.6-68.1c-3-0.2-5.4-2.7-5.4-5.7L286.8,198.5L286.8,198.5z M343.4,286.6h-9.6
	c-2.9,0-5.2-2.2-5.5-5.1c-2.3-19-17.3-34.1-36.3-36.4c-2.9-0.3-5.2-2.8-5.2-5.8v-9.4c0-3.2,2.6-5.8,5.8-5.8c0.2,0,0.4,0,0.6,0
	c29.6,3,53.1,26.4,56.1,56.1c0.3,3.2-2.1,6-5.2,6.3C343.8,286.6,343.6,286.6,343.4,286.6L343.4,286.6z M93.3,203.2
	c2.7,0,4.9,1.3,5.5,5.4c2.8,53.5,45.4,96.2,98.9,99c3.1,0.2,5.5,2.7,5.5,5.8v9.8c0.1,2.8-2,5.2-4.8,5.4c-0.1,0-0.2,0-0.3,0
	C133.2,325.9,81,274.1,77.9,209.2c-0.1-3.2,2.3-5.9,5.5-6c0.1,0,0.2,0,0.3,0L93.3,203.2L93.3,203.2z M203.2,291.3
	c0,3.2-2.6,5.8-5.8,5.8c-0.1,0-0.3,0-0.4,0c-47.1-3.1-84.6-40.6-87.7-87.7c-0.2-3.2,2.2-6,5.4-6.2c0.1,0,0.3,0,0.4,0h9.5
	c2.9-0.2,5.4,2,5.5,4.9c2.5,36.4,31.3,65.4,67.6,68.1c3,0.2,5.4,2.7,5.4,5.7L203.2,291.3L203.2,291.3z M146.6,203.2h9.6
	c2.9,0,5.2,2.2,5.5,5.1c2.3,19,17.3,34.1,36.3,36.4c2.9,0.3,5.2,2.8,5.2,5.8v9.4c0,3.2-2.6,5.8-5.8,5.8c-0.2,0-0.4,0-0.6,0
	c-29.6-3-53.1-26.4-56.1-56.1c-0.3-3.2,2-6,5.2-6.3C146.2,203.2,146.4,203.2,146.6,203.2L146.6,203.2z M203.2,396.7
	c0-2.7,1.3-4.9,5.4-5.5c53.5-2.8,96.2-45.4,99-98.9c0.2-3.1,2.7-5.5,5.8-5.5h9.8c2.8-0.1,5.2,2,5.4,4.8c0,0.1,0,0.2,0,0.3
	c-2.7,64.9-54.4,117-119.3,120.2c-3.2,0.1-5.9-2.3-6-5.5c0-0.1,0-0.2,0-0.3L203.2,396.7L203.2,396.7z M291.3,286.8
	c3.2,0,5.8,2.6,5.8,5.8c0,0.1,0,0.3,0,0.4c-3.1,47.1-40.6,84.5-87.7,87.7c-3.2,0.2-6-2.2-6.2-5.4c0-0.1,0-0.3,0-0.4v-9.5
	c-0.2-2.9,2-5.4,4.9-5.5c36.4-2.4,65.4-31.3,68.1-67.6c0.2-3,2.7-5.4,5.7-5.4L291.3,286.8L291.3,286.8z M203.2,343.4v-9.6
	c0-2.9,2.2-5.2,5.1-5.5c19-2.3,34.1-17.3,36.4-36.3c0.3-2.9,2.8-5.2,5.8-5.2h9.4c3.2,0,5.8,2.6,5.8,5.8c0,0.2,0,0.4,0,0.6
	c-3,29.6-26.5,53.1-56.1,56.1c-3.2,0.3-6-2-6.3-5.2C203.2,343.8,203.2,343.6,203.2,343.4L203.2,343.4L203.2,343.4z"/>
</svg>
