<svg id="Dentacoin" xmlns="http://www.w3.org/2000/svg" width="256" height="256" viewBox="0 0 512 512">
  <defs>
    <style>
      .cls-1 {
        fill: #041e42;
      }

      .cls-1, .cls-2 {
        fill-rule: evenodd;
      }

      .cls-2 {
        fill: #fff;
      }
    </style>
  </defs>
  <path id="Full" class="cls-1" d="M11,256c0,135.094,109.906,245,245,245S501,391.094,501,256,391.094,11,256,11,11,120.906,11,256Z"/>
  <path id="Dentacoin-2" data-name="Dentacoin" class="cls-2" d="M256,76.813,256,88c-9.367,36.36-60.568,210.522-122,290,20.827,24.1,53.7,37.309,61,40,35.71-89,53.755-157.2,61-162,6.919,4.49,35.3,121.128,56,164,37.249-13.383,57.868-32.685,64-39C302.365,283.018,266.105,124.073,256,88Z"/>
</svg>
