<?xml version="1.0" encoding="utf-8"?>
<!-- Generator: Adobe Illustrator 22.0.0, SVG Export Plug-In . SVG Version: 6.00 Build 0)  -->
<svg version="1.1" id="Dentacoin" xmlns="http://www.w3.org/2000/svg" xmlns:xlink="http://www.w3.org/1999/xlink" x="0px" y="0px"
	 viewBox="0 0 245 245" style="enable-background:new 0 0 245 245;" xml:space="preserve">
<style type="text/css">
	.st0{fill:#041E42;}
	.st1{fill:#FFFFFF;}
</style>
<path id="Full" class="st0" d="M0,122.5C0,190,55,245,122.5,245S245,190,245,122.5S190,0,122.5,0S0,55,0,122.5z"/>
<path id="Dentacoin-2" class="st1" d="M122.5,32.9v5.6c-4.7,18.2-30.3,105.3-61,145c10.4,12.1,26.8,18.7,30.5,20
	c17.9-44.5,26.9-78.6,30.5-81c3.5,2.2,17.6,60.6,28,82c18.6-6.7,28.9-16.3,32-19.5c-36.8-49-54.9-128.5-60-146.5V32.9z"/>
</svg>
