<svg id="Decentraland" xmlns="http://www.w3.org/2000/svg" width="256" height="256" viewBox="0 0 512 512">
<defs>
    <style>
      .cls-1 {
        fill: #bfb5af;
      }

      .cls-1, .cls-3, .cls-4, .cls-5, .cls-6 {
        fill-rule: evenodd;
      }

      .cls-2, .cls-3, .cls-4, .cls-5, .cls-6 {
        fill: none;
        stroke: #fff;
        stroke-width: 14px;
      }

      .cls-2, .cls-4, .cls-6 {
        stroke-linecap: round;
      }

      .cls-2, .cls-4 {
        stroke-linejoin: round;
      }

      .cls-5 {
        stroke-linecap: square;
      }
    </style>
  </defs>
  <path id="Main" class="cls-1" d="M11,256c0,135.094,109.906,245,245,245S501,391.094,501,256,391.094,11,256,11,11,120.906,11,256Z"/>
  <g id="Decentraland-2" data-name="Decentraland">
    <circle id="Main-2" data-name="Main" class="cls-2" cx="256" cy="256" r="172"/>
    <circle id="Round1" class="cls-2" cx="189" cy="163" r="34"/>
    <path id="Mountain1" class="cls-3" d="M84,260h20l26-47h30l16,51,34-8,18,10"/>
    <path id="Mountain2" class="cls-3" d="M205,296l43-55,27,12,21-13,33-36,14,18,9-6h5l24,32,16-3,26,30"/>
    <path id="Round2" class="cls-3" d="M301,235a54,54,0,1,1,39.292-16.957"/>
    <path id="Ground" class="cls-4" d="M92,307s7.552,0.009,19.22.3m24.643,0.9c2.634,0.126,5.328.265,8.066,0.42m25.749,1.857C204.483,313.62,237.865,319.605,238,331c-4.585,22.772-33.143,22.253-36,42,9.825,16.014,77.269,12.859,132,36"/>
    <path id="Tree" class="cls-5" d="M110,305c8.753,7.408,21.721,6.918,29,0-2.6-8.832-14-42-14-42S113.116,296.193,110,305Z"/>
    <path id="Tree2" class="cls-5" d="M140,318c8.753,7.408,21.721,6.918,29,0-2.6-8.832-14-42-14-42S143.116,309.193,140,318Z"/>
    <path id="Bush" class="cls-6" d="M256,346c0-23.95,31.252-24.954,34-29,2.619,4.066,34,5.5,34,29C320.352,359.708,261.205,361.01,256,346Z"/>
    <path id="Bush2" class="cls-6" d="M326,305c0-23.95,31.252-24.954,34-29,2.619,4.066,34,5.5,34,29C390.352,318.708,331.205,320.01,326,305Z"/>
    <path id="Bush3" class="cls-6" d="M290,269c0-23.95,31.252-24.954,34-29,2.619,4.066,34,5.5,34,29C354.352,282.708,295.205,284.01,290,269Z"/>
    <path id="Stick" class="cls-4" d="M359,350V330s-0.967-9.3-12-15c-6.491,0,29.593.129,23,0-10.419,5.671-11,15-11,15"/>
    <path id="Stick2" class="cls-4" d="M324,340V294s-0.967-9.3-12-15c-6.491,0,29.593.129,23,0-10.419,5.671-11,15-11,15"/>
  </g>
</svg>
