<?xml version="1.0" encoding="utf-8"?>
<!-- Generator: Adobe Illustrator 22.0.0, SVG Export Plug-In . SVG Version: 6.00 Build 0)  -->
<svg version="1.1" id="Dent" xmlns="http://www.w3.org/2000/svg" xmlns:xlink="http://www.w3.org/1999/xlink" x="0px" y="0px"
	 viewBox="0 0 245 245" style="enable-background:new 0 0 245 245;" xml:space="preserve">
<style type="text/css">
	.st0{fill:#FA2922;}
	.st1{fill:none;stroke:#FFFFFF;stroke-width:5;}
</style>
<path id="Main" class="st0" d="M0,122.5C0,190,55,245,122.5,245S245,190,245,122.5S190,0,122.5,0S0,55,0,122.5z"/>
<path id="Straight" class="st1" d="M122.5,42c7.5,0,13.6,6.1,13.6,13.6l0,0v133.7c0,7.5-6.1,13.6-13.6,13.7
	c-7.5,0-13.6-6.1-13.7-13.6c0,0,0,0,0,0V55.6C108.9,48.1,115,42,122.5,42z"/>
<path id="Right" class="st1" d="M192.2,82.2c3.8,6.5,1.5,14.9-5,18.6L71.4,167.7c-6.5,3.7-14.9,1.5-18.6-5.1
	c-3.7-6.5-1.5-14.8,5-18.6l115.8-66.9C180.1,73.5,188.4,75.7,192.2,82.2C192.2,82.2,192.2,82.2,192.2,82.2z"/>
<path id="Left" class="st1" d="M52.8,82.2c3.8-6.5,12.1-8.8,18.6-5c0,0,0,0,0,0l115.8,66.9c6.5,3.7,8.8,12.1,5.1,18.6
	c-3.7,6.5-12.1,8.8-18.6,5.1c0,0-0.1,0-0.1-0.1L57.8,100.9C51.3,97.1,49,88.8,52.8,82.2z"/>
</svg>
