<svg id="Dent" xmlns="http://www.w3.org/2000/svg" width="256" height="256" viewBox="0 0 512 512">
<defs>
    <style>
      .cls-1 {
        fill: #fa2922;
      }

      .cls-1, .cls-2 {
        fill-rule: evenodd;
      }

      .cls-2 {
        fill: none;
        stroke: #fff;
        stroke-width: 10px;
      }
    </style>
  </defs>
  <path id="Main" class="cls-1" d="M11,256c0,135.094,109.906,245,245,245S501,391.094,501,256,391.094,11,256,11,11,120.906,11,256Z"/>
  <path id="Straight" class="cls-2" d="M256,95a27.294,27.294,0,0,1,27.294,27.294V389.706a27.294,27.294,0,1,1-54.588,0V122.294A27.294,27.294,0,0,1,256,95Z"/>
  <path id="Right" class="cls-2" d="M395.43,175.5a27.294,27.294,0,0,1-9.99,37.284L153.854,346.49a27.294,27.294,0,0,1-27.294-47.274L358.146,165.51A27.293,27.293,0,0,1,395.43,175.5Z"/>
  <path id="Left" class="cls-2" d="M116.57,175.5a27.293,27.293,0,0,1,37.284-9.99L385.44,299.216a27.294,27.294,0,1,1-27.294,47.274L126.56,212.784A27.294,27.294,0,0,1,116.57,175.5Z"/>
</svg>
