<?xml version="1.0" encoding="UTF-8"?><svg id="Layer_1" xmlns="http://www.w3.org/2000/svg" width="128" height="128" viewBox="0 0 128 128"><defs><style>.cls-1{fill:#fff;}</style></defs><path d="M64,0h0c35.35,0,64,28.65,64,64h0c0,35.35-28.65,64-64,64h0C28.65,128,0,99.35,0,64h0C0,28.65,28.65,0,64,0Z"/><path class="cls-1" d="M78.44,95.73v-20.14c0-.76.31-1.49.85-2.03.54-.54,1.27-.84,2.04-.85h20.21l17.32-11.51h-42.35c-5.37,0-9.76,5.12-9.76,10.47v37.75l11.68-13.7Z"/><path class="cls-1" d="M80.69,32.95l-14.61,14.23c-.55.54-1.3.85-2.08.85s-1.52-.3-2.08-.85l-14.57-14.23-20.88-4.09,30.51,29.77c3.85,3.84,10.74,3.26,14.63-.52l29.93-29.25-20.85,4.09Z"/><path class="cls-1" d="M26.47,72.71h20.21c.77,0,1.5.3,2.04.84.54.54.85,1.27.85,2.03v20.12l11.55,13.72v-38.52c0-5.35-5.14-9.73-10.51-9.73H9.14l17.32,11.53Z"/></svg>