<svg xmlns="http://www.w3.org/2000/svg" xmlns:xlink="http://www.w3.org/1999/xlink" width="250" height="250" xmlns:v="https://vecta.io/nano"><defs><linearGradient id="A" y1="610.018" x2="884.872" y2="610.018" x1="871.626" xlink:href="#N"><stop offset=".112" stop-color="#945300" stop-opacity="0"/><stop offset=".18" stop-color="#8b4c01" stop-opacity=".094"/><stop offset=".717" stop-color="#4f200f" stop-opacity=".749"/><stop offset="1" stop-color="#391015"/></linearGradient><linearGradient id="B" xlink:href="#N"><stop offset=".278" stop-color="#945300" stop-opacity="0"/><stop offset=".315" stop-color="#8b4c01" stop-opacity=".094"/><stop offset=".606" stop-color="#4f200f" stop-opacity=".749"/><stop offset=".76" stop-color="#391015"/></linearGradient><linearGradient id="C" x1="854.594" y1="580.64" x2="848.084" y2="535.831" xlink:href="#N"><stop offset=".507" stop-color="#945300" stop-opacity="0"/><stop offset=".525" stop-color="#8b4c01" stop-opacity=".094"/><stop offset=".669" stop-color="#4f200f" stop-opacity=".749"/><stop offset=".745" stop-color="#391015"/></linearGradient><linearGradient id="D" x1="644.518" y1="714.661" x2="663.78" y2="686.113" gradientTransform="scale(1.2550823,0.79676051)" xlink:href="#N"><stop offset=".362" stop-color="#945300" stop-opacity="0"/><stop offset=".389" stop-color="#8b4c01" stop-opacity=".094"/><stop offset=".602" stop-color="#4f200f" stop-opacity=".749"/><stop offset=".714" stop-color="#391015"/></linearGradient><linearGradient id="E" x1="1044.412" y1="483.603" x2="1083.844" y2="466.216" xlink:href="#B" gradientTransform="scale(0.8195642,1.2201607)"/><linearGradient id="F" xlink:href="#N"><stop offset=".371" stop-color="#945300" stop-opacity="0"/><stop offset=".397" stop-color="#8b4c01" stop-opacity=".094"/><stop offset=".596" stop-color="#4f200f" stop-opacity=".749"/><stop offset=".702" stop-color="#391015"/></linearGradient><linearGradient id="G" x1="877.54" y1="556.97" x2="878.219" y2="556.97" xlink:href="#F"/><linearGradient id="H" x1="878.688" y1="557.983" x2="879.376" y2="557.983" xlink:href="#F"/><linearGradient id="I" x1="863.1" y1="572.18" x2="863.122" y2="572.18" xlink:href="#F"/><linearGradient id="J" x1="892.034" y1="605.848" x2="881.62" y2="593.568" xlink:href="#N"><stop offset=".183" stop-color="#945300" stop-opacity="0"/><stop offset=".235" stop-color="#8b4c01" stop-opacity=".094"/><stop offset=".64" stop-color="#4f200f" stop-opacity=".749"/><stop offset=".853" stop-color="#391015"/></linearGradient><linearGradient xlink:href="#B" id="K" x1="1055.064" y1="456.395" x2="1078.266" y2="484.672" gradientTransform="scale(0.8195642,1.2201607)"/><linearGradient xlink:href="#F" id="L" y1="556.066" x2="876.967" y2="556.066" x1="876.3"/><path id="M" d="M888.316 584.337l-3.988-3.666a5.41 5.41 0 0 1-1.463-2.24c-.674-1.971-2.061-5.889-3.778-9.949-1.221-2.887-2.484-5.564-3.327-7.3a10.33 10.33 0 0 0-1.687-2.46l-9.867 9.2.005.018h0a10.33 10.33 0 0 1 1.76 2.54c.844 1.737 2.106 4.414 3.327 7.3 1.717 4.06 3.1 7.978 3.778 9.949.293.857.796 1.627 1.463 2.24l3.988 3.667c.125.114.199.273.206.442s-.054.334-.169.458l-.358.389 2.263-2.16.022.009v-.033l7.295-6.962a.63.63 0 0 0 .205-.148l.358-.389c.117-.124.18-.289.174-.459s-.081-.331-.207-.446z"/><linearGradient id="N" gradientUnits="userSpaceOnUse"/></defs><g transform="translate(-776.727 -430.661)"><circle cx="901.727" cy="555.661" r="125" fill="#fbdf62"/><g transform="matrix(2.078928 0 0 2.078928 -803.69727 -572.56162)"><path d="M785.211 548.057l22.438-15.811-17.492 9.8z" fill="#666062"/><g fill="#d9d3c4"><path d="M825.032 504.476l16.152 7.306s8.28 20.524 8.935 20.97l-3.457 27.264h-21.63z"/><path d="M841.521 552.695l1.2-9.746c.692-5.883 1.153-11.809 1.479-17.727l.148.553c-.244 5.736-.536 11.458-1.2 17.17l-1.2 9.746c-.29 2.4-.463 4.795-.653 7.2l-.5-.021c.114-2.406.442-4.813.726-7.175zm-2.045-41.346c-.17 4.709-.818 9.393-1.1 14.1-.352 5.83-.5 11.686-1.074 17.5-.02.191-.3.2-.3 0-.01-2.879.312-5.77.52-8.641.214-2.952.307-5.909.485-8.863.294-4.9 1-9.767 1.249-14.667.062.17.137.357.22.571zm-7.334 10.627q-.173 5.944-.35 11.886c-.1 3.581-.048 7.216-.363 10.785 0 .099-.08.179-.179.179s-.179-.08-.179-.179c-.116-3.58.156-7.2.27-10.784q.188-5.945.413-11.888.294-7.63.644-15.26l.229.1-.485 15.161zm-7.109-17.5l-16.153 7.306s-8.28 20.524-8.935 20.97l3.457 27.264h21.63z"/><path d="M808.543 552.694l-1.2-9.746c-.692-5.883-1.153-11.809-1.479-17.727l-.147.553c.243 5.736.535 11.458 1.2 17.17l1.2 9.746c.29 2.4.464 4.795.653 7.2l.5-.021c-.114-2.406-.443-4.813-.727-7.175zm2.042-41.345c.17 4.709.818 9.393 1.1 14.1.352 5.83.5 11.686 1.073 17.5.02.191.3.2.3 0 .01-2.879-.312-5.77-.52-8.641-.214-2.952-.308-5.909-.485-8.863-.294-4.9-1-9.767-1.249-14.667a10.97 10.97 0 0 1-.219.571zm7.336 10.626q.174 5.944.35 11.886c.1 3.581.048 7.216.363 10.785 0 .099.08.179.179.179s.179-.08.179-.179c.116-3.58-.156-7.2-.27-10.784q-.188-5.945-.413-11.888-.293-7.63-.643-15.26l-.23.1.485 15.161zm7.176.139q.017 5.026-.01 10.053l.01 9.784c0 .072.059.131.131.131s.131-.059.131-.131c.208-3.147.064-6.345.055-9.5q-.015-5.024-.037-10.049l-.3-18.12-.179.061.199 17.771z"/><path d="M819.899 514.11l.083 14.692h10.485v-14.577zm-7.773 42.045l-1.752-19.916h13.965v19.916z"/><path d="M814.175 551.439l-.73-5.1c-.311-3.286-1.074-6.513-2.266-9.591a.35.35 0 0 0-.649.169l1.194 9.582.671 4.83a47.54 47.54 0 0 0 .79 5.113.8.8 0 0 0 1.573-.195 35.13 35.13 0 0 0-.583-4.808z" opacity=".3" style="mix-blend-mode:multiply"/><path d="M809.951 536.416a1.15 1.15 0 0 1 1.29-.707c.011-.006.023-.011.035-.015l.243-.075c.007.01.015.019.023.028l1.467-.245 1.887-.217 2.9.039 6.278-.018.266-.008c-.015.416 0 .832.02 1.247l-1.194.041-7.507.333c-.93.028-1.9.195-2.857.279 2.307 2.663 4.572 5.351 6.7 8.169 1.266 1.675 2.441 3.409 3.615 5.148.574.849.765 1.033 1.278 1.92.319.555.136 2.722-.364 2.778a17.99 17.99 0 0 1-1.008-1.751c-.545-.871-1.131-1.715-1.7-2.574-1.1-1.674-2.269-3.306-3.464-4.918l-6.625-8.75a4.96 4.96 0 0 1-1.405-.311 5.09 5.09 0 0 1 .122-.393z" opacity=".3" style="mix-blend-mode:multiply"/><path d="M811.497 556.676l-1.833-20.843c-.016-.177.044-.353.164-.484s.29-.206.467-.206h14.181c.168 0 .329.067.448.186s.186.28.186.448v20.847c0 .168-.067.329-.186.448s-.28.186-.448.186h-12.347c-.33 0-.605-.253-.632-.582z"/><path d="M824.277 556.068l-13.692-19.527m45.378 2.185c-.114.125-.273.199-.442.206s-.334-.054-.458-.169l-3.988-3.667a7.24 7.24 0 0 1-1.949-2.986c-.666-1.95-2.037-5.82-3.73-9.825-1.207-2.852-2.455-5.5-3.289-7.216a8.65 8.65 0 0 0-4.062-4.013 93.78 93.78 0 0 0-4.92-2.18c-3.465-1.406-7.128-2.507-8.095-2.79-.966.283-4.629 1.384-8.094 2.79a94.15 94.15 0 0 0-4.92 2.18 8.65 8.65 0 0 0-4.062 4.013c-.835 1.72-2.084 4.369-3.289 7.216-1.7 4.01-3.066 7.877-3.73 9.825-.391 1.142-1.061 2.168-1.949 2.986l-3.989 3.667a.63.63 0 0 1-.455.167c-.168-.007-.326-.08-.44-.204l-.358-.389a.64.64 0 0 1-.17-.458c.006-.169.081-.328.207-.442l3.988-3.667c.668-.612 1.171-1.383 1.464-2.24.672-1.97 2.058-5.884 3.777-9.948 1.219-2.883 2.483-5.562 3.327-7.3 1.04-2.126 2.77-3.836 4.907-4.851 1.777-.844 3.464-1.591 5.015-2.221 4.109-1.668 8.481-2.913 8.525-2.925l.245-.07.245.07c.044.012 4.416 1.257 8.526 2.925 1.55.629 3.236 1.376 5.015 2.221a10.46 10.46 0 0 1 4.907 4.851c.844 1.737 2.106 4.414 3.327 7.3 1.717 4.059 3.1 7.978 3.778 9.949a5.41 5.41 0 0 0 1.464 2.24l3.988 3.667c.125.114.199.273.206.442s-.054.334-.169.458z"/><path d="M829.315 525.132l-.009 2.7c-.239.313-.514.597-.818.847.14-1.225.134-4.661.11-6.8l-.094-6.007c-4.133-.057-8.259.5-8.261.293-.147-.581.024-1.196.448-1.618s1.041-.588 1.621-.437l1.955-.029a.75.75 0 0 1 .529.688h.022c1.287-.063 2.7-.588 3.968-.236.2.053.746.264.861.48.009.025.015.052.023.081l-.335 6.482-.02 3.556z" opacity=".3" style="mix-blend-mode:multiply"/><path d="M819.903 514.755l.076 13.417c.002.349.285.63.634.63h9.221c.168 0 .329-.067.448-.186s.186-.28.186-.448v-13.316c0-.347-.28-.63-.627-.634l-9.3-.1a.64.64 0 0 0-.452.185.63.63 0 0 0-.186.452zm18.15 41.616l1.79-20.349h-14.266v20.349z"/><path d="M835.889 551.439l.73-5.1a35.91 35.91 0 0 1 2.266-9.591.35.35 0 0 1 .649.169c-.238 3.195-.759 6.4-1.194 9.582l-.671 4.83a47.39 47.39 0 0 1-.79 5.113.8.8 0 0 1-1.573-.195c.084-1.614.279-3.221.583-4.808z" opacity=".3" style="mix-blend-mode:multiply"/><path d="M840.112 536.416a1.15 1.15 0 0 0-1.29-.707c-.011-.006-.023-.011-.035-.015l-.243-.075a.33.33 0 0 1-.022.028l-1.468-.245-1.887-.217c-.976-.013-1.955.03-2.9.039-2.093.016-4.186.023-6.278-.018-.089 0-.177-.006-.266-.008.015.416 0 .832-.02 1.247l1.195.041 7.507.333c.929.028 1.9.195 2.857.279-2.307 2.663-4.572 5.351-6.7 8.169-1.266 1.675-2.441 3.409-3.615 5.148-.574.849-.764 1.033-1.278 1.92-.319.555-.136 2.722.364 2.778a17.98 17.98 0 0 0 1.008-1.751c.545-.871 1.131-1.715 1.7-2.574 1.1-1.674 2.268-3.306 3.463-4.918l6.625-8.75c.481-.035.955-.14 1.406-.311a4.05 4.05 0 0 0-.123-.393z" opacity=".3" style="mix-blend-mode:multiply"/><path d="M838.568 556.676l1.834-20.847c.016-.177-.043-.353-.163-.484s-.29-.206-.468-.206h-14.182c-.168 0-.329.067-.448.186s-.186.28-.186.448v20.847c0 .168.067.329.186.448s.28.186.448.186h12.346c.329.001.604-.25.633-.578z"/><path d="M825.787 556.068l13.692-19.527"/></g><path d="M836.873 569.312l9.789-9.3 3.457-27.264-9.788 9.294z" fill="#d8662e"/><path d="M871.626 628.3l9.789-9.3 3.457-27.264-9.788 9.294z" transform="translate(-34.753 -58.988)" opacity=".56" fill="url(#A)"/><path d="M815.245 513.77l16.152 7.305s8.28 20.524 8.935 20.97l-3.457 27.264h-21.63z" fill="#e07032"/><path d="M831.736 561.988l1.2-9.746c.692-5.883 1.153-11.81 1.479-17.727l.148.553c-.244 5.736-.536 11.458-1.2 17.17l-1.2 9.746c-.29 2.4-.473 4.924-.662 7.325h-.493c.112-2.399.441-4.96.728-7.321zm-2.046-41.347c-.17 4.709-.818 9.393-1.1 14.1l-1.879 34.568h-.3c-.01-2.879 1.117-22.831 1.325-25.7.214-2.952.307-5.909.485-8.862.294-4.9 1-9.767 1.25-14.667.058.16.133.348.219.561zm-7.335 10.627q-.173 5.945-.351 11.886l-.9 26.15h-.358c-.116-3.58.7-22.569.809-26.148q.188-5.945.413-11.887.294-7.631.644-15.26l.229.1-.486 15.159z" fill="#9b3724"/><path d="M815.241 513.77l-16.149 7.31s-8.28 20.524-8.935 20.97l3.457 27.264h21.627z" fill="#e07032"/><path d="M798.754 561.989l-1.2-9.746c-.692-5.883-1.153-11.81-1.479-17.727l-.147.553c.243 5.736.535 11.458 1.2 17.17l1.2 9.746c.29 2.4.464 4.924.653 7.325l.5-.021c-.114-2.395-.443-4.939-.727-7.3zm2.043-41.347c.17 4.709.818 9.393 1.1 14.1l2.265 34.565h.3c.01-2.879-1.5-22.831-1.712-25.7-.214-2.952-.308-5.909-.485-8.862-.294-4.9-1-9.767-1.249-14.667-.059.163-.133.351-.219.564zm7.336 10.626q.173 5.945.35 11.886l.364 26.15h.357c.116-3.58-.156-22.569-.27-26.148q-.188-5.945-.413-11.887-.293-7.631-.643-15.26l-.229.1.484 15.159zm7.175.14c.011 3.351-.26 6.7-.279 10.053l.1 27.845h.262c.209-3.147.064-24.407.055-27.559-.01-3.35.162-6.7.143-10.049l-.3-18.119-.179.061.198 17.768z" fill="#9b3724"/><path d="M810.761 524.306l.075 12.886h9.2v-12.785zm-8.423 41.142l-1.752-19.916h13.965v19.916z" fill="#d8662e"/><g fill="#9b8a8e"><path d="M821.498 545.498c-2.765-.122-5.562-.039-8.343.023l-.192-.706a.35.35 0 0 0-.664.091l-.016.634-.442.01-4.875.094a47.33 47.33 0 0 0-5.171.179.8.8 0 0 0 .007 1.584c1.612.108 3.229.105 4.84-.009l5.153-.121.444-.01.11 7.295.094 4.875a47.54 47.54 0 0 0 .179 5.171.8.8 0 0 0 1.585-.008c.108-1.611.104-3.228-.01-4.839l-.12-5.153a48.48 48.48 0 0 0-.538-7.375c2.72.005 5.429-.355 8.054-1.07a.35.35 0 0 0-.095-.665z" opacity=".3" style="mix-blend-mode:multiply"/><path d="M810.794 560.688l-2.979-4.207a35.88 35.88 0 0 0-6.393-7.5c-.267-.215-.678.157-.5.446l5.435 7.981 2.8 3.992c.935 1.45 1.949 2.849 3.036 4.189a.8.8 0 0 0 1.311-.891 35.12 35.12 0 0 0-2.71-4.01zm8.732-25.903l-.1 2.7c-.168.219-.679-.2-.908-.051.14-1.225.134-3.763.109-5.9l-.094-6.007c-4.133-.057-8.259.5-8.261.293-.147-.581.024-1.196.449-1.618s1.042-.588 1.621-.437l1.955-.029a.75.75 0 0 1 .529.688h.021c1.287-.063 2.695-.588 3.967-.236.2.053.746.264.861.48l.022.081-.155 6.482-.016 3.554z" opacity=".3" style="mix-blend-mode:multiply"/></g><path d="M811.467 524.766l7.865.086v11.9h-7.8l-.068-11.982m-.715-1.361c-.169 0-.331.067-.45.187s-.185.282-.184.451l.076 13.417c.002.349.285.63.634.63h9.221c.168 0 .329-.067.448-.186s.186-.28.186-.448v-13.315c0-.347-.28-.63-.627-.634l-9.3-.1z" fill="#f2ede2"/><path d="M828.264 565.664l1.79-20.349h-14.269v20.349z" fill="#d8662e"/><g fill="#9b8a8e"><path d="M826.1 560.736l.731-5.1a35.89 35.89 0 0 1 2.266-9.592.35.35 0 0 1 .649.169c-.238 3.2-.759 6.4-1.194 9.582l-.671 4.83c-.17 1.717-.434 3.424-.79 5.113a.8.8 0 0 1-1.573-.2 35.24 35.24 0 0 1 .582-4.802z" opacity=".3" style="mix-blend-mode:multiply"/><path d="M829.8 546.271a1.11 1.11 0 0 0-1.255-.66.3.3 0 0 0-.034-.013l-.235-.069c-.007.01-.013.018-.021.027l-1.418-.213-1.822-.179-2.792.084-6.048.084h-.256c.02.4-.8 1.481-.811 1.881l1.151.02 7.238.2h2.851c-2.179 2.6-3.6 4.771-5.6 7.52l-3.4 5.018c-.539.826-.72 1.007-1.2 1.87-.3.54-.087 2.625.4 2.67a17.27 17.27 0 0 0 .942-1.7l1.593-2.507 3.256-4.793 6.241-8.538c.463-.041.917-.149 1.349-.321l-.129-.381z" opacity=".3" style="mix-blend-mode:multiply"/></g><path d="M829.98 544.433h-14.181a.62.62 0 0 1-1.112 0h-14.181c-.178 0-.347.075-.467.206s-.179.306-.164.483l1.834 20.847c.028.328.302.579.631.579h12.347a.62.62 0 0 1 1.112 0h12.348c.329 0 .602-.252.631-.579l1.833-20.847c.016-.177-.044-.352-.164-.484s-.29-.206-.467-.205zm-1.665 1.8l-11.353 16.192v-16.196zm-14.789 16.188l-11.353-16.192h11.353zm-11.492-13.259l10.93 15.588h-9.559zm25.047 15.588h-9.555l10.93-15.588z" fill="#f2ede2"/><path d="M830.049 521.084c.208.24.605.636 1.158 1.161 1.086 2.692 7.091 10.3 8.463 17.27a11.73 11.73 0 0 1 .538.172l.769-2.832 9.142-4.1-1.92 10.477-8.753 6.074-2.09-3.079c-.401-.677-.727-1.395-.971-2.143-1.4-4.279-5.919-18.542-7.834-19.982-2.612-1.966-13.317-6.91-13.317-6.91l-16.15 4.447 15.925-6.96a80.47 80.47 0 0 1 14.535 5.925c.182.145.351.305.505.48z" fill="#9b3724" opacity=".51"/><g fill="#bdb0b3"><path d="M815.245 513.512l9.786-9.294h0l-.245.07c-.044.012-4.416 1.257-8.525 2.925l-5.015 2.221a10.49 10.49 0 0 0-3.277 2.451l-9.98 9.5 17.118-7.742.137-.13.243.069z"/><path d="M856.281 537.441l-3.988-3.667a5.41 5.41 0 0 1-1.463-2.24c-.674-1.971-2.061-5.889-3.778-9.949-1.221-2.887-2.484-5.564-3.327-7.3a10.46 10.46 0 0 0-4.907-4.851c-1.778-.845-3.465-1.591-5.015-2.221-4.109-1.668-8.482-2.913-8.526-2.925l-.245-.07h0l-9.786 9.294.243.069c.044.013 4.417 1.257 8.526 2.925 1.55.629 3.236 1.377 5.015 2.221a10.45 10.45 0 0 1 4.907 4.851c.844 1.737 2.106 4.414 3.327 7.3 1.717 4.06 3.1 7.978 3.778 9.949.293.857.796 1.627 1.463 2.24l3.988 3.667c.125.114.199.273.206.442s-.054.334-.169.458l-.358.389 2.263-2.16.022.009v-.033l7.295-6.962c.078-.035.147-.085.205-.148l.358-.389c.115-.123.176-.288.17-.457s-.08-.328-.204-.442z"/></g><use xlink:href="#M" transform="translate(-32.035 -46.896)" fill="url(#K)" opacity=".3"/><path d="M854.426 563.521l9.867-9.2a10.49 10.49 0 0 0-3.22-2.391l-5.015-2.221c-4.109-1.668-8.482-2.913-8.526-2.925l-.245-.07h0l-9.786 9.294.243.069c.044.013 4.417 1.257 8.526 2.925l5.015 2.221a10.47 10.47 0 0 1 3.147 2.311z" transform="translate(-22.256 -42.501)" opacity=".3" fill="url(#C)"/><path d="M827.531 556.013l9.786-9.294h0l-.245.07c-.044.012-4.416 1.257-8.525 2.925l-5.015 2.221a10.49 10.49 0 0 0-3.277 2.451l-9.98 9.5 17.118-7.742.137-.13.243.069z" transform="translate(-12.286 -42.501)" opacity=".3" fill="url(#D)"/><path d="M846.172 548.02c-.114.125-.273.199-.442.206s-.334-.054-.458-.169l-3.988-3.667c-.888-.817-1.558-1.844-1.949-2.986-.666-1.951-2.037-5.82-3.731-9.825a156.06 156.06 0 0 0-3.289-7.216 8.65 8.65 0 0 0-4.062-4.013c-1.747-.83-3.4-1.563-4.919-2.18-3.466-1.406-7.129-2.507-8.095-2.789-.967.283-4.63 1.383-8.095 2.789a94.15 94.15 0 0 0-4.92 2.18c-1.769.84-3.201 2.254-4.062 4.013-.835 1.72-2.084 4.369-3.289 7.216-1.7 4.01-3.066 7.877-3.731 9.825a7.26 7.26 0 0 1-1.949 2.986l-3.989 3.667c-.124.114-.287.174-.455.167s-.326-.08-.44-.204l-.358-.389c-.115-.124-.176-.289-.17-.458s.081-.328.207-.442l3.988-3.667c.668-.613 1.171-1.383 1.464-2.241.672-1.969 2.059-5.884 3.777-9.948 1.219-2.883 2.483-5.562 3.327-7.3 1.04-2.126 2.77-3.836 4.908-4.851a95.77 95.77 0 0 1 5.015-2.221c4.109-1.668 8.481-2.912 8.525-2.925l.245-.069.245.069c.044.013 4.417 1.257 8.526 2.925 1.55.629 3.236 1.377 5.015 2.221a10.45 10.45 0 0 1 4.907 4.851 159.69 159.69 0 0 1 3.328 7.3c1.717 4.06 3.1 7.978 3.778 9.949.293.857.796 1.628 1.464 2.24l3.988 3.667c.125.114.199.273.206.442s-.054.334-.169.458z" fill="#f2ede2"/><use xlink:href="#M" transform="translate(-32.035 -46.896)" fill="url(#E)" opacity=".3"/><g transform="translate(831.467 510)" opacity=".3"><path d="M876.3 555.842l.667.448-.667-.448z" transform="translate(-867.932 -555.842)" fill="url(#L)"/><path d="M877.54 556.691l.679.558q-.328-.293-.679-.558z" transform="translate(-868.385 -556.153)" fill="url(#G)"/><path d="M879.376 558.324q-.328-.357-.688-.683.359.327.688.683z" transform="translate(-868.806 -556.501)" fill="url(#H)"/><path d="M863.1 572.17l.022.02z" transform="translate(-863.096 -561.821)" fill="url(#I)"/></g><path d="M893.618 596.471l-3.988-3.671c-.31-.285-1.477-.6-1.711-.949l-9.235 8.711c.292.575.684 1.094 1.158 1.531l3.988 3.667c.125.114.199.273.206.442s-.054.334-.169.458l-.358.389 2.263-2.16.022.009v-.033l7.295-6.962c.078-.035.147-.085.205-.148l.358-.389c.237-.257.222-.657-.034-.895z" transform="translate(-37.337 -59.031)" opacity=".21" fill="url(#J)"/></g></g></svg>