<?xml version="1.0" encoding="utf-8"?>
<!-- Generator: Adobe Illustrator 22.0.0, SVG Export Plug-In . SVG Version: 6.00 Build 0)  -->
<svg version="1.1" id="DGB" xmlns="http://www.w3.org/2000/svg" xmlns:xlink="http://www.w3.org/1999/xlink" x="0px" y="0px"
	 viewBox="0 0 490 490" style="enable-background:new 0 0 490 490;" xml:space="preserve">
<style type="text/css">
	.st0{fill:#002352;}
	.st1{fill:#FFFFFF;}
</style>
<path id="Full" class="st0" d="M0,245c0,135.1,109.9,245,245,245s245-109.9,245-245S380.1,0,245,0S0,109.9,0,245z"/>
<path id="DigiByte" class="st1" d="M314.9,125.5l8.4-21.8c0.7-1.8-0.2-3.7-2-4.4c-0.4-0.1-0.8-0.2-1.2-0.2h-31.2l-9.8,25.8h-13.8
	l8-21.2c0.7-1.8-0.2-3.7-2-4.4c-0.4-0.1-0.8-0.2-1.2-0.2h-31.2l-9.8,25.8h-97.8c-4.5,0.1-8.6,2.5-10.9,6.3L96,174.2h182.4
	c6,0,12,1.1,17.6,3.4c10.9,4.4,23.7,14.5,20.3,37.2c-5.2,38-44,105.2-127.8,106.3l43.4-113c1.3-3.6-0.5-7.7-4.2-9
	c-0.8-0.3-1.7-0.4-2.5-0.4h-58L97,371.3c12,1.2,24.1,1.8,36.2,1.7l-7.1,18.1h32.3c2.6,0,4.8-1.6,5.7-4l6.1-15.5
	c4.8-0.4,9.4-1,14.5-1.5l-8,21h32c2.6,0,4.8-1.6,5.7-4l9.2-23.7c52.6-12,108.7-38.2,142.4-93.3C433.7,159.1,363.5,130.5,314.9,125.5
	L314.9,125.5L314.9,125.5z"/>
</svg>
