<svg id="DGB" xmlns="http://www.w3.org/2000/svg" width="512" height="512" viewBox="0 0 512 512">
<defs>
    <style>
      .cls-1 {
        fill: #002352;
      }

      .cls-1, .cls-2 {
        fill-rule: evenodd;
      }

      .cls-2 {
        fill: #fff;
      }
    </style>
  </defs>
  <path id="Full" class="cls-1" d="M11,256c0,135.094,109.906,245,245,245S501,391.094,501,256,391.094,11,256,11,11,120.906,11,256Z"/>
  <path id="DigiByte" class="cls-2" d="M325.886,136.469l8.379-21.847A3.4,3.4,0,0,0,331.123,110h-31.21l-9.845,25.839H276.243l7.96-21.217A3.4,3.4,0,0,0,281.061,110h-31.21l-9.845,25.839h-97.82a13.025,13.025,0,0,0-10.892,6.3L107,185.206H289.439a45.979,45.979,0,0,1,17.595,3.361c10.892,4.411,23.67,14.5,20.318,37.183-5.236,38.023-43.987,105.246-127.773,106.3l43.359-113.019a7.024,7.024,0,0,0-6.7-9.453H178.214l-70.17,172.679a336.99,336.99,0,0,0,36.237,1.681L137.159,402h32.258a5.846,5.846,0,0,0,5.655-3.991l6.075-15.546c4.817-.42,9.426-1.05,14.453-1.47L187.64,402h32.048a5.845,5.845,0,0,0,5.655-3.991l9.217-23.738C287.135,362.3,343.272,336.037,377,281c67.657-110.918-2.513-139.488-51.109-144.53h0Z"/>
</svg>
