<?xml version="1.0" encoding="utf-8"?>
<!-- Generator: Adobe Illustrator 22.0.0, SVG Export Plug-In . SVG Version: 6.00 Build 0)  -->
<svg version="1.1" id="DIBI" xmlns="http://www.w3.org/2000/svg" xmlns:xlink="http://www.w3.org/1999/xlink" x="0px" y="0px"
	 viewBox="0 0 490 490" style="enable-background:new 0 0 490 490;" xml:space="preserve">
<style type="text/css">
	.st0{fill:#183C87;}
	.st1{fill:#FFFFFF;}
</style>
<path id="Full" class="st0" d="M0,245c0,135.1,109.9,245,245,245s245-109.9,245-245S380.1,0,245,0S0,109.9,0,245z"/>
<path id="dibi-2" class="st1" d="M100.9,272.3c0,27.3,19.5,48.8,46,48.8c12.2,0.2,23.8-5.2,31.6-14.6v12.5h19.7V170.5h-20.4v67
	c-7.8-9-19.1-14.1-31-14C120.4,223.5,100.9,245,100.9,272.3z M121.9,272.3c0-18.2,11.7-30.7,27.8-30.7c15.7,0,28.2,12.5,28.2,30.7
	c0,18-12.5,30.7-28.2,30.7C133.5,303,121.9,290.3,121.9,272.3L121.9,272.3z M228.5,225.7h-20.4v93.3h20.4L228.5,225.7L228.5,225.7z
	 M237.9,169.9l-28.6,32l9.3,9.3l33.7-26.5L237.9,169.9z M293.4,321.3c34.6,0,58.5-16.3,58.5-42.4c0-17.8-11-31.2-28.6-36
	c15.5-4.9,24.2-18,24.2-33.3c0-24-21-41.3-54.1-41.3s-53.8,17.4-53.8,41.3c0,15.3,8.7,28.4,24,33.3c-17.6,4.9-28.4,18.2-28.4,36
	C235.1,305,258.8,321.3,293.4,321.3z M293.4,253c22.3,0,36,10.2,36,24.8c0,15.3-13.8,24.4-36,24.4s-36-9.1-36-24.4
	C257.3,263.2,271.1,253,293.4,253L293.4,253z M293.4,234.8c-20.1,0-31.8-10.4-31.8-23.7c0-15.5,13.6-24,31.8-24s31.8,8.5,31.8,24
	C325.2,224.4,313.7,234.8,293.4,234.8L293.4,234.8z M378.6,225.7h-20.4v93.3h20.4L378.6,225.7L378.6,225.7z M334.7,184.7l33.7,26.5
	l9.3-9.3l-28.6-32L334.7,184.7z"/>
<path id="Left" class="st1" d="M251,306c-8.1-3.5-20.6,5.1-12,13h17c7.3,0,4-8,4-8S254.5,306.4,251,306z"/>
<path id="Right" class="st1" d="M341,306c-8.1-3.5-20.6,5.1-12,13h17c7.3,0,4-8,4-8S344.5,306.4,341,306z"/>
<path id="Nose" class="st1" d="M252,306c-8.1-3.5-20.6,5.1-12,13h17c7.3,0,4-8,4-8S255.5,306.4,252,306z M293,212c3.3,0,6,2,6,4.5
	s-2.7,4.5-6,4.5s-6-2-6-4.5S289.7,212,293,212z M342,306c-8.1-3.5-20.6,5.1-12,13h17c7.3,0,4-8,4-8S345.5,306.4,342,306z"/>
</svg>
