<svg id="DIBI" xmlns="http://www.w3.org/2000/svg" width="512" height="512" viewBox="0 0 512 512">
<defs>
    <style>
      .cls-1 {
        fill: #183c87;
      }

      .cls-1, .cls-2 {
        fill-rule: evenodd;
      }

      .cls-2 {
        fill: #fff;
      }
    </style>
  </defs>
  <path id="Full" class="cls-1" d="M11,256c0,135.094,109.906,245,245,245S501,391.094,501,256,391.094,11,256,11,11,120.906,11,256Z"/>
  <path id="dibi-2" data-name="dibi" class="cls-2" d="M111.9,283.3c0,27.349,19.505,48.761,46.006,48.761a40.139,40.139,0,0,0,31.588-14.628v12.508h19.717v-148.4H188.853v66.994A40.3,40.3,0,0,0,157.9,234.543C131.4,234.543,111.9,255.955,111.9,283.3Zm20.989,0c0-18.232,11.66-30.741,27.773-30.741,15.688,0,28.2,12.509,28.2,30.741,0,18.021-12.508,30.741-28.2,30.741C144.544,314.045,132.884,301.325,132.884,283.3Zm106.635-46.641H219.166v93.282h20.353V236.663Zm9.328-55.758-28.621,32.013,9.328,9.328,33.709-26.5ZM304.39,332.277c34.557,0,58.514-16.324,58.514-42.4,0-17.808-11.025-31.165-28.621-36.041,15.476-4.876,24.169-18.02,24.169-33.285,0-23.956-20.989-41.341-54.062-41.341s-53.849,17.385-53.849,41.341c0,15.265,8.692,28.409,23.956,33.285-17.6,4.876-28.408,18.233-28.408,36.041C246.089,315.953,269.833,332.277,304.39,332.277Zm0-68.265c22.261,0,36.041,10.176,36.041,24.8,0,15.265-13.78,24.381-36.041,24.381s-36.041-9.116-36.041-24.381C268.349,274.188,282.13,264.012,304.39,264.012Zm0-18.233c-20.14,0-31.8-10.388-31.8-23.745,0-15.476,13.569-23.956,31.8-23.956s31.8,8.48,31.8,23.956C336.191,235.391,324.743,245.779,304.39,245.779Zm85.221-9.116H369.259v93.282h20.352V236.663Zm-43.885-40.917,33.709,26.5,9.328-9.328-28.62-32.013Z"/>
  <path id="Left" class="cls-2" d="M262,317c-8.122-3.5-20.573,5.106-12,13h17c7.29,0,4-8,4-8S265.5,317.4,262,317Z"/>
  <path id="Right" class="cls-2" d="M352,317c-8.122-3.5-20.573,5.106-12,13h17c7.29,0,4-8,4-8S355.5,317.4,352,317Z"/>
  <path id="Nose" class="cls-2" d="M263,317c-8.122-3.5-20.573,5.106-12,13h17c7.29,0,4-8,4-8S266.5,317.4,263,317Zm41-94c3.314,0,6,2.015,6,4.5s-2.686,4.5-6,4.5-6-2.015-6-4.5S300.686,223,304,223Zm49,94c-8.122-3.5-20.573,5.106-12,13h17c7.29,0,4-8,4-8S356.5,317.4,353,317Z"/>
</svg>
