<svg id="Discord" xmlns="http://www.w3.org/2000/svg" width="512" height="512" viewBox="0 0 512 512">
  <defs>
    <style>
      .cls-1 {
        fill: #fff;
      }

      .cls-2 {
        fill: #232220;
        fill-rule: evenodd;
      }
    </style>
  </defs>
  <circle id="Main" class="cls-1" cx="255.5" cy="255.5" r="228.5"/>
  <path id="Discord-2" data-name="Discord" class="cls-2" d="M232.625,251.07c-7.361,0-13.172,6.5-13.172,14.43s5.94,14.43,13.172,14.43c7.361,0,13.173-6.5,13.173-14.43C245.927,257.57,239.986,251.07,232.625,251.07Zm47.137,0c-7.361,0-13.172,6.5-13.172,14.43s5.94,14.43,13.172,14.43c7.361,0,13.173-6.5,13.173-14.43S287.123,251.07,279.762,251.07ZM342.526,142H169.474A26.627,26.627,0,0,0,143,168.78V344.54a26.627,26.627,0,0,0,26.474,26.78H315.922l-6.844-24.05,16.53,15.47,15.626,14.56L369,402V168.78A26.627,26.627,0,0,0,342.526,142ZM292.677,311.78s-4.65-5.59-8.524-10.53c16.918-4.81,23.375-15.47,23.375-15.47a73.72,73.72,0,0,1-14.851,7.67,84.589,84.589,0,0,1-18.726,5.59,89.881,89.881,0,0,1-33.448-.13,107.875,107.875,0,0,1-18.984-5.59,75.5,75.5,0,0,1-9.428-4.42c-0.387-.26-0.774-0.39-1.162-0.65a1.782,1.782,0,0,1-.516-0.39c-2.325-1.3-3.616-2.21-3.616-2.21s6.2,10.4,22.6,15.34c-3.875,4.94-8.653,10.79-8.653,10.79-28.541-.91-39.389-19.76-39.389-19.76,0-41.86,18.6-75.79,18.6-75.79,18.6-14.04,36.289-13.65,36.289-13.65l1.292,1.56c-23.246,6.76-33.965,17.03-33.965,17.03s2.841-1.56,7.619-3.77c13.819-6.11,24.8-7.8,29.316-8.19a12.639,12.639,0,0,1,2.2-.26,108.557,108.557,0,0,1,26.087-.26,104.777,104.777,0,0,1,38.872,12.48s-10.2-9.75-32.156-16.51l1.808-2.08S295,202.19,313.6,216.23c0,0,18.6,33.93,18.6,75.79C332.194,292.02,321.217,310.87,292.677,311.78Z"/>
</svg>
