<?xml version="1.0" encoding="utf-8"?>
<!-- Generator: Adobe Illustrator 22.0.0, SVG Export Plug-In . SVG Version: 6.00 Build 0)  -->
<svg version="1.1" id="Discord" xmlns="http://www.w3.org/2000/svg" xmlns:xlink="http://www.w3.org/1999/xlink" x="0px" y="0px"
	 viewBox="0 0 457 457" style="enable-background:new 0 0 457 457;" xml:space="preserve">
<style type="text/css">
	.st0{fill:#FFFFFF;}
	.st1{fill:#232220;}
</style>
<circle id="Main" class="st0" cx="228.5" cy="228.5" r="228.5"/>
<path id="Discord-2" class="st1" d="M205.6,224.1c-7.4,0-13.2,6.5-13.2,14.4s5.9,14.4,13.2,14.4c7.4,0,13.2-6.5,13.2-14.4
	C218.9,230.6,213,224.1,205.6,224.1z M252.8,224.1c-7.4,0-13.2,6.5-13.2,14.4s5.9,14.4,13.2,14.4c7.4,0,13.2-6.5,13.2-14.4
	S260.1,224.1,252.8,224.1z M315.5,115H142.5c-14.7,0.1-26.6,12.1-26.5,26.8c0,0,0,0,0,0v175.8c-0.1,14.7,11.8,26.7,26.5,26.8
	c0,0,0,0,0,0h146.4l-6.8-24l16.5,15.5l15.6,14.6L342,375V141.8C342.1,127.1,330.2,115.1,315.5,115C315.5,115,315.5,115,315.5,115z
	 M265.7,284.8c0,0-4.6-5.6-8.5-10.5c16.9-4.8,23.4-15.5,23.4-15.5c-4.6,3.1-9.6,5.7-14.9,7.7c-6,2.6-12.3,4.5-18.7,5.6
	c-11.1,2-22.4,2-33.4-0.1c-6.5-1.3-12.8-3.1-19-5.6c-3.2-1.3-6.4-2.7-9.4-4.4c-0.4-0.3-0.8-0.4-1.2-0.6c-0.2-0.1-0.4-0.2-0.5-0.4
	c-2.3-1.3-3.6-2.2-3.6-2.2S186,269,202.4,274c-3.9,4.9-8.7,10.8-8.7,10.8c-28.5-0.9-39.4-19.8-39.4-19.8c0-41.9,18.6-75.8,18.6-75.8
	c18.6-14,36.3-13.6,36.3-13.6l1.3,1.6c-23.2,6.8-34,17-34,17s2.8-1.6,7.6-3.8c13.8-6.1,24.8-7.8,29.3-8.2c0.7-0.2,1.5-0.2,2.2-0.3
	c8.7-1.1,17.4-1.2,26.1-0.3c13.7,1.6,26.9,5.8,38.9,12.5c0,0-10.2-9.8-32.2-16.5l1.8-2.1c0,0,17.7-0.4,36.3,13.7
	c0,0,18.6,33.9,18.6,75.8C305.2,265,294.2,283.9,265.7,284.8z"/>
</svg>
