<?xml version="1.0" encoding="utf-8"?>
<!-- Generator: Adobe Illustrator 28.2.0, SVG Export Plug-In . SVG Version: 6.00 Build 0)  -->
<svg version="1.1" id="Discord" xmlns="http://www.w3.org/2000/svg" xmlns:xlink="http://www.w3.org/1999/xlink" x="0px" y="0px"
	 viewBox="0 0 457 457" style="enable-background:new 0 0 457 457;" xml:space="preserve">
<style type="text/css">
	.st0{fill:#FFFFFF;}
	.st1{fill:#232220;}
</style>
<circle id="Main" class="st0" cx="228.5" cy="228.5" r="228.5"/>
<path class="st1" d="M305.9,157.5c-14.2-6.5-29.5-11.3-45.4-14.1c-0.3-0.1-0.6,0.1-0.7,0.3c-2,3.5-4.1,8-5.7,11.6
	c-17.2-2.6-34.2-2.6-51,0c-1.5-3.7-3.8-8.1-5.8-11.6c-0.2-0.3-0.4-0.4-0.7-0.3c-15.9,2.8-31.2,7.6-45.4,14.1
	c-0.1,0.1-0.2,0.1-0.3,0.3c-28.9,43.2-36.9,85.4-33,127.1c0,0.2,0.1,0.4,0.3,0.5c19.1,14,37.6,22.5,55.8,28.2c0.3,0.1,0.6,0,0.8-0.3
	c4.3-5.9,8.1-12,11.4-18.6c0.2-0.4,0-0.8-0.4-1c-6.1-2.3-11.9-5.1-17.4-8.3c-0.4-0.3-0.5-0.9-0.1-1.2c1.2-0.9,2.3-1.8,3.5-2.7
	c0.2-0.2,0.5-0.2,0.7-0.1c36.5,16.7,76.1,16.7,112.2,0c0.2-0.1,0.5-0.1,0.7,0.1c1.1,0.9,2.3,1.8,3.5,2.7c0.4,0.3,0.4,0.9-0.1,1.2
	c-5.6,3.2-11.3,6-17.4,8.3c-0.4,0.2-0.6,0.6-0.4,1c3.4,6.5,7.2,12.7,11.4,18.5c0.2,0.2,0.5,0.4,0.8,0.3
	c18.2-5.6,36.7-14.2,55.8-28.2c0.2-0.1,0.3-0.3,0.3-0.5c4.7-48.2-7.8-90-33-127.1C306.1,157.7,306,157.6,305.9,157.5L305.9,157.5z
	 M191.5,259.5c-11,0-20.1-10.1-20.1-22.5c0-12.4,8.9-22.5,20.1-22.5c11.2,0,20.2,10.2,20.1,22.5
	C211.5,249.4,202.6,259.5,191.5,259.5z M265.7,259.5c-11,0-20.1-10.1-20.1-22.5c0-12.4,8.9-22.5,20.1-22.5
	c11.2,0,20.2,10.2,20.1,22.5C285.7,249.4,276.9,259.5,265.7,259.5z"/>
</svg>
