<svg id="DLT" xmlns="http://www.w3.org/2000/svg" width="512" height="512" viewBox="0 0 512 512">
<defs>
    <style>
      .cls-1 {
        fill: #4c82ed;
      }

      .cls-1, .cls-2 {
        fill-rule: evenodd;
      }

      .cls-2 {
        fill: #fff;
      }
    </style>
  </defs>
  <path id="Full" class="cls-1" d="M11,256c0,135.094,109.906,245,245,245S501,391.094,501,256,391.094,11,256,11,11,120.906,11,256Z"/>
  <path id="DLT-2" data-name="DLT" class="cls-2" d="M164.7,349.159q51.972,3.137,103.8,7.137l8.207,0.658a5.209,5.209,0,0,1,4.672,3.7q2.787,9.8,5.545,19.622a4.735,4.735,0,0,1,.28,1.568,5.139,5.139,0,0,1-5.264,4.988H120.825a12.537,12.537,0,0,1-4.782-.486,4.873,4.873,0,0,1-2.7-6.315c0.04-.1.084-0.2,0.132-0.3,24.093-49.377,49.744-98.016,74.943-146.812,26.087-50.474,51.4-100.964,78.806-150.858a5.166,5.166,0,0,1,1.868-2.149,5.457,5.457,0,0,1,2.991-.878H302.95a7.739,7.739,0,0,1,3.442.486,5.037,5.037,0,0,1,2.8,3.012Q331,147.449,351.074,212.9q25.573,83.382,48.639,167.249a4.913,4.913,0,0,1,.295,1.663,5.139,5.139,0,0,1-5.264,4.988H370.682a11.752,11.752,0,0,1-3.551-.282,5.1,5.1,0,0,1-3.411-3.467q-33.546-120.884-72.186-240.4l-4.408-13.521c-1.744-5.725-5.264-6.117-8.363-.548-2.3,3.858-4.283,7.544-6.4,11.528Q216.856,243.9,164.7,349.159Z"/>
</svg>
