<?xml version="1.0" encoding="utf-8"?>
<!-- Generator: Adobe Illustrator 22.0.0, SVG Export Plug-In . SVG Version: 6.00 Build 0)  -->
<svg version="1.1" id="DLT" xmlns="http://www.w3.org/2000/svg" xmlns:xlink="http://www.w3.org/1999/xlink" x="0px" y="0px"
	 viewBox="0 0 490 490" style="enable-background:new 0 0 490 490;" xml:space="preserve">
<style type="text/css">
	.st0{fill:#4C82ED;}
	.st1{fill:#FFFFFF;}
</style>
<path id="Full" class="st0" d="M0,245c0,135.1,109.9,245,245,245s245-109.9,245-245S380.1,0,245,0S0,109.9,0,245z"/>
<path id="DLT-2" class="st1" d="M153.7,338.2c34.6,2.1,69.2,4.5,103.8,7.1l8.2,0.7c2.2,0.1,4,1.6,4.7,3.7c1.9,6.5,3.7,13.1,5.5,19.6
	c0.2,0.5,0.3,1,0.3,1.6c-0.1,2.8-2.4,5.1-5.3,5H109.8c-1.6,0.1-3.2,0-4.8-0.5c-2.5-1-3.7-3.8-2.7-6.3c0-0.1,0.1-0.2,0.1-0.3
	c24.1-49.4,49.7-98,74.9-146.8c26.1-50.5,51.4-101,78.8-150.9c0.4-0.9,1.1-1.6,1.9-2.1c0.9-0.6,1.9-0.9,3-0.9H292
	c1.2-0.1,2.3,0.1,3.4,0.5c1.3,0.6,2.3,1.7,2.8,3c14.5,43.3,28.5,86.7,41.9,130.4c17,55.6,33.3,111.3,48.6,167.2
	c0.2,0.5,0.3,1.1,0.3,1.7c-0.1,2.8-2.4,5.1-5.3,5h-24.1c-1.2,0.1-2.4,0-3.6-0.3c-1.7-0.5-2.9-1.8-3.4-3.5
	c-22.4-80.6-46.4-160.7-72.2-240.4l-4.4-13.5c-1.7-5.7-5.3-6.1-8.4-0.5c-2.3,3.9-4.3,7.5-6.4,11.5
	C224.4,198.3,188.5,268,153.7,338.2z"/>
</svg>
