<svg id="DMME" xmlns="http://www.w3.org/2000/svg" width="512" height="512" viewBox="0 0 512 512">
  <defs>
    <style>
      .cls-1 {
        fill: #7cc71a;
      }

      .cls-1, .cls-2 {
        fill-rule: evenodd;
      }

      .cls-2 {
        fill: #fff;
      }
    </style>
  </defs>
  <path id="Full" class="cls-1" d="M11,256c0,135.094,109.906,245,245,245S501,391.094,501,256,391.094,11,256,11,11,120.906,11,256Z"/>
  <path id="Lock" class="cls-2" d="M152.2,231.8v71.9A103.766,103.766,0,0,0,176.348,371l-8.115,37.7L204.9,395a106.651,106.651,0,0,0,33.965,12.2,104.261,104.261,0,0,0,120.528-85,96.343,96.343,0,0,0,1.5-18.4h0V231.9H152.2v-0.1Zm45.487-6.3V188.6A58.823,58.823,0,0,1,256.6,129.8h0a58.823,58.823,0,0,1,58.912,58.8v36.9h26.851V188.6A85.65,85.65,0,0,0,256.6,103h0a85.65,85.65,0,0,0-85.762,85.6v36.9h26.851Z"/>
  <path id="Lines" class="cls-1" d="M254.24,333.2l69.074-68.942,4.463,4.455L258.7,337.655Zm34.892-64.507-4.49-4.433-64.684,64.481-30.146-30.089-4.464,4.455,34.572,34.506Zm-54.023,64.5,69.073-68.943,4.463,4.455L239.572,337.65Z"/>
</svg>
