<?xml version="1.0" encoding="utf-8"?>
<!-- Generator: Adobe Illustrator 22.0.0, SVG Export Plug-In . SVG Version: 6.00 Build 0)  -->
<svg version="1.1" id="DMME" xmlns="http://www.w3.org/2000/svg" xmlns:xlink="http://www.w3.org/1999/xlink" x="0px" y="0px"
	 viewBox="0 0 490 490" style="enable-background:new 0 0 490 490;" xml:space="preserve">
<style type="text/css">
	.st0{fill:#7CC71A;}
	.st1{fill:#FFFFFF;}
</style>
<path id="Full" class="st0" d="M0,245c0,135.1,109.9,245,245,245s245-109.9,245-245S380.1,0,245,0S0,109.9,0,245z"/>
<path id="Lock" class="st1" d="M141.2,220.8v71.9c-0.2,24.6,8.4,48.4,24.1,67.3l-8.1,37.7l36.7-13.7c10.5,6,22,10.1,34,12.2
	c56.7,9.8,110.7-28.2,120.5-84.9c0,0,0,0,0-0.1c1.1-6.1,1.6-12.2,1.5-18.4l0,0v-71.9L141.2,220.8L141.2,220.8L141.2,220.8z
	 M186.7,214.5v-36.9c0-32.5,26.4-58.8,58.8-58.8c0,0,0,0,0.1,0l0,0c32.5,0,58.9,26.2,58.9,58.7c0,0,0,0,0,0.1v36.9h26.9v-36.9
	c0-47.3-38.4-85.6-85.7-85.6c0,0,0,0-0.1,0l0,0c-47.3-0.1-85.7,38.2-85.8,85.5c0,0,0,0,0,0.1v36.9H186.7L186.7,214.5z"/>
<path id="Lines" class="st0" d="M243.2,322.2l69.1-68.9l4.5,4.5l-69.1,68.9L243.2,322.2z M278.1,257.7l-4.5-4.4L209,317.7
	l-30.1-30.1l-4.5,4.5l34.6,34.5L278.1,257.7z M224.1,322.2l69.1-68.9l4.5,4.5l-69.1,68.9L224.1,322.2z"/>
</svg>
