<?xml version="1.0" encoding="utf-8"?>
<!-- Generator: Adobe Illustrator 22.0.0, SVG Export Plug-In . SVG Version: 6.00 Build 0)  -->
<svg version="1.1" id="DOCK" xmlns="http://www.w3.org/2000/svg" xmlns:xlink="http://www.w3.org/1999/xlink" x="0px" y="0px"
	 viewBox="0 0 490 490" style="enable-background:new 0 0 490 490;" xml:space="preserve">
<style type="text/css">
	.st0{fill:#2C2B3F;}
	.st1{fill:#FFFFFF;}
</style>
<path id="Full" class="st0" d="M0,245c0,135.1,109.9,245,245,245s245-109.9,245-245S380.1,0,245,0S0,109.9,0,245z"/>
<path id="DOCK-2" class="st1" d="M348.9,78.9c-6.2-0.1-12.2,2.1-16.7,6.3c-4.5,4.5-6.8,9.8-6.8,17v160.7h-0.5
	c-0.1,0.5,0.1,1,0.5,1.3v12.1c0,30.4-0.9,50.1-27.6,75.2c-3.3,2.6-6.7,5-10.4,7.2c-12.7,7.6-26.2,11.2-41.6,11.2
	s-29.4-3.6-41.6-11.2c-12.7-7.6-22.1-17.9-29.4-30.9s-10.9-27.8-10.9-43.9s3.6-30.9,10.9-43.9c6.9-12.6,17-23.1,29.4-30.4
	c11.1-6.6,23.7-10.4,36.6-11.2l-16.3,16.1c-8.6,8.5-8.6,22.8,0,31.8c8.6,8.5,23.1,8.5,32.1,0l53.3-52.8c8.6-8.5,8.6-22.8,0-31.8
	l-53.8-52.8c-8.6-8.5-23-8.5-32.1,0c-8.6,8.5-8.6,22.8,0,31.8l17.2,17h-5c-22.1,0-42,5.4-60.1,16.6c-18.1,11-32.8,26.8-42.5,45.6
	c-10.8,18.8-15.8,40.3-15.8,64s5.4,45.2,16.7,64.9c11.3,19.2,26.2,34.5,46.1,45.7c19.4,11.2,41.1,16.5,64.6,16.5s45.2-5.4,64.2-16.5
	c19-10.9,34.7-26.7,45.6-45.7c11.3-19.2,16.7-40.7,16.7-64.9V102.2c0.2-6.3-2.1-12.4-6.3-17C361.5,81.2,355.6,78.9,348.9,78.9z"/>
</svg>
