<svg id="DOCK" xmlns="http://www.w3.org/2000/svg" width="512" height="512" viewBox="0 0 512 512">
<defs>
    <style>
      .cls-1 {
        fill: #2c2b3f;
      }

      .cls-1, .cls-2 {
        fill-rule: evenodd;
      }

      .cls-2 {
        fill: #fff;
      }
    </style>
  </defs>
  <path id="Full" class="cls-1" d="M11,256c0,135.094,109.906,245,245,245S501,391.094,501,256,391.094,11,256,11,11,120.906,11,256Z"/>
  <path id="DOCK-2" data-name="DOCK" class="cls-2" d="M359.869,89.9a24.093,24.093,0,0,0-16.717,6.268c-4.513,4.471-6.77,9.845-6.77,17.008V273.851h-0.461a1.633,1.633,0,0,0,.451,1.341v12.09c0,30.428-.9,50.128-27.567,75.182a83.219,83.219,0,0,1-10.38,7.163c-12.655,7.609-26.2,11.2-41.567,11.2s-29.373-3.587-41.568-11.2c-12.655-7.61-22.142-17.9-29.363-30.876s-10.85-27.756-10.85-43.86,3.62-30.885,10.85-43.869a79.686,79.686,0,0,1,29.363-30.429,81.23,81.23,0,0,1,36.594-11.2l-16.266,16.114c-8.584,8.5-8.584,22.838,0,31.779,8.584,8.5,23.055,8.5,32.08,0l53.311-52.81c8.584-8.5,8.584-22.829,0-31.78l-53.762-52.811c-8.584-8.5-23.045-8.5-32.08,0-8.585,8.5-8.585,22.829,0,31.78l17.168,17.007h-4.964c-22.143,0-42.019,5.365-60.09,16.561a115.594,115.594,0,0,0-42.48,45.648c-10.821,18.8-15.8,40.283-15.8,64.006s5.425,45.191,16.717,64.891c11.292,19.243,26.2,34.462,46.08,45.658,19.425,11.176,41.116,16.55,64.612,16.55s45.178-5.364,64.162-16.55a123.44,123.44,0,0,0,45.619-45.658c11.3-19.243,16.727-40.721,16.727-64.891V113.174a23.935,23.935,0,0,0-6.328-17.008C372.515,92.153,366.648,89.9,359.869,89.9Z"/>
</svg>
