<svg xmlns="http://www.w3.org/2000/svg" width="250" height="250" xmlns:v="https://vecta.io/nano"><circle cx="125" cy="125" r="124.894" stroke="#fff" stroke-width=".211"/><path d="M45.074 170.219c1.013-14.986 3.076-26.349 6.816-37.541a91.47 91.47 0 0 1 5.392-12.939c3.878-7.672 8.216-13.745 13.788-19.295 8.021-7.992 17.38-13.433 28.713-16.693 2.271-.653 5.906-1.49 7.896-1.818.655-.108 1.232-.231 1.282-.274s-.248-.609-.662-1.259c-1.498-2.352-2.583-4.924-3.14-7.445-.334-1.508-.367-4.917-.06-6.051 1.036-3.825 3.969-5.172 7.532-3.459 1.461.703 3.426 2.38 4.782 4.083l.362.454.004-1.906c.004-2.206.132-3.556.522-5.501 1.074-5.366 3.862-9.464 7.079-10.403.791-.231 2.178-.231 2.967.001 2.127.625 4.213 2.749 5.557 5.657 1.269 2.746 2.04 6.374 2.04 9.594 0 .689.022 1.253.049 1.253s.474-.424.993-.941c5.783-5.763 11.024-2.903 10.317 5.63-.167 2.015-.371 3.233-.797 4.741-.509 1.807-1.419 3.917-2.322 5.389l-.283.461 2.122.53c5.772 1.441 10.544 3.192 15.855 5.817 11.839 5.852 21.458 14.474 28.562 25.603 9.188 14.394 13.994 32.285 14.365 53.475l.069 3.944H193.97h-10.901l-.068-2.128c-.261-8.209-.866-13.437-2.241-19.38-4.504-19.466-16.104-33.583-33.015-40.179-9.7-3.783-21.066-5.166-32.149-3.912-9.511 1.076-18.092 4.338-24.885 9.458-2.712 2.044-6.421 5.64-8.476 8.218-6.909 8.666-11.464 19.81-13.82 33.813-.641 3.808-1.241 9.104-1.436 12.663l-.079 1.447H55.95 45zm63.144-16.262c-1.186-.298-2.294-1.204-2.875-2.352l-.331-.653v-6.583-6.583l.302-.644c1.28-2.73 4.877-3.378 7.035-1.266a4.33 4.33 0 0 1 1.234 2.371c.155.947.145 11.407-.012 12.255-.37 2.001-2.045 3.455-4.067 3.531-.473.017-1.052-.016-1.286-.075zm33.731-.031c-1.184-.336-2.263-1.274-2.811-2.443l-.302-.644v-6.47-6.47l.362-.763c1.589-3.354 6.315-3.353 7.904.002l.36.761v6.47 6.47l-.304.649a4.75 4.75 0 0 1-2.089 2.145c-.583.287-.888.36-1.658.396-.567.027-1.15-.014-1.462-.103z" fill="#fff"/></svg>