<?xml version="1.0" encoding="utf-8"?>
<!-- Generator: Adobe Illustrator 22.0.0, SVG Export Plug-In . SVG Version: 6.00 Build 0)  -->
<svg version="1.1" id="DOGE" xmlns="http://www.w3.org/2000/svg" xmlns:xlink="http://www.w3.org/1999/xlink" x="0px" y="0px"
	 viewBox="0 0 490 490" style="enable-background:new 0 0 490 490;" xml:space="preserve">
<style type="text/css">
	.st0{fill:#BA9F33;}
	.st1{fill:#F7F7F7;}
	.st2{fill:none;stroke:#F7F7F7;stroke-width:10;stroke-linecap:round;stroke-linejoin:round;}
</style>
<path id="Full" class="st0" d="M0,245c0,135.1,109.9,245,245,245s245-109.9,245-245S380.1,0,245,0S0,109.9,0,245z"/>
<path id="D" class="st1" d="M239.3,346.2c36,0,63.5-9,82.6-27.1c19.1-18.1,28.7-43.7,28.7-77c0.1-13.3-2.4-26.5-7.4-38.9
	c-4.8-11.8-12.1-22.5-21.5-31.2c-9.4-8.8-20.9-15.8-34.5-20.9c-13.6-5.1-29.2-7.7-46.8-7.7H152v38.3h18v125.9h-18v38.6H239.3z
	 M281.5,267.6c-1.4,7.3-4,14.3-7.7,20.7c-3.3,5.7-7.9,10.5-13.5,14.1c-5.5,3.5-12.1,5.2-19.9,5.2h-11V181.8h11
	c7.7,0,14.4,1.7,19.9,5.1c5.5,3.4,10.1,8,13.5,13.5c3.6,6,6.2,12.5,7.7,19.3c1.7,7.4,2.5,14.9,2.5,22.5
	C284,250.7,283.1,259.2,281.5,267.6L281.5,267.6z"/>
<circle id="Circle" class="st2" cx="245" cy="245" r="173"/>
</svg>
