<?xml version="1.0" encoding="utf-8"?>
<svg version="1.1" id="DOGE" xmlns="http://www.w3.org/2000/svg" xmlns:xlink="http://www.w3.org/1999/xlink" x="0px" y="0px"
	 viewBox="0 0 512 512" style="enable-background:new 0 0 512 512;" xml:space="preserve">
<style type="text/css">
	.st0{fill:#BA9F33;}
	.st1{fill:#C79C3B;}
	.st2{fill:#B58634;}
	.st3{fill:#DFC068;}
	.st4{fill:#A78F33;}
	.st5{fill:#A17C34;}
	.st6{fill:#B89844;}
	.st7{fill:#CBA94C;}
	.st8{fill:#AC8132;}
	.st9{fill:#927238;}
	.st10{fill:#8C6228;}
	.st11{fill:#D2A83E;}
	.st12{fill:#DCBA5A;}
	.st13{fill:#543E26;}
	.st14{fill:#F3EBDB;}
	.st15{fill:#DCDAD7;}
	.st16{fill:#A78E32;}
	.st17{fill:#B59544;}
	.st18{fill:#EBCC73;}
	.st19{fill:#D7D7D5;}
	.st20{fill:#E6DED7;}
	.st21{fill:#F5F2E6;}
	.st22{fill:#F8F3E4;}
	.st23{fill:#F4EFC8;}
	.st24{fill:#FCFCF4;}
	.st25{fill:#E5C66B;}
	.st26{fill:#242110;}
	.st27{fill:#938357;}
	.st28{fill:#CDBD83;}
	.st29{fill:#252211;}
	.st30{fill:#D2B257;}
	.st31{fill:#E6BD62;}
	.st32{fill:#696148;}
	.st33{fill:#F4ECB4;}
	.st34{fill:#71694F;}
	.st35{fill:#DFCD88;}
	.st36{fill:#DFC57C;}
	.st37{fill:#F3E19D;}
	.st38{fill:#DFDDD9;}
	.st39{fill:#D6D6D5;}
	.st40{fill:#6E6342;}
	.st41{fill:#BFA64C;}
	.st42{fill:#988430;}
	.st43{fill:#E7E3DB;}
	.st44{fill:#F5EDB6;}
	.st45{fill:#39331F;}
	.st46{fill:#CCA847;}
	.st47{fill:#C1A956;}
	.st48{fill:#ECD592;}
	.st49{fill:#D7C27C;}
	.st50{fill:#EED88B;}
	.st51{fill:#DFC677;}
	.st52{fill:#927D49;}
	.st53{fill:#C4A859;}
	.st54{fill:#C0993A;}
	.st55{fill:#E5CB7A;}
	.st56{fill:#D2B159;}
	.st57{fill:#BA9040;}
	.st58{fill:#D8C173;}
	.st59{fill:#E0CD81;}
	.st60{fill:#C2A44D;}
	.st61{fill:#CEB052;}
	.st62{fill:#D2BA6B;}
</style>
<path id="Full" class="st0" d="M11,256c0,135.1,109.9,245,245,245s245-109.9,245-245S391.1,11,256,11S11,120.9,11,256z"/>
<g id="Doge">
	<path class="st1" d="M195.4,96c0.8-0.9,1.5-1.8,2.3-2.7c1.3,0.5,2.6,1,3.8,1.5c2.2,6.8,5.5,13.6,4.8,20.9
		c-0.2,4.9-1.3,10.1,1.2,14.7c1.1,2.6,3.6,3.9,5.8,5.4c-1.3,1-2.6,2-4,3c-5.7,2.3-10.3,6.5-14.6,10.8c-1.7,0-3.3,0-5,0
		c9.1-10.9,13.1-25.2,13-39.2C203.1,104.6,198.6,100.3,195.4,96L195.4,96z"/>
	<path class="st2" d="M201.6,94.8c9.1,4.8,15.1,14.2,17.6,24c1.4,5.2,4.9,9.5,8.7,13.2c0,0.6-0.1,1.8-0.1,2.4
		c-4.7-1.6-10.6-2.5-14.4,1.5c-2.2-1.5-4.8-2.8-5.8-5.4c-2.5-4.6-1.4-9.8-1.2-14.7C207.1,108.4,203.8,101.6,201.6,94.8L201.6,94.8z"
		/>
	<path class="st3" d="M195.4,96c3.2,4.3,7.7,8.6,7.5,14.4c0,14-4,28.4-13,39.2c-0.6,0-1.9,0-2.5,0c3.9-6,7.8-12.5,8.2-19.9
		c0.7-10.4-2.5-20.6-1.4-31.1C194.5,98.1,195.1,96.7,195.4,96L195.4,96z"/>
	<path class="st4" d="M192.5,113.1c0.1-4.8-0.3-9.9,1.7-14.4c-1.1,10.4,2.1,20.7,1.4,31.1c-0.4,7.4-4.3,13.9-8.2,19.9l-1.6,0
		C191.1,138.3,192.4,125.5,192.5,113.1L192.5,113.1z"/>
	<path class="st5" d="M323.4,107.4c3.1-6.2,12.3-6.2,17.6-3c5,4.1,6.2,11,7.8,17c2,11.6,3.8,23.7,1.2,35.4c-1.4,6.6-2.1,13.7-6.7,19
		c-0.9-1.6-1.8-3.3-2.6-5c-0.9-2.6-1.6-5.2-2.4-7.8c3.2-7.1,4.8-14.9,5.6-22.6c0.8-6.9-3.8-12.6-8.4-17.1
		C333.1,116.8,328.2,112,323.4,107.4L323.4,107.4z"/>
	<path class="st6" d="M323,108.8c0.1-0.3,0.3-1.1,0.4-1.4c4.8,4.7,9.7,9.4,12.1,15.8c-0.1,1.9-0.6,3.9-2.5,4.6
		c-5.6,2.8-11.9,4.9-16,9.9c-2.8,3.6-8.3,5.6-8.7,10.6c0.6,0.4,1.8,1.3,2.4,1.7c-0.6,0.7-1.7,2.2-2.2,2.9c0.7,0.7,1.4,1.5,2.2,2.2
		c3-3.1,7.6-3.4,11.5-4.8c-0.6,1.5-1.2,3-1.8,4.5c1.6-0.4,3.3-0.7,5-1.1c-2,2.3-4.3,4.5-6.7,6.4c-0.3-0.2-0.8-0.4-1.1-0.6
		c-3-1.5-5.8-3.4-9.2-3.6c-0.2-0.5-0.5-1.5-0.7-2c-1.9-0.1-3.7-0.5-5.5-1c0.5-1.2,1.5-3.7,2-4.9c-1,0.5-3.1,1.5-4.1,2
		c2.8-4.6,5.5-9.2,8.2-13.8c0.2-0.3,0.6-1,0.8-1.3c3.7-6.9,9.2-12.7,13-19.6C323.2,113.4,323.2,111.1,323,108.8L323,108.8z"/>
	<path class="st7" d="M323,108.8c0.2,2.3,0.2,4.6-1.1,6.6c-3.8,6.9-9.3,12.7-13,19.6c-0.1-5.8,0.7-11.8,4.6-16.4
		C317.5,116.3,320.7,112.8,323,108.8L323,108.8z"/>
	<path class="st8" d="M294.8,135.2c7.6-3.9,11.5-12.2,18.7-16.6c-3.9,4.6-4.6,10.6-4.6,16.4c-0.2,0.3-0.6,1-0.8,1.3
		c0.2-2.2-0.1-4.5-0.4-6.7c-3.6,7.5-7.6,14.8-13,21.1c-3.2-0.9-6.4-1.2-9.7-1.2c1.8-3.5,4.1-6.6,6.6-9.6c-12.7-3-25.7-0.1-38.6-1.3
		c8.9-2.6,18.2-3,27.3-4C285.2,134.2,290,136.8,294.8,135.2L294.8,135.2z"/>
	<path class="st9" d="M335.5,123.2c4.6,4.5,9.2,10.2,8.4,17.1c-0.8,7.7-2.5,15.5-5.6,22.6c-2.3,1.9-4.8,3.7-7.2,5.6
		c-1.1-0.8-2.3-1.7-3.5-2.5l-0.6-0.4c3.7-8,9.7-15.4,10.1-24.5c-7.1,0.3-14.1,1.4-20.8,3.6c-2.8,0.7-4.2,3.2-5.6,5.4
		c-0.6-0.4-1.8-1.3-2.4-1.7c0.4-5,5.9-7,8.7-10.6c4.1-5,10.4-7.1,16-9.9C335,127.1,335.4,125.1,335.5,123.2L335.5,123.2z"/>
	<path class="st10" d="M307.7,129.7c0.3,2.2,0.5,4.4,0.4,6.7c-2.7,4.6-5.4,9.2-8.2,13.8c1-0.5,3.1-1.5,4.1-2c-0.5,1.2-1.5,3.7-2,4.9
		c-2.4-0.8-4.9-1.7-7.4-2.3C300.1,144.5,304.1,137.2,307.7,129.7L307.7,129.7z"/>
	<path class="st11" d="M213.4,135.8c3.8-4.1,9.7-3.1,14.4-1.5c8.4,1.7,16.8,3,25.2,4.3c12.8,1.2,25.9-1.7,38.6,1.3
		c-2.5,3-4.8,6.2-6.6,9.6c-20.8,0-41.5,0.1-62.3,0c-0.9-3-1-6.6-3.7-8.6c-2.8-2-6.4-1.9-9.6-2.2
		C210.8,137.9,212.1,136.9,213.4,135.8L213.4,135.8z"/>
	<path class="st12" d="M194.8,149.6c4.3-4.3,8.8-8.5,14.6-10.8c3.2,0.4,6.8,0.2,9.6,2.2c2.7,2,2.8,5.6,3.7,8.6
		C213.4,149.6,204.1,149.6,194.8,149.6L194.8,149.6z"/>
	<path class="st13" d="M316.3,144.6c6.7-2.1,13.8-3.3,20.8-3.6c-0.4,9-6.4,16.5-10.1,24.5c-2.7-1.9-5.6-3.7-8.6-5.3
		c2.4-2,4.7-4.1,6.7-6.4c-1.7,0.3-3.3,0.7-5,1.1c0.6-1.5,1.2-3,1.8-4.5c-3.9,1.4-8.5,1.6-11.5,4.8c-0.7-0.7-1.4-1.4-2.2-2.2
		c0.6-0.7,1.7-2.2,2.2-2.9C312.1,147.9,313.5,145.3,316.3,144.6L316.3,144.6z"/>
	<path class="st14" d="M160.5,149.7c8.5-0.1,16.9,0,25.4,0l1.6,0c0.6,0,1.9,0,2.5,0c1.7,0,3.3,0,5,0c9.3,0,18.6,0,27.9,0
		c20.8,0.1,41.5,0,62.3,0c3.3,0,6.6,0.3,9.7,1.2c2.5,0.7,4.9,1.5,7.4,2.3c1.8,0.6,3.6,0.9,5.5,1c0.2,0.5,0.5,1.5,0.7,2
		c3.4,0.1,6.3,2.1,9.2,3.6c-1.9,4.9-5.8,8.6-9.4,12.3c3.2,1.8,6.3,3.6,9.2,5.8c3.7-3.8,7.1-7.8,10.5-11.9c1.2,0.8,2.3,1.7,3.5,2.5
		c2.4,1.8,4.8,3.8,7.1,5.9c19.9,17.8,30,44.2,31.9,70.5c0.2,3.4,0.3,6.9,0.4,10.3c-0.1,13.6-1.3,27.4-4.9,40.5
		c-2.5,9.2-6,18.1-10.8,26.2c-3.4,5.2-7,10.3-11.3,14.7c-2.8,3-5.8,5.8-9.1,8.2c-1.5-0.8-2.9-1.5-4.4-2.3c-2.5,1.4-4.8,3.6-7.9,3.7
		c-4.1,0.3-7.8,2-11.8,2.7c3.9-5.8,11.8-10.1,10.5-18.2c-2.2,0.1-4.4,0.2-6.5,0.3c0.7-2.8,1.4-5.6,2.1-8.5c-0.7-0.5-2.1-1.4-2.9-1.9
		c2.4-2.7,4.9-5.5,7.2-8.3c-4.9,1.1-9.4,3.6-14,5.4c8.9-13,16.8-26.8,23.4-41.1c3.8-8.9,8.8-17.7,8.9-27.6
		c0.3-6.3-3.7-11.8-3.9-18.1c-0.6-7.2-0.5-15.6-6.5-20.7c-10.3,2.1-20.8,0.1-31.1-1.1c-2.8-0.4-5.6,0.1-8.3,0.5
		c-0.5-0.6-1-1.1-1.5-1.7c-3.2-3.2-6.6-6.6-11-8.1c-4-0.7-8.1-0.1-12.2-0.1l-0.6-0.1c-4.5-2-9.2-4.5-14.2-3.6
		c-4.2,0.4-6.7,4.3-10.1,6.4c-3.5,2.2-6.9,4.5-9.5,7.7c3.5,5.9,9.7,9.2,16.1,10.8c-0.2,3.9-0.5,7.7-0.9,11.6
		c-4,1.3-7.7,3.3-11.1,5.7c-1.8-3.9-2.7-8.2-4.4-12.1c-1.9-2.5-4.5-4.3-6.8-6.3c-0.5,1.7-1.1,3.4-1.6,5c-1.2,0.6-2.4,1.3-3.6,1.9
		c-0.2-2.9-0.2-5.9-0.8-8.8c-1.2-5.2-4.9-9.4-6.9-14.3c0.3-5,1.9-9.9,2-15c-2.5,1-5.1,1.9-7.5,3c-3.4,1.3-5,4.9-7.9,6.9
		c-2.8,1.2-5.9,1.7-8.8,2.5l0.4-1.1c2.6-2.3,3.4-5.7,4-9c-1.7,0.8-3.3,1.6-5,2.4c-2.1-2.9,1.1-4.9,2.9-6.8c-2.7-2.5-6.3-4.4-10-3.1
		c-6.2,2.2-9,9.1-9.6,15.2c-2.6,0.1-5.1,0.2-7.7,0.1c1-1.8,2-3.7,3-5.5c-1.3-2.8-4.1-3.8-6.8-4.8c0.1-6.9,0-13.9,0-20.8
		c0-2,0.1-4.1,0.1-6.1C159.4,157.7,158.8,153.5,160.5,149.7L160.5,149.7z"/>
	<path class="st15" d="M317.4,159.7c0.3,0.1,0.8,0.4,1.1,0.6c3,1.6,5.8,3.3,8.6,5.3l0.6,0.4c-3.4,4.1-6.8,8.1-10.5,11.9
		c-2.9-2.2-6-4.1-9.2-5.8C311.6,168.3,315.5,164.7,317.4,159.7L317.4,159.7z"/>
	<path class="st16" d="M137.7,210.7c2.5-17.8,8-36.4,21.6-49c0,2-0.1,4.1-0.1,6.1c-9,9.4-14.2,22-16.7,34.7c-1,4.3-2.9,8.3-4.7,12.3
		C137.8,213.5,137.7,212.1,137.7,210.7L137.7,210.7z"/>
	<path class="st17" d="M331.1,168.4c2.4-1.9,4.8-3.7,7.2-5.6c0.8,2.6,1.6,5.2,2.4,7.8c-0.6,0.9-1.9,2.8-2.6,3.7
		C335.9,172.2,333.5,170.3,331.1,168.4L331.1,168.4z"/>
	<path class="st18" d="M142.5,202.6c2.5-12.7,7.7-25.3,16.7-34.7c0,6.9,0.1,13.9,0,20.8c-4.3,3.6-6.2,9.6-11.7,11.8
		c-0.7,3.8-2.2,7.4-4.5,10.5c-1.6,2.1-3.4,4.1-5.1,6.1c0-0.5-0.1-1.6-0.1-2.2C139.7,210.9,141.6,206.9,142.5,202.6L142.5,202.6z"/>
	<path class="st19" d="M180.2,183.6c3.7-1.3,7.3,0.6,10,3.1c-1.8,1.9-5,3.9-2.9,6.8c1.7-0.8,3.3-1.6,5-2.4c-0.7,3.3-1.4,6.7-4,9
		c-3.4-0.5-6.8-0.5-10.2-0.2c0.2-2,0.3-4.1,0.9-6.1c1.6-1.7,3.8-2.4,5.8-3.4c-1.2-1.2-2.1-2.8-3.7-3.5c-3.7,1-7.4,3.8-8,7.8
		c0.1,1.8,0.4,3.7,0.7,5.5c-0.6,0-1.8-0.1-2.4-0.1l-0.8,0l0.2-1.3C171.3,192.7,174,185.8,180.2,183.6L180.2,183.6z"/>
	<path class="st20" d="M334.3,186.1c3.1-1.1,6.3-2.1,9.5-3c2.4,4.8,1.6,10-0.8,14.6c1.2,0,2.3,0,3.5,0c0.2,4,0.2,9.7-4.6,11
		c-2.6-5.8-8.9-9.2-10.5-15.5C331.6,190.6,333.2,188.4,334.3,186.1L334.3,186.1z"/>
	<path class="st21" d="M173,194.7c0.6-4,4.3-6.8,8-7.8c1.6,0.8,2.5,2.3,3.7,3.5c-2,1-4.2,1.7-5.8,3.4c-0.5,2-0.6,4-0.9,6.1
		c-1.1,0.1-3.3,0.2-4.4,0.3C173.4,198.3,173.1,196.5,173,194.7L173,194.7z"/>
	<path class="st22" d="M204.6,191.8c2.5-1.1,5-2,7.5-3c-0.1,5-1.7,9.9-2,15c2,4.9,5.7,9,6.9,14.3c0.5,2.9,0.6,5.8,0.8,8.8
		c1.2-0.6,2.4-1.3,3.6-1.9c0.5-1.7,1.1-3.4,1.6-5c2.3,2,4.9,3.8,6.8,6.3c1.7,3.9,2.6,8.2,4.4,12.1c3.4-2.4,7.1-4.4,11.1-5.7
		c0.3-3.9,0.6-7.7,0.9-11.6c0-0.4,0-1.2,0-1.7c-2.3-1.9-5.9-3.1-6.2-6.6c-0.3-4.3,2.5-8.1,5.5-10.9c0.9,0.2,1.7,0.4,2.6,0.5
		c1.7-0.1,2.5-1.1,2.4-3c2.2-0.1,4.5,0,6.7,0.1c-2.3,3.1-5.2,6-9.1,6.7c0,2.1,0,4.2,0.2,6.3c-0.1,2.1-0.3,4.2-0.5,6.3l0,1.4
		c0,5,0,10,0.1,15c0,24.9-0.1,49.8,0.1,74.8c0.1,0.5,0.4,1.4,0.5,1.9c11.2-0.8,24,2.8,33.7-4.5c13.6-9.8,19.3-26.9,20.7-43
		c1.6-19-1.8-39.3-13.7-54.7c2.7-0.5,5.5-0.9,8.3-0.5c10.3,1.2,20.8,3.2,31.1,1.1c6,5.1,6,13.5,6.5,20.7c0.2,6.3,4.2,11.8,3.9,18.1
		c-0.1,9.9-5.1,18.7-8.9,27.6c-6.6,14.3-14.4,28.1-23.4,41.1c4.7-1.8,9.1-4.3,14-5.4c-2.3,2.9-4.8,5.6-7.2,8.3
		c0.7,0.5,2.1,1.4,2.9,1.9c-0.7,2.8-1.4,5.7-2.1,8.5c2.2-0.1,4.3-0.2,6.5-0.3c1.3,8-6.7,12.4-10.5,18.2c4-0.7,7.8-2.5,11.8-2.7
		c3-0.1,5.4-2.3,7.9-3.7c1.5,0.8,2.9,1.5,4.4,2.3c-15.6,11.9-35.4,18.3-55,17.9c-17.1-0.1-34.2,0.1-51.3-0.1c-7.4,0-14.8,0-22.2,0
		c-5.4,0-10.9,0-16.3,0c-1.6,0-3.2,0-4.8,0c-7.3,0-14.5,0.3-21.8-0.1c-2.6,0.2-3.6-2.6-3.6-4.7c-0.3-5.8,0-11.5-0.1-17.3
		c0.1-6.6,0.1-13.2-0.1-19.7c0-2.9,0.4-5.7,1.1-8.5c9.1-0.9,18.3,0.3,27.5-0.4c0-3.1,0-6.3,0-9.4c0-2.4,0-4.8,0-7.2
		c0.6,2.1,1.2,4.2,1.9,6.2c4.3-0.8,9.1-1.9,12.4,1.9c7.6-6.8,18.9-6.4,28-10.2c2-5.2,6.6-9.3,6-15.3c-0.4-0.1-1.1-0.2-1.5-0.3
		c-9.5-3-18.5,3.2-27.8,3.9c-6.2-0.6-12.2-3.6-16.2-8.4c0.3-1.4,0.7-2.7,1.1-4.1c-0.9-0.8-1.8-1.5-2.8-2.3c-0.1-2.8-0.1-5.5,0-8.3
		c0.8-3.3,3-5.8,6-7.3c1-4.9,1.7-9.8,2.6-14.7c-2.6-3.2-6-5.5-9.8-6.9v-0.4c0-3.3,0-6.6,0-9.9c0.1-5.7,0-11.3,0-17
		c0-0.3,0.1-1,0.1-1.3c3-0.8,6-1.2,8.8-2.5C199.6,196.6,201.3,193.1,204.6,191.8L204.6,191.8z"/>
	<path class="st23" d="M147.5,200.5c5.5-2.2,7.4-8.2,11.7-11.8c0.1,3.3,0.1,6.5,0.2,9.8c0.9,0.1,2.7,0.4,3.6,0.5
		c2.6,0.1,5.1-0.1,7.7-0.1l-0.2,1.3c-3.5-0.1-7-0.1-10.4-0.1c-0.4,2-0.7,3.9-0.8,5.9c-6.8,2.6-10.9,8.9-16.4,13.2
		c0.1-2.7,0.1-5.4,0.3-8.1C145.3,207.8,146.8,204.2,147.5,200.5L147.5,200.5z"/>
	<path class="st24" d="M159.2,188.7c2.7,0.9,5.5,2,6.8,4.8c-1,1.8-2,3.7-3,5.5c-0.9-0.1-2.7-0.4-3.6-0.5
		C159.3,195.2,159.3,191.9,159.2,188.7L159.2,188.7z"/>
	<path class="st19" d="M239.6,202.4c3.4-2.1,5.9-5.9,10.1-6.4c5.1-0.9,9.7,1.6,14.2,3.6c-2.2-0.1-4.4,0-6.6-0.1
		c-2.2-0.1-4.5-0.2-6.7-0.1c-1.8,0.1-2.6,1.1-2.4,3c-0.9-0.1-1.7-0.3-2.6-0.5c-3.1,2.8-5.8,6.6-5.5,10.9c0.3,3.4,3.9,4.6,6.2,6.6
		c0,0.4,0,1.2,0,1.7c-6.4-1.7-12.7-4.9-16.1-10.8C232.6,206.9,236.1,204.6,239.6,202.4L239.6,202.4z"/>
	<path class="st25" d="M160,199.9c3.5,0.1,7,0.1,10.4,0.1l0.8,0c1.4,2.8,3.3,5.2,6,6.8c0.8,0.7,1.7,1.3,2.5,2
		c-2.7,4.2-6.7,7.5-8.7,12.1c-1.9,0.8-3.9,1.6-5.8,2.3c-0.4-0.3-1.2-0.8-1.7-1.1c0.4-0.7,1.2-2,1.6-2.7c-1.5-0.3-3-0.7-4.4-1
		c-0.8-4.2-1.3-8.4-1.6-12.7C159.2,203.8,159.5,201.9,160,199.9L160,199.9z"/>
	<path class="st26" d="M171.2,200.1c0.6,0,1.8,0.1,2.4,0.1c-0.3,5.2,5.7,4.6,9.2,4.1c-1.6-1.5-3.1-3-4.8-4.4
		c3.4-0.4,6.8-0.3,10.2,0.2l-0.4,1.1c0,0.3-0.1,1-0.1,1.3c-3.9,0.8-6.5,4.9-10.6,4.5C174.5,205.3,172.6,202.8,171.2,200.1
		L171.2,200.1z"/>
	<path class="st27" d="M173.6,200.2c1.1-0.1,3.3-0.2,4.4-0.3c1.6,1.4,3.2,2.9,4.8,4.4C179.3,204.8,173.3,205.4,173.6,200.2
		L173.6,200.2z"/>
	<path class="st28" d="M248.1,202.4c-0.2-1.9,0.6-2.9,2.4-3C250.6,201.2,249.8,202.2,248.1,202.4L248.1,202.4z"/>
	<path class="st29" d="M257.3,199.5c2.2,0.1,4.4,0.1,6.6,0.1l0.6,0.1c2.9,1.9,5.7,3.8,8.1,6.4c-2.7,5.9-7.6,10.8-13.6,13.3
		c-3.6,1.1-7.5,0.7-11.2,0.9l0-1.4c2.8,0,5.6-0.1,8.4-0.3c-3.1-1.4-6-3.1-7.9-6c-0.1-2.1-0.2-4.2-0.2-6.3
		C252.1,205.6,255,202.7,257.3,199.5L257.3,199.5z"/>
	<path class="st30" d="M264.5,199.8c4.1,0,8.2-0.6,12.2,0.1c4.4,1.5,7.8,4.9,11,8.1c-4.1,4.3-6.8,9.6-10.4,14.3
		c-3.5,4.8-9.8,5.7-14.8,8.4c-4.5,2.5-9.5,4.2-14.6,4.6c0-5,0-10-0.1-15c3.7-0.2,7.6,0.2,11.2-0.9c6-2.5,10.9-7.4,13.6-13.3
		C270.2,203.6,267.3,201.6,264.5,199.8L264.5,199.8z"/>
	<path class="st31" d="M177.2,206.8c4.1,0.4,6.7-3.7,10.6-4.5c0,5.7,0.1,11.3,0,17c-3.1,0.8-6.4,2.4-9.6,1.2c-2.4-1-4.9-0.7-7.2,0.4
		c2-4.7,5.9-8,8.7-12.1C178.9,208.2,178.1,207.5,177.2,206.8L177.2,206.8z"/>
	<path class="st32" d="M257.8,202.8C262,203.2,255.6,206.7,257.8,202.8L257.8,202.8z"/>
	<path class="st33" d="M142.7,219c5.6-4.3,9.6-10.6,16.4-13.2c0.2,4.3,0.8,8.5,1.6,12.7c1.5,0.3,3,0.7,4.4,1c-0.4,0.7-1.2,2-1.6,2.7
		c-4.4,3.3-10.1,5.8-12.2,11.3c-2.5,6.7-2.2,13.9-3.1,20.9c-1.6-1.6-4-2.9-3.8-5.5c-0.3-5.2,1-10.4,1.4-15.6
		c-2.4,3.5-3.9,7.6-5.3,11.5c-0.7,2.5-3.6,3.1-5.5,4.3c-2,0.7-3.9,1.5-5.9,2.2c0.2-2.2,0.6-4.3,0.9-6.5c2-0.2,4-0.4,6-0.6
		c-2.2,0.1-4.4,0.2-6.6,0.3c1.5-9.5,2.6-19.8,8.6-27.7c1.7-2,3.5-4,5.1-6.1C142.8,213.7,142.8,216.3,142.7,219L142.7,219z"/>
	<path class="st34" d="M259.1,207.7C263,205.8,259.5,211.9,259.1,207.7L259.1,207.7z"/>
	<path class="st35" d="M287.7,208c0.5,0.5,1,1.1,1.5,1.7c11.9,15.4,15.3,35.7,13.7,54.7c-2,1.1-4.1,2.1-6,3.5
		c-3.3,2.3-5.1,6.1-8.4,8.3c-5.8,2.9-13,2.2-18.1,6.4c-2.9,3.3-4.9,7.4-8.3,10.3c1.8,1.9,3.8,3.6,5.5,5.6c0.9,1.5,0.6,3.5,1.4,5.1
		c1.6,1.3,3.5,2.3,5.3,3.4c-4.7,0.7-9.4,0.5-14.1-0.1c-4.4-0.8-8.3,1.6-12.2,3.2c-0.1-24.9,0-49.8-0.1-74.8
		c5.2-0.4,10.1-2.1,14.6-4.6c4.9-2.7,11.3-3.5,14.8-8.4C280.8,217.6,283.5,212.3,287.7,208L287.7,208z"/>
	<path class="st35" d="M248.3,212.5c1.9,2.9,4.8,4.6,7.9,6c-2.8,0.2-5.6,0.3-8.4,0.3C248,216.7,248.2,214.6,248.3,212.5L248.3,212.5
		z"/>
	<path class="st36" d="M171,221c2.3-1.1,4.8-1.4,7.2-0.4c3.2,1.2,6.4-0.5,9.6-1.2c0,3.3,0,6.6,0,9.9c-6.2-2.2-12.6-3.9-19.2-3.5
		c-1.1-0.8-2.3-1.6-3.4-2.4C167.2,222.6,169.1,221.8,171,221L171,221z"/>
	<path class="st37" d="M151.3,233.5c2.2-5.5,7.9-7.9,12.2-11.3c0.4,0.3,1.2,0.8,1.7,1.1c1.1,0.8,2.3,1.6,3.4,2.4
		c-5.9,0.2-11.7,4-12.4,10.2c-1,7.9-3.8,15.5-4.5,23.4c-0.8,5.7,4.5,9.4,6.1,14.4c0.5,2.7,0.7,5.5,1.4,8.1c-0.8,3.5-1.5,6.9-2,10.4
		c-1.2,0-2.3,0.1-3.5,0.1c-1.2,2.8-2.7,5.6-3.6,8.5c1,5.7,2.9,11.2,4.2,16.9c-0.3,0.6-0.8,1.9-1,2.6c-2.8-3.1-4.4-7.4-8.2-9.5
		c-1-1.6-2-3.2-3-4.8c-5.7-9.8-9.7-20.6-11.4-31.8c0.5-3.3,1.2-6.6,1.7-9.9c2.4,4.7,2.1,10.5,5.3,14.8c2.2-0.6,4.3-1.1,6.5-1.5
		l1.1,1.3c2.3-3.3,4.4-6.8,4.8-10.9c-1.5,2-2.9,4.1-4.1,6.3c-1.8-2.8-4-5.6-5-8.8c-0.6-3.7-0.5-7.5-0.8-11.3
		c-1.4,0.3-2.7,0.5-4.1,0.8l1-1.1c1.2-1.3,2.4-2.7,3.5-4.1c-1.6-0.2-3.2-0.5-4.8-0.6l-1.1-0.1c1.9-1.3,4.9-1.8,5.5-4.3
		c1.4-4,2.9-8,5.3-11.5c-0.3,5.2-1.7,10.4-1.4,15.6c-0.1,2.6,2.2,3.9,3.8,5.5C149.1,247.5,148.9,240.2,151.3,233.5L151.3,233.5z"/>
	<path class="st29" d="M156.2,235.9c0.7-6.2,6.5-10,12.4-10.2c6.6-0.4,13,1.3,19.2,3.5v0.4c0,5.8,0,11.6,0,17.3l0,1.1
		c-1.9,1.9-3.8,3.9-5.6,5.9c-3.2,2.7-7.2,3.8-11.1,4.8c-0.2,0.8-0.5,2.5-0.7,3.4c-0.2,0.9-0.6,2.8-0.8,3.7
		c-5.6-5.2-8.8-12.1-12.5-18.5C155,243.8,155.7,239.7,156.2,235.9L156.2,235.9z"/>
	<path class="st38" d="M187.8,229.6c3.8,1.4,7.3,3.7,9.8,6.9c-0.9,4.9-1.6,9.8-2.6,14.7c-3,1.5-5.2,4.1-6,7.3
		c0.2-3.9-0.4-7.8-1.2-11.6C187.8,241.2,187.9,235.4,187.8,229.6L187.8,229.6z"/>
	<path class="st39" d="M99.8,231.3c4.1-0.5,8.3-0.1,12.5-0.3l-1.8,2.3c6.4-0.5,13,0,19.2,1.8c-5.7-1.1-11.5-2-17.3-1.6
		c-2.1,0.2-4.1-0.8-5.8-1.8C104.4,231.5,101.1,233.7,99.8,231.3L99.8,231.3z"/>
	<path class="st40" d="M151.7,259.3c0.7-7.9,3.5-15.5,4.5-23.4c-0.4,3.7-1.2,7.9,0.8,11.3c3.7,6.5,6.9,13.4,12.5,18.5
		c0.2-0.9,0.6-2.8,0.8-3.7c2,0.1,4.1,0.2,6.1,0.3c2.8,2.3,5.9,4.4,8.4,7.1c2.7-5-1.1-10-0.6-15.2c-0.5-0.1-1.5-0.3-2-0.4
		c1.9-2,3.7-4,5.6-5.9c0,8.8,0,17.6,0,26.5c-10-3.1-20.6-6.7-31-3.4c9.7,4.5,20.7,4.8,31,7.5c0,2.9,0,5.8-0.1,8.7
		c-4.8,2.1-9.1,5.1-13.7,7.5c-4.8-3.2-8.3-8-13.1-11.3c-0.5-0.4-1.4-1.3-1.8-1.7c-0.7-2.7-0.9-5.4-1.4-8.1
		C156.2,268.8,150.9,265,151.7,259.3L151.7,259.3z"/>
	<path class="st41" d="M112.1,250.3c5-2.7,10.6-4,16.1-5.1c-0.6,1.2-1.6,2-2.9,2.3C121,248.8,116.6,250.3,112.1,250.3L112.1,250.3z"
		/>
	<path class="st42" d="M370.1,244.7c2.6,6.8,2.4,14.2,5.1,21c2.7,9.6,8.1,19,7.1,29.2c-1.3-2.1-2.6-4.4-2.4-7
		c0-5.6-2.9-10.4-4.3-15.6c-1.6-5.8-3.3-11.5-5-17.2C370.4,251.6,370.3,248.2,370.1,244.7L370.1,244.7z"/>
	<path class="st43" d="M187.9,247c0.8,3.8,1.4,7.7,1.2,11.6c-0.2,2.8-0.1,5.5,0,8.3c0.9,0.8,1.8,1.5,2.8,2.3
		c-0.4,1.4-0.7,2.7-1.1,4.1c-0.5,2-0.6,4.1-0.6,6.2c14.1,5,31.8,8.4,44.5-1.7c0.4,0.1,1.1,0.3,1.5,0.3c0.6,5.9-4,10.1-6,15.3
		c-9.1,3.7-20.4,3.4-28,10.2c-3.3-3.8-8.1-2.7-12.4-1.9c-0.7-2.1-1.4-4.1-1.9-6.2c-0.1-2.7-0.1-5.3-0.1-8c0-2.9,0.1-5.8,0.1-8.7
		c0-1.4,0-2.7,0-4.1c0-8.8,0-17.6,0-26.5L187.9,247L187.9,247z"/>
	<path class="st44" d="M135.9,249.3c1.6,0.1,3.2,0.3,4.8,0.6c-1.2,1.4-2.3,2.8-3.5,4.1c-2.7,1.4-5.4,2.7-8,4c0-1.4-0.1-4.1-0.2-5.5
		C131.3,251.4,133.6,250.2,135.9,249.3L135.9,249.3z"/>
	<path class="st33" d="M136.3,255c1.4-0.3,2.7-0.6,4.1-0.8c0.3,3.8,0.2,7.5,0.8,11.3c1,3.2,3.2,6,5,8.8c-0.6,1.1-1.2,2.2-1.8,3.4
		c-2.2,0.4-4.4,0.9-6.5,1.5c-3.2-4.3-2.9-10.1-5.3-14.8c-0.5,3.3-1.2,6.6-1.7,9.9c-0.7-4.9-1.4-9.9-1.4-14.8
		C131.1,257.3,134,256.5,136.3,255L136.3,255z"/>
	<path class="st45" d="M171,258.7c3.9-1,8-2.1,11.1-4.8c0.5,0.1,1.5,0.3,2,0.4c-0.5,5.2,3.2,10.1,0.6,15.2c-2.5-2.8-5.5-4.8-8.4-7.1
		c-2-0.1-4.1-0.2-6.1-0.3C170.5,261.2,170.9,259.5,171,258.7L171,258.7z"/>
	<path class="st46" d="M370.5,255.1c1.7,5.7,3.4,11.5,5,17.2c1.4,5.2,4.3,10.1,4.3,15.6c-0.1,2.6,1.1,4.9,2.4,7
		c-1,7.3,2.9,14.1,2.5,21.3c-0.1,2.7-0.4,5.4-0.5,8.1c-1-1.7-2.1-3.2-3.4-4.7c-1.4,4.4-0.5,9.7-4,13.2c-1.6-2.2-2.3-5.9-5.5-6.2
		c-4.6-0.7-8.9,1.5-12,4.8c-4.1,4.3-10.3,4.5-15.8,5.1c4.3-4.4,8-9.5,11.3-14.7c3,0.9,5-1.7,7.3-3.2c2.2-1.9,5.1-2.5,7.6-3.9
		c2.1-3.3,3.7-7,4.5-10.8c-0.7-2.5-1.9-4.9-2.5-7.4c-1.3,0.3-2.6,0.6-3.8,0.9c-0.6-0.5-1.7-1.3-2.3-1.8
		C369.1,282.4,370.4,268.7,370.5,255.1L370.5,255.1z"/>
	<path class="st47" d="M123.5,260.7c1.9-0.9,2,1.7,0.4,2.1c-1.4,0.7-3,2.1-4.6,1.4C119.2,262.2,122,261.5,123.5,260.7L123.5,260.7z"
		/>
	<path class="st48" d="M296.8,267.8c1.9-1.3,4-2.4,6-3.5c-1.4,16.1-7,33.2-20.7,43c-9.7,7.3-22.5,3.8-33.7,4.5
		c-0.1-0.5-0.4-1.4-0.5-1.9c3.9-1.5,7.8-4,12.2-3.2c4.7,0.6,9.4,0.8,14.1,0.1c-1.8-1.1-3.7-2.1-5.3-3.4c-0.9-1.6-0.6-3.5-1.4-5.1
		c-1.7-2-3.7-3.7-5.5-5.6c3.4-2.9,5.4-7,8.3-10.3c5.1-4.2,12.4-3.5,18.1-6.4C291.7,273.9,293.5,270.1,296.8,267.8L296.8,267.8z"/>
	<path class="st49" d="M146.1,274.3c1.3-2.2,2.6-4.3,4.1-6.3c-0.4,4.1-2.6,7.6-4.8,10.9l-1.1-1.3
		C144.9,276.5,145.5,275.4,146.1,274.3L146.1,274.3z"/>
	<path class="st26" d="M156.8,271.1c10.4-3.3,21.1,0.3,31,3.4c0,1.4,0,2.7,0,4.1C177.6,275.9,166.6,275.6,156.8,271.1L156.8,271.1z"
		/>
	<path class="st39" d="M190.2,279.4c0-2.1,0.1-4.2,0.6-6.2c4,4.8,10,7.8,16.2,8.4c9.3-0.7,18.2-6.9,27.8-3.9
		C221.9,287.8,204.3,284.4,190.2,279.4L190.2,279.4z"/>
	<path class="st50" d="M159.2,281.9c0.5,0.4,1.4,1.3,1.8,1.7c0.5,6.3,4.3,11.6,7.2,17c2.4,4.5,6.4,7.7,10.6,10.4c2.9,0.8,6,0.7,9,1
		c-9.2,0.6-18.3-0.6-27.5,0.4c-0.7,2.8-1.1,5.6-1.1,8.5c-1.6-1-3.3-2-4.9-3c-1.3-5.6-3.2-11.2-4.2-16.9c0.9-3,2.4-5.7,3.6-8.5
		c1.2,0,2.3-0.1,3.5-0.1C157.7,288.8,158.4,285.3,159.2,281.9L159.2,281.9z"/>
	<path class="st51" d="M161,283.6c4.8,3.3,8.3,8,13.1,11.3c1.3,1.2,2.6,2.5,3.9,3.8c2.8,2.3,6.5,3,9.9,3.9c0,3.1,0,6.3,0,9.4
		c-3-0.2-6.1-0.1-9-1c-4.1-2.8-8.2-6-10.6-10.4C165.3,295.2,161.5,289.9,161,283.6L161,283.6z"/>
	<path class="st52" d="M174.1,294.8c4.6-2.4,8.9-5.3,13.7-7.5c0,2.7,0,5.3,0.1,8c-3.4,0.5-7.5,0.2-9.9,3.3
		C176.7,297.4,175.4,296.1,174.1,294.8L174.1,294.8z"/>
	<path class="st53" d="M178,298.6c2.4-3,6.4-2.7,9.9-3.3c0,2.4,0,4.8,0,7.2C184.4,301.6,180.8,300.9,178,298.6L178,298.6z"/>
	<path class="st54" d="M365.6,295.6c0.6,0.5,1.7,1.3,2.3,1.8c1.3-0.3,2.6-0.6,3.8-0.9c0.6,2.6,1.7,4.9,2.5,7.4
		c-0.9,3.8-2.4,7.5-4.5,10.8c-2.5,1.4-5.4,2.1-7.6,3.9c-2.2,1.4-4.3,4.1-7.3,3.2C359.6,313.7,363.1,304.8,365.6,295.6L365.6,295.6z"
		/>
	<path class="st55" d="M142.1,306.1c1,1.6,2,3.2,3,4.8c2.7,10.6,6.5,21.7,14.2,29.7c0.1,5.8-0.2,11.5,0.1,17.3c0,2.1,1,4.9,3.6,4.7
		c7.2,0.3,14.5,0,21.8,0.1c-2.8,3.7-0.8,8.2-0.7,12.3c0.1,4.9,2.7,9.2,3.4,14c-2,5.2-5.5,9.6-8.2,14.5c-2.7,0.4-5.5-0.7-8.1,0.1
		c-1.5,2.1-2.4,5.1-5.3,5.7c-13.9-8.6-26.9-18.7-38.1-30.6c5-10.1,9.2-21,8.2-32.4c-0.8-4.7,2.8-8.5,3.6-12.9
		c-0.1-2.6-2.1-4.7-3.3-6.9C140.4,320.4,142,313.2,142.1,306.1L142.1,306.1z"/>
	<path class="st56" d="M145.1,310.8c3.7,2.1,5.3,6.4,8.2,9.5c0.3-0.6,0.8-1.9,1-2.6c1.7,1,3.3,2,4.9,3c0.2,6.6,0.1,13.2,0.1,19.7
		C151.6,332.5,147.8,321.4,145.1,310.8L145.1,310.8z"/>
	<path class="st57" d="M380.8,319.7c1.2,1.5,2.4,3,3.4,4.7c0.7,7.7,2.4,15.3,2.5,23c0.2,10.5,0.3,20.9,0.8,31.4
		c-11.6,12.3-25.1,22.9-39.8,31.3c-5.6-4-12-0.9-17.1,2.3c0.9-1.9,2.4-3.4,3.9-4.7c3.1-2.6,4.3-6.8,7.6-9.3c3.4-3,7.9-4.8,10.5-8.5
		c2.7-5.8,8.5-8.9,12.1-14.1c3.3-4.7,8.7-9.1,8.2-15.4c-0.2-5.4,0.9-10.7,1.5-16.1c0.2-3.9,0.8-7.8,2.4-11.4
		C380.3,329.5,379.4,324.1,380.8,319.7L380.8,319.7z"/>
	<path class="st58" d="M359.3,331.5c3.1-3.2,7.4-5.5,12-4.8c3.2,0.3,3.9,4,5.5,6.2c-1.7,3.6-2.3,7.5-2.4,11.4
		c-0.6,5.3-1.7,10.7-1.5,16.1c0.5,6.3-4.9,10.7-8.2,15.4c-3.5,5.2-9.4,8.3-12.1,14.1c-1.9,0-3.8,0-5.6,0.1
		c4.7-7.2,7.7-15.4,11.4-23.1c0.9-1.3,0.5-2.7,0.1-4c-0.9-2.2,0.2-4.5,0.1-6.8c-0.4-2.3-1.4-4.5-2.1-6.8c-4-0.7-8-1.8-12.1-1.5
		c-5.1,0.9-8.6,5.2-13.2,7.2c-2.2,0.9-4.7,1.2-6.7,2.5c-4.1,3.5-5,9.5-9.7,12.4c-4.6,3.1-8.6,7-13,10.4c-2.5,2.4-6.2,0.6-9.3,1.1
		c-2.7,1.4-4.6,3.9-7.1,5.5c-3.3,1.1-7.2,0.6-10,3.1c-4.5,3.9-11.1,2.8-15.8,6.2c-5.4,2.7-7.8,8.8-12.9,11.8
		c-3.9,2.3-6.9,5.7-10,8.9c-0.8-1-1.7-2-2.5-3c-4.3,2.5-7.8,6.4-12.8,7.5c-1.8-2.1-3.5-4.7-6.6-4.8c0.5-1,1-2.1,1.5-3.1
		c-1.1-1.4-2.3-2.7-4.2-2.4c-4.7-0.6-9.4,0.4-14.1,0.1c-3.2-1.7-5.9-4.3-7.8-7.3c3.6-4.3,5.3-9.7,8.3-14.3c1.8-2.5,4.7-0.5,6.9,0.1
		c0.9-2.1,1.9-4.3,2.8-6.4c1.3,0.2,2.5,0.3,3.8,0.5c3.1-2.8,4.8-6.5,6-10.4c2-0.6,4.1-1.2,6.1-1.8c0-3.4,1.5-6.3,4-8.6
		c17.1,0.1,34.2,0,51.3,0.1c19.6,0.4,39.4-6,55-17.9c3.3-2.4,6.3-5.3,9.1-8.2C349,336,355.2,335.8,359.3,331.5L359.3,331.5z"/>
	<path class="st59" d="M331.1,354.9c4.6-2,8.1-6.3,13.2-7.2c4.1-0.2,8.1,0.8,12.1,1.5c0.8,2.2,1.8,4.4,2.1,6.8
		c0.1,2.3-1,4.6-0.1,6.8c0.4,1.3,0.8,2.7-0.1,4c-3.8,7.7-6.7,15.9-11.4,23.1c1.9,0,3.8-0.1,5.6-0.1c-2.7,3.8-7.2,5.5-10.5,8.5
		c-3.3,2.5-4.5,6.7-7.6,9.3c-1.6,1.3-3,2.8-3.9,4.7c-6.7,4.4-14.6,6.5-21.7,10c-0.1-1.3-0.1-2.6-0.1-3.9c-5.2,1.2-10.3,2.1-15.4,3.6
		c-4.3,1.2-7,5.2-10.9,7.2c-3.1,1.1-6.6,1.4-8.9,4c-23.5,1.9-47.4-0.4-70-7.3c2.5-0.8,5-1.7,7.5-2.6c0.3-2.8,1.9-5,3.8-7
		c3.1,0.1,4.8,2.7,6.6,4.8c5-1,8.5-5,12.8-7.5c0.8,1,1.6,2,2.5,3c3.1-3.2,6.1-6.6,10-8.9c5.1-3,7.5-9.1,12.9-11.8
		c4.7-3.5,11.3-2.3,15.8-6.2c2.7-2.5,6.7-2,10-3.1c2.6-1.6,4.4-4.1,7.1-5.5c3.1-0.5,6.8,1.3,9.3-1.1c4.3-3.5,8.4-7.3,13-10.4
		c4.7-2.9,5.7-8.9,9.7-12.4C326.4,356.1,328.9,355.9,331.1,354.9L331.1,354.9z"/>
	<path class="st60" d="M184.8,362.6c1.6,0,3.2,0,4.8,0c3.7,4.3,8.5,9.2,14.5,9.2c4.8-0.5,2.4-6.2,1.8-9.2c7.4,0,14.8,0,22.2,0
		c-2.4,2.3-4,5.2-4,8.6c-2,0.6-4.1,1.2-6.1,1.8c-1.2,3.9-3,7.6-6,10.4c-1.3-0.2-2.5-0.3-3.8-0.5c-0.9,2.1-1.9,4.3-2.8,6.4
		c-2.3-0.6-5.1-2.5-6.9-0.1c-3,4.6-4.7,10.1-8.3,14.3c-0.6-1.3-1.3-2.6-1.9-3.9c-3,1.3-5.9,2.6-9,3.7c2.7-4.8,6.1-9.3,8.2-14.5
		c-0.8-4.8-3.3-9.1-3.4-14C184,370.7,182,366.3,184.8,362.6L184.8,362.6z"/>
	<path class="st56" d="M189.6,362.6c5.4,0,10.9,0,16.3,0c0.6,3,3,8.7-1.8,9.2C198,371.8,193.3,366.9,189.6,362.6L189.6,362.6z"/>
	<path class="st61" d="M179.3,403.3c3-1.1,6-2.4,9-3.7c0.6,1.3,1.2,2.6,1.9,3.9c1.9,3.1,4.6,5.6,7.8,7.3c4.7,0.3,9.4-0.6,14.1-0.1
		c1.9-0.3,3.1,1.1,4.2,2.4c-0.5,1-1,2.1-1.5,3.1c-1.9,1.9-3.4,4.2-3.8,7c-2.5,1-5,1.8-7.5,2.6c-13.1-4.3-25.7-10-37.6-16.9
		c2.9-0.6,3.8-3.6,5.3-5.7C173.8,402.7,176.6,403.8,179.3,403.3L179.3,403.3z"/>
	<path class="st62" d="M330.5,412.4c5.1-3.2,11.5-6.3,17.1-2.3c-22.5,13.1-48.1,21.4-74.1,23.3c2.3-2.6,5.8-2.9,8.9-4
		c3.8-2.1,6.5-6,10.9-7.2c5.1-1.5,10.2-2.5,15.4-3.6c0,1.3,0.1,2.6,0.1,3.9C315.9,418.8,323.8,416.8,330.5,412.4L330.5,412.4z"/>
</g>
</svg>
