<?xml version="1.0" encoding="UTF-8"?>
<svg xmlns="http://www.w3.org/2000/svg" version="1.1" viewBox="0 0 250 250">
  <defs>
    <style>
      .cls-1 {
        fill: #fff;
      }
    </style>
  </defs>
  <!-- Generator: Adobe Illustrator 28.7.1, SVG Export Plug-In . SVG Version: 1.2.0 Build 142)  -->
  <g>
    <g id="Layer_1">
      <path d="M125,247.5c67.7,0,122.5-54.8,122.5-122.5S192.7,2.5,125,2.5,2.5,57.3,2.5,125s54.8,122.5,122.5,122.5Z"/>
      <path class="cls-1" d="M94.6,66c.2,0,.5,0,1,0,3.4-.3,6.6-.8,9.6-1.5,1.8-.4,3.4-.7,4.7-.9,2.5-.4,4.3-.8,6-.8.4,0,.9,0,1.3-.2,1.1-.2,2.3-.3,3.7-.1,2.7.3,5.2.7,7.6,1.3,1.6.4,2.7.6,3.4.6,1.5,0,3-.2,4.5-.7,2.1-.6,4-1.3,5.6-2.1,3.8-1.8,8.3-4.1,13.3-6.9,2.2-1.2,5.4-2.8,9.4-4.7,4.3-2,8.6-3.5,12.9-4.4,2-.4,4.2-.6,6.7-.6,4.6,0,8.7,1.3,12.3,4,1.8,1.3,3.6,3,5.3,5.1.8,1,1.3,2.1,1.4,3.4.3,3.1-.2,6.1-1.2,9-.4,1.1-.7,2-1.1,2.6-2.5,5.2-6.1,9.4-10.7,12.7-1.3,1-3.1,2-5.3,3.2-3.2,1.8-6.7,3.5-10.4,5.3-.4.2-.9.5-1.5.8-.7.4-1.5.7-1.9,1.2-.8.8-1.4,1.8-1.8,2.9-.7,2-1.2,3.6-1.5,4.9-.6,2.8-1.4,6.5-1.9,9.7-1.6,9.5-2.9,16.3-3.7,20.6-1,5.2-2.1,10.3-3.3,15.2-1.6,6.6-3.6,13.1-5.9,19.4-2.1,5.6-4.6,11-7.6,16.3-3.8,6.6-8.9,12.8-15.1,17.1-4.8,3.3-10.1,5.4-15.9,6.3-2.4.4-4.8.6-6.9,0-1.3-.4-2.5-1-3.8-1.7-3-1.6-5.9-3.9-8.8-6.7-1.4-1.4-2.7-2.9-3.8-4.4-.7-1-1.4-2.3-2.2-4-1.2-2.7-1.9-4.1-1.9-4.2-1.9-4.1-3.4-8.3-4.4-12.4-.9-3.8-1.5-8-1.6-12.6,0-2.4-.1-4.2-.2-5.2-.1-1.4-.5-5.7-1.1-12.9-.1-1.8-.5-5.1-1-9.8,0-.8-.2-1.6-.3-2.2-.1-.7-.3-1.5-.5-2.2,0,0-.5-2.2-1.5-6.5-.9-4-1.9-8-2.9-12-1.9-7.7-3.3-13.2-4.2-16.7-.9-3.3-3.5-5.5-6.5-7.9-3.4-2.8-5.7-4.7-6.9-5.7-2.1-1.8-4-3.7-5.6-5.8-2.4-3.1-3.6-6.5-3.7-10.1,0-3.2,1.1-6.7,2.6-9.8,1.7-3.3,4.9-4.8,8.5-5.1,4.1-.3,8.3.2,12.6,1.7,2.8,1,5.5,2.4,8.2,4.3,2,1.5,3.6,2.7,4.8,3.7,1.4,1.2,4.6,4.1,9.9,8.7.5.4.9.7,1.4.8ZM150.7,78c.2.8.6,1.5,1.2,2.1.3.3.7.3,1.3.2.8-.2,1.4-.6,1.8-1.3.3-.5.5-1.4.5-2.6,0-2.2-.1-5.8,2.5-6.5.6-.2,1.3-.3,2.2-.5,0,0,.1,0,.1-.2,0,0,0,0,0,0-.4-.8-1-1.4-1.6-1.9-.1,0-.1-.3,0-.4,0,0,0,0,0,0l1.6-1.4c.1-.1.2-.3,0-.5,0,0,0,0,0,0l-1.8-1.3c0,0-.1,0-.2,0-.9,0-1.5.3-1.8.8-.6.8-.9,1.5-1.8,1.6-1.2.1-2.4.2-3.5.2-1.3,0-2.2.3-2.6,1.5,0,.2,0,.5.2.6,1.6.9,2.9,1.6,3.2,3.5,0,.6-.2,1.1-.7,1.4-1.3.9-2.8.9-4.4,1-.2,0-.3,0-.2.3.1,1.7,1,2.7,2.7,2.9.6,0,1,.2,1.2.2.1,0,.2,0,.2.2ZM132.7,103.1c-2.8,3.3-4.6,7-5.5,11.1-.6,2.8-.6,5.3,0,7.5.7,2.8,2.2,4.9,4.6,6.2,1,.6,2.4,1.1,4.4,1.5,1.9.4,3.4.7,4.5.9,3.5.5,6.8-.4,8.6-3.4,1.7-2.7,2.7-5.6,3.1-8.7.1-.9.1-2.2-.1-3-.3-1.2-.6-2.5-.8-4-.3-2-.6-3.3-.9-4-.6-1.7-1.7-3.4-2.7-4.8-1.8-2.3-4.3-4-7.2-3.8-3,.2-5.9,2.2-7.9,4.5ZM84.7,114.1c0,3.3,1,7,3.7,9.2,2.7,2.2,6.3,2.6,9.4,1.1,3.9-1.8,5.9-6,5.9-10.3,0-4.2-2-8.4-5.9-10.3-3.1-1.5-6.7-1.2-9.4,1-2.7,2.2-3.7,5.9-3.7,9.2ZM102.8,168.8c-2.7,2.3-4.4,5.1-5.2,8.4-1.1,4.6-1.7,9.7-.4,14.1,1.8,6,7.4,8.3,13.4,8,7.2-.4,14.9-4,18.9-10.2,2.2-3.5,2.9-7.2,2.2-11.4-1.4-7.5-8.7-12.9-16.1-13.3-4.8-.3-9,1.2-12.8,4.4Z"/>
    </g>
  </g>
</svg>