<?xml version="1.0" encoding="UTF-8" standalone="no"?>
<svg
   xmlns:dc="http://purl.org/dc/elements/1.1/"
   xmlns:cc="http://creativecommons.org/ns#"
   xmlns:rdf="http://www.w3.org/1999/02/22-rdf-syntax-ns#"
   xmlns:svg="http://www.w3.org/2000/svg"
   xmlns="http://www.w3.org/2000/svg"
   id="svg8"
   version="1.1"
   viewBox="0 0 67.733332 67.733335"
   height="256"
   width="256">
  <defs
     id="defs2" />
  <metadata
     id="metadata5">
    <rdf:RDF>
      <cc:Work
         rdf:about="">
        <dc:format>image/svg+xml</dc:format>
        <dc:type
           rdf:resource="http://purl.org/dc/dcmitype/StillImage" />
        <dc:title></dc:title>
      </cc:Work>
    </rdf:RDF>
  </metadata>
  <g
     transform="translate(0,-229.26665)"
     id="layer1">
    <g
       id="g955">
      <circle
         style="opacity:1;fill:#e6007a;fill-opacity:1;fill-rule:nonzero;stroke:none;stroke-width:3.59302354;stroke-linecap:round;stroke-linejoin:round;stroke-miterlimit:4;stroke-dasharray:none;stroke-dashoffset:0;stroke-opacity:1;paint-order:stroke fill markers"
         id="path815"
         cx="33.866665"
         cy="263.13333"
         r="32.411457" />
      <g
         id="g938"
         transform="matrix(0.38288415,0,0,0.38288415,1.3215148,230.79222)">
	<g
   id="g936">
		<path
   id="path934"
   d="m 85,34.7 c -20.8,0 -37.8,16.9 -37.8,37.8 0,4.2 0.7,8.3 2,12.3 0.9,2.7 3.9,4.2 6.7,3.3 2.7,-0.9 4.2,-3.9 3.3,-6.7 C 58.1,78.3 57.6,75 57.7,71.7 58.1,57.6 69.5,46 83.6,45.3 c 15.7,-0.8 28.7,11.7 28.7,27.2 0,14.5 -11.4,26.4 -25.7,27.2 0,0 -5.3,0.3 -7.9,0.7 -1.3,0.2 -2.3,0.4 -3,0.5 -0.3,0.1 -0.6,-0.2 -0.5,-0.5 L 76.1,96 81,73.4 c 0.6,-2.8 -1.2,-5.6 -4,-6.2 -2.8,-0.6 -5.6,1.2 -6.2,4 0,0 -11.8,55 -11.9,55.6 -0.6,2.8 1.2,5.6 4,6.2 2.8,0.6 5.6,-1.2 6.2,-4 0.1,-0.6 1.7,-7.9 1.7,-7.9 1.2,-5.6 5.8,-9.7 11.2,-10.4 1.2,-0.2 5.9,-0.5 5.9,-0.5 19.5,-1.5 34.9,-17.8 34.9,-37.7 0,-20.9 -17,-37.8 -37.8,-37.8 z m 2.7,87 c -3.4,-0.7 -6.8,1.4 -7.5,4.9 -0.7,3.4 1.4,6.8 4.9,7.5 3.4,0.7 6.8,-1.4 7.5,-4.9 0.7,-3.5 -1.4,-6.8 -4.9,-7.5 z"
   class="st0"
   style="fill:#ffffff" />

	</g>

</g>
    </g>
  </g>
  <style
     type="text/css"
     id="style932">
	.st0{fill:#FFFFFF;}
</style>
</svg>
