<svg xmlns="http://www.w3.org/2000/svg" viewBox="0 0 67.733 67.733" height="256" width="256" xmlns:v="https://vecta.io/nano"><circle cx="33.867" cy="33.866" r="32.411" fill="#e6007a" paint-order="stroke fill markers"/><path d="M33.867 14.811a14.49 14.49 0 0 0-14.473 14.473c0 1.608.268 3.178.766 4.709.345 1.034 1.493 1.608 2.565 1.264 1.034-.345 1.608-1.493 1.264-2.565-.421-1.187-.613-2.45-.574-3.714.153-5.399 4.518-9.84 9.917-10.108 6.011-.306 10.989 4.48 10.989 10.414a10.45 10.45 0 0 1-9.84 10.414s-2.029.115-3.025.268l-1.149.191c-.115.038-.23-.077-.191-.191l.345-1.685 1.876-8.653c.23-1.072-.459-2.144-1.532-2.374s-2.144.459-2.374 1.532l-4.556 21.288c-.23 1.072.459 2.144 1.532 2.374s2.144-.459 2.374-1.532c.038-.23.651-3.025.651-3.025.459-2.144 2.221-3.714 4.288-3.982.459-.077 2.259-.191 2.259-.191 7.466-.574 13.363-6.815 13.363-14.435a14.49 14.49 0 0 0-14.473-14.473zM34.9 48.122c-1.302-.268-2.604.536-2.872 1.876-.268 1.302.536 2.604 1.876 2.872 1.302.268 2.604-.536 2.872-1.876s-.536-2.604-1.876-2.872z" fill="#fff"/><path d="M33.912 3.039c-17.021 0-30.869 13.832-30.869 30.834s13.848 30.834 30.869 30.834 30.869-13.832 30.869-30.834S50.934 3.039 33.912 3.039m0-3.039c18.685 0 33.912 15.208 33.912 33.873S52.599 67.747 33.912 67.747 0 52.538 0 33.873 15.227 0 33.912 0z" fill="#474747"/></svg>