<?xml version="1.0" encoding="UTF-8" standalone="no"?>
<svg
   xmlns:dc="http://purl.org/dc/elements/1.1/"
   xmlns:cc="http://creativecommons.org/ns#"
   xmlns:rdf="http://www.w3.org/1999/02/22-rdf-syntax-ns#"
   xmlns:svg="http://www.w3.org/2000/svg"
   xmlns="http://www.w3.org/2000/svg"
   xmlns:sodipodi="http://sodipodi.sourceforge.net/DTD/sodipodi-0.dtd"
   xmlns:inkscape="http://www.inkscape.org/namespaces/inkscape"
   viewBox="0 0 64.822 64.822"
   height="244.99774"
   width="244.99774"
   version="1.1"
   id="svg8"
   sodipodi:docname="DOT_BEP20.svg"
   inkscape:version="1.0.2-2 (e86c870879, 2021-01-15)">
  <metadata
     id="metadata8">
    <rdf:RDF>
      <cc:Work
         rdf:about="">
        <dc:format>image/svg+xml</dc:format>
        <dc:type
           rdf:resource="http://purl.org/dc/dcmitype/StillImage" />
      </cc:Work>
    </rdf:RDF>
  </metadata>
  <defs
     id="defs12" />
  <sodipodi:namedview
     id="namedview10"
     pagecolor="#ffffff"
     bordercolor="#666666"
     borderopacity="1.0"
     inkscape:pageshadow="2"
     inkscape:pageopacity="0.0"
     inkscape:pagecheckerboard="0"
     showgrid="false"
     inkscape:zoom="3.4101562"
     inkscape:cx="122.49698"
     inkscape:cy="122.50075"
     inkscape:window-width="1920"
     inkscape:window-height="1017"
     inkscape:window-x="-8"
     inkscape:window-y="-8"
     inkscape:window-maximized="1"
     inkscape:current-layer="svg8"
     inkscape:document-rotation="0" />
  <circle
     cx="32.410999"
     cy="32.410999"
     r="32.410999"
     fill="#e6007a"
     paint-order="stroke fill markers"
     id="circle2" />
  <path
     d="m 32.410999,13.355998 a 14.49,14.49 0 0 0 -14.473,14.473 c 0,1.608 0.268,3.178 0.766,4.709 0.345,1.034 1.493,1.608 2.565,1.264 1.034,-0.345 1.608,-1.493 1.264,-2.565 -0.421,-1.187 -0.613,-2.45 -0.574,-3.714 0.153,-5.399 4.518,-9.84 9.917,-10.108 6.011,-0.306 10.989,4.48 10.989,10.414 a 10.45,10.45 0 0 1 -9.84,10.414 c 0,0 -2.029,0.115 -3.025,0.268 l -1.149,0.191 c -0.115,0.038 -0.23,-0.077 -0.191,-0.191 l 0.345,-1.685 1.876,-8.653 c 0.23,-1.072 -0.459,-2.144 -1.532,-2.374 -1.073,-0.23 -2.144,0.459 -2.374,1.532 l -4.556,21.288 c -0.23,1.072 0.459,2.144 1.532,2.374 1.073,0.23 2.144,-0.459 2.374,-1.532 0.038,-0.23 0.651,-3.025 0.651,-3.025 0.459,-2.144 2.221,-3.714 4.288,-3.982 0.459,-0.077 2.259,-0.191 2.259,-0.191 7.466,-0.574 13.363,-6.815 13.363,-14.435 a 14.49,14.49 0 0 0 -14.473,-14.473 z m 1.033,33.311 c -1.302,-0.268 -2.604,0.536 -2.872,1.876 -0.268,1.302 0.536,2.604 1.876,2.872 1.302,0.268 2.604,-0.536 2.872,-1.876 0.268,-1.34 -0.536,-2.604 -1.876,-2.872 z"
     fill="#ffffff"
     id="path4" />
</svg>
