<?xml version="1.0" encoding="UTF-8" standalone="no"?>
<svg
   xmlns:dc="http://purl.org/dc/elements/1.1/"
   xmlns:cc="http://creativecommons.org/ns#"
   xmlns:rdf="http://www.w3.org/1999/02/22-rdf-syntax-ns#"
   xmlns:svg="http://www.w3.org/2000/svg"
   xmlns="http://www.w3.org/2000/svg"
   id="svg1033"
   version="1.1"
   viewBox="0 0 132.29166 132.29167"
   height="500"
   width="500">
  <title
     id="title1923">DRGN</title>
  <defs
     id="defs1027">
    <clipPath
       id="clip-path-11-3"
       transform="translate(0 0)">
      <path
         class="cls-2"
         d="m 375.83,790.65 c -8.7,4.57 -18.75,5.7 -35.62,1.5 a 54.28,54.28 0 0 1 -25.42,-14.48 41.19,41.19 0 0 0 -3.53,-12.3 c -6.15,-13 -16.28,-17 -16.28,-17 a 32,32 0 0 1 8.78,11.7 29.73,29.73 0 0 1 2.32,12.07 30.56,30.56 0 0 1 -1.72,10 c 0,0 -16.13,3.6 -32.4,-2 a 50.24,50.24 0 0 1 -22,-14.4 c -0.68,-0.75 -1.28,-1.5 -1.73,-2.1 a 21.49,21.49 0 0 1 -1.64,-2.48 c -0.08,0 -0.16,0.08 -0.23,0.08 -1.35,0.37 -2.85,0.82 -4.5,1.2 a 50.13,50.13 0 0 1 -22.35,0.07 c -7.8,-1.65 -12.6,-7.35 -15.3,-11.92 -0.6,-1 -1,-2 -1.5,-2.78 a 20.65,20.65 0 0 1 -1.35,-3.45 28,28 0 0 1 -4.27,-0.45 2,2 0 0 1 -0.68,-0.15 c -5.32,-1 -14.1,-3.45 -21.38,-10 a 29.68,29.68 0 0 1 -7.27,-10.13 c -0.15,-0.37 -0.38,-0.75 -0.53,-1.2 a 41.41,41.41 0 0 1 -2.85,-15.6 c 0,0 10.5,-2.85 12.53,-13 A 40.8,40.8 0 0 0 176.46,675 c -0.53,-1.72 -0.9,-2.7 -0.9,-2.7 a 11.49,11.49 0 0 1 -0.08,1.58 c -0.07,1.5 -0.14,3.45 -0.37,5.4 a 19.19,19.19 0 0 1 -0.3,1.95 23.47,23.47 0 0 1 -2,6.67 c -2.62,5.25 -9.6,13.73 -23.1,8.63 -13.5,-5.1 -11.25,-23.4 -11.25,-23.4 -8.09,-2.63 -19.12,-5.4 -28.27,-18.15 a 48.46,48.46 0 0 1 -7.2,-16 c -0.23,-1 -0.45,-2.1 -0.68,-3.08 a 49.61,49.61 0 0 1 -1,-9.37 c 14.25,-2.25 15.22,-13.35 15.22,-13.35 a 10.81,10.81 0 0 1 -2.85,2.7 19.27,19.27 0 0 1 -2.09,1.2 22.58,22.58 0 0 1 -14.33,1.35 27.61,27.61 0 0 1 -19.35,-17.18 c -3.38,-8.85 -1.35,-18.37 0.68,-24.3 0.75,-2.1 1.5,-3.82 1.94,-4.87 a 10.14,10.14 0 0 1 0.68,-1.28 c -0.37,-0.22 -0.68,-0.45 -1.12,-0.67 a 11.36,11.36 0 0 1 -1.21,-0.75 c -6.07,-3.75 -16.87,-11.55 -19.95,-25.2 a 41.75,41.75 0 0 1 0.3,-19.43 c 0.08,-0.3 0.15,-0.67 0.23,-1 a 43.52,43.52 0 0 1 1.54,-4.68 25.91,25.91 0 0 1 1.35,-2.92 23.05,23.05 0 0 1 -2.25,-1.8 36.82,36.82 0 0 1 -11.55,-19.5 c -2.25,-11 1,-21.53 3.38,-27 0.67,-1.5 1.2,-2.7 1.57,-3.38 a 6.84,6.84 0 0 1 0.38,-0.67 c 7.27,4.27 23,3.67 28.05,-10.05 a 59.69,59.69 0 0 0 2.7,-10.05 71.7,71.7 0 0 0 1,-17.48 77.45,77.45 0 0 1 -4.35,17.33 c -1.94,4.95 -4.72,9.45 -8.47,11.77 -8.7,5.33 -21.68,1.05 -23.78,-19.05 -1,-9 0.3,-15.37 1.88,-19.65 a 25.49,25.49 0 0 1 1.8,-3.75 13.86,13.86 0 0 1 2.92,-3.75 c 5,1.5 13.8,2 19.8,-11.92 a 62.58,62.58 0 0 0 4.2,-14.63 57.05,57.05 0 0 0 0.75,-12.75 c -0.37,1.88 -0.9,3.75 -1.42,5.55 a 72.42,72.42 0 0 1 -3.53,9.3 c -0.82,1.73 -1.65,3.38 -2.55,4.95 -3.75,6.53 -7.87,10.8 -10.72,10.65 -5.33,-0.37 -13.58,-10.72 -10.58,-33.9 1.88,-14.47 8.1,-23.25 12.6,-27.82 0.53,-0.6 1.13,-1.05 1.58,-1.5 a 20.54,20.54 0 0 1 3.15,-2.48 c 0,0 5.4,13.2 18,11.4 a 37.18,37.18 0 0 0 14.7,-5.62 29.88,29.88 0 0 0 5.55,-4.5 31.84,31.84 0 0 1 -6.38,2.32 c -6.37,1.73 -14.55,2.48 -17.92,-1.05 -5.63,-5.7 -5.1,-10.72 -2.63,-22.95 a 71.19,71.19 0 0 1 4.43,-13.87 55.61,55.61 0 0 1 3.68,-7.2 9.75,9.75 0 0 0 4.42,3.82 c 7.5,3.38 18.67,-1.65 18.67,-1.65 0,0 -2.62,13.35 0.38,20.63 a 10.46,10.46 0 0 0 5.25,5.62 c 5.7,2.63 13,0.45 13,0.45 -6.6,0.15 -15.6,-2.1 -14.18,-15.6 1.43,-13.27 16.2,-37.42 16.73,-38.17 a 94.09,94.09 0 0 1 -12.53,10.72 65.71,65.71 0 0 1 -18.37,9.38 3.4,3.4 0 0 1 -4.28,-4.13 c 2.55,-10.35 7.73,-26.47 27,-49.05 C 147.31,208.27 172.58,197 172.58,197 a 57.48,57.48 0 0 1 6.46,-0.08 c 7.42,0.38 19,2.55 22.42,11.78 3.52,9.67 1.5,20.47 -0.08,26.1 a 34.35,34.35 0 0 1 -1.27,3.9 c 40,-21.6 65.47,-20.85 81.6,-11.63 15.15,8.63 17.62,25.5 17.62,25.5 1.88,-4 12.23,-15.6 29.63,-29.1 17.4,-13.5 33.08,-12.15 37.87,-11 a 14.77,14.77 0 0 1 9.3,7.65 c 0.83,2.1 1.88,5.7 7.58,8.62 a 94.85,94.85 0 0 0 -26.4,15.08 c -28.58,1.72 -39.3,15 -39.3,15 -9.83,0.07 -19,3.6 -27.38,9.15 a 61,61 0 0 0 -15.22,14.55 48.35,48.35 0 0 0 -5.33,9.45 c -1.35,3.3 -1.12,4.5 -1,5.47 0.12,0.97 0.3,2.1 0.3,2.1 a 29.17,29.17 0 0 0 -5.78,9.75 c 0,0 -20.47,-1.5 -29.47,2.85 -9,4.35 -15.37,9.75 -19.8,18 -4.43,8.25 -9.15,21.75 -11.48,28.43 -2.33,6.68 -4.85,14.18 -4.85,14.18 -7.95,-0.23 -10.43,1.27 -11.4,7.72 -0.97,6.45 -1.13,14.48 -1.35,18.68 -0.22,4.2 1.65,4.5 1.65,4.5 -1.65,0.67 -2.55,3.37 -2.55,5.25 0,1.88 0.45,8.25 0.9,14.32 0.45,6.07 2.62,37.35 3.22,46.13 0.6,8.78 2.48,33.22 2.7,38.47 0.22,5.25 1.88,8.4 4.5,10.73 2.62,2.33 5.55,4.35 12.75,9.22 0.23,0.15 0.53,0.38 0.75,0.53 7.8,5.25 14.33,5.32 14.33,5.32 1.57,17.85 12.67,33.68 12.67,33.68 0,9.9 -2.92,34.87 9.53,54.6 12.45,19.73 28.12,26.77 28.12,26.77 0,0 -0.22,2.4 -0.15,6.38 0.08,7.35 1.05,19.87 5.63,31.72 7,18.08 16.8,36 29,48.9 12.2,12.9 26.33,23.85 33.68,27.9 4.28,2.33 13.12,7.2 24.15,12.15 a 37.47,37.47 0 0 0 -11.48,-0.67 c 13.08,3.15 18.78,10.35 21.18,15.6 z"
         id="path45-6" />
    </clipPath>
  </defs>
  <metadata
     id="metadata1030">
    <rdf:RDF>
      <cc:Work
         rdf:about="">
        <dc:format>image/svg+xml</dc:format>
        <dc:type
           rdf:resource="http://purl.org/dc/dcmitype/StillImage" />
        <dc:title>DRGN</dc:title>
      </cc:Work>
    </rdf:RDF>
  </metadata>
  <g
     transform="translate(0,-164.70832)"
     id="layer1">
    <g
       id="g3287"
       transform="translate(0.17666608,-0.01047711)">
      <g
         id="g3170">
        <path
           style="display:inline;opacity:1;fill:#2282c2;fill-opacity:1;fill-rule:evenodd;stroke:none;stroke-width:0;stroke-miterlimit:4;stroke-dasharray:none;stroke-opacity:1"
           d="m 0.85045518,230.85415 c 0,36.00414 29.29122782,65.29538 65.29537182,65.29538 36.004153,0 65.295373,-29.29124 65.295373,-65.29538 0,-36.00414 -29.29122,-65.29538 -65.295373,-65.29538 -36.004144,0 -65.29537182,29.29124 -65.29537182,65.29538 z"
           class="cls-1"
           id="Full" />
        <path
           id="path383"
           d="m 70.096616,272.97678 a 6.3839654,6.3839654 0 0 0 3.505035,0.34784 c 1.895711,-0.37335 2.808203,-1.56527 2.808203,-1.56527 0,0 1.113079,0.30494 2.722403,0 1.609326,-0.30494 2.129921,-1.39135 2.129921,-1.39135 0,0 0.800025,0.72235 2.931105,0.33045 2.131081,-0.3919 3.652287,-0.81162 5.217553,-0.4348 1.565267,0.37683 1.608166,1.65223 1.373956,2.39196 a 2.6957354,2.6957354 0 0 1 -1.217429,1.52121 c -0.521756,0.32233 -1.200038,0.73973 -1.261489,1.65222 -0.06145,0.91249 0.608714,2.11369 2.202967,2.33051 1.594252,0.21682 4.999575,-0.4348 6.738759,-3.15604 1.739185,-2.72124 1.913103,-4.50449 2.069629,-5.76597 0.156527,-1.26149 0.06957,-3.2001 -0.912492,-4.82566 -0.98206,-1.62556 -2.220358,-2.45225 -3.162996,-3.04357 l 1.507294,-1.68701 a 12.080373,12.080373 0 0 0 1.764691,-0.98322 c 0,0 1.452799,3.00067 1.895714,3.91316 0.17391,0.35712 0.50436,1.00061 0.84408,1.6615 a 1.0064079,1.0064079 0 0 0 1.85513,-0.14841 c 0.27015,-0.8348 0.55654,-1.69512 0.73046,-2.22615 0.4174,-1.2754 1.30439,-3.81693 2.80936,-6.00019 1.09569,-1.59077 2.24355,-2.36529 3.41692,-2.73863 a 1.136267,1.136267 0 0 0 0.59712,-1.73107 c -0.35712,-0.51248 -0.80003,-1.13859 -1.287,-1.84354 -1.33105,-1.9131 -2.50442,-4.6784 -2.95661,-7.45182 -0.31305,-1.89571 0.15652,-3.86099 0.95655,-5.70452 0.40001,-0.92757 -0.67828,-1.77397 -1.47831,-1.16526 l -2.11369,1.60005 c 0,0 1.00873,-3.93056 0.41741,-5.93062 0,0 0.46378,-1.74846 -0.2087,-3.38329 0,0 -0.0696,-2.75603 -0.87771,-5.49582 -0.80814,-2.7398 -2.18326,-4.18216 -2.18326,-4.18216 0,0 0.8522,-3.79142 0.75713,-7.42632 -0.0951,-3.63489 -0.71307,-6.85238 -1.957165,-9.63508 -1.244096,-2.78269 -3.956064,-6.41759 -7.495883,-7.06108 0,0 -1.034235,-0.75713 -1.843536,-0.53103 0,0 -2.112529,-2.04297 -4.556663,-2.27834 -2.444133,-0.23536 -3.21749,0.78264 -3.329957,1.38324 -0.112467,0.60059 0,1.03423 0.365228,1.7044 0.365229,0.67016 1.034235,2.00006 1.034235,2.00006 0,0 -0.713065,0.92176 -0.755966,2.02557 -0.0429,1.1038 0.713067,2.00006 0.713067,2.00006 l -1.016844,1.43541 h -1.060902 c 0,0 -1.078294,-1.74846 -2.5995,-2.25283 -1.521207,-0.50436 -2.87893,0.0441 -3.565329,0.50437 a 2.272534,2.272534 0 0 0 -1.721791,-0.81162 c 0,0 -0.861476,-2.15659 -3.594314,-2.574 a 12.926776,12.926776 0 0 0 -5.113202,0.30378 c 0,0 -0.32117,-2.40819 0.608714,-3.8691 0.929885,-1.46092 2.695735,-2.82676 2.243548,-4.13115 a 2.4684821,2.4684821 0 0 0 1.201196,-1.30438 c 0.408128,-0.97395 0.08696,-1.66962 0.08696,-1.66962 0,0 3.054006,-1.20468 3.262709,-2.49167 0.199427,-1.2441 -1.931654,-4.37463 -6.999637,-3.21749 a 1.3067071,1.3067071 0 0 0 -1.322939,-0.49625 c 0,0 -1.159456,-0.72118 -2.677184,0.27827 0,0 -4.339845,-0.38262 -8.174165,0.19131 -4.078967,0.60872 -6.392082,1.19192 -9.584066,2.56588 -3.503876,1.50729 -5.71264,3.07835 -8.477942,5.43437 -2.365291,2.01745 -4.687681,5.97468 -6.044245,8.34808 -1.40874,2.46153 -3.290537,6.17411 -3.565328,8.522 a 0.81741657,0.81741657 0 0 0 1.086411,0.86148 c 1.373955,-0.49625 3.782146,-1.32178 5.252336,-1.64411 a 0.46378245,0.46378245 0 0 1 0.104351,-0.0174 c 0,0 -3.617504,3.00067 -4.972907,7.61762 0,0 -6.974129,2.61806 -7.721978,6.76543 -0.513639,2.85226 2.17398,3.60011 2.17398,3.60011 0,0 0.06957,2.41747 0.782633,3.91317 a 3.4076415,3.4076415 0 0 0 -0.713066,1.60005 c 0,0 -3.53866,3.3659 -3.60127,7.81821 -0.06261,4.45231 3.399525,3.2001 3.739246,3.09575 l 0.888143,1.32178 c 0,0 -0.548423,2.5508 0.338561,4.18215 0,0 -2.104413,4.28999 -1.190761,7.61763 0.913651,3.32764 3.469093,3.43547 5.643073,0.98322 0,0 0.678282,2.85226 1.669617,4.07781 0,0 -0.373345,2.95661 1.159456,5.40886 1.5328,2.45225 3.669678,1.39135 4.216941,0.23189 l 0.374505,0.10435 c 0,0 0.338561,2.3479 1.634833,3.57345 1.296272,1.22554 3.469093,1.80063 3.469093,1.80063 0,0 0.782633,2.61689 3.02618,3.8436 2.243548,1.2267 3.060965,-0.8522 3.02618,-1.29627 0,0 2.139197,2.5508 7.279067,2.0789 0,0 1.729908,1.56527 4.695796,2.00818 2.96589,0.44291 4.487096,-0.54726 4.487096,-0.54726 0,0 3.806494,1.41221 7.501681,-0.84061 z"
           class="cls-12"
           style="isolation:isolate;fill:#ffffff;fill-opacity:1;stroke-width:0.11594561" />
        <path
           d="m 43.45308,204.82582 c 0,0 0.202905,-6.95673 -14.667121,-2.05803 l -0.01665,-0.0282 c 0,0 6.333784,-22.34108 32.692256,-20.94732 0,0 -0.409925,0.65589 -0.16397,1.02483 0,0 0.491911,-1.22979 2.25461,-1.47575 0,0 -0.04099,2.50057 0.860849,3.07447 0,0 -0.860849,-2.66454 0.041,-3.56639 0,0 0.122982,4.22228 3.11547,5.49306 0,0 -0.491923,0.65589 -2.295608,-0.86085 0,0 0.409926,1.39376 2.254609,1.51674 0,0 -1.106805,1.88567 -3.033474,0.49191 0,0 0.327941,1.14781 1.803686,1.35277 0,0 -5.53405,6.31292 -1.229789,14.22456 l 0.655892,-0.69688 c 0,0 0.327941,0.16397 0.450913,1.96766 0,0 2.213622,-3.27944 -0.573896,-3.07447 l -0.696879,-2.04965 c 0,0 5.534048,-2.09064 7.050791,0.45092 0,0 -1.270787,0.81986 -1.270787,1.68072 0.491922,0.082 2.828517,-4.05831 5.739018,2.37759 0,0 -2.090638,0.36893 -2.377592,1.27078 l -0.532909,-0.40993 c 0,0 1.393759,3.27944 2.705532,3.97632 0,0 -0.286941,-1.72171 -1.270775,-2.66455 0,0 2.213622,-4.18128 5.657021,2.13164 0,0 -0.16397,-2.70554 -2.828505,-4.05831 L 76.58797,201.4279 c 0,0 2.541562,-2.17263 4.550217,2.13163 0,0 3.44341,-1.1068 5.206108,2.29561 0,0 -3.238442,0.082 -1.434758,3.56639 0,0 -4.591203,0.61489 -2.090638,3.32043 0.532909,-0.32795 -1.803685,-3.15646 3.853337,-2.29561 0,0 -4.796171,-7.00979 4.509229,-1.51674 0,0 -1.35014,0.60648 -0.697946,2.66452 0,0 -4.739277,-1.81165 -1.376854,4.72478 0,0 -2.492831,-8.71969 2.89864,-2.10151 0,0 -3.536342,-9.22696 4.116069,-1.30439 0,0 -2.753708,0.6864 -1.942089,3.53634 0.08696,-0.23189 0.434796,-2.78269 2.347899,-2.66675 0.31885,0.20291 0.956551,0.37683 2.608776,3.27547 0,0 -4.289988,-0.75365 -3.21749,5.30451 0,0 1.753677,-11.72863 6.73934,3.02545 l -0.0435,0.0181 c 0,0 -1.9131,-2.66675 -3.391411,2.23195 0,0 2.434861,-5.30451 3.478371,0.23189 0,0 0.087,1.0725 -0.058,1.82615 0,0 -2.20296,0.058 -3.652282,4.31897 0.173918,-0.087 1.942092,-2.86965 3.652282,-2.9856 0,0.49277 0,7.76138 -2.898635,9.21768 0,0 -0.985538,-1.30439 -1.072498,-2.37689 0,0 -0.753646,-2.37688 -1.942089,-2.46384 0,0 -0.72466,-0.98554 -1.072496,-0.95655 0,0 1.217429,-4.08708 0.608714,-4.46391 -0.144932,0.029 -2.434858,-2.26094 -7.565452,2.95661 0,0 -0.753645,-0.31885 -1.623238,0.72466 l -1.245731,-0.51081 c 0,0 -0.143471,-1.55774 -1.619227,-1.98816 0,0 1.229788,-5.08313 0.614894,-5.16512 0,0 -3.668866,-1.49624 -7.727172,3.87384 0,0 -1.414258,-0.34844 -1.537229,1.18879 0,0 -0.922348,0.0615 -1.291287,1.33228 0,0 -1.721699,-0.20497 -3.607381,1.10681 0,0 0.717379,-4.25979 0.245967,-4.25979 0,0 0.573895,0.48843 0.471412,-3.4264 m 0,0 c 0,0 0.0205,-0.88134 -0.409927,-1.04532 -0.430424,-0.16397 0.163971,-1.10431 -0.08199,-2.52106 0.06149,-0.20497 -0.307452,-4.32476 -0.799363,-4.71419 0,0 1.189439,-9.87167 -10.115258,-10.10356 0,0 2.434858,-1.73918 2.956613,-1.62324 l 1.507294,0.23189 c 0,0 -1.101484,-0.98554 -2.029049,-2.43486 0,0 -2.608776,-3.13053 -8.406057,2.55081 0,0 -3.826205,-4.57985 -10.55105,-1.33338"
           style="fill:#2282c2;fill-opacity:1;stroke:none;stroke-width:0.11594561px;stroke-linecap:butt;stroke-linejoin:miter;stroke-opacity:1"
           id="path1612" />
        <path
           id="path1566"
           d="m 49.455999,225.51735 0.411607,4.7758 4.554344,0.1345 0.121742,-4.81754 z"
           style="fill:#2282c2;fill-opacity:1;stroke:none;stroke-width:0.11594561px;stroke-linecap:butt;stroke-linejoin:miter;stroke-opacity:1" />
        <path
           id="path385"
           d="m 91.086272,240.35955 a 2.0974561,2.0974561 0 0 0 0.216817,0.0777 c -0.408128,-0.087 -0.686398,-0.17392 -0.686398,-0.17392 0,0 -1.217429,-0.53915 -1.721792,-0.53915 -0.504363,0 -2.13108,0.6006 -3.105023,1.32179 -0.973943,0.72118 -1.913103,1.70439 -3.617504,2.59138 -1.7044,0.88698 -3.443584,0.98322 -4.000123,1.02612 -0.147251,0.009 -0.313054,0.0348 -0.477696,0.0614 -0.208703,0.0348 -0.417404,0.0696 -0.579728,0.10435 a 1.7148356,1.7148356 0 0 1 0.115946,-0.19131 c 0.243486,-0.3919 0.738572,-0.89626 1.121193,-1.26149 0.287545,-0.26899 0.51364,-0.46958 0.521756,-0.47769 -0.0429,0.0174 -1.565266,0.69567 -2.277172,1.62323 -0.711906,0.92757 -0.579728,1.74846 -0.279429,2.14848 0.313054,0.42552 1.870203,0.50436 1.870203,0.50436 a 4.8987021,4.8987021 0 0 0 0.626107,2.44297 2.6447194,2.6447194 0 0 0 0.286385,0.40929 c -2.008178,0.42552 -2.912554,1.46092 -3.165315,1.57338 -0.252762,0.11247 -1.329896,-0.99945 -2.939222,-1.19076 a 5.1862473,5.1862473 0 0 0 -2.89864,0.53915 c 2.825595,-0.72234 3.53982,1.71252 3.495761,2.43486 -0.04406,0.72234 -0.521756,1.75657 -1.460915,2.06035 -0.93916,0.30378 -2.330507,0.087 -3.234883,-0.0174 -0.904376,-0.10435 -1.17337,-0.269 -1.608166,-0.22609 -0.434796,0.0429 -0.608715,0.32232 -0.548423,0.64349 0.06029,0.32117 0.591324,0.95655 1.043511,1.33106 0.452188,0.3745 1.547874,1.32989 1.956003,1.93861 0.408128,0.60871 0.679441,1.37396 0.217977,1.60933 -0.461463,0.23536 -1.244096,-0.0348 -2.026729,-0.38263 -0.782632,-0.34783 -2.156589,-0.93104 -2.698055,-1.17221 -0.541466,-0.24116 -1.17337,-0.37334 -1.834259,0.44408 -0.66089,0.81741 -1.383231,2.26094 -0.817416,4.52999 0.434796,1.74846 2.183255,3.6175 2.956612,4.39202 -0.04406,-0.009 -0.08696,-0.0174 -0.115945,-0.0267 -3.060965,-0.70379 -6.365414,-2.12992 -8.348085,-3.79142 -1.982669,-1.6615 -3.565327,-3.99085 -4.374628,-5.87844 -0.809299,-1.8876 -0.991334,-3.53866 -0.869591,-4.95668 0.121743,-1.41801 0.869591,-3.16531 2.79197,-4.59956 1.922378,-1.43425 5.774092,-2.06963 7.374141,-2.2876 1.600049,-0.21798 4.765365,-0.30378 7.252398,0.54842 2.400075,0.82553 4.895223,2.73052 4.974067,2.79081 a 9.5829049,9.5829049 0 0 0 -2.68762,-2.37341 c 0,0 0.591324,-0.65277 0.434796,-2.02673 0,0 1.130471,0.28755 1.591934,-1.11308 0.278269,-0.8522 0.182034,-1.84353 0.06957,-2.47775 a 4.6679704,4.6679704 0 0 0 -0.156527,-0.65278 c 0,0 -0.06957,0.57973 -0.191309,1.20004 a 6.6738295,6.6738295 0 0 1 -0.304937,1.10496 c -0.330446,0.81162 -0.729298,0.8951 -1.182646,0.73858 -0.453347,-0.15653 -1.356564,-0.50437 -2.02557,-0.6435 -0.669006,-0.13914 -2.061513,-0.44291 -2.608776,-0.52987 -0.547264,-0.087 -1.565266,-0.30494 -1.782084,-0.60872 -0.216819,-0.30378 -0.07073,-1.50729 -0.01855,-1.93049 0.05218,-0.4232 0.173918,-1.02612 0.322329,-1.15946 0.14841,-0.13334 1.08757,-0.29566 1.565265,-0.39074 0.477696,-0.0951 1.507293,-0.15652 1.590774,-0.54842 0.08348,-0.39189 0.02667,-1.3299 0.965827,-2.74791 0.738574,-1.1038 1.895711,-1.93049 3.469093,-2.26094 a 6.7862967,6.7862967 0 0 1 0.869591,-0.12986 c 0.183194,-0.0174 0.374505,-0.0267 0.573932,-0.0267 0,0 0.131018,1.287 1.009885,1.87832 a 2.6389222,2.6389222 0 0 1 -0.463782,-1.7473 c 0.115946,-0.98322 0.956551,-1.72179 0.956551,-1.72179 a 5.7080025,5.7080025 0 0 0 1.704401,1.46903 3.8262052,3.8262052 0 0 0 1.32178,0.45219 6.3480222,6.3480222 0 0 1 -1.13047,-0.57393 4.003602,4.003602 0 0 1 -1.269604,-1.21743 2.4626848,2.4626848 0 0 1 -0.365229,-0.98206 0.11594561,0.11594561 0 0 1 0.182035,-0.11594 c 0.121743,0.0788 0.295661,0.20058 0.478855,0.33972 l 0.02551,0.0255 c 0.330444,0.25276 1.331055,0.98322 2.17398,1.39135 0.10435,0.0522 0.208701,0.0962 0.313053,0.13913 0.896259,0.34784 2.948496,0.31306 4.044182,0.0522 0,0 -0.231891,1.17453 -3.043572,1.17453 0,0 1.938611,0.66089 3.30445,-0.63538 a 3.1514017,3.1514017 0 0 1 -0.06145,1.65222 c -0.226093,0.73974 -1.208153,1.31367 -2.400075,1.21743 0,0 1.460915,0.49625 2.382683,-0.15652 a 3.3218418,3.3218418 0 0 0 1.200037,-1.62324 l 1.623239,0.64349 c 0,0 -1.13047,2.76531 0.811619,3.78215 0,0 -0.755965,-0.86959 -0.66089,-1.86093 0.07884,-0.8951 0.478855,-1.44352 0.81162,-1.72179 a 0.0846403,0.0846403 0 0 1 0.115945,0.009 5.3903115,5.3903115 0 0 0 1.304389,1.0609 7.399649,7.399649 0 0 0 1.408738,0.6435 0.42899877,0.42899877 0 0 1 -0.06957,-0.0348 6.6204945,6.6204945 0 0 1 -1.693967,-1.24177 c -0.76524,-0.81162 -0.869591,-1.46092 -0.869591,-1.46092 l 0.278269,-0.19942 c 0,0 0.626107,0.92176 1.495698,1.37395 a 7.2837033,7.2837033 0 0 0 2.061514,0.6435 11.542386,11.542386 0 0 0 1.173369,0.14725 14.153481,14.153481 0 0 0 2.270215,-0.0777 1.5907738,1.5907738 0 0 1 -1.075975,0.88698 9.5701508,9.5701508 0 0 1 -1.773968,0.28639 c 0,0 1.98267,0.39189 3.246477,-0.60872 -0.0429,-0.0348 0.418563,4.18332 -4.451151,3.31373 z"
           class="cls-13"
           style="isolation:isolate;fill:#2282c2;fill-opacity:1;stroke:none;stroke-width:0.11594561;stroke-opacity:1" />
        <g
           transform="matrix(0.11594561,0,0,0.11594561,18.392276,179.19297)"
           id="g389"
           clip-path="url(#clip-path-11-3)"
           class="cls-14"
           style="isolation:isolate;fill:#2282c2;fill-opacity:1;stroke:none;stroke-opacity:1">
          <rect
             id="rect387"
             height="599.62"
             width="337.42001"
             y="196.72"
             x="46.290001"
             class="cls-15"
             style="fill:#2282c2;fill-opacity:1;stroke:none;stroke-opacity:1" />
        </g>
        <path
           id="path395"
           d="m 53.86541,268.70709 a 3.5595303,3.5595303 0 0 1 -0.200586,1.15946 c 0,0 -1.869043,0.4174 -3.755478,-0.2319 a 5.8309048,5.8309048 0 0 1 -2.555441,-1.66613 c -0.07768,-0.087 -0.147251,-0.17392 -0.199426,-0.24349 a 2.4348578,2.4348578 0 0 1 -0.19131,-0.28755 c -0.0081,0 -0.01739,0.009 -0.02667,0.009 -0.155367,0.0429 -0.329285,0.0951 -0.521755,0.13914 a 5.8065562,5.8065562 0 0 1 -2.590226,0.008 c -0.905535,-0.19131 -1.462074,-0.8522 -1.775126,-1.38207 -0.06957,-0.11595 -0.115947,-0.23189 -0.17392,-0.32233 a 2.5287738,2.5287738 0 0 1 -0.156526,-0.40001 3.2464772,3.2464772 0 0 1 -0.495088,-0.0522 0.24116687,0.24116687 0 0 1 -0.07884,-0.0174 c -0.61683,-0.11594 -1.634833,-0.40001 -2.477758,-1.15945 a 3.41112,3.41112 0 0 1 -0.842924,-1.17453 c -0.01855,-0.0429 -0.04406,-0.087 -0.06145,-0.13914 a 4.8013078,4.8013078 0 0 1 -0.330444,-1.80875 c 0,0 1.217428,-0.33045 1.451638,-1.50729 a 4.6981162,4.6981162 0 0 0 -0.05218,-2.18326 c 2.426742,2.70501 4.98566,5.01813 6.840791,6.12193 2.434858,1.44352 6.896444,3.29633 7.922564,3.72185 a 3.594314,3.594314 0 0 1 0.270152,1.4157 z"
           class="cls-18"
           style="isolation:isolate;fill:#2282c2;fill-opacity:1;stroke:none;stroke-width:0.11594561;stroke-opacity:1" />
        <path
           id="path397"
           d="m 49.142946,236.97625 a 2.0348455,2.0348455 0 0 1 -0.295661,0.0522 2.9821211,2.9821211 0 0 1 -1.538599,-0.2203 2.3965959,2.3965959 0 0 1 -0.534509,-0.30146 c 0,0 0.463782,-1.07017 1.095686,-1.61744 0.927565,-0.79191 1.573382,-0.83481 1.756576,-0.82669 a 0.03014586,0.03014586 0 0 1 0.02667,0.0441 c -0.587844,1.24294 -0.51016,2.86965 -0.51016,2.86965 z"
           class="cls-19"
           style="isolation:isolate;fill:#2282c2;fill-opacity:1;stroke:none;stroke-width:0.11594561;stroke-opacity:1" />
        <path
           id="path405"
           d="m 54.170347,235.30664 a 1.4945389,1.4945389 0 0 1 -0.231891,0.11594 2.8058838,2.8058838 0 0 1 -1.495697,0.20059 3.169953,3.169953 0 0 1 -0.722343,-0.1832 c 0,0 0.27943,-1.14786 0.869593,-1.9131 0.782632,-1.00872 1.51309,-1.11308 1.687008,-1.12119 0.01739,0 0.03478,0.0174 0.02667,0.0348 -0.412766,1.08293 -0.133338,2.86618 -0.133338,2.86618 z"
           class="cls-19"
           style="isolation:isolate;fill:#2282c2;fill-opacity:1;stroke:none;stroke-width:0.11594561;stroke-opacity:1" />
        <path
           id="path413"
           d="m 58.682951,236.02782 a 2.0278887,2.0278887 0 0 1 -0.357112,0.14841 3.2070556,3.2070556 0 0 1 -1.252214,0.12174 4.0233128,4.0233128 0 0 1 -0.773357,-0.14841 c 0,0 -0.03478,-0.69567 0.70379,-1.84353 0.644658,-0.99134 1.313664,-1.23482 1.530482,-1.287 a 0.04289988,0.04289988 0 0 1 0.05217,0.0522 c -0.333922,1.28699 0.09624,2.95661 0.09624,2.95661 z"
           class="cls-19"
           style="isolation:isolate;fill:#2282c2;fill-opacity:1;stroke:none;stroke-width:0.11594561;stroke-opacity:1" />
        <path
           id="path451"
           d="m 70.79579,182.69632 c -0.686399,0.57972 -1.617443,0.93916 -2.382683,1.33917 -0.765242,0.40001 -1.26033,1.17685 -1.26033,1.17685 a 4.3247713,4.3247713 0 0 1 -0.513638,-0.33857 7.7776317,7.7776317 0 0 1 1.855129,-1.33917 c 1.130471,-0.57973 1.547875,-0.53914 2.042963,-1.15945 a 1.4504796,1.4504796 0 0 1 0.258559,0.32117 z"
           class="cls-36"
           style="isolation:isolate;fill:#2282c2;fill-opacity:1;stroke:none;stroke-width:0.11594561;stroke-opacity:1" />
        <path
           id="path475"
           d="m 86.500622,200.03598 a 1.4551175,1.4551175 0 0 1 -0.477696,-0.27015 c -0.626106,-0.55654 -0.513639,-1.4957 -0.513639,-1.4957 a 3.7288109,3.7288109 0 0 0 0.463783,0.13913 1.4597553,1.4597553 0 0 0 0.231891,1.16526 2.4916712,2.4916712 0 0 1 0.295661,0.46146 z"
           class="cls-44"
           style="isolation:isolate;fill:#2282c2;fill-opacity:1;stroke:none;stroke-width:0.11594561;stroke-opacity:1" />
        <path
           id="path477"
           d="m 86.344096,197.55706 a 2.1623857,2.1623857 0 0 0 -0.260878,0.46958 0.91828925,0.91828925 0 0 1 -0.313053,-0.23189 0.11594561,0.11594561 0 0 1 0.06957,-0.18319 c 0.104351,-0.0104 0.260878,-0.0371 0.504364,-0.0545 z"
           class="cls-44"
           style="isolation:isolate;fill:#2282c2;fill-opacity:1;stroke:none;stroke-width:0.11594561;stroke-opacity:1" />
        <path
           id="path479"
           d="m 98.61462,214.80977 a 11.627026,11.627026 0 0 0 -0.817417,-1.09568 l 0.01739,-0.55654 c 0.02551,-0.12986 0.616831,-3.19083 -0.27827,-7.4611 -0.826692,-3.98274 -3.435468,-6.25179 -3.547935,-6.34803 l -0.183194,-0.15652 a 0.34783684,0.34783684 0 0 0 -0.486972,0.0267 l -0.165802,0.18203 a 2.4348578,2.4348578 0 0 1 -0.486971,0.38262 2.3652905,2.3652905 0 0 1 -0.643499,0.25276 l -0.478855,0.10435 a 0.28638567,0.28638567 0 0 0 -0.164643,0.41741 l 0.208702,0.35595 a 12.192841,12.192841 0 0 1 1.382072,3.56533 c 0.391896,1.93977 0.243486,3.73113 0.07884,4.57405 a 3.594314,3.594314 0 0 0 -0.913651,-0.34783 l 0.04406,-0.31306 a 14.583639,14.583639 0 0 0 -0.115945,-4.20882 c -0.40813,-2.14732 -1.02612,-2.94734 -1.095686,-3.0343 l -0.115947,-0.14841 a 0.42320149,0.42320149 0 0 0 -0.61683,-0.0429 l -0.139135,0.12986 a 0.72813845,0.72813845 0 0 1 -0.357112,0.1658 h -0.08696 a 2.4070309,2.4070309 0 0 1 -0.591322,-0.0696 l -0.260878,-0.0962 a 0.264356,0.264356 0 0 0 -0.355953,0.23189 c -0.0093,0.0777 -0.01739,0.17392 -0.03478,0.26899 -0.05217,0.28755 -0.08696,0.40929 -0.115946,0.72234 a 6.0106206,6.0106206 0 0 1 -0.365228,1.5073 5.6407541,5.6407541 0 0 1 -0.896261,1.53048 4.5937652,4.5937652 0 0 0 -0.8951,-1.3299 c 0.8951,-1.41801 1.451639,-3.4088 1.582658,-3.73924 0,-0.009 0.0081,-0.0267 0.0081,-0.0348 a 0.82669222,0.82669222 0 0 0 0.139135,-0.11594 c 0,0 -0.05218,0.009 -0.139135,0.0174 -0.05218,-0.15653 -0.463782,-0.0522 -0.811619,-0.55654 -0.303778,-0.4174 -0.147251,-0.88698 -0.02551,-1.12119 a 3.1664747,3.1664747 0 0 0 1.32178,-0.34784 5.615246,5.615246 0 0 1 -1.296272,0.087 1.0435105,1.0435105 0 0 1 -0.06957,-0.71307 c 0.573931,-0.0696 1.331057,-0.23189 1.904987,-0.53914 0.74785,-0.40002 1.026118,-0.60872 1.486423,-1.08757 0.417404,-0.44291 0.921767,-1.3299 1.026119,-1.31251 0.104351,0.0174 0.01739,0.72118 -0.231891,1.2754 a 3.9235995,3.9235995 0 0 1 -1.507294,1.75658 c 0,0 0.774517,-0.33856 1.147861,-0.69567 a 3.2951743,3.2951743 0 0 0 0.670166,-0.8696 c 0.173919,-0.30377 0.260878,-0.49508 0.434796,-0.55653 0.173918,-0.0615 0.591324,0.25276 0.765242,0.67016 0.173918,0.41741 0.338561,0.90438 0.321168,2.01745 0,0 0.217979,-0.28754 0.330446,-1.11307 0.765241,0.47769 4.243609,2.86965 5.20016,7.64313 1.081774,5.45756 0.440594,9.12724 0.221457,10.12669 z"
           class="cls-13"
           style="isolation:isolate;fill:#2282c2;fill-opacity:1;stroke:none;stroke-width:0.11594561;stroke-opacity:1" />
        <path
           id="path487"
           d="m 92.970388,200.34903 c -0.0081,0.008 -0.01739,0.008 -0.02551,0.0174 a 1.4678714,1.4678714 0 0 1 -0.730457,0.23189 0.05681335,0.05681335 0 0 0 -0.04406,0.087 12.817787,12.817787 0 0 1 1.418014,3.68707 c 0.417405,2.08702 0.251602,4.11259 0.03478,5.04363 a 14.108262,14.108262 0 0 1 1.660342,1.29511 c 0.05218,-1.17105 0.173918,-6.56252 -2.313115,-10.36206 z"
           class="cls-47"
           style="isolation:isolate;fill:#2282c2;fill-opacity:1;stroke:none;stroke-width:0.11594561;stroke-opacity:1" />
        <path
           id="path495"
           d="m 89.083891,201.81807 a 0.12754017,0.12754017 0 0 0 -0.148411,0.12174 6.5775946,6.5775946 0 0 1 -0.434796,2.11369 c -0.463782,1.18264 -1.095686,1.80875 -1.095686,1.80875 a 11.046138,11.046138 0 0 1 1.348447,0.52175 c 0.817418,-1.82614 0.98206,-3.83548 1.016843,-4.52188 a 3.0853127,3.0853127 0 0 1 -0.686397,-0.044 z"
           class="cls-47"
           style="isolation:isolate;fill:#2282c2;fill-opacity:1;stroke:none;stroke-width:0.11594561;stroke-opacity:1" />
        <path
           id="path515"
           d="m 86.187569,205.79268 a 0.05681335,0.05681335 0 0 0 -0.03478,0.008 0.41624475,0.41624475 0 0 0 -0.01739,-0.0951 c 0.01739,0.0255 0.02667,0.0522 0.03479,0.0603 a 0.00927565,0.00927565 0 0 0 0.0093,0.009 z"
           class="cls-44"
           style="isolation:isolate;fill:#2282c2;fill-opacity:1;stroke:none;stroke-width:0.11594561;stroke-opacity:1" />
        <path
           id="path605"
           d="m 67.570183,271.01209 a 28.156233,28.156233 0 0 1 -3.752001,-0.76524 c -0.644658,-0.1832 -1.275402,-0.40929 -1.887595,-0.6435 a 4.214623,4.214623 0 0 1 1.165254,1.15946 c 0.517118,0.24 2.352537,0.94495 4.474342,0.24928 z"
           class="cls-52"
           style="isolation:isolate;fill:#2282c2;fill-opacity:1;stroke:none;stroke-width:0.11594561;stroke-opacity:1" />
        <path
           id="path629"
           d="m 72.13496,271.28108 a 1.6962843,1.6962843 0 0 0 0.965828,0.21798 0.9855377,0.9855377 0 0 0 0.695673,-0.35711 6.0059828,6.0059828 0 0 1 -1.661501,0.13913 z"
           class="cls-44"
           style="isolation:isolate;fill:#2282c2;fill-opacity:1;stroke:none;stroke-width:0.11594561;stroke-opacity:1" />
        <path
           id="path663"
           d="m 50.091381,255.13334 c -2.17398,-0.83481 -4.565939,-2.38269 -5.644233,-5.12248 -1.190761,-3.0343 -0.164642,-5.42626 -0.164642,-5.42626 -1.590774,-1.66961 -1.773968,-3.4343 -1.764692,-4.20882 0.02551,0.0174 0.06029,0.0441 0.08696,0.0615 0.903218,0.60872 1.660342,0.61683 1.660342,0.61683 0.182034,2.06963 1.465552,3.90505 1.465552,3.90505 0,1.14786 -0.33972,4.04302 1.103803,6.33063 1.443522,2.28761 3.26039,3.10386 3.26039,3.10386 0,0 -0.01159,0.28755 -0.0035,0.73974 z"
           class="cls-69"
           style="isolation:isolate;fill:#2282c2;fill-opacity:1;stroke:none;stroke-width:0.11594561;stroke-opacity:1" />
        <path
           id="path665"
           d="m 97.857495,254.3936 c -0.8951,1.41802 -3.043573,4.36536 -5.652349,6.71325 -2.912554,2.62617 -5.895834,4.6529 -8.695921,5.78337 -2.800087,1.13047 -5.938734,2.15659 -9.026365,2.30384 -3.087632,0.14725 -6.000186,0.009 -9.06115,-0.6864 -3.060965,-0.69567 -6.365414,-2.13108 -8.348085,-3.79142 -1.982669,-1.66034 -3.565327,-3.99201 -4.373468,-5.87844 -0.80814,-1.88644 -0.991334,-3.53982 -0.869591,-4.95668 0.121742,-1.41685 0.869591,-3.16531 2.79081,-4.60072 1.921219,-1.4354 5.774092,-2.06963 7.3753,-2.28644 1.601209,-0.21682 4.764206,-0.30494 7.251239,0.54726 2.434858,0.83481 4.887108,2.73052 4.974067,2.79197 -0.09507,-0.0522 -3.312566,-1.87832 -5.764816,-2.42674 -2.487033,-0.54727 -5.652349,-0.39074 -8.539394,0.20058 -2.887046,0.59133 -5.24422,1.82615 -6.000186,2.89864 -0.755965,1.0725 -1.244096,2.02673 -1.070178,4.37463 0.173919,2.3479 1.244096,4.17404 2.550804,5.89584 a 17.308361,17.308361 0 0 0 5.086533,4.53927 c 2.17398,1.2754 5.435531,2.08702 7.768356,2.46036 2.332826,0.37335 6.130045,0.37451 8.243734,0.0267 2.113688,-0.34784 4.852324,-0.93916 7.37414,-2.08702 2.521818,-1.14786 4.52188,-2.37457 6.029172,-3.53982 1.507293,-1.16525 2.417466,-2.00006 4.087084,-3.6778 a 50.436341,50.436341 0 0 0 3.870264,-4.6042 z"
           class="cls-44"
           style="isolation:isolate;fill:#2282c2;fill-opacity:1;stroke:none;stroke-width:0.11594561;stroke-opacity:1" />
        <path
           id="path691"
           d="m 83.876773,247.95051 c 0,0 -0.463782,1.15945 0.165803,2.06035 a 2.7003734,2.7003734 0 0 0 1.623238,1.07018 c 0,0 -2.313115,0.46378 -4.460428,-0.54843 -2.147312,-1.0122 -2.000062,-3.04357 -1.991946,-3.20821 z"
           class="cls-82"
           style="isolation:isolate;fill:#2282c2;fill-opacity:1;stroke:none;stroke-width:0.11594561;stroke-opacity:1" />
        <path
           id="path693"
           d="m 68.708768,246.60206 a 13.486794,13.486794 0 0 0 -1.755416,-0.46378 c -0.374505,-0.0789 -0.801185,-0.14841 -1.253373,-0.20059 a 3.1305316,3.1305316 0 0 1 -0.156526,-1.2754 c 0,0 1.60005,0.0696 2.339782,0.24348 l -0.09623,0.35596 -0.164642,0.6261 z"
           class="cls-82"
           style="isolation:isolate;fill:#2282c2;fill-opacity:1;stroke:none;stroke-width:0.11594561;stroke-opacity:1" />
        <path
           id="path701"
           d="m 95.188427,230.54707 a 3.185026,3.185026 0 0 0 -0.670166,0.0522 c -0.251602,0.71307 -1.182644,3.36243 -1.356564,4.12999 a 12.417776,12.417776 0 0 0 -0.216818,1.28699 6.8593424,6.8593424 0 0 0 1.051627,-0.12986 6.433822,6.433822 0 0 1 0.231891,-2.5508 c 0.420883,-1.39714 0.96003,-2.78849 0.96003,-2.78849 z"
           class="cls-19"
           style="isolation:isolate;fill:#2282c2;fill-opacity:1;stroke:none;stroke-width:0.11594561;stroke-opacity:1" />
        <path
           id="path709"
           d="m 83.1811,227.37596 h -0.02551 c -0.156526,0.34783 -0.452187,0.99945 -0.774516,1.7473 -0.434797,1.00061 -0.825534,2.7224 -0.825534,3.58272 a 5.9398938,5.9398938 0 0 0 0.921768,-0.0951 c 0,0 -0.208701,-1.10496 0.129859,-2.13108 0.338562,-1.02612 0.579729,-1.56526 0.791909,-2.27833 0.212181,-0.71307 0.129859,-0.84292 -0.217977,-0.82553 z"
           class="cls-19"
           style="isolation:isolate;fill:#2282c2;fill-opacity:1;stroke:none;stroke-width:0.11594561;stroke-opacity:1" />
        <path
           id="path711"
           d="m 51.92564,216.193 c 0,0 -0.173918,-0.0441 -0.842924,0.39074 -0.669006,0.4348 -1.244097,0.92756 -1.495698,1.25221 0,0 -0.452188,-2.23427 0.773357,-3.77403 a 2.2412287,2.2412287 0 0 1 0.679441,0.52176 3.8853375,3.8853375 0 0 1 0.721182,1.15945 c 0.06145,0.13682 0.114786,0.29335 0.164642,0.44987 z"
           class="cls-19"
           style="isolation:isolate;fill:#2282c2;fill-opacity:1;stroke:none;stroke-width:0.11594561;stroke-opacity:1" />
        <path
           id="path719"
           d="m 56.335052,215.76632 a 8.1706873,8.1706873 0 0 0 -2.278331,1.93977 4.2204202,4.2204202 0 0 1 0.869592,-3.71026 2.0220915,2.0220915 0 0 1 0.669007,0.54843 4.1972311,4.1972311 0 0 1 0.521754,0.77335 3.2974932,3.2974932 0 0 1 0.217978,0.44871 z"
           class="cls-19"
           style="isolation:isolate;fill:#2282c2;fill-opacity:1;stroke:none;stroke-width:0.11594561;stroke-opacity:1" />
        <path
           id="path727"
           d="m 61.615216,215.62719 c -1.094527,0.39189 -2.398915,1.93977 -2.398915,1.93977 0,0 -0.304937,-1.2441 -0.140295,-2.04412 0.164644,-0.80003 0.626107,-1.62324 0.782634,-1.76469 0.156526,-0.14146 0.409288,0.0522 0.76524,0.37334 0.03478,0.0348 0.07884,0.0696 0.121743,0.11595 0.231891,0.21681 0.478856,0.6261 0.644657,0.93915 0.135657,0.24929 0.224936,0.4406 0.224936,0.4406 z"
           class="cls-19"
           style="isolation:isolate;fill:#2282c2;fill-opacity:1;stroke:none;stroke-width:0.11594561;stroke-opacity:1" />
        <path
           id="path737"
           d="m 33.047376,259.45463 c -0.06957,0.38262 -0.243486,1.21743 -0.417404,1.46091 a 1.0203214,1.0203214 0 0 0 0.556538,0.35712 7.4726947,7.4726947 0 0 0 0.564656,-0.78264 6.6181756,6.6181756 0 0 1 -0.70379,-1.03539 z"
           class="cls-52"
           style="isolation:isolate;fill:#2282c2;fill-opacity:1;stroke:none;stroke-width:0.11594561;stroke-opacity:1" />
        <path
           id="path739"
           d="m 32.628813,260.91554 a 2.7734191,2.7734191 0 0 1 -0.531032,-1.0609 7.3254439,7.3254439 0 0 1 -0.199426,-1.57338 c -0.463783,-0.31305 -0.548422,-0.57973 -0.548422,-0.57973 a 5.3033523,5.3033523 0 0 0 0.288704,2.17978 3.5479357,3.5479357 0 0 0 1.200037,1.67773 0.93915947,0.93915947 0 0 0 0.355952,-0.28638 1.0435105,1.0435105 0 0 1 -0.565813,-0.35712 z"
           class="cls-44"
           style="isolation:isolate;fill:#2282c2;fill-opacity:1;stroke:none;stroke-width:0.11594561;stroke-opacity:1" />
        <path
           id="path741"
           d="m 26.803704,250.9848 c 0,0 -1.08757,1.07018 -1.800635,1.25221 -0.713065,0.18204 -0.869592,-0.669 -1.026118,-1.42613 -0.156527,-0.75712 -0.03478,-2.15658 0.07884,-2.95661 0.113626,-0.80002 0.70379,-2.5508 0.70379,-2.5508 l 0.409288,0.34783 c 0,0 0.01739,0.0696 0.0429,0.1832 -0.05217,0.15653 -0.121742,0.37334 -0.19131,0.6435 a 13.418386,13.418386 0 0 0 -0.295661,1.43424 c -0.02551,0.17392 -0.0429,0.35712 -0.05218,0.54843 a 14.044492,14.044492 0 0 0 0.173919,2.7653 c 0.0093,0.0255 0.0093,0.0522 0.01739,0.0777 v 0.0174 l 0.02667,0.0788 c 0,0.008 0,0.008 0.0081,0.0174 0.0081,0.009 0.0093,0.0348 0.01739,0.0429 0.0081,0.008 0.0093,0.009 0.0093,0.0174 a 0.07536465,0.07536465 0 0 1 0.01739,0.0348 c 0,0.009 0.0081,0.009 0.01739,0.0174 l 0.02551,0.0267 c 0.0093,0 0.0093,0.008 0.01739,0.008 a 0.04405933,0.04405933 0 0 0 0.03478,0.0174 c 0.0093,0 0.0093,0.009 0.01739,0.009 a 0.08579975,0.08579975 0 0 0 0.04406,0.008 h 0.01739 c 0.01739,0 0.0429,0.009 0.06957,0.009 0.156527,0 0.904375,-0.57973 1.304388,-0.90437 0.08696,-0.0696 0.156526,-0.13102 0.200585,-0.16581 0.06029,0.25508 0.112467,0.44639 0.112467,0.44639 z"
           class="cls-44"
           style="isolation:isolate;fill:#2282c2;fill-opacity:1;stroke:none;stroke-width:0.11594561;stroke-opacity:1" />
        <path
           id="path747"
           d="m 21.047005,235.84578 c -0.09624,-0.17391 -0.09624,-0.75712 0.382621,-2.40007 0.38262,-1.31366 1.23482,-2.5137 1.55599,-2.9311 -0.164643,-0.51249 -0.286386,-1.02612 -0.286386,-1.02612 -2.087021,2.81747 -2.504425,4.68768 -2.444134,5.7393 0.06029,1.05163 0.382621,1.40874 1.008727,1.47019 0.626107,0.0615 1.36584,-0.69567 1.36584,-0.69567 -0.0093,-0.21798 0,-0.42668 0.0081,-0.62611 -0.582047,0.51248 -1.503815,0.62611 -1.590774,0.46958 z"
           class="cls-44"
           style="isolation:isolate;fill:#2282c2;fill-opacity:1;stroke:none;stroke-width:0.11594561;stroke-opacity:1" />
        <path
           id="path753"
           d="m 22.386177,219.30614 a 6.6935403,6.6935403 0 0 0 1.275402,0.19131 11.140054,11.140054 0 0 1 2.434857,-3.17459 l 0.608715,-1.53048 a 10.818885,10.818885 0 0 0 -3.076037,1.95716 c -1.582658,1.44353 -1.312505,2.38268 -1.242937,2.5566 z"
           class="cls-13"
           style="isolation:isolate;fill:#2282c2;fill-opacity:1;stroke:none;stroke-width:0.11594561;stroke-opacity:1" />
        <path
           id="path755"
           d="m 23.542155,219.73166 c 0.03478,-0.0777 0.07884,-0.15652 0.115945,-0.23189 a 6.5462893,6.5462893 0 0 1 -1.275402,-0.19131 c 0.10783,0.26668 0.655093,0.40581 1.159457,0.4232 z"
           class="cls-52"
           style="isolation:isolate;fill:#2282c2;fill-opacity:1;stroke:none;stroke-width:0.11594561;stroke-opacity:1" />
        <path
           id="path761"
           d="m 92.962271,268.46128 c -1.623239,-1.65222 -4.235494,-1.46091 -5.547997,-1.25221 -0.504364,0.0788 -0.89626,0.13102 -1.182645,0.1658 -1.018003,0.53915 -1.652225,0.79075 -1.652225,0.79075 0,0 0.782632,0.2261 2.608776,-0.23189 1.826143,-0.45798 5.816991,-0.087 6.156711,3.01459 0.339721,3.10154 -2.026728,4.88711 -2.026728,4.88711 a 5.6929296,5.6929296 0 0 0 0.678282,-0.0255 c 2.965888,-2.65052 2.618052,-5.66742 0.965826,-7.34864 z"
           class="cls-44"
           style="isolation:isolate;fill:#2282c2;fill-opacity:1;stroke:none;stroke-width:0.11594561;stroke-opacity:1" />
        <path
           id="path763"
           d="m 97.109646,266.70703 c -0.738573,-3.56533 -4.460428,-4.01752 -4.460428,-4.01752 -0.656252,0.63538 -1.304389,1.20004 -1.93977,1.71368 0.861476,0.23189 2.550804,0.82553 3.661563,2.06035 1.547873,1.72179 1.138585,3.44359 1.138585,4.20883 0,0.76524 -0.147251,1.96296 -0.842924,3.00647 a 17.919394,17.919394 0 0 1 -1.487583,1.82614 c 3.147923,-1.22322 4.548546,-5.7625 3.930557,-8.79795 z"
           class="cls-94"
           style="isolation:isolate;fill:#2282c2;fill-opacity:1;stroke:none;stroke-width:0.11594561;stroke-opacity:1" />
        <path
           id="path765"
           d="m 86.118001,226.02519 c 0,0 -0.01739,-1.1038 0.904377,-1.7473 0.921767,-0.6435 1.713675,-0.23189 1.878319,-0.10435 0.164642,0.12754 0.417404,0.33856 0.713065,1.35656 0,0 -0.147251,-1.25221 0.374505,-2.00006 0.521754,-0.74785 1.295111,-0.73973 1.791359,-0.74785 0,0 -1.922378,-0.69567 -2.357174,1.44352 0,0 -0.46958,-0.67016 -1.312504,-0.60871 a 2.2377504,2.2377504 0 0 0 -1.678893,0.90438 c -0.313054,0.42783 -0.486972,1.08873 -0.313054,1.50381 z"
           class="cls-12"
           style="isolation:isolate;fill:#ffffff;fill-opacity:1;stroke:none;stroke-width:0.11594561;stroke-opacity:1" />
        <path
           id="path775"
           d="m 64.787487,186.47035 a 0.06377009,0.06377009 0 0 1 -0.06957,0.10435 4.3514388,4.3514388 0 0 1 -1.513092,-1.20932 c -0.539147,-0.669 -0.496246,-1.50729 -0.391895,-2.02557 a 0.08811867,0.08811867 0 0 1 0.173918,0 4.2308554,4.2308554 0 0 0 0.565815,1.57339 9.7498666,9.7498666 0 0 0 1.23482,1.55715 z"
           class="cls-37"
           style="isolation:isolate;fill:#2282c2;fill-opacity:1;stroke:none;stroke-width:0.11594561;stroke-opacity:1" />
        <path
           id="path777"
           d="m 62.518432,192.24444 c 0.01623,-0.0522 -0.06145,-0.0788 -0.07884,-0.0348 a 7.054131,7.054131 0 0 0 -0.652774,3.46098 c 0.139134,2.26094 0.811619,4.02563 1.791359,5.46104 0.0093,0.0174 0.03478,0 0.02667,-0.0174 -0.243486,-0.50437 -0.93916,-2.12181 -1.304388,-4.46159 a 10.520905,10.520905 0 0 1 0.217978,-4.40825 z"
           class="cls-37"
           style="isolation:isolate;fill:#2282c2;fill-opacity:1;stroke:none;stroke-width:0.11594561;stroke-opacity:1" />
        <path
           id="path787"
           d="m 90.005658,195.19177 a 2.3734066,2.3734066 0 0 1 -0.38262,0.46958 c -0.252762,-0.44291 -0.973943,-1.55599 -2.173981,-2.17398 a 4.6911595,4.6911595 0 0 0 -2.730519,-0.50668 c -0.07884,-0.11594 -0.115946,-0.18319 -0.115946,-0.18319 0.921768,-0.30378 1.971076,-0.19943 3.11314,0.4174 1.142064,0.61683 2.289926,1.97687 2.289926,1.97687 z"
           class="cls-36"
           style="isolation:isolate;fill:#2282c2;fill-opacity:1;stroke:none;stroke-width:0.11594561;stroke-opacity:1" />
        <path
           id="path789"
           d="m 50.474002,213.0103 a 1.7844029,1.7844029 0 0 1 0.643497,0.15652 c -0.115945,0.17392 -0.217977,0.32117 -0.278269,0.42552 a 3.856351,3.856351 0 0 0 -0.513639,-0.33856 z"
           class="cls-44"
           style="isolation:isolate;fill:#2282c2;fill-opacity:1;stroke:none;stroke-width:0.11594561;stroke-opacity:1" />
        <path
           id="path791"
           d="m 67.404379,210.77486 c -1.808751,-1.32989 -4.582169,-2.25166 -6.634407,-2.12992 -2.313115,0.14725 -3.661562,0.90438 -4.235494,1.31251 -0.57393,0.40813 -0.634221,0.34783 -1.165253,0.39189 -0.531031,0.0441 -1.677733,0.46958 -2.825594,1.3299 a 6.4813597,6.4813597 0 0 0 -1.269605,1.2754 1.0272781,1.0272781 0 0 0 -0.61799,-0.2087 c 1.756576,-2.53573 5.161899,-2.99719 5.161899,-2.99719 0.463782,-0.35596 0.8951,-0.69568 1.391347,-0.9125 3.981573,-1.76585 8.503451,0.2319 10.120893,1.86905 z"
           class="cls-44"
           style="isolation:isolate;fill:#2282c2;fill-opacity:1;stroke:none;stroke-width:0.11594561;stroke-opacity:1" />
        <path
           id="path793"
           d="m 52.470585,212.56622 a 0.21797775,0.21797775 0 1 1 -0.288704,0.0615 0.20870211,0.20870211 0 0 1 0.288704,-0.0615"
           class="cls-44"
           style="isolation:isolate;fill:#2282c2;fill-opacity:1;stroke:none;stroke-width:0.11594561;stroke-opacity:1" />
        <path
           id="path795"
           d="m 55.160523,213.01841 c -0.09508,0.1658 -0.164642,0.30494 -0.199426,0.38262 a 0.89625958,0.89625958 0 0 0 -0.652774,0.17392 4.4337602,4.4337602 0 0 1 0.173918,-0.54726 0.91365142,0.91365142 0 0 1 0.678282,-0.009 z"
           class="cls-44"
           style="isolation:isolate;fill:#2282c2;fill-opacity:1;stroke:none;stroke-width:0.11594561;stroke-opacity:1" />
        <path
           id="path797"
           d="m 60.283001,210.07919 a 3.6035896,3.6035896 0 0 1 -0.965828,0.33045 c -0.651614,0.13101 -2.060354,0.63538 -3.02618,1.33917 a 4.3885415,4.3885415 0 0 0 -0.990175,1.05278 1.136267,1.136267 0 0 0 -0.61799,-0.0788 c 0.14725,-0.2516 0.782632,-1.20815 2.521816,-1.96528 1.17337,-0.51248 2.390799,-0.6435 3.078357,-0.67828 z"
           class="cls-44"
           style="isolation:isolate;fill:#2282c2;fill-opacity:1;stroke:none;stroke-width:0.11594561;stroke-opacity:1" />
        <path
           id="path799"
           d="m 60.291116,212.66246 a 3.607068,3.607068 0 0 0 -0.216818,0.51248 1.2429369,1.2429369 0 0 0 -0.382621,0.009 1.2093127,1.2093127 0 0 1 0.06029,-0.48697 1.2916341,1.2916341 0 0 1 0.539147,-0.0348 z"
           class="cls-44"
           style="isolation:isolate;fill:#2282c2;fill-opacity:1;stroke:none;stroke-width:0.11594561;stroke-opacity:1" />
        <path
           id="path801"
           d="m 63.257006,210.80965 c -0.825534,0.2087 -2.017454,0.6435 -2.513702,1.20003 a 3.3972065,3.3972065 0 0 0 -0.347836,0.46959 1.4470013,1.4470013 0 0 0 -0.477696,-0.0603 c 0.755965,-1.20003 2.40819,-1.52236 3.339234,-1.60932 z"
           class="cls-44"
           style="isolation:isolate;fill:#2282c2;fill-opacity:1;stroke:none;stroke-width:0.11594561;stroke-opacity:1" />
        <path
           id="path803"
           d="m 37.777957,221.39316 c 0,0 -0.231891,0.83481 -0.886985,1.36468 -0.655092,0.52988 -2.009336,0.8267 -2.550803,-0.63422 0,0 0.02551,0.46378 -0.591322,1.13047 -0.616831,0.66669 -1.339172,0.4348 -1.460915,-0.0348 a 0.69567367,0.69567367 0 0 0 0.330445,0.15652 0.68755749,0.68755749 0 0 0 0.38262,-0.0522 c 0.42552,-0.17392 0.721183,-0.53103 0.913652,-1.00061 0.192469,-0.46958 0.42552,-1.15946 0.42552,-1.15946 0,0 0.164644,0.86032 0.730457,1.39135 0.565815,0.53103 1.478307,0.0603 1.773968,-0.13914 0.191311,-0.13102 0.512481,-0.51363 0.722341,-0.77451 0.132179,-0.13798 0.211022,-0.24813 0.211022,-0.24813 z"
           class="cls-12"
           style="isolation:isolate;fill:#ffffff;fill-opacity:1;stroke:none;stroke-width:0.11594561;stroke-opacity:1" />
        <path
           id="path2936"
           d="m 83.556511,247.97686 4.739791,0.55658 c 0,0 -0.402392,2.08078 -3.043076,2.55426 l -3.163462,-0.77584 z"
           style="fill:#2282c2;fill-opacity:1;stroke:#2282c2;stroke-width:0.1144324px;stroke-linecap:butt;stroke-linejoin:miter;stroke-opacity:1" />
        <path
           id="path809"
           d="m 68.803843,246.18465 a 0.96698641,0.96698641 0 0 1 -0.09623,0.41741 15.607439,15.607439 0 0 0 -1.7473,-0.46378 0.9275649,0.9275649 0 0 1 0.842924,-0.87887 h 0.07884 a 0.9171298,0.9171298 0 0 1 0.921768,0.92524 z"
           class="cls-36"
           style="isolation:isolate;fill:#2282c2;fill-opacity:1;stroke:none;stroke-width:0.11594561;stroke-opacity:1" />
        <path
           id="path811"
           d="m 90.657273,248.13254 c -1.521207,-0.47769 -5.333499,-1.17337 -7.536465,-1.43425 -2.477759,-0.29566 -5.13871,-0.60871 -5.756701,-0.67016 -0.556538,-0.0522 -0.57393,-0.57973 -0.260876,-1.20004 0.03478,-0.0603 0.06957,-0.12986 0.115945,-0.19131 0.243486,-0.39074 0.738574,-0.8951 1.121194,-1.26033 -0.156527,0.30378 -0.452188,0.88699 -0.643498,1.33917 a 3.6708381,3.6708381 0 0 0 -0.182035,0.50437 c 0,0 3.374017,0.38262 5.217553,0.63422 a 38.997147,38.997147 0 0 1 4.043024,0.72234 c 0.927564,0.23421 3.143285,0.93916 3.881859,1.55599 z"
           class="cls-44"
           style="isolation:isolate;fill:#2282c2;fill-opacity:1;stroke:none;stroke-width:0.11594561;stroke-opacity:1" />
        <path
           id="path815"
           d="m 107.023,252.2289 a 7.2268901,7.2268901 0 0 0 -0.77336,0.76524 16.918784,16.918784 0 0 0 -1.84354,2.51254 24.953814,24.953814 0 0 0 -1.25221,2.33051 c -0.51364,1.09568 -0.8522,1.98267 -0.97394,2.31891 -0.0348,0.087 -0.0522,0.13914 -0.0522,0.13914 -0.81162,-1.5386 -1.92238,-4.00824 -2.635442,-4.15665 -0.651614,-0.12986 -1.739184,0.36522 -1.739184,0.36522 0.19131,-0.33856 0.374504,-0.68639 0.531031,-1.03423 0.338561,-0.13914 0.877708,-0.31305 1.356564,-0.21798 a 1.1501805,1.1501805 0 0 1 0.463781,0.20059 c 0.76524,0.59944 1.74846,2.95661 1.74846,2.95661 a 14.072318,14.072318 0 0 1 0.54726,-1.39135 c 0.51364,-1.13974 1.38324,-2.80008 2.67835,-4.2181 a 10.345827,10.345827 0 0 1 0.81162,-0.81162 c 0.6806,0.16233 1.13279,0.24117 1.13279,0.24117 z"
           class="cls-44"
           style="isolation:isolate;fill:#2282c2;fill-opacity:1;stroke:none;stroke-width:0.11594561;stroke-opacity:1" />
        <path
           id="path817"
           d="m 77.847601,235.24519 a 0.23884796,0.23884796 0 0 1 0.243485,-0.38263 11.657172,11.657172 0 0 0 2.191372,0.33045 7.7567615,7.7567615 0 0 0 2.666751,-0.35595 0.198267,0.198267 0 0 1 0.216817,0.31305 c -0.38262,0.49509 -1.08641,1.16525 -2.147313,1.24294 -1.587295,0.13102 -2.578629,-0.45219 -3.171112,-1.14786 z"
           class="cls-44"
           style="isolation:isolate;fill:#2282c2;fill-opacity:1;stroke:none;stroke-width:0.11594561;stroke-opacity:1" />
        <path
           id="path819"
           d="m 88.89258,238.05455 a 0.13797528,0.13797528 0 0 1 0.139134,-0.21798 c 0.669007,0.13913 2.164706,0.4348 2.999514,0.50436 0.774516,0.0615 1.818027,0.0615 2.357174,0.0522 a 0.19478862,0.19478862 0 0 1 0.156527,0.31305 c -0.322329,0.42668 -1.08757,1.11308 -2.618052,1.04351 -1.652225,-0.0696 -2.64356,-1.15597 -3.034297,-1.69512 z"
           class="cls-44"
           style="isolation:isolate;fill:#2282c2;fill-opacity:1;stroke:none;stroke-width:0.11594561;stroke-opacity:1" />
        <path
           id="path821"
           d="m 69.996924,241.8193 c 0.773357,0.24349 2.590225,0.82669 3.043573,0.96583 a 2.5021063,2.5021063 0 0 1 -0.115947,0.2516 c -0.391896,0.76524 -0.278269,1.04351 -0.861475,0.92177 -0.583207,-0.12174 -5.894675,-1.68701 -5.894675,-1.68701 0,0 -0.09624,-1.02612 0.216818,-1.60817 0.313053,-0.58204 2.295723,-0.81162 2.634284,-1.02611 0.338561,-0.2145 0.357113,-1.12236 0.417405,-1.68701 0.06029,-0.56466 0.548422,-1.65223 1.373955,-2.5137 0.662049,-0.6864 1.600049,-1.20004 2.469642,-1.5073 a 6.7851372,6.7851372 0 0 1 0.869591,-0.13102 c -0.721181,0.20871 -1.782083,0.63539 -2.626167,1.4957 -1.416856,1.43541 -1.652225,2.59139 -1.729909,3.26155 -0.07768,0.67017 -0.01739,1.26033 -0.121743,1.5073 -0.104351,0.24696 -1.043511,0.37334 -1.470191,0.4174 -0.42668,0.0441 -1.495698,0.0174 -1.530482,0.15653 -0.03478,0.13913 2.446453,0.90437 3.325321,1.18264 z"
           class="cls-52"
           style="isolation:isolate;fill:#2282c2;fill-opacity:1;stroke:none;stroke-width:0.11594561;stroke-opacity:1" />
        <path
           id="path849"
           d="m 65.622296,224.22803 -0.0093,0.19943 -0.01739,0.29566 -0.03362,0.57973 -0.01855,0.32117 -0.01739,0.30494 -0.02551,0.40001 c 0,0 -5.826267,-0.15653 -6.531217,-0.15653 -0.251602,0 -1.443522,-0.0174 -2.929946,-0.0441 l 0.01739,-0.35595 0.0081,-0.23189 a 0.26087763,0.26087763 0 0 0 -0.0081,-0.0788 0.24348578,0.24348578 0 0 0 -0.121743,-0.15653 l -0.347837,-0.17392 -0.217978,-0.11595 a 1.0307565,1.0307565 0 0 0 -0.463782,-0.11594 h -0.313054 l -1.159456,-0.0174 -3.913163,-0.0603 -0.42668,-0.009 a 0.33160445,0.33160445 0 0 0 -0.303778,0.19131 0.41160693,0.41160693 0 0 0 -0.02667,0.14841 l 0.0093,0.17392 0.01739,0.30378 0.0081,0.17391 0.0093,0.1832 h -0.0093 c -1.416855,-0.009 -7.913288,-0.15653 -7.913288,-0.15653 l 0.01739,-0.33044 0.01739,-0.30494 0.01739,-0.32117 0.04406,-0.66089 0.01739,-0.32233 0.01739,-0.2516 v -0.0487 a 0.36175031,0.36175031 0 0 1 0.03478,-0.13913 0.34783684,0.34783684 0 0 1 0.313053,-0.19131 c 1.070178,0.0255 4.417528,0.10435 5.547998,0.11594 1.348447,0.0174 5.94801,0.13914 6.724845,0.13914 0.776836,0 5.565389,0.0777 7.026304,0.11594 1.113078,0.0348 3.43431,0.0603 4.469704,0.0696 a 0.48465265,0.48465265 0 0 1 0.38262,0.19131 0.45566626,0.45566626 0 0 1 0.08696,0.17392 1.0261187,1.0261187 0 0 1 0.02087,0.16232 z"
           class="cls-98"
           style="isolation:isolate;fill:#2282c2;fill-opacity:1;stroke:none;stroke-width:0.11594561;stroke-opacity:1" />
        <polygon
           transform="matrix(0.11594561,0,0,0.11594561,18.367502,179.18316)"
           id="polygon861"
           points="318.91,402.3 317.33,440.62 314.56,442.05 314.49,442.05 315.69,400.95 "
           class="cls-100"
           style="isolation:isolate;fill:#2282c2;fill-opacity:1;stroke:none;stroke-opacity:1" />
        <path
           id="path957"
           d="m 70.231134,226.05418 -0.0093,0.0951 -0.02667,0.33972 -0.02551,0.33856 -0.05334,0.6435 -0.02551,0.33045 -0.03478,0.39189 -0.01739,0.19943 a 0.14609148,0.14609148 0 0 1 -0.231891,0.11595 c -0.374504,-0.2261 -1.191922,-0.73046 -1.835419,-1.14787 a 15.993538,15.993538 0 0 0 -1.677733,-0.95655 c 0,0 -0.02667,-0.32233 -0.01739,-0.51364 v -0.0429 c 0,-0.0441 0.01739,-0.15652 0.02551,-0.29566 0.0093,-0.0962 0.01739,-0.2087 0.02667,-0.32233 0.0093,-0.13913 0.02551,-0.27827 0.03478,-0.40812 0.0093,-0.12986 0.01739,-0.24349 0.02551,-0.33045 0.0081,-0.087 0.01739,-0.17392 0.01739,-0.2087 0,-0.0348 0.0093,-0.0696 0.0093,-0.10435 0,-0.0348 0.01739,-0.0962 0.02551,-0.13914 a 0.14493201,0.14493201 0 0 1 0.03478,-0.0615 0.12174289,0.12174289 0 0 1 0.156526,-0.0255 l 3.418077,1.79948 a 0.34783684,0.34783684 0 0 1 0.156526,0.19131 0.22377504,0.22377504 0 0 1 0.02435,0.11131 z"
           class="cls-98"
           style="isolation:isolate;fill:#2282c2;fill-opacity:1;stroke:none;stroke-width:0.11594561;stroke-opacity:1" />
        <path
           id="path1087"
           d="m 60.847655,217.48812 0.03478,-0.40002 z"
           class="cls-97"
           style="isolation:isolate;fill:#2282c2;fill-opacity:1;stroke:none;stroke-width:0.11594561;stroke-opacity:1" />
        <path
           id="path1089"
           d="m 60.919542,217.07071 0.200586,0.009 -0.200586,-0.009 a 0.12290235,0.12290235 0 0 1 -0.01739,0.0174 0.01971075,0.01971075 0 0 1 0.01739,-0.0174 z"
           class="cls-97"
           style="isolation:isolate;fill:#2282c2;fill-opacity:1;stroke:none;stroke-width:0.11594561;stroke-opacity:1" />
        <path
           id="path1101"
           d="m 60.88244,217.0881 c 0.0093,0 0.0093,-0.008 0.01739,-0.008 l 0.01739,-0.0174 h -0.02551 z"
           class="cls-97"
           style="isolation:isolate;fill:#2282c2;fill-opacity:1;stroke:none;stroke-width:0.11594561;stroke-opacity:1" />
        <path
           id="path1107"
           d="m 60.88244,217.0881 c 0.0093,0 0.0093,-0.008 0.01739,-0.008 0.0081,0 -0.0081,0.008 -0.01739,0.008 z"
           class="cls-97"
           style="isolation:isolate;fill:#2282c2;fill-opacity:1;stroke:none;stroke-width:0.11594561;stroke-opacity:1" />
        <path
           id="path1387"
           d="m 46.481994,234.16689 c 0,0.0962 0,0.20059 -0.0081,0.29566 z"
           class="cls-97"
           style="isolation:isolate;fill:#2282c2;fill-opacity:1;stroke:none;stroke-width:0.11594561;stroke-opacity:1" />
        <path
           id="path1401"
           d="M 46.481994,234.16689 Z"
           class="cls-75"
           style="isolation:isolate;fill:#2282c2;fill-opacity:1;stroke:none;stroke-width:0.06492954px;stroke-miterlimit:10;stroke-opacity:1" />
        <path
           id="path1441"
           d="m 49.100046,230.78476 0.01739,0.23189 z"
           class="cls-97"
           style="isolation:isolate;fill:#2282c2;fill-opacity:1;stroke:none;stroke-width:0.11594561;stroke-opacity:1" />
        <path
           id="path1447"
           d="m 46.456486,230.10648 v -0.0615 a 0.13565637,0.13565637 0 0 0 0,0.0615 z"
           class="cls-97"
           style="isolation:isolate;fill:#2282c2;fill-opacity:1;stroke:none;stroke-width:0.11594561;stroke-opacity:1" />
        <path
           id="path1527"
           d="m 45.308624,235.96753 c 0.0081,0 0.0081,-0.009 0.01739,-0.009 -0.0093,-0.008 -0.0093,-0.0174 -0.01739,-0.0348 z"
           class="cls-97"
           style="isolation:isolate;fill:#2282c2;fill-opacity:1;stroke:none;stroke-width:0.11594561;stroke-opacity:1" />
        <path
           id="path7765"
           d="m 42.419587,222.77656 c 0,0 1.442613,-4.65987 1.743257,-4.87032 0.300644,-0.21045 0.932,-1.29278 2.254838,-1.50323 1.322838,-0.21045 2.135428,-0.11361 2.135428,-0.11361 l 0.01855,0.75828 c 0,0 -0.861205,0.70824 -1.191915,2.27159 -0.330709,1.56335 -0.84409,3.5025 -0.84409,3.5025 z"
           style="fill:#2282c2;fill-opacity:1;stroke:none;stroke-width:0.11594561px;stroke-linecap:butt;stroke-linejoin:miter;stroke-opacity:1" />
        <path
           id="path7767"
           d="m 47.363179,222.91437 c 0,0 0.602821,-2.64807 0.708048,-3.03891 0.105225,-0.39084 0.611397,-1.8516 0.76794,-1.97806 0,0 0.203669,0.67218 0.449672,0.76045 0.246001,0.0883 0.323193,0.27058 0.721548,-0.12777 0.398354,-0.39836 1.01443,-0.91575 1.837568,-1.31096 0,0 0.690736,0.47368 1.008728,0.40001 0,0 -0.914652,1.51975 -0.877072,3.18833 0,0 -0.11668,1.86232 -0.280065,2.19387 z"
           style="fill:#2282c2;fill-opacity:1;stroke:none;stroke-width:0.11594561px;stroke-linecap:butt;stroke-linejoin:miter;stroke-opacity:1" />
        <path
           id="path831-3"
           d="m 69.004429,259.69812 c 0,0 -0.01623,-0.008 -0.06029,-0.0255 -0.496248,-0.23189 -3.905049,-1.84354 -6.426865,-2.44414 -2.73052,-0.64349 -4.71319,-0.28638 -6.69586,1.26149 0.02667,-0.0696 0.774517,-2.21804 3.942151,-2.62617 3.215172,-0.4174 7.596756,2.10442 9.240865,3.83433 z"
           class="cls-12"
           style="isolation:isolate;fill:#fbfcfe;fill-opacity:1;stroke:none;stroke-width:0.11594561;stroke-opacity:1" />
        <path
           id="path835-6"
           d="m 64.708645,251.43699 c 0,0 -0.590164,-0.93916 -1.652226,-1.08641 -1.062062,-0.14725 -1.913103,0.66089 -1.913103,0.66089 0,0 0.01855,-0.087 0.06145,-0.21798 a 2.3351447,2.3351447 0 0 1 0.434797,-0.75596 2.2029666,2.2029666 0 0 1 0.365228,-0.32233 c 0.81162,-0.53915 1.486424,-0.46378 2.104414,0.0174 0.347837,0.27015 0.486972,0.74785 0.547263,1.13047 a 2.8418269,2.8418269 0 0 1 0.05218,0.57393 z"
           class="cls-12"
           style="isolation:isolate;fill:#fbfcfe;fill-opacity:1;stroke:none;stroke-width:0.11594561;stroke-opacity:1" />
        <path
           id="path839-7"
           d="m 72.352939,254.13273 c 0,0 -0.504364,-1.03424 -1.652226,-1.26033 a 2.4348578,2.4348578 0 0 0 -1.957162,0.46378 2.5508034,2.5508034 0 0 1 0.505524,-0.76524 2.7931298,2.7931298 0 0 1 0.755965,-0.57393 c 0.852201,-0.4348 2.234272,-0.17392 2.347899,1.5212 a 2.8070433,2.8070433 0 0 1 0,0.61452 z"
           class="cls-12"
           style="isolation:isolate;fill:#fbfcfe;fill-opacity:1;stroke:none;stroke-width:0.11594561;stroke-opacity:1" />
        <path
           id="path1526"
           d="m 52.482181,222.99321 c 0,0 0.18992,-1.41185 0.203949,-1.6932 0,0 -0.160183,-1.5208 0.701586,-3.18811 0,0 0.456309,1.14255 1.260328,0.0383 0,0 0.889885,-0.91199 1.478307,-1.21859 0,0 0.865658,0.53439 2.034845,-0.21681 l 0.03826,0.38726 c 0,0 -0.70301,0.18438 -0.733074,3.73199 0,0 -0.190857,2.09868 -0.335945,2.23688 z"
           style="fill:#2282c2;fill-opacity:1;stroke:none;stroke-width:0.11594561px;stroke-linecap:butt;stroke-linejoin:miter;stroke-opacity:1" />
        <path
           id="path1532"
           d="m 57.838867,223.07669 c 0,0 0.288936,-0.21333 0.349064,-2.72371 0.06013,-2.51039 0.330378,-2.41268 0.330378,-2.41268 0,0 0.436267,1.40552 1.368267,0.0676 0,0 1.196449,-1.17335 1.474719,-1.29319 0,0 0.890453,0.43794 1.654544,0.23421 0,0 -0.543716,-0.0534 -0.7692,3.35891 0,0 -0.191958,2.45299 -0.607075,2.84998 z"
           style="fill:#2282c2;fill-opacity:1;stroke:none;stroke-width:0.11594561px;stroke-linecap:butt;stroke-linejoin:miter;stroke-opacity:1" />
        <path
           id="path1534"
           d="m 62.424515,223.18452 c 0,0 0.470037,-1.34451 0.470037,-2.69445 0,-1.34993 0.398338,-3.26698 1.107983,-3.77531 l 3.175667,0.24635 c 0,0 0.229211,-0.0135 0.826776,0.20584 0,0 -0.954329,0.57011 -1.26258,3.3869 0,0 -0.116925,2.76344 -1.031054,2.63067 z"
           style="fill:#2282c2;fill-opacity:1;stroke:none;stroke-width:0.11594561px;stroke-linecap:butt;stroke-linejoin:miter;stroke-opacity:1" />
        <path
           id="path1540"
           d="m 68.381801,224.23035 c 0,0 -0.958004,-0.48331 -1.133948,-0.72466 0,0 0.263797,-4.22868 1.383231,-5.46104 0,0 -0.249283,6.1857 -0.249283,6.1857 z"
           style="fill:#2282c2;fill-opacity:1;stroke:none;stroke-width:0.11594561px;stroke-linecap:butt;stroke-linejoin:miter;stroke-opacity:1" />
        <path
           id="path1542"
           d="m 68.718046,224.39036 c 0,0 0.216877,-5.85168 0.417402,-5.99207 0,0 0.753253,2.07053 0.63633,3.72871 0,0.0319 0.03189,2.10335 0.03189,2.10335 0,0 0.150233,0.79919 -0.467693,0.4796 z"
           style="fill:#2282c2;fill-opacity:1;stroke:none;stroke-width:0.11594561px;stroke-linecap:butt;stroke-linejoin:miter;stroke-opacity:1" />
        <path
           id="path1548"
           d="m 67.180605,238.07194 -1.767011,0.4174 0.882367,-10.10162 c 0,0 0.0969,-0.31059 0.377961,-0.32537 0.281063,-0.0148 1.383232,0.77452 1.383232,0.77452 0,0 0.194619,0.12484 0.06707,1.18778 -0.127553,1.06294 -0.943615,8.04729 -0.943615,8.04729 z"
           style="fill:#2282c2;fill-opacity:1;stroke:none;stroke-width:0.11594561px;stroke-linecap:butt;stroke-linejoin:miter;stroke-opacity:1" />
        <path
           id="path1554"
           d="m 67.87628,236.82784 0.715634,-6.73941 0.247873,-0.78198 0.616831,0.40813 c 0,0 0.183503,0.002 0.113202,0.71399 -0.0703,0.71214 -0.522491,4.31225 -0.522491,4.31225 0,0 -0.887519,1.06697 -1.171049,2.08702 z"
           style="fill:#2282c2;fill-opacity:1;stroke:none;stroke-width:0.11594561px;stroke-linecap:butt;stroke-linejoin:miter;stroke-opacity:1" />
        <path
           id="path1562"
           d="m 60.996066,227.43973 c 0,0 3.747172,-0.11491 4.574055,0.32464 l -0.921768,10.95687 c 0,0 -0.387863,-0.007 -0.539147,0.54842 l -2.252823,-0.0557 c 0,0 -0.638328,-2.64535 -1.113079,-2.99487 0,0 -0.04455,-8.53928 0.252762,-8.7794 z"
           style="fill:#2282c2;fill-opacity:1;stroke:none;stroke-width:0.11594561px;stroke-linecap:butt;stroke-linejoin:miter;stroke-opacity:1" />
        <path
           id="path1564"
           d="m 48.882068,227.21943 0.235369,3.79722 5.886559,0.13566 0.826693,-0.4348 c 0,0 0.139135,-3.35083 0.139135,-3.35083 l 3.553732,0.058 c 0,0 0.672474,-0.0759 0.759434,0.60524 0.08696,0.68118 0.0174,2.87661 0.0174,2.87661 0,0 0.05506,0.36987 -0.408718,0.38436 -0.463783,0.0145 -13.333746,-0.058 -13.333746,-0.058 0,0 -0.492179,0.0759 -0.466671,-0.45741 0.02551,-0.53335 0.104351,-3.26619 0.104351,-3.26619 0,0 0.04347,-0.39247 0.521745,-0.36349 0.478275,0.029 2.164715,0.0736 2.164715,0.0736 z"
           style="fill:#2282c2;fill-opacity:1;stroke:none;stroke-width:0.11594561px;stroke-linecap:butt;stroke-linejoin:miter;stroke-opacity:1" />
        <g
           transform="matrix(0.11594561,0,0,0.11594561,122.43438,184.5516)"
           id="g1576">
          <path
             style="fill:#ffffff;fill-opacity:1;stroke:none;stroke-width:1px;stroke-linecap:butt;stroke-linejoin:miter;stroke-opacity:1"
             d="m -609.96799,372.68899 -2.50692,15.501 c 0,0 -0.51209,2.18333 1.13,2.18 1.64209,-0.003 8.00605,-0.003 9.1551,0.0851 1.14905,0.0884 1.76777,-0.7071 1.23744,-2.74003 -0.53033,-2.03294 -3.08254,-14.77502 -3.08254,-14.77502 z"
             id="path1570" />
          <ellipse
             style="opacity:1;fill:#ffffff;fill-opacity:1;fill-rule:nonzero;stroke:none;stroke-width:1.08236957;stroke-linecap:round;stroke-linejoin:round;stroke-miterlimit:4;stroke-dasharray:none;stroke-dashoffset:65.67904663;stroke-opacity:1;paint-order:markers fill stroke"
             id="path1572"
             cx="-606.87793"
             cy="367.89005"
             rx="5.9184604"
             ry="5.9480095" />
        </g>
        <path
           id="path1578"
           d="m 40.966461,227.05363 4.05114,0.0788 c 0,0 0.493486,0.0466 0.534478,0.96897 0.04099,0.92235 0.224965,7.68869 0.224965,7.68869 0,0 -1.376112,0.0632 -1.528163,2.7769 l -1.969915,-0.022 c 0,0 -0.559728,0.0691 -0.559728,-0.47306 0,-0.54211 -0.752777,-11.01831 -0.752777,-11.01831 z"
           style="fill:#2282c2;fill-opacity:1;stroke:none;stroke-width:0.11594561px;stroke-linecap:butt;stroke-linejoin:miter;stroke-opacity:1" />
        <path
           id="path1584"
           d="m 46.288365,235.41099 c 0,0 -0.121754,-1.16352 -0.165233,-2.88821 0,0 -0.02899,-0.71016 0.695674,-0.72466 0.72466,-0.0145 6.742827,-0.0835 6.742827,-0.0835 0,0 -1.590183,0.43248 -2.470801,2.85226 0,0 -0.399422,-0.15478 -0.755966,0.27016 0,0 0.715954,-1.69107 -0.327556,-1.72006 0,0 -1.988446,-0.31073 -3.718945,2.29399 z"
           style="fill:#2282c2;fill-opacity:1;stroke:none;stroke-width:0.11594561px;stroke-linecap:butt;stroke-linejoin:miter;stroke-opacity:1" />
        <path
           id="path1586"
           d="m 60.184446,235.46316 c 0,0 -0.318839,-0.4974 -0.805822,-0.48697 0,0 0.353624,-2.77226 -0.385529,-2.87371 0,0 -2.175119,-0.48581 -3.536911,3.43837 l -0.313053,-0.18204 c 0,0 -0.241156,-0.93336 0,-2.305 0.241157,-1.37163 -0.08696,-1.39946 -0.08696,-1.39946 l 4.719554,0.17276 c 0,0 0.60004,-0.0325 0.408719,3.63605 z"
           style="fill:#2282c2;fill-opacity:1;stroke:none;stroke-width:0.11594561px;stroke-linecap:butt;stroke-linejoin:miter;stroke-opacity:1" />
        <path
           id="path1588"
           d="m 99.449428,244.94983 0.434796,-0.36523 c 0,0 2.813136,-1.61264 4.452316,-4.25172 0,0 -0.12591,5.35575 3.71837,10.93019 0,0 -4.04686,0.81926 -8.43311,-2.50117 0.0205,-0.10249 -0.122979,-0.84036 -0.122979,-0.84036 0,0 3.340929,2.9515 7.542709,2.74653 0,0 -3.51448,-4.63135 -3.7659,-8.12643 0,0 -2.03091,1.79358 -3.826202,2.40819"
           style="fill:#2282c2;fill-opacity:1;stroke:none;stroke-width:0.11594561px;stroke-linecap:butt;stroke-linejoin:miter;stroke-opacity:1" />
        <path
           id="path1615"
           d="m 31.184047,200.9641 c 0,0 4.877406,-19.10361 29.473563,-18.3038 0,0 -0.558199,1.32719 0.376977,3.33861 0,0 -8.780158,2.33935 -17.552651,16.76888 0,0 0.08199,-6.06696 -12.297889,-1.80369 z"
           style="fill:#fdfefd;fill-opacity:1;stroke:none;stroke-width:0.11594561px;stroke-linecap:butt;stroke-linejoin:miter;stroke-opacity:1" />
        <path
           id="path1617"
           d="m 61.149903,186.49359 1.639719,1.76269 c 0,0 -5.65703,4.26327 -9.715333,15.7413 0,0 -1.598725,-2.82851 -8.321572,-0.65589 0.04099,-0.5739 6.03187,-12.70184 16.397186,-16.8481 z"
           style="fill:#fdfefd;fill-opacity:1;stroke:none;stroke-width:0.11594561px;stroke-linecap:butt;stroke-linejoin:miter;stroke-opacity:1" />
        <path
           id="path1619"
           d="m 63.051192,188.81129 0.521755,0.34783 c 0,0 -4.666811,5.79728 -0.347837,12.75402 0,0 0.953643,1.79626 -1.043511,0.85465 -1.997153,-0.94161 -2.289925,-2.41991 -7.65241,1.29034 0.05797,-0.14493 1.623238,-9.07274 8.522003,-15.24684 z"
           style="fill:#fdfefd;fill-opacity:1;stroke:none;stroke-width:0.11594561px;stroke-linecap:butt;stroke-linejoin:miter;stroke-opacity:1" />
        <path
           id="path1623"
           d="m 50.464726,252.40282 c 0,0 1.198514,-6.6292 13.361572,-6.6518 0,0 -0.322377,-1.41247 0.07884,-2.23427 0,0 -0.267245,-1.54608 -2.618052,-2.20877 0,0 -0.140294,-2.21688 -0.704949,-3.47837 0,0 -0.274779,0.54581 -1.739185,0.57393 0,0 1.81339,-0.24348 1.17453,-1.83541 0,0 0.103403,0.50534 -1.739184,0.77451 0,0 0.639607,0.12221 1.272876,-0.87863 0,0 -2.790605,1.18937 -4.085717,0.016 0,0 -0.06509,0.84697 1.682371,1.00988 0,0 -0.505369,0.13811 -1.182645,-0.11594 0,0 -0.727637,2.60599 0.260877,5.0703 0,0 -2.163573,-2.42839 -1.714835,-5.86453 l -0.965828,0.0696 c 0,0 0.903456,-0.1459 1.250594,-0.71819 0,0 -2.472616,0.79083 -3.695886,-0.13749 0,0 1.037714,0.90669 1.741503,0.88118 0,0 -0.405809,0.0865 -1.391347,-0.22609 0,0 -1.450448,3.21276 0.476221,5.75432 -0.08199,-0.20496 -1.680711,-1.10681 -2.131633,-4.14029 -0.286951,0.082 -1.062353,0.713 -1.505266,0.12168 0,0 1.024959,-0.0338 1.60005,-0.65162 0,0 -1.938084,0.83365 -3.537501,-0.61799 l -0.417404,0.16581 c 0,0 0.775676,0.87191 1.565266,0.98785 0,0 -0.451555,-0.0192 -1.373957,-0.50436 0,0 -0.676443,4.10602 0.676326,5.9507 0,0 0.696881,0.16397 0.409929,2.29561 0,0 -0.258977,4.37133 3.252431,6.59241 z"
           style="fill:#2282c2;fill-opacity:1;stroke:none;stroke-width:0.11594561px;stroke-linecap:butt;stroke-linejoin:miter;stroke-opacity:1" />
        <path
           id="path691-3"
           d="m 83.560075,248.23765 c 0,0 -0.365849,0.91462 0.130792,1.62529 a 2.1301578,2.1301578 0 0 0 1.280471,0.84419 c 0,0 -1.824673,0.36585 -3.518556,-0.43262 -1.693882,-0.79846 -1.577725,-2.40089 -1.571322,-2.53076 z"
           class="cls-82"
           style="isolation:isolate;fill:#ffffff;fill-opacity:1;stroke-width:0.09146233" />
        <path
           id="path807"
           d="m 85.218223,249.87607 a 0.93915947,0.93915947 0 1 1 -0.939159,-0.93916 0.93915947,0.93915947 0 0 1 0.939159,0.93916"
           class="cls-36"
           style="isolation:isolate;fill:#ffffff;fill-opacity:1;stroke:#2282c2;stroke-width:0.31600001;stroke-miterlimit:4;stroke-dasharray:none;stroke-opacity:1" />
      </g>
    </g>
  </g>
</svg>
