<svg id="Data" xmlns="http://www.w3.org/2000/svg" width="256" height="256" viewBox="0 0 512 512">
  <defs>
    <style>
      .cls-1 {
        fill: #70d463;
      }

      .cls-1, .cls-2 {
        fill-rule: evenodd;
      }

      .cls-2 {
        fill: #fff;
      }
    </style>
  </defs>
  <path id="Full" class="cls-1" d="M11,256c0,135.094,109.906,245,245,245S501,391.094,501,256,391.094,11,256,11,11,120.906,11,256Z"/>
  <path id="Data-2" data-name="Data" class="cls-2" d="M224.427,96h-0.006a3.926,3.926,0,0,0-1.944.516L177.855,121.91h0.081a3.95,3.95,0,0,1,1.981.532l6.357,3.694,38.139-21.7,172.528,99.214L373.6,216.924l-15.007,8.537L224.647,148.434l1.277,0.743,0.456,0.347,0.355,0.27,0.408,0.532,0.2,0.277,0.286,0.678,0.111,0.251a4.055,4.055,0,0,1,.132,1.021v7.039l126.791,72.656,0.2,43.993-126.881-72.7-0.111,7.391v1.582l128.986,73.91a4,4,0,0,0,1.963.517h0a3.925,3.925,0,0,0,1.947-.517h0.01l0.019-.013,46.221-26.3L409,256.687l-0.235-53.04v0a3.932,3.932,0,0,0-1.97-3.379L226.389,96.527A3.924,3.924,0,0,0,224.427,96m-38.153,30.135-0.2.116,38.576,22.183-38.373-22.3M174.008,379.95L135.86,357.787V159.37l18.177,10.563,19.971,11.6V379.95m3.847-258.04a3.959,3.959,0,0,0-1.9.531l-46,26.736-0.435.329-0.377.288-0.331.431-0.283.378-0.255.6-0.136.327a4.013,4.013,0,0,0-.135,1.021V360.039a3.89,3.89,0,0,0,1.952,3.377l46,26.735a4.028,4.028,0,0,0,1.885.531h0.193a3.947,3.947,0,0,0,3.84-3.917V181.534l17.381-10.1,20.764-12.067v148.9h7.86V212.512l-0.024-.013,0.024-1.569V159.592l-0.085-.049-7.886-4.794L176.211,129.63a3.926,3.926,0,0,1-1.964-3.323h0v-0.13h0a3.928,3.928,0,0,1,1.979-3.34l1.629-.927m50.02,89.02-0.024,1.569,0.024,0.013V210.93m-49.939-89.021h-0.081l-1.629.927a3.928,3.928,0,0,0-1.979,3.34v0.13a3.926,3.926,0,0,0,1.964,3.323L219.9,154.749l7.886,4.794,0.085,0.049v-7.039a4.055,4.055,0,0,0-.132-1.021l-0.111-.251-0.286-.678-0.2-.277-0.408-.532-0.355-.27-0.456-.347-1.277-.743-38.576-22.183,0.2-.116-6.357-3.694a3.95,3.95,0,0,0-1.981-.532m230.826,135.2-0.236,52.252a3.949,3.949,0,0,1-1.967,3.38L226.147,416.475a3.9,3.9,0,0,1-1.961.525,4.151,4.151,0,0,1-1.011-.128l-0.345-.138-0.6-.251-46.247-26.319a3.9,3.9,0,0,1-1.977-3.414l0.235-53.051,0.078-.577,0.06-.431,0.23-.565,0.157-.363,0.389-.514,0.232-.3a3.96,3.96,0,0,1,.822-0.627l0,0,128.353-73.871,0.17,0.1,7.608,4.465L186.062,333.7l28.831,16.4,9.519,5.413,126.245-72.653,6.2,3.557a3.623,3.623,0,0,0,2.7.426L228.343,362.3l-0.2,43.986L400.673,307.08l0.193-43.469,6.155-3.506Z"/>
</svg>
