<?xml version="1.0" encoding="utf-8"?>
<!-- Generator: Adobe Illustrator 22.0.0, SVG Export Plug-In . SVG Version: 6.00 Build 0)  -->
<svg version="1.1" id="Data" xmlns="http://www.w3.org/2000/svg" xmlns:xlink="http://www.w3.org/1999/xlink" x="0px" y="0px"
	 viewBox="0 0 245 245" style="enable-background:new 0 0 245 245;" xml:space="preserve">
<style type="text/css">
	.st0{fill:#70D463;}
	.st1{fill:#FFFFFF;}
</style>
<path id="Full" class="st0" d="M0,122.5C0,190,55,245,122.5,245S245,190,245,122.5S190,0,122.5,0S0,55,0,122.5z"/>
<path id="Data-2" class="st1" d="M106.7,42.5L106.7,42.5c-0.3,0-0.7,0.1-1,0.3L83.4,55.5h0c0.3,0,0.7,0.1,1,0.3l3.2,1.8l19.1-10.8
	L193,96.3l-11.7,6.6l-7.5,4.3l-67-38.5l0.6,0.4l0.2,0.2l0.2,0.1l0.2,0.3l0.1,0.1l0.1,0.3l0.1,0.1c0,0.2,0.1,0.3,0.1,0.5v3.5
	l63.4,36.3l0.1,22l-63.4-36.3l-0.1,3.7v0.8l64.5,37c0.3,0.2,0.6,0.3,1,0.3l0,0c0.3,0,0.7-0.1,1-0.3h0l0,0l23.1-13.1l1-1.7l-0.1-26.5
	l0,0c0-0.7-0.4-1.3-1-1.7l-90.2-51.9C107.4,42.6,107.1,42.5,106.7,42.5 M87.6,57.6L87.6,57.6l19.2,11.1L87.6,57.6 M81.5,184.5
	l-19.1-11.1V74.2l9.1,5.3l10,5.8V184.5 M83.4,55.5c-0.3,0-0.7,0.1-0.9,0.3l-23,13.4l-0.2,0.2l-0.2,0.1l-0.2,0.2l-0.1,0.2l-0.1,0.3
	l-0.1,0.2c0,0.2-0.1,0.3-0.1,0.5v103.7c0,0.7,0.4,1.3,1,1.7l23,13.4c0.3,0.2,0.6,0.3,0.9,0.3h0.1c1.1,0,1.9-0.9,1.9-2V85.3l8.7-5.1
	l10.4-6v74.4h3.9v-47.9l0,0l0-0.8V74.3l0,0l-3.9-2.4L82.6,59.3c-0.6-0.3-1-1-1-1.7l0,0v-0.1l0,0c0-0.7,0.4-1.3,1-1.7L83.4,55.5
	 M108.4,100l0,0.8l0,0V100 M83.5,55.5L83.5,55.5l-0.9,0.5c-0.6,0.3-1,1-1,1.7v0.1c0,0.7,0.4,1.3,1,1.7l21.8,12.6l3.9,2.4l0,0v-3.5
	c0-0.2,0-0.3-0.1-0.5l-0.1-0.1l-0.1-0.3l-0.1-0.1l-0.2-0.3l-0.2-0.1l-0.2-0.2l-0.6-0.4L87.5,57.6l0.1-0.1l-3.2-1.8
	C84.2,55.5,83.8,55.5,83.5,55.5 M198.9,123.1l-0.1,26.1c0,0.7-0.4,1.3-1,1.7l-90.2,51.9c-0.3,0.2-0.6,0.3-1,0.3
	c-0.2,0-0.3,0-0.5-0.1l-0.2-0.1l-0.3-0.1l-23.1-13.2c-0.6-0.3-1-1-1-1.7l0.1-26.5l0-0.3l0-0.2l0.1-0.3l0.1-0.2l0.2-0.3l0.1-0.1
	c0.1-0.1,0.3-0.2,0.4-0.3l0,0l64.2-36.9l0.1,0.1l3.8,2.2l-63.1,36.3l14.4,8.2l4.8,2.7l63.1-36.3l3.1,1.8c0.4,0.2,0.9,0.3,1.4,0.2
	l-65.6,37.7l-0.1,22l86.3-49.6l0.1-21.7l3.1-1.8L198.9,123.1z"/>
</svg>
