<svg xmlns="http://www.w3.org/2000/svg" width="250" height="250" xmlns:v="https://vecta.io/nano"><defs><linearGradient id="A" x1="951.78" y1="1014.87" x2="952.52" y2="1014.08" gradientTransform="matrix(946,0,0,-946,-900261.57,960166.82)" gradientUnits="userSpaceOnUse"><stop offset="0" stop-color="#4d2fe5"/><stop offset=".53" stop-color="#d51fd5"/><stop offset="1" stop-color="#fb767c"/></linearGradient></defs><circle cx="125" cy="125" r="125" fill="#3d3d3d"/><path d="M 0,473 C 0,211.77 211.77,0 473,0 734.23,0 946,211.77 946,473 946,734.23 734.23,946 473,946 211.77,946 0,734.23 0,473 Z m 44,0 C 44,709.55 236.45,902 473,902 709.55,902 902,709.55 902,473 902,236.45 709.55,44 473,44 236.45,44 44,236.45 44,473 Z m 214,281.79 c -31.37,-0.59 -53,-21.59 -61.23,-38.34 -8.23,-16.75 -8.4,-38.5 -0.52,-55 7.88,-16.5 159.35,-322.28 164.34,-332.79 4.99,-10.51 4.47,-9.94 4.54,-21.65 0.07,-11.71 0,-135.8 0,-135.8 0,0 -12.06,0 -19.3,0 -17.5,0 -25.28,-12.71 -25.37,-23 -0.09,-10 6.85,-23.5 24.48,-23.54 15,0 41.28,0 66.71,0 l -0.2,71.19 H 465 v 23.28 H 411.46 V 243 H 465 v 23.17 H 411.46 V 326 c 0,6 -0.83,6.19 -3.82,12.51 -2.99,6.32 -162.79,329.73 -167.83,340.49 -5.04,10.76 5.11,28.89 20.16,29.17 15.05,0.28 407.03,-0.17 426.15,-0.17 19.12,0 24.36,-22.75 20.6,-30.13 C 702.96,670.49 539.68,341 536.84,334.71 c -2.84,-6.29 -2.48,-5.75 -2.34,-16 0.14,-10.25 0,-194 0,-194 h 68.26 a 22.821013,22.821013 0 0 1 0.43,45.64 h -0.43 c -6.25,0.13 -21.91,0 -21.91,0 0,0 0,135.64 0,143.29 0,7.65 2.15,9.36 7.15,19.46 5,10.1 149.11,300.54 158.91,320.2 9.8,19.66 13.23,47.92 -4.3,71.41 -17.53,23.49 -38.24,29.11 -54.72,29.29 -13.42,0.11 -269,1 -380.59,1 -25.51,-0.06 -43.47,-0.1 -49.3,-0.21 z M 456,639 a 16,16 0 1 1 16,16 16,16 0 0 1 -16,-16 z m 47.59,-3.35 a 4.76,4.76 0 1 1 3.41,1.35 4.7,4.7 0 0 1 -3.41,-1.35 z m -69.65,0 a 4.76,4.76 0 1 1 3.35,1.38 4.74,4.74 0 0 1 -3.35,-1.38 z m 90.64,-12.6 a 16,16 0 1 1 22.63,-0.71 l -0.35,0.36 a 16.2,16.2 0 0 1 -11.46,4.79 15.22,15.22 0 0 1 -10.82,-4.44 z M 398.14,622.7 a 15.51,15.51 0 1 1 22.28,0.35 15.17,15.17 0 0 1 -10.82,4.44 16.18,16.18 0 0 1 -11.46,-4.79 z m 69.45,-9.38 a 4.75,4.75 0 1 1 4.74,4.75 4.74,4.74 0 0 1 -4.74,-4.75 z m 0,-13.37 a 4.75,4.75 0 1 1 4.74,4.74 4.74,4.74 0 0 1 -4.74,-4.74 z m 47.24,-2.57 a 4.73,4.73 0 1 1 3.35,1.39 4.73,4.73 0 0 1 -3.35,-1.39 z m -91.37,0 a 4.74,4.74 0 1 1 3.36,1.39 4.74,4.74 0 0 1 -3.36,-1.39 z m 44.13,-10.85 a 4.75,4.75 0 1 1 4.74,4.75 4.74,4.74 0 0 1 -4.74,-4.75 z m 37.78,1.39 a 4.74,4.74 0 1 1 3.35,1.39 4.75,4.75 0 0 1 -3.35,-1.39 z m -72.45,0 a 4.74,4.74 0 1 1 3.35,1.39 4.75,4.75 0 0 1 -3.35,-1.39 z m 120,-1.81 a 4.74,4.74 0 1 1 3.35,1.39 4.74,4.74 0 0 1 -3.35,-1.39 z m -169.22,0 a 4.74,4.74 0 1 1 3.35,1.39 4.73,4.73 0 0 1 -3.35,-1.39 z m 112.16,-7.68 a 4.74,4.74 0 1 1 3.35,1.39 4.74,4.74 0 0 1 -3.35,-1.39 z m -53.47,0 a 4.74,4.74 0 1 1 3.35,1.39 4.74,4.74 0 0 1 -3.35,-1.39 z M 444,548.5 A 28.5,28.5 0 1 1 472.5,577 28.5,28.5 0 0 1 444,548.5 Z M 547,548 a 16,16 0 1 1 16,16 16,16 0 0 1 -16,-16 z m -181,0 a 16,16 0 1 1 16,16 16,16 0 0 1 -16,-16 z m 166.36,0.34 a 4.75,4.75 0 1 1 4.74,4.75 4.74,4.74 0 0 1 -4.74,-4.75 z m -13.37,0 a 4.74,4.74 0 1 1 4.74,4.75 4.74,4.74 0 0 1 -4.74,-4.75 z m -13.42,0 a 4.74,4.74 0 1 1 4.74,4.75 4.74,4.74 0 0 1 -4.74,-4.75 z m -75.63,0 a 4.75,4.75 0 1 1 4.75,4.75 4.75,4.75 0 0 1 -4.75,-4.75 z m -13.41,0 a 4.74,4.74 0 1 1 4.74,4.75 4.74,4.74 0 0 1 -4.74,-4.75 z m -13.38,0 a 4.75,4.75 0 1 1 4.75,4.75 4.75,4.75 0 0 1 -4.75,-4.75 z M 495.88,525 a 4.74,4.74 0 1 1 3.36,1.39 4.75,4.75 0 0 1 -3.36,-1.39 z m -53.47,0 a 4.74,4.74 0 1 1 3.35,1.39 4.75,4.75 0 0 1 -3.35,-1.39 z m 110.53,-8.31 a 4.76,4.76 0 1 1 3.35,1.38 4.73,4.73 0 0 1 -3.35,-1.42 z m -168.22,0 a 4.76,4.76 0 1 1 3.35,1.38 4.7,4.7 0 0 1 -3.35,-1.42 z m 120.65,-1.18 a 4.74,4.74 0 1 1 3.36,1.39 4.75,4.75 0 0 1 -3.36,-1.39 z m -72.45,0 a 4.74,4.74 0 1 1 3.36,1.39 4.75,4.75 0 0 1 -3.36,-1.39 z m 34.84,-5.32 a 4.74,4.74 0 1 1 4.74,4.75 4.74,4.74 0 0 1 -4.74,-4.75 z M 514.83,506 a 4.73,4.73 0 1 1 3.35,1.39 4.73,4.73 0 0 1 -3.35,-1.39 z m -91.37,0 a 4.74,4.74 0 1 1 3.36,1.39 4.75,4.75 0 0 1 -3.36,-1.39 z m 44.3,-9.29 a 4.74,4.74 0 1 1 4.74,4.75 v 0 a 4.74,4.74 0 0 1 -4.74,-4.74 z m -70,-0.47 a 16,16 0 1 1 22.63,-0.72 c -0.12,0.12 -0.24,0.25 -0.36,0.36 a 16.18,16.18 0 0 1 -11.46,4.8 15.21,15.21 0 0 1 -10.81,-4.44 z m 127.15,-0.36 a 15.5,15.5 0 1 1 22.27,0.36 15.21,15.21 0 0 1 -10.81,4.44 16.18,16.18 0 0 1 -11.46,-4.8 z m -57.19,-12.54 a 4.75,4.75 0 1 1 4.75,4.75 v 0 a 4.75,4.75 0 0 1 -4.74,-4.75 z M 456,457 a 16,16 0 1 1 16,16 16,16 0 0 1 -16,-16 z m 47.56,10.43 a 4.74,4.74 0 1 1 3.36,1.39 4.75,4.75 0 0 1 -3.36,-1.39 z m -69.62,-0.37 a 4.73,4.73 0 1 1 3.35,1.39 4.75,4.75 0 0 1 -3.35,-1.39 z" fill="url(#A)" transform="scale(.26427061)"/></svg>