<?xml version="1.0" encoding="utf-8"?>
<!-- Generator: Adobe Illustrator 22.0.0, SVG Export Plug-In . SVG Version: 6.00 Build 0)  -->
<svg version="1.1" id="Eidoo" xmlns="http://www.w3.org/2000/svg" xmlns:xlink="http://www.w3.org/1999/xlink" x="0px" y="0px"
	 viewBox="0 0 245 245" style="enable-background:new 0 0 245 245;" xml:space="preserve">
<style type="text/css">
	.st0{fill:#234858;}
	.st1{fill:#FFFFFF;}
	.st2{opacity:0.5;fill:#FFFFFF;enable-background:new    ;}
</style>
<path id="Full" class="st0" d="M0,122.5C0,190,55,245,122.5,245S245,190,245,122.5S190,0,122.5,0S0,55,0,122.5z"/>
<path id="White" class="st1" d="M98.5,120.5l22-22c1.1-1.1,2.9-1.1,4,0c0,0,0,0,0,0l22,22c1.1,1.1,1.1,2.9,0,4c0,0,0,0,0,0l-22,22
	c-1.1,1.1-2.9,1.1-4,0c0,0,0,0,0,0l-22-22C97.4,123.4,97.4,121.6,98.5,120.5C98.5,120.5,98.5,120.5,98.5,120.5z M98.5,56.5l22-22
	c1.1-1.1,2.9-1.1,4,0l22,22c1.1,1.1,1.1,2.9,0,4c0,0,0,0,0,0l-22,22c-1.1,1.1-2.9,1.1-4,0c0,0,0,0,0,0l-22-22
	C97.4,59.4,97.4,57.6,98.5,56.5C98.5,56.5,98.5,56.5,98.5,56.5z M98.5,185l22-22c1.1-1.1,2.9-1.1,4,0c0,0,0,0,0,0l22,22
	c1.1,1.1,1.1,2.9,0,4c0,0,0,0,0,0l-22,22c-1.1,1.1-2.9,1.1-4,0c0,0,0,0,0,0l-22-22C97.4,187.9,97.4,186.1,98.5,185
	C98.5,185,98.5,185,98.5,185z"/>
<path id="Transparent" class="st2" d="M67,152.5l22-22c1.1-1.1,2.9-1.1,4,0c0,0,0,0,0,0l22,22c1.1,1.1,1.1,2.9,0,4c0,0,0,0,0,0
	l-22,22c-1.1,1.1-2.9,1.1-4,0c0,0,0,0,0,0l-22-22C65.9,155.4,65.9,153.6,67,152.5C67,152.5,67,152.5,67,152.5z M130,88.5l22-22
	c1.1-1.1,2.9-1.1,4,0c0,0,0,0,0,0l22,22c1.1,1.1,1.1,2.9,0,4c0,0,0,0,0,0l-22,22c-1.1,1.1-2.9,1.1-4,0c0,0,0,0,0,0l-22-22
	C128.9,91.4,128.9,89.6,130,88.5C130,88.5,130,88.5,130,88.5z M130,153.5L184,99c1.1-1.1,2.9-1.1,4,0c0,0,0,0,0,0l22,22
	c1.1,1.1,1.1,2.9,0,4c0,0,0,0,0,0l-54,54.5c-1.1,1.1-2.9,1.1-4,0c0,0,0,0,0,0l-22-22C128.9,156.4,128.9,154.6,130,153.5
	C130,153.5,130,153.5,130,153.5z M35.5,121l54-54.5c1.1-1.1,2.9-1.1,4,0c0,0,0,0,0,0l22,22c1.1,1.1,1.1,2.9,0,4c0,0,0,0,0,0
	l-54,54.5c-1.1,1.1-2.9,1.1-4,0c0,0,0,0,0,0l-22-22C34.4,123.9,34.4,122.1,35.5,121C35.5,121,35.5,121,35.5,121z"/>
</svg>
