<svg xmlns="http://www.w3.org/2000/svg" fill-rule="evenodd" stroke-linejoin="round" stroke-miterlimit="2" width="250" height="250" xmlns:v="https://vecta.io/nano"><circle cx="125" cy="125" r="125" fill="#fff"/><path d="M175.999 73.767c-.665-.665-1.064-1.329-1.064-2.26s.399-1.595 1.064-2.26c1.329-1.196 3.456-1.196 4.919 0 .665.665 1.064 1.329 1.064 2.26s-.399 1.595-1.064 2.26c-.665.532-1.595.931-2.393.931-.931.133-1.861-.133-2.526-.931zm-8.508 9.173c-.532-.665-.931-1.329-.931-2.26s.399-1.595.931-2.26c1.196-1.196 3.324-1.196 4.52 0 .532.665.931 1.329.931 2.26s-.399 1.595-.931 2.26c-.665.532-1.329.931-2.26.931s-1.595-.399-2.26-.931zm-9.306 8.774c-.532-.532-.931-1.329-.931-2.26s.399-1.595.931-2.26c1.196-1.196 3.324-1.196 4.52 0 .532.532.931 1.329.931 2.26s-.399 1.595-.931 2.26a2.91 2.91 0 0 1-2.26.931c-.931 0-1.728-.399-2.26-.931zm-8.907 8.907c-.665-.532-1.064-1.329-1.064-2.26s.399-1.595 1.064-2.26c1.329-1.196 3.456-1.196 4.919 0 .665.532 1.064 1.329 1.064 2.26s-.399 1.728-1.064 2.26c-.665.665-1.595.931-2.393.931-.931 0-1.728-.133-2.526-.931zm-8.508 8.908c-.665-.532-.931-1.329-.931-2.26s.399-1.595.931-2.26c1.196-1.196 3.324-1.196 4.52 0 .665.532.931 1.329.931 2.26s-.399 1.728-.931 2.26c-.532.665-1.329.931-2.26.931-.798.133-1.728-.133-2.26-.931zm-10.237 6.647c0-.931.399-1.595.931-2.26 1.196-1.196 3.324-1.196 4.52 0a2.91 2.91 0 0 1 .931 2.26c0 .931-.399 1.595-.931 2.26-.532.532-1.329.931-2.26.931s-1.595-.399-2.26-.931-.931-1.329-.931-2.26zm-16.617 19.675c-.532-.532-.931-1.329-.931-2.26s.399-1.595.931-2.26c1.196-1.196 3.324-1.196 4.52 0a2.91 2.91 0 0 1 .931 2.26c0 .931-.399 1.595-.931 2.26s-1.329.931-2.26.931c-.798.133-1.595-.133-2.26-.931zm-9.173 8.907c-.665-.532-1.064-1.329-1.064-2.26s.399-1.595 1.064-2.26c1.329-1.196 3.456-1.196 4.919 0 .665.665 1.064 1.329 1.064 2.26s-.399 1.595-1.064 2.26-1.595.931-2.393.931c-1.064.133-1.861-.266-2.526-.931zm-8.642 9.04c-.532-.532-.931-1.329-.931-2.26s.399-1.728.931-2.26c1.196-1.196 3.324-1.196 4.52 0 .532.532.931 1.329.931 2.26s-.399 1.595-.931 2.26a2.91 2.91 0 0 1-2.26.931c-.931 0-1.462-.399-2.26-.931zm-8.907 8.907c-.665-.532-.931-1.329-.931-2.26s.399-1.595.931-2.26c1.196-1.196 3.324-1.196 4.52 0 .532.665.931 1.329.931 2.26s-.399 1.728-.931 2.26a2.91 2.91 0 0 1-2.26.931c-.798 0-1.728-.266-2.26-.931zm-9.173 8.907c-.665-.532-1.064-1.329-1.064-2.26s.399-1.595 1.064-2.26c1.329-1.196 3.456-1.196 4.653 0 .665.665 1.064 1.329 1.064 2.26s-.399 1.728-1.064 2.26-1.595.931-2.393.931c-.931 0-1.728-.266-2.26-.931zm-8.774 8.907a2.91 2.91 0 0 1-.931-2.26c0-.931.399-1.595.931-2.26 1.196-1.196 3.324-1.196 4.52 0a2.91 2.91 0 0 1 .931 2.26c0 .931-.399 1.595-.931 2.26-.532.532-1.329.931-2.26.931-.665.133-1.462-.266-2.26-.931zm4.52-106.752c.532-.665.931-1.329.931-2.26s-.399-1.595-.931-2.26c-1.196-1.196-3.324-1.196-4.52 0a2.91 2.91 0 0 0-.931 2.26c0 .931.399 1.595.931 2.26.532.532 1.329.931 2.26.931.931.133 1.728-.133 2.26-.931zm8.907 9.173c.665-.665 1.064-1.329 1.064-2.26s-.399-1.595-1.064-2.26c-1.329-1.196-3.456-1.196-4.919 0-.665.665-1.064 1.329-1.064 2.26s.399 1.595 1.064 2.26c.665.532 1.595.931 2.393.931.931-.133 1.861-.399 2.526-.931zm9.04 8.774c.532-.532.931-1.329.931-2.26s-.399-1.595-.931-2.26c-1.196-1.196-3.324-1.196-4.52 0-.532.532-.931 1.329-.931 2.26s.399 1.595.931 2.26a2.91 2.91 0 0 0 2.26.931c.798 0 1.595-.399 2.26-.931zm8.907 8.907c.532-.532.931-1.329.931-2.26s-.399-1.595-.931-2.26c-1.196-1.196-3.324-1.196-4.52 0-.532.532-.931 1.329-.931 2.26s.399 1.728.931 2.26a2.91 2.91 0 0 0 2.26.931c.798 0 1.595-.133 2.26-.931zm8.775 8.908c.665-.532 1.064-1.329 1.064-2.26s-.399-1.595-1.064-2.26c-1.196-1.196-3.456-1.196-4.653 0-.665.532-1.064 1.329-1.064 2.26s.399 1.728 1.064 2.26c.665.665 1.595.931 2.393.931.798.133 1.728-.133 2.26-.931zm9.97 6.647c0-.931-.399-1.595-.931-2.26-1.196-1.196-3.324-1.196-4.52 0a2.91 2.91 0 0 0-.931 2.26c0 .931.399 1.595.931 2.26.532.532 1.329.931 2.26.931s1.595-.399 2.26-.931.931-1.329.931-2.26zm7.977 11.3a2.91 2.91 0 0 0 .931-2.26c0-.931-.399-1.595-.931-2.26-1.196-1.196-3.324-1.196-4.52 0a2.91 2.91 0 0 0-.931 2.26c0 .931.399 1.595.931 2.26.532.532 1.329.931 2.26.931s1.728-.399 2.26-.931zm8.907 8.375c.665-.532 1.064-1.329 1.064-2.26s-.399-1.595-1.064-2.26c-1.329-1.196-3.456-1.196-4.653 0-.665.665-1.064 1.329-1.064 2.26s.399 1.595 1.064 2.26 1.595.931 2.393.931c.665.133 1.595-.133 2.26-.931zm9.04 8.907c.532-.532.931-1.329.931-2.26s-.399-1.595-.931-2.26c-1.196-1.196-3.324-1.196-4.52 0-.532.665-.931 1.329-.931 2.26s.399 1.595.931 2.26a2.91 2.91 0 0 0 2.26.931c.665.133 1.595-.266 2.26-.931zm8.907 9.04c.532-.532.931-1.329.931-2.26s-.399-1.728-.931-2.26c-1.196-1.196-3.324-1.196-4.52 0-.532.532-.931 1.329-.931 2.26s.399 1.595.931 2.26a2.91 2.91 0 0 0 2.26.931c.931 0 1.595-.399 2.26-.931zm8.375 8.907c.665-.532.931-1.329.931-2.26s-.399-1.595-.931-2.26c-1.196-1.196-3.324-1.196-4.52 0-.532.665-.931 1.329-.931 2.26s.399 1.728.931 2.26a2.91 2.91 0 0 0 2.26.931c.798 0 1.728-.266 2.26-.931zm9.439 8.907c.665-.532.931-1.329.931-2.26s-.399-1.595-.931-2.26c-1.196-1.196-3.324-1.196-4.52 0a2.91 2.91 0 0 0-.931 2.26c0 .931.399 1.728.931 2.26s1.329.931 2.26.931 1.728-.266 2.26-.931zm8.907 8.907c.665-.665 1.064-1.329 1.064-2.26s-.399-1.595-1.064-2.26c-1.329-1.196-3.456-1.196-4.653 0-.665.665-1.064 1.329-1.064 2.26s.399 1.595 1.064 2.26c.665.532 1.595.931 2.393.931.665.133 1.462-.266 2.26-.931zM94.905 76.293c9.04-5.982 19.011-8.774 30.045-8.907 10.768 0 20.739 2.925 30.045 8.907l19.144-19.144C159.116 45.716 142.897 40 124.95 40s-34.432 5.716-49.055 17.149zm-19.144 78.569c-6.115-9.306-9.04-19.144-9.04-29.779 0-10.768 2.925-20.739 9.04-29.779l-19.01-19.011C45.584 90.917 40 107.136 40 125.216c0 17.814 5.584 34.166 16.884 49.055zm79.101 19.01c-9.04 6.115-19.011 9.306-29.779 9.439-11.034 0-21.138-2.925-30.178-9.306l-19.144 19.011c14.757 11.566 31.241 17.282 49.321 17.149 17.947-.133 34.166-5.982 48.79-17.149zm18.744-78.834c6.115 9.306 9.306 19.409 9.04 30.311-.133 10.635-3.191 20.34-9.04 29.247l19.144 19.011c11.3-14.624 17.149-30.842 17.149-48.657.133-18.08-5.584-34.565-17.149-49.321zm19.942 84.817c7.312 0 13.427 5.982 13.427 13.427 0 7.312-5.982 13.427-13.427 13.427-7.312 0-13.427-5.982-13.427-13.427a13.39 13.39 0 0 1 13.427-13.427zm-136.93 0c7.312 0 13.294 5.982 13.294 13.427 0 7.312-5.982 13.427-13.294 13.427s-13.294-5.982-13.294-13.427 5.982-13.427 13.294-13.427zm137.196-136.93c7.312 0 13.294 5.982 13.294 13.427s-5.982 13.427-13.294 13.427-13.294-5.982-13.294-13.427 5.982-13.427 13.294-13.427zm-137.462 0c7.312 0 13.427 5.982 13.427 13.294s-5.982 13.294-13.427 13.294c-7.312 0-13.427-5.982-13.427-13.294s5.982-13.294 13.427-13.294z" fill="#0d022b"/></svg>