<svg id="Eidoo" xmlns="http://www.w3.org/2000/svg" width="256" height="256" viewBox="0 0 512 512">
  <defs>
    <style>
      .cls-1 {
        fill: #234858;
      }

      .cls-1, .cls-2, .cls-3 {
        fill-rule: evenodd;
      }

      .cls-2, .cls-3 {
        fill: #fff;
      }

      .cls-3 {
        opacity: 0.5;
      }
    </style>
  </defs>
  <path id="Full" class="cls-1" d="M11,256c0,135.094,109.906,245,245,245S501,391.094,501,256,391.094,11,256,11,11,120.906,11,256Z"/>
  <path id="White" class="cls-2" d="M208.036,252L252,208.036a5.652,5.652,0,0,1,7.994,0L303.964,252a5.652,5.652,0,0,1,0,7.994L260,303.964a5.652,5.652,0,0,1-7.994,0L208.036,260A5.652,5.652,0,0,1,208.036,252Zm0-128L252,80.036a5.653,5.653,0,0,1,7.994,0L303.964,124a5.652,5.652,0,0,1,0,7.994L260,175.964a5.652,5.652,0,0,1-7.994,0L208.036,132A5.652,5.652,0,0,1,208.036,124Zm0,257L252,337.036a5.652,5.652,0,0,1,7.994,0L303.964,381a5.652,5.652,0,0,1,0,7.994L260,432.964a5.652,5.652,0,0,1-7.994,0L208.036,389A5.652,5.652,0,0,1,208.036,381Z"/>
  <path id="Transparent" class="cls-3" d="M145.036,316L189,272.036a5.652,5.652,0,0,1,7.994,0L240.964,316a5.652,5.652,0,0,1,0,7.994L197,367.964a5.652,5.652,0,0,1-7.994,0L145.036,324A5.652,5.652,0,0,1,145.036,316Zm126-128L315,144.036a5.652,5.652,0,0,1,7.994,0L366.964,188a5.652,5.652,0,0,1,0,7.994L323,239.964a5.652,5.652,0,0,1-7.994,0L271.036,196A5.652,5.652,0,0,1,271.036,188Zm0,130L379,209.036a5.652,5.652,0,0,1,7.994,0L430.964,253a5.652,5.652,0,0,1,0,7.994L323,369.964a5.652,5.652,0,0,1-7.994,0L271.036,326A5.652,5.652,0,0,1,271.036,318Zm-189-65L190,144.036a5.652,5.652,0,0,1,7.994,0L241.964,188a5.652,5.652,0,0,1,0,7.994L134,304.964a5.652,5.652,0,0,1-7.994,0L82.036,261A5.653,5.653,0,0,1,82.036,253Z"/>
</svg>
