<?xml version="1.0" encoding="UTF-8"?><svg id="CIRCLE_OUTLINE_BLACK" xmlns="http://www.w3.org/2000/svg" viewBox="0 0 512 512"><circle cx="256" cy="256" r="256" fill="#fff" stroke-width="0"/><path d="m124.52952,406.32438V105.67562c.59342.00911,1.18683.02615,1.78025.02619,23.84042.00134,47.68084.00115,71.52126.00115.57293,0,1.14587,0,1.85873,0v225.44124h37.65714v-74.97891c.4568-.03028.72708-.06378.99735-.06385,11.82887-.00274,23.65773-.0039,35.4866.00326.40626.00025.81251.08759,1.21732.13252-.00142-.00181-.03432-.03849-.03432-.03849-.0559.53669-.1605,1.07336-.16068,1.61006-.0081,23.88568-.00701,47.77138-.00701,71.65706v1.79969h74.82404v75.0472h-1.97632c-73.7032,0-147.4064-.00007-221.10961.00047-.68492,0-1.36983.00729-2.05475.01117Z" fill="#1f0472" stroke-width="0"/><path d="m349.99038,180.71541c.00515,24.78966.01039,49.57934.01363,74.369.00003.22622-.02696.45243-.05138.83633-.6255.03011-1.24249.08566-1.85948.08578-23.78247.0044-47.56494.00241-71.34741.01142-.57865.00022-1.15727.11524-1.7339.17873.00201.00204.03491.03872.03633.04053-.03725-.68004-.10967-1.36189-.10979-2.04374-.00547-36.30614-.00483-72.61228-.00483-108.91843v-2.03593h-36.04036v-37.44335h73.51548v74.94517c.49998.04561.85017.10533,1.20042.10547,11.82658.00483,23.65318.00472,35.47976.00024.31658-.00013.63314-.05623.94971-.08622l-.04819-.04501Z" fill="#1f0472" stroke-width="0"/><path d="m350.03856,180.76042c.00999-7.44144.02671-14.88289.0286-22.32433.0043-16.98389.00135-33.96779.00135-50.95169v-1.69808h37.40196v74.90767c-.35398.02839-.70371.08081-1.05346.08094-11.82335.00426-23.64673.00402-35.47008.00098-.31809-.00008-.63616-.03824-.9554-.05958-.00117-.00092.04702.04409.04702.04409Z" fill="#1f0472" stroke-width="0"/></svg>