<svg id="Electrify" xmlns="http://www.w3.org/2000/svg" width="256" height="256" viewBox="0 0 512 512">
  <defs>
    <style>
      .cls-1 {
        fill: #f90;
      }

      .cls-1, .cls-2, .cls-3 {
        fill-rule: evenodd;
      }

      .cls-2 {
        fill: none;
        stroke: #fff;
        stroke-linecap: round;
        stroke-linejoin: round;
        stroke-width: 2px;
      }

      .cls-3 {
        fill: #fff;
      }
    </style>
  </defs>
  <path id="Full" class="cls-1" d="M11,256c0,135.094,109.906,245,245,245S501,391.094,501,256,391.094,11,256,11,11,120.906,11,256Z"/>
  <g id="Cloud">
    <path id="Outer" class="cls-2" d="M95,272l59-16,11-52,40-19,18,5,45-43,44,11,20,39,33,6,21,36,36,22,1,56-52,27-83,1-63,18-81-11L89,327Z"/>
    <path id="Line" class="cls-2" d="M95,272l51,48,71-45,4-85,111,7-30,35,84,8-51,36,37,67-85-72-10,33,12,40"/>
    <path id="Line2" class="cls-2" d="M89,327l57-7,143,24-72-69,70-4-65-81,80,42-48,36,81,7,87,42-36-78L267,147"/>
    <path id="Line3" class="cls-2" d="M144,352l1-33,9-63,63,19-3-37-49-34,57-13,51,65-53,22,152,66"/>
    <path id="Line4" class="cls-2" d="M225,363l-81-43,10-64,61-16,92,32,28,3-33-43"/>
  </g>
  <path id="Lightning" class="cls-3" d="M305,124L178,283h69L207,387,349,239H274Z"/>
</svg>
