<?xml version="1.0" encoding="utf-8"?>
<!-- Generator: Adobe Illustrator 22.0.0, SVG Export Plug-In . SVG Version: 6.00 Build 0)  -->
<svg version="1.1" id="Electrify" xmlns="http://www.w3.org/2000/svg" xmlns:xlink="http://www.w3.org/1999/xlink" x="0px" y="0px"
	 viewBox="0 0 245 245" style="enable-background:new 0 0 245 245;" xml:space="preserve">
<style type="text/css">
	.st0{fill:#FF9900;}
	.st1{fill:none;stroke:#FFFFFF;stroke-linecap:round;stroke-linejoin:round;}
	.st2{fill:#FFFFFF;}
</style>
<path id="Full" class="st0" d="M0,122.5C0,190,55,245,122.5,245S245,190,245,122.5S190,0,122.5,0S0,55,0,122.5z"/>
<g id="Cloud">
	<path id="Outer" class="st1" d="M42,130.5l29.5-8l5.5-26L97,87l9,2.5L128.5,68l22,5.5l10,19.5l16.5,3l10.5,18l18,11l0.5,28
		l-26,13.5l-41.5,0.5l-31.5,9l-40.5-5.5L39,158L42,130.5z"/>
	<path id="Line" class="st1" d="M42,130.5l25.5,24L103,132l2-42.5l55.5,3.5l-15,17.5l42,4l-25.5,18l18.5,33.5L138,130l-5,16.5l6,20"
		/>
	<path id="Line2" class="st1" d="M39,158l28.5-3.5l71.5,12L103,132l35-2l-32.5-40.5l40,21l-24,18L162,132l43.5,21l-18-39L128,68"/>
	<path id="Line3" class="st1" d="M66.5,170.5L67,154l4.5-31.5L103,132l-1.5-18.5L77,96.5l28.5-6.5l25.5,32.5l-26.5,11l76,33"/>
	<path id="Line4" class="st1" d="M107,176l-40.5-21.5l5-32l30.5-8l46,16l14,1.5l-16.5-21.5"/>
</g>
<path id="Lightning" class="st2" d="M147,56.5L83.5,136H118l-20,52l71-74h-37.5L147,56.5z"/>
</svg>
