<?xml version="1.0" encoding="utf-8"?>
<!-- Generator: Adobe Illustrator 22.0.0, SVG Export Plug-In . SVG Version: 6.00 Build 0)  -->
<svg version="1.1" id="Aelf" xmlns="http://www.w3.org/2000/svg" xmlns:xlink="http://www.w3.org/1999/xlink" x="0px" y="0px"
	 viewBox="0 0 245 245" style="enable-background:new 0 0 245 245;" xml:space="preserve">
<style type="text/css">
	.st0{fill:#2B60BF;}
	.st1{fill:#FFFFFF;}
</style>
<path id="Main" class="st0" d="M0,122.5C0,190,55,245,122.5,245S245,190,245,122.5S190,0,122.5,0S0,55,0,122.5z"/>
<g id="Aelf-2">
	<circle id="Big_Round" class="st1" cx="175.8" cy="122.2" r="34.8"/>
	<circle id="Round_Up" class="st1" cx="130.8" cy="57.8" r="16.8"/>
	<circle id="Round_Down" class="st1" cx="130.8" cy="190.2" r="16.8"/>
	<path id="Drop_Up" class="st1" d="M43.5,83.5c0-20.7,18.1-25.5,25-25.5c20.2,0,24.8,21.6,28,25.5c1,3.1,6.6,10.7,11,13
		c11.9,2.9,13.7-0.7,20.5-0.5c4.2,0,9,4.2,9,10c0,4.5-4.4,9.6-9,9.5c-12.3,0.3-9.7-10.4-22.9-16c-13.8-2.3-23.7,9.5-36.5,9.5
		C60.8,109,43.5,104.2,43.5,83.5z"/>
	<path id="Drop_Down" class="st1" d="M43.5,161.5c0,20.7,18.1,25.5,25,25.5c20.2,0,24.8-21.6,28-25.5c1-3.1,6.6-10.7,11-13
		c11.9-2.9,13.7,0.7,20.5,0.5c4.2,0,9-4.2,9-10c0-4.5-4.4-9.6-9-9.5c-12.3-0.3-9.7,10.4-22.9,16c-13.8,2.3-23.7-9.5-36.5-9.5
		C60.8,136,43.5,140.8,43.5,161.5z"/>
</g>
</svg>
