<svg xmlns="http://www.w3.org/2000/svg" viewBox="0 0 128 128" xmlns:v="https://vecta.io/nano"><defs><linearGradient id="A" x1="99.52" x2="99.52" y1="35.22" y2="33.52" href="#H"><stop offset="0" stop-color="#534741"/><stop offset=".31" stop-color="#554943"/><stop offset=".53" stop-color="#5f534a"/><stop offset=".72" stop-color="#6e6256"/><stop offset=".9" stop-color="#847967"/><stop offset="1" stop-color="#958a74"/></linearGradient><linearGradient id="B" x1="63.21" x2="63.21" y1="41.84" y2="17.29" href="#H"><stop offset="0" stop-color="#534741"/><stop offset=".31" stop-color="#554943"/><stop offset=".53" stop-color="#5f534a"/><stop offset=".72" stop-color="#6e6256"/><stop offset=".9" stop-color="#847967"/><stop offset="1" stop-color="#958a74"/></linearGradient><linearGradient id="C" x1="26.15" x2="26.15" y1="72.51" y2="40.01" href="#H"><stop offset="0" stop-color="#664a13"/><stop offset=".27" stop-color="#674b15"/><stop offset=".46" stop-color="#6b521f"/><stop offset=".63" stop-color="#735c2e"/><stop offset=".78" stop-color="#7e6b45"/><stop offset=".92" stop-color="#8c7d61"/><stop offset="1" stop-color="#958a74"/></linearGradient><linearGradient id="D" x1="96.83" x2="96.83" y1="74.08" y2="43.11" href="#H"><stop offset="0" stop-color="#534741"/><stop offset=".57" stop-color="#544842"/><stop offset=".77" stop-color="#5b4e46"/><stop offset=".91" stop-color="#67584f"/><stop offset="1" stop-color="#736357"/></linearGradient><radialGradient id="E" cx="64.33" cy="63.17" r="39.39" fx="64.33" fy="75.4" gradientTransform="matrix(1 0 0 -1 0 128.43)" href="#H"><stop offset="0" stop-color="#fbf5cb"/><stop offset=".06" stop-color="#fbeec1"/><stop offset=".35" stop-color="#fbd497"/><stop offset=".62" stop-color="#fbc079"/><stop offset=".84" stop-color="#fbb566"/><stop offset="1" stop-color="#fcb160"/></radialGradient><radialGradient id="F" cx="64.62" cy="34.78" r="30.56" fx="64.62" fy="24.54" gradientTransform="matrix(1 0 0 -1 0 128.43)" href="#H"><stop offset=".49" stop-color="#fff"/><stop offset=".94" stop-color="#f0eff1"/><stop offset=".99" stop-color="#efeef0"/></radialGradient><clipPath id="G"><circle cx="64" cy="64" r="64" fill="none"/></clipPath><linearGradient id="H" gradientUnits="userSpaceOnUse"/></defs><circle cx="64" cy="64" r="64" fill="#fff"/><g clip-path="url(#G)"><path d="M99.58 33.66c-.19-.1-.45.03-.55.22s-.11.42-.11.64c0 .24.02.51.22.65.27.18.62-.06.78-.34.23-.39.27-.88.13-1.31" fill="url(#A)"/><path d="m25.76 85.62-3.91-5.48 2.35-2.74 2.74-12.92 3.13-12.14V40.59l.39-5.09 1.57-4.7 1.17-1.56h3.13l42.29 2.74 11.36-1.96 3.92-.78h2.34l1.57 1.56.79 4.7.78 9.01.78 12.92 2.35 9.79 2.35 8.61 1.96 4.31-.79 1.96-2.35 1.96-20.75 16.83-34.85.4z" fill="url(#E)"/><path d="M65.5 111.27c1.57-1.96 7.82-4.9 7.82-4.9 16.45-4.7 27.8-17.62 27.8-17.62l2.74-4.7c0-.39 1.57-6.66-3.92-7.83-5.48-1.18-8.61 3.13-14.1 5.48-5.48 2.35-6.26 2.35-14.1-2.35 0 0-2.74-1.96-7.05-1.96h-.18c-4.31 0-7.05 1.96-7.05 1.96-7.83 4.7-8.61 4.7-14.1 2.35-5.48-2.35-8.61-6.66-14.1-5.48-5.48 1.18-3.92 7.44-3.92 7.83l2.74 4.7s11.36 12.92 27.8 17.62c0 0 5.87 2.35 7.44 4.31" fill="url(#F)"/><path d="M46.32 40.79s-6.26 3.52-9.01-2.35l-.39-4.31s2.74 4.7 8.61 5.48c0 0-7.44-4.31-6.66-11.75l1.18-4.7.78 3.52 1.57 1.96s1.18-5.09 2.35-5.87c0 0 2.35 2.74 4.7 3.52 0 0-1.18-4.7 1.96-9.01 0 0 1.18 6.66 10.96 5.87h3.13s-3.92-1.18-5.09-2.74c0 0 5.09 1.57 14.49 1.18 0 0 9.4.39 10.57 9.4 0 0 1.57-.78.78-3.52l-4.31-5.87s8.61 1.57 7.44 9.79l-5.24 10.19-1.02-3.53-1.57.78-1.18-2.35-.78 2.35-3.13-3.13s1.96 2.74-5.48 1.18c-7.44-1.57.78 1.18.78 1.18s-6.26 1.57-13.31 0l-1.96-1.18s.78 1.18 3.13 2.74c0 0-3.92.39-5.87-1.18 0 0-2.74-1.96-.39 1.57l-2.35-.39.39.78-4.7.39h-.39Z" fill="url(#B)"/><path d="M29.87 40.01s-.39 5.09 1.96 15.27c0 0-2.74 7.44-3.13 17.23 0 0-1.18-6.66-1.57-13.31v-2.74s-1.18-4.31 1.57-7.44l1.18-2.74s-4.7 1.57-9.4-2.35l5.09.39-5.09-1.96s4.31.39 6.66-.78l2.74-1.57Z" fill="url(#C)"/><path d="M87.83 43.53s8.22-1.18 10.96.39l.39-.78 2.35.39-1.18.78 3.52 1.96v1.18l-1.18 1.57-1.57 2.74 3.13-.39-1.57 1.96 1.96.78-1.96 1.18 1.96 1.96-4.7-1.57 2.74 3.52 3.13 5.48-2.35-.78.39 3.13v3.13l-2.35-6.26s-1.57 7.83-2.74 10.18l.39-7.83.39-5.87s-3.52.78-5.09-1.96l3.13-1.18s-3.92-1.57-5.87-3.92h1.96l-3.52-2.35s-.78-1.18 4.31-.78c0 0-5.09-.78-4.31-4.31 0 0-1.96-.78-2.35-2.35Z" fill="url(#D)"/><path d="M39.93 34.19S35.75 31 34.18 35.3s.39 14.1.78 14.88c-.11.07 2.87-4.68 8.93-8.07.65-.37-4.54-.67-3.84-.93l-2.74-3.13-.39-2.74s5.87 4.7 7.44 3.52zm48.29.33s5.01-4.28 6.84.78c.99 2.74.6 7.44.6 7.44-8.61.78-7.05 1.57-7.05 1.57-1.84-1.68-2.68-2.15-5.3-3.13l2.56-3.52 2.35-3.13z" fill="#fff"/><path d="M46.28 40.5c-2.03.84-4.58 1.14-6.53-.07-2.18-1.35-2.45-4.14-2.62-6.46l-.84.23c2.02 3.98 6.45 5.64 10.64 6.09.52.06.58-.74.12-.88-1.02-.33-1.97-.94-2.85-1.54-1.13-.78-2.2-1.68-3.08-2.74-1.55-1.86-2.16-4.42-2.01-6.8.11-1.87.73-3.66 1.68-5.27l-.84-.23a8.86 8.86 0 0 0 2.02 5.86c.37.45 1-.19.64-.64a7.87 7.87 0 0 1-1.75-5.22c.01-.45-.62-.6-.84-.23-1.65 2.82-2.27 6.16-1.44 9.35.3 1.16.79 2.3 1.5 3.27.86 1.18 1.97 2.16 3.14 3.03 1.09.81 2.3 1.61 3.61 2.02l.12-.88c-3.89-.42-7.99-1.97-9.87-5.65-.2-.39-.87-.22-.84.23.2 2.63.56 5.61 2.97 7.18 2.14 1.4 5.05 1.16 7.32.22.53-.22.3-1.09-.24-.87h.01Z"/><path d="M51.81 40.08c-2.4-1.56-4.65-3.5-6.42-5.75-.84-1.07-1.6-2.25-2-3.56s-.46-2.71-.19-4.06a9.5 9.5 0 0 1 2.06-4.2l-.75-.2c.36.96.87 1.87 1.63 2.57s1.76 1.19 2.79 1.5c.56.16.79-.7.24-.87-.87-.26-1.71-.64-2.39-1.26s-1.09-1.36-1.4-2.17c-.11-.29-.51-.48-.75-.2-1.92 2.28-2.9 5.29-2.33 8.25s2.8 5.52 4.97 7.54c1.27 1.18 2.64 2.25 4.09 3.19.49.32.94-.46.45-.78"/><path d="M47.07 25.65c-.36 2.73.55 5.54 1.89 7.9 1.21 2.12 2.94 3.85 5.18 4.87.52.24.98-.54.45-.78-2.11-.96-3.72-2.54-4.86-4.54-1.27-2.23-2.11-4.86-1.77-7.44.07-.57-.83-.57-.9 0zm11.25 11.39c-2.77-1.06-4.74-3.45-6.22-5.92-.82-1.37-1.64-2.81-2.13-4.33-.53-1.63-.5-3.33-.1-4.98.46-1.88 1.32-3.64 2.28-5.31l-.84-.23c-.04 2.2 1.01 4.35 2.75 5.69 2.03 1.57 4.68 1.65 7.14 1.67 2.65 0 5.33-.01 7.96.46 1.33.24 2.64.6 3.87 1.17s2.37 1.28 3.48 2.03c2.31 1.58 4.96 3.6 5.12 6.64.03.58.93.58.9 0-.15-2.57-1.84-4.61-3.79-6.13-2.08-1.63-4.38-3.13-6.91-3.96-2.5-.82-5.16-1.02-7.78-1.08-1.34-.03-2.68 0-4.02-.04s-2.57-.14-3.78-.57c-2.45-.87-4.1-3.29-4.06-5.88a.46.46 0 0 0-.84-.23c-1.76 3.06-3.31 6.67-2.47 10.27.4 1.7 1.3 3.32 2.17 4.82.79 1.36 1.68 2.68 2.76 3.83 1.2 1.29 2.62 2.32 4.27 2.95.54.21.78-.66.24-.87m-.3-9.95c2.83 4.76 7.76 8.18 13.18 9.27a19.59 19.59 0 0 0 4.71.37c.58-.03.58-.93 0-.9-5.31.25-10.62-1.89-14.37-5.65a18.3 18.3 0 0 1-2.76-3.55c-.3-.5-1.07-.05-.78.45z"/><path d="M70.99 34.08c3.31.58 6.36 2.39 8.41 5.07.24.31.88.27.84-.23-.07-.84.06-1.67.43-2.42h-.78l1.34 2.59c.14.27.5.27.71.09l1.36-1.21-.75-.2.67 3.25c.04.25.34.35.55.31.36-.07.58-.37.57-.73 0-.58-.91-.58-.9 0l.09-.14.55.31-.67-3.25c-.09-.34-.51-.42-.75-.2l-1.36 1.21.71.09-1.34-2.59c-.15-.29-.63-.3-.78 0-.44.9-.64 1.88-.55 2.88l.84-.23c-2.18-2.86-5.39-4.86-8.95-5.48-.57-.1-.81.77-.24.87z"/><path d="M79.67 21.49c2.48 1.04 4.48 3.05 5.65 5.45 1.33 2.7 1.36 5.69.52 8.54-.52 1.78-1.32 3.47-2.19 5.1-.14.27.03.72.39.68-.39.05-.33-.29-.24-.06.02.05.06.11.08.16l.19.38c.12.21.3.48.57.45.57-.07.57-.97 0-.9.39-.05.33.29.24.06-.02-.05-.06-.11-.08-.16l-.19-.38c-.12-.21-.3-.48-.57-.45l.39.68c1.63-3.05 3.08-6.43 2.89-9.97-.15-2.87-1.42-5.63-3.4-7.7-1.14-1.19-2.5-2.11-4.01-2.75-.53-.22-.77.65-.24.87M67 22.93c-2.16-.34-4.22-1.11-6.11-2.21-.82-.48-1.64-1-2.31-1.6l-.55.71c2.41 1.04 4.92 1.68 7.54 1.89s5.01.06 7.51.14c2.5.09 5.25.58 7.48 2.01 2.01 1.3 3.41 3.52 4.06 5.79.92 3.18-.09 6.3-1.42 9.2-.24.52.54.98.78.45 1.24-2.69 2.28-5.61 1.8-8.62-.39-2.41-1.61-4.79-3.37-6.49-4-3.86-9.85-3.13-14.93-3.28-3.12-.09-6.12-.64-8.99-1.87-.43-.18-.96.34-.55.71.75.67 1.62 1.23 2.49 1.73 1.95 1.13 4.09 1.94 6.32 2.3.57.09.81-.78.24-.87z"/><path d="M79.78 21.3c3.25.94 6.94 2.12 8.63 5.32s-.12 6.57-1.62 9.45c-.79 1.51-1.59 3.03-2.53 4.45-.32.48.46.93.78.45.9-1.35 1.67-2.78 2.41-4.22s1.64-2.99 2.12-4.6c.53-1.76.61-3.69-.12-5.41-.67-1.58-1.89-2.85-3.3-3.8-1.85-1.24-4.02-1.9-6.14-2.51-.56-.16-.8.71-.24.87ZM88.14 44.16c.93-.17 1.84-.39 2.77-.56 1.03-.19 1.95-.25 2.99-.13 1.89.22 3.74.61 5.56 1.14 1.32.38 2.63.49 4 .52l-.12-.88c-2.75.95-5.65 1.3-8.54 1.01-.51-.05-.6.76-.12.88 2.79.71 5.72.72 8.51.01l-.35-.82c-2.68 1.27-5.49 2.51-8.52 2.05-2.45-.37-4.68-1.7-5.9-3.9-.28-.51-1.06-.05-.78.45 1.03 1.84 2.71 3.17 4.68 3.87 2.23.79 4.64.7 6.88 0 1.41-.44 2.76-1.08 4.1-1.7.47-.22.13-.94-.35-.82-2.64.66-5.39.66-8.03-.01l-.12.88c2.96.29 5.97-.07 8.78-1.05.47-.16.41-.87-.12-.88-1.26-.02-2.45-.11-3.67-.46-.71-.21-1.43-.41-2.15-.57-1.09-.25-2.19-.43-3.3-.57-.57-.07-1.16-.17-1.74-.15-.48.02-.96.09-1.43.17-1.1.18-2.18.44-3.27.64-.57.11-.33.97.24.87Z"/><path d="M89.01 46.22c.67 1.07 1.37 2.16 2.4 2.93 1.13.85 2.6 1.03 3.96 1.16 2.68.25 5.83-.11 8.06-1.77.53-.4.98-.93 1.08-1.6s-.15-1.26-.69-1.64c-.48-.33-.93.45-.45.78.55.38.18 1.16-.18 1.51-.51.5-1.24.84-1.9 1.1-1.38.56-2.87.79-4.35.8-.74 0-1.48-.05-2.21-.15s-1.54-.22-2.22-.56c-1.24-.63-2-1.87-2.71-3.01-.31-.49-1.08-.04-.78.45Z"/><path d="M100.76 52.09c-3.49-.57-7-1.05-10.51-1.46-.44-.05-.61.65-.23.84q7.095 3.525 14.49 6.39c.39.15.68-.35.51-.66a9.6 9.6 0 0 0-1.86-2.39l-.2.75 2.31-.81c.39-.14.46-.76 0-.87l-2.86-.65.2.75 2.62-2.3c.37-.32-.04-.82-.44-.75q-1.89.33-3.81.48l.32.77a8.16 8.16 0 0 0 1.98-3.65c.14-.56-.73-.8-.87-.24-.3 1.22-.89 2.33-1.74 3.25-.25.26-.09.8.32.77q2.04-.165 4.05-.51l-.44-.75-2.62 2.3c-.25.22-.12.68.2.75l2.86.65v-.87l-2.31.81c-.3.11-.46.51-.2.75.7.64 1.27 1.38 1.72 2.2l.51-.66c-4.85-1.88-9.61-3.99-14.27-6.3l-.23.84c3.43.4 6.86.88 10.27 1.43.57.09.81-.78.24-.87zM90.22 30.38a23.15 23.15 0 0 1 4.05-.68c.58-.05 1.2-.1 1.76.05.6.16.95.59 1.19 1.13.52 1.17.78 2.47.96 3.73.2 1.37.3 2.75.39 4.12.09 1.59.13 3.19.11 4.78 0 .58.89.58.9 0 .03-3.02-.09-6.08-.52-9.07-.2-1.4-.49-2.86-1.12-4.14s-1.75-1.6-3.03-1.55c-1.66.06-3.33.35-4.93.76-.56.14-.32 1.01.24.87"/><path d="M99.51 43.52l2.45-.09-.23-.84c-.42.31-.87.58-1.32.83-.21.11-.29.42-.16.62.14.21.39.28.62.16.46-.25.9-.52 1.32-.83.16-.11.27-.31.21-.51-.06-.18-.23-.34-.43-.33l-2.45.09c-.23 0-.46.2-.45.45 0 .24.2.46.45.45zm-.45-9.26l1.66-.66-.51-.66c-.19.41-.41.81-.68 1.17-.01.02-.03.04-.04.06-.05.07.03-.03 0 0s-.07.09-.1.13l-.22.25c-.16.17-.33.33-.5.48s-.17.48 0 .64c.19.17.45.17.64 0a6.5 6.5 0 0 0 1.69-2.28c.08-.17.08-.34-.04-.5-.1-.13-.31-.23-.47-.16l-1.66.66c-.22.09-.39.3-.31.55.07.21.32.41.55.31zm.1 4.42l1.32-.47a.47.47 0 0 0 .27-.21c.06-.1.08-.24.05-.35-.07-.22-.32-.4-.55-.31l-1.32.47a.47.47 0 0 0-.27.21c-.06.1-.08.24-.05.35.07.22.32.4.55.31m-60.75-9.49c-1.11-.36-2.28-.5-3.45-.6-.81-.07-1.62-.06-2.33.4-1.53.98-1.87 3.16-2.21 4.79-.97 4.66-1.26 9.4-.6 14.12.35 2.53.96 5.01 1.69 7.45.17.55 1.03.32.87-.24-1.22-4.06-2.03-8.23-2.03-12.48a40.22 40.22 0 0 1 .59-6.75c.2-1.18.42-2.36.73-3.51.2-.75.44-1.55.94-2.16s1.13-.79 1.85-.75c1.24.06 2.51.22 3.7.61.55.18.79-.69.24-.87z"/><path d="M31.52 55.1c-.88 1.14-1.25 2.55-1.53 3.95a75 75 0 0 0-.76 4.74l-.92 9.85.88-.12c-.99-4.16-1.37-8.44-1.14-12.71.03-.58-.87-.58-.9 0-.23 4.35.17 8.71 1.17 12.94.12.52.85.36.88-.12.24-3.18.48-6.36.88-9.52a73.46 73.46 0 0 1 .74-4.68c.27-1.37.59-2.74 1.46-3.87.35-.46-.43-.91-.78-.45z"/><path d="M28.47 52.03c-.35 1.88.45 3.84 2.03 4.92.2.14.5.04.62-.16.13-.22.04-.48-.16-.62a3.97 3.97 0 0 1-1.62-3.9c.04-.24-.07-.49-.31-.55-.22-.06-.51.07-.55.31zm.97-5.12l-1.27 1.84c-.42.61-.87 1.18-1.2 1.82-.56 1.09-.69 2.37-.52 3.58.3 2.24 1.64 4.29 3.59 5.42.5.29.95-.48.45-.78a6.62 6.62 0 0 1-3.18-4.89c-.13-1.15.05-2.29.66-3.28l2.24-3.26c.33-.48-.45-.93-.78-.45z"/><path d="M26.94 56.2c.09 1.53.11 3.07.04 4.6-.05 1.12-.07 2.29-.33 3.33-.44 1.74-1.23 3.46-2.22 4.95-.5.76-1.11 1.54-1.93 1.95-.52.26-.06 1.03.45.78.79-.39 1.39-1.08 1.91-1.77.62-.83 1.12-1.75 1.56-2.69.39-.84.74-1.7 1-2.58.29-1 .35-2.03.42-3.06.12-1.83.12-3.67.01-5.5-.03-.58-.93-.58-.9 0zm68.09-2.88a28.86 28.86 0 0 0-3.69-.68c-.39-.05-.59.52-.32.77 3.74 3.35 8.28 5.74 13.16 6.92.56.14.8-.73.24-.87a29.74 29.74 0 0 1-12.76-6.69l-.32.77c1.17.14 2.31.36 3.45.65.56.14.8-.73.24-.87m6.11 9.85c.63 2.77 1.33 5.52 2.09 8.25.65 2.33 1.22 4.82 2.39 6.96.59 1.06 1.37 1.99 2.38 2.66l.23-.84c-1.07-.05-2.1-.45-2.92-1.14-.44-.37-1.08.26-.64.64a5.82 5.82 0 0 0 3.55 1.4c.47.02.58-.61.23-.84-2.36-1.56-3.08-4.64-3.83-7.19-.98-3.35-1.85-6.73-2.63-10.14-.13-.56-1-.33-.87.24z"/><path d="M99.21 58.28c-.38 5.06-.3 10.14-.67 15.2-.04.53.73.58.88.12.56-1.73 1.19-3.44 1.68-5.19s.75-3.56.93-5.36c.06-.58-.84-.57-.9 0-.18 1.76-.44 3.52-.92 5.22s-1.1 3.4-1.65 5.09l.88.12c.38-5.06.3-10.14.67-15.2.04-.58-.86-.58-.9 0m2.95 1.48l3.69 5.61.71-.55c-.89-.73-2.01-1.05-3.04-1.52-.36-.17-.74.11-.66.51.49 2.38 1 4.84.36 7.24-.15.56.72.8.87.24.68-2.56.16-5.18-.36-7.72l-.66.51c.94.44 2.05.71 2.86 1.38.37.3 1.01-.09.71-.55l-3.69-5.61c-.32-.48-1.1-.03-.78.45zM29.68 39.69c-2.78 2.09-6.49 2.7-9.79 1.6-.46-.15-.71.44-.44.75 2.31 2.72 6.16 2.45 9.35 2.02l-.24-.87c-1.28.39-2.57.75-3.9.82-1.59.09-3.15-.21-4.67-.62-.43-.11-.77.44-.44.75a10.46 10.46 0 0 0 10.08 2.46c.55-.16.32-1.03-.24-.87-3.2.94-6.8.08-9.2-2.23l-.44.75c1.6.43 3.25.74 4.91.65 1.42-.08 2.79-.44 4.14-.85.57-.17.32-.94-.24-.87-2.88.39-6.38.67-8.47-1.79l-.44.75a11.58 11.58 0 0 0 10.48-1.69c.46-.34 0-1.12-.45-.78zm-2.51 25.69c-1.28 2.62-2.02 5.36-2.5 8.23-.23 1.37-.51 2.72-1.2 3.94a8 8 0 0 1-2.56 2.75c-.34.23-.25.87.23.84 1.32-.08 2.58-.53 3.64-1.33.46-.35 0-1.13-.45-.78a5.9 5.9 0 0 1-3.18 1.21l.23.84a9.1 9.1 0 0 0 2.64-2.68c.77-1.2 1.16-2.55 1.42-3.94.27-1.47.49-2.93.89-4.37s.96-2.88 1.62-4.25c.25-.52-.52-.98-.78-.45zm-2.19 16.66c-.22.01-.44 0-.66 0h-.1c-.05 0-.11-.02-.16-.03a4 4 0 0 1-.34-.08 3.83 3.83 0 0 1-.31-.11c-.07-.02.06.03 0 0-.02 0-.05-.02-.07-.03-.05-.03-.11-.05-.16-.08-.09-.05-.18-.11-.27-.17l-.05-.04c.04.03-.03-.02-.03-.03a1.54 1.54 0 0 1-.13-.12l-.32.77c.87-.07 1.73-.27 2.45-.79.19-.14.3-.4.16-.62-.12-.19-.41-.31-.62-.16-.15.11-.32.21-.49.3l-.12.06c-.05.02-.05.02-.01 0-.02 0-.04.02-.06.02l-.27.09a3.65 3.65 0 0 1-.55.13c-.04 0-.09.01-.13.02 0 0-.14.02-.06 0l-.31.03c-.18.02-.34.1-.41.28-.07.16-.04.37.09.49.77.73 1.88 1.03 2.93.97.23-.01.46-.2.45-.45 0-.23-.2-.47-.45-.45m79.77-.45c.72.11 1.43.2 2.15.27l-.23-.84c-.37.19-.74.37-1.12.54-.05.02-.09.04-.14.06-.03 0-.05.02-.08.03.03-.01.04-.02 0 0l-.28.12c-.2.08-.39.15-.59.22-.22.08-.39.31-.31.55.07.22.32.4.55.31.83-.3 1.65-.66 2.43-1.06a.46.46 0 0 0 .21-.51.48.48 0 0 0-.43-.33l-1-.1c-.08 0-.15-.02-.23-.03-.15-.02.09.01-.06 0-.05 0-.09-.01-.14-.02-.17-.02-.33-.05-.5-.08-.23-.04-.5.06-.55.31-.05.22.07.51.31.55zm-80.55 2.3c1.01 1.73 2.25 3.33 3.55 4.84 1.82 2.13 3.84 4.11 5.97 5.93 2.59 2.22 5.36 4.23 8.27 5.99 3.42 2.06 7.02 3.74 10.76 5.14 1.9.72 3.82 1.39 5.66 2.26 1.77.84 3.38 1.78 4.64 3.33.37.45 1-.19.64-.64-2.17-2.68-5.61-3.92-8.74-5.09-1.96-.74-3.93-1.45-5.84-2.3q-2.64-1.185-5.16-2.61c-5.52-3.13-10.61-7.12-14.85-11.86-1.52-1.69-2.95-3.49-4.11-5.46-.29-.5-1.07-.05-.78.45zm79.88-.45c-.99 1.69-2.19 3.25-3.46 4.73a55.5 55.5 0 0 1-5.91 5.87c-2.56 2.2-5.31 4.18-8.21 5.92-3.41 2.05-6.99 3.69-10.71 5.09-1.88.71-3.79 1.37-5.6 2.25-1.73.84-3.2 1.96-4.42 3.46-.36.45.27 1.09.64.64 1.1-1.36 2.38-2.39 3.94-3.18 1.56-.78 3.25-1.4 4.91-2.01 3.75-1.4 7.4-2.97 10.87-4.98 5.44-3.16 10.47-7.15 14.65-11.86 1.51-1.7 2.94-3.5 4.09-5.46.29-.5-.48-.95-.78-.45zM55.07 95.32c1.67-.22 3.31-.59 4.93-1.01 1.54-.4 3.12-.81 4.56-1.49.49-.23.61-.93.36-1.37-.29-.5-.88-.59-1.37-.36-.06.03-.12.05-.18.08-.21.1.21-.08-.03.01-.14.05-.28.11-.42.16l-1.02.35a42.17 42.17 0 0 1-2.44.69c-.82.21-1.68.41-2.52.59q-.54.12-1.08.21l-.52.09c-.08.01-.16.02-.24.04-.06 0-.3.04-.03 0-.54.07-1 .41-1 1 0 .49.46 1.07 1 1z"/><path d="M74.91 93.33c-.22-.03.18.03-.03 0l-.24-.04-.53-.09-1.14-.22-2.6-.59-2.47-.68-1.08-.35-.46-.17c-.03 0-.23-.09-.08-.03s-.1-.05-.13-.06c-.49-.23-1.08-.14-1.37.36-.25.43-.13 1.14.36 1.37 1.49.69 3.11 1.1 4.69 1.49l5.07 1.01c.54.07 1-.51 1-1 0-.6-.46-.93-1-1z"/><path d="m65.62 92.08 3.66-4.7s1.63-3.13-.81-4.31c0 0-.41-.78-3.66-.78h-.28c-3.26 0-3.66.78-3.66.78-2.44 1.18-.81 4.31-.81 4.31l3.66 4.7"/><path d="M63.9 84.05c-.02-.08-.06-.16-.09-.23-.05-.11-.12-.2-.2-.29a.3.3 0 0 0-.08-.08c-.06-.05-.13-.11-.21-.15-.16-.09-.31-.13-.49-.15l-.25.01s-.02 0-.03-.01c-.15-.03-.33-.03-.45.06-.06.05-.13.09-.19.15s-.1.12-.15.19c-.07.09-.11.2-.15.31s-.05.23-.06.34c0 .12 0 .23.02.34s.07.22.11.32.12.2.2.28.17.15.26.2.2.1.31.12c.22.04.45.04.67-.04.1-.04.21-.08.3-.15.12-.08.2-.16.29-.27a1.06 1.06 0 0 0 .19-.96z" fill="#fff"/><path d="M93.72 58.24a7.1 7.1 0 0 0 5.42 2.95c.58.03.58-.87 0-.9-1.81-.09-3.58-1.03-4.64-2.5-.14-.2-.39-.29-.62-.16-.19.11-.3.42-.16.62zM48.08 77.4s-6.46-.2-6.46-3.72 4.7-3.52 8.03-2.94c2.73.48 5.09 1.57 5.09 3.13 0 2.35-1.96 3.52-6.66 3.52zm33.19 0s6.56-.2 6.56-3.72-4.77-3.52-8.15-2.94c-2.77.48-5.16 1.57-5.16 3.13 0 2.35 1.99 3.52 6.76 3.52z"/><path d="M46.08 71.78a.4.4 0 0 0-.11-.2.6.6 0 0 0-.16-.15l-.14-.06h-.07a.43.43 0 0 0-.23-.05c-.08 0-.16.01-.23.05-.02 0-.03.02-.05.02a.38.38 0 0 0-.13.06.81.81 0 0 0-.26.26c-.06.11-.1.24-.1.37 0 .06 0 .13.03.19.02.05.04.12.08.17.02.03.07.11.12.14.04.03.1.09.15.11.03.01.12.06.17.07.06 0 .12.02.17.02h.04l.16-.02a.7.7 0 0 0 .18-.07h.02c.02-.02.05-.04.07-.05s.05-.03.07-.05l.02-.01c.04-.04.07-.09.11-.14s.06-.13.08-.18c0-.02 0-.03.01-.05 0-.06.03-.14.02-.2 0-.07-.01-.14-.03-.2zm34.46 0a.4.4 0 0 0-.11-.2.6.6 0 0 0-.16-.15l-.14-.06h-.07a.43.43 0 0 0-.23-.05c-.08 0-.16.01-.23.05-.02 0-.03.02-.05.02a.38.38 0 0 0-.13.06.81.81 0 0 0-.26.26c-.06.11-.1.24-.1.37 0 .06 0 .13.03.19.02.05.04.12.08.17.02.03.07.11.12.14.04.03.1.09.15.11.03.01.12.06.17.07.06 0 .12.02.17.02h.04l.16-.02a.7.7 0 0 0 .18-.07h.02c.02-.02.05-.04.07-.05s.05-.03.07-.05l.02-.01c.04-.04.07-.09.11-.14s.06-.13.08-.18c0-.02 0-.03.01-.05 0-.06.03-.14.02-.2 0-.07-.01-.14-.03-.2zm-39.7-5.54s2.35-.78 7.43 2.44c.4.25.79.51 1.23.69 1.28.5 3.76 1.07 5.44-1.18 0 0 1.96-3.52-3.13-5.09s-9.79 1.96-10.96 3.13zm47.1.33s-2.35-.78-7.43 2.44c-.4.25-.79.51-1.23.69-1.28.5-3.76 1.07-5.44-1.18 0 0-1.96-3.52 3.13-5.09s9.79 1.96 10.96 3.13z" fill="#fff"/><path d="M65.16 110.48c-.19-.36-.48-.66-.81-.9-.1-.08-.29-.09-.41-.05-.12.03-.26.13-.32.24-.06.12-.1.27-.05.41.04.13.12.22.23.31a1.937 1.937 0 0 1 .28.29q.12.165.21.36c.05.13.09.27.11.41v.11c.01.28.23.54.53.53.28-.01.54-.23.53-.53-.02-.41-.13-.81-.32-1.17Z"/><path d="M66.83 99.74c-.25-.32-.73-.45-1.11-.53-.25-.05-.51-.08-.77-.09a.5.5 0 0 0-.21-.05c-.42 0-.86.07-1.25.22-.23.09-.45.2-.58.42-.14.23-.15.53 0 .76.14.22.36.31.6.39l.6.21c.4.12.82.21 1.24.22.4.01.88-.03 1.22-.26.42-.28.6-.87.28-1.29Z" fill="#e6e6e6"/></g></svg>