<?xml version="1.0" encoding="UTF-8"?><svg id="Layer_1" xmlns="http://www.w3.org/2000/svg" width="128" height="128" xmlns:xlink="http://www.w3.org/1999/xlink" viewBox="0 0 128 128"><defs><style>.cls-1{fill:#111;}.cls-2{fill:#fff;fill-rule:evenodd;}.cls-3{fill:url(#linear-gradient);}.cls-4{fill:url(#radial-gradient);fill-opacity:.7;}</style><radialGradient id="radial-gradient" cx="-167.46" cy="-405.12" fx="-167.46" fy="-405.12" r=".33" gradientTransform="translate(-117239.23 68904.9) rotate(90) scale(411.35 289.55)" gradientUnits="userSpaceOnUse"><stop offset=".03" stop-color="#3a3a3a"/><stop offset="1" stop-color="#1c1c1c"/></radialGradient><linearGradient id="linear-gradient" x1="64" y1="-148.22" x2="64" y2="-17.78" gradientTransform="translate(0 147)" gradientUnits="userSpaceOnUse"><stop offset="0" stop-color="#fff"/><stop offset="1" stop-color="#111"/></linearGradient></defs><path class="cls-1" d="M64,0h0c35.34,0,64,28.66,64,64h0c0,35.34-28.66,64-64,64h0C28.66,128,0,99.34,0,64h0C0,28.66,28.66,0,64,0Z"/><path class="cls-4" d="M64,0h0C28.64,0,0,28.64,0,64h0c0,35.33,28.64,64,64,64h0c35.33,0,64-28.64,64-64h0C128,28.64,99.33,0,64,0Z"/><path class="cls-3" d="M64,128c-17.1,0-33.17-6.66-45.26-18.74C6.66,97.17,0,81.1,0,64S6.66,30.83,18.74,18.74C30.83,6.66,46.9,0,64,0s33.17,6.66,45.26,18.74c12.08,12.08,18.74,28.16,18.74,45.26s-6.66,33.17-18.74,45.26c-12.08,12.08-28.16,18.74-45.26,18.74ZM64,2.34c-16.47,0-31.96,6.41-43.6,18.05C8.76,32.04,2.34,47.53,2.34,64s6.41,31.96,18.05,43.6c11.64,11.64,27.13,18.05,43.6,18.05s31.96-6.41,43.6-18.05c11.64-11.64,18.05-27.13,18.05-43.6s-6.41-31.96-18.05-43.6C95.96,8.76,80.47,2.34,64,2.34Z"/><path class="cls-2" d="M49.99,34.25h-1.38l-.89,1.05-22.8,26.8-1.64,1.9,1.64,1.9,22.83,26.8.89,1.05h45.43v-20.01h-5.9v14.11h-31.69l18.96-21.91,1.67-1.94-1.67-1.94-18.96-21.91h31.69v14.11h5.9v-20.01h-44.09ZM50.03,41.73l-18.96,22.27,18.96,22.27,19.26-22.27-19.26-22.27Z"/></svg>