<?xml version="1.0" encoding="utf-8"?>
<!-- Generator: Adobe Illustrator 22.0.0, SVG Export Plug-In . SVG Version: 6.00 Build 0)  -->
<svg version="1.1" id="Enigma" xmlns="http://www.w3.org/2000/svg" xmlns:xlink="http://www.w3.org/1999/xlink" x="0px" y="0px"
	 viewBox="0 0 245 245" style="enable-background:new 0 0 245 245;" xml:space="preserve">
<style type="text/css">
	.st0{fill:#CD2667;}
	.st1{fill:#F6F6F6;}
	.st2{fill:#EFEFEF;}
	.st3{fill:#FFFFFF;}
	.st4{fill:none;stroke:#FFFFFF;stroke-width:8;stroke-linecap:round;stroke-linejoin:round;}
	.st5{fill:#FFFFFF;stroke:#FFFFFF;}
</style>
<path id="Full" class="st0" d="M0,122.5C0,190,55,245,122.5,245S245,190,245,122.5S190,0,122.5,0S0,55,0,122.5z"/>
<g id="Enigma_copy">
	<path id="InsideB1" class="st1" d="M84.5,101.5l38-22.5l38.5,23l-38.5,20.5L84.5,101.5z"/>
	<path id="InsideB2" class="st2" d="M82.9,101.1l38.5,21.7l-0.7,44.8l-37-23.1L82.9,101.1z"/>
	<path id="InsideB3" class="st3" d="M161.5,101.5L123,123.2l0.7,44.8l37-23.1L161.5,101.5z"/>
	<path id="Box1" class="st4" d="M122.5,34l77,45v87.5l-77,44.5l-77-43.5V80L122.5,34z"/>
	<path id="Box2" class="st4" d="M122.5,78l39,22.7V145l-39,22.5l-39-22v-44.2L122.5,78z"/>
	<path id="Line" class="st5" d="M44,81.2l2-3.5l79.5,45l-2,3.5L44,81.2z"/>
	<path id="Line_2" class="st5" d="M200.5,81.5l-2-3.5L119,123l2,3.5L200.5,81.5z"/>
	<path id="Line_3" class="st5" d="M120.5,122.5h4V211h-4V122.5z"/>
	<g id="Dots">
		<g id="Top">
			<circle id="Top-2" class="st3" cx="122.5" cy="65.5" r="3"/>
			<circle id="Top_2" class="st3" cx="122.5" cy="50" r="3"/>
		</g>
		<g id="Left">
			<circle id="Left-2" class="st3" cx="72.8" cy="151.3" r="3"/>
			<circle id="Left_2" class="st3" cx="59.4" cy="159.1" r="3"/>
		</g>
		<g id="Right">
			<circle id="Right-2" class="st3" cx="172.5" cy="151.6" r="3"/>
			<circle id="Right_2" class="st3" cx="186" cy="159.4" r="3"/>
		</g>
	</g>
</g>
</svg>
