<?xml version="1.0" encoding="utf-8"?>
<!-- Generator: Adobe Illustrator 22.0.0, SVG Export Plug-In . SVG Version: 6.00 Build 0)  -->
<svg version="1.1" id="Enjincoin" xmlns="http://www.w3.org/2000/svg" xmlns:xlink="http://www.w3.org/1999/xlink" x="0px" y="0px"
	 viewBox="0 0 245 245" style="enable-background:new 0 0 245 245;" xml:space="preserve">
<style type="text/css">
	.st0{fill:#63C0E3;}
	.st1{opacity:0.5;fill:#E6E6E6;enable-background:new    ;}
	.st2{fill:#F3F3F3;}
</style>
<path id="Full" class="st0" d="M0,122.5C0,190,55,245,122.5,245S245,190,245,122.5S190,0,122.5,0S0,55,0,122.5z"/>
<g id="E">
	<path id="Shadow" class="st1" d="M202.2,80.5c-4.2,3.4-24,19.7-24,19.7l-111,0.5c0,0,5.9-15.8,14.4-21
		C88.6,79.6,201.2,76.7,202.2,80.5z M202.2,133.7c-2.9,2.1-27.3,19.8-27.3,19.8L81.1,154c0,0-8.5-8.7-13.4-20.6
		C85.1,133.4,202.2,131.5,202.2,133.7z M194.4,185.7c0,0.5-35.6,19.9-35.6,19.9h-50.5c-24.8,0-42.8,2.3-71.9-52.7
		c14.2,22.5,37.8,32.8,37.8,32.8S194.4,185.2,194.4,185.7L194.4,185.7z"/>
	<path id="E-2" class="st2" d="M74.1,186.1C19,175.6,11.9,71.7,74.1,49.4h118.4c9.8,14.5,9.8,31.1,9.8,31.1S99.6,80,81.6,80
		c-6,5.5-10.6,12.4-13.4,20.1l134-0.5c0,0,1.6,18.3,0,34.2H68.7c4.9,11.2,12.9,19.7,12.9,19.7l118.6-0.5c0,0,0,17.7-5.9,33.1H74.1z"
		/>
</g>
</svg>
