<svg id="Enjincoin" xmlns="http://www.w3.org/2000/svg" width="256" height="256" viewBox="0 0 512 512">
  <defs>
    <style>
      .cls-1 {
        fill: #63c0e3;
      }

      .cls-1, .cls-2, .cls-3 {
        fill-rule: evenodd;
      }

      .cls-2 {
        fill: #e6e6e6;
        opacity: 0.5;
      }

      .cls-3 {
        fill: #f3f3f3;
      }
    </style>
  </defs>
  <path id="Full" class="cls-1" d="M11,256c0,135.094,109.906,245,245,245S501,391.094,501,256,391.094,11,256,11,11,120.906,11,256Z"/>
  <g id="E">
    <path id="Shadow" class="cls-2" d="M415.4,171.915c-8.321,6.825-47.957,39.308-47.957,39.308l-221.974.959S157.2,180.6,174.248,170.1C188.167,170.1,413.423,164.311,415.4,171.915Zm0,106.464c-5.843,4.112-54.671,39.634-54.671,39.634l-187.441.959s-16.98-17.337-26.86-41.224C181.209,277.748,415.4,273.957,415.4,278.379Zm-15.666,103.96c0.027,0.959-71.251,39.875-71.251,39.875H227.41c-49.527,0-85.524,4.62-143.871-105.47,28.362,44.942,75.647,65.595,75.647,65.595S399.708,381.38,399.735,382.339Z"/>
    <path id="E-2" data-name="E" class="cls-3" d="M159.186,383.3c-110.134-21.054-124.319-228.961,0-273.549H395.9c19.5,29.056,19.5,62.269,19.5,62.269s-205.275-.959-241.149-0.959a101.721,101.721,0,0,0-26.86,40.164l268.009-.959s3.188,36.607,0,68.443H148.347c9.88,22.488,25.9,39.306,25.9,39.306l237.272-.959s0,35.4-11.758,66.244H159.186Z"/>
  </g>
</svg>
