<?xml version="1.0" encoding="utf-8"?>
<!-- Generator: Adobe Illustrator 22.0.0, SVG Export Plug-In . SVG Version: 6.00 Build 0)  -->
<svg version="1.1" id="ENQ" xmlns="http://www.w3.org/2000/svg" xmlns:xlink="http://www.w3.org/1999/xlink" x="0px" y="0px"
	 viewBox="0 0 490 490" style="enable-background:new 0 0 490 490;" xml:space="preserve">
<style type="text/css">
	.st0{fill:#0072FF;}
	.st1{fill:#FFFFFF;}
</style>
<path id="Full" class="st0" d="M0,245c0,135.1,109.9,245,245,245s245-109.9,245-245S380.1,0,245,0S0,109.9,0,245z"/>
<path id="ENQ-2" class="st1" d="M388,341.4c-2.4,0-4.8-0.6-6.9-1.9c-6.6-3.8-8.9-12.3-5.1-18.9c41.8-72.4,17.1-164.9-55.3-206.8
	c-46.8-27.1-104.6-27.1-151.4-0.1c-6.6,3.8-15.1,1.6-18.9-5.1c-3.8-6.6-1.6-15.1,5.1-18.9l0,0c85.7-49.4,195.2-19.9,244.6,65.8
	C432,211,432,279.2,400.1,334.5C397.6,338.8,393,341.4,388,341.4z M304.3,258.8H185.7c-7.7-0.1-13.8-6.3-13.8-14
	c0.1-7.6,6.2-13.7,13.8-13.8h118.6c7.7,0.1,13.8,6.3,13.8,14C318,252.6,311.9,258.8,304.3,258.8z M327.6,212H218
	c-7.7,0-13.9-6.2-13.9-13.9c0-7.7,6.2-13.9,13.9-13.9h109.6c7.7,0,13.9,6.2,13.9,13.9C341.4,205.8,335.2,212,327.6,212L327.6,212z
	 M218,212c-5,0-9.5-2.6-12-6.9l-55.5-96.3c-3.8-6.6-1.6-15.1,5.1-18.9c6.6-3.8,15.1-1.6,18.9,5.1l0,0l55.5,96.3
	c3.8,6.6,1.6,15.1-5.1,18.9C222.8,211.3,220.4,212,218,212L218,212z M272,305.6H162.4c-7.7-0.1-13.8-6.3-13.8-14
	c0.1-7.6,6.2-13.7,13.8-13.8H272c7.7,0.1,13.8,6.3,13.8,14C285.7,299.5,279.6,305.6,272,305.6z M327.6,402c-5,0-9.5-2.6-12-6.9
	L260,298.7c-3.8-6.6-1.6-15.1,5.1-18.9c6.6-3.8,15.1-1.6,18.9,5.1l0,0l55.5,96.3c3.8,6.6,1.6,15.1-5.1,18.9
	C332.4,401.3,330,402,327.6,402z M245,424c-98.9,0-179.1-80.2-179-179.1c0-31.4,8.3-62.3,24-89.5c3.8-6.6,12.3-8.9,18.9-5.1
	c6.6,3.8,8.9,12.3,5.1,18.9c-41.8,72.4-17,165,55.4,206.8c46.8,27.1,104.5,27.1,151.4,0c6.6-3.8,15.1-1.6,18.9,5.1
	s1.6,15.1-5.1,18.9C307.3,415.8,276.4,424,245,424z"/>
</svg>
