<?xml version="1.0" encoding="utf-8"?>
<!-- Generator: Adobe Illustrator 22.0.0, SVG Export Plug-In . SVG Version: 6.00 Build 0)  -->
<svg version="1.1" id="EOS" xmlns="http://www.w3.org/2000/svg" xmlns:xlink="http://www.w3.org/1999/xlink" x="0px" y="0px"
	 viewBox="0 0 490 490" style="enable-background:new 0 0 490 490;" xml:space="preserve">
<style type="text/css">
	.st0{fill:#443F54;}
	.st1{fill:#FFFFFF;}
</style>
<path id="Full" class="st0" d="M0,245c0,135.1,109.9,245,245,245s245-109.9,245-245S380.1,0,245,0S0,109.9,0,245z"/>
<path id="EOS-2" class="st1" d="M245.4,74l-79.7,110.4l-33.8,162.4L245.4,416L359,346.9l-33.9-163.2L245.4,74z M184.1,187.3
	l61.4-84.8l61.4,84.8l-61.4,186L184.1,187.3z M315.3,215.1l25.4,124l-83.2,50.6L315.3,215.1z M150.2,339l25.4-124l57.8,174.6
	L150.2,339z"/>
</svg>
