<svg xmlns="http://www.w3.org/2000/svg" viewBox="0 0 490 490" xmlns:v="https://vecta.io/nano"><path d="M0,245c0,135.1,109.9,245,245,245s245-109.9,245-245S380.1,0,245,0S0,109.9,0,245z" fill="#443f54"/><path d="M245.4 74l-79.7 110.4-33.8 162.4L245.4 416 359 346.9l-33.9-163.2L245.4 74zm-61.3 113.3l61.4-84.8 61.4 84.8-61.4 186-61.4-186zm131.2 27.8l25.4 124-83.2 50.6 57.8-174.6zM150.2 339l25.4-124 57.8 174.6-83.2-50.6z" fill="#fff"/><path d="M245.239 21.982C122.147 21.982 22.004 122.027 22.004 245s100.143 223.018 223.236 223.018S468.475 367.973 468.475 245 368.332 21.982 245.239 21.982m0-21.982c135.124 0 245.239 109.998 245.239 245S380.373 490 245.239 490 0 379.998 0 245 110.115 0 245.239 0z" fill="#474747"/></svg>