<?xml version="1.0" encoding="UTF-8" standalone="no"?>
<svg
   viewBox="0 0 490 490"
   version="1.1"
   id="svg8"
   sodipodi:docname="EOS_BEP20.svg"
   inkscape:version="1.1 (c68e22c387, 2021-05-23)"
   xmlns:inkscape="http://www.inkscape.org/namespaces/inkscape"
   xmlns:sodipodi="http://sodipodi.sourceforge.net/DTD/sodipodi-0.dtd"
   xmlns="http://www.w3.org/2000/svg"
   xmlns:svg="http://www.w3.org/2000/svg">
  <defs
     id="defs12" />
  <sodipodi:namedview
     id="namedview10"
     pagecolor="#ffffff"
     bordercolor="#666666"
     borderopacity="1.0"
     inkscape:pageshadow="2"
     inkscape:pageopacity="0.0"
     inkscape:pagecheckerboard="0"
     showgrid="false"
     inkscape:zoom="1.7816327"
     inkscape:cx="245"
     inkscape:cy="245"
     inkscape:window-width="2560"
     inkscape:window-height="1361"
     inkscape:window-x="-9"
     inkscape:window-y="-9"
     inkscape:window-maximized="1"
     inkscape:current-layer="svg8" />
  <path
     d="M0,245c0,135.1,109.9,245,245,245s245-109.9,245-245S380.1,0,245,0S0,109.9,0,245z"
     fill="#443f54"
     id="path2" />
  <path
     d="M245.4 74l-79.7 110.4-33.8 162.4L245.4 416 359 346.9l-33.9-163.2L245.4 74zm-61.3 113.3l61.4-84.8 61.4 84.8-61.4 186-61.4-186zm131.2 27.8l25.4 124-83.2 50.6 57.8-174.6zM150.2 339l25.4-124 57.8 174.6-83.2-50.6z"
     fill="#fff"
     id="path4" />
  <path
     d="M245.239 21.982C122.147 21.982 22.004 122.027 22.004 245s100.143 223.018 223.236 223.018S468.475 367.973 468.475 245 368.332 21.982 245.239 21.982m0-21.982c135.124 0 245.239 109.998 245.239 245S380.373 490 245.239 490 0 379.998 0 245 110.115 0 245.239 0z"
     fill="#474747"
     id="path6"
     style="fill:#e8a607;fill-opacity:1" />
</svg>
