<?xml version="1.0" encoding="UTF-8" standalone="no"?>
<svg
   xmlns:dc="http://purl.org/dc/elements/1.1/"
   xmlns:cc="http://creativecommons.org/ns#"
   xmlns:rdf="http://www.w3.org/1999/02/22-rdf-syntax-ns#"
   xmlns:svg="http://www.w3.org/2000/svg"
   xmlns="http://www.w3.org/2000/svg"
   id="svg8"
   version="1.1"
   viewBox="0 0 67.733332 67.733335"
   height="256"
   width="256">
  <defs
     id="defs2" />
  <metadata
     id="metadata5">
    <rdf:RDF>
      <cc:Work
         rdf:about="">
        <dc:format>image/svg+xml</dc:format>
        <dc:type
           rdf:resource="http://purl.org/dc/dcmitype/StillImage" />
        <dc:title></dc:title>
      </cc:Work>
    </rdf:RDF>
  </metadata>
  <g
     transform="translate(0,-229.26665)"
     id="layer1">
    <path
       d="m 1.4882812,263.20359 c 0,17.87181 14.5396478,32.41146 32.4114578,32.41146 17.871811,0 32.411459,-14.53965 32.411459,-32.41146 0,-17.87181 -14.539648,-32.41146 -32.411459,-32.41146 -17.87181,0 -32.4114578,14.53965 -32.4114578,32.41146 z"
       class="cls-1"
       id="Full"
       style="fill:#454a75;fill-opacity:1;stroke-width:0.13229166" />
    <g
       id="g1573">
      <path
         id="path1507"
         style="font-style:normal;font-variant:normal;font-weight:500;font-stretch:normal;font-size:331.23999023px;line-height:1.25;font-family:Heebo;-inkscape-font-specification:'Heebo, Medium';font-variant-ligatures:normal;font-variant-caps:normal;font-variant-numeric:normal;font-feature-settings:normal;text-align:center;letter-spacing:0px;word-spacing:0px;writing-mode:lr-tb;text-anchor:middle;fill:#ffffff;fill-opacity:1;stroke:none;stroke-width:0.05278614"
         d="m 14.071303,267.6431 v 1.77581 H 7.5400857 5.9179532 v -12.43066 h 2.2112227 5.8909021 v 1.78435 H 8.1291759 v 3.37232 h 5.0798361 v 1.74166 H 8.1291759 v 3.75652 z" />
      <path
         id="path1509"
         style="font-style:normal;font-variant:normal;font-weight:500;font-stretch:normal;font-size:331.23999023px;line-height:1.25;font-family:Heebo;-inkscape-font-specification:'Heebo, Medium';font-variant-ligatures:normal;font-variant-caps:normal;font-variant-numeric:normal;font-feature-settings:normal;text-align:center;letter-spacing:0px;word-spacing:0px;writing-mode:lr-tb;text-anchor:middle;fill:#ffffff;fill-opacity:1;stroke:none;stroke-width:0.05278614"
         d="m 25.238404,269.30792 v 0.11099 h -2.373436 l -2.467349,-4.76395 h -2.364898 v 4.76395 h -2.211222 v -12.43066 h 4.40537 q 2.15146,0 3.321103,0.96474 1.17818,0.96474 1.17818,2.78324 0,1.22941 -0.58909,2.08316 -0.58909,0.85375 -1.673358,1.31478 z m -7.205683,-6.42877 h 2.202685 q 1.10988,0 1.690433,-0.55494 0.58909,-0.55494 0.58909,-1.47699 0,-0.98182 -0.563477,-1.52822 -0.563478,-0.5464 -1.724583,-0.5464 h -2.194148 z" />
      <path
         id="path1511"
         style="font-style:normal;font-variant:normal;font-weight:500;font-stretch:normal;font-size:331.23999023px;line-height:1.25;font-family:Heebo;-inkscape-font-specification:'Heebo, Medium';font-variant-ligatures:normal;font-variant-caps:normal;font-variant-numeric:normal;font-feature-settings:normal;text-align:center;letter-spacing:0px;word-spacing:0px;writing-mode:lr-tb;text-anchor:middle;fill:#ffffff;fill-opacity:1;stroke:none;stroke-width:0.05278614"
         d="m 36.303055,265.35504 q -0.110988,1.24648 -0.700079,2.20268 -0.580552,0.95621 -1.639207,1.49407 -1.058655,0.53787 -2.544187,0.53787 -1.52822,0 -2.663712,-0.71715 -1.135493,-0.7257 -1.750195,-2.05755 -0.614703,-1.33186 -0.614703,-3.1162 v -0.98182 q 0,-1.78435 0.62324,-3.1162 0.631778,-1.33186 1.784345,-2.05755 1.161106,-0.72569 2.706401,-0.72569 1.459919,0 2.492961,0.5464 1.033043,0.53787 1.605057,1.51115 0.580553,0.96474 0.708616,2.23683 h -2.202685 q -0.145138,-1.24648 -0.742766,-1.86972 -0.58909,-0.63178 -1.861183,-0.63178 -1.425769,0 -2.159998,1.05866 -0.725691,1.05012 -0.725691,3.03082 v 0.9989 q 0,1.94656 0.674466,3.02229 0.683003,1.07573 2.125847,1.07573 0.887904,0 1.442844,-0.27321 0.563478,-0.28173 0.845217,-0.81106 0.290276,-0.53787 0.392726,-1.35747 z" />
      <path
         id="path1513"
         style="font-style:normal;font-variant:normal;font-weight:500;font-stretch:normal;font-size:331.23999023px;line-height:1.25;font-family:Heebo;-inkscape-font-specification:'Heebo, Medium';font-variant-ligatures:normal;font-variant-caps:normal;font-variant-numeric:normal;font-feature-settings:normal;text-align:center;letter-spacing:0px;word-spacing:0px;writing-mode:lr-tb;text-anchor:middle;fill:#ffffff;fill-opacity:1;stroke:none;stroke-width:0.05278614"
         d="m 37.634912,264.97939 v -1.70751 h 4.516358 v 1.70751 z" />
      <path
         id="path1515"
         style="font-style:normal;font-variant:normal;font-weight:500;font-stretch:normal;font-size:331.23999023px;line-height:1.25;font-family:Heebo;-inkscape-font-specification:'Heebo, Medium';font-variant-ligatures:normal;font-variant-caps:normal;font-variant-numeric:normal;font-feature-settings:normal;text-align:center;letter-spacing:0px;word-spacing:0px;writing-mode:lr-tb;text-anchor:middle;fill:#ffffff;fill-opacity:1;stroke:none;stroke-width:0.05278614"
         d="m 43.773403,269.41891 v -1.46846 l 4.046794,-4.38829 q 0.665927,-0.74277 1.041579,-1.2721 0.375652,-0.53786 0.529328,-0.96474 0.162213,-0.42688 0.162213,-0.85375 0,-0.87083 -0.48664,-1.4087 -0.478102,-0.53786 -1.331856,-0.53786 -1.00743,0 -1.545294,0.62324 -0.529328,0.6147 -0.529328,1.63921 h -2.125847 q 0,-1.10135 0.503714,-2.00633 0.503715,-0.90498 1.45992,-1.4343 0.956204,-0.52933 2.262448,-0.52933 1.237943,0 2.117309,0.41834 0.879367,0.41834 1.340394,1.19526 0.461027,0.76837 0.461027,1.81849 0,1.09281 -0.648853,2.18561 -0.648853,1.08427 -1.895334,2.39051 l -2.697862,2.88569 h 5.720151 v 1.70751 z" />
      <path
         id="path1517"
         style="font-style:normal;font-variant:normal;font-weight:500;font-stretch:normal;font-size:331.23999023px;line-height:1.25;font-family:Heebo;-inkscape-font-specification:'Heebo, Medium';font-variant-ligatures:normal;font-variant-caps:normal;font-variant-numeric:normal;font-feature-settings:normal;text-align:center;letter-spacing:0px;word-spacing:0px;writing-mode:lr-tb;text-anchor:middle;fill:#ffffff;fill-opacity:1;stroke:none;stroke-width:0.05278614"
         d="m 61.881521,264.19393 q 0,5.39573 -4.072405,5.39573 -1.938021,0 -3.022289,-1.28917 -1.07573,-1.28917 -1.07573,-4.10656 V 262.162 q 0,-2.80885 1.067193,-4.07241 1.067192,-1.27209 3.013751,-1.27209 1.946559,0 3.013751,1.27209 1.075729,1.26356 1.075729,4.07241 z m -2.125846,-2.34782 q 0,-1.79288 -0.48664,-2.55272 -0.486639,-0.76838 -1.476994,-0.76838 -0.97328,0 -1.468457,0.76838 -0.48664,0.75984 -0.48664,2.55272 v 2.64664 q 0,1.79288 0.495178,2.59541 0.503714,0.79399 1.476994,0.79399 0.981817,0 1.459919,-0.78545 0.48664,-0.79399 0.48664,-2.60395 z" />
    </g>
  </g>
</svg>
