<?xml version="1.0" encoding="UTF-8" standalone="no"?>
<svg
   id="svg"
   version="1.1"
   width="377.95276"
   height="377.95276"
   viewBox="0 0 377.95276 377.95276"
   sodipodi:docname="image2vector.svg"
   inkscape:version="1.1.1 (c3084ef, 2021-09-22)"
   xmlns:inkscape="http://www.inkscape.org/namespaces/inkscape"
   xmlns:sodipodi="http://sodipodi.sourceforge.net/DTD/sodipodi-0.dtd"
   xmlns="http://www.w3.org/2000/svg"
   xmlns:svg="http://www.w3.org/2000/svg">
  <defs
     id="defs833" />
  <sodipodi:namedview
     id="namedview831"
     pagecolor="#ffffff"
     bordercolor="#666666"
     borderopacity="1.0"
     inkscape:pageshadow="2"
     inkscape:pageopacity="0.0"
     inkscape:pagecheckerboard="0"
     showgrid="false"
     inkscape:zoom="1.5171821"
     inkscape:cx="153.24462"
     inkscape:cy="192.79162"
     inkscape:window-width="1312"
     inkscape:window-height="847"
     inkscape:window-x="54"
     inkscape:window-y="25"
     inkscape:window-maximized="0"
     inkscape:current-layer="svgg" />
  <g
     id="svgg">
    <circle
       style="fill:#a4dfd2;fill-opacity:1;stroke-width:1.13662"
       id="path3351"
       cx="188.97638"
       cy="188.97638"
       r="188.97638" />
    <path
       id="path1"
       d="m 182.92913,49.28315 c -1.35118,0.473385 -3.22204,1.213228 -4.15748,1.645039 -0.93543,0.430866 -3.06141,1.324724 -4.72441,1.985197 -1.66299,0.660472 -3.70393,1.510866 -4.53543,1.889764 -0.8315,0.378897 -2.87244,1.227401 -4.53543,1.886929 -1.66299,0.658582 -3.57638,1.439055 -4.25197,1.733858 -0.67559,0.295748 -1.7811,0.777638 -2.45669,1.072441 -0.67559,0.294803 -3.43937,1.415433 -6.14174,2.490709 -2.70236,1.07622 -5.5937,2.264882 -6.42519,2.642834 -0.8315,0.377953 -3.28063,1.391811 -5.44252,2.252599 -2.16095,0.861732 -4.41544,1.817008 -5.00882,2.123149 -1.07055,0.553701 -1.09323,0.541418 -3.04063,-1.625197 C 111.03307,43.816063 97.246299,43.51937 92.210079,66.519685 c -1.304882,5.96126 -2.140158,11.624882 -2.669292,18.101102 -0.361889,4.433386 -0.52063,5.177953 -1.282204,5.998111 -1.105512,1.193385 -2.747717,4.495748 -4.741418,9.538582 -0.863622,2.18268 -1.87937,4.64882 -2.258267,5.48032 -0.377953,0.83149 -1.226457,2.87244 -1.885985,4.53543 -0.658582,1.66299 -1.439055,3.57638 -1.733858,4.25197 -0.295748,0.67559 -0.777638,1.7811 -1.073386,2.45669 -0.294803,0.67559 -1.075275,2.58898 -1.733858,4.25197 -0.659528,1.66299 -1.508031,3.70394 -1.886929,4.53543 -0.378898,0.8315 -1.227402,2.87244 -1.886929,4.53543 -0.658583,1.663 -1.456063,3.6189 -1.772599,4.34646 -0.316535,0.72756 -0.710551,1.66299 -0.875905,2.07874 -0.165355,0.41575 -0.558425,1.35118 -0.873071,2.07874 -0.314646,0.72756 -1.334173,3.1937 -2.266772,5.48032 -2.862047,7.01858 -4.460787,10.9011 -5.058897,12.28346 -0.313701,0.72756 -0.706772,1.66299 -0.872126,2.07874 -0.165355,0.41575 -0.55937,1.35118 -0.875906,2.07874 -0.316535,0.72756 -1.114016,2.68347 -1.772598,4.34646 -0.659528,1.66299 -1.508032,3.70393 -1.886929,4.53543 -0.378898,0.8315 -1.227402,2.87244 -1.88693,4.53543 -1.140472,2.87906 -1.509921,3.75874 -2.856377,6.80504 -2.854489,6.45827 -2.306457,11.41229 2.409448,21.77575 0.413859,0.91087 1.634646,3.86646 2.711811,6.56882 1.077166,2.70236 2.267717,5.5937 2.646615,6.4252 0.377952,0.83149 1.228346,2.87244 1.888818,4.53543 0.660473,1.66299 1.509922,3.70394 1.88693,4.53543 0.637795,1.40693 1.540157,3.59339 5.931023,14.36221 0.932599,2.28661 2.547402,6.19842 3.589606,8.69291 1.04126,2.49449 2.489764,5.9811 3.219213,7.74803 0.728504,1.76693 1.549606,3.72284 1.823622,4.34646 0.274016,0.62362 0.860788,2.05512 1.303937,3.18236 0.442205,1.1263 1.12063,2.74205 1.507087,3.59055 0.386456,0.84756 1.241575,2.90268 1.901102,4.56567 0.658583,1.66299 1.456063,3.6189 1.772599,4.34646 0.316535,0.72756 0.727559,1.70551 0.914645,2.17323 3.788032,9.49134 6.086929,12.25984 12.316536,14.82897 3.257008,1.34363 4.566615,1.89638 6.542365,2.76473 0.72756,0.32031 2.68346,1.12063 4.34645,1.77921 1.663,0.65953 3.70394,1.50803 4.53544,1.88599 0.83149,0.37889 3.29763,1.39937 5.48031,2.26866 2.18268,0.86929 4.64882,1.88976 5.48032,2.26866 0.83149,0.37795 2.87244,1.22645 4.53543,1.88598 1.66299,0.65858 3.57638,1.43906 4.25197,1.73386 0.67559,0.29575 1.7811,0.77764 2.45669,1.07244 0.67559,0.2948 3.01417,1.24536 5.19685,2.11276 2.18268,0.8674 4.64882,1.88693 5.48032,2.26582 0.83149,0.37796 2.87244,1.22646 4.53543,1.88599 1.66299,0.65858 3.6189,1.4589 4.34646,1.77921 3.12661,1.37386 2.68724,1.1915 16.25196,6.72284 2.39056,0.97511 4.89922,2.01259 5.57481,2.30645 0.67559,0.29292 1.7811,0.77292 2.45669,1.06583 9.51685,4.12535 13.59685,4.27464 21.24945,0.77953 1.04504,-0.47717 3.68598,-1.57796 5.86866,-2.44725 2.18268,-0.86834 4.64882,-1.88882 5.48032,-2.26677 0.83149,-0.37795 3.29763,-1.39748 5.48031,-2.26488 4.06677,-1.61575 4.92284,-1.97386 8.02772,-3.36 0.98456,-0.44032 1.87937,-0.80032 1.98803,-0.80032 0.10866,0 0.91842,-0.31937 1.79905,-0.70866 0.88158,-0.39023 2.53796,-1.08945 3.68126,-1.55527 7.70079,-3.13418 8.72032,-3.55843 12.18898,-5.07685 0.67559,-0.29575 2.16378,-0.90426 3.30709,-1.35213 1.1433,-0.44787 2.67401,-1.07716 3.40157,-1.39748 2.83748,-1.24819 3.69354,-1.60535 6.61417,-2.76 1.663,-0.65669 3.57638,-1.43622 4.25197,-1.73102 0.67559,-0.29575 1.78111,-0.77764 2.4567,-1.07339 0.67559,-0.2948 2.58897,-1.07433 4.25196,-1.73102 1.663,-0.6567 3.53386,-1.41922 4.15749,-1.69229 1.11779,-0.49039 4.76692,-2.00693 10.47023,-4.34834 5.23654,-2.1515 8.34803,-5.25449 10.50047,-10.47213 1.21418,-2.94331 1.79244,-4.30961 2.81103,-6.63685 0.29575,-0.67559 0.90425,-2.16378 1.35212,-3.30709 0.44788,-1.1433 1.05638,-2.63149 1.35213,-3.30708 1.32189,-3.02173 1.7074,-3.93638 3.37701,-8.0315 5.46992,-13.41543 5.12693,-12.58583 6.76724,-16.34646 0.2948,-0.67559 1.22173,-2.92913 2.06079,-5.00787 0.83811,-2.07874 2.56157,-6.24567 3.82866,-9.25984 1.26709,-3.01417 3.16157,-7.6063 4.21039,-10.20473 1.04788,-2.59842 2.21481,-5.40472 2.5937,-6.23622 0.37796,-0.83149 1.22835,-2.87244 1.88882,-4.53543 0.66048,-1.66299 1.51087,-3.70394 1.88882,-4.53543 1.14614,-2.51622 3.82772,-9.33827 4.38425,-11.14961 0.94867,-3.09071 0.66898,-8.04661 -0.63496,-11.24409 -0.19086,-0.46772 -0.49984,-1.23307 -0.68598,-1.70079 -0.18709,-0.46772 -0.59811,-1.44567 -0.91465,-2.17323 -0.31653,-0.72756 -1.11401,-2.68346 -1.77259,-4.34646 -0.65953,-1.66299 -1.50804,-3.70393 -1.88599,-4.53543 -0.3789,-0.8315 -1.39937,-3.29764 -2.26866,-5.48031 -0.86929,-2.18268 -1.88976,-4.64882 -2.26866,-5.48032 -0.37795,-0.83149 -1.22646,-2.87244 -1.88599,-4.53543 -0.65858,-1.66299 -1.45889,-3.6189 -1.77921,-4.34646 -1.26709,-2.88378 -1.60819,-3.70299 -2.75905,-6.61417 -0.6567,-1.66299 -1.41922,-3.53386 -1.69229,-4.15748 -0.27401,-0.62362 -1.09323,-2.57953 -1.81984,-4.34646 -0.72756,-1.76693 -2.03716,-4.90677 -2.90929,-6.97795 -0.87307,-2.07118 -2.06551,-4.96914 -2.64945,-6.43843 -0.58394,-1.47023 -1.84346,-4.5033 -2.79874,-6.73984 l -1.73669,-4.06677 -9.5e-4,-5.93575 c -0.003,-17.893227 -3.61417,-33.679369 -9.14645,-39.980786 -5.94331,-6.770079 -17.00882,-3.368504 -30.06142,9.24 -1.44473,1.39559 -2.14488,1.454173 -4.54299,0.382677 -3.08788,-1.378583 -3.97512,-1.751811 -7.08284,-2.976378 -2.68913,-1.060158 -5.05701,-2.04378 -8.69291,-3.612284 -0.62362,-0.269291 -2.05512,-0.851338 -3.18236,-1.294488 -1.1263,-0.442205 -2.74205,-1.12063 -3.59056,-1.507087 -0.84755,-0.385511 -3.32787,-1.411653 -5.51055,-2.279055 -2.18267,-0.867401 -4.52126,-1.817952 -5.19685,-2.112756 -0.67559,-0.294803 -1.7811,-0.776692 -2.45669,-1.07244 -0.67559,-0.294804 -2.58898,-1.074331 -4.25197,-1.731024 -2.74205,-1.08378 -4.23307,-1.705512 -6.4252,-2.681575 -2.6844,-1.194331 -11.3896,-4.712126 -13.54771,-5.474646 -3.52252,-1.245354 -8.4274,-1.249133 -11.9641,-0.0094 m -73.61669,8.309291 c 7.98236,3.597165 21.20221,17.766614 33.20315,35.587087 3.30047,4.901102 3.30992,4.963464 0.91748,5.896063 -1.03937,0.405354 -2.42551,0.984571 -3.08031,1.287871 -0.65575,0.30237 -1.27843,0.54993 -1.3852,0.54993 -0.10677,0 -1.15937,-1.828353 -2.33953,-4.062998 -8.96126,-16.96063 -21.91464,-25.121575 -28.0526,-17.674016 -2.16189,2.622047 -2.22803,4.970079 -0.19937,7.091339 1.52882,1.59874 4.70646,1.128189 5.76756,-0.854174 0.74835,-1.398425 1.97008,-0.909921 5.67496,2.271496 3.39969,2.92063 8.86583,10.427717 8.42646,11.572914 -0.16063,0.417638 -0.1011,0.55559 0.16724,0.389291 0.40914,-0.253228 2.74016,3.817328 2.73449,4.773548 -0.002,0.25323 -0.64441,0.82771 -1.42866,1.27464 -4.20189,2.39811 -9.09638,7.05827 -9.40346,8.95276 -0.80882,4.98142 3.63307,5.9726 8.43779,1.88409 29.77701,-25.343621 91.53638,-22.990865 121.04032,4.61008 3.05102,2.85449 3.5811,3.2041 4.85763,3.2041 3.50741,0 5.27906,-3.0274 3.4904,-5.96221 -1.00441,-1.64598 -1.01197,-1.60157 0.98078,-5.53795 5.93481,-11.72221 14.52756,-19.669609 17.23465,-15.941105 0.86929,1.19622 2.19496,5.227085 2.19496,6.673705 0,1.10834 2.09008,3.75968 2.96315,3.75968 4.48819,0 5.87622,-3.4611 3.88441,-9.689763 -5.4463,-17.034331 -22.35874,-11.145827 -33.53197,11.674013 -1.21134,2.4756 -1.22834,2.4841 -2.67212,1.28977 -0.58772,-0.48567 -2.38678,-1.76599 -3.9978,-2.84599 -3.58677,-2.40378 -3.61606,-1.97196 0.49984,-7.23118 17.06174,-21.801259 32.09764,-34.580786 37.36819,-31.760314 3.13323,1.677165 6.07276,11.327244 7.60347,24.957165 0.38645,3.44315 0.54614,22.232129 0.20504,24.188979 -0.0898,0.51968 -0.27402,2.30551 -0.40819,3.9685 -0.60189,7.45229 -2.48882,16.27654 -4.62709,21.6378 -1.11213,2.78835 -1.46929,2.90646 -2.29606,0.7559 -0.33922,-0.88346 -1.68567,-3.72472 -2.99244,-6.31464 -1.30678,-2.58898 -2.37638,-4.86425 -2.37638,-5.05417 0,-2.54457 -4.78583,-6.18993 -7.25386,-5.52473 -3.28346,0.88347 -3.67937,3.47055 -1.11213,7.27465 5.73827,8.50393 9.61512,18.94204 12.17008,32.7685 0.21166,1.14331 0.62835,3.18425 0.92693,4.53543 0.29858,1.35119 0.71244,4.15748 0.91843,6.23622 0.20693,2.07874 0.54708,5.48032 0.7559,7.55906 1.91433,19.06772 0.034,55.80567 -4.14141,80.88189 -1.79245,10.76882 -2.10237,11.89323 -3.44977,12.53764 -2.46897,1.18015 -4.52598,2.01354 -4.97102,2.01354 -0.27213,0 -0.65669,0.14268 -0.85418,0.31748 -0.19748,0.1748 -0.95433,0.54425 -1.68189,0.82205 -0.72755,0.27779 -2.39055,0.98551 -3.69448,1.57228 -1.30489,0.58772 -2.50583,1.06772 -2.66929,1.06772 -0.16347,0 -1.00158,0.34016 -1.86237,0.7559 -0.85984,0.41575 -1.7159,0.75591 -1.90204,0.75591 -0.18615,0 -0.83244,0.23622 -1.43622,0.52535 -0.60284,0.28914 -1.69229,0.77953 -2.41985,1.0904 -0.72756,0.30992 -2.12882,0.92409 -3.11433,1.36346 -0.98456,0.44032 -1.93701,0.80032 -2.11464,0.80032 -0.17859,0 -0.81827,0.23622 -1.42205,0.52535 -0.60284,0.28913 -1.69228,0.77953 -2.41984,1.09039 -0.72756,0.30993 -2.12882,0.9241 -3.11433,1.36347 -0.98457,0.44031 -2.01355,0.80031 -2.28662,0.80031 -0.27212,0 -0.65669,0.14457 -0.85417,0.32126 -0.19748,0.1767 -1.12441,0.61607 -2.05984,0.97607 -0.93544,0.36 -2.29607,0.91275 -3.02363,1.22929 -0.72755,0.31559 -1.66299,0.7096 -2.07874,0.8759 -0.41574,0.1663 -1.56189,0.65859 -2.5474,1.09512 -0.98456,0.43654 -1.93701,0.7937 -2.11464,0.7937 -0.17859,0 -0.81827,0.23622 -1.42205,0.52536 -0.60284,0.28913 -1.69228,0.77952 -2.41984,1.09039 -0.72756,0.30992 -2.12882,0.9241 -3.11433,1.36347 -0.98457,0.44031 -2.01355,0.80031 -2.28662,0.80031 -0.27212,0 -0.65669,0.14457 -0.85417,0.32126 -0.19748,0.17669 -1.12441,0.61606 -2.05984,0.97606 -0.93544,0.36 -2.29607,0.91276 -3.02363,1.22929 -0.72755,0.31559 -1.66299,0.70961 -2.07874,0.87591 -0.41574,0.1663 -1.56189,0.65858 -2.5474,1.09512 -0.98456,0.43653 -1.93701,0.7937 -2.11464,0.7937 -0.17859,0 -0.81827,0.23622 -1.42205,0.52535 -0.60283,0.28914 -1.69228,0.77953 -2.41984,1.0904 -0.72756,0.30992 -2.12882,0.92409 -3.11433,1.36346 -0.98457,0.44032 -2.01355,0.80032 -2.28662,0.80032 -0.27212,0 -0.65669,0.14362 -0.85417,0.31937 -0.19748,0.1748 -1.37953,0.71149 -2.62677,1.19244 -1.24725,0.48094 -2.42929,1.01764 -2.62677,1.19244 -0.48,0.42708 -3.45166,0.40819 -4.27559,-0.0265 -0.36095,-0.19086 -1.33701,-0.63496 -2.16851,-0.98646 -0.83149,-0.35149 -2.00598,-0.87685 -2.60882,-1.16598 -0.60378,-0.28913 -1.24346,-0.52535 -1.42204,-0.52535 -0.17764,0 -1.13008,-0.36 -2.11465,-0.80032 -3.03024,-1.35212 -3.98362,-1.75653 -6.13795,-2.60126 -1.14331,-0.44787 -2.67402,-1.07433 -3.40158,-1.39086 -1.58457,-0.68977 -2.94236,-1.25292 -3.9685,-1.64504 -1.14898,-0.43843 -3.64725,-1.51843 -4.87654,-2.10804 -0.60378,-0.28913 -1.24346,-0.52535 -1.42204,-0.52535 -0.17764,0 -1.13008,-0.35717 -2.11465,-0.7937 -0.98551,-0.43654 -2.13165,-0.92221 -2.5474,-1.08 -0.41575,-0.1578 -1.49481,-0.65102 -2.39811,-1.09606 -0.90331,-0.44504 -1.80378,-0.80977 -2.00221,-0.80977 -0.19842,0 -1.06488,-0.34015 -1.92472,-0.7559 -0.86079,-0.41575 -1.6989,-0.75591 -1.86236,-0.75591 -0.16347,0 -1.36441,-0.48 -2.66929,-1.06771 -1.30394,-0.58678 -2.96693,-1.29449 -3.69449,-1.57229 -0.72756,-0.27779 -1.48441,-0.64724 -1.68189,-0.82205 -0.19748,-0.1748 -0.58205,-0.31748 -0.85418,-0.31748 -0.27307,0 -1.30204,-0.35716 -2.28661,-0.7937 -0.98551,-0.43653 -2.13165,-0.9222 -2.5474,-1.08 -0.41575,-0.15779 -1.4948,-0.65102 -2.39811,-1.09606 -0.90331,-0.44504 -1.80378,-0.80976 -2.00221,-0.80976 -0.19842,0 -1.06488,-0.34016 -1.92472,-0.75591 -0.86079,-0.41575 -1.6989,-0.7559 -1.86236,-0.7559 -0.16347,0 -1.36441,-0.48 -2.66929,-1.06772 -1.30394,-0.58677 -2.96693,-1.29449 -3.69449,-1.57228 -0.72756,-0.2778 -1.48441,-0.64725 -1.68189,-0.82205 -0.19748,-0.1748 -0.57544,-0.31748 -0.84095,-0.31748 -0.26456,0 -1.5959,-0.51024 -2.95748,-1.13386 -1.36157,-0.62362 -2.63622,-1.13386 -2.83275,-1.13386 -0.19654,0 -0.96284,-0.34016 -1.70268,-0.7559 -0.73984,-0.41575 -1.51937,-0.75591 -1.73008,-0.75591 -0.21165,0 -1.08945,-0.34016 -1.94929,-0.75591 -0.86079,-0.41574 -1.7452,-0.75968 -1.9663,-0.7644 -1.52315,-0.0321 -2.451024,-1.98898 -3.668032,-7.73953 -0.220157,-1.03937 -0.562204,-2.57008 -0.76063,-3.40158 -0.449763,-1.88598 -0.87685,-3.88346 -1.453228,-6.80315 -0.246614,-1.24724 -0.60189,-3.03307 -0.788976,-3.9685 -1.007244,-5.01732 -1.858583,-10.18772 -3.00189,-18.23622 -0.798425,-5.61827 -1.178268,-10.4589 -2.021103,-25.79528 -0.172913,-3.14267 0.651969,-18.68031 1.254804,-23.62204 0.705826,-5.79496 2.021102,-12.4526 3.210708,-16.25197 5.311181,-16.96441 7.680947,-22.07622 17.915907,-38.63906 2.62299,-4.24441 1.76598,-7.48346 -1.97575,-7.46267 -2.15055,0.0113 -3.79276,1.61763 -5.88189,5.75527 -1.00063,1.98331 -1.79055,1.20378 -3.35055,-3.30709 -6.606614,-19.10551 -6.080315,-57.177635 0.96567,-69.732281 2.21197,-3.942047 3.47433,-4.462677 6.98551,-2.88 m 84.6548,6.670866 c 4.83969,2.097638 4.52126,1.963465 9.37134,3.95811 5.01449,2.062677 5.80063,2.390552 8.88189,3.702992 1.24725,0.531024 3.62835,1.501418 5.29134,2.157166 1.66299,0.655748 3.6189,1.453228 4.34646,1.773543 2.87338,1.262362 3.70016,1.608189 6.61417,2.76189 1.66299,0.659527 3.70394,1.508031 4.53543,1.885984 0.8315,0.378898 3.29764,1.398425 5.48032,2.265827 7.56378,3.004724 8.31496,3.383622 8.31496,4.192441 0,0.363779 -0.15402,0.717165 -0.34205,0.787086 -0.34204,0.12567 -3.66425,4.243465 -7.59496,9.413859 -1.14331,1.504252 -2.50394,3.212597 -3.02362,3.796537 l -0.94488,1.06205 -1.32284,-0.66331 c -1.17637,-0.58961 -3.54708,-1.547718 -9.07086,-3.668033 -0.93544,-0.359055 -2.25355,-0.80126 -2.92914,-0.981732 -0.67559,-0.181418 -1.86614,-0.511182 -2.64567,-0.733229 -13.697,-3.894803 -29.84409,-5.332913 -44.25826,-3.941102 -5.61638,0.542362 -7.54489,0.811653 -12.34016,1.717795 -4.12819,0.780473 -5.27811,1.033701 -6.61134,1.454173 -2.24787,0.709607 -2.38677,0.600945 -5.88378,-4.591181 -1.8548,-2.75433 -4.01102,-5.858267 -4.7915,-6.897638 -1.92661,-2.566299 -1.85291,-2.641889 5.38111,-5.47937 1.1433,-0.448819 2.67401,-1.075275 3.40157,-1.391811 0.72756,-0.316535 1.66299,-0.711496 2.07874,-0.877795 0.41575,-0.166299 1.56189,-0.658583 2.5474,-1.095118 0.98457,-0.436535 1.87937,-0.793701 1.98803,-0.793701 0.10867,0 0.91843,-0.318425 1.79906,-0.706771 2.89606,-1.278426 6.06803,-2.60693 10.86236,-4.548662 2.59843,-1.052598 6.93544,-2.83937 9.6378,-3.970394 5.99905,-2.510551 6.71149,-2.547401 11.22708,-0.589606 M 91.464567,121.69512 c 0,1.11023 1.605354,7.45134 2.728819,10.77732 0.79937,2.36599 2.328189,5.62488 4.097953,8.73827 l 0.885354,1.55716 -2.765669,5.62394 c -1.52126,3.09354 -2.909292,5.9641 -3.08315,6.37984 -4.485354,10.68567 -7.536378,22.19811 -9.015118,34.01575 -1.025197,8.19024 -1.162205,10.7537 -1.151811,21.58583 0.01039,10.89071 0.357165,17.30362 1.518425,28.0526 0.231496,2.14866 0.329764,3.99779 0.218268,4.10929 -0.211654,0.21165 -2.503937,-4.54394 -2.503937,-5.19496 0,-0.20599 -0.173858,-0.66898 -0.386457,-1.02992 -0.213543,-0.36095 -1.251968,-2.78268 -2.308346,-5.38111 -4.12063,-10.13763 -5.341418,-13.09511 -6.000945,-14.55118 -0.377008,-0.83149 -1.394646,-3.29764 -2.262047,-5.48031 -0.867402,-2.18268 -1.80756,-4.47874 -2.089134,-5.10236 -0.281575,-0.62363 -0.96189,-2.23937 -1.511811,-3.59056 -1.827402,-4.49102 -3.652914,-8.86299 -4.377638,-10.48441 -1.11874,-2.49921 -1.027087,-3.18992 1.058268,-8.03527 0.312755,-0.72756 0.704881,-1.66299 0.870236,-2.07874 0.165354,-0.41575 0.55937,-1.35118 0.875905,-2.07874 0.316536,-0.72756 1.113071,-2.68347 1.769764,-4.34646 0.656693,-1.66299 1.453228,-3.6189 1.769764,-4.34645 0.316535,-0.72756 0.710551,-1.663 0.875905,-2.07874 0.165355,-0.41575 0.560315,-1.35119 0.876851,-2.07874 0.316535,-0.72756 0.942992,-2.25827 1.390866,-3.40158 0.447874,-1.14331 1.03937,-2.58898 1.313386,-3.2126 1.097952,-2.49449 3.6,-8.53795 3.6,-8.69575 0,-0.0917 0.510236,-1.28126 1.133858,-2.64283 0.623622,-1.36158 1.133858,-2.69291 1.133858,-2.95748 0,-0.26551 0.143622,-0.64347 0.31937,-0.84095 0.174803,-0.19748 0.715276,-1.37952 1.199055,-2.62677 0.484725,-1.24724 1.261418,-3.11811 1.727245,-4.15748 0.464881,-1.03937 1.385196,-3.25039 2.042834,-4.91338 1.170709,-2.95654 1.402205,-3.50835 2.927244,-6.99213 0.409134,-0.93543 1.047874,-2.50866 1.418268,-3.49606 0.678425,-1.80851 1.704567,-2.43685 1.704567,-1.04504 m 205.236853,21.44031 c 0.61889,1.36441 1.12535,2.623 1.12535,2.79685 0,0.17386 0.51024,1.43055 1.13386,2.79213 0.62362,1.36157 1.13386,2.64378 1.13386,2.84882 0,0.20598 0.16819,0.66897 0.37323,1.02992 0.52157,0.91842 2.06645,4.5222 3.84661,8.97165 0.8315,2.07874 1.98709,4.88504 2.56913,6.23622 0.58111,1.35118 1.68945,3.98741 2.46426,5.85827 0.77385,1.87087 1.62992,3.91181 1.9011,4.53543 4.80945,11.02489 4.79716,10.33512 0.36378,20.40945 -0.27402,0.62363 -0.86079,2.05512 -1.30394,3.18237 -0.4422,1.12629 -1.12063,2.74204 -1.50709,3.59055 -0.38645,0.84756 -1.24346,2.90267 -1.90299,4.56567 -0.66047,1.66299 -1.61102,3.92126 -2.11275,5.01921 -0.50174,1.09701 -0.91181,2.21102 -0.91181,2.47559 0,0.26362 -0.14457,0.64157 -0.32126,0.83905 -0.17764,0.19748 -0.7852,1.54961 -1.35119,3.00473 -1.2,3.0822 -4.32094,10.65543 -6.03685,14.64567 -0.91559,2.12882 -3.15968,7.56378 -4.08661,9.89386 -1.11118,2.79779 -2.04378,3.34204 -1.66488,0.97228 0.27118,-1.69512 0.79181,-7.70362 1.40976,-16.25197 1.41544,-19.57795 0.51213,-48.15212 -1.93606,-61.22835 -0.1748,-0.93543 -0.51213,-2.80629 -0.74929,-4.15748 -0.44221,-2.51433 -0.76158,-4.03653 -1.54866,-7.38803 l -0.44882,-1.90866 1.5411,-2.03527 c 1.92378,-2.54268 3.84945,-6.44315 5.1789,-10.49292 1.17071,-3.56787 1.31244,-3.57827 2.84126,-0.20504 m -166.68567,1.12536 c -15.16725,2.5389 -23.93292,19.83212 -17.18835,33.91086 8.40284,17.53796 33.69166,18.21544 42.57543,1.13953 9.34394,-17.95937 -5.45196,-38.38677 -25.38708,-35.05039 m 108.46205,0.42614 c -15.40158,4.3115 -22.49764,22.73953 -13.88693,36.06236 13.00819,20.12693 43.94645,11.01732 43.94173,-12.93827 -0.004,-15.76724 -15.03118,-27.32882 -30.0548,-23.12409 M 138.24,150.23811 c 7.48441,1.76504 13.22835,8.06173 13.97386,15.32126 0.51118,4.97008 0.2211,5.57953 -1.90866,4.01102 -3.4526,-2.54267 -11.70048,-4.34929 -17.83276,-3.90614 -5.93669,0.42898 -13.58173,2.39622 -14.38961,3.70205 -1.13574,1.83874 -1.72157,-1.66488 -0.88063,-5.26205 1.1093,-4.74331 6.39119,-11.78929 8.83654,-11.78929 0.11717,0 0.87591,-0.41953 1.68756,-0.93165 2.58142,-1.62898 6.60189,-2.0674 10.5137,-1.1452 m 110.3622,0 c 7.39087,1.74236 12.87874,7.6252 14.0693,15.08315 0.38456,2.40378 0.19937,5.30173 -0.32315,5.05606 -0.13134,-0.0614 -1.68378,-0.81921 -3.45071,-1.68283 -8.81103,-4.30866 -23.41512,-3.99496 -30.51969,0.6548 l -1.22834,0.8041 v -2.22615 c 0,-6.28346 4.04882,-13.05259 9.31464,-15.57637 1.00914,-0.48284 2.33386,-1.14142 2.94236,-1.46363 2.43496,-1.28693 5.55591,-1.50708 9.19559,-0.64913 m -62.27149,20.38866 c -6.12567,1.02047 -11.24221,3.86929 -13.97953,7.78394 -0.50173,0.71811 -1.0063,1.39086 -1.12063,1.4948 -0.39779,0.36189 -1.1263,2.09386 -1.8926,4.50331 -1.1433,3.59527 -1.04031,5.40756 0.6274,11.0759 1.23402,4.19339 7.81796,9.73701 13.14426,11.06646 2.35937,0.58961 2.00504,1.87465 -1.22079,4.42205 -3.97134,3.13606 -10.67244,3.88252 -16.15654,1.8 -3.70866,-1.40788 -8.40567,-4.4504 -11.24126,-7.28221 -1.94929,-1.94551 -3.39307,-2.39433 -4.89259,-1.51842 -3.19843,1.86803 -1.35308,5.85165 4.60629,9.94771 0.72756,0.49985 1.40788,1.00252 1.51182,1.11686 0.33354,0.36566 2.43496,1.56944 3.11811,1.78582 0.36378,0.11528 0.66141,0.36 0.66141,0.54425 0,0.18331 0.223,0.33355 0.49607,0.33355 0.27307,0 1.2,0.34015 2.06078,0.7559 0.85985,0.41575 1.79528,0.75591 2.07685,0.75591 1.93701,0 2.01449,1.15275 0.30804,4.53543 -0.1578,0.31181 -0.63497,2.0126 -1.06111,3.77953 -2.50866,10.39748 -2.26677,19.33228 0.74551,27.59055 1.22552,3.35906 1.58835,4.15748 1.89166,4.15748 0.15685,0 0.28535,0.18236 0.28535,0.40441 0,1.21134 4.19339,6.07937 6.80315,7.89732 0.72756,0.5074 1.40788,1.01575 1.51181,1.13103 0.38363,0.42519 5.03717,2.66173 5.5389,2.66173 0.28536,0 0.81354,0.15212 1.17449,0.33732 3.29669,1.69606 15.22677,1.68 20.31024,-0.0274 3.79086,-1.2737 6.81921,-3.15685 9.63401,-5.99244 3.53102,-3.55748 4.90488,-6.24284 6.8589,-13.4041 0.68882,-2.5285 0.69732,-14.64472 0.0123,-17.76377 -0.97039,-4.4126 -1.8359,-7.39749 -2.7685,-9.53953 -0.38362,-0.88063 -0.69732,-1.75465 -0.69732,-1.94079 0,-0.18614 -0.25418,-0.82583 -0.56504,-1.4211 -0.80221,-1.54016 -0.71056,-1.98047 0.47055,-2.25733 2.02677,-0.47527 8.80441,-3.93448 9.92126,-5.06362 0.10393,-0.10582 0.86362,-0.69449 1.6885,-1.31055 5.54362,-4.13764 6.63496,-7.70079 2.83937,-9.27307 -1.33417,-0.55276 -1.79811,-0.29764 -6.55464,3.60473 -9.59528,7.87181 -19.37859,8.80251 -26.37827,2.5096 -2.59748,-2.3348 -2.54551,-2.45575 1.66488,-3.88157 3.1937,-1.08189 4.69701,-2.07874 7.65354,-5.07307 6.91654,-7.00536 6.76347,-17.03906 -0.36945,-24.19843 -2.58614,-2.59559 -6.57259,-5.08441 -8.14488,-5.08441 -0.38551,0 -0.79086,-0.14646 -0.90142,-0.32504 -0.11055,-0.17858 -1.35401,-0.44126 -2.76283,-0.58488 -1.40882,-0.14362 -2.90173,-0.32032 -3.31748,-0.39307 -0.41575,-0.0728 -2.0315,0.0803 -3.59055,0.33921 m -41.07402,2.6504 c 2.46142,1.12629 4.4126,2.86866 4.4126,3.9411 0,2.24031 -4.73858,6.05669 -10.31716,8.3074 -4.90583,1.98047 -13.45701,-0.3515 -17.95465,-4.89732 -2.98772,-3.01985 -2.92063,-4.0441 0.41575,-6.33922 2.84882,-1.95968 4.17732,-1.95685 4.79905,0.0123 3.12378,9.90708 10.16882,11.43023 14.33953,3.1011 0.63685,-1.2737 1.15843,-2.72787 1.15843,-3.2315 0,-0.75496 0.59149,-1.82456 1.00913,-1.82456 0.0567,0 1.01764,0.41858 2.13732,0.93071 m 91.72441,0.87023 c 3.10016,10.00536 10.15087,11.60693 14.33292,3.25512 0.63685,-1.2737 1.15842,-2.64378 1.15842,-3.0463 0,-2.42929 3.2674,-1.93606 6.37039,0.96284 2.81953,2.63433 -1.02992,6.93826 -9.1285,10.20661 -4.17165,1.68472 -12.87213,-0.20976 -16.70646,-3.63685 -4.56756,-4.08189 -4.41921,-5.92725 0.67465,-8.37165 2.66079,-1.27748 2.70992,-1.26804 3.29858,0.63023 m -50.57575,49.25291 c 0.14457,3.41386 0.44882,10.67717 0.67559,16.14142 0.22772,5.4652 0.59056,10.32662 0.80882,10.80378 0.86457,1.89732 3.55181,2.65606 5.25449,1.48252 2.11087,-1.45417 2.17795,-2.2063 1.51465,-17.07118 -0.87496,-19.6422 -1.08662,-17.73732 1.81134,-16.31244 2.38299,1.17165 5.93858,2.28 7.31527,2.28 5.19591,0 10.11496,20.76283 7.34173,30.99213 -3.09448,11.41511 -13.24724,16.76692 -26.13826,13.77732 -11.50489,-2.66835 -17.86111,-14.28567 -16.10079,-29.42835 0.92315,-7.94457 4.28598,-16.65449 5.83275,-15.10866 0.11339,0.11433 0.51875,0.0416 0.90048,-0.16063 0.38173,-0.20315 1.28882,-0.45921 2.01638,-0.56976 2.44157,-0.37134 5.20724,-1.44 6.77291,-2.61544 1.57417,-1.18299 1.7159,-0.77196 1.99464,5.78929"
       stroke="none"
       fill="#221d22"
       fill-rule="evenodd"
       style="stroke-width:0.944882" />
    <path
       id="path2"
       d="m 187.55906,48.274961 c 0.77952,0.0822 2.05511,0.0822 2.83464,0 0.77953,-0.08126 0.14173,-0.148347 -1.41732,-0.148347 -1.55906,0 -2.19685,0.06709 -1.41732,0.148347 m -88.742367,3.977008 -1.493858,1.606299 1.606299,-1.493859 c 1.493856,-1.389921 1.780156,-1.71874 1.493856,-1.71874 -0.0614,0 -0.78425,0.722835 -1.606297,1.6063 m 19.104567,1.535433 c 0,0.09354 0.62457,0.646299 1.38709,1.228346 0.76346,0.582047 1.26897,0.865512 1.12252,0.629291 -0.29859,-0.483779 -2.50961,-2.120315 -2.50961,-1.857637 m 3.02362,2.267716 c 0,0.0652 0.55276,0.617953 1.22835,1.228347 l 1.22834,1.110236 -1.11023,-1.228347 c -1.03465,-1.145197 -1.34646,-1.402204 -1.34646,-1.110236 m 5.29134,4.984252 c 1.12913,1.143307 2.13827,2.07874 2.24221,2.07874 0.10393,0 -0.73512,-0.935433 -1.86426,-2.07874 -1.12913,-1.143307 -2.13826,-2.07874 -2.2422,-2.07874 -0.10394,0 0.73512,0.935433 1.86425,2.07874 m 154.68189,-0.295748 c 0.57543,0.08693 1.42583,0.08504 1.88976,-0.0047 0.46489,-0.08976 -0.005,-0.161575 -1.04409,-0.158741 -1.03937,0.0028 -1.42016,0.07654 -0.84567,0.163465 m -98.17795,4.109291 c -2.70236,1.131024 -7.03937,2.917796 -9.6378,3.970394 -4.79433,1.941732 -7.9663,3.270236 -10.86236,4.548662 -0.88063,0.388346 -1.69039,0.706771 -1.79906,0.706771 -0.10866,0 -1.00346,0.357166 -1.98803,0.793701 -0.98551,0.436535 -2.13165,0.928819 -2.5474,1.095118 -0.41575,0.166299 -1.35118,0.56126 -2.07874,0.877795 -0.72756,0.316536 -2.25827,0.942992 -3.40157,1.391811 -7.23402,2.837481 -7.30772,2.913071 -5.38111,5.47937 0.78048,1.039371 2.9367,4.143308 4.7915,6.897638 3.49701,5.192126 3.63591,5.300788 5.88378,4.591181 1.33323,-0.420472 2.48315,-0.6737 6.61134,-1.454173 11.75527,-2.222362 23.76945,-2.820472 34.58268,-1.719685 9.5707,0.974173 14.98771,1.944567 22.01574,3.942992 0.77953,0.222047 1.97008,0.551811 2.64567,0.733229 0.67559,0.180472 1.9937,0.622677 2.92914,0.981732 5.52378,2.120315 7.89449,3.078417 9.07086,3.668027 l 1.32284,0.66331 0.94488,-1.06205 c 0.51968,-0.58394 1.88031,-2.292279 3.02362,-3.796531 3.93071,-5.170394 7.25292,-9.288189 7.59496,-9.413859 0.18803,-0.06992 0.34205,-0.423307 0.34205,-0.787086 0,-0.808819 -0.75118,-1.187717 -8.31496,-4.192441 -2.18268,-0.867402 -4.64882,-1.886929 -5.48032,-2.265827 -0.83149,-0.377953 -2.87244,-1.226457 -4.53543,-1.885984 -2.91401,-1.153701 -3.74079,-1.499528 -6.61417,-2.76189 -0.72756,-0.320315 -2.68347,-1.117795 -4.34646,-1.773543 -1.66299,-0.655748 -4.04409,-1.626142 -5.29134,-2.157166 -3.08126,-1.31244 -3.8674,-1.640315 -8.88189,-3.702992 -4.85008,-1.994645 -4.53165,-1.860472 -9.37134,-3.95811 -4.51559,-1.957795 -5.22803,-1.920945 -11.22708,0.589606 M 288,62.858268 c 0,0.0652 0.55276,0.617952 1.22835,1.228346 l 1.22834,1.110236 -1.11023,-1.228346 C 288.31181,62.823307 288,62.566299 288,62.858268 m -156.66142,3.661417 c 0.81166,0.831496 1.56095,1.511811 1.66488,1.511811 0.10394,0 -0.47527,-0.680315 -1.28692,-1.511811 -0.81166,-0.831496 -1.56095,-1.511811 -1.66489,-1.511811 -0.10393,0 0.47528,0.680315 1.28693,1.511811 m -39.637793,0.80315 c -0.314645,1.575118 -0.0094,1.880315 0.330709,0.330708 0.143622,-0.652913 0.182362,-1.267086 0.08598,-1.362519 -0.09638,-0.09638 -0.283464,0.367559 -0.416693,1.031811 m 172.666777,1.682834 -1.87937,1.729134 1.98425,-1.599685 c 1.78016,-1.435275 2.20913,-1.859527 1.87937,-1.859527 -0.0576,0 -0.95055,0.778582 -1.98425,1.730078 m -3.79276,3.277796 -1.11023,1.228346 1.22834,-1.110236 c 0.67559,-0.610394 1.22835,-1.16315 1.22835,-1.228347 0,-0.291968 -0.31181,-0.03496 -1.34646,1.110237 M 90.418583,74.834646 c 0,0.727559 0.07748,1.025197 0.172913,0.661417 0.09449,-0.36378 0.09449,-0.959055 0,-1.322835 -0.09543,-0.363779 -0.172913,-0.06614 -0.172913,0.661418 m -0.736063,5.858267 c 0.0028,1.03937 0.07654,1.420158 0.163464,0.84567 0.08693,-0.575433 0.08504,-1.425827 -0.0047,-1.889764 -0.08976,-0.464882 -0.161575,0.0047 -0.15874,1.044094 m 206.658896,0.598111 c 0.0151,0.502677 0.18047,1.253858 0.36945,1.669606 0.23811,0.527244 0.27212,0.297638 0.11244,-0.755906 -0.2674,-1.754645 -0.52063,-2.2337 -0.48189,-0.9137 M 89.310236,85.03937 c 0,1.143307 0.07087,1.611024 0.157795,1.03937 0.08599,-0.571653 0.08599,-1.507086 0,-2.07874 -0.08693,-0.571654 -0.157795,-0.103937 -0.157795,1.03937 m 208.619524,6.425197 c 0,0.935433 0.0737,1.31811 0.16347,0.850394 0.0907,-0.467717 0.0907,-1.233071 0,-1.700788 -0.0898,-0.467716 -0.16347,-0.08504 -0.16347,0.850394 m 0.37796,3.779527 c 0,0.935434 0.0737,1.318111 0.16346,0.850394 0.0907,-0.467716 0.0907,-1.233071 0,-1.700787 -0.0898,-0.467717 -0.16346,-0.08504 -0.16346,0.850393 m 0.42897,9.448816 c 0,3.42992 0.0567,4.83307 0.12756,3.11811 0.0699,-1.71496 0.0699,-4.52126 0,-6.23622 -0.0709,-1.714957 -0.12756,-0.31181 -0.12756,3.11811 M 89.76,122.74016 c -0.370394,0.9874 -1.009134,2.56063 -1.418268,3.49606 -1.525039,3.48378 -1.756535,4.03559 -2.927244,6.99213 -0.657638,1.66299 -1.577953,3.87401 -2.042834,4.91338 -0.465827,1.03937 -1.24252,2.91024 -1.727245,4.15748 -0.483779,1.24725 -1.024252,2.42929 -1.199055,2.62677 -0.175748,0.19748 -0.31937,0.57544 -0.31937,0.84095 0,0.26457 -0.510236,1.5959 -1.133858,2.95748 -0.623622,1.36157 -1.133858,2.55118 -1.133858,2.64283 0,0.1578 -2.502048,6.20126 -3.6,8.69575 -0.274016,0.62362 -0.865512,2.06929 -1.313386,3.2126 -0.447874,1.14331 -1.074331,2.67402 -1.390866,3.40158 -0.316536,0.72755 -0.711496,1.66299 -0.876851,2.07874 -0.165354,0.41574 -0.55937,1.35118 -0.875905,2.07874 -0.316536,0.72755 -1.113071,2.68346 -1.769764,4.34645 -0.656693,1.66299 -1.453228,3.6189 -1.769764,4.34646 -0.316535,0.72756 -0.710551,1.66299 -0.875905,2.07874 -0.165355,0.41575 -0.557481,1.35118 -0.870236,2.07874 -2.085355,4.84535 -2.177008,5.53606 -1.058268,8.03527 0.724724,1.62142 2.550236,5.99339 4.377638,10.48441 0.549921,1.35119 1.230236,2.96693 1.511811,3.59056 0.281574,0.62362 1.221732,2.91968 2.089134,5.10236 0.867401,2.18267 1.885039,4.64882 2.262047,5.48031 0.659527,1.45607 1.880315,4.41355 6.000945,14.55118 1.056378,2.59843 2.094803,5.02016 2.308346,5.38111 0.212599,0.36094 0.386457,0.82393 0.386457,1.02992 0,0.65102 2.292283,5.40661 2.503937,5.19496 0.111496,-0.1115 0.01323,-1.96063 -0.218268,-4.10929 -1.525039,-14.12315 -2.074016,-34.94835 -1.137638,-43.17071 1.990866,-17.48599 4.512756,-27.91937 9.786142,-40.48347 0.173858,-0.41574 1.56189,-3.2863 3.08315,-6.37984 l 2.765669,-5.62394 -0.885354,-1.55716 c -1.769764,-3.11339 -3.298583,-6.37228 -4.097953,-8.73827 -1.123465,-3.32598 -2.728819,-9.66709 -2.728819,-10.77732 0,-1.39181 -1.026142,-0.76347 -1.704567,1.04504 m 204.10016,20.60031 c -1.32945,4.04977 -3.25512,7.95024 -5.1789,10.49292 l -1.5411,2.03527 0.44882,1.90866 c 0.78708,3.3515 1.10645,4.8737 1.54866,7.38803 0.23716,1.35119 0.57449,3.22205 0.74929,4.15748 2.44819,13.07623 3.3515,41.6504 1.93606,61.22835 -0.61795,8.54835 -1.13858,14.55685 -1.40976,16.25197 -0.3789,2.36976 0.5537,1.82551 1.66488,-0.97228 0.92693,-2.33008 3.17102,-7.76504 4.08661,-9.89386 1.71591,-3.99024 4.83685,-11.56347 6.03685,-14.64567 0.56599,-1.45512 1.17355,-2.80725 1.35119,-3.00473 0.17669,-0.19748 0.32126,-0.57543 0.32126,-0.83905 0,-0.26457 0.41007,-1.37858 0.91181,-2.47559 0.50173,-1.09795 1.45228,-3.35622 2.11275,-5.01921 0.65953,-1.663 1.51654,-3.71811 1.90299,-4.56567 0.38646,-0.84851 1.06489,-2.46426 1.50709,-3.59055 0.44315,-1.12725 1.02992,-2.55874 1.30394,-3.18237 4.43338,-10.07433 4.44567,-9.38456 -0.36378,-20.40945 -0.27118,-0.62362 -1.12725,-2.66456 -1.9011,-4.53543 -0.77481,-1.87086 -1.88315,-4.50709 -2.46426,-5.85827 -0.58204,-1.35118 -1.73763,-4.15748 -2.56913,-6.23622 -1.78016,-4.44945 -3.32504,-8.05323 -3.84661,-8.97165 -0.20504,-0.36095 -0.37323,-0.82394 -0.37323,-1.02992 0,-0.20504 -0.51024,-1.48725 -1.13386,-2.84882 -0.62362,-1.36158 -1.13386,-2.61827 -1.13386,-2.79213 0,-0.54519 -2.23275,-5.26771 -2.59748,-5.49259 -0.19086,-0.11812 -0.80693,1.18771 -1.36913,2.90078 M 187.1811,170.33953 c 0.36378,0.0945 0.95906,0.0945 1.32284,0 0.36378,-0.0954 0.0661,-0.17292 -0.66142,-0.17292 -0.72756,0 -1.0252,0.0775 -0.66142,0.17292 m 3.40158,0 c 0.36378,0.0945 0.95905,0.0945 1.32283,0 0.36378,-0.0954 0.0661,-0.17292 -0.66142,-0.17292 -0.72755,0 -1.02519,0.0775 -0.66141,0.17292 m 92.38299,2.95181 c 0.12,1.03937 0.28063,1.96063 0.35811,2.04756 0.26551,0.29764 0.0652,-2.04851 -0.25606,-2.99244 -0.21638,-0.63685 -0.24945,-0.32977 -0.10205,0.94488 M 142.56378,172.8 c -0.24945,0.24945 -0.43654,0.8022 -0.41575,1.22835 0.0312,0.65291 0.0803,0.62645 0.31087,-0.17008 0.20693,-0.71622 0.49512,-0.92126 1.19055,-0.84945 0.71905,0.0756 0.79559,0.0151 0.35055,-0.2778 -0.73512,-0.48378 -0.89102,-0.47622 -1.43622,0.069 m 35.73543,0.14079 c -1.4126,0.7663 -1.32661,1.08567 0.0945,0.35055 0.62362,-0.32221 1.13386,-0.66709 1.13386,-0.76536 0,-0.24378 -0.0406,-0.2296 -1.22835,0.41481 m 74.56441,0.13701 c -0.21543,0.40157 -0.37795,0.95433 -0.36094,1.22834 0.0161,0.27307 0.2022,0.0227 0.41386,-0.55653 0.30519,-0.83622 0.55181,-1.0063 1.19811,-0.82583 0.64535,0.18047 0.69732,0.14551 0.24755,-0.16913 -0.80314,-0.56126 -1.05448,-0.50741 -1.49858,0.32315 m -78.46205,2.76472 -1.11023,1.22835 1.22835,-1.11024 c 0.67559,-0.61039 1.22834,-1.16315 1.22834,-1.22835 0,-0.29197 -0.31181,-0.035 -1.34646,1.11024 m 30.6378,0.66142 c 1.02331,1.03937 1.94646,1.88976 2.05039,1.88976 0.10394,0 -0.64913,-0.85039 -1.67244,-1.88976 -1.0233,-1.03937 -1.94645,-1.88977 -2.05039,-1.88977 -0.10394,0 0.64913,0.8504 1.67244,1.88977 m -64.62992,1.88976 c -0.32221,0.62362 -0.50173,1.13386 -0.3978,1.13386 0.10394,0 0.45355,-0.51024 0.77575,-1.13386 0.32221,-0.62362 0.50173,-1.13386 0.3978,-1.13386 -0.10394,0 -0.45355,0.51024 -0.77575,1.13386 m 110.3622,0 c -0.3222,0.62362 -0.50173,1.13386 -0.39779,1.13386 0.10394,0 0.45354,-0.51024 0.77575,-1.13386 0.3222,-0.62362 0.50173,-1.13386 0.39779,-1.13386 -0.10394,0 -0.45354,0.51024 -0.77575,1.13386 m -157.559996,0.5811 c -0.129449,0.33827 -0.221103,0.89859 -0.20315,1.24536 0.01795,0.34677 0.182362,0.1285 0.365669,-0.48473 0.356221,-1.19244 0.230551,-1.78299 -0.162519,-0.76063 m 190.718736,1.68662 c 0,0.72756 0.0775,1.02519 0.17292,0.66141 0.0945,-0.36377 0.0945,-0.95905 0,-1.32283 -0.0954,-0.36378 -0.17292,-0.0661 -0.17292,0.66142 m 0.37796,5.29134 c 0,0.72755 0.0775,1.02519 0.17291,0.66141 0.0945,-0.36378 0.0945,-0.95905 0,-1.32283 -0.0954,-0.36378 -0.17291,-0.0661 -0.17291,0.66142 M 129.6378,185.5578 c 0.31181,0.2107 0.89291,0.38645 1.29165,0.38929 0.96661,0.008 0.6652,-0.20882 -0.72473,-0.51969 -0.82771,-0.1852 -0.98078,-0.15023 -0.56692,0.1304 m 8.31496,0.017 c -0.77859,0.24945 -0.81166,0.30803 -0.18898,0.33449 0.41575,0.018 1.01102,-0.13323 1.32283,-0.33449 0.66237,-0.42803 0.20221,-0.42803 -1.13385,0 M 240,185.5578 c 0.31181,0.2107 0.89291,0.38645 1.29165,0.38929 0.96662,0.008 0.6652,-0.20882 -0.72472,-0.51969 -0.82772,-0.1852 -0.98079,-0.15023 -0.56693,0.1304 m 8.31496,0.017 c -0.77858,0.24945 -0.81165,0.30803 -0.18898,0.33449 0.41575,0.018 1.01103,-0.13323 1.32284,-0.33449 0.66236,-0.42803 0.2022,-0.42803 -1.13386,0 m -200.185511,3.2126 c 0.0019,1.66299 0.06803,2.29606 0.147401,1.40693 0.08031,-0.88819 0.07937,-2.24882 -0.0019,-3.02362 -0.08126,-0.77386 -0.146457,-0.0463 -0.145512,1.61669 m 281.574802,0 c 0.002,1.66299 0.068,2.29606 0.1474,1.40693 0.0803,-0.88819 0.0794,-2.24882 -0.002,-3.02362 -0.0813,-0.77386 -0.14645,-0.0463 -0.14551,1.61669 m -44.98866,1.13386 c 0.002,1.24724 0.0728,1.71213 0.15685,1.03276 0.0841,-0.67937 0.0822,-1.69985 -0.004,-2.26772 -0.086,-0.56787 -0.15496,-0.0123 -0.15307,1.23496 m -116.09575,1.70079 c 0,0.31181 0.14646,0.90708 0.32504,1.32283 0.20504,0.47622 0.32504,0.54614 0.32504,0.18898 0,-0.31181 -0.14646,-0.90709 -0.32504,-1.32284 -0.20504,-0.47622 -0.32504,-0.54614 -0.32504,-0.18897 m 160.41544,1.72819 c -0.13985,0.5537 -0.18048,1.08 -0.0917,1.16882 0.0898,0.0888 0.27591,-0.29103 0.41481,-0.84567 0.13984,-0.5537 0.18047,-1.08 0.0917,-1.16882 -0.0898,-0.0888 -0.27591,0.29102 -0.4148,0.84567 m -238.218903,2.24031 c 0.0028,1.03937 0.07653,1.42016 0.163465,0.84567 0.08693,-0.57543 0.08504,-1.42583 -0.0047,-1.88976 -0.08976,-0.46489 -0.161575,0.005 -0.15874,1.04409 M 285.1389,206.92913 c 0,4.78111 0.0539,6.68504 0.12,4.23024 0.0661,-2.45386 0.0652,-6.36567 -9.5e-4,-8.69291 -0.0661,-2.3263 -0.12,-0.31843 -0.11905,4.46267 m -80.12315,-5.38582 -1.11024,1.22834 1.22835,-1.11023 c 0.67559,-0.6104 1.22834,-1.16315 1.22834,-1.22835 0,-0.29197 -0.31181,-0.035 -1.34645,1.11024 m -114.567876,1.98425 c 0.0019,1.24724 0.07276,1.71213 0.15685,1.03275 0.08409,-0.67937 0.08221,-1.69984 -0.0038,-2.26771 -0.08598,-0.56788 -0.154961,-0.0123 -0.153071,1.23496 m -37.71685,0.4526 c 0.566929,1.3559 0.938267,1.96819 0.938267,1.54677 0,-0.40819 -1.148031,-2.94425 -1.333228,-2.94425 -0.103937,0 0.0737,0.62929 0.394961,1.39748 m 171.938267,1.34267 -1.11023,1.22835 1.22834,-1.11024 c 0.67559,-0.61039 1.22835,-1.16314 1.22835,-1.22834 0,-0.29197 -0.31181,-0.035 -1.34646,1.11023 m -42.11811,1.16599 c 0,0.0973 0.54898,0.3685 1.21984,0.60283 0.67087,0.23339 1.05355,0.26929 0.8504,0.0794 -0.43087,-0.40346 -2.07024,-0.94299 -2.07024,-0.6822 m 11.74677,1.04315 c -0.017,0.33165 0.35244,0.92693 0.82016,1.32283 0.84283,0.71433 0.84472,0.71339 0.23811,-0.0359 -0.33638,-0.41575 -0.70583,-1.01103 -0.82016,-1.32284 -0.17669,-0.48094 -0.21354,-0.47622 -0.23811,0.0359 m -104.237479,2.79874 c 0.0028,1.03937 0.07654,1.42016 0.163465,0.84567 0.08693,-0.57544 0.08504,-1.42583 -0.0047,-1.88977 -0.08976,-0.46488 -0.161575,0.005 -0.158741,1.0441 m 59.797795,0.18898 c 1.0233,1.03937 1.94645,1.88976 2.05039,1.88976 0.10394,0 -0.64913,-0.85039 -1.67244,-1.88976 -1.02331,-1.03938 -1.94646,-1.88977 -2.05039,-1.88977 -0.10394,0 0.64913,0.85039 1.67244,1.88977 m 18.33071,3.01795 c 0.31181,0.20504 0.97795,0.37512 1.48063,0.37795 1.21322,0.008 0.90519,-0.20693 -0.72473,-0.50646 -0.93071,-0.17102 -1.15464,-0.13228 -0.7559,0.12851 m 41.38582,0.006 c -1.04598,0.26645 -1.0611,0.29197 -0.18897,0.32787 0.51968,0.0208 1.2,-0.12661 1.51181,-0.32787 0.64346,-0.41575 0.31086,-0.41575 -1.32284,0 m -119.126923,4.72441 c 0.0019,1.24724 0.07276,1.71212 0.15685,1.03275 0.08409,-0.67937 0.08221,-1.69984 -0.0038,-2.26771 -0.08598,-0.56788 -0.154961,-0.0123 -0.153071,1.23496 m 74.150554,1.39653 c 0.41574,0.23528 0.88063,0.61323 1.0337,0.83906 0.19086,0.28252 0.27968,0.2674 0.28346,-0.0491 0.003,-0.25228 -0.32315,-0.63496 -0.72567,-0.85039 -0.99401,-0.53197 -1.53921,-0.47717 -0.59149,0.0605 m 49.37102,-0.11149 c -0.28536,0.18047 -0.45543,0.48283 -0.37795,0.67086 0.0775,0.18898 0.43842,0.0387 0.8022,-0.33354 0.69354,-0.71055 0.45921,-0.89764 -0.42425,-0.33732 m -37.01197,0.78897 c -0.68598,0.16252 -1.35402,0.40158 -1.48441,0.53197 -0.36378,0.36378 2.30457,-0.20409 2.71276,-0.57732 0.19748,-0.18047 0.28252,-0.31087 0.18897,-0.28914 -0.0935,0.0208 -0.73134,0.17197 -1.41732,0.33449 m 107.76756,4.91811 c 0,1.55906 0.0671,2.19685 0.14835,1.41733 0.0822,-0.77953 0.0822,-2.05512 0,-2.83465 -0.0813,-0.77953 -0.14835,-0.14173 -0.14835,1.41732 M 90.81636,226.5831 c 0.0028,1.03937 0.07653,1.42015 0.163465,0.84567 0.08693,-0.57544 0.08504,-1.42583 -0.0047,-1.88977 -0.08976,-0.46488 -0.161575,0.005 -0.15874,1.0441 m 103.559055,3.02362 c 0.003,1.03937 0.0765,1.42016 0.16347,0.84567 0.0869,-0.57543 0.085,-1.42583 -0.005,-1.88977 -0.0898,-0.46488 -0.16157,0.005 -0.15874,1.0441 m 89.94048,0.37795 c 0.004,0.8315 0.0813,1.12725 0.17196,0.65669 0.0907,-0.4696 0.0869,-1.14992 -0.008,-1.51181 -0.0945,-0.36094 -0.16913,0.0236 -0.1644,0.85512 m -122.32536,2.49449 c -0.1389,0.86646 -0.17764,1.64882 -0.0879,1.73858 0.0898,0.0907 0.28252,-0.53858 0.42803,-1.39842 0.14551,-0.85984 0.1852,-1.64221 0.0879,-1.73859 -0.0973,-0.0973 -0.28913,0.53197 -0.42803,1.39843 M 91.56,234.51969 c 0.0038,0.83149 0.08126,1.12724 0.171969,0.65669 0.09071,-0.46961 0.08693,-1.14992 -0.0076,-1.51181 -0.09449,-0.36095 -0.169133,0.0236 -0.164409,0.85512 m -26.147717,0 c 0,0.20787 0.24378,0.80314 0.540473,1.32283 0.296693,0.51968 0.540472,0.7748 0.540472,0.56693 0,-0.20788 -0.243779,-0.80315 -0.540472,-1.32284 -0.296693,-0.51968 -0.540473,-0.7748 -0.540473,-0.56692 m 246.460157,0.77196 c -0.63307,1.38992 -0.51213,1.68662 0.17197,0.42331 0.32031,-0.59055 0.51118,-1.14425 0.42425,-1.23024 -0.086,-0.0869 -0.35433,0.27685 -0.59622,0.80693 m -27.9222,1.1178 c 0.003,1.03937 0.0765,1.42016 0.16346,0.84567 0.0869,-0.57543 0.085,-1.42583 -0.005,-1.88977 -0.0898,-0.46488 -0.16158,0.005 -0.15874,1.0441 m -122.42835,3.9685 c 0,1.97481 0.0642,2.78268 0.14173,1.79528 0.0775,-0.9874 0.0775,-2.60315 0,-3.59055 -0.0775,-0.9874 -0.14173,-0.17953 -0.14173,1.79527 m 57.03024,-2.07874 c 0.004,0.8315 0.0813,1.12725 0.17196,0.6567 0.0907,-0.46961 0.0869,-1.14993 -0.008,-1.51182 -0.0945,-0.36094 -0.16914,0.0236 -0.16441,0.85512 m 0.41858,5.48032 c 0,1.9748 0.0643,2.78267 0.14173,1.79527 0.0775,-0.9874 0.0775,-2.60315 0,-3.59055 -0.0775,-0.9874 -0.14173,-0.17953 -0.14173,1.79528 m 64.21134,0.94488 c 0.004,0.8315 0.0813,1.12724 0.17197,0.65669 0.0907,-0.4696 0.0869,-1.14992 -0.008,-1.51181 -0.0945,-0.36094 -0.16914,0.0236 -0.16441,0.85512 m -0.76347,6.61417 c 0,0.72756 0.0775,1.0252 0.17292,0.66142 0.0945,-0.36378 0.0945,-0.95906 0,-1.32283 -0.0954,-0.36378 -0.17292,-0.0661 -0.17292,0.66141 m -1.54866,10.96063 c -0.0331,0.51969 -0.14929,1.37008 -0.25606,1.88977 l -0.19465,0.94488 0.4063,-0.93071 c 0.22299,-0.51118 0.33827,-1.36158 0.25606,-1.88976 l -0.14929,-0.95906 -0.0624,0.94488 m -184.108345,3.62173 c 0.0028,0.39875 0.178582,0.97985 0.389291,1.29166 0.28063,0.41386 0.315591,0.26079 0.130394,-0.56693 -0.310866,-1.38992 -0.527244,-1.69134 -0.519685,-0.72473 m 76.151815,1.82552 c 0.62362,0.53574 1.28976,0.97511 1.48063,0.97606 0.41007,0.002 0.40535,-0.002 -1.29166,-1.09701 l -1.32283,-0.85323 1.13386,0.97418 m 14.64567,5.40661 c 0.57165,0.086 1.50708,0.086 2.07874,0 0.57165,-0.0869 0.10393,-0.15779 -1.03937,-0.15779 -1.14331,0 -1.61103,0.0709 -1.03937,0.15779 m 4.7159,0.002 c 0.67087,0.0831 1.86142,0.085 2.64567,0.003 0.78425,-0.0822 0.23528,-0.15024 -1.21984,-0.15213 -1.45512,-0.002 -2.0967,0.0652 -1.42583,0.14929 m 101.58331,5.64284 c -0.31748,0.75968 -0.48945,1.46834 -0.38268,1.57511 0.10677,0.10678 0.1937,0.10111 0.1937,-0.0113 0,-0.11338 0.25701,-0.82204 0.57165,-1.57511 0.31465,-0.75307 0.48756,-1.36914 0.38363,-1.36914 -0.10394,0 -0.44882,0.62174 -0.7663,1.38048 m -204.850396,9.53102 c 0.623622,0.68882 1.644095,1.60441 2.267717,2.03433 1.339842,0.92504 1.03748,0.59811 -1.511811,-1.63181 -1.396536,-1.22173 -1.594016,-1.32662 -0.755906,-0.40252 m 52.397476,23.28094 c 0.31748,0.31748 2.9726,1.35024 2.9726,1.15654 0,-0.10394 -0.61606,-0.44693 -1.36913,-0.76158 -1.39465,-0.58204 -1.92095,-0.71244 -1.60347,-0.39496 m 46.3493,18.23906 c 0.67937,0.0841 1.69984,0.0822 2.26771,-0.004 0.56788,-0.086 0.0123,-0.15496 -1.23496,-0.15307 -1.24724,0.002 -1.71212,0.0727 -1.03275,0.15685"
       stroke="none"
       fill="#8124a3"
       fill-rule="evenodd"
       style="fill:#4800d0;fill-opacity:1;stroke-width:0.944882" />
    <path
       id="path3"
       d="m 104.24693,57.732283 c -8.616379,9.275906 -10.281261,51.087877 -2.88567,72.472437 1.06488,3.07843 1.7452,4.34646 2.33291,4.34646 0.27118,0 0.72945,-0.46772 1.01764,-1.03937 2.08913,-4.13764 3.73134,-5.74394 5.88189,-5.75527 3.74173,-0.0208 4.59874,3.21826 1.97575,7.46267 -7.0989,11.48788 -10.37953,17.62583 -13.080001,24.4715 -3.28441,8.3263 -5.156221,14.62205 -4.644095,15.61512 0.178583,0.34677 0.534803,1.39653 0.790866,2.33197 1.808504,6.60094 4.56472,11.3811 9.18614,15.9307 8.14016,8.01166 25.70457,12.82583 34.45323,9.44221 5.83843,-2.25827 10.9011,-6.76063 16.4211,-14.60126 13.70079,-19.46457 19.92,-23.89512 33.27969,-23.71181 11.84976,0.16252 18.41764,4.74897 29.85827,20.85354 9.04535,12.73228 13.75086,16.61953 22.02992,18.19843 11.09763,2.11653 27.05008,-4.45701 34.54771,-14.23748 4.33418,-5.65323 7.63087,-16.72536 6.58205,-22.10268 -2.83937,-14.55118 -6.4422,-24.2315 -12.18709,-32.74488 -4.45322,-6.59906 2.04851,-10.94929 6.67465,-4.46551 0.93071,1.30299 1.69134,2.52472 1.69134,2.71559 0,0.18992 1.0696,2.46519 2.37638,5.05417 1.30677,2.58992 2.65322,5.43118 2.99244,6.31464 0.82677,2.15056 1.18393,2.03245 2.29606,-0.7559 2.13827,-5.36126 4.0252,-14.18551 4.62709,-21.6378 0.13417,-1.66299 0.31842,-3.44882 0.40819,-3.9685 0.3411,-1.95685 0.18141,-20.745827 -0.20504,-24.188977 -1.53071,-13.629921 -4.47024,-23.28 -7.60347,-24.957165 -5.27055,-2.820472 -20.30645,9.959055 -37.36819,31.760312 -4.1159,5.25922 -4.08661,4.8274 -0.49984,7.23118 1.61102,1.08 3.41008,2.36032 3.9978,2.84599 1.44378,1.19433 1.46078,1.18583 2.67212,-1.28977 11.17323,-22.819838 28.08567,-28.708342 33.53197,-11.674011 1.99181,6.228661 0.60378,9.689761 -3.88441,9.689761 -0.87307,0 -2.96315,-2.65134 -2.96315,-3.75968 0,-1.44662 -1.32567,-5.477483 -2.19496,-6.673703 -2.70709,-3.728504 -11.29984,4.218893 -17.23465,15.941103 -1.99275,3.93638 -1.98519,3.89197 -0.98078,5.53795 1.78866,2.93481 0.017,5.96221 -3.4904,5.96221 -1.27653,0 -1.80661,-0.34961 -4.85763,-3.2041 -29.50394,-27.600943 -91.26331,-29.953699 -121.04032,-4.61008 -4.80472,4.08851 -9.24661,3.09733 -8.43779,-1.88409 0.30708,-1.89449 5.20157,-6.55465 9.40346,-8.95276 0.78425,-0.44693 1.42677,-1.02141 1.42866,-1.27464 0.006,-0.95622 -2.32535,-5.026774 -2.73449,-4.773546 -0.26834,0.166299 -0.32787,0.02835 -0.16724,-0.389291 0.43937,-1.145197 -5.02677,-8.652284 -8.42646,-11.572914 -3.70488,-3.181417 -4.92661,-3.669921 -5.67496,-2.271496 -1.0611,1.982363 -4.23874,2.452914 -5.76756,0.854174 -2.02866,-2.12126 -1.96252,-4.469292 0.19937,-7.091339 6.13796,-7.447559 19.09134,0.713386 28.0526,17.674016 1.18016,2.234645 2.23276,4.062996 2.33953,4.062996 0.10677,0 0.72945,-0.24756 1.3852,-0.54993 0.6548,-0.3033 2.04094,-0.882515 3.08031,-1.287869 2.39244,-0.932599 2.38299,-0.994961 -0.91748,-5.896063 -16.17827,-24.023622 -33.7559,-40.305827 -38.26866,-35.447245 m 50.68441,59.835587 c 10.61386,3.7304 10.46268,15.64063 -0.24378,19.21607 -8.57575,2.86393 -17.99906,-2.16378 -17.99622,-9.60284 0.002,-7.72535 9.44787,-12.70393 18.24,-9.61323 M 230.52,116.83654 c 15.30992,2.62771 13.27559,20.73826 -2.32913,20.73826 -15.39213,0 -18.21922,-17.36315 -3.35811,-20.6211 2.79401,-0.61323 2.79874,-0.61323 5.68724,-0.11716 m -90.32409,27.77385 c 22.51181,5.54174 24.37984,37.47213 2.67023,45.63118 -18.87685,7.09512 -37.47023,-10.82173 -31.13197,-29.99905 3.87874,-11.73638 16.38426,-18.60472 28.46174,-15.63213 m 112.1707,0.49134 c 18.88158,6.41386 22.14426,31.84063 5.48882,42.77103 -13.26992,8.70803 -30.86645,2.44346 -35.85165,-12.76536 -5.99717,-18.29764 12.12094,-36.2022 30.36283,-30.00567 m -121.34078,5.00126 c -1.00347,0.19276 -2.48788,0.76819 -3.29953,1.28032 -0.81165,0.51212 -1.57039,0.93165 -1.68756,0.93165 -2.44535,0 -7.72724,7.04598 -8.83654,11.78929 -0.84094,3.59717 -0.25511,7.10079 0.88063,5.26205 0.80788,-1.30583 8.45292,-3.27307 14.38961,-3.70205 6.13228,-0.44315 14.38016,1.36347 17.83276,3.90614 2.12976,1.56851 2.41984,0.95906 1.90866,-4.01102 -1.02898,-10.01764 -11.12599,-17.38299 -21.18803,-15.45638 m 110.6485,-0.0784 c -0.63779,0.15212 -1.65827,0.54047 -2.26772,0.86267 -0.6085,0.32221 -1.93322,0.98079 -2.94236,1.46363 -5.26582,2.52378 -9.31464,9.29291 -9.31464,15.57637 v 2.22615 l 1.22834,-0.8041 c 7.10457,-4.64976 21.70866,-4.96346 30.51969,-0.6548 1.76693,0.86362 3.31937,1.62142 3.45071,1.68283 0.52252,0.24567 0.70771,-2.65228 0.32315,-5.05606 -1.59024,-9.95811 -11.90457,-17.47276 -20.99717,-15.29669 m -57.80031,68.10897 c -2.22426,1.24914 -5.73733,2.46803 -8.12599,2.82142 -3.52157,0.51969 -5.93858,6.20787 -6.84094,16.10457 -1.63087,17.86582 7.08661,29.01921 22.68189,29.01921 10.48724,0 16.61385,-4.50331 19.38141,-14.24504 2.89512,-10.19527 -1.59118,-30.08598 -6.97322,-30.91181 -2.12882,-0.32693 -6.11623,-1.58551 -7.8926,-2.49165 -2.17796,-1.11118 -2.28851,-1.02331 -2.04756,1.63275 0.22866,2.5115 0.94582,21.42614 1.01008,26.62488 0.0576,4.69701 -2.01733,6.78048 -5.37071,5.3915 -2.3726,-0.98268 -2.33669,-0.72945 -3.02646,-21.33921 -0.50079,-14.96032 -0.29102,-14.0126 -2.7959,-12.60662"
       stroke="none"
       fill="#f89e05"
       fill-rule="evenodd"
       style="stroke-width:0.944882" />
    <path
       id="path4"
       d="m 146.26772,117.11622 c -10.65638,2.34898 -12.8863,14.32158 -3.49701,18.77669 12.93354,6.13701 26.55968,-6.85228 16.47685,-15.70582 -2.98961,-2.62489 -8.78457,-3.99591 -12.97984,-3.07087 m 78.23622,-0.006 c -10.77922,2.31307 -12.77859,14.31874 -3.13607,18.82772 12.35906,5.7789 25.75276,-6.28536 16.85575,-15.18236 -3.03023,-3.03024 -9.08693,-4.63937 -13.71968,-3.64536 m -43.35307,48.44504 c -7.72536,1.99654 -13.61481,6.7663 -21.0926,17.08347 -8.92819,12.31653 -11.95276,15.74834 -16.08851,18.26173 -11.51149,6.99212 -31.95874,2.0022 -42.08126,-10.27087 -2.983933,-3.61795 -6.614169,-11.40756 -6.655744,-14.28283 -0.02457,-1.68378 -0.76063,0.50834 -1.662047,4.95307 -5.008819,24.69165 -2.938583,57.0463 5.980157,93.45921 l 0.875904,3.57921 5.62961,2.32819 c 3.09543,1.28032 10.56094,4.37008 16.58929,6.86551 6.02835,2.49544 15.38268,6.36284 20.7874,8.5937 5.40473,2.23182 10.50709,4.35685 11.33858,4.72347 0.8315,0.36661 5.76378,2.40661 10.96063,4.5326 5.19685,2.12598 10.12914,4.17071 10.96063,4.54393 2.50772,1.12441 12.04536,4.90867 12.37418,4.90867 0.16819,0 3.74551,-1.42583 7.95023,-3.16819 4.20378,-1.74331 15.12756,-6.26929 24.27402,-10.05827 9.14646,-3.78898 22.15748,-9.18236 28.91338,-11.98394 6.75591,-2.80252 15.6,-6.4696 19.65355,-8.14771 4.05354,-1.67906 7.48346,-3.223 7.62142,-3.43182 1.33133,-2.00881 4.8548,-27.90614 6.43464,-47.30456 1.20567,-14.79969 0.49795,-45.72945 -1.28504,-56.12599 l -0.42047,-2.45669 -0.63874,3.2126 c -1.75654,8.83181 -6.59906,16.61953 -13.22362,21.26268 -6.63307,4.64976 -13.64221,6.97606 -22.11024,7.337 -11.94425,0.51024 -16.30583,-2.60693 -29.48031,-21.06803 -10.92189,-15.30425 -22.21512,-20.8063 -35.60504,-17.34614 m 12.81448,4.55244 c 20.83371,4.23591 23.26772,30.05858 3.45544,36.65197 -2.83465,0.94299 -2.84977,0.99496 -0.83622,2.81386 6.67748,6.03307 16.79244,4.78677 26.0296,-3.20693 1.35118,-1.16976 2.87717,-2.41417 3.39118,-2.76662 3.11434,-2.13259 7.27937,1.57134 5.54268,4.92851 -1.42299,2.75244 -9.49984,8.6863 -14.35842,10.54961 -1.48536,0.56976 -2.76756,1.08283 -2.84693,1.14047 -0.0803,0.0576 0.24094,1.00252 0.71433,2.10047 6.15023,14.26677 5.89512,30.89669 -0.62079,40.46457 -10.43528,15.32315 -37.17827,14.7685 -47.65323,-0.98835 -6.43842,-9.68315 -7.61575,-26.21008 -2.76,-38.71653 0.96851,-2.4926 1.01481,-2.80347 0.44977,-3.00189 -9.59433,-3.36945 -18.27685,-10.62804 -17.07402,-14.27339 1.15748,-3.50646 4.74331,-3.77008 7.75087,-0.57071 8.03716,8.54929 20.50393,10.52787 27.35244,4.34079 1.98141,-1.78961 1.96535,-1.88599 -0.42331,-2.65984 -11.46142,-3.71339 -17.26205,-15.89197 -12.25701,-25.73292 4.18772,-8.23559 14.60504,-13.01291 24.14362,-11.07307 m -51.11716,3.9874 c -0.19843,0.51969 -0.36,1.11024 -0.36,1.3115 0,0.79087 -2.03339,4.37764 -3.1578,5.57008 -4.44189,4.71118 -10.58267,2.10708 -12.98173,-5.50488 -0.70488,-2.2337 -0.97512,-2.33292 -3.24567,-1.19339 -3.76441,1.88976 -4.05071,2.95748 -1.51937,5.66457 7.42205,7.93417 20.77607,7.12441 27.01512,-1.63843 l 0.83528,-1.1726 -1.55433,-1.37952 c -2.45292,-2.17701 -4.56945,-2.87433 -5.0315,-1.65733 m 90.53764,0.20126 c -3.68977,1.91055 -3.95622,2.95654 -1.44,5.64662 6.49134,6.93921 17.23086,7.42866 24.39307,1.11023 3.92882,-3.46582 3.96189,-4.15748 0.31181,-6.497 -2.2904,-1.46741 -3.28819,-1.42489 -3.62173,0.15212 -2.28378,10.82457 -12.97701,11.36599 -16.29922,0.82394 -0.7285,-2.31024 -1.04409,-2.4274 -3.34393,-1.23591"
       stroke="none"
       fill="#fbfafa"
       fill-rule="evenodd"
       style="stroke-width:0.944882" />
    <path
       style="fill:#d40000;fill-opacity:1;stroke-width:0.604724"
       d="m 185.00294,264.98818 c -11.66444,-3.30829 -16.99941,-13.40508 -15.51286,-29.35917 0.81933,-8.79326 3.69822,-14.57791 7.27435,-14.61659 0.7298,-0.008 2.94548,-0.67972 4.92373,-1.49294 1.97826,-0.81322 3.73117,-1.34424 3.89537,-1.18004 0.16421,0.1642 0.5174,6.07445 0.78489,13.13389 0.76741,20.25344 0.94695,20.99911 5.05611,20.99911 1.54464,0 2.31407,-0.38868 3.07827,-1.55499 0.93096,-1.42082 0.96501,-2.89489 0.39467,-17.08347 -0.34331,-8.54065 -0.57725,-15.58801 -0.51986,-15.66078 0.0573,-0.0728 1.7229,0.53306 3.70116,1.34628 1.97825,0.81322 4.18092,1.48504 4.8948,1.49294 3.33943,0.0369 6.65024,6.95149 8.11059,16.93879 1.79408,12.26983 -2.09972,22.21716 -10.19206,26.03722 -3.51801,1.66071 -11.73566,2.17776 -15.88916,0.99975 z"
       id="path2191" />
    <path
       style="fill:#d40000;fill-opacity:1;stroke-width:0.604724"
       d="m 182.84238,263.95046 c -9.72054,-3.85699 -14.62129,-14.64117 -12.93944,-28.47351 0.71792,-5.90446 2.47645,-11.35391 4.11918,-12.76478 0.8844,-0.75957 11.10023,-4.28114 11.38005,-3.92289 0.052,0.0665 0.39692,6.54943 0.76656,14.40646 0.37304,7.92909 1.01266,15.32867 1.4375,16.62993 0.69345,2.12396 0.98424,2.36239 3.09246,2.53563 1.60122,0.13158 2.71196,-0.15135 3.56116,-0.90708 1.20281,-1.07045 1.22424,-1.50265 0.84491,-17.03812 -0.36741,-15.04706 -0.32978,-15.91496 0.67191,-15.4961 0.58362,0.24403 2.68418,0.96456 4.6679,1.60117 1.98372,0.63661 4.132,1.62309 4.77393,2.19217 3.32542,2.94803 6.11185,14.01879 5.71947,22.72406 -0.38766,8.60063 -3.85099,14.94497 -9.8671,18.07518 -3.64407,1.89603 -13.93083,2.14314 -18.22849,0.43788 z"
       id="path2304" />
    <path
       style="fill:#ff5555;fill-opacity:1;stroke-width:0.604724"
       d="m 182.84238,263.95046 c -9.75605,-3.87108 -14.77165,-15.01693 -12.94258,-28.76154 0.77013,-5.78722 2.52793,-11.1074 4.12232,-12.47675 0.88549,-0.7605 11.09641,-4.27958 11.38263,-3.92289 0.0534,0.0665 0.41618,6.60388 0.80619,14.52744 0.39002,7.92357 1.03574,15.40703 1.43492,16.62992 0.65,1.99125 0.9688,2.2434 3.05283,2.41466 1.60135,0.13159 2.71174,-0.15128 3.56062,-0.90708 1.20262,-1.07075 1.22356,-1.49846 0.83422,-17.04222 -0.37853,-15.11259 -0.34346,-15.92056 0.67246,-15.4961 0.58949,0.24629 2.70003,0.97028 4.69007,1.60885 1.99005,0.63857 4.2131,1.71985 4.94011,2.40284 3.3171,3.11626 5.93639,13.75535 5.5418,22.50981 -0.38766,8.60063 -3.85099,14.94497 -9.8671,18.07518 -3.64407,1.89603 -13.93083,2.14314 -18.22849,0.43788 z"
       id="path2419" />
    <path
       style="fill:#ff5555;fill-opacity:1;stroke-width:0.0773558"
       d="m 189.69317,265.9862 c -8.39384,-0.55331 -14.66382,-4.46681 -18.0812,-11.2856 -2.45331,-4.89518 -3.33422,-11.12583 -2.59298,-18.33995 0.74029,-7.20487 2.24564,-11.97316 4.4618,-14.133 0.79221,-0.77208 1.36605,-1.04233 2.85175,-1.34303 2.81001,-0.56873 5.81923,-1.69102 8.09568,-3.01929 0.93954,-0.54821 1.187,-0.55023 1.40257,-0.0114 0.37589,0.93944 0.44189,2.02786 0.82902,13.67202 0.25468,7.66024 0.42797,12.03515 0.54231,13.69197 0.09,1.30417 0.086,1.96007 -0.007,1.16035 -0.22544,-1.93667 -0.44166,-5.96042 -0.76904,-14.31083 -0.34148,-8.71028 -0.64135,-13.55335 -0.85226,-13.76439 -0.15843,-0.15853 -1.91605,0.3811 -4.13354,1.26908 -1.99637,0.79942 -3.51694,1.23489 -5.12247,1.467 -1.67953,0.2428 -3.06002,1.56716 -4.3193,4.14364 -2.65145,5.42486 -3.56431,15.80667 -2.04289,23.23353 1.40668,6.86676 5.02015,11.94614 10.55426,14.83591 0.51055,0.2666 1.40297,0.67521 1.98315,0.90802 2.85858,1.14705 4.68438,1.469 8.34382,1.47133 4.51059,0.003 8.07608,-0.6207 10.49206,-1.83493 4.64376,-2.33386 7.93522,-6.83456 9.38984,-12.83954 0.56939,-2.35052 0.79529,-4.39893 0.7993,-7.2476 0.003,-2.32621 -0.0733,-3.39176 -0.4184,-5.82 -0.84323,-5.93389 -2.52004,-11.24172 -4.49075,-14.21516 -1.09323,-1.64947 -2.28649,-2.5445 -3.60382,-2.7031 -1.15079,-0.13855 -2.80043,-0.64485 -5.05149,-1.55036 -1.36714,-0.54995 -3.10392,-1.19313 -3.43211,-1.27103 l -0.22185,-0.0526 0.0516,1.57022 c 0.13312,4.05532 0.37586,10.75248 0.54699,15.09107 0.4795,12.15695 0.45041,14.38047 -0.20597,15.74358 -0.18253,0.37907 -0.75418,1.13044 -0.8143,1.07032 -0.0219,-0.0219 0.0501,-0.15762 0.15991,-0.30162 0.30829,-0.40418 0.66264,-1.24911 0.8318,-1.98338 0.22859,-0.99218 0.25823,-2.98366 0.11295,-7.58914 -0.30899,-9.79545 -0.71606,-19.62383 -0.89867,-21.69831 -0.10097,-1.14692 -0.093,-1.74069 0.0265,-1.97257 0.15842,-0.30741 0.51213,-0.24278 1.68634,0.30815 2.29744,1.07793 5.41794,2.09939 7.80049,2.55338 1.00819,0.19211 1.57708,0.49158 2.30127,1.21142 2.79951,2.78272 5.17446,10.44158 5.82335,18.77942 0.1072,1.37757 0.10739,4.97916 3e-4,6.23341 -0.30209,3.53881 -1.10822,6.42686 -2.63425,9.43741 -1.76579,3.48354 -4.15193,5.89729 -7.38256,7.46795 -2.66132,1.29388 -5.58179,1.9106 -9.47374,2.00055 -0.83093,0.0192 -1.97318,0.005 -2.53834,-0.0328 z"
       id="path3158" />
  </g>
</svg>
