<?xml version="1.0" encoding="UTF-8"?><svg id="CIRCLE_OUTLINE_BLACK" xmlns="http://www.w3.org/2000/svg" xmlns:xlink="http://www.w3.org/1999/xlink" viewBox="0 0 512 512"><defs><linearGradient id="Degradado_sin_nombre_6" x1="155.83563" y1="359.89495" x2="359.0564" y2="156.67418" gradientUnits="userSpaceOnUse"><stop offset="0" stop-color="#34a3ed"/><stop offset=".99884" stop-color="#8165f5"/></linearGradient></defs><circle cx="257.16604" cy="258.12437" r="256" stroke-width="0"/><path d="m440.15319,284.38245c.00784-.02506.00784-.05034.01525-.0754.0255-.08608.03247-.17542.05361-.26281.07823-.32491.13031-.64852.14731-.97234.00654-.12421.0024-.24646.00022-.37155-.00567-.31663-.03901-.62651-.09937-.9329-.01416-.07191-.00567-.14448-.02288-.21617l-12.95296-54.30307c-.46721-1.95951-1.99612-3.4919-3.95562-3.96434l-53.80273-12.95296c-.08913-.02136-.17956-.01264-.26913-.0292-.27152-.05143-.54501-.08106-.8246-.08978-.13794-.00392-.27305-.01068-.41034-.00414-.3175.0146-.63523.06363-.95404.13663-.08346.01939-.16845.02484-.25104.04816-.02898.00806-.05818.00806-.08717.01678-.38026.11441-.73394.27305-1.06714.45893-.056.03094-.10438.07387-.15908.10721-.30225.18349-.58075.39203-.83615.62651-.03901.03574-.08738.05688-.12552.09392l-65.08667,63.21041c-.59099.24842-1.15561.56419-1.63416,1.02094-.5023.47811-.85554,1.05733-1.13469,1.66815l-23.34366,22.67052-13.01725-44.70951c-.0414-.14208-.12378-.26215-.17629-.39879-.05775-.15254-.1229-.29332-.19504-.44085-.27784-.56593-.61605-1.09416-1.06409-1.52433-.00436-.00414-.00545-.00981-.00981-.01395-.00327-.00305-.00784-.00392-.01111-.00697-.45152-.42886-.99675-.74222-1.57663-.99348-.14971-.0645-.29244-.12203-.44608-.17237-.14077-.04663-.26629-.12399-.41208-.15908l-43.49223-10.4613,91.96559-91.56898-14.03557-61.3165-59.30295-13.34172L73.95919,232.09641l13.3208,59.21404,53.89774,13.97346,13.17175,52.057c.50557,2.00135,2.11815,3.53199,4.14216,3.93645l49.91968,9.98319,14.7231,52.46995c.0353.12574.10809.23186.15189.35346.05317.1484.11724.2846.18392.42864.25431.54959.57225,1.05777.98694,1.48597.0207.02136.02637.05034.04751.07148.00545.00545.01329.00697.01874.01242.44346.43954.97866.76925,1.5544,1.03249.15167.06952.29789.12705.45414.18152.14927.0523.28264.13576.43779.1752l52.80729,13.45155c.43496.11092.87515.1654,1.3136.16627.00218,0,.00392.00109.0061.00109.00022,0,.00065-.00022.00087-.00022s.00065.00022.00087.00022c.45632,0,.90326-.07889,1.34128-.19286.05404-.01395.10765-.00763.16148-.02332.08521-.02484.15843-.06908.24145-.09784.18022-.06232.3552-.13228.52823-.21378.15625-.07344.30595-.15232.45218-.23905.14862-.08826.29114-.18305.43169-.28591.14731-.10809.28721-.22119.42145-.34256.0632-.05688.13576-.09959.19656-.15973l153.93976-152.94257c.04119-.04097.06537-.09349.10504-.13554.23426-.24734.44302-.51755.62869-.81065.0414-.06537.09261-.12378.13097-.19068.19198-.33472.35673-.68992.47593-1.07367Zm-69.94577,55.27214l-10.34297-41.36972,25.35982-25.35961,39.72576,12.34149-54.74261,54.38784Zm-86.49523,85.93519l-11.57464-39.5791,46.29921-46.29856,38.90966,12.72023-73.63423,73.15743Zm-63.22305-50.9356l36.61064,11.2482-26.12493,26.12449-10.48571-37.37269Zm78.29765-84.15786l11.14164,42.57785-44.25842,44.2582-42.767-13.13972,75.88378-73.69634Zm66.90606-64.97771l11.98105,39.81096-24.95254,24.95232-40.58021-12.75509,53.55169-52.00819Zm-5.95261,116.4252l-32.8093-10.72585,24.10114-24.10092,8.70816,34.82677Zm-41.03544-17.6458l-9.54736-36.4812,35.02268,11.00609-25.47532,25.4751Zm-55.20219,70.34761l9.82063,33.584-34.59295-8.81189,24.77232-24.7721Zm164.14458-119.75758l-39.61397-12.3064-11.93311-39.65232,41.53795,10.00041,10.00913,41.95831Zm-211.97792,81.3986l-9.7108-39.86784,14.80765-15.52089,40.13043,11.46525-45.22728,43.92348Zm5.88353-71.73051l-10.74547-32.6694,34.09,8.19911-23.34453,24.47029Zm7.56432,7.58873l23.53325-24.66663,9.96881,34.23644-33.50206-9.56981Zm-15.94801,1.19919l-14.81724,15.53179-42.30262-10.83285,44.19218-44.00172,12.92768,39.30278Zm-49.60261-135.35387l11.31466,37.54114-46.52475,46.92507-38.33153-11.24341,73.54162-73.2228Zm77.0248-28.73426l-24.41036,24.62022-39.54663-8.89732,53.85198-53.61859,10.10501,37.89569Zm-5.31891,74.78832l-10.38721-43.73259,23.14492-23.34388,41.04306,13.50843-53.80077,53.56804Zm-51.81359-17.16442l-9.50029-31.5249,33.32293,7.49742-23.82264,24.02748Zm32.5441-17.60984l8.52795,35.90415-33.38133-10.83721,24.85339-25.06694Zm-88.78968,89.55173l10.47787,34.49162-35.53914-9.21526,25.06128-25.27636Zm8.5687-8.64214l46.92136-47.32407,40.54229,13.16369-75.11824,74.79333-12.34541-40.63294Zm155.91408-110.11586l-40.71009-13.39882-10.25908-38.47143,41.21892,9.27409,9.75024,42.59615Zm-204.64198,101.44104l32.72802,9.59988-24.91375,25.12818-7.81427-34.72806Zm76.85068,109.93325l-10.90978-43.11959,42.62448,10.91326,9.86901,40.52202-41.58371-8.3157Z" fill="url(#Degradado_sin_nombre_6)" stroke-width="0"/></svg>