<?xml version="1.0" encoding="utf-8"?>
<!-- Generator: Adobe Illustrator 22.0.0, SVG Export Plug-In . SVG Version: 6.00 Build 0)  -->
<svg version="1.1" id="ETHOS" xmlns="http://www.w3.org/2000/svg" xmlns:xlink="http://www.w3.org/1999/xlink" x="0px" y="0px"
	 viewBox="0 0 490 490" style="enable-background:new 0 0 490 490;" xml:space="preserve">
<style type="text/css">
	.st0{fill:#00FFCC;}
	.st1{fill:#FFFFFF;}
	.st2{opacity:0.9;fill:#FFFFFF;enable-background:new    ;}
</style>
<path id="Full" class="st0" d="M0,245c0,135.1,109.9,245,245,245s245-109.9,245-245S380.1,0,245,0S0,109.9,0,245z"/>
<path id="E1" class="st1" d="M392.6,268.8c-14.7-35-49-57.7-87-57.7c-18.8,0-34,15.2-34,33.9c0,18.8,15.2,34,34,34
	c3.5,0,7.1,0.7,10.3,2.1c13.5,5.7,19.8,21.2,14.2,34.7c-1.3,3.1-3.1,5.8-5.4,8.2l0,0c-10.2,10.5-27,10.8-37.5,0.6
	c-1.3-1.3-2.5-2.7-3.6-4.3c-3-4.4-4.5-9.5-4.5-14.8c0-18.7-15.2-33.9-33.9-33.9s-33.9,15.2-33.9,33.9c0,52.1,42.2,94.4,94.3,94.5
	c25.6,0,50-10.3,67.8-28.7h0C399.7,344.1,407.3,303.7,392.6,268.8z M97.4,221.3c14.8,35,49.1,57.7,87.1,57.7c18.8,0,34-15.2,34-34
	c0-18.8-15.2-34-34-34c-3.5,0-7.1-0.7-10.3-2.1c-13.5-5.7-19.9-21.2-14.2-34.7c1.3-3.1,3.1-5.9,5.5-8.2l0,0
	c10.2-10.5,27-10.8,37.5-0.6c1.3,1.3,2.5,2.7,3.6,4.3c3,4.4,4.5,9.5,4.5,14.8c-0.1,18.8,15,34.1,33.8,34.2
	c18.8,0.1,34.1-15,34.2-33.8c0-0.1,0-0.2,0-0.4c0-52.2-42.2-94.5-94.4-94.5c-25.6,0-50,10.3-67.8,28.7h0
	C90.3,145.9,82.7,186.3,97.4,221.3z"/>
<path id="E2" class="st2" d="M244.9,271.6c-18.7,0-33.9,15.2-33.9,33.9c0,0,0,0,0,0c0,3.5-0.7,7-2.1,10.3c-2,4.7-5.4,8.8-9.6,11.7
	c-2.1,1.4-4.5,2.6-6.9,3.3c-9.6,3-20,0.3-27-6.9l0,0c-10.2-10.5-9.9-27.3,0.7-37.5c4.9-4.8,11.6-7.4,18.4-7.4
	c18.8,0,33.9-15.2,33.9-33.9s-15.2-34-33.9-34l0,0c-52.2,0-94.5,42.2-94.5,94.4s42.2,94.5,94.4,94.5s94.5-42.2,94.5-94.4
	c0,0,0-0.1,0-0.1C278.9,286.8,263.7,271.6,244.9,271.6C244.9,271.6,244.9,271.6,244.9,271.6 M389.6,141.4c-6.6-12.8-16-24-27.6-32.6
	c0,0,0,0-0.1-0.1c-41.8-31.1-101-22.4-132.1,19.4c-12.1,16.3-18.7,36.1-18.7,56.4c-0.1,18.7,15,34,33.8,34.1
	c18.7,0.1,34-15,34.1-33.8c0-0.1,0-0.2,0-0.4c0-3.5,0.7-7.1,2.1-10.3c2-4.7,5.4-8.8,9.6-11.7c2.1-1.4,4.4-2.6,6.9-3.3
	c8.1-2.5,16.9-1,23.7,4l0,0c11.8,8.7,14.3,25.3,5.5,37.1c-1.8,2.4-4,4.5-6.5,6.2c-2.1,1.4-4.5,2.6-6.9,3.3c-2.6,0.8-5.2,1.2-7.9,1.2
	c-18.8,0-34,15.2-34,33.9c0,18.8,15.2,34,34,34c52.2,0,94.4-42.3,94.4-94.5C400,169.4,396.4,154.7,389.6,141.4z"/>
</svg>
