<svg id="ETHOS" xmlns="http://www.w3.org/2000/svg" width="512" height="512" viewBox="0 0 512 512">
<defs>
    <style>
      .cls-1 {
        fill: #0fc;
      }

      .cls-1, .cls-2, .cls-3 {
        fill-rule: evenodd;
      }

      .cls-2, .cls-3 {
        fill: #fff;
      }

      .cls-3 {
        opacity: 0.9;
      }
    </style>
  </defs>
  <path id="Full" class="cls-1" d="M11,256c0,135.094,109.906,245,245,245S501,391.094,501,256,391.094,11,256,11,11,120.906,11,256Z"/>
  <path id="E1" class="cls-2" d="M403.56,279.774a94.322,94.322,0,0,0-86.968-57.662,33.949,33.949,0,0,0,0,67.9,26.268,26.268,0,0,1,10.314,2.071,26.518,26.518,0,0,1,8.715,42.941h0a26.494,26.494,0,0,1-41.039-3.67,26.294,26.294,0,0,1-4.509-14.809,33.936,33.936,0,1,0-67.872,0,94.369,94.369,0,0,0,162.1,65.8h0.008A94.527,94.527,0,0,0,403.56,279.774ZM108.447,232.313a94.418,94.418,0,0,0,87.055,57.7,33.971,33.971,0,0,0,0-67.942A26.314,26.314,0,0,1,185.178,220a26.531,26.531,0,0,1-8.724-42.97h0a26.526,26.526,0,0,1,41.08,3.672,26.315,26.315,0,0,1,4.513,14.82,33.97,33.97,0,1,0,67.939,0,94.469,94.469,0,0,0-162.262-65.845h-0.007A94.567,94.567,0,0,0,108.447,232.313Z"/>
  <path id="E2" class="cls-3" d="M255.942,282.59a33.94,33.94,0,0,0-33.936,33.952,26.355,26.355,0,0,1-2.07,10.313,26.745,26.745,0,0,1-9.646,11.7,26.117,26.117,0,0,1-6.907,3.325,26.456,26.456,0,0,1-26.962-6.908l-0.019-.02a26.523,26.523,0,0,1,19.089-44.944,33.949,33.949,0,0,0,0-67.9,94.459,94.459,0,1,0,94.388,94.428,33.943,33.943,0,0,0-33.937-33.95M400.6,152.364a94.679,94.679,0,0,0-27.618-32.623c-0.024-.018-0.044-0.038-0.069-0.055A94.383,94.383,0,0,0,222.2,195.479a33.936,33.936,0,1,0,67.871,0,26.345,26.345,0,0,1,2.075-10.318,26.745,26.745,0,0,1,9.646-11.7,26.135,26.135,0,0,1,6.9-3.324,26.458,26.458,0,0,1,23.692,4.029h0a26.519,26.519,0,0,1-.992,43.33,26.16,26.16,0,0,1-6.906,3.326,26.5,26.5,0,0,1-7.9,1.188,33.95,33.95,0,0,0,0,67.9A94.459,94.459,0,0,0,400.6,152.364Z"/>
</svg>
