<?xml version="1.0" encoding="utf-8"?>
<!-- Generator: Adobe Illustrator 22.0.0, SVG Export Plug-In . SVG Version: 6.00 Build 0)  -->
<svg version="1.1" id="Stasis" xmlns="http://www.w3.org/2000/svg" xmlns:xlink="http://www.w3.org/1999/xlink" x="0px" y="0px"
	 viewBox="0 0 245 245" style="enable-background:new 0 0 245 245;" xml:space="preserve">
<style type="text/css">
	.st0{fill:#2468E4;}
	.st1{fill:#FFFFFF;}
</style>
<path id="Full" class="st0" d="M0,122.5C0,190,55,245,122.5,245S245,190,245,122.5S190,0,122.5,0S0,55,0,122.5z"/>
<path id="S" class="st1" d="M176.4,137.2H98c-17.3,0-29.4-13.2-29.4-29.4h83.3C164.3,107.8,176.4,121,176.4,137.2 M151.9,53.9H98
	c-17.3,0-29.4,12.2-29.4,29.4V98H98V83.3h78.4C176.4,66.1,164.3,53.9,151.9,53.9 M147,147v14.7H68.6c0,17.2,12.1,29.4,29.4,29.4
	h53.9c12.4,0,24.5-12.1,24.5-29.4V147H147L147,147z"/>
</svg>
