<svg id="Stasis" xmlns="http://www.w3.org/2000/svg" width="256" height="256" viewBox="0 0 512 512">
  <defs>
    <style>
      .cls-1 {
        fill: #2468e4;
      }

      .cls-1, .cls-2 {
        fill-rule: evenodd;
      }

      .cls-2 {
        fill: #fff;
      }
    </style>
  </defs>
  <path id="Full" class="cls-1" d="M11,256c0,135.094,109.906,245,245,245S501,391.094,501,256,391.094,11,256,11,11,120.906,11,256Z"/>
  <path id="S" class="cls-2" d="M363.83,285.4H207.021c-34.675,0-58.8-26.333-58.8-58.8h166.61c24.864,0,49,26.333,49,58.8m-49-166.6H207.021c-34.665,0-58.8,24.3-58.8,58.8V207h58.8V177.6H363.83c0-34.5-24.139-58.8-49-58.8m-9.8,186.2v29.4H148.217c0,34.5,24.139,58.8,58.8,58.8H314.827c24.864,0,49-24.3,49-58.8V305h-58.8Z"/>
</svg>
