<svg xmlns="http://www.w3.org/2000/svg" xmlns:xlink="http://www.w3.org/1999/xlink" width="250" height="250" xmlns:v="https://vecta.io/nano"><defs><linearGradient id="A" x1="17.336" x2="80" y1="74.339" y2="74.339" gradientUnits="userSpaceOnUse"><stop offset="0" stop-color="#000040"/><stop offset=".325" stop-color="#000043"/><stop offset=".585" stop-color="#00004d"/><stop offset=".823" stop-color="#00005e"/><stop offset="1" stop-color="#000070"/></linearGradient><linearGradient id="B" x1="48.668" x2="48.668" y1="68.69" y2="80" gradientUnits="userSpaceOnUse"><stop offset=".35" stop-color="#00209f"/><stop offset=".645" stop-color="#001f9d"/><stop offset=".752" stop-color="#001d96"/><stop offset=".828" stop-color="#00198b"/><stop offset=".889" stop-color="#00137a"/><stop offset=".941" stop-color="#000c64"/><stop offset=".987" stop-color="#000349"/><stop offset="1" stop-color="#000040"/></linearGradient><linearGradient id="C" x1="17.336" x2="80" y1="55.314" y2="55.314" gradientUnits="userSpaceOnUse"><stop offset="0" stop-color="#00209f"/><stop offset=".021" stop-color="#0222a1"/><stop offset=".244" stop-color="#1333b2"/><stop offset=".487" stop-color="#1d3dbc"/><stop offset=".791" stop-color="#2040bf"/><stop offset=".841" stop-color="#1e3dbc"/><stop offset=".882" stop-color="#1933b2"/><stop offset=".919" stop-color="#1122a1"/><stop offset=".954" stop-color="#050a89"/><stop offset=".966" stop-color="#00007f"/><stop offset="1" stop-color="#2040bf"/></linearGradient><linearGradient id="D" x1="17.34" x2="79.999" y1="61.035" y2="61.035" gradientUnits="userSpaceOnUse"><stop offset="0" stop-color="#fbbf00"/><stop offset=".021" stop-color="#fbc102"/><stop offset=".244" stop-color="#fdd213"/><stop offset=".487" stop-color="#ffdc1d"/><stop offset=".791" stop-color="#ffdf20"/><stop offset=".841" stop-color="#fddc1e"/><stop offset=".882" stop-color="#f8d219"/><stop offset=".919" stop-color="#eec111"/><stop offset=".954" stop-color="#e1a905"/><stop offset=".966" stop-color="#db9f00"/><stop offset="1" stop-color="#ffdf20"/></linearGradient><linearGradient xlink:href="#D" id="E" x1="17.336" x2="80" y1="66.982" y2="66.982"/><linearGradient xlink:href="#D" id="F" x1="17.335" x2="80.002" y1="69.929" y2="69.929"/><linearGradient xlink:href="#D" id="G" x1="17.339" x2="79.997" y1="68.998" y2="68.998"/><linearGradient xlink:href="#D" id="H" x1="17.337" x2="79.998" y1="64.477" y2="64.477"/><linearGradient xlink:href="#D" id="I" x1="17.335" x2="80.005" y1="57.716" y2="57.716"/><linearGradient xlink:href="#D" id="J" x1="17.337" y1="50.599" y2="50.599"/><linearGradient xlink:href="#D" id="K" x1="17.334" x2="80.005" y1="44.961" y2="44.961"/><linearGradient xlink:href="#D" id="L" x1="17.334" x2="80.003" y1="42.173" y2="42.173"/><linearGradient xlink:href="#D" id="M" x1="17.337" x2="80" y1="42.944" y2="42.944"/><linearGradient xlink:href="#D" id="N" y1="47.158" y2="47.158"/><linearGradient xlink:href="#D" id="O" x1="17.339" y1="53.776" y2="53.776"/><linearGradient xlink:href="#D" id="P"/></defs><circle cx="125" cy="125" r="125" fill="#cdcdcd" fill-rule="evenodd"/><g transform="matrix(2.41095 0 0 2.417397 27.123882 21.608938)"><path fill="#0e3ca5" d="M32.585 59.261c2 7.4 9.176 13.044 12.8 12.811.127-.008 13.745-2.547 21.2-15 5.8-9.693 3.826-19.051-4.065-19.255-2.838.207-33.745 7.348-29.934 21.446m29.199-47.528l-.008-.007.011-.006a34.632 34.632 0 0 0-36.5-5.267A20.236 20.236 0 0 0 23.1 7.53c-.486.259-.972.516-1.444.8l.115.035a15.78 15.78 0 0 0-3.655 3.46C8.172 24.953 41.486 34.5 59.3 34.528c8.191 5.883 10.491-16.56 2.485-22.793z"/><path fill="#5493f7" d="M27.3 12C22.723 18.88 7.478 23.727 4.971 22.972l-.017-.032q.155-.311.313-.618a36.705 36.705 0 0 1 10.87-12.684q1.407-1.03 2.914-1.928a10.772 10.772 0 0 1 5.039-1.342c6.789.132 3.244 5.579 3.21 5.632m-3.756 48.613c.329 2.162-.008 10.7-.45 11.418-.381.024-1.174.072-3.471-1.217a36.2 36.2 0 0 1-3.486-2.262A36.513 36.513 0 0 1 3.054 50.631a36.275 36.275 0 0 1-1.383-5.616 36.9 36.9 0 0 1 0-11.841 36.275 36.275 0 0 1 1.383-5.616q.183-.55.383-1.092c2.631 3.5 5.676 6.665 8.264 10.2 2.465 3.366 5.856 8.852 6.546 10.024 4.284 7.278 4.967 11.768 5.294 13.925m50.648-21.521a36.418 36.418 0 0 1-2.54 13.406c-4.3 4.621-33.284-6.753-33.568-6.877C34.116 43.886 22.05 38.6 20.961 30.3 19.4 18.351 43.63 10.027 54.28 9.711c1.277.015 5.164.06 7.429 1.9a36.411 36.411 0 0 1 12.48 27.482M54.568 71.467c-3.159 1.474-6.638.4-5.734-2.677 1.735-5.908 16.886-11.966 20.232-12.3.413-.04.588.241.405.561a36.86 36.86 0 0 1-14.9 14.411"/><path fill="url(#A)" d="M17.336 77.255a2.552 2.552 0 0 0 2.329 2.713c30.7.21 60.335-1.2 60.335-5.8 0-13.924-62.664 3.087-62.664 3.087z"/><path fill="url(#B)" d="M17.336 77.255a2.548 2.548 0 0 0 2.341 2.713c30.691.233 60.286-.731 60.323-5.8 0-13.924-62.664 3.087-62.664 3.087zm2.342 2.537a2.193 2.193 0 0 1-.245-.015 2.4 2.4 0 0 1-1.987-1.763 2.37 2.37 0 0 0 2.229 1.762c30.671-.193 59.844-9.636 59.844-5.478 0 4.244-29.172 5.702-59.841 5.494z"/><path fill="url(#C)" d="M19.68 37.823a2.343 2.343 0 0 0-2.344 2.343v37.089a2.343 2.343 0 0 0 2.329 2.345C50.363 79.37 80.038 69.209 80 74.169V32.394c.038-4.961-29.626 5.199-60.32 5.429z"/><path fill="url(#P)" d="M61.288 60.338l-.518-1.508-.517 1.685-1.677.288 1.355.752-.516 1.684 1.355-1.219 1.356.753-.518-1.506 1.354-1.221-1.674.292z"/><path fill="url(#E)" d="M56.215 66.29l-.515-1.506-.516 1.679-1.677.274 1.357.765-.518 1.679 1.354-1.209 1.353.753-.518-1.5L57.888 66z"/><path fill="url(#F)" d="M49.273 69.254l-.519-1.515-.516 1.675-1.676.246 1.357.787-.52 1.673 1.355-1.192 1.358.777-.52-1.516L50.951 69z"/><path fill="url(#G)" d="M42.325 68.36l-.519-1.533-.519 1.66-1.678.2 1.357.825-.518 1.658 1.358-1.151 1.359.815-.518-1.529 1.361-1.158z"/><path fill="url(#H)" d="M37.236 63.864l-.519-1.541-.52 1.647-1.684.162 1.362.853-.52 1.647 1.362-1.12 1.361.844-.52-1.541 1.36-1.132-1.682.181z"/><path fill="url(#I)" d="M34.85 58.755l1.362.853-.52-1.543 1.363-1.122-1.684.168-.521-1.545-.52 1.644-1.681.151 1.36.863-.519 1.642z"/><path fill="url(#J)" d="M36.718 48.444l-.52 1.648-1.685.162 1.363.854-.52 1.645 1.361-1.12 1.362.843-.52-1.54 1.361-1.129-1.682.181z"/><path fill="url(#K)" d="M41.806 42.79l-.519 1.659-1.676.2 1.354.824-.516 1.658 1.357-1.151 1.363.816-.521-1.528 1.364-1.161-1.686.214-.52-1.531z"/><path fill="url(#L)" d="M48.754 39.985l-.512 1.673-1.671.243 1.353.79-.517 1.671 1.347-1.188 1.359.774-.52-1.514 1.361-1.2-1.681.259-.519-1.508z"/><path fill="url(#M)" d="M55.7 40.744l-.515 1.682-1.676.271 1.356.767-.518 1.679 1.353-1.209 1.347.755-.518-1.5 1.355-1.221-1.67.287-.514-1.511z"/><path fill="url(#N)" d="M59.415 49.361l1.355-1.217 1.356.752-.517-1.507 1.354-1.22-1.674.291-.519-1.505-.517 1.683-1.677.289 1.356.75z"/><path fill="url(#O)" d="M63.145 53.075l-.517-1.5-.518 1.686-1.675.287 1.356.752-.517 1.684 1.354-1.22 1.353.748-.518-1.5 1.352-1.225-1.67.288z"/></g></svg>