<svg id="EVX" xmlns="http://www.w3.org/2000/svg" width="512" height="512" viewBox="0 0 512 512">
<defs>
    <style>
      .cls-1 {
        fill: #3f54b7;
      }

      .cls-1, .cls-2 {
        fill-rule: evenodd;
      }

      .cls-2 {
        fill: #fff;
      }
    </style>
  </defs>
  <path id="Full" class="cls-1" d="M11,256c0,135.094,109.906,245,245,245S501,391.094,501,256,391.094,11,256,11,11,120.906,11,256Z"/>
  <path id="EVX-2" data-name="EVX" class="cls-2" d="M165.1,274.59l-40.218,40.253-18.9,18.9A168.051,168.051,0,0,1,87.031,256c0-93.18,75.813-169,168.985-169S425,162.82,425,256,349.189,425,256.016,425a168.088,168.088,0,0,1-96.936-30.65,170.335,170.335,0,0,1-19.617-16.086L157.314,360.4l129.3-129.316a24.867,24.867,0,0,1,49.528-.538l59.513,59.519A143.647,143.647,0,0,0,399.746,256c0-79.276-64.476-143.742-143.73-143.742S112.287,176.724,112.287,256a143.525,143.525,0,0,0,3.61,32.1l38.221-38.24a24.865,24.865,0,0,1,49.037-.477l24.318,24.306-17.866,17.852-17.114-17.115a24.731,24.731,0,0,1-27.391.154v0.015Zm133.79-20.065L177.254,376.174A143.6,143.6,0,0,0,386.381,316.5L324.24,254.341A24.717,24.717,0,0,1,298.892,254.525Zm12.966-32.509a11.185,11.185,0,0,0-.8,22.355q0.413,0.013.828,0A11.185,11.185,0,0,0,311.858,222.016ZM178.821,242.4a11.185,11.185,0,1,0,11.184,11.185A11.184,11.184,0,0,0,178.821,242.4h0Z"/>
</svg>
