<?xml version="1.0" encoding="utf-8"?>
<!-- Generator: Adobe Illustrator 22.0.0, SVG Export Plug-In . SVG Version: 6.00 Build 0)  -->
<svg version="1.1" id="EVX" xmlns="http://www.w3.org/2000/svg" xmlns:xlink="http://www.w3.org/1999/xlink" x="0px" y="0px"
	 viewBox="0 0 490 490" style="enable-background:new 0 0 490 490;" xml:space="preserve">
<style type="text/css">
	.st0{fill:#3F54B7;}
	.st1{fill:#FFFFFF;}
</style>
<path id="Full" class="st0" d="M0,245c0,135.1,109.9,245,245,245s245-109.9,245-245S380.1,0,245,0S0,109.9,0,245z"/>
<path id="EVX-2" class="st1" d="M154.1,263.6l-40.2,40.3L95,322.7c-12.5-24-19-50.7-19-77.7c0-93.2,75.8-169,169-169
	s169,75.8,169,169s-75.8,169-169,169c-34.7,0-68.6-10.7-96.9-30.6c-6.9-4.9-13.5-10.2-19.6-16.1l17.9-17.9l129.3-129.3
	c1.1-13.7,13.1-23.9,26.8-22.8c12,1,21.5,10.3,22.8,22.3l59.5,59.5c2.7-11.2,4.1-22.6,4.1-34.1c0-79.3-64.5-143.7-143.7-143.7
	S101.3,165.7,101.3,245c0,10.8,1.2,21.6,3.6,32.1l38.2-38.2c2.1-13.6,14.9-22.8,28.4-20.7c10.5,1.7,18.7,9.8,20.6,20.2l24.3,24.3
	l-17.9,17.9l-17.1-17.1C173.2,269,162.4,269.1,154.1,263.6L154.1,263.6L154.1,263.6z M287.9,243.5L166.3,365.2
	c66.3,43.5,155.3,25.1,198.9-41.2c3.9-5.9,7.3-12.1,10.3-18.5l-62.1-62.2C305.5,248.1,295.7,248.1,287.9,243.5L287.9,243.5z
	 M300.9,211c-6.2-0.2-11.3,4.7-11.5,10.9c-0.2,6.1,4.6,11.2,10.7,11.5c0.3,0,0.6,0,0.8,0c6.2-0.2,11-5.4,10.8-11.6
	C311.4,215.9,306.7,211.2,300.9,211L300.9,211z M167.8,231.4c-6.2,0-11.2,5-11.2,11.2c0,6.2,5,11.2,11.2,11.2s11.2-5,11.2-11.2
	c0,0,0,0,0,0C179,236.4,174,231.4,167.8,231.4C167.8,231.4,167.8,231.4,167.8,231.4L167.8,231.4z"/>
</svg>
