<?xml version="1.0" encoding="UTF-8" standalone="no"?>
<svg
   id="svg"
   version="1.1"
   width="400"
   height="400"
   viewBox="0, 0, 400,400"
   sodipodi:docname="EXLE.svg"
   inkscape:version="1.1.1 (c3084ef, 2021-09-22)"
   xmlns:inkscape="http://www.inkscape.org/namespaces/inkscape"
   xmlns:sodipodi="http://sodipodi.sourceforge.net/DTD/sodipodi-0.dtd"
   xmlns="http://www.w3.org/2000/svg"
   xmlns:svg="http://www.w3.org/2000/svg">
  <defs
     id="defs3622" />
  <sodipodi:namedview
     id="namedview3620"
     pagecolor="#ffffff"
     bordercolor="#666666"
     borderopacity="1.0"
     inkscape:pageshadow="2"
     inkscape:pageopacity="0.0"
     inkscape:pagecheckerboard="0"
     showgrid="false"
     inkscape:zoom="1.5625"
     inkscape:cx="180.8"
     inkscape:cy="189.76"
     inkscape:window-width="1296"
     inkscape:window-height="847"
     inkscape:window-x="53"
     inkscape:window-y="25"
     inkscape:window-maximized="0"
     inkscape:current-layer="svg" />
  <circle
     style="fill:#4a82df;fill-opacity:1;stroke-width:1.79451"
     id="path3703"
     cx="200"
     cy="200"
     r="200" />
  <path
     d="m 347.53001,229.10688 c -3.58402,-3.29039 -8.39536,-3.10215 -11.9794,0 -1.79954,1.55859 -3.64427,3.06448 -5.51157,4.53274 -9.72056,7.37136 -20.32959,13.50787 -31.52592,18.33427 -12.12999,4.99958 -24.85481,8.45561 -37.83563,10.30785 -12.66459,1.58873 -25.48728,1.63391 -38.15187,0.0377 -15.7366,-2.28895 -30.81062,-7.37136 -45.59098,-13.13893 12.00199,-5.37605 23.68021,-11.46739 35.0196,-18.14604 6.41511,-3.7798 12.72481,-7.74031 18.94417,-11.84388 10.67679,1.66403 21.56442,2.14592 32.30898,1.34025 7.93607,-0.59482 15.86462,-1.78447 23.61998,-3.58402 6.73135,-1.56614 13.31211,-3.54639 19.57663,-6.49041 8.0189,-3.77228 15.93992,-10.00668 19.6143,-18.28911 1.7393,-3.91532 2.89884,-8.01888 2.7332,-12.35586 -0.15812,-4.09604 -1.1972,-7.98125 -3.1398,-11.59541 -3.53132,-6.5431 -10.43585,-11.45986 -17.73192,-12.79258 -9.48714,-1.73178 -18.92157,0.76048 -27.04587,5.81277 -3.92286,2.44707 -7.45419,5.48898 -11.06081,8.37277 -3.00426,2.40191 -6.01605,4.79628 -9.0429,7.1756 -1.28755,1.00894 -2.57509,2.01036 -3.87016,3.01179 -9.66785,7.45417 -19.52393,14.65989 -29.63601,21.50418 -9.64527,-2.10072 -18.98936,-5.24805 -28.15272,-9.03537 -7.77043,-3.31298 -15.38273,-6.98736 -22.88209,-10.86504 10.7521,-4.17885 21.25571,-9.0429 31.51087,-14.28342 14.75778,-7.52948 29.08636,-15.87966 43.22673,-24.50844 3.68944,-2.25132 7.37136,-4.52522 11.03821,-6.81419 3.7572,-2.34166 5.56428,-7.665 3.04191,-11.58786 -2.43202,-3.76474 -7.56712,-5.54923 -11.58787,-3.04191 -19.74981,12.3107 -39.76317,24.31268 -60.68759,34.53018 -5.12004,2.4998 -10.30032,4.87911 -15.54084,7.11536 -6.897,2.87626 -13.90694,5.48146 -21.03736,7.71019 -0.15812,-0.0903 -0.31624,-0.18072 -0.48189,-0.27106 -7.22829,-4.07345 -14.40389,-8.22219 -21.60959,-12.34835 -6.87442,-3.93039 -13.71118,-8.00383 -20.7663,-11.59539 -4.76616,-2.42449 -9.85609,-4.53274 -15.111666,-5.60946 -5.112516,-1.04661 -9.95397,-1.22731 -15.089073,-0.45177 -7.250887,1.09931 -14.343655,5.48145 -17.935216,11.98692 -3.900269,7.07018 -3.523795,15.30743 0.127995,22.38515 4.17133,8.09418 12.416109,13.15399 20.675946,16.24108 5.360987,2.00283 11.045743,2.93649 16.722964,3.53132 6.42265,0.67012 12.94318,0.55719 19.37335,0.0603 10.85751,-0.83577 21.57949,-2.8085 32.06052,-5.67723 7.10782,3.92286 14.26836,7.73277 21.55689,11.30175 10.43586,5.11251 21.18795,9.95397 32.28641,13.5907 -6.79912,4.11863 -13.70366,8.05655 -20.74372,11.75352 -7.58971,3.98309 -15.33755,7.68006 -23.22844,11.04575 -3.09461,1.28754 -6.20429,2.52237 -9.34408,3.69696 -9.92385,-4.07345 -19.85523,-8.13183 -29.94473,-11.79116 -9.35161,-3.39579 -18.8237,-6.46782 -28.43131,-9.0429 -4.306862,-1.15201 -8.545956,-2.16096 -12.995878,-2.58261 -3.335558,-0.31624 -6.565704,-0.0301 -9.871145,0.47436 -10.390678,1.58118 -20.427472,9.32901 -22.799258,19.87782 -1.272482,5.66215 -0.519534,11.25657 2.085666,16.42932 2.477198,4.92427 7.077708,8.98266 11.926691,11.46739 6.753942,3.46356 14.230713,4.87157 21.767721,5.16522 9.193491,0.36141 18.439693,-0.59484 27.535303,-1.85979 13.794,-1.92001 27.31694,-5.45133 40.45588,-10.0669 10.57139,4.35957 21.1503,8.68902 31.96263,12.4161 16.85851,5.80524 34.30431,9.43444 52.17175,9.77326 18.3117,0.34637 36.87939,-2.49225 54.25742,-8.28241 18.07075,-6.0236 34.77865,-15.05897 49.70208,-26.86518 1.72425,-1.36284 3.41086,-2.76332 5.06734,-4.20146 3.35814,-2.91389 3.20756,-9.03536 0,-11.97938 z m -66.13893,-47.23242 c 1.55108,-1.24236 3.09462,-2.49225 4.65321,-3.71957 2.43203,-1.79953 5.00711,-3.40332 7.75538,-4.68333 1.89742,-0.73789 3.84756,-1.3026 5.8504,-1.65648 1.31012,-0.10545 2.62025,-0.11295 3.93791,0 0.98637,0.19577 1.95766,0.45929 2.90638,0.79812 0.73035,0.36141 1.4306,0.77553 2.10072,1.23483 0.54213,0.48189 1.06166,0.9939 1.53602,1.53602 0.39153,0.58729 0.74542,1.19719 1.06918,1.82214 0.24095,0.6927 0.42918,1.40047 0.57977,2.12331 0.0526,0.77553 0.0526,1.5586 0,2.33413 -0.18824,0.93366 -0.43671,1.84473 -0.75294,2.74073 -0.54213,1.11436 -1.17461,2.18355 -1.88237,3.20004 -1.2499,1.49083 -2.64285,2.84613 -4.14874,4.08097 -2.46968,1.76942 -5.12759,3.24521 -7.89843,4.50263 -8.47067,3.44097 -17.68674,5.3911 -26.72964,6.67864 -5.85041,0.7379 -11.73846,1.11437 -17.62652,1.09931 9.72809,-7.13795 19.23782,-14.55449 28.66473,-22.08396 z m -180.06745,-4.59299 c -3.892744,-0.60988 -7.725248,-1.55107 -11.399633,-2.97414 -2.100724,-0.94872 -4.111095,-2.07813 -5.978406,-3.41838 -1.001419,-0.85083 -1.942605,-1.77696 -2.800965,-2.7859 -0.496945,-0.73037 -0.948714,-1.48331 -1.340247,-2.27391 -0.210825,-0.61742 -0.384003,-1.24236 -0.519534,-1.87484 -0.03012,-0.51201 -0.03012,-1.01647 0,-1.52848 0.09789,-0.45177 0.218355,-0.90354 0.368945,-1.34778 0.218355,-0.41412 0.451768,-0.81318 0.70777,-1.20471 0.368945,-0.40659 0.760478,-0.79812 1.174599,-1.15955 0.594828,-0.39906 1.219775,-0.75294 1.86731,-1.07671 1.061656,-0.37647 2.145901,-0.67013 3.252735,-0.88095 1.942604,-0.17318 3.892739,-0.1431 5.835344,0.0603 3.109674,0.5346 6.136524,1.45318 9.073022,2.61273 5.31581,2.34919 10.35303,5.38357 15.41284,8.23725 5.06734,2.8612 10.11962,5.76004 15.16437,8.6589 -1.03907,0.17317 -2.07061,0.33129 -3.10968,0.48189 -9.14078,1.15953 -18.50745,1.60377 -27.67836,0.4894 z m 8.41795,74.63971 c -4.84145,0.61742 -9.70549,1.0466 -14.584596,1.24236 -4.404746,0.17319 -8.824548,0.21836 -13.206703,-0.27858 -2.635317,-0.42918 -5.232987,-1.06918 -7.740303,-2.01037 -1.408013,-0.65507 -2.763318,-1.42308 -4.035801,-2.31155 -0.655064,-0.57225 -1.272482,-1.18966 -1.844721,-1.84473 -0.361416,-0.54211 -0.692712,-1.0993 -0.986363,-1.67907 -0.180706,-0.5346 -0.323767,-1.07671 -0.444238,-1.62637 -0.03012,-0.54212 -0.03012,-1.08425 0,-1.62636 0.127995,-0.60989 0.293649,-1.20471 0.496945,-1.79202 0.316238,-0.61741 0.670124,-1.21224 1.054127,-1.792 0.549652,-0.62496 1.129422,-1.20473 1.754368,-1.75437 0.87342,-0.60237 1.792016,-1.13696 2.74073,-1.60379 1.370365,-0.50448 2.770848,-0.88848 4.208979,-1.14448 2.191077,-0.21083 4.397214,-0.17318 6.588292,0.0603 3.689444,0.62494 7.318651,1.70166 10.917742,2.71062 4.90169,1.37035 9.773262,2.86119 14.599652,4.45744 6.70877,2.21367 13.34977,4.63815 19.94559,7.17559 -2.63532,0.65507 -5.27063,1.27248 -7.92854,1.82213 -3.82497,0.7906 -7.68007,1.4532 -11.55022,2.00284 z"
     style="clip-rule:evenodd;fill:#ffffff;fill-rule:nonzero;stroke-width:0.752947;stroke-linejoin:round;stroke-miterlimit:2;fill-opacity:1"
     id="path1474" />
  <g
     id="svgg-3">
    <path
       id="path0"
       d=""
       stroke="none"
       fill="#000000"
       fill-rule="evenodd" />
  </g>
  <g
     id="svgg-9">
    <path
       id="path0-7"
       d=""
       stroke="none"
       fill="#000000"
       fill-rule="evenodd" />
  </g>
</svg>
