<svg xmlns="http://www.w3.org/2000/svg" viewBox="0 0 400 400" xmlns:v="https://vecta.io/nano"><linearGradient id="A" gradientUnits="userSpaceOnUse" x1="131.96" y1="266.399" x2="304.415" y2="266.399"><stop offset="0" stop-color="#524b99"/><stop offset=".246" stop-color="#554d9a"/><stop offset=".43" stop-color="#5f529d"/><stop offset=".593" stop-color="#6f5ba2"/><stop offset=".743" stop-color="#8567a9"/><stop offset=".826" stop-color="#9570ae"/></linearGradient><circle cx="200" cy="200" r="200" stroke-width="67.623" stroke="url(#J)"/><linearGradient id="B" gradientUnits="userSpaceOnUse" x1="136.114" y1="165.375" x2="288.047" y2="83.289"><stop offset=".609" stop-color="#009bba"/><stop offset=".73" stop-color="#08a1bf"/><stop offset=".92" stop-color="#1fb1cd"/><stop offset="1" stop-color="#2ab9d4"/></linearGradient><g transform="matrix(.9025 0 0 .9025 21.287994 20.472672)"><path d="M273.5 175H162.8c-17 0-30.8 13.8-30.8 30.8V327c0 28.1 34.6 41.5 53.6 20.8l110.8-121.2c18-19.8 3.9-51.6-22.9-51.6z" fill="url(#A)"/><path d="M275.2 62.1H161.4c-16.2 0-29.4 13.2-29.4 29.4v120.4c0 26.6 32.5 39.5 50.8 20.2l113.8-120.4c17.7-18.7 4.4-49.6-21.4-49.6z" fill="url(#B)" stroke="url(#C)"/></g></svg>