<svg xmlns="http://www.w3.org/2000/svg" id="Layer_1" width="128" height="128"><defs><style>.cls-2{fill:#fff}</style></defs><circle cx="64" cy="64" r="64" style="fill:#141414"/><path d="M21.05 54.74v.31h-2.24v-.31zM23.31 54.74v.31h-2.24v-.31zM25.56 54.74v.31h-2.24v-.31zM27.82 54.74v.31h-2.24v-.31zM30.07 54.74v.31h-2.24v-.31zM32.33 54.74v.31h-2.24v-.31zM36.84 54.74v.31H34.6v-.31zM39.09 54.74v.31h-2.24v-.31zM41.35 54.74v.31h-2.24v-.31zM48.11 54.74v.31h-2.24v-.31zM50.37 54.74v.31h-2.24v-.31zM52.62 54.74v.31h-2.24v-.31zM54.88 54.74v.31h-2.24v-.31zM61.64 54.74v.31H59.4v-.31zM63.9 54.74v.31h-2.24v-.31zM66.15 54.74v.31h-2.24v-.31zM68.41 54.74v.31h-2.24v-.31zM70.66 54.74v.31h-2.24v-.31zM72.92 54.74v.31h-2.24v-.31zM75.17 54.74v.31h-2.24v-.31zM77.43 54.74v.31h-2.24v-.31zM81.94 54.74v.31H79.7v-.31zM84.19 54.74v.31h-2.24v-.31zM86.45 54.74v.31h-2.24v-.31zM88.7 54.74v.31h-2.24v-.31zM95.47 54.74v.31h-2.24v-.31zM97.72 54.74v.31h-2.24v-.31zM99.98 54.74v.31h-2.24v-.31zM102.23 54.74v.31h-2.24v-.31zM106.74 54.74v.31h-2.24v-.31zM115.76 54.74v.31h-2.24v-.31zM118.02 54.74v.31h-2.24v-.31zM18.19 56.16h.35l-1.44 3.08h-.35zM23.31 59.24v.31h-2.24v-.31zM25.56 59.24v.31h-2.24v-.31zM27.82 59.24v.31h-2.24v-.31zM30.07 59.24v.31h-2.24v-.31zM31.72 56.16h.35l-1.44 3.08h-.35zM33.97 56.16h.35l-1.44 3.08h-.35zM42.72 56.03v3.75h-.31v-3.75zM44.98 56.03v3.75h-.31v-3.75zM52.62 59.24v.31h-2.24v-.31zM55.43 56.16l1.44 3.08h-.35l-1.44-3.08zM58.78 56.16h.35l-1.44 3.08h-.35zM61.64 59.24v.31H59.4v-.31zM68.41 59.24v.31h-2.24v-.31zM70.66 59.24v.31h-2.24v-.31zM72.31 56.16h.35l-1.44 3.08h-.35zM76.82 56.16h.35l-1.44 3.08h-.35zM79.07 56.16h.35l-1.44 3.08h-.35zM81.94 59.24v.31H79.7v-.31zM83.58 56.16h.35l-1.44 3.08h-.35zM90.08 56.03v3.75h-.31v-3.75zM92.6 56.16h.35l-1.44 3.08h-.35zM99.36 56.16h.35l-1.44 3.08h-.35zM105.86 56.03v3.75h-.31v-3.75zM108.38 56.16h.35l-1.44 3.08h-.35zM112.89 56.16h.35l-1.44 3.08h-.35zM15.93 60.65h.35l-1.44 3.08h-.35zM20.44 60.65h.35l-1.44 3.08H19zM23.31 63.73v.31h-2.24v-.31zM31.72 60.65h.35l-1.44 3.08h-.35zM36.23 60.65h.35l-1.44 3.08h-.35zM38.21 60.52v3.75h-.31v-3.75zM42.72 60.52v3.75h-.31v-3.75zM44.98 60.52v3.75h-.31v-3.75zM49.49 60.52v3.75h-.31v-3.75zM52.62 63.73v.31h-2.24v-.31zM53.28 60.36h.29c.18.29.32.57.41.84s.14.55.14.82-.05.55-.14.82-.23.56-.41.84h-.29q.24-.42.36-.84c.12-.42.12-.55.12-.83s-.04-.56-.12-.83-.2-.55-.36-.83ZM58.51 60.52v3.75h-.31v-3.75zM60.76 60.52v3.75h-.31v-3.75zM65.27 60.52v3.75h-.31v-3.75zM70.05 60.65h.35l-1.44 3.08h-.35zM73.74 62.72h.57v.48l-.41.79h-.37l.2-.79v-.48ZM77.28 61.63l-1.55.59 1.55.58v.33l-1.93-.76v-.3l1.93-.76v.33ZM83.58 60.65h.35l-1.44 3.08h-.35zM88.09 60.65h.35L87 63.73h-.35zM90.08 60.52v3.75h-.31v-3.75zM93.21 63.73v.31h-2.24v-.31zM94.85 60.65h.35l-1.44 3.08h-.35zM99.36 60.65h.35l-1.44 3.08h-.35zM103.87 60.65h.35l-1.44 3.08h-.35zM105.86 60.52v3.75h-.31v-3.75zM109 63.73v.31h-2.24v-.31zM110.64 60.65h.35l-1.44 3.08h-.35zM115.15 60.65h.35l-1.44 3.08h-.35zM13.68 65.15h.35l-1.44 3.08h-.35zM18.8 68.23v.31h-2.24v-.31zM21.05 68.23v.31h-2.24v-.31zM22.7 65.15h.35l-1.44 3.08h-.35zM29.46 65.15h.35l-1.44 3.08h-.35zM34.58 68.23v.31h-2.24v-.31zM36.84 68.23v.31H34.6v-.31zM39.09 68.23v.31h-2.24v-.31zM42.72 65.02v3.75h-.31v-3.75zM44.98 65.02v3.75h-.31v-3.75zM52.62 68.23v.31h-2.24v-.31zM56.99 66.12l-1.55.59 1.55.58v.33l-1.93-.76v-.3l1.93-.76v.33ZM60.76 65.02v3.75h-.31v-3.75zM65.27 65.02v3.75h-.31v-3.75zM67.8 65.15h.35l-1.44 3.08h-.35zM72.31 65.15h.35l-1.44 3.08h-.35zM74.29 65.02v3.75h-.31v-3.75zM78.8 65.02v3.75h-.31v-3.75zM81.33 65.15h.35l-1.44 3.08h-.35zM85.84 65.15h.35l-1.44 3.08h-.35zM92.6 65.15h.35l-1.44 3.08h-.35zM97.11 65.15h.35l-1.44 3.08h-.35zM101.62 65.15h.35l-1.44 3.08h-.35zM108.38 65.15h.35l-1.44 3.08h-.35zM112.89 65.15h.35l-1.44 3.08h-.35zM11.42 69.64h.35l-1.44 3.08h-.35zM14.29 72.72v.31h-2.24v-.31zM15.93 69.64h.35l-1.44 3.08h-.35zM27.21 69.64h.35l-1.44 3.08h-.35zM30.07 72.72v.31h-2.24v-.31zM31.72 69.64h.35l-1.44 3.08h-.35zM38.21 69.51v3.75h-.31v-3.75zM41.35 72.72v.31h-2.24v-.31zM42.72 69.51v3.75h-.31v-3.75zM45.86 72.72v.31h-2.24v-.31zM47.23 69.51v3.75h-.31v-3.75zM50.92 69.64l1.44 3.08h-.35l-1.44-3.08zM54.88 72.72v.31h-2.24v-.31zM55.43 69.64l1.44 3.08h-.35l-1.44-3.08zM58.51 69.51v3.75h-.31v-3.75zM61.64 72.72v.31H59.4v-.31zM63.29 69.64h.35l-1.44 3.08h-.35zM65.54 69.64h.35l-1.44 3.08h-.35zM68.41 72.72v.31h-2.24v-.31zM70.05 69.64h.35l-1.44 3.08h-.35zM74.29 69.51v3.75h-.31v-3.75zM77.43 72.72v.31h-2.24v-.31zM79.07 69.64h.35l-1.44 3.08h-.35zM81.94 72.72v.31H79.7v-.31zM83.58 69.64h.35l-1.44 3.08h-.35zM90.34 69.64h.35l-1.44 3.08h-.35zM93.21 72.72v.31h-2.24v-.31zM94.85 69.64h.35l-1.44 3.08h-.35zM97.72 72.72v.31h-2.24v-.31zM99.36 69.64h.35l-1.44 3.08h-.35zM106.13 69.64h.35l-1.44 3.08h-.35zM109 72.72v.31h-2.24v-.31zM110.64 69.64h.35l-1.44 3.08h-.35z" class="cls-2"/></svg>