<?xml version="1.0" encoding="UTF-8" standalone="no"?>
<svg
   xmlns:dc="http://purl.org/dc/elements/1.1/"
   xmlns:cc="http://creativecommons.org/ns#"
   xmlns:rdf="http://www.w3.org/1999/02/22-rdf-syntax-ns#"
   xmlns:svg="http://www.w3.org/2000/svg"
   xmlns="http://www.w3.org/2000/svg"
   xmlns:sodipodi="http://sodipodi.sourceforge.net/DTD/sodipodi-0.dtd"
   xmlns:inkscape="http://www.inkscape.org/namespaces/inkscape"
   width="236.00766"
   height="236.00993"
   version="1.1"
   id="svg6"
   sodipodi:docname="FEI_ERC20.svg"
   inkscape:version="1.0.2-2 (e86c870879, 2021-01-15)">
  <metadata
     id="metadata12">
    <rdf:RDF>
      <cc:Work
         rdf:about="">
        <dc:format>image/svg+xml</dc:format>
        <dc:type
           rdf:resource="http://purl.org/dc/dcmitype/StillImage" />
      </cc:Work>
    </rdf:RDF>
  </metadata>
  <defs
     id="defs10" />
  <sodipodi:namedview
     pagecolor="#ffffff"
     bordercolor="#666666"
     borderopacity="1"
     objecttolerance="10"
     gridtolerance="10"
     guidetolerance="10"
     inkscape:pageopacity="0"
     inkscape:pageshadow="2"
     inkscape:window-width="1920"
     inkscape:window-height="1017"
     id="namedview8"
     showgrid="false"
     inkscape:zoom="3.3203125"
     inkscape:cx="117.91984"
     inkscape:cy="118.00017"
     inkscape:window-x="-8"
     inkscape:window-y="-8"
     inkscape:window-maximized="1"
     inkscape:current-layer="svg6" />
  <path
     d="m 36.657842,36.664171 c -21.03,21.03 -36.42099995,51.605 -36.65499995,81.344999 -0.238,30.2 14.49399995,61.891 35.91699995,83.178 21.083,20.949 52.362,34.705 82.082998,34.822 28.694,0.114 57.889,-12.607 79.512,-32.99 21.623,-20.383 38.823,-53.906 38.488,-85.01 -0.343,-31.817999 -18.151,-64.194999 -41.237,-86.093999 -20.104,-19.07 -49.056,-32.31399969 -76.763,-31.90599969 -29.736998,0.438 -60.314998,15.62499969 -81.344998,36.65499969 z m 81.389998,1.515 c 2.032,0.009 4.032,0.83 5.404,2.461 0.767,0.911 4.564,6.812 8.439,13.111 6.036,9.812 7.046,11.807 7.051,13.918 0.006,2.946 -1.566,5.349 -4.463,6.826 -1.766,0.901 -3.894,1.031 -16.771,1.031 -16.498,0 -17.63,-0.228 -20.194998,-4.068 -1.569,-2.349 -1.706,-4.722 -0.414,-7.221 1.758,-3.399 13.862998,-22.048 15.349998,-23.648 1.503,-1.618 3.568,-2.419 5.6,-2.41 z m -0.045,53.869 c 30.847,0 31.353,0.059 35.336,4.096 2.877,2.916 40.12,60.817999 40.873,63.544999 1.382,5.005 -1.237,10.837 -6.041,13.451 l -2.773,1.51 -67.475,-0.023 -69.243998,-0.803 c -5.436,-2.396 -8.573,-9.38 -6.648,-14.809 1.232,-3.475 38.511,-61.037999 40.957,-63.241999 4.071,-3.668 4.597,-3.725 35.015998,-3.725 z"
     fill="#21986d"
     id="path4" />
</svg>
