<svg xmlns="http://www.w3.org/2000/svg" width="256" height="256" xmlns:v="https://vecta.io/nano"><path d="M6.557 128c0 66.964 54.479 121.443 121.443 121.443S249.443 194.964 249.443 128 194.964 6.557 128 6.557 6.557 61.036 6.557 128z" fill="#fff" fill-rule="evenodd" stroke="#b0b0b0" stroke-width="13.114" paint-order="normal"/><path d="M46.738 46.664c-21.03 21.03-36.421 51.605-36.655 81.345C9.845 158.209 24.577 189.9 46 211.187c21.083 20.949 52.362 34.705 82.083 34.822 28.694.114 57.889-12.607 79.512-32.99s38.823-53.906 38.488-85.01c-.343-31.818-18.151-64.195-41.237-86.094-20.104-19.07-49.056-32.314-76.763-31.906-29.737.438-60.315 15.625-81.345 36.655zm81.39 1.515c2.032.009 4.032.83 5.404 2.461.767.911 4.564 6.812 8.439 13.111 6.036 9.812 7.046 11.807 7.051 13.918.006 2.946-1.566 5.349-4.463 6.826-1.766.901-3.894 1.031-16.771 1.031-16.498 0-17.63-.228-20.195-4.068-1.569-2.349-1.706-4.722-.414-7.221 1.758-3.399 13.863-22.048 15.35-23.648 1.503-1.618 3.568-2.419 5.6-2.41zm-.045 53.869c30.847 0 31.353.059 35.336 4.096 2.877 2.916 40.12 60.818 40.873 63.545 1.382 5.005-1.237 10.837-6.041 13.451l-2.773 1.51-67.475-.023-69.244-.803c-5.436-2.396-8.573-9.38-6.648-14.809 1.232-3.475 38.511-61.038 40.957-63.242 4.071-3.668 4.597-3.725 35.016-3.725z" fill="#21986d"/></svg>