<?xml version="1.0" encoding="utf-8"?>
<!-- Generator: Adobe Illustrator 22.0.0, SVG Export Plug-In . SVG Version: 6.00 Build 0)  -->
<svg version="1.1" id="FET" xmlns="http://www.w3.org/2000/svg" xmlns:xlink="http://www.w3.org/1999/xlink" x="0px" y="0px"
	 viewBox="0 0 490 490" style="enable-background:new 0 0 490 490;" xml:space="preserve">
<style type="text/css">
	.st0{fill:#025098;}
	.st1{fill:#FFFFFF;}
</style>
<path id="Full" class="st0" d="M0,245c0,135.1,109.9,245,245,245s245-109.9,245-245S380.1,0,245,0S0,109.9,0,245z"/>
<path id="FETCH" class="st1" d="M167.1,129.8v-11.7h-46.3v56.6h13.5v-22h25.9v-11.3h-25.9v-11.7L167.1,129.8L167.1,129.8z
	 M262,174.8v-11.7h-32.3v-11.8h24.5v-11h-24.5v-10.7h30.9v-11.5h-44.1v56.6L262,174.8L262,174.8z M261.7,223.8v-11.7H216v11.7h16v45
	h13.7v-45L261.7,223.8L261.7,223.8z M359.4,261l-9.5-9c-1.3,1.8-2.9,3.2-4.9,4.2c-2.2,1.1-4.7,1.7-7.1,1.6c-2.2,0-4.4-0.4-6.5-1.3
	c-1.9-0.8-3.7-2-5.1-3.6c-1.5-1.6-2.6-3.5-3.3-5.5c-0.8-2.3-1.2-4.6-1.2-7c0-2.4,0.4-4.7,1.2-6.9c0.8-2,1.9-3.9,3.4-5.5
	c1.5-1.6,3.2-2.8,5.2-3.6c2.1-0.9,4.3-1.3,6.6-1.3c2.2,0,4.4,0.4,6.4,1.3c2,0.8,3.8,2.2,5,3.9l9.3-9.3c-2.6-2.8-5.8-5-9.4-6.2
	c-7.7-2.8-16.2-2.8-23.9,0c-3.6,1.3-6.9,3.3-9.8,6c-2.8,2.6-5,5.8-6.5,9.4c-3.1,7.9-3.1,16.6,0,24.5c2.9,7.2,8.8,12.9,16,15.6
	c3.9,1.5,8,2.2,12.1,2.2c4.4,0.1,8.7-0.8,12.7-2.5C353.7,266.2,356.9,263.9,359.4,261L359.4,261L359.4,261z M359.4,362.8v-56.6
	h-13.7v21.4h-22.1v-21.4H310v56.6h13.7v-23.7h22.1v23.7H359.4z"/>
<path id="Shape" class="st1" d="M296,174v-65h64L296,174z M306,184h65v-64L306,184z"/>
</svg>
