<svg id="FET" xmlns="http://www.w3.org/2000/svg" width="512" height="512" viewBox="0 0 512 512">
<defs>
    <style>
      .cls-1 {
        fill: #025098;
      }

      .cls-1, .cls-2 {
        fill-rule: evenodd;
      }

      .cls-2 {
        fill: #fff;
      }
    </style>
  </defs>
  <path id="Full" class="cls-1" d="M11,256c0,135.094,109.906,245,245,245S501,391.094,501,256,391.094,11,256,11,11,120.906,11,256Z"/>
  <path id="FETCH" class="cls-2" d="M178.087,140.838v-11.68h-46.28V185.8h13.52v-22h25.92v-11.28h-25.92v-11.68h32.76Zm94.919,44.96v-11.68h-32.32v-11.76h24.52V151.4h-24.52v-10.72h30.88v-11.52h-44.08V185.8h45.52Zm-0.32,49.04v-11.68h-45.68v11.68h16V279.8h13.68v-44.96h16Zm97.761,37.12-9.52-8.96a13.8,13.8,0,0,1-4.88,4.16,15.065,15.065,0,0,1-7.12,1.6,16.132,16.132,0,0,1-6.48-1.28,14.912,14.912,0,0,1-5.08-3.56,16.376,16.376,0,0,1-3.32-5.48,19.9,19.9,0,0,1-1.2-7.04,19.349,19.349,0,0,1,1.2-6.92,16.6,16.6,0,0,1,3.36-5.48,15.492,15.492,0,0,1,5.16-3.64,16.209,16.209,0,0,1,6.6-1.32,16.743,16.743,0,0,1,6.4,1.28,11.491,11.491,0,0,1,5.04,3.92l9.28-9.28a22.608,22.608,0,0,0-9.4-6.2,34.986,34.986,0,0,0-23.88-.04,28.889,28.889,0,0,0-9.76,5.96,27.391,27.391,0,0,0-6.52,9.4,33.183,33.183,0,0,0-.04,24.48,27.981,27.981,0,0,0,16.04,15.6,33.183,33.183,0,0,0,12.12,2.16,30.335,30.335,0,0,0,12.72-2.52,26.972,26.972,0,0,0,9.28-6.84h0ZM370.406,373.8v-56.64h-13.68V338.6h-22.08v-21.44h-13.68V373.8h13.68v-23.68h22.08V373.8h13.68Z"/>
  <path id="Shape" class="cls-2" d="M307,185V120h64Zm10,10h65V131Z"/>
</svg>
