<?xml version="1.0" encoding="UTF-8"?>
<svg xmlns="http://www.w3.org/2000/svg" version="1.1" viewBox="0 0 245 245">
  <defs>
    <style>
      .cls-1 {
        fill: #fff;
      }

      .cls-2 {
        fill: #151a1a;
      }
    </style>
  </defs>
  <!-- Generator: Adobe Illustrator 28.7.1, SVG Export Plug-In . SVG Version: 1.2.0 Build 142)  -->
  <g>
    <g id="Layer_1">
      <path class="cls-1" d="M122.5,245c67.7,0,122.5-54.8,122.5-122.5S190.2,0,122.5,0,0,54.8,0,122.5s54.8,122.5,122.5,122.5Z"/>
      <g>
        <path class="cls-2" d="M10.1,122.5c0-13.9,11.2-25.1,25.1-25.1s25.1-11.2,25.1-25.1,11.2-25.1,25.1-25.1,25.1,11.2,25.1,25.1-11.2,25.1-25.1,25.1-25.1,11.2-25.1,25.1,11.2,25.1,25.1,25.1,25.1,11.2,25.1,25.1-11.2,25.1-25.1,25.1-25.1-11.2-25.1-25.1-11.2-25.1-25.1-25.1-25.1-11.2-25.1-25.1Z"/>
        <path class="cls-2" d="M234.9,122.5c0,13.9-11.2,25.1-25.1,25.1s-25.1,11.2-25.1,25.1-11.2,25.1-25.1,25.1-25.1-11.2-25.1-25.1,11.2-25.1,25.1-25.1,25.1-11.2,25.1-25.1-11.2-25.1-25.1-25.1-25.1-11.2-25.1-25.1,11.2-25.1,25.1-25.1,25.1,11.2,25.1,25.1,11.2,25.1,25.1,25.1,25.1,11.2,25.1,25.1Z"/>
        <path class="cls-2" d="M122.7,146.5c13.5,0,24.4-10.9,24.4-24.4s-10.9-24.4-24.4-24.4-24.4,10.9-24.4,24.4,10.9,24.4,24.4,24.4Z"/>
      </g>
    </g>
  </g>
</svg>