<svg xmlns="http://www.w3.org/2000/svg" width="256" height="256" xmlns:v="https://vecta.io/nano"><path d="M6.557 128c0 66.964 54.479 121.443 121.443 121.443S249.443 194.964 249.443 128 194.964 6.557 128 6.557 6.557 61.036 6.557 128z" fill="#fff" fill-rule="evenodd" stroke="#b0b0b0" stroke-width="13.114" paint-order="normal"/><path d="M10 128c0 65.069 52.931 118 118 118s118-52.931 118-118S193.069 10 128 10 10 62.931 10 128z" fill="#025098"/><path d="M90.481 72.516v-5.635h-22.3v27.26h6.502V83.545h12.474v-5.442H74.683v-5.635zm45.707 21.673v-5.635h-15.557v-5.683h11.8v-5.298h-11.8V72.42h14.882v-5.539h-21.24v27.26zm-.144 23.6v-5.635h-22.011v5.635h7.706v21.673h6.598v-21.673zm47.055 17.917l-4.576-4.335a6.39 6.39 0 0 1-2.36 2.023c-1.06.53-2.264.819-3.42.771a7.9 7.9 0 0 1-3.131-.626c-.915-.385-1.782-.963-2.456-1.734-.722-.771-1.252-1.686-1.589-2.649-.385-1.108-.578-2.216-.578-3.371a9.65 9.65 0 0 1 .578-3.323c.385-.963.915-1.878 1.638-2.649s1.541-1.349 2.504-1.734c1.011-.433 2.071-.626 3.179-.626 1.06 0 2.119.193 3.082.626.963.385 1.83 1.06 2.408 1.878l4.479-4.479c-1.252-1.349-2.793-2.408-4.527-2.986a16.88 16.88 0 0 0-11.511 0c-1.734.626-3.323 1.589-4.72 2.89-1.349 1.252-2.408 2.793-3.131 4.527a16.1 16.1 0 0 0 0 11.8 13.44 13.44 0 0 0 7.706 7.513 16.2 16.2 0 0 0 5.828 1.06c2.119.048 4.19-.385 6.117-1.204 1.734-.867 3.275-1.975 4.479-3.371zm0 49.03v-27.26H176.5v10.307h-10.644v-10.307h-6.55v27.26h6.598v-11.415h10.644v11.415zm-30.536-90.932V62.498h30.824zm4.816 4.816h31.306V67.796z" fill="#fff"/></svg>