<?xml version="1.0" encoding="UTF-8" standalone="no"?>
<svg
   xmlns:dc="http://purl.org/dc/elements/1.1/"
   xmlns:cc="http://creativecommons.org/ns#"
   xmlns:rdf="http://www.w3.org/1999/02/22-rdf-syntax-ns#"
   xmlns:svg="http://www.w3.org/2000/svg"
   xmlns="http://www.w3.org/2000/svg"
   xmlns:sodipodi="http://sodipodi.sourceforge.net/DTD/sodipodi-0.dtd"
   xmlns:inkscape="http://www.inkscape.org/namespaces/inkscape"
   width="236"
   height="236"
   version="1.1"
   id="svg8"
   sodipodi:docname="FET_ERC20.svg"
   inkscape:version="1.0.2-2 (e86c870879, 2021-01-15)">
  <metadata
     id="metadata14">
    <rdf:RDF>
      <cc:Work
         rdf:about="">
        <dc:format>image/svg+xml</dc:format>
        <dc:type
           rdf:resource="http://purl.org/dc/dcmitype/StillImage" />
      </cc:Work>
    </rdf:RDF>
  </metadata>
  <defs
     id="defs12" />
  <sodipodi:namedview
     pagecolor="#ffffff"
     bordercolor="#666666"
     borderopacity="1"
     objecttolerance="10"
     gridtolerance="10"
     guidetolerance="10"
     inkscape:pageopacity="0"
     inkscape:pageshadow="2"
     inkscape:window-width="1920"
     inkscape:window-height="1017"
     id="namedview10"
     showgrid="false"
     inkscape:zoom="3.3203125"
     inkscape:cx="118"
     inkscape:cy="118"
     inkscape:window-x="-8"
     inkscape:window-y="-8"
     inkscape:window-maximized="1"
     inkscape:current-layer="svg8" />
  <path
     d="m 0,118 c 0,65.069 52.931,118 118,118 65.069,0 118,-52.931 118,-118 C 236,52.931 183.069,0 118,0 52.931,0 0,52.931 0,118 Z"
     fill="#025098"
     id="path4" />
  <path
     d="m 80.481,62.516 v -5.635 h -22.3 v 27.26 h 6.502 V 73.545 H 77.157 V 68.103 H 64.683 v -5.635 z m 45.707,21.673 v -5.635 h -15.557 v -5.683 h 11.8 v -5.298 h -11.8 V 62.42 h 14.882 v -5.539 h -21.24 v 27.26 z m -0.144,23.6 v -5.635 h -22.011 v 5.635 h 7.706 v 21.673 h 6.598 v -21.673 z m 47.055,17.917 -4.576,-4.335 a 6.39,6.39 0 0 1 -2.36,2.023 c -1.06,0.53 -2.264,0.819 -3.42,0.771 a 7.9,7.9 0 0 1 -3.131,-0.626 c -0.915,-0.385 -1.782,-0.963 -2.456,-1.734 -0.722,-0.771 -1.252,-1.686 -1.589,-2.649 -0.385,-1.108 -0.578,-2.216 -0.578,-3.371 a 9.65,9.65 0 0 1 0.578,-3.323 c 0.385,-0.963 0.915,-1.878 1.638,-2.649 0.723,-0.771 1.541,-1.349 2.504,-1.734 1.011,-0.433 2.071,-0.626 3.179,-0.626 1.06,0 2.119,0.193 3.082,0.626 0.963,0.385 1.83,1.06 2.408,1.878 l 4.479,-4.479 c -1.252,-1.349 -2.793,-2.408 -4.527,-2.986 a 16.88,16.88 0 0 0 -11.511,0 c -1.734,0.626 -3.323,1.589 -4.72,2.89 -1.349,1.252 -2.408,2.793 -3.131,4.527 a 16.1,16.1 0 0 0 0,11.8 13.44,13.44 0 0 0 7.706,7.513 16.2,16.2 0 0 0 5.828,1.06 c 2.119,0.048 4.19,-0.385 6.117,-1.204 1.734,-0.867 3.275,-1.975 4.479,-3.371 z m 0,49.03 v -27.26 H 166.5 v 10.307 h -10.644 v -10.307 h -6.55 v 27.26 h 6.598 v -11.415 h 10.644 v 11.415 z M 142.563,83.804 V 52.498 h 30.824 z m 4.816,4.816 h 31.306 V 57.796 Z"
     fill="#ffffff"
     id="path6" />
</svg>
