<?xml version="1.0" encoding="UTF-8" standalone="no"?>
<svg
   xmlns:dc="http://purl.org/dc/elements/1.1/"
   xmlns:cc="http://creativecommons.org/ns#"
   xmlns:rdf="http://www.w3.org/1999/02/22-rdf-syntax-ns#"
   xmlns:svg="http://www.w3.org/2000/svg"
   xmlns="http://www.w3.org/2000/svg"
   xmlns:sodipodi="http://sodipodi.sourceforge.net/DTD/sodipodi-0.dtd"
   xmlns:inkscape="http://www.inkscape.org/namespaces/inkscape"
   width="242.5"
   height="242.5"
   viewBox="0 0 242.5 242.5"
   version="1.1"
   id="svg15"
   sodipodi:docname="FIDA_SOL.svg"
   inkscape:version="1.0.2-2 (e86c870879, 2021-01-15)">
  <metadata
     id="metadata19">
    <rdf:RDF>
      <cc:Work
         rdf:about="">
        <dc:format>image/svg+xml</dc:format>
        <dc:type
           rdf:resource="http://purl.org/dc/dcmitype/StillImage" />
      </cc:Work>
    </rdf:RDF>
  </metadata>
  <sodipodi:namedview
     pagecolor="#ffffff"
     bordercolor="#666666"
     borderopacity="1"
     objecttolerance="10"
     gridtolerance="10"
     guidetolerance="10"
     inkscape:pageopacity="0"
     inkscape:pageshadow="2"
     inkscape:window-width="1920"
     inkscape:window-height="1017"
     id="namedview17"
     showgrid="false"
     inkscape:zoom="3.4722222"
     inkscape:cx="121.152"
     inkscape:cy="121.152"
     inkscape:window-x="-8"
     inkscape:window-y="-8"
     inkscape:window-maximized="1"
     inkscape:current-layer="bonfida_solana" />
  <defs
     id="defs4">
    <clipPath
       id="clip-path">
      <path
         id="Path_472534"
         data-name="Path 472534"
         d="M 0,0 H 121.345 V 121.345 H 0 Z"
         fill="none" />
    </clipPath>
  </defs>
  <g
     id="bonfida_solana"
     transform="translate(-3217.444,-6059.42)">
    <path
       id="Main_copy_10"
       d="M 0,121.252 C 0,188.064 54.44,242.5 121.252,242.5 188.064,242.5 242.5,188.064 242.5,121.252 242.5,54.44 188.064,0 121.252,0 54.44,0 0,54.44 0,121.252 Z"
       fill="#4949ff"
       transform="translate(3217.444,6059.42)" />
    <g
       id="bonfida.c59946c0"
       transform="translate(3277.923,6119.899)"
       clip-path="url(#clip-path)">
      <path
         id="Path_472533"
         data-name="Path 472533"
         d="M 64.014,0.124 36.1,28.037 -0.056,64.187 0.027,121.208 57.048,121.291 84.973,93.366 121.119,57.22 121.29,-0.059 Z M 66.032,4.97 112.977,4.83 86.395,31.412 h -46.8 z m -34.8,34.8 v 46.8 L 4.874,112.93 4.8,66.2 Z m 23.8,76.667 -46.729,-0.064 26.368,-26.366 h 46.8 l -26.429,26.43 z M 36.093,85.149 V 36.266 h 48.88 v 48.876 h -48.88 z m 53.733,-3.5 V 34.844 l 26.583,-26.582 -0.144,46.945 z"
         transform="translate(-0.156,-0.162)"
         fill="#fff" />
    </g>
  </g>
</svg>
