<?xml version="1.0" encoding="UTF-8" standalone="no"?>
<svg
   xmlns:dc="http://purl.org/dc/elements/1.1/"
   xmlns:cc="http://creativecommons.org/ns#"
   xmlns:rdf="http://www.w3.org/1999/02/22-rdf-syntax-ns#"
   xmlns:svg="http://www.w3.org/2000/svg"
   xmlns="http://www.w3.org/2000/svg"
   xmlns:sodipodi="http://sodipodi.sourceforge.net/DTD/sodipodi-0.dtd"
   xmlns:inkscape="http://www.inkscape.org/namespaces/inkscape"
   width="290"
   height="290"
   viewBox="0 0 290 290"
   version="1.1"
   id="svg10"
   sodipodi:docname="FIO.svg"
   inkscape:version="1.0.2-2 (e86c870879, 2021-01-15)">
  <metadata
     id="metadata16">
    <rdf:RDF>
      <cc:Work
         rdf:about="">
        <dc:format>image/svg+xml</dc:format>
        <dc:type
           rdf:resource="http://purl.org/dc/dcmitype/StillImage" />
      </cc:Work>
    </rdf:RDF>
  </metadata>
  <defs
     id="defs14">
    <mask
       id="mask-2"
       fill="#ffffff">
      <polygon
         id="use11"
         points="0.00037698993,117.91059 0.00037698993,0.63793103 101.3681,0.63793103 101.3681,117.91059 " />
    </mask>
  </defs>
  <sodipodi:namedview
     pagecolor="#ffffff"
     bordercolor="#666666"
     borderopacity="1"
     objecttolerance="10"
     gridtolerance="10"
     guidetolerance="10"
     inkscape:pageopacity="0"
     inkscape:pageshadow="2"
     inkscape:window-width="1920"
     inkscape:window-height="1017"
     id="namedview12"
     showgrid="false"
     inkscape:zoom="2.0725544"
     inkscape:cx="170.15495"
     inkscape:cy="165.06743"
     inkscape:window-x="-8"
     inkscape:window-y="-8"
     inkscape:window-maximized="1"
     inkscape:current-layer="BABENA" />
  <g
     id="BABENA"
     transform="translate(0.299,0.299)">
    <circle
       id="path838"
       cx="145"
       cy="145"
       r="145"
       fill="#ffffff"
       transform="translate(-0.299,-0.299)" />
    <path
       d="m 150.10333,172.18713 v 63.43795 c 0,3.36784 -2.11596,4.98032 -4.72859,3.55835 l -35.88286,-19.67638 c -2.90518,-1.95947 -4.67415,-5.21165 -4.7558,-8.71558 v -61.98875 c 0.52389,0.42183 1.08179,0.78923 1.66691,1.11581 z"
       id="Fill-3"
       fill="#425cc7"
       style="stroke-width:0.789232" />
    <g
       id="Group-7"
       transform="matrix(0.78923231,0,0,0.78923231,104.7007,49.197524)">
      <mask
         id="mask889"
         fill="#ffffff">
        <polygon
           id="use887"
           points="101.3681,117.91059 0.00037698993,117.91059 0.00037698993,0.63793103 101.3681,0.63793103 " />
      </mask>
      <g
         id="Clip-6" />
      <path
         d="M 5.0836207,117.425 96.359483,70.623276 c 3.043103,-1.922414 4.931037,-5.25 5.008617,-8.853448 V 4.8818965 c 0,-3.525862 -2.258617,-5.14655167 -5.008617,-3.7413793 L 12.247414,44.278448 C 3.5663793,48.933621 -0.45086207,51.123276 0.04051724,60.959483 v 52.724137 c 0,3.35345 2.29310346,5.15517 5.04310346,3.74138"
         id="Fill-5"
         fill="#005cb9"
         mask="url(#mask-2)" />
    </g>
    <path
       d="m 108.71286,90.489342 72.03785,36.937428 c 2.40853,1.53084 3.89174,4.16389 3.95297,7.01465 v 44.87057 c 0,2.78273 -1.78258,4.08904 -3.95297,2.98004 l -72.03785,-36.94424 c -2.41532,-1.51723 -3.91215,-4.15028 -3.98018,-7.00784 V 93.462571 c 0,-2.748706 1.80979,-4.08904 3.98018,-2.973229"
       id="Fill-8"
       fill="#3cb4e5"
       style="stroke-width:0.789232"
       sodipodi:nodetypes="cccscccsc" />
    <path
       d="M 109.83986,141.87313 159.9425,116.18226 109.83986,90.491383 c -0.84366,-0.557905 -1.93907,-0.557905 -2.78273,0 -0.728,1.333531 -1.13622,2.816743 -1.19745,4.340778 v 43.503029 c 0.0272,0.95932 0.22452,1.89824 0.58512,2.78953 0.65996,1.12941 2.10915,1.51042 3.23857,0.85046 0.0476,-0.034 0.10206,-0.068 0.15649,-0.10205"
       id="Fill-10"
       fill="#00a0df"
       style="stroke-width:0.789232"
       sodipodi:nodetypes="ccccccccc" />
  </g>
</svg>
