<?xml version="1.0" encoding="UTF-8" standalone="no"?>
<svg
   xmlns:dc="http://purl.org/dc/elements/1.1/"
   xmlns:cc="http://creativecommons.org/ns#"
   xmlns:rdf="http://www.w3.org/1999/02/22-rdf-syntax-ns#"
   xmlns:svg="http://www.w3.org/2000/svg"
   xmlns="http://www.w3.org/2000/svg"
   width="256"
   height="256"
   viewBox="0 0 67.733332 67.733335"
   version="1.1"
   id="svg833">
  <defs
     id="defs827" />
  <metadata
     id="metadata830">
    <rdf:RDF>
      <cc:Work
         rdf:about="">
        <dc:format>image/svg+xml</dc:format>
        <dc:type
           rdf:resource="http://purl.org/dc/dcmitype/StillImage" />
        <dc:title></dc:title>
      </cc:Work>
    </rdf:RDF>
  </metadata>
  <g
     id="layer1"
     transform="translate(0,-229.26665)">
    <g
       transform="translate(-8.3333321e-8,229.26665)"
       id="g1384">
      <g
         id="layer1-2"
         transform="translate(9.9999982e-8,-229.26665)">
        <g
           id="g907"
           style="fill:#9b1c2e;fill-opacity:1">
          <path
             d="m 1.4552083,263.13332 c 0,17.87181 14.5396477,32.41146 32.4114577,32.41146 17.871811,0 32.411459,-14.53965 32.411459,-32.41146 0,-17.87181 -14.539648,-32.41146 -32.411459,-32.41146 -17.87181,0 -32.4114577,14.53965 -32.4114577,32.41146 z"
             class="cls-1"
             id="Full"
             style="fill:#9b1c2e;fill-opacity:1;stroke-width:0.13229166" />
        </g>
        <g
           id="g1017"
           transform="matrix(0.18969025,0,0,0.18969025,-15.462283,213.81385)">
          <path
             style="fill:#fefefe"
             class="st0"
             d="m 206.4,316.9 c 3,0 5.8,-1.7 7.2,-4.3 l 19.1,-36.3 h -29.5 c -4.5,0 -8.1,-3.7 -8.1,-8.1 v -16.3 c 0,-4.5 3.7,-8.1 8.1,-8.1 h 46.7 L 286.2,175 c 1.4,-2.7 4.2,-4.3 7.2,-4.3 h 61.1 c -23.7,-25 -57.2,-40.6 -94.4,-40.6 -71.8,0 -130,58.2 -130,130 0,20.4 4.7,39.7 13.1,56.9 h 63.2 z"
             id="path1013" />
          <path
             style="fill:#fefefe"
             class="st0"
             d="m 313.7,203.1 c -3,0 -5.8,1.7 -7.2,4.3 l -19.1,36.3 h 29.5 c 4.5,0 8.1,3.7 8.1,8.1 v 16.3 c 0,4.5 -3.7,8.1 -8.1,8.1 H 270.2 L 233.9,345 c -1.4,2.7 -4.2,4.3 -7.2,4.3 h -61.1 c 23.7,25 57.2,40.6 94.4,40.6 71.8,0 130,-58.2 130,-130 0,-20.4 -4.7,-39.7 -13.1,-56.9 h -63.2 z"
             id="path1015" />
        </g>
      </g>
    </g>
  </g>
</svg>
