<svg xmlns="http://www.w3.org/2000/svg" width="666.667" height="666.667" xmlns:v="https://vecta.io/nano"><path d="M303.899 665.127c-27.314-2.592-61.984-10.336-86.191-19.252-30.903-11.382-66.629-31.747-93.809-53.473C69.9 549.238 28.286 484.825 11.284 418.09c-15.045-59.052-15.045-110.663 0-169.715 11.232-44.088 32.965-87.179 62.778-124.476C117.226 69.9 181.639 28.286 248.374 11.284c59.052-15.045 110.663-15.045 169.715 0 44.088 11.232 87.179 32.965 124.476 62.778 53.998 43.164 95.612 107.577 112.615 174.312 15.045 59.052 15.045 110.663 0 169.715-11.232 44.088-32.965 87.179-62.778 124.476-43.163 53.998-107.577 95.612-174.312 112.615-39.524 10.07-77.777 13.402-114.191 9.946zm60.768-6.661c167.612-16.495 295.232-157.084 295.232-325.233 0-180.307-146.36-326.667-326.667-326.667-192.524 0-343.849 166.608-325.252 358.102 15 154.456 137.949 278.169 291.919 293.732 16.599 1.678 48.068 1.71 64.768.066zm-60.33-19.925c-38.814-3.777-69.09-12.416-105.105-29.989-62.853-30.669-110.437-78.237-141.367-141.32-21.779-44.42-30.526-82.815-30.526-134s8.747-89.58 30.526-134c30.926-63.075 78.467-110.604 141.367-141.331 45.588-22.27 81.788-30.513 134-30.513s88.412 8.243 134 30.513c62.923 30.738 110.593 78.408 141.331 141.331 22.266 45.58 30.542 81.889 30.542 134s-8.276 88.42-30.542 134c-30.767 62.982-78.348 110.564-141.331 141.331-42.88 20.947-78.185 29.478-126.667 30.608-13.2.308-29.503.024-36.228-.631zm-29.865-81.951c4.452-11.353 8.094-21.134 8.094-21.734 0-1.474-11.451-6.957-14.528-6.957-1.803 0-2.676 1.33-3.283 5-1.315 7.953-1 44.333.384 44.333.682 0 4.882-9.289 9.333-20.642zm-12.957-15.588l-.679-15.564-9.802-9.736c-5.391-5.355-9.802-9.004-9.802-8.109s2.372 9.487 5.27 19.093 6.278 22.059 7.51 27.673 3.2 12.007 4.374 14.207l2.134 4 .836-8c.46-4.4.531-15.004.158-23.564zm20.319-18.103c-1.513-8.868-3.169-14.355-5.141-17.041-1.875-2.554-1.965-2.528-3.303.976-.756 1.981-2.952 6.1-4.88 9.153-3.899 6.176-3.561 6.983 4.088 9.783 8.983 3.288 10.221 2.903 9.235-2.872zm-13.494-13.156c2.764-5.586 4.793-10.389 4.508-10.673s-3.696.086-7.582.823-10.883 1.34-15.549 1.34-8.442.45-8.39 1c.102 1.076 20.075 17.667 21.269 17.667.395 0 2.98-4.57 5.744-10.156zm-77.774-10.181c4.176-1.268 27.83-18.818 29.919-22.198 1.038-1.679-6.035-5.464-10.209-5.464-2.153 0-7.439 4.364-17.444 14.4-7.895 7.92-14 14.755-13.567 15.188.846.846 3.873.33 11.301-1.926zm42.667-1.637c0-1.789-8.717-18.003-9.519-17.705-2.173.807-21.147 16.316-21.147 17.285 0 .584 6.9 1.062 15.333 1.062s15.333-.289 15.333-.641zm26.333-1.547c7.517-.484 13.667-1.121 13.667-1.416s-3.22-4.555-7.154-9.466c-13.88-17.322-13.756-21.981.141-5.347 5.094 6.097 10.148 11.819 11.231 12.716 1.612 1.335 4.614.159 16.542-6.483 8.015-4.463 25.973-13.873 39.906-20.911 16.88-8.527 24.392-12.949 22.512-13.253-1.552-.251-16.852 1.744-34 4.432l-49.845 7.815-18.667 2.926-7.632 14.588c-4.198 8.023-7.648 15.108-7.667 15.744s1.615.791 3.632.345 9.817-1.206 17.333-1.69zm-17.23-14.633c3.134-6.319 5.477-11.709 5.208-11.978s-4.5 1.101-9.401 3.046c-6.396 2.538-8.911 4.215-8.911 5.942 0 2.663 5.415 14.478 6.635 14.478.424 0 3.334-5.17 6.468-11.488zm-11.809-9.793c2.368-1.498 1.767-2.249-2.631-3.29-3.841-.909-7.434.913-6.089 3.089 1.109 1.795 6.021 1.908 8.72.201zm57.038-13.471l36-5.795a590.32 590.32 0 0 1 24.285-3.436c6.94-.81 12.842-1.698 13.116-1.972 1.389-1.389-8.563-5.377-36.628-14.678-33.88-11.228-33.583-11.205-39.272-3.036-1.661 2.385-6.697 8.536-11.191 13.669-9.298 10.62-15.308 18.446-15.308 19.935 0 .559 1.05.596 2.333.081s13.283-2.661 26.666-4.768zm83.001-45.326c0-23.017-.367-29.255-1.722-29.255-3.266 0-68.539 33.019-69.325 35.069-.613 1.597 1.346 2.698 8.796 4.946 5.272 1.59 20.947 6.704 34.834 11.363s25.737 8.17 26.333 7.801 1.084-13.834 1.084-29.925zm10.991 13.079c2.513-4.583 9.252-18.533 14.975-31s17.222-36.312 25.553-52.989l15.147-31.097c0-1.618-7.481 5.207-12.978 11.84-8.652 10.44-27.829 32.013-38.689 43.524l-9.667 10.246v28.904c0 15.897.245 28.904.544 28.904s2.601-3.75 5.114-8.333zm-41.658-32.774l30.547-15.694c.301-.284-.383-1.57-1.519-2.858s-7.516-11.472-14.176-22.633c-14.37-24.079-20.541-33.652-21.714-33.685-1.144-.032-10.914 24.451-24.466 61.309l-11.988 32.316c-.854 2.065-.184 1.997 6.179-.631 3.925-1.621 20.636-9.777 37.136-18.125zm-32.032-21.226c13.608-34.82 21.365-55.781 21.365-57.733 0-1.926-28.452-1.615-30.4.333-1.127 1.127-1.608 8.905-1.626 26.333-.015 14.427-.831 30.289-1.958 38.067-2.198 15.172-2.54 24.667-.887 24.667.621 0 6.699-14.25 13.505-31.667zm82.654-15.758c6.258-6.65 15.878-17.45 21.378-24s14.95-17.423 21-24.163 11-12.472 11-12.737c0-.696-12.127.909-26 3.441l-31.333 5.477-35.662 6.255-16.328 2.968 2.262 3.425c1.244 1.884 7.594 12.125 14.112 22.758l17.315 27.807 5.464 8.473 2.707-3.807c1.489-2.094 7.828-9.248 14.086-15.898zm-128.471.425c2.668-5.317 5.975-11.259 7.35-13.206s2.499-4.202 2.499-5.011-4.05-7.558-9-14.998l-9-13.526-.383 13.82c-.211 7.601.239 16.722 1 20.269s1.383 10.02 1.383 14.384.292 7.934.65 7.934 2.833-4.35 5.501-9.667zm-11.866-26c-1.134-20.781-3.01-28.091-8.556-33.333-2.522-2.383-5.026-4.333-5.566-4.333s1.894 11.55 5.41 25.667l6.41 26c.011.183.708.333 1.552.333 1.109 0 1.317-3.968.751-14.333zm29.287-.667c2.252-2.383 5.992-7.005 8.312-10.27l4.217-5.936-3.05-1.584c-4.336-2.251-33.05-8.358-33.05-7.029 0 2.25 17.148 29.152 18.582 29.152.492 0 2.737-1.95 4.989-4.333zm49.762-20.302c0-.349-8.572-13.699-19.049-29.667l-24.263-37.698c-6.621-11.003-14.55-21.748-15.016-20.348-.197.592 4.987 18.162 11.521 39.045l13.395 43.636 1.515 5.667h15.949c8.772 0 15.949-.286 15.949-.635zm18.33-2.07c3.115-.719 12.311-2.234 20.436-3.367s23.277-3.851 33.67-6.038 24.168-4.348 30.609-4.801 12.063-1.391 12.493-2.087c.844-1.366-51.743-54.362-56.296-56.734-2.552-1.33-4.29.904-23.333 29.996l-24.352 37.917c-4.262 7.318-3.917 7.579 6.773 5.113zm-66.274-14.552l-20.263-28c-5.284-7.375-10.113-13.409-10.731-13.409s-.96 10.35-.76 23l.365 23 7.333 2.415c12.723 4.189 25.842 7.436 30.356 7.512l4.356.074-10.656-14.591zm61.745-.811l24.461-37.633c14.775-22.585 15.006-23.057 11.902-24.237-1.741-.662-14.79-3.72-28.998-6.796l-54.499-11.959c-15.767-3.502-28.84-6.206-29.051-6.008s1.957 3.885 4.818 8.196 15.076 23.438 27.143 42.504L325.99 299.5c2.883 4.547 5.783 8.117 6.446 7.932s5.431-6.905 10.597-14.935zm-96.526-15.599l-.059-20.333-2.589 4.901c-4.987 9.442-9.388 25.097-7.858 27.956 1.101 2.057 8.604 7.78 10.232 7.805.183.003.307-9.145.274-20.328zm35.986-3.884l-11.919-37.782c-3.497-11-6.763-21.888-7.258-24.195s-1.917-5.071-3.159-6.141c-2.38-2.051-47.941-17.759-48.856-16.844-.293.293 9.072 14.028 20.81 30.523l34.789 49.324c20.611 29.634 20.257 29.195 20.743 25.782.226-1.586-2.092-10.886-5.151-20.667zm164.073 11.714c0-.277-.941-2.756-2.091-5.509s-8.38-27.276-16.066-54.496l-14.684-51.491c-.901-2.54-3.9 3.142-10.986 20.815-7.568 18.874-11.831 28.15-13.375 29.104-2.094 1.294 2.14-11.839 8.786-27.253l8.751-20.365c1.493-3.501 2.315-6.764 1.827-7.252s-10.024.737-21.191 2.722-22.854 3.598-25.971 3.585-5.667.549-5.667 1.249c0 1.517 14.839 26.242 26.893 44.81 6.959 10.72 12.279 16.689 27.849 31.251 10.586 9.9 22.548 21.45 26.582 25.667 6.403 6.692 9.342 8.945 9.342 7.163zm35.401-26.054c-.416-.673-4.557-3.936-9.201-7.25l-8.444-6.026-8.211 2.2c-4.516 1.21-8.211 2.59-8.211 3.068 0 1.097 11.371 4.656 22.667 7.094 10.777 2.326 12.351 2.453 11.401.914zm5.204-4.442c-.5-1.65-2.132-5.1-3.627-7.667-5.183-8.899-17.426-28.673-18.532-29.933-.612-.697-1.112 4.763-1.112 12.133v13.399l11 7.447c6.05 4.096 11.49 7.486 12.09 7.534s.681-1.263.181-2.913zm-35.938-8.405c4.4-1.223 8.499-2.686 9.11-3.252s-3.72-7.604-9.624-15.64c-11.492-15.644-25.486-37.279-25.486-39.403 0-2.892 4.686 3.062 18.761 23.839 8.138 12.013 15.44 22.239 16.226 22.725.98.606 1.139-.753.505-4.324-.509-2.864-1.29-9.577-1.737-14.917-.767-9.162-1.084-9.923-5.617-13.491-8.046-6.332-28.168-20.133-29.355-20.133-2.936 0-2.392 8.419 1.344 20.803 3.988 13.219 9.003 30.847 11.835 41.598 1.164 4.418 2.03 5.583 3.774 5.075l10.264-2.882zm-71.333-21.477c0-1.303-5.691-11.003-17.61-30.015l-10.594-16.898-6.898 2.017c-22.627 6.616-66.454 20.471-68.903 21.781-1.59.851-2.596 1.841-2.236 2.201s9.261 2.367 19.781 4.46l46.46 9.814c35.28 7.755 40 8.538 40 6.64zm-96.667-29.987c6.6-2.175 12.451-4.4 13.002-4.944.931-.919-54.382-29.207-61.569-31.488-3.537-1.122-1.651 1.831 18.969 29.714 10.554 14.27 8.262 13.75 29.598 6.718zm-28.667 2.13c0-1.811-28.678-41.927-29.973-41.927-.817 0-16.694 26.879-16.694 28.262 0 .589.828 1.071 1.84 1.071s10.762 2.974 21.667 6.61c19.522 6.508 23.16 7.448 23.16 5.984zm76.347-16.72c19.437-6.089 19.133-5.45 7.988-16.824-11.371-11.605-14.48-13.304-26.283-14.371-5.838-.527-11.975-1.476-13.637-2.108-3.3-1.255-15.081-16.397-15.081-19.384 0-1.417 2.345-1.853 9.953-1.853h9.953l22.175 22.139c12.196 12.177 22.669 21.627 23.273 21 2.151-2.232 3.981-17.201 3.981-32.571v-15.609l-19.708-14.741c-22.768-17.029-15.019-14.698-73.625-22.154l-43.849-6.031c-11.901-2.264-11.214-3.028-10.454 11.633.635 12.242 1.173 14.205 9.236 33.667l10.209 23.693c1.117 2.053 13.932 9.171 39.844 22.134 43.84 21.93 36.43 20.653 66.028 11.381zM215.27 163.225l7.459-12.674-6.892-16.993-7.558-18.659c-2.275-5.691-3.048 1.828-3.048 29.667 0 19.294.496 31.333 1.29 31.333.709 0 4.646-5.703 8.749-12.674zm159.962 6.123c23.601-3.836 30.216-5.458 29.636-7.264-.268-.835-5.022-5.119-10.564-9.519-29.06-23.074-34.781-27.402-35.4-26.783-2.53 2.53-4.492 48.517-2.005 46.995.55-.337 8.8-1.88 18.333-3.429zm-57.419-25.858c-.368-.958-4.209-4.858-8.536-8.667-7.027-6.185-8.518-6.925-13.956-6.925-3.349 0-6.078.45-6.064 1s1.72 3.7 3.792 7c3.567 5.682 4.22 6.08 12.308 7.504 11.903 2.096 13.23 2.105 12.456.088z"/></svg>