<?xml version="1.0" encoding="UTF-8"?>
<svg id="Layer_1" data-name="Layer 1" xmlns="http://www.w3.org/2000/svg" version="1.1" viewBox="0 0 250 250">
  <defs>
    <style>
      .cls-1, .cls-2, .cls-3 {
        stroke-linejoin: round;
      }

      .cls-1, .cls-2, .cls-3, .cls-4 {
        fill: none;
        stroke-width: 2.1px;
      }

      .cls-1, .cls-2, .cls-4 {
        stroke: #221f1f;
      }

      .cls-2, .cls-3 {
        stroke-linecap: round;
      }

      .cls-5 {
        fill: #221f1f;
      }

      .cls-5, .cls-6, .cls-7, .cls-8, .cls-9, .cls-10, .cls-11 {
        stroke-width: 0px;
      }

      .cls-6 {
        fill: #5a595c;
      }

      .cls-7 {
        fill: #171717;
      }

      .cls-3 {
        stroke: #171717;
      }

      .cls-8 {
        fill: #929497;
      }

      .cls-4 {
        stroke-miterlimit: 10;
      }

      .cls-9 {
        fill: #f4a427;
      }

      .cls-10 {
        fill: #f79422;
      }

      .cls-11 {
        fill: #fff;
      }
    </style>
  </defs>
  <circle class="cls-11" cx="125" cy="125" r="122.5"/>
  <g>
    <path class="cls-9" d="M184.5,162.4c-1.7,19.7-24.9,36.3-59.8,35.5h0c-32.8-.8-55.8-14.5-57.5-34.2-.2-2.5,0-5,.2-7.7,1-7.7,3.7-14.9,7.7-21.6l2.5,1c6.4-2.5,13.1-4.4,19.9-5.6,8.9-1.2,18.1-1.5,27-.8h0c8.9-.6,18.1-.4,27,.8,6.8,1.2,13.5,3.1,19.9,5.6l2.5-1,1.7-.8c3.9,6.6,6.6,13.9,8.1,21.6.4,2.3.6,4.8.4,7.1"/>
    <path class="cls-11" d="M184.5,162.4c-1.7,19.5-24.7,35.5-59.8,35.3h0c-32.8-.8-55.8-14.5-57.5-34.2-.2-2.5,0-5,.2-7.7,3.5-.8,7.1-.8,10.6-.2,6.6,1,10.4,5.2,15.2,7.3,2.7,1.2,5.4-.8,7.9-3.1,6.6-6.4,15.6-10.2,24.7-10.4,9.3-.2,17,3.5,25.1,11,1.7,1.7,3.9,2.7,6.2,2.5,2.1-.6,4.2-1.7,5.8-3.1,6.2-4.2,13.7-5.8,21-4.8.6,2.7.8,5,.6,7.5"/>
    <path class="cls-10" d="M87.9,113.8c-2.3,2.3-5.2,3.9-8.3,4.6l-1.2.2c-1.2.4-2.5.6-3.9.6h-.8c-.6-.2-1.5-.4-2.1-.6-2.3-1-4.4-2.3-6.2-3.9-3.7-3.1-7.3-6.6-10-10.8-11.4-16.6-7.9-39,7.9-51.5,1-.6,2.3-.6,3.1.4.4.6.6,1.2.4,1.9-1.5,6.6-2.7,17,3.5,25.9,5.4,7.5,16.6,14.7,23.5,14.7,1.5,8.3-.8,13.9-5.8,18.5"/>
    <path class="cls-1" d="M87.9,113.8c-2.3,2.3-5.2,3.9-8.3,4.6l-1.2.2c-1.2.4-2.5.6-3.9.6h-.8c-.6-.2-1.5-.4-2.1-.6-2.3-1-4.4-2.3-6.2-3.9-3.7-3.1-7.3-6.6-10-10.8-11.4-16.6-7.9-39,7.9-51.5,1-.6,2.3-.6,3.1.4.4.6.6,1.2.4,1.9-1.5,6.6-2.7,17,3.5,25.9,5.4,7.5,16.6,14.7,23.5,14.7,1.5,8.3-.8,13.9-5.8,18.5Z"/>
    <path class="cls-6" d="M117.8,85.2l-2.7,26.6h-.2c-4.2.6-9.8,1.5-17.4,2.7-7.1,1-16.6,6-22.2,9.3l-.6-4.4c1.2-.2,2.7-.4,3.9-.6l1.2-.2c3.1-.6,6-2.3,8.3-4.6,4.8-4.8,7.3-10.2,5.6-18.7l.8.2c2.5-2.7,5.4-4.8,8.7-6.4,4.4-2.5,9.3-3.7,14.5-3.9"/>
    <path class="cls-1" d="M117.8,85.2l-2.7,26.6h-.2c-4.2.6-9.8,1.5-17.4,2.7-7.1,1-16.6,6-22.2,9.3l-.6-4.4c1.2-.2,2.7-.4,3.9-.6l1.2-.2c3.1-.6,6-2.3,8.3-4.6,4.8-4.8,7.3-10.2,5.6-18.7l.8.2c2.5-2.7,5.4-4.8,8.7-6.4,4.4-2.5,9.3-3.7,14.5-3.9Z"/>
    <path class="cls-8" d="M178.4,132.9l-1.7.8h0l-1.7.8-2.5,1c-6.4-2.5-13.1-4.4-19.9-5.6-8.9-1.7-17.9-2.5-27-2.5h0c-9.1,0-18.1.6-27,2.5-6.8,1.2-13.5,3.1-19.9,5.6-.8-.4-1.7-.8-2.5-1l-3.5-1.7c.2-2.9,0-4.6,0-7.5.6-.4,1.7-1,2.7-1.7l.2-.2c5.4-3.3,14.9-8.1,22-9.3,7.7-1.2,13.1-2.1,17.4-2.7,2.7-.2,5.6-.2,8.5-.2,4.4,0,8.3,0,12.2.2,4.2.6,9.8,1.5,17.6,2.7,7.3,1,16.8,6,22.4,9.3h.2c1,.6,1.9,1,2.5,1.7-.2,3.1-.4,4.8-.2,7.7"/>
    <path class="cls-2" d="M178.4,132.9l-1.7.8h0l-1.7.8-2.5,1c-6.4-2.5-13.1-4.4-19.9-5.6-8.9-1.5-17.9-2.3-27-2.3h0c-9.1,0-18.1.6-27,2.3-6.8,1.2-13.5,3.1-19.9,5.6-.8-.4-1.7-.8-2.5-1l-3.5-1.7c.2-2.9,0-4.6,0-7.5.6-.4,1.7-1,2.7-1.7l.2-.2c5.4-3.3,14.9-8.1,22-9.3,7.7-1.2,13.1-2.1,17.4-2.7,2.7-.2,5.6-.2,8.5-.2,4.4,0,8.3,0,12.2.2,4.2.6,9.8,1.5,17.6,2.7,7.3,1,16.8,6,22.4,9.3h.2c1,.6,1.9,1,2.5,1.7-.2,3.1-.4,4.8-.2,7.7Z"/>
    <path class="cls-8" d="M135.7,111.8c-3.7-.2-7.9-.4-12.2-.2-2.9,0-5.8.2-8.5.2h.2l2.7-26.6.6-5.4c2.1-1.2,4.6-1.9,6.8-1.9h.4c2.5,0,4.8.6,6.8,1.9l.6,5.4v.2l2.5,26.4Z"/>
    <path class="cls-2" d="M135.7,111.8c-3.7-.2-7.9-.4-12.2-.2-2.9,0-5.8.2-8.5.2h.2l2.7-26.6.6-5.4c2.1-1.2,4.6-1.9,6.8-1.9h.4c2.5,0,4.8.6,6.8,1.9l.6,5.4v.2l2.5,26.4Z"/>
    <line class="cls-2" x1="176.8" y1="133.8" x2="176.8" y2="133.8"/>
    <path class="cls-2" d="M184.5,162.6c-1.7,19.7-26.8,35.5-59.8,35.5h0c-32.8-.8-55.8-14.5-57.3-34.2-.2-2.5,0-5,.2-7.7,1-7.7,3.7-14.9,7.7-21.6l2.5,1c6.4-2.5,13.1-4.4,19.9-5.6,8.9-1.7,17.9-2.3,27-2.5h0c9.1,0,18.1.8,27,2.5,6.8,1.2,13.5,3.1,19.9,5.6l2.7-1,1.7-.8c3.9,6.6,6.6,13.9,8.1,21.6.6,2.5.6,5,.4,7.3Z"/>
    <path class="cls-10" d="M194.6,103.9c-2.9,3.9-6.2,7.7-10.2,10.8-1.9,1.7-3.9,2.9-6.2,3.9l-1,.4-.6.2c-1.5.4-2.3,0-5-.4l-1.2-.2c-3.1-.6-6-2.3-8.3-4.6-4.8-4.8-7.3-10.2-5.6-18.7,6.6.2,18.1-7.1,23.5-14.7,6-8.9,4.8-19.3,3.3-25.9-.2-1.2.4-2.3,1.7-2.7.6-.2,1.5,0,1.9.4,15.8,12.5,19.3,35.1,7.9,51.5"/>
    <path class="cls-1" d="M194.6,103.9c-2.9,3.9-6.2,7.7-10.2,10.8-1.9,1.7-3.9,2.9-6.2,3.9l-1,.4-.6.2c-1.5.4-2.3,0-5-.4l-1.2-.2c-3.1-.6-6-2.3-8.3-4.6-4.8-4.8-7.3-10.2-5.6-18.7,6.6.2,18.1-7.1,23.5-14.7,6-8.9,4.8-19.3,3.3-25.9-.2-1.2.4-2.3,1.7-2.7.6-.2,1.5,0,1.9.4,15.8,12.5,19.3,35.1,7.9,51.5Z"/>
    <path class="cls-6" d="M176.6,119.2l-.8,4.6c-5.6-3.3-15.2-8.3-22.4-9.3-7.9-1.2-13.3-2.1-17.6-2.7l-2.7-26.6c4.8.2,9.5,1.7,13.9,3.9,3.3,1.7,6.2,3.9,8.7,6.4l.8-.2c-1.7,8.3.8,13.9,5.6,18.7,2.3,2.3,5.2,3.9,8.3,4.6.2,0,1,.4,1.2.4,1.7.6,3.3.6,5,.2"/>
    <path class="cls-1" d="M176.6,119.2l-.8,4.6c-5.6-3.3-15.2-8.3-22.4-9.3-7.9-1.2-13.3-2.1-17.6-2.7l-2.7-26.6c4.8.2,9.5,1.7,13.9,3.9,3.3,1.7,6.2,3.9,8.7,6.4l.8-.2c-1.7,8.3.8,13.9,5.6,18.7,2.3,2.3,5.2,3.9,8.3,4.6l1.2.2c2.7.4,3.5.8,5,.4Z"/>
    <path class="cls-1" d="M133,85.2h-.8"/>
    <path class="cls-10" d="M176.8,118.2c1.5,1.7,1,4.2-.6,5.6l-.4.4"/>
    <path class="cls-4" d="M176.8,118.2c1.5,1.7,1,4.2-.6,5.6l-.4.4"/>
    <path class="cls-10" d="M74.5,118.2c-1.5,1.7-1,4.2.6,5.6q.2.2.4.4"/>
    <path class="cls-4" d="M74.5,118.2c-1.5,1.7-1,4.2.6,5.6q.2.2.4.4"/>
    <path class="cls-3" d="M117.8,170.5c1.5.4,3.1.2,4.6-.6,2.3-.8,3.7-3.1,3.5-5.6-.2,2.5,1.2,4.8,3.5,5.6,1.5.6,2.9.8,4.4.6"/>
    <path class="cls-7" d="M134,157.2c0,2.5-3.7,5.8-8.3,5.8s-8.3-3.3-8.3-5.8,3.7-3.3,8.3-3.3,8.3,1,8.3,3.3"/>
    <path class="cls-11" d="M129,156.4c0,.6-1.7,1.5-3.5,1.5s-3.5-.8-3.5-1.2,1.7-.4,3.5-.4,3.5-.4,3.5.2"/>
    <path class="cls-3" d="M112.6,164.3c-.2,2.9,1.7,5.4,4.6,6h.6"/>
    <path class="cls-3" d="M125.9,161.4v2.9"/>
    <path class="cls-3" d="M134,170.5h.6c2.9-.6,5-3.1,4.6-6"/>
    <path class="cls-1" d="M186.8,52.4c15.8,12.5,19.1,34.9,7.7,51.3"/>
    <path class="cls-1" d="M87.9,113.8c-2.3,2.3-5.2,3.9-8.3,4.6l-1.2.2c-1.2.4-2.5.6-3.9.6h-.8c-.6-.2-1.5-.4-2.1-.6-2.3-1-4.4-2.3-6.2-3.9-3.7-3.1-7.3-6.6-10-10.8-11.4-16.6-7.9-39,7.9-51.5,1-.6,2.3-.6,3.1.4.4.6.6,1.2.4,1.9-1.5,6.6-2.7,17,3.5,25.9,5.4,7.5,16.6,14.7,23.5,14.7,1.5,8.3-.8,13.9-5.8,18.5Z"/>
    <path class="cls-5" d="M110.6,143.7c0,4.6-2.7,8.1-6,8.1s-6-3.7-6-8.1,2.1-7.3,4.8-8.1l6.6,5c.4,1,.6,2.1.6,3.1Z"/>
    <path class="cls-11" d="M108.3,142.7c0,1.7-1,2.9-2.1,2.9s-2.1-1.2-2.1-2.9,1-2.9,2.1-2.9,2.1,1.2,2.1,2.9"/>
    <path class="cls-5" d="M103.3,149.9c-2.3,1.9-4.4,3.9-6.2,6.2-.8,1-1.7,2.3-2.3,3.7-.6,1.2-1,2.7-1.2,4.2-.2.6-.2,1.5-.2,2.1v6.6c.2,1.5.4,3.1.6,4.6.2.8.2,1.5.4,2.3.2.6.4,1.5.8,2.1-.4-.6-.6-1.5-1-2.1-.2-.6-.6-1.5-.8-2.1-.4-1.5-.8-2.9-1.2-4.6-.2-1.5-.4-3.1-.6-4.6v-4.6c.2-1.7.4-3.3,1-4.8s1.2-2.9,2.1-4.4c1.9-2.7,3.7-5.2,6-7.3.8-.6,1.9-.6,2.7,0,.6.4.8,1.7,0,2.5h0Z"/>
    <path class="cls-5" d="M101.9,149.3h-1l-1-.2c-.6-.2-1.2-.2-1.9-.2-1.2,0-2.7,0-3.9.4-.6.2-1.2.4-1.9.6-1.9.8-3.5,2.3-4.6,3.9.6-1.5,1.2-2.7,2.3-3.7.4-.6,1-1,1.7-1.5s1.2-.8,1.9-1.2c1.2-.8,2.7-1.2,4.4-1.7.8-.2,1.5-.2,2.3-.2h2.1s.2,0,0,0c1,0,1.9.8,2.1,1.9s-1,1.9-2.3,1.9c.2,0,0,0,0,0"/>
    <path class="cls-5" d="M153.1,143.7c0,4.6-2.7,8.1-5.8,8.1s-6-3.7-6-8.1.2-2.1.4-3.1l6.6-5c2.7.8,4.8,4.2,4.8,8.1Z"/>
    <path class="cls-11" d="M143.4,142.7c0,1.7,1,2.9,2.1,2.9s2.1-1.2,2.1-2.9-1-2.9-2.1-2.9-2.1,1.2-2.1,2.9"/>
    <path class="cls-5" d="M151,147c2.3,2.3,4.2,4.6,5.8,7.3.8,1.2,1.7,2.7,2.3,4.2s1,3.1,1.2,4.6c.2,1.7.2,3.1,0,4.8-.2,1.5-.4,3.1-.6,4.6s-.6,2.9-1,4.4c-.2.6-.4,1.5-.8,2.1-.2.6-.6,1.5-1,2.1.2-.6.6-1.5.8-2.1.2-.6.4-1.5.6-2.1.2-1.5.6-2.9.6-4.4.2-1.5.2-2.9.2-4.6s-.2-2.9-.4-4.4c-.4-1.5-.8-2.7-1.5-3.9-.6-1.2-1.5-2.5-2.5-3.5-1.9-2.3-3.9-4.4-6.2-6.2h0c-.8-.8-.8-1.9,0-2.7.6-.6,1.7-.8,2.5-.2v.2"/>
    <path class="cls-5" d="M149.8,145.6h2.3c.8,0,1.7,0,2.5.2,1.7.2,3.1.6,4.6,1.2s2.7,1.7,3.9,2.7c1,1,1.9,2.5,2.5,3.7-.8-1.2-1.9-2.3-3.1-3.1s-2.5-1.5-3.9-1.7c-1.5-.2-2.9-.2-4.4-.2s-1.5.2-2.1.2l-1,.2h-1c-1,.2-2.1-.6-2.1-1.7-.2-1,.6-2.1,1.7-2.1h.4"/>
  </g>
</svg>