<svg id="Flux_symbol_blue-white" xmlns="http://www.w3.org/2000/svg" width="338.064" height="335.661" viewBox="0 0 338.064 335.661">
  <ellipse id="Ellipse_64" data-name="Ellipse 64" cx="169.032" cy="167.831" rx="169.032" ry="167.831" transform="translate(0 0)" fill="#2b61d1"/>
  <g id="Group_179" data-name="Group 179" transform="translate(77.041 61.731)">
    <path id="Path_73" data-name="Path 73" d="M144.555,190.421l-19.224,11.107-41.3-23.841,18.756-10.832.469-.276.717.413Z" transform="translate(-32.311 13.286)" fill="#fff"/>
    <path id="Path_74" data-name="Path 74" d="M232.54,89.764v22.352L191.887,88.647l-11.025-6.367-11.025,6.367L118.16,118.483l-11.025,6.367V138.01L87.25,126.531l-11.025-6.367L65.2,126.531l-18.7,10.79V89.764l93.02-53.7Z" transform="translate(-46.5 -36.06)" fill="#fff"/>
    <path id="Path_75" data-name="Path 75" d="M209.856,117.919V177.59l-51.678,29.835-.069-.041L106.5,177.59V117.919L158.178,88.07Z" transform="translate(-23.815 -16.396)" fill="#fff"/>
    <path id="Path_76" data-name="Path 76" d="M105.95,132.727v34.314L76.225,184.212,46.5,167.041V132.727L76.225,115.57Z" transform="translate(-46.5 -5.999)" fill="#fff"/>
  </g>
</svg>
