<svg xmlns="http://www.w3.org/2000/svg" width="244.555" height="244.555" viewBox="0 0 244.555 244.555">
  <g id="fluxeth" transform="translate(-5312.469 -2907.113)">
    <g id="Group_3848" data-name="Group 3848" transform="translate(5315.75 2910.93)">
      <path id="Path_81" data-name="Path 81" d="M119.25,0C185.111,0,238.5,53.037,238.5,118.461s-53.39,118.461-119.25,118.461S0,183.885,0,118.461,53.39,0,119.25,0Z" fill="#2b61d1"/>
      <g id="Group_179" data-name="Group 179" transform="translate(54.081 43.316)">
        <path id="Path_73" data-name="Path 73" d="M126.794,183.425l-13.583,7.848L84.03,174.428l13.252-7.653.331-.195.506.292Z" transform="translate(-47.488 -39.495)" fill="#fff"/>
        <path id="Path_74" data-name="Path 74" d="M177.947,74V89.8L149.224,73.216l-7.789-4.5-7.79,4.5L97.132,94.3l-7.789,4.5v9.3l-14.05-8.111-7.789-4.5-7.789,4.5L46.5,107.606V74L112.224,36.06Z" transform="translate(-46.5 -36.06)" fill="#fff"/>
        <path id="Path_75" data-name="Path 75" d="M179.526,109.16v42.161L143.013,172.4l-.049-.029L106.5,151.321V109.16l36.513-21.09Z" transform="translate(-48.078 -37.428)" fill="#fff"/>
        <path id="Path_76" data-name="Path 76" d="M88.5,127.692v24.245l-21,12.132-21-12.132V127.692l21-12.122Z" transform="translate(-46.5 -38.152)" fill="#fff"/>
      </g>
    </g>
    <g id="Main_copy_14" transform="translate(5324.469 2919.113)" fill="none">
      <path d="M0,110.278A110.278,110.278,0,1,0,110.278,0,110.457,110.457,0,0,0,0,110.278Z" stroke="none"/>
      <path d="M 110.2775955200195 1.52587890625e-05 C 49.51239013671875 1.52587890625e-05 1.52587890625e-05 49.51239013671875 1.52587890625e-05 110.2775955200195 C 1.52587890625e-05 171.0428009033203 49.51239013671875 220.55517578125 110.2775955200195 220.55517578125 C 171.0428009033203 220.55517578125 220.55517578125 171.0428009033203 220.55517578125 110.2775955200195 C 220.55517578125 49.51239013671875 171.0428009033203 1.52587890625e-05 110.2775955200195 1.52587890625e-05 M 110.2775955200195 -11.99998474121094 C 177.7016754150391 -11.99998474121094 232.55517578125 42.853515625 232.55517578125 110.2775955200195 C 232.55517578125 177.7016754150391 177.7016754150391 232.55517578125 110.2775955200195 232.55517578125 C 42.853515625 232.55517578125 -11.99998474121094 177.7016754150391 -11.99998474121094 110.2775955200195 C -11.99998474121094 42.853515625 42.853515625 -11.99998474121094 110.2775955200195 -11.99998474121094 Z" stroke="none" fill="#b0b0b0"/>
    </g>
  </g>
</svg>
