<?xml version="1.0" encoding="utf-8"?>
<!-- Generator: Adobe Illustrator 22.0.0, SVG Export Plug-In . SVG Version: 6.00 Build 0)  -->
<svg version="1.1" id="FTM" xmlns="http://www.w3.org/2000/svg" xmlns:xlink="http://www.w3.org/1999/xlink" x="0px" y="0px"
	 viewBox="0 0 490 490" style="enable-background:new 0 0 490 490;" xml:space="preserve">
<style type="text/css">
	.st0{fill:#416ED5;}
	.st1{fill:#FFFFFF;}
</style>
<path id="Full" class="st0" d="M0,245c0,135.1,109.9,245,245,245s245-109.9,245-245S380.1,0,245,0S0,109.9,0,245z"/>
<path id="FTM-2" class="st1" d="M244.3,74.1c-4.3,0.2-8.6,1.2-12.5,3c-1.3,0.6-82.1,43.4-84.2,44.6c-2.4,1.3-4.5,3.1-6.1,5.2
	l-0.5,0.7l-1.5,0h-1.5v234.8h2.8l0.5,0.7c1.7,2.2,3.8,4,6.2,5.3c1.3,0.7,82.7,43.9,83.9,44.5c3.5,1.7,7.2,2.7,11,3
	c2.3,0.2,4.7,0.2,7,0c3.6-0.3,7.2-1.1,10.5-2.6c1-0.4,84.4-44.6,85.6-45.4c1.3-0.8,2.5-1.7,3.5-2.7c0.8-0.8,1.6-1.7,2.3-2.6l0.2-0.3
	h2.9V127.6h-3l-0.4-0.6c-1.2-1.4-2.5-2.7-3.9-3.8c-0.5-0.3-1.2-0.8-1.7-1.1c-1.7-1-84.7-45-85.8-45.4
	C255,74.6,249.6,73.7,244.3,74.1z M249.1,91.7c1.2,0.2,2.4,0.5,3.5,0.9c1,0.4,80.4,42.5,80.3,42.6c-0.2,0.2-79.9,42.4-80.5,42.6
	c-1,0.4-2.1,0.6-3.2,0.8c-2.1,0.2-4.2,0.2-6.4,0c-1.2-0.2-2.4-0.5-3.5-1c-0.8-0.4-79.8-42.3-79.9-42.4c0,0,16.5-8.8,36.7-19.6
	c46.9-24.8,43.4-23,44.3-23.3C243.4,91.5,246.3,91.3,249.1,91.7L249.1,91.7z M189.7,171.1c33.1,17.6,33.6,17.8,33.3,17.9
	c-0.1,0.1-15.4,8.1-33.8,17.9s-33.6,17.8-33.6,17.8c-0.1,0-0.1-7.2-0.1-35.9v-36l0.3,0.2C156,153.2,171.3,161.3,189.7,171.1
	L189.7,171.1z M337.1,206.9l0,17.9l-33.9-18c-18.6-9.9-33.9-18-33.8-18s15.3-8.1,33.9-18l33.8-17.9l0,18
	C337.2,180.8,337.2,197,337.1,206.9L337.1,206.9z M237.6,263.3l0,20.7l-39-20.7c-21.4-11.4-39-20.7-39-20.7s17.5-9.4,39-20.7
	l39-20.7l0,20.7C237.6,233.2,237.6,251.9,237.6,263.3L237.6,263.3z M294.1,221.9c28.9,15.3,38.9,20.7,38.8,20.8
	c-0.1,0.1-77.8,41.3-77.8,41.3c0,0,0-18.6,0-41.3s0-41.3,0.1-41.3S272.7,210.5,294.1,221.9L294.1,221.9z M337.2,307.8v47.6h-5.1
	l-39.5,20.9c-21.7,11.5-39.8,21-40.1,21.2c-3.3,1.1-6.9,1.3-10.3,0.6c-1.9-0.4-0.2,0.5-42.1-21.7l-39.6-21h-5v-47.5
	c0-43,0-47.5,0.1-47.5c0.1,0,17.2,9.1,38,20.1s38.4,20.3,39,20.6c2.9,1.2,6,2.1,9.1,2.4c2.5,0.2,4.9,0.3,7.4,0.1
	c3.7-0.3,7.3-1.1,10.8-2.6c0.5-0.2,18.1-9.5,39.1-20.6s38.1-20.2,38.1-20.2S337.2,281.6,337.2,307.8L337.2,307.8z M355.1,97
	c-2.5,4.1-4.5,7.5-4.5,7.5c1,0.7,2,1.4,3.1,2c6.5,4,8.9,5.6,11,7.7c2.3,2.2,3.9,5,4.6,8.2c0.9,3.7,1.3,7.5,1.3,11.3v1.7H388v-1.8
	c0-4.2-0.4-8.4-1.1-12.5c-0.6-3.4-1.6-6.7-3.1-9.9c-3.2-6.6-7.7-11.3-16.1-16.6c-1.3-0.8-7.4-4.6-7.9-4.8
	C359.6,89.6,359,90.5,355.1,97L355.1,97z M103.1,353.5c0.2,10.2,1.8,17.3,5,23.2c3.3,6.1,7.8,10.4,16.4,15.8
	c2.3,1.4,7.1,4.3,7.1,4.3c0.2-0.2,9-14.9,9-15c0,0-1.3-0.9-2.9-1.8c-6-3.6-8.7-5.5-10.9-7.5c-4.2-3.9-5.9-9.1-6.2-19.3l-0.1-2.2H103
	L103.1,353.5z"/>
</svg>
