<svg xmlns="http://www.w3.org/2000/svg" width="256" height="256" xmlns:v="https://vecta.io/nano"><path d="M10 128c0 65.069 52.931 118 118 118s118-52.931 118-118S193.069 10 128 10 10 62.931 10 128z" fill="#416ed5"/><path d="M127.663 45.689c-2.071.096-4.142.578-6.02 1.445-.626.289-39.542 20.903-40.553 21.481-1.156.626-2.167 1.493-2.938 2.504l-.241.337h-.722-.722v113.087h1.349l.241.337a9.48 9.48 0 0 0 2.986 2.553l40.409 21.433c1.686.819 3.468 1.3 5.298 1.445 1.108.096 2.264.096 3.371 0 1.734-.144 3.468-.53 5.057-1.252.482-.193 40.65-21.481 41.228-21.866.626-.385 1.204-.819 1.686-1.3a13.72 13.72 0 0 0 1.108-1.252l.096-.144h1.397V71.456h-1.445l-.193-.289c-.578-.674-1.204-1.3-1.878-1.83-.241-.144-.578-.385-.819-.53-.819-.482-40.794-21.673-41.324-21.866-2.216-1.011-4.816-1.445-7.369-1.252zm2.312 8.477a9.61 9.61 0 0 1 1.686.433c.482.193 38.723 20.469 38.675 20.518-.096.096-38.482 20.421-38.771 20.518-.482.193-1.011.289-1.541.385-1.011.096-2.023.096-3.082 0-.578-.096-1.156-.241-1.686-.482-.385-.193-38.434-20.373-38.482-20.421l17.676-9.44 21.336-11.222c1.445-.385 2.842-.482 4.19-.289zm-28.609 38.242l16.038 8.621c-.048.048-7.417 3.901-16.279 8.621l-16.183 8.573c-.048 0-.048-3.468-.048-17.291V83.594l.144.096c.096.096 7.465 3.998 16.327 8.718zm70.993 17.242v8.621l-16.327-8.669-16.279-8.669c.048 0 7.369-3.901 16.327-8.669l16.279-8.621v8.669 17.339zm-47.922 27.164v9.97l-18.784-9.97-18.784-9.97 18.784-9.97 18.784-9.97v9.97 19.94zm27.212-19.94l18.687 10.018c-.048.048-37.471 19.891-37.471 19.891v-19.891l.048-19.891c.048 0 8.429 4.383 18.736 9.873zm20.758 41.372v22.926h-2.456l-19.025 10.066-19.313 10.211c-1.589.53-3.323.626-4.961.289-.915-.193-.096.241-20.277-10.451l-19.073-10.114h-2.408v-22.878l.048-22.878c.048 0 8.284 4.383 18.302 9.681l18.784 9.922c1.397.578 2.89 1.011 4.383 1.156 1.204.096 2.36.144 3.564.048 1.782-.144 3.516-.53 5.202-1.252.241-.096 8.718-4.576 18.832-9.922l18.35-9.729.048 22.926zm8.621-101.528l-2.167 3.612c.482.337.963.674 1.493.963 3.131 1.927 4.287 2.697 5.298 3.709a7.7 7.7 0 0 1 2.216 3.949c.433 1.782.626 3.612.626 5.442v.819h8.38v-.867c0-2.023-.193-4.046-.53-6.02a18.89 18.89 0 0 0-1.493-4.768c-1.541-3.179-3.709-5.442-7.754-7.995l-3.805-2.312c-.096-.096-.385.337-2.264 3.468zM59.656 180.257c.096 4.913.867 8.332 2.408 11.174 1.589 2.938 3.757 5.009 7.899 7.61l3.42 2.071c.096-.096 4.335-7.176 4.335-7.224 0 0-.626-.433-1.397-.867-2.89-1.734-4.19-2.649-5.25-3.612-2.023-1.878-2.842-4.383-2.986-9.296l-.048-1.06h-8.429z" fill="#fff"/><path d="M128 11.485C63.753 11.485 11.485 63.753 11.485 128S63.753 244.515 128 244.515 244.515 192.247 244.515 128 192.247 11.485 128 11.485M128 0c70.527 0 128 57.468 128 128s-57.468 128-128 128S0 198.53 0 128 57.473 0 128 0z" fill="#474747"/></svg>