<?xml version="1.0" encoding="UTF-8" standalone="no"?>
<svg
   xmlns:dc="http://purl.org/dc/elements/1.1/"
   xmlns:cc="http://creativecommons.org/ns#"
   xmlns:rdf="http://www.w3.org/1999/02/22-rdf-syntax-ns#"
   xmlns:svg="http://www.w3.org/2000/svg"
   xmlns="http://www.w3.org/2000/svg"
   xmlns:sodipodi="http://sodipodi.sourceforge.net/DTD/sodipodi-0.dtd"
   xmlns:inkscape="http://www.inkscape.org/namespaces/inkscape"
   width="236"
   height="236"
   version="1.1"
   id="svg8"
   sodipodi:docname="FTM_BEP20.svg"
   inkscape:version="1.0.2-2 (e86c870879, 2021-01-15)">
  <metadata
     id="metadata8">
    <rdf:RDF>
      <cc:Work
         rdf:about="">
        <dc:format>image/svg+xml</dc:format>
        <dc:type
           rdf:resource="http://purl.org/dc/dcmitype/StillImage" />
      </cc:Work>
    </rdf:RDF>
  </metadata>
  <defs
     id="defs12" />
  <sodipodi:namedview
     id="namedview10"
     pagecolor="#ffffff"
     bordercolor="#666666"
     borderopacity="1.0"
     inkscape:pageshadow="2"
     inkscape:pageopacity="0.0"
     inkscape:pagecheckerboard="0"
     showgrid="false"
     inkscape:zoom="3.4101562"
     inkscape:cx="118"
     inkscape:cy="118"
     inkscape:window-width="1920"
     inkscape:window-height="1017"
     inkscape:window-x="-8"
     inkscape:window-y="-8"
     inkscape:window-maximized="1"
     inkscape:current-layer="svg8"
     inkscape:document-rotation="0" />
  <path
     d="m 0,118 c 0,65.069 52.931,118 118,118 65.069,0 118,-52.931 118,-118 C 236,52.931 183.069,0 118,0 52.931,0 0,52.931 0,118 Z"
     fill="#416ed5"
     id="path2" />
  <path
     d="m 117.663,35.689 c -2.071,0.096 -4.142,0.578 -6.02,1.445 -0.626,0.289 -39.542,20.903 -40.553,21.481 -1.156,0.626 -2.167,1.493 -2.938,2.504 l -0.241,0.337 h -0.722 -0.722 v 113.087 h 1.349 l 0.241,0.337 a 9.48,9.48 0 0 0 2.986,2.553 l 40.409,21.433 c 1.686,0.819 3.468,1.3 5.298,1.445 1.108,0.096 2.264,0.096 3.371,0 1.734,-0.144 3.468,-0.53 5.057,-1.252 0.482,-0.193 40.65,-21.481 41.228,-21.866 0.626,-0.385 1.204,-0.819 1.686,-1.3 a 13.72,13.72 0 0 0 1.108,-1.252 l 0.096,-0.144 h 1.397 V 61.456 h -1.445 l -0.193,-0.289 c -0.578,-0.674 -1.204,-1.3 -1.878,-1.83 -0.241,-0.144 -0.578,-0.385 -0.819,-0.53 -0.819,-0.482 -40.794,-21.673 -41.324,-21.866 -2.216,-1.011 -4.816,-1.445 -7.369,-1.252 z m 2.312,8.477 a 9.61,9.61 0 0 1 1.686,0.433 c 0.482,0.193 38.723,20.469 38.675,20.518 -0.096,0.096 -38.482,20.421 -38.771,20.518 -0.482,0.193 -1.011,0.289 -1.541,0.385 -1.011,0.096 -2.023,0.096 -3.082,0 -0.578,-0.096 -1.156,-0.241 -1.686,-0.482 C 114.871,85.345 76.822,65.165 76.774,65.117 l 17.676,-9.44 21.336,-11.222 c 1.445,-0.385 2.842,-0.482 4.19,-0.289 z m -28.609,38.242 16.038,8.621 c -0.048,0.048 -7.417,3.901 -16.279,8.621 l -16.183,8.573 c -0.048,0 -0.048,-3.468 -0.048,-17.291 V 73.594 l 0.144,0.096 c 0.096,0.096 7.465,3.998 16.327,8.718 z m 70.993,17.242 v 8.621 l -16.327,-8.669 -16.279,-8.669 c 0.048,0 7.369,-3.901 16.327,-8.669 l 16.279,-8.621 v 8.669 17.339 z m -47.922,27.164 v 9.97 l -18.784,-9.97 -18.784,-9.97 18.784,-9.97 18.784,-9.97 v 9.97 z m 27.212,-19.94 18.687,10.018 c -0.048,0.048 -37.471,19.891 -37.471,19.891 v -19.891 l 0.048,-19.891 c 0.048,0 8.429,4.383 18.736,9.873 z m 20.758,41.372 v 22.926 h -2.456 l -19.025,10.066 -19.313,10.211 c -1.589,0.53 -3.323,0.626 -4.961,0.289 -0.915,-0.193 -0.096,0.241 -20.277,-10.451 L 77.302,171.173 h -2.408 v -22.878 l 0.048,-22.878 c 0.048,0 8.284,4.383 18.302,9.681 l 18.784,9.922 c 1.397,0.578 2.89,1.011 4.383,1.156 1.204,0.096 2.36,0.144 3.564,0.048 1.782,-0.144 3.516,-0.53 5.202,-1.252 0.241,-0.096 8.718,-4.576 18.832,-9.922 l 18.35,-9.729 0.048,22.926 z m 8.621,-101.528 -2.167,3.612 c 0.482,0.337 0.963,0.674 1.493,0.963 3.131,1.927 4.287,2.697 5.298,3.709 a 7.7,7.7 0 0 1 2.216,3.949 c 0.433,1.782 0.626,3.612 0.626,5.442 v 0.819 h 8.38 v -0.867 c 0,-2.023 -0.193,-4.046 -0.53,-6.02 a 18.89,18.89 0 0 0 -1.493,-4.768 c -1.541,-3.179 -3.709,-5.442 -7.754,-7.995 l -3.805,-2.312 c -0.096,-0.096 -0.385,0.337 -2.264,3.468 z M 49.656,170.257 c 0.096,4.913 0.867,8.332 2.408,11.174 1.589,2.938 3.757,5.009 7.899,7.61 l 3.42,2.071 c 0.096,-0.096 4.335,-7.176 4.335,-7.224 0,0 -0.626,-0.433 -1.397,-0.867 -2.89,-1.734 -4.19,-2.649 -5.25,-3.612 -2.023,-1.878 -2.842,-4.383 -2.986,-9.296 l -0.048,-1.06 h -8.429 z"
     fill="#ffffff"
     id="path4" />
</svg>
