<?xml version="1.0" encoding="UTF-8" standalone="no"?>
<svg
   xmlns:dc="http://purl.org/dc/elements/1.1/"
   xmlns:cc="http://creativecommons.org/ns#"
   xmlns:rdf="http://www.w3.org/1999/02/22-rdf-syntax-ns#"
   xmlns:svg="http://www.w3.org/2000/svg"
   xmlns="http://www.w3.org/2000/svg"
   xmlns:sodipodi="http://sodipodi.sourceforge.net/DTD/sodipodi-0.dtd"
   xmlns:inkscape="http://www.inkscape.org/namespaces/inkscape"
   width="242.5"
   height="242.5"
   viewBox="0 0 242.5 242.5"
   version="1.1"
   id="svg15"
   sodipodi:docname="FTT_SOL.svg"
   inkscape:version="1.0.2-2 (e86c870879, 2021-01-15)">
  <metadata
     id="metadata21">
    <rdf:RDF>
      <cc:Work
         rdf:about="">
        <dc:format>image/svg+xml</dc:format>
        <dc:type
           rdf:resource="http://purl.org/dc/dcmitype/StillImage" />
      </cc:Work>
    </rdf:RDF>
  </metadata>
  <defs
     id="defs19" />
  <sodipodi:namedview
     pagecolor="#ffffff"
     bordercolor="#666666"
     borderopacity="1"
     objecttolerance="10"
     gridtolerance="10"
     guidetolerance="10"
     inkscape:pageopacity="0"
     inkscape:pageshadow="2"
     inkscape:window-width="1920"
     inkscape:window-height="1017"
     id="namedview17"
     showgrid="false"
     inkscape:zoom="3.4722222"
     inkscape:cx="121.152"
     inkscape:cy="121.152"
     inkscape:window-x="-8"
     inkscape:window-y="-8"
     inkscape:window-maximized="1"
     inkscape:current-layer="ftt-solana" />
  <g
     id="ftt-solana"
     transform="translate(-3857.227,-6056.924)">
    <path
       id="Main_copy_10"
       d="M 0,121.252 C 0,188.064 54.44,242.5 121.252,242.5 188.064,242.5 242.5,188.064 242.5,121.252 242.5,54.44 188.064,0 121.252,0 54.44,0 0,54.44 0,121.252 Z"
       fill="#02a6c2"
       transform="translate(3857.227,6056.924)" />
    <g
       id="Layer_2"
       data-name="Layer 2"
       transform="translate(3911.531,6120.043)">
      <g
         id="Layer_1"
         data-name="Layer 1">
        <path
           id="Path_472526"
           data-name="Path 472526"
           d="m 565.3,0.007 q 47.943,-0.015 95.893,0 0.015,15.5 0,30.989 -47.945,0.015 -95.893,0 -0.013,-15.496 0,-30.989 z"
           transform="translate(-527.507)"
           fill="#fff" />
        <path
           id="Path_472527"
           data-name="Path 472527"
           d="m 0.04,637.54 q 15.468,-0.08 30.941,0 0.08,15.468 0,30.941 -15.472,0.079 -30.941,0 -0.08,-15.468 0,-30.941 z"
           transform="translate(0,-594.885)"
           fill="#fff" />
        <path
           id="Path_472528"
           data-name="Path 472528"
           d="m 565.266,637.587 q 34.6,-0.074 69.2,0 0.074,15.468 0,30.941 -34.6,0.072 -69.2,0 -0.072,-15.469 0,-30.941 z"
           transform="translate(-527.446,-594.932)"
           fill="#fff" />
        <path
           id="Path_472529"
           data-name="Path 472529"
           d="m 565.136,1275.059 q 15.442,-0.168 30.878,0 0.16,15.432 0,30.878 -15.442,0.152 -30.877,0 -0.156,-15.432 -10e-4,-30.873 z"
           transform="translate(-527.287,-1189.747)"
           fill="#fff" />
      </g>
    </g>
  </g>
</svg>
