<svg xmlns="http://www.w3.org/2000/svg" width="244.8" height="244.8" viewBox="0 0 244.8 244.8">
  <g id="ftt-solana" transform="translate(-3855.979 -6055.676)">
    <path id="Main_copy_10" d="M0,121.252C0,188.064,54.44,242.5,121.252,242.5S242.5,188.064,242.5,121.252,188.064,0,121.252,0,0,54.44,0,121.252Z" transform="translate(3857.227 6056.924)" fill="#02a6c2"/>
    <g id="Main_copy_14" transform="translate(3855.979 6055.676)" fill="none">
      <path d="M0,122.4c0,67.444,54.954,122.4,122.4,122.4s122.4-54.954,122.4-122.4S189.841,0,122.4,0,0,54.954,0,122.4Z" stroke="none"/>
      <path d="M 122.4000015258789 11 C 60.97383117675781 11 11 60.97383117675781 11 122.4000015258789 C 11 183.826171875 60.97383117675781 233.8000030517578 122.4000015258789 233.8000030517578 C 183.826171875 233.8000030517578 233.8000030517578 183.826171875 233.8000030517578 122.4000015258789 C 233.8000030517578 60.97383117675781 183.826171875 11 122.4000015258789 11 M 122.4000015258789 0 C 189.8410034179688 0 244.8000030517578 54.95399475097656 244.8000030517578 122.4000015258789 C 244.8000030517578 189.8460083007813 189.8460083007813 244.8000030517578 122.4000015258789 244.8000030517578 C 54.95399475097656 244.8000030517578 0 189.843994140625 0 122.4000015258789 C 0 54.95399475097656 54.95899963378906 0 122.4000015258789 0 Z" stroke="none" fill="#1ae5ae"/>
    </g>
    <g id="Layer_2" data-name="Layer 2" transform="translate(3911.531 6120.043)">
      <g id="Layer_1" data-name="Layer 1" transform="translate(0 0)">
        <path id="Path_472526" data-name="Path 472526" d="M565.3.007q47.943-.015,95.893,0,.015,15.5,0,30.989-47.945.015-95.893,0Q565.287,15.5,565.3.007Z" transform="translate(-527.507 0)" fill="#fff"/>
        <path id="Path_472527" data-name="Path 472527" d="M.04,637.54q15.468-.08,30.941,0,.08,15.468,0,30.941-15.472.079-30.941,0Q-.04,653.013.04,637.54Z" transform="translate(0 -594.885)" fill="#fff"/>
        <path id="Path_472528" data-name="Path 472528" d="M565.266,637.587q34.6-.074,69.2,0,.074,15.468,0,30.941-34.6.072-69.2,0Q565.194,653.059,565.266,637.587Z" transform="translate(-527.446 -594.932)" fill="#fff"/>
        <path id="Path_472529" data-name="Path 472529" d="M565.136,1275.059q15.442-.168,30.878,0,.16,15.432,0,30.878-15.442.152-30.877-.005Q564.981,1290.5,565.136,1275.059Z" transform="translate(-527.287 -1189.747)" fill="#fff"/>
      </g>
    </g>
  </g>
</svg>
