<?xml version="1.0" encoding="utf-8"?>
<!-- Generator: Adobe Illustrator 22.0.0, SVG Export Plug-In . SVG Version: 6.00 Build 0)  -->
<svg version="1.1" id="FUEL" xmlns="http://www.w3.org/2000/svg" xmlns:xlink="http://www.w3.org/1999/xlink" x="0px" y="0px"
	 viewBox="0 0 490 490" style="enable-background:new 0 0 490 490;" xml:space="preserve">
<style type="text/css">
	.st0{fill:#3D4C7C;}
	.st1{fill:#FFFFFF;}
</style>
<path id="Full" class="st0" d="M0,245c0,135.1,109.9,245,245,245s245-109.9,245-245S380.1,0,245,0S0,109.9,0,245z"/>
<path id="FUEL-2" class="st1" d="M378.9,223.6h-58.5l18.5-43.8h39.5c2.6,0.5,4.1,2.1,4.1,4.1V220C383,222,381.5,223.6,378.9,223.6z
	 M263,224.1H158.8v-45.4h105.7l15.9-42.8H119.8c-4.6,0.5-6.7,2.6-6.7,7.2v80.9H86.4L71,266.9h42.1v79.9c0,0,0,8.8,8.7,8.2h74.9
	l16.4-42.3h-53.9v-46.4h88.3L212.7,355h51.8l35.4-88.1c0,0,102.1,1.5,110.9,0c5-0.8,8.8-4.8,9.2-9.8V144.2c0-5.7-2.6-8.2-7.7-7.7
	H297.9L263,224.1z"/>
</svg>
