<svg id="FUEL" xmlns="http://www.w3.org/2000/svg" width="512" height="512" viewBox="0 0 512 512">
<defs>
    <style>
      .cls-1 {
        fill: #3d4c7c;
      }

      .cls-1, .cls-2 {
        fill-rule: evenodd;
      }

      .cls-2 {
        fill: #fff;
      }
    </style>
  </defs>
  <path id="Full" class="cls-1" d="M11,256c0,135.094,109.906,245,245,245S501,391.094,501,256,391.094,11,256,11,11,120.906,11,256Z"/>
  <path id="FUEL-2" data-name="FUEL" class="cls-2" d="M389.941,234.574H331.432l18.477-43.806h39.519c2.566,0.515,4.106,2.061,4.106,4.123v36.075C394.047,233.028,392.507,234.574,389.941,234.574Zm-115.991.515H169.763V189.737H275.49l15.91-42.776H130.757c-4.619.516-6.672,2.577-6.672,7.215v80.913H97.4L82,277.865h42.085v79.882s0,8.761,8.725,8.246h74.933l16.423-42.26h-53.89V277.349h88.277l-34.9,88.644H275.49L310.9,277.865s102.134,1.546,110.859,0A10.955,10.955,0,0,0,431,268.073V155.207q0-8.5-7.7-7.73H308.85Z"/>
</svg>
