<?xml version="1.0" encoding="utf-8"?>
<!-- Generator: Adobe Illustrator 22.0.0, SVG Export Plug-In . SVG Version: 6.00 Build 0)  -->
<svg version="1.1" id="FunFair" xmlns="http://www.w3.org/2000/svg" xmlns:xlink="http://www.w3.org/1999/xlink" x="0px" y="0px"
	 viewBox="0 0 245 245" style="enable-background:new 0 0 245 245;" xml:space="preserve">
<style type="text/css">
	.st0{fill:#E42C84;}
	.st1{fill:#FFFFFF;}
</style>
<path id="Main" class="st0" d="M0,122.5C0,190,55,245,122.5,245S245,190,245,122.5S190,0,122.5,0S0,55,0,122.5z"/>
<path id="Left" class="st1" d="M122.5,71.5c-50.5,2.1-54.7,52.3-49.5,65c5.4-3.9,34.5-26.5,34.5-26.5l24,30L97,167
	c0,0,27.3,34.8,34.9,44.5c-3.1,0.3-6.2,0.5-9.4,0.5C73.1,212,33,171.9,33,122.5C33,83.3,58.5,48.6,96,37
	C101.8,44.6,114.7,61.4,122.5,71.5z"/>
<path id="Right" class="st1" d="M122.4,173.5c50.5-2.1,54.8-52.3,49.6-65c-5.4,3.9-34.5,26.5-34.5,26.5l-24-30l34.5-27
	c0,0-27.3-34.8-34.9-44.5c3.1-0.3,6.2-0.5,9.4-0.5c49.5,0,89.6,40.1,89.6,89.5c0,40.2-26.5,74.2-63.1,85.5
	C143.1,200.4,130.2,183.6,122.4,173.5z"/>
</svg>
