<svg id="FunFair" xmlns="http://www.w3.org/2000/svg" width="256" height="256" viewBox="0 0 512 512">
<defs>
    <style>
      .cls-1 {
        fill: #e42c84;
      }

      .cls-1, .cls-2 {
        fill-rule: evenodd;
      }

      .cls-2 {
        fill: #fff;
      }
    </style>
  </defs>
  <path id="Main" class="cls-1" d="M11,256c0,135.094,109.906,245,245,245S501,391.094,501,256,391.094,11,256,11,11,120.906,11,256Z"/>
  <path id="Left" class="cls-2" d="M256,154c-100.939,4.185-109.431,104.58-99,130,10.883-7.736,69-53,69-53l48,60-69,54s54.515,69.522,69.737,89.031A180.936,180.936,0,0,1,256,435,179.029,179.029,0,0,1,202.984,84.981C214.673,100.17,240.445,133.751,256,154Z"/>
  <path id="Right" class="cls-2" d="M255.774,357.975C356.84,353.79,365.343,253.4,354.9,227.987c-10.9,7.735-69.087,53-69.087,53l-48.061-60,69.087-53.995s-54.584-69.516-69.825-89.023A181.54,181.54,0,0,1,255.774,77C354.758,77,435,157.134,435,255.984c0,80.394-53.076,148.408-126.143,171C297.153,411.8,271.348,378.222,255.774,357.975Z"/>
</svg>
