<?xml version="1.0" encoding="UTF-8"?>
<svg id="Layer_1" xmlns="http://www.w3.org/2000/svg" version="1.1" viewBox="0 0 250 250">
  <!-- Generator: Adobe Illustrator 29.0.1, SVG Export Plug-In . SVG Version: 2.1.0 Build 192)  -->
  <defs>
    <style>
      .st0 {
        fill: #268aee;
      }

      .st1 {
        fill: #fff;
        fill-rule: evenodd;
      }
    </style>
  </defs>
  <circle class="st0" cx="125" cy="125" r="122.5"/>
  <g>
    <path class="st1" d="M48.6,166.2c2.1,1.1,4.8,2.8,6.8,4.1.7.5,1.5.9,2.3,1.4.4.3.7.4,1.1.7.2.1.4.3.6.4.2.1.4.2.6.3l25.1,15.5c.4.2.7.4,1.1.7l22.8,14.1c.3.2.4.2.6.4l10.9,6.7c.5.3.7.6,1.2.6v-85.1l-3.5-2c-.3-.2-.5-.3-.8-.5l-2.7-1.6c-3.8-2-7.4-4.5-11.3-6.5-.4-.2-.5-.3-.9-.5l-3.5-2c-.8-.5-4.7-2.8-5.4-3v13.4l14.2,8.2c.4.2.7.4,1,.6.4.2.6.4,1.1.5v57.6c-2.5-1.7-5.1-3.2-7.7-4.7l-6.2-3.8c-2.5-1.7-5.2-3.1-7.7-4.8-.3-.2-.5-.3-.8-.5l-5.4-3.4c-.6-.3-1-.6-1.6-1-2-1.3-4.1-2.5-6.2-3.8-.6-.4-1-.6-1.6-.9-3-2-6.2-3.8-9.3-5.7-.3-.2-.5-.3-.7-.5l-2.4-1.5v-69.2c-.5-.3-.9-.6-1.4-.8-.5-.3-.9-.5-1.4-.8l-7.3-4.2c-.6-.3-1-.6-1.5-.9v82.6h0Z"/>
    <path class="st1" d="M128.6,125.7v32.7l4.3-2.4c2-1,3.8-2.3,5.8-3.4.4-.2.5-.3.8-.5.3-.2.5-.3.8-.4v-19.3c.4,0,.5-.2.8-.4s.5-.3.8-.4c1.5-.9,3-1.9,4.6-2.7,2.1-1,4.1-2.3,6.2-3.6.5-.3.9-.6,1.5-.9l3.1-1.7c.3-.2.4-.3.8-.5,1.3-.7,2.6-1.6,3.9-2.3l1.5-.9c.3-.2.5-.3.8-.4l10-5.8c2.1-1.1,4.1-2.4,6.2-3.6l3.1-1.8c1-.6,2.1-1.2,3.1-1.8.6-.3,1-.6,1.5-.9l1.6-.9v55.8c-.5,0-.6.3-1,.5l-2.9,1.8c-.3.2-.5.4-.9.6-.4.2-.7.4-1,.6-.4.2-.6.4-.9.6l-2.9,1.7c-2.6,1.5-5.1,3.2-7.7,4.7l-7.6,4.7c-.4.2-.6.3-.9.6-3.4,2.3-7.1,4.2-10.5,6.5-.6.4-1.3.8-1.9,1.2l-9.6,5.9c-.3.2-.6.4-.9.6-2.8,1.9-5.8,3.5-8.6,5.3l-3.9,2.4v13.7c.7-.2,1.7-.9,2.3-1.3.8-.5,1.5-.9,2.3-1.4,2.2-1.5,4.6-2.7,6.8-4.1.4-.3.8-.5,1.1-.7l5.8-3.6c.4-.2.7-.4,1.1-.7l30.7-18.9c.4-.3.8-.5,1.1-.7l20.5-12.6c.4-.3.8-.5,1.2-.7v-82.4c-.6.1-.7.3-1.1.6-.4.2-.7.4-1.1.6l-6.8,3.9c-2.3,1.2-4.5,2.8-6.8,3.9l-18.2,10.5c-.8.5-1.5.9-2.3,1.3l-3.4,2c-2.4,1.2-5.8,3.3-8,4.6-.4.3-.7.4-1.1.6l-7.4,4.3c-.3.2-.3.2-.6.4l-2.3,1.3c-1.4.7-2.6,1.6-3.9,2.3-.3.2-.3.2-.6.4l-2.3,1.3c-1.5.8-5.6,3.6-6.8,3.8h0Z"/>
    <path class="st1" d="M53.1,78.2c.5,0,.7.4,1.1.6,1.5.8,2.9,1.8,4.5,2.6l12.4,7.2c5.9,3.6,12,6.8,18,10.4l1.1.6c.4.2.7.4,1.1.6l6.8,3.9c.3.2.3.2.5.3,3.2,1.9,6.5,3.6,9.6,5.5l10,5.8c.4.2.7.4,1.1.7,1.2.7,5.4,3.3,5.8,3.3.6,0,4.2-2.3,5.1-2.8l1.8-1c.6-.4,1.1-.6,1.7-.9.6-.4,1.1-.6,1.7-1l3.4-2c.6-.4,1.1-.6,1.7-1l5.2-2.9c.3-.2.6-.3.8-.5.3-.2.5-.3.8-.5l3.5-2c.6-.3,1.2-.8,1.8-1,0-.4-.2-.4-.5-.6l-11.1-6.4c-4.4,2.3-8.6,5-12.9,7.4-.4.2-.7.4-1,.6-.7.4-1.3.8-2,1.2l-6.7-3.8c-2.3-1.2-4.4-2.7-6.8-3.9-.5-.3-1-.6-1.5-.9l-13.5-7.8c-.3-.2-.5-.3-.8-.5-.3-.2-.5-.3-.8-.4l-17.3-10c-.3-.2-.4-.3-.8-.4.4-.5.8-.6,1.4-.9.5-.3.9-.5,1.5-.8l15-8.1c.3-.2.3-.2.7-.4s.5-.2.8-.4c.5-.3,1-.6,1.6-.8l18.8-10.1c.3-.2.4-.3.8-.5l7.6-4.1c.4,0,6.2,3.4,7.5,4,.3.2.6.3.9.5.4.2.5.3.9.5l20.7,11.2c1.8,1.1,7.4,4,9.3,5,2.2,1.1,4.3,2.4,6.6,3.6l12.3,6.7c.4.2.6.3.9.5,1.5.9,1.5.1,3.9-1.2l4.4-2.5c.8-.4,3.8-2.3,4.4-2.5-.1-.4-.5-.6-.9-.8l-4.5-2.4c-2.3-1.1-4.5-2.5-6.8-3.6l-4.5-2.4c-1.5-.8-3.1-1.5-4.5-2.4l-22.5-12.2c-.5-.2-.7-.4-1.1-.6l-9.1-4.9c-.4-.2-.7-.4-1.1-.6-.2-.1-.3-.2-.5-.3l-11.9-6.5c-.8-.5-4.2-2.4-4.7-2.4s-2.9,1.5-3.4,1.8l-25.8,14c-.4.2-.8.4-1.1.6l-18.1,9.8c-.4.2-.6.4-1.1.6l-1.6.9c-.3.2-.3.2-.6.4-.4.2-.8.3-1.1.6l-3.5,1.9c-.5.2-.7.4-1.1.6l-5.3,2.9c-.2,0-.2,0-.4.2-.8.4-1.5.7-2.3,1.2-.4.3-.7.4-1.1.6l-5.1,2.8c-.4.2-.3,0-.4.5h0Z"/>
  </g>
</svg>