<svg xmlns="http://www.w3.org/2000/svg" xmlns:xlink="http://www.w3.org/1999/xlink" width="250" height="250" xmlns:v="https://vecta.io/nano"><defs><linearGradient id="A" x1="17.336" x2="80" y1="74.339" y2="74.339" xlink:href="#V"><stop offset="0" stop-color="#000040"/><stop offset=".325" stop-color="#000043"/><stop offset=".585" stop-color="#00004d"/><stop offset=".823" stop-color="#00005e"/><stop offset="1" stop-color="#000070"/></linearGradient><linearGradient id="B" x1="32.471" x2="32.471" y1="68.707" y2="79.968" xlink:href="#V"><stop offset=".35" stop-color="#00209f"/><stop offset=".645" stop-color="#001f9d"/><stop offset=".752" stop-color="#001d96"/><stop offset=".828" stop-color="#00198b"/><stop offset=".889" stop-color="#00137a"/><stop offset=".941" stop-color="#000c64"/><stop offset=".987" stop-color="#000349"/><stop offset="1" stop-color="#000040"/></linearGradient><linearGradient xlink:href="#B" id="C" x1="60.911" x2="60.911"/><linearGradient id="D" x1="17.394" x2="17.394" y1="68.684" y2="80.001" xlink:href="#V"><stop offset=".35" stop-color="#dfdfdf"/><stop offset=".645" stop-color="#ddd"/><stop offset=".752" stop-color="#d6d6d6"/><stop offset=".828" stop-color="#cbcbcb"/><stop offset=".889" stop-color="#bababa"/><stop offset=".941" stop-color="#a4a4a4"/><stop offset=".987" stop-color="#898989"/><stop offset="1" stop-color="gray"/></linearGradient><linearGradient xlink:href="#B" id="E" x1="48.723" x2="48.723"/><linearGradient xlink:href="#D" id="F" x1="46.239" x2="46.239" y1="68.69" y2="80"/><linearGradient xlink:href="#D" id="G" x1="20.944" x2="20.944" y1="68.691" y2="80"/><linearGradient id="H" x1="46.182" x2="46.182" y1="68.69" y2="80" xlink:href="#V"><stop offset=".35" stop-color="#bf1010"/><stop offset=".645" stop-color="#bd1010"/><stop offset=".752" stop-color="#b60f0f"/><stop offset=".828" stop-color="#ab0d0d"/><stop offset=".889" stop-color="#9a0a0a"/><stop offset=".941" stop-color="#840606"/><stop offset=".987" stop-color="#690202"/><stop offset="1" stop-color="#600000"/></linearGradient><linearGradient xlink:href="#H" id="I" x1="19.775" x2="19.775"/><linearGradient xlink:href="#D" id="J" x1="74.36" x2="74.36" y1="68.69"/><linearGradient id="K" x1="17.336" x2="80" y1="55.314" y2="55.314" xlink:href="#V"><stop offset="0" stop-color="#00209f"/><stop offset=".021" stop-color="#0222a1"/><stop offset=".244" stop-color="#1333b2"/><stop offset=".487" stop-color="#1d3dbc"/><stop offset=".791" stop-color="#2040bf"/><stop offset=".841" stop-color="#1e3dbc"/><stop offset=".882" stop-color="#1933b2"/><stop offset=".919" stop-color="#1122a1"/><stop offset=".954" stop-color="#050a89"/><stop offset=".966" stop-color="#00007f"/><stop offset="1" stop-color="#2040bf"/></linearGradient><linearGradient id="L" x1="17.336" x2="80" y1="55.314" y2="55.314" xlink:href="#V"><stop offset="0" stop-color="#dfdfdf"/><stop offset=".021" stop-color="#e1e1e1"/><stop offset=".244" stop-color="#f2f2f2"/><stop offset=".487" stop-color="#fcfcfc"/><stop offset=".791" stop-color="#fff"/><stop offset=".841" stop-color="#fcfcfc"/><stop offset=".882" stop-color="#f2f2f2"/><stop offset=".919" stop-color="#e1e1e1"/><stop offset=".954" stop-color="#c9c9c9"/><stop offset=".966" stop-color="#bfbfbf"/><stop offset="1" stop-color="#fff"/></linearGradient><linearGradient id="M" x1="17.336" x2="80" y1="56.115" y2="56.115" xlink:href="#V"><stop offset="0" stop-color="#bf1010"/><stop offset=".021" stop-color="#c11212"/><stop offset=".244" stop-color="#d22323"/><stop offset=".487" stop-color="#dc2d2d"/><stop offset=".791" stop-color="#df3030"/><stop offset=".841" stop-color="#dc2e2e"/><stop offset=".882" stop-color="#d22626"/><stop offset=".919" stop-color="#c11919"/><stop offset=".954" stop-color="#a90808"/><stop offset=".966" stop-color="#9f0000"/><stop offset="1" stop-color="#df3030"/></linearGradient><linearGradient xlink:href="#M" id="N" x1="17.338" y1="39.67" y2="39.67"/><linearGradient xlink:href="#M" id="O" x2="80.001" y1="44.717" y2="44.717"/><linearGradient xlink:href="#M" id="P" x1="17.337" y1="67.399" y2="67.399"/><linearGradient xlink:href="#M" id="Q" x1="17.337" y1="71.77" y2="71.77"/><linearGradient xlink:href="#B" id="R"/><linearGradient xlink:href="#D" id="S"/><linearGradient xlink:href="#H" id="T"/><linearGradient xlink:href="#M" id="U"/><linearGradient id="V" gradientUnits="userSpaceOnUse"/></defs><circle cx="125" cy="125" r="125" fill="#cdcdcd" fill-rule="evenodd"/><g transform="matrix(2.410829 0 0 2.417334 27.124026 21.609157)"><path fill="#0e3ca5" d="M32.585 59.26c2 7.4 9.176 13.045 12.8 12.812.127-.009 13.745-2.547 21.2-15 5.8-9.693 3.826-19.05-4.064-19.254-2.839.207-33.745 7.348-29.934 21.445m29.198-47.528l-.008-.007.011-.006a34.632 34.632 0 0 0-36.5-5.267A20.236 20.236 0 0 0 23.1 7.53c-.486.258-.972.516-1.444.8l.115.035a15.78 15.78 0 0 0-3.655 3.46C8.172 24.953 41.486 34.5 59.3 34.528c8.191 5.883 10.491-16.56 2.485-22.793z"/><path fill="#5493f7" d="M27.3 12C22.723 18.88 7.478 23.727 4.971 22.972l-.017-.032q.155-.311.313-.618a36.676 36.676 0 0 1 10.87-12.684q1.407-1.03 2.913-1.928a10.8 10.8 0 0 1 5.04-1.343c6.789.13 3.244 5.58 3.207 5.635m-3.753 48.611c.329 2.162-.008 10.7-.45 11.418-.381.024-1.174.072-3.471-1.217a36.438 36.438 0 0 1-17.952-25.8 36.9 36.9 0 0 1 0-11.841 36.275 36.275 0 0 1 1.383-5.616q.183-.55.383-1.093c2.631 3.5 5.676 6.665 8.264 10.2 2.465 3.366 5.856 8.852 6.546 10.024 4.284 7.278 4.967 11.768 5.294 13.925m50.648-21.519A36.4 36.4 0 0 1 71.648 52.5c-4.3 4.62-33.283-6.753-33.567-6.877C34.116 43.886 22.05 38.6 20.961 30.3 19.4 18.351 43.63 10.027 54.28 9.711c1.277.015 5.163.06 7.429 1.9a36.411 36.411 0 0 1 12.48 27.482M54.568 71.467c-3.16 1.474-6.638.4-5.734-2.677 1.735-5.908 16.886-11.967 20.232-12.3.413-.04.588.241.405.561a36.866 36.866 0 0 1-14.9 14.411"/><path fill="url(#A)" d="M17.336 77.255a2.552 2.552 0 0 0 2.329 2.713c30.7.21 60.335-1.2 60.335-5.8 0-13.924-62.664 3.087-62.664 3.087z"/><path fill="url(#R)" d="M43.793 78.027L38.169 72.4a374.659 374.659 0 0 0-17.019 3.864l3.4 3.4c6.65-.238 13.163-.864 19.243-1.637z"/><path fill="url(#C)" d="M73.485 73.478l-4.765-4.765a116.042 116.042 0 0 0-20.383 1.831l5.973 5.972 19.175-3.038z"/><path fill="url(#S)" d="M17.446 78.014l-.111-.759a3.092 3.092 0 0 0 .116.8l-.005-.037z"/><path fill="url(#E)" d="M79.519 74.3c0 4.244-29.172 5.7-59.841 5.493a2.194 2.194 0 0 1-.245-.014 2.354 2.354 0 0 1-1.845-1.388v-.007a2.516 2.516 0 0 1-.137-.367l.005.037a2.408 2.408 0 0 0 2.225 1.916c30.691.233 60.286-.731 60.323-5.8z"/><path fill="url(#F)" d="M54.31 76.516l-5.973-5.972c-3.451.559-6.9 1.2-10.168 1.859l5.624 5.624c3.685-.468 7.212-.989 10.517-1.511z"/><path fill="url(#G)" d="M17.584 78.382v.007a2.333 2.333 0 0 0 2.087 1.387 160.92 160.92 0 0 0 4.876-.108l-3.4-3.4-3.814.988.111.759a2.516 2.516 0 0 0 .14.367z"/><path fill="url(#T)" d="M46.256 70.894l-6.1 1.116 5.744 5.739q3.252-.436 6.306-.906z"/><path fill="url(#I)" d="M17.336 77.255l.111.759a2.516 2.516 0 0 0 .137.367v.007c.021.043.046.083.069.125l1.012 1.012a2.215 2.215 0 0 0 1.006.25q1.272-.007 2.539-.038l-2.981-2.982-1.893.5z"/><path fill="url(#J)" d="M68.72 68.713l4.765 4.765c3.829-.437 6.034-.322 6.034.82l.481-.129c0-3.769-4.59-5.269-11.28-5.456z"/><path fill="url(#K)" d="M19.68 37.823a2.343 2.343 0 0 0-2.344 2.343v37.089a2.344 2.344 0 0 0 2.329 2.345C50.363 79.37 80.037 69.209 80 74.169V32.394c.037-4.961-29.626 5.199-60.32 5.429z"/><path fill="url(#L)" d="M80 74.169v-4.63a3.8 3.8 0 0 0-1.4-2.948 10.6 10.6 0 0 0-2.7-1.65l-2.693-1.16-2.207-1.1a259.992 259.992 0 0 0-4.816-2.454l3.033-.5 2.633-.392 2.921-.351a16.186 16.186 0 0 1 3.334-.021c1.02.135 1.891.45 1.891 1.321V46.359c0-.872-.871-1.185-1.891-1.319a16.047 16.047 0 0 0-3.334.021l-2.922.35-2.633.392-3.032.5 3.032-2.527 2.634-2.153a29.506 29.506 0 0 1 2.925-2.023A19.638 19.638 0 0 1 80 37.1v-4.71c.011-1.45-2.518-1.607-6.865-1.1l-.02.02c-1.119.777-1.921 1.5-2.768 2.19l-2.424 2-2.246 1.881-2.155 1.822-2.161 1.819-2.252 1.89-2.43 2.041-2.688 2.249V34.415L43.53 35.987v12.771a345.544 345.544 0 0 1-5.805-3.176l-2.539-1.431a320.3 320.3 0 0 1-5.005-2.897l-2.74-1.644-3.069-1.9q-2.339.09-4.692.111a2.343 2.343 0 0 0-2.344 2.343v2.366a271.398 271.398 0 0 0 5.711 3.691 261.488 261.488 0 0 0 8.221 5.014 163.82 163.82 0 0 1-5.707.352l-2.515.1a162.35 162.35 0 0 1-5.71.103v13.921l3.054-.031 2.655-.072 2.515-.1 2.654-.139 3.053-.215a288.567 288.567 0 0 1-4.85 3.536L24.3 70.191l-2.115 1.477-2.271 1.561-2.581 1.736v2.29a2.344 2.344 0 0 0 2.332 2.345q2.358-.018 4.7-.11l2.709-1.925a302.24 302.24 0 0 0 6.871-5.077l2.173-1.649 2.265-1.739 2.437-1.9 2.707-2.138v12.7c3.655-.487 7.16-1.029 10.457-1.571V63.514l3.055 1.53 2.727 1.356 2.528 1.249 2.453 1.209a287.005 287.005 0 0 1 5.241 2.638c.955.493 1.834 1.023 3.095 1.584 4.379-.519 6.928-.366 6.917 1.089z"/><path fill="url(#U)" d="M80 49.143c0-.885-.934-1.225-2.095-1.344a19.329 19.329 0 0 0-3.774.107l-3.012.393-2.607.4-2.541.423-2.539.446-2.614.454-2.75.473-2.944.5-3.23.516V34.752l-6.267.944v16.758a291.605 291.605 0 0 1-6.827.847l-3.021.313-2.879.268-2.832.228-2.881.182-3.017.136-3.254.1-3.581.041v8.356l3.581-.042 3.253-.1 3.018-.136 2.882-.183 2.831-.228 2.879-.267 3.02-.313 3.245-.382 3.58-.464v16.663l6.268-.944V59.87l3.23-.516 2.946-.5 2.75-.472 2.613-.453 2.54-.447 2.542-.424 2.606-.4 3.012-.392a19.42 19.42 0 0 1 3.775-.108c1.161.12 2.094.458 2.094 1.344z"/><path fill="url(#N)" d="M72.428 33.374l-2.656 2.159-2.455 2.036-2.358 1.982-2.359 1.992-2.463 2.069-2.658 2.231-2.94 2.466 2.323-.391 2.333-.4 2.952-2.477L64.8 42.8l2.456-2.063 2.358-1.956 2.357-1.926C77.343 32.809 80 32.3 80 32.433v-.039c.008-1.076-1.382-1.44-3.876-1.349h-.008a20.819 20.819 0 0 0-3.688 2.329z"/><path fill="url(#O)" d="M23.007 44.637a327.53 327.53 0 0 0 2.466 1.547 252.7 252.7 0 0 0 5.124 3.1l3.012 1.75 2.344-.221 2.345-.241a437.65 437.65 0 0 1-5.635-3.197 296.445 296.445 0 0 1-4.845-2.866 257.324 257.324 0 0 1-4.843-3.006l-2.671-1.7-2.149-1.4a2.327 2.327 0 0 0-.819 1.766v.809l3.016 1.971 2.655 1.688z"/><path fill="url(#P)" d="M78.571 68.121a10.913 10.913 0 0 0-2.778-1.674l-2.726-1.174-2.167-1.092-2.139-1.1-2.309-1.164-2.591-1.281-2.331.407-2.333.4 2.64 1.307 2.395 1.182 2.221 1.1 2.12 1.068 2.083 1.072 2.154 1.115 2.817 1.2a11.533 11.533 0 0 1 2.9 1.712 3.863 3.863 0 0 1 1.463 2.884c0 .028.008.054.008.083V71.1a3.815 3.815 0 0 0-1.427-2.979z"/><path fill="url(#Q)" d="M27.657 75.588a287.37 287.37 0 0 0 4.846-3.566 577.478 577.478 0 0 0 4.846-3.681 515.716 515.716 0 0 0 5.626-4.398l-2.34.288-2.339.265-2.966 2.272-2.667 2.017-2.471 1.841-2.374 1.733-2.376 1.7-2.471 1.736a330.712 330.712 0 0 1-4.771 3.263 2.323 2.323 0 0 0 1.464.539q1.187-.009 2.37-.039a356.183 356.183 0 0 0 5.623-3.97z"/></g></svg>