<?xml version="1.0" encoding="utf-8"?>
<!-- Generator: Adobe Illustrator 22.0.0, SVG Export Plug-In . SVG Version: 6.00 Build 0)  -->
<svg version="1.1" id="Best_Buy" xmlns="http://www.w3.org/2000/svg" xmlns:xlink="http://www.w3.org/1999/xlink" x="0px" y="0px"
	 viewBox="0 0 472 350" style="enable-background:new 0 0 472 350;" xml:space="preserve">
<style type="text/css">
	.st0{fill:#0046BE;}
	.st1{fill:#FFED31;}
	.st2{fill:#FFFFFF;}
</style>
<path id="Card" class="st0" d="M20,43h432c11,0,20,9,20,20v224c0,11-9,20-20,20H20c-11,0-20-9-20-20V63C0,52,9,43,20,43z"/>
<circle id="Round" class="st0" cx="236" cy="175" r="175"/>
<path id="Tag" class="st1" d="M342.8,220.7L328.5,235v19.3l14.3,14.3h60.5v-47.9H342.8z"/>
<path id="Best_Buy-2" class="st2" d="M106,96.2V172h39.7c15.6,0,30.1-5.5,30.1-21.6c0-10.9-7.8-15.9-16.5-18.5
	c5.3-2.1,11.2-6.5,11.2-15.8c0-11.9-11.8-19.9-27.7-19.9C142.8,96.2,106,96.2,106,96.2z M130.3,113.8h8.9c3.6,0,6.4,2.8,6.4,5.7
	c0,2.7-2.9,5.6-6.4,5.6h-8.9V113.8L130.3,113.8L130.3,113.8z M130.3,140.9h11.8c4.1,0,7.6,3.1,7.6,6.7c0,3.8-3.2,6.9-8.3,6.9h-11.1
	V140.9L130.3,140.9L130.3,140.9z M125.7,180.2V256h39.7c15.6,0,30.1-5.5,30.1-21.6c0-10.9-7.8-15.9-16.5-18.5
	c5.3-2.1,11.2-6.5,11.2-15.8c0-11.9-11.8-19.9-27.7-19.9L125.7,180.2L125.7,180.2z M150,197.9h8.9c3.6,0,6.4,2.8,6.4,5.7
	c0,2.7-2.9,5.6-6.4,5.6H150V197.9L150,197.9L150,197.9z M150,224.9h11.8c4.1,0,7.6,3.1,7.6,6.7c0,3.8-3.2,6.9-8.3,6.9H150V224.9
	L150,224.9L150,224.9z M177.7,171.9V96.2h61.2v18.3h-36.9v9.9h30v17.2h-30v12.2h36.9v18.2L177.7,171.9L177.7,171.9z M272,174.1
	c17.2,0,31-9.8,31-25.7c0-25.7-33.4-21.7-33.4-29.7c0-3.1,3.2-4.7,6.6-4.7c3.6,0.1,7.1,1.4,9.9,3.8l14.4-13.7
	c-5.7-5.5-14.8-10.1-27.1-10.1c-18.4,0-30.4,10.9-30.4,24c0,26,32.9,22.2,32.9,30.4c0,2.9-2.8,5.7-7.7,5.7c-5.7,0-10.2-3.4-13.6-6.3
	L240,161.6C245.8,167.3,255.2,174.1,272,174.1L272,174.1z M321.7,171.9v-57.5h-20V96.2H366v18.2h-20v57.5L321.7,171.9L321.7,171.9z
	 M196.3,180.2h24.2v45.4c0,4.6,4.6,8.9,9.4,8.9c5-0.1,9-4.1,9.1-9.1v-45.2h24.2V225c0,17.8-14.8,32-33.9,32
	c-18.1,0.1-32.9-14.5-33-32.5c0-0.1,0-0.3,0-0.4V180.2z M293,255.9v-27.1l-28.5-48.7h24.5l16.1,26.1l16.2-26.1H346l-28.6,49v26.8
	L293,255.9L293,255.9z"/>
<path id="Dot" class="st0" d="M342.6,244.6c0,1.8-1.4,3.2-3.2,3.2c-1.8,0-3.2-1.4-3.2-3.2c0-1.8,1.4-3.2,3.2-3.2c0,0,0,0,0,0
	C341.2,241.4,342.6,242.8,342.6,244.6z"/>
</svg>
