<svg id="Best_Buy" data-name="Best Buy" xmlns="http://www.w3.org/2000/svg" width="500" height="350" viewBox="0 0 500 350">
  <defs>
    <style>
      .cls-1, .cls-4 {
        fill: #0046be;
      }

      .cls-2 {
        fill: #ffed31;
      }

      .cls-2, .cls-3, .cls-4 {
        fill-rule: evenodd;
      }

      .cls-3 {
        fill: #fff;
      }
    </style>
  </defs>
  <rect id="Card" class="cls-1" x="14" y="43" width="472" height="264" rx="20" ry="20"/>
  <circle id="Round" class="cls-1" cx="250" cy="175" r="175"/>
  <path id="Tag" class="cls-2" d="M356.827,220.688l-14.3,14.306v19.312l14.3,14.306h60.5V220.688h-60.5Z"/>
  <path id="Best_Buy-2" data-name="Best Buy" class="cls-3" d="M120,96.175v75.779h39.7c15.625,0,30.064-5.481,30.064-21.581,0-10.884-7.845-15.853-16.473-18.453,5.257-2.108,11.22-6.536,11.22-15.817,0-11.88-11.793-19.928-27.672-19.928H120Zm24.319,17.649h8.941c3.64,0,6.415,2.849,6.415,5.741,0,2.687-2.884,5.563-6.415,5.563h-8.941v-11.3h0Zm0,27.032h11.8c4.12,0,7.577,3.127,7.577,6.7,0,3.8-3.233,6.948-8.292,6.948H144.319v-13.65h0ZM139.67,180.22V256h39.7c15.625,0,30.064-5.481,30.064-21.581,0-10.884-7.845-15.853-16.474-18.453,5.258-2.108,11.221-6.536,11.221-15.817,0-11.88-11.793-19.928-27.672-19.928H139.67Zm24.319,17.649h8.941c3.64,0,6.415,2.849,6.415,5.741,0,2.687-2.884,5.563-6.415,5.563h-8.941v-11.3h0Zm0,27.032h11.8c4.12,0,7.577,3.127,7.577,6.7,0,3.8-3.233,6.948-8.292,6.948H163.989V224.9h0Zm27.681-52.956V96.166h61.155v18.3H215.917V124.4h29.97v17.158h-29.97v12.153h36.908v18.23H191.67Zm94.284,2.169c17.214,0,30.983-9.814,30.983-25.718,0-25.666-33.407-21.717-33.407-29.708,0-3.087,3.248-4.725,6.579-4.725a16.105,16.105,0,0,1,9.888,3.78l14.373-13.678C308.621,98.6,299.542,94,287.312,94c-18.368,0-30.385,10.9-30.385,24.04,0,25.993,32.926,22.22,32.926,30.376,0,2.859-2.752,5.735-7.743,5.735-5.667,0-10.156-3.419-13.65-6.32L254,161.606C259.825,167.274,269.17,174.114,285.954,174.114Zm49.7-2.169V114.4H315.626V96.166H380V114.4H359.972v57.549H335.653Zm-125.386,8.221h24.247v45.4c0,4.61,4.591,8.858,9.376,8.858a9.256,9.256,0,0,0,9.078-9.1V180.166h24.176v44.845c0,17.8-14.781,31.989-33.894,31.989a32.765,32.765,0,0,1-32.983-32.959V180.166Zm96.776,75.779V228.867l-28.5-48.7h24.533L319.2,206.26l16.182-26.094h24.588l-28.61,48.98v26.8H307.043Z"/>
  <path id="Dot" class="cls-4" d="M356.623,244.579a3.219,3.219,0,1,1-3.219-3.217A3.218,3.218,0,0,1,356.623,244.579Z"/>
</svg>
