<?xml version="1.0" encoding="utf-8"?>
<!-- Generator: Adobe Illustrator 22.0.0, SVG Export Plug-In . SVG Version: 6.00 Build 0)  -->
<svg version="1.1" id="Home_Depot" xmlns="http://www.w3.org/2000/svg" xmlns:xlink="http://www.w3.org/1999/xlink" x="0px" y="0px"
	 viewBox="0 0 472 350" style="enable-background:new 0 0 472 350;" xml:space="preserve">
<style type="text/css">
	.st0{fill:#F96302;}
	.st1{fill:#FFFFFF;}
</style>
<path id="Card" class="st0" d="M20,43h432c11,0,20,9,20,20v224c0,11-9,20-20,20H20c-11,0-20-9-20-20V63C0,52,9,43,20,43z"/>
<circle id="Round" class="st0" cx="236" cy="175" r="175"/>
<path id="Home_Depot-2" class="st1" d="M187,176.3c-2.2,4.7-0.3,7.2,1.6,9l38.1,38.1c1.8,1.8,4.3,3.7,9,1.5l4.3,4.3
	c-16.9,14.2-36.8,8.8-51.4-5.8s-19.9-34.5-5.8-51.4L187,176.3z M239,221.7c2.2-4.7,0.3-7.2-1.6-9l-38.1-38.1c-1.8-1.8-4.3-3.7-9-1.5
	l-4.3-4.3c16.9-14.2,36.8-8.9,51.4,5.8s19.9,34.5,5.8,51.4L239,221.7z M320,142.4c-1-1-2.5-1.1-3.6-0.4c-3.4,1.8-3.7,1.2-6.5-1.5
	L271.4,102c-2.7-2.7-3.2-3.1-1.5-6.5c0.7-1.1,0.6-2.6-0.4-3.6c-2.1-2.1-4.7,0.1-5,0.4l-19.4,19.4l15.8,29.3l-0.1,0.1l-30.4-14.7
	l-18.6,18.6c-0.9,0.9-3.1,3.1-0.8,5.4c1.8,1.8,3.9-0.1,4.8-0.9c1.3-1.2,2.5-0.6,4.3-0.1c1.6,0.4,3.1,1.1,4.5,1.8l60.8,30.2l2.1-2.1
	l-29.8-55l34.1,34.1c2.7,2.7,3.2,3.1,1.5,6.5c-0.7,1.1-0.6,2.6,0.4,3.6c2.1,2.1,4.7-0.1,5-0.4l20.8-20.8
	C319.9,147.1,322.1,144.5,320,142.4 M262.6,181.2l-12.6-12.6l-16.2-8l-0.1,0.1l24.8,24.8c8,10.4,0.5,12.2,3.6,15.3
	c2.3,2.3,5.1-0.9,5.9-1.7l8.4-8.4c0.8-0.8,4-3.7,1.7-5.9C274.7,181.6,272.9,189.2,262.6,181.2 M222.6,258.1
	c6.9-7.1,17.7-8.1,28.8,2.1c10.2,9.2,8.9,22,2.1,28.8l-2.4-2.4c2.2-2.9,0-5.3-1.6-6.9l-17.6-17.6c-1.6-1.6-4-3.8-6.9-1.6
	L222.6,258.1z M238.1,242.7l10.9-10.9l30.9,30.9L269,273.6c-0.2,0.2-1.6,1.5-2.8,0.3c-0.5-0.5-0.6-1.4-0.2-2c1-1.9,0.7-2.1-0.8-3.6
	l-21.7-21.7c-1.5-1.5-1.7-1.8-3.6-0.8c-0.6,0.4-1.5,0.3-2-0.2C236.6,244.3,237.9,242.9,238.1,242.7 M250.8,230l9.2-9.2l8.4,8.4
	c0.2,0.2,1,1-0.3,2.3c-0.7,0.7-1.3,0.5-2.1,0.1c-4.4-2.3-8.6-2.2-12.8,0.9L250.8,230z M279.3,258.5c2.9-3.8,3.3-8.9,1-13
	c-0.3-0.9-0.7-1.8,0-2.6c0.6-0.7,1.7-0.7,2.3-0.1c0.1,0.1,0.2,0.2,0.3,0.3l8.3,8.3l-9.5,9.5L279.3,258.5z M264.6,243.7
	c1.3-2.2,0.5-4.6-0.7-6.5c-0.5-0.9-0.9-1.8,0-2.7c1.3-1.3,2.6,0.4,2.9,0.8l8.9,8.9c0.3,0.3,2,1.6,0.7,2.9c-0.9,0.9-1.8,0.5-2.7,0
	c-1.9-1.2-4.3-2-6.5-0.7L264.6,243.7z M276,204.8c3.9-3.9,6.7-5.8,9.7-6.7c4.9-1.2,8.8,0.3,12.3,3.7c3.5,3.5,5,7.4,3.8,12.3
	c-0.8,3.1-2.7,5.8-6.7,9.7l-2.4-2.4c2-2.9,0.4-4.7-1.6-6.8l-6.2-6.2c-1.9-1.9-3.9-3.2-6.5-1.3L276,204.8z M268.6,221.4
	c-1.5-1.5-1.7-1.8-3.6-0.8c-0.6,0.4-1.5,0.3-2-0.2c-1.2-1.2,0.1-2.6,0.2-2.8l10.9-10.9l26.3,26.3c1.5,1.5,1.7,1.8,3.6,0.8
	c0.6-0.4,1.5-0.3,2,0.2c1.2,1.2-0.1,2.6-0.3,2.8l-11.7,11.7c-0.6,0.7-1.7,0.7-2.4,0.1c0,0-0.1-0.1-0.1-0.1c-0.6-0.5-0.7-1.3-0.3-1.9
	c1-1.9,0.5-1.9-1-3.4L268.6,221.4z M141.8,145.3l9.5-9.5l24.7,24.7c1.4,1.4,1.6,1.7,3.4,0.8c0.6-0.4,1.4-0.3,1.9,0.2
	c1.1,1.1-0.1,2.5-0.2,2.6l-11,11c-0.2,0.2-1.5,1.4-2.6,0.2c-0.5-0.5-0.6-1.3-0.2-1.9c0.9-1.8,0.7-2-0.8-3.4L141.8,145.3z
	 M167.7,137.5c0.6,0.7,0.6,1.7-0.1,2.3c0,0-0.1,0.1-0.1,0.1c-1.1,1.1-2.3,0.3-3.3-0.5c-2.4-1.7-5.5-3.7-9-3.1l-2.3-2.3l5.6-5.6
	L167.7,137.5z M134.5,152.6l5.6-5.6l2.3,2.3c-0.6,3.5,1.4,6.6,3.1,9c0.7,1,1.6,2.2,0.5,3.3c-0.6,0.7-1.6,0.8-2.3,0.2
	c0,0-0.1,0-0.1-0.1L134.5,152.6z M196.3,140.3c1.4,1.4,1.6,1.7,3.4,0.8c0.6-0.4,1.4-0.3,1.9,0.2c1.1,1.1-0.1,2.5-0.2,2.6l-11,11
	c-0.2,0.2-1.5,1.4-2.6,0.2c-0.5-0.5-0.6-1.3-0.2-1.9c0.9-1.8,0.7-2-0.8-3.4l-20.4-20.4c-1.4-1.4-1.6-1.7-3.4-0.8
	c-0.6,0.4-1.4,0.3-1.9-0.2c-1.1-1.1,0.1-2.5,0.2-2.6l11-11c0.2-0.2,1.5-1.4,2.6-0.2c0.5,0.5,0.6,1.3,0.2,1.9c-0.9,1.8-0.7,2,0.8,3.4
	L196.3,140.3z M192.2,125.8l-3.4,3.4l-2.3-2.3l3.4-3.4l-8.8-8.8c-1.4-1.4-1.6-1.7-3.4-0.8c-0.6,0.4-1.4,0.3-1.9-0.2
	c-1.1-1.1,0.1-2.5,0.2-2.6l11-11c0.2-0.2,1.5-1.4,2.6-0.2c0.5,0.5,0.6,1.3,0.2,1.9c-0.9,1.8-0.7,2,0.8,3.4l20.4,20.4
	c1.4,1.4,1.6,1.7,3.4,0.8c0.6-0.4,1.4-0.3,1.9,0.2c1.1,1.1-0.1,2.5-0.2,2.6l-11,11c-0.2,0.2-1.5,1.4-2.6,0.2
	c-0.5-0.5-0.6-1.3-0.2-1.9c0.9-1.8,0.7-2-0.8-3.4L192.2,125.8z M190.6,96.5l10.3-10.3l29.1,29.1l-10.3,10.3
	c-0.2,0.2-1.5,1.4-2.6,0.2c-0.5-0.5-0.6-1.3-0.2-1.9c0.9-1.8,0.7-2-0.8-3.4l-20.4-20.4c-1.4-1.4-1.6-1.7-3.4-0.8
	c-0.6,0.4-1.4,0.3-1.9-0.2C189.3,98,190.5,96.6,190.6,96.5 M202.6,84.5l8.7-8.7l7.9,7.9c0.2,0.2,0.9,1-0.3,2.1
	c-0.7,0.7-1.2,0.5-2,0.1c-4.2-2.1-8-2.1-12,0.8L202.6,84.5z M229.4,111.3c2.7-3.5,3.1-8.3,1-12.2c-0.3-0.9-0.7-1.7,0-2.4
	c0.6-0.6,1.6-0.7,2.2-0.1c0.1,0.1,0.2,0.2,0.3,0.3l7.8,7.8l-8.9,8.9L229.4,111.3z M215.6,97.5c1.2-2.1,0.4-4.3-0.7-6.1
	c-0.5-0.9-0.9-1.7,0-2.5c1.2-1.2,2.4,0.4,2.7,0.7l8.4,8.4c0.3,0.3,1.9,1.5,0.7,2.7c-0.8,0.8-1.7,0.4-2.5,0c-1.8-1.1-4.1-1.9-6.1-0.7
	L215.6,97.5z M212.8,249.5c-1-1-2.5-1.1-3.6-0.4c-3.4,1.8-3.8,1.3-6.5-1.5l-38.5-38.5c-2.7-2.7-3.2-3.1-1.5-6.5
	c0.7-1.1,0.6-2.6-0.4-3.6c-2.1-2.1-4.7,0.1-5,0.4l-20.8,20.8c-0.3,0.3-2.6,2.9-0.4,5c1,1,2.5,1.1,3.6,0.4c3.4-1.8,3.7-1.2,6.5,1.5
	l16.7,16.7l-6.4,6.5l4.2,4.3l6.5-6.5l17.6,17.6c2.7,2.7,3.2,3.1,1.5,6.5c-0.7,1.1-0.6,2.6,0.4,3.6c2.1,2.1,4.7-0.1,5-0.4l20.8-20.8
	C212.7,254.2,215,251.7,212.8,249.5 M185.1,277.3c-1-1-2.5-1.1-3.6-0.4c-3.4,1.8-3.7,1.2-6.5-1.5l-38.5-38.5
	c-2.7-2.7-3.2-3.1-1.5-6.5c0.7-1.1,0.6-2.6-0.4-3.6c-2.1-2.1-4.7,0.2-5,0.4L112,245v8.5c0,0,0.1,0,0.1,0c3.4-1.8,3.7-1.2,6.5,1.5
	l38.5,38.5c2.7,2.7,3.2,3.1,1.5,6.5c0,0.1,0,0.1-0.1,0.2h8.5l17.7-17.7C185,282,187.2,279.4,185.1,277.3 M238.2,299.1
	c-0.1,0.3-0.3,0.6-0.4,0.9h4.8l9.1-9.1L220.8,260l-10.6,10.6c-0.8,0.8-1.7,2-0.7,3.1c1,1,1.9,0.4,3.1-0.2c1-0.5,2.1,0.7,2.7,1.3
	l21.7,21.7C237.6,297,238.8,298.1,238.2,299.1 M321.5,164.1l-2.4-2.4l-5.9,5.9l9.6,9.6c0.7,0.7,1.8,0.6,2.5-0.1c0,0,0.1-0.1,0.1-0.1
	c1.2-1.2,0.3-2.4-0.5-3.5C323,171.1,320.9,167.8,321.5,164.1 M344.9,153.6c1,0.8,2.3,1.7,3.5,0.5c0.8-0.6,0.9-1.7,0.2-2.5
	c0,0,0-0.1-0.1-0.1l-9.6-9.6l-6,6l2.4,2.4C339,149.6,342.3,151.8,344.9,153.6 M361,176.8c-1.9,1-2.1,0.7-3.6-0.8l-26.3-26.3
	L321,159.8l26.3,26.3c1.5,1.5,1.8,1.7,0.8,3.6c-0.4,0.6-0.3,1.5,0.2,2c1.2,1.2,2.6-0.1,2.8-0.2l9.9-9.9L361,176.8L361,176.8z
	 M318.5,69.8c-1.5,1.5-0.8,3.2,0.1,4.8c2.1,3.5,3.6,7.7,1.3,11.6l4.6,4.6c3.9-2.3,8.1-0.8,11.6,1.3c1.6,0.9,3.2,1.6,4.8,0.1
	c2.3-2.3-0.7-4.6-1.3-5.1l-15.9-15.9C323.1,70.5,320.8,67.5,318.5,69.8 M272.7,84.3c-0.3,0.3-2.6,2.9-0.4,5c1,1,2.5,1.1,3.6,0.4
	c3.4-1.8,3.7-1.2,6.5,1.5l38.5,38.5c2.7,2.7,3.2,3.1,1.5,6.5c-0.7,1.1-0.6,2.6,0.4,3.6c2.1,2.1,4.7-0.1,5-0.4l19.4-19.4l-55-55
	L272.7,84.3z M361,93.5l-8.5-8.5c-0.3-0.3-2.3-2.7-4.6-0.4c-1.3,1.3-0.6,2.9,0,4.6c3.9,7.9,3.4,16.4-1.8,23.1l4.3,4.3L361,106V93.5z
	 M326.7,60.2l-9.2-9.2H306l-10.6,10.6l4.3,4.3c7.5-5.4,14.8-5.6,22.7-1.5c1.5,0.7,2.6,1.1,3.8-0.2C328.4,62,327,60.5,326.7,60.2"/>
<path id="O" class="st1" d="M302.2,182.2c-1.2,2.6-0.2,4,0.9,5.1l21.4,21.4c1,1,2.4,2.1,5.1,0.9l2.4,2.4c-9.5,8-20.7,5-28.9-3.2
	s-11.2-19.4-3.2-28.9L302.2,182.2z M331.4,207.7c1.2-2.6,0.2-4-0.9-5.1l-21.4-21.4c-1-1-2.4-2.1-5.1-0.9l-2.4-2.4
	c9.5-8,20.7-5,28.9,3.2s11.2,19.4,3.2,28.9L331.4,207.7z"/>
</svg>
