<?xml version="1.0" encoding="UTF-8"?>
<svg xmlns="http://www.w3.org/2000/svg" version="1.1" viewBox="0 0 250 250">
  <defs>
    <style>
      .cls-1 {
        fill: #f96302;
      }

      .cls-2 {
        fill: #fff;
      }
    </style>
  </defs>
  <!-- Generator: Adobe Illustrator 28.6.0, SVG Export Plug-In . SVG Version: 1.2.0 Build 709)  -->
  <g>
    <g id="Layer_1">
      <circle class="cls-1" cx="125" cy="125" r="122.5"/>
      <path class="cls-2" d="M75.1,204.8s0-.2.2-.4c.2-.5.4-1,.4-1.4s-.2-.9-.3-1c0,0,0,0,0-.1,0,0-27.2-27.3-27.3-27.3,0,0-.1,0-.1,0s0,0-.2-.1-.2,0-.2,0c0,0-.7,0-1,0-.3,0-1,.3-1.2.5h-.1c0,0,0-5.1,0-5.1l5.8-5.8c3.2-3.2,5.8-5.8,5.8-5.8s0,0,.1,0c0,0,.2-.2.7-.4.5-.2,1.1-.2,1.5,0,.3.2.8.6.8.7s0,0,0,.1c.2.1.3,1.1,0,1.4,0,0-.1.2-.2.4,0,.1-.1.3-.1.3s0,.1-.1.2-.1.2-.1.2,0,.2-.1.3,0,.3-.1.4c0,0,0,.9,0,.9s0,0,0,.2,0,.2.1.2c0,0,0,0,0,.1,0,.1,27.1,27.3,27.3,27.3s.1,0,.1,0c0,.1.7.3.9.3s1.1-.2,1.2-.3c0,0,.1,0,.3-.1s.2,0,.2-.1.1,0,.2-.1.2-.1.2-.1.2,0,.4-.1c.3,0,.5,0,.7,0,.2,0,.3,0,.3.1s0,0,0,0c.1,0,.6.5.8.8.1.2.1.3.1.7,0,.4,0,.5-.3,1-.1.3-.3.5-.3.5s0,0,0,.1-2.6,2.7-5.8,5.8l-5.8,5.8h-2.6c-1.4,0-2.6,0-2.6,0h0ZM126,204.8s0-.2.1-.3c.1-.2.1-.3.1-.6,0-.2,0-.4,0-.4s0-.1-.1-.2-3.5-3.6-7.7-7.7c-5.7-5.7-7.6-7.6-7.8-7.7-.4-.2-.7-.2-1.2,0-.3.2-.5.2-.8.2h-.4s-.3-.3-.3-.3c-.4-.4-.4-.6-.2-1,.1-.2.8-1,3.7-3.9,2-2,3.6-3.6,3.6-3.6s4.5,4.4,9.9,9.8l9.8,9.8-2.9,2.9-2.9,2.9h-1.4c-1,0-1.4,0-1.4,0h0ZM197.9,202.8c0,0-.2,0-.3-.1-.1,0-.3,0-.4-.1-.1,0-.2,0-.2,0s-.1,0-.2-.1-.2-.1-.2-.1,0,0,0,0c-.1,0-1.2-1.1-1.2-1.2s0,0,0,0c0,0-.3-.6-.4-.8,0-.1,0-.2,0-.2-.2-.3-.2-2.4,0-2.7,0,0,0-.2.1-.3s.2-.4.2-.5.2-.3.2-.3c0,0,1-1,1.1-1.1.6-.3.9-.5,1.1-.5.1,0,.3,0,.3-.1.1,0,1.7,0,1.8,0,0,0,.2,0,.3.1.2,0,.5.2,1.1.5.2.1,1,.9,1.1,1.1,0,0,.1.3.2.4s.1.2.1.2c0,0,0,.1.1.2s.1.3.1.3c0,.2.2.8.2,1.3s0,1.2-.2,1.4c0,0,0,.2-.1.3s-.1.3-.1.3,0,.1-.1.2-.1.3-.2.3,0,0,0,.1c0,.1-1,1.1-1.1,1.1s-.1,0-.1,0c0,0-.1.1-.3.2s-.2,0-.2.1-.1,0-.3.1c-.2,0-.3.1-.4.1,0,0-1.6.1-1.8,0h0ZM199.8,202.1c.5-.2.9-.4,1.3-.8,1.5-1.5,1.5-4.2,0-5.7-.2-.2-.5-.4-.5-.4s-.1,0-.2-.1c-.4-.2-.9-.4-1.6-.4-.7,0-1,0-1.7.4-.4.2-1.2,1-1.4,1.5-.3.6-.4,1.2-.4,1.9,0,1.7.9,3.1,2.4,3.6.6.2,1.6.2,2.3,0h0ZM197.1,198.4v-2.5h1.2c1,0,1.2,0,1.5.2.4.2.5.3.7.8.1.4.1.7,0,1.1-.2.4-.3.5-1,.7h-.2c0,0,.2.3.2.3,0,.2.2.4.3.4,0,0,.1.2.1.2s0,.2.2.3c.1.1.2.3.2.3s0,.2.2.3.2.3.2.3-.1,0-.3,0c-.3,0-.3,0-.7-.6,0,0-.2-.3-.3-.6-.1-.2-.3-.5-.4-.7l-.2-.3h-.5s-.5,0-.5,0v2.2h-.6v-2.5ZM199.6,198.1c.2-.2.5-.9.3-1,0,0,0,0,0-.1,0-.1-.3-.4-.5-.4s-.2,0-.2,0-.3,0-.7,0h-.7s0,.9,0,.9v.9s.9,0,.9,0c.7,0,.9,0,1-.1h0ZM135.3,197.1l-.7-.7v-.2c.1-.1.2-.2.2-.2s0-.1.1-.3c0-.2.1-.3.1-.3,0,0,0-1.2,0-1.2,0,0,0-.1,0-.3,0-.2-.2-.7-.4-.8,0,0,0,0,0-.1,0-.2-1.5-1.6-6.8-7-3.2-3.2-5.8-5.8-5.8-5.8s-.2-.2-.4-.3-.6-.5-.9-.6l-.5-.3h-.8c-.7,0-.8,0-1.1.1-.1,0-.3.2-.4.2-.1,0-.2,0-.8-.6-.4-.4-.7-.7-.7-.8s.3-.3.6-.6.6-.5.7-.6.1-.1.2-.1.1,0,.2-.2c.1,0,.2-.2.3-.2s0,0,0,0c0,0,0-.1.6-.4.2,0,.3-.2.4-.2.3-.2,1-.5,1.2-.5.1,0,.2,0,.2,0,.1,0,1.3-.3,2-.5.4,0,1-.1,1.3-.1.6,0,2.1.2,2.5.3.1,0,.4.1.6.1s.4,0,.4.1.2,0,.4.1.3,0,.4.1.2,0,.3.1.3.1.3.1,0,0,.1,0c.1,0,1.8.8,1.8.9,0,0,.1,0,.2.1.2,0,.3.2.6.4.1,0,.3.2.3.2s.2.1.5.3.4.3.5.3,0,0,.1.1c0,0,0,.1.1.1,0,0,.5.3,1.2.9.4.3,2,2,2,2.1s.1.2.2.3c.1.2.2.3.2.3s0,0,.1.1.1.1.1.1,0,.2.2.3.2.3.2.3,0,.2.2.3c.2.2.5,1,.8,1.5,0,.1.1.3.2.4,0,.1.1.3.2.5s0,.3.1.3c0,.1.3,1.2.5,2.4,0,.6.1,1.9,0,2.5,0,.2-.1.6-.1.9s0,.5-.1.6c0,0,0,.2-.1.5,0,.2,0,.4-.1.5,0,0,0,.1,0,.2s0,.3-.2.4-.1.3-.1.3,0,.2-.2.4-.2.3-.2.4,0,0,0,0c0,0,0,.1-.2.2s-.2.3-.3.5-.2.3-.2.4c0,.2-.5.7-.6.9,0,0-.1.1-.1.2s-.2.2-.4.4l-.4.4-.7-.7ZM93.9,189.8c-.5-.2-1.1-.7-1.1-.9s0,0,0,0,0-.2-.1-.3c0-.3,0-.4,0-.7,0-.2,0-.4.1-.4s0-.1.1-.2c0-.1.1-.2.1-.2.1-.1.5-1.4.5-1.7s-.2-.8-.3-1c0,0-2.9-2.9-6.3-6.4-4.1-4.1-6.3-6.2-6.3-6.2s-.8.7-2.1,2l-2,2-1.3-1.3-1.3-1.3,2-2c1.1-1.1,2-2.1,2-2.1,0,0-11.7-11.8-12-12.1-.2-.1-.8-.3-1-.3s-1.1.2-1.2.3c0,0-.1,0-.3.1s-.2.1-.2.1,0,0,0,0-.2,0-.4.2c-.3.1-.4.2-.8.2-.4,0-.5,0-.8-.2-.3-.2-.6-.5-.8-.9-.1-.3-.2-1,0-1.2,0,0,.1-.2.2-.4s.1-.3.2-.4,3.2-3.3,7.1-7.1l7-7,.5-.2c.5-.2.6-.2.9-.2s.5,0,.7.2c.4.2.9.7,1,1.1.1.4,0,1-.1,1.3,0,.2-.2.3-.2.4s0,0,0,0c0,0-.3.7-.5,1.2-.1.4,0,.7.2,1.2.2.4.9,1.1,13.7,13.9,10.7,10.7,13.6,13.6,13.9,13.7.7.4,1.2.4,2.3-.2.3-.1.6-.3.6-.3s0,0,0,0c0,0,.5-.2.8-.2.5,0,.7.1,1.1.5.2.2.4.4.4.5s0,.2,0,.2c0,.1,0,.2,0,.6,0,.2,0,.5,0,.6s-.1.2-.2.3c0,.1-.1.3-.2.4-.1.2-13.8,13.9-13.9,13.9s0,0-.1,0c0,0-.1.1-.2.2s-.2.1-.3.1c-.3.2-.6.3-.9.3-.2,0-.4,0-.5,0h0ZM144.3,188.2c-.3-.2-.5-.5-.5-.8s.2-.6.3-1c.1-.3.1-1.2,0-1.2,0,0-.1,0-.1-.1,0,0-15.1-15.2-15.2-15.2s-.1,0-.2-.1c-.3-.2-.8-.2-1.3.1-.4.2-.5.2-.8.2s-.4,0-.5-.2c-.3-.3-.5-.9-.3-1,0,0,0-.1,0-.2,0-.2.8-.9,3.7-3.8l3.6-3.6,9.8,9.8,9.8,9.8-3.5,3.5c-3.7,3.7-3.9,3.9-4.4,3.9s-.3,0-.5-.2h0ZM153.3,178.9l-.7-.7v-.2c.4-.4,1-1.6,1-1.7s0-.1,0-.2.1-.4.2-.7c.2-.6.2-.8.2-1.8s-.1-2.1-.7-3.4c-.3-.7-.5-1.2-.5-1.4,0-.3.3-.7.7-.9.5-.2.4-.2,3.5,2.9l2.8,2.8-3,3c-1.6,1.6-3,3-3,3,0,0-.3-.3-.7-.7h0ZM160.8,172c-.1,0-.3-.3-.5-.5-.2-.3-.2-.6,0-1.1.2-.3.2-.5.2-.8v-.4l-7.4-7.4c-4.1-4.1-7.6-7.6-7.9-7.9l-.5-.4h-.5c-.3,0-.6,0-.6,0s-.1.1-.3.1-.2.1-.2.1c0,0-.5.2-.7.1-.1,0-.3-.2-.4-.3-.3-.3-.3-.3-.2-.7,0-.3,0-.4.2-.6,0-.1,1.7-1.8,3.7-3.7l3.5-3.5,8.7,8.7c4.8,4.8,8.8,8.8,8.9,8.8.2.1.3.1.6.1s.5,0,.9-.2c.4-.2.5-.2.8-.2.2,0,.3,0,.3,0,0,0,0,0,.1,0s.1,0,.1.2,0,.1.1.1c.1,0,.2.4,0,.7s0,.3-.1.3,0,0-.1.2c-.1.2-7.8,7.9-8,8-.2,0-.6,0-.8,0h0ZM149.5,171.1c-.2,0-.4-.2-.6-.3-.9-.6-1.9-.9-2.7-.9s-1.1.2-1.3.3c-.1,0-.2,0-.9-.7l-.8-.8v-.2c.1-.1.2-.3.3-.4,0-.2,0-1.8,0-1.9,0,0,0-.2-.1-.4,0-.3-.2-.5-.7-1.5-.1-.2-.2-.5-.2-.7,0-.3,0-.4.2-.6.1-.1.3-.3.4-.4.2,0,.2,0,.5,0,.3,0,.5.3,3.7,3.5,3.7,3.7,3.8,3.8,3.7,4.2,0,.2-.4.6-.6.7-.2.1-.3.1-.6,0h0ZM111.6,164.6c-1.2,0-2.9-.4-3.8-.7-.2,0-.4-.1-.5-.1-.2,0-.6-.2-1-.3-.1,0-.4-.2-.7-.3s-.6-.2-.8-.3-.3-.1-.3-.1c-.1,0-2.9-1.4-3-1.5,0,0-.1,0-.2-.1-.3-.2-.5-.3-.7-.4-.1,0-.2-.1-.3-.1s0,0,0,0,0,0,0,0-.2,0-.3-.1-.2-.2-.3-.2-.1,0-.1-.1,0,0,0,0-.2,0-.3-.2-.2-.2-.3-.2,0,0-.1,0c0,0,0,0-.1,0s-.2-.1-.4-.2-.3-.2-.3-.2,0,0-.1-.1c0,0,0-.1-.1-.1,0,0-.7-.5-1.1-.9-.1-.1-.3-.2-.3-.2,0,0-4-3.9-4-4s0-.2-.2-.3c-.4-.4-.9-1.1-.9-1.1s0,0-.1-.1c0,0-.1,0-.1-.1s-.1-.2-.2-.3c-.1-.2-.2-.3-.2-.4s0,0,0-.1c0,0,0,0,0-.1s0-.2-.2-.3-.2-.2-.2-.3,0,0,0-.1c0,0,0,0,0-.1s0-.2-.2-.3-.2-.2-.2-.3,0,0,0,0-.1,0-.2-.2-.2-.3-.2-.4-.2-.3-.2-.4c0,0,0-.2-.1-.2s-.1-.2-.3-.4c-.1-.2-.3-.7-.5-.9s-.4-.8-.5-1.1c-.1-.3-.3-.6-.4-.9,0-.1-.1-.3-.1-.3s0-.2-.1-.3c-.1-.2-.2-.6-.4-1.1,0-.1-.1-.3-.1-.5,0-.2-.3-.9-.4-1.4,0-.2-.1-.6-.2-.9s-.1-.7-.1-.8c0-.2-.1-1.2-.2-2.5,0-.6,0-2.3.2-3.3,0-.5.3-1.6.4-2,.2-.9.5-1.7.8-2.5.5-1.2,1.6-3.4,2.1-4.1,0-.1.1-.2.1-.2s0,0,0-.1c.2-.3.5-.7.5-.7s.2-.3.4-.5.5-.6.5-.6v-.2c.1,0,1.4,1.3,1.4,1.3,1,1,1.3,1.3,1.3,1.4-.1.2-.3.7-.5,1.5-.1.4,0,1.4,0,1.9,0,.3.2.5.2.5s0,.1.1.3c0,.1.1.2.1.2s0,0,.1.1.2.3.3.4.2.3.2.3c0,0,25.3,25.3,25.3,25.3s.2.1.3.2c1,.9,2.4,1.2,3.8.8.7-.2,1.2-.3,1.2-.4,0,0,.6.5,1.4,1.3l1.3,1.3h-.1c0,.2-.2.3-.2.3s-.3.2-.5.4-.5.4-.5.4-.2.1-.4.3-.4.3-.4.3-.2,0-.3.2c-.1,0-.3.2-.3.2s-.2,0-.3.2c-.3.2-.8.5-1.6.9-1,.5-1.2.6-1.3.6s-.1,0-.1,0,0,0,0,0-.2,0-.4.1c-.7.3-1.1.4-1.9.6-.2,0-.5.1-.7.2-.6.2-1.7.3-2.8.4-1.3.1-2,.1-3.4,0h0ZM135.1,160.7l-.7-.7,2.9-2.9,2.9-2.9,2.7,2.7c1.9,1.9,2.7,2.8,2.8,2.9,0,.3,0,.6-.2.9-.3.3-.6.4-.9.4-.1,0-.4-.1-.7-.3-1.4-.7-2.4-.9-3.7-.9-1.1,0-2,.2-3.1.7-.7.3-.9.5-1.1.6l-.2.2-.7-.7ZM128,155.9c-.7-.7-1.2-1.3-1.2-1.3s0-.2,0-.2.1-.3.2-.4c0-.1.1-.3.1-.4.2-.5.2-2.1,0-2.6,0,0,0-.2-.1-.3,0-.1-.2-.3-.2-.5,0-.1-.2-.3-.2-.3,0,0-24.8-24.9-25.7-25.7-.4-.3-.7-.6-.7-.6s-.2,0-.3-.2c-.1,0-.4-.2-.5-.2s-.3-.1-.4-.2c-.4-.2-2.3-.2-2.6,0,0,0-.2,0-.3,0s-.3,0-.5.2c-.1,0-.3.1-.3.1-.1,0-2.6-2.5-2.6-2.6s0-.1.2-.2c.2-.1.8-.6,1-.8,0,0,.1,0,.1,0s.2-.1.4-.3c.3-.3.5-.3.7-.5,0,0,.2-.1.2-.2,0,0,0,0,.1,0s.2,0,.3-.2.4-.2.5-.3c.1,0,.3-.1.3-.2,0,0,1.4-.7,1.4-.7s.2,0,.4-.2.4-.2.6-.2.3-.1.4-.2.2,0,.2,0c0,0,.2,0,.2,0s.3-.1.5-.2c.2,0,.3,0,.4-.1,0,0,.2,0,.5-.1.2,0,.4,0,.5-.1,0,0,.2,0,.5-.1.2,0,.5,0,.6-.1,0,0,.5,0,.9-.1.4,0,1-.1,1.2-.2.6,0,3.5,0,4,0,.2,0,.6.1.9.2.8.1,1.6.3,1.7.3,0,0,.3,0,.5.1.2,0,.4,0,.5.1,0,0,.2,0,.4.1.2,0,.3,0,.4.1s.2,0,.4.1.3,0,.4.1.2,0,.3,0,.3,0,.3.1c0,0,.2.1.4.2s.3.1.3.1,0,0,.1,0c.1,0,.4.1,1.7.8,1.3.7,1.5.7,1.8,1,.4.2.5.3.7.4.1,0,.2.1.2.2s0,0,0,0c0,0,.6.4.6.4,0,0,0,0,0,0s.2,0,.3.2.2.2.3.2,0,0,.1,0c0,0,0,0,.1,0,0,0,.6.4.9.7s.1.1.2.1.2.2.5.4c.2.2.4.4.4.4s.1,0,.2.2.2.2.3.2c.1,0,3.7,3.6,3.7,3.7s.1.2.2.3c.1.1.2.2.2.3s.2.2.4.4c.2.2.4.4.4.5s0,.1.1.2c.2.2.6.7.6.8s0,.1.1.1c0,0,.1.1.1.1s0,.2.2.3c0,.1.2.2.2.3s0,0,0,0c0,0,.4.6.4.6s0,0,0,0,0,0,.2.2.2.3.2.4.2.3.2.4.1.2.1.2c.2.2,1.6,3.1,1.6,3.3s0,0,0,0,0,0,0,.2,0,.2.1.3c0,0,.1.2.2.4s.1.3.1.3c0,0,0,.2.1.3,0,.1.1.3.2.5s.1.3.1.4,0,.3,0,.3c0,0,0,.2.1.4s0,.4.1.5c0,.2.2,1,.3,1.8,0,.4.1.8.2,1,0,.4.1,3.8,0,4.3,0,.2-.1.6-.2,1-.1.9-.3,1.6-.3,1.7,0,0,0,.3-.1.5s0,.4-.1.4c0,0,0,.2-.1.4s-.1.4-.1.4,0,.1-.1.3c0,.1-.1.3-.2.5s-.1.3-.2.4-.1.3-.2.5-.2.4-.2.4c0,0-.4.8-.5,1,0,0-.2.3-.2.4,0,.1-.2.3-.3.5s-.2.3-.2.4-.1.2-.2.2,0,0,0,0,0,.2-.2.3-.2.2-.2.2-.1.2-.3.4c-.2.2-.3.4-.3.4s-.1.2-.3.4-.4.5-.5.6-.2.2-.2.2c-.1,0-.7-.6-1.4-1.3h0ZM161.9,155.2l-.7-.7.2-.3c.3-.6.4-1.3.3-1.9,0-.2-.1-.4-.2-.4s0,0,0,0,0-.2-.2-.3c0-.1-.2-.2-.2-.3s0,0-.1-.1c0,0-.1,0-.1-.1,0,0-5.3-5.4-5.4-5.4,0,0-.1,0-.1,0,0,0-.6-.4-.7-.4s0,0,0,0-.1,0-.3-.1c-.2,0-.3,0-.3-.1,0,0-1.1,0-1.1,0,0,0-.1,0-.3,0-.1,0-.3.1-.5.2s-.2.1-.3.1-.3-.3-.7-.7l-.7-.7.5-.5c.6-.5,1.3-1.2,1.5-1.4,0,0,.3-.3.6-.5s.5-.4.5-.4.3-.2.4-.3c.4-.3.9-.6,1.2-.7.1,0,.3-.1.5-.2s.3-.1.4-.2.2,0,.4-.1.3,0,.4-.1c.5-.2,3.1-.2,3.6,0,0,0,.2,0,.4.1.2,0,.3,0,.3.1,0,0,0,0,.1,0,.1,0,1,.4,1.3.6.1,0,.2.2.2.2s.2.2.5.4c.2.2.5.4.5.4s.1,0,.2.1c.2.2.3.2.3,0s0-.2,0-.2,0,0,0,0,0-.2-.1-.4c-.3-.5-.5-1-.5-1.1s0-.2,0-.3c-.3-.7-.6-2-.6-3.1,0-1.1,0-2.3.2-3.1.2-.8.4-1.4.5-1.6,0-.1,0-.2,0-.2s0-.2.2-.4.2-.4.2-.4,0,0,0,0,0-.1.1-.2.2-.3.2-.5.2-.3.2-.3c0-.1.8-1.1.9-1.3,0,0,.1-.2.1-.2,0-.2.2,0,.8.6l.7.7v.3c-.3.3-.3.5-.3,1s0,.7.2,1c.1.2.3.4.3.5s.1.2.1.2c0,0,13.9,14,14,14s.2.1.3.2c.3.3.7.5,1,.5.2,0,.3,0,.3,0,0,0,.4,0,.5,0,0,0,.3,0,.5-.1s.5-.1.5-.1c0,0,.2.1.8.6l.7.7-.3.2c-.1.1-.3.3-.4.3s-.3.2-.4.3c-.4.3-.8.5-.9.5s0,0,0,0,0,0,0,0-.2,0-.3.1-.3.2-.4.2-.2,0-.2,0-.1,0-.3.1-.3.1-.4.2c0,0-.2,0-.3.1s-.2,0-.3,0c0,0-.2,0-.4.1-.2,0-.4,0-.5.1-.2.1-1.9.3-2.5.3s-2.4-.2-2.5-.3c0,0-.2,0-.3,0-.3,0-1-.3-1.3-.4-.1,0-.3-.1-.4-.2s-.2,0-.2,0,0,0-.2,0c-.3,0-1.7-.8-1.7-.9,0,0,0,0,0,0s-.2,0-.3-.2c-.1,0-.2-.2-.3-.2s-.2-.1-.3-.2c-.2-.1-.3-.2-.4-.3s-.1,0-.1-.1,0,0,0,0-.2-.1-.4-.3-.3-.3-.4-.3-.1,0-.2-.2-.2-.2-.3-.2-.5-.4-1-1-1-1-1.1-1c0,0-.1,0,0,.3,0,.1,0,.4.1.6,0,.3.1.5.1,1.6,0,1.2,0,1.3-.2,1.9,0,.3-.2.7-.2.7s0,0,0,.1c0,.1-.5,1.2-.7,1.5,0,0-.1.2-.1.2s0,0,0,0,0,0,0,0,0,.2-.2.3-.2.2-.2.3,0,0,0,.2c-.4.5-.9,1-.9,1.1s-.1.1-1.1,1.3l-.5.5-.7-.7ZM186.8,146.4c-.3-.3-.7-.7-.7-.7s0-.2,0-.4c.1-.3.1-.5.1-1.1s0-.7,0-.7c0,0-.1-.1-.1-.3s-.1-.2-.2-.3,0,0,0-.1-3.3-3.4-7.3-7.4c-6.7-6.7-7.3-7.3-7.7-7.5-.2-.1-.4-.2-.5-.2-.1,0-1.1,0-1.2,0s-.2,0-.4.1c-.2,0-.4,0-.4.1,0,0-1.5-1.3-1.5-1.4s0,0,0,0,.2-.1.3-.2.3-.2.3-.2,0,0,.1-.1c0,0,.1-.1.1-.1s.2,0,.3-.1c.4-.3,2.1-1.2,2.5-1.3.2,0,.3,0,.3-.1,0,0,.2,0,.4-.1s.4-.1.4-.1c.1,0,1-.2,1.7-.3.5,0,1.6,0,2.1,0,.8.1,1.6.2,1.7.3.2,0,.6.2.8.2s.1,0,.1-.1-.9-1-2-2.1l-2-2,1.8-1.8c1-1,1.8-1.8,1.8-1.8s.4.3.7.7l.7.7v.7c0,.8,0,1.5.2,1.7,0,0,0,.1,0,.2,0,.2.5,1.3.6,1.4,0,0,.1.2.2.4.2.3,1.1,1.7,1.2,1.8.2.2.6,1.1.6,1.2s0,.2,0,.2c-.1.3-.2.6,0,.6,0,0,.2.1.3.2s.2.1.2.2,0,0,0,0,.2.1.4.2.3.2.3.2.1,0,.2.1.4.3.7.6c.6.5,2.5,2.4,2.5,2.5s0,.1.1.2c.2.2.8,1,.8,1.1s.1.2.2.3c.1.2.3.4.3.5,0,.2.2.3.3.6.1.2.6,1.2.6,1.3s.2.5.3.7c0,0,.1.2.1.4s0,.2,0,.3c0,0,0,.2.1.4s.1.4.1.4,0,.3.1.5c0,.3,0,.5.1.6.1.2.2,1.9.1,2.9,0,.5,0,1-.1,1s0,.3-.1.5,0,.5-.1.5c0,0,0,.1,0,.3,0,.2-.1.5-.4,1.1-.1.3-.6,1.3-.7,1.5l-.4.6c-.2.3-.3.5-.4.5s0,0,0,0-.1.2-.3.4l-.3.3-.6-.6ZM142.1,141.5c-.2,0-.3-.2-.3-.2,0,0,0,0-.2-.1s-.2-.1-.2-.2c0,0,0-.1-.1-.2s-.1-.2-.2-.3c-.1-.2-.1-.3-.1-.7,0-.3,0-.5,0-.6s0-.2.1-.4,0-.3.1-.4,0-.3.1-.5c0-.3,0-.5.1-.6,0-.1,0-1.2,0-1.2,0,0,0-.1,0-.2,0-.3-.1-.9-.2-.9s0-.1,0-.2-.1-.4-.2-.5-.1-.3-.1-.4,0,0,0,0c0,0-.1-.2-.2-.4-.2-.5-.2-.5-.7-1.2-.2-.3-.4-.6-.5-.7,0,0,0,0,0-.1s-3.6-3.6-7.9-8-7.9-7.9-7.9-7.9c0,0,1.1.5,6.4,3.2,1.4.7,2.6,1.3,2.6,1.3s0,0,0,0c0,0,.8.4.8.4s1.9,1.8,4.1,4.1c2.2,2.2,4.1,4.1,4.1,4.1s.2.1.4.3c.2.2.4.3.5.4s.2.1.4.2c.5.4,2,1.1,2.3,1.2.1,0,.3,0,.4.1.2,0,.8.2,1.1.2s.3,0,.4,0,.2,0,.2,0c0,0,.2,0,.4,0,.4,0,1-.1,1.2-.2,0,0,.3-.1.6-.2,1-.3,1.5-.2,2,.3.3.3.5.8.5,1.1s-.2.9-.5,1.2c-.1.2-.2.3-.2.4s-1.6,1.7-3.6,3.7-3.7,3.6-3.7,3.6-.2,0-.4.2c-.2.2-1,.5-1.2.5,0,0-.2,0-.4-.1h0ZM197.1,135.5c-.4-.2-.5-.4-.5-.8,0-.3,0-.4.2-.7.1-.2.2-.4.2-.5s0-.1,0-.1c0,0,0-.6,0-.7,0,0-4-4.1-8.9-8.9l-8.8-8.8,3.1-3.1c1.7-1.7,3.2-3.1,3.2-3.1s3.9,3.9,8.6,8.6c4.7,4.7,8.6,8.6,8.6,8.6s.2,0,.3.2c.2.2.3.2.7.2s.5,0,.7-.1h.2c0-.1,0,1.3,0,1.3v1.4s-3.2,3.3-3.2,3.3c-2.7,2.7-3.3,3.3-3.6,3.4-.4.2-.6.2-.9,0ZM151.4,126.2c-5.7-2.9-14.5-7.2-15-7.4-.7-.3-1.9-.9-1.9-1,0,0,0,0,0,0,0,0-1.8-.9-1.8-.9,0,0-.1,0-.3-.1s-.2,0-.2-.1-.1,0-.2-.1-.2-.1-.2-.1,0,0,0,0c0,0-.9-.4-.9-.4,0,0,0,0,0,0,0,0-1.3-.6-1.4-.7,0,0,0,0,0,0,0,0-1.8-.8-1.8-.9,0,0-.1,0-.2-.1s-2.5-1.2-5.3-2.6c-5.7-2.9-5.8-2.9-6.1-3-.1,0-.2,0-.3-.1s-.2,0-.4-.1c-.1,0-.3,0-.3,0,0,0-.6-.2-.7-.2s-.1,0-.2,0c0,0-.3,0-.7,0-.6,0-.7,0-1,.1-.2,0-.4.2-.6.4-.4.3-.4.4-.6.5-.8.5-1.1.5-1.5.5-.2,0-.3-.1-.7-.5-.4-.4-.5-.5-.5-.8-.2-.6,0-1.1.5-1.8,0,0,2.9-2.9,6.3-6.3l6.2-6.2,1.1.5c.6.3,1.1.5,1.1.5s.6.3,1.3.6c.7.3,1.8.9,2.5,1.2s1.7.8,2.4,1.2,1.2.6,1.3.6c0,0,2.3,1.1,2.3,1.2,0,0,0,0,.1,0s.7.3,1.3.6,1.8.9,2.4,1.2c.7.3,1.3.6,1.4.7s.2,0,.2.1.1,0,.2.1.2,0,.2.1.1,0,.2.1.2,0,.2.1.1,0,.2.1.2,0,.2.1c0,0,.6.2.7.2.1,0,.1-.3,0-.4,0,0-.2-.3-.4-.6s-.4-.8-.5-1-.4-.7-.5-.9-.3-.5-.3-.5-.2-.3-.4-.6-.4-.8-.5-1-.3-.7-.5-.9-.2-.4-.2-.4c0,0-.2-.2-.3-.5s-.4-.8-.6-1.1-.4-.8-.6-1c-.1-.2-.2-.4-.2-.4s-.2-.2-.3-.5-.4-.8-.6-1.1-.4-.8-.5-.9c0-.1-.2-.3-.2-.4s-.2-.4-.4-.6c-.2-.3-.3-.7-.5-1-.2-.3-.4-.7-.5-.9s-.3-.5-.3-.6-.2-.4-.3-.6c-.2-.3-.3-.6-.5-.9-.1-.3-.4-.7-.5-1s-.3-.6-.3-.6v-.2c-.1,0,6.1-6.2,6.1-6.2,6.7-6.7,6.8-6.8,7.5-6.9.5,0,.8,0,1.1.1.5.2.9.7,1,1.2,0,.4,0,1-.4,1.7-.6,1.1-.6,1.9,0,2.5.1.2.3.4.4.5.2.2,26.4,26.4,26.4,26.4s.1,0,.3.2c.5.5,1,.7,1.7.5.4,0,.6-.1,1.3-.5,1.1-.5,1.8-.5,2.5.2.3.3.5.7.5,1.2s0,.8-.2.9c0,0,0,.2-.2.3,0,.2-1.5,1.6-7,7.2-3.8,3.8-6.9,6.9-7,6.9s0,0,0,0,0,0-.2.1c0,0-.2.1-.3.2-.6.3-1.1.4-1.6.1-.2,0-.3-.2-.4-.2,0,0-.1,0-.2,0s0,0,0,0,0-.1-.1-.2c-.2-.2-.4-.6-.4-1,0-.3,0-.5.3-1,.5-1,.6-1.3.6-1.8s0-.7-.4-1.1c-.3-.4-22.8-22.9-22.9-22.9-.2,0,0,.5.4,1.2,0,.1.2.3.2.5s.1.2.1.2c0,0,.2.3.3.5.5.9.7,1.3.8,1.5,0,0,.2.3.2.4s0,.2.1.2c0,0,.2.3.5.9.1.3.4.7.5,1s.3.5.3.6,0,.2.1.2c0,0,0,.1.1.2s.1.2.1.2c0,0,.6,1,.9,1.7.1.2.2.4.3.4s0,.1.1.2,0,.2.1.2,0,.1.1.2.1.2.1.2.1.2.3.4c.4.8.9,1.7.9,1.7,0,0,.1.2.2.4,0,.2.3.6.5.9.2.3.4.8.5,1,.3.6.4.8.5.9,0,0,0,.1.1.2s.1.2.1.2c0,0,.2.2.3.5.4.8.7,1.4.8,1.5,0,0,.2.3.3.5.1.3.4.7.5,1,.2.3.4.7.5.9.1.2.3.5.4.6,0,.1.2.3.2.5s0,.2.1.2c0,0,.2.3.8,1.5.2.3.3.6.4.6,0,0,.4.8.4.9s0,0,0,0,.2.2.3.4.4.7.5,1,.3.6.3.6,0,.1,0,.1,0,.1.1.2,0,.2.1.3c0,0,.2.3.5.8.1.2.3.6.5.8s.3.5.4.7.1.3.2.3,0,.1.1.2.2.4.4.7.4.7.5,1c.1.3.3.5.4.6s.1.2.2.4c0,.1,0,.2.1.2,0,0,.2.3.5.8l.2.4-.6.6c-.3.3-.6.6-.7.6,0,0-2.3-1.1-5-2.5h0ZM81,125c-.1,0-.2-.2-.2-.2s0,0,0-.1c-.2-.1-.2-.9,0-1.1,0,0,.2-.6.3-.9,0-.2,0-.3,0-.5,0-.1-3.7-3.9-8.3-8.4l-8.2-8.2,3-3,3-3,8.3,8.3c7.8,7.8,8.3,8.3,8.5,8.3.3,0,.7,0,1.1-.3.2-.1.4-.2.6-.2s.3,0,.5.2c.1.1.2.3.3.3,0,.2,0,.5,0,.8,0,.1-1.7,1.8-3.8,3.9-4.3,4.3-4.2,4.2-4.8,3.9h0ZM62.7,113.3l-3-3,1.7-1.7,1.7-1.7.6.6.6.6v.8c0,.8.2,1.5.3,1.8,0,0,0,.2.1.3.1.3.6,1.2.8,1.5.1.2.2.3.2.3,0,0,0,.2.2.3s.2.3.3.4c0,0,.1.2.3.3.6.8.7,1.4.4,1.8-.3.4-.5.4-.8.5h-.4s-3-3-3-3ZM94,112c-.3-.2-.4-.4-.5-.7,0-.2,0-.6.2-.7,0,0,.2-.6.3-.9,0-.2,0-.3,0-.5-.2-.3-14.4-14.6-14.7-14.7-.4-.2-.7-.1-1.3.2-.5.2-.9.2-1.1,0-.2-.2-.4-.5-.4-.7,0-.4.3-.7,4-4.4,2.1-2.1,3.8-3.8,3.9-3.8.3-.2.6-.2.8,0,.3.1.6.6.6.8s-.1.6-.3.9c-.2.3-.2.8-.1,1,0,.2,2,2.1,7.4,7.5,7.3,7.3,7.3,7.3,7.6,7.3.3,0,.6,0,1.1-.3.4-.2.9-.2,1.1,0,.4.4.5.7.3,1.2,0,.1-1.7,1.8-3.8,3.9-3.8,3.8-4.1,4-4.5,4,0,0-.3,0-.4-.1h0ZM195.4,111.3c-.2,0-.3-.2-.3-.2,0,0,0,0,0,0s-.1,0-.2-.1-.2-.2-.3-.2c-.1,0-.2-.1-.2-.2s0,0,0,0-.1,0-.2,0c0,0-.2-.1-.3-.2s-.2-.1-.2-.1,0,0-.1,0-.2-.1-.4-.2c-.2,0-.4-.2-.5-.3s-.2,0-.2-.1-.1,0-.2-.1c-.2,0-.5-.2-.8-.3-.1,0-.4-.1-.6-.2-.2,0-.4,0-.5-.1s-.5,0-1,0h-.9s-.7-.7-.7-.7l-.7-.7,1.8-1.8c1.6-1.6,1.8-1.8,1.9-1.7.2.2,5.8,5.8,6,6,.2.3.3.7.2,1,0,.1-.2.3-.3.5-.2.3-.3.3-.6.3-.3,0-.4,0-.7-.1h0ZM103.4,102.6c-.5-.3-.6-.7-.3-1.4,0-.1.1-.3.1-.3s0,0,0,0c0,0,.1-.5,0-.7,0-.2-.2-.4-3.4-3.6-1.9-1.9-3.4-3.4-3.5-3.4s-.6.5-1.1,1l-1,1-.6-.6-.6-.6,1-1.1c.6-.6,1-1.1,1-1.1,0-.1-6.2-6.3-6.4-6.4,0,0-.2,0-.2-.1s-.1,0-.3,0c-.3,0-.4,0-1.1.3-.6.3-1.2,0-1.3-.5,0-.3,0-.6.2-.9.3-.4,7.4-7.4,7.6-7.6.3-.2.6-.2.9,0,.5.2.7.8.5,1.1,0,0-.2.3-.2.6-.2.5-.2,1,0,1.2,0,0,3.3,3.4,7.3,7.3,6.5,6.5,7.2,7.2,7.5,7.3.3,0,.7,0,1.1-.2.4-.2.5-.2.7-.3.2,0,.6.2.7.4,0,0,.1.2.1.2.1.1,0,.5,0,.7,0,0-.1.2-.1.2s-1.7,1.8-3.8,3.9c-3.2,3.2-3.8,3.8-4,3.8-.3,0-.6,0-.8,0h0ZM181.2,102.4c-.3,0-.5-.2-.7-.5-.2-.2-.4-.4-.4-.5s0-.2,0-.3c0,0,0-.3,0-.4,0-.2.2-.8.5-1.3.4-.7.5-1.2.5-1.7,0-.3,0-.5-.2-.6,0-.1-.1-.2-.1-.2s0-.1-.2-.2-.2-.2-.2-.2c0,0-26.5-26.6-26.6-26.6s-.1,0-.3-.2-.2-.2-.2-.2-.1,0-.2-.1c-.2-.1-.3-.1-.8-.1s-.7,0-.7,0c-1.6.7-1.7.8-2,.8-.3,0-.4,0-.9-.2-.3-.1-.7-.7-.8-1-.1-.4-.2-.7,0-.8,0,0,0-.1,0-.3,0-.1.1-.4.2-.5s.1-.2.1-.3c0,0,0,0,6.5-6.6l6.3-6.3,17.6,17.6,17.6,17.6-6.3,6.3c-3.5,3.5-6.3,6.3-6.4,6.4-.2.2-.8.4-1,.5-.1,0-.2,0-.3,0,0,.1-.3,0-.7,0h0ZM79.5,102.2c-.1,0-.4-.2-.5-.3s-.3-.2-.3-.2-.2-.1-.4-.3-.4-.3-.4-.3-.2,0-.3-.2c-.3-.2-1.5-.8-1.7-.8s-.1,0-.2,0-.2-.1-.4-.2c-.2,0-.4-.1-.6-.1s-.6,0-1,0h-.8s-.6-.6-.6-.6c-.3-.3-.6-.6-.6-.7s.8-.8,1.7-1.7l1.7-1.7,2.9,2.9c1.8,1.8,2.9,3,3,3.1,0,.1,0,.3,0,.3,0,.3-.4.9-.7,1-.2,0-.6,0-.9,0h0ZM112.9,93.2c-.3,0-.6-.5-.6-.8s0-.4.2-.6c.3-.6.3-1.1.2-1.4,0,0-.1-.2-.1-.2,0,0-14.3-14.3-14.3-14.3s0,0-.2-.1c0,0-.2-.1-.5,0-.3,0-.5,0-.8.2-.7.3-1.1.3-1.4-.2,0,0-.1-.3-.1-.4,0-.5,0-.6,3.6-4.1l3.3-3.3,9.2,9.2,9.2,9.2-3.3,3.3c-1.8,1.8-3.4,3.4-3.5,3.4-.3.1-.6.2-.8,0h0ZM196.8,85.7c-1.3-1.3-1.3-1.3-1.2-1.4,0,0,.1-.1.1-.2s0-.1,0-.1c0,0,.2-.2.4-.5,0-.1.1-.2.1-.2s0,0,.1-.1c0,0,.2-.5.4-.9s.4-.8.4-.8,0-.1,0-.1,0-.1.1-.3c0-.2,0-.3.1-.3,0,0,0-.2.1-.4s0-.3.1-.4,0-.2.1-.5c0-.2,0-.5.1-.5,0-.2.2-1.8.2-2.6s-.2-2.5-.2-2.7c0,0,0-.3-.1-.6s0-.5-.1-.5,0,0,0-.1c0-.1-.3-1.2-.4-1.3,0,0,0-.1,0-.2s0-.2-.1-.3c-.4-.9-.5-1.2-.7-1.5,0-.1,0-.3-.1-.3-.2-.4-.2-1.1-.1-1.4,0-.3.6-.8,1-1,.3-.2.4-.2.8-.1.3,0,.5,0,.6.2.1,0,.2.1.2.1s1.4,1.3,3,3l3,3v7.9l-3.3,3.3c-1.8,1.8-3.4,3.3-3.4,3.3,0,0-.6-.6-1.3-1.3h0ZM121.3,84.4l-.6-.6v-.2c.2-.1.3-.3.3-.3s0-.2.1-.2c0,0,.3-.6.4-.8,0-.1,0-.2,0-.2s0-.2.1-.4c0-.2,0-.4.1-.4,0,0,.2-1.2.2-1.9s0-1.6-.2-1.8c0,0,0-.2-.1-.4s-.1-.4-.2-.5c0-.1-.1-.3-.2-.4,0-.1-.1-.3-.2-.5-.2-.4-.3-.8-.2-1,0-.2.3-.5.4-.5s0,0,.1,0c0-.1.5-.1.7,0,0,0,.2.1.2.1s1.2,1.1,2.6,2.5l2.5,2.5-2.8,2.8c-1.5,1.5-2.8,2.8-2.8,2.8,0,0-.3-.3-.6-.6h0ZM117.8,77.1c-.1,0-.3-.1-.5-.2-.3-.2-.9-.5-1.2-.6-.2-.1-1.2-.3-1.5-.3s-1.1.2-1.3.3c0,0-.2,0-.8-.7l-.7-.7v-.3c.1-.1.2-.3.2-.3s0-.4,0-.7c0-.7,0-1.1-.3-1.6,0-.1-.1-.3-.2-.4s0-.2-.1-.2c0,0-.2-.2-.4-.7-.1-.2-.2-.4-.2-.6,0-.3,0-.3.2-.5.3-.3.6-.5.7-.4s.1,0,.2,0,1.2,1.1,3.3,3.2c1.8,1.8,3.3,3.3,3.4,3.4.3.4.3.6,0,1-.3.3-.5.4-.9.3h0ZM190.1,71.8c-.6-.2-1.2-.5-1.4-.6-.1-.1-1.4-.7-1.7-.8-.1,0-.3-.1-.4-.2,0,0-.2,0-.2,0s-.2,0-.3,0c-.3-.1-1.4-.3-1.9-.3s-1.5.2-1.8.3c0,0-.2,0-.3,0s-.2,0-.3.1c-.4.3-.3.3-1.9-1.2l-1.4-1.4.2-.4c.4-.7.5-1.7.5-2.7,0-.6-.2-1.5-.3-1.8,0,0,0-.2,0-.3,0-.2-.2-.5-.7-1.4-1.1-2.2-1.1-2.1-1.1-2.6,0-.6.1-.8.6-1.3.4-.4.7-.5,1.2-.5.2,0,.4,0,.6.2.1,0,.3.2.3.2s0,0,.1,0,.2.2.4.4c.2.2.3.3.3.3,0,0,10.3,10.4,10.7,10.7.2.1.3.3.3.3s0,.1.1.2c0,0,.2.3.3.5.4.7.3,1.2-.3,1.8-.3.3-.8.6-1.2.6,0,0-.3,0-.6-.1h0ZM104.1,67.2c-.3-.3-.6-.6-.6-.7s1.2-1.2,2.7-2.7l2.7-2.7,2.6,2.6c1.7,1.7,2.6,2.7,2.6,2.7,0,.1-.2.6-.4.8,0,0-.2.1-.3.2-.2.1-.3.1-.5,0-.1,0-.4-.2-.6-.2s-.3-.2-.4-.2-.1,0-.2,0c0,0-.2,0-.2,0s-.2,0-.2,0c0,0-.3-.1-.5-.2s-.3,0-.4-.1c-.1-.1-1.6-.2-2.3-.1-.4,0-.8,0-.8.1,0,0-.2,0-.4.1-.5.1-1.4.5-1.9.9-.1,0-.3.2-.3.2,0,0-.3-.3-.7-.6h0ZM164.3,53.2c-.7-.7-1.2-1.3-1.2-1.3s1.5-1.6,3.3-3.4l3.3-3.3h7.2l3.1,3.1c2.5,2.5,3.1,3.1,3.1,3.3,0,.1,0,.2,0,.2,0,0,0,.3,0,.4,0,0,0,.2-.1.4-.1.3-.8,1.1-1.2,1.3-.3.1-.8.2-.9,0,0,0-.2,0-.3-.1-.1,0-.6-.2-1-.4-.4-.2-.8-.4-.9-.4s-.3-.1-.4-.2-.3-.1-.5-.2c-.1,0-.3,0-.3-.1s-.1,0-.3,0c-.1,0-.3,0-.4-.1-.2,0-.7-.2-1.4-.3-.8-.1-2.1-.2-3-.1-.5,0-1,0-1.2.1-.6.1-1.2.3-1.4.3-.1,0-.3.1-.4.1s-.3,0-.4.1c0,0-.2.1-.4.1s-.2,0-.2,0-.1,0-.2.1-.2.1-.2.1,0,0-.2,0-.3.1-.5.2-.4.2-.5.3c-.3.2-.5.3-.8.5-.2.1-.3.2-.4.2s0,0-.1,0c0,0-.1,0-.1,0s-.6-.6-1.3-1.3h0Z"/>
    </g>
  </g>
</svg>