<svg id="Home_Depot" data-name="Home Depot" xmlns="http://www.w3.org/2000/svg" width="500" height="350" viewBox="0 0 500 350">
  <defs>
    <style>
      .cls-1 {
        fill: #f96302;
      }

      .cls-2 {
        fill: #fff;
        fill-rule: evenodd;
      }
    </style>
  </defs>
  <rect id="Card" class="cls-1" x="14" y="43" width="472" height="264" rx="20" ry="20"/>
  <circle id="Round" class="cls-1" cx="250" cy="175" r="175"/>
  <path id="Home_Depot-2" data-name="Home Depot" class="cls-2" d="M200.988,176.314c-2.2,4.687-.284,7.187,1.558,9.019l38.074,38.081c1.842,1.838,4.339,3.748,9.032,1.545l4.264,4.272c-16.946,14.152-36.774,8.846-51.406-5.782s-19.938-34.463-5.779-51.4Zm51.971,45.354c2.2-4.688.287-7.2-1.558-9.032L213.33,174.562c-1.845-1.842-4.341-3.749-9.032-1.549l-4.266-4.263c16.943-14.152,36.779-8.852,51.408,5.776s19.933,34.46,5.776,51.405Zm81.055-79.285a2.884,2.884,0,0,0-3.6-.368c-3.381,1.764-3.74,1.25-6.464-1.477l-38.525-38.514c-2.724-2.717-3.247-3.082-1.471-6.469a2.9,2.9,0,0,0-.377-3.6c-2.129-2.131-4.694.147-4.984,0.434L259.22,111.758l15.818,29.318-0.146.132-30.409-14.7-18.626,18.624c-0.876.876-3.085,3.076-.813,5.36,1.764,1.764,3.895-.068,4.849-0.881,1.322-1.169,2.506-.586,4.261-0.135a21.02,21.02,0,0,1,4.484,1.845l60.817,30.164,2.129-2.126-29.751-54.983,34.14,34.14c2.718,2.721,3.232,3.094,1.468,6.458a2.877,2.877,0,0,0,.383,3.6c2.122,2.123,4.691-.141,4.984-0.439l20.772-20.757c0.3-.293,2.557-2.861.434-4.992m-57.46,38.774-12.641-12.64L247.676,160.5l-0.143.15L272.3,185.417c8.012,10.361.457,12.191,3.617,15.348,2.284,2.272,5.14-.876,5.944-1.692l8.362-8.35c0.8-.807,3.953-3.656,1.668-5.937-3.148-3.16-4.975,4.4-15.337-3.629m-39.91,76.974c6.942-7.112,17.684-8.1,28.848,2.074,10.162,9.25,8.924,21.979,2.069,28.84l-2.4-2.4c2.192-2.852-.042-5.334-1.614-6.9L245.942,262.14c-1.569-1.567-4.048-3.8-6.9-1.609Zm15.409-15.408,10.9-10.906,30.92,30.912-10.91,10.905c-0.164.165-1.608,1.45-2.816,0.251a1.635,1.635,0,0,1-.2-2.026c0.993-1.9.706-2.108-.825-3.639l-21.654-21.653c-1.528-1.527-1.741-1.817-3.636-.831a1.617,1.617,0,0,1-2.03-.2c-1.2-1.2.087-2.652,0.248-2.816m12.772-12.769,9.218-9.213,8.386,8.385c0.206,0.21.957,1.032-.29,2.272-0.7.712-1.319,0.5-2.144,0.087-4.431-2.272-8.556-2.191-12.778.861Zm28.516,28.517a11.986,11.986,0,0,0,1.032-13.025c-0.326-.906-0.748-1.811,0-2.559a1.66,1.66,0,0,1,2.607.209l8.27,8.269-9.511,9.507Zm-14.715-14.72c1.283-2.182.457-4.577-.745-6.52-0.5-.912-0.911-1.824-0.038-2.694,1.279-1.279,2.559.413,2.9,0.754l8.924,8.926c0.326,0.323,2.021,1.609.735,2.885-0.861.876-1.772,0.464-2.681-.039-1.944-1.192-4.332-2.026-6.527-.741Zm11.364-38.962c3.925-3.922,6.658-5.836,9.717-6.652,4.882-1.243,8.8.287,12.284,3.749,3.462,3.474,4.993,7.405,3.756,12.287-0.832,3.058-2.73,5.791-6.662,9.71l-2.4-2.389c1.985-2.9.418-4.717-1.609-6.75l-6.236-6.242c-1.866-1.851-3.932-3.175-6.458-1.313Zm-7.355,16.621c-1.534-1.53-1.74-1.82-3.644-.828a1.611,1.611,0,0,1-2.021-.215c-1.2-1.19.08-2.64,0.245-2.81l10.912-10.906,26.289,26.293c1.522,1.519,1.731,1.815,3.636.822a1.633,1.633,0,0,1,2.03.2c1.2,1.2-.081,2.649-0.255,2.808l-11.695,11.7a1.674,1.674,0,0,1-2.482-.072,1.511,1.511,0,0,1-.311-1.931c0.993-1.9.476-1.881-1.049-3.408Zm-126.8-76.133,9.517-9.516,24.71,24.7c1.438,1.438,1.626,1.713,3.417.781a1.516,1.516,0,0,1,1.9.191c1.127,1.127-.078,2.487-0.234,2.643l-10.99,11c-0.155.153-1.516,1.357-2.646,0.23a1.527,1.527,0,0,1-.191-1.9c0.933-1.788.661-1.979-.777-3.417Zm25.909-7.806a1.649,1.649,0,0,1-.152,2.407c-1.088,1.085-2.3.275-3.262-.467-2.41-1.7-5.519-3.731-8.978-3.148l-2.254-2.254,5.6-5.593ZM148.5,152.616l5.6-5.59,2.252,2.254c-0.583,3.456,1.438,6.562,3.145,8.974,0.741,0.966,1.558,2.171.469,3.262a1.66,1.66,0,0,1-2.412.152Zm61.768-12.347c1.435,1.435,1.629,1.7,3.417.778a1.527,1.527,0,0,1,1.9.191c1.127,1.127-.08,2.487-0.236,2.64l-10.993,11c-0.156.153-1.516,1.357-2.64,0.233a1.524,1.524,0,0,1-.194-1.9c0.932-1.788.657-1.979-.775-3.414l-20.357-20.362c-1.441-1.435-1.632-1.71-3.417-.777a1.528,1.528,0,0,1-1.905-.191c-1.127-1.13.075-2.488,0.231-2.64l11-11c0.158-.153,1.513-1.361,2.64-0.234a1.522,1.522,0,0,1,.194,1.9c-0.93,1.79-.658,1.985.78,3.423Zm-4.117-14.451-3.421,3.417-2.251-2.254,3.42-3.417-8.822-8.816c-1.435-1.438-1.63-1.71-3.418-.777a1.529,1.529,0,0,1-1.9-.192c-1.127-1.133.081-2.487,0.233-2.645l11-10.993c0.153-.155,1.513-1.36,2.64-0.23a1.526,1.526,0,0,1,.192,1.9c-0.933,1.782-.658,1.979.783,3.414l20.354,20.356c1.435,1.435,1.633,1.7,3.414.777a1.513,1.513,0,0,1,1.905.2c1.127,1.121-.078,2.482-0.233,2.637l-10.991,10.993c-0.158.155-1.518,1.357-2.642,0.233a1.524,1.524,0,0,1-.2-1.905c0.93-1.787.658-1.979-.777-3.417Zm-1.507-29.336,10.255-10.26,29.063,29.058L233.7,125.537c-0.152.152-1.513,1.354-2.64,0.227a1.5,1.5,0,0,1-.194-1.895c0.933-1.791.661-1.985-.777-3.423l-20.358-20.353c-1.435-1.438-1.632-1.713-3.414-.777a1.528,1.528,0,0,1-1.907-.194c-1.127-1.127.077-2.487,0.233-2.64m12-12,8.664-8.667,7.884,7.889c0.194,0.194.891,0.969-.269,2.137-0.661.661-1.244,0.46-2.018,0.075-4.165-2.138-8.049-2.06-12.007.813Zm26.806,26.8a11.262,11.262,0,0,0,.968-12.236c-0.311-.855-0.7-1.71,0-2.41a1.551,1.551,0,0,1,2.446.2l7.77,7.766-8.933,8.933ZM229.621,97.451c1.2-2.06.425-4.314-.7-6.14-0.47-.852-0.856-1.7-0.036-2.523,1.2-1.2,2.406.392,2.717,0.7l8.39,8.389c0.31,0.311,1.9,1.513.7,2.717-0.816.817-1.668,0.428-2.526-.035-1.824-1.127-4.078-1.9-6.138-.7Zm-2.777,152.094a2.9,2.9,0,0,0-3.6-.383c-3.384,1.779-3.752,1.259-6.467-1.462l-38.52-38.525c-2.717-2.721-3.234-3.086-1.467-6.458a2.882,2.882,0,0,0-.383-3.6c-2.129-2.12-4.688.149-4.984,0.442l-20.758,20.756c-0.3.305-2.571,2.855-.439,4.987a2.867,2.867,0,0,0,3.593.374c3.382-1.752,3.749-1.238,6.458,1.476l16.7,16.691-6.449,6.457,4.248,4.254,6.461-6.457,17.574,17.575c2.718,2.715,3.238,3.088,1.468,6.458a2.907,2.907,0,0,0,.377,3.608c2.131,2.119,4.7-.15,5-0.443l20.758-20.756c0.3-.293,2.562-2.861.437-4.992m-27.73,27.721a2.874,2.874,0,0,0-3.594-.367c-3.381,1.764-3.746,1.249-6.464-1.483l-38.525-38.508c-2.724-2.72-3.238-3.088-1.471-6.475a2.883,2.883,0,0,0-.38-3.6c-2.126-2.119-4.691.159-4.984,0.443l-17.7,17.7v8.466c0.03-.015.063-0.027,0.093-0.045,3.375-1.758,3.737-1.246,6.463,1.483L171.082,293.4c2.718,2.714,3.229,3.091,1.471,6.454a1.481,1.481,0,0,0-.057.156h8.458l17.726-17.746c0.287-.293,2.563-2.855.434-4.993m53.1,21.821c-0.147.308-.3,0.607-0.434,0.9h4.828l9.086-9.076L234.787,260,224.2,270.576c-0.822.819-1.734,1.985-.664,3.058,1.04,1.026,1.946.365,3.061-.167,1.035-.538,2.063.657,2.685,1.276L250.941,296.4c0.625,0.619,1.824,1.663,1.277,2.691m83.288-135.009-2.4-2.4-5.947,5.949,9.627,9.629a1.757,1.757,0,0,0,2.56-.164c1.156-1.154.293-2.439-.5-3.474-1.818-2.562-3.967-5.862-3.342-9.542m23.391-10.5c1.029,0.786,2.311,1.653,3.468.5a1.762,1.762,0,0,0,.168-2.562l-9.633-9.623-5.95,5.955,2.4,2.4c3.675-.624,6.987,1.519,9.549,3.334M375,176.81c-1.889.987-2.1,0.7-3.626-.831L345.091,149.7l-10.132,10.126,26.3,26.286c1.519,1.525,1.818,1.734.817,3.633a1.619,1.619,0,0,0,.212,2.021c1.2,1.2,2.646-.084,2.81-0.249l9.9-9.9v-4.8ZM332.528,69.774c-1.537,1.54-.8,3.166.075,4.774,2.131,3.453,3.614,7.716,1.342,11.6L338.5,90.7c3.884-2.26,8.144-.789,11.6,1.336,1.62,0.876,3.234,1.626,4.783.084,2.263-2.272-.747-4.562-1.333-5.145L337.682,71.1c-0.592-.583-2.882-3.59-5.154-1.327m-45.8,14.5c-0.3.284-2.574,2.864-.445,4.986a2.878,2.878,0,0,0,3.6.374c3.379-1.764,3.743-1.244,6.464,1.471l38.529,38.514c2.726,2.726,3.232,3.094,1.477,6.469a2.894,2.894,0,0,0,.368,3.6c2.128,2.126,4.7-.146,5-0.439l19.368-19.369-55-54.971ZM375,93.478l-8.458-8.454c-0.3-.3-2.275-2.732-4.628-0.38-1.318,1.312-.58,2.933.009,4.553,3.9,7.853,3.4,16.442-1.806,23.12l4.255,4.26L375,105.953V93.478ZM340.666,60.162L331.505,51H319.989L309.378,61.6l4.27,4.26c7.483-5.42,14.832-5.575,22.689-1.513,1.471,0.732,2.571,1.1,3.821-.156,2.2-2.188.882-3.668,0.508-4.033"/>
  <path id="O" class="cls-2" d="M316.186,182.158c-1.235,2.643-.167,4.039.864,5.073l21.413,21.411c1.037,1.035,2.439,2.108,5.088.864l2.392,2.4c-9.549,7.973-20.7,5.01-28.926-3.223s-11.208-19.381-3.232-28.932Zm29.219,25.492c1.24-2.646.167-4.045-.867-5.082l-21.413-21.4c-1.031-1.047-2.437-2.114-5.082-.876l-2.392-2.395c9.549-7.982,20.7-5,28.926,3.223s11.208,19.375,3.228,28.932Z"/>
</svg>
