<svg id="Lowes" xmlns="http://www.w3.org/2000/svg" width="500" height="350" viewBox="0 0 500 350">
  <defs>
    <style>
      .cls-1, .cls-3 {
        fill: #004990;
      }

      .cls-2 {
        fill: #fff;
      }

      .cls-2, .cls-3 {
        fill-rule: evenodd;
      }
    </style>
  </defs>
  <rect id="Card" class="cls-1" x="14" y="43" width="472" height="264" rx="20" ry="20"/>
  <circle id="Round" class="cls-1" cx="250" cy="175" r="175"/>
  <path id="House" class="cls-2" d="M250.016,93L157.555,132.76H99.881v16.22H70.991V258H429V148.98H400.127V132.76H342.473Z"/>
  <path id="Lowes-2" data-name="Lowes" class="cls-3" d="M335.391,161.755l0,17.624,11.359,0.02,2.367-17.639-13.72,0h0Zm61.414,15.271c0.732,0,1.394-.055,1.394-0.951,0-.7-0.652-0.836-1.253-0.836h-1.184v1.787h1.043Zm-1.043,3.232H394.9V174.5h2.186c1.349,0,2.021.5,2.021,1.641a1.49,1.49,0,0,1-1.479,1.586l1.629,2.532H398.28l-1.515-2.5h-1v2.5h0Zm1.053,1.289a4.165,4.165,0,1,0-4.056-4.179,4.024,4.024,0,0,0,4.056,4.179m-5.059-4.179a5.047,5.047,0,1,1,5.059,5.014,4.979,4.979,0,0,1-5.059-5.014M128.1,221.814V161.753H111.737v74.363h41.682v-14.3H128.1Zm164.726,14.305h38.949V221.8H309.269v-9.333h22.506V198.676H309.269v-9.384h22.506V174.909H292.826v61.21ZM190.818,189.293H176.426v32.445h14.392V189.293ZM207.211,228.3a7.8,7.8,0,0,1-7.787,7.818H167.816a7.8,7.8,0,0,1-7.783-7.818V182.729a7.8,7.8,0,0,1,7.783-7.818h31.608a7.8,7.8,0,0,1,7.787,7.818V228.3Zm59.864-53.39v46.9H257.2v-46.9H242.8v46.9h-9.879v-46.9H216.531V228.3a7.805,7.805,0,0,0,7.788,7.823H243.7c3.265,0,6.3-2.265,6.3-5.543,0,3.278,3.039,5.543,6.3,5.543h19.382a7.8,7.8,0,0,0,7.783-7.823V174.912H267.075Zm122.16,38.077,0,0-0.1-.212c-0.065-.13-0.13-0.257-0.195-0.387l-0.1-.2c-2.593-5.221-8.4-9.58-17.748-13.336l-0.331-.125c-1.85-.73-7.481-2.94-8.108-6.534a4.148,4.148,0,0,1,1.354-3.55,7.234,7.234,0,0,1,5.366-1.822c3.811,0,8.143,1.566,10.39,2.5,4.729,1.968,8.876,3.725,8.916,3.75l0.411,0.171v-13.36l-0.135-.086c-0.09-.06-9.031-5.719-18.063-7.017-1.038-.091-2.066-0.131-3.054-0.131-8.314,0-14.613,3.03-18.715,9.011-3.445,4.913-3.826,12.691-.9,18.5,3.766,6.56,9.8,9.3,15.646,11.951a71.786,71.786,0,0,1,7.231,3.614l0.024,0.016c2.638,1.591,3.982,4.023,3.425,6.182-0.577,2.241-3.129,3.746-6.354,3.746a9.456,9.456,0,0,1-1.324-.086l-0.156-.02c-6.2-.866-18.78-5.568-18.905-5.618l-0.4-.151v14.649l0.206,0.071c0.115,0.04,12.291,4.088,23.1,4.088h0c5.9,0,10.35-1.194,13.229-3.539a20.6,20.6,0,0,0,6.965-14.448,16.6,16.6,0,0,0-1.685-7.622"/>
</svg>
