<?xml version="1.0" encoding="utf-8"?>
<!-- Generator: Adobe Illustrator 22.0.0, SVG Export Plug-In . SVG Version: 6.00 Build 0)  -->
<svg version="1.1" id="Lowes" xmlns="http://www.w3.org/2000/svg" xmlns:xlink="http://www.w3.org/1999/xlink" x="0px" y="0px"
	 viewBox="0 0 472 350" style="enable-background:new 0 0 472 350;" xml:space="preserve">
<style type="text/css">
	.st0{fill:#004990;}
	.st1{fill:#FFFFFF;}
</style>
<path id="Card" class="st0" d="M20,43h432c11,0,20,9,20,20v224c0,11-9,20-20,20H20c-11,0-20-9-20-20V63C0,52,9,43,20,43z"/>
<circle id="Round" class="st0" cx="236" cy="175" r="175"/>
<path id="House" class="st1" d="M236,93l-92.5,39.8H85.9V149H57v109h358V149h-28.9v-16.2h-57.7L236,93z"/>
<path id="Lowes-2" class="st0" d="M321.4,161.8v17.6l11.4,0l2.4-17.6L321.4,161.8L321.4,161.8L321.4,161.8z M382.8,177
	c0.7,0,1.4-0.1,1.4-1c0-0.7-0.7-0.8-1.3-0.8h-1.2v1.8H382.8L382.8,177z M381.8,180.3h-0.9v-5.8h2.2c1.3,0,2,0.5,2,1.6
	c0.1,0.8-0.6,1.5-1.4,1.6c0,0-0.1,0-0.1,0l1.6,2.5h-1l-1.5-2.5h-1L381.8,180.3L381.8,180.3L381.8,180.3z M382.8,181.5
	c2.3,0.1,4.2-1.8,4.3-4.1c0.1-2.3-1.8-4.2-4.1-4.3c-2.3-0.1-4.2,1.8-4.3,4.1c0,0,0,0.1,0,0.1c-0.1,2.2,1.6,4.1,3.9,4.2
	C382.7,181.5,382.8,181.5,382.8,181.5 M377.8,177.4c0-2.8,2.2-5.1,5-5.1c2.8,0,5.1,2.2,5.1,5c0,2.8-2.2,5.1-5,5.1c0,0,0,0,0,0
	c-2.7,0-5-2.1-5.1-4.9C377.8,177.4,377.8,177.4,377.8,177.4 M114.1,221.8v-60.1H97.7v74.4h41.7v-14.3L114.1,221.8L114.1,221.8z
	 M278.8,236.1h38.9v-14.3h-22.5v-9.3h22.5v-13.8h-22.5v-9.4h22.5v-14.4h-38.9V236.1z M176.8,189.3h-14.4v32.4h14.4V189.3z
	 M193.2,228.3c0,4.3-3.5,7.8-7.8,7.8c0,0,0,0,0,0h-31.6c-4.3,0-7.8-3.5-7.8-7.8c0,0,0,0,0,0v-45.6c0-4.3,3.5-7.8,7.8-7.8
	c0,0,0,0,0,0h31.6c4.3,0,7.8,3.5,7.8,7.8c0,0,0,0,0,0V228.3z M253.1,174.9v46.9h-9.9v-46.9h-14.4v46.9h-9.9v-46.9h-16.4v53.4
	c0,4.3,3.5,7.8,7.8,7.8c0,0,0,0,0,0h19.4c3.3,0,6.3-2.3,6.3-5.5c0,3.3,3,5.5,6.3,5.5h19.4c4.3,0,7.8-3.5,7.8-7.8c0,0,0,0,0,0v-53.4
	L253.1,174.9L253.1,174.9z M375.2,213L375.2,213l-0.1-0.2c-0.1-0.1-0.1-0.3-0.2-0.4l-0.1-0.2c-2.6-5.2-8.4-9.6-17.7-13.3l-0.3-0.1
	c-1.9-0.7-7.5-2.9-8.1-6.5c-0.1-1.3,0.4-2.7,1.4-3.6c1.5-1.3,3.4-2,5.4-1.8c3.8,0,8.1,1.6,10.4,2.5c4.7,2,8.9,3.7,8.9,3.8l0.4,0.2
	v-13.4l-0.1-0.1c-0.1-0.1-9-5.7-18.1-7c-1-0.1-2.1-0.1-3.1-0.1c-8.3,0-14.6,3-18.7,9c-3.4,4.9-3.8,12.7-0.9,18.5
	c3.8,6.6,9.8,9.3,15.6,12c2.5,1.1,4.9,2.3,7.2,3.6l0,0c2.6,1.6,4,4,3.4,6.2c-0.6,2.2-3.1,3.7-6.4,3.7c-0.4,0-0.9,0-1.3-0.1l-0.2,0
	c-6.2-0.9-18.8-5.6-18.9-5.6l-0.4-0.2v14.6l0.2,0.1c0.1,0,12.3,4.1,23.1,4.1l0,0c5.9,0,10.4-1.2,13.2-3.5c4.2-3.7,6.7-8.9,7-14.4
	C377,218,376.4,215.4,375.2,213"/>
</svg>
