<?xml version="1.0" encoding="UTF-8"?>
<svg xmlns="http://www.w3.org/2000/svg" version="1.1" viewBox="0 0 250 250">
  <defs>
    <style>
      .cls-1 {
        fill: none;
        stroke: #fff;
        stroke-miterlimit: 10;
        stroke-width: 3.3px;
      }

      .cls-2 {
        fill: #01226a;
      }

      .cls-3 {
        fill: #fff;
      }
    </style>
  </defs>
  <!-- Generator: Adobe Illustrator 28.6.0, SVG Export Plug-In . SVG Version: 1.2.0 Build 709)  -->
  <g>
    <g id="Layer_1">
      <circle class="cls-2" cx="125" cy="125" r="122.5"/>
      <g>
        <path class="cls-1" d="M125,83.7l-43.8,18.8h-27.3v7.7h-13.7v51.5h169.7v-51.5h-13.7v-7.7h-27.3l-43.8-18.8Z"/>
        <path class="cls-3" d="M165.5,116.2v8.3s5.4,0,5.4,0l1.1-8.3h-6.5s0,0,0,0ZM194.6,123.4c.3,0,.7,0,.7-.4s-.3-.4-.6-.4h-.6v.8h.5ZM194.1,124.9h-.4v-2.7h1c.6,0,1,.2,1,.8s-.3.7-.7.7l.8,1.2h-.5l-.7-1.2h-.5v1.2ZM194.6,125.5c1.1,0,1.9-.8,1.9-2s-.8-2-1.9-2-1.9.8-1.9,2,.8,2,1.9,2M192.2,123.6c0-1.4,1.1-2.4,2.4-2.4s2.4,1,2.4,2.4-1.1,2.4-2.4,2.4-2.4-1-2.4-2.4M67.2,144.5v-28.4h-7.8v35.1h19.8v-6.8h-12ZM145.3,151.3h18.5v-6.8h-10.7v-4.4h10.7v-6.5h-10.7v-4.4h10.7v-6.8h-18.5s0,28.9,0,28.9ZM96.9,129.2h-6.8v15.3h6.8v-15.3ZM104.7,147.6c0,2-1.7,3.7-3.7,3.7h-15c-2,0-3.7-1.7-3.7-3.7v-21.5c0-2,1.7-3.7,3.7-3.7h15c2,0,3.7,1.7,3.7,3.7v21.5ZM133.1,122.4v22.1h-4.7v-22.1h-6.8v22.1h-4.7v-22.1h-7.8v25.2c0,2,1.7,3.7,3.7,3.7h9.2c1.5,0,3-1.1,3-2.6,0,1.5,1.4,2.6,3,2.6h9.2c2,0,3.7-1.7,3.7-3.7v-25.2h-7.8ZM191,140.4h0s0,0,0,0c0,0,0-.1,0-.2h0c-1.2-2.6-4-4.6-8.4-6.4h-.2c-.9-.4-3.5-1.4-3.8-3.1,0-.5.1-1.2.6-1.7.6-.6,1.4-.9,2.5-.9,1.8,0,3.9.7,4.9,1.2,2.2.9,4.2,1.8,4.2,1.8h.2c0,0,0-6.2,0-6.2h0c0,0-4.3-2.7-8.6-3.4-.5,0-1,0-1.4,0-3.9,0-6.9,1.4-8.9,4.3-1.6,2.3-1.8,6-.4,8.7,1.8,3.1,4.6,4.4,7.4,5.6,1.1.5,2.3,1.1,3.4,1.7h0c1.3.8,1.9,1.9,1.6,2.9-.3,1.1-1.5,1.8-3,1.8s-.4,0-.6,0h0c-2.9-.4-8.9-2.6-9-2.7h-.2c0,0,0,6.8,0,6.8h0c0,0,5.8,2,10.9,2h0c2.8,0,4.9-.6,6.3-1.7,0,0,3.2-2.5,3.3-6.8,0-1.2-.2-2.4-.8-3.6"/>
      </g>
    </g>
  </g>
</svg>