<?xml version="1.0" encoding="utf-8"?>
<!-- Generator: Adobe Illustrator 22.0.0, SVG Export Plug-In . SVG Version: 6.00 Build 0)  -->
<svg version="1.1" id="Starbucks" xmlns="http://www.w3.org/2000/svg" xmlns:xlink="http://www.w3.org/1999/xlink" x="0px" y="0px"
	 viewBox="0 0 472 350" style="enable-background:new 0 0 472 350;" xml:space="preserve">
<style type="text/css">
	.st0{fill:#05714B;}
	.st1{fill:#FFFFFF;}
</style>
<path id="Card" class="st0" d="M20,43h432c11,0,20,9,20,20v224c0,11-9,20-20,20H20c-11,0-20-9-20-20V63C0,52,9,43,20,43z"/>
<circle id="Round" class="st1" cx="236.7" cy="175.2" r="175"/>
<path id="Starbucks-2" class="st0" d="M253.5,75.9L253.5,75.9c-5.8-1-11.7-1.5-17.6-1.5s-11.8,0.5-17.6,1.5
	c-0.9,0.1-1.2-0.7-0.6-1.2c0.7-0.4,18.2-13.8,18.2-13.8s17.6,13.3,18.1,13.8c0.3,0.1,0.5,0.5,0.3,0.8
	C254.1,75.8,253.8,76.1,253.5,75.9z M223.2,162.8L223.2,162.8c-0.5,0.2-1,0.6-1.2,1.2c3.7,2.8,6.2,9.3,13.8,9.3
	c7.6,0,10.2-6.4,13.9-9.3c-0.2-0.5-0.6-1-1.2-1.2c-4.2,0.9-8.5,1.2-12.7,1.2C231.6,164.1,227.4,163.7,223.2,162.8z M235.9,151.9
	L235.9,151.9c-2.1,0-2.6-0.8-4-0.8s-4.1,1.1-4.7,2.1c0.1,0.5,0.3,1,0.6,1.4c3.1,0.5,4.5,2.2,8.1,2.2s5-1.7,8.1-2.2
	c0.4-0.4,0.6-0.9,0.6-1.4c-0.6-1-3.3-2.1-4.6-2.1C238.5,151.1,238,151.9,235.9,151.9L235.9,151.9z M411.3,185.2L411.3,185.2
	c-0.2,4.2-0.6,8.4-1.1,12.5c-19.8,3.3-27-14.4-47.4-13.5c1.2,4.3,2.2,8.8,2.9,13.2c16.7-0.1,23.6,15.6,42.4,13.3
	c-1,4.8-2.1,9.5-3.5,14.2c-14.7,1.4-19.9-13.2-37.2-12.8c0.1,2.4,0.2,4.8,0.2,7.3c0,1.4,0,2.8-0.1,4.1c14.5-0.1,19.2,13.3,33.2,12.6
	c-1.7,4.7-3.6,9.3-5.7,13.8c-10-0.5-13.4-13.3-28.6-12.2c-0.5,3.2-1,6.5-1.7,9.7c13.1-0.9,16,11.2,25.5,12.2
	c-2.4,4.4-5,8.6-7.7,12.7c-5.5-3-10.4-12-21-12.5c1-3.3,2-6.8,2.8-10.2c-9.4,0-20.1-3.7-29.2-11.9c2.9-16.6-22.9-33.7-22.9-45.8
	c0-13.2,6.7-20.5,6.7-38.5c0-13.1-6.4-27.6-16.1-37.5c-1.8-1.9-3.8-3.5-6-4.8c8.9,11,15.7,24.2,15.7,39.3c0,16.7-7.7,25.7-7.7,41.3
	c0,15.4,22.7,28.9,22.7,44.9c0,6.3-2,12.5-8.6,24.6c10.2,10.2,23.5,15.7,32.1,15.7c2.8,0,4.2-0.9,5.3-3c0.8-1.9,1.7-3.8,2.4-5.7
	c9.2,0.3,13.4,8.7,18.5,12c-2.8,3.7-5.7,7.3-8.8,10.9c-3.4-3.8-8-10.1-14.7-11.9c-1.2,2.4-2.4,4.6-3.8,6.9
	c5.8,1.5,9.8,7.4,12.8,11.2c-3.3,3.4-6.7,6.7-10.3,9.8c-2.2-3.5-5.7-7.9-9.6-10.2c-1.4,1.9-2.9,3.9-4.4,5.7c3.3,2.2,6.2,6.2,8.1,9.5
	c-4.1,3.3-8.4,6.4-12.8,9.4c-2.2-17.8-26.5-30-19.9-50.7c-2.1,3.6-4.7,8.2-4.7,13.6c0,14.9,15.9,26.9,17.2,41.8
	c-3.3,1.9-6.6,3.8-10.1,5.5c-0.6-16.2-17.4-34.3-17.4-47.7c0-14.9,19.6-30,19.6-47.8c0-17.6-22.7-29.9-22.7-45.5s9.6-24.5,9.6-44.4
	c-0.2-14.8-6.6-28.9-17.6-38.9c-1.8-1.6-3.8-3-6-4.1c10,12,15.8,23.1,15.8,39.8c0,18.7-11,29.1-11,47.4s22.2,28.5,22.2,45.6
	c0,17.1-20.6,31.5-20.6,49.1c0,15.9,18.2,31.9,18.5,50.9c-3.9,1.7-8,3.3-12.2,4.8c2.4-19.1-18.1-39-18.1-54.5
	c0-17,21.4-31.7,21.4-50.2c0-18.3-21.7-26.9-21.7-45.9c0-18.8,13.4-29.3,13.4-50.2c-0.1-15.6-7.4-30.4-19.7-40
	c-0.3-0.2-0.5-0.4-0.8-0.6c-1.1-0.8-2,0.2-1.2,1.2c8.2,10.3,12.7,20.8,12.7,36.4c0,19.1-15.3,34.7-15.3,53.2c0,21.7,20.6,28,20.6,46
	s-22.2,32.3-22.2,51.3c0,17.6,20.9,37.3,17.3,57.6c-4.2,1-8.4,2-12.7,2.8c3.9-25.3-16.5-43.6-16.5-60.1c0-17.9,22.9-34.1,22.9-51.6
	c0-16.5-16.4-21.8-18.6-38.9c-0.2-2.2-2.1-3.8-4.3-3.7c-0.1,0-0.3,0-0.4,0.1c-3.3,0.6-7.6,2.8-14.3,2.8s-10.9-2.2-14.3-2.8
	c-2.2-0.4-4.3,1.1-4.7,3.3c0,0.1,0,0.2,0,0.3c-2.1,16.9-18.5,22.4-18.5,38.9c0,17.5,23,33.7,23,51.6c0,16.5-20.6,34.8-16.6,60.1
	c-4.3-0.8-8.6-1.7-12.7-2.8c-3.6-20.3,17.3-40,17.3-57.6c0-18.9-22.2-33.4-22.2-51.3c0-17.8,20.6-24.2,20.6-46
	c0-18.5-15.4-34.1-15.4-53.2c0-15.4,4.4-26,12.7-36.4c0.8-1-0.1-1.9-1.2-1.2c-0.3,0.2-0.5,0.4-0.8,0.6c-12.4,9.5-19.6,24.3-19.7,40
	c0,20.7,13.4,31.3,13.4,50.2c0,18.9-21.7,27.5-21.7,45.9c0,18.4,21.4,33.1,21.4,50.2c0,15.6-20.5,35.5-18.1,54.5
	c-4.2-1.5-8.2-3-12.2-4.8c0.3-18.9,18.5-35,18.5-50.9c0-17.5-20.6-31.9-20.6-49.1c0-17,22.3-27.3,22.3-45.6s-11-28.7-11-47.4
	c0-16.6,5.8-27.7,15.9-39.8c-2.2,1.1-4.2,2.5-6,4.1c-11,9.9-17.4,24-17.6,38.9c0,19.8,9.6,28.8,9.6,44.4s-22.7,27.8-22.7,45.5
	s19.6,32.7,19.6,47.8c0,13.4-16.9,31.3-17.4,47.7c-3.5-1.7-6.8-3.6-10.1-5.5c1.2-14.9,17.2-26.8,17.2-41.8c0-5.5-2.6-10-4.7-13.6
	c6.6,20.6-17.7,32.9-19.9,50.7c-4.4-3-8.7-6.1-12.8-9.4c1.9-3.3,4.8-7.3,8.2-9.5c-1.6-1.9-3-3.8-4.5-5.7c-3.9,2.4-7.4,6.8-9.6,10.2
	c-3.5-3.1-7-6.4-10.3-9.8c3-3.8,7.1-9.7,12.8-11.2c-1.3-2.3-2.6-4.6-3.8-6.9c-6.7,1.8-11.3,8.1-14.7,11.9c-3-3.5-6-7.1-8.8-10.9
	c5.1-3.3,9.3-11.7,18.5-12c0.8,1.9,1.5,3.8,2.4,5.7c1,2.1,2.4,3,5.3,3c8.5,0,21.7-5.5,32-15.7c-6.6-12-8.6-18.2-8.6-24.6
	c0-15.9,22.7-29.4,22.7-44.9c0-15.5-7.8-24.4-7.8-41.3c0-15.1,6.9-28.2,15.7-39.3c-2.2,1.4-4.2,3-6,4.8
	c-9.6,9.7-16.1,24.2-16.1,37.5c0,17.8,6.6,25.2,6.6,38.5c0,12.2-25.8,29.1-22.9,45.8c-9,8.2-19.7,11.9-29.2,11.9
	c0.8,3.4,1.8,6.8,2.8,10.2c-10.5,0.6-15.4,9.5-21,12.5c-2.8-4.1-5.3-8.4-7.8-12.7c9.4-1,12.2-13.1,25.5-12.2
	c-0.7-3.2-1.2-6.4-1.7-9.7c-15.1-1-18.5,11.8-28.6,12.2c-2.1-4.5-4-9.1-5.7-13.8c13.8,0.6,18.5-12.8,33.2-12.6
	c-0.1-1.3-0.1-2.7-0.1-4.1c0-2.5,0.1-4.9,0.2-7.3c-17-0.4-22.3,14.2-37.2,12.8c-1.3-4.6-2.5-9.4-3.5-14.2
	c18.6,2.4,25.5-13.3,42.3-13.3c0.7-4.5,1.7-8.9,3-13.2C90.2,183.3,83,201,63.1,197.7c-0.6-4.1-0.9-8.2-1.1-12.5
	c23.1,2.6,31.7-16.3,52.8-14c2-5,4.3-9.8,6.9-14.5c-26.4-4.6-35.4,17.4-59.9,14C62.8,75.9,140.4,0,235.9,0s173,75.9,175.7,170.6
	c-24.6,3.4-33.6-18.6-59.9-14c2.6,4.7,4.9,9.5,6.9,14.5C379.5,168.8,388.1,187.8,411.3,185.2L411.3,185.2z M160.3,111.7L160.3,111.7
	c-12.9-5.3-28.6-4.1-42,4.5c-2.1-12.4-8.8-23.5-18.4-30.2c-0.7-0.6-1.7-0.5-2.2,0.2c-0.3,0.4-0.4,0.9-0.3,1.3
	c2,26.3-13.3,49.1-32.2,69.2c19.4,5.8,36.1-19.2,61.3-10.4C135.5,132.6,146.9,120.9,160.3,111.7z M235.9,95.6L235.9,95.6
	c-16.3,0-29.9,9.1-33.6,21c-0.3,0.9,0.1,1.5,1.2,1c3.1-1.3,6.5-2,9.8-1.9c6.6,0,12.5,2.4,15.9,6.6c1.5,5.1,1.7,12.3-0.1,16.5
	c-2.7-0.6-3.7-2.8-6.4-2.8c-2.6,0-4.7,1.9-9.2,1.9c-4.6,0-5.1-2.1-8-2.1c-3.5,0-4.2,3.6-4.2,7.6c0,18.1,16.6,43.2,34.5,43.2
	s34.5-25,34.5-43.2c0-4-0.8-7.5-4.4-8c-2.2,1.8-4.9,2.7-7.7,2.5c-4.6,0-5.8-1.9-8.4-1.9c-3.2,0-2.9,6.8-6.7,7.2
	c-2.6-6.1-2.7-14-0.6-20.9c3.5-4.2,9.3-6.6,15.9-6.6c3.4-0.1,6.8,0.6,9.9,1.9c1,0.5,1.4-0.1,1.1-1
	C265.9,104.9,252.1,95.6,235.9,95.6z M261.8,121.8L261.8,121.8c-3.9,0-8.4,1.2-11.3,4.4c-0.3,1-0.3,2,0.1,3
	c7.1-2.4,13.3-2.5,16.3,0.9c1.3-1,2.1-2.6,2.1-4.3C269,123.4,266.7,121.8,261.8,121.8L261.8,121.8z M204.7,130.1L204.7,130.1
	c3.4-3.5,10.6-3.3,18.1-0.6c0.3-3.7-6.4-7.7-13-7.7c-4.8,0-7.2,1.7-7.2,4C202.6,127.5,203.4,129,204.7,130.1L204.7,130.1z
	 M317.2,68.6L317.2,68.6c-12,0.7-23.7,5.1-33.1,12.7c3.7-10.4,8.7-20.3,14.9-29.6c-16.3,1.7-30.1,7.7-40.2,17.9L251,49.1l17.3-15.3
	L245,32.1l-9.2-21.6l-9.3,21.6l-23.2,1.6l17.5,15.3l-7.9,20.4c-10-10.2-23.7-16.2-40.1-17.9c6.2,9.2,11.1,19.1,14.8,29.6
	c-9.4-7.6-21-12-33.1-12.7c7.8,9.7,14.4,20.4,19.6,31.8c0.4,1.1,1.6,1.7,2.6,1.3c0.2-0.1,0.3-0.1,0.5-0.2c37-18.2,80.2-18.2,117.2,0
	c1,0.6,2.2,0.4,2.9-0.6c0.1-0.1,0.2-0.3,0.2-0.5C302.9,89,309.4,78.4,317.2,68.6z M345.2,146L345.2,146
	c25.2-8.7,41.9,16.2,61.3,10.4c-18.8-20-34.4-42.9-32.2-69.2c0.1-0.9-0.5-1.7-1.3-1.9c-0.5-0.1-0.9,0-1.3,0.3
	c-9.6,6.6-16.3,17.7-18.3,30.2c-13.4-8.6-29-9.8-42-4.5C324.7,121,336.2,132.6,345.2,146L345.2,146z"/>
</svg>
