<svg id="Starbucks" xmlns="http://www.w3.org/2000/svg" width="500" height="350" viewBox="0 0 500 350">
  <defs>
    <style>
      .cls-1, .cls-3 {
        fill: #05714b;
      }

      .cls-2 {
        fill: #fff;
      }

      .cls-3 {
        fill-rule: evenodd;
      }
    </style>
  </defs>
  <rect id="Card" class="cls-1" x="14" y="43" width="472" height="264" rx="20" ry="20"/>
  <circle id="Round" class="cls-2" cx="250" cy="175" r="175"/>
  <path id="Starbucks-2" data-name="Starbucks" class="cls-3" d="M267.608,75.632h0a108.231,108.231,0,0,0-17.648-1.521,106.23,106.23,0,0,0-17.575,1.521c-0.9.138-1.245-.692-0.554-1.171,0.619-.488,18.129-13.834,18.129-13.834S267.545,73.973,268.1,74.461A0.635,0.635,0,0,1,267.608,75.632ZM237.293,162.2h0a1.965,1.965,0,0,0-1.171,1.18c3.671,2.829,6.161,9.262,13.838,9.262s10.25-6.433,13.913-9.262a2.17,2.17,0,0,0-1.172-1.18,59.241,59.241,0,0,1-12.741,1.18A58.128,58.128,0,0,1,237.293,162.2Zm12.667-10.783h0c-2.14,0-2.556-.766-4.014-0.766-1.383,0-4.077,1.106-4.7,2.074a2.543,2.543,0,0,0,.627,1.383c3.108,0.488,4.493,2.211,8.091,2.211s4.981-1.723,8.1-2.211a2.165,2.165,0,0,0,.627-1.383c-0.554-.968-3.257-2.074-4.641-2.074C252.589,150.646,252.11,151.412,249.96,151.412Zm174.828,33.041h0c-0.2,4.221-.62,8.369-1.109,12.452-19.788,3.317-26.919-14.388-47.2-13.484a118.332,118.332,0,0,1,2.906,13.207c16.746-.074,23.527,15.622,42.153,13.272-0.979,4.774-2.15,9.54-3.533,14.176-14.744,1.447-19.937-13.208-36.958-12.793,0.137,2.424.2,4.839,0.2,7.327,0,1.383,0,2.765-.065,4.083,14.531-.139,19.236,13.272,33.084,12.645a138.657,138.657,0,0,1-5.747,13.762c-9.964-.481-13.36-13.274-28.517-12.232-0.48,3.245-1.034,6.5-1.726,9.677,13.147-.9,15.988,11.2,25.4,12.166-2.426,4.36-4.981,8.647-7.749,12.72-5.536-2.968-10.379-11.963-20.969-12.517,1.032-3.317,2-6.773,2.831-10.157-9.409,0-20.139-3.668-29.134-11.889,2.906-16.6-22.843-33.465-22.843-45.631,0-13.207,6.716-20.471,6.716-38.305,0-13.134-6.439-27.521-16.126-37.263a30.871,30.871,0,0,0-6.025-4.848c8.931,11,15.712,24.065,15.712,39.134,0,16.737-7.749,25.586-7.749,41.07,0,15.419,22.629,28.83,22.629,44.728,0,6.3-2,12.452-8.644,24.48,10.167,10.166,23.388,15.693,31.967,15.693,2.777,0,4.225-.9,5.268-3.042,0.831-1.867,1.66-3.8,2.417-5.666,9.207,0.342,13.433,8.708,18.479,12.027-2.768,3.733-5.748,7.328-8.792,10.854-3.386-3.8-8.026-10.093-14.733-11.891-1.181,2.351-2.426,4.632-3.811,6.914,5.812,1.521,9.761,7.4,12.806,11.2a139.247,139.247,0,0,1-10.315,9.817c-2.214-3.456-5.674-7.881-9.621-10.233-1.385,1.937-2.906,3.873-4.429,5.74,3.257,2.212,6.227,6.222,8.1,9.541-4.088,3.318-8.378,6.429-12.807,9.4-2.214-17.769-26.44-29.937-19.937-50.542-2.14,3.6-4.7,8.16-4.7,13.622,0,14.933,15.922,26.757,17.168,41.621-3.257,1.936-6.644,3.8-10.111,5.531-0.554-16.247-17.372-34.086-17.372-47.5,0-14.935,19.6-29.94,19.6-47.572,0-17.557-22.64-29.8-22.64-45.282s9.622-24.4,9.622-44.175A53.08,53.08,0,0,0,300.9,107.641a29.9,29.9,0,0,0-5.95-4.147c10.027,12.037,15.841,23.022,15.841,39.623,0,18.663-11,28.967-11,47.216s22.142,28.415,22.142,45.42c0,17.079-20.619,31.393-20.619,48.886,0,15.9,18.2,31.8,18.479,50.677-3.949,1.728-8.035,3.318-12.187,4.77,2.352-19.082-18.13-38.786-18.13-54.342,0-17.005,21.386-31.594,21.386-49.991,0-18.313-21.735-26.821-21.735-45.7,0-18.8,13.358-29.244,13.358-49.981a50.582,50.582,0,0,0-19.724-39.825c-0.277-.212-0.48-0.415-0.757-0.626-1.106-.757-2.011.212-1.18,1.179,8.238,10.294,12.667,20.811,12.667,36.23,0,19.079-15.3,34.5-15.3,52.959,0,21.706,20.554,27.927,20.554,45.761,0,17.907-22.076,32.157-22.076,51.1,0,17.562,20.905,37.058,17.3,57.385-4.152,1.037-8.443,2-12.732,2.765,3.949-25.236-16.542-43.419-16.542-59.874,0-17.906,22.843-33.88,22.843-51.373,0-16.452-16.4-21.843-18.552-38.71a3.967,3.967,0,0,0-4.7-3.594c-3.321.617-7.612,2.829-14.328,2.829s-10.932-2.212-14.327-2.829a4.037,4.037,0,0,0-4.705,3.594c-2.14,16.867-18.545,22.258-18.545,38.71,0,17.493,22.908,33.467,22.908,51.373,0,16.455-20.554,34.638-16.616,59.874-4.289-.76-8.579-1.728-12.731-2.765-3.6-20.327,17.308-39.823,17.308-57.385,0-18.94-22.087-33.19-22.087-51.1,0-17.834,20.63-24.055,20.63-45.761,0-18.46-15.361-33.88-15.361-52.959,0-15.419,4.428-25.936,12.73-36.23,0.757-.968-0.138-1.936-1.244-1.179-0.277.212-.489,0.414-0.766,0.626a50.609,50.609,0,0,0-19.725,39.825c0,20.737,13.359,31.18,13.359,49.981,0,18.876-21.727,27.384-21.727,45.7,0,18.4,21.385,32.986,21.385,49.991,0,15.556-20.489,35.26-18.137,54.342-4.152-1.452-8.164-3.042-12.178-4.77,0.277-18.874,18.479-34.777,18.479-50.677,0-17.493-20.629-31.807-20.629-48.886,0-17,22.151-27.171,22.151-45.42s-11.006-28.553-11.006-47.216c0-16.6,5.812-27.586,15.924-39.623a30.154,30.154,0,0,0-6.025,4.147A53.084,53.084,0,0,0,181.442,146.3c0,19.77,9.621,28.692,9.621,44.175s-22.557,27.725-22.557,45.282c0,17.632,19.586,32.637,19.586,47.572,0,13.411-16.891,31.25-17.445,47.5-3.46-1.729-6.781-3.6-10.1-5.531,1.246-14.864,17.16-26.688,17.16-41.621,0-5.462-2.555-10.026-4.706-13.622,6.578,20.605-17.713,32.773-19.928,50.542-4.363-2.974-8.654-6.085-12.806-9.4,1.938-3.319,4.845-7.329,8.166-9.541-1.593-1.867-3.046-3.8-4.5-5.74-3.874,2.352-7.4,6.777-9.62,10.233-3.529-3.111-6.99-6.36-10.312-9.817,3.046-3.8,7.059-9.679,12.8-11.2-1.315-2.282-2.628-4.563-3.805-6.914-6.714,1.8-11.281,8.09-14.742,11.891-3.045-3.526-6.022-7.121-8.79-10.854,5.122-3.319,9.344-11.685,18.548-12.027,0.761,1.862,1.523,3.8,2.422,5.666,0.969,2.144,2.423,3.042,5.26,3.042,8.514,0,21.73-5.527,31.907-15.693-6.578-12.028-8.58-18.185-8.58-24.48,0-15.9,22.631-29.309,22.631-44.728,0-15.484-7.824-24.333-7.824-41.07,0-15.069,6.855-28.138,15.711-39.134a31.316,31.316,0,0,0-6.024,4.848c-9.613,9.742-16.053,24.129-16.053,37.263,0,17.834,6.643,25.1,6.643,38.305,0,12.166-25.744,29.033-22.834,45.631-9,8.221-19.729,11.889-29.142,11.889,0.831,3.384,1.8,6.84,2.838,10.157-10.52.554-15.364,9.549-20.971,12.517-2.768-4.073-5.329-8.36-7.751-12.72,9.412-.967,12.249-13.068,25.4-12.166-0.692-3.179-1.246-6.432-1.73-9.677-15.088-1.042-18.549,11.751-28.516,12.232-2.075-4.489-4.014-9.053-5.744-13.762,13.841,0.627,18.549-12.784,33.083-12.645-0.069-1.318-.069-2.7-0.069-4.083,0-2.488.069-4.9,0.208-7.327-17.027-.415-22.217,14.24-36.959,12.793-1.315-4.636-2.491-9.4-3.529-14.176,18.618,2.35,25.4-13.346,42.148-13.272a117.593,117.593,0,0,1,2.977-13.207c-20.348-.9-27.408,16.8-47.2,13.484-0.554-4.083-.9-8.231-1.106-12.452,22.977,2.635,31.627-16.313,52.6-13.963a126.949,126.949,0,0,1,6.852-14.517c-26.3-4.636-35.228,17.356-59.659,13.964C77.629,75.632,154.936,0,249.96,0S422.3,75.632,425,169.937c-24.5,3.392-33.435-18.6-59.738-13.964a115.435,115.435,0,0,1,6.855,14.517C393.087,168.14,401.741,187.088,424.788,184.453ZM174.733,111.171h0c-12.879-5.253-28.517-4.082-41.8,4.5-2.077-12.378-8.791-23.438-18.409-30.083a1.58,1.58,0,0,0-2.563,1.529c2.007,26.2-13.288,48.877-32.113,68.858,19.378,5.807,35.919-19.152,61.113-10.442A130.719,130.719,0,0,1,174.733,111.171ZM249.96,95.337h0c-16.264,0-29.827,9.125-33.425,21.023-0.277.895,0.139,1.521,1.172,1.032a23.877,23.877,0,0,1,9.835-1.935c6.642,0,12.454,2.424,15.914,6.636,1.521,5.05,1.661,12.3-.065,16.526-2.7-.618-3.671-2.766-6.375-2.766-2.629,0-4.7,1.871-9.2,1.871-4.567,0-5.056-2.083-8.036-2.083-3.525,0-4.152,3.605-4.152,7.614,0,18.111,16.616,43,34.329,43s34.329-24.884,34.329-42.995c0-4.009-.831-7.54-4.428-8.029a11.168,11.168,0,0,1-7.686,2.5c-4.567,0-5.812-1.871-8.441-1.871-3.183,0-2.906,6.775-6.716,7.19-2.556-6.149-2.694-13.963-.554-20.95,3.469-4.212,9.281-6.636,15.924-6.636a24.183,24.183,0,0,1,9.9,1.935c1.034,0.489,1.383-.137,1.107-1.032C279.861,104.462,266.225,95.337,249.96,95.337Zm25.887,25.926h0c-3.875,0-8.441,1.181-11.347,4.424a4.4,4.4,0,0,0,.139,2.978c7.056-2.425,13.284-2.489,16.328.893a5.373,5.373,0,0,0,2.077-4.285C283.044,122.923,280.69,121.263,275.847,121.263Zm-56.821,8.295h0c3.4-3.456,10.593-3.318,18.064-.552,0.278-3.659-6.365-7.743-13.008-7.743-4.778,0-7.2,1.66-7.2,4.01A5.474,5.474,0,0,0,219.026,129.558ZM331.007,68.3h0A57.931,57.931,0,0,0,298,80.959a130.855,130.855,0,0,1,14.881-29.52c-16.339,1.723-30.038,7.668-40.011,17.908l-7.751-20.471,17.308-15.282L259.241,32.01,249.96,10.433,240.688,32.01,217.5,33.594l17.372,15.282-7.823,20.471c-9.964-10.24-23.6-16.185-39.93-17.908a131.012,131.012,0,0,1,14.808,29.521A57.759,57.759,0,0,0,168.921,68.3a152.453,152.453,0,0,1,19.587,31.733,2.073,2.073,0,0,0,3.109,1.041,131.753,131.753,0,0,1,116.687,0,2.079,2.079,0,0,0,3.117-1.041A155.243,155.243,0,0,1,331.007,68.3Zm28.028,77.226h0c25.122-8.71,41.664,16.249,61.112,10.442-18.821-19.981-34.182-42.655-32.106-68.858a1.629,1.629,0,0,0-2.629-1.529c-9.558,6.645-16.265,17.7-18.341,30.083-13.359-8.58-28.932-9.751-41.811-4.5A132.821,132.821,0,0,1,359.035,145.531Z"/>
</svg>
