<?xml version="1.0" encoding="UTF-8"?>
<svg xmlns="http://www.w3.org/2000/svg" version="1.1" viewBox="0 0 250 250">
  <defs>
    <style>
      .cls-1, .cls-2 {
        fill: #fff;
      }

      .cls-3 {
        fill: #007042;
      }

      .cls-4 {
        fill: #007042;
      }

      .cls-2 {
        isolation: isolate;
        opacity: 1;
      }
    </style>
  </defs>
  <!-- Generator: Adobe Illustrator 28.6.0, SVG Export Plug-In . SVG Version: 1.2.0 Build 709)  -->
  <g>
    <g id="Layer_1">
      <circle class="cls-3" cx="125" cy="125" r="122.5"/>
      <g id="g4387">
        <path id="path3040" class="cls-1" d="M225.8,125c0,56-45.1,101.3-100.8,101.3S24.2,181,24.2,125,69.3,23.7,125,23.7s100.8,45.4,100.8,101.3Z"/>
        <g id="g4381">
          <path id="inner_artwork" class="cls-3" d="M124.2,59.7c3.5,2,7.3,4.7,10.2,7.5l-1.1,1.1c-5.7-.6-11.6.1-17,.2-.6-.6-1.8-1.5-.7-2.3l8.6-6.6h0ZM224.1,129.9c0,2.6.3,4.7-.7,7.4-10.3,2.9-17.1-8-27.1-6.3l1.1,5.7c9.3.3,15.1,9.2,24.6,8.8-1.4,2.7.6,9.9-5.4,7-6.3-1.5-10.8-7-17.6-7-.8,1.5-.3,3.6-.4,5.4,7.2,1.1,12.4,7.2,19.7,8.4-.7,2.5-1.4,5.3-3.4,6.8-5.9-1.4-10.5-6.7-16.7-6.6l-1.1,5.2c6,.2,9.8,5.4,15.2,7,.1,2.2-1.8,4.2-2.9,6.1-4.7-1.4-8.4-5.5-13.8-5.2,0-2,1.1-4.4.7-6.6-6.1,1.8-10.2-3.9-14.7-7.2-.1-11.1-11.8-18.4-12.5-28.8-.1-2.1.2-4.3,1.1-6.7,3.8-8.9,2.6-20.4-1.6-28.7-1.3-2.2-3.6-3.9-5.7-5.2,3.1,6.6,6.9,14.3,5,22.4-.2,6.2-3.9,12.2-3.9,18.2,0,2.1.4,4.3,1.7,6.4,4.9,8.8,13.7,17.2,10.4,28.3-.9,3.4-3.6,6-4.3,9.5,5.7,4.8,11.2,10.1,18.8,10.4,2.7-1.7,1.2-9.4,6.8-5.9l8.1,4.1c-.6,2.2-2.4,4.1-4.1,5.6-3.1-1.5-6.1-3.3-10-3.2-1.1,1.2-2.1,2.6-2,4.3,2.7.4,5.2,1.6,7.5,3.2-1.1,2.3-3.1,3.7-5,5.4l-6.3-2.3c-1.1,1.5-3.2,3.1-2.5,4.8,1.4.6,3,1.4,4.1,2.5-2.8,3-6.3,5-9.7,7-2.9-9.6-12.6-16.3-11.8-27.4l-.4-.4c-2.3,2.6-1.5,6.6-1.4,9.9,2.7,6.9,9.2,12.3,10.2,19.9-1.1,2-3.7,2.3-5.7,3.2.2-13.7-20.6-24.1-7.2-38,4.4-6.8,11.9-13.3,9.3-22.6-2.7-9-12.3-14.6-12.2-24.8v-.8c2.2-10.6,8.8-21.8,3.4-33-1.5-4.5-4.9-9.7-9.5-11.5,6.9,7.8,9.6,20.7,5.7,31.2-2,4.2-4.7,9.2-5,14.1h0c-.1,2.6.4,5.1,2,7.6,5.2,8.4,14.2,17.7,9,28.7-5.9,8.8-16.1,17.8-10.4,29.4,4.1,6.9,10.6,13.9,8.8,22.4l-6.8,2.3c4.5-15.9-17.6-25.2-8.4-41.2,5.7-8.5,16-16.5,10.2-27.8-3.5-7-10.6-11.2-10.4-19.9l.2-1.5c2.3-12.4,11.8-24.2,5.2-37.4-1.7-3.9-5.2-7.9-9-10.2l-.2.2c7.7,7.5,10,19.7,5.9,29.6-1.9,5.8-6.2,11.6-7,17.8-.4,2.9,0,6,1.6,9.2,4.9,7.8,13.5,16,8.1,26-5.6,8.3-15.1,16.3-11.3,27.1,4.1,9.4,12.8,18.4,8.1,30.1l-7,1.6c5.6-11.4-2.8-22.7-7.7-32.6-6-14.2,12.8-21,13.1-33.9,0-8.4-9-13.1-10.8-20.8-3.8-3.2-7.8,1.3-12.4.4-3.4.7-8.6-4.7-10.6,1.1-2.4,8.5-13.4,14.8-8.6,24.9,4.6,9,15.7,15.5,12,27.2-3.3,10.8-14.2,21.2-7.5,33.7-2.8-.9-8,.8-7.9-3.6-4.3-15.2,14-24,8.4-39.1-2.6-9.3-14.6-14.4-12-25.6,2-9.2,12.3-15.6,10.8-25.7-.1-.8-.3-1.7-.6-2.6-3.8-10.9-11.7-21.7-7-34.4,1.3-3.6,3.8-6.7,6.1-9.9-7.5,4-11.2,12.4-11.1,21-.3,9.3,6.6,17.3,7.6,25.9.4,3.5-.2,7-2.6,10.7-4.9,6.6-11.3,13.6-8.4,22.4,2.8,8.8,13.8,14.2,13.1,24.4,0,12.1-14.2,19.7-10.2,33.3l-7-2.3c-2.8-12.1,10-18.2,10.2-29.4,1.8-12.8-14.5-17.6-13.6-30.1,0-9.5,8.3-15.5,12-23.5.6-1.9.8-3.8.8-5.5-.5-8.8-8.4-15.7-7.1-25.7.4-7.3,2.9-13.7,7.7-19.2-6.6,2.6-9.3,10.2-11.1,16.5-3.1,10.2,4.4,19.3,5.1,28.4.3,4-.6,8-4.4,12.1-5.4,6.4-10.9,14.5-7,23.1,4.2,9.5,17.2,16.9,11.5,28.7-3.1,7.5-10.5,13.1-10.2,21.9-2-.8-4-1.7-5.7-3.2,0-11.2,16-18.2,8.4-30.1-.7,2.3-.8,5.5-1.3,8.1-2.6,6.9-8.3,12.4-10.4,19.5-3.5-1.4-7.2-4.2-10.2-7.2l4.1-2.5c-.5-1.5-1.7-2.8-2.7-4.1-2.6-.4-4.4,1.4-6.6,2-1.9-1.7-3.7-3.2-5.2-5.2,1.4-3.9,11.9-.7,6.6-7-3.6-2.3-7.2,1-10.4,2.5l-4.3-5.4c3.7-2.3,7.4-5.4,12-4.5,1.1,2,1.2,5,3.4,6.1,7.8-.2,13.3-6,19.2-10.6-4.1-6.2-7.5-14.7-3.8-22.2,3-7.5,10.6-13.8,11-22.1,0-1.9-.2-3.9-1-6-4.1-10.5-5.5-24.6,2.3-33.9-4.2,1.1-6.7,6.4-8.1,10.4-4.7,10.2,1.2,19.7,1.4,29.5,0,1.8-.1,3.5-.5,5.3-4,8.1-10.5,15.1-11.5,24.4-4.6,2.9-8.4,8.1-14.9,6.3-.2,1.7.3,4.4.9,6.3-5.2-.2-8.7,3.6-13.1,5.4-2.3-.7-2.9-3.8-3.8-5.9,5.1-1.7,8.8-6.9,14.7-6.8.7-1.9-.4-3.6-.7-5.4-7.3-3.2-18.9,16.1-19.9-.7,7.3-.5,12-7.2,19.2-7.9l.2-5.4c-8.2-.8-13.5,7.6-21.7,6.8l-1.8-7.2c9.5.6,15.2-7.9,24.2-8.4,1.2-1.6,1.3-3.9,1.6-6.1-9.9-1.3-16.7,9.7-27.1,6.3,0,0-.4-4.6-.6-7.1h0c0-1-.1-1.7-.1-1.7,9.3,3.6,17.6-3.1,25.6-6.6,2-.6,5.2.4,6.1-1.8,0-1.7,3.1-3.8.5-5-11.7-1.6-19.5,12.5-31.4,6.1l-.9-1.8c2.5-34.1,21.7-67,53.6-83.2,12.9-7.4,29-11.1,45.1-11.3,19.5-.2,39.3,5,53.9,15.3,14.3,8.7,27.9,23.2,35.3,37.8,7.1,12.8,10.3,27.2,11.3,42.5-12.4,9.3-20.7-8.8-33.3-4.7.7,2,1.1,4,2.5,5.7,11.2,0,18.8,11.6,30.5,7v1.7h0ZM82.1,88c-7.8-5.1-17.8-.3-25.1,2.5-.7-6.9-3.5-13.1-9.3-17.6-.6-.3-1.3-.9-2-.9-.4,0-.8.1-1.1.7,2.6,16.2-7.9,27.5-15.4,39.8,2.5,2,6.5,1.7,9.5,1.1,7.9-3.2,15.5-8.7,24.9-6.8,2.8-4.7,7.5-9.3,11.3-13.1,2.3-2,5.6-3.3,7.2-5.7h0ZM106.1,98.2c-.2,1,0,2.7,1.6,2,2.3-3.2,6.5-.7,9-.4v-.9c-1.4-2.2-4.3-3.3-7.2-3.2-.7,0-1.4.1-2,.3-1,.2-1.7,1.1-1.4,2.2h0ZM142.9,88.4c-2.1-4.7-6.9-6.6-11.3-7.7-2.1-.3-4.4-.4-6.6-.5-.4,0-.8,0-1.2,0-6.2.1-12.1,1.7-15.7,6.8-.5,1.4-2.8,3.5-.7,4.7,4.7-.3,10.2-.9,13.3,3.2,0,3.6,2.3,8.4-1.6,10.2-3.2-3-7.1,1.3-10.6-1.1-1.7-1-2.7.2-3.4,1.6-1,9.3,3.9,19.7,12.7,24.9,3.5,1.3,8.3,2.5,12,.7,8.9-4.1,12.6-13.6,14.2-22.4-.2-1.7-.1-4.9-2.5-5-2.6,1.7-6.5.7-9.3,0-1.7.5-1.7,3-3.6,3.4l-1.1-.9c-1-4.1-1.6-10,2.3-12.9,4.3-1.7,9.4-2.5,13.8-1.1.8-1.4-.5-2.6-.7-3.8h0ZM138.4,95.9c-.3,0-.6,0-.9,0-1.6,1.1-6.2.3-4.5,3.8,2.9-2.3,6.9-.7,9.7.4,1.1-.5.8-1.6.9-2.5-.9-1.7-3.1-1.9-5.2-1.8ZM171.2,64c-5.6-.3-10.3,2.9-15.4,4.3-.4-4.4,2.9-9,3.6-13.4-8.3.5-14.9,5.5-21.7,9.5-1.6-3.8-3.2-7.7-4.8-11.5l9-8.6.2-1.1-12.2-.7c-2.1-3.7-2.9-8.1-5.4-11.5-2,3.8-3.4,7.9-5.4,11.8l-12.2.7v.9l9.3,8.4c-1.1,4.3-2.2,9-5,12.2-5.4-3.3-10.8-6.8-16.7-9-1.4-.5-3.5-1.2-4.8-.2,1.9,4.1,4.5,8.6,4.1,13.1-2.5-.5-4.4-2.1-6.8-2.7-2.8-.8-6.1-2.3-8.8-1.3,4.5,6.3,8.2,13,9.5,20.6,15-7.2,32.5-11.2,50.7-8.1,8.5,1.4,16.3,4.8,24,7.7.3-8,5.3-14.4,8.8-20.8h0ZM197,107.4c7.7,2,15.4,10.4,23.5,5-7.1-11.8-17.6-22.6-14.7-38,.3-1-.4-2.1-1.3-2.3-4.6,1.9-8.2,6.4-10,10.9-.7,2.6-1.2,5.4-2.2,7.9-5.5-2.9-11.4-5.6-18.1-5-2.4.3-5.9.5-6.3,2.9,7.6,4.1,13.9,10.9,18.5,18.1,3.2-.5,7.2,0,10.6.4h0ZM116.5,118.1l.2,1.4c2.9,2,3.9,5.3,7.9,5,3.6.2,6.3-3.2,8.1-5.9-4.9-.7-10.8.4-16.3-.5h0ZM120.5,112c.1.6-.4,1.5.4,1.8,2.4-.5,6.8,1.3,8.1-1.6-.9-1.1-2.5-1.5-4.1-1.5-1.6,0-3.3.5-4.5,1.3Z"/>
          <g id="g4377">
            <path id="rect3815" class="cls-2" d="M116.5,109.3h16.5v6.8h-16.5v-6.8Z"/>
            <path id="path3032-6" class="cls-4" d="M119.5,113c2.1.5,2.7,1.3,4.4,1.5,1.8,0,1.5-.4,4.7-1.5.2,0,.5-.5.1-.9-1.9-1.9-3.3-.6-4.5-.5-1.6,0-3.1-1.4-4.7.4-.3.4-.4.7,0,1h0Z"/>
          </g>
        </g>
      </g>
    </g>
  </g>
</svg>