<svg id="Target" xmlns="http://www.w3.org/2000/svg" width="500" height="350" viewBox="0 0 500 350">
  <defs>
    <style>
      .cls-1 {
        fill: #c00;
      }

      .cls-2 {
        fill: #fff;
        fill-rule: evenodd;
      }
    </style>
  </defs>
  <rect id="Card" class="cls-1" x="14" y="43" width="472" height="264" rx="20" ry="20"/>
  <path id="Target-2" data-name="Target" class="cls-2" d="M249.918,291.724a116.714,116.714,0,1,1,116.71-116.675,116.7,116.7,0,0,1-116.71,116.675M249.918,0C153.327,0,75,78.366,75,175.049,75,271.659,153.327,350,249.918,350,346.55,350,425,271.659,425,175.049,425,78.366,346.55,0,249.918,0Zm0,115.065a59.97,59.97,0,1,0,60.025,59.984,59.9,59.9,0,0,0-60.025-59.984"/>
</svg>
