<?xml version="1.0" encoding="UTF-8"?>
<svg xmlns="http://www.w3.org/2000/svg" version="1.1" viewBox="0 0 250 250">
  <defs>
    <style>
      .cls-1 {
        fill: #c00;
      }

      .cls-2 {
        fill: #fff;
      }
    </style>
  </defs>
  <!-- Generator: Adobe Illustrator 28.6.0, SVG Export Plug-In . SVG Version: 1.2.0 Build 709)  -->
  <g>
    <g id="Layer_1">
      <circle class="cls-2" cx="125" cy="125" r="122.5"/>
      <path class="cls-1" d="M47,125c0-43.1,34.9-78,78-78s78,34.9,78,78-34.9,78-78,78-78-34.9-78-78ZM125,177c28.7,0,52-23.3,52-52s-23.3-52-52-52-52,23.3-52,52,23.3,52,52,52ZM151,125c0,14.3-11.6,26-26,26s-26-11.6-26-26,11.6-26,26-26,26,11.6,26,26h0Z"/>
    </g>
  </g>
</svg>