<svg id="Walmart" xmlns="http://www.w3.org/2000/svg" width="500" height="350" viewBox="0 0 500 350">
  <defs>
    <style>
      .cls-1 {
        fill: #007dc6;
      }

      .cls-2 {
        fill: #ffc220;
      }

      .cls-2, .cls-3 {
        fill-rule: evenodd;
      }

      .cls-3 {
        fill: #fff;
      }
    </style>
  </defs>
  <rect id="Card" class="cls-1" x="14" y="43" width="472" height="264" rx="20" ry="20"/>
  <circle id="Round" class="cls-1" cx="250" cy="175" r="175"/>
  <path id="Icon" class="cls-2" d="M396.344,130c-3.421,0-6.141,1.912-6.141,4.239l2.078,23.546c0.229,1.418,1.966,2.512,4.065,2.512s3.833-1.1,4.067-2.512l2.088-23.546c0-2.327-2.727-4.239-6.153-4.239h0Zm-33.859,18.887c-1.777.042-3.794,1.388-5.078,3.615-1.716,2.965-1.412,6.279.6,7.442l21.412,9.978c1.337,0.5,3.154-.452,4.206-2.267h0c1.057-1.824.975-3.875-.138-4.785l-19.338-13.574a3.122,3.122,0,0,0-1.659-.408h0Zm67.718,0a3.113,3.113,0,0,0-1.657.408l-19.341,13.574c-1.106.91-1.188,2.961-.136,4.784h0c1.056,1.815,2.866,2.766,4.2,2.268l21.421-9.978c2.016-1.163,2.306-4.477.6-7.442-1.29-2.227-3.31-3.573-5.087-3.615H430.2Zm-49.988,31.064a2.175,2.175,0,0,0-.8.134l-21.412,9.967c-2.008,1.168-2.312,4.483-.6,7.451s4.728,4.367,6.737,3.206l19.339-13.563c1.113-.921,1.195-2.971.138-4.794l0.009,0a4.386,4.386,0,0,0-3.418-2.405h0Zm32.268,0a4.389,4.389,0,0,0-3.416,2.406l0.007,0c-1.052,1.822-.97,3.872.136,4.793l19.341,13.564c2,1.16,5.024-.247,6.743-3.206s1.416-6.284-.6-7.452l-21.414-9.967a2.169,2.169,0,0,0-.8-0.133h0Zm-16.142,9.758c-2.1,0-3.828,1.092-4.057,2.507l-2.078,23.545c0,2.331,2.72,4.239,6.141,4.239s6.152-1.908,6.152-4.239l-2.083-23.545c-0.234-1.415-1.964-2.5-4.067-2.507h-0.008Z"/>
  <path id="Walmart-2" data-name="Walmart" class="cls-3" d="M64,148.888s9.266,38,10.745,44.167c1.726,7.2,4.836,9.848,13.8,8.061l5.786-23.559c1.466-5.852,2.45-10.024,3.393-15.977h0.166a156.191,156.191,0,0,0,2.812,16s2.355,10.695,3.561,16.312,4.575,9.155,13.358,7.228l13.787-52.226H120.278l-4.707,22.58c-1.265,6.572-2.413,11.708-3.3,17.721h-0.157c-0.8-5.953-1.828-10.885-3.114-17.289l-4.9-23.012H92.5L87.26,171.324c-1.485,6.817-2.874,12.322-3.757,18.13h-0.16c-0.9-5.47-2.109-12.388-3.414-18.987,0,0-3.114-16.045-4.207-21.575H64v0Zm106.111,0v52.226h10.6V148.885h-10.6v0Zm149.257,0v38.528c0,5.312,1,9.034,3.136,11.308A11.739,11.739,0,0,0,331.13,202a25.194,25.194,0,0,0,7.669-1.136l-0.137-8.288a16.116,16.116,0,0,1-4.026.479c-3.61,0-4.821-2.314-4.821-7.084V171.23h9.23v-9.992h-9.23v-12.35H319.366ZM146.426,161a30.349,30.349,0,0,0-14.664,3.5l2.085,7.147a21.468,21.468,0,0,1,10.693-3.008c6.51-.017,7.574,3.684,7.574,6.057v0.562c-14.185-.022-23.145,4.891-23.145,14.9,0,6.114,4.561,11.844,12.492,11.844a14.215,14.215,0,0,0,11.414-5.071h0.24s1.62,6.781,10.548,4.188a57.4,57.4,0,0,1-.621-9.456V177.709c0-8.893-3.794-16.714-16.616-16.714h0Zm63.393,0c-6.631,0-9.612,3.363-11.419,6.217h-0.157v-5.331H188.13v39.236h10.654V178.106a9.22,9.22,0,0,1,.5-3.211c0.883-2.317,3.037-5.027,6.475-5.027,4.3,0,6.311,3.637,6.311,8.886v22.363h10.642V177.828a10.919,10.919,0,0,1,.444-3.181,6.721,6.721,0,0,1,6.393-4.78c4.359,0,6.45,3.575,6.45,9.751v21.5h10.65V178.008c0-12.188-6.183-17.013-13.163-17.013a14.189,14.189,0,0,0-7.738,2.131,16.513,16.513,0,0,0-4.965,4.887h-0.157A11.191,11.191,0,0,0,209.817,161h0Zm58.5,0a30.368,30.368,0,0,0-14.664,3.5l2.089,7.147a21.457,21.457,0,0,1,10.691-3.008c6.5-.017,7.572,3.684,7.572,6.057v0.562c-14.183-.022-23.145,4.891-23.145,14.9,0,6.114,4.564,11.844,12.5,11.844a14.2,14.2,0,0,0,11.406-5.071h0.241s1.62,6.781,10.549,4.188a57.405,57.405,0,0,1-.62-9.456V177.709c0-8.893-3.8-16.714-16.619-16.714h0Zm44.243,0c-4.079,0-8.721,2.635-10.669,8.285h-0.3v-7.4h-9.59v39.236h10.933V181.025a14.954,14.954,0,0,1,.237-2.9c0.808-4.208,4.025-6.9,8.642-6.9a20.006,20.006,0,0,1,3.155.28V161.238a10.489,10.489,0,0,0-2.409-.243h0ZM152.457,182.2V187.1a6.94,6.94,0,0,1-7.416,7.14c-2.932,0-5.262-1.665-5.262-5.189,0-5.39,5.929-6.881,12.678-6.846h0Zm121.9,0V187.1a6.937,6.937,0,0,1-7.414,7.14c-2.933,0-5.263-1.665-5.263-5.189,0-5.39,5.928-6.881,12.678-6.846h0Z"/>
</svg>
