<?xml version="1.0" encoding="UTF-8"?>
<svg xmlns="http://www.w3.org/2000/svg" version="1.1" viewBox="0 0 250 250">
  <defs>
    <style>
      .cls-1 {
        fill: #fff;
      }

      .cls-2 {
        fill: #fcb61a;
      }

      .cls-3 {
        fill: #0467cb;
      }
    </style>
  </defs>
  <!-- Generator: Adobe Illustrator 28.6.0, SVG Export Plug-In . SVG Version: 1.2.0 Build 709)  -->
  <g>
    <g id="Layer_1">
      <circle class="cls-3" cx="125" cy="125" r="122.5"/>
      <g>
        <path class="cls-1" d="M140.5,126.5c0-4.6-2-8.6-8.6-8.6s-6.1,1-7.6,1.8l1.1,3.7c1.4-.8,3.5-1.5,5.5-1.5,3.4,0,3.9,1.9,3.9,3.1v.3c-7.3,0-12,2.5-12,7.7s2.4,6.1,6.5,6.1,4.6-1,5.9-2.6h.1s.8,3.5,5.5,2.2c-.2-1.5-.3-3-.3-4.9v-7.2ZM135,131.3c0,.4,0,.8-.1,1.1-.4,1.4-1.9,2.6-3.7,2.6s-2.7-.9-2.7-2.7c0-2.8,3.1-3.5,6.6-3.5M28.1,111.6s4.8,19.6,5.6,22.8c.9,3.7,2.5,5.1,7.2,4.2l3-12.2c.8-3,1.3-5.2,1.8-8.3h0c.3,3.1.8,5.2,1.4,8.3,0,0,1.2,5.5,1.9,8.4.6,2.9,2.4,4.7,6.9,3.7l7.1-27h-5.8l-2.4,11.7c-.6,3.4-1.2,6-1.7,9.1h0c-.4-3.1-.9-5.6-1.6-8.9l-2.5-11.9h-6l-2.7,11.6c-.8,3.5-1.5,6.4-1.9,9.4h0c-.5-2.8-1.1-6.4-1.8-9.8,0,0-1.6-8.3-2.2-11.1M79,126.5c0-4.6-2-8.6-8.6-8.6s-6.1,1-7.6,1.8l1.1,3.7c1.3-.8,3.5-1.5,5.5-1.5,3.4,0,3.9,1.9,3.9,3.1v.3c-7.3,0-12,2.5-12,7.7s2.4,6.1,6.5,6.1,4.6-1,5.9-2.6h.1s.8,3.5,5.5,2.2c-.2-1.5-.3-3-.3-4.9v-7.2ZM73.5,131.3c0,.4,0,.8-.1,1.1-.4,1.4-1.9,2.6-3.7,2.6s-2.7-.9-2.7-2.7c0-2.8,3.1-3.5,6.6-3.5M87.5,138.6v-27h-5.5v27h5.5ZM157.3,111.6v19.9c0,2.7.5,4.7,1.6,5.8,1,1,2.6,1.7,4.5,1.7s3.2-.3,4-.6v-4.3c-.6.1-1.3.2-2.2.2-1.9,0-2.5-1.2-2.5-3.7v-7.6h4.8v-5.2h-4.8v-6.4M143.2,118.3v20.3h5.7v-10.4c0-.6,0-1,.1-1.5.4-2.2,2.1-3.6,4.5-3.6s1.1,0,1.6.2v-5.3c-.4,0-.7-.1-1.2-.1-2.1,0-4.5,1.3-5.5,4.3h-.1v-3.8M90.7,118.3v20.3h5.5v-11.9c0-.6,0-1.1.3-1.6.4-1.2,1.6-2.6,3.4-2.6s3.3,1.9,3.3,4.6v11.6h5.5v-12c0-.5,0-1.2.2-1.6.4-1.4,1.6-2.5,3.3-2.5s3.3,1.8,3.3,5v11.1h5.5v-12c0-6.3-3.2-8.8-6.8-8.8s-2.9.4-4,1.1c-1,.6-1.8,1.4-2.6,2.5h0c-.9-2.2-2.9-3.6-5.6-3.6s-5,1.7-5.9,3.2h0v-2.7"/>
        <path class="cls-2" d="M197.2,117.4c1.1,0,2-.6,2.1-1.3l1.1-12.2c0-1.2-1.4-2.2-3.2-2.2s-3.2,1-3.2,2.2l1.1,12.2c.1.7,1,1.3,2.1,1.3M190.6,121.2c.5-1,.5-2,0-2.5l-10-7c-1-.6-2.6.1-3.5,1.7-.9,1.5-.7,3.3.3,3.8l11.1,5.1c.7.3,1.6-.2,2.2-1.2M203.8,121.2c.6.9,1.5,1.4,2.2,1.2l11.1-5.2c1-.6,1.2-2.3.3-3.8-.9-1.5-2.5-2.3-3.5-1.7l-10,7c-.6.5-.6,1.5,0,2.5M197.2,132.6c1.1,0,2,.6,2.1,1.3l1.1,12.2c0,1.2-1.4,2.2-3.2,2.2s-3.2-1-3.2-2.2l1.1-12.2c.1-.7,1-1.3,2.1-1.3M203.8,128.8c.6-.9,1.5-1.4,2.2-1.2l11.1,5.2c1,.6,1.2,2.3.3,3.8-.9,1.5-2.5,2.2-3.5,1.7l-10-7c-.6-.5-.6-1.5,0-2.5M190.6,128.8c.5.9.5,2,0,2.5l-10,7c-1,.6-2.6-.1-3.5-1.6-.9-1.5-.7-3.3.3-3.8l11.1-5.2c.7-.3,1.6.2,2.2,1.2M220.3,137.2h.1c.2,0,.3,0,.3.2,0,.2,0,.3.1.3h.4s0-.1,0-.3c0-.2-.1-.3-.3-.3h0c.2,0,.3-.2.3-.3s0-.2-.1-.3c-.1,0-.2-.1-.5-.1s-.4,0-.5,0v1.3h.3v-.5h0ZM220.4,136.6h.2c.2,0,.3,0,.3.2s-.1.2-.3.2h-.1v-.4ZM220.6,135.7c-.8,0-1.4.6-1.4,1.4s.6,1.4,1.4,1.4,1.4-.6,1.4-1.4-.6-1.4-1.4-1.4M220.6,136c.6,0,1,.5,1,1.1s-.4,1.1-1,1.1c-.6,0-1.1-.5-1.1-1.1s.5-1.1,1-1.1"/>
      </g>
    </g>
  </g>
</svg>