<?xml version="1.0" encoding="utf-8"?>
<!-- Generator: Adobe Illustrator 22.0.0, SVG Export Plug-In . SVG Version: 6.00 Build 0)  -->
<svg version="1.1" id="Walmart" xmlns="http://www.w3.org/2000/svg" xmlns:xlink="http://www.w3.org/1999/xlink" x="0px" y="0px"
	 viewBox="0 0 472 350" style="enable-background:new 0 0 472 350;" xml:space="preserve">
<style type="text/css">
	.st0{fill:#007DC6;}
	.st1{fill:#FFC220;}
	.st2{fill:#FFFFFF;}
</style>
<path id="Card" class="st0" d="M20,43h432c11,0,20,9,20,20v224c0,11-9,20-20,20H20c-11,0-20-9-20-20V63C0,52,9,43,20,43z"/>
<circle id="Round" class="st0" cx="236" cy="175" r="175"/>
<path id="Icon" class="st1" d="M382.3,130c-3.4,0-6.1,1.9-6.1,4.2l2.1,23.5c0.2,1.4,2,2.5,4.1,2.5s3.8-1.1,4.1-2.5l2.1-23.5
	C388.5,131.9,385.8,130,382.3,130L382.3,130L382.3,130z M348.5,148.9c-1.8,0-3.8,1.4-5.1,3.6c-1.7,3-1.4,6.3,0.6,7.4l21.4,10
	c1.3,0.5,3.2-0.5,4.2-2.3l0,0c1.1-1.8,1-3.9-0.1-4.8l-19.3-13.6C349.6,149,349.1,148.9,348.5,148.9L348.5,148.9L348.5,148.9z
	 M416.2,148.9c-0.6,0-1.2,0.1-1.7,0.4l-19.3,13.6c-1.1,0.9-1.2,3-0.1,4.8l0,0c1.1,1.8,2.9,2.8,4.2,2.3l21.4-10
	c2-1.2,2.3-4.5,0.6-7.4C420,150.3,418,148.9,416.2,148.9L416.2,148.9L416.2,148.9z M366.2,180c-0.3,0-0.5,0-0.8,0.1l-21.4,10
	c-2,1.2-2.3,4.5-0.6,7.5s4.7,4.4,6.7,3.2l19.3-13.6c1.1-0.9,1.2-3,0.1-4.8h0C369,181,367.7,180.1,366.2,180L366.2,180L366.2,180z
	 M398.5,180c-1.5,0.2-2.8,1.1-3.4,2.4h0c-1.1,1.8-1,3.9,0.1,4.8l19.3,13.6c2,1.2,5-0.2,6.7-3.2s1.4-6.3-0.6-7.5l-21.4-10
	C399,180,398.8,179.9,398.5,180L398.5,180L398.5,180z M382.3,189.7c-2.1,0-3.8,1.1-4.1,2.5l-2.1,23.5c0,2.3,2.7,4.2,6.1,4.2
	s6.2-1.9,6.2-4.2l-2.1-23.5C386.2,190.8,384.5,189.7,382.3,189.7L382.3,189.7z"/>
<path id="Walmart-2" class="st2" d="M50,148.9c0,0,9.3,38,10.7,44.2c1.7,7.2,4.8,9.8,13.8,8.1l5.8-23.6c1.5-5.9,2.4-10,3.4-16h0.2
	c0.7,5.4,1.6,10.7,2.8,16c0,0,2.4,10.7,3.6,16.3s4.6,9.2,13.4,7.2l13.8-52.2h-11.1l-4.7,22.6c-1.3,6.6-2.4,11.7-3.3,17.7h-0.2
	c-0.8-6-1.8-10.9-3.1-17.3l-4.9-23H78.5l-5.2,22.4c-1.5,6.8-2.9,12.3-3.8,18.1h-0.2c-0.9-5.5-2.1-12.4-3.4-19c0,0-3.1-16-4.2-21.6
	L50,148.9L50,148.9L50,148.9z M156.1,148.9v52.2h10.6v-52.2L156.1,148.9L156.1,148.9L156.1,148.9z M305.4,148.9v38.5
	c0,5.3,1,9,3.1,11.3c2.3,2.2,5.4,3.4,8.6,3.3c2.6,0,5.2-0.4,7.7-1.1l-0.1-8.3c-1.3,0.3-2.7,0.5-4,0.5c-3.6,0-4.8-2.3-4.8-7.1v-14.7
	h9.2v-10h-9.2v-12.4L305.4,148.9L305.4,148.9z M132.4,161c-5.1-0.1-10.1,1.1-14.7,3.5l2.1,7.1c3.2-1.9,6.9-3,10.7-3
	c6.5,0,7.6,3.7,7.6,6.1v0.6c-14.2,0-23.1,4.9-23.1,14.9c0,6.1,4.6,11.8,12.5,11.8c4.4,0.2,8.6-1.7,11.4-5.1h0.2
	c0,0,1.6,6.8,10.5,4.2c-0.5-3.1-0.7-6.3-0.6-9.5v-14C149,168.8,145.2,161,132.4,161L132.4,161L132.4,161z M195.8,161
	c-6.6,0-9.6,3.4-11.4,6.2h-0.2v-5.3h-10.1v39.2h10.7v-23c0-1.1,0.1-2.2,0.5-3.2c0.9-2.3,3-5,6.5-5c4.3,0,6.3,3.6,6.3,8.9v22.4h10.6
	v-23.3c0-1.1,0.1-2.1,0.4-3.2c0.9-2.8,3.4-4.8,6.4-4.8c4.4,0,6.4,3.6,6.4,9.8v21.5h10.6V178c0-12.2-6.2-17-13.2-17
	c-2.7,0-5.4,0.7-7.7,2.1c-2,1.3-3.7,2.9-5,4.9h-0.2C204.9,163.6,200.5,160.8,195.8,161L195.8,161L195.8,161z M254.3,161
	c-5.1-0.1-10.1,1.1-14.7,3.5l2.1,7.1c3.2-1.9,6.9-3,10.7-3c6.5,0,7.6,3.7,7.6,6.1v0.6c-14.2,0-23.1,4.9-23.1,14.9
	c0,6.1,4.6,11.8,12.5,11.8c4.4,0.2,8.6-1.7,11.4-5.1h0.2c0,0,1.6,6.8,10.5,4.2c-0.5-3.1-0.7-6.3-0.6-9.5v-14
	C270.9,168.8,267.1,161,254.3,161L254.3,161L254.3,161z M298.6,161c-4.1,0-8.7,2.6-10.7,8.3h-0.3v-7.4H278v39.2h10.9V181
	c0-1,0.1-1.9,0.2-2.9c0.8-4.2,4-6.9,8.6-6.9c1.1,0,2.1,0.1,3.2,0.3v-10.3C300.2,161.1,299.4,161,298.6,161L298.6,161L298.6,161z
	 M138.5,182.2v4.9c0.1,3.8-2.9,7-6.7,7.2c-0.2,0-0.5,0-0.7,0c-2.9,0-5.3-1.7-5.3-5.2C125.8,183.7,131.7,182.2,138.5,182.2
	L138.5,182.2L138.5,182.2z M260.4,182.2v4.9c0.1,3.8-2.9,7-6.7,7.2c-0.2,0-0.5,0-0.7,0c-2.9,0-5.3-1.7-5.3-5.2
	C247.7,183.7,253.6,182.2,260.4,182.2L260.4,182.2L260.4,182.2z"/>
</svg>
