<?xml version="1.0" encoding="utf-8"?>
<!-- Generator: Adobe Illustrator 26.0.3, SVG Export Plug-In . SVG Version: 6.00 Build 0)  -->
<svg version="1.1" id="Warstwa_1" xmlns="http://www.w3.org/2000/svg" xmlns:xlink="http://www.w3.org/1999/xlink" x="0px" y="0px"
	 viewBox="0 0 100 100" style="enable-background:new 0 0 100 100;" xml:space="preserve">
<style type="text/css">
	.st0{fill:#101627;}
	.st1{fill:url(#SVGID_1_);}
	.st2{fill:url(#SVGID_00000168806843583464361900000008810859318475506052_);}
	.st3{fill:url(#SVGID_00000096051503253896171400000005345226576599274390_);}
	.st4{fill:url(#SVGID_00000032618782178031628100000013306010706153123481_);}
	.st5{fill:url(#SVGID_00000137848798612817631730000001610247200738561163_);}
	.st6{fill:url(#SVGID_00000136383964035419533550000016049548376949201290_);}
	.st7{fill:url(#SVGID_00000022519509305867906630000003754357911071488918_);}
	.st8{fill:url(#SVGID_00000172434708864595124240000010674634643956860318_);}
	.st9{fill:url(#SVGID_00000098940563869187978810000015261231596302805935_);}
	.st10{fill:url(#SVGID_00000172429270602110416380000014480376986088869774_);}
</style>
<rect class="st0" width="100" height="100"/>
<g>
	<g>
		<linearGradient id="SVGID_1_" gradientUnits="userSpaceOnUse" x1="22.7934" y1="22.7934" x2="77.2066" y2="77.2067">
			<stop  offset="2.150540e-02" style="stop-color:#C98724"/>
			<stop  offset="0.543" style="stop-color:#E5BC31"/>
			<stop  offset="1" style="stop-color:#F3D34D"/>
		</linearGradient>
		<polygon class="st1" points="22.8,22.8 22.8,31.7 31.7,22.8 		"/>
		
			<linearGradient id="SVGID_00000057868964311438501860000006742810332063688376_" gradientUnits="userSpaceOnUse" x1="-2.1849" y1="47.7717" x2="52.2283" y2="102.1848">
			<stop  offset="2.150540e-02" style="stop-color:#C98724"/>
			<stop  offset="0.543" style="stop-color:#E5BC31"/>
			<stop  offset="1" style="stop-color:#F3D34D"/>
		</linearGradient>
		<polygon style="fill:url(#SVGID_00000057868964311438501860000006742810332063688376_);" points="22.8,77.2 31.7,77.2 22.8,68.3 
					"/>
		
			<linearGradient id="SVGID_00000070083219142864448430000004352428621068052619_" gradientUnits="userSpaceOnUse" x1="47.7717" y1="-2.1849" x2="102.1848" y2="52.2283">
			<stop  offset="2.150540e-02" style="stop-color:#C98724"/>
			<stop  offset="0.543" style="stop-color:#E5BC31"/>
			<stop  offset="1" style="stop-color:#F3D34D"/>
		</linearGradient>
		<polygon style="fill:url(#SVGID_00000070083219142864448430000004352428621068052619_);" points="77.2,22.8 68.3,22.8 77.2,31.7 
					"/>
		
			<linearGradient id="SVGID_00000076583617924037186880000006240343205515597245_" gradientUnits="userSpaceOnUse" x1="22.7935" y1="22.7935" x2="77.2066" y2="77.2066">
			<stop  offset="2.150540e-02" style="stop-color:#C98724"/>
			<stop  offset="0.543" style="stop-color:#E5BC31"/>
			<stop  offset="1" style="stop-color:#F3D34D"/>
		</linearGradient>
		<polygon style="fill:url(#SVGID_00000076583617924037186880000006240343205515597245_);" points="77.2,68.3 68.3,77.2 77.2,77.2 
					"/>
		
			<linearGradient id="SVGID_00000041997990756150293480000005818137834389003928_" gradientUnits="userSpaceOnUse" x1="50" y1="4.5" x2="50" y2="22.7934">
			<stop  offset="2.150540e-02" style="stop-color:#C98724"/>
			<stop  offset="0.543" style="stop-color:#E5BC31"/>
			<stop  offset="1" style="stop-color:#F3D34D"/>
		</linearGradient>
		<path style="fill:url(#SVGID_00000041997990756150293480000005818137834389003928_);" d="M50,8.8l11,11H39L50,8.8 M50,4.5
			L31.7,22.8h36.6L50,4.5L50,4.5z"/>
		
			<linearGradient id="SVGID_00000093863858901870318910000000042669382002683041_" gradientUnits="userSpaceOnUse" x1="86.3533" y1="31.7065" x2="86.3533" y2="68.2934">
			<stop  offset="2.150540e-02" style="stop-color:#C98724"/>
			<stop  offset="0.543" style="stop-color:#E5BC31"/>
			<stop  offset="1" style="stop-color:#F3D34D"/>
		</linearGradient>
		<path style="fill:url(#SVGID_00000093863858901870318910000000042669382002683041_);" d="M80.2,39l11,11l-11,11V39 M77.2,31.7
			v36.6L95.5,50L77.2,31.7L77.2,31.7z"/>
		
			<linearGradient id="SVGID_00000049180570508591477230000002039447846922194598_" gradientUnits="userSpaceOnUse" x1="50" y1="77.2066" x2="50" y2="95.5">
			<stop  offset="2.150540e-02" style="stop-color:#C98724"/>
			<stop  offset="0.543" style="stop-color:#E5BC31"/>
			<stop  offset="1" style="stop-color:#F3D34D"/>
		</linearGradient>
		<path style="fill:url(#SVGID_00000049180570508591477230000002039447846922194598_);" d="M61,80.2l-11,11l-11-11H61 M68.3,77.2
			H31.7L50,95.5L68.3,77.2L68.3,77.2z"/>
		
			<linearGradient id="SVGID_00000123412727528148930340000016346687996186634938_" gradientUnits="userSpaceOnUse" x1="13.6467" y1="31.7065" x2="13.6467" y2="68.2934">
			<stop  offset="2.150540e-02" style="stop-color:#C98724"/>
			<stop  offset="0.543" style="stop-color:#E5BC31"/>
			<stop  offset="1" style="stop-color:#F3D34D"/>
		</linearGradient>
		<path style="fill:url(#SVGID_00000123412727528148930340000016346687996186634938_);" d="M19.8,39V61l-11-11L19.8,39 M22.8,31.7
			L4.5,50l18.3,18.3V31.7L22.8,31.7z"/>
	</g>
	<g>
		
			<linearGradient id="SVGID_00000171684592004110023990000010452307866526373051_" gradientUnits="userSpaceOnUse" x1="-13.9041" y1="168.3149" x2="9.383" y2="168.3149" gradientTransform="matrix(1 0 0 1 47.2158 -114.2021)">
			<stop  offset="2.150540e-02" style="stop-color:#C98724"/>
			<stop  offset="0.543" style="stop-color:#E5BC31"/>
			<stop  offset="1" style="stop-color:#F3D34D"/>
		</linearGradient>
		<path style="fill:url(#SVGID_00000171684592004110023990000010452307866526373051_);" d="M33.3,57.1c0.1-0.5,0.2-0.9,0.3-1.4
			c0.4-1.4,1.1-2.7,2.1-3.7c2.6-2.6,5.2-5.3,7.9-7.9c3.3-3.2,8.7-3.1,11.9,0.3c0.3,0.3,0.6,0.7,0.9,1.1c0.1,0.1,0.1,0.2,0,0.4
			c-1.1,1.1-2.2,2.2-3.4,3.4c0,0,0,0-0.1,0c-0.2-0.7-0.6-1.2-1.1-1.7c-1.2-1.1-2.9-1.3-4.3-0.5c-0.2,0.1-0.4,0.3-0.6,0.4
			c-2.6,2.6-5.3,5.2-7.9,7.8c-1,1-1.4,2.3-1,3.7c0.4,1.4,1.3,2.3,2.7,2.6c1.2,0.3,2.4,0,3.3-0.8c0.5-0.4,0.9-0.9,1.4-1.4
			c0.1-0.1,0.2-0.2,0.4-0.1c1.7,0.7,3.5,1,5.4,0.7c0.1,0,0.2,0,0.3,0c-0.1,0.1-0.2,0.2-0.2,0.2c-1.2,1.2-2.5,2.5-3.7,3.7
			c-1.8,1.8-4.1,2.7-6.7,2.5c-3.8-0.3-6.9-3-7.7-6.6c-0.1-0.3-0.1-0.7-0.2-1C33.3,58.2,33.3,57.7,33.3,57.1z"/>
		
			<linearGradient id="SVGID_00000145020757767073218230000010833116969086350988_" gradientUnits="userSpaceOnUse" x1="-4.1747" y1="160.0039" x2="19.0597" y2="160.0039" gradientTransform="matrix(1 0 0 1 47.2158 -114.2021)">
			<stop  offset="2.150540e-02" style="stop-color:#C98724"/>
			<stop  offset="0.543" style="stop-color:#E5BC31"/>
			<stop  offset="1" style="stop-color:#F3D34D"/>
		</linearGradient>
		<path style="fill:url(#SVGID_00000145020757767073218230000010833116969086350988_);" d="M58.6,33.5c0.5,0.1,1,0.2,1.5,0.3
			c3.4,1.1,5.5,3.4,6.1,6.9c0.4,2.8-0.4,5.3-2.4,7.3c-2.6,2.6-5.1,5.2-7.7,7.7c-1.4,1.4-3.1,2.1-5.1,2.3c-3.3,0.3-5.9-1-7.8-3.6
			c0,0,0-0.1-0.1-0.1c0,0,0,0,0,0c1.2-1.1,2.3-2.3,3.5-3.5c0,0,0,0.1,0.1,0.1c1,2.6,4.2,3.2,6.2,1.3c1.2-1.2,2.5-2.5,3.7-3.7
			c1.3-1.3,2.6-2.6,3.9-3.9c1-1,1.4-2.3,1-3.7c-0.4-1.4-1.3-2.3-2.8-2.6c-1.2-0.3-2.4,0-3.3,0.9c-0.5,0.4-1,0.9-1.4,1.4
			c-0.1,0.1-0.2,0.2-0.4,0.1c-1.8-0.7-3.6-1-5.5-0.7c-0.1,0-0.1,0-0.2,0c0-0.1,0.1-0.1,0.1-0.1c1.3-1.3,2.6-2.7,4-4
			c1.4-1.3,3-2.1,4.9-2.3c0,0,0.1,0,0.1-0.1C57.5,33.5,58,33.5,58.6,33.5z"/>
	</g>
</g>
</svg>
