<?xml version="1.0" encoding="UTF-8" standalone="no"?>
<svg
   xmlns:dc="http://purl.org/dc/elements/1.1/"
   xmlns:cc="http://creativecommons.org/ns#"
   xmlns:rdf="http://www.w3.org/1999/02/22-rdf-syntax-ns#"
   xmlns:svg="http://www.w3.org/2000/svg"
   xmlns="http://www.w3.org/2000/svg"
   id="Genesis"
   width="256"
   height="256"
   viewBox="0 0 512 512"
   version="1.1">
  <title
     id="title1389">GENX TRC20</title>
  <metadata
     id="metadata881">
    <rdf:RDF>
      <cc:Work
         rdf:about="">
        <dc:format>image/svg+xml</dc:format>
        <dc:type
           rdf:resource="http://purl.org/dc/dcmitype/StillImage" />
        <dc:title>GENX TRC20</dc:title>
      </cc:Work>
    </rdf:RDF>
  </metadata>
  <defs
     id="defs870">
    <style
       id="style868">
      .cls-1 {
        fill: #1ea1ef;
      }

      .cls-1, .cls-2 {
        fill-rule: evenodd;
      }

      .cls-2 {
        fill: #fff;
      }

      .cls-3 {
        fill: none;
        stroke: #fff;
        stroke-linecap: round;
        stroke-linejoin: round;
        stroke-width: 5px;
      }
    </style>
  </defs>
  <path
     style="fill:#324857;fill-rule:evenodd;fill-opacity:1"
     d="M 11,256 C 11,391.094 120.906,501 256,501 391.094,501 501,391.094 501,256 501,120.906 391.094,11 256,11 120.906,11 11,120.906 11,256 Z"
     class="cls-1"
     id="Full" />
  <path
     style="fill:#ffffff;fill-rule:evenodd"
     d="m 289,274 -11,55 c 0,0 -61.585,-0.409 -81.053,-0.862 C 189.982,328.328 191,321 191,321 c 0,0 19.858,-95.532 26.865,-128.085 C 219.572,182.687 228,183 228,183 h 165 a 152.592,152.592 0 0 1 18,73 154.767,154.767 0 0 1 -254,119 h 161 l 30,-140 h -98 l -8,39 z"
     class="cls-2"
     data-name="G Down"
     id="G_Down" />
  <path
     style="fill:#ffffff;fill-rule:evenodd"
     d="M 132.637,349.857 A 154.663,154.663 0 0 1 102,274 h 46 c 0,0 -9.134,44.789 -15.363,75.857 z"
     class="cls-2"
     data-name="G Small"
     id="G_Small" />
  <path
     style="fill:#ffffff;fill-rule:evenodd"
     d="m 256,101 a 155.826,155.826 0 0 1 97,34 H 214 c -37.107,0 -43,33 -43,33 l -16,68 h -53 c 10.04,-75.9 75.352,-135 154,-135 z"
     class="cls-2"
     data-name="G Top"
     id="G_Top" />
  <circle
     style="fill:none;stroke:#ffffff;stroke-width:5px;stroke-linecap:round;stroke-linejoin:round"
     r="179"
     cy="256"
     cx="256"
     class="cls-3"
     id="Outer" />
</svg>
