<?xml version="1.0" encoding="UTF-8" standalone="no"?>
<svg
   xmlns:dc="http://purl.org/dc/elements/1.1/"
   xmlns:cc="http://creativecommons.org/ns#"
   xmlns:rdf="http://www.w3.org/1999/02/22-rdf-syntax-ns#"
   xmlns:svg="http://www.w3.org/2000/svg"
   xmlns="http://www.w3.org/2000/svg"
   xmlns:sodipodi="http://sodipodi.sourceforge.net/DTD/sodipodi-0.dtd"
   xmlns:inkscape="http://www.inkscape.org/namespaces/inkscape"
   width="236"
   height="236"
   version="1.1"
   id="svg8"
   sodipodi:docname="GLM_ERC20.svg"
   inkscape:version="1.0.2-2 (e86c870879, 2021-01-15)">
  <metadata
     id="metadata14">
    <rdf:RDF>
      <cc:Work
         rdf:about="">
        <dc:format>image/svg+xml</dc:format>
        <dc:type
           rdf:resource="http://purl.org/dc/dcmitype/StillImage" />
      </cc:Work>
    </rdf:RDF>
  </metadata>
  <defs
     id="defs12" />
  <sodipodi:namedview
     pagecolor="#ffffff"
     bordercolor="#666666"
     borderopacity="1"
     objecttolerance="10"
     gridtolerance="10"
     guidetolerance="10"
     inkscape:pageopacity="0"
     inkscape:pageshadow="2"
     inkscape:window-width="1920"
     inkscape:window-height="1017"
     id="namedview10"
     showgrid="false"
     inkscape:zoom="3.3203125"
     inkscape:cx="118"
     inkscape:cy="118"
     inkscape:window-x="-8"
     inkscape:window-y="-8"
     inkscape:window-maximized="1"
     inkscape:current-layer="svg8" />
  <circle
     cx="118"
     cy="118"
     fill="#002d64"
     r="118"
     id="circle4" />
  <path
     d="m 140.042,100.3 c 5.829,-5.829 8.992,-13.499 8.992,-21.759 a 30.798,30.798 0 0 0 -7.151,-19.73 l 17.889,-17.889 -3.988,-3.87 -17.889,17.889 C 132.373,50.339 125.529,47.79 118.283,47.79 A 30.772,30.772 0 0 0 96.524,100.3 c 5.098,5.098 11.753,8.284 18.904,8.897 v 22.68 a 29.88,29.88 0 0 0 -18.904,8.897 30.824,30.824 0 0 0 0,43.518 c 5.829,5.829 13.499,8.992 21.759,8.992 a 30.601,30.601 0 0 0 21.759,-8.992 c 5.829,-5.829 8.992,-13.499 8.992,-21.759 0,-8.26 -3.162,-15.93 -8.992,-21.759 -5.098,-5.098 -11.753,-8.284 -18.904,-8.897 v -22.68 a 29.825,29.825 0 0 0 18.904,-8.897 m -3.988,44.439 c 4.696,4.791 7.363,11.045 7.363,17.771 a 25.029,25.029 0 0 1 -7.363,17.771 c -4.696,4.791 -11.045,7.363 -17.771,7.363 a 25.029,25.029 0 0 1 -17.771,-7.363 C 95.816,175.49 93.149,169.236 93.149,162.51 a 25.029,25.029 0 0 1 7.363,-17.771 c 4.696,-4.791 11.045,-7.363 17.771,-7.363 6.75,0.024 13.074,2.572 17.771,7.363 m -17.771,-40.97 A 25.029,25.029 0 0 1 100.512,96.406 C 95.816,91.615 93.149,85.361 93.149,78.635 a 25.069,25.069 0 0 1 7.363,-17.771 c 4.696,-4.791 11.045,-7.363 17.771,-7.363 a 25.029,25.029 0 0 1 17.771,7.363 c 4.791,4.696 7.363,11.045 7.363,17.771 a 25.029,25.029 0 0 1 -7.363,17.771 c -4.696,4.814 -11.021,7.363 -17.771,7.363"
     fill="#ffffff"
     id="path6" />
</svg>
