<?xml version="1.0" encoding="utf-8"?>
<!-- Generator: Adobe Illustrator 22.0.0, SVG Export Plug-In . SVG Version: 6.00 Build 0)  -->
<svg version="1.1" id="GMC" xmlns="http://www.w3.org/2000/svg" xmlns:xlink="http://www.w3.org/1999/xlink" x="0px" y="0px"
	 viewBox="0 0 490 490" style="enable-background:new 0 0 490 490;" xml:space="preserve">
<style type="text/css">
	.st0{fill:#E3AE08;}
	.st1{fill:#FFFFFF;}
</style>
<path id="Full" class="st0" d="M0,245c0,135.1,109.9,245,245,245s245-109.9,245-245S380.1,0,245,0S0,109.9,0,245z"/>
<path id="GMC-2" class="st1" d="M165.1,176c4.1,0.1,0.1-41.1,28.9-41.2c20.8-0.1,30.9,35,30.9,35s20.7,95.4,20.6,109.2
	s-22.7,51.7-22.7,72.1s4.5,28.9,14.4,28.9c9.9,0,18.1-13.3,18.6-26.8s-2.2-63.3-2.1-78.3S330,116.2,330,116.2h-35
	c0,0-40.2,131.9-43.3,131.9s-8.4-53.1-12.4-82.4c-7.8-48.9-17.4-55.6-39.2-55.6C152.3,110,159.4,175.8,165.1,176z"/>
</svg>
