<svg xmlns="http://www.w3.org/2000/svg" width="245" height="245" viewBox="0 0 245 245">
  <g id="Gnosis_1" data-name="Gnosis 1" transform="translate(-2115 -4449)">
    <g id="BNB" transform="translate(2115 4449)">
      <path id="Main_copy_14" d="M0,122.5C0,190,55,245,122.5,245S245,190,245,122.5,190,0,122.5,0,0,55,0,122.5Z" fill="#00a6c4"/>
    </g>
    <g id="gnosis-gno-gno-logo-circle" transform="translate(2137.694 4500.604)">
      <path id="Path_4879" data-name="Path 4879" d="M157.53,498.513l-5.206,5.206a25.426,25.426,0,0,1,2.6,22.472,25.692,25.692,0,0,1-32.764,15.5,23.567,23.567,0,0,1-5.206-2.6l-16.679,16.679-14.55-14.67a26.582,26.582,0,0,1-23.54,2.957A26.2,26.2,0,0,1,46.338,510.46a24.164,24.164,0,0,1,2.957-5.793L43.028,498.4l-1.181,2.009a68.487,68.487,0,0,0,58.312,104.2h.12a68.449,68.449,0,0,0,58.546-103.97l-1.294-2.129" transform="translate(0 -463.147)" fill="#fff"/>
      <path id="Path_4880" data-name="Path 4880" d="M350.736,695.7a14.162,14.162,0,0,0-2.836,8.516,13.98,13.98,0,0,0,13.956,13.956,13.547,13.547,0,0,0,8.516-2.957L350.736,695.7" transform="translate(-293.746 -646.491)" fill="#fff"/>
      <path id="Path_4881" data-name="Path 4881" d="M1356.2,699.9a13.562,13.562,0,0,0,7.809,2.362,13.98,13.98,0,0,0,13.956-13.956,13.841,13.841,0,0,0-2.363-7.809l-19.4,19.4" transform="translate(-1230.726 -632.366)" fill="#fff"/>
      <path id="Path_4882" data-name="Path 4882" d="M260.537,82.206,204,25.428l2.249-2.362A72.99,72.99,0,0,1,259.709,0h.12a73.4,73.4,0,0,1,54.408,24.247l2.129,2.362-55.83,55.6M213.231,25.428l47.313,47.434,46.719-46.486A67.122,67.122,0,0,0,259.95,6.621h-.12a66.237,66.237,0,0,0-46.6,18.808" transform="translate(-160.024)" fill="#fff"/>
    </g>
  </g>
</svg>
