<svg xmlns="http://www.w3.org/2000/svg" width="250" height="250" xmlns:v="https://vecta.io/nano"><circle cx="125" cy="125" r="124.577" fill="#4eadef" stroke="#fff" stroke-width=".847"/><path d="M163.048 134.271V89.057v-12.23c0-1.858.339-4.066-.624-5.744-1.1-1.919-3.281-2.869-5.12-3.919l-10.377-5.93c-13.145-7.503-26.561-14.679-39.469-22.579v-.371c5.642-2.431 10.603-7.622 17.048-7.78 5.836-.143 10.517 3.364 15.38 6.14l26.498 15.139c4.612 2.632 10.067 4.856 12.809 9.664 2.671 4.682 1.829 10.576 1.829 15.751v31.872 10.748c0 1.095.41 3.244-.19 4.19-.807 1.271-3.517 2.187-4.813 2.93-4.236 2.429-8.489 5.403-12.971 7.334m-11.303-36.875c-4.026-1.88-7.819-4.486-11.674-6.699L112.09 74.551l-10.006-5.771c-1.684-.978-3.529-2.435-5.559-2.492-1.968-.055-3.752 1.348-5.374 2.278l-10.192 5.879-27.981 16.146c-3.925 2.236-7.767 4.894-11.859 6.804 0-6.077-1.299-13.787 1.829-19.271 2.718-4.765 8.059-6.987 12.624-9.608l26.313-15.195c4.748-2.725 9.306-6.21 15.009-6.142 5.212.062 9.748 3.654 14.083 6.142l27.425 15.83 9.45 5.452c1.039.597 3.039 1.302 3.701 2.322.769 1.186.19 4.25.19 5.646v14.824m40.766-30.945c5.416 3.573 12.721 5.708 16.04 11.674 2.629 4.728 1.749 10.736 1.749 15.936v32.057c0 5.455.534 11.073-3.211 15.565-2.348 2.817-5.705 4.389-8.833 6.167l-14.639 8.365-33.169 18.98c-5.374 3.085-10.693 6.672-16.307 9.293v-14.824c0-1.448-.569-4.431.19-5.683.635-1.048 2.658-1.744 3.701-2.337l8.709-5.003 32.243-18.45 8.339-4.768c1.6-.917 3.35-1.729 4.28-3.413.94-1.704.724-3.687.724-5.559v-9.636-34.096-9.821c0-1.337-.334-3.21.185-4.447m-78.383 21.866v.185c-12.975 7.941-26.43 15.221-39.655 22.74l-10.562 6.034c-1.87 1.063-4.073 2.026-5.114 4.025-1.114 2.138-.631 5.079-.631 7.412v15.565 13.527c0 2.331-.269 4.766 1.384 6.654 1.099 1.255 2.753 1.979 4.175 2.796l7.968 4.559c10.04 5.95 20.265 11.609 30.39 17.414l10.192 5.822c1.079.62 3.241 1.354 3.886 2.448.755 1.282.191 4.234.191 5.705v14.824c-6.44-3.007-12.548-7.134-18.716-10.67l-37.246-21.31c-6.758-3.874-17.124-7.5-19.561-15.643-1.362-4.551-.637-9.933-.637-14.639v-27.61c0-5.358-.939-11.612 1.726-16.492 2.728-4.997 8.373-7.281 13.099-9.979l27.981-16.016 9.45-5.428c1.004-.583 2.692-2.01 3.891-1.926 1.675.117 3.929 2.053 5.374 2.881l12.415 7.119m-26.683 28.537v22.051 5.93c0 .77-.196 1.878.19 2.575.952 1.717 4.8 3.014 6.48 3.989l15.751 9.029c1.662.949 5.252 2.167 6.295 3.776.769 1.186.191 4.25.191 5.646v14.824c-3.887-1.815-7.581-4.273-11.303-6.408l-22.051-12.626-9.45-5.398c-1.084-.619-3.17-1.331-3.886-2.369-.367-.532-.19-1.494-.19-2.106v-5.003-17.048c0-1.614-.68-5.228.19-6.599.807-1.271 3.517-2.187 4.813-2.93 4.236-2.429 8.489-5.403 12.971-7.334M210.3 154.283c0 6.482 1.34 14.455-2.266 20.198-2.107 3.354-5.516 5.11-8.852 7.014l-13.156 7.597-32.984 19.006c-6.211 3.606-12.397 7.818-18.901 10.855V204.13c0-1.49-.59-4.583.19-5.869.903-1.489 4.233-2.671 5.739-3.53l14.454-8.317 34.651-19.979c7.01-4.068 13.953-8.374 21.124-12.151z" fill="#fff"/></svg>