<?xml version="1.0" encoding="utf-8"?>
<!-- Generator: Adobe Illustrator 22.0.0, SVG Export Plug-In . SVG Version: 6.00 Build 0)  -->
<svg version="1.1" id="GOLF" xmlns="http://www.w3.org/2000/svg" xmlns:xlink="http://www.w3.org/1999/xlink" x="0px" y="0px"
	 viewBox="0 0 490 490" style="enable-background:new 0 0 490 490;" xml:space="preserve">
<style type="text/css">
	.st0{fill:#FFFFFF;}
	.st1{fill:none;stroke:#000000;stroke-width:26;}
</style>
<path id="Full" class="st0" d="M0,245c0,135.1,109.9,245,245,245s245-109.9,245-245S380.1,0,245,0S0,109.9,0,245z"/>
<path id="G" d="M196.3,158c-15.2,7.9-27.9,19.9-36.5,34.6c-8.7,14.9-13.1,31.5-13.1,49.8c0,18.1,4.3,34.5,13,49.1
	c8.6,14.7,19.7,28.1,35.1,36.2C211,336.4,229,341,247.4,341c13.4,0,24.2-1.5,38.7-4.4c12.7-2.5,19.2-3.9,32.9-9.1v-87.3h-63.6v29.3
	h32.8v35.2c-7,2.8-18,3.7-23,4.6c-5.2,1-10.5,1.5-15.8,1.5c-20,0-39.2-6.8-51.4-18.5s-20.4-30.1-20.4-49.3
	c0-12.6,4.8-25.1,10.4-35.3s16.6-19.1,26.8-24.6s21.9-6.2,35.1-6.2c21.1,0,38.6,3.8,60.5,15.3v-33.2c-21.8-10.3-39.8-13.4-62-13.4
	C229.3,145.6,211.9,149.7,196.3,158z"/>
<circle id="Circle" class="st1" cx="244.5" cy="244.5" r="156.5"/>
</svg>
