<svg xmlns="http://www.w3.org/2000/svg" width="250" height="250" xmlns:v="https://vecta.io/nano"><defs><linearGradient id="A" x1="28.2" y1="4.19" x2="25.93" y2="69.54" gradientUnits="userSpaceOnUse"><stop offset="0" stop-color="#00f0dd"/><stop offset=".17" stop-color="#2ec4e4"/><stop offset=".47" stop-color="#787ef0"/><stop offset=".72" stop-color="#ae4bf8"/><stop offset=".9" stop-color="#cf2bfd"/><stop offset="1" stop-color="#dc1fff"/></linearGradient></defs><circle cx="125" cy="125" r="125" fill="#2d2d2d"/><path d="M28.21 69.1a9.4 9.4 0 0 1-9.4-9.39 9.29 9.29 0 0 1 .5-3 9.31 9.31 0 0 1-7.12-10.5 8.27 8.27 0 0 1 .39-1.56 9.42 9.42 0 0 1-4.86-2.91A9.23 9.23 0 0 1 6 32.21c-9.711-3.72-7.039-18.129 3.36-18.12a9.37 9.37 0 0 1 6.1 2.24c.517-.471.987-.729 1.51-1.04 2.516-1.428 5.459-1.351 8.09-.46.533.246 1.023.52 1.52.78.24.17.4.3.55.42-1-4.71-2.88-10.94-8.21-12.64a11.19 11.19 0 0 0-3.42-.68c-2.71 0-5.45 1.55-10.1 5.7-.895.767-2.274.087-2.21-1.09a1.28 1.28 0 0 1 .44-.92C8.78 1.79 12.11 0 15.49 0a13.13 13.13 0 0 1 4.32.83c3.1 1.06 5.15 2.7 7.26 6.53a27.28 27.28 0 0 0 4.12.33h0c9.67 0 12.47-6 12.58-6.24A1.35 1.35 0 0 1 45 .66a1.25 1.25 0 0 1 .54.12 1.33 1.33 0 0 1 .69 1.76c-.14.32-3.58 7.85-15 7.85a25.99 25.99 0 0 1-2.95-.19 39.45 39.45 0 0 1 1.38 4.8 9.66 9.66 0 0 1 4-.88 9.25 9.25 0 0 1 5 1.49 7.29 7.29 0 0 1 .93.71c7.623-6.549 18.812 1.853 14.65 11a9.28 9.28 0 0 1-3.08 3.8 9.31 9.31 0 0 1 1.14 5.52 9.46 9.46 0 0 1-8.46 8.33 8.78 8.78 0 0 1 .42 2A9.36 9.36 0 0 1 42 53.75a9.21 9.21 0 0 1-4.94 3 9.08 9.08 0 0 1 .51 3 9.41 9.41 0 0 1-9.36 9.35zm0-16.1a6.71 6.71 0 1 0 0 13.41h.28A6.71 6.71 0 0 0 28.21 53zm-6.76-12.08c-5.493.018-8.638 6.268-5.38 10.69a6.73 6.73 0 0 0 4.48 2.66A9.48 9.48 0 0 1 26 50.58a9.14 9.14 0 0 1-.49-2.24 9.42 9.42 0 0 1 1-5.06 6.7 6.7 0 0 0-5.06-2.36zm7.32 9.43a9.39 9.39 0 0 1 7.08 3.91 6.7 6.7 0 0 0-.93-13.34h-.52c-4.63.339-7.52 5.17-5.63 9.41zM43 42.26a6.71 6.71 0 0 0 .72-13.38 6.12 6.12 0 0 0-.74 0c-4.965.004-8.201 5.219-6 9.67a9.4 9.4 0 0 1 5.6 3.73zM14.77 28.83a6.72 6.72 0 0 0-4.44 1.68 6.71 6.71 0 0 0-.6 9.49 6.7 6.7 0 0 0 3.93 2.18h.2a9.33 9.33 0 0 1 2-2.11A9.16 9.16 0 0 1 19 38.59a9.07 9.07 0 0 1-.36-1.26 9.31 9.31 0 0 1 1-6.45 6.73 6.73 0 0 0-4.87-2.05zm7 9.45a9.35 9.35 0 0 1 6.37 2.82A9.36 9.36 0 0 1 34 38.29a9.37 9.37 0 0 1 0-5.45 6.57 6.57 0 0 0-2.53-3.09 6.72 6.72 0 0 0-9.27 2 6.54 6.54 0 0 0-.39 6.55zM27.88 26a9.22 9.22 0 0 1 5 1.47A9 9 0 0 1 35.44 30a9.2 9.2 0 0 1 2-2 7.59 7.59 0 0 1-.53-1.12 9.3 9.3 0 0 1 .92-8.56 4.64 4.64 0 0 0-.61-.46 6.6 6.6 0 0 0-3.63-1.08c-4.264-.02-7.462 3.896-6.59 8.07a5.9 5.9 0 0 0 .41 1.15zM9.37 16.77c-5.968.005-8.952 7.222-4.73 11.44a6.74 6.74 0 0 0 2.69 1.63 9 9 0 0 1 1.23-1.35 9.39 9.39 0 0 1 4-2c-.33-.881-.387-1.923-.46-2.8-.014-1.993.503-3.42 1.36-5.02a2.41 2.41 0 0 1 .14-.26v-.06a6.74 6.74 0 0 0-4.23-1.58zM43 26.16a8.22 8.22 0 0 1 1 .06 9.36 9.36 0 0 1 5.6 2.68 6.71 6.71 0 0 0 2.33-7.9c-2.168-5.575-9.993-5.752-12.41-.28a6.66 6.66 0 0 0-.11 5.13 6.4 6.4 0 0 0 .39.84 9.31 9.31 0 0 1 3.2-.53zm-27.65 0a9.35 9.35 0 0 1 5.86 2.54 9.5 9.5 0 0 1 3.52-2.19 11.31 11.31 0 0 1-.33-1.13 9.34 9.34 0 0 1 1.3-7.06v-.05a6.73 6.73 0 0 0-4.28-1.53 6.6 6.6 0 0 0-4.61 1.86 6.69 6.69 0 0 0-1.46 7.6z" fill="url(#A)" transform="matrix(2.52695 0 0 2.52695 55.072993 40)"/></svg>