<?xml version="1.0" encoding="UTF-8"?><svg id="CIRCLE_OUTLINE_BLACK" xmlns="http://www.w3.org/2000/svg" viewBox="0 0 512 512"><circle cx="256" cy="256" r="256" fill="#000" stroke-width="0"/><path d="M369.77011,107.90702c-14.0335,0-25.40855,11.37107-25.40855,25.39814,0,2.37652.32606,4.67697.93687,6.85873,14.36826-5.92925,30.76026-9.40284,49.72375-9.70195-1.41292-12.6887-12.17934-22.55492-25.25207-22.55492Z" fill="#abf600" stroke-width="0"/><path d="M395.11781,135.10348c-18.41138.2878-34.27515,3.65141-48.16084,9.39828,4.14093,8.41228,12.80101,14.20132,22.81314,14.20132,13.42922,0,24.42387-10.41189,25.34771-23.5996Z" fill="#abf600" stroke-width="0"/><path d="M339.12506,142.91886v-9.19504c-28.07875,0-50.84212,22.75272-50.84212,50.81974v1.71767c4.17919-5.48255,8.58856-10.70599,13.28097-15.59967,10.81097-11.27485,23.12115-20.79768,37.56114-27.7427Z" fill="#abf600" stroke-width="0"/><path d="M288.28294,194.0666c5.1617-7.19304,10.6662-13.97047,16.63175-20.19186,9.93498-10.36102,21.15156-19.18087,34.21037-25.78027v159.27011c0,28.06724-22.76249,50.81953-50.84212,50.81953v-164.11751Z" fill="#abf600" stroke-width="0"/><path d="M273.96836,207.2765c-9.04222-14.06677-24.83535-23.38549-42.80568-23.38549v105.12177c4.67392-8.93245,9.2196-18.10858,13.79419-27.34361l.00913-.01847c.57756-1.16598,1.15577-2.33306,1.73463-3.50056,8.57705-17.29972,17.32299-34.71445,27.26774-50.87364Z" fill="#abf600" stroke-width="0"/><path d="M231.16269,298.89384c6.16618-11.36267,12.00348-23.14855,17.8349-34.92292.62082-1.25315,1.24141-2.50629,1.86222-3.75879,8.21731-16.57393,16.49524-33.04287,25.73853-48.33278,3.45925,6.86437,5.40712,14.62019,5.40712,22.83075v169.38289c-28.07941,0-50.84278-22.75227-50.84278-50.8193v-54.37985Z" fill="#abf600" stroke-width="0"/><path d="M224.88522,300.68171v-72.04019c-28.07984,0-50.84322,22.75227-50.84322,50.81908v84.07303c7.61866-5.44734,14.52303-11.84676,20.89593-18.98524,11.34332-12.70537,20.98788-27.72335,29.94728-43.86668Z" fill="#abf600" stroke-width="0"/><path d="M174.042,369.17877c8.99114-6.04075,17.02932-13.32923,24.3591-21.53936,9.90671-11.09464,18.53027-23.89131,26.48412-37.55789v26.79583c0,28.06702-22.76315,50.8193-50.84322,50.8193v-18.51788Z" fill="#abf600" stroke-width="0"/><path d="M165.1652,369.2418c1.66115-5.02128,2.55999-10.39036,2.55999-15.96812v-38.29109c-28.07984,0-50.843,22.75337-50.843,50.82039v17.26583c18.83501-1.04774,34.64686-5.99512,48.28301-13.82701Z" fill="#abf600" stroke-width="0"/><path d="M116.88219,387.71837c17.41753-.93687,32.38315-5.08866,45.47587-11.6924-8.35098,16.64412-25.57866,28.06701-45.47587,28.06701v-16.37461Z" fill="#abf600" stroke-width="0"/></svg>