<svg id="Groestlcoin" xmlns="http://www.w3.org/2000/svg" width="256" height="256" viewBox="0 0 512 512">
<defs>
    <style>
      .cls-1 {
        fill: #0e98be;
      }

      .cls-1, .cls-3 {
        fill-rule: evenodd;
      }

      .cls-2 {
        fill: none;
        stroke: #fff;
        stroke-width: 10px;
      }

      .cls-3 {
        fill: #fff;
      }
    </style>
  </defs>
  <path id="Full" class="cls-1" d="M11,256c0,135.094,109.906,245,245,245S501,391.094,501,256,391.094,11,256,11,11,120.906,11,256Z"/>
  <circle id="Ring" class="cls-2" cx="256" cy="256" r="174.125"/>
  <path id="G" class="cls-3" d="M359.739,190.084l1.276,1.417-2.284,12.7-2.371,9.952H320.052q3.411,8.075,5.9,15.208a88.126,88.126,0,0,1,3.414,23.278q0,23.9-19.861,44.074t-53.687,20.174q-4.35,0-18.93-2.173-5.9,0-15.982,10.4t-10.085,17.07q0,6.678,14.585,9.777a117.98,117.98,0,0,0,21.723,1.862q53.683,0,73.237,6.208,31.959,9.616,31.964,42.521l-0.31,3.1q-7.143,4.342-12.1,6.828l0.31-3.1q0-13.966-17.688-18.622-11.172-2.793-41.584-3.1l-16.448-.621-15.826-.62q-3.725-.314-14.9-1.552-10.24-1.557-15.206-2.794-2.488,0-12.413,13.347-9.31,12.723-9.931,23.588a160.587,160.587,0,0,1-19.24-9.311q7.135-7.449,14.585-14.277L205.541,383l2.483-2.483q-9.936-3.725-14.586-7.449-8.379-6.519-8.379-14.588t7.448-17.536q7.449-9.464,31.033-30.262-19.245-6.2-29.791-22.347A64.879,64.879,0,0,1,183.2,252.024q0-24.828,19.551-46.867t55.238-22.036q15.2,0,33.826,7.138a86.931,86.931,0,0,0,15.206,4.966q16.133-17.379,22.654-26.692,9.928-13.341,9.931-26.072,0-11.174-6.052-17.07a19.971,19.971,0,0,0-14.43-5.9,21.252,21.252,0,0,0-16.758,7.449q-3.418,4.036-6.827,12.725l-3.414-.621Q295.847,121.67,305,114.838a31.918,31.918,0,0,1,19.4-6.828q12.72,0,20.636,8.07a27.279,27.279,0,0,1,7.914,19.864q0,12.1-8.69,23.588-7.76,10.555-32.584,36.314a53.324,53.324,0,0,0,12.767,1.3c2.894,0,6.992.05,14.119,0,6-.2,5.378,0,8.069,0,0,0,6.229-.941,8.068-2.017S359.739,190.084,359.739,190.084Zm-64.2,74.975q0-20.172-10.241-45.159t-34.136-24.985q-20.481,0-28.24,19.553-4.037,10.244-4.034,25.451,0,25.766,12.413,46.091t31.964,20.329q11.477,0,19.24-6.207,12.721-10.243,13.034-35.073h0Z"/>
</svg>
