<?xml version="1.0" encoding="utf-8"?>
<!-- Generator: Adobe Illustrator 22.0.0, SVG Export Plug-In . SVG Version: 6.00 Build 0)  -->
<svg version="1.1" id="Groestlcoin" xmlns="http://www.w3.org/2000/svg" xmlns:xlink="http://www.w3.org/1999/xlink" x="0px"
	 y="0px" viewBox="0 0 245 245" style="enable-background:new 0 0 245 245;" xml:space="preserve">
<style type="text/css">
	.st0{fill:#0E98BE;}
	.st1{fill:none;stroke:#FFFFFF;stroke-width:10;}
	.st2{fill:#FFFFFF;}
</style>
<path id="Full" class="st0" d="M0,122.5C0,190,55,245,122.5,245S245,190,245,122.5S190,0,122.5,0S0,55,0,122.5z"/>
<circle id="Ring" class="st1" cx="122.5" cy="122.5" r="87.1"/>
<path id="G" class="st2" d="M174.4,89.5l0.6,0.7l-1.1,6.3l-1.2,5h-18.2c1.1,2.7,2.1,5.2,2.9,7.6c1.1,3.8,1.7,7.7,1.7,11.6
	c0,8-3.3,15.3-9.9,22c-6.6,6.7-15.6,10.1-26.8,10.1c-1.4,0-4.6-0.4-9.5-1.1c-2,0-4.6,1.7-8,5.2c-3.4,3.5-5,6.3-5,8.5
	c0,2.2,2.4,3.9,7.3,4.9c3.6,0.6,7.2,1,10.9,0.9c17.9,0,30.1,1,36.6,3.1c10.7,3.2,16,10.3,16,21.3l-0.2,1.6c-2.4,1.4-4.4,2.6-6.1,3.4
	l0.2-1.6c0-4.7-2.9-7.8-8.8-9.3c-3.7-0.9-10.7-1.4-20.8-1.6l-8.2-0.3l-7.9-0.3c-1.2-0.1-3.7-0.4-7.4-0.8c-3.4-0.5-5.9-1-7.6-1.4
	c-0.8,0-2.9,2.2-6.2,6.7c-3.1,4.2-4.8,8.2-5,11.8c-3.3-1.3-6.5-2.9-9.6-4.7c2.4-2.5,4.8-4.9,7.3-7.1l7-6.2l1.2-1.2
	c-3.3-1.2-5.7-2.5-7.3-3.7c-2.8-2.2-4.2-4.6-4.2-7.3s1.2-5.6,3.7-8.8c2.5-3.2,7.7-8.2,15.5-15.1c-6.4-2.1-11.4-5.8-14.9-11.2
	c-3.5-5.4-5.4-11.7-5.3-18.2c0-8.3,3.3-16.1,9.8-23.4c6.5-7.3,15.7-11,27.6-11c5.1,0,10.7,1.2,16.9,3.6c2.5,1.1,5,1.9,7.6,2.5
	c5.4-5.8,9.2-10.2,11.3-13.3c3.3-4.4,5-8.8,5-13c0-3.7-1-6.6-3-8.5c-1.9-1.9-4.5-3-7.2-3c-3.2-0.1-6.3,1.3-8.4,3.7
	c-1.1,1.3-2.3,3.5-3.4,6.4l-1.7-0.3c1.2-5.8,3.4-9.8,6.4-12.1c2.8-2.2,6.2-3.4,9.7-3.4c4.2,0,7.7,1.3,10.3,4c2.6,2.6,4,6.2,4,9.9
	c0,4-1.4,8-4.3,11.8c-2.6,3.5-8,9.6-16.3,18.2c2.1,0.5,4.2,0.7,6.4,0.7c1.4,0,3.5,0,7.1,0c3-0.1,2.7,0,4,0c0,0,3.1-0.5,4-1
	S174.4,89.5,174.4,89.5z M142.3,127c0-6.7-1.7-14.3-5.1-22.6S128,92,120.1,92c-6.8,0-11.5,3.3-14.1,9.8c-1.3,3.4-2,7.7-2,12.7
	c0,8.6,2.1,16.3,6.2,23c4.1,6.8,9.5,10.2,16,10.2c3.8,0,7-1,9.6-3.1C140,141.2,142.2,135.3,142.3,127L142.3,127L142.3,127z"/>
</svg>
