<svg xmlns="http://www.w3.org/2000/svg" width="245" height="245" viewBox="0 0 245 245">
  <g id="gatetoken" transform="translate(-2168 -4868)">
    <path id="Main_copy_14" d="M0,122.5C0,190,55,245,122.5,245S245,190,245,122.5,190,0,122.5,0,0,55,0,122.5Z" transform="translate(2168 4868)" fill="#d35756"/>
    <path id="logo" d="M146.775,41.409l-47.2,24.8V94.979l16.235-8.643v16.68L70.061,129.432,33.293,108.2a17.969,17.969,0,0,1-8.984-15.566V50.184L62.253,28.275a15.606,15.606,0,0,1,15.606,0L115.8,50.184l23.228-13.413L79.919,2.64a19.761,19.761,0,0,0-19.736,0L1.081,36.776v69.244a18.033,18.033,0,0,0,9.014,15.615l59.966,34.619,59.878-34.571a18.189,18.189,0,0,0,9.1-15.757V73.983l7.734-4.111V41.409Z" transform="translate(2219.857 4914.297)" fill="#fff"/>
  </g>
</svg>
