<?xml version="1.0" encoding="utf-8"?>
<!-- Generator: Adobe Illustrator 22.0.0, SVG Export Plug-In . SVG Version: 6.00 Build 0)  -->
<svg version="1.1" id="GTO" xmlns="http://www.w3.org/2000/svg" xmlns:xlink="http://www.w3.org/1999/xlink" x="0px" y="0px"
	 viewBox="0 0 490 490" style="enable-background:new 0 0 490 490;" xml:space="preserve">
<style type="text/css">
	.st0{fill:#5F318F;}
	.st1{fill:#FFFFFF;}
</style>
<path id="Full" class="st0" d="M0,245c0,135.1,109.9,245,245,245s245-109.9,245-245S380.1,0,245,0S0,109.9,0,245z"/>
<path id="GTO-2" class="st1" d="M234.7,215.5H112.9v121.7c-0.2,25.6,20.3,46.6,45.9,46.8c0,0,0,0,0,0c0.3,0,0.6,0,0.9,0h75V215.5z
	 M253.4,215.5h121.8v121.7c0.2,25.6-20.3,46.6-45.9,46.8c0,0,0,0,0,0c-0.3,0-0.6,0-0.9,0h-75V215.5z M253.4,196.8h118.1
	c13.1,0,22.5-11.2,22.5-22.5c0-13.1-11.2-22.5-22.5-22.5h-253c-13.1,0-22.5,11.2-22.5,22.5c0,13.1,11.2,22.5,22.5,22.5h116.2v-29.9
	h18.7"/>
<path id="Top" class="st1" d="M257.1,157.4c26.2-46.8,46.8-61.8,61.8-46.8s5.6,29.9-26.2,46.8 M231,157.4
	c-26.2-46.8-46.8-61.8-61.8-46.8s-5.6,29.9,26.2,46.8"/>
</svg>
