<svg id="GTO" xmlns="http://www.w3.org/2000/svg" width="512" height="512" viewBox="0 0 512 512">
<defs>
    <style>
      .cls-1 {
        fill: #5f318f;
      }

      .cls-1, .cls-2 {
        fill-rule: evenodd;
      }

      .cls-2 {
        fill: #fff;
      }
    </style>
  </defs>
  <path id="Full" class="cls-1" d="M11,256c0,135.094,109.906,245,245,245S501,391.094,501,256,391.094,11,256,11,11,120.906,11,256Z"/>
  <path id="GTO-2" data-name="GTO" class="cls-2" d="M245.672,226.537H123.865V348.2A46.363,46.363,0,0,0,169.794,395c0.307,0,.613,0,0.92,0h74.958V226.537Zm18.739,0H386.217V348.2A46.363,46.363,0,0,1,340.288,395c-0.306,0-.613,0-0.919,0H264.411V226.537Zm0-18.718h118.1c13.074,0,22.487-11.23,22.487-22.461,0-13.059-11.244-22.461-22.487-22.461H129.487c-13.074,0-22.487,11.23-22.487,22.461,0,13.059,11.244,22.461,22.487,22.461H245.672V177.871h18.739"/>
  <path id="Top" class="cls-2" d="M268.115,168.384c26.235-46.795,46.849-61.769,61.84-46.795s5.622,29.949-26.235,46.795m-61.753,0c-26.235-46.795-46.848-61.769-61.84-46.795s-5.622,29.949,26.235,46.795"/>
</svg>
