<?xml version="1.0" encoding="utf-8"?>
<!-- Generator: Adobe Illustrator 22.0.0, SVG Export Plug-In . SVG Version: 6.00 Build 0)  -->
<svg version="1.1" id="Gemini_Dollar" xmlns="http://www.w3.org/2000/svg" xmlns:xlink="http://www.w3.org/1999/xlink" x="0px"
	 y="0px" viewBox="0 0 245 245" style="enable-background:new 0 0 245 245;" xml:space="preserve">
<style type="text/css">
	.st0{fill:#20BCD4;}
	.st1{fill:none;stroke:#FFFFFF;stroke-width:14;}
	.st2{fill:#FFFFFF;}
</style>
<path id="Main-F" class="st0" d="M0,122.5C0,190,55,245,122.5,245S245,190,245,122.5S190,0,122.5,0S0,55,0,122.5z"/>
<path id="Bottom" class="st1" d="M94.5,205c30.5,0,55-24.1,55-54.5v-55h-54C63.2,95.5,40,118.7,40,151C40,182.7,63.5,205,94.5,205z"
	/>
<path id="Top" class="st1" d="M151,40c-30.5,0-55,24.2-55,54.5v55h54c32.3,0,55.5-23.2,55.5-55.5C205.5,62.3,182,40,151,40z"/>
<path id="Line_Bottom" class="st2" d="M95,142.5v14H42.5v-14H95z"/>
<path id="Line_Top" class="st2" d="M203,88.5v14h-52.5v-14H203z"/>
</svg>
