<svg id="Gemini_Dollar" data-name="Gemini Dollar" xmlns="http://www.w3.org/2000/svg" width="256" height="256" viewBox="0 0 512 512">
<defs>
    <style>
      .cls-1 {
        fill: #20bcd4;
      }

      .cls-1, .cls-2, .cls-3 {
        fill-rule: evenodd;
      }

      .cls-2 {
        fill: none;
        stroke: #fff;
        stroke-width: 28px;
      }

      .cls-3 {
        fill: #fff;
      }
    </style>
  </defs>
  <path id="Main-F" class="cls-1" d="M11,256c0,135.094,109.906,245,245,245S501,391.094,501,256,391.094,11,256,11,11,120.906,11,256Z"/>
  <path id="Bottom" class="cls-2" d="M199.946,421.011c60.906,0,110.063-48.3,110.063-108.972V201.989H201.945C137.386,201.989,91,248.392,91,313,91,376.447,138.038,421.011,199.946,421.011Z"/>
  <path id="Top" class="cls-2" d="M313.054,90.989c-60.906,0-110.063,48.3-110.063,108.972v110.05H311.055C375.614,310.011,422,263.608,422,199,422,135.553,374.962,90.989,313.054,90.989Z"/>
  <path id="Line_Bottom" data-name="Line Bottom" class="cls-3" d="M201,296v28H96V296H201Z"/>
  <path id="Line_Top" data-name="Line Top" class="cls-3" d="M417,188v28H312V188H417Z"/>
</svg>
