<svg id="GVT" xmlns="http://www.w3.org/2000/svg" width="512" height="512" viewBox="0 0 512 512">
  <defs>
    <style>
      .cls-1 {
        fill: #16b9ad;
      }

      .cls-1, .cls-2 {
        fill-rule: evenodd;
      }

      .cls-2 {
        fill: #fff;
      }
    </style>
  </defs>
  <path id="Full" class="cls-1" d="M11,256c0,135.094,109.906,245,245,245S501,391.094,501,256,391.094,11,256,11,11,120.906,11,256Z"/>
  <path id="GVT-2" data-name="GVT" class="cls-2" d="M427.01,213.944h0v0M117.889,193.012H87.261v0h30.628v0m307.847,0H150.414a0,0,0,0,0,0,0H425.736v0m0,0H150.413a110.934,110.934,0,0,0-1.988,20.93c0,60.13,48.477,109.06,108.051,109.06h0.018c47.463,0,87.9-31.047,102.371-74.075H326.049a77.75,77.75,0,0,1-69.555,43.451c-39.291,0-71.845-29.56-77-67.789H396.265C390.849,297.608,330.22,355.365,256.5,355.365c-77.284,0-140.15-63.442-140.15-141.421a143.038,143.038,0,0,1,1.536-20.93H87.261A173.264,173.264,0,0,0,86,213.944h0c0,94.863,76.488,172.05,170.506,172.05h0c93.912,0,170.348-77.021,170.507-171.75v-0.3H427a170.994,170.994,0,0,0-1.265-20.93"/>
</svg>
