<?xml version="1.0" encoding="utf-8"?>
<!-- Generator: Adobe Illustrator 22.0.0, SVG Export Plug-In . SVG Version: 6.00 Build 0)  -->
<svg version="1.1" id="GVT" xmlns="http://www.w3.org/2000/svg" xmlns:xlink="http://www.w3.org/1999/xlink" x="0px" y="0px"
	 viewBox="0 0 490 490" style="enable-background:new 0 0 490 490;" xml:space="preserve">
<style type="text/css">
	.st0{fill:#16B9AD;}
	.st1{fill:#FFFFFF;}
</style>
<path id="Full" class="st0" d="M0,245c0,135.1,109.9,245,245,245s245-109.9,245-245S380.1,0,245,0S0,109.9,0,245z"/>
<path id="GVT-2" class="st1" d="M416,202.9L416,202.9L416,202.9 M106.9,182H76.3l0,0H106.9L106.9,182 M414.7,182H139.4l0,0H414.7
	L414.7,182 M414.7,182H139.4c-1.3,6.9-2,13.9-2,20.9c0,60.1,48.5,109.1,108.1,109.1h0c47.5,0,87.9-31,102.4-74.1H315
	c-13,26.5-40,43.4-69.6,43.5c-39.3,0-71.8-29.6-77-67.8h216.8c-5.4,73-66,130.8-139.8,130.8c-77.3,0-140.1-63.4-140.1-141.4
	c0-7,0.5-14,1.5-20.9H76.3c-0.8,6.9-1.3,13.9-1.3,20.9l0,0C75,297.8,151.5,375,245.5,375l0,0c93.9,0,170.3-77,170.5-171.8v-0.3h0
	C416,195.9,415.6,189,414.7,182"/>
</svg>
