<svg xmlns="http://www.w3.org/2000/svg" width="238.501" height="236.921" viewBox="0 0 238.501 236.921">
  <g id="one_eth" transform="translate(-2490 -6071)">
    <path id="Path_473869" data-name="Path 473869" d="M119.25,0C185.111,0,238.5,53.037,238.5,118.461s-53.39,118.461-119.25,118.461S0,183.885,0,118.461,53.39,0,119.25,0Z" transform="translate(2490 6071)" fill="#00aee9"/>
    <path id="Shape" d="M165.843,59.967a29.1,29.1,0,0,0-29.121,29.023v32.18c-3,.2-6.066.33-9.245.33s-6.231.127-9.245.307V88.991a29.119,29.119,0,1,0-58.238,0L60,165.9a29.119,29.119,0,1,0,58.238,0l0-32.18c3-.2,6.066-.33,9.245-.33s6.231-.127,9.245-.307V165.9a29.119,29.119,0,1,0,58.238,0l0-76.911A29.1,29.1,0,0,0,165.843,59.967ZM89.112,71.859A17.177,17.177,0,0,1,106.3,88.991v34.077a97.951,97.951,0,0,0-24.742,7,44.987,44.987,0,0,0-9.6,5.728v-46.8A17.177,17.177,0,0,1,89.112,71.859ZM106.3,165.9a17.185,17.185,0,1,1-34.369,0v-7.715c0-6.815,5.4-13.271,14.448-17.29a84.724,84.724,0,0,1,19.921-5.826V165.9Zm59.546,17.132A17.177,17.177,0,0,1,148.658,165.9V131.825a97.949,97.949,0,0,0,24.742-7A44.985,44.985,0,0,0,183,119.1v46.8A17.177,17.177,0,0,1,165.843,183.034Zm2.737-69.083a84.723,84.723,0,0,1-19.921,5.826V88.991a17.185,17.185,0,0,1,34.369,0v7.715C183.027,103.491,177.629,109.947,168.579,113.95Z" transform="translate(2482.005 6062.13)" fill="#fff"/>
  </g>
</svg>
