<svg id="HOT" xmlns="http://www.w3.org/2000/svg" width="512" height="512" viewBox="0 0 512 512">
<defs>
    <style>
      .cls-1 {
        fill: #00a6ae;
      }

      .cls-1, .cls-2 {
        fill-rule: evenodd;
      }

      .cls-2 {
        fill: #fff;
      }
    </style>
  </defs>
  <path id="Full" class="cls-1" d="M11,256c0,135.094,109.906,245,245,245S501,391.094,501,256,391.094,11,256,11,11,120.906,11,256Z"/>
  <path id="HOT-2" data-name="HOT" class="cls-2" d="M99.92,368.176a144.653,144.653,0,0,0,15.451.824C185.525,369,242.4,318.632,242.4,256.5S185.525,144,115.371,144a144.5,144.5,0,0,0-16.383.927c4.731,10.661,10.338,23.526,13.862,31.545q1.716-.065,3.448-0.065c47.111,0,85.3,35.859,85.3,80.093s-38.191,80.093-85.3,80.093q-1.016,0-2.025-.023C108.706,348.79,105.426,355.891,99.92,368.176Zm312.158,0a145.305,145.305,0,0,1-15.485.824c-70.31,0-127.308-50.368-127.308-112.5s57-112.5,127.308-112.5a145.129,145.129,0,0,1,16.419.927c-4.741,10.661-10.361,23.526-13.893,31.545q-1.719-.065-3.455-0.065c-47.216,0-88.273,35.859-88.273,80.093s41.057,80.093,88.273,80.093q1.017,0,2.029-.023C403.273,348.79,406.56,355.891,412.078,368.176Z"/>
  <path id="Middle" class="cls-2" d="M160.8,272.7L175.638,240.3H334.189a28.307,28.307,0,0,1,12.053,2.778l-12.981,31.482H174.711A75.306,75.306,0,0,1,160.8,272.7Z"/>
</svg>
