<?xml version="1.0" encoding="utf-8"?>
<!-- Generator: Adobe Illustrator 22.0.0, SVG Export Plug-In . SVG Version: 6.00 Build 0)  -->
<svg version="1.1" id="HOT" xmlns="http://www.w3.org/2000/svg" xmlns:xlink="http://www.w3.org/1999/xlink" x="0px" y="0px"
	 viewBox="0 0 490 490" style="enable-background:new 0 0 490 490;" xml:space="preserve">
<style type="text/css">
	.st0{fill:#00A6AE;}
	.st1{fill:#FFFFFF;}
</style>
<path id="Full" class="st0" d="M0,245c0,135.1,109.9,245,245,245s245-109.9,245-245S380.1,0,245,0S0,109.9,0,245z"/>
<path id="HOT-2" class="st1" d="M88.9,357.2c5.1,0.6,10.3,0.8,15.5,0.8c70.2,0,127-50.4,127-112.5S174.5,133,104.4,133
	c-5.5,0-10.9,0.3-16.4,0.9c4.7,10.7,10.3,23.5,13.9,31.5c1.1,0,2.3-0.1,3.4-0.1c47.1,0,85.3,35.9,85.3,80.1s-38.2,80.1-85.3,80.1
	c-0.7,0-1.4,0-2,0C97.7,337.8,94.4,344.9,88.9,357.2z M401.1,357.2c-5.1,0.6-10.3,0.8-15.5,0.8c-70.3,0-127.3-50.4-127.3-112.5
	S315.3,133,385.6,133c5.5,0,11,0.3,16.4,0.9c-4.7,10.7-10.4,23.5-13.9,31.5c-1.1,0-2.3-0.1-3.5-0.1c-47.2,0-88.3,35.9-88.3,80.1
	s41.1,80.1,88.3,80.1c0.7,0,1.4,0,2,0C392.3,337.8,395.6,344.9,401.1,357.2z"/>
<path id="Middle" class="st1" d="M149.8,261.7l14.8-32.4h158.6c4.2,0,8.3,1,12.1,2.8l-13,31.5H163.7
	C159,263.4,154.4,262.8,149.8,261.7z"/>
</svg>
