<?xml version="1.0" encoding="utf-8"?>
<!-- Generator: Adobe Illustrator 22.0.0, SVG Export Plug-In . SVG Version: 6.00 Build 0)  -->
<svg version="1.1" id="HPT" xmlns="http://www.w3.org/2000/svg" xmlns:xlink="http://www.w3.org/1999/xlink" x="0px" y="0px"
	 viewBox="0 0 490 490" style="enable-background:new 0 0 490 490;" xml:space="preserve">
<style type="text/css">
	.st0{fill:#357CE1;}
	.st1{fill:#FFFFFF;}
</style>
<path id="Full" class="st0" d="M0,245c0,135.1,109.9,245,245,245s245-109.9,245-245S380.1,0,245,0S0,109.9,0,245z"/>
<path id="HPT-2" class="st1" d="M279.5,186.2c0-43.9-21.5-81.7-37.8-94c-0.1,0-1.2-0.7-1.1,1.1l0,0.1
	c-1.4,84.8-44.8,107.8-68.8,138.8c-55.2,71.5-3.9,149.8,48.4,164.3c29.2,8.1-6.8-14.3-11.4-61.7
	C203.2,277.3,279.5,233.6,279.5,186.2 M304.6,215.1c-0.3-0.3-0.7-0.3-1,0c0,0-0.1,0.1-0.1,0.2c-0.9,10.7-11.8,33.5-25.7,54.5
	c-47.1,71.2-20.2,105.5-5.2,123.9c8.8,10.7,0,0,21.9-10.9c1.7-0.9,42.7-23.8,47.1-76C345.9,256.2,315.4,224.3,304.6,215.1"/>
</svg>
