<?xml version="1.0" encoding="utf-8"?>
<!-- Generator: Adobe Illustrator 22.0.0, SVG Export Plug-In . SVG Version: 6.00 Build 0)  -->
<svg version="1.1" id="HTB" xmlns="http://www.w3.org/2000/svg" xmlns:xlink="http://www.w3.org/1999/xlink" x="0px" y="0px"
	 viewBox="0 0 490 490" style="enable-background:new 0 0 490 490;" xml:space="preserve">
<style type="text/css">
	.st0{fill:#1AB394;}
	.st1{fill:#FFFFFF;}
</style>
<path id="Full" class="st0" d="M0,245c0,135.1,109.9,245,245,245s245-109.9,245-245S380.1,0,245,0S0,109.9,0,245z"/>
<path class="st1" d="M245,96.5L96.5,181v127.2L245,393.5l148.5-85.2V181L245,96.5z M245,357.6l-119.2-68.9v-49.9l0,0l136,77.9
	l31-20.5L245,268l26.9-33.2l92.3,53.9L245,357.6z M364.2,250.1l-140.8-81l-32.1,19.6l50.5,30.1L215,250.2L125.9,199l119.2-68.1
	L364.3,199L364.2,250.1L364.2,250.1z"/>
</svg>
