<?xml version="1.0" encoding="UTF-8" standalone="no"?>
<svg
   xmlns:dc="http://purl.org/dc/elements/1.1/"
   xmlns:cc="http://creativecommons.org/ns#"
   xmlns:rdf="http://www.w3.org/1999/02/22-rdf-syntax-ns#"
   xmlns:svg="http://www.w3.org/2000/svg"
   xmlns="http://www.w3.org/2000/svg"
   id="svg"
   version="1.1"
   width="400"
   height="400"
   viewBox="0 0 400 400">
  <metadata
     id="metadata10">
    <rdf:RDF>
      <cc:Work
         rdf:about="">
        <dc:format>image/svg+xml</dc:format>
        <dc:type
           rdf:resource="http://purl.org/dc/dcmitype/StillImage" />
        <dc:title></dc:title>
      </cc:Work>
    </rdf:RDF>
  </metadata>
  <defs
     id="defs8" />
  <g
     id="svgg">
    <circle
       style="fill:#732483;fill-opacity:1;stroke:none;stroke-width:2"
       id="path1426"
       cx="200"
       cy="200"
       r="200" />
    <path
       id="path1"
       d="m 83.203289,76.046975 c 0,0.07272 2.497371,7.600701 5.549604,16.729506 3.052233,9.128789 5.428073,16.672699 5.279645,16.763349 -0.148427,0.0917 -2.772311,0.19027 -5.831517,0.22115 -3.05821,0.0299 -5.61834,0.11257 -5.689067,0.18329 -0.266971,0.26697 4.008546,13.78086 5.728913,18.10519 4.082262,10.26642 8.120692,15.94453 15.769203,22.17851 l 1.46635,1.19539 -0.58176,2.6966 c -0.31977,1.48328 -1.11968,6.9522 -1.77715,12.15315 -1.61577,12.77375 -2.39576,17.48359 -7.408435,44.72059 -0.49808,2.70258 -2.10887,11.95092 -4.13207,23.70859 -0.691334,4.01951 -1.616767,10.79339 -2.804189,20.52089 -2.310094,18.92802 -0.143447,41.26092 4.987771,51.40183 2.655761,5.25075 9.303133,12.75084 11.299433,12.75084 0.25203,0 0.45724,0.13747 0.45724,0.30482 0,0.83578 8.02108,3.59813 11.95392,4.11613 1.91262,0.25303 32.46284,0.35065 84.87278,0.27295 l 81.88431,-0.12053 2.69561,-0.86567 c 24.84721,-7.97724 31.08615,-38.80738 19.82059,-97.94439 -0.2092,-1.09577 -0.7521,-4.14402 -1.20735,-6.77388 -0.84972,-4.91107 -1.15554,-6.58362 -2.1527,-11.75469 -0.31678,-1.64366 -0.87164,-4.69191 -1.23424,-6.77388 -0.36161,-2.08197 -1.07386,-6.11642 -1.58389,-8.96544 -1.61677,-9.03317 -2.16167,-12.55459 -3.17775,-20.52088 -0.5459,-4.27353 -1.39463,-10.3501 -1.88673,-13.50394 l -0.89555,-5.7329 1.38566,-1.01708 c 6.82867,-5.01069 13.52685,-14.85573 16.85402,-24.7725 1.15455,-3.43974 4.65406,-14.94736 4.65406,-15.302 0,-0.13149 -2.57009,-0.23808 -5.71098,-0.23808 -3.14189,0 -5.81359,-0.1026 -5.9391,-0.22712 -0.12552,-0.12552 2.27522,-7.6774 5.33343,-16.782281 3.05821,-9.104898 5.47888,-16.635868 5.37926,-16.734487 -0.0996,-0.09962 -1.00512,0.190266 -2.01224,0.643519 -1.00711,0.454248 -2.68365,1.205353 -3.72464,1.670559 -1.04098,0.46421 -4.11314,1.89868 -6.82668,3.18771 -2.71354,1.288035 -4.99076,2.341975 -5.06049,2.341975 -0.0697,0 -1.79508,0.787963 -3.83222,1.751249 -7.59771,3.590159 -15.62377,7.157406 -19.90526,8.845896 -7.34469,2.895826 -10.64895,3.776431 -15.87679,4.231676 -6.79481,0.590712 -111.3806,0.592705 -118.54298,0.002 -7.19726,-0.593711 -15.1755,-3.357048 -30.54026,-10.579204 -1.61179,-0.758077 -3.82725,-1.779141 -4.92302,-2.271243 -1.09578,-0.491107 -3.6061,-1.652629 -5.578494,-2.58205 -3.909926,-1.841899 -6.472048,-3.018363 -10.758522,-4.939955 -1.534086,-0.68735 -3.265411,-1.515158 -3.847168,-1.83891 -0.978229,-0.544899 -1.930557,-0.770031 -1.930557,-0.456241 m 22.435501,19.152166 c 4.04939,1.840893 7.78499,3.476587 8.302,3.634966 0.517,0.158389 1.11968,0.428349 1.33883,0.598692 0.7013,0.545895 9.84903,4.253603 13.14931,5.329453 1.75324,0.5718 3.75751,1.22528 4.45383,1.45141 0.69631,0.22712 2.17561,0.52099 3.28732,0.65248 2.5691,0.30483 2.53722,0.55984 -0.26995,2.13676 -10.95875,6.15626 -20.43622,17.10804 -25.44789,29.40463 -2.03117,4.98478 -1.84589,4.91605 -4.98778,1.85883 -4.03245,-3.92387 -7.392495,-9.60397 -10.091091,-17.05823 -1.991323,-5.50279 -2.374844,-5.05651 4.342259,-5.05651 3.164802,0 5.856422,-0.16436 5.980942,-0.36559 0.12352,-0.20122 -1.65861,-5.96599 -3.96173,-12.8116 -2.303117,-6.845596 -4.186855,-12.598407 -4.186855,-12.783693 0,-0.613634 0.666431,-0.36559 8.090805,3.008402 m 196.82916,-3.104033 c 0.13349,0.133485 0.0697,0.53693 -0.14145,0.896544 -0.56482,0.96229 -8.00713,23.22941 -8.07686,24.16381 -0.0568,0.75609 0.24705,0.80689 5.91719,0.99616 5.03259,0.16736 5.95803,0.29387 5.85542,0.79693 -1.26612,6.22102 -6.743,16.4177 -11.29446,21.02992 -3.40188,3.44771 -3.32717,3.45369 -4.71781,-0.3626 -4.40402,-12.07943 -14.79994,-24.31824 -26.00374,-30.61297 -2.80718,-1.57692 -2.83906,-1.83193 -0.26996,-2.13676 1.11171,-0.13149 2.59101,-0.42536 3.28732,-0.65248 0.69632,-0.22613 2.70059,-0.88061 4.45383,-1.4534 3.7625,-1.22827 14.55489,-5.772746 23.50937,-9.897823 6.47902,-2.984494 7.05181,-3.196676 7.48115,-2.767331 m -196.15376,9.496374 c 0,0.31578 0.16437,0.67639 0.36559,0.79991 0.3108,0.19226 1.51317,2.15967 4.80049,7.85273 2.9825,5.16507 4.27851,7.10659 4.74272,7.10858 0.45126,0.002 2.49538,-1.67753 7.60966,-6.24989 0.87961,-0.78697 0.37954,-1.11869 -8.83195,-5.84945 -8.98636,-4.61521 -8.68651,-4.4887 -8.68651,-3.66188 m 182.09795,1.86879 c -2.52028,1.32589 -6.3276,3.30426 -8.46138,4.39605 -4.48072,2.29217 -4.75566,2.58006 -3.45667,3.62802 1.24321,1.00312 5.5257,4.72776 6.17719,5.37227 1.04895,1.03701 1.68749,0.29487 6.14331,-7.14743 6.09949,-10.186729 6.13236,-9.68666 -0.40245,-6.24891 m -96.95819,6.92331 c 0.0727,0.22015 -0.42735,0.6485 -1.11172,0.95133 -16.31111,7.22016 -30.56815,34.49401 -34.80581,66.58629 -0.1305,0.9862 -0.40544,2.86894 -0.61164,4.18387 -3.39292,21.63659 -5.43305,64.2224 -3.40089,70.97636 1.9465,6.46608 16.35495,12.44801 36.37775,15.10377 24.86116,3.29729 58.35901,-5.24876 60.68006,-15.48231 1.57792,-6.95319 -0.0608,-44.90687 -2.83308,-65.61702 -5.29857,-39.59038 -15.27809,-62.0478 -32.77165,-73.75566 -1.93255,-1.29301 -3.78541,-2.35093 -4.11812,-2.35093 -0.33172,0 -0.53893,-0.19524 -0.46023,-0.43333 0.28689,-0.85968 31.0732,-0.46719 36.30503,0.46222 18.14804,3.22356 31.53742,14.09366 38.1559,30.97557 2.8789,7.34569 3.98464,12.60741 5.96002,28.36665 0.63655,5.0834 2.65975,17.70574 3.99161,24.90399 0.6485,3.50648 1.35578,7.36162 1.57194,8.56697 0.21517,1.20535 0.76007,4.2536 1.21034,6.77388 0.45026,2.52029 0.99018,5.38923 1.20037,6.37542 0.41241,1.93156 1.85086,10.57424 3.15284,18.92703 8.03204,51.56421 2.97952,75.06759 -17.04329,79.27936 -4.30341,0.90551 -160.90964,0.93041 -165.63443,0.0269 -18.817448,-3.60012 -24.557319,-24.76651 -18.751702,-69.14542 0.952329,-7.27595 3.737592,-24.68184 4.590302,-28.68939 0.21019,-0.9862 0.93739,-5.02065 1.61577,-8.96544 0.67839,-3.94479 1.39861,-7.90652 1.60083,-8.80306 0.60965,-2.70059 3.85514,-22.3319 4.5395,-27.45714 0.35065,-2.62986 1.0101,-7.55288 1.46435,-10.94082 3.80733,-28.39355 17.51846,-44.60206 42.39954,-50.12276 2.14075,-0.47517 6.58959,-0.67939 19.12626,-0.87762 19.12427,-0.30283 17.43279,-0.31977 17.60015,0.1813 m -59.56237,28.09966 c -2.39477,1.46037 -3.14786,5.10233 -1.68749,8.15854 3.56326,7.45627 13.38439,8.1994 14.22814,1.07685 0.74911,-6.32262 -7.43434,-12.34839 -12.54065,-9.23539 m 129.54656,-0.0827 c -3.53238,1.43447 -6.37443,5.71895 -5.99888,9.04413 0.57678,5.11927 6.02677,6.88148 10.68481,3.45369 8.00016,-5.88631 4.17192,-16.09794 -4.68593,-12.49782 m -86.98664,37.02626 c 4.62417,1.70144 9.31509,5.04056 10.35906,7.37357 0.60865,1.35976 3.58916,3.88701 4.58433,3.88701 0.30382,0 6.94622,4.52157 8.72038,5.93712 1.85883,1.48228 2.1009,1.5032 3.40985,0.29685 1.32688,-1.22328 5.35834,-3.95674 9.50535,-6.44316 2.72151,-1.63171 3.43675,-2.27423 4.04142,-3.631 2.76136,-6.19213 16.01725,-10.51048 20.00886,-6.51787 5.32846,5.32846 -8.66061,16.1079 -16.99249,13.09451 -4.65605,-1.6835 -11.7756,7.8597 -14.00799,18.77363 -5.1093,24.98168 9.53325,44.53231 28.65253,38.25551 4.19184,-1.3757 3.14289,0.0916 -1.814,2.53722 -9.67371,4.7726 -20.30771,3.01637 -27.95821,-4.6172 -2.92274,-2.91576 -3.20963,-3.10503 -3.68878,-2.43163 -6.57266,9.24536 -20.02879,12.28663 -30.55221,6.90438 -4.84632,-2.47844 -5.68907,-3.74755 -1.60681,-2.41867 11.82342,3.84617 20.86855,-0.65348 26.67416,-13.26984 3.8133,-8.28606 3.94579,-22.38968 0.29786,-31.72668 -2.62887,-6.73006 -9.38183,-13.33858 -12.28066,-12.01767 -3.61905,1.64864 -11.20978,-0.71823 -15.28208,-4.76563 -6.33657,-6.29672 -0.99616,-12.50479 7.92943,-9.22045"
       stroke="none"
       fill="#f9f7fa"
       fill-rule="evenodd"
       style="fill:#ffffff;stroke-width:0.996159" />
  </g>
</svg>
