<?xml version="1.0" encoding="UTF-8" standalone="no"?>
<svg
   xmlns:dc="http://purl.org/dc/elements/1.1/"
   xmlns:cc="http://creativecommons.org/ns#"
   xmlns:rdf="http://www.w3.org/1999/02/22-rdf-syntax-ns#"
   xmlns:svg="http://www.w3.org/2000/svg"
   xmlns="http://www.w3.org/2000/svg"
   id="svg8"
   version="1.1"
   viewBox="0 0 67.733332 67.733335"
   height="256"
   width="256">
  <defs
     id="defs2" />
  <metadata
     id="metadata5">
    <rdf:RDF>
      <cc:Work
         rdf:about="">
        <dc:format>image/svg+xml</dc:format>
        <dc:type
           rdf:resource="http://purl.org/dc/dcmitype/StillImage" />
        <dc:title></dc:title>
      </cc:Work>
    </rdf:RDF>
  </metadata>
  <g
     transform="translate(0,-229.26665)"
     id="layer1">
    <g
       transform="matrix(1.5262614,0,0,1.5262614,1.4552085,230.72186)"
       id="g905"
       style="fill:none">
      <path
         style="clip-rule:evenodd;fill:#1a61f0;fill-rule:evenodd"
         d="m 21.2358,42.4717 c 11.7283,0 21.2359,-9.5076 21.2359,-21.2359 C 42.4717,9.50761 32.9641,0 21.2358,0 9.50761,0 0,9.50761 0,21.2358 0,32.9641 9.50761,42.4717 21.2358,42.4717 Z"
         id="path885" />
      <path
         style="clip-rule:evenodd;fill:#ffffff;fill-rule:evenodd"
         d="m 27.4656,19.3749 c -0.5875,-0.2667 -1.2252,-0.4046 -1.8704,-0.4044 h -6.5266 c -1.2528,0 -2.2685,-1.0157 -2.2685,-2.2686 V 8.88403 H 12.2615 V 18.9705 c 8e-4,2.5062 2.0323,4.5377 4.5386,4.5386 h 6.5251 c 0.6017,0 1.1789,0.2391 1.6043,0.6647 0.4255,0.4256 0.6644,1.0028 0.6642,1.6046 v 7.8171 h 4.5386 V 23.5091 c 2e-4,-1.7822 -1.043,-3.3995 -2.6667,-4.1342 z"
         id="path887" />
      <path
         style="clip-rule:evenodd;fill:#ffffff;fill-rule:evenodd"
         d="m 12.4173,26.2834 v 7.6239 h 4.5386 v -3.086 c -4e-4,-2.5063 -2.0323,-4.5379 -4.5386,-4.5379 z"
         id="path889" />
      <path
         style="clip-rule:evenodd;fill:#ffffff;fill-rule:evenodd"
         d="m 26.3854,9.1958 h -0.9476 v 3.086 c 4e-4,2.5065 2.0322,4.5382 4.5386,4.5386 V 9.1958 Z"
         id="path891" />
    </g>
  </g>
</svg>
