<?xml version="1.0" encoding="utf-8"?>
<!-- Generator: Adobe Illustrator 22.0.0, SVG Export Plug-In . SVG Version: 6.00 Build 0)  -->
<svg version="1.1" id="Hush" xmlns="http://www.w3.org/2000/svg" xmlns:xlink="http://www.w3.org/1999/xlink" x="0px" y="0px"
	 viewBox="0 0 245 245" style="enable-background:new 0 0 245 245;" xml:space="preserve">
<style type="text/css">
	.st0{fill:#2D2D2D;}
	.st1{fill:#FFFFFF;}
</style>
<path id="Main_copy_15" class="st0" d="M0,122.5C0,190,55,245,122.5,245S245,190,245,122.5S190,0,122.5,0S0,55,0,122.5z"/>
<g id="Hush-2">
	<path id="Round1" class="st1" d="M66.2,63L66.2,63c4,0,7.2,3.2,7.2,7.2v98.5c0,4-3.2,7.2-7.2,7.2l0,0c-4,0-7.2-3.2-7.2-7.2V70.2
		C59,66.2,62.2,63,66.2,63z"/>
	<path id="Round2" class="st1" d="M93,47.5L93,47.5c3.9,0,7,3.1,7,7v59c0,3.9-3.1,7-7,7l0,0c-3.9,0-7-3.1-7-7v-59
		C86,50.6,89.1,47.5,93,47.5z"/>
	<path id="Round3" class="st1" d="M92.8,133L92.8,133c4,0,7.2,3.2,7.2,7.2v43c0,4-3.2,7.2-7.2,7.2l0,0c-4,0-7.2-3.2-7.2-7.2v-43
		C85.5,136.2,88.7,133,92.8,133z"/>
	<path id="Round4" class="st1" d="M121,39.5c3.9,0,7,3.1,7,7V70c-1.5-2.5-4.1-4-7-4c-4.4,0.1-7,4-7,4V46.5
		C114,42.6,117.1,39.5,121,39.5z"/>
	<path id="Round5" class="st1" d="M121,80c3.9,0,7,3.1,7,7v28c-0.1,3.1-1.9,3.1-2.5,3c-2,0-11.5-12-11.5-12V87
		C114,83.1,117.1,80,121,80z"/>
	<path id="Round6" class="st1" d="M120.8,130.5L120.8,130.5c4,0,7.2,3.2,7.2,7.2v18c0,4-3.2,7.2-7.2,7.2l0,0c-4,0-7.2-3.2-7.2-7.2
		v-18C113.5,133.7,116.7,130.5,120.8,130.5z"/>
	<path id="Round7" class="st1" d="M121,178.5c4,0,5.7-2.4,7-5.2v25c0,4-3.2,7.2-7.2,7.2c-4,0-7.2-3.2-7.2-7.2v-25
		C115.4,176.7,117,178.5,121,178.5z"/>
	<path id="Round8" class="st1" d="M149.5,47.5L149.5,47.5c4.1,0,7.5,3.4,7.5,7.5v36.5c0,4.1-3.4,7.5-7.5,7.5l0,0
		c-4.1,0-7.5-3.4-7.5-7.5V55C142,50.9,145.4,47.5,149.5,47.5z"/>
	<path id="Round9" class="st1" d="M149.5,113L149.5,113c3.9,0,7,3.1,7,7v63.5c0,3.9-3.1,7-7,7l0,0c-3.9,0-7-3.1-7-7V120
		C142.5,116.1,145.6,113,149.5,113z"/>
	<path id="Round10" class="st1" d="M178.2,63L178.2,63c4,0,7.2,3.2,7.2,7.2v98.5c0,4-3.2,7.2-7.2,7.2l0,0c-4,0-7.2-3.2-7.2-7.2V70.2
		C171,66.2,174.2,63,178.2,63z"/>
</g>
</svg>
