<svg id="ICX" xmlns="http://www.w3.org/2000/svg" width="512" height="512" viewBox="0 0 512 512">
  <defs>
    <style>
      .cls-1 {
        fill: #1aaaba;
      }

      .cls-1, .cls-2 {
        fill-rule: evenodd;
      }

      .cls-2 {
        fill: #fff;
      }
    </style>
  </defs>
  <path id="Full" class="cls-1" d="M11,256c0,135.094,109.906,245,245,245S501,391.094,501,256,391.094,11,256,11,11,120.906,11,256Z"/>
  <path id="ICX-2" data-name="ICX" class="cls-2" d="M344.729,190.958L314.938,220.75A68.856,68.856,0,0,1,220.292,315.4L190.5,345.188a109.887,109.887,0,0,0,175.542-88.23A105.9,105.9,0,0,0,344.729,190.958ZM187.75,256.5a68.856,68.856,0,0,1,104.729-58.667l29.792-29.791a109.886,109.886,0,0,0-175.542,88.229A108.778,108.778,0,0,0,168.5,321.812l29.792-29.791A62.9,62.9,0,0,1,187.75,256.5ZM366.5,119A27.5,27.5,0,1,1,339,146.5,27.5,27.5,0,0,1,366.5,119ZM119,366.5A27.5,27.5,0,1,1,146.5,394,27.5,27.5,0,0,1,119,366.5"/>
</svg>
