<?xml version="1.0" encoding="utf-8"?>
<!-- Generator: Adobe Illustrator 22.0.0, SVG Export Plug-In . SVG Version: 6.00 Build 0)  -->
<svg version="1.1" id="ICX" xmlns="http://www.w3.org/2000/svg" xmlns:xlink="http://www.w3.org/1999/xlink" x="0px" y="0px"
	 viewBox="0 0 490 490" style="enable-background:new 0 0 490 490;" xml:space="preserve">
<style type="text/css">
	.st0{fill:#1AAABA;}
	.st1{fill:#FFFFFF;}
</style>
<path id="Full" class="st0" d="M0,245c0,135.1,109.9,245,245,245s245-109.9,245-245S380.1,0,245,0S0,109.9,0,245z"/>
<path id="ICX-2" class="st1" d="M333.7,180l-29.8,29.8c19.8,32.5,9.6,74.8-22.9,94.6c-22,13.4-49.7,13.4-71.8,0l-29.8,29.8
	c48.7,36.3,117.5,26.2,153.8-22.5c14.2-19,21.8-42.1,21.8-65.8C355.5,222.2,348,198.9,333.7,180z M176.8,245.5
	c0.1-38,30.9-68.8,69-68.7c12.6,0,25,3.5,35.8,10.1l29.8-29.8c-48.7-36.3-117.5-26.2-153.8,22.5c-14.2,19-21.8,42.1-21.8,65.8
	c-0.1,23.6,7.6,46.6,21.8,65.5l29.8-29.8C180.3,270.5,176.6,258.1,176.8,245.5z M355.5,108c15.2,0,27.5,12.3,27.5,27.5
	S370.7,163,355.5,163S328,150.7,328,135.5S340.3,108,355.5,108z M108,355.5c0-15.2,12.3-27.5,27.5-27.5s27.5,12.3,27.5,27.5
	S150.7,383,135.5,383l0,0C120.3,383,108,370.7,108,355.5"/>
</svg>
