<?xml version="1.0" encoding="UTF-8"?><svg id="Layer_1" xmlns="http://www.w3.org/2000/svg" width="128" height="128" viewBox="0 0 128 128"><defs><style>.cls-1,.cls-2{fill-rule:evenodd;}.cls-2{fill:#1eefa4;}</style></defs><g id="Layer_1-2"><g id="_2250709451472"><path class="cls-2" d="M64,0h0c35.21,0,64,28.84,64,64h0c0,35.21-28.84,64-64,64h0C28.79,128,0,99.16,0,64h0C0,28.79,28.84,0,64,0Z"/><path d="M70.84,78.32c0-3.45,2.77-6.27,6.27-6.27h2.51c3.45,0,6.22,2.77,6.22,6.27v2.51c0,3.45-2.77,6.27-6.27,6.27h-2.51c-3.45,0-6.22-2.77-6.22-6.27v-2.51h0ZM77.11,49.74h0c-3.45,0-6.22,2.77-6.22,6.27v2.51c0,3.45,2.77,6.27,6.27,6.27h2.51c3.45,0,6.22-2.77,6.22-6.27v-2.51c0-3.45-2.77-6.27-6.27-6.27h-2.51Z"/><path class="cls-1" d="M48.43,23.56c-13.79,0-24.87,11.18-24.87,24.87v31.14c0,13.79,11.18,24.87,24.87,24.87h31.14c13.79,0,24.87-11.18,24.87-24.87v-31.14c0-13.79-11.18-24.87-24.87-24.87,0,0-31.14,0-31.14,0ZM79.57,33.49h-31.14c-8.25,0-14.94,6.69-14.94,14.94v31.14c0,8.25,6.69,14.94,14.94,14.94h31.14c8.25,0,14.94-6.69,14.94-14.94v-31.14c0-8.25-6.69-14.94-14.94-14.94h0Z"/></g></g></svg>