<?xml version="1.0" encoding="UTF-8"?>
<svg id="Layer_1" xmlns="http://www.w3.org/2000/svg" version="1.1" viewBox="0 0 160 160">
  <!-- Generator: Adobe Illustrator 29.8.1, SVG Export Plug-In . SVG Version: 2.1.1 Build 2)  -->
  <defs>
    <style>
      .st0 {
        fill: #c68b23;
      }

      .st1 {
        fill: #fff;
      }
    </style>
  </defs>
  <circle cx="80" cy="80" r="80"/>
  <path class="st0" d="M134,110v-60c0-.7-.4-1.4-1-1.7l-52-30c-.6-.4-1.4-.4-2,0l-52,30c-.6.4-1,1-1,1.7v60c0,.7.4,1.4,1,1.7l52,30c.6.4,1.4.4,2,0l52-30c.6-.4,1-1,1-1.7Z"/>
  <g>
    <polygon class="st1" points="32.7 88.4 61.6 70.9 90.1 94.8 113.6 101.7 111.1 109.5 77.7 101.2 90.5 122.1 81.7 126.1 64.7 96.6 58.1 119.8 50 117.5 58.7 83.4 37.6 96 32.7 88.4"/>
    <polygon class="st1" points="127.3 71.6 98.4 89.1 69.9 65.2 46.4 58.3 48.9 50.5 82.3 58.8 69.5 37.9 78.3 33.9 95.3 63.4 101.9 40.2 110 42.5 101.3 76.6 122.4 64 127.3 71.6"/>
  </g>
</svg>