<?xml version="1.0" encoding="UTF-8" standalone="no"?>
<svg
   xmlns:dc="http://purl.org/dc/elements/1.1/"
   xmlns:cc="http://creativecommons.org/ns#"
   xmlns:rdf="http://www.w3.org/1999/02/22-rdf-syntax-ns#"
   xmlns:svg="http://www.w3.org/2000/svg"
   xmlns="http://www.w3.org/2000/svg"
   xmlns:sodipodi="http://sodipodi.sourceforge.net/DTD/sodipodi-0.dtd"
   xmlns:inkscape="http://www.inkscape.org/namespaces/inkscape"
   id="EVX"
   width="512"
   height="512"
   viewBox="0 0 512 512"
   version="1.1"
   sodipodi:docname="Ilcoin.svg"
   inkscape:version="0.92.3 (2405546, 2018-03-11)"
   inkscape:export-filename="/home/allsysgo/Storage/Zel/Zelcore Logos/Inskape logos/Ilcoin.png"
   inkscape:export-xdpi="96"
   inkscape:export-ydpi="96">
  <title
     id="title853">Ilcoin</title>
  <metadata
     id="metadata953">
    <rdf:RDF>
      <cc:Work
         rdf:about="">
        <dc:format>image/svg+xml</dc:format>
        <dc:type
           rdf:resource="http://purl.org/dc/dcmitype/StillImage" />
        <dc:title>Ilcoin</dc:title>
      </cc:Work>
    </rdf:RDF>
  </metadata>
  <sodipodi:namedview
     pagecolor="#ffffff"
     bordercolor="#666666"
     borderopacity="1"
     objecttolerance="10"
     gridtolerance="10"
     guidetolerance="10"
     inkscape:pageopacity="0"
     inkscape:pageshadow="2"
     inkscape:window-width="1920"
     inkscape:window-height="1055"
     id="namedview951"
     showgrid="false"
     inkscape:zoom="1.3037281"
     inkscape:cx="98.182218"
     inkscape:cy="188.85221"
     inkscape:window-x="1920"
     inkscape:window-y="0"
     inkscape:window-maximized="1"
     inkscape:current-layer="EVX" />
  <defs
     id="defs946">
    <style
       id="style944">
      .cls-1 {
        fill: #3f54b7;
      }

      .cls-1, .cls-2 {
        fill-rule: evenodd;
      }

      .cls-2 {
        fill: #fff;
      }
    </style>
  </defs>
  <path
     id="Full"
     class="cls-1"
     d="M11,256c0,135.094,109.906,245,245,245S501,391.094,501,256,391.094,11,256,11,11,120.906,11,256Z"
     style="fill:#074ad4;fill-opacity:1"
     inkscape:export-xdpi="96"
     inkscape:export-ydpi="96" />
  <g
     inkscape:groupmode="layer"
     id="layer1"
     inkscape:label="Layer 1">
    <g
       transform="matrix(0.34646022,0,0,0.34646022,82.586915,85.300322)"
       id="Layer_1"
       style="fill:#ffffff">
      <g
         id="g946"
         style="fill:#ffffff">
        <linearGradient
           id="XMLID_3_"
           gradientUnits="userSpaceOnUse"
           x1="860.13568"
           y1="585.35632"
           x2="860.13568"
           y2="585.35632">
          <stop
             offset="0"
             style="stop-color:#00B0C4"
             id="stop910" />
          <stop
             offset="1"
             style="stop-color:#17477E"
             id="stop912" />
        </linearGradient>
        <path
           inkscape:connector-curvature="0"
           id="XMLID_1_"
           class="st1"
           d="M 860.1,585.4"
           style="fill:#ffffff" />
        <g
           id="g944"
           style="fill:#ffffff">
          <linearGradient
             id="SVGID_1_"
             gradientUnits="userSpaceOnUse"
             x1="189.46629"
             y1="19.6465"
             x2="201.6575"
             y2="987.62921">
            <stop
               offset="0"
               style="stop-color:#00B0C4"
               id="stop916" />
            <stop
               offset="1"
               style="stop-color:#17477E"
               id="stop918" />
          </linearGradient>
          <path
             inkscape:connector-curvature="0"
             class="st2"
             d="m 192.7,152.5 c -1.1,-1.1 -2.8,-1.4 -4.7,-1.3 -1.9,0.2 -3.8,0.8 -5.5,2.2 -9.7,8.1 -14.4,12.4 -23.4,21.2 -1.6,1.6 -2.5,3.4 -2.6,5.1 -0.2,1.7 0.3,3.1 1.5,4.1 11.8,10 23.6,20 35.5,30 1.3,1.1 2.8,1.5 4.6,1.3 1.8,-0.2 3.4,-1.1 4.8,-2.5 8,-7.8 12.2,-11.6 20.9,-18.9 1.5,-1.2 2.3,-2.7 2.6,-4.2 0.3,-1.7 0,-3.1 -1.2,-4.3 -10.8,-10.9 -21.6,-21.8 -32.5,-32.7 z"
             id="path921"
             style="fill:#ffffff" />
          <linearGradient
             id="SVGID_2_"
             gradientUnits="userSpaceOnUse"
             x1="905.034"
             y1="10.6373"
             x2="917.22522"
             y2="978.61938">
            <stop
               offset="0"
               style="stop-color:#00B0C4"
               id="stop923" />
            <stop
               offset="1"
               style="stop-color:#17477E"
               id="stop925" />
          </linearGradient>
          <path
             inkscape:connector-curvature="0"
             class="st3"
             d="m 907.7,313.7 c 1.5,0.6 3,0.7 4.5,0 4.2,-2 6.3,-2.9 10.6,-4.9 1.4,-0.7 2.3,-1.9 2.8,-3.5 0.5,-1.5 0.6,-3.2 -0.1,-4.8 -5.1,-11.6 -7.9,-17.2 -14,-28.3 -8.2,4.5 -12.2,6.8 -20.4,11.3 5.8,10.6 8.5,16 13.4,27.1 0.7,1.5 1.8,2.5 3.2,3.1 z"
             id="path928"
             style="fill:#ffffff" />
          <linearGradient
             id="SVGID_3_"
             gradientUnits="userSpaceOnUse"
             x1="494.01019"
             y1="15.8118"
             x2="506.20139"
             y2="983.79449">
            <stop
               offset="0"
               style="stop-color:#00B0C4"
               id="stop930" />
            <stop
               offset="1"
               style="stop-color:#17477E"
               id="stop932" />
          </linearGradient>
          <path
             inkscape:connector-curvature="0"
             class="st4"
             d="m 933.7,257.2 c 0,0 -90.9,-196 -324.6,-246.2 V 41.9 L 550.5,28.8 V 94 l 58.6,12.1 V 138 c 0,0 43.7,11.8 95.1,46.4 l -62.7,69.7 C 600,229.6 551.6,215.4 500,215.4 c -52.1,0 -100.8,14.4 -142.6,39.3 L 294.1,185.5 C 346.2,150 390.9,138 390.9,138 V 106.1 L 449.5,94 V 28.8 L 390.9,41.9 V 11 C 157.2,61.2 66.3,257.2 66.3,257.2 c -106.2,193 -35.4,389 -35.4,389 l 27.2,-15.2 12.6,34.7 56,-28.1 -11.9,-37.9 25.1,-14.5 C 116.1,418 166.4,310.3 228.2,242.5 l 56.5,62.3 c -0.1,1.5 -0.2,3 -0.2,4.5 0,2.4 0.2,4.8 0.5,7.2 -40.2,48.5 -64.4,110.5 -64.4,178.2 0,132 92.2,242.9 215.5,271.8 4.4,11.8 12.1,22 21.9,29.5 l -0.1,60.6 c -66.7,-8.8 -139.8,-39 -214.3,-106 l -35.5,17.9 -31.7,-36.6 -55.9,30 31.7,38.9 -26.5,16.9 c 0,0 149,170.3 369.4,170.6 0,0 215.6,15.1 372.4,-165.1 l -27.1,-14.9 39.8,-44.9 -57.1,-31.5 -38.9,45.4 -27.9,-15.4 c 0,0 -87.1,79.6 -213.2,95 l 0.1,-64.2 c 8,-7.2 14.2,-16.3 18,-26.6 -0.1,0.4 -0.2,0.7 -0.4,1.1 124.8,-27.9 218.4,-139.4 218.4,-272.5 0,-68.5 -24.8,-131.2 -65.9,-179.9 0,0.3 -0.1,0.7 -0.2,1 0.3,-2.1 0.4,-4.2 0.4,-6.4 0,-0.5 -0.1,-1 -0.1,-1.5 l 58.8,-64.8 c 61.5,67.8 111.5,175.5 87.8,342.2 l 25.1,14.5 -11.9,37.9 56,28.1 12.6,-34.7 27.2,15.2 c 0.1,-0.1 70.9,-196.1 -35.3,-389.1 z M 213.1,833.8 c -11.3,0 -20.5,-9.2 -20.5,-20.5 0,-11.3 9.2,-20.5 20.5,-20.5 11.3,0 20.5,9.2 20.5,20.5 0,11.3 -9.2,20.5 -20.5,20.5 z M 779.3,807 c 11.3,0 20.5,9.2 20.5,20.5 0,11.3 -9.2,20.5 -20.5,20.5 -11.3,0 -20.5,-9.2 -20.5,-20.5 0,-11.3 9.2,-20.5 20.5,-20.5 z M 635.5,99.4 c -11.3,0 -20.5,-9.2 -20.5,-20.5 0,-11.3 9.2,-20.5 20.5,-20.5 11.3,0 20.5,9.2 20.5,20.5 0,11.3 -9.2,20.5 -20.5,20.5 z m 61.5,60.9 c -1.6,-0.8 -2.5,-1.9 -3,-3.2 -0.5,-1.4 0.6,-4.1 0.6,-4.1 0,0 -2.2,2.2 -3.8,2.6 -1.6,0.4 -3.1,0.2 -4.6,-0.4 -8.7,-4 -13.2,-5.9 -22.3,-9.5 -3.2,-1.3 -5.6,-3.2 -6.7,-5.8 -1.2,-2.6 -0.9,-5.4 0.6,-8.1 10.7,-19.3 21.5,-38.6 32.2,-57.9 5.5,1.9 8.2,3 13.5,5 -10.4,17.5 -20.7,35 -31.1,52.5 -0.8,1.4 -0.9,2.8 -0.4,4.1 0.6,1.3 1.7,2.3 3.4,3 4.6,1.9 6.9,2.9 11.4,4.9 1.5,0.7 3.1,0.8 4.7,0.4 1.7,-0.4 3.1,-1.2 4,-2.5 11.4,-17.1 22.7,-34.1 34.1,-51.2 5.1,2.4 7.6,3.6 12.6,6.1 -11.8,16.8 -23.7,33.7 -35.5,50.5 -0.9,1.3 -1.2,2.7 -0.8,4.1 0.4,1.4 1.4,2.5 3,3.3 4.3,2.2 6.5,3.4 10.7,5.7 1.4,0.8 3,1 4.6,0.8 1.7,-0.2 3.1,-1 4.1,-2.3 12.8,-16.3 25.5,-32.7 38.3,-49 4.8,2.8 7.1,4.2 11.7,7 -14.4,17.5 -28.8,35.1 -43.3,52.6 -2,2.5 -4.8,4 -8.2,4.5 -3.3,0.5 -6.3,-0.1 -9.1,-1.7 -8,-4.9 -12.2,-7.1 -20.7,-11.4 z m 16.7,30.7 c 7.8,5.6 15.8,11.8 23.7,18.5 l -49.3,55.1 c -7.8,-4.7 -17,-7.4 -26.8,-7.4 -2.8,0 -5.6,0.3 -8.3,0.7 z m -52.3,86.2 c 17.8,0 32.3,14.5 32.3,32.3 0,17.8 -14.5,32.3 -32.3,32.3 -17.8,0 -32.3,-14.5 -32.3,-32.3 0,-17.9 14.4,-32.3 32.3,-32.3 z M 499.9,232.8 c 47.2,0 91.4,12.6 129.6,34.5 l -2.5,2.8 c -11,9.6 -18,23.7 -18,39.4 0,21.9 13.4,40.6 32.5,48.4 v 82.4 l -126.8,97 v -77.4 c 29.1,-7.2 50.7,-33.4 50.7,-64.8 0,-36.9 -29.9,-66.8 -66.8,-66.8 -36.9,0 -66.8,29.9 -66.8,66.8 0,31.3 21.6,57.6 50.7,64.8 v 77.3 L 355.8,440.3 v -82.1 c 19.5,-7.6 33.3,-26.5 33.3,-48.7 0,-15.2 -6.6,-28.9 -16.9,-38.5 h 0.1 l -2.9,-3.2 c 38.4,-22.2 83,-35 130.5,-35 z M 369,309.4 c 0,17.8 -14.5,32.3 -32.3,32.3 -17.8,0 -32.3,-14.5 -32.3,-32.3 0,-17.8 14.5,-32.3 32.3,-32.3 17.9,0 32.3,14.5 32.3,32.3 z m -25.1,-51.8 c -2.3,-0.3 -4.7,-0.5 -7.2,-0.5 -9.1,0 -17.6,2.3 -25,6.3 L 263.1,209 c 7.2,-6 14.4,-11.7 21.5,-16.8 z M 362.5,58.5 c 11.3,0 20.5,9.2 20.5,20.5 0,11.3 -9.2,20.5 -20.5,20.5 C 351.2,99.5 342,90.3 342,79 342.1,67.6 351.2,58.5 362.5,58.5 Z M 241,103.3 c 1.4,-3.4 4.4,-6.3 8.6,-8.5 15.4,-7.8 30.8,-14.9 46.8,-21.5 4.4,-1.7 8.8,-2.2 13.1,-1.5 4.3,0.7 7.2,2.4 8.7,5.1 10.7,19.4 21.5,38.8 32.2,58.2 -5.7,2 -8.5,3.1 -14.1,5.3 -10.5,-17.6 -20.9,-35.1 -31.4,-52.7 -0.8,-1.3 -2.4,-2 -4.4,-2.3 -2,-0.3 -4.2,-0.2 -6.3,0.7 -12.6,5.2 -18.7,8 -30.6,14.1 -2.2,1.1 -3.6,2.6 -4.3,4.2 -0.7,1.6 -0.7,3 0.2,4.2 12.3,16.7 24.5,33.5 36.8,50.2 -5.1,2.7 -7.6,4.1 -12.6,7 -14,-17.9 -28,-35.8 -41.9,-53.8 -1.8,-2.5 -2.1,-5.4 -0.8,-8.7 z m -20.4,8.3 c 17,20.5 34,41 51,61.5 -4.8,3 -7.2,4.6 -11.8,7.8 -17.7,-20 -35.4,-40.1 -53,-60.1 5.4,-3.8 8.2,-5.6 13.8,-9.2 z m -191,333.8 c 0.1,-4.5 1.4,-8.2 3.9,-11 2.4,-2.8 5.2,-3.9 8.2,-3.3 22.5,4.4 45,8.7 67.5,13.1 -0.4,5.6 -0.5,8.4 -0.7,14.1 -20.7,-3.4 -41.3,-6.7 -62,-10.1 -1.5,-0.2 -2.8,0.5 -3.9,1.9 -1.1,1.3 -1.8,3.1 -1.9,5.3 -0.2,13.1 0,19.7 0.8,32.9 0.2,2.4 0.9,4.5 2.2,6.1 1.2,1.6 2.5,2.5 4,2.6 20.6,1.4 41.2,2.9 61.8,4.3 0.5,5.8 0.8,8.7 1.5,14.6 -22.4,-0.9 -44.8,-1.7 -67.2,-2.6 -3,-0.1 -5.9,-1.8 -8.4,-5.1 -2.6,-3.4 -4.1,-7.6 -4.5,-12.4 -1,-16.9 -1.5,-33.5 -1.3,-50.4 z m 50,160.4 c -11.3,0 -20.5,-9.2 -20.5,-20.5 0,-11.3 9.2,-20.5 20.5,-20.5 11.3,0 20.5,9.2 20.5,20.5 -0.1,11.4 -9.2,20.5 -20.5,20.5 z M 38,547.4 c -1.3,-6.9 -2,-10.4 -3,-17.3 26,0.2 52,0.3 78.1,0.5 0.9,5.9 1.4,8.8 2.6,14.8 -25.9,0.6 -51.8,1.3 -77.7,2 z m 76.5,-144.7 c -25.9,-7.4 -51.9,-14.9 -77.8,-22.3 1.2,-6.3 1.8,-9.5 3.3,-15.8 25.8,8.2 51.6,16.4 77.4,24.6 -1.4,5.4 -1.9,8.1 -2.9,13.5 z M 120.6,376 C 95,367 69.4,358.1 43.8,349.1 c 1.7,-6.2 2.6,-9.2 4.4,-15.3 21.8,8.3 43.5,16.6 65.3,24.9 5.5,-17.6 12.4,-34.8 20.6,-51.3 4.2,2.1 6.2,3.2 10.4,5.4 -9.7,20.7 -17.4,41.3 -23.9,63.2 z m 36.7,-86.8 c -1.9,3.2 -4.5,5.6 -7.7,6.7 -3.1,1.1 -6.3,0.9 -9.2,-0.7 -17.1,-9.4 -34.1,-18.9 -51.2,-28.3 -2.8,-1.5 -4.5,-4.2 -5.1,-7.8 -0.5,-3.8 0.4,-7.7 2.6,-11.5 10.8,-18.1 23.1,-35.2 36.6,-51.4 3.7,2.8 5.6,4.2 9.3,7 -11.6,13.8 -22.2,28.4 -31.8,43.7 -1.2,1.9 -1.6,3.8 -1.3,5.7 0.2,1.7 1,3.1 2.3,3.9 13.4,7.9 26.9,15.9 40.3,23.8 1.5,0.9 3,1 4.6,0.5 1.6,-0.5 2.9,-1.7 4,-3.4 8.6,-13.7 18.1,-26.7 28.4,-39.1 3.7,2.8 5.6,4.2 9.3,7 -11.4,13.8 -21.8,28.5 -31.1,43.9 z m 49.5,-64 c -2.7,2.7 -5.8,4.5 -9.3,5 -3.4,0.5 -6.6,-0.3 -9.1,-2.4 -15.2,-12.1 -30.3,-24.2 -45.5,-36.3 -2.5,-2 -3.7,-4.8 -3.4,-8.4 0.3,-3.7 2.1,-7.3 5.2,-10.5 11.3,-11.5 23.2,-22.3 35.8,-32.4 3.4,-2.8 7.2,-4.3 11.4,-4.6 4.1,-0.3 7.2,0.7 9.4,3 13.1,14 26.2,28 39.3,42 2.2,2.4 3,5.3 2.3,8.5 -0.7,3.2 -2.5,6 -5.5,8.4 -13,10.5 -19.1,16 -30.6,27.7 z m 29.3,9 c 6,-6.2 12.1,-12.1 18.3,-17.5 l 47.9,53.5 c -6.4,5.6 -11.4,12.8 -14.4,21 z M 431.8,743 c 0,1.8 0.2,3.6 0.3,5.4 0,-0.3 -0.1,-0.6 -0.1,-0.9 -111.6,-30 -194.1,-132 -194.1,-252.9 0,-59.6 20.1,-114.6 53.7,-158.7 6.3,10.6 16.3,18.8 28.2,22.9 v 90.9 7.9 l 162.7,124.9 v 95.7 c -29.1,7.3 -50.7,33.5 -50.7,64.8 z M 259.3,893 c 13.8,-22.6 27.6,-45.3 41.4,-67.9 5.4,3.3 8.2,4.9 13.7,8 -12.9,23.2 -25.7,46.4 -38.6,69.6 -6.7,-3.7 -10,-5.7 -16.5,-9.7 z m 121.2,51.9 C 350,936 321.3,925.1 292.6,911.5 c 11.9,-23.7 23.8,-47.4 35.7,-71.1 5.6,2.8 8.5,4.2 14.2,6.7 -9.3,20.7 -18.7,41.4 -28,62.1 22.7,9.6 45.3,17.7 69,24.6 -1.2,4.5 -1.8,6.7 -3,11.1 z M 492,892.3 c -18.6,-0.8 -36.6,-2.4 -55.1,-5 -2.3,-0.4 -4.3,0 -5.9,0.8 -1.6,0.8 -2.6,1.9 -2.9,3.5 -3.3,17.9 -4.9,26.8 -8.2,44.7 -0.3,1.6 0.3,3.1 1.8,4.5 1.5,1.3 3.5,2.2 6.1,2.7 20.8,3.4 41.9,5.3 63,5.7 -0.1,4.5 -0.1,6.8 -0.2,11.4 -24.9,-1 -49.1,-3.5 -73.8,-7.4 -5.1,-0.9 -9.5,-2.9 -12.5,-5.7 -2.9,-2.8 -4,-6 -3.3,-9.1 4.1,-18.5 8.3,-37 12.4,-55.4 0.7,-3 2.7,-5.3 6,-6.9 3.4,-1.6 7.3,-1.9 11.6,-1.2 20.2,3.7 40.6,5.7 61.1,6.1 0.1,4.5 0,6.8 -0.1,11.3 z m 2.4,-33 c -8.2,-0.2 -16.5,-0.6 -24.9,-1.4 l 0.1,-54.7 c 7.6,3.7 16,5.9 24.9,6.5 z m 11.2,0 0.1,-50 c 9.4,-1 18.2,-3.9 26,-8.3 l -0.1,57 c -8.5,0.8 -17.2,1.2 -26,1.3 z m 128.1,1.3 c 2.1,-3.2 5.2,-5.6 9.3,-7.2 14.6,-5.9 28.8,-12.6 42.5,-20.3 3.7,-2.1 7.5,-3 11.4,-2.6 3.9,0.3 6.6,1.7 8.2,4.4 11.8,19.4 23.7,38.8 35.5,58.2 -6.6,4 -9.9,5.9 -16.6,9.6 -10.1,-18.2 -20.2,-36.4 -30.3,-54.7 -0.7,-1.3 -2.2,-2 -4.1,-2.2 -1.8,-0.2 -3.8,0.1 -5.8,1.1 -11.5,6.1 -17.4,8.8 -29.2,13.9 -2.2,0.9 -3.7,2.3 -4.7,3.9 -0.9,1.5 -1.2,3.1 -0.6,4.5 7.8,19.3 15.6,38.6 23.4,58 -7,2.8 -10.5,4.2 -17.6,6.7 -7.6,-21.4 -15.2,-42.8 -22.9,-64.2 -1,-3 -0.5,-6.1 1.5,-9.1 z m -20,3.2 c 7.9,25.3 15.7,50.6 23.6,75.9 -7.2,2.2 -10.7,3.3 -18,5.2 -6.8,-25.6 -13.7,-51.2 -20.5,-76.8 6,-1.6 9,-2.5 14.9,-4.3 z m -45,11 c 4.1,-0.7 7.8,-0.4 11.3,1.2 3.5,1.6 5.6,3.8 6.3,6.8 4.1,18.5 8.3,37 12.4,55.4 0.7,3.1 -0.5,6.3 -3.6,9.1 -3.1,2.8 -7.2,4.7 -12.2,5.7 -18.5,3 -36.6,5.2 -55.3,6.7 -5.2,0.3 -9.8,-0.5 -13.4,-2.6 -3.5,-2 -5.3,-4.8 -5.3,-8 -0.4,-18.9 -0.8,-37.9 -1.1,-56.8 -0.1,-3.1 1.4,-5.8 4.2,-8.1 2.9,-2.3 6.6,-3.6 10.9,-3.9 18.4,-1 27.6,-2.1 45.8,-5.5 z m -70,-84.5 c -26.1,0 -47.3,-21.1 -47.3,-47.2 0,-26.1 21.2,-47.2 47.3,-47.2 26.1,0 47.3,21.1 47.3,47.2 -0.1,26 -21.2,47.2 -47.3,47.2 z M 761.9,494.7 c 0,121.9 -83.7,224.6 -196.7,253.7 0,0.1 0,0.2 0,0.3 0.2,-1.9 0.3,-3.7 0.3,-5.6 0,-31.3 -21.6,-57.6 -50.7,-64.8 v -95.6 l 162.8,-125 v -7.9 -90.7 c 12.8,-4.2 23.4,-13.1 29.7,-24.8 -0.1,0.1 -0.1,0.2 -0.2,0.4 34.3,44.3 54.8,99.8 54.8,160 z M 711.1,293.4 c -2.7,-8.4 -7.5,-15.8 -13.7,-21.7 l 48.8,-54.5 c 6.1,5.5 12.2,11.4 18.2,17.6 z M 808,195.8 c -12,-11.1 -24.7,-21 -37.8,-30.7 -6.1,6.8 -9.2,10.1 -15.4,16.9 12.6,9 24.7,18.8 36.1,29.3 -3.4,3.1 -5.1,4.7 -8.5,7.8 -13.9,-12.9 -28.9,-24.7 -44.8,-35.2 17.4,-20.1 34.8,-40.2 52.2,-60.3 18.4,12.8 35.6,26.3 52.4,41.2 -3.4,3.1 -5.1,4.7 -8.5,7.8 -13.1,-11.6 -26.4,-22.4 -40.4,-32.8 -6.1,6.8 -9.2,10.1 -15.4,16.9 13.4,10 26.1,20.3 38.7,31.4 -3.5,3 -5.2,4.6 -8.6,7.7 z m 12.1,64.2 c 18.9,-13.5 37.8,-27 56.8,-40.5 -6.2,-8 -9.5,-11.9 -16.3,-19.5 3.6,-2.9 5.5,-4.3 9.1,-7.2 14.1,16.6 26.9,33.5 39,51.6 -4,2.4 -6,3.7 -9.9,6.1 -5.4,-8.5 -8.3,-12.7 -14.2,-20.9 -19.2,13.1 -38.5,26.2 -57.7,39.2 -2.8,-3.6 -4.1,-5.3 -6.8,-8.8 z m 43.6,73.2 c 6.5,-14.4 12.3,-29.1 17.3,-44.1 -12.2,6.8 -18.4,10.1 -30.6,16.9 -2.1,-3.9 -3.2,-5.8 -5.4,-9.6 23.5,-13.7 47,-27.4 70.5,-41.1 8.5,15.1 16.1,30.2 23.3,46 1.4,3.2 1.5,6.5 0.3,9.8 -1.2,3.3 -3.2,5.6 -6.1,6.8 -8.5,3.7 -12.8,5.6 -21.3,9.3 -3,1.3 -6,1.3 -9,0 -2.8,-1.2 -4.9,-3.4 -6.2,-6.4 -5.3,-12.4 -8.7,-18.8 -8.7,-18.8 -5.5,14.9 -11.8,29.5 -18.8,43.8 -2.1,-5 -3.1,-7.5 -5.3,-12.6 z m 21.1,66.2 c -2.8,-13.2 -4.5,-19.7 -8.5,-32.4 -0.9,-3 -0.8,-6 0.5,-8.8 1.3,-2.8 3.7,-4.9 6.7,-6.1 21.5,-8.8 43,-17.6 64.5,-26.4 1.7,4.9 2.5,7.4 4.1,12.3 -19.9,7.6 -39.7,15.2 -59.6,22.8 -1.6,0.6 -2.7,1.6 -3.4,3 -0.7,1.4 -0.8,2.9 -0.3,4.5 2.6,8.8 3.8,13.2 5.8,22.2 0.3,1.5 1.2,2.6 2.4,3.4 1.3,0.8 2.7,1 4.3,0.6 20.2,-6.2 40.5,-12.3 60.7,-18.5 1.1,5.2 1.6,7.7 2.5,13 -22.2,6.2 -44.4,12.4 -66.5,18.5 -3.1,0.9 -6,0.5 -8.6,-1.1 -2.4,-1.7 -4,-4.1 -4.6,-7 z m 15.1,19.4 c 2.3,16.1 3.1,24.3 3.7,41 0.1,1.6 0.7,2.9 1.7,3.8 1.1,1 2.4,1.5 4.1,1.3 4.5,-0.7 6.7,-1 11.2,-1.7 1.5,-0.2 2.8,-1.2 3.8,-2.5 1,-1.3 1.7,-2.9 1.6,-4.6 -0.4,-12.4 -0.9,-18.6 -2.3,-30.8 -0.4,-3.4 0.3,-6.7 2,-9.5 1.8,-2.8 4.4,-4.7 7.5,-5.4 8.9,-2.3 13.4,-3.4 22.3,-5.6 3,-0.8 5.9,-0.2 8.3,1.7 2.5,2 4.1,5 4.5,8.7 2,17.9 2.9,36 2.7,54.1 -4.5,0.6 -6.7,0.9 -11.2,1.4 0.2,-15.5 -0.4,-31 -1.9,-46.4 -0.2,-1.9 -1,-3.3 -2.2,-4.3 -1.2,-0.9 -2.5,-1.3 -4,-0.9 -4.5,1 -6.7,1.5 -11.2,2.5 -1.6,0.4 -2.9,1.3 -3.8,2.7 -0.9,1.4 -1.3,3 -1.1,4.8 1.2,12.5 1.6,18.8 1.8,31.6 0.1,3.5 -1,6.6 -3.3,9.5 -2.2,2.8 -4.9,4.4 -7.9,4.8 -9,1.1 -13.5,1.7 -22.5,2.8 -3.2,0.4 -5.9,-0.4 -8,-2.5 -2.1,-2 -3.2,-4.6 -3.2,-7.8 -0.3,-15.3 -1.5,-30.6 -3.7,-45.8 4.4,-1.2 6.6,-1.8 11.1,-2.9 z m 24.2,187 c -11.3,0 -20.5,-9.2 -20.5,-20.5 0,-11.3 9.2,-20.5 20.5,-20.5 11.3,0 20.5,9.2 20.5,20.5 -0.1,11.4 -9.2,20.5 -20.5,20.5 z m 38.1,-52.7 c -4.4,-0.1 -6.6,-0.2 -11,-0.3 2.2,-11.1 3.1,-16.7 4.6,-27.7 -22.3,0.5 -44.6,1 -66.8,1.5 0.7,-4.8 0.9,-7.2 1.4,-12 22.4,-1.1 44.7,-2.2 67.1,-3.3 1.2,-11 1.6,-16.4 2,-27.2 4.5,-0.5 6.7,-0.7 11.2,-1.1 -1.5,23.7 -4.3,46.7 -8.5,70.1 z"
             id="path935"
             style="fill:#ffffff" />
          <linearGradient
             id="SVGID_4_"
             gradientUnits="userSpaceOnUse"
             x1="540.62518"
             y1="15.2272"
             x2="552.81641"
             y2="983.20752">
            <stop
               offset="0"
               style="stop-color:#00B0C4"
               id="stop937" />
            <stop
               offset="1"
               style="stop-color:#17477E"
               id="stop939" />
          </linearGradient>
          <path
             inkscape:connector-curvature="0"
             class="st5"
             d="m 529.5,946.6 c 1.8,1 4,1.3 6.6,1.1 14.4,-1.2 21.6,-2 35.9,-4.3 2.4,-0.4 4.4,-1.3 5.9,-2.6 1.6,-1.4 2.4,-2.9 2.1,-4.5 -3.3,-17.9 -4.9,-26.8 -8.2,-44.7 -0.3,-1.5 -1.5,-2.6 -3.2,-3.4 -1.6,-0.8 -3.6,-1.2 -5.7,-0.8 -12.5,2 -18.8,2.8 -31.4,3.8 -2.3,0.2 -4.1,1 -5.5,2.2 -1.4,1.2 -2.1,2.5 -2,4 1.1,18.1 1.6,27.2 2.7,45.4 0.1,1.6 1,2.9 2.8,3.8 z"
             id="path942"
             style="fill:#ffffff" />
        </g>
      </g>
    </g>
  </g>
</svg>
