<svg xmlns="http://www.w3.org/2000/svg" width="250" height="250" xmlns:v="https://vecta.io/nano"><circle cx="125" cy="125" r="125" fill="#fbdf62"/><path d="M121.402 210.952l-5.966-2.212c-16.373-6.634-31.095-17.282-43.272-31.298-11.397-13.118-20.705-29.568-24.899-44.004-1.152-3.966-2.465-12.164-2.965-18.524-.337-4.285-.398-10.271-.14-13.826.844-11.631 3.643-21.277 8.667-29.863 9.602-16.411 27.387-27.629 50.24-31.691 8.377-1.489 15.427-1.845 25.382-1.282 20.099 1.137 36.626 5.976 49.145 14.391 14.72 9.894 23.875 24.746 26.763 43.419.988 6.386 1.192 13.617.574 20.315-.55 5.96-1.751 12.274-3.063 16.105-2.491 7.272-6.588 16.062-11.021 23.646-7.99 13.668-17.957 25.791-28.9 35.153-8.79 7.52-18.361 13.413-28.092 17.298-3.17 1.265-7.335 2.668-9.661 3.252-.073.018-1.329-.377-2.792-.878zm4.717-9.219c16.957-4.909 33.247-16.344 46.472-32.621 13.092-16.114 22.052-35.985 24.318-53.931.415-3.286.527-5.13.527-8.641-.004-5.082-.402-8.567-1.467-12.754-1.3-5.111-3.608-9.829-7.202-14.721-1.851-2.519-4.571-5.397-6.743-7.134-4.716-3.77-9.992-5.891-15.897-6.389-1.754-.148-5.219-.059-7.014.181-7.398.987-15.103 4.109-22.866 9.265-3.909 2.596-7.511 5.48-10.615 8.501-.712.693-1.299 1.198-1.339 1.152a25.17 25.17 0 0 1-.501-.657c-.637-.853-2.907-3.079-4.473-4.385-7.092-5.917-15.954-10.615-23.811-12.622-3.717-.95-6.611-1.337-10.002-1.338-3.633-.004-6.666.485-9.889 1.585-5.797 1.979-10.813 5.802-15.156 11.554-2.067 2.737-3.736 5.576-4.546 7.733-4.276 11.385-5.359 23.439-3.239 36.066 3.727 22.2 17.472 44.551 37.527 61.022 8.534 7.009 17.874 12.558 27.564 16.377 1.767.696 6.271 2.241 6.534 2.241.084 0 .902-.217 1.817-.482zm-1.781-5.7c-.371-2.058-.391-4.585-.052-6.536.236-1.356.326-1.64.521-1.64.213 0 .247.23.376 2.544.129 2.32.004 4.691-.328 6.208-.026.12-.11.199-.21.199-.139 0-.189-.126-.306-.775zm-5.669-1.056c-.17-.17.051-2.41.396-4.014.268-1.245.743-2.669 1.251-3.748.247-.524.472-.952.501-.951s.106.035.172.077c.1.063.095.243-.026 1.084-.35 2.43-.977 4.953-1.661 6.693-.33.839-.467 1.025-.633.86zm11.729-.357c-.59-1.328-1.246-3.692-1.637-5.895-.279-1.575-.327-2.42-.137-2.42.333 0 1.471 2.954 1.854 4.812.221 1.072.474 3.162.434 3.58-.045.466-.289.429-.515-.078zm-17.745-1.808c-.136-.076-.134-.131.03-.724.685-2.475 2.219-5.337 3.904-7.285.046-.053.123-.035.203.045.114.114.066.289-.4 1.449-.926 2.306-2.14 4.613-3.159 6.006-.35.478-.46.575-.579.509zm23.295-.989c-1.093-1.649-2.097-3.621-2.94-5.776-.441-1.129-.449-1.164-.266-1.234.134-.052.58.429 1.263 1.36.548.748 1.336 2.142 1.812 3.204.533 1.19 1.18 3.119 1.109 3.305-.115.299-.342.099-.977-.858zm-28.41-2.317c-.101-.122-.089-.228.081-.697.767-2.12 2.574-5.017 4.011-6.43.47-.462.586-.537.672-.434.125.151-.109.7-1.006 2.362-1.025 1.899-2.291 3.795-3.34 5-.268.308-.31.328-.418.199zm33.671-.607c-1.141-1.368-2.411-3.386-3.505-5.57-.605-1.207-.645-1.322-.497-1.402.133-.071.242-.005.607.374 1.176 1.217 2.237 2.718 3.113 4.405.613 1.18 1.202 2.621 1.123 2.748-.121.196-.331.057-.842-.555zm-38.663-1.769c-.142-.106-.129-.174.188-.956.937-2.318 2.268-4.466 3.776-6.095.508-.549.616-.626.762-.548.16.085.12.191-.622 1.661-1.129 2.237-2.452 4.296-3.703 5.76-.215.252-.27.276-.402.177zm43.71-.539c-1.105-1.31-2.4-3.37-3.506-5.578-.541-1.08-.644-1.35-.556-1.455s.188-.051.633.384c1.451 1.421 3.045 3.94 3.959 6.255.308.78.327.911.141.982-.087.034-.313-.164-.671-.589zm-48.985-3.228c-.061-.022-.111-.109-.111-.193 0-.276 1.19-2.534 1.878-3.564 1.465-2.193 3.44-4.205 3.44-3.503 0 .057-.242.541-.538 1.076-1.437 2.597-4.259 6.335-4.669 6.184zm54.21-.621c-1.214-1.271-2.967-3.786-4.102-5.885-.368-.681-.398-.776-.273-.879s.249-.008.939.675c1.542 1.525 2.679 3.125 3.732 5.248.558 1.124.613 1.282.496 1.4s-.207.055-.792-.558zm-59.462-3.35c-.088-.106-.032-.252.305-.792 1.402-2.25 3.206-4.243 4.998-5.524.494-.353.576-.385.691-.269s.022.276-.791 1.364c-1.229 1.644-2.747 3.352-3.879 4.365-1.088.974-1.178 1.032-1.324.855zm64.475-.561c-1.01-.883-2.211-2.142-3.212-3.368-1.564-1.916-2.091-2.762-1.72-2.762.202 0 1.47 1.005 2.381 1.888 1.383 1.34 2.582 2.852 3.427 4.322.179.312.209.429.127.51-.058.058-.129.105-.157.105s-.41-.312-.846-.694zm-68.905-3.515c-.086-.104-.027-.247.309-.753 1.269-1.91 3.215-3.89 5.027-5.118.73-.495.882-.566.998-.469.123.102.112.149-.101.435-1.373 1.844-4.263 4.75-5.721 5.753-.347.239-.422.261-.513.151zm73.475-.405c-1.032-.791-2.388-2.056-3.415-3.185-1.445-1.589-2.2-2.543-2.139-2.702.028-.074.088-.134.132-.134.137 0 1.447.887 2.097 1.42 1.655 1.357 4.334 4.509 4.179 4.915-.082.215-.24.156-.853-.313zm-77.996-4.204c-.281-.338 2.386-3.509 4.21-5.005 1.007-.826 1.997-1.44 2.138-1.323.159.132.111.21-.847 1.365-1.075 1.296-3.122 3.357-4.19 4.216s-1.169.917-1.31.747zm82.691-.239c-1.717-1.299-3.939-3.531-5.399-5.424-.342-.443-.374-.522-.262-.635s.236-.056.984.453c1.837 1.249 3.64 3.075 5.021 5.084.347.505.429.684.353.776-.137.165-.151.16-.697-.253zm-44.661-11.459l-3.763-10.999c-.011-.129 7.461-10.751 7.565-10.754.057-.004 6.872 10.642 6.858 10.71-.081.378-6.821 21.899-6.858 21.899-.029 0-1.74-4.885-3.802-10.856zm-42.785 7.088c-.068-.176.405-.758 1.513-1.864 1.492-1.488 3.019-2.628 4.611-3.445.675-.346.805-.387.87-.271.095.17-.18.494-1.403 1.644-1.591 1.497-3.289 2.827-4.669 3.657-.747.449-.846.479-.923.278zm91.968-.272c-1.613-.984-3.307-2.329-5.119-4.066-.937-.898-1.072-1.062-.994-1.208.086-.161.12-.154.726.151a18.73 18.73 0 0 1 2.746 1.73c1.299.984 3.673 3.401 3.589 3.653-.067.2-.296.137-.948-.26zm-96.174-5.411c-.106-.127-.031-.229.625-.851 1.646-1.562 3.322-2.747 5.102-3.609 1.368-.662 1.631-.751 1.699-.572.071.185-.186.442-1.522 1.517-1.438 1.157-3.319 2.417-4.661 3.121-.565.297-1.049.539-1.075.539s-.102-.065-.168-.145zm100.006-.428c-1.71-.898-3.628-2.225-5.492-3.8-.607-.513-.713-.641-.643-.774.08-.15.116-.146.633.064 2.159.877 4.53 2.465 6.179 4.137.448.454.638.709.601.805-.03.077-.085.14-.123.139s-.558-.258-1.155-.571zm-103.598-4.169c-.07-.182.406-.68 1.592-1.668 1.638-1.364 3.839-2.684 5.361-3.214.401-.14.482-.145.548-.038.043.069.056.162.029.205-.126.203-2.506 2.023-3.62 2.766-1.137.759-3.167 1.89-3.654 2.035-.142.042-.216.017-.256-.086zm107.343-.322c-1.898-.958-4.526-2.737-6.11-4.136-.311-.274-.378-.55-.134-.55.325 0 2.117.841 3.275 1.536 1.682 1.01 4.231 3.155 4.113 3.461-.079.207-.161.184-1.144-.312zm-110.269-4.999c-.029-.075-.037-.148-.019-.163a122.76 122.76 0 0 0 .653-.545c1.55-1.299 4.148-2.753 6.01-3.362 1.033-.338 1.173-.363 1.26-.221.095.153-.116.331-1.416 1.194-2.027 1.345-4.295 2.544-5.801 3.067-.58.202-.62.203-.687.03zm112.972-.296c-1.188-.492-1.822-.808-3.102-1.542-.82-.47-2.854-1.785-3.313-2.142-.18-.14-.141-.404.06-.404.324 0 1.932.613 3.12 1.189 1.971.956 4.722 2.87 4.597 3.198-.077.2-.248.162-1.362-.3zm-116.577-5.21c-.151-.151.004-.3.849-.808 1.263-.759 2.926-1.535 4.208-1.962 1.183-.395 2.932-.775 3.16-.688.352.135.078.341-1.474 1.109-1.96.969-3.769 1.69-5.269 2.101-1.145.314-1.37.352-1.474.248zm120.342-.161c-1.706-.452-3.798-1.29-5.914-2.37-.911-.465-1.219-.664-1.219-.788s.064-.166.244-.165c.464.005 1.915.355 3.114.755 2.016.674 5.133 2.324 5.007 2.652-.07.182-.283.168-1.232-.083zm-122.744-4.717c-.073-.19.075-.304 1.292-1.003 1.782-1.022 3.807-1.821 5.571-2.198 1.248-.266 1.462-.276 1.462-.062 0 .443-4.724 2.537-7.118 3.155-1.18.305-1.133.3-1.208.107zm125.082-.114c-1.531-.413-3.274-1.101-5.285-2.089-1.696-.833-1.877-.943-1.798-1.091.063-.118.158-.154.335-.126 1.871.298 3.674.889 5.517 1.811 1.735.867 2.507 1.356 2.468 1.562-.043.223-.192.215-1.237-.067zm-73.858-.909c-.021-.061-.343-1.208-.715-2.548-1.213-4.367-2.361-7.989-3.217-10.148-.469-1.183-1.06-2.358-1.212-2.409-.047-.016-.205.161-.35.392-1.361 2.164-3.62 4.4-6 5.939-3.834 2.479-8.988 4.044-12.303 3.737-5.156-.478-9.287-2.602-12.483-6.418-2.261-2.7-3.938-6.525-4.402-10.042-.457-3.464.401-7.617 2.209-10.688 1.466-2.491 3.766-4.774 6.433-6.384 2.561-1.546 5.639-2.642 8.774-3.123 1.425-.219 4.228-.215 5.451.006 4.627.84 8.394 3.63 11.38 8.428 4.276 6.871 6.831 18.378 6.833 30.777.004 2.547-.005 2.592-.18 2.592-.099 0-.197-.05-.218-.111zm-19.475-10.961c2.48-.54 4.521-1.618 6.301-3.33 1.119-1.076 1.855-2.078 2.539-3.457.911-1.836 1.283-3.433 1.284-5.502.004-2.595-.782-5.049-2.286-7.167-1.101-1.55-2.887-3.075-4.629-3.951-2.046-1.029-4.676-1.543-6.831-1.337-2.403.231-4.322.903-6.268 2.195-.946.628-2.638 2.3-3.276 3.235-.959 1.407-1.683 3.163-2.022 4.907-.208 1.07-.21 3.164-.004 4.251.765 4.02 3.167 7.22 6.779 9.034 1.307.656 2.628 1.054 4.4 1.325.656.1 3.21-.03 4.012-.205zm-3.998-3.905c-1.796-.324-3.374-1.182-4.67-2.539-1.013-1.061-1.616-2.167-1.999-3.666-.242-.948-.222-2.782.041-3.767.769-2.88 3.017-5.1 5.943-5.87a9.28 9.28 0 0 1 4.038-.037c1.678.41 3.456 1.538 4.512 2.861.688.862 1.319 2.163 1.565 3.227.167.724.188 1.016.151 2.103-.061 1.776-.411 2.834-1.419 4.297-1.053 1.528-2.784 2.728-4.658 3.228-.765.204-2.763.298-3.504.164zm2.999-3.711c2.645-.947 3.835-3.862 2.59-6.348-.36-.719-1.276-1.62-2.014-1.981-.63-.308-1.59-.543-2.216-.543-.665 0-1.562.235-2.225.584-1.699.893-2.678 2.756-2.413 4.595.257 1.785 1.622 3.312 3.406 3.813.689.193 2.171.132 2.871-.119zm43.41 14.996c.078-5.722.498-9.95 1.487-14.951 1.381-6.987 3.619-12.604 6.627-16.631.877-1.174 2.68-3.02 3.648-3.735 1.974-1.458 4.037-2.353 6.426-2.788 1.21-.22 4.014-.223 5.451-.005 3.428.518 6.875 1.826 9.569 3.628 1.763 1.18 3.709 3.036 4.809 4.587 1.866 2.631 2.953 5.888 3.136 9.393.198 3.805-1.31 8.376-3.921 11.887-3.114 4.186-7.616 6.655-13.061 7.162-3.974.37-10.028-1.789-14.092-5.026-1.574-1.254-3.538-3.423-4.258-4.703-.115-.204-.25-.357-.301-.34-.143.047-.8 1.331-1.211 2.365-.842 2.12-2.512 7.501-3.782 12.187-.141.519-.201.625-.373.65l-.204.03.05-3.708zm24.001-6.942c3.133-.305 5.786-1.544 7.972-3.723 1.736-1.73 2.869-3.798 3.412-6.227.228-1.021.274-3.395.087-4.512a12.93 12.93 0 0 0-2.021-5.024c-.619-.899-1.966-2.292-2.896-2.994-1.397-1.055-3.622-2.005-5.499-2.348-1.083-.198-3.651-.153-4.758.085-4.9 1.05-8.647 4.615-9.812 9.333-.448 1.815-.486 3.314-.134 5.24.987 5.393 5.679 9.632 11.247 10.162a9.87 9.87 0 0 0 2.402.008zm-2.579-4.067c-3.165-.693-5.686-3.197-6.344-6.302-.067-.318-.123-1.057-.124-1.642-.004-1.69.368-2.947 1.278-4.345 2.784-4.279 8.844-5.006 12.612-1.513 2.732 2.533 3.362 6.618 1.521 9.856-.452.795-1.558 2.007-2.334 2.558-.75.532-1.68.981-2.595 1.252-1.071.318-2.902.38-4.014.136zm2.956-3.52c1.646-.424 2.952-1.73 3.382-3.378.499-1.916-.492-4.053-2.327-5.016-1.903-.999-4.116-.676-5.616.818-1.581 1.576-1.802 3.849-.552 5.701 1.081 1.602 3.184 2.373 5.114 1.876zM59.406 134.152c0-.156.146-.261.762-.545a21.06 21.06 0 0 1 6.284-1.672c1.426-.134 1.61-.125 1.665.083.039.148-.057.214-.632.434-2.28.875-5.302 1.615-7.48 1.834-.574.058-.598.052-.598-.133zm129.222.028c-1.747-.237-3.969-.804-6.115-1.561-.898-.317-1.108-.423-1.108-.561 0-.159.064-.169.975-.146 2.109.053 5.092.791 7.055 1.747.757.368.718.337.648.521-.066.172-.196.172-1.455.005zm-130.94-5.402c-.03-.077-.054-.153-.054-.168s.409-.206.908-.425c2.304-1.008 5.053-1.655 7.046-1.659.73-.004.82.016.82.157 0 .382-4.615 1.747-7.108 2.101-1.202.171-1.545.169-1.613-.007zm132.536.009c-1.767-.261-4.071-.854-5.955-1.532-.888-.32-1.135-.444-1.135-.57 0-.144.086-.161.808-.161 1.986 0 4.955.713 7.102 1.706.567.262.776.403.776.523 0 .138-.067.163-.421.155-.232-.005-.76-.06-1.174-.121zM56.747 122.77c0-.191.086-.235.953-.484 2.094-.602 3.327-.767 5.724-.768 1.903-.004 2.031.01 2.15.172.069.095.096.2.059.234-.095.087-1.474.396-2.726.61-1.647.282-3.419.444-4.852.445l-1.307.004zm132.723.147c-.904-.069-2.966-.386-4.276-.657-1.15-.238-1.352-.304-1.352-.443 0-.256.341-.299 2.393-.298 2.086.004 2.995.11 4.896.588 1.327.334 1.683.48 1.645.677-.026.135-.183.152-1.446.159a35.34 35.34 0 0 1-1.86-.026zm-132.678-5.359c-.439-.045-.833-.117-.876-.159-.182-.181.049-.347.671-.483 2.531-.553 5.387-.631 7.676-.209.487.09.555.126.532.286s-.14.2-1.068.332c-2.244.32-5.131.418-6.935.233zm131.083.007c-.536-.047-1.454-.153-2.038-.237-.962-.138-1.066-.17-1.091-.342s.036-.2.532-.286c2.409-.418 5.512-.32 7.75.245.49.124.608.187.608.325s-.086.186-.399.238c-.659.109-4.317.149-5.362.058zm-131.703-5.398c-1.067-.133-1.196-.171-1.196-.347 0-.134.155-.193.908-.345 1.281-.258 1.377-.271 2.844-.374s3.272-.009 4.46.233c.783.159.927.243.736.426-.339.323-6.028.622-7.751.407zm132.501.028c-.745-.049-2.876-.297-3.015-.35-.072-.028-.131-.119-.131-.203 0-.122.158-.183.776-.302 2.218-.426 5.231-.356 7.578.175.475.107.598.169.598.3 0 .09-.07.185-.155.211-.607.183-3.934.283-5.65.17zm-126.208-4.605c-2.631-.207-4.492-.484-6.108-.909-1.32-.347-1.47-.411-1.47-.626 0-.173.053-.179 1.396-.179 2.403 0 4.817.395 6.669 1.091.609.229.759.321.782.483.027.187-.003.198-.443.185a21.42 21.42 0 0 1-.826-.043zm123.306-.105c-.056-.214.295-.383 1.662-.8 1.864-.57 3.872-.838 5.938-.792 1.173.026 1.241.037 1.241.205 0 .15-.156.222-1.019.469-1.806.516-4.203.881-6.834 1.041-.892.054-.943.048-.987-.121zm-61.394-1.239c-.5-1.857-.475-5.698.051-8.015.108-.474.17-.598.3-.598.203 0 .237.109.35 1.108.186 1.645.09 5-.202 7.056-.081.574-.139.748-.255.77-.109.021-.176-.066-.244-.321zm-61.205-3.246c-3.217-.834-6.955-2.348-6.955-2.817 0-.168.036-.176.508-.121 2.308.271 5.651 1.444 7.445 2.612.39.254.537.4.5.496-.071.185-.173.174-1.498-.17zm121.705.247c-.146-.146-.014-.287.628-.673 1.612-.97 3.673-1.775 5.694-2.226 2.067-.461 2.699-.303 1.443.361-1.544.816-3.982 1.704-6.273 2.283-1.316.333-1.4.348-1.493.255zm-64.088-6.163c-.208-1.703-.283-5.046-.143-6.401.126-1.218.146-1.292.361-1.292.173 0 .238.223.493 1.7.317 1.839.303 4.815-.031 6.453-.13.638-.182.757-.339.78-.175.025-.195-.045-.341-1.241zm7.273.527c-.267-1.328-.364-3.113-.251-4.61.098-1.296.28-2.573.468-3.278.117-.437.393-.463.469-.044.278 1.535.285 4.8.015 7.113-.171 1.466-.192 1.551-.391 1.551-.133 0-.19-.134-.31-.731zm-64.622-.207c-1.688-.683-4.292-2.026-5.563-2.868-1.083-.718-1.21-.828-1.13-.978.086-.161.113-.162.555-.032 2.587.762 5.203 2.106 6.96 3.573.447.373.536.49.454.588-.141.17-.176.162-1.277-.283zm121.35.283c-.117-.306 1.906-1.772 3.706-2.684 1.213-.615 2.384-1.09 3.438-1.396.652-.189.736-.196.807-.071.061.106-.004.209-.256.423-.96.806-3.941 2.424-6.072 3.295-1.379.564-1.555.611-1.624.432zm-68.257-4.501c-.022-.064-.104-.636-.182-1.27-.2-1.624-.272-4.966-.136-6.292.112-1.089.204-1.411.385-1.35.236.079.553 1.808.681 3.706.142 2.115-.183 5.223-.553 5.294-.085.016-.173-.023-.195-.088zm15.956-.671c-.381-2.026-.383-4.643-.005-6.802.212-1.212.297-1.478.463-1.446.191.037.255.31.37 1.571.159 1.746.093 4.127-.174 6.256-.137 1.089-.168 1.196-.347 1.196-.132 0-.187-.14-.306-.775zm-67.721-.445c-1.545-.966-3.354-2.311-4.524-3.364-.96-.864-1.218-1.179-1.137-1.389.043-.113.125-.1.54.083.754.333 2.464 1.374 3.366 2.048 2.006 1.499 3.74 3.4 3.099 3.399-.056 0-.661-.35-1.344-.777zm118.488.645c-.065-.168.418-.745 1.493-1.785 1.351-1.306 3.06-2.506 4.825-3.388.651-.325.735-.347.84-.22s-.007.262-.86 1.083c-1.377 1.326-3.241 2.725-5.259 3.949-.877.532-.963.562-1.04.361zM67.956 88.448c-1.738-1.478-3.873-3.719-4.914-5.158-.412-.57-.454-.665-.34-.779s.217-.067.847.384c1.978 1.415 3.937 3.488 5.117 5.414.299.488.326.574.213.687s-.228.044-.924-.547zm44.593.344c-.333-1.667-.494-5.259-.32-7.182.115-1.276.167-1.503.356-1.552.136-.035.185.053.303.546.555 2.308.621 5.213.174 7.656-.117.638-.171.776-.303.776-.105 0-.178-.085-.21-.244zm23.976-.177c-.234-1.038-.294-1.586-.339-3.08-.051-1.693.088-3.353.4-4.786.134-.618.177-.705.329-.678.096.017.181.037.189.044s.064.413.126.9c.137 1.08.137 4.336 0 5.672-.197 1.927-.278 2.349-.452 2.349-.116 0-.183-.111-.253-.421zm44.073.298c-.107-.278 1.322-2.274 2.541-3.548.882-.923 1.979-1.879 2.949-2.571.484-.346.617-.404.723-.316.374.311-2.724 3.833-5.224 5.938-.754.635-.907.712-.989.498zm-73.103-3.055c-.026-.042-.111-.57-.19-1.174-.192-1.469-.271-5.259-.137-6.538.117-1.113.153-1.252.331-1.252s.255.252.49 1.56c.179.994.205 1.432.206 3.359 0 2.108-.084 3.029-.363 3.966-.048.162-.255.211-.336.079zm34.215.007c-.107-.173-.33-1.65-.417-2.765-.178-2.265.274-6.207.711-6.207.191 0 .231.167.369 1.578.167 1.696-.045 6.386-.329 7.307-.049.158-.257.211-.334.087zm-70.345-.97a39.01 39.01 0 0 1-3.043-3.876c-.648-.97-1.561-2.591-1.561-2.772 0-.273.305-.156.812.311 1.424 1.313 3.19 3.691 4.064 5.473.733 1.493.628 1.826-.272.864zm106.065.536c-.122-.122-.044-.367.427-1.342.874-1.808 1.999-3.377 3.601-5.022.904-.929 1.051-1.046 1.175-.943s.102.197-.27.918c-.816 1.58-2.541 3.979-4.173 5.806-.571.639-.646.697-.759.583zm-74.235-2.134c-.503-1.891-.937-6.433-.766-8.021.054-.5.091-.598.228-.598.168 0 .233.166.573 1.462.478 1.819.704 4.851.492 6.584-.096.781-.133.905-.275.905-.115 0-.19-.1-.252-.332zm42.67.133c-.123-.391-.16-3.742-.051-4.684.115-1.001.443-2.646.697-3.492.122-.407.203-.538.344-.559.174-.025.188.027.246.931.105 1.63-.19 4.779-.664 7.083l-.175.886c0 .019-.075.035-.167.035s-.194-.085-.23-.199zm-70.27-1.201c-1.218-1.737-2.756-4.581-3.373-6.24-.363-.975-.369-1.008-.191-1.076.17-.065.769.618 1.544 1.759 1.129 1.663 2 3.415 2.526 5.081.265.84.284 1.039.102 1.109-.088.034-.283-.168-.609-.633zm97.677.592c-.131-.073-.129-.135.032-.714.571-2.059 1.868-4.534 3.417-6.521.589-.755.617-.777.808-.656.09.057.064.212-.122.73-.596 1.661-1.731 3.85-3.021 5.829-.902 1.384-.94 1.43-1.115 1.332zM97.93 81.258c-.081-.133-.406-1.781-.58-2.947-.234-1.56-.362-3.085-.364-4.31s.055-1.54.272-1.54c.176 0 .356.505.694 1.95.436 1.865.612 4.456.421 6.226-.063.583-.099.687-.239.687-.091 0-.183-.03-.205-.067zm53.263-.222c-.029-.158-.078-.906-.11-1.662-.083-2.01.241-4.428.861-6.436.142-.459.197-.542.338-.505.454.119.262 4.021-.359 7.295-.268 1.414-.327 1.595-.514 1.595-.115 0-.18-.086-.217-.288zm-71.965-1.679c-.936-1.897-1.489-3.252-1.95-4.775-.406-1.339-.477-1.812-.284-1.886.28-.107 1.589 2.197 2.383 4.196.752 1.891 1.195 4.072.842 4.145-.112.023-.346-.373-.991-1.681zm89.873 1.64c-.065-.105.163-1.33.428-2.302a20.34 20.34 0 0 1 1.425-3.639c.48-.944 1.366-2.418 1.453-2.416.025.004.103.037.173.082.108.068.083.247-.161 1.171-.466 1.767-1.341 3.951-2.39 5.968-.541 1.041-.795 1.351-.928 1.135zm-75.923-1.343c-.72-2.427-1.191-4.996-1.301-7.112-.057-1.083-.053-1.118.128-1.165.162-.042.217.032.424.575.886 2.32 1.413 5.393 1.297 7.57-.028.533-.061.641-.203.678s-.196-.047-.344-.545zm62.744.518c-.193-.119-.171-2.549.035-3.896.197-1.293.665-3.121 1.058-4.135.249-.642.336-.782.471-.757.091.017.182.046.202.066.072.07-.182 2.839-.352 3.838-.317 1.852-1.023 4.708-1.21 4.895-.039.039-.13.034-.203-.011zm-71.539-.516c-.369-.845-.869-2.139-1.214-3.14-.615-1.785-1.262-4.645-1.129-4.992.119-.31.33-.068.834.959 1.035 2.109 1.748 4.436 1.92 6.271l.095.898c.034.269.01.33-.142.37s-.215-.026-.363-.366zm80.38.359c-.191-.04-.193-.166-.021-1.475.157-1.196.521-2.662.97-3.906.358-.993 1.418-3.236 1.528-3.234a.57.57 0 0 1 .189.076c.097.062.093.219-.025.907-.319 1.863-.852 3.69-1.704 5.84-.694 1.752-.737 1.835-.937 1.792zm-76.449-.751c-.766-2.634-1.257-5.471-1.257-7.26 0-.887.095-1.136.318-.832.203.278.9 2.545 1.132 3.682.264 1.292.411 2.626.411 3.721 0 .999-.066 1.331-.264 1.331-.114 0-.201-.165-.34-.643zm72.305-.632a18.68 18.68 0 0 1 .527-4.442c.232-.959.896-3.004 1.013-3.121.026-.026.115-.021.197.011.135.052.145.181.095 1.274-.066 1.448-.304 3.034-.727 4.85-.486 2.089-.677 2.654-.91 2.687-.195.028-.196.019-.196-1.258z"/></svg>