<?xml version="1.0" encoding="UTF-8" standalone="no"?>
<svg
   xmlns:dc="http://purl.org/dc/elements/1.1/"
   xmlns:cc="http://creativecommons.org/ns#"
   xmlns:rdf="http://www.w3.org/1999/02/22-rdf-syntax-ns#"
   xmlns:svg="http://www.w3.org/2000/svg"
   xmlns="http://www.w3.org/2000/svg"
   xmlns:sodipodi="http://sodipodi.sourceforge.net/DTD/sodipodi-0.dtd"
   xmlns:inkscape="http://www.inkscape.org/namespaces/inkscape"
   width="216.00002"
   height="216"
   version="1.1"
   id="svg40"
   sodipodi:docname="INJ_ERC20.svg"
   inkscape:version="1.0.2-2 (e86c870879, 2021-01-15)">
  <metadata
     id="metadata46">
    <rdf:RDF>
      <cc:Work
         rdf:about="">
        <dc:format>image/svg+xml</dc:format>
        <dc:type
           rdf:resource="http://purl.org/dc/dcmitype/StillImage" />
      </cc:Work>
    </rdf:RDF>
  </metadata>
  <defs
     id="defs44" />
  <sodipodi:namedview
     pagecolor="#ffffff"
     bordercolor="#666666"
     borderopacity="1"
     objecttolerance="10"
     gridtolerance="10"
     guidetolerance="10"
     inkscape:pageopacity="0"
     inkscape:pageshadow="2"
     inkscape:window-width="1920"
     inkscape:window-height="1017"
     id="namedview42"
     showgrid="false"
     inkscape:zoom="3.3203125"
     inkscape:cx="108"
     inkscape:cy="108"
     inkscape:window-x="-8"
     inkscape:window-y="-8"
     inkscape:window-maximized="1"
     inkscape:current-layer="svg40" />
  <linearGradient
     id="A"
     gradientUnits="userSpaceOnUse"
     x1="7.665"
     y1="36.23"
     x2="22.643999"
     y2="10.283">
    <stop
       offset="0"
       stop-color="#174e5b"
       id="stop2" />
    <stop
       offset=".07"
       stop-color="#195a6c"
       id="stop4" />
    <stop
       offset=".21"
       stop-color="#1e779a"
       id="stop6" />
    <stop
       offset=".4"
       stop-color="#27a7e3"
       id="stop8" />
    <stop
       offset=".47"
       stop-color="#2abaff"
       id="stop10" />
    <stop
       offset=".7"
       stop-color="#1ddaf0"
       id="stop12" />
    <stop
       offset="1"
       stop-color="#0effe0"
       id="stop14" />
  </linearGradient>
  <linearGradient
     id="B"
     gradientUnits="userSpaceOnUse"
     x1="33.338001"
     y1="3.7709999"
     x2="18.357"
     y2="29.715">
    <stop
       offset="0"
       stop-color="#174e5b"
       id="stop17" />
    <stop
       offset=".07"
       stop-color="#195a6c"
       id="stop19" />
    <stop
       offset=".21"
       stop-color="#1e779a"
       id="stop21" />
    <stop
       offset=".4"
       stop-color="#27a7e3"
       id="stop23" />
    <stop
       offset=".47"
       stop-color="#2abaff"
       id="stop25" />
    <stop
       offset=".7"
       stop-color="#1ddaf0"
       id="stop27" />
    <stop
       offset="1"
       stop-color="#0effe0"
       id="stop29" />
  </linearGradient>
  <g
     transform="matrix(5.262792,0,0,5.429102,-0.15036549,-0.58204207)"
     id="g38">
    <path
       d="M 25.9,38.9 C 25.8,38.8 25.7,38.7 25.6,38.7 23.3,38.2 21,37.4 19,36.2 14.8,33.7 12,30 11.9,25.7 c 0,-1.6 0.3,-3.2 1,-4.7 0.4,-1 2.8,-4.4 3.1,-5 1.6,-2.5 1.1,-2.3 -1.2,-5.4 L 11.6,5.9 9.5,2.7 C 8.3,3.5 7.1,4.5 6,5.5 c -2.2,2.2 -3.9,5 -4.9,8 -1,3 -1.3,6.2 -0.9,9.3 0.4,3.1 1.6,6.1 3.4,8.7 1.8,2.6 4.2,4.8 6.9,6.3 C 3.4,32.6 0.1,24.7 2.8,16.8 3.5,14.7 4.6,12.7 6,10.9 l 2.3,3.4 c 0.1,0.2 0.2,0.4 0.2,0.7 0,0.2 -0.1,0.5 -0.2,0.7 -1.1,1.4 -2,2.9 -2.6,4.6 -3,8.7 5.1,17.7 13.6,19.2 1.6,0.3 4.6,0.6 6.2,0.2 0.1,0 0.2,-0.1 0.2,-0.1 0.1,-0.1 0.1,-0.1 0.1,-0.2 v -0.3 c 0.2,0 0.2,-0.1 0.1,-0.2 z"
       fill="url(#A)"
       id="path34"
       style="fill:url(#A)" />
    <path
       d="m 15.1,1.1 c 0.1,0.1 0.2,0.2 0.3,0.2 2.3,0.5 4.6,1.3 6.6,2.5 4.2,2.5 7,6.2 7.1,10.5 0,1.6 -0.3,3.2 -1,4.7 -0.4,1 -2.8,4.4 -3.1,5 -1.6,2.5 -1.1,2.3 1.2,5.4 l 3.2,4.7 2.2,3.2 c 1.2,-0.8 2.4,-1.8 3.5,-2.8 2.2,-2.2 3.9,-5 4.9,-8 1,-3 1.3,-6.2 0.9,-9.3 -0.4,-3.1 -1.6,-6.1 -3.4,-8.7 -1.8,-2.6 -4.2,-4.8 -6.9,-6.3 7.1,5.2 10.4,13.1 7.6,21 -0.7,2.1 -1.8,4.1 -3.2,5.9 l -2.3,-3.4 c -0.1,-0.2 -0.2,-0.4 -0.2,-0.7 0,-0.2 0.1,-0.5 0.2,-0.7 1.1,-1.4 2,-2.9 2.6,-4.6 C 38.3,11 30.2,2 21.7,0.5 20.1,0.2 17.1,-0.1 15.5,0.3 15.4,0.3 15.3,0.4 15.3,0.4 15.1,0.4 15,0.5 15,0.6 v 0.3 c 0,0 0,0.1 0.1,0.2 z"
       fill="url(#B)"
       id="path36"
       style="fill:url(#B)" />
  </g>
</svg>
