<svg id="INS" xmlns="http://www.w3.org/2000/svg" width="512" height="512" viewBox="0 0 512 512">
  <defs>
    <style>
      .cls-1 {
        fill: #263238;
      }

      .cls-1, .cls-2 {
        fill-rule: evenodd;
      }

      .cls-2 {
        fill: #fff;
      }
    </style>
  </defs>
  <path id="Full" class="cls-1" d="M11,256c0,135.094,109.906,245,245,245S501,391.094,501,256,391.094,11,256,11,11,120.906,11,256Z"/>
  <path id="INS-2" data-name="INS" class="cls-2" d="M156.377,271.028h5.354v6.353l-38.369,10.061h-5.368v-6.353Zm23.4,56.183v5.577h5.628l18.133-19.533v-5.591h-5.627Zm-61.784,61.2V394h5.627l38.11-38.979v-5.591h-5.613Zm114.559-55.622,8.938-19.691v-5.433h-5.757l-8.923,19.705v5.419h5.742ZM203.5,162.557v-5.519L176.569,118h-5.642v5.52l26.942,39.036H203.5ZM170.927,388.468v5.519h5.757l26.927-39.037v-5.519h-5.757Zm-52.861-163.85V231l38.383,10.061H161.8v-6.353l-38.369-10.061Zm0-106.588v5.591l38.052,38.936h5.613v-5.606l-38.11-38.964Zm0,217.445v5.75h5.541l38.124-27.869v-5.749H156.2Zm214.828-48.421v-5.749l-19-10.191h-5.469v5.749l19,10.191h5.469Zm0-56.212v-5.749h-5.469l-19,10.19v5.749H313.9Zm-106.14-51.584v5.419l8.937,19.647h5.757v-5.433l-8.9-19.633h-5.8Zm105.435,5.577v-5.577h-5.627l-18.134,19.533v5.591h5.627Zm-53.682,47.6H270.03V240.9h8.477v-8.466Zm-36.613-69.88V157.21l-9.369-39.223h-6.376v5.332l9.369,39.238h6.376Zm28.582,145.165v5.432l8.938,19.691h5.756v-5.418l-8.923-19.705h-5.771Zm14.738-128.464h-5.757l-8.938,19.691v5.433h5.757l8.923-19.705Zm-167.22-8.393v5.748l38.21,27.711h5.527v-5.749l-38.2-27.71h-5.541Zm232.242,136.8v5.749l38.2,27.768H394v-5.749l-38.2-27.768h-5.57ZM308.5,157.038v5.519h5.756l26.928-39.036V118h-5.757Zm41.736,192.393v5.591L388.346,394H394V388.41l-38.153-38.979h-5.613Zm-41.736,0v5.519l26.927,39.037h5.757v-5.519L314.17,349.431H308.5Zm23.718-16.643v-5.577l-18.134-19.547h-5.628v5.591l18.134,19.533h5.628Zm56.128-214.8-38.11,38.964v5.606h5.613L394,123.578v-5.591h-5.656Zm-38.11,80.645v5.75h5.527L394,176.556v-5.749h-5.526Zm0,35.932v6.353h5.354L394,231v-6.353h-5.354Zm0,36.421v6.353L388.605,287.4H394v-6.353l-38.369-10.061h-5.4ZM226.149,388.669V394h6.376l9.369-39.223v-5.347h-6.376ZM179.073,281.218v5.749h5.469l19-10.19v-5.749H198.07Zm0.7-102.046v5.576L197.912,204.3h5.627v-5.562l-18.133-19.475Zm53.668,100.307h8.477v-8.465h-8.477v8.465Zm-54.373-54.473v5.75l19,10.19h5.469V235.2l-19-10.191h-5.469Zm91,124.425v5.347L279.442,394h6.376v-5.332l-9.369-39.238h-6.376Zm0-192.221v5.347h6.376l9.369-39.238v-5.332h-6.376Zm-36.627,83.736h8.477v-8.509h-8.477v8.509Zm45.061,30.1H270.03v8.466h8.477v-8.466Z"/>
</svg>
