<?xml version="1.0" encoding="utf-8"?>
<!-- Generator: Adobe Illustrator 22.0.0, SVG Export Plug-In . SVG Version: 6.00 Build 0)  -->
<svg version="1.1" id="INS" xmlns="http://www.w3.org/2000/svg" xmlns:xlink="http://www.w3.org/1999/xlink" x="0px" y="0px"
	 viewBox="0 0 490 490" style="enable-background:new 0 0 490 490;" xml:space="preserve">
<style type="text/css">
	.st0{fill:#263238;}
	.st1{fill:#FFFFFF;}
</style>
<path id="Full" class="st0" d="M0,245c0,135.1,109.9,245,245,245s245-109.9,245-245S380.1,0,245,0S0,109.9,0,245z"/>
<path id="INS-2" class="st1" d="M145.4,260h5.4v6.4l-38.4,10.1H107v-6.4L145.4,260z M168.8,316.2v5.6h5.6l18.1-19.5v-5.6h-5.6
	L168.8,316.2z M107,377.4v5.6h5.6l38.1-39v-5.6h-5.6L107,377.4z M221.6,321.8l8.9-19.7v-5.4h-5.8l-8.9,19.7v5.4L221.6,321.8
	L221.6,321.8z M192.5,151.6V146l-26.9-39h-5.6v5.5l26.9,39L192.5,151.6L192.5,151.6z M159.9,377.5v5.5h5.8l26.9-39v-5.5h-5.8
	L159.9,377.5z M107.1,213.6v6.4l38.4,10.1h5.4v-6.4l-38.4-10.1L107.1,213.6z M107.1,107v5.6l38.1,38.9h5.6V146l-38.1-39L107.1,107z
	 M107.1,324.5v5.8h5.5l38.1-27.9v-5.7h-5.5L107.1,324.5z M321.9,276.1v-5.7l-19-10.2h-5.5v5.7l19,10.2H321.9z M321.9,219.8v-5.7
	h-5.5l-19,10.2v5.7h5.5L321.9,219.8z M215.8,168.3v5.4l8.9,19.6h5.8v-5.4l-8.9-19.6L215.8,168.3L215.8,168.3z M321.2,173.8v-5.6
	h-5.6l-18.1,19.5v5.6h5.6L321.2,173.8z M267.5,221.4H259v8.5h8.5L267.5,221.4L267.5,221.4z M230.9,151.6v-5.3l-9.4-39.2h-6.4v5.3
	l9.4,39.2L230.9,151.6L230.9,151.6z M259.5,296.7v5.4l8.9,19.7h5.8v-5.4l-8.9-19.7L259.5,296.7L259.5,296.7z M274.2,168.3h-5.8
	l-8.9,19.7v5.4h5.8l8.9-19.7L274.2,168.3z M107,159.9v5.7l38.2,27.7h5.5v-5.7l-38.2-27.7L107,159.9L107,159.9z M339.2,296.7v5.7
	l38.2,27.8h5.6v-5.7l-38.2-27.8H339.2L339.2,296.7z M297.5,146v5.5h5.8l26.9-39V107h-5.8L297.5,146z M339.2,338.4v5.6l38.1,39h5.7
	v-5.6l-38.2-39H339.2L339.2,338.4z M297.5,338.4v5.5l26.9,39h5.8v-5.5l-27-39H297.5z M321.2,321.8v-5.6l-18.1-19.5h-5.6v5.6
	l18.1,19.5H321.2z M377.3,107l-38.1,39v5.6h5.6l38.2-39V107L377.3,107L377.3,107z M339.2,187.6v5.8h5.5l38.2-27.8v-5.7h-5.5
	L339.2,187.6z M339.2,223.6v6.4h5.4L383,220v-6.4h-5.4L339.2,223.6z M339.2,260v6.4l38.4,10.1h5.4V270L344.6,260H339.2L339.2,260z
	 M215.1,377.7v5.3h6.4l9.4-39.2v-5.3h-6.4L215.1,377.7z M168.1,270.2v5.7h5.5l19-10.2V260h-5.5L168.1,270.2z M168.8,168.2v5.6
	l18.1,19.6h5.6v-5.6l-18.1-19.5L168.8,168.2z M222.4,268.5h8.5V260h-8.5V268.5z M168.1,214v5.8l19,10.2h5.5v-5.7l-19-10.2L168.1,214
	L168.1,214z M259.1,338.4v5.3l9.4,39.2h6.4v-5.3l-9.4-39.2L259.1,338.4L259.1,338.4z M259.1,146.2v5.3h6.4l9.4-39.2V107h-6.4
	L259.1,146.2z M222.4,229.9h8.5v-8.5h-8.5V229.9z M267.5,260H259v8.5h8.5L267.5,260L267.5,260z"/>
</svg>
