<?xml version="1.0" encoding="utf-8"?>
<!-- Generator: Adobe Illustrator 22.0.0, SVG Export Plug-In . SVG Version: 6.00 Build 0)  -->
<svg version="1.1" id="IOST" xmlns="http://www.w3.org/2000/svg" xmlns:xlink="http://www.w3.org/1999/xlink" x="0px" y="0px"
	 viewBox="0 0 245 245" style="enable-background:new 0 0 245 245;" xml:space="preserve">
<style type="text/css">
	.st0{fill:#FFFFFF;}
</style>
<path id="Main" d="M0,122.5C0,190,55,245,122.5,245S245,190,245,122.5S190,0,122.5,0S0,55,0,122.5z"/>
<path id="IOST-2" class="st0" d="M122.5,212.1L199,167V79.1L122.5,35L46,79.1V167L122.5,212.1z M65.5,98l58-34L179,95.5l-15,9
	L123.5,81l-29,17l16.5,9l8.5-4.5l13.5,8l-8,4.5l9,5.5l7-4.5l14,8.5l-6.5,4L182,148l-58.5,34L63,147.5V130l60.5,35l29-17l-19-11
	l-7.5,4.5l-14-8l7.5-4.5l-9.5-5.5l-6,3.5l-13-8l5.5-3.5L65.5,98z"/>
</svg>
