<svg id="IOST" xmlns="http://www.w3.org/2000/svg" width="256" height="256" viewBox="0 0 512 512">
<defs>
    <style>
      .cls-1, .cls-2 {
        fill-rule: evenodd;
      }

      .cls-2 {
        fill: #fff;
      }
    </style>
  </defs>
  <path id="Main" class="cls-1" d="M11,256c0,135.094,109.906,245,245,245S501,391.094,501,256,391.094,11,256,11,11,120.906,11,256Z"/>
  <path id="IOST-2" data-name="IOST" class="cls-2" d="M256,435.188l153-90.126V169.27L256,81,103,169.27V345.062ZM142,207l116-68,111,63-30,18-81-47-58,34,33,18,17-9,27,16-16,9,18,11,14-9,28,17-13,8,67,39L258,375,137,306V271l121,70,58-34-38-22-15,9-28-16,15-9-19-11-12,7-26-16,11-7Z"/>
</svg>
