<svg xmlns="http://www.w3.org/2000/svg" width="256" height="256" xmlns:v="https://vecta.io/nano"><circle cx="128" cy="128" r="118" fill="#fff" paint-order="stroke fill markers"/><path d="M167.726 47.359c6.41 0 11.62-5.467 11.62-12.184S174.137 23 167.726 23c-6.41.035-11.62 5.493-11.62 12.21s5.209 12.149 11.62 12.149zm3.428 31.657c5.475-.043 9.88-4.662 9.838-10.317h0c0-5.675-4.402-10.318-9.838-10.318s-9.838 4.608-9.838 10.318 4.394 10.317 9.838 10.317zm27.011 4.035c5.411 0 9.813-4.608 9.813-10.292s-4.402-10.292-9.813-10.292-9.813 4.608-9.813 10.292 4.411 10.292 9.813 10.292zm-3.243 27.084c4.638 0 8.393-3.94 8.393-8.791s-3.756-8.791-8.393-8.791-8.393 3.94-8.393 8.791 3.756 8.791 8.393 8.791zm21.626 8.782c4.671 0 8.452-3.966 8.452-8.852s-3.781-8.852-8.452-8.852c-2.257.016-4.416.958-6.001 2.618s-2.467 3.902-2.451 6.234h0c0 4.886 3.789 8.852 8.452 8.852zm-48.805-12.444c2.295-.014 4.491-.969 6.104-2.655s2.512-3.965 2.499-6.336h0v-.017c0-4.972-3.84-9.008-8.603-9.008s-8.603 4.027-8.603 9.008c0 4.946 3.848 9.008 8.603 9.008zm-7.797 21.547c3.991 0 7.209-3.384 7.209-7.541.033-4.131-3.183-7.507-7.183-7.541h-.026c-3.991 0-7.209 3.384-7.209 7.541s3.218 7.541 7.209 7.541zm27.053 3.81c1.909-.014 3.735-.81 5.076-2.214s2.087-3.301 2.074-5.273h0v-.018c0-4.148-3.193-7.506-7.15-7.506s-7.15 3.358-7.15 7.506c-.025 1.965.708 3.86 2.035 5.268s3.143 2.213 5.045 2.238zm21.567 8.747c3.991 0 7.209-3.384 7.209-7.567s-3.218-7.567-7.209-7.567-7.209 3.384-7.209 7.567c-.042 4.136 3.17 7.524 7.174 7.567zm-10.653 16.349c3.369 0 6.091-2.872 6.091-6.378s-2.722-6.378-6.091-6.378-6.091 2.872-6.091 6.378 2.722 6.378 6.091 6.378zm-21.668-8.609c3.428 0 6.234-2.933 6.234-6.535s-2.781-6.535-6.234-6.535-6.234 2.933-6.234 6.535 2.806 6.535 6.234 6.535zm-27.02-3.992c3.422-.055 6.168-2.935 6.17-6.47s-2.74-6.418-6.162-6.478h-.008c-3.422.055-6.168 2.935-6.17 6.47s2.74 6.418 6.162 6.478zm15.022 15.36c2.983 0 5.377-2.534 5.377-5.615.028-3.072-2.36-5.586-5.334-5.615h-.043c-2.983 0-5.377 2.534-5.377 5.615-.033 3.067 2.348 5.581 5.317 5.615zm21.66 8.756c2.983 0 5.436-2.534 5.436-5.675s-2.42-5.675-5.436-5.675c-3.035 0-5.495 2.541-5.495 5.675s2.46 5.675 5.495 5.675zm-12.199 6.569c2.361 0 4.285-2.013 4.285-4.487.014-2.46-1.903-4.467-4.285-4.487-2.361 0-4.285 2.013-4.285 4.487-.005 2.456 1.907 4.458 4.285 4.487zm-11.561 3.523c1.034-.007 2.023-.437 2.749-1.197s1.131-1.786 1.124-2.854v-.01c0-2.256-1.748-4.061-3.873-4.061-1.034.007-2.023.437-2.749 1.197s-1.131 1.786-1.124 2.854v.01c-.037 2.204 1.663 4.022 3.797 4.06zm-10.124-11.681c2.546 0 4.613-2.169 4.613-4.825s-2.067-4.825-4.613-4.825-4.613 2.169-4.613 4.825c-.005 2.643 2.053 4.797 4.613 4.825zm-14.854-11.064c2.957 0 5.377-2.499 5.377-5.615s-2.394-5.615-5.377-5.615c-2.957 0-5.377 2.499-5.377 5.615-.005 3.079 2.396 5.586 5.377 5.615zm44.05 70.344c6.385 0 11.561-5.432 11.561-12.123s-5.175-12.123-11.561-12.123-11.561 5.432-11.561 12.123 5.175 12.123 11.561 12.123zm-29.364-15.343c5.318 0 9.637-4.521 9.637-10.101s-4.318-10.101-9.637-10.101-9.637 4.521-9.637 10.101 4.31 10.101 9.637 10.101zm-16.778 22.207c5.377 0 9.721-4.547 9.721-10.197 0-5.615-4.344-10.197-9.721-10.197s-9.721 4.547-9.721 10.197c-.042 5.588 4.31 10.153 9.72 10.197zm-5.049-40.917c2.251-.016 4.403-.955 5.983-2.61s2.459-3.891 2.444-6.215h0c.016-2.325-.863-4.56-2.444-6.215s-3.733-2.594-5.983-2.61h0c-2.251.016-4.403.955-5.983 2.61s-2.459 3.891-2.444 6.215h0c.008 4.86 3.789 8.826 8.427 8.826zm-16.736 22.511c4.638 0 8.393-3.94 8.393-8.791s-3.756-8.791-8.393-8.791-8.393 3.94-8.393 8.791c-.046 4.807 3.688 8.742 8.342 8.791zm-18.038 15.273c4.638 0 8.368-3.94 8.368-8.765 0-4.851-3.756-8.765-8.368-8.765-4.638 0-8.368 3.94-8.368 8.765s3.756 8.765 8.368 8.765zm-15.014-19.881c3.97-.038 7.164-3.38 7.15-7.48 0-4.122-3.193-7.48-7.15-7.48-3.957.062-7.133 3.393-7.133 7.48s3.176 7.418 7.133 7.48zm18.072-15.343c3.973-.029 7.173-3.376 7.15-7.48 0-4.148-3.193-7.48-7.15-7.48-3.957.055-7.139 3.38-7.146 7.468s3.164 7.424 7.121 7.493zm16.862-22.502c1.909-.014 3.735-.81 5.076-2.214s2.087-3.301 2.074-5.273h0v-.018c0-4.148-3.193-7.506-7.15-7.506-1.909.014-3.735.81-5.076 2.214s-2.087 3.301-2.074 5.273h0v.018c0 4.148 3.193 7.506 7.15 7.506zm-25.793 3.098c3.428 0 6.209-2.898 6.209-6.5s-2.781-6.5-6.209-6.5-6.209 2.898-6.209 6.5 2.781 6.5 6.209 6.5zm-17.98 15.282c1.64-.009 3.209-.691 4.363-1.895s1.796-2.833 1.787-4.526h0v-.017c.033-3.522-2.705-6.405-6.116-6.439h-.034c-1.64.009-3.209.691-4.363 1.895s-1.796 2.833-1.787 4.526h0v.017c-.011 1.696.63 3.328 1.784 4.535s2.724 1.892 4.366 1.904zm-4.134-17.911c2.951-.024 5.328-2.506 5.318-5.554 0-3.081-2.394-5.554-5.318-5.554s-5.318 2.499-5.318 5.554c0 3.081 2.394 5.554 5.318 5.554zm-.151-15.716c1.219-.011 2.383-.523 3.237-1.421a4.83 4.83 0 0 0 1.316-3.369h0c0-2.629-2.042-4.79-4.554-4.79s-4.554 2.135-4.554 4.79 2.042 4.79 4.554 4.79zm2.504-13.069c2.159 0 3.873-1.831 3.873-4.061s-1.748-4.061-3.873-4.061c-2.159 0-3.873 1.831-3.873 4.061s1.714 4.061 3.873 4.061zm15.501-2.187c2.546 0 4.613-2.169 4.613-4.825s-2.067-4.825-4.613-4.825-4.613 2.169-4.613 4.825c-.009 2.645 2.052 4.801 4.613 4.825zm17.013-6.847c2.957 0 5.377-2.534 5.377-5.615.028-3.072-2.36-5.586-5.334-5.615h-.043c-2.957 0-5.377 2.534-5.377 5.615-.011 1.478.546 2.899 1.55 3.952a5.31 5.31 0 0 0 3.802 1.662zm4.05 17.825c3.369-.007 6.096-2.832 6.092-6.312s-2.736-6.299-6.105-6.299-6.101 2.819-6.105 6.299 2.723 6.305 6.092 6.312zm-20.845 4.747c2.957 0 5.318-2.499 5.318-5.589s-2.394-5.589-5.318-5.589c-1.419.009-2.777.6-3.774 1.643s-1.553 2.453-1.544 3.919v.027c-.02 1.461.522 2.871 1.508 3.919s2.335 1.648 3.749 1.669h.06zm-58.812-8.287c6.352 0 11.527-5.406 11.527-12.062s-5.175-12.062-11.527-12.062S15 130.364 15 137.02s5.175 12.054 11.527 12.054zm26.163-21.539c5.47 0 9.872-4.643 9.872-10.353s-4.436-10.353-9.872-10.353c-5.489.038-9.909 4.665-9.872 10.335v.018c0 5.745 4.436 10.353 9.872 10.353zm-10.208-26.555c5.436 0 9.813-4.608 9.813-10.292s-4.402-10.292-9.813-10.292c-2.62.018-5.126 1.111-6.967 3.038s-2.864 4.53-2.846 7.236v.018c-.056 5.626 4.315 10.234 9.762 10.292zm25.222-12.583c4.638 0 8.427-3.94 8.427-8.826s-3.781-8.826-8.427-8.826-8.427 3.94-8.427 8.826 3.789 8.826 8.427 8.826zm10.309 26.494c4.671 0 8.452-3.966 8.452-8.852s-3.781-8.852-8.452-8.852-8.452 3.966-8.452 8.852 3.781 8.852 8.452 8.852zm22.953-5.502c3.999-.034 7.215-3.409 7.183-7.54h0c.039-2.651-1.294-5.122-3.496-6.482s-4.941-1.404-7.183-.114-3.648 3.718-3.687 6.369v.227h0c-.046 4.117 3.147 7.493 7.132 7.541zm19.828.069c3.428 0 6.209-2.898 6.209-6.474s-2.781-6.474-6.209-6.474c-3.462 0-6.268 2.898-6.268 6.474s2.806 6.474 6.268 6.474zm16.383 3.896c2.865 0 5.234-2.439 5.234-5.467s-2.336-5.467-5.234-5.467c-2.904.023-5.244 2.467-5.234 5.467.034 2.994 2.361 5.467 5.234 5.467zm2.134-19.942c2.53-.019 4.568-2.151 4.554-4.764 0-2.629-2.042-4.764-4.554-4.764s-4.554 2.135-4.554 4.764c-.014 2.614 2.023 4.746 4.554 4.764zm-12.603-6.526c2.896-.007 5.238-2.436 5.235-5.427s-2.352-5.414-5.248-5.414-5.244 2.423-5.248 5.414 2.339 5.42 5.235 5.427zm-16.19-3.957c3.418-.029 6.169-2.909 6.15-6.439 0-3.575-2.747-6.439-6.15-6.439s-6.15 2.898-6.15 6.439c-.013 1.694.625 3.324 1.775 4.532s2.718 1.894 4.358 1.907zm-19.794.026c3.991 0 7.209-3.384 7.209-7.541s-3.218-7.541-7.209-7.541-7.209 3.384-7.209 7.541c-.014 4.134 3.207 7.503 7.209 7.541zM64.066 64.099c4.52 0 8.158-3.818 8.158-8.548s-3.663-8.548-8.158-8.548c-4.52 0-8.158 3.818-8.158 8.548s3.663 8.548 8.158 8.548zm22.945-5.181c3.991 0 7.209-3.384 7.209-7.541s-3.218-7.541-7.209-7.541-7.209 3.384-7.209 7.541 3.218 7.541 7.209 7.541zm19.82.095c3.428 0 6.209-2.898 6.209-6.5s-2.781-6.5-6.209-6.5c-1.656.009-3.24.697-4.404 1.913a6.56 6.56 0 0 0-1.805 4.569h0v.017c-.014 3.562 2.76 6.467 6.209 6.5zm16.266 3.87c2.899 0 5.234-2.439 5.234-5.467s-2.336-5.467-5.234-5.467c-2.923 0-5.293 2.448-5.293 5.467s2.37 5.467 5.293 5.467zm12.493 6.699c2.595-.019 4.685-2.205 4.671-4.886 0-2.716-2.1-4.886-4.671-4.886s-4.671 2.196-4.671 4.886 2.1 4.886 4.671 4.886zm9.166 7.689c1.025-.007 2.005-.434 2.725-1.188a4.06 4.06 0 0 0 1.114-2.83h0v-.009c.009-1.059-.39-2.078-1.108-2.833s-1.698-1.185-2.723-1.194h-.008c-1.025.007-2.005.434-2.725 1.188a4.06 4.06 0 0 0-1.114 2.83h0v.009c-.016 1.052.374 2.067 1.083 2.822s1.68 1.188 2.698 1.204h.06z"/><path d="M128 11.485C63.753 11.485 11.485 63.753 11.485 128S63.753 244.515 128 244.515 244.515 192.247 244.515 128 192.247 11.485 128 11.485M128 0c70.527 0 128 57.468 128 128s-57.468 128-128 128S0 198.53 0 128 57.473 0 128 0z" fill="#474747"/></svg>