<?xml version="1.0" encoding="UTF-8" standalone="no"?>
<svg
   xmlns:dc="http://purl.org/dc/elements/1.1/"
   xmlns:cc="http://creativecommons.org/ns#"
   xmlns:rdf="http://www.w3.org/1999/02/22-rdf-syntax-ns#"
   xmlns:svg="http://www.w3.org/2000/svg"
   xmlns="http://www.w3.org/2000/svg"
   xmlns:sodipodi="http://sodipodi.sourceforge.net/DTD/sodipodi-0.dtd"
   xmlns:inkscape="http://www.inkscape.org/namespaces/inkscape"
   width="236"
   height="236"
   version="1.1"
   id="svg8"
   sodipodi:docname="IOTA_BEP20.svg"
   inkscape:version="1.0.2-2 (e86c870879, 2021-01-15)">
  <metadata
     id="metadata8">
    <rdf:RDF>
      <cc:Work
         rdf:about="">
        <dc:format>image/svg+xml</dc:format>
        <dc:type
           rdf:resource="http://purl.org/dc/dcmitype/StillImage" />
      </cc:Work>
    </rdf:RDF>
  </metadata>
  <defs
     id="defs12" />
  <sodipodi:namedview
     id="namedview10"
     pagecolor="#ffffff"
     bordercolor="#666666"
     borderopacity="1.0"
     inkscape:pageshadow="2"
     inkscape:pageopacity="0.0"
     inkscape:pagecheckerboard="0"
     showgrid="false"
     inkscape:zoom="3.4101562"
     inkscape:cx="118"
     inkscape:cy="118"
     inkscape:window-width="1920"
     inkscape:window-height="1017"
     inkscape:window-x="-8"
     inkscape:window-y="-8"
     inkscape:window-maximized="1"
     inkscape:current-layer="svg8"
     inkscape:document-rotation="0" />
  <circle
     cx="118"
     cy="118"
     r="118"
     fill="#ffffff"
     paint-order="stroke fill markers"
     id="circle2" />
  <path
     d="m 157.726,37.359 c 6.41,0 11.62,-5.467 11.62,-12.184 0,-6.717 -5.209,-12.175 -11.62,-12.175 -6.41,0.035 -11.62,5.493 -11.62,12.21 0,6.717 5.209,12.149 11.62,12.149 z m 3.428,31.657 c 5.475,-0.043 9.88,-4.662 9.838,-10.317 v 0 c 0,-5.675 -4.402,-10.318 -9.838,-10.318 -5.436,0 -9.838,4.608 -9.838,10.318 0,5.71 4.394,10.317 9.838,10.317 z m 27.011,4.035 c 5.411,0 9.813,-4.608 9.813,-10.292 0,-5.684 -4.402,-10.292 -9.813,-10.292 -5.411,0 -9.813,4.608 -9.813,10.292 0,5.684 4.411,10.292 9.813,10.292 z m -3.243,27.084 c 4.638,0 8.393,-3.94 8.393,-8.791 0,-4.851 -3.756,-8.791 -8.393,-8.791 -4.637,0 -8.393,3.94 -8.393,8.791 0,4.851 3.756,8.791 8.393,8.791 z m 21.626,8.782 c 4.671,0 8.452,-3.966 8.452,-8.852 0,-4.886 -3.781,-8.852 -8.452,-8.852 -2.257,0.016 -4.416,0.958 -6.001,2.618 -1.585,1.66 -2.467,3.902 -2.451,6.234 v 0 c 0,4.886 3.789,8.852 8.452,8.852 z M 157.743,96.473 c 2.295,-0.014 4.491,-0.969 6.104,-2.655 1.613,-1.686 2.512,-3.965 2.499,-6.336 v 0 -0.017 c 0,-4.972 -3.84,-9.008 -8.603,-9.008 -4.763,0 -8.603,4.027 -8.603,9.008 0,4.946 3.848,9.008 8.603,9.008 z m -7.797,21.547 c 3.991,0 7.209,-3.384 7.209,-7.541 0.033,-4.131 -3.183,-7.507 -7.183,-7.541 h -0.026 c -3.991,0 -7.209,3.384 -7.209,7.541 0,4.157 3.218,7.541 7.209,7.541 z m 27.053,3.81 c 1.909,-0.014 3.735,-0.81 5.076,-2.214 1.341,-1.404 2.087,-3.301 2.074,-5.273 v 0 -0.018 c 0,-4.148 -3.193,-7.506 -7.15,-7.506 -3.957,0 -7.15,3.358 -7.15,7.506 -0.025,1.965 0.708,3.86 2.035,5.268 1.327,1.408 3.143,2.213 5.045,2.238 z m 21.567,8.747 c 3.991,0 7.209,-3.384 7.209,-7.567 0,-4.183 -3.218,-7.567 -7.209,-7.567 -3.991,0 -7.209,3.384 -7.209,7.567 -0.042,4.136 3.17,7.524 7.174,7.567 z m -10.653,16.349 c 3.369,0 6.091,-2.872 6.091,-6.378 0,-3.506 -2.722,-6.378 -6.091,-6.378 -3.369,0 -6.091,2.872 -6.091,6.378 0,3.506 2.722,6.378 6.091,6.378 z m -21.668,-8.609 c 3.428,0 6.234,-2.933 6.234,-6.535 0,-3.602 -2.781,-6.535 -6.234,-6.535 -3.453,0 -6.234,2.933 -6.234,6.535 0,3.602 2.806,6.535 6.234,6.535 z m -27.02,-3.992 c 3.422,-0.055 6.168,-2.935 6.17,-6.47 0.002,-3.535 -2.74,-6.418 -6.162,-6.478 h -0.008 c -3.422,0.055 -6.168,2.935 -6.17,6.47 -0.002,3.535 2.74,6.418 6.162,6.478 z m 15.022,15.36 c 2.983,0 5.377,-2.534 5.377,-5.615 0.028,-3.072 -2.36,-5.586 -5.334,-5.615 h -0.043 c -2.983,0 -5.377,2.534 -5.377,5.615 -0.033,3.067 2.348,5.581 5.317,5.615 z m 21.66,8.756 c 2.983,0 5.436,-2.534 5.436,-5.675 0,-3.141 -2.42,-5.675 -5.436,-5.675 -3.035,0 -5.495,2.541 -5.495,5.675 0,3.134 2.46,5.675 5.495,5.675 z m -12.199,6.569 c 2.361,0 4.285,-2.013 4.285,-4.487 0.014,-2.46 -1.903,-4.467 -4.285,-4.487 -2.361,0 -4.285,2.013 -4.285,4.487 -0.005,2.456 1.907,4.458 4.285,4.487 z m -11.561,3.523 c 1.034,-0.007 2.023,-0.437 2.749,-1.197 0.726,-0.76 1.131,-1.786 1.124,-2.854 v -0.01 c 0,-2.256 -1.748,-4.061 -3.873,-4.061 -1.034,0.007 -2.023,0.437 -2.749,1.197 -0.726,0.76 -1.131,1.786 -1.124,2.854 v 0.01 c -0.037,2.204 1.663,4.022 3.797,4.06 z m -10.124,-11.681 c 2.546,0 4.613,-2.169 4.613,-4.825 0,-2.656 -2.067,-4.825 -4.613,-4.825 -2.546,0 -4.613,2.169 -4.613,4.825 -0.005,2.643 2.053,4.797 4.613,4.825 z m -14.854,-11.064 c 2.957,0 5.377,-2.499 5.377,-5.615 0,-3.116 -2.394,-5.615 -5.377,-5.615 -2.957,0 -5.377,2.499 -5.377,5.615 -0.005,3.079 2.396,5.586 5.377,5.615 z m 44.05,70.344 c 6.385,0 11.561,-5.432 11.561,-12.123 0,-6.691 -5.175,-12.123 -11.561,-12.123 -6.386,0 -11.561,5.432 -11.561,12.123 0,6.691 5.175,12.123 11.561,12.123 z m -29.364,-15.343 c 5.318,0 9.637,-4.521 9.637,-10.101 0,-5.58 -4.318,-10.101 -9.637,-10.101 -5.319,0 -9.637,4.521 -9.637,10.101 0,5.58 4.31,10.101 9.637,10.101 z m -16.778,22.207 c 5.377,0 9.721,-4.547 9.721,-10.197 0,-5.615 -4.344,-10.197 -9.721,-10.197 -5.377,0 -9.721,4.547 -9.721,10.197 -0.042,5.588 4.31,10.153 9.72,10.197 z m -5.049,-40.917 c 2.251,-0.016 4.403,-0.955 5.983,-2.61 1.58,-1.655 2.459,-3.891 2.444,-6.215 v 0 c 0.016,-2.325 -0.863,-4.56 -2.444,-6.215 -1.581,-1.655 -3.733,-2.594 -5.983,-2.61 v 0 c -2.251,0.016 -4.403,0.955 -5.983,2.61 -1.58,1.655 -2.459,3.891 -2.444,6.215 v 0 c 0.008,4.86 3.789,8.826 8.427,8.826 z m -16.736,22.511 c 4.638,0 8.393,-3.94 8.393,-8.791 0,-4.851 -3.756,-8.791 -8.393,-8.791 -4.637,0 -8.393,3.94 -8.393,8.791 -0.046,4.807 3.688,8.742 8.342,8.791 z m -18.038,15.273 c 4.638,0 8.368,-3.94 8.368,-8.765 0,-4.851 -3.756,-8.765 -8.368,-8.765 -4.638,0 -8.368,3.94 -8.368,8.765 0,4.825 3.756,8.765 8.368,8.765 z M 70.24,199.982 c 3.97,-0.038 7.164,-3.38 7.15,-7.48 0,-4.122 -3.193,-7.48 -7.15,-7.48 -3.957,0.062 -7.133,3.393 -7.133,7.48 0,4.087 3.176,7.418 7.133,7.48 z m 18.072,-15.343 c 3.973,-0.029 7.173,-3.376 7.15,-7.48 0,-4.148 -3.193,-7.48 -7.15,-7.48 -3.957,0.055 -7.139,3.38 -7.146,7.468 -0.007,4.088 3.164,7.424 7.121,7.493 z m 16.862,-22.502 c 1.909,-0.014 3.735,-0.81 5.076,-2.214 1.341,-1.404 2.087,-3.301 2.074,-5.273 v 0 -0.018 c 0,-4.148 -3.193,-7.506 -7.15,-7.506 -1.909,0.014 -3.735,0.81 -5.076,2.214 -1.341,1.404 -2.087,3.301 -2.074,5.273 v 0 0.018 c 0,4.148 3.193,7.506 7.15,7.506 z m -25.793,3.098 c 3.428,0 6.209,-2.898 6.209,-6.5 0,-3.602 -2.781,-6.5 -6.209,-6.5 -3.428,0 -6.209,2.898 -6.209,6.5 0,3.602 2.781,6.5 6.209,6.5 z m -17.98,15.282 c 1.64,-0.009 3.209,-0.691 4.363,-1.895 1.154,-1.204 1.796,-2.833 1.787,-4.526 v 0 -0.017 c 0.033,-3.522 -2.705,-6.405 -6.116,-6.439 h -0.034 c -1.64,0.009 -3.209,0.691 -4.363,1.895 -1.154,1.204 -1.796,2.833 -1.787,4.526 v 0 0.017 c -0.011,1.696 0.63,3.328 1.784,4.535 1.154,1.207 2.724,1.892 4.366,1.904 z m -4.134,-17.911 c 2.951,-0.024 5.328,-2.506 5.318,-5.554 0,-3.081 -2.394,-5.554 -5.318,-5.554 -2.924,0 -5.318,2.499 -5.318,5.554 0,3.081 2.394,5.554 5.318,5.554 z M 57.116,146.89 c 1.219,-0.011 2.383,-0.523 3.237,-1.421 a 4.83,4.83 0 0 0 1.316,-3.369 v 0 c 0,-2.629 -2.042,-4.79 -4.554,-4.79 -2.512,0 -4.554,2.135 -4.554,4.79 0,2.655 2.042,4.79 4.554,4.79 z m 2.504,-13.069 c 2.159,0 3.873,-1.831 3.873,-4.061 0,-2.23 -1.748,-4.061 -3.873,-4.061 -2.159,0 -3.873,1.831 -3.873,4.061 0,2.23 1.714,4.061 3.873,4.061 z m 15.501,-2.187 c 2.546,0 4.613,-2.169 4.613,-4.825 0,-2.656 -2.067,-4.825 -4.613,-4.825 -2.546,0 -4.613,2.169 -4.613,4.825 -0.009,2.645 2.052,4.801 4.613,4.825 z m 17.013,-6.847 c 2.957,0 5.377,-2.534 5.377,-5.615 0.028,-3.072 -2.36,-5.586 -5.334,-5.615 h -0.043 c -2.957,0 -5.377,2.534 -5.377,5.615 -0.011,1.478 0.546,2.899 1.55,3.952 a 5.31,5.31 0 0 0 3.802,1.662 z m 4.05,17.825 c 3.369,-0.007 6.096,-2.832 6.092,-6.312 -0.004,-3.48 -2.736,-6.299 -6.105,-6.299 -3.369,0 -6.101,2.819 -6.105,6.299 -0.004,3.48 2.723,6.305 6.092,6.312 z m -20.845,4.747 c 2.957,0 5.318,-2.499 5.318,-5.589 0,-3.09 -2.394,-5.589 -5.318,-5.589 -1.419,0.009 -2.777,0.6 -3.774,1.643 -0.997,1.043 -1.553,2.453 -1.544,3.919 v 0.027 c -0.02,1.461 0.522,2.871 1.508,3.919 0.986,1.048 2.335,1.648 3.749,1.669 h 0.06 z m -58.812,-8.287 c 6.352,0 11.527,-5.406 11.527,-12.062 0,-6.656 -5.175,-12.062 -11.527,-12.062 -6.352,0 -11.527,5.416 -11.527,12.072 0,6.656 5.175,12.054 11.527,12.054 z M 42.69,117.533 c 5.47,0 9.872,-4.643 9.872,-10.353 0,-5.71 -4.436,-10.353 -9.872,-10.353 -5.489,0.038 -9.909,4.665 -9.872,10.335 v 0.018 c 0,5.745 4.436,10.353 9.872,10.353 z M 32.482,90.978 c 5.436,0 9.813,-4.608 9.813,-10.292 0,-5.684 -4.402,-10.292 -9.813,-10.292 -2.62,0.018 -5.126,1.111 -6.967,3.038 -1.841,1.927 -2.864,4.53 -2.846,7.236 v 0.018 c -0.056,5.626 4.315,10.234 9.762,10.292 z M 57.704,78.395 c 4.638,0 8.427,-3.94 8.427,-8.826 0,-4.886 -3.781,-8.826 -8.427,-8.826 -4.646,0 -8.427,3.94 -8.427,8.826 0,4.886 3.789,8.826 8.427,8.826 z m 10.309,26.494 c 4.671,0 8.452,-3.966 8.452,-8.852 0,-4.886 -3.781,-8.852 -8.452,-8.852 -4.671,0 -8.452,3.966 -8.452,8.852 0,4.886 3.781,8.852 8.452,8.852 z m 22.953,-5.502 c 3.999,-0.034 7.215,-3.409 7.183,-7.54 v 0 c 0.039,-2.651 -1.294,-5.122 -3.496,-6.482 -2.202,-1.36 -4.941,-1.404 -7.183,-0.114 -2.242,1.29 -3.648,3.718 -3.687,6.369 v 0.227 0 c -0.046,4.117 3.147,7.493 7.132,7.541 z m 19.828,0.069 c 3.428,0 6.209,-2.898 6.209,-6.474 0,-3.576 -2.781,-6.474 -6.209,-6.474 -3.462,0 -6.268,2.898 -6.268,6.474 0,3.576 2.806,6.474 6.268,6.474 z m 16.383,3.896 c 2.865,0 5.234,-2.439 5.234,-5.467 0,-3.028 -2.336,-5.467 -5.234,-5.467 -2.904,0.023 -5.244,2.467 -5.234,5.467 0.034,2.994 2.361,5.467 5.234,5.467 z m 2.134,-19.942 c 2.53,-0.019 4.568,-2.151 4.554,-4.764 0,-2.629 -2.042,-4.764 -4.554,-4.764 -2.512,0 -4.554,2.135 -4.554,4.764 -0.014,2.614 2.023,4.746 4.554,4.764 z m -12.603,-6.526 c 2.896,-0.007 5.238,-2.436 5.235,-5.427 -0.003,-2.991 -2.352,-5.414 -5.248,-5.414 -2.896,0 -5.244,2.423 -5.248,5.414 -0.004,2.991 2.339,5.42 5.235,5.427 z m -16.19,-3.957 c 3.418,-0.029 6.169,-2.909 6.15,-6.439 0,-3.575 -2.747,-6.439 -6.15,-6.439 -3.403,0 -6.15,2.898 -6.15,6.439 -0.013,1.694 0.625,3.324 1.775,4.532 1.15,1.208 2.718,1.894 4.358,1.907 z m -19.794,0.026 c 3.991,0 7.209,-3.384 7.209,-7.541 0,-4.157 -3.218,-7.541 -7.209,-7.541 -3.991,0 -7.209,3.384 -7.209,7.541 -0.014,4.134 3.207,7.503 7.209,7.541 z M 54.066,54.099 c 4.52,0 8.158,-3.818 8.158,-8.548 0,-4.73 -3.663,-8.548 -8.158,-8.548 -4.52,0 -8.158,3.818 -8.158,8.548 0,4.73 3.663,8.548 8.158,8.548 z m 22.945,-5.181 c 3.991,0 7.209,-3.384 7.209,-7.541 0,-4.157 -3.218,-7.541 -7.209,-7.541 -3.991,0 -7.209,3.384 -7.209,7.541 0,4.157 3.218,7.541 7.209,7.541 z m 19.82,0.095 c 3.428,0 6.209,-2.898 6.209,-6.5 0,-3.602 -2.781,-6.5 -6.209,-6.5 -1.656,0.009 -3.24,0.697 -4.404,1.913 a 6.56,6.56 0 0 0 -1.805,4.569 v 0 0.017 c -0.014,3.562 2.76,6.467 6.209,6.5 z m 16.266,3.87 c 2.899,0 5.234,-2.439 5.234,-5.467 0,-3.028 -2.336,-5.467 -5.234,-5.467 -2.923,0 -5.293,2.448 -5.293,5.467 0,3.019 2.37,5.467 5.293,5.467 z m 12.493,6.699 c 2.595,-0.019 4.685,-2.205 4.671,-4.886 0,-2.716 -2.1,-4.886 -4.671,-4.886 -2.571,0 -4.671,2.196 -4.671,4.886 0,2.69 2.1,4.886 4.671,4.886 z m 9.166,7.689 c 1.025,-0.007 2.005,-0.434 2.725,-1.188 a 4.06,4.06 0 0 0 1.114,-2.83 v 0 -0.009 c 0.009,-1.059 -0.39,-2.078 -1.108,-2.833 -0.718,-0.755 -1.698,-1.185 -2.723,-1.194 h -0.008 c -1.025,0.007 -2.005,0.434 -2.725,1.188 a 4.06,4.06 0 0 0 -1.114,2.83 v 0 0.009 c -0.016,1.052 0.374,2.067 1.083,2.822 0.709,0.755 1.68,1.188 2.698,1.204 h 0.06 z"
     id="path4" />
</svg>
