<svg id="IOTX" xmlns="http://www.w3.org/2000/svg" width="512" height="512" viewBox="0 0 512 512">
  <defs>
    <style>
      .cls-1 {
        fill: #00b4a0;
      }

      .cls-1, .cls-2, .cls-3, .cls-4 {
        fill-rule: evenodd;
      }

      .cls-2, .cls-3, .cls-4 {
        fill: #fff;
      }

      .cls-2 {
        opacity: 0.85;
      }

      .cls-3 {
        opacity: 0.8;
      }
    </style>
  </defs>
  <path id="Full" class="cls-1" d="M11,256c0,135.094,109.906,245,245,245S501,391.094,501,256,391.094,11,256,11,11,120.906,11,256Z"/>
  <path id="IOTX_1" data-name="IOTX 1" class="cls-2" d="M130.368,178.133v70.506l61.209-35.3-61.209-35.2M207.6,204.6v70.248l61.111-35.2-25.084-14.491-25.842,14.887V210.469L207.6,204.6m-45.387,44.34v70.506l61.209-35.3-61.209-35.2m55.572-38.714v29.815l25.842-14.887-25.842-14.928m0-70.258-61.209,35.2,50.653,29.215,0.075-.043v0.085l0.3,0.172v-0.257l10.185,5.883V139.963M207.6,204.338V204.6l10.185,5.874v-0.248L207.6,204.338m71.29-29.408L252.95,189.846l25.942,14.986-35.12,20.231,35.219,20.312V174.99l-0.1-.06M252.95,189.846l-35.169,20.227,25.991,14.99,35.12-20.231L252.95,189.846m26.041-14.976-0.1.06,0.1,0.06v-0.12M207.3,204.338l-0.075.043,0.075,0.042v-0.085m-45.091,63.089L101,302.63l61.209,35.3V267.427m112.826,48.256L250.567,329.8l13.1,7.545-36.7,21.2,48.072,27.648V315.683M250.567,329.8l-36.741,21.191,13.137,7.555,36.7-21.2-13.1-7.545"/>
  <path id="IOTX_2" data-name="IOTX 2" class="cls-3" d="M217.781,210.221v29.815l25.842-14.887-25.842-14.928m0-70.258-61.209,35.2,50.653,29.215,0.075-.043v0.085l0.3,0.172v-0.257l10.185,5.883V139.963M207.6,204.338V204.6l10.185,5.874v-0.248L207.6,204.338m45.354-14.492-35.169,20.227,25.991,14.99,35.12-20.231L252.95,189.846m26.041-14.976-0.1.06,0.1,0.06v-0.12M207.3,204.338l-0.075.043,0.075,0.042v-0.085m-45.091,63.089L101,302.63l61.209,35.3V267.427M250.567,329.8l-36.741,21.191,13.137,7.555,36.7-21.2-13.1-7.545"/>
  <path id="IOTX_Body" data-name="IOTX Body" class="cls-4" d="M288.582,110v70.506l61.209-35.2L288.582,110m61.209,35.3v70.506L411,180.506l-61.209-35.2m-61.209,35.2h0v70.506l61.209-35.2-61.209-35.3m61.209,35.3h0v70.506L411,251.012l-61.209-35.2m-61.209,35.2h0v70.506l61.209-35.2-61.209-35.3m61.209,35.3V356.82L411,321.518l-61.209-35.2M202.553,302.136v70.506l24.41-14.1-13.137-7.555L250.567,329.8l-48.014-27.659m85.535,30.358V403l61.11-35.3-61.11-35.2M217.781,169.53v40.691l25.842,14.928,0.149-.086-25.991-14.99,35.169-20.227L217.781,169.53m0,40.691v29.815l25.842-14.887-25.842-14.928M288.582,110l-61.209,35.3,51.513,29.627,0.1-.06v0.12l9.591,5.516V110M252.95,189.846l-35.169,20.227,25.991,14.99,35.12-20.231L252.95,189.846m26.041-14.976-0.1.06,0.1,0.06v-0.12m-71.766,29.511L146.091,239.64l61.209,35.2v-70.42l-0.075-.042m0.075-.043-0.075.043,0.075,0.042v-0.085m81.282,46.674-61.11,35.3,61.11,35.2V251.012M411,180.506h0l-61.209,35.3L411,251.012V180.506m-61.209,35.3-61.209,35.2,61.209,35.3V215.809M411,251.012h0l-61.209,35.3L411,321.518V251.012m-61.209,35.3-61.209,35.2,61.209,35.3v-70.5M250.567,329.8l-36.741,21.191,13.137,7.555,36.7-21.2-13.1-7.545M349.791,145.3v70.506l-61.209-35.3Z"/>
</svg>
