<?xml version="1.0" encoding="utf-8"?>
<!-- Generator: Adobe Illustrator 22.0.0, SVG Export Plug-In . SVG Version: 6.00 Build 0)  -->
<svg version="1.1" id="IOTX" xmlns="http://www.w3.org/2000/svg" xmlns:xlink="http://www.w3.org/1999/xlink" x="0px" y="0px"
	 viewBox="0 0 490 490" style="enable-background:new 0 0 490 490;" xml:space="preserve">
<style type="text/css">
	.st0{fill:#00B4A0;}
	.st1{opacity:0.85;fill:#FFFFFF;enable-background:new    ;}
	.st2{opacity:0.8;fill:#FFFFFF;enable-background:new    ;}
	.st3{fill:#FFFFFF;}
</style>
<path id="Full" class="st0" d="M0,245c0,135.1,109.9,245,245,245s245-109.9,245-245S380.1,0,245,0S0,109.9,0,245z"/>
<path id="IOTX_1" class="st1" d="M119.4,167.1v70.5l61.2-35.3L119.4,167.1 M196.6,193.6v70.2l61.1-35.2l-25.1-14.5L206.8,229v-29.6
	L196.6,193.6 M151.2,237.9v70.5l61.2-35.3L151.2,237.9 M206.8,199.2V229l25.8-14.9L206.8,199.2 M206.8,129l-61.2,35.2l50.7,29.2
	l0.1,0v0.1l0.3,0.2v-0.3l10.2,5.9L206.8,129 M196.6,193.3v0.3l10.2,5.9v-0.2L196.6,193.3 M267.9,163.9l-25.9,14.9l25.9,15
	l-35.1,20.2l35.2,20.3V164L267.9,163.9 M241.9,178.8l-35.2,20.2l26,15l35.1-20.2L241.9,178.8 M268,163.9l-0.1,0.1l0.1,0.1V163.9
	 M196.3,193.3L196.3,193.3L196.3,193.3L196.3,193.3 M151.2,256.4L90,291.6l61.2,35.3V256.4 M264,304.7l-24.5,14.1l13.1,7.5
	L216,347.5l48.1,27.6L264,304.7 M239.6,318.8L202.8,340l13.1,7.6l36.7-21.2L239.6,318.8"/>
<path id="IOTX_2" class="st2" d="M206.8,199.2V229l25.8-14.9L206.8,199.2 M206.8,129l-61.2,35.2l50.7,29.2l0.1,0v0.1l0.3,0.2v-0.3
	l10.2,5.9L206.8,129 M196.6,193.3v0.3l10.2,5.9v-0.2L196.6,193.3 M242,178.8l-35.2,20.2l26,15l35.1-20.2L242,178.8 M268,163.9
	l-0.1,0.1l0.1,0.1V163.9 M196.3,193.3L196.3,193.3L196.3,193.3L196.3,193.3 M151.2,256.4L90,291.6l61.2,35.3V256.4 M239.6,318.8
	L202.8,340l13.1,7.6l36.7-21.2L239.6,318.8"/>
<path id="IOTX_Body" class="st3" d="M277.6,99v70.5l61.2-35.2L277.6,99 M338.8,134.3v70.5l61.2-35.3L338.8,134.3 M277.6,169.5
	L277.6,169.5V240l61.2-35.2L277.6,169.5 M338.8,204.8L338.8,204.8v70.5L400,240L338.8,204.8 M277.6,240L277.6,240v70.5l61.2-35.2
	L277.6,240 M338.8,275.3v70.5l61.2-35.3L338.8,275.3 M191.6,291.1v70.5l24.4-14.1l-13.1-7.6l36.7-21.2L191.6,291.1 M277.1,321.5V392
	l61.1-35.3L277.1,321.5 M206.8,158.5v40.7l25.8,14.9l0.1-0.1l-26-15l35.2-20.2L206.8,158.5 M206.8,199.2V229l25.8-14.9L206.8,199.2
	 M277.6,99l-61.2,35.3l51.5,29.6l0.1-0.1v0.1l9.6,5.5L277.6,99 M241.9,178.8l-35.2,20.2l26,15l35.1-20.2L241.9,178.8 M268,163.9
	l-0.1,0.1l0.1,0.1V163.9 M196.2,193.4l-61.1,35.3l61.2,35.2L196.2,193.4L196.2,193.4 M196.3,193.3L196.3,193.3L196.3,193.3
	L196.3,193.3 M277.6,240l-61.1,35.3l61.1,35.2V240 M400,169.5L400,169.5l-61.2,35.3L400,240V169.5 M338.8,204.8L277.6,240l61.2,35.3
	V204.8 M400,240L400,240l-61.2,35.3l61.2,35.2V240 M338.8,275.3l-61.2,35.2l61.2,35.3V275.3 M239.6,318.8L202.8,340l13.1,7.6
	l36.7-21.2L239.6,318.8 M338.8,134.3v70.5l-61.2-35.3L338.8,134.3z"/>
</svg>
