<svg xmlns="http://www.w3.org/2000/svg" width="250" height="250" fill="none" xmlns:v="https://vecta.io/nano"><circle cx="125" cy="125" r="125" fill="#1d1d1d"/><g stroke="#6e56f8"><path d="M169.528 147.639l-11.147-6.085-11.147 6.085m22.293 0l-11.147 5.851m11.147-5.851v12.171l-5.573 3.043m-5.573-9.362l-11.147-5.851m11.147 5.851v6.202m-11.147-12.054v12.171l5.573 3.043" stroke-width="2.955"/><path d="M171.555 168.235l-14.187-7.958-14.187 7.958m28.373 0l-14.187 7.652m14.187-7.652v15.915l-14.187 7.958m0-16.221l-14.187-7.652m14.187 7.652v16.221m-14.187-23.873v6.502m14.187 17.37l-7.093-3.979" stroke-width="3.694"/><path d="M151.288 179.001l-23.307-13.107-11.653 6.553m34.96 6.553l-23.307 12.603m23.307-12.603v26.214l-23.307 13.107m0-26.718v26.718m0-26.718l-11.653-6.301m11.653 33.02l-23.307-13.107v-13.108" stroke-width="4.432"/><path d="M114.808 150.915l-30.4 16.204m30.4-16.204v33.703l-30.4 16.852m30.4-50.555l-10.331-5.727m-20.069 21.931l-30.4-16.204m30.4 16.204v34.352m-30.4-50.555v33.703l30.4 16.852m-30.4-50.555l12.937-5.727" stroke-width="5.171"/><path d="M86.435 115.501l-36.48-19.354m36.48 19.354v41.031m0-41.031l23.357-12.392m-59.837-6.962l36.48-20.129 23.357 12.288m-59.837 7.841v40.257l36.48 20.129m0 0l36.48-20.129v-25.936" stroke-width="5.91"/><path d="M197.901 53.55l-44.586-24.341-44.587 24.341m89.173 0l-44.586 23.405m44.586-23.405v48.683l-44.586 24.342m0-49.619L108.728 53.55m44.587 23.405v49.619M108.728 53.55v48.683l44.587 24.342" stroke-width="7.387"/></g></svg>