<?xml version="1.0" encoding="UTF-8"?>
<svg id="Layer_1" xmlns="http://www.w3.org/2000/svg" version="1.1" viewBox="0 0 250 250">
  <!-- Generator: Adobe Illustrator 29.0.1, SVG Export Plug-In . SVG Version: 2.1.0 Build 192)  -->
  <defs>
    <style>
      .st0 {
        fill: #ef9702;
      }

      .st1 {
        fill: #fff;
      }
    </style>
  </defs>
  <circle class="st1" cx="125" cy="125" r="122.5"/>
  <path class="st0" d="M140.8,91.5c0,.3.1.6.4.7,21.5,11.9,39.6,27.1,54.5,45.7,8.5,10.6,18.6,27.1,15.8,39.9-1.7,7.4-7.1,10.2-13.9,11.2-2,.3-3.9.4-5.8.2-9.5-1.1-18.6-3.9-27.2-8.4-.3-.2-.6-.1-.9,0-25,17.1-52.5,27.2-82.4,30.4-8.3.9-16.8.4-25.3-1.5-2.9-.6-5.9-1.9-9-3.7-6.8-4-10.2-11-8.7-18.8,2.9-15.6,21.3-28.8,33.8-36.1.5-.3.7-.7.7-1.3-1.4-24.2,1.9-47.8,10-71,4.1-11.8,9.6-21.9,16.3-30.2,3-3.7,8.3-8.1,12.9-9.5,14-4.2,21.6,8.7,25,20.5,2.8,9.6,4.1,20.2,3.8,31.9ZM106.6,135.1c.2,0,.3-.4.3-.6,0,0,0,0,0-.1-6-7.1-10.9-14.9-14.5-23.5-1.6-3.8-2.6-7.6-2.8-11.3-1.2-18.4,15.5-19.7,28.9-16.3,5.4,1.4,11,3.4,16.9,6.1.4.2.7,0,.7-.4.8-12.8-1.5-34.4-11.7-43.4-7.2-6.4-15.6-.4-20.5,5.5-5.9,7-10.5,15.2-14,24.6-8.5,22.9-11.7,46.2-9.7,69.9,0,.3.3.5.5.5,0,0,.1,0,.1,0l25.8-10.9ZM135.8,99.2c.3-2.9.4-4.9.3-6.1,0-.5-.3-.9-.7-1.1-8.1-4.1-16.3-6.7-24.5-7.8-14.5-2-22.4,7.2-17.7,21.4,3.2,9.7,8.7,19.1,16.5,28.1.3.3.6.4,1,.3l19.5-5c.3,0,.5-.3.6-.6,2.2-8.1,3.9-17.8,5-29.2ZM136.7,127.6c0,.2.1.5.3.5,0,0,.1,0,.2,0,7.9-1.3,15.8-1.5,23.8-.8,12.3,1.2,26.3,6.2,26.6,20.2.2,11.4-10.5,22.9-19.8,29.9-.3.2-.3.6-.1.9,0,0,.2.2.3.2,6,2.6,11.9,4.3,17.9,5.3,5.2.8,8.8,1,10.7.4,9-2.7,12.4-8.9,10-18.7-1.2-5.1-3-9.7-5.3-13.7-13.6-23.7-35.8-43.2-59.6-56.8-.6-.3-.9-.2-.9.5-.3,10.5-1.7,21.1-4,32ZM129.3,153.4c0,.2,0,.3.1.4,8.8,7.6,18.3,14.2,28.4,19.8.5.3.9.2,1.3,0,7.6-5.2,24.3-19.2,20.5-29.9-1.4-4-7.5-7-11.5-7.9-10-2.2-20.9-2.1-32.7.3-.5,0-.8.4-.9.8l-5.3,16.3ZM117.1,140.9c-.3,0-.4.3-.3.6,0,0,0,.1.1.2l6.4,6.8c.2.2.5.2.7,0,0,0,0-.1.1-.2l3.7-9.8c0-.3,0-.5-.3-.6,0,0-.2,0-.3,0l-10.1,3ZM83,157.9c-.1,0-.1.2-.1.3,1.6,6.2,5.9,16,12.2,17.8,11.8,3.5,22.7-14.8,27.2-23.8.2-.4.1-.8-.2-1.1l-8.3-8.3c-.3-.3-.6-.4-1-.2-10.9,4.1-20.9,9.2-29.8,15.3ZM128.2,156.5c0,0-.2,0-.3,0,0,0,0,0,0,0-4.3,10.8-11.8,24.3-21.6,30.5-17.7,11-27.8-7.6-30.9-21.7,0-.4-.4-.6-.8-.5,0,0-.2,0-.3.1-6.7,5.3-18.7,20.3-7.3,27.2,5.7,3.5,12.7,5.1,21,4.9,22.9-.6,45.2-7.5,67-20.5.2-.1.3-.4.2-.6,0,0,0-.1-.2-.2-9.6-5.7-18.5-12.1-26.7-19.3Z"/>
</svg>