<?xml version="1.0" encoding="UTF-8" standalone="no"?>
<svg
   xmlns:dc="http://purl.org/dc/elements/1.1/"
   xmlns:cc="http://creativecommons.org/ns#"
   xmlns:rdf="http://www.w3.org/1999/02/22-rdf-syntax-ns#"
   xmlns:svg="http://www.w3.org/2000/svg"
   xmlns="http://www.w3.org/2000/svg"
   id="svg8"
   version="1.1"
   viewBox="0 0 67.733332 67.733335"
   height="256"
   width="256">
  <defs
     id="defs2" />
  <metadata
     id="metadata5">
    <rdf:RDF>
      <cc:Work
         rdf:about="">
        <dc:format>image/svg+xml</dc:format>
        <dc:type
           rdf:resource="http://purl.org/dc/dcmitype/StillImage" />
        <dc:title></dc:title>
      </cc:Work>
    </rdf:RDF>
  </metadata>
  <g
     transform="translate(0,-229.26665)"
     id="layer1">
    <path
       d="m 1.4882812,263.20359 c 0,17.87181 14.5396478,32.41146 32.4114578,32.41146 17.871811,0 32.411459,-14.53965 32.411459,-32.41146 0,-17.87181 -14.539648,-32.41146 -32.411459,-32.41146 -17.87181,0 -32.4114578,14.53965 -32.4114578,32.41146 z"
       class="cls-1"
       id="Full"
       style="stroke-width:0.13229166;fill:#242424;fill-opacity:1" />
    <g
       transform="translate(0.0516761,0.206695)"
       id="g931">
      <path
         style="opacity:1;fill:none;fill-opacity:1;fill-rule:nonzero;stroke:#ffffff;stroke-width:2.30132866;stroke-linecap:round;stroke-linejoin:miter;stroke-miterlimit:4;stroke-dasharray:none;stroke-dashoffset:65.67904663;stroke-opacity:1;paint-order:stroke fill markers"
         d="m 23.819784,252.25389 20.05656,-0.10336 c 5.980176,-0.0308 10.794686,4.81443 10.794686,10.79469 0,5.98025 -4.81451,10.76387 -10.794686,10.79468 l -20.05656,0.10336 c -5.980177,0.0308 -10.794687,-4.81443 -10.794687,-10.79468 0,-5.98026 4.81451,-10.76388 10.794687,-10.79469 z"
         id="rect902" />
      <path
         style="opacity:1;fill:none;stroke:#fcfcfc;stroke-width:2.46499991;stroke-linecap:round;stroke-linejoin:miter;stroke-miterlimit:4;stroke-dasharray:none;stroke-opacity:1"
         d="m 20.645527,259.25338 c 0,0 1.205845,-0.10962 2.557853,0.9866 1.461629,1.02315 2.813638,0.76736 2.813638,0.76736 0,0 1.267334,-0.0969 2.630935,-0.87698 1.971816,-1.12809 3.288668,-0.76736 4.348348,-0.1827 1.425091,0.69427 2.119365,1.13276 3.252128,1.20584 1.717416,-0.0731 2.338609,-0.91352 3.032882,-1.24239 1.205847,-0.73081 2.33861,-0.87697 3.80024,-0.0731 1.790497,1.24239 2.777097,1.20585 3.83678,1.1693"
         id="path911" />
      <path
         style="opacity:1;fill:none;stroke:#fcfcfc;stroke-width:2.46499991;stroke-linecap:round;stroke-linejoin:miter;stroke-miterlimit:4;stroke-dasharray:none;stroke-opacity:1"
         d="m 20.590682,264.91557 c 0,0 1.205845,-0.10962 2.557852,0.9866 1.46163,1.02315 2.813639,0.76736 2.813639,0.76736 0,0 1.267334,-0.0969 2.630935,-0.87698 1.971816,-1.12809 3.288668,-0.76736 4.348348,-0.1827 1.425091,0.69427 2.119365,1.13276 3.252128,1.20584 1.717416,-0.0731 2.338609,-0.91352 3.032882,-1.24239 1.205847,-0.73081 2.33861,-0.87697 3.80024,-0.0731 1.790497,1.24239 2.777097,1.20585 3.83678,1.1693"
         id="path911-3" />
    </g>
  </g>
</svg>
