<?xml version="1.0" encoding="utf-8"?>
<!-- Generator: Adobe Illustrator 26.3.1, SVG Export Plug-In . SVG Version: 6.00 Build 0)  -->
<svg version="1.1"
	 id="svg134" xmlns:sodipodi="http://sodipodi.sourceforge.net/DTD/sodipodi-0.dtd" xmlns:inkscape="http://www.inkscape.org/namespaces/inkscape" xmlns:svg="http://www.w3.org/2000/svg" sodipodi:docname="qi.svg" inkscape:version="1.1.1 (c3084ef, 2021-09-22)"
	 xmlns="http://www.w3.org/2000/svg" xmlns:xlink="http://www.w3.org/1999/xlink" x="0px" y="0px" viewBox="0 0 1400 1400"
	 style="enable-background:new 0 0 1400 1400;" xml:space="preserve">
<style type="text/css">
	.st0{fill:#FFBDBB;}
	.st1{fill:#DB5B54;}
	.st2{fill:#C4524C;}
	.st3{fill:#A24741;}
	.st4{fill:#3C1A26;}
	.st5{fill:#29121A;}
	.st6{fill:#421D2A;}
	.st7{fill:#BD967F;}
	.st8{fill:#886B59;}
	.st9{fill:#B88D73;}
	.st10{fill:#FFFFFF;}
	.st11{fill:#493239;}
	.st12{fill:#CAA390;}
	.st13{fill:#F2716A;}
	.st14{fill:#898989;}
	.st15{fill:#888888;}
	.st16{fill:#D6D6D6;}
	.st17{fill:#FDFDFD;}
	.st18{fill:#DCDCDC;}
</style>
<sodipodi:namedview  bordercolor="#666666" borderopacity="1.0" id="namedview136" inkscape:current-layer="svg134" inkscape:cx="699.09579" inkscape:cy="699.09579" inkscape:pagecheckerboard="0" inkscape:pageopacity="0.0" inkscape:pageshadow="2" inkscape:window-height="969" inkscape:window-maximized="0" inkscape:window-width="1312" inkscape:window-x="0" inkscape:window-y="38" inkscape:zoom="0.37119377" pagecolor="#ffffff" showgrid="false">
	</sodipodi:namedview>
<circle class="st0" cx="700.4" cy="699.6" r="699.6"/>
<path class="st1" d="M348.8,870.8L461.9,805L644,910.2L530.9,976L348.8,870.8z"/>
<path class="st2" d="M530.9,976L644,910.2l-0.1,52.4l-113.1,65.7L530.9,976z"/>
<path class="st3" d="M530.9,976l-0.1,52.4l-34.2-19.7l-113.9-65.7l-34.2-19.7l0.2-52.4L530.9,976z"/>
<path class="st3" d="M702.5,1075.2L363.2,877.9l-0.4-130.8l339.3,197.2L702.5,1075.2z"/>
<path class="st1" d="M1043.7,747.1l0.4,130.8l-341.6,197.2l-0.4-130.9L1043.7,747.1z"/>
<path class="st4" d="M1048.3,905.6l0.3,91.7l-140.8,81.3l-0.3-91.7L1048.3,905.6z"/>
<path class="st5" d="M907.7,1078.6L658.9,933.9l-0.3-91.7l248.9,144.6L907.7,1078.6z"/>
<path class="st6" d="M907.5,986.8L658.6,842.2l140.8-81.3l248.9,144.6L907.5,986.8z"/>
<path class="st4" d="M886.9,998l0.3,91.7L746.4,1171l-0.3-91.7L886.9,998z"/>
<path class="st5" d="M746.4,1171l-248.9-144.6l-0.3-91.7l248.9,144.6L746.4,1171z"/>
<path class="st6" d="M746.2,1079.3L497.3,934.7l140.8-81.3L886.9,998L746.2,1079.3z"/>
<path class="st1" d="M1043.7,747.1l0.4,130.8l-341.6,197.2l-0.4-130.9L1043.7,747.1z"/>
<path class="st3" d="M702.5,1075.2L363.2,877.9l-0.4-130.8l339.3,197.2L702.5,1075.2z"/>
<path class="st1" d="M702.2,944.3L362.8,747.1l341.6-197.2l339.3,197.2L702.2,944.3z"/>
<path class="st7" d="M1042,485.3l0.8,261.7L701.1,944.2l-0.7-261.7L1042,485.3z"/>
<path class="st8" d="M701.1,944.2L361.8,747l-0.7-261.6l339.3,197.2L701.1,944.2z"/>
<path class="st9" d="M700.4,682.5L361.1,485.3l341.6-197.2L1042,485.3L700.4,682.5z"/>
<path class="st10" d="M871.6,651.3l0.2,52.3l-45.5,26.3l0.1,52.3l45.6-26.3l-91.1,52.6l-0.3-104.7L871.6,651.3z"/>
<path class="st11" d="M871.8,703.6l0.2,52.4l-45.6,26.3l-0.1-52.3L871.8,703.6z"/>
<path class="st10" d="M1005.6,573.9l0.2,52.4l-45.5,26.3l0.1,52.3l45.5-26.3l-91.1,52.6l-0.3-104.7L1005.6,573.9z"/>
<path class="st11" d="M1005.7,626.3l0.1,52.3l-45.5,26.3l-0.1-52.3L1005.7,626.3z"/>
<path class="st8" d="M496.6,1008.6l-0.2,78.5l-113.9-65.7l0.2-78.5L496.6,1008.6z"/>
<path class="st7" d="M496.6,1008.6l113.1-65.7l-0.2,78.5l-113.1,65.7L496.6,1008.6z"/>
<path class="st12" d="M382.8,942.8l113.1-65.7l113.9,65.7l-113.1,65.7L382.8,942.8z"/>
<path class="st3" d="M530.9,976l-0.1,52.4l-34.2-19.7l-113.9-65.7l-34.2-19.7l0.2-52.4L530.9,976z"/>
<path class="st2" d="M530.9,976L644,910.2l-0.1,52.4l-113.1,65.7L530.9,976z"/>
<path class="st1" d="M348.8,870.8L461.9,805L644,910.2L530.9,976L348.8,870.8z"/>
<path class="st1" d="M1042.2,368.2l0.4,130.8L701,696.3l-0.4-130.8L1042.2,368.2z"/>
<path class="st3" d="M701,696.3L361.6,499.1l-0.4-130.8l339.3,197.2L701,696.3z"/>
<path class="st13" d="M700.6,565.5L361.3,368.2L702.8,171l339.3,197.2L700.6,565.5z"/>
<path class="st1" d="M980,598.4c28.4-16.8,59.1-29.3,91.1-37.2v52.3c-32,7.9-62.7,20.4-91.1,37.2c-32.8,19.2-63.3,42-91,67.9v-52.3
	C916.7,640.4,947.2,617.6,980,598.4z"/>
<path class="st3" d="M889.1,718.7L776,653l-0.2-52.4L889,666.3L889.1,718.7z"/>
<path class="st13" d="M889,666.3l-113.1-65.7c27.7-25.9,58.3-48.7,91-67.9c32.8-19.2,90.4-38.5,90.4-38.5l114,67.4
	c0,0-58.5,17.6-91.2,36.8C947.2,617.6,916.7,640.4,889,666.3z"/>
<path class="st14" d="M996.2,851.9l-22.6-13.2l-6-4.3l22.6,13.1L996.2,851.9z"/>
<path class="st14" d="M952.5,900.2L929.9,887l-11.8-10.5l22.6,13.1L952.5,900.2z"/>
<path class="st15" d="M723.5,957.7l-22.6-13.1l0-8.4l22.6,13.2L723.5,957.7z"/>
<path class="st16" d="M1067.3,713.3l0.1,23.1l0,14.3l0,8.4l-71.2,92.8l-6-4.3l-37.7,52.6l-11.8-10.5l-44.9,69.5l-45.2-17.5
	l-11.7,24.2l-37.9-9l-6,11.2l-71.5-10.4l0-8.4l-0.1-37.4L1067.3,713.3z"/>
<path class="st15" d="M723.5,949.3l-22.6-13.2l-0.1-37.4l22.6,13.2L723.5,949.3z"/>
<path class="st17" d="M723.4,911.9l-22.6-13.2l343.9-198.6l22.6,13.1L723.4,911.9z"/>
<path class="st17" d="M531.8,731.8l22.6-13.2l146.5,180l-22.6,13.1L531.8,731.8z"/>
<path class="st17" d="M678.4,911.7l22.6-13.1l22.8,13.1l-22.6,13.1L678.4,911.7z"/>
<path class="st16" d="M701.1,924.9l22.6-13.1l-0.1,45.9L701,970.8L701.1,924.9z"/>
<path class="st14" d="M532.1,624.4l-0.3,107.4l146.5,179.9l22.8,13.1l-0.1,45.9L531.4,867.5l-40.3-23.3L471,832.6l0.1-46.4
	l20.4-77.7l0.3-107.4L532.1,624.4z"/>
<path class="st17" d="M532.2,624.4l22.6-13.2l-0.3,107.4l-22.6,13.2L532.2,624.4z"/>
<path class="st18" d="M491.8,601.1l22.6-13.1l40.3,23.3l-22.6,13.2L491.8,601.1z"/>
</svg>
