<?xml version="1.0" encoding="UTF-8"?><svg id="CIRCLE_OUTLINE_BLACK" xmlns="http://www.w3.org/2000/svg" viewBox="0 0 512 512"><circle cx="256" cy="256" r="256" fill="#000" stroke-width="0"/><path d="M256.3435,470.55813c-118.71156.09258-214.39001-95.68148-215.07317-214.15678-.67594-117.22164,98.16226-212.81927,210.59424-214.92298,119.59088-2.23765,219.67103,98.52701,218.86369,214.35712-.82703,118.6565-95.76961,214.6301-214.38476,214.72264ZM453.30897,255.9244c-2.85734-109.39066-86.47578-196.28203-197.42199-196.13466-110.39882.14664-196.70099,85.77806-196.39762,196.50507.30335,110.72117,84.78035,196.66801,197.93166,196.06379,111.67967-.59641,192.89865-87.39461,195.88795-196.4342Z" fill="#fff" stroke-width="0"/><path d="M453.30897,255.9244c-2.9893,109.03959-84.20828,195.83779-195.88795,196.4342-113.15132.60422-197.62831-85.34262-197.93166-196.06379-.30336-110.72701,85.9988-196.35843,196.39762-196.50507,110.94621-.14737,194.56465,86.744,197.42199,196.13466ZM343.36959,174.88555c-8.64875,5.65076-16.67879,10.42805-24.20361,15.90006-24.43908,17.77201-33.79223,52.67217-18.60076,78.74266,13.57898,23.30324,30.35656,44.74264,45.76625,67.0674,13.01387-10.88893,15.21926-22.94072,6.48402-36.45287-7.85902-12.15689-16.73047-23.6567-24.67266-35.76305-13.0818-19.94068-8.88836-40.62682,10.62734-54.49342,5.8775-4.17615,11.77387-8.32576,18.68359-13.20996-4.75445-7.35605-9.24867-14.30943-14.08418-21.79082ZM168.01504,339.81602c7.73178-5.22281,13.99859-9.62934,20.43471-13.77291,24.8367-15.99002,37.84623-48.61105,24.65686-74.72189-13.18256-26.09736-31.76969-49.46475-48.20381-74.35633-12.98606,13.19588-14.70099,24.92318-6.16226,38.03457,7.20317,11.06061,15.04913,21.70039,22.47313,32.61988,15.71486,23.11396,12.31289,42.2424-10.2324,58.13391-5.47273,3.85752-10.95679,7.69895-17.41031,12.2325,5.03607,7.61135,9.3965,14.20152,14.44408,21.83027ZM174.37026,347.5854c11.2726,13.17039,23.68818,15.11414,37.62896,5.94895,12.07504-7.93855,23.60295-16.71355,35.72566-24.57449,18.82621-12.20777,39.55686-8.14182,52.69463,9.91227,4.68447,6.43742,9.20377,12.995,14.34883,20.27664,7.5777-5.13941,14.10086-9.56363,21.39059-14.50777-5.50074-8.33547-10.05301-15.94445-15.29312-23.04588-18.51277-25.08859-52.48932-35.06074-78.24-20.23877-23.72629,13.65672-45.53043,30.65293-68.25555,46.22906ZM173.46651,168.03161c5.8674,8.6317,10.66053,16.73418,16.46939,24.02768,16.18902,20.32662,38.68789,33.09975,62.6741,23.21111,29.52998-12.1741,56.00728-31.75293,84.38928-48.47633-13.07326-14.38335-25.60352-16.35388-38.56547-7.83522-12.08402,7.94165-23.66557,16.64694-35.73473,24.61239-18.85639,12.44492-39.5101,8.72463-52.85686-9.29742-4.77865-6.45256-9.23641-13.14279-14.41703-20.54852-7.69445,5.01302-14.67451,9.56061-21.95869,14.30631Z" fill="#000" stroke-width="0"/><path d="M343.36959,174.88555c4.83551,7.48139,9.32973,14.43477,14.08418,21.79082-6.90973,4.8842-12.80609,9.03381-18.68359,13.20996-19.5157,13.8666-23.70914,34.55273-10.62734,54.49342,7.94219,12.10635,16.81363,23.60615,24.67266,35.76305,8.73523,13.51215,6.52984,25.56395-6.48402,36.45287-15.40969-22.32477-32.18727-43.76416-45.76625-67.0674-15.19146-26.07049-5.83832-60.97064,18.60076-78.74266,7.52482-5.47201,15.55486-10.2493,24.20361-15.90006Z" fill="#fff" stroke-width="0"/><path d="M168.01504,339.81602c-5.04758-7.62875-9.40801-14.21893-14.44408-21.83027,6.45353-4.53355,11.93758-8.37498,17.41031-12.2325,22.54529-15.8915,25.94727-35.01994,10.2324-58.13391-7.424-10.91949-15.26996-21.55928-22.47313-32.61988-8.53873-13.11139-6.82381-24.83869,6.16226-38.03457,16.43412,24.89158,35.02125,48.25896,48.20381,74.35633,13.18937,26.11084.17984,58.73187-24.65686,74.72189-6.43611,4.14357-12.70293,8.5501-20.43471,13.77291Z" fill="#fff" stroke-width="0"/><path d="M174.37026,347.5854c22.72512-15.57613,44.52926-32.57234,68.25555-46.22906,25.75068-14.82197,59.72723-4.84982,78.24,20.23877,5.24012,7.10143,9.79238,14.71041,15.29312,23.04588-7.28973,4.94414-13.81289,9.36836-21.39059,14.50777-5.14506-7.28164-9.66436-13.83922-14.34883-20.27664-13.13777-18.05408-33.86842-22.12004-52.69463-9.91227-12.12271,7.86094-23.65062,16.63594-35.72566,24.57449-13.94078,9.1652-26.35637,7.22145-37.62896-5.94895Z" fill="#fff" stroke-width="0"/><path d="M173.46651,168.03161c7.28418-4.7457,14.26424-9.29329,21.95869-14.30631,5.18062,7.40572,9.63838,14.09596,14.41703,20.54852,13.34676,18.02205,34.00047,21.74234,52.85686,9.29742,12.06916-7.96545,23.6507-16.67074,35.73473-24.61239,12.96195-8.51865,25.49221-6.54812,38.56547,7.83522-28.38199,16.7234-54.8593,36.30223-84.38928,48.47633-23.98621,9.88863-46.48508-2.88449-62.6741-23.21111-5.80887-7.2935-10.60199-15.39598-16.46939-24.02768Z" fill="#fff" stroke-width="0"/></svg>