<?xml version="1.0" encoding="UTF-8"?><svg id="CIRCLE_OUTLINE_BLACK" xmlns="http://www.w3.org/2000/svg" viewBox="0 0 512 512"><circle cx="256" cy="256" r="256" fill="#111727" stroke-width="0"/><path d="m229.23012,256.50829c-59.85999-24.47058-119.33617-14.53192-153.15681-4.80726-.03833,1.52996-.11597,3.05021-.11597,4.58987,0,9.62519.77347,19.06745,2.22724,28.28407,30.69959-7.86669,87.41135-15.81683,142.83918,11.02413,46.8032,22.66598,82.24987,65.1554,105.77181,126.40269,13.41733-5.73261,25.99617-13.04273,37.50506-21.70423-33.54648-72.43883-78.82942-120.78412-135.07051-143.78928Z" fill="#6dd7bd" stroke-width="0"/><path d="m428.29583,203.32469c-22.62133-73.63301-91.15545-127.16743-172.20484-127.16743-22.50391,0-44.02618,4.16189-63.88699,11.69959,62.45845,6.89136,158.16835,31.98207,236.09183,115.46784Z" fill="#c7f384" stroke-width="0"/><path d="m427.45782,311.83082c4.9635-15.32432,7.92443-31.54147,8.58484-48.35742C335.95736,119.90345,184.57313,115.28253,141.69066,117.14827c-11.52005,9.48253-21.82409,20.37953-30.68697,32.40617,127.88801-20.11944,237.81103,36.14105,316.45413,162.27638Z" fill="#bbed8b" stroke-width="0"/><path d="m110.00459,361.62163c30.18281,41.78729,77.82789,70.08349,132.25467,74.22111-41.09194-62.74183-99.08619-73.70676-132.25467-74.22111Z" fill="#1bc6e3" stroke-width="0"/><path d="m210.83764,317.16698c-48.77327-23.72186-100.24349-16.12399-127.32028-9.20692,3.16473,10.58499,7.28683,20.7488,12.24742,30.41766,35.64514-1.84779,121.73276,4.41082,174.31709,97.45288,11.74811-.90351,23.17693-2.92502,34.18651-5.97474-21.2452-54.94404-52.55327-92.81885-93.43074-112.68888Z" fill="#3dcdce" stroke-width="0"/><path d="m90.15202,186.08902c-4.2536,10.04201-7.58185,20.56489-9.96777,31.44054,39.37614-9.56308,99.13569-15.66787,160.69935,9.39082,61.69759,25.11255,111.31566,75.84957,148.03123,151.02709,8.57514-9.35734,16.14777-19.63712,22.61017-30.65058-77.87156-137.90819-188.22596-193.27099-321.37299-161.20788Z" fill="#8ee29f" stroke-width="0"/></svg>