<?xml version="1.0" encoding="UTF-8"?><svg id="Layer_1" xmlns="http://www.w3.org/2000/svg" width="160" height="160" viewBox="0 0 160 160"><defs><style>.cls-1{fill:#00c1b9;}.cls-2{fill:#00d9ce;}</style></defs><circle cx="80" cy="80" r="80"/><polygon class="cls-1" points="93.65 43.39 120.83 43.39 85.41 79.97 116.59 115.49 88.46 115.49 70.34 95.62 46.27 120.56 46.27 93.74 93.65 43.39"/><polygon class="cls-2" points="51.22 42.83 46.94 46.74 46.94 42.83 51.22 42.83"/><polygon class="cls-2" points="56.07 42.83 46.94 51.02 46.94 48.41 53.09 42.83 56.07 42.83"/><polygon class="cls-2" points="61.1 42.83 46.94 55.68 46.94 53.07 58.12 42.83 61.1 42.83"/><polygon class="cls-2" points="66.13 42.83 46.94 60.34 46.94 58.1 63.71 42.83 66.13 42.83"/><polygon class="cls-2" points="66.69 44.69 66.69 46.55 46.94 66.3 46.94 62.95 66.69 44.69"/><polygon class="cls-2" points="46.94 69.1 66.69 49.16 66.69 51.58 46.94 71.33 46.94 69.1"/><polygon class="cls-2" points="46.94 74.12 66.69 54.38 66.69 57.54 46.94 77.11 46.94 74.12"/><polygon class="cls-2" points="25.21 104.82 60.3 66.3 93.22 34.87 62.19 68.58 25.21 104.82"/></svg>