<?xml version="1.0" encoding="UTF-8" standalone="no"?>
<svg
   version="1.1"
   viewBox="0 0 1600 1600"
   width="400"
   height="400"
   id="svg1459"
   sodipodi:docname="KASPER.svg"
   inkscape:version="1.1.1 (c3084ef, 2021-09-22)"
   xmlns:inkscape="http://www.inkscape.org/namespaces/inkscape"
   xmlns:sodipodi="http://sodipodi.sourceforge.net/DTD/sodipodi-0.dtd"
   xmlns="http://www.w3.org/2000/svg"
   xmlns:svg="http://www.w3.org/2000/svg">
  <defs
     id="defs1463" />
  <sodipodi:namedview
     id="namedview1461"
     pagecolor="#ffffff"
     bordercolor="#666666"
     borderopacity="1.0"
     inkscape:pageshadow="2"
     inkscape:pageopacity="0.0"
     inkscape:pagecheckerboard="0"
     showgrid="false"
     inkscape:zoom="1.7975"
     inkscape:cx="205.56328"
     inkscape:cy="192.2114"
     inkscape:window-width="1800"
     inkscape:window-height="1097"
     inkscape:window-x="0"
     inkscape:window-y="44"
     inkscape:window-maximized="1"
     inkscape:current-layer="svg1459" />
  <circle
     style="fill:#01a8ae;stroke-width:4;fill-opacity:1"
     id="path2343"
     cx="800"
     cy="800"
     r="800" />
  <path
     transform="translate(781,164)"
     d="m0 0h36l14 1 19 3 15 2 7 2 12 2 14 4 12 3 21 7 25 12 23 12 18 11 8 5v2l6 2 1 3 4 1 1 2 4 2v2l4 1 3 3v2l4 1 2 3 5 3 9 10 13 12 3 5 4 4v2l4 2 1 3 3 2v3h2l1 3 2 1v3h2l1 4h2v3h2l2 6h2v3h2v3h2l1 5h2l3 6v2h2l13 27 7 14 5 13 2 6 5 14 2 9 3 8 2 10 2 6 3 12 2 14 1 1 4 28 3 33 1 18v47l-1 21-2 21-3 39-2 37-1 3v31l2 18 5 13 5 11v2h2l1 5h2l1 5h2l1 5h2v3h2v3h2v3h2v3h2v3l3 1v3h2v3h2v3l3 1v3l3 1v3h2l1 4 3 1 1 3 3 2 2 4 5 5 4 5 5 5 9 10 7 6 7 8 9 10 5 5 9 10 5 5 5 6 4 4 5 6 5 7 2 1v3h2v3h2l2 6h2v3h2l1 5h2l2 7h2l2 7h2l5 10 6 14v4h2l3 11 4 10 2 7 5 21 2 12v19l-4 15-9 13-7 6-11 4-6 2-19 1-12-1-1-1-16-3-21-8-15-8-6-3v-2l-6-2v-2h-3v-2h-3v-2h-3v-2l-4-1v-2l-4-1v-2l-4-1v-2l-5-2v-2l-4-1-3-3-7-6-4-3v-2l-4-2-5-4-1-32-5-36-8-39-5-16-4-8v-2h-2v31l-1 30-1 54v34l1 44 3 50 2 16 2 8 4 25 4 16 4 17 7 24 6 17 5 11 3 7 4 10 9 17v4h2l4 8-1 4-9 4-18 4-14 1-13-2-16-5-28-15-13-8-12-7-10-4-7-1-9 4-9 7-8 10-11 15-9 11-12 14-14 13-17 13-10 7-14 8-15 7-21 7-19 4-8 1h-32l-18-3-21-6-16-6-18-8-22-12-27-18-16-11-18-13-17-12-17-11-16-9-17-8-9-3-23-2-12 3-16 6-28 14-15 8-15 6-19 5-10 1h-9l-20-3-13-3-4-2-1-5 5-9 4-11 4-10 11-30 9-33 5-24 2-10 4-30 2-14 2-32v-100l-2-47-6-64v-7h-2l-3 9-6 26-6 44-1 12-1 40-8 7-13 12-14 11-17 13-19 11-9 5-7 3-25 6-2 1-10 1h-13l-16-2-9-4-7-3v-2l-4-1v-2l-3-1-6-10-4-10-2-17 2-20 6-25 6-16 5-14 13-26 10-18h2l1-4 4-5 1-3h2l2-4 7-9 2-4 4-4 7-8h2l2-4 12-12 6-8 8-7 9-10 5-5 6-8 5-5 8-9 2-4 5-5 7-9 1-3h2l2-4 7-10 1-3h2v-3h2v-3h2l4-10h2l3-9 8-17 2-15v-40l-5-78-1-24v-50l2-32 4-34 3-20 1-1 3-19 2-6 3-15 6-21 3-8 6-17 5-12 4-8 3-7 8-16 6-13h2l1-5 1-2h2l1-5 3-5h2v-3h2l2-6 4-6h2v-3l5-5 1-3 3-3 7-8 4-6 5-4 3-4h2l2-4h2l2-4 7-7 8-7 7-6 5-4 3-3h3v-2h3v-2h3v-2l5-3 4-3h3v-2l11-6h2v-2l7-2v-2l17-8 10-5 15-5 10-4 18-5 13-4 13-3 27-5 16-2z"
     fill="#FCFDFD"
     id="path1299" />
  <path
     transform="translate(805,81)"
     d="m0 0h44l5 1 14 1 23 5 9 2 12 3 43 9 21 7 20 5 12 5 9 5 19 9 15 6 11 4 9 4 10 4 16 8 9 4 5 4 8 4 5 4 8 4 8 5 4 4 14 10 16 12 20 16 9 6 11 8 6 5v2h2v2l4 2 3 2v2l4 2 16 14 22 22 16 14 7 8 6 9 5 8v2h2l9 15 8 11 14 18 6 9 8 15 8 11 10 18 7 11 8 17 12 24 10 21 14 44 8 23 6 31 3 30 4 65 2 12v49l-1 32-4 37-3 13-1 2-3 21-3 8-2 11-8 27-6 25-4 23-4 16-7 22-5 11-2 5-11 9-4 5-3 15-4 1-2-7-4-11-8-24-5-13-7-15-8-16-8-14-8-12-9-12-9-11-12-13-7-8-20-20v-2h-2l-7-8-8-8-7-8-9-10-11-14-12-17-10-15-7-12-4-10-1-8h-2l-1-22 1-22 1-4 1-22 2-27 2-16 1-31v-63l-2-38-5-34-4-24-8-33-10-31-10-27-7-17-8-16-13-23-14-19-12-16-10-13-4-4v-2l-4-2-7-8-13-12-13-11-14-11-21-15-4-3-11-6-17-9-16-8-8-2-27-11-28-8-28-6-30-4-26-2h-35l-24 2-28 4-24 5-31 9-28 11-16 8-21 11-13 8-14 9-19 14-11 10-8 7-8 8h-2l-2 4h-2l-2 4-13 14-11 15-9 12-10 15-12 20-12 23-9 21-12 34-8 28-7 30-6 35-4 35-2 28v63l2 42 3 45 1 21v17l-1 12-5 13-6 9-11 18-12 17-12 16-9 10-9 11-6 7h-2l-2 4-9 9-7 8-9 9-7 8-8 8-9 11-12 15-7 8-1 2h-2l-2 5-4 7h-2l-1 5-1 2h-2v3h-2v4h-2v4h-2l-1 5-4 8-6 15-9 25-3 6-4 2-5-6-1-5-3-3-2-5-4-4-6-16-8-21-4-10-4-9-6-15-6-22-5-21-3-17-8-39-3-15-3-28-3-58v-50l3-28 6-32 2-14 3-18 5-23 3-15 10-31 6-16 6-15 3-8 7-15 6-13 9-17 5-9 10-19 8-12 11-16 12-17 7-8 6-9 13-17 9-12h2l2-4 12-12 1-2h2v-2l5-5 4-5 11-9 5-6h2v-2h2l2-4 5-6 8-7 9-9 11-9 4-4 8-4 11-10 7-5h2v-2l13-8 10-7 11-8 13-8 11-7 32-18 17-8 10-4 16-7 14-7 13-5 20-9 13-4 20-6 6-3 17-4 5-2 20-4 17-4 23-4 12-1 11-2 20-1h11l6-1z"
     fill="#0FF8FA"
     id="path1303" />
  <path
     transform="translate(780,130)"
     d="m0 0h35l36 3 31 5 32 8 21 7 26 11 23 12 14 8 33 22 16 13 16 15 13 13 7 8 10 11 13 17 12 18 10 17 12 22 8 17 10 26 7 21 5 18 7 29 5 32 3 29 2 41v39l-2 43-4 49-2 33v33l3 12 6 12 10 16 10 14 9 12 13 16 9 11 14 15 7 8 11 12 13 12 12 12 9 11 11 14 10 15 8 13 11 21 9 23 7 20 7 29 3 26v14l-2 16-7 19-6 11-12 13-11 7-15 6-17 3h-22l-14-2-20-6-20-9-16-9-11-8-12-9-11-8-11-11-6-5h-2l2 27 4 39 6 39 6 29 7 26 11 33 9 21 10 18 12 18 1 4-1 13-6 12-6 7-15 9-10 4-16 3h-25l-14-2-18-5-17-8-15-9-20-13-8-5-4 1-12 18-16 20-12 13-9 10h-2v2l-11 9-13 10-19 12-22 11-25 9-23 5-20 2h-22l-21-3-25-6-28-10-20-10-23-13-19-12-14-10-19-14-17-13-21-14-18-10-16-6-10-2h-7l-13 4-17 8-18 10-32 14-18 5-21 3h-17l-16-2-15-4-14-7-10-10-4-8-2-7v-13l4-9 9-14 8-15 9-24 10-35 7-35 5-37 2-24 2-39v-20l-5 3-11 12-14 12-18 13-19 11-16 7-16 5-13 3-8 1h-28l-18-4-14-6-12-9-10-11-9-17-4-13-2-13v-18l4-26 7-28 10-29 11-25 13-23 8-11 10-13 11-13 7-8 8-8 7-8 9-9 7-8 6-7h2l2-4 11-12 8-10 6-7 14-19 16-25 6-10 4-8 2-6 1-12v-17l-3-53-2-31-1-24v-63l3-39 5-37 7-36 8-31 12-36 8-21 12-25 10-18 13-20 12-17 7-9 8-10 12-13 5-6 8-7 8-8 22-18 19-13 17-10 18-10 15-8 28-11 25-8 24-6 30-5 18-2zm1 34-23 2-31 5-6 2-15 3-9 3-22 6-9 4-17 6-22 11v2l-7 2v2l-5 2-8 4v2l-4 1-5 4-3 1v2h-3v2h-3v2h-3l-3 3-5 4-16 14-8 8v2l-4 2v2l-4 2-4 5-3 3-7 9-6 6-4 7-2 1v3h-2l-6 10v2h-2v3h-2l-4 7v3h-2l-2 3v4h-2l-10 21-6 11-4 11-4 9-7 17-3 11-3 8-6 22-1 7-2 6-3 19-2 7-4 29-3 30-1 21v50l2 40 4 62v40l-2 15-9 20-2 6h-2l-4 8v2h-2v3h-2v3h-2l-4 7-6 8v2h-2l-3 5-8 11-3 3-12 15-4 4-6 7-5 5-9 10-6 5-9 11-7 6-4 5v2l-3 1-7 8-4 4-3 5-7 9v2h-2l-4 7-2 2v3h-2l-10 18-10 19-5 12-6 18-3 7-6 25-2 21 2 16 5 12 6 9h2v2l4 1v2l13 6 7 2 12 1h13l10-1 16-4 13-4 16-8 17-10 17-13 11-9 20-18 4-3 1-40 4-36 5-30 5-18 2-7h2l1 16 5 55 2 47v100l-2 32-2 14-5 38-3 13-8 32-6 19-9 25-5 14-8 16 1 5 7 3 21 4 9 1h9l15-2 20-6 23-11 19-10 17-8 15-5 8-1 21 2 16 6 23 12 20 13 18 13 17 12 16 11 21 14 15 9 21 11 23 9 20 6 14 3 8 1h32l19-3 21-6 19-8 15-8 13-9 14-11 20-18 9-11 11-13 12-17 8-9 9-6 7-2 9 2 14 7 17 10 16 9 16 8 13 4 13 2 14-1 21-5 7-4-1-5-3-6h-2l-1-6-10-19-3-8-5-11-4-12-4-10-7-24-4-17-6-26-3-21-2-10-2-24-2-34-1-44v-34l1-54 1-30v-31h2l2 6 5 12 8 36 4 23 3 24 1 32 7 6h2l2 4 5 3 8 8h3l1 3 4 1v2l4 1v2l4 1v2l4 1v2h3v2h3v2h3v2l6 2v2l6 3 17 9 19 7 16 3 1 1 20 1 11-1 9-3 10-4 5-5 7-10 3-5 3-13v-19l-3-17-4-16-2-7-5-13-2-8h-2l-1-6-4-8-4-10-2-4h-2l-2-7h-2l-2-7h-2l-1-5h-2v-3h-2l-2-6h-2v-3h-2v-3l-5-5-4-6-8-8-4-5-5-5-9-10-12-12-7-8-5-6-8-7-8-10-5-4-4-6-3-2-2-4-2-1-2-4h-2l-1-4h-2l-1-4h-2l-1-4h-2v-3h-2v-3h-2l-1-4h-2v-3h-2v-3h-2v-3h-2v-3h-2v-3h-2l-1-5h-2l-1-5h-2l-1-5h-2l-3-9-4-8-4-14-1-13v-31l1-3 3-50 3-41 1-6 1-21v-47l-2-30-4-36-2-13-2-6-2-13-3-13-2-7-3-11-2-4-3-12-4-9-4-13-8-18-10-19-4-9h-2l-2-5-1-3h-2l-1-5h-2v-3h-2v-3h-2l-2-6h-2v-3h-2l-1-4h-2v-3l-2-1-1-3h-2l-1-4-2-1-3-5h-2l-2-5-4-4-7-8-8-7-10-11-4-2-2-3h-3l-2-4-2-2h-3l-1-3-3-1-2-3h-3l-1-3-6-2-1-3-12-7-17-10-23-12-21-10-27-9-18-4-6-2-12-2-8-2-25-3-4-1-14-1z"
     fill="#010101"
     id="path1305" />
  <path
     transform="translate(596,246)"
     d="m0 0 3 1-1 5-3 5-5 4-1 2h-2v2l-4 4-1 2h-2v2l-5 5-4 5-1 2h-2l-1 4-7 11-3 5-7 11-5 13-10 21-8 21-6 17-9 29-4 15-6 27-3 28-2 29-1 28 2 34 2 30v15l1 7 1 19 1 6 1 16 3 26 1 16 3 14 2 19 4 33 3 22 3 17 1 10 5 33 3 18 4 16 5 23 2 10 6 22 5 20 5 19 3 8 2 9 7 21 6 14 2 3 3 11 3 8 6 14 5 16 3 4 3 9 6 16 6 15 2 4 3 9 8 17 7 12 5 12 9 16v2h2l3 8 5 8 8 13 6 10 9 13 6 8 7 8 5 4 8 12v2h2l2 5h2l5 9 2 1v2l4 2 6 8 10 6 18 13 5 4 18 9 11 5 15 6 17 4 15 2h20l11-2 9-1 21-6 16-8 10-6 5-1v-2l5-4 5-5 3-1 2-4 4-2 2-4 8-8 6-5 10-14h2l2-4 2-6h2l2-4 9-15 6-11 7-11 5-9 8-13 7-14h2l3-9 4-9 7-15 5-11 6-16 11-29 2-9 3-7 6-22 5-21 6-21 3-12 3-10 6-32 2-15 1-16 3-13 1-13 3-14h4l2 16v191l2 26 2 9 2 22 4 23 1 12 3 9 4 18v8h2l5 20 2 7 4 9v5h2l3 9 5 13 6 12 4 10 1 4h2l4 11v3h2l1 2 5 1-3 2-18 4-14 1-13-2-16-5-28-15-13-8-12-7-10-4-7-1-9 4-9 7-8 10-11 15-9 11-12 14-14 13-17 13-10 7-14 8-15 7-21 7-19 4-8 1h-32l-18-3-21-6-16-6-18-8-22-12-27-18-16-11-18-13-17-12-17-11-16-9-17-8-9-3-23-2-12 3-16 6-28 14-15 8-15 6-19 5-10 1h-9l-20-3-13-3-2-2 9 1 1-6h2l3-11h2l1-5 4-11 3-6 4-13 4-10 3-12 3-8h2v-9l5-19 2-9 1-2 5-39 2-27 1-25 1-6v-78l-2-57-8-110-2-32-1-2-2-37-10-124-4-62-1-44v-37l1-22 4-39 4-23 6-28h2v-7l7-24 8-23 5-12 12-26 12-21 10-14 6-8 9-13 4-3 2-4 28-28 5-1v-2l14-10z"
     fill="#66DEEF"
     id="path1307" />
  <path
     transform="translate(939,339)"
     d="m0 0h17l16 3 8 3 12 6 11 8 10 9 11 14 10 16 7 15 5 15 2 9 2 14 2 22v34l-3 22-2 11-6 19-12 24-7 11-2 3h-2l-2 5-13 13h-3v2l-6 4h-3v2l-11 5-17 4h-25l-13-2-15-6-12-7-11-9-10-10-1-4-3-1-5-7v-3h-2l-1-5h-2l-6-12-6-17-3-8-5-23-1-8v-39l3-21 5-21 9-24 10-18 6-8h2l2-5 2-3h2l2-4 11-9 10-7 9-5 10-4z"
     fill="#010202"
     id="path1317" />
  <path
     transform="translate(647,339)"
     d="m0 0h19l11 3 10 4 11 5v2l4 1 3 2v2l5 2 12 12 12 16 8 14 6 15 5 15 3 19 2 22v40l-5 27-5 19-5 12-7 13-2 4h-2l-1 4-3 4h-2l-2 5-11 11-11 8-11 6-13 4-10 2-12 1h-11l-16-4-13-5-15-10-10-9-7-9v-2h-2l-1-4h-2l-4-8v-2h-2l-8-16-5-15-5-19-3-15-1-10v-28l2-15 2-18 5-18 4-13 4-9 7-14 9-13 9-10 10-9 14-9 13-6 6-2z"
     fill="#010202"
     id="path1319" />
  <path
     transform="translate(596,246)"
     d="m0 0 3 1-1 5-3 5-5 4-1 2h-2v2l-4 4-1 2h-2v2l-5 5-4 5-1 2h-2l-1 4-7 11-3 5-7 11-5 13-10 21-8 21-6 17-9 29-4 15-6 27-3 28-2 29-1 28 2 34 2 30v15l1 7 1 19 1 6 1 16 3 26 1 16 3 14 2 19 4 33 3 22 3 17 1 10 5 33 3 18 4 16 5 23 2 10 6 22 5 20 5 19 3 8 2 9 7 21 6 14 2 3 3 11 3 8 6 14 5 16 3 4 3 9 6 16 6 15 2 4 3 9 8 17 7 12 5 12 9 16v2h2l3 8 5 8 8 13 6 10 9 13 6 8 7 8 5 4 8 12v2h2l2 5h2l5 9 2 1v2l4 2 6 8 10 6 18 13 5 4 18 9 11 5 15 6 17 4 15 2h20l11-2 9-1 21-6 16-8 10-6 5-1v-2l5-4 5-5 3-1 2-4 4-2 2-4 8-8 6-5 10-14h2l2-4 2-6h2l2-4 9-15 6-11 7-11 5-9 8-13 7-14h2l3-9 4-9 7-15 5-11 6-16 11-29 2-9 3-7 6-22 5-21 6-21 3-12 3-10 6-32 2-15 1-16 3-13 1-13 3-14h4l2 16v55l-1 105h-1l-1-62-4 4-2 3-3 14-6 23-3 6-3 13-5 17-6 25-3 6-4 15-8 16-3 7-4 10-2 3-4 13-8 16-5 9-6 10-8 17-6 10-10 16-10 18-8 13-8 11-4 5-3 5-8 7-16 16-5 3-4 5-7 4-10 7-15 7-14 4-11 4-11 3-25 1-29-1-17-2-31-12-15-7-15-8-15-11-7-5v-2l-4-2-17-17-8-9-6-7-7-10v-2h-2l-5-6-4-8-11-14-5-9-5-6-5-10-5-6-4-8-5-6-5-10-4-10-6-10-8-13-4-8-10-19-3-8-6-14-6-13-4-11-6-15-3-10-6-15-3-10-3-7-2-12-7-19-2-10-2-5-4-16-5-21-3-11-6-30-2-8-3-19-2-5-5-23-1-2-4-35-1-2v-12l-2-7-4-34-2-11-2-31-1-5-1-17-1-3-3-43-2-15-2-12-2-26v-13l-1-10v-70l1-9v-11l1-3 1-12 3-12 2-12 6-19 2-16 6-26 1-10 3-7 1-13 4-9 1-2v-9l3-8h2l1-7 1-2h2l2-5 1-6-1-3 1-4-4 5-9 14-9 17-10 21-3 8-1-4 8-18 8-16 8-15 10-15 8-11 9-12 5-5 2-4 28-28 5-1v-2l14-10z"
     fill="#9DE9F6"
     id="path1321" />
  <path
     transform="translate(593,257)"
     d="m0 0 2 1-3 3-3 7-10 19-12 19-6 11-10 19-13 33-5 17-5 15-7 29-3 14-2 15-3 17v8l-1 5-1 30 3 52 2 20 6 90 3 30 5 34 2 18 1 15 3 19 3 22 3 16 5 29 7 31 6 26 7 27 7 24 13 42 12 41 12 34 12 31 8 19 9 17 11 23 13 22 6 9 5 9 7 10 12 16 8 11 9 11 1 3h2l7 10 7 8 11 8 17 12 12 9 12 6 11 3 20 7 5 2 12 2 18 1 22-1 13-2 17-6 7-4 7-3 8-6 6-4 8-7 6-4 21-21 1-2h2l2-4 8-10 10-17 13-23 11-23 8-16 5-12 3-8 9-22 9-23 7-21 12-33 15-50 10-31 6-15 9-31 4-20 3-12 3-4 4 1 2 7 1 24v35l-1 17h-1l-1-54-2-16h-2l-3 14-1 13-3 15-1 14-3 22-5 23-2 10-3 8-4 16-7 27-4 17-3 10-3 7-3 12-6 15-6 16-5 14-5 10-7 16-7 15h-2l-3 9-10 17-5 7-6 11-7 11-6 11-7 11h-2l-1 6-3 4h-2l-2 4-8 11-15 14-18 18h-2v2l-12 6-19 10-25 7h-7l-9 2h-20l-15-2-20-5-19-8-16-8-10-6-13-10-14-9-5-5-5-6-2-1v-2l-4-2-3-6v-2h-2l-2-5h-2l-5-8-3-4v-2l-3-1v-2l-4-2-9-10-7-11-7-10-7-12-6-9-6-11v-4h-2l-8-14-6-13-15-30-4-9-1-5-4-9-6-14-4-11-3-8-4-9-5-15-4-9-5-14-2-7-5-10-8-22-3-11-2-8-4-13-12-47-2-5-3-16-5-22-3-16-4-23-4-28-2-13-3-24-1-7-4-31-2-19-3-16-2-26-3-24v-7l-1-5-1-19-1-8v-14l-2-30-2-38 2-38 3-37 5-25 8-30 8-25 6-17 8-20 12-26 4-9 5-8 3-5 8-12 1-3h2l2-5 6-7h2v-2h2l2-5 3-1v-2h2l2-4z"
     fill="#F3FDFE"
     id="path1323" />
  <path
     transform="translate(641,652)"
     d="m0 0h4v3h-2l-2 5 1 4 2 4 5 2 7 5v2l4 1v2l5 2 2 1v2l4 1 3 2v2h3v2h3v2h3v2h3v2l4 1 4 2v2l4 1 9 5 15 8 23 8 25 5 10 1h36l14-2 22-4 22-7 16-8 17-10 16-11 19-14 13-10 3-3h2l-2-10 7 1 2 1v2l4 1 8 9 5 10 4 15v19l-3 5-4 1-3-2v-3h-2l-5-13-4-8v-2h-3l-2 4-6 5h-2l-2 4-9 7h-3l-1 3-3 1-3 4h-2l-1 13-7 23-6 18-9 18-6 11h-2l-1 4-10 13-14 14-4 1-1 3-11 7-11 6-11 4-18 5-8 1h-20l-19-3-18-6-17-9-12-9-12-11-6-7v-2l-4-2-1-4h-2v-3h-2v-3h-2v-3h-2l-1-5h-2l-5-10-5-13-3-6-5-17-3-11-3-8-4-11-13-10-16-13v-2l-3 1-4 11-5 11-2 4-5-1-3-5-1-3v-10l2-9 6-16 7-11 7-6z"
     fill="#010202"
     id="path1325" />
  <path
     transform="translate(1146,869)"
     d="m0 0 4 4 8 14 8 15 8 16 6 11 8 16 7 11 6 12 16 22 5 4 5 10h2l2 6h2l2 5h2l2 5h2l9 11 1 3h2l5 5 11 8 3 3 5 2 1 2 3 1v2l5 1 7 4 7 3 4 1h8l4-5 3-12h2l1 5h2l4 14 2 15-1 9-3 9-8 9h-3v2l-10 2-9 1h-16l-21-5-17-7v-2l-6-1v-2h-3v-2h-4v-2h-3v-2l-4-1-11-7-14-11-7-6-7-8-9-8-8-8v-3l-4-2-5-5v21h-1l-1-25-5-36-8-39-5-16-4-8v-2h-2v31l-1 30-1 54v71h-1l-1-25v-73l1-55 1-12 1-26v-27l3-1 8 7h2v-29z"
     fill="#66DEEF"
     id="path1327" />
  <path
     transform="translate(456,878)"
     d="m0 0h2l2 8 2 20 2 1 2 16 2 7-2 16 3 1-1 32h-1l-4-42v-7h-2l-3 9-6 26-6 44-1 12-1 40h-1l-1-7-1-21-3 3h-2v3h-2v3h-2v3l-3 2-3 5-5 5-7 8-6 6h-3l-2 4h-3l-2 4-4 1v2l-4 1-1 3h-3v2l-3 1-1 2h-3v2h-3v2h-3v2l-7 2v2l-18 7-10 4-21 3h-11l-17-2-3-1v-2l-4-1-5-5-3-2-4-8-1-5v-19l4-19 3-10 3-9 8-20 8-14 2 1-1 5h-2l-1 6-5 13-3 4-5 19-2 11 1 5 5 6 3 1 1 2 10 3 13-2 8-2 17-10 9-6 1-2h2l1-3 10-8 1-2h2l1-3 7-6 5-5 2-3h2l2-4 4-5h2l2-4 4-6 9-13 6-9 3-7 6-9 5-9 5-11 1-3h2l2-5 7-14 1-3h2l2-7 9-27z"
     fill="#67DEEF"
     id="path1329" />
  <path
     transform="translate(593,257)"
     d="m0 0 2 1-11 12-12 16-10 15-8 14-8 16-9 19-5 11-9 26-8 26-8 35-4 35-2 35v15l1 29 6 91 2 14 3 27 1 4 2 19 2 13 2 22 4 35 3 11 1 12 3 11 7 40 2 14 3 16 4 16 2 11 2 8 5 21 10 37 7 19 4 10 7 22 5 17 4 10 3 9 7 19 6 17 6 15 5 13 7 14 5 13 13 26 10 17 11 19 3 6 11 15 8 12 5 5 2 4h2l7 10 8 11 5 6 2 1v2l4 2 13 14 22 18 13 8 20 10 18 7 15 4 15 1h20l12-1 12-3 20-7 16-8 11-8 12-10h2l2-4 5-6 8-7 9-13h2l2-5 3-4h2l2-6 7-10 6-8 8-16 10-15 3-7 4-8h2l1-5 7-14 3-5 3-7 8-15 9-26 3-7 6-15 8-22 4-16 4-13 4-19 4-11 3-7 5-23 4-14 5-26 4-27 2-10h1v12l-3 15-1 14-3 22-5 23-2 10-3 8-4 16-7 27-4 17-3 10-3 7-3 12-6 15-6 16-5 14-5 10-7 16-7 15h-2l-3 9-10 17-5 7-6 11-7 11-6 11-7 11h-2l-1 6-3 4h-2l-2 4-8 11-15 14-18 18h-2v2l-12 6-19 10-25 7h-7l-9 2h-20l-15-2-20-5-19-8-16-8-10-6-13-10-14-9-5-5-5-6-2-1v-2l-4-2-3-6v-2h-2l-2-5h-2l-5-8-3-4v-2l-3-1v-2l-4-2-9-10-7-11-7-10-7-12-6-9-6-11v-4h-2l-8-14-6-13-15-30-4-9-1-5-4-9-6-14-4-11-3-8-4-9-5-15-4-9-5-14-2-7-5-10-8-22-3-11-2-8-4-13-12-47-2-5-3-16-5-22-3-16-4-23-4-28-2-13-3-24-1-7-4-31-2-19-3-16-2-26-3-24v-7l-1-5-1-19-1-8v-14l-2-30-2-38 2-38 3-37 5-25 8-30 8-25 6-17 8-20 12-26 4-9 5-8 3-5 8-12 1-3h2l2-5 6-7h2v-2h2l2-5 3-1v-2h2l2-4z"
     fill="#CCF2FA"
     id="path1331" />
  <path
     transform="translate(431,1109)"
     d="m0 0h5l1 1v7l2 4-1 41-2 23-3 21-2 20-7 29-3 9h-2l-2 5-7 2-14-2-10-8-7-8-13-10-7-7-6-10v-2h-2l-7-11-7-7-5-4-6-11-10-14v-9h-12l1-2 14-1 27-6 7-1v-2l8-3 8-2 16-7 19-13 13-10 10-8h2z"
     fill="#0FF8FA"
     id="path1333" />
  <path
     transform="translate(1159,1107)"
     d="m0 0 8 1 11 10 9 6 8 6 10 7 14 8 10 4 12 5 18 6 15 3 24 2-1 3-17 1 1 8-5 10-5 9-4 5-7 10h-2l-2 4-6 7h-2v2l-6 5-3 5h-2l-2 4h-2l-2 4-15 15-9 7-9 2-2 6-4 3-2-1-4-8-4-9-6-22-6-25-2-11v-6h-1l-2-12v-11l-2-2-3-27v-10h-1l-1-21z"
     fill="#0FF8FA"
     id="path1335" />
  <path
     transform="translate(472,862)"
     d="m0 0h1l6 88 4 54 2 57v78l-1 6-2 41-3 28-3 22-2 5-5 22-2 12h-2l-1 7-3 8-4 14-4 9-3 10-4 8-3 9h-2l-1 7-2 4h-2l-1 6-11-1-1-5 5-9 4-11 4-10 11-30 9-33 5-24 2-10 4-30 2-14 2-32v-100l-2-47-1-11v-43l-2-1v-10l1-6-2-7-1-16-3-1-3-28-2 1-2 7-2 6-6 20-4 8h-2l-1 5-6 12-3 5h-2l-1 5-3 7-5 9-7 11-6 12-8 11-7 10-4 6-5 5-3 4h-2l-2 4-4 2-2 4-6 5-1 2h-2l-2 4-9 7-1 2h-2l-1 3-19 12-9 5-17 3-9-2-4-2v-2l-4-1-6-7 1-8 2-11 5-17 2-1-2 10-1 16 5 5 4 1h10l9-2 17-8h2v-2l10-7 7-6h2l2-4 5-4 6-8 5-5 4-6 9-12 8-10 6-8 7-10 7-14 7-11 8-11 4-8h2l1-5 2-4h2l1-4 12-24 7-11 4-1 1 2 1 9v9h2l4 11v2h3l1-5z"
     fill="#9DE9F6"
     id="path1337" />
  <path
     transform="translate(578,277)"
     d="m0 0 1 2-11 16-8 13-3 6-8 15-9 17-9 22-10 32-4 13-3 16-5 20-3 24-1 22v46l3 42 1 13 1 4 2 28 6 68 4 38 5 39 4 23 6 36 9 48 5 21 3 12 5 21 5 18 7 26 10 31 8 28 12 36 8 21 7 20 9 22 3 7 13 27 7 14 9 14 4 8 5 9 7 10 3 5 8 11 12 16 8 10 3 4v2h2l5 8v2h2l4 6 1 3 4 2 4 3v2l4 2 11 9 8 6 10 7 9 5 10 6 25 10 8 3 20 3h21l24-3 4-2 9-2 15-8 16-8h2l2-4 11-9 5-4h2l2-4 5-5 7-8 11-14 14-18 5-10 4-6 6-11 9-17 4-9 6-11 8-16 9-19 5-14 8-18 10-28 9-27 9-30 4-14 6-19 5-20 6-19 6-31h1l-1 13-3 19-5 25-6 22-3 14-3 7-3 8-6 26-5 16-2 8-7 20-6 15-3 7-9 26-10 18-3 8-5 9-3 6-2 5h-2l-1 4-4 7-2 5-8 13-8 14-3 5-10 15-4 7h-2l-2 4-3 5h-2l-2 5-9 11-4 4h-2l-2 4-5 6-10 8-8 6-7 5-19 9-20 7-9 2-12 1h-20l-15-1-21-6-19-8-8-5-12-6-16-12-10-9-8-7-9-10-2-1v-2l-4-2-11-14-4-6-3-4v-2h-2l-5-6v-2l-4-2-12-18-8-11-5-10-8-14-9-15-8-16-8-17-5-13-8-16-6-16-6-18-7-18-3-7-4-13-5-15-6-21-5-14-5-11-8-27-6-23-4-17-3-12-2-9-4-19-4-23-5-30-4-20-1-7-2-12-2-7-3-29-2-15-2-18-2-14-1-13-2-14-3-24-2-22-5-76-1-40 1-26 4-41 4-20 6-26 7-22 9-26 8-18 13-25 5-10 9-15 10-14z"
     fill="#E5FAFE"
     id="path1339" />
  <path
     transform="translate(461,726)"
     d="m0 0h1l5 57 4 54 1 23v39l-2 5h-3l-4-9v-4h-2l-2-20-4 2-6 10-14 28h-2l-3 9h-2l-1 5-10 14-8 13-4 8-6 10-8 10-4 6-9 11-8 11-4 6-5 4-6 8-10 9-12 9h-2v2l-21 10-7 1h-12l-6-4-2-5 1-14 4-14 4-10 2-6 1 4-2 6 3 9h13l10-4 14-12 8-9 20-20 11-15 12-17 9-15 17-26 8-14 12-16 11-14 5-11 4-14 3-15 8-13 2-9-2-57z"
     fill="#F3FDFE"
     id="path1341" />
  <path
     transform="translate(694,383)"
     d="m0 0h10l10 3 13 10 5 5v3h2l5 10 4 10 1 7 1 1v22l-6 15-6 8-7 7-9 5-6 2h-12l-10-3-12-9-9-11-6-13-4-13v-15l3-13 5-10 6-9 7-5 3-3 7-3z"
     fill="#F9FCFD"
     id="path1343" />
  <path
     transform="translate(987,383)"
     d="m0 0h12l10 3 2 1v2l4 2 11 11v2h2v3h2l4 8 5 15 1 17-2 13-7 13-9 10-10 6-5 1h-18l-7-3v-2l-5-2-7-6-9-13-7-16-1-5v-19l4-14 6-10 8-9h2v-2l10-5z"
     fill="#FAFCFD"
     id="path1345" />
  <path
     transform="translate(475,974)"
     d="m0 0 2 1 2 12 2 10 2 36 1 29v83l-2 41-3 28-3 22-2 5-5 22-2 12h-2l-1 7-3 8-4 14-4 9-3 10-4 8-3 9h-2l-1 7-2 4h-2l-1 6-11-1-1-5 5-9 4-11 4-10 11-30 9-33 5-24 2-10 4-30 3-23h2v-16l1-5v-95l-1-58-1-20 2-2z"
     fill="#F0FAFB"
     id="path1347" />
  <path
     transform="translate(1146,869)"
     d="m0 0 4 4 8 14 8 15 8 16 6 11 8 16 7 11 6 12 16 22 5 4 5 10h2l2 6h2l2 5h2l2 5h2l9 11 1 3h2l5 5 11 8 3 3 5 2 1 2 3 1v2l5 1 7 4 7 3 4 1h8l4-5 3-12h2l1 5h2l4 14 2 15-1 9h-1l-1-11-2-4-7 4-9 1-6-3-9-2-11-6-16-8-8-7-9-7-11-10-7-8-1-3h-2l-7-9v-2h-2l-4-6-11-13-6-8-10-19-13-26-3-3-6-12-4-6-6-12-7-10-3-1-3 4-5-1-5-6-2-1v27l-2 65-1 54v71h-1l-1-25v-73l1-55 1-12 1-26v-27l3-1 8 7h2v-29z"
     fill="#98E6F3"
     id="path1349" />
  <path
     transform="translate(468,811)"
     d="m0 0h1l2 26 1 23v39l-2 5h-3l-4-9v-4h-2l-2-20-4 2-6 10-14 28h-2l-3 9h-2l-1 5-10 14-8 13-4 8-6 10-8 10-4 6-9 11-8 11-4 6-5 4-6 8-10 9-12 9h-2v2l-21 10-7 1h-12l-6-4-2-5 1-14 2-7h1l2 9 3 4 11 2 11-2 13-9 6-5h2v-2l8-7 2-3h2v-2h2v-2h2v-2l5-5 11-13 8-12 9-12 10-16 11-15 10-15 6-10 5-8 7-9 11-15 10-11 6-16 5-4 2-4 1-7z"
     fill="#E4F9FD"
     id="path1351" />
  <path
     transform="translate(1144,866)"
     d="m0 0 6 1 6 7 3 5 7 11 6 11 6 10v3h2l15 25 17 25 7 9 10 13 9 10v2h2l6 8 21 21 7 5 12 5 11 7 6 3h10l7-2 3 3v6l-2-3v-2h-2l-1 10-4 6-2 2h-8l-10-3-5-4-8-3v-2l-4-1v-2l-5-1-7-6-12-9v-2h-2l-7-9-3-3v-2h-2l-2-5h-2l-2-5h-2l-2-6h-2l-4-5-1-5-4-2-9-11-8-12-6-10-4-8-6-9-4-8-2-5-10-19-5-10-8-15-9-15-3 3v29h-4l-7-6h-2v27l-1 26h-1l-1-54h2v-2l7-2 2-8 2-12z"
     fill="#F3FDFE"
     id="path1353" />
  <path
     transform="translate(472,862)"
     d="m0 0h1l6 88 4 54 2 57v78h-1l-1-77-2-52-1-13-2-10-2-12-4 2 1 20 1 58v95l-1 5-1 16h-2l1-23v-100l-2-47-1-11v-43l-2-1v-10l1-6-2-7-3-21v-11l2 4 3 9h3l1-5z"
     fill="#BDEFF8"
     id="path1355" />
  <path
     transform="translate(472,317)"
     d="m0 0 1 2-14 27-8 19-12 34-8 28-7 30-6 35-4 35-2 28v63l2 42 3 45 1 21v17l-1 12-5 13-6 9-1-3 6-9 2-6 1-11v-25l-1-27-2-16-3-49-2-36 1-38 5-49 1-5 3-26 5-28 5-23 5-15 2-8 7-23 6-15 6-12 2-5h2l2-6 10-19z"
     fill="#01A8AE"
     id="path1357" />
  <path
     transform="translate(451,876)"
     d="m0 0 1 3-4 7-5 9-8 16h-2l-3 9h-2l-1 5-10 14-8 13-4 8-6 10-8 10-4 6-9 11-8 11-4 6-5 4-6 8-10 9-12 9h-2v2l-21 10-7 1h-12l-6-4-2-5 1-14 1-5h1l-1 18 4 2 7 1h11l12-5 8-5 5-2 1-3 11-9h2l2-4 11-12 7-8 4-6 10-13 2-3h2l2-5 9-13 4-6 3-5 6-9 6-10 2-1 5-10 5-6 5-9 7-10 6-11z"
     fill="#CCF2FA"
     id="path1359" />
  <path
     transform="translate(475,974)"
     d="m0 0 2 1 2 12 2 10 2 36 1 29v83l-1 7h-1l-1-23-2 7h-1l-2-7-2-4-2-128-1-20 2-2z"
     fill="#EFFCFE"
     id="path1361" />
  <path
     transform="translate(1150,873)"
     d="m0 0 5 5 13 23 8 16 12 23 7 11 3 5 8 14 4 6v2h2l1 4h2v2h2l7 8 4 5 2 5 4 4v2l3 1 5 7v2h2l5 7 7 5 6 7 2 1v2h2v2l4 1v2l20 10 15 5h6l7-12h3l-2 1-1 10-4 6-2 2h-8l-10-3-5-4-8-3v-2l-4-1v-2l-5-1-7-6-12-9v-2h-2l-7-9-3-3v-2h-2l-2-5h-2l-2-5h-2l-2-6h-2l-4-5-1-5-4-2-9-11-8-12-6-10-4-8-6-9-4-8-2-5-10-19-5-10-8-15-6-10z"
     fill="#CCF2FA"
     id="path1363" />
  <path
     transform="translate(1156,880)"
     d="m0 0 4 4 12 22 11 21 9 15 11 18 10 14 1 3 5 5 7 9 4 4 3 5 5 6 8 10 4 4v2h2l14 14 9 5v2l5 2 16 8 5 1h9l7-5-2 5-3 6-1 1-10-1-16-6-11-6-4-3v-2l-4-1v-2h-2v-2l-4-2-4-4v-2l-4-2-8-8v-2h-2l-6-9-4-4v-2l-3-1-4-8-8-8v-2h-2v-2h-2l-1-4h-2l-7-12-6-10-4-7-4-5-7-14-10-18-8-16-8-14z"
     fill="#E5FAFE"
     id="path1365" />
  <path
     transform="translate(441,1032)"
     d="m0 0h1v14l-4-2-7 10-7 9-14 15-14 8-11 9-10 5-8 3-7 4-13 6-9 2h-5v-3l14-4 11-5 8-2v-2l4-2h3v-2h3v-2h3v-2h3l1-3h3v-2l3-1 3-3h2v-2l5-3 1-2 4-2 1-2 5-3 9-9 5-7 3-2 3-5h2v-3h2v-3h2v-3z"
     fill="#EDFCFE"
     id="path1367" />
  <path
     transform="translate(787,127)"
     d="m0 0h23l20 1 20 2 24 4 25 6 29 9 21 8 1 2-5-1-18-7-28-8-28-6-30-4-26-2h-35l-24 2-28 4-24 5-31 9-28 11-5 1 4-3 20-8 27-9 26-7 27-5 24-3z"
     fill="#01A8AE"
     id="path1369" />
  <path
     transform="translate(637,163)"
     d="m0 0 3 1-23 12-27 16-16 11-13 10-10 9-8 7-8 8h-2l-2 4h-2l-2 4-13 14-11 15-9 12-10 15-10 16-1-3 6-9 2-4 4-6 1-3h2v-3h2v-3l3-3 2-5 7-10h2l2-5 11-12 3-1 2-5 5-6h2v-2l4-4 3-1 5-4 10-10 11-9 5-5 4-3h2v-2l12-8 5-3 8-5 10-6 11-6 7-3z"
     fill="#01A8AE"
     id="path1371" />
  <path
     transform="translate(475,974)"
     d="m0 0 2 1 2 12 2 10 2 36v29h-1l-2-29-3-10-2-5v11l-1 9h-1l-1-41-1-20 2-2z"
     fill="#E2F9FD"
     id="path1373" />
  <path
     transform="translate(442,524)"
     d="m0 0h1v146h-1l-2-32-1-24v-50l2-32z"
     fill="#5DCBD3"
     id="path1375" />
  <path
     transform="translate(477,1073)"
     d="m0 0 4 4 2 9 1 16-2 18-3-4-2 2-2-9 1-34z"
     fill="#FDFEFE"
     id="path1377" />
  <path
     transform="translate(1156,1097)"
     d="m0 0 5 1 20 18 12 8 10 8 18 11 13 7-4 1-20-10-14-9-6-5-10-7-8-7-7-6v-3l-8-1z"
     fill="#03A9AF"
     id="path1379" />
  <path
     transform="translate(1157,1033)"
     d="m0 0 4 2 5 5 3 5 5 4 5 6 8 7 5 6 11 9 10 7-3 1-22-14-7-8-19-19-4-1-1 3z"
     fill="#E9FBFD"
     id="path1381" />
  <path
     transform="translate(1144,866)"
     d="m0 0h4l2 4-1 3-3-3-2 3v29h-4l-7-6h-2v27l-1 26h-1l-1-54h2v-2l7-2 2-8 2-12z"
     fill="#ECFBFE"
     id="path1383" />
  <path
     transform="translate(598,1368)"
     d="m0 0h7l10 3 5 4 4 2v2h3v2h-12l-13-2-11-4-1-3z"
     fill="#10F9FB"
     id="path1385" />
  <path
     transform="translate(472,1048)"
     d="m0 0h1l1 7v95l-1 5-1 16h-2l1-23z"
     fill="#47C5CE"
     id="path1387" />
  <path
     transform="translate(345,854)"
     d="m0 0h2v2h-2l-2 4-9 9-7 8-9 9-7 8-8 8-9 11-12 15-3 3 2-5 8-10 3-5 2-3h2l1-4 4-4 1-2h2l2-4h2l2-4 8-10 6-5 5-5 10-9z"
     fill="#01A8AE"
     id="path1389" />
  <path
     transform="translate(456,939)"
     d="m0 0 1 4-5 22-6 44-1 12-1 40h-1l-1-30v-15l6-43 6-28z"
     fill="#01A8AE"
     id="path1391" />
  <path
     transform="translate(1156,1095)"
     d="m0 0 3 1-3 1 1 6 5-1 3 2 1 4-7-1v11l1 9h1v14l3 24h1l1 10h-3l-3-21-5-53v-5z"
     fill="#02A9AF"
     id="path1393" />
  <path
     transform="translate(1111,910)"
     d="m0 0 3 1 3 12 1 12v35l-1 17h-1l-1-54-2-16h-2l-3 14h-1l1-13z"
     fill="#E3F9FD"
     id="path1395" />
  <path
     transform="translate(462,907)"
     d="m0 0h2l2 16 2 7-2 16 3 1-1 32h-1l-3-33-2-30z"
     fill="#8EE3EF"
     id="path1397" />
  <path
     transform="translate(597,242)"
     d="m0 0 6 1v5l-3 1-2 6-3 2 4-10-4 1-12 8-4 2v2l-8 4 2-5 9-9 12-7z"
     fill="#EEFCFE"
     id="path1399" />
  <path
     transform="translate(397,788)"
     d="m0 0 1 2-12 18-12 16-7 8-9 11-9 10v-3l8-9 5-7h2l2-6 5-5 6-8 1-3h2l2-5 4-2 2-4 8-12z"
     fill="#01A8AE"
     id="path1401" />
  <path
     transform="translate(370,1097)"
     d="m0 0 3 1-2 3-7 4-15 7-11 3h-5v-3l14-4 11-5 8-2v-2z"
     fill="#E5FAFD"
     id="path1403" />
  <path
     transform="translate(589,1318)"
     d="m0 0 16 2 12 4-3 1-6-2-23-2-12 3-16 6-22 11-2-1 22-12 12-5 14-4z"
     fill="#01A8AE"
     id="path1405" />
  <path
     transform="translate(1116,1355)"
     d="m0 0 9 2 10 3h14l8-1h11l11-1v1l-18 4-14 1-13-2-16-5z"
     fill="#01A8AE"
     id="path1407" />
  <path
     transform="translate(519,327)"
     d="m0 0 1 2-9 14-9 17-10 21-3 8-1-4 8-18 8-16 8-15 5-8z"
     fill="#A6EAF6"
     id="path1409" />
  <path
     transform="translate(295,998)"
     d="m0 0 2 1-1 5h-2l-1 6-4 10-2 1-2-1-1 6-4 10-1-4 8-20z"
     fill="#A9EBF7"
     id="path1411" />
  <path
     transform="translate(468,980)"
     d="m0 0 2 1 2 18v49h-1l-2-47-1-11z"
     fill="#42C3CC"
     id="path1413" />
  <path
     transform="translate(1144,866)"
     d="m0 0h4l2 4-1 3-3-3-2 3v29h-4l-7-6 3-1 6 3v-26z"
     fill="#D9F6FC"
     id="path1415" />
  <path
     transform="translate(1111,903)"
     d="m0 0 4 1 2 7v12h-1l-3-12-2-1-1 4-3 1 1-8z"
     fill="#EFFCFE"
     id="path1417" />
  <path
     transform="translate(443,670)"
     d="m0 0 2 4 1 11v31h-1l-2-29z"
     fill="#48C4CD"
     id="path1419" />
  <path
     transform="translate(535,300)"
     d="m0 0 3 1-8 10-9 13-1-3 8-14z"
     fill="#E8FAFD"
     id="path1421" />
  <path
     transform="translate(465,939)"
     d="m0 0h1v7l3 1-1 32h-1l-2-23z"
     fill="#5CCED8"
     id="path1423" />
  <path
     transform="translate(1111,910)"
     d="m0 0 3 1 2 7v15h-1l-2-16h-2l-3 14h-1l1-13z"
     fill="#CCF2FA"
     id="path1425" />
  <path
     transform="translate(293,1113)"
     d="m0 0 13 1h11l16-1-4 3-5 1-22-1-9-2z"
     fill="#BEF0F9"
     id="path1427" />
  <path
     transform="translate(585,1356)"
     d="m0 0 7 1 1 2-9 3h-9l4-4z"
     fill="#10F9FB"
     id="path1429" />
  <path
     transform="translate(473,1131)"
     d="m0 0h1v19l-1 5-1 16h-2l1-23z"
     fill="#92DEE5"
     id="path1431" />
  <path
     transform="translate(259,1054)"
     d="m0 0h1v17l-1 3-1 17h-1l-1-14 2-18z"
     fill="#77D5DD"
     id="path1433" />
  <path
     transform="translate(1159,1141)"
     d="m0 0h2l3 24h1l1 10h-3l-3-21z"
     fill="#02AEB4"
     id="path1435" />
  <path
     transform="translate(595,245)"
     d="m0 0h6l-1 6-4 6v-3l3-7-4 1-12 8-4 2v2l-2-1 5-5z"
     fill="#CCF2FA"
     id="path1437" />
  <path
     transform="translate(535,309)"
     d="m0 0h2l-1 5-4 6h-5l2-6z"
     fill="#67DFF0"
     id="path1439" />
  <path
     transform="translate(1144,866)"
     d="m0 0h4l2 4-1 3-3-3-2 3-1 11h-1v-12z"
     fill="#D8F5FB"
     id="path1441" />
  <path
     transform="translate(1243,1120)"
     d="m0 0 10 1 6 2 1 3-9-2-8-3z"
     fill="#93DEE3"
     id="path1443" />
  <path
     transform="translate(441,1027)"
     d="m0 0 2 4v23h-1l-1-21-3 2 2-5z"
     fill="#9FE9F6"
     id="path1445" />
  <path
     transform="translate(1157,1029)"
     d="m0 0 4 4-1 2-3-2v21h-1v-23z"
     fill="#9FE9F6"
     id="path1447" />
  <path
     transform="translate(1148,867)"
     d="m0 0 4 2 4 5-1 4-5-5z"
     fill="#EEFCFE"
     id="path1449" />
  <path
     transform="translate(456,868)"
     d="m0 0h4l1 4v10h-1l-1-11-4 2-3 3 2-5z"
     fill="#CCF2FA"
     id="path1451" />
  <path
     transform="translate(590,262)"
     d="m0 0 1 3-3 5-8 7v-3l9-10z"
     fill="#EBFBFE"
     id="path1453" />
  <path
     transform="translate(1156,1097)"
     d="m0 0 5 1 4 6-8-1z"
     fill="#64DBEA"
     id="path1455" />
  <path
     transform="translate(4,594)"
     d="m0 0 1 3-4 14h-1v-10l2-1z"
     fill="#96E0E7"
     id="path1457" />
</svg>
