<?xml version="1.0" encoding="UTF-8"?><svg id="Layer_1" xmlns="http://www.w3.org/2000/svg" width="128" height="128" viewBox="0 0 128 128"><defs><style>.cls-1{fill:#4a9079;}.cls-2{fill:#fdfdfd;}</style></defs><circle class="cls-2" cx="64" cy="64" r="64"/><path class="cls-1" d="M104.41,102.89h-28.19s-.22-.18-.22-.18l-34.91-27.25,14.29-11.46,48.8,38.71.24.18Z"/><path class="cls-1" d="M104.41,25.11h-28.19s-.22.19-.22.19l-34.91,27.25,14.29,11.46,48.8-38.71.24-.19Z"/><path class="cls-1" d="M41.1,65.73v36.98s0,.19,0,.19h-.02s-.22-.19-.22-.19l-16.99-13.43-.04-.03-.25-.19v-50.12l.25-.19.04-.03,16.99-13.43.22-.17h.02s0,.17,0,.17v27.24s0,.03,0,.03v13.16Z"/></svg>