<?xml version="1.0" encoding="utf-8"?>
<svg version="1.1" id="BAZ" x="0px" y="0px" viewBox="0 0 490 490" style="enable-background:new 0 0 490 490;" xmlns="http://www.w3.org/2000/svg">
  <style type="text/css">
	.st0{fill:#EE8133;}
	.st1{fill:#FFFFFF;}
	.st2{fill:none;stroke:#FFFFFF;stroke-width:2;stroke-linecap:round;stroke-linejoin:round;}
</style>
  <path id="Full" class="st0" d="M0,245c0,135.1,109.9,245,245,245s245-109.9,245-245S380.1,0,245,0S0,109.9,0,245z" style="fill: rgb(10, 164, 180);"/>
  <g id="svg_1" fill="#000000" transform="matrix(0.1, 0, 0, -0.1, -69.642128, 64.194641)">
    <path fill="#ffffff" id="svg_19" d="M 3096.178 -584.595 L 3096.178 -669.595 L 3261.178 -669.595 L 3426.178 -669.595 L 3426.178 -824.595 L 3426.178 -979.595 L 3671.178 -979.595 L 3916.178 -979.595 L 3916.178 -889.595 L 3916.178 -799.595 L 3761.178 -799.595 L 3606.178 -799.595 L 3606.178 -649.595 L 3606.178 -499.595 L 3351.178 -499.595 L 3096.178 -499.595 L 3096.178 -584.595 Z"/>
    <path fill="#ffffff" id="svg_20" d="M 2796.178 -799.595 L 2796.178 -1049.595 L 2946.178 -1049.595 L 3096.178 -1049.595 L 3096.178 -1209.595 L 3096.178 -1369.595 L 3186.178 -1369.595 L 3276.178 -1369.595 L 3276.178 -1119.595 L 3276.178 -869.595 L 3121.178 -869.595 L 2966.178 -869.595 L 2966.178 -709.595 L 2966.178 -549.595 L 2881.178 -549.595 L 2796.178 -549.595 L 2796.178 -799.595 Z"/>
    <path fill="#ffffff" id="svg_21" d="M 4076.178 -954.595 L 4076.178 -1119.595 L 3921.178 -1119.595 L 3766.178 -1119.595 L 3766.178 -1364.595 L 3766.178 -1609.595 L 3856.178 -1609.595 L 3946.178 -1609.595 L 3946.178 -1454.595 L 3946.178 -1299.595 L 4096.178 -1299.595 L 4246.178 -1299.595 L 4246.178 -1044.595 L 4246.178 -789.595 L 4161.178 -789.595 L 4076.178 -789.595 L 4076.178 -954.595 Z"/>
    <path fill="#ffffff" id="svg_22" d="M 2126.178 -894.595 L 2126.178 -979.595 L 2291.178 -979.595 L 2456.178 -979.595 L 2456.178 -1164.595 L 2456.178 -1349.595 L 2701.178 -1349.595 L 2947.178 -1349.595 L 2944.178 -1261.595 L 2941.178 -1174.595 L 2784.178 -1171.595 L 2626.178 -1168.595 L 2626.178 -989.595 L 2626.178 -809.595 L 2376.178 -809.595 L 2126.178 -809.595 L 2126.178 -894.595 Z"/>
    <path fill="#ffffff" id="svg_23" d="M 2146.178 -1294.595 L 2146.178 -1449.595 L 1986.178 -1449.595 L 1826.178 -1449.595 L 1826.178 -1704.595 L 1826.178 -1959.595 L 1916.178 -1959.595 L 2006.178 -1959.595 L 2006.178 -1794.595 L 2006.178 -1629.595 L 2166.178 -1629.595 L 2326.178 -1629.595 L 2326.178 -1384.595 L 2326.178 -1139.595 L 2236.178 -1139.595 L 2146.178 -1139.595 L 2146.178 -1294.595 Z"/>
    <path fill="#ffffff" id="svg_24" d="M 3416.178 -1309.595 L 3416.178 -1469.595 L 3267.178 -1469.595 L 3119.178 -1469.595 L 3112.178 -1561.595 C 3109.178 -1611.595 3106.178 -1699.595 3106.178 -1756.595 L 3106.178 -1859.595 L 3135.178 -1859.595 C 3150.178 -1859.595 3189.143 -1856.777 3223.143 -1859.777 L 3286.178 -1858.676 L 3286.178 -1760.595 L 3286.178 -1649.595 L 3441.178 -1649.595 L 3596.178 -1649.595 L 3596.178 -1399.595 L 3596.178 -1149.595 L 3506.178 -1149.595 L 3416.178 -1149.595 L 3416.178 -1309.595 Z"/>
    <path fill="#ffffff" id="svg_25" d="M 2476.178 -1549.595 L 2476.178 -1639.595 L 2641.178 -1639.595 L 2806.178 -1639.595 L 2806.178 -1749.595 L 2806.178 -1859.595 L 2896.178 -1859.595 L 2986.178 -1859.595 L 2986.178 -1659.595 L 2986.178 -1459.595 L 2731.178 -1459.595 L 2476.178 -1459.595 L 2476.178 -1549.595 Z"/>
    <path fill="#ffffff" id="svg_26" d="M 4066.178 -1609.595 L 4066.178 -1759.595 L 3876.178 -1759.595 L 3686.178 -1759.595 L 3686.178 -1849.595 L 3686.178 -1939.595 L 3966.178 -1939.595 L 4246.178 -1939.595 L 4246.178 -1789.595 L 4246.178 -1639.595 L 4376.178 -1639.595 L 4506.178 -1639.595 L 4506.178 -1549.595 L 4506.178 -1459.595 L 4286.178 -1459.595 L 4066.178 -1459.595 L 4066.178 -1609.595 Z"/>
    <path fill="#ffffff" id="svg_27" d="M 4386.178 -1924.595 L 4386.178 -2089.595 L 4231.178 -2089.595 L 4076.178 -2089.595 L 4076.178 -2334.595 L 4076.178 -2579.595 L 4166.178 -2579.595 L 4256.178 -2579.595 L 4256.178 -2424.595 L 4256.178 -2269.595 L 4406.178 -2269.595 L 4556.178 -2269.595 L 4556.178 -2014.595 L 4556.178 -1759.595 L 4471.178 -1759.595 L 4386.178 -1759.595 L 4386.178 -1924.595 Z"/>
    <path fill="#ffffff" id="svg_28" d="M 2146.178 -1929.595 L 2146.178 -2079.595 L 2016.178 -2079.595 L 1886.178 -2079.595 L 1886.178 -2169.595 L 1886.178 -2259.595 L 2106.178 -2259.595 L 2326.178 -2259.595 L 2326.178 -2109.595 L 2326.178 -1959.595 L 2516.178 -1959.595 L 2706.178 -1959.595 L 2706.178 -1869.595 L 2706.178 -1779.595 L 2426.178 -1779.595 L 2146.178 -1779.595 L 2146.178 -1929.595 Z"/>
    <path fill="#ffffff" id="svg_29" d="M 3406.178 -2054.595 L 3406.178 -2249.595 L 3656.178 -2249.595 L 3906.178 -2249.595 L 3906.178 -2159.595 L 3906.178 -2069.595 L 3746.178 -2069.595 L 3586.178 -2069.595 L 3586.178 -1964.595 L 3586.178 -1859.595 L 3496.178 -1859.595 L 3406.178 -1859.595 L 3406.178 -2054.595 Z"/>
    <path fill="#ffffff" id="svg_30" d="M 2796.178 -2289.595 L 2796.178 -2569.595 L 2881.178 -2569.595 L 2966.178 -2569.595 L 2966.178 -2379.595 L 2966.178 -2189.595 L 3126.178 -2189.595 L 3286.178 -2189.595 L 3286.178 -2099.595 L 3286.178 -2009.595 L 3041.178 -2009.595 L 2796.178 -2009.595 L 2796.178 -2289.595 Z"/>
    <path fill="#ffffff" id="svg_31" d="M 2446.178 -2264.595 L 2446.178 -2419.595 L 2291.178 -2419.595 L 2136.178 -2419.595 L 2136.178 -2674.595 L 2136.178 -2929.595 L 2226.178 -2929.595 L 2316.178 -2929.595 L 2316.178 -2764.595 L 2316.178 -2599.595 L 2471.178 -2599.595 L 2626.178 -2599.595 L 2626.178 -2354.595 L 2626.178 -2109.595 L 2536.178 -2109.595 L 2446.178 -2109.595 L 2446.178 -2264.595 Z"/>
    <path fill="#ffffff" id="svg_32" d="M 3116.178 -2599.595 L 3116.178 -2849.595 L 3266.178 -2849.595 L 3416.178 -2849.595 L 3416.178 -3009.595 L 3416.178 -3169.595 L 3506.178 -3169.595 L 3596.178 -3169.595 L 3596.178 -2919.595 L 3596.178 -2669.595 L 3441.178 -2669.595 L 3286.178 -2669.595 L 3286.178 -2509.595 L 3286.178 -2349.595 L 3201.178 -2349.595 L 3116.178 -2349.595 L 3116.178 -2599.595 Z"/>
    <path fill="#ffffff" id="svg_33" d="M 3446.178 -2449.595 L 3446.178 -2539.595 L 3601.178 -2539.595 L 3756.178 -2539.595 L 3756.178 -2724.595 L 3756.178 -2909.595 L 4011.178 -2909.595 L 4266.178 -2909.595 L 4266.178 -2824.595 L 4266.178 -2739.595 L 4101.178 -2739.595 L 3936.178 -2739.595 L 3936.178 -2549.595 L 3936.178 -2359.595 L 3691.178 -2359.595 L 3446.178 -2359.595 L 3446.178 -2449.595 Z"/>
    <path fill="#ffffff" id="svg_34" d="M 2476.178 -2829.595 L 2476.178 -2919.595 L 2631.178 -2919.595 L 2786.178 -2919.595 L 2786.178 -3069.595 L 2786.178 -3219.595 L 3036.178 -3219.595 L 3286.178 -3219.595 L 3286.178 -3134.595 L 3286.178 -3049.595 L 3126.178 -3049.595 L 2966.178 -3049.595 L 2966.178 -2894.595 L 2966.178 -2739.595 L 2721.178 -2739.595 L 2476.178 -2739.595 L 2476.178 -2829.595 Z"/>
  </g>
</svg>