<svg xmlns="http://www.w3.org/2000/svg" xmlns:xlink="http://www.w3.org/1999/xlink" width="620.842" height="620.706" viewBox="0 0 620.842 620.706"><defs><linearGradient id="a" x1="0.307" y1="-0.024" x2="1" y2="1" gradientUnits="objectBoundingBox"><stop offset="0" stop-color="#ed1cb5"/><stop offset="0.517" stop-color="#00e7d4"/><stop offset="1" stop-color="#07fded"/></linearGradient><linearGradient id="b" x1="0.5" x2="1" y2="1" gradientUnits="objectBoundingBox"><stop offset="0" stop-color="#ed1cb5"/><stop offset="1" stop-color="#f8ac07"/></linearGradient><linearGradient id="c" x1="1" x2="0" y2="1" gradientUnits="objectBoundingBox"><stop offset="0" stop-color="#00fff4"/><stop offset="0.468" stop-color="#ccbf05"/><stop offset="1" stop-color="#ffa900"/></linearGradient><clipPath id="d"><ellipse cx="295.218" cy="295.083" rx="295.218" ry="295.083" fill="#606060"/></clipPath><linearGradient id="e" x1="0.275" y1="-0.013" x2="0.5" y2="1" gradientUnits="objectBoundingBox"><stop offset="0" stop-color="#0f0d27"/><stop offset="0.182" stop-color="#1d2050"/><stop offset="0.409" stop-color="#2a3767"/><stop offset="0.665" stop-color="#1b1f4d"/><stop offset="1" stop-color="#101230"/></linearGradient><linearGradient id="f" x1="0.551" y1="0.499" x2="1.089" y2="0.485" gradientUnits="objectBoundingBox"><stop offset="0" stop-color="orange"/><stop offset="1" stop-color="#076c95"/></linearGradient><linearGradient id="g" x1="0.1" y1="-0.1" x2="1.087" y2="0.869" gradientUnits="objectBoundingBox"><stop offset="0.14" stop-color="#bc0050"/><stop offset="0.19" stop-color="#a12569"/><stop offset="0.28" stop-color="#7b588b"/><stop offset="0.36" stop-color="#5a84aa"/><stop offset="0.45" stop-color="#3faac3"/><stop offset="0.55" stop-color="#28c9d8"/><stop offset="0.64" stop-color="#16e1e9"/><stop offset="0.75" stop-color="#0af2f4"/><stop offset="0.86" stop-color="#02fcfb"/><stop offset="1" stop-color="#00fffd"/></linearGradient></defs><g transform="translate(-0.027 0.001)"><g transform="translate(-0.001 -0.001)"><g transform="translate(155.316)"><path d="M278.766,71.629A275.607,275.607,0,0,1,692.352,310.341h34.683A310.368,310.368,0,0,0,261.482,41.581h0Z" transform="translate(-261.482 -0.001)" fill="url(#a)"/></g><g transform="translate(0 41.638)"><path d="M41.449,494.2A308.428,308.428,0,0,0,155.238,607.576l17.322-30.009A275.452,275.452,0,0,1,34.652,338.914c0-98.485,54.8-188.942,140.129-238.12L155.34,70.221C7,155.967-44.009,345.691,41.449,494.2Z" transform="translate(0.004 -70.29)" fill="url(#b)"/></g><g transform="translate(155.123 310.358)"><path d="M554.567,762.051a276,276,0,0,1-275.859-.175l-17.322,30.009A310.174,310.174,0,0,0,726.938,523.26H692.274A275.821,275.821,0,0,1,554.548,762.109Z" transform="translate(-261.385 -523.261)" fill="url(#c)"/></g><g transform="translate(15.303 15.237)"><g transform="translate(0 0)"><g clip-path="url(#d)"><g transform="translate(-0.601 -0.718)"><rect width="591.62" height="591.368" fill="url(#e)"/></g></g><g transform="translate(235.919 384.566)"><g transform="translate(0)"><path d="M589.234,677.278a5.82,5.82,0,0,0-5.18-3.278H428.619a5.819,5.819,0,0,0-5.819,5.819v27.72a2.58,2.58,0,0,0,2.579,2.58h180.4Z" transform="translate(-422.8 -674)" fill="url(#f)"/></g></g><g transform="translate(295.051 126.514)"><g transform="translate(0)"><path d="M551,239,694.426,529.446a2.581,2.581,0,0,1-2.251,3.647H653.553L540.52,305.787" transform="translate(-529.978 -239)" fill="#00fffd"/><path d="M543.557,239l42.676,86.263-21.726,43.7-41.376-83.412a5.929,5.929,0,0,1,0-5.179Z" transform="translate(-522.535 -239)" fill="url(#g)"/></g></g><g transform="translate(130.604 126.553)"><g transform="translate(0 0)"><path d="M386.969,242.291a5.821,5.821,0,0,1,5.18-3.259h39.028l-.33.679-21.338,42.812L285.5,531.321a2.578,2.578,0,0,1-2.25,1.4H251.629a5.819,5.819,0,0,1-5.179-8.515Z" transform="translate(-245.787 -239.032)" fill="#ff00b9"/></g></g></g></g></g></g></svg>