<?xml version="1.0" encoding="utf-8"?>
<!-- Generator: Adobe Illustrator 22.0.0, SVG Export Plug-In . SVG Version: 6.00 Build 0)  -->
<svg version="1.1" id="KEY" xmlns="http://www.w3.org/2000/svg" xmlns:xlink="http://www.w3.org/1999/xlink" x="0px" y="0px"
	 viewBox="0 0 490 490" style="enable-background:new 0 0 490 490;" xml:space="preserve">
<style type="text/css">
	.st0{fill:#23E6FE;}
	.st1{fill:#FFFFFF;}
</style>
<path id="Full" class="st0" d="M0,245c0,135.1,109.9,245,245,245s245-109.9,245-245S380.1,0,245,0S0,109.9,0,245z"/>
<path id="Line" class="st1" d="M237,138L237,138c5.5,0,10,4.5,10,10v131c0,5.5-4.5,10-10,10l0,0c-5.5,0-10-4.5-10-10V148
	C227,142.5,231.5,138,237,138z"/>
<g>
	<path class="st1" d="M237.5,273c-20.7,0-37.5,17.7-37.5,39.5s16.8,39.5,37.5,39.5s37.5-17.7,37.5-39.5S258.2,273,237.5,273z
		 M237.5,335c-11.3,0-20.5-9.9-20.5-22c0-12.2,9.2-22,20.5-22s20.5,9.8,20.5,22C258,325.1,248.8,335,237.5,335z"/>
	<path class="st1" d="M272,178h-32c-5.5,0-10,4.5-10,10s4.5,10,10,10h32c5.5,0,10-4.5,10-10S277.5,178,272,178z"/>
	<path class="st1" d="M282,138h-44c-5.5,0-10,4.5-10,10s4.5,10,10,10h44c5.5,0,10-4.5,10-10S287.5,138,282,138z"/>
</g>
<path class="st1" d="M245,74L97,159.5v171L245,416l148-85.5v-171L245,74z M385,326l-140,81l-140-81V164l140-81l140,81V326z"/>
</svg>
