<svg id="KEY" xmlns="http://www.w3.org/2000/svg" width="512" height="512" viewBox="0 0 512 512">
<defs>
    <style>
      .cls-1 {
        fill: #23e6fe;
      }

      .cls-1, .cls-3 {
        fill-rule: evenodd;
      }

      .cls-2, .cls-3 {
        fill: #fff;
      }
    </style>
  </defs>
  <path id="Full" class="cls-1" d="M11,256c0,135.094,109.906,245,245,245S501,391.094,501,256,391.094,11,256,11,11,120.906,11,256Z"/>
  <rect id="Line" class="cls-2" x="238" y="149" width="20" height="151" rx="10" ry="10"/>
  <path id="Ring" class="cls-3" d="M249,149h44a10,10,0,0,1,0,20H249A10,10,0,0,1,249,149Zm2,40h32a10,10,0,0,1,0,20H251A10,10,0,0,1,251,189Zm-2.5,95c20.711,0,37.5,17.685,37.5,39.5S269.211,363,248.5,363,211,345.315,211,323.5,227.789,284,248.5,284Zm0,18c11.322,0,20.5,9.85,20.5,22s-9.178,22-20.5,22S228,336.15,228,324,237.178,302,248.5,302Z"/>
  <path id="Outer" class="cls-3" d="M256,426.989L108.011,341.5V170.505L256,85.011l147.989,85.494V341.5Zm0-9L116.01,337V175.005L256,94.01l139.99,80.995V337Z"/>
</svg>
