<svg id="KIN" xmlns="http://www.w3.org/2000/svg" width="256" height="256" viewBox="0 0 512 512">
<defs>
    <style>
      .cls-1 {
        fill: #003ec5;
      }

      .cls-1, .cls-3 {
        fill-rule: evenodd;
      }

      .cls-2, .cls-3 {
        fill: #fff;
      }
    </style>
  </defs>
  <path id="Main" class="cls-1" d="M11,256c0,135.094,109.906,245,245,245S501,391.094,501,256,391.094,11,256,11,11,120.906,11,256Z"/>
  <g id="KIN-2" data-name="KIN">
    <path id="TopLeft" class="cls-2" d="M203,182h7a10,10,0,0,1,10,10v17a0,0,0,0,1,0,0H203a10,10,0,0,1-10-10v-7A10,10,0,0,1,203,182Z"/>
    <path id="TopRight" class="cls-2" d="M307,182h7a10,10,0,0,1,10,10v7a10,10,0,0,1-10,10H297a0,0,0,0,1,0,0V192A10,10,0,0,1,307,182Z"/>
    <path id="BottomLeft" class="cls-2" d="M203,289h17a0,0,0,0,1,0,0v17a10,10,0,0,1-10,10h-7a10,10,0,0,1-10-10v-7A10,10,0,0,1,203,289Z"/>
    <path id="BottomRight" class="cls-2" d="M297,289h17a10,10,0,0,1,10,10v7a10,10,0,0,1-10,10h-7a10,10,0,0,1-10-10V289A0,0,0,0,1,297,289Z"/>
    <rect id="Top" class="cls-2" x="245" y="158" width="27" height="27" rx="10" ry="10"/>
    <rect id="Bottom" class="cls-2" x="245" y="318" width="27" height="27" rx="10" ry="10"/>
    <rect id="Left" class="cls-2" x="165" y="237" width="27" height="27" rx="10" ry="10"/>
    <rect id="Right" class="cls-2" x="323" y="237" width="27" height="27" rx="10" ry="10"/>
    <path id="K" class="cls-3" d="M220,211v80h19c3.456,0,6-2.3,6-5V275s1.179-11,12-11,13,11,13,11v10a6.129,6.129,0,0,0,6,6h21V271c0-3.2-1.3-7-6-7h-9s-12-2.531-12-13,11-13,11-13h11c2.449,0,6-2.755,6-6V211H277c-4,0-7,2.755-7,6v10s-1.145,11-12,11-14-11-14-11V216c0-2.1-2.2-5-5-5H220Zm-7,135a9,9,0,1,1-9,9A9,9,0,0,1,213,346Zm88-3a9,9,0,1,1-9,9A9,9,0,0,1,301,343Zm57-59a9,9,0,1,1-9,9A9,9,0,0,1,358,284Zm1-84a9,9,0,1,1-9,9A9,9,0,0,1,359,200Zm-60-59a9,9,0,1,1-9,9A9,9,0,0,1,299,141Zm-81,0a9,9,0,1,1-9,9A9,9,0,0,1,218,141Zm-59,60a9,9,0,1,1-9,9A9,9,0,0,1,159,201Zm0,83a9,9,0,1,1-9,9A9,9,0,0,1,159,284Z"/>
    <g id="Rounds">
      <circle id="Round" class="cls-2" cx="96" cy="316" r="7"/>
      <path id="Round2" class="cls-3" d="M133,364a4,4,0,1,1-4,4A4,4,0,0,1,133,364Zm37-28a5,5,0,1,1-5,5A5,5,0,0,1,170,336Z"/>
      <circle id="Round3" class="cls-2" cx="187" cy="404" r="4"/>
      <circle id="Round4" class="cls-2" cx="256" cy="428" r="7"/>
      <circle id="Round5" class="cls-2" cx="318" cy="401" r="5"/>
      <circle id="Round6" class="cls-2" cx="259" cy="377" r="5"/>
      <circle id="Round7" class="cls-2" cx="368" cy="369" r="5"/>
      <circle id="Round8" class="cls-2" cx="412" cy="315" r="8"/>
      <circle id="Round9" class="cls-2" cx="347" cy="341" r="5"/>
      <path id="Round10" class="cls-3" d="M425,245a5,5,0,1,1-5,5A5,5,0,0,1,425,245Zm-39,0a5,5,0,1,1-5,5A5,5,0,0,1,386,245Z"/>
      <circle id="Round11" class="cls-2" cx="416" cy="181" r="4"/>
      <circle id="Round12" class="cls-2" cx="347" cy="161" r="5"/>
      <circle id="Round13" class="cls-2" cx="377" cy="132" r="4"/>
      <circle id="Round14" class="cls-2" cx="320" cy="92" r="7"/>
      <circle id="Round15" class="cls-2" cx="258" cy="125" r="5"/>
      <circle id="Round16" class="cls-2" cx="256" cy="83" r="6"/>
      <circle id="Round17" class="cls-2" cx="190" cy="95" r="4"/>
      <circle id="Round18" class="cls-2" cx="170" cy="162" r="5"/>
      <circle id="Round19" class="cls-2" cx="134" cy="133" r="8"/>
      <circle id="Round20" class="cls-2" cx="103" cy="185" r="5"/>
      <circle id="Round21" class="cls-2" cx="134" cy="250" r="5"/>
      <circle id="Round22" class="cls-2" cx="86" cy="251" r="4"/>
    </g>
  </g>
</svg>
