<?xml version="1.0" encoding="utf-8"?>
<!-- Generator: Adobe Illustrator 22.0.0, SVG Export Plug-In . SVG Version: 6.00 Build 0)  -->
<svg version="1.1" id="KIN" xmlns="http://www.w3.org/2000/svg" xmlns:xlink="http://www.w3.org/1999/xlink" x="0px" y="0px"
	 viewBox="0 0 245 245" style="enable-background:new 0 0 245 245;" xml:space="preserve">
<style type="text/css">
	.st0{fill:#003EC5;}
	.st1{fill:#FFFFFF;}
</style>
<path id="Main" class="st0" d="M0,122.5C0,190,55,245,122.5,245S245,190,245,122.5S190,0,122.5,0S0,55,0,122.5z"/>
<g id="KIN-2">
	<path id="TopLeft" class="st1" d="M96,85.5h3.5c2.8,0,5,2.2,5,5V99l0,0H96c-2.8,0-5-2.2-5-5v-3.5C91,87.7,93.2,85.5,96,85.5z"/>
	<path id="TopRight" class="st1" d="M148,85.5h3.5c2.8,0,5,2.2,5,5V94c0,2.8-2.2,5-5,5H143l0,0v-8.5C143,87.7,145.2,85.5,148,85.5z"
		/>
	<path id="BottomLeft" class="st1" d="M96,139h8.5l0,0v8.5c0,2.8-2.2,5-5,5H96c-2.8,0-5-2.2-5-5V144C91,141.2,93.2,139,96,139z"/>
	<path id="BottomRight" class="st1" d="M143,139h8.5c2.8,0,5,2.2,5,5v3.5c0,2.8-2.2,5-5,5H148c-2.8,0-5-2.2-5-5V139L143,139z"/>
	<path id="Top" class="st1" d="M122,73.5h3.5c2.8,0,5,2.2,5,5V82c0,2.8-2.2,5-5,5H122c-2.8,0-5-2.2-5-5v-3.5
		C117,75.7,119.2,73.5,122,73.5z"/>
	<path id="Bottom" class="st1" d="M122,153.5h3.5c2.8,0,5,2.2,5,5v3.5c0,2.8-2.2,5-5,5H122c-2.8,0-5-2.2-5-5v-3.5
		C117,155.7,119.2,153.5,122,153.5z"/>
	<path id="Left" class="st1" d="M82,113h3.5c2.8,0,5,2.2,5,5v3.5c0,2.8-2.2,5-5,5H82c-2.8,0-5-2.2-5-5V118C77,115.2,79.2,113,82,113
		z"/>
	<path id="Right" class="st1" d="M161,113h3.5c2.8,0,5,2.2,5,5v3.5c0,2.8-2.2,5-5,5H161c-2.8,0-5-2.2-5-5V118
		C156,115.2,158.2,113,161,113z"/>
	<path id="K" class="st1" d="M104.5,100v40h9.5c1.7,0,3-1.1,3-2.5V132c0,0,0.6-5.5,6-5.5c5.4,0,6.5,5.5,6.5,5.5v5c0,1.6,1.4,3,3,3
		H143v-10c0-1.6-0.6-3.5-3-3.5h-4.5c0,0-6-1.3-6-6.5s5.5-6.5,5.5-6.5h5.5c1.2,0,3-1.4,3-3V100H133c-2,0-3.5,1.4-3.5,3v5
		c0,0-0.6,5.5-6,5.5s-7-5.5-7-5.5v-5.5c0-1.1-1.1-2.5-2.5-2.5H104.5z M101,167.5c2.5,0,4.5,2,4.5,4.5s-2,4.5-4.5,4.5s-4.5-2-4.5-4.5
		S98.5,167.5,101,167.5z M145,166c2.5,0,4.5,2,4.5,4.5s-2,4.5-4.5,4.5s-4.5-2-4.5-4.5S142.5,166,145,166z M173.5,136.5
		c2.5,0,4.5,2,4.5,4.5s-2,4.5-4.5,4.5s-4.5-2-4.5-4.5S171,136.5,173.5,136.5z M174,94.5c2.5,0,4.5,2,4.5,4.5s-2,4.5-4.5,4.5
		s-4.5-2-4.5-4.5S171.5,94.5,174,94.5z M144,65c2.5,0,4.5,2,4.5,4.5s-2,4.5-4.5,4.5s-4.5-2-4.5-4.5S141.5,65,144,65z M103.5,65
		c2.5,0,4.5,2,4.5,4.5s-2,4.5-4.5,4.5S99,72,99,69.5S101,65,103.5,65z M74,95c2.5,0,4.5,2,4.5,4.5s-2,4.5-4.5,4.5s-4.5-2-4.5-4.5
		l0,0C69.5,97,71.5,95,74,95z M74,136.5c2.5,0,4.5,2,4.5,4.5s-2,4.5-4.5,4.5s-4.5-2-4.5-4.5S71.5,136.5,74,136.5z"/>
	<g id="Rounds">
		<circle id="Round" class="st1" cx="42.5" cy="152.5" r="3.5"/>
		<path id="Round2" class="st1" d="M61,176.5c1.1,0,2,0.9,2,2s-0.9,2-2,2s-2-0.9-2-2S59.9,176.5,61,176.5z M79.5,162.5
			c1.4,0,2.5,1.1,2.5,2.5s-1.1,2.5-2.5,2.5S77,166.4,77,165S78.1,162.5,79.5,162.5z"/>
		<circle id="Round3" class="st1" cx="88" cy="196.5" r="2"/>
		<circle id="Round4" class="st1" cx="122.5" cy="208.5" r="3.5"/>
		<circle id="Round5" class="st1" cx="153.5" cy="195" r="2.5"/>
		<circle id="Round6" class="st1" cx="124" cy="183" r="2.5"/>
		<circle id="Round7" class="st1" cx="178.5" cy="179" r="2.5"/>
		<circle id="Round8" class="st1" cx="200.5" cy="152" r="4"/>
		<circle id="Round9" class="st1" cx="168" cy="165" r="2.5"/>
		<path id="Round10" class="st1" d="M207,117c1.4,0,2.5,1.1,2.5,2.5s-1.1,2.5-2.5,2.5s-2.5-1.1-2.5-2.5S205.6,117,207,117z
			 M187.5,117c1.4,0,2.5,1.1,2.5,2.5s-1.1,2.5-2.5,2.5s-2.5-1.1-2.5-2.5S186.1,117,187.5,117z"/>
		<circle id="Round11" class="st1" cx="202.5" cy="85" r="2"/>
		<circle id="Round12" class="st1" cx="168" cy="75" r="2.5"/>
		<circle id="Round13" class="st1" cx="183" cy="60.5" r="2"/>
		<circle id="Round14" class="st1" cx="154.5" cy="40.5" r="3.5"/>
		<circle id="Round15" class="st1" cx="123.5" cy="57" r="2.5"/>
		<circle id="Round16" class="st1" cx="122.5" cy="36" r="3"/>
		<circle id="Round17" class="st1" cx="89.5" cy="42" r="2"/>
		<circle id="Round18" class="st1" cx="79.5" cy="75.5" r="2.5"/>
		<circle id="Round19" class="st1" cx="61.5" cy="61" r="4"/>
		<circle id="Round20" class="st1" cx="46" cy="87" r="2.5"/>
		<circle id="Round21" class="st1" cx="61.5" cy="119.5" r="2.5"/>
		<circle id="Round22" class="st1" cx="37.5" cy="120" r="2"/>
	</g>
</g>
</svg>
