<?xml version="1.0" encoding="UTF-8" standalone="no"?>
<svg
   xmlns:dc="http://purl.org/dc/elements/1.1/"
   xmlns:cc="http://creativecommons.org/ns#"
   xmlns:rdf="http://www.w3.org/1999/02/22-rdf-syntax-ns#"
   xmlns:svg="http://www.w3.org/2000/svg"
   xmlns="http://www.w3.org/2000/svg"
   xmlns:sodipodi="http://sodipodi.sourceforge.net/DTD/sodipodi-0.dtd"
   xmlns:inkscape="http://www.inkscape.org/namespaces/inkscape"
   width="242.5"
   height="242.5"
   viewBox="0 0 242.5 242.5"
   version="1.1"
   id="svg12"
   sodipodi:docname="KIN_SOL.svg"
   inkscape:version="1.0.2-2 (e86c870879, 2021-01-15)">
  <metadata
     id="metadata18">
    <rdf:RDF>
      <cc:Work
         rdf:about="">
        <dc:format>image/svg+xml</dc:format>
        <dc:type
           rdf:resource="http://purl.org/dc/dcmitype/StillImage" />
      </cc:Work>
    </rdf:RDF>
  </metadata>
  <defs
     id="defs16" />
  <sodipodi:namedview
     pagecolor="#ffffff"
     bordercolor="#666666"
     borderopacity="1"
     objecttolerance="10"
     gridtolerance="10"
     guidetolerance="10"
     inkscape:pageopacity="0"
     inkscape:pageshadow="2"
     inkscape:window-width="1920"
     inkscape:window-height="1017"
     id="namedview14"
     showgrid="false"
     inkscape:zoom="3.4722222"
     inkscape:cx="121.152"
     inkscape:cy="121.151"
     inkscape:window-x="-8"
     inkscape:window-y="-8"
     inkscape:window-maximized="1"
     inkscape:current-layer="kin-solana" />
  <g
     id="kin-solana"
     transform="translate(-2992.787,-6950.874)">
    <path
       id="Main_copy_10"
       d="M 0,121.252 C 0,188.064 54.44,242.5 121.252,242.5 188.064,242.5 242.5,188.064 242.5,121.252 242.5,54.44 188.064,0 121.252,0 54.44,0 0,54.44 0,121.252 Z"
       fill="#6f41e8"
       transform="translate(2992.787,6950.874)" />
    <g
       id="kin_logo_32_32_Purple"
       transform="translate(3054.249,7010.407)">
      <path
         id="Combined-Shape"
         fill="#ffffff"
         fill-rule="evenodd" />
      <path
         id="Fill-1"
         d="m 81.023,61.339 v 0.76 a 19.787,19.787 0 0 0 19.662,19.8 h 10.8 a 8.122,8.122 0 0 1 8.095,8.149 v 33.394 H 85.863 a 8.122,8.122 0 0 1 -8.095,-8.15 v -13.72 a 19.787,19.787 0 0 0 -19.661,-19.8 h -0.756 a 19.787,19.787 0 0 0 -19.661,19.8 v 21.871 H 0 V 0 h 37.69 v 22.137 a 19.787,19.787 0 0 0 19.663,19.8 h 0.754 a 19.786,19.786 0 0 0 19.661,-19.8 V 8.15 A 8.122,8.122 0 0 1 85.863,0 h 33.717 v 33.394 a 8.122,8.122 0 0 1 -8.095,8.15 h -10.8 a 19.787,19.787 0 0 0 -19.662,19.8"
         fill="#ffffff"
         fill-rule="evenodd" />
    </g>
  </g>
</svg>
