<svg xmlns="http://www.w3.org/2000/svg" width="244.8" height="244.8" viewBox="0 0 244.8 244.8">
  <g id="kin-solana" transform="translate(-2991.539 -6949.625)">
    <path id="Main_copy_10" d="M0,121.252C0,188.064,54.44,242.5,121.252,242.5S242.5,188.064,242.5,121.252,188.064,0,121.252,0,0,54.44,0,121.252Z" transform="translate(2992.787 6950.874)" fill="#6f41e8"/>
    <g id="Main_copy_14" transform="translate(2991.539 6949.625)" fill="none">
      <path d="M0,122.4c0,67.444,54.954,122.4,122.4,122.4s122.4-54.954,122.4-122.4S189.841,0,122.4,0,0,54.954,0,122.4Z" stroke="none"/>
      <path d="M 122.4000015258789 11 C 60.97383117675781 11 11 60.97383117675781 11 122.4000015258789 C 11 183.826171875 60.97383117675781 233.8000030517578 122.4000015258789 233.8000030517578 C 183.826171875 233.8000030517578 233.8000030517578 183.826171875 233.8000030517578 122.4000015258789 C 233.8000030517578 60.97383117675781 183.826171875 11 122.4000015258789 11 M 122.4000015258789 0 C 189.8410034179688 0 244.8000030517578 54.95399475097656 244.8000030517578 122.4000015258789 C 244.8000030517578 189.8460083007813 189.8460083007813 244.8000030517578 122.4000015258789 244.8000030517578 C 54.95399475097656 244.8000030517578 0 189.843994140625 0 122.4000015258789 C 0 54.95399475097656 54.95899963378906 0 122.4000015258789 0 Z" stroke="none" fill="#1ae5ae"/>
    </g>
    <g id="kin_logo_32_32_Purple" transform="translate(3054.249 7010.407)">
      <path id="Combined-Shape" fill="#fff" fill-rule="evenodd"/>
      <path id="Fill-1" d="M81.023,61.339v.76a19.787,19.787,0,0,0,19.662,19.8h10.8a8.122,8.122,0,0,1,8.095,8.149v33.394H85.863a8.122,8.122,0,0,1-8.095-8.15v-13.72a19.787,19.787,0,0,0-19.661-19.8h-.756a19.787,19.787,0,0,0-19.661,19.8v21.871H0V0H37.69V22.137a19.787,19.787,0,0,0,19.663,19.8h.754a19.786,19.786,0,0,0,19.661-19.8V8.15A8.122,8.122,0,0,1,85.863,0H119.58V33.394a8.122,8.122,0,0,1-8.095,8.15h-10.8a19.787,19.787,0,0,0-19.662,19.8" fill="#fff" fill-rule="evenodd"/>
    </g>
  </g>
</svg>
