<svg id="KMD" xmlns="http://www.w3.org/2000/svg" width="512" height="512" viewBox="0 0 512 512">
  <defs>
    <style>
      .cls-1 {
        fill: #00edd3;
      }

      .cls-1, .cls-2 {
        fill-rule: evenodd;
      }

      .cls-2 {
        fill: #fff;
      }
    </style>
  </defs>
  <path id="Full" class="cls-1" d="M11,256c0,135.094,109.906,245,245,245S501,391.094,501,256,391.094,11,256,11,11,120.906,11,256Z"/>
  <path id="KMD-2" data-name="KMD" class="cls-2" d="M77,256c0,98.7,80.3,179,179,179C354.474,435,434.632,355.077,435,256.689v-1.375A179.946,179.946,0,0,0,430.1,214.4a19.2,19.2,0,0,0-37.352,8.9A141.21,141.21,0,0,1,396.61,256c0,77.531-63.078,140.609-140.612,140.609S115.389,333.531,115.389,256,178.468,115.391,256,115.391a141.345,141.345,0,0,1,32.628,3.846A19.2,19.2,0,0,0,297.5,81.886,179.8,179.8,0,0,0,256,77C157.3,77,77,157.3,77,256m269.47-130.932c-0.248.248-.424,0.539-0.663,0.794a28.41,28.41,0,0,0-7.583,16.929v0.036c0,1-.037,2.006-0.091,3.027-0.041.693-.148,1.379-0.215,2.072a51.131,51.131,0,0,1-62.536,44.737q-1.95-.44-3.844-1.057a65.935,65.935,0,0,0-60.4,15.768c-0.66.61-1.375,1.126-2.018,1.766a66.175,66.175,0,1,0,111.231,31.4c-0.386-1.2-.7-2.394-0.985-3.6-0.043-.181-0.107-0.357-0.149-0.54a51.138,51.138,0,0,1,45.551-62.459c0.377-.034.752-0.1,1.13-0.122q1.615-.111,3.234-0.112h0.258a28.35,28.35,0,0,0,17.482-8.228,28.57,28.57,0,1,0-40.4-40.4"/>
</svg>
