<?xml version="1.0" encoding="utf-8"?>
<!-- Generator: Adobe Illustrator 22.0.0, SVG Export Plug-In . SVG Version: 6.00 Build 0)  -->
<svg version="1.1" id="KMD" xmlns="http://www.w3.org/2000/svg" xmlns:xlink="http://www.w3.org/1999/xlink" x="0px" y="0px"
	 viewBox="0 0 490 490" style="enable-background:new 0 0 490 490;" xml:space="preserve">
<style type="text/css">
	.st0{fill:#00EDD3;}
	.st1{fill:#FFFFFF;}
</style>
<path id="Full" class="st0" d="M0,245c0,135.1,109.9,245,245,245s245-109.9,245-245S380.1,0,245,0S0,109.9,0,245z"/>
<path id="KMD-2" class="st1" d="M66,245c0,98.7,80.3,179,179,179c98.5,0,178.6-79.9,179-178.3v-1.4c-0.1-13.8-1.7-27.5-4.9-40.9
	c-2.6-10.3-13-16.5-23.3-14c-10.1,2.5-16.4,12.7-14.1,22.9c2.6,10.7,3.9,21.7,3.9,32.7c0,77.5-63.1,140.6-140.6,140.6
	S104.4,322.5,104.4,245S167.5,104.4,245,104.4c11,0,21.9,1.3,32.6,3.8c10.4,2.2,20.6-4.4,22.8-14.8c2.1-10-4-20-13.9-22.6
	C272.9,67.6,259,66,245,66C146.3,66,66,146.3,66,245 M335.5,114.1c-0.2,0.2-0.4,0.5-0.7,0.8c-4.4,4.6-7,10.6-7.6,16.9v0
	c0,1,0,2-0.1,3c0,0.7-0.1,1.4-0.2,2.1c-2.8,28.1-27.8,48.6-55.9,45.8c-2.2-0.2-4.4-0.6-6.6-1.1c-1.3-0.3-2.6-0.6-3.8-1.1
	c-21.5-5.2-44.2,0.7-60.4,15.8c-0.7,0.6-1.4,1.1-2,1.8c-25.8,25.9-25.8,67.8,0.1,93.6c25.9,25.8,67.8,25.8,93.6-0.1
	c16.2-16.2,22.8-39.7,17.5-62.1c-0.4-1.2-0.7-2.4-1-3.6c0-0.2-0.1-0.4-0.1-0.5c-6.4-27.5,10.8-55,38.3-61.3c2.4-0.5,4.8-0.9,7.2-1.1
	c0.4,0,0.8-0.1,1.1-0.1c1.1-0.1,2.2-0.1,3.2-0.1h0.3c6.6-0.6,12.8-3.5,17.5-8.2c11.3-11,11.6-29.1,0.6-40.4s-29.1-11.6-40.4-0.6
	C335.9,113.7,335.7,113.9,335.5,114.1"/>
</svg>
