<?xml version="1.0" encoding="utf-8"?>
<!-- Generator: Adobe Illustrator 22.0.0, SVG Export Plug-In . SVG Version: 6.00 Build 0)  -->
<svg version="1.1" id="Kyber" xmlns="http://www.w3.org/2000/svg" xmlns:xlink="http://www.w3.org/1999/xlink" x="0px" y="0px"
	 viewBox="0 0 245 245" style="enable-background:new 0 0 245 245;" xml:space="preserve">
<style type="text/css">
	.st0{fill:#31CB9E;}
	.st1{fill:#FFFFFF;}
</style>
<path id="Full" class="st0" d="M0,122.5C0,190,55,245,122.5,245S245,190,245,122.5S190,0,122.5,0S0,55,0,122.5z"/>
<g id="Kyber-2">
	<path id="Left" class="st1" d="M58.5,77.5c0-5.1,4-8.5,4-8.5s42.9-32.9,45-34.5c2.3-1.3,5.7-0.5,5.5,2.5c-0.4,2.3-18,84.5-18,84.5
		s17.5,80.6,18,82.5c0.2,1.2,0.1,5.6-5,4.5c-1.1-0.9-46-35.5-46-35.5s-3.5-3.2-3.5-6.5V77.5z"/>
	<path id="Bottom" class="st1" d="M110,135c0,0,67.7,37.5,69.5,38.5c2.7,1.9,1.3,5.1,0,6s-44.5,32.2-47,34c-1.8,1-4.1,0.3-5.1-1.5
		c-0.3-0.5-0.4-1-0.4-1.5C126.5,208.5,110,135,110,135z"/>
	<path id="Right" class="st1" d="M113,123c0,0,67.3-38.8,68.5-39.5c3.4-1.1,5,1.2,5,2.5v73c0,2.9-3.4,3.9-5.5,3
		C180,161.4,113,123,113,123z"/>
	<path id="Top" class="st1" d="M110,110.5c0,0,67.7-37.5,69.5-38.5c2.7-1.9,1.3-5.1,0-6s-44.5-32.2-47-34c-1.8-1-4.1-0.3-5.1,1.5
		c-0.3,0.5-0.4,1-0.4,1.5C126.5,37,110,110.5,110,110.5z"/>
</g>
</svg>
