<svg xmlns="http://www.w3.org/2000/svg" viewBox="0 0 490 490"><defs><style>.a{fill:#5741d9;}.b{fill:#fff;}</style></defs><title>Kraken</title><rect class="a" width="490" height="490" rx="60.06" ry="60.06"/><path class="b" d="M255,113.91c-102.29,0-185.16,80.41-185.16,179.59v77c0,14.17,11.85,25.63,26.42,25.63s26.5-11.46,26.5-25.63v-77c0-14.18,11.79-25.67,26.44-25.67s26.44,11.49,26.44,25.67v77c0,14.17,11.85,25.63,26.44,25.63s26.48-11.46,26.48-25.63v-77c0-14.18,11.85-25.67,26.44-25.67s26.5,11.49,26.5,25.67v77c0,14.17,11.85,25.63,26.42,25.63s26.44-11.46,26.44-25.63v-77c0-14.18,11.85-25.67,26.5-25.67s26.44,11.49,26.44,25.67v77c0,14.17,11.85,25.63,26.48,25.63s26.44-11.46,26.44-25.63v-77c0-99.18-82.93-179.59-185.22-179.59" transform="translate(-10 -10)"/></svg>