<svg xmlns="http://www.w3.org/2000/svg" xmlns:xlink="http://www.w3.org/1999/xlink" width="250" height="250" xmlns:v="https://vecta.io/nano"><defs><linearGradient id="A" x1="17.336" x2="80" y1="74.339" y2="74.339" xlink:href="#Y"><stop offset="0" stop-color="gray"/><stop offset=".327" stop-color="#838383"/><stop offset=".59" stop-color="#8d8d8d"/><stop offset=".83" stop-color="#9e9e9e"/><stop offset="1" stop-color="#afafaf"/></linearGradient><linearGradient id="B" x1="48.668" x2="48.668" y1="68.69" y2="80" xlink:href="#Y"><stop offset=".35" stop-color="#dfdfdf"/><stop offset=".645" stop-color="#ddd"/><stop offset=".752" stop-color="#d6d6d6"/><stop offset=".828" stop-color="#cbcbcb"/><stop offset=".889" stop-color="#bababa"/><stop offset=".941" stop-color="#a4a4a4"/><stop offset=".987" stop-color="#898989"/><stop offset="1" stop-color="gray"/></linearGradient><linearGradient id="C" x1="17.336" x2="80" y1="55.314" y2="55.314" xlink:href="#Y"><stop offset="0" stop-color="#dfdfdf"/><stop offset=".021" stop-color="#e1e1e1"/><stop offset=".244" stop-color="#f2f2f2"/><stop offset=".487" stop-color="#fcfcfc"/><stop offset=".791" stop-color="#fff"/><stop offset=".844" stop-color="#fcfcfc"/><stop offset=".887" stop-color="#f2f2f2"/><stop offset=".926" stop-color="#e1e1e1"/><stop offset=".963" stop-color="#c9c9c9"/><stop offset=".966" stop-color="#c7c7c7"/><stop offset="1" stop-color="#fff"/></linearGradient><linearGradient id="D" x1="17.338" x2="79.999" y1="42.63" y2="42.63" xlink:href="#Y"><stop offset="0" stop-color="#242424"/><stop offset=".335" stop-color="#2d2d2d"/><stop offset=".791" stop-color="#303030"/><stop offset=".867" stop-color="#2d2d2d"/><stop offset=".928" stop-color="#232323"/><stop offset=".966" stop-color="#181818"/><stop offset="1" stop-color="#303030"/></linearGradient><linearGradient xlink:href="#D" id="E" x1="17.332" x2="80.001" y1="46.79" y2="46.79"/><linearGradient xlink:href="#D" id="F" x1="17.339" y1="42.886" y2="42.886"/><linearGradient xlink:href="#D" id="G" x1="17.339" x2="79.998" y1="38.975" y2="38.975"/><linearGradient xlink:href="#D" id="H" x1="17.339" y1="43.156" y2="43.156"/><linearGradient xlink:href="#D" id="I" x1="17.337" y1="67.012" y2="67.012"/><linearGradient xlink:href="#D" id="J" x1="17.335" x2="80.004" y1="66.444" y2="66.444"/><linearGradient xlink:href="#D" id="K" x1="17.339" x2="79.993" y1="70.879" y2="70.879"/><linearGradient xlink:href="#D" id="L" x1="17.336" x2="80" y1="70.28" y2="70.28"/><linearGradient xlink:href="#D" id="M" x1="17.337" x2="79.998" y1="48.667" y2="48.667"/><linearGradient xlink:href="#D" id="N" x1="17.336" x2="80" y1="47.415" y2="47.415"/><linearGradient xlink:href="#D" id="O" x1="17.336" x2="80" y1="46.141" y2="46.141"/><linearGradient xlink:href="#D" id="P" y1="65.683" y2="65.683"/><linearGradient xlink:href="#D" id="Q" x1="17.332" x2="80.001" y1="60.429" y2="60.429"/><linearGradient xlink:href="#D" id="R" x2="80" y1="66.754" y2="66.754"/><linearGradient xlink:href="#D" id="S" x1="17.339" y1="61.5" y2="61.5"/><linearGradient xlink:href="#D" id="T" x1="17.339" y1="67.822" y2="67.822"/><linearGradient xlink:href="#D" id="U" x1="17.339" y1="62.588" y2="62.588"/><linearGradient id="V" x1="17.336" x2="80" y1="54.261" y2="54.261" xlink:href="#Y"><stop offset="0" stop-color="#b41b00"/><stop offset=".021" stop-color="#b61d01"/><stop offset=".244" stop-color="#c72e0b"/><stop offset=".487" stop-color="#d13811"/><stop offset=".791" stop-color="#d43b13"/><stop offset=".841" stop-color="#d13812"/><stop offset=".882" stop-color="#c72f0f"/><stop offset=".919" stop-color="#b61f0a"/><stop offset=".954" stop-color="#9e0903"/><stop offset=".966" stop-color="#940000"/><stop offset="1" stop-color="#d43b13"/></linearGradient><linearGradient id="W" x1="17.336" x2="79.999" y1="59.12" y2="59.12" xlink:href="#Y"><stop offset="0" stop-color="#00209f"/><stop offset=".021" stop-color="#0222a1"/><stop offset=".244" stop-color="#1333b2"/><stop offset=".487" stop-color="#1d3dbc"/><stop offset=".791" stop-color="#2040bf"/><stop offset=".841" stop-color="#1e3dbc"/><stop offset=".882" stop-color="#1933b2"/><stop offset=".919" stop-color="#1122a1"/><stop offset=".954" stop-color="#050a89"/><stop offset=".966" stop-color="#00007f"/><stop offset="1" stop-color="#2040bf"/></linearGradient><linearGradient xlink:href="#D" id="X"/><linearGradient id="Y" gradientUnits="userSpaceOnUse"/></defs><circle cx="125" cy="125" r="125" fill="#cdcdcd" fill-rule="evenodd"/><g transform="matrix(2.410898 0 0 2.417365 27.128046 21.611505)"><path fill="#0e3ca5" d="M32.585 59.26c2 7.4 9.176 13.045 12.8 12.811.127-.008 13.745-2.547 21.2-15 5.8-9.693 3.826-19.05-4.064-19.255-2.839.208-33.745 7.349-29.934 21.446m29.198-47.527l-.008-.007.011-.006a34.626 34.626 0 0 0-36.5-5.267A20.236 20.236 0 0 0 23.1 7.53c-.486.258-.972.516-1.444.8l.115.035a15.759 15.759 0 0 0-3.655 3.46C8.172 24.953 41.486 34.5 59.3 34.528c8.191 5.883 10.491-16.561 2.485-22.793z"/><path fill="#5493f7" d="M27.3 12C22.723 18.88 7.478 23.727 4.971 22.972l-.017-.032c.1-.207.207-.414.313-.619a36.682 36.682 0 0 1 10.87-12.683q1.407-1.03 2.913-1.928a10.8 10.8 0 0 1 5.04-1.343c6.789.13 3.244 5.58 3.207 5.635m-3.753 48.611c.329 2.161-.008 10.7-.45 11.418-.381.023-1.174.072-3.471-1.217A36.541 36.541 0 0 1 3.054 27.558q.183-.55.383-1.093c2.631 3.5 5.676 6.666 8.264 10.2 2.465 3.365 5.856 8.852 6.546 10.024 4.284 7.277 4.967 11.767 5.294 13.925m50.648-21.52A36.4 36.4 0 0 1 71.648 52.5c-4.3 4.62-33.283-6.753-33.567-6.877C34.116 43.886 22.05 38.6 20.961 30.3 19.4 18.35 43.63 10.026 54.28 9.711c1.277.015 5.163.06 7.429 1.9a36.415 36.415 0 0 1 12.48 27.483M54.568 71.467c-3.16 1.474-6.638.4-5.734-2.677 1.735-5.909 16.886-11.967 20.232-12.3.413-.041.588.24.405.561a36.873 36.873 0 0 1-14.9 14.411"/><path fill="url(#A)" d="M17.336 77.254a2.552 2.552 0 0 0 2.328 2.714c30.7.21 60.336-1.2 60.336-5.8 0-13.924-62.664 3.086-62.664 3.086z"/><path fill="url(#B)" d="M17.336 77.254a2.549 2.549 0 0 0 2.34 2.714c30.692.233 60.287-.731 60.324-5.8 0-13.924-62.664 3.086-62.664 3.086zm2.342 2.537a2.194 2.194 0 0 1-.245-.014 2.4 2.4 0 0 1-1.987-1.763 2.368 2.368 0 0 0 2.229 1.761c30.67-.192 59.844-9.635 59.844-5.477 0 4.244-29.171 5.702-59.841 5.493z"/><path fill="url(#C)" d="M19.68 37.823a2.343 2.343 0 0 0-2.344 2.343v37.088a2.343 2.343 0 0 0 2.328 2.346C50.363 79.37 80.038 69.209 80 74.169V32.394c.038-4.961-29.627 5.199-60.32 5.429z"/><path fill="url(#X)" d="M61.545 45l1.447-1.218-1.325-1.76-1.328-1.762-1.448 1.215 1.328 1.763L61.545 45z"/><path fill="url(#E)" d="M64.676 49.158l1.442-1.217L64.8 46.18l-1.322-1.757-1.445 1.219 1.324 1.759z"/><path fill="url(#F)" d="M63.954 43.494l1.335 1.773 1.551 2.07 1.443-1.205-1.552-2.077-1.331-1.781-1.335-1.775-1.553-2.063-1.445 1.217 1.554 2.065 1.333 1.776z"/><path fill="url(#G)" d="M65.877 41.344l1.443-1.21L66 38.366l-1.322-1.76-1.444 1.222 1.323 1.757z"/><path fill="url(#H)" d="M67.8 40.778l-1.443 1.207 1.322 1.77 1.323 1.779 1.444-1.188-1.323-1.788-1.323-1.78z"/><path fill="url(#I)" d="M35.694 66.468l-1.344-1.882-1.56-2.2-1.451 1.089 1.559 2.2 1.344 1.889 1.344 1.882 1.563 2.178 1.452-1.119-1.561-2.171z"/><path fill="url(#J)" d="M30.49 66.984l1.332 1.887 1.452-1.09-1.331-1.876-1.331-1.887-1.453 1.069z"/><path fill="url(#K)" d="M33.757 68.461l-1.451 1.094 1.33 1.874 1.332 1.868 1.453-1.108-1.331-1.862z"/><path fill="url(#L)" d="M31.337 69.756l-1.342-1.908-1.564-2.232-1.454 1.05 1.562 2.244a763.05 763.05 0 0 0 2.689 3.828l1.561 2.206 1.453-1.1-1.561-2.194-1.344-1.894z"/><path fill="url(#M)" d="M35.588 46.123l-1.346 2.138-1.344 2.131-1.559 2.467 1.451.843 1.561-2.476 1.345-2.139 1.346-2.144 1.563-2.5-1.454-.811-1.563 2.491z"/><path fill="url(#N)" d="M32.064 47.007a1184.82 1184.82 0 0 1-2.905 4.562l1.453.863 1.561-2.46 1.343-2.128 1.345-2.134 1.563-2.487-1.455-.824-1.563 2.479-1.342 2.129z"/><path fill="url(#O)" d="M30 48.693l1.343-2.111 1.343-2.122 1.561-2.475-1.452-.835a1084.572 1084.572 0 0 1-2.905 4.576l-1.346 2.1-1.562 2.426 1.454.881L30 48.693z"/><path fill="url(#P)" d="M62.991 63.818l-1.446-.713-1.327 2.221-1.327 2.218 1.448.717 1.327-2.22z"/><path fill="url(#Q)" d="M63.473 63.009l1.323-2.225 1.323-2.221-1.443-.715-1.323 2.226-1.326 2.223z"/><path fill="url(#R)" d="M65.156 64.884l-1.443-.71-1.325 2.224-1.326 2.221 1.447.715 1.324-2.224z"/><path fill="url(#S)" d="M66.96 61.859l1.323-2.209-1.444-.728-1.322 2.219-1.322 2.225 1.442.711 1.323-2.218z"/><path fill="url(#T)" d="M64.555 67.465l-1.323 2.225 1.444.711 1.322-2.222 1.323-2.216-1.443-.721z"/><path fill="url(#U)" d="M67.682 62.222l-1.323 2.214 1.443.723 1.324-2.2 1.322-2.2-1.443-.743z"/><path fill="url(#V)" d="M58.561 50.975A8.349 8.349 0 0 0 57 48.418a8.226 8.226 0 0 0-2.438-1.862 8.986 8.986 0 0 0-2.522-.828 10.05 10.05 0 0 0-2.669-.1 11.739 11.739 0 0 0-2.655.585 12.737 12.737 0 0 0-4.81 2.979 12.571 12.571 0 0 0-1.851 2.326 8.793 8.793 0 0 0-1.182 3.013 7.822 7.822 0 0 0 .016 3 6.967 6.967 0 0 0 1.141 2.648 6.449 6.449 0 0 0 2.2 1.938 6.85 6.85 0 0 0 2.89.807 7.81 7.81 0 0 0 3-.444 9.362 9.362 0 0 0 2.78-1.564 9.787 9.787 0 0 0 2.21-2.54l2.172 1.1 2.164 1.079a12.611 12.611 0 0 0 1.387-3.281A10.969 10.969 0 0 0 59.187 54a9.548 9.548 0 0 0-.626-3.025z"/><path fill="url(#W)" d="M56 53.557a4.671 4.671 0 0 0-2.583-.444 5.975 5.975 0 0 0-2.6.926 6.476 6.476 0 0 0-2.059 2.116 6.333 6.333 0 0 1-2.049 2.1 5.714 5.714 0 0 1-2.606.875 4.7 4.7 0 0 1-2.6-.541 4.335 4.335 0 0 1-1.8-1.842 4.917 4.917 0 0 1-.52-2.54 5.739 5.739 0 0 1 .871-2.687 11.882 11.882 0 0 0-1.392 3.2 10.762 10.762 0 0 0-.357 3.247 9.828 9.828 0 0 0 .628 3.067 8.961 8.961 0 0 0 1.567 2.644 8.555 8.555 0 0 0 2.455 1.972 8.844 8.844 0 0 0 2.526.9 9.374 9.374 0 0 0 2.661.128 11.035 11.035 0 0 0 2.664-.6 12.182 12.182 0 0 0 2.535-1.25 12.574 12.574 0 0 0 2.26-1.86 13.27 13.27 0 0 0 1.844-2.419 6.022 6.022 0 0 0 .868-2.737 4.761 4.761 0 0 0-.518-2.509A4.073 4.073 0 0 0 56 53.557z"/></g></svg>