<?xml version="1.0" encoding="UTF-8" standalone="no"?>
<svg
   xmlns:dc="http://purl.org/dc/elements/1.1/"
   xmlns:cc="http://creativecommons.org/ns#"
   xmlns:rdf="http://www.w3.org/1999/02/22-rdf-syntax-ns#"
   xmlns:svg="http://www.w3.org/2000/svg"
   xmlns="http://www.w3.org/2000/svg"
   id="svg8"
   version="1.1"
   viewBox="0 0 67.733332 67.733335"
   height="256"
   width="256">
  <defs
     id="defs2" />
  <metadata
     id="metadata5">
    <rdf:RDF>
      <cc:Work
         rdf:about="">
        <dc:format>image/svg+xml</dc:format>
        <dc:type
           rdf:resource="http://purl.org/dc/dcmitype/StillImage" />
        <dc:title></dc:title>
      </cc:Work>
    </rdf:RDF>
  </metadata>
  <g
     transform="translate(0,-229.26664)"
     id="layer1">
    <g
       id="g951">
      <circle
         style="opacity:1;fill:#000000;fill-opacity:1;fill-rule:nonzero;stroke:none;stroke-width:0.50681674;stroke-linecap:round;stroke-linejoin:round;stroke-miterlimit:4;stroke-dasharray:none;stroke-dashoffset:0;stroke-opacity:1;paint-order:stroke fill markers"
         id="path817"
         cx="33.866665"
         cy="263.1333"
         r="32.411457" />
      <g
         id="g937"
         transform="matrix(0.12199768,0,0,0.12199768,5.2340401,235.61218)"
         style="fill:#ffffff;fill-opacity:1">
	<path
   id="path935"
   d="m 373.1,126.9 c -5.2,-4.1 -11.4,-9.7 -22.7,-11.1 -10.6,-1.4 -21.4,5.7 -28.7,10.4 -7.3,4.7 -21.1,18.5 -26.8,22.7 -5.7,4.2 -20.3,8.1 -43.8,22.2 -23.5,14.1 -115.7,73.3 -115.7,73.3 l 24,0.3 -107,55.1 h 10.7 l -15.4,11.7 c 0,0 13.6,3.6 25,-3.6 v 3.3 c 0,0 127.4,-50.2 152,-37.2 l -15,4.4 c 1.3,0 25.5,1.6 25.5,1.6 0,0 0.8,15.1 15.4,24.8 14.6,9.6 14.9,14.9 14.9,14.9 0,0 -7.6,3.1 -7.6,7 0,0 11.2,-3.4 21.6,-3.1 10.4,0.3 19.5,3.1 19.5,3.1 0,0 -0.8,-4.2 -10.9,-7 -10.2,-2.9 -20.1,-13.8 -25,-19.8 -4.9,-6 -8.3,-16.7 -4.1,-27.4 3.5,-9.1 15.7,-14.1 40.9,-27.1 29.7,-15.4 36.5,-26.8 40.7,-35.7 4.2,-8.9 10.4,-26.6 13.9,-34.9 4.4,-10.7 9.8,-16.4 14.3,-19.8 4.4,-3.4 24.5,-10.9 24.5,-10.9 0,0 -15.3,-13.3 -20.2,-17.2 z"
   style="fill:#ffffff;fill-opacity:1" />

</g>
    </g>
  </g>
</svg>
