<svg xmlns="http://www.w3.org/2000/svg" width="512" height="512" fill="none" xmlns:v="https://vecta.io/nano"><g clip-path="url(#A)"><path d="M510.431 257.569c.867-140.519-112.344-255.134-252.862-256S2.435 113.913 1.569 254.431s112.344 255.134 252.862 256 255.134-112.344 256-252.862z" fill="#fbc118"/><path d="M132.478 98c4.485 2.461 10.15 9.623 13.855 13.328 3.942 3.943 8.78 9.566 13.07 13.861l20.132 20.127c1.914 1.918 5.039 6.071 7.057 6.277 2.777.279 7.974-4.143 10.983-5.755 10.672-5.713 24.132-9.819 37.65-12.027 20.16-3.283 41.509-1.107 58.562 3.921 33.893 9.998 56.593 30.836 73.726 58.563 5.638 13.808 11.853 27.753 14.119 45.229s.791 37.028.791 56.738l-.264 29.541-.263 57.783v3.054c-.004 8.644-.073 17.184-1.043 25.441-3.289-.68-5.135-3.831-7.321-6.019-12.912-12.908-25.445-26.435-39.215-39.211-1.988-1.844-4.434-6.056-6.8-6.275-2.73-.254-8.253 4.341-10.455 5.49-10.32 5.402-22.204 9.56-35.032 12.028-18.186 3.489-39.079 3.336-56.474-.781-28.566-6.766-51.528-22.989-67.713-42.619-2.335-2.831-4.074-6.168-6.277-9.414-8.843-13.022-14.914-25.903-18.825-44.185-3.62-16.965-2.614-38.593-2.609-59.865l1.044-93.598c0-10.182.253-21.371.78-30.852-.016-.443.19-.669.522-.78zm127.304 99.822c-31.242 0-56.569 25.327-56.569 56.569s25.327 56.569 56.569 56.569 56.569-25.327 56.569-56.569-25.327-56.569-56.569-56.569z" fill="#121212"/></g><defs><clipPath id="A"><path fill="#fff" d="M0 0h512v512H0z"/></clipPath></defs></svg>