<svg id="Kyber" xmlns="http://www.w3.org/2000/svg" width="256" height="256" viewBox="0 0 512 512">
<defs>
    <style>
      .cls-1 {
        fill: #31cb9e;
      }

      .cls-1, .cls-2 {
        fill-rule: evenodd;
      }

      .cls-2 {
        fill: #fff;
      }
    </style>
  </defs>
  <path id="Full" class="cls-1" d="M11,256c0,135.094,109.906,245,245,245S501,391.094,501,256,391.094,11,256,11,11,120.906,11,256Z"/>
  <g id="Kyber-2" data-name="Kyber">
    <path id="Left" class="cls-2" d="M128,166c0-10.218,8-17,8-17s85.9-65.712,90-69c4.7-2.654,11.3-1.087,11,5-0.741,4.53-36,169-36,169s35.062,161.267,36,165c0.364,2.454.1,11.263-10,9-2.266-1.826-92-71-92-71s-7-6.342-7-13V166Z"/>
    <path id="Bottom" class="cls-2" d="M231,281s135.407,75.011,139,77c5.328,3.78,2.641,10.183,0,12s-89,64.352-94,68a7.443,7.443,0,0,1-11-6C264.062,427.989,231,281,231,281Z"/>
    <path id="Right" class="cls-2" d="M237,257s134.667-77.535,137-79c6.88-2.146,10,2.467,10,5V329c0,5.76-6.726,7.788-11,6C371.057,333.851,237,257,237,257Z"/>
    <path id="Top" class="cls-2" d="M231,232s135.347-75.056,138.939-77.046c5.326-3.782,2.64-10.189,0-12.007s-88.96-64.39-93.959-68.04a7.44,7.44,0,0,0-11,6C264.047,84.924,231,232,231,232Z"/>
  </g>
</svg>
