<svg xmlns="http://www.w3.org/2000/svg" xmlns:xlink="http://www.w3.org/1999/xlink" viewBox="0 0 490 490"><defs><style>.a{fill:url(#a);}.b{fill:#EF8102;}</style><linearGradient id="a" x1="245" y1="490" x2="245" gradientUnits="userSpaceOnUse"><stop offset="0" stop-color="#EFB645" stop-opacity="0.5"/><stop offset="1" stop-color="#e5e6e5" stop-opacity="0.5"/></linearGradient></defs><title>Kyber</title><rect class="a" width="490" height="490" rx="60.06" ry="60.06"/><path class="b" d="M236.82,256.05,374,334.49a7.23,7.23,0,0,0,10.8-6.22V183.74a7.2,7.2,0,0,0-10.8-6.22Z" transform="translate(-10 -10)"/><path class="b" d="M370.9,142.78,277.24,73.94a7.45,7.45,0,0,0-11.69,4.19l-34.2,153.22,138.7-76.74a7,7,0,0,0,.85-11.83" transform="translate(-10 -10)"/><path class="b" d="M277.15,438.1l93.75-68.86a7,7,0,0,0-.77-11.84L231.35,280.65l34.2,153.26c1,5.09,7.34,7.31,11.6,4.19" transform="translate(-10 -10)"/><path class="b" d="M201.2,253.3,236.65,86.67a7.1,7.1,0,0,0-11.24-7.22l-90.77,70a19,19,0,0,0-7.39,15.09V342a19,19,0,0,0,7.39,15.09l90.77,70a7.1,7.1,0,0,0,11.24-7.21Z" transform="translate(-10 -10)"/></svg>