<?xml version="1.0" encoding="UTF-8"?><svg id="Layer_1" xmlns="http://www.w3.org/2000/svg" width="128" height="128" xmlns:xlink="http://www.w3.org/1999/xlink" viewBox="0 0 128 128"><defs><style>.cls-1{fill:none;}.cls-2{fill-rule:evenodd;}.cls-2,.cls-3{fill:#fff;}.cls-4{fill:#ffaa7d;}.cls-5{clip-path:url(#clippath);}</style><clipPath id="clippath"><path class="cls-1" d="M64,0h0c35.35,0,64,28.65,64,64s-28.65,64-64,64S0,99.35,0,64,28.65,0,64,0Z"/></clipPath></defs><g class="cls-5"><path class="cls-4" d="M64,0h0c35.35,0,64,28.65,64,64h0c0,35.35-28.65,64-64,64h0C28.65,128,0,99.35,0,64h0C0,28.65,28.65,0,64,0Z"/><path class="cls-2" d="M64.06,25.47l18.24,27.51-18.24,10.24-18.24-10.24,18.24-27.51ZM51.41,51.68l12.65-19.09,12.65,19.09-12.65,7.11-12.65-7.11Z"/><path class="cls-3" d="M64.03,69.27l-21.16-11.88-.58.87c-6.52,9.83-5.06,22.7,3.5,30.95,10.07,9.7,26.4,9.7,36.47,0,8.56-8.25,10.01-21.12,3.5-30.95l-.58-.87-21.16,11.88Z"/></g></svg>