<svg id="LEO" xmlns="http://www.w3.org/2000/svg" width="512" height="512" viewBox="0 0 512 512">
<defs>
    <style>
      .cls-1 {
        fill: #0b171f;
      }

      .cls-1, .cls-2 {
        fill-rule: evenodd;
      }

      .cls-2 {
        fill: #fff;
      }
    </style>
  </defs>
  <path id="Full" class="cls-1" d="M11,256c0,135.094,109.906,245,245,245S501,391.094,501,256,391.094,11,256,11,11,120.906,11,256Z"/>
  <path id="LEO-2" data-name="LEO" class="cls-2" d="M253.775,107.246l-33.392,17.9,13.5,8.63,19.887-10.153,60.162,35.1V219.95H276.824v35.2l50.592-21.376V150.74Zm91.856,66.3L354.8,162.5l33.459,26.246V265.95l-63.447,39.586-7.837-11.988L372.047,258.5V195.938Zm13.388,120h13.556L372.047,329.6l-76.505,54.24-50.567-38.526V307.75l-40.873-44h97.1l-41.722,44v30.787L295.542,366.7l63.477-44.651v-28.5Zm-85.372,86.117,5.25,12.16-26.222,11.948L179.291,366.7V295.575H193.36V357.1l59.218,31.266Zm-41.8-159.715-0.154,35.2-45.675-21.376L138.426,258.5v60.317l27.267,19.725-8.737,11.013-32.717-23.444V249.535l58-29.585h49.605Zm-107.6,5.318v-47.66l76.9-46.317,58.337,33.24-8,12.093L201.139,148.25l-62.713,37.864v39.154H124.239Z"/>
</svg>
