<?xml version="1.0" encoding="utf-8"?>
<!-- Generator: Adobe Illustrator 22.0.0, SVG Export Plug-In . SVG Version: 6.00 Build 0)  -->
<svg version="1.1" id="LEO" xmlns="http://www.w3.org/2000/svg" xmlns:xlink="http://www.w3.org/1999/xlink" x="0px" y="0px"
	 viewBox="0 0 490 490" style="enable-background:new 0 0 490 490;" xml:space="preserve">
<style type="text/css">
	.st0{fill:#0B171F;}
	.st1{fill:#FFFFFF;}
</style>
<path id="Full" class="st0" d="M0,245c0,135.1,109.9,245,245,245s245-109.9,245-245S380.1,0,245,0S0,109.9,0,245z"/>
<path id="LEO-2" class="st1" d="M242.8,96.2l-33.4,17.9l13.5,8.6l19.9-10.2l60.2,35.1v61.2h-37.1v35.2l50.6-21.4v-83L242.8,96.2z
	 M334.6,162.5l9.2-11l33.5,26.2V255l-63.4,39.6l-7.8-12l55.1-35v-62.6L334.6,162.5z M348,282.5h13.6l-0.5,36.1l-76.5,54.2L234,334.3
	v-37.6l-40.9-44h97.1l-41.7,44v30.8l36.1,28.2L348,311V282.5L348,282.5z M262.6,368.7l5.2,12.2l-26.2,11.9l-73.4-37.1v-71.1h14.1
	v61.5l59.2,31.3L262.6,368.7z M220.8,208.9l-0.2,35.2L175,222.8l-47.6,24.7v60.3l27.3,19.7l-8.7,11l-32.7-23.4v-76.6l58-29.6
	L220.8,208.9L220.8,208.9z M113.2,214.3v-47.7l76.9-46.3l58.3,33.2l-8,12.1l-50.3-28.4l-62.7,37.9v39.2L113.2,214.3L113.2,214.3z"/>
</svg>
