<svg xmlns="http://www.w3.org/2000/svg" width="256" height="256" fill="none" xmlns:v="https://vecta.io/nano"><circle cx="128" cy="128" r="128" fill="#04000a"/><path fill-rule="evenodd" d="M211.268 44.731c-45.988-45.988-120.549-45.988-166.537 0s-45.988 120.55 0 166.538 120.549 45.988 166.537 0 45.989-120.55 0-166.538zm-39.056 39.057c-24.417-24.418-64.006-24.418-88.423 0s-24.418 64.006 0 88.423 64.006 24.418 88.423 0 24.418-64.006 0-88.423z" fill="url(#A)"/><path d="M211.269 44.731c-45.988-45.988-120.55-45.988-166.538 0s-45.988 120.55 0 166.538 120.55 45.988 166.538 0c45.724-45.724 45.986-119.694.788-165.742 34.512 35.255 34.282 91.812-.689 126.784-35.203 35.202-92.278 35.203-127.481 0s-35.203-92.278 0-127.481c35.188-35.187 92.228-35.203 127.435-.046l-.053-.053z" fill="url(#B)"/><defs><linearGradient id="A" x1="242.08" y1="34.16" x2="183.281" y2="219.767" gradientUnits="userSpaceOnUse"><stop offset="0" stop-color="#1a7b05"/><stop offset="1" stop-color="#28ba08"/></linearGradient><linearGradient id="B" x1="10.24" y1="10.24" x2="280.398" y2="60.846" gradientUnits="userSpaceOnUse"><stop offset="0" stop-color="#26b007"/><stop offset="1" stop-color="#39f50f"/></linearGradient></defs></svg>