<svg xmlns="http://www.w3.org/2000/svg" viewBox="0 0 245 245" xmlns:v="https://vecta.io/nano"><path d="M0,122.5C0,190,55,245,122.5,245S245,190,245,122.5S190,0,122.5,0S0,55,0,122.5z" fill="#2a5ada"/><path d="M61.1 89.2l61.4-35.8 61.4 35.8v66.6l-61.4 35.8-61.4-35.8V89.2z" fill="none" stroke="#fff" stroke-width="32"/><path d="M122.6 11C61.064 11 11 61.064 11 122.6s50.064 111.6 111.6 111.6 111.6-50.064 111.6-111.6S184.136 11 122.6 11m0-11c67.551 0 122.6 55.044 122.6 122.6s-55.044 122.6-122.6 122.6S0 190.154 0 122.6 55.049 0 122.6 0z" fill="#474747"/></svg>