<svg xmlns="http://www.w3.org/2000/svg" xmlns:xlink="http://www.w3.org/1999/xlink" width="250" height="250" xmlns:v="https://vecta.io/nano"><defs><linearGradient id="A" x1="112.435" y1="53.409" x2="128.634" y2="52.194" xlink:href="#G"><stop offset="0" stop-color="#fcb041"/><stop offset="1" stop-color="#e7e58a"/></linearGradient><linearGradient id="B" x1="73.46" y1="112.979" x2="141.81" y2="61.546" xlink:href="#G"><stop offset="0" stop-color="#ed504b"/><stop offset="1" stop-color="#fec305"/></linearGradient><linearGradient id="C" x1="58.795" y1="192.844" x2="49.566" y2="126.426" xlink:href="#G"><stop offset="0" stop-color="#da4dfb" stop-opacity=".996"/><stop offset="1" stop-color="#fa7afd"/></linearGradient><linearGradient id="D" x1="187.376" y1="208.266" x2="99.748" y2="147.113" xlink:href="#G"><stop offset="0" stop-color="#6f24f3"/><stop offset="1" stop-color="#e33cf9"/></linearGradient><linearGradient id="E" x1="206.741" y1="123.416" x2="189.219" y2="224.258" xlink:href="#G"><stop offset="0" stop-color="#48dcd5"/><stop offset="1" stop-color="#78fbf7" stop-opacity=".988"/></linearGradient><linearGradient id="F" x1="128.579" y1="54.637" x2="181.402" y2="68.001" xlink:href="#G"><stop offset="0" stop-color="#0887ad"/><stop offset="1" stop-color="#3dded7"/></linearGradient><linearGradient id="G" gradientUnits="userSpaceOnUse"/></defs><circle cx="125" cy="125" r="125" fill="#1d1d1d"/><g transform="matrix(.817073 0 0 .817073 23.145182 23.504305)"><path d="M58.639 216.001C35.293 191.607 29.294 151.769 37.7 123.5c4.356-15.699 13.715-28.049 20.976-41.843 10.563 67.566 28.418 100.07 27.05 96.343l-3.355-8c-2.287-5.422-2.779-8.159-2.963-16.5l-.22-10 .756 10c.859 11.369 1.209 15.58 7.527 25.225 13.413 18.889 39.531 22.003 55.76 14.006l12.848 46.3c-35.481 14.38-74.442 5.022-97.438-23.031z" fill="url(#C)"/><path d="M124.124 71.163c3.7-19.799 3.374-21.561 5.633-63.291C197.785 79.87 226.443 132.559 212.52 178c-10.653 23.22-19.784 37.834-38.02 50.431 13.769-61.258-10.286-132.052-50.376-157.269z" fill="url(#E)"/><path d="M85.029 126.871c-.016-.346 1.061-3.046 2.394-6s2.935-8.971 3.56-13.371 2.507-13.469 4.183-20.154l3.047-12.154-8.329-9.974c-9.687-11.6-8.636-11.613-18.187.224L63.927 75l-2.073 2.5 1.823-3.32c3.502-6.378 13.487-18.888 37.06-46.433 27.216-31.803 24.273-30.276 30.372-15.761 6.649 15.823 7.11 31.027 1.373 45.223-2.672 6.611-3.655 8.018-17.782 25.439-11.116 13.708-20.012 26.604-25.42 36.852-2.322 4.4-4.235 7.717-4.251 7.371z" fill="url(#A)"/><path d="M105.822 244.38c-30.823-23.267-38.696-55.436-38.727-87.155 11.023 9.76 26.183 31.131 39.385 36.066 18.032 6.552 36.255 3.506 49.872-9.355 4.73-3.91 7.449-7.919 10.4-13.078L169 231.534c0 1.067-10.106 6.967-18.12 9.36-11.05 3.3-20.729 6.392-45.058 3.486z" fill="url(#D)"/><path d="M58.647 81.948C70.016 59.459 117.25 6.299 124.801 1.875 108.803 48.104 107.805 83.039 85.947 124.5c-10.46 21.373-6.529 34.172 1.522 54.225-29.616-19.743-39.613-73.05-28.823-96.778z" fill="url(#B)"/><path d="M124.124 71.163c17.303-24.122 9.924-41.267 5.633-63.291 25.447 29.623 43.849 45.937 64.921 82.793 5.927 18.845 6.063 51.547-17.653 85.255-9.799-57.816-29.835-84.493-52.902-104.756z" fill="url(#F)"/><path d="M162.876 176.771c8.851-11.493 8.955-23.168 6.546-35.293 11.665 14.413 43.458 76.135-13.345 97.553 15.842-24.11 9.264-55.903 6.798-62.26z" fill="#6321d0"/></g></svg>