<?xml version="1.0" encoding="utf-8"?>
<!-- Generator: Adobe Illustrator 22.0.0, SVG Export Plug-In . SVG Version: 6.00 Build 0)  -->
<svg version="1.1" id="LMY" xmlns="http://www.w3.org/2000/svg" xmlns:xlink="http://www.w3.org/1999/xlink" x="0px" y="0px"
	 viewBox="0 0 490 490" style="enable-background:new 0 0 490 490;" xml:space="preserve">
<style type="text/css">
	.st0{fill:#094E9C;}
	.st1{fill:#FFFFFF;}
</style>
<path id="Full" class="st0" d="M0,245c0,135.1,109.9,245,245,245s245-109.9,245-245S380.1,0,245,0S0,109.9,0,245z"/>
<g>
	<path class="st1" d="M382.4,218.8c-13.4-18.9-38.2-53.9-40.4-57.1c-4.6-4.6-11.3-10.5-29.3-10.5c-34.7,0-40.6,29.4-42.4,35.1
		c-2.2-3.6-11.1-10-25.5-10c-14.4,0-22.4,6.1-25.6,10c-6.7-26.6-21.6-34-41.4-35c-19.9-1-30.6,11.1-30.6,11.1l-41.2,57.4
		c-24.5,13.5-41.2,39.6-41.2,69.6c0,43.8,35.5,79.3,79.3,79.3c43.8,0,79.3-35.5,79.3-79.3v-0.2c6.2,3.8,13.5,6,21.5,6
		c8.1,0,15.6-2.3,21.9-6.2v0.5c0,43.8,35.5,79.3,79.3,79.3c43.8,0,79.3-35.5,79.3-79.3C425.3,258.6,407.9,232,382.4,218.8z
		 M147.4,350.2c-0.3-6.1-0.9-22.4-0.5-30c0.6-9.5,17.6-7,17.6-29.9s-12.5-36-21.4-36.4c-8.9-0.4-19.1,17.8-19.9,36.4
		c-0.9,20.6,18.6,22.7,18.2,29.9c-0.3,5.4-0.7,23.5-0.9,30c-31.9-1.8-57.1-28.2-57.1-60.5c0-20.8,10.5-39.2,26.5-50.1
		c9.7-6.6,21.5-10.5,34.1-10.5c19.8,0,37.3,9.5,48.4,24.1c7.7,10.2,12.2,22.8,12.2,36.5C204.6,322,179.3,348.5,147.4,350.2z
		 M244.8,284.8c-5,0-9.2-4.1-9.2-9.2c0-5.1,4.1-9.2,9.2-9.2c5.1,0,9.2,4.1,9.2,9.2C253.9,280.7,249.8,284.8,244.8,284.8z
		 M349.3,350.2c0-5.8-0.1-26.6-0.1-31.3c0-5.5,10.3-6.9,10.5-14.7c0-5.5-3.4-49.3-3.5-50.6c-0.1-1.3-2.3-1.1-2.3,0
		c0,1.1-0.7,43.2-0.7,44.9c0,1.5-1.9,1.6-1.9,0c0-1.5-1-43.6-1-44.9c0-1.2-2.2-1.1-2.2,0c0,1.1-1.1,43.7-1.2,44.9c0,1.3-1.9,1.4-2,0
		c0-2-0.9-43.6-0.9-44.9c0-1.3-2.3-1.3-2.3,0c-0.1,1.2-0.9,43.7-0.9,45c0,1.3-2.2,1.3-2.2,0c-0.1-1.6-0.4-43.5-0.5-45
		c-0.1-1.2-2-1.2-2.2,0c-0.2,2.1-3.4,44-3.4,50.9s9.7,8.5,10.1,14.2c0.3,5,0.1,25.7,0,31.5c-31.8-1.9-57-28.2-57-60.5
		c0-16.5,6.6-31.5,17.3-42.4c11-11.2,26.3-18.2,43.3-18.2c8.9,0,17.4,1.9,25,5.4c21,9.5,35.6,30.7,35.6,55.2
		C406.6,322.1,381.2,348.5,349.3,350.2z"/>
	<path class="st1" d="M193.9,306.9c0,0,0.2-24.6-11.5-42.1c-11.7-17.5-28.4-26.8-28.4-26.8s22.7,3.2,35,23.9
		C201.3,282.5,193.9,306.9,193.9,306.9z"/>
	<path class="st1" d="M395.6,306.9c0,0,0.2-24.6-11.5-42.1c-11.7-17.5-28.4-26.8-28.4-26.8s22.7,3.2,35,23.9
		C403,282.5,395.6,306.9,395.6,306.9z"/>
	<path class="st1" d="M309.6,144c-6.6-0.1-14.6,2.2-19.4,5.4c-14.2-7.1-29-9.9-45.9-9.9c-16.7,0-31.2,2.6-45.2,9.5
		c-5.5-3.5-13.1-5.1-20.1-5c18.8-12.2,41.3-19.3,65.3-19.3C268.4,124.7,290.8,131.8,309.6,144z"/>
	<path class="st1" d="M340,374.8c-27.3,20.8-60.1,31.5-95.6,31.5c-35.4,0-67.8-10-96.6-31.7c3.7,0.4,7.4-0.1,10.1-0.8
		c24.7,16.7,54.5,26.4,86.4,26.4c32.1,0,62-9.8,86.8-26.6C333.8,374.2,336.6,374.8,340,374.8z"/>
	<path class="st1" d="M404.2,224.6c-2.3-2.7-4.6-4.5-7-5.9c-12.5-73-76.3-128.8-152.9-128.8c-76.9,0-140.9,56.3-153.1,129.8
		c-2.4,1.5-5,3.4-7,6.2c10.3-82.3,78-142.1,160-142.1C325.9,83.7,393.8,143.4,404.2,224.6z"/>
	<path class="st1" d="M293.1,355.1c-15.6,7.4-30.5,10.2-48.8,10.2c-17.9,0-32.5-2.7-47.9-9.8c4.7-3.3,8.6-7.4,11.8-11.5
		c12.3,5,22,6.6,36.1,6.6c14.5,0,24.5-1.7,37.1-7C284.6,348.6,288.7,352.1,293.1,355.1z"/>
</g>
</svg>
