<svg id="Loom" xmlns="http://www.w3.org/2000/svg" width="256" height="256" viewBox="0 0 512 512">
  <defs>
    <style>
      .cls-1 {
        fill: #5756e6;
      }

      .cls-1, .cls-2, .cls-3 {
        fill-rule: evenodd;
      }

      .cls-2, .cls-3 {
        fill: none;
        stroke: #fff;
        stroke-linejoin: round;
        stroke-width: 20px;
      }

      .cls-2 {
        stroke-linecap: round;
      }
    </style>
  </defs>
  <path id="Full" class="cls-1" d="M11,256c0,135.094,109.906,245,245,245S501,391.094,501,256,391.094,11,256,11,11,120.906,11,256Z"/>
  <path id="First" class="cls-2" d="M167,118S354.4,252.838,385,275c44.471,29.045,32.783,69.619,5,90-13.127,9.564-44,32-44,32S125.83,239.223,114,231c-19.734-16.943-27.32-50.068,1-73C129.2,146.43,167,118,167,118Z"/>
  <path id="Second" class="cls-3" d="M224,202c-42.893,30.906-84.462,63.641-97.373,73-44.438,29.045-32.759,69.619-5,90,13.117,9.564,43.967,32,43.967,32s26.575-18.482,59.4-42m61.042-44.339C339.39,272.117,391.828,234.894,397.427,231c19.719-16.943,27.3-50.068-1-73-14.184-11.57-51.961-40-51.961-40S318.419,136.65,286,160"/>
</svg>
