<?xml version="1.0" encoding="utf-8"?>
<!-- Generator: Adobe Illustrator 22.0.0, SVG Export Plug-In . SVG Version: 6.00 Build 0)  -->
<svg version="1.1" id="Loom" xmlns="http://www.w3.org/2000/svg" xmlns:xlink="http://www.w3.org/1999/xlink" x="0px" y="0px"
	 viewBox="0 0 245 245" style="enable-background:new 0 0 245 245;" xml:space="preserve">
<style type="text/css">
	.st0{fill:#5756E6;}
	.st1{fill:none;stroke:#FFFFFF;stroke-width:10;stroke-linecap:round;stroke-linejoin:round;}
	.st2{fill:none;stroke:#FFFFFF;stroke-width:10;stroke-linejoin:round;}
</style>
<path id="Full" class="st0" d="M0,122.5C0,190,55,245,122.5,245S245,190,245,122.5S190,0,122.5,0S0,55,0,122.5z"/>
<path id="First" class="st1" d="M78,53.5c0,0,93.7,67.4,109,78.5c22.2,14.5,16.4,34.8,2.5,45c-6.6,4.8-22,16-22,16
	s-110.1-78.9-116-83c-9.9-8.5-13.7-25,0.5-36.5C59.1,67.7,78,53.5,78,53.5z"/>
<path id="Second" class="st2" d="M106.5,95.5C85.1,111,64.3,127.3,57.8,132c-22.2,14.5-16.4,34.8-2.5,45c6.6,4.8,22,16,22,16
	s13.3-9.2,29.7-21 M137.5,149.8c26.7-19.3,52.9-37.9,55.7-39.8c9.9-8.5,13.6-25-0.5-36.5c-7.1-5.8-26-20-26-20s-13,9.3-29.2,21"/>
</svg>
