<svg id="LSK" xmlns="http://www.w3.org/2000/svg" width="512" height="512" viewBox="0 0 512 512">
  <defs>
    <style>
      .cls-1 {
        fill: #001a3e;
      }

      .cls-1, .cls-2 {
        fill-rule: evenodd;
      }

      .cls-2 {
        fill: #fff;
      }
    </style>
  </defs>
  <path id="Full" class="cls-1" d="M11,256c0,135.094,109.906,245,245,245S501,391.094,501,256,391.094,11,256,11,11,120.906,11,256Z"/>
  <path id="LSK-2" data-name="LSK" class="cls-2" d="M230.327,395.382l36.86-41.2a0.973,0.973,0,0,0-.828-1.648H225.771a1.572,1.572,0,0,1-.828-0.412L190.568,313.8a1.357,1.357,0,0,1-.207-1.236L247.929,214.3a0.916,0.916,0,0,0,0-1.03l-23.814-40.791a1.169,1.169,0,0,0-1.864,0L137.142,317.92a1.308,1.308,0,0,0,0,1.236l68.336,76.432a1.077,1.077,0,0,0,.828.412H229.5c0.207-.206.621-0.412,0.828-0.618h0Zm25.264-279.769L231.57,156.4a0.912,0.912,0,0,0,0,1.03l24.849,42.44L322.27,312.358a0.967,0.967,0,0,1-.207,1.236l-34.789,38.731L250.207,393.94a0.973,0.973,0,0,0,.828,1.648h55.5a1.572,1.572,0,0,0,.828-0.412L375.7,318.744a1.357,1.357,0,0,0,.207-1.236L257.247,115.613A0.862,0.862,0,0,0,255.591,115.613Z"/>
</svg>
