<?xml version="1.0" encoding="utf-8"?>
<!-- Generator: Adobe Illustrator 22.0.0, SVG Export Plug-In . SVG Version: 6.00 Build 0)  -->
<svg version="1.1" id="LSK" xmlns="http://www.w3.org/2000/svg" xmlns:xlink="http://www.w3.org/1999/xlink" x="0px" y="0px"
	 viewBox="0 0 490 490" style="enable-background:new 0 0 490 490;" xml:space="preserve">
<style type="text/css">
	.st0{fill:#001A3E;}
	.st1{fill:#FFFFFF;}
</style>
<path id="Full" class="st0" d="M0,245c0,135.1,109.9,245,245,245s245-109.9,245-245S380.1,0,245,0S0,109.9,0,245z"/>
<path id="LSK-2" class="st1" d="M219.3,384.4l36.9-41.2c0.4-0.4,0.4-1,0-1.4c-0.2-0.2-0.5-0.3-0.8-0.3h-40.6
	c-0.3-0.1-0.6-0.2-0.8-0.4l-34.4-38.3c-0.3-0.4-0.3-0.8-0.2-1.2l57.6-98.3c0.2-0.3,0.2-0.7,0-1l-23.8-40.8c-0.4-0.5-1.1-0.6-1.6-0.2
	c-0.1,0.1-0.2,0.1-0.2,0.2l-85.1,145.4c-0.2,0.4-0.2,0.8,0,1.2l68.3,76.4c0.2,0.3,0.5,0.4,0.8,0.4h23.2
	C218.7,384.8,219.1,384.6,219.3,384.4L219.3,384.4L219.3,384.4z M244.6,104.6l-24,40.8c-0.2,0.3-0.2,0.7,0,1l24.8,42.4l65.9,112.5
	c0.2,0.4,0.2,0.9-0.2,1.2l-34.8,38.7l-37.1,41.6c-0.4,0.4-0.4,1,0,1.4c0.2,0.2,0.5,0.3,0.8,0.3h55.5c0.3-0.1,0.6-0.2,0.8-0.4
	l68.3-76.4c0.3-0.4,0.3-0.8,0.2-1.2L246.2,104.6c-0.1-0.5-0.6-0.7-1.1-0.6C244.9,104.1,244.7,104.3,244.6,104.6L244.6,104.6z"/>
</svg>
