<?xml version="1.0" encoding="UTF-8" standalone="no"?>
<svg
   viewBox="0 0 490 490"
   version="1.1"
   id="svg8"
   sodipodi:docname="LTC_BEP20.svg"
   inkscape:version="1.1 (c68e22c387, 2021-05-23)"
   xmlns:inkscape="http://www.inkscape.org/namespaces/inkscape"
   xmlns:sodipodi="http://sodipodi.sourceforge.net/DTD/sodipodi-0.dtd"
   xmlns="http://www.w3.org/2000/svg"
   xmlns:svg="http://www.w3.org/2000/svg">
  <defs
     id="defs12" />
  <sodipodi:namedview
     id="namedview10"
     pagecolor="#ffffff"
     bordercolor="#666666"
     borderopacity="1.0"
     inkscape:pageshadow="2"
     inkscape:pageopacity="0.0"
     inkscape:pagecheckerboard="0"
     showgrid="false"
     inkscape:zoom="1.7816327"
     inkscape:cx="245"
     inkscape:cy="245"
     inkscape:window-width="2560"
     inkscape:window-height="1361"
     inkscape:window-x="-9"
     inkscape:window-y="-9"
     inkscape:window-maximized="1"
     inkscape:current-layer="svg8" />
  <path
     d="M0,245c0,135.1,109.9,245,245,245s245-109.9,245-245S380.1,0,245,0S0,109.9,0,245z"
     fill="#385d9a"
     id="path2" />
  <path
     d="M205 116l-36 138-31 11-10 38 30-10-21 80h211l14-51H230l17-62 39-14 10-39-39 14 28-105h-80z"
     fill="#fff"
     id="path4" />
  <path
     d="M245.522 21.982C122.287 21.982 22.029 122.027 22.029 245s100.259 223.018 223.493 223.018S469.015 367.973 469.015 245 368.756 21.982 245.522 21.982m0-21.982c135.28 0 245.522 109.998 245.522 245S380.812 490 245.522 490 0 379.998 0 245 110.242 0 245.522 0z"
     fill="#474747"
     id="path6"
     style="fill:#e8a607;fill-opacity:1" />
</svg>
