<svg xmlns="http://www.w3.org/2000/svg" viewBox="0 0 490 490" xmlns:v="https://vecta.io/nano"><path d="M0,245c0,135.1,109.9,245,245,245s245-109.9,245-245S380.1,0,245,0S0,109.9,0,245z" fill="#385d9a"/><path d="M205 116l-36 138-31 11-10 38 30-10-21 80h211l14-51H230l17-62 39-14 10-39-39 14 28-105h-80z" fill="#fff"/><path d="M245.522 21.982C122.287 21.982 22.029 122.027 22.029 245s100.259 223.018 223.493 223.018S469.015 367.973 469.015 245 368.756 21.982 245.522 21.982m0-21.982c135.28 0 245.522 109.998 245.522 245S380.812 490 245.522 490 0 379.998 0 245 110.242 0 245.522 0z" fill="#474747"/></svg>