<svg id="LUN" xmlns="http://www.w3.org/2000/svg" width="512" height="512" viewBox="0 0 512 512">
  <defs>
    <style>
      .cls-1 {
        fill: #f14e10;
      }

      .cls-1, .cls-2 {
        fill-rule: evenodd;
      }

      .cls-2 {
        fill: #fff;
      }
    </style>
  </defs>
  <path id="Full" class="cls-1" d="M11,256c0,135.094,109.906,245,245,245S501,391.094,501,256,391.094,11,256,11,11,120.906,11,256Z"/>
  <path id="LUN-2" data-name="LUN" class="cls-2" d="M253.689,101.758a5.669,5.669,0,0,1,5.641-.007l124.729,71.577a5.606,5.606,0,0,1,.009,9.728L275.559,245.578a24.98,24.98,0,0,0-14.761-8.361v-34a24.941,24.941,0,1,0-8.639-.032v34.058a24.963,24.963,0,0,0-14.55,8.316L129.09,183.273a5.605,5.605,0,0,1-.009-9.726Zm130.725,90.169a5.633,5.633,0,0,1,8.465,4.856L393,335.772a5.605,5.605,0,0,1-2.817,4.863l-120.8,69.6a5.638,5.638,0,0,1-8.463-4.854l-0.1-119.253a24.916,24.916,0,0,0,14.972-8.6l30.174,17.285a25.076,25.076,0,1,0,3.644-7.839l-29.561-16.934a24.437,24.437,0,0,0-.394-17.75Zm-264.29,4.856a5.63,5.63,0,0,1,8.462-4.856l104.882,60.428a24.473,24.473,0,0,0-.362,17.681l-29.554,16.932a24.54,24.54,0,1,0,3.642,7.839l30.167-17.282a24.955,24.955,0,0,0,14.823,8.576l-0.1,119.278a5.636,5.636,0,0,1-8.46,4.854l-120.8-69.6A5.608,5.608,0,0,1,120,335.772Z"/>
</svg>
