<?xml version="1.0" encoding="utf-8"?>
<!-- Generator: Adobe Illustrator 22.0.0, SVG Export Plug-In . SVG Version: 6.00 Build 0)  -->
<svg version="1.1" id="LUN" xmlns="http://www.w3.org/2000/svg" xmlns:xlink="http://www.w3.org/1999/xlink" x="0px" y="0px"
	 viewBox="0 0 490 490" style="enable-background:new 0 0 490 490;" xml:space="preserve">
<style type="text/css">
	.st0{fill:#F14E10;}
	.st1{fill:#FFFFFF;}
</style>
<path id="Full" class="st0" d="M0,245c0,135.1,109.9,245,245,245s245-109.9,245-245S380.1,0,245,0S0,109.9,0,245z"/>
<path id="LUN-2" class="st1" d="M242.7,90.8c1.7-1,3.9-1,5.6,0l124.7,71.6c2.7,1.5,3.6,5,2.1,7.6c-0.5,0.9-1.2,1.6-2.1,2.1
	l-108.5,62.5c-3.8-4.4-9-7.4-14.8-8.4v-34c13.6-2.3,22.7-15.2,20.4-28.8s-15.2-22.7-28.8-20.4c-13.6,2.3-22.7,15.2-20.4,28.8
	c1.8,10.3,9.8,18.5,20.2,20.3v34.1c-5.7,1-10.8,4-14.6,8.3l-108.5-62.3c-2.7-1.5-3.6-5-2.1-7.6c0.5-0.9,1.2-1.6,2.1-2.1L242.7,90.8z
	 M373.4,180.9c2.7-1.6,6.1-0.7,7.7,2c0.5,0.9,0.8,1.8,0.8,2.8l0.1,139c0,2-1.1,3.9-2.8,4.9l-120.8,69.6c-2.7,1.6-6.1,0.6-7.7-2.1
	c-0.5-0.9-0.8-1.8-0.8-2.8l-0.1-119.3c5.9-1,11.2-4,15-8.6l30.2,17.3c-3.6,13.4,4.4,27.1,17.7,30.7c13.4,3.6,27.1-4.4,30.7-17.7
	c3.6-13.4-4.4-27.1-17.7-30.7c-10.2-2.7-21,1.2-27.1,9.9L269,259c2.1-5.8,2-12.1-0.4-17.8L373.4,180.9z M109.1,185.8
	c0-3.1,2.5-5.6,5.6-5.6c1,0,2,0.3,2.8,0.8l104.9,60.4c-2.3,5.6-2.4,11.9-0.4,17.7L192.6,276c-7.8-11.1-23.1-13.8-34.2-6
	c-11.1,7.8-13.8,23.1-6,34.2s23.1,13.8,34.2,6c8.4-5.9,12.3-16.4,9.6-26.3l30.2-17.3c3.8,4.5,9,7.6,14.8,8.6l-0.1,119.3
	c0,3.1-2.5,5.6-5.7,5.6c-1,0-1.9-0.3-2.8-0.8l-120.8-69.6c-1.7-1-2.8-2.9-2.8-4.9L109.1,185.8z"/>
</svg>
