<?xml version="1.0" encoding="UTF-8" standalone="no"?>
<svg
   width="250"
   viewBox="0 0 250 249.99999"
   version="1.1"
   height="250"
   id="svg2"
   inkscape:version="1.1.1 (3bf5ae0d25, 2021-09-20)"
   sodipodi:docname="MAAPL.svg"
   xmlns:inkscape="http://www.inkscape.org/namespaces/inkscape"
   xmlns:sodipodi="http://sodipodi.sourceforge.net/DTD/sodipodi-0.dtd"
   xmlns="http://www.w3.org/2000/svg"
   xmlns:svg="http://www.w3.org/2000/svg"
   xmlns:rdf="http://www.w3.org/1999/02/22-rdf-syntax-ns#"
   xmlns:cc="http://creativecommons.org/ns#"
   xmlns:dc="http://purl.org/dc/elements/1.1/">
  <metadata
     id="metadata10">
    <rdf:RDF>
      <cc:Work
         rdf:about="">
        <dc:format>image/svg+xml</dc:format>
        <dc:type
           rdf:resource="http://purl.org/dc/dcmitype/StillImage" />
      </cc:Work>
    </rdf:RDF>
  </metadata>
  <defs
     id="defs8" />
  <sodipodi:namedview
     pagecolor="#ffffff"
     bordercolor="#666666"
     borderopacity="1"
     objecttolerance="10"
     gridtolerance="10"
     guidetolerance="10"
     inkscape:pageopacity="0"
     inkscape:pageshadow="2"
     inkscape:window-width="2560"
     inkscape:window-height="1377"
     id="namedview6"
     showgrid="false"
     inkscape:zoom="0.7071068"
     inkscape:cx="426.38538"
     inkscape:cy="304.76301"
     inkscape:window-x="-8"
     inkscape:window-y="-8"
     inkscape:window-maximized="1"
     inkscape:current-layer="svg2"
     inkscape:pagecheckerboard="0" />
  <circle
     style="fill:#ffffff;stroke-width:4.98844"
     id="path844"
     cx="125"
     cy="125"
     r="125" />
  <path
     d="m 195.9401,173.64852 c -2.64387,6.1079 -5.77339,11.73017 -9.39924,16.8992 -4.94243,7.04674 -8.98916,11.92441 -12.10786,14.63304 -4.83451,4.44602 -10.01435,6.72298 -15.56107,6.85248 -3.98199,0 -8.78414,-1.13311 -14.37407,-3.43162 -5.60823,-2.28779 -10.76214,-3.42086 -15.47472,-3.42086 -4.94242,0 -10.24311,1.13307 -15.91287,3.42086 -5.67839,2.29851 -10.25282,3.49637 -13.750307,3.61508 -5.31901,0.22662 -10.620787,-2.11513 -15.912853,-7.03594 -3.377702,-2.94604 -7.602497,-7.99637 -12.663611,-15.15102 -5.430189,-7.64026 -9.894573,-16.49991 -13.392029,-26.6006 -3.745662,-10.90999 -5.623343,-21.4747 -5.623343,-31.70271 0,-11.71615 2.531624,-21.82113 7.602488,-30.28907 3.985215,-6.801761 9.286991,-12.167199 15.922563,-16.106037 6.635594,-3.938829 13.805334,-5.946 21.52652,-6.074424 4.224782,0 9.765052,1.306825 16.649912,3.875168 6.86544,2.576969 11.2737,3.883786 13.20641,3.883786 1.44497,0 6.34205,-1.528054 14.64382,-4.574438 7.85069,-2.825164 14.47656,-3.994941 19.9046,-3.534159 14.70854,1.187053 25.75886,6.985213 33.10775,17.431216 -13.15461,7.970478 -19.66178,19.134068 -19.53228,33.455218 0.1187,11.15498 4.16546,20.43769 12.11866,27.80816 3.60428,3.42082 7.62945,6.06471 12.10782,7.94241 -0.97118,2.81653 -1.99638,5.51434 -3.08629,8.10426 z M 162.20643,40.904566 c 0,8.74323 -3.19422,16.906741 -9.5611,24.462835 -7.68341,8.982684 -16.97689,14.173304 -27.0549,13.354245 -0.12843,-1.048913 -0.20287,-2.15287 -0.20287,-3.312939 0,-8.393479 3.65394,-17.376164 10.14275,-24.720746 3.23954,-3.718678 7.35967,-6.810715 12.35604,-9.277295 4.98559,-2.429769 9.7014,-3.773486 14.13664,-4.003591 0.12951,1.168838 0.18344,2.337741 0.18344,3.497375 z"
     id="path4"
     inkscape:connector-curvature="0"
     style="fill:#b3b3b3;fill-opacity:1;stroke-width:0.147259" />
</svg>
