<?xml version="1.0" encoding="UTF-8" standalone="no"?>
<svg
   width="250"
   height="250"
   viewBox="0 0 250 250"
   version="1.1"
   id="svg4"
   sodipodi:docname="MABNB.svg"
   inkscape:version="1.1.1 (3bf5ae0d25, 2021-09-20)"
   xmlns:inkscape="http://www.inkscape.org/namespaces/inkscape"
   xmlns:sodipodi="http://sodipodi.sourceforge.net/DTD/sodipodi-0.dtd"
   xmlns="http://www.w3.org/2000/svg"
   xmlns:svg="http://www.w3.org/2000/svg">
  <defs
     id="defs8" />
  <sodipodi:namedview
     id="namedview6"
     pagecolor="#ffffff"
     bordercolor="#666666"
     borderopacity="1.0"
     inkscape:pageshadow="2"
     inkscape:pageopacity="0.0"
     inkscape:pagecheckerboard="0"
     showgrid="false"
     inkscape:zoom="3.4101563"
     inkscape:cx="118.90951"
     inkscape:cy="115.09737"
     inkscape:window-width="2560"
     inkscape:window-height="1377"
     inkscape:window-x="-8"
     inkscape:window-y="-8"
     inkscape:window-maximized="1"
     inkscape:current-layer="svg4" />
  <circle
     style="fill:#ffffff;fill-opacity:1;stroke-width:69.0338"
     id="path982"
     cx="125"
     cy="125"
     r="125" />
  <path
     fill-rule="evenodd"
     d="m 125.00972,113.38113 c -5.86098,3.1e-4 -11.14403,2.60216 -14.13165,6.9597 -1.32233,1.92901 -2.18961,4.18553 -2.57705,6.70716 -0.44777,2.91387 -0.26187,6.20548 0.55372,9.78338 1.94612,8.54491 7.50006,18.73633 16.15649,29.70598 8.65341,-10.96626 14.20712,-21.15576 16.15477,-29.69831 0.8164,-3.5799 1.00338,-6.87265 0.55596,-9.7875 -0.38728,-2.52242 -1.25436,-4.77998 -2.57729,-6.7102 -2.98781,-4.35857 -8.27212,-6.96059 -14.13495,-6.96021 m -56.382593,34.77546 c -1.6e-4,6.3e-4 -4.61e-4,0.001 -7.55e-4,0.001 l -0.210865,0.45726 c -1.176648,2.55266 -2.393337,5.19232 -3.539972,7.78936 -0.710894,1.61018 -1.451817,3.33417 -2.054981,5.03176 -1.544545,4.34856 -1.993086,8.26592 -1.411749,12.32779 1.190239,8.31347 6.761061,15.43841 14.538698,18.59381 3.842805,1.55904 7.955902,2.09829 12.225642,1.60227 4.053729,-0.47093 8.041824,-1.83549 12.192305,-4.17127 5.75713,-3.24021 11.58219,-8.2167 18.14022,-15.52394 -10.41763,-12.85094 -16.90721,-24.68896 -19.309222,-35.2339 -1.093257,-4.79877 -1.32411,-9.33689 -0.686126,-13.48833 0.615387,-4.00356 2.027718,-7.63848 4.198178,-10.80387 4.83516,-7.05251 13.17184,-11.26333 22.30053,-11.26398 9.13132,-4.6e-4 17.47014,4.21087 22.30605,11.26571 2.17066,3.16722 3.58282,6.80328 4.19761,10.80724 0.63761,4.15258 0.40565,8.6922 -0.68914,13.49296 -2.40332,10.54141 -8.89322,22.37742 -19.30703,35.22402 6.55848,7.30758 12.38364,12.28422 18.14033,15.52416 4.15058,2.33591 8.13874,3.70046 12.19227,4.17136 4.26985,0.49618 8.3828,-0.0434 12.22569,-1.60238 7.77759,-3.15559 13.34863,-10.28035 14.53864,-18.59382 0.58157,-4.06136 0.13306,-7.97864 -1.4119,-12.32826 -0.56826,-1.59916 -1.23254,-3.16817 -2.05469,-5.03188 -1.13967,-2.58073 -2.34911,-5.20475 -3.5188,-7.74202 l -0.23247,-0.50426 c -7.3e-4,-10e-4 -0.001,-10e-4 -0.001,-0.002 -10.91811,-23.68621 -22.64305,-47.71028 -34.85041,-71.407477 -1.8e-4,-3.71e-4 -4.6e-4,-8.48e-4 -6.1e-4,-0.0011 l -0.49734,-0.965518 c -1.2397,-2.408453 -2.52176,-4.898857 -3.81568,-7.30709 -1.34639,-2.505069 -2.70337,-4.927821 -4.49103,-7.02196 -3.34541,-3.919466 -7.7464,-5.991186 -12.7275,-5.991186 -4.98229,0 -9.38417,2.072637 -12.72977,5.993788 -1.78831,2.095553 -3.14449,4.51766 -4.49069,7.022911 -1.29688,2.413676 -2.5819,4.910094 -3.82446,7.324265 l -0.48653,0.945418 c -8.8e-4,0.0018 -0.001,0.0024 -0.001,0.0024 C 91.275856,100.43842 79.549644,124.46475 68.628655,148.15638 m 16.479125,55.88999 c -4.449878,0 -8.767657,-0.83928 -12.882866,-2.50907 -5.436292,-2.20573 -10.218824,-5.81348 -13.830429,-10.43299 -3.610493,-4.61805 -5.958339,-10.12872 -6.789651,-15.936 -0.806397,-5.6331 -0.190432,-11.20934 1.883032,-17.04735 0.711827,-2.0034 1.539449,-3.93151 2.32757,-5.71646 1.178938,-2.67045 2.412531,-5.34689 3.605557,-7.9354 l 0.210688,-0.4569 0.0021,-0.001 C 70.61481,120.18894 82.403547,96.034547 94.672505,72.217701 c 0.0012,-0.0017 0.0014,-0.0026 0.0014,-0.0041 l 0.485352,-0.942935 c 1.262293,-2.452759 2.567721,-4.989172 3.906375,-7.480002 1.546378,-2.878078 3.259038,-5.925687 5.680808,-8.763849 5.21033,-6.106464 12.40728,-9.46981 20.26507,-9.46981 7.85603,0 15.05167,3.361787 20.26162,9.465953 2.4219,2.837064 4.13494,5.885118 5.6823,8.763839 1.33567,2.48577 2.63817,5.015913 3.89758,7.46267 l 0.49601,0.963195 c 0,1.54e-4 1.7e-4,3.51e-4 1.7e-4,4.8e-4 12.27408,23.826457 24.06426,47.984408 35.04324,71.802488 0.001,0.001 0.001,0.001 0.001,0.002 l 0.22876,0.49662 c 1.18594,2.57317 2.41238,5.2338 3.58435,7.88855 0.78918,1.78803 1.61717,3.7175 2.32725,5.71611 2.07379,5.83921 2.68973,11.41543 1.88315,17.04794 -0.8314,5.80702 -3.17898,11.31756 -6.7896,15.93584 -3.61174,4.61957 -8.39413,8.2273 -13.83032,10.43306 -5.40189,2.1915 -11.15265,2.95282 -17.09293,2.26252 -5.3104,-0.61716 -10.66245,-2.42695 -15.90755,-5.37903 -6.44887,-3.62903 -12.82036,-8.95836 -19.78721,-16.58337 -6.96664,7.62486 -13.33788,12.95401 -19.78721,16.58376 -5.244991,2.9521 -10.597244,4.76174 -15.907881,5.37839 -1.414645,0.16502 -2.818969,0.24659 -4.209933,0.24659"
     id="path2"
     style="fill:#ff5a5f;fill-opacity:1;stroke-width:9.90595" />
</svg>
