<?xml version="1.0" encoding="UTF-8" standalone="no"?>
<svg
   xmlns:dc="http://purl.org/dc/elements/1.1/"
   xmlns:cc="http://creativecommons.org/ns#"
   xmlns:rdf="http://www.w3.org/1999/02/22-rdf-syntax-ns#"
   xmlns:svg="http://www.w3.org/2000/svg"
   xmlns="http://www.w3.org/2000/svg"
   id="svg8"
   version="1.1"
   viewBox="0 0 67.733332 67.733335"
   height="256"
   width="256">
  <defs
     id="defs2">
    <style
       id="style885">.cls-1{fill:#fff;}</style>
  </defs>
  <metadata
     id="metadata5">
    <rdf:RDF>
      <cc:Work
         rdf:about="">
        <dc:format>image/svg+xml</dc:format>
        <dc:type
           rdf:resource="http://purl.org/dc/dcmitype/StillImage" />
        <dc:title></dc:title>
      </cc:Work>
    </rdf:RDF>
  </metadata>
  <g
     transform="translate(0,-229.26665)"
     id="layer1">
    <g
       id="g927">
      <circle
         style="opacity:1;fill:#333333;fill-opacity:1;fill-rule:nonzero;stroke:none;stroke-width:0.57101721;stroke-linecap:round;stroke-linejoin:round;stroke-miterlimit:4;stroke-dasharray:none;stroke-dashoffset:0;stroke-opacity:1;paint-order:stroke fill markers"
         id="path815"
         cx="33.866665"
         cy="263.13333"
         r="32.12595" />
      <path
         id="path891"
         d="m 50.145976,265.8773 a 2.7419515,2.7419515 0 1 0 -1.557091,-4.99754 l -3.852938,-2.22483 c 0.0056,-0.0726 0.01084,-0.14552 0.01084,-0.21971 0,-0.0741 -0.005,-0.14712 -0.01084,-0.21972 l 3.852938,-2.22514 a 2.7416344,2.7416344 0 1 0 0,-4.51116 l -3.852938,-2.22483 c 0.0056,-0.0726 0.01084,-0.14554 0.01084,-0.21972 a 2.744805,2.744805 0 1 0 -1.184545,2.25558 l 3.852939,2.22514 c -0.0056,0.0726 -0.01085,0.14553 -0.01085,0.21973 0,0.0741 0.005,0.14711 0.01085,0.21972 l -3.852939,2.22514 a 2.7346589,2.7346589 0 0 0 -3.113864,0 L 36.59449,253.9545 c 0.0059,-0.0726 0.01111,-0.14554 0.01111,-0.21972 a 2.7387807,2.7387807 0 0 0 -1.566594,-2.47308 v -4.45251 a 2.7419515,2.7419515 0 1 0 -2.350063,0 v 4.45155 a 2.7400491,2.7400491 0 1 0 2.731807,4.72962 l 3.852936,2.22514 c -0.0056,0.0726 -0.01084,0.14552 -0.01084,0.21972 0,0.0741 0.005,0.14711 0.01084,0.21971 l -3.85262,2.22453 a 2.7368784,2.7368784 0 0 0 -3.113864,0 l -3.853577,-2.22453 c 0.0059,-0.0726 0.01112,-0.14552 0.01112,-0.21971 a 2.7397321,2.7397321 0 0 0 -1.566602,-2.47467 v -4.45123 a 2.7419515,2.7419515 0 1 0 -2.349745,0 v 4.45123 a 2.729586,2.729586 0 0 0 -0.380475,0.21908 l -3.855156,-2.22513 c 0.0059,-0.0726 0.01112,-0.14554 0.01112,-0.21972 a 2.7419515,2.7419515 0 1 0 -3.916349,2.47308 v 4.45441 a 2.7416344,2.7416344 0 1 0 2.349746,0 v -4.45314 a 2.7210255,2.7210255 0 0 0 0.380474,-0.21877 l 3.853572,2.22514 c -0.0056,0.0726 -0.01112,0.14552 -0.01112,0.21972 a 2.7390979,2.7390979 0 0 0 1.567235,2.47308 v 4.45281 a 2.7390979,2.7390979 0 0 0 -1.567235,2.47309 c 0,0.0745 0.0056,0.14711 0.01112,0.22004 l -3.851988,2.22578 a 2.7413173,2.7413173 0 1 0 1.186131,2.25558 c 0,-0.0741 -0.005,-0.14711 -0.01112,-0.21972 l 3.85357,-2.22452 a 2.7403661,2.7403661 0 1 0 2.730221,-4.73025 v -4.45154 a 2.7559021,2.7559021 0 0 0 0.380475,-0.21877 l 3.852937,2.22514 c -0.0056,0.0726 -0.01112,0.14521 -0.01112,0.21972 a 2.7390979,2.7390979 0 0 0 1.570408,2.47276 v 4.45314 a 2.7384636,2.7384636 0 0 0 -1.567237,2.47309 c 0,0.0741 0.0056,0.14711 0.01112,0.22003 l -3.852935,2.22451 a 2.7410003,2.7410003 0 1 0 1.184543,2.25558 c 0,-0.0741 -0.005,-0.14712 -0.01112,-0.22005 l 3.853571,-2.2245 a 2.7828524,2.7828524 0 0 0 0.380475,0.21909 v 4.45123 a 2.7406831,2.7406831 0 1 0 3.916665,2.47658 c 0,-0.0745 -0.005,-0.14712 -0.01111,-0.22004 l 3.853571,-2.22451 A 2.7413173,2.7413173 0 1 0 39.263843,277.237 c 0,0.0741 0.005,0.1471 0.01084,0.21971 l -3.852938,2.22513 a 2.6779049,2.6779049 0 0 0 -0.380474,-0.21907 v -4.45219 a 2.7403661,2.7403661 0 0 0 1.566603,-2.47467 c 0,-0.0741 -0.005,-0.14711 -0.01111,-0.21972 l 3.853571,-2.22451 a 2.7368784,2.7368784 0 0 0 3.113864,0 l 3.852937,2.22451 c -0.0056,0.0726 -0.01085,0.14554 -0.01085,0.21972 a 2.7435367,2.7435367 0 1 0 1.184542,-2.25557 l -3.854838,-2.22481 c 0.0056,-0.0729 0.01085,-0.14555 0.01085,-0.22005 a 2.7416344,2.7416344 0 0 0 -5.482952,0 c 0,0.0745 0.005,0.14711 0.01085,0.22005 l -3.853571,2.22449 a 2.7267324,2.7267324 0 0 0 -0.380475,-0.21877 v -4.45283 a 2.739415,2.739415 0 0 0 1.566604,-2.47307 c 0,-0.0745 -0.005,-0.14713 -0.01111,-0.21973 l 3.851985,-2.22482 a 2.7368784,2.7368784 0 0 0 3.113865,0 l 3.852936,2.22449 c -0.0056,0.0729 -0.01085,0.14555 -0.01085,0.22006 a 2.7416344,2.7416344 0 0 0 2.741633,2.74163"
         class="cls-1"
         style="fill:#ffffff;stroke-width:0.03170618" />
    </g>
  </g>
</svg>
