<?xml version="1.0" encoding="UTF-8" standalone="no"?>
<svg
   height="250"
   viewBox="2.167 0.438 25.1038 25.9969"
   width="250"
   version="1.1"
   id="svg12"
   sodipodi:docname="AMZN.svg"
   inkscape:version="1.1.1 (3bf5ae0d25, 2021-09-20)"
   xmlns:inkscape="http://www.inkscape.org/namespaces/inkscape"
   xmlns:sodipodi="http://sodipodi.sourceforge.net/DTD/sodipodi-0.dtd"
   xmlns="http://www.w3.org/2000/svg"
   xmlns:svg="http://www.w3.org/2000/svg">
  <defs
     id="defs16" />
  <sodipodi:namedview
     id="namedview14"
     pagecolor="#ffffff"
     bordercolor="#666666"
     borderopacity="1.0"
     inkscape:pageshadow="2"
     inkscape:pageopacity="0.0"
     inkscape:pagecheckerboard="0"
     showgrid="false"
     inkscape:zoom="1.3968"
     inkscape:cx="152.84937"
     inkscape:cy="282.43127"
     inkscape:window-width="2560"
     inkscape:window-height="1377"
     inkscape:window-x="-8"
     inkscape:window-y="-8"
     inkscape:window-maximized="1"
     inkscape:current-layer="svg12" />
  <circle
     style="fill:#ffffff;stroke-width:0.49709;fill-opacity:1"
     id="path855"
     cx="14.718902"
     cy="13.43645"
     r="12.99845" />
  <g
     fill="none"
     fill-rule="evenodd"
     id="g10"
     transform="matrix(0.07309772,0,0,0.07309772,5.0318906,4.357512)">
    <path
       d="m 221.503,210.324 c -105.235,50.083 -170.545,8.18 -212.352,-17.271 -2.587,-1.604 -6.984,0.375 -3.169,4.757 13.928,16.888 59.573,57.593 119.153,57.593 59.621,0 95.09,-32.532 99.527,-38.207 4.407,-5.627 1.294,-8.731 -3.16,-6.872 z m 29.555,-16.322 c -2.826,-3.68 -17.184,-4.366 -26.22,-3.256 -9.05,1.078 -22.634,6.609 -21.453,9.93 0.606,1.244 1.843,0.686 8.06,0.127 6.234,-0.622 23.698,-2.826 27.337,1.931 3.656,4.79 -5.57,27.608 -7.255,31.288 -1.628,3.68 0.622,4.629 3.68,2.178 3.016,-2.45 8.476,-8.795 12.14,-17.774 3.639,-9.028 5.858,-21.622 3.71,-24.424 z"
       fill="#ff9900"
       fill-rule="nonzero"
       id="path2" />
    <path
       d="m 150.744,108.13 c 0,13.141 0.332,24.1 -6.31,35.77 -5.361,9.489 -13.853,15.324 -23.341,15.324 -12.952,0 -20.495,-9.868 -20.495,-24.432 0,-28.75 25.76,-33.968 50.146,-33.968 z m 34.015,82.216 c -2.23,1.992 -5.456,2.135 -7.97,0.806 -11.196,-9.298 -13.189,-13.615 -19.356,-22.487 -18.502,18.882 -31.596,24.527 -55.601,24.527 -28.37,0 -50.478,-17.506 -50.478,-52.565 0,-27.373 14.85,-46.018 35.96,-55.126 18.313,-8.066 43.884,-9.489 63.43,-11.718 v -4.365 c 0,-8.018 0.616,-17.506 -4.08,-24.432 -4.128,-6.215 -12.003,-8.777 -18.93,-8.777 -12.856,0 -24.337,6.594 -27.136,20.257 -0.57,3.037 -2.799,6.026 -5.835,6.168 L 62.028,59.124 C 59.277,58.506 56.241,56.277 57,52.054 64.543,12.394 100.36,0.438 132.43,0.438 c 16.415,0 37.858,4.365 50.81,16.795 16.415,15.323 14.849,35.77 14.849,58.02 v 52.565 c 0,15.798 6.547,22.724 12.714,31.264 2.182,3.036 2.657,6.69 -0.095,8.966 -6.879,5.74 -19.119,16.415 -25.855,22.393 l -0.095,-0.095"
       fill="#000000"
       id="path4" />
    <path
       d="m 221.503,210.324 c -105.235,50.083 -170.545,8.18 -212.352,-17.271 -2.587,-1.604 -6.984,0.375 -3.169,4.757 13.928,16.888 59.573,57.593 119.153,57.593 59.621,0 95.09,-32.532 99.527,-38.207 4.407,-5.627 1.294,-8.731 -3.16,-6.872 z m 29.555,-16.322 c -2.826,-3.68 -17.184,-4.366 -26.22,-3.256 -9.05,1.078 -22.634,6.609 -21.453,9.93 0.606,1.244 1.843,0.686 8.06,0.127 6.234,-0.622 23.698,-2.826 27.337,1.931 3.656,4.79 -5.57,27.608 -7.255,31.288 -1.628,3.68 0.622,4.629 3.68,2.178 3.016,-2.45 8.476,-8.795 12.14,-17.774 3.639,-9.028 5.858,-21.622 3.71,-24.424 z"
       fill="#ff9900"
       fill-rule="nonzero"
       id="path6" />
    <path
       d="m 150.744,108.13 c 0,13.141 0.332,24.1 -6.31,35.77 -5.361,9.489 -13.853,15.324 -23.341,15.324 -12.952,0 -20.495,-9.868 -20.495,-24.432 0,-28.75 25.76,-33.968 50.146,-33.968 z m 34.015,82.216 c -2.23,1.992 -5.456,2.135 -7.97,0.806 -11.196,-9.298 -13.189,-13.615 -19.356,-22.487 -18.502,18.882 -31.596,24.527 -55.601,24.527 -28.37,0 -50.478,-17.506 -50.478,-52.565 0,-27.373 14.85,-46.018 35.96,-55.126 18.313,-8.066 43.884,-9.489 63.43,-11.718 v -4.365 c 0,-8.018 0.616,-17.506 -4.08,-24.432 -4.128,-6.215 -12.003,-8.777 -18.93,-8.777 -12.856,0 -24.337,6.594 -27.136,20.257 -0.57,3.037 -2.799,6.026 -5.835,6.168 L 62.028,59.124 C 59.277,58.506 56.241,56.277 57,52.054 64.543,12.394 100.36,0.438 132.43,0.438 c 16.415,0 37.858,4.365 50.81,16.795 16.415,15.323 14.849,35.77 14.849,58.02 v 52.565 c 0,15.798 6.547,22.724 12.714,31.264 2.182,3.036 2.657,6.69 -0.095,8.966 -6.879,5.74 -19.119,16.415 -25.855,22.393 l -0.095,-0.095"
       fill="#000000"
       id="path8" />
  </g>
</svg>
