<?xml version="1.0" encoding="UTF-8"?><svg id="Layer_1" xmlns="http://www.w3.org/2000/svg" width="128" height="128" viewBox="0 0 128 128"><defs><style>.cls-1{fill:#fff;}</style></defs><path d="M64,128h0C28.61,128,0,99.36,0,64.05h0C0,28.64,28.61,0,64,0h0c35.29,0,64,28.64,64,64.05h0c-.09,35.32-28.71,63.95-64,63.95Z"/><path class="cls-1" d="M64,118.8v-18.66c-1.88,0-3.8-.16-5.68-.45l-2.94,18.41c2.86.49,5.76.69,8.62.69h0ZM72.57,118.14c2.86-.45,5.68-1.1,8.41-2l-5.76-17.76c-1.8.57-3.67,1.02-5.55,1.31l2.9,18.46ZM47.01,116.14l5.76-17.72c-1.8-.57-3.55-1.31-5.27-2.16l-8.49,16.62c2.57,1.27,5.27,2.37,8,3.27ZM88.95,112.88c2.57-1.31,5.02-2.82,7.35-4.49l-11.02-15.07c-1.51,1.1-3.14,2.12-4.86,2.94l8.53,16.62ZM31.66,108.34l11.02-15.07c-1.51-1.1-2.98-2.33-4.33-3.67l-13.23,13.19h0c2.04,2,4.25,3.88,6.53,5.55ZM102.79,102.87l.12-.12c2.04-2,3.92-4.21,5.59-6.49l-15.11-10.98c-1.1,1.51-2.37,2.98-3.67,4.29l-.2.2,6.37,6,6.9,7.1ZM19.53,96.22l15.11-10.98c-1.1-1.51-2.12-3.14-2.98-4.82l-16.66,8.45c1.31,2.57,2.82,5.02,4.53,7.35h0ZM113,88.91c1.31-2.53,2.41-5.23,3.31-7.96l-17.8-5.72c-.57,1.8-1.31,3.55-2.16,5.23l16.66,8.45ZM11.69,80.95l17.8-5.76c-.57-1.8-1.02-3.63-1.31-5.51l-18.5,2.9c.45,2.82,1.14,5.63,2,8.37h0ZM118.31,72.62c.45-2.82.69-5.72.69-8.57h-18.7c0,1.88-.16,3.8-.45,5.68l18.46,2.9ZM27.74,64c0-1.88.16-3.8.45-5.68l-18.5-2.9c-.45,2.82-.65,5.72-.69,8.57h18.74ZM99.85,58.37l18.5-2.9c-.45-2.82-1.1-5.63-2-8.37l-17.8,5.72c.57,1.84,1.02,3.67,1.31,5.55h0ZM29.5,52.81c.57-1.8,1.31-3.55,2.16-5.23l-16.66-8.45c-1.31,2.53-2.41,5.23-3.31,7.96l17.8,5.72h0ZM96.38,47.63l16.7-8.45c-1.31-2.57-2.82-5.02-4.53-7.35l-15.15,10.98c1.1,1.51,2.12,3.14,2.98,4.82h0ZM34.64,42.77c1.1-1.51,2.37-2.98,3.72-4.33l.04-.04-13.23-13.19-.04.04c-2.04,2.04-3.92,4.21-5.59,6.53l15.11,10.98ZM89.72,38.52l4-4.04,9.19-9.15-.04-.04c-2.04-2-4.21-3.88-6.49-5.55l-11.02,15.07c1.51,1.1,2.98,2.33,4.29,3.67l.08.04ZM42.73,34.72c1.51-1.1,3.14-2.08,4.86-2.94l-8.49-16.62c-2.57,1.31-5.02,2.82-7.35,4.49l10.98,15.07ZM80.54,31.82l8.53-16.62c-2.57-1.31-5.23-2.41-7.96-3.31l-5.8,17.72c1.76.61,3.51,1.35,5.23,2.2h0ZM52.85,29.62c1.8-.57,3.67-1.02,5.55-1.31l-2.9-18.41c-2.82.45-5.68,1.1-8.41,2l5.76,17.72ZM69.72,28.31l2.94-18.41c-2.82-.45-5.72-.69-8.57-.69v18.66c1.88,0,3.8.16,5.63.45Z"/><path class="cls-1" d="M64,100.99v-18.74c-1.59,0-3.14-.2-4.7-.61l-4.9,18.09c3.14.82,6.37,1.27,9.6,1.27ZM73.6,99.73c3.14-.82,6.12-2.04,8.94-3.67l-9.47-16.21c-1.35.78-2.82,1.39-4.33,1.8l4.86,18.09ZM45.5,96.05l9.47-16.21c-1.35-.78-2.61-1.76-3.76-2.86l-.16-.16-5.96,6.25-7.35,7.06.12.12c2.29,2.25,4.86,4.21,7.64,5.8h0ZM90.17,90.25h0c2.29-2.29,4.29-4.82,5.88-7.59l-16.37-9.39c-.78,1.35-1.76,2.57-2.9,3.72l13.39,13.27ZM31.95,82.62l16.37-9.35c-.78-1.35-1.39-2.78-1.8-4.29l-18.25,4.82c.82,3.06,2.08,6.04,3.67,8.82ZM99.77,73.84c.82-3.1,1.27-6.29,1.27-9.47h-18.9c0,1.55-.2,3.14-.61,4.65l18.25,4.82ZM45.95,64.33c0-1.55.2-3.14.61-4.65l-18.29-4.82c-.82,3.1-1.27,6.29-1.27,9.47h18.95ZM81.48,59.71l18.29-4.82c-.82-3.1-2.08-6.08-3.67-8.86l-16.37,9.35c.73,1.39,1.35,2.82,1.76,4.33ZM48.36,55.38c.78-1.31,1.71-2.57,2.86-3.67l.04-.04-6.78-6.7-6.49-6.66-.12.12c-2.29,2.25-4.25,4.82-5.88,7.55l16.37,9.39ZM44.48,44.97l.08.08-.08-.08ZM76.78,51.71l6.7-6.66,6.86-6.45-.16-.16c-2.29-2.29-4.86-4.21-7.64-5.84l-9.47,16.21c1.35.78,2.57,1.71,3.72,2.82v.08ZM54.98,48.81c1.35-.78,2.82-1.39,4.33-1.8l-4.82-18.09c-3.14.82-6.12,2.04-8.94,3.67l9.43,16.21ZM68.7,47.05l4.9-18.09c-3.1-.82-6.33-1.27-9.55-1.27v18.74c1.55,0,3.14.2,4.65.61h0Z"/></svg>