<svg xmlns="http://www.w3.org/2000/svg" width="244.8" height="244.8" viewBox="0 0 244.8 244.8">
  <g id="maps-solana" transform="translate(-3216.195 -5729.971)">
    <path id="Main_copy_10" d="M0,121.252C0,188.064,54.44,242.5,121.252,242.5S242.5,188.064,242.5,121.252,188.064,0,121.252,0,0,54.44,0,121.252Z" transform="translate(3217.444 5731.219)" fill="#77d563"/>
    <g id="Main_copy_14" transform="translate(3216.196 5729.971)" fill="none">
      <path d="M0,122.4c0,67.444,54.954,122.4,122.4,122.4s122.4-54.954,122.4-122.4S189.841,0,122.4,0,0,54.954,0,122.4Z" stroke="none"/>
      <path d="M 122.4000015258789 11 C 60.97383117675781 11 11 60.97383117675781 11 122.4000015258789 C 11 183.826171875 60.97383117675781 233.8000030517578 122.4000015258789 233.8000030517578 C 183.826171875 233.8000030517578 233.8000030517578 183.826171875 233.8000030517578 122.4000015258789 C 233.8000030517578 60.97383117675781 183.826171875 11 122.4000015258789 11 M 122.4000015258789 0 C 189.8410034179688 0 244.8000030517578 54.95399475097656 244.8000030517578 122.4000015258789 C 244.8000030517578 189.8460083007813 189.8460083007813 244.8000030517578 122.4000015258789 244.8000030517578 C 54.95399475097656 244.8000030517578 0 189.843994140625 0 122.4000015258789 C 0 54.95399475097656 54.95899963378906 0 122.4000015258789 0 Z" stroke="none" fill="#1ae5ae"/>
    </g>
    <g id="Group_9263" data-name="Group 9263" transform="translate(-113.701 -678.881)">
      <path id="Path_472536" data-name="Path 472536" d="M29.524,24.458a1.14,1.14,0,0,0-1.619-.008L9.112,43.235,10.327,49c1.907,9.925,11.589,16.789,21.515,14.883l28.8-5.533a1,1,0,0,0,.523-1.676Z" transform="translate(3379.182 6533.775)" fill="#fff"/>
      <path id="Path_472537" data-name="Path 472537" d="M31.034,43.06a1.212,1.212,0,0,0,.009-1.707L9.663,19.58a1.212,1.212,0,0,0-2.054,1.079L14.555,56.81a1.212,1.212,0,0,0,2.045.63Z" transform="translate(3372.053 6510.871)" fill="#fff"/>
      <path id="Path_472538" data-name="Path 472538" d="M36.318,46.321a1.452,1.452,0,0,0,2.06.01L72.024,12.81a1.137,1.137,0,0,0-1.017-1.922L14.612,21.724a1.137,1.137,0,0,0-.6,1.914Z" transform="translate(3400.558 6471.885)" fill="#fff"/>
      <path id="Path_472539" data-name="Path 472539" d="M29.454,32.011,51.089,53.78a1.021,1.021,0,0,0,1.727-.908L45.907,16.145a1.021,1.021,0,0,0-1.721-.537L29.462,30.151A1.313,1.313,0,0,0,29.454,32.011Z" transform="translate(3472.411 6492.653)" fill="#fff"/>
      <path id="Path_472540" data-name="Path 472540" d="M24.329,26.824,47.477,50.5a1.426,1.426,0,0,0,2.023.016L68.229,31.982l-1.181-7.029a18.108,18.108,0,0,0-21.19-14.579l-8.411,1.519-13.1,12.917A1.427,1.427,0,0,0,24.329,26.824Z" transform="translate(3448.36 6468.046)" fill="#fff"/>
      <path id="Path_472541" data-name="Path 472541" d="M39.052,65.16,62.645,42.107a1.57,1.57,0,0,0,.023-2.224L36.359,13.126l-14.326,2.5A17.931,17.931,0,0,0,7.215,34.976L36.834,65.138A1.571,1.571,0,0,0,39.052,65.16Z" transform="translate(3369.914 6482.438)" fill="#fff"/>
      <path id="Path_472542" data-name="Path 472542" d="M44.247,63.551,68.281,39.72a1.032,1.032,0,0,0,.008-1.458l-23.95-24.3a1.032,1.032,0,0,0-1.465,0l-23.9,23.9a1.032,1.032,0,0,0-.006,1.453l23.819,24.23A1.031,1.031,0,0,0,44.247,63.551Z" transform="translate(3423.823 6484.901)" fill="#fff"/>
      <path id="Path_472543" data-name="Path 472543" d="M44.536,24.484a1.153,1.153,0,0,0-1.639-.011L18.941,48.367a1.153,1.153,0,0,0,0,1.63l6.34,6.361,40.262-7.75a1.171,1.171,0,0,0,.616-1.969Z" transform="translate(3423.51 6533.868)" fill="#fff"/>
      <path id="Path_472544" data-name="Path 472544" d="M79.547,49.729,49.6,19.341a1.323,1.323,0,0,0-1.88,0L24.274,42.909a1.324,1.324,0,0,0-.006,1.861L50.029,70.977l15.066-2.9A17.932,17.932,0,0,0,79.547,49.729Z" transform="translate(3448.199 6509.627)" fill="#fff"/>
      <path id="Path_472545" data-name="Path 472545" d="M23.315,22.118a6.694,6.694,0,1,0,6.694,6.694A6.694,6.694,0,0,0,23.315,22.118Z" transform="translate(3414.251 6524.44)" fill="#fff"/>
      <path id="Path_472546" data-name="Path 472546" d="M15.466,32.652l5.566-1.216a1.439,1.439,0,0,0,1.128-1.3L22.08,27.6A10.257,10.257,0,0,1,24.551,22a10.02,10.02,0,0,1,5.576-3.668l13.455-2.756a11.59,11.59,0,0,1,9.738,3.362,14.921,14.921,0,0,1,2.774,4.525,1.18,1.18,0,0,0,1.312.739l5.456-1a1.171,1.171,0,0,0,.937-1.4c-.323-1.437-1.309-4.139-4.31-7.985C56.274,9.483,48.2,6.746,42.342,7.928L29.091,10.6C22.5,11.932,16.633,16.768,15.057,23.528a26.231,26.231,0,0,0-.852,8.144A1.038,1.038,0,0,0,15.466,32.652Z" transform="translate(3402.884 6456.871)" fill="#fff"/>
    </g>
  </g>
</svg>
