<?xml version="1.0" encoding="UTF-8" standalone="no"?>
<svg
   xmlns:dc="http://purl.org/dc/elements/1.1/"
   xmlns:cc="http://creativecommons.org/ns#"
   xmlns:rdf="http://www.w3.org/1999/02/22-rdf-syntax-ns#"
   xmlns:svg="http://www.w3.org/2000/svg"
   xmlns="http://www.w3.org/2000/svg"
   xmlns:sodipodi="http://sodipodi.sourceforge.net/DTD/sodipodi-0.dtd"
   xmlns:inkscape="http://www.inkscape.org/namespaces/inkscape"
   width="242.5"
   height="242.5"
   viewBox="0 0 242.5 242.5"
   version="1.1"
   id="svg21"
   sodipodi:docname="MAPS_SOL.svg"
   inkscape:version="1.0.2-2 (e86c870879, 2021-01-15)">
  <metadata
     id="metadata27">
    <rdf:RDF>
      <cc:Work
         rdf:about="">
        <dc:format>image/svg+xml</dc:format>
        <dc:type
           rdf:resource="http://purl.org/dc/dcmitype/StillImage" />
      </cc:Work>
    </rdf:RDF>
  </metadata>
  <defs
     id="defs25" />
  <sodipodi:namedview
     pagecolor="#ffffff"
     bordercolor="#666666"
     borderopacity="1"
     objecttolerance="10"
     gridtolerance="10"
     guidetolerance="10"
     inkscape:pageopacity="0"
     inkscape:pageshadow="2"
     inkscape:window-width="1920"
     inkscape:window-height="1017"
     id="namedview23"
     showgrid="false"
     inkscape:zoom="3.4722222"
     inkscape:cx="121.151"
     inkscape:cy="121.152"
     inkscape:window-x="-8"
     inkscape:window-y="-8"
     inkscape:window-maximized="1"
     inkscape:current-layer="maps-solana" />
  <g
     id="maps-solana"
     transform="translate(-3217.444,-5731.219)">
    <path
       id="Main_copy_10"
       d="M 0,121.252 C 0,188.064 54.44,242.5 121.252,242.5 188.064,242.5 242.5,188.064 242.5,121.252 242.5,54.44 188.064,0 121.252,0 54.44,0 0,54.44 0,121.252 Z"
       fill="#77d563"
       transform="translate(3217.444,5731.219)" />
    <g
       id="Group_9263"
       data-name="Group 9263"
       transform="translate(-113.701,-678.881)">
      <path
         id="Path_472536"
         data-name="Path 472536"
         d="M 29.524,24.458 A 1.14,1.14 0 0 0 27.905,24.45 L 9.112,43.235 10.327,49 c 1.907,9.925 11.589,16.789 21.515,14.883 l 28.8,-5.533 a 1,1 0 0 0 0.523,-1.676 z"
         transform="translate(3379.182,6533.775)"
         fill="#fff" />
      <path
         id="Path_472537"
         data-name="Path 472537"
         d="m 31.034,43.06 a 1.212,1.212 0 0 0 0.009,-1.707 L 9.663,19.58 a 1.212,1.212 0 0 0 -2.054,1.079 l 6.946,36.151 a 1.212,1.212 0 0 0 2.045,0.63 z"
         transform="translate(3372.053,6510.871)"
         fill="#fff" />
      <path
         id="Path_472538"
         data-name="Path 472538"
         d="m 36.318,46.321 a 1.452,1.452 0 0 0 2.06,0.01 L 72.024,12.81 A 1.137,1.137 0 0 0 71.007,10.888 L 14.612,21.724 a 1.137,1.137 0 0 0 -0.6,1.914 z"
         transform="translate(3400.558,6471.885)"
         fill="#fff" />
      <path
         id="Path_472539"
         data-name="Path 472539"
         d="M 29.454,32.011 51.089,53.78 a 1.021,1.021 0 0 0 1.727,-0.908 L 45.907,16.145 A 1.021,1.021 0 0 0 44.186,15.608 L 29.462,30.151 a 1.313,1.313 0 0 0 -0.008,1.86 z"
         transform="translate(3472.411,6492.653)"
         fill="#fff" />
      <path
         id="Path_472540"
         data-name="Path 472540"
         d="M 24.329,26.824 47.477,50.5 A 1.426,1.426 0 0 0 49.5,50.516 L 68.229,31.982 67.048,24.953 A 18.108,18.108 0 0 0 45.858,10.374 l -8.411,1.519 -13.1,12.917 a 1.427,1.427 0 0 0 -0.018,2.014 z"
         transform="translate(3448.36,6468.046)"
         fill="#fff" />
      <path
         id="Path_472541"
         data-name="Path 472541"
         d="M 39.052,65.16 62.645,42.107 a 1.57,1.57 0 0 0 0.023,-2.224 L 36.359,13.126 22.033,15.626 A 17.931,17.931 0 0 0 7.215,34.976 l 29.619,30.162 a 1.571,1.571 0 0 0 2.218,0.022 z"
         transform="translate(3369.914,6482.438)"
         fill="#fff" />
      <path
         id="Path_472542"
         data-name="Path 472542"
         d="M 44.247,63.551 68.281,39.72 a 1.032,1.032 0 0 0 0.008,-1.458 l -23.95,-24.3 a 1.032,1.032 0 0 0 -1.465,0 l -23.9,23.9 a 1.032,1.032 0 0 0 -0.006,1.453 l 23.819,24.23 a 1.031,1.031 0 0 0 1.46,0.006 z"
         transform="translate(3423.823,6484.901)"
         fill="#fff" />
      <path
         id="Path_472543"
         data-name="Path 472543"
         d="M 44.536,24.484 A 1.153,1.153 0 0 0 42.897,24.473 L 18.941,48.367 a 1.153,1.153 0 0 0 0,1.63 l 6.34,6.361 40.262,-7.75 a 1.171,1.171 0 0 0 0.616,-1.969 z"
         transform="translate(3423.51,6533.868)"
         fill="#fff" />
      <path
         id="Path_472544"
         data-name="Path 472544"
         d="M 79.547,49.729 49.6,19.341 a 1.323,1.323 0 0 0 -1.88,0 L 24.274,42.909 a 1.324,1.324 0 0 0 -0.006,1.861 l 25.761,26.207 15.066,-2.9 A 17.932,17.932 0 0 0 79.547,49.729 Z"
         transform="translate(3448.199,6509.627)"
         fill="#fff" />
      <path
         id="Path_472545"
         data-name="Path 472545"
         d="m 23.315,22.118 a 6.694,6.694 0 1 0 6.694,6.694 6.694,6.694 0 0 0 -6.694,-6.694 z"
         transform="translate(3414.251,6524.44)"
         fill="#fff" />
      <path
         id="Path_472546"
         data-name="Path 472546"
         d="m 15.466,32.652 5.566,-1.216 a 1.439,1.439 0 0 0 1.128,-1.3 L 22.08,27.6 a 10.257,10.257 0 0 1 2.471,-5.6 10.02,10.02 0 0 1 5.576,-3.668 l 13.455,-2.756 a 11.59,11.59 0 0 1 9.738,3.362 14.921,14.921 0 0 1 2.774,4.525 1.18,1.18 0 0 0 1.312,0.739 l 5.456,-1 a 1.171,1.171 0 0 0 0.937,-1.4 C 63.476,20.365 62.49,17.663 59.489,13.817 56.274,9.483 48.2,6.746 42.342,7.928 L 29.091,10.6 C 22.5,11.932 16.633,16.768 15.057,23.528 a 26.231,26.231 0 0 0 -0.852,8.144 1.038,1.038 0 0 0 1.261,0.98 z"
         transform="translate(3402.884,6456.871)"
         fill="#fff" />
    </g>
  </g>
</svg>
