<?xml version="1.0" encoding="UTF-8" standalone="no"?>
<svg
   xmlns:dc="http://purl.org/dc/elements/1.1/"
   xmlns:cc="http://creativecommons.org/ns#"
   xmlns:rdf="http://www.w3.org/1999/02/22-rdf-syntax-ns#"
   xmlns:svg="http://www.w3.org/2000/svg"
   xmlns="http://www.w3.org/2000/svg"
   xmlns:sodipodi="http://sodipodi.sourceforge.net/DTD/sodipodi-0.dtd"
   xmlns:inkscape="http://www.inkscape.org/namespaces/inkscape"
   width="233"
   height="233"
   viewBox="0 0 232.99999 232.99999"
   version="1.1"
   id="svg8"
   sodipodi:docname="MATIC_ERC20.svg"
   inkscape:version="1.0.2-2 (e86c870879, 2021-01-15)">
  <metadata
     id="metadata14">
    <rdf:RDF>
      <cc:Work
         rdf:about="">
        <dc:format>image/svg+xml</dc:format>
        <dc:type
           rdf:resource="http://purl.org/dc/dcmitype/StillImage" />
      </cc:Work>
    </rdf:RDF>
  </metadata>
  <defs
     id="defs12" />
  <sodipodi:namedview
     pagecolor="#ffffff"
     bordercolor="#666666"
     borderopacity="1"
     objecttolerance="10"
     gridtolerance="10"
     guidetolerance="10"
     inkscape:pageopacity="0"
     inkscape:pageshadow="2"
     inkscape:window-width="1920"
     inkscape:window-height="1017"
     id="namedview10"
     showgrid="false"
     inkscape:zoom="3.4552704"
     inkscape:cx="116.0385"
     inkscape:cy="116.0385"
     inkscape:window-x="-8"
     inkscape:window-y="-8"
     inkscape:window-maximized="1"
     inkscape:current-layer="matic_erc" />
  <g
     id="matic_erc"
     transform="translate(-2296,-3288)">
    <g
       id="Polygon_matic_logo"
       transform="translate(1524.234,2998.234)">
      <circle
         id="path1530"
         cx="116.5"
         cy="116.5"
         r="116.5"
         transform="translate(771.766,289.766)"
         fill="#8247e5" />
      <g
         id="polygon-matic-logo"
         transform="translate(813.126,340.698)">
        <path
           id="Path_27"
           data-name="Path 27"
           d="m 113.484,40.207 a 9.971,9.971 0 0 0 -9.392,0 L 82.178,53.119 67.308,61.338 45.785,74.252 a 9.971,9.971 0 0 1 -9.392,0 L 19.566,64.077 a 9.538,9.538 0 0 1 -4.7,-8.217 V 36.293 a 9.652,9.652 0 0 1 4.7,-8.217 l 16.827,-9.783 a 9.971,9.971 0 0 1 9.392,0 l 16.827,10.174 a 9.538,9.538 0 0 1 4.7,8.217 V 49.6 l 14.866,-8.61 v -13.3 a 9.652,9.652 0 0 0 -4.7,-8.217 L 46.176,1.073 a 9.971,9.971 0 0 0 -9.392,0 L 4.7,19.857 A 8.608,8.608 0 0 0 0,27.684 v 36.784 a 9.652,9.652 0 0 0 4.7,8.217 l 31.7,18.393 a 9.971,9.971 0 0 0 9.392,0 L 67.308,78.556 82.179,69.947 103.7,57.426 a 9.971,9.971 0 0 1 9.392,0 l 16.827,9.783 a 9.538,9.538 0 0 1 4.7,8.217 v 19.566 a 9.652,9.652 0 0 1 -4.7,8.217 l -16.436,9.783 a 9.971,9.971 0 0 1 -9.392,0 L 87.266,103.21 a 9.538,9.538 0 0 1 -4.7,-8.217 V 82.469 L 67.7,91.079 v 12.913 a 9.652,9.652 0 0 0 4.7,8.217 l 31.7,18.392 a 9.971,9.971 0 0 0 9.392,0 l 31.7,-18.392 a 9.538,9.538 0 0 0 4.7,-8.217 V 66.816 a 9.652,9.652 0 0 0 -4.7,-8.217 z"
           transform="translate(0.002,0.102)"
           fill="#fff" />
      </g>
    </g>
  </g>
</svg>
