<?xml version="1.0" encoding="utf-8"?>
<!-- Generator: Adobe Illustrator 22.0.0, SVG Export Plug-In . SVG Version: 6.00 Build 0)  -->
<svg version="1.1" id="Monaco" xmlns="http://www.w3.org/2000/svg" xmlns:xlink="http://www.w3.org/1999/xlink" x="0px" y="0px"
	 viewBox="0 0 245 245" style="enable-background:new 0 0 245 245;" xml:space="preserve">
<style type="text/css">
	.st0{fill:#002D72;}
	.st1{fill:#FFFFFF;}
</style>
<path id="Main" class="st0" d="M0,122.5C0,190,55,245,122.5,245S245,190,245,122.5S190,0,122.5,0S0,55,0,122.5z"/>
<path class="st1" d="M122.5,35.5L47,78.7v87.1l75.5,43.7l75-43.7V78.7L122.5,35.5z M92.8,73.2h58.9l7,29.9H85.7L92.8,73.2z
	 M116,163.5l-12.4,11.7H92.8l-27.3-46.7l20.2-14.7L103,125v20l13,12.5V163.5z M107.4,143.7l2.1-18.8l-6-16.9h37.3l-6.3,16.9
	l2.2,18.8H107.4z M151.7,175.2h-10.8l-12.3-11.7v-6l13-12.5v-20l17.1-11.2l19.7,14.7L151.7,175.2z"/>
</svg>
