<?xml version="1.0" encoding="UTF-8" standalone="no"?>
<!-- Generator: Adobe Illustrator 25.0.1, SVG Export Plug-In . SVG Version: 6.00 Build 0)  -->

<svg
   version="1.1"
   id="katman_1"
   x="0px"
   y="0px"
   viewBox="0 0 132 132"
   xml:space="preserve"
   sodipodi:docname="MCOIN.svg"
   width="132"
   height="132"
   inkscape:version="1.1.1 (3bf5ae0d25, 2021-09-20)"
   xmlns:inkscape="http://www.inkscape.org/namespaces/inkscape"
   xmlns:sodipodi="http://sodipodi.sourceforge.net/DTD/sodipodi-0.dtd"
   xmlns="http://www.w3.org/2000/svg"
   xmlns:svg="http://www.w3.org/2000/svg"><defs
   id="defs15" /><sodipodi:namedview
   id="namedview13"
   pagecolor="#ffffff"
   bordercolor="#666666"
   borderopacity="1.0"
   inkscape:pageshadow="2"
   inkscape:pageopacity="0.0"
   inkscape:pagecheckerboard="0"
   showgrid="false"
   width="1245.28px"
   inkscape:zoom="3.061451"
   inkscape:cx="95.54293"
   inkscape:cy="111.22177"
   inkscape:window-width="2560"
   inkscape:window-height="1377"
   inkscape:window-x="-8"
   inkscape:window-y="-8"
   inkscape:window-maximized="1"
   inkscape:current-layer="Сгруппировать_185877" />
<style
   type="text/css"
   id="style2">
	.st0{fill:#3259A5;}
	.st1{fill:#FFFFFF;}
</style>
<g
   id="g8"
   transform="translate(-125.32371,5.9677957)">
	
	
<g
   id="g485"><g
     id="Layer_2"
     data-name="Layer 2"
     transform="translate(38.436804,-11.847361)"><g
       id="Сгруппировать_185896"
       data-name="Сгруппировать 185896"
       transform="translate(178.02016,16.658767)"><g
         id="Сгруппировать_185877"
         data-name="Сгруппировать 185877"><path
           id="Прямоугольник_193242"
           data-name="Прямоугольник 193242"
           d="m -25.133254,-10.779202 v 0 a 66,66 0 0 1 66,66 v 0 a 66,66 0 0 1 -66,66.000002 v 0 a 66,66 0 0 1 -66,-66.000002 v 0 a 66,66 0 0 1 66,-66 z"
           fill="#5741d9"
           style="fill:#0251ff;fill-opacity:1" /></g><g
         id="kraken-horizontal.53c4b4ce372977ef3776e390e668055a" /></g></g><path
     class="st1"
     d="m 211.5937,63.85758 c -1.79578,9.494988 -10.14509,16.67463 -20.1812,16.67463 -11.34765,0 -20.5444,-9.176875 -20.5444,-20.500004 0,-11.323129 9.19676,-20.499997 20.5444,-20.499997 10.03611,0 18.38542,7.183661 20.1812,16.674621 h 20.73001 C 230.39074,35.356498 212.8124,19.032204 191.4125,19.032204 c -22.69529,0 -41.08879,18.357787 -41.08879,41.000002 0,22.64624 18.39753,40.999994 41.08879,40.999994 21.3999,0 38.97824,-16.324278 40.91121,-37.17462 z"
     id="path6"
     style="stroke-width:0.403108" /></g></g>

</svg>
