<svg id="MDA" xmlns="http://www.w3.org/2000/svg" width="512" height="512" viewBox="0 0 512 512">
  <defs>
    <style>
      .cls-1 {
        fill: #00a147;
      }

      .cls-1, .cls-2 {
        fill-rule: evenodd;
      }

      .cls-2 {
        fill: #fff;
      }
    </style>
  </defs>
  <path id="Full" class="cls-1" d="M11,256c0,135.094,109.906,245,245,245S501,391.094,501,256,391.094,11,256,11,11,120.906,11,256Z"/>
  <path id="MDA-2" data-name="MDA" class="cls-2" d="M329.8,131.079c-19.694-21.147-44.091-31.065-73.624-31.065-29.967,0-54.373,9.918-74.058,30.2-19.695,19.852-29.108,45.311-29.108,75.947,0,30.2,9.847,55.666,29.533,75.939a96.241,96.241,0,0,0,54.8,28.922v18.121H194.1v19.415h43.666v10.355H194.107v18.121h43.232V411.99h37.238V377.033h43.657V358.921H274.152V348.566h44.091V329.142H274.585V311.458A95.946,95.946,0,0,0,329.8,282.536c19.261-20.272,29.108-45.731,29.108-75.938C358.907,176.827,349.06,151.369,329.8,131.079ZM289.56,246.285c-8.129,10.355-19.695,15.533-33.385,15.533a41.054,41.054,0,0,1-32.969-15.533c-8.554-10.355-12.84-23.727-12.84-40.562,0-16.4,4.286-29.342,12.84-39.7a41.053,41.053,0,0,1,32.969-15.532c12.84,0,23.972,5.177,32.526,15.961,9,10.355,13.274,23.744,13.274,39.7C301.975,222.558,297.7,235.93,289.56,246.285Z"/>
</svg>
