<?xml version="1.0" encoding="utf-8"?>
<!-- Generator: Adobe Illustrator 22.0.0, SVG Export Plug-In . SVG Version: 6.00 Build 0)  -->
<svg version="1.1" id="MDA" xmlns="http://www.w3.org/2000/svg" xmlns:xlink="http://www.w3.org/1999/xlink" x="0px" y="0px"
	 viewBox="0 0 490 490" style="enable-background:new 0 0 490 490;" xml:space="preserve">
<style type="text/css">
	.st0{fill:#00A147;}
	.st1{fill:#FFFFFF;}
</style>
<path id="Full" class="st0" d="M0,245c0,135.1,109.9,245,245,245s245-109.9,245-245S380.1,0,245,0S0,109.9,0,245z"/>
<path id="MDA-2" class="st1" d="M318.8,120.1C299.1,98.9,274.7,89,245.2,89c-30,0-54.4,9.9-74.1,30.2
	c-19.7,19.9-29.1,45.3-29.1,75.9c0,30.2,9.8,55.7,29.5,75.9c14.6,15.4,33.8,25.6,54.8,28.9v18.1h-43.2v19.4h43.7v10.4h-43.7V366
	h43.2v35h37.2v-35h43.7v-18.1h-44.1v-10.4h44.1v-19.4h-43.7v-17.7c21.1-3.2,40.5-13.4,55.2-28.9c19.3-20.3,29.1-45.7,29.1-75.9
	C347.9,165.8,338.1,140.4,318.8,120.1z M278.6,235.3c-8.1,10.4-19.7,15.5-33.4,15.5c-12.8,0.3-25-5.5-33-15.5
	c-8.6-10.4-12.8-23.7-12.8-40.6c0-16.4,4.3-29.3,12.8-39.7c8-10,20.2-15.8,33-15.5c12.8,0,24,5.2,32.5,16
	c9,10.4,13.3,23.7,13.3,39.7C291,211.6,286.7,224.9,278.6,235.3z"/>
</svg>
