<?xml version="1.0" encoding="UTF-8" standalone="no"?>
<svg
   xmlns:dc="http://purl.org/dc/elements/1.1/"
   xmlns:cc="http://creativecommons.org/ns#"
   xmlns:rdf="http://www.w3.org/1999/02/22-rdf-syntax-ns#"
   xmlns:svg="http://www.w3.org/2000/svg"
   xmlns="http://www.w3.org/2000/svg"
   xmlns:sodipodi="http://sodipodi.sourceforge.net/DTD/sodipodi-0.dtd"
   xmlns:inkscape="http://www.inkscape.org/namespaces/inkscape"
   width="242.5"
   height="242.5"
   viewBox="0 0 242.5 242.5"
   version="1.1"
   id="svg30"
   sodipodi:docname="MEDIA_SOL.svg"
   inkscape:version="1.0.2-2 (e86c870879, 2021-01-15)">
  <metadata
     id="metadata36">
    <rdf:RDF>
      <cc:Work
         rdf:about="">
        <dc:format>image/svg+xml</dc:format>
        <dc:type
           rdf:resource="http://purl.org/dc/dcmitype/StillImage" />
      </cc:Work>
    </rdf:RDF>
  </metadata>
  <defs
     id="defs34" />
  <sodipodi:namedview
     pagecolor="#ffffff"
     bordercolor="#666666"
     borderopacity="1"
     objecttolerance="10"
     gridtolerance="10"
     guidetolerance="10"
     inkscape:pageopacity="0"
     inkscape:pageshadow="2"
     inkscape:window-width="1920"
     inkscape:window-height="1017"
     id="namedview32"
     showgrid="false"
     inkscape:zoom="3.4722222"
     inkscape:cx="121.152"
     inkscape:cy="121.152"
     inkscape:window-x="-8"
     inkscape:window-y="-8"
     inkscape:window-maximized="1"
     inkscape:current-layer="media-solana" />
  <g
     id="media-solana"
     transform="translate(-2856.773,-6141.206)">
    <path
       id="Main_copy_10"
       d="M 0,121.252 C 0,188.064 54.44,242.5 121.252,242.5 188.064,242.5 242.5,188.064 242.5,121.252 242.5,54.44 188.064,0 121.252,0 54.44,0 0,54.44 0,121.252 Z"
       transform="translate(2856.773,6141.206)"
       fill="#272262" />
    <g
       id="medianetwork"
       transform="translate(2914.583,6199.699)">
      <path
         id="Path_472639"
         data-name="Path 472639"
         d="m 1087.62,40.659 h -0.01 L 1067.3,20.33 1087.61,0 h 0.01 z"
         transform="translate(-960.834)"
         fill="#fff" />
      <path
         id="Path_472640"
         data-name="Path 472640"
         d="m 1088.62,464.959 -0.01,0.01 -20.31,-20.339 20.309,-20.33 0.01,0.01 z"
         transform="translate(-961.734,-381.975)"
         fill="#fff" />
      <path
         id="Path_472641"
         data-name="Path 472641"
         d="m 1088.62,889.359 h -0.01 l -20.31,-20.329 20.309,-20.329 h 0.01 z"
         transform="translate(-961.734,-764.04)"
         fill="#fff" />
      <path
         id="Path_472642"
         data-name="Path 472642"
         d="m 1060.81,677.159 h -0.01 V 636.51 l 0.01,-0.01 20.32,20.33 z"
         transform="translate(-954.983,-573.008)"
         fill="#fff" />
      <path
         id="Path_472643"
         data-name="Path 472643"
         d="m 1060.81,252.859 -0.01,-0.01 V 212.2 h 0.01 l 20.32,20.33 z"
         transform="translate(-954.983,-191.033)"
         fill="#fff" />
      <path
         id="Path_472644"
         data-name="Path 472644"
         d="M 877.51,677.249 857.2,656.92 877.51,636.6 Z"
         transform="translate(-771.692,-573.097)"
         fill="#fff" />
      <path
         id="Path_472645"
         data-name="Path 472645"
         d="M 877.51,252.849 857.2,232.53 877.51,212.2 Z"
         transform="translate(-771.692,-191.033)"
         fill="#fff" />
      <path
         id="Path_472646"
         data-name="Path 472646"
         d="m 686.419,627.6 0.02,0.02 -20.32,20.33 -20.319,-20.33 0.01,-0.02 z"
         transform="translate(-581.38,-564.995)"
         fill="#fff" />
      <path
         id="Path_472647"
         data-name="Path 472647"
         d="m 645.81,444.339 -0.01,-0.01 20.32,-20.329 20.32,20.33 -0.02,0.01 z"
         transform="translate(-581.38,-381.705)"
         fill="#fff" />
      <path
         id="Path_472648"
         data-name="Path 472648"
         d="M 637.8,677.159 V 636.5 l 20.32,20.33 z"
         transform="translate(-574.178,-573.008)"
         fill="#fff" />
      <path
         id="Path_472649"
         data-name="Path 472649"
         d="M 454.51,677.159 434.2,656.83 454.51,636.5 Z"
         transform="translate(-390.888,-573.008)"
         fill="#fff" />
      <path
         id="Path_472650"
         data-name="Path 472650"
         d="m 262.419,627.6 0.01,0.02 -20.32,20.33 -20.309,-20.33 0.01,-0.02 z"
         transform="translate(-199.675,-564.995)"
         fill="#fff" />
      <path
         id="Path_472651"
         data-name="Path 472651"
         d="m 221.81,444.339 -0.01,-0.01 20.31,-20.329 20.32,20.33 -0.01,0.01 z"
         transform="translate(-199.675,-381.705)"
         fill="#fff" />
      <path
         id="Path_472652"
         data-name="Path 472652"
         d="M 212.1,677.249 V 636.6 l 20.31,20.32 z"
         transform="translate(-190.943,-573.097)"
         fill="#fff" />
      <path
         id="Path_472653"
         data-name="Path 472653"
         d="M 212.1,252.849 V 212.2 l 20.31,20.33 z"
         transform="translate(-190.943,-191.033)"
         fill="#fff" />
      <path
         id="Path_472654"
         data-name="Path 472654"
         d="M 28.72,677.159 H 28.71 L 8.4,656.83 28.71,636.5 l 0.01,0.01 z"
         transform="translate(-7.562,-573.008)"
         fill="#fff" />
      <path
         id="Path_472655"
         data-name="Path 472655"
         d="m 28.72,252.849 -0.01,0.01 L 8.4,232.53 28.71,212.2 h 0.01 z"
         transform="translate(-7.562,-191.033)"
         fill="#fff" />
      <path
         id="Path_472656"
         data-name="Path 472656"
         d="m 0,889.359 v 0 -40.659 0 l 20.32,20.33 z"
         transform="translate(0,-764.04)"
         fill="#fff" />
      <path
         id="Path_472657"
         data-name="Path 472657"
         d="M 0,464.969 V 424.3 l 20.32,20.33 z"
         transform="translate(0,-381.975)"
         fill="#fff" />
      <path
         id="Path_472658"
         data-name="Path 472658"
         d="m 0,40.659 v 0 V 0 0 l 20.32,20.33 z"
         fill="#fff" />
    </g>
  </g>
</svg>
