<svg xmlns="http://www.w3.org/2000/svg" width="244.8" height="244.8" viewBox="0 0 244.8 244.8">
  <g id="media-solana" transform="translate(-2855.525 -6139.958)">
    <path id="Main_copy_10" d="M0,121.252C0,188.064,54.44,242.5,121.252,242.5S242.5,188.064,242.5,121.252,188.064,0,121.252,0,0,54.44,0,121.252Z" transform="translate(2856.773 6141.206)" fill="#272262"/>
    <g id="Main_copy_14" transform="translate(2855.525 6139.958)" fill="none">
      <path d="M0,122.4c0,67.444,54.954,122.4,122.4,122.4s122.4-54.954,122.4-122.4S189.841,0,122.4,0,0,54.954,0,122.4Z" stroke="none"/>
      <path d="M 122.4000015258789 11 C 60.97383117675781 11 11 60.97383117675781 11 122.4000015258789 C 11 183.826171875 60.97383117675781 233.8000030517578 122.4000015258789 233.8000030517578 C 183.826171875 233.8000030517578 233.8000030517578 183.826171875 233.8000030517578 122.4000015258789 C 233.8000030517578 60.97383117675781 183.826171875 11 122.4000015258789 11 M 122.4000015258789 0 C 189.8410034179688 0 244.8000030517578 54.95399475097656 244.8000030517578 122.4000015258789 C 244.8000030517578 189.8460083007813 189.8460083007813 244.8000030517578 122.4000015258789 244.8000030517578 C 54.95399475097656 244.8000030517578 0 189.843994140625 0 122.4000015258789 C 0 54.95399475097656 54.95899963378906 0 122.4000015258789 0 Z" stroke="none" fill="#1ae5ae"/>
    </g>
    <g id="medianetwork" transform="translate(2914.583 6199.699)">
      <path id="Path_472639" data-name="Path 472639" d="M1087.62,40.659h-.01L1067.3,20.33,1087.61,0h.01Z" transform="translate(-960.834)" fill="#fff"/>
      <path id="Path_472640" data-name="Path 472640" d="M1088.62,464.959l-.01.01L1068.3,444.63l20.309-20.33.01.01Z" transform="translate(-961.734 -381.975)" fill="#fff"/>
      <path id="Path_472641" data-name="Path 472641" d="M1088.62,889.359h-.01L1068.3,869.03l20.309-20.329h.01Z" transform="translate(-961.734 -764.04)" fill="#fff"/>
      <path id="Path_472642" data-name="Path 472642" d="M1060.81,677.159h-.01V636.51l.01-.01,20.32,20.33Z" transform="translate(-954.983 -573.008)" fill="#fff"/>
      <path id="Path_472643" data-name="Path 472643" d="M1060.81,252.859l-.01-.01V212.2h.01l20.32,20.33Z" transform="translate(-954.983 -191.033)" fill="#fff"/>
      <path id="Path_472644" data-name="Path 472644" d="M877.51,677.249,857.2,656.92,877.51,636.6Z" transform="translate(-771.692 -573.097)" fill="#fff"/>
      <path id="Path_472645" data-name="Path 472645" d="M877.51,252.849,857.2,232.53,877.51,212.2Z" transform="translate(-771.692 -191.033)" fill="#fff"/>
      <path id="Path_472646" data-name="Path 472646" d="M686.419,627.6l.02.02-20.32,20.33L645.8,627.62l.01-.02Z" transform="translate(-581.38 -564.995)" fill="#fff"/>
      <path id="Path_472647" data-name="Path 472647" d="M645.81,444.339l-.01-.01L666.12,424l20.32,20.33-.02.01Z" transform="translate(-581.38 -381.705)" fill="#fff"/>
      <path id="Path_472648" data-name="Path 472648" d="M637.8,677.159V636.5l20.32,20.33Z" transform="translate(-574.178 -573.008)" fill="#fff"/>
      <path id="Path_472649" data-name="Path 472649" d="M454.51,677.159,434.2,656.83l20.31-20.33Z" transform="translate(-390.888 -573.008)" fill="#fff"/>
      <path id="Path_472650" data-name="Path 472650" d="M262.419,627.6l.01.02-20.32,20.33L221.8,627.62l.01-.02Z" transform="translate(-199.675 -564.995)" fill="#fff"/>
      <path id="Path_472651" data-name="Path 472651" d="M221.81,444.339l-.01-.01L242.11,424l20.32,20.33-.01.01Z" transform="translate(-199.675 -381.705)" fill="#fff"/>
      <path id="Path_472652" data-name="Path 472652" d="M212.1,677.249V636.6l20.31,20.32Z" transform="translate(-190.943 -573.097)" fill="#fff"/>
      <path id="Path_472653" data-name="Path 472653" d="M212.1,252.849V212.2l20.31,20.33Z" transform="translate(-190.943 -191.033)" fill="#fff"/>
      <path id="Path_472654" data-name="Path 472654" d="M28.72,677.159h-.01L8.4,656.83,28.71,636.5l.01.01Z" transform="translate(-7.562 -573.008)" fill="#fff"/>
      <path id="Path_472655" data-name="Path 472655" d="M28.72,252.849l-.01.01L8.4,232.53,28.71,212.2h.01Z" transform="translate(-7.562 -191.033)" fill="#fff"/>
      <path id="Path_472656" data-name="Path 472656" d="M0,889.359H0V848.7H0L20.32,869.03Z" transform="translate(0 -764.04)" fill="#fff"/>
      <path id="Path_472657" data-name="Path 472657" d="M0,464.969V424.3l20.32,20.33Z" transform="translate(0 -381.975)" fill="#fff"/>
      <path id="Path_472658" data-name="Path 472658" d="M0,40.659H0V0H0L20.32,20.33Z" fill="#fff"/>
    </g>
  </g>
</svg>
