<?xml version="1.0" encoding="UTF-8"?><svg id="CIRCLE_OUTLINE_BLACK" xmlns="http://www.w3.org/2000/svg" viewBox="0 0 512 512"><circle cx="256" cy="256" r="256" fill="#ec1c24" stroke-width="0"/><path d="M389.62475,266.2888c-9.35374-102.74881-40.16857-151.19931-45.41594-158.79225-1.58084-3.15731-5.04022-5.35358-9.0648-5.35358-4.03172,0-7.4964,2.20382-9.07333,5.37006-18.77129,20.83278-36.35874,67.38245-36.35874,67.38245l-18.963-11.06177s-32.13163-13.95883-31.0782-35.81889c0,0-5.00405,30.81478,3.4239,51.62141,0,0-15.27574,3.16048-29.76117-38.45271,0,0-.72418,5.18602-.2235,13.1956-7.00263-15.39711-17.44068-35.75547-28.22111-47.43427l-.11497-.00357c-1.75158-2.65231-4.91073-4.42987-8.52933-4.42987-3.37666,0-6.35587,1.54686-8.16298,3.90822l-.04862-.0015s-36.34584,47.93415-46.35394,161.71189l.21705-.1701c-3.04925,9.29135-4.68355,19.0517-4.68355,29.12346,0,62.28318,62.15478,112.77367,138.82611,112.77367s138.82634-50.49049,138.82634-112.77367c0-10.67646-1.82738-21.00604-5.24022-30.79456Z" fill="#fff" stroke-width="0"/><path d="M213.33333,141.18352s-11.85185,75.06173,21.06996,85.59671l22.65021-2.37037s-45.30041-17.11934-43.72016-83.22634Z" fill="#d7e9f7" stroke-width="0"/><path d="M239.14403,133.01891c.13626-1.04465-.79012,38.71605,11.85185,47.67078l-7.90123-1.0535s-7.90123-16.32922-3.95062-46.61728Z" fill="#d7e9f7" stroke-width="0"/><path d="M304.13478,191.64657c12.80846,6.15467,61.21809,29.97108,66.6965,40.9279,0,0,3.16049-48.46091-29.23457-106.66667,0,0-5.53086-7.63786-11.58848.26337-5.18352,6.76111-22.70945,48.8138-27.65939,60.80916-.73724,1.78658.0439,3.82915,1.78594,4.66623Z" fill="#f8b8d7" stroke-width="0"/><path d="M211.12658,191.89198c-13.5328,6.51794-60.7782,29.86616-66.18637,40.68249,0,0-3.16049-48.46091,29.23457-106.66667,0,0,5.53086-7.63786,11.58848.26337,5.10927,6.66426,22.20988,47.61628,27.43901,60.27537.85971,2.08126-.04691,4.46829-2.07568,5.44543Z" fill="#f8b8d7" stroke-width="0"/><path d="M210.19321,284.15141c.14885,1.10608.23294,2.23279.23294,3.37972,0,13.86742-11.24172,25.10919-25.10919,25.10919s-25.10919-11.24177-25.10919-25.10919c0-5.33452,1.6684-10.27682,4.50498-14.34379l-15.04671-3.62729c-2.50203,5.10716-3.91144,10.84697-3.91144,16.91759,0,21.26773,17.24114,38.50864,38.50893,38.50864,21.03231,0,38.11493-16.86419,38.49073-37.80675l-12.56105-3.02811Z" fill="#aadef7" stroke-width="0"/><path d="M160.20777,287.53113c0,13.86742,11.24172,25.10919,25.10919,25.10919s25.10919-11.24177,25.10919-25.10919c0-1.14692-.0841-2.27363-.23294-3.37972l-45.48045-10.96407c-2.83658,4.06697-4.50498,9.00927-4.50498,14.34379Z" fill="#221e20" stroke-width="0"/><path d="M299.74774,284.15141c-.14885,1.10608-.23294,2.23279-.23294,3.37972,0,13.86742,11.24172,25.10919,25.10919,25.10919,13.86747,0,25.10919-11.24177,25.10919-25.10919,0-5.33452-1.6684-10.27682-4.50498-14.34379l15.04671-3.62729c2.50203,5.10716,3.91144,10.84697,3.91144,16.91759,0,21.26773-17.24114,38.50864-38.50893,38.50864-21.03231,0-38.11493-16.86419-38.49073-37.80675l12.56105-3.02811Z" fill="#aadef7" stroke-width="0"/><path d="M349.73318,287.53113c0,13.86742-11.24172,25.10919-25.10919,25.10919-13.86747,0-25.10919-11.24177-25.10919-25.10919,0-1.14692.0841-2.27363.23294-3.37972l45.48045-10.96407c2.83658,4.06697,4.50498,9.00927,4.50498,14.34379Z" fill="#221e20" stroke-width="0"/><ellipse cx="253.10288" cy="339.76789" rx="12.11523" ry="6.58436" fill="#f8b9d4" stroke-width="0"/><path d="M80.06859,356.44809c-1.14283,0-2.27185-.51612-3.01377-1.49859-1.25758-1.66264-.92855-4.03034.73409-5.28745,33.4505-25.2926,62.7974-18.34066,64.03194-18.03375,2.02254.50598,3.25247,2.55571,2.74649,4.57779-.5046,2.01932-2.54696,3.2451-4.56719,2.75018-.1106-.02673-6.89341-1.61932-17.31165-.36497-9.62746,1.16127-24.44192,5.0681-40.34576,17.09276-.68155.5152-1.48108.76404-2.27415.76404Z" fill="#221e20" stroke-width="0"/><path d="M101.39537,387.79034c-.6834,0-1.37509-.18617-1.9972-.5751-1.76771-1.10505-2.30549-3.43403-1.20044-5.20174,17.80012-28.47871,48.88523-34.39657,50.19995-34.63435,2.05249-.37511,4.01559.99076,4.38701,3.04142.37096,2.04973-.988,4.01283-3.03635,4.38609h0c-.28986.05346-29.16349,5.63399-45.14797,31.20861-.71612,1.1456-1.94651,1.77508-3.20501,1.77508Z" fill="#221e20" stroke-width="0"/><path d="M431.9318,356.44809c-.79353,0-1.5926-.24884-2.27369-.76404-15.90476-12.02465-30.71922-15.93149-40.34668-17.09276-10.45141-1.25896-17.24575.34838-17.31303.36497-2.02208.49123-4.06536-.74376-4.56305-2.76308-.49861-2.01932.72533-4.05983,2.74373-4.56489,1.23316-.30598,30.58189-7.25792,64.03194,18.03375,1.66356,1.25712,1.99259,3.62481.73455,5.28745-.74192.98155-1.87093,1.49859-3.01377,1.49859Z" fill="#221e20" stroke-width="0"/><path d="M410.60411,387.79034c-1.25896,0-2.48843-.62948-3.20455-1.77508-16.04854-25.67692-44.85259-31.15516-45.14198-31.20769-2.05157-.3705-3.41284-2.33544-3.04142-4.38701.37142-2.05065,2.33544-3.41468,4.38701-3.04142,1.31426.23778,32.39937,6.15564,50.1981,34.63435,1.10505,1.76771.56773,4.09762-1.19998,5.20174-.62211.38893-1.31426.5751-1.9972.5751Z" fill="#221e20" stroke-width="0"/><path d="M265.50923,359.75033c-5.43768,0-9.88737-2.32991-12.53432-4.14923-14.97344,10.21086-27.64416-2.53175-27.77734-2.66907-1.45205-1.49675-1.4161-3.88656.08018-5.33815,1.49122-1.44974,3.87181-1.41748,5.3257.06728.96081.9668,9.57493,9.06618,19.97657.28387,1.5078-1.27186,3.74048-1.16956,5.12432.23594.92579.91611,9.48415,8.82195,19.90054-.51428,1.55112-1.38891,3.93909-1.26081,5.33077.29308,1.39076,1.55204,1.25988,3.93909-.29308,5.33077-5.4128,4.84968-10.61454,6.45978-15.13335,6.45978Z" fill="#221e20" stroke-width="0"/></svg>