<?xml version="1.0" standalone="no"?>
<!DOCTYPE svg PUBLIC "-//W3C//DTD SVG 20010904//EN"
 "http://www.w3.org/TR/2001/REC-SVG-20010904/DTD/svg10.dtd">
<svg version="1.0" xmlns="http://www.w3.org/2000/svg"
 width="1024.000000pt" height="1024.000000pt" viewBox="0 0 1024.000000 1024.000000"
 preserveAspectRatio="xMidYMid meet">

<g transform="translate(0.000000,1024.000000) scale(0.100000,-0.100000)"
fill="#000000" stroke="none">
<path d="M2852 8568 c-9 -9 -12 -310 -12 -1293 0 -1221 1 -1283 18 -1298 15
-13 46 -17 167 -19 l150 -3 3 -157 3 -158 159 0 160 0 0 -809 c0 -669 2 -810
14 -820 10 -8 233 -10 822 -9 l809 3 3 163 2 162 145 0 145 0 0 -153 c0 -106
4 -157 12 -165 19 -19 1291 -17 1307 1 8 10 12 201 13 653 l3 639 158 3 157 3
0 164 0 165 151 0 c84 0 159 5 170 10 17 10 19 23 19 160 l0 150 154 0 c151 0
154 0 160 23 9 33 7 600 -2 614 -5 9 -53 13 -157 15 l-150 3 -5 155 -5 155
-337 3 -337 2 -3 -157 -3 -158 -155 -5 -155 -5 -5 -310 -5 -310 -144 -3 c-97
-2 -148 1 -157 9 -11 9 -14 46 -14 160 l0 149 -162 2 -163 3 -5 1135 -5 1135
-469 3 c-338 1 -473 -1 -482 -9 -11 -9 -14 -48 -14 -165 l0 -154 -160 0 -160
0 0 -160 0 -160 -325 0 -324 0 -3 158 -3 157 -157 3 -158 3 0 148 c0 131 -2
150 -18 164 -16 15 -54 17 -328 17 -228 0 -313 -3 -322 -12z m652 -490 c3 -90
8 -235 11 -322 5 -138 4 -161 -9 -168 -24 -13 -24 -303 0 -312 9 -3 85 -6 170
-6 l154 0 0 160 0 160 159 0 c88 0 166 -3 175 -6 14 -5 16 -30 16 -170 l0
-164 155 0 154 0 5 33 c3 17 4 92 3 164 l-2 133 155 2 155 3 7 165 c4 91 10
238 13 328 l6 162 305 0 304 0 -7 -963 c-5 -728 -3 -966 5 -971 17 -10 17
-307 0 -324 -8 -8 -56 -12 -150 -12 l-138 0 0 -160 0 -160 160 0 160 0 0 150
0 150 305 0 305 0 0 -149 c0 -146 0 -149 23 -155 12 -3 88 -6 168 -6 l147 0 7
-302 c3 -167 5 -460 3 -653 l-3 -350 -140 -3 c-77 -1 -150 0 -162 3 l-23 5 -2
323 -3 322 -157 3 -158 3 0 -153 c0 -84 -4 -159 -8 -166 -7 -9 -76 -12 -313
-10 l-304 3 -5 160 -5 160 -160 0 -160 0 -3 -322 -2 -323 -23 -5 c-12 -3 -85
-4 -162 -3 l-140 3 -3 328 -2 327 -163 -2 -162 -3 -3 -322 -2 -323 -23 -5
c-12 -3 -85 -4 -162 -3 l-140 3 -5 655 -5 655 -159 5 -158 5 1 146 c2 112 -1
148 -12 157 -8 7 -70 13 -163 14 l-149 3 -1 1133 0 1132 157 0 158 0 5 -162z
m3896 -1633 l0 -135 -160 0 -160 0 0 -329 0 -330 -320 1 -320 0 0 149 0 149
148 0 c81 0 157 3 170 6 l22 6 0 309 0 309 310 0 310 0 0 -135z"/>
<path d="M4484 6925 c-4 -9 -2 -152 2 -318 l9 -302 140 -3 c77 -2 155 0 173 3
l32 6 -2 312 -3 312 -173 3 c-149 2 -173 0 -178 -13z"/>
<path d="M3512 6618 l3 -313 158 -3 157 -3 0 316 0 315 -160 0 -160 0 2 -312z"/>
<path d="M5938 5663 c7 -3 16 -2 19 1 4 3 -2 6 -13 5 -11 0 -14 -3 -6 -6z"/>
<path d="M1912 3103 c-5 -10 -11 -363 -13 -798 l-4 -780 103 -3 102 -3 0 396
0 395 90 0 90 0 0 -177 c0 -98 4 -183 8 -189 5 -8 71 -13 205 -15 168 -3 199
-2 207 11 5 8 10 95 10 193 l0 177 90 0 90 0 2 -397 3 -398 195 -5 c107 -3
201 -1 208 4 18 12 18 1581 0 1593 -21 13 -363 17 -387 4 -20 -11 -21 -21 -23
-194 l-3 -182 -90 0 -90 0 -3 -194 c-1 -126 -6 -199 -14 -208 -8 -10 -32 -13
-87 -11 l-76 3 -3 201 c-3 235 10 214 -134 214 l-88 0 0 174 c0 96 -3 181 -6
190 -5 14 -32 16 -190 16 -164 0 -184 -2 -192 -17z"/>
<path d="M3704 3097 c-2 -7 -3 -367 -2 -802 l3 -790 500 0 500 0 0 92 c0 50
-3 95 -7 99 -4 4 -141 9 -303 12 l-295 5 0 283 c0 215 3 285 13 291 6 4 100
10 207 13 l195 5 0 110 0 110 -202 3 -203 2 0 174 c0 143 3 176 15 186 12 10
77 12 290 8 249 -5 276 -4 290 12 19 22 22 179 3 184 -7 3 -235 7 -506 10
-383 4 -494 3 -498 -7z"/>
<path d="M5310 3013 c0 -49 -4 -93 -8 -100 -5 -7 -40 -13 -92 -15 l-85 -3 -3
-607 -2 -608 90 0 89 0 3 -92 3 -93 385 -6 c212 -3 395 -2 408 3 21 7 22 13
22 98 l0 90 88 0 89 0 6 233 c4 127 7 399 7 604 l0 372 -92 3 -93 3 -3 103 -3
102 -404 0 -405 0 0 -87z m599 -141 c6 -12 7 -224 3 -598 l-7 -579 -197 -3
-198 -2 0 593 c0 327 3 597 7 600 3 4 91 7 194 7 172 0 189 -2 198 -18z"/>
<path d="M6716 3088 c-3 -7 -7 -138 -11 -291 -4 -206 -3 -283 6 -293 8 -10 36
-14 100 -14 l89 0 0 -300 0 -300 105 0 105 0 2 -207 3 -208 195 0 195 0 3 208
2 207 190 0 c180 0 190 -1 200 -20 7 -13 10 -87 8 -208 l-3 -187 208 -3 207
-2 0 189 c0 104 3 196 6 205 5 13 23 16 89 16 65 0 86 4 96 17 11 12 15 79 19
297 l5 281 81 -3 c61 -3 83 0 92 11 9 11 12 93 10 313 l-3 299 -197 3 -198 2
-2 -602 -3 -603 -100 0 -100 0 -3 302 -2 302 -91 3 -91 3 -2 295 -1 295 -206
3 -206 2 -7 -295 c-4 -162 -4 -299 -1 -305 3 -6 50 -10 105 -10 80 0 99 -3
104 -16 10 -25 7 -367 -3 -383 -7 -11 -28 -13 -104 -8 -110 7 -107 10 -107
-88 0 -96 1 -95 -96 -95 -73 0 -84 2 -85 18 -1 9 0 140 1 291 1 219 -1 275
-12 282 -7 5 -47 9 -88 9 -41 0 -80 4 -86 8 -7 5 -10 98 -10 297 l1 290 -203
3 c-157 2 -203 0 -206 -10z"/>
</g>
</svg>
