<?xml version="1.0" encoding="utf-8"?>
<!-- Generator: Adobe Illustrator 22.0.0, SVG Export Plug-In . SVG Version: 6.00 Build 0)  -->
<svg version="1.1" id="Mainframe" xmlns="http://www.w3.org/2000/svg" xmlns:xlink="http://www.w3.org/1999/xlink" x="0px" y="0px"
	 viewBox="0 0 245 245" style="enable-background:new 0 0 245 245;" xml:space="preserve">
<style type="text/css">
	.st0{fill:#DA1157;}
	.st1{fill:#FFFFFF;}
</style>
<path id="Full" class="st0" d="M0,122.5C0,190,55,245,122.5,245S245,190,245,122.5S190,0,122.5,0S0,55,0,122.5z"/>
<path id="Mainframe-2" class="st1" d="M160,145.3c-12.6,0.1-22.9-10-23-22.5s10-22.9,22.5-23c12.6-0.1,22.9,10,23,22.5
	c0,0.1,0,0.1,0,0.2C182.6,135,172.5,145.2,160,145.3 M160,70c-14.1,0-27.5,5.7-37.3,15.9l0,0l0,0l0,0c19.7,20.4,19.7,52.7,0,73.2
	c9.6,10.1,22.9,15.8,36.9,15.9h0.8c28.5-0.2,51.6-23.6,51.6-52.5l0,0C212,93.5,188.7,70,160,70 M85.5,70c-28.7,0-52,23.5-52,52.5
	l0,0c0,28.9,23.1,52.3,51.6,52.5h0.8c13.9-0.1,27.2-5.8,36.9-15.9c-9.4-9.7-14.7-22.7-14.7-36.3c-0.2,12.6-10.5,22.6-23.1,22.5
	c-12.6-0.2-22.6-10.5-22.5-23.1c0.2-12.6,10.5-22.6,23.1-22.5c12.3,0.2,22.3,10.1,22.5,22.5c0.1-13.5,5.3-26.5,14.7-36.3l0,0l0,0
	l0,0l0,0l0,0C113,75.8,99.6,70,85.5,70 M122.8,85.9L122.8,85.9L122.8,85.9L122.8,85.9L122.8,85.9L122.8,85.9 M137.5,122.3v0.4
	c0-0.1,0-0.1,0-0.2S137.5,122.4,137.5,122.3 M108,122.3L108,122.3 M122.8,159.1C122.8,159.1,122.7,159.1,122.8,159.1L122.8,159.1
	C122.7,159.1,122.8,159.1,122.8,159.1L122.8,159.1 M108,122.2c0,0,0,0.1,0,0.1v0.3c0,0,0,0.1,0,0.1c0-0.1,0-0.2,0-0.3
	C108,122.4,108,122.3,108,122.2 M122.7,85.9c-19.6,20.4-19.6,52.7,0,73.1c9.4-9.8,14.7-22.8,14.7-36.4v-0.3
	C137.4,108.7,132.2,95.7,122.7,85.9 M127.2,153.8c-1.4,1.8-2.8,3.6-4.4,5.2l0,0l0,0l0,0C124.3,157.4,125.8,155.7,127.2,153.8
	 M122.7,85.9c-9.4,9.7-14.7,22.7-14.7,36.3c0,0.1,0,0.2,0,0.3s0,0.2,0,0.3c0.1,13.5,5.3,26.5,14.7,36.3c0,0,0,0,0,0l0,0l0,0l0,0l0,0
	C103.1,138.6,103.1,106.4,122.7,85.9L122.7,85.9 M122.8,159.1L122.8,159.1L122.8,159.1L122.8,159.1L122.8,159.1L122.8,159.1"/>
</svg>
