<svg id="Mainframe" xmlns="http://www.w3.org/2000/svg" width="256" height="256" viewBox="0 0 512 512">
  <defs>
    <style>
      .cls-1 {
        fill: #da1157;
      }

      .cls-1, .cls-2 {
        fill-rule: evenodd;
      }

      .cls-2 {
        fill: #fff;
      }
    </style>
  </defs>
  <path id="Full" class="cls-1" d="M11,256c0,135.094,109.906,245,245,245S501,391.094,501,256,391.094,11,256,11,11,120.906,11,256Z"/>
  <path id="Mainframe-2" data-name="Mainframe" class="cls-2" d="M331.026,301.507a45.516,45.516,0,1,1,45.083-45.514,45.3,45.3,0,0,1-45.083,45.514m0-150.479a103.15,103.15,0,0,0-74.522,31.81h0v0h0a105.464,105.464,0,0,1,0,146.3,103.175,103.175,0,0,0,73.742,31.813h1.561c57.063-.422,103.186-47.25,103.186-104.963h0c0-57.975-46.545-104.965-103.967-104.965m-149.045,0c-57.423,0-103.968,46.99-103.968,104.965h0c0,57.713,46.122,104.541,103.187,104.963h1.561a103.172,103.172,0,0,0,73.733-31.8,105.094,105.094,0,0,1-29.44-72.542,45.519,45.519,0,1,1,0-1.228,105.117,105.117,0,0,1,29.44-72.53h0l0.01-.008h0v0h0a103.158,103.158,0,0,0-74.523-31.81m74.523,31.81h0v0h0v0h0m29.431,72.816v0.7c0-.116,0-0.234,0-0.35s0-.234,0-0.351m-58.883,0v0m29.452,73.49a0.043,0.043,0,0,0-.01.009h0a0.043,0.043,0,0,1,.01-0.009h0m-29.45-73.761c0,0.091,0,.181,0,0.271v0.7c0,0.083,0,.17,0,0.253q0-.308,0-0.617c0-.2,0-0.407,0-0.611m29.441-72.53a105.576,105.576,0,0,0,.009,146.285,105.126,105.126,0,0,0,29.431-72.782v-0.7a105.11,105.11,0,0,0-29.441-72.8m8.845,135.834a105.557,105.557,0,0,1-8.835,10.451h0v0h0a105.858,105.858,0,0,0,8.835-10.457m-8.845-135.834a105.117,105.117,0,0,0-29.44,72.53c0,0.2,0,.407,0,0.611s0,0.412,0,.617a105.094,105.094,0,0,0,29.44,72.542,0.043,0.043,0,0,1,.01-0.009l0,0h0v0h0a105.576,105.576,0,0,1-.009-146.285h0m0.01,146.285h0v0l0,0v0h0"/>
</svg>
