<?xml version="1.0" encoding="UTF-8" standalone="no"?>
<!-- Created with Inkscape (http://www.inkscape.org/) -->

<svg
   version="1.1"
   id="svg2"
   width="250"
   height="250"
   viewBox="0 0 250 250"
   sodipodi:docname="MGOOGL.svg"
   inkscape:version="1.1.1 (3bf5ae0d25, 2021-09-20)"
   xmlns:inkscape="http://www.inkscape.org/namespaces/inkscape"
   xmlns:sodipodi="http://sodipodi.sourceforge.net/DTD/sodipodi-0.dtd"
   xmlns="http://www.w3.org/2000/svg"
   xmlns:svg="http://www.w3.org/2000/svg">
  <defs
     id="defs6" />
  <sodipodi:namedview
     id="namedview4"
     pagecolor="#ffffff"
     bordercolor="#666666"
     borderopacity="1.0"
     inkscape:pageshadow="2"
     inkscape:pageopacity="0.0"
     inkscape:pagecheckerboard="0"
     showgrid="false"
     inkscape:zoom="0.77163028"
     inkscape:cx="493.11181"
     inkscape:cy="290.94245"
     inkscape:window-width="2560"
     inkscape:window-height="1377"
     inkscape:window-x="-8"
     inkscape:window-y="-8"
     inkscape:window-maximized="1"
     inkscape:current-layer="g8" />
  <g
     inkscape:groupmode="layer"
     inkscape:label="Image"
     id="g8">
    <circle
       style="fill:#ffffff;stroke-width:15.3196"
       id="path2962"
       cx="125"
       cy="125"
       r="125" />
    <g
       id="g827"
       transform="matrix(0.2503441,0,0,0.2503441,27.211076,26.338078)">
      <path
         style="fill:#f9ba05;stroke-width:1.33333"
         d="M 66.135752,551.72381 C 28.211931,468.50547 23.399632,368.51412 53.117344,281.22357 c 4.859187,-14.273 18.991537,-44.54333 20.524883,-45.49098 0.629541,-0.38908 28.647643,20.73888 61.866473,46.15906 47.64586,36.46024 59.99108,44.70138 59.11535,46.75123 -0.66268,1.55117 -5.48689,13.97581 -7.39557,22.04247 -7.4794,31.61038 -5.87043,66.16912 1.58845,97.98132 1.89136,8.06666 4.98717,18.78256 5.29561,20.24923 0.45803,2.17788 -11.77252,8.18242 -60.95102,45.75077 -33.11874,25.3 -59.766545,48.79519 -60.405313,49.04365 -0.638766,0.24846 -4.152568,-6.57103 -6.620485,-11.98651 z"
         id="path837"
         sodipodi:nodetypes="ssssssssssss" />
      <path
         style="fill:#4184f2;stroke-width:1.33333"
         d="m 578.39175,632.80742 c -30.8,-23.85774 -59.20477,-42.45394 -60.11165,-43.35493 -1.30679,-1.29829 7.25809,-5.721 15.8829,-13.48233 17.47838,-15.72851 33.68031,-31.48809 45.14585,-52.52193 5.95944,-10.93275 16.63531,-40.24968 16.67151,-45.78156 l 0.0196,-3 h -98 -98 v -70.67172 -70.67171 l 171,0.33837 171,0.33839 2.94728,16 c 8.61535,46.77051 4.78121,111.37488 -9.70443,163.51771 -12.22874,44.01885 -33.7627,85.76465 -60.05864,120.78438 -8.72534,11.62 -36.08416,41.35699 -38.01943,41.32427 -0.45411,-0.008 -27.97299,-18.9612 -58.77299,-42.81894 z"
         id="path835"
         sodipodi:nodetypes="ssssscccccccsssss" />
      <path
         style="fill:#e94234;stroke-width:1.33333"
         d="M 133.29185,284.60563 C 99.948001,259.13519 72.478157,238.14068 72.247757,237.95117 71.480192,237.31987 81.492752,218.38049 89.080556,206.11091 115.46511,163.44671 157.29392,120.80376 200.13509,92.894859 252.99281,58.460672 314.80632,38.399115 379.12943,34.802295 458.66795,30.354659 534.73864,50.931555 600.26431,94.618623 618.46484,106.75323 640,123.22395 640,125.00965 c 0,0.55165 -23.61351,24.61084 -52.47447,53.46486 l -52.47446,52.46185 -7.85887,-5.93297 c -37.99711,-28.68556 -89.32205,-44.32972 -137.43563,-41.8912 -74.423,3.77194 -141.14352,44.39597 -178.07504,108.42432 -5.12985,8.89365 -15.40268,31.28917 -17.24158,37.58793 -0.32738,1.12135 -23.19263,-15.52568 -61.1481,-44.51881 z"
         id="path831" />
      <path
         style="fill:#33a752;stroke-width:1.33333"
         d="M 378,765.80227 C 301.19293,759.80949 235.62275,735.61095 178.28583,692.09816 136.91935,660.70528 98.680012,615.8558 76.432457,572.63816 c -5.08357,-9.87524 -5.089686,-9.90657 -2.431092,-12.45152 1.465916,-1.40325 29.052245,-22.73929 61.302945,-47.4134 l 58.63765,-44.86204 2.36787,7.0444 c 3.72386,11.07848 16.21846,35.38775 23.96222,46.62051 32.22319,46.74148 79.00251,78.356 133.72795,90.37634 49.42512,10.85614 109.75401,3.28732 153.93699,-19.31282 l 14.61208,-7.47427 56.39213,43.59455 c 31.01567,23.977 58.67934,45.15229 59.21129,46.36508 -1.48187,1.65279 -1.75033,2.56548 -12.3863,11.47162 -45.09051,37.75696 -103.57836,64.29834 -164.43286,74.61846 -26.07916,4.42268 -60.88564,6.33865 -83.33333,4.5872 z"
         id="path829"
         sodipodi:nodetypes="ssssscsssscscsss" />
    </g>
  </g>
</svg>
