<svg id="MIOTA" xmlns="http://www.w3.org/2000/svg" width="512" height="512" viewBox="0 0 512 512">
<defs>
    <style>
      .cls-1 {
        fill: #22b1ab;
      }

      .cls-1, .cls-2 {
        fill-rule: evenodd;
      }

      .cls-2 {
        fill: #fff;
      }
    </style>
  </defs>
  <path id="Full" class="cls-1" d="M11,256c0,135.094,109.906,245,245,245S501,391.094,501,256,391.094,11,256,11,11,120.906,11,256Z"/>
  <path id="MIOTA-2" data-name="MIOTA" class="cls-2" d="M287.837,178.092a6.3,6.3,0,0,0,6.933,2.425,6.144,6.144,0,0,0,1.809-.861,6.37,6.37,0,0,0,1.534-8.818,6.252,6.252,0,0,0-5.2-2.7,6.1,6.1,0,0,0-3.529,1.105,6.436,6.436,0,0,0-1.544,8.868M271.8,162.223a7.373,7.373,0,0,0,12.714,4.666,7.427,7.427,0,0,0-.371-10.425c-0.062-.058-0.124-0.114-0.187-0.17a7.158,7.158,0,0,0-4.818-1.788,7.266,7.266,0,0,0-7.338,7.717m-16.026-3.655a8.474,8.474,0,0,0,4.113,1.084,7.959,7.959,0,0,0,2.412-.361,8.324,8.324,0,0,0,5.006-4.076,8.641,8.641,0,0,0-3.3-11.674,8.056,8.056,0,0,0-3.924-.98,8.534,8.534,0,0,0-4.308,16.007m-23.362-5.012a9.929,9.929,0,0,0,5.435-.051,10.06,10.06,0,0,0-.046-19.262,8.926,8.926,0,0,0-2.521-.348,10.285,10.285,0,0,0-9.729,7.252,10.175,10.175,0,0,0,6.861,12.409m-28.258.412a11.625,11.625,0,0,0,12.132-11.112,11.762,11.762,0,0,0-3-8.436,11.23,11.23,0,0,0-7.929-3.8H204.8a11.824,11.824,0,0,0-11.586,11.1,11.647,11.647,0,0,0,10.947,12.245m-47.862-2.978a13.592,13.592,0,1,0-.022-0.124c0.007,0.042.014,0.083,0.022,0.124m133.852,51.35a7.322,7.322,0,1,0-10.336.514,7.247,7.247,0,0,0,4.922,1.923,7.5,7.5,0,0,0,2.09-.3,7.25,7.25,0,0,0,3.333-2.149m-16.468-18.041a8.587,8.587,0,0,0-4.073-5.158,8.042,8.042,0,0,0-3.937-1,8.564,8.564,0,0,0-4.3,16.048,8.418,8.418,0,0,0,6.548.711,8.23,8.23,0,0,0,4.979-4.083,8.526,8.526,0,0,0,.779-6.521m-23.453-2.072a10.167,10.167,0,0,0-.893-7.626,9.833,9.833,0,0,0-5.912-4.728,9.158,9.158,0,0,0-2.554-.361,10.191,10.191,0,0,0-9.691,7.243,10.009,10.009,0,0,0,6.807,12.352,9.885,9.885,0,0,0,12.231-6.875m-28.313-3.719a11.643,11.643,0,0,0-2.98-8.455,11.257,11.257,0,0,0-7.942-3.8,4.448,4.448,0,0,0-.6-0.026,11.924,11.924,0,0,0-11.543,11.077,11.668,11.668,0,0,0,10.947,12.273h0.651A11.543,11.543,0,0,0,221.9,178.479m-46.717-7.93a13.652,13.652,0,0,0-.136,27.3,14.118,14.118,0,0,0,4.022-.584,13.677,13.677,0,0,0,9.066-17,13.537,13.537,0,0,0-12.952-9.733m-53.161,36.58a15.748,15.748,0,0,0,14.471,9.75,15.281,15.281,0,0,0,4.423-.658,16.484,16.484,0,0,0,1.8-.645,16.019,16.019,0,0,0,8.4-20.916,15.749,15.749,0,0,0-20.711-8.485,16.02,16.02,0,0,0-8.4,20.916v0.038m163.375,11.327a8.025,8.025,0,0,0-3.971-1.019,8.543,8.543,0,0,0-4.261,16.012,8.313,8.313,0,0,0,6.511.757,8.628,8.628,0,0,0,1.7-15.75m-37.558,5.227a9.864,9.864,0,0,0,13.486,3.869,10.065,10.065,0,0,0,3.831-13.62,9.936,9.936,0,0,0-5.927-4.748,8.821,8.821,0,0,0-2.553-.361,10.008,10.008,0,0,0-8.845,14.86m-10.088-5.9a11.682,11.682,0,0,0-10.968-12.272h-0.549a11.886,11.886,0,0,0-11.551,11.077,11.658,11.658,0,0,0,10.925,12.3h0.57a11.358,11.358,0,0,0,3.286-.485,11.746,11.746,0,0,0,8.287-10.618m-46.73,19.4a13.222,13.222,0,0,0,2.333-.211,10.829,10.829,0,0,0,1.473-.348,13.635,13.635,0,0,0,9.1-16.915A13.459,13.459,0,0,0,187.14,210.5a13.635,13.635,0,0,0-9.1,16.915,13.5,13.5,0,0,0,12.943,9.753m-24.031,8.967a15.94,15.94,0,0,0-14.756-21.923,15.022,15.022,0,0,0-6.049,1.255,15.656,15.656,0,0,0-8.487,8.678,16.054,16.054,0,0,0,8.75,20.83,15.7,15.7,0,0,0,5.888,1.166,15.248,15.248,0,0,0,4.46-.658,15.722,15.722,0,0,0,10.194-9.348m-39.681,12.5a18.53,18.53,0,0,0-14.978-7.716,18.12,18.12,0,0,0-5.2.769,18.758,18.758,0,0,0-12.279,23.4A18.512,18.512,0,0,0,117.571,287.6a18.809,18.809,0,0,0,9.7-28.972M326.024,324.16a6.363,6.363,0,0,0-6.27-5.812,3.8,3.8,0,0,0-.544.026,6.3,6.3,0,0,0-5.534,4.87,6.779,6.779,0,0,0-.153,2.033,6.354,6.354,0,0,0,6.223,5.777,3.818,3.818,0,0,0,.545-0.025,6.427,6.427,0,0,0,5.742-6.869m4.4-7.063a7.338,7.338,0,0,0,5.413,8.813,7.26,7.26,0,0,0,8.727-5.467,7.4,7.4,0,0,0-.146-3.879,7.268,7.268,0,0,0-6.873-5.106,6.8,6.8,0,0,0-2.251.382,7.2,7.2,0,0,0-4.866,5.266m17.626-11.726a8.641,8.641,0,0,0,6.188,10.346,8.383,8.383,0,0,0,2.09.262,8.244,8.244,0,0,0,4.329-1.229,8.926,8.926,0,0,0,2.9-11.812,8.576,8.576,0,0,0-7.3-4.136,8.476,8.476,0,0,0-8.21,6.569m26.814-6.143a9.761,9.761,0,0,0,6.862-2.811,10.46,10.46,0,0,0,.209-14.207,9.745,9.745,0,0,0-7.092-2.987,10,10,0,0,0-.165,20Zm26.177-29.462a12,12,0,0,0-3.405-16.2,11.423,11.423,0,0,0-15.9,3.416h0l-0.037.06a12.044,12.044,0,0,0-1.545,3.623,11.7,11.7,0,0,0,8.517,14.123,11.383,11.383,0,0,0,12.368-5.018m7.116-53.2a13.262,13.262,0,0,0-4.588-.82,13.6,13.6,0,0,0-12.722,9.026,12.207,12.207,0,0,0-.425,1.453,13.707,13.707,0,0,0,8.513,16.047,13.2,13.2,0,0,0,4.541.8,13.6,13.6,0,0,0,12.726-8.988,13.8,13.8,0,0,0-8.045-17.5m-111,87.7a7.36,7.36,0,0,0,5.38,8.864,7.125,7.125,0,0,0,1.677.2,7.309,7.309,0,0,0,2.29-.374,7.44,7.44,0,0,0,1.1-13.524l-0.056-.029a6.988,6.988,0,0,0-3.306-.821,7.3,7.3,0,0,0-7.083,5.691m23.827-1.432a8.467,8.467,0,0,0,6.44-.992,8.9,8.9,0,0,0,2.882-11.835,8.534,8.534,0,0,0-7.3-4.087,8.6,8.6,0,0,0-2.018,16.914m20.571-16.5a9.8,9.8,0,0,0,6.9-2.82,10.39,10.39,0,0,0,.23-14.185,9.832,9.832,0,0,0-14-.192,10.069,10.069,0,0,0-.19,14.139,9.858,9.858,0,0,0,6.954,3.023Zm26.219-29.445a11.7,11.7,0,0,0,1.532-8.756,11.4,11.4,0,0,0-20.911-3.916,11.757,11.757,0,0,0,3.472,16.153,11.43,11.43,0,0,0,15.907-3.468m-2.09-27.532a13.508,13.508,0,0,0,17.2-8.49,13.713,13.713,0,0,0-7.985-17.219,13.452,13.452,0,0,0-17.281,8.156,0.076,0.076,0,0,0,0,.011,14.706,14.706,0,0,0-.426,1.517,13.7,13.7,0,0,0,8.513,16.007m7.773-39.218a13.955,13.955,0,0,0,1.928.124,16,16,0,0,0,1.9-31.856,16.945,16.945,0,0,0-1.937-.124,15.706,15.706,0,0,0-15.322,12.159,18.56,18.56,0,0,0-.336,1.9,16.013,16.013,0,0,0,3.272,11.856,15.5,15.5,0,0,0,10.493,5.941M289.73,290.7a8.555,8.555,0,0,0-.88-6.409,8.445,8.445,0,0,0-11.652-2.934,8.575,8.575,0,0,0-3.881,5.332,8.837,8.837,0,0,0,1,6.508,8.374,8.374,0,0,0,11.552,2.914,8.5,8.5,0,0,0,3.877-5.411m10.39-10.174h0a9.7,9.7,0,0,0,6.848-2.794,10.411,10.411,0,0,0,.256-14.185,9.812,9.812,0,0,0-13.968-.321,0,0,0,0,0,0,0l-0.043.042a10.317,10.317,0,0,0-2.737,4.905,9.975,9.975,0,0,0,7.226,12.061,9.817,9.817,0,0,0,2.419.289m10.219-25.959a11.485,11.485,0,0,0,15.97-3.473h0a12.094,12.094,0,0,0-3.405-16.159,11.51,11.51,0,0,0-16.011,3.463,11.763,11.763,0,0,0,3.429,16.169m23.057-56.689a13.483,13.483,0,0,0-17.3,8.207,13.69,13.69,0,0,0,8.127,17.477h0a13.072,13.072,0,0,0,4.58.821,13.676,13.676,0,0,0,4.6-26.5M335.8,152.62a16.583,16.583,0,0,0-1.916-.112,15.736,15.736,0,0,0-15.322,12.22,13.8,13.8,0,0,0-.329,1.814,15.945,15.945,0,0,0,13.746,17.822h0a15.178,15.178,0,0,0,1.821.112,16.071,16.071,0,0,0,15.749-14.048,15.874,15.874,0,0,0-13.62-17.8h-0.115M328.651,137.4a16.871,16.871,0,0,0,1.97-.112,18.717,18.717,0,0,0-1.916-37.306c-0.647,0-1.31.038-1.961,0.1a18.633,18.633,0,0,0-16.056,14.232,19.31,19.31,0,0,0-.4,6.349A18.56,18.56,0,0,0,328.651,137.4M182.156,268.485a6.228,6.228,0,0,0-8.863.258,6.355,6.355,0,0,0-1.109,1.642,6.5,6.5,0,0,0-.183,4.853,6.228,6.228,0,0,0,3.192,3.616,6.024,6.024,0,0,0,2.634.6h0a6.358,6.358,0,0,0,4.329-10.966m-6.661,15.87a7.365,7.365,0,1,0,5.606,8.817v-0.047a7.31,7.31,0,0,0-5.466-8.735l-0.144-.03m-0.924,38.007a8.616,8.616,0,0,0,5.682-14.821,8.311,8.311,0,0,0-5.767-2.36,8.494,8.494,0,0,0-8.555,8.722,8.846,8.846,0,0,0,8.513,8.455Zm6.317,26.741a8.668,8.668,0,0,0,2.209-.271,10.035,10.035,0,0,0-2.418-19.743,9.358,9.358,0,0,0-2.413.31,10.036,10.036,0,0,0-7.2,12.156,10.329,10.329,0,0,0,9.82,7.561m18.872,27.79a11.748,11.748,0,0,0,5.074-15.721,11.524,11.524,0,0,0-15.567-5.124,11.674,11.674,0,0,0,5.385,22.074,11.113,11.113,0,0,0,5.108-1.221m28.02,8.486a12.989,12.989,0,0,0-1.031-1.118,13.408,13.408,0,0,0-19.085.577,13.731,13.731,0,0,0,.571,19.274,13.427,13.427,0,0,0,9.321,3.709,13.25,13.25,0,0,0,8.589-3.168,13.851,13.851,0,0,0,1.635-19.274m-24.645-123.8a6.852,6.852,0,0,0-1.511-.159,7.352,7.352,0,1,0,1.511.171m-0.911,38.026a8.645,8.645,0,0,0,5.658-14.826,8.263,8.263,0,0,0-5.726-2.339h-0.3a8.291,8.291,0,0,0-5.933,2.58,8.637,8.637,0,0,0,6.235,14.58Zm-2.426,11.614a10.02,10.02,0,0,0-1.093,7.561,10.273,10.273,0,0,0,9.789,7.565,8.729,8.729,0,0,0,2.217-.288A10.014,10.014,0,0,0,217.9,313.95a9.858,9.858,0,0,0-18.1-2.69m11.314,28.933a11.625,11.625,0,0,0,11.168,15.2h0a11.244,11.244,0,0,0,5.061-1.2,11.8,11.8,0,0,0,5.014-15.737,11.417,11.417,0,0,0-10.262-6.349,11.52,11.52,0,0,0-10.981,8.1m44.3,22.485a15.348,15.348,0,0,0-1.068-1.169,13.306,13.306,0,0,0-9.253-3.727,13.592,13.592,0,0,0-13.5,13.681,13.743,13.743,0,0,0,3.182,8.775,13.3,13.3,0,0,0,10.295,4.878A13.6,13.6,0,0,0,255.407,362.7m34.2,22.821a16.809,16.809,0,0,0-1.452-1.242,15.577,15.577,0,0,0-9.487-3.228,13.748,13.748,0,0,0-2.265.172,15.856,15.856,0,1,0,13.195,4.3M227.881,266.164a8.6,8.6,0,1,0-8.614-8.441v0.017h0a8.774,8.774,0,0,0,8.431,8.441Zm-3.455,19.18a10.277,10.277,0,0,0,9.789,7.575,9.471,9.471,0,0,0,2.192-.259,10.035,10.035,0,0,0,7.262-12.138,10.41,10.41,0,0,0-2.8-4.832,9.806,9.806,0,0,0-6.81-2.768,9.369,9.369,0,0,0-2.426.309,10.041,10.041,0,0,0-7.189,12.135m13.1,30.27a11.752,11.752,0,0,0,10.449,6.3h0a10.993,10.993,0,0,0,5.035-1.216,11.737,11.737,0,0,0,5.106-15.7,11.515,11.515,0,0,0-15.543-5.157,11.737,11.737,0,0,0-5.106,15.7,0.547,0.547,0,0,0,.033.069M260.485,346.8a13.341,13.341,0,0,0,10.3,4.87A13.611,13.611,0,0,0,284.326,338a13.761,13.761,0,0,0-3.168-8.791,12.5,12.5,0,0,0-1.03-1.092,13.325,13.325,0,0,0-18-.571,13.85,13.85,0,0,0-1.648,19.261m56.533,26.376a16.065,16.065,0,0,0-3.214-22.337,15.689,15.689,0,0,0-20.762,1.644,14.914,14.914,0,0,0-1.235,1.466,16.168,16.168,0,0,0,3.337,22.465,15.8,15.8,0,0,0,9.262,3.145,16.408,16.408,0,0,0,2.192-.15,15.6,15.6,0,0,0,10.436-6.233m45.3-2.867a18.637,18.637,0,0,0-5.236-3.538,17.961,17.961,0,0,0-7.449-1.6A18.747,18.747,0,0,0,342.129,401a18.061,18.061,0,0,0,7.437,1.595,18.782,18.782,0,0,0,12.769-32.3"/>
</svg>
