<?xml version="1.0" encoding="utf-8"?>
<!-- Generator: Adobe Illustrator 22.0.0, SVG Export Plug-In . SVG Version: 6.00 Build 0)  -->
<svg version="1.1" id="MIOTA" xmlns="http://www.w3.org/2000/svg" xmlns:xlink="http://www.w3.org/1999/xlink" x="0px" y="0px"
	 viewBox="0 0 490 490" style="enable-background:new 0 0 490 490;" xml:space="preserve">
<style type="text/css">
	.st0{fill:#22B1AB;}
	.st1{fill:#FFFFFF;}
</style>
<path id="Full" class="st0" d="M0,245c0,135.1,109.9,245,245,245s245-109.9,245-245S380.1,0,245,0S0,109.9,0,245z"/>
<path id="MIOTA-2" class="st1" d="M276.8,167.1c1.6,2.2,4.3,3.2,6.9,2.4c0.6-0.2,1.3-0.5,1.8-0.9c2.8-2,3.5-6,1.5-8.8
	c-1.2-1.7-3.1-2.7-5.2-2.7c-1.3,0-2.5,0.4-3.5,1.1C275.5,160.3,274.9,164.2,276.8,167.1 M260.8,151.2c0.2,4.1,3.7,7.2,7.8,7
	c1.9-0.1,3.7-0.9,4.9-2.3c2.7-3,2.6-7.6-0.4-10.4c-0.1-0.1-0.1-0.1-0.2-0.2c-1.3-1.2-3-1.8-4.8-1.8c-4,0-7.3,3.2-7.4,7.2
	C260.8,150.9,260.8,151,260.8,151.2 M244.8,147.6c1.3,0.7,2.7,1.1,4.1,1.1c0.8,0,1.6-0.1,2.4-0.4c2.1-0.6,4-2.1,5-4.1
	c2.3-4.1,0.8-9.3-3.3-11.7c-1.2-0.7-2.6-1-3.9-1c-4.7-0.1-8.6,3.6-8.7,8.3C240.3,143.1,242,146,244.8,147.6 M221.4,142.6
	c1.8,0.5,3.7,0.5,5.4-0.1c5.3-1.6,8.3-7.2,6.7-12.6c-1-3.2-3.5-5.7-6.7-6.7c-0.8-0.2-1.7-0.4-2.5-0.3c-4.5,0-8.4,3-9.7,7.3
	C213.1,135.5,216.1,141,221.4,142.6 M193.2,143c6.4,0.3,11.8-4.7,12.1-11.1c0,0,0,0,0,0c0.2-3.1-0.9-6.1-3-8.4
	c-2-2.3-4.9-3.7-7.9-3.8h-0.6c-6.2,0.1-11.2,4.9-11.6,11.1C181.9,137.1,186.8,142.6,193.2,143 M145.3,140
	c1.3,7.4,8.4,12.3,15.8,10.9s12.3-8.4,10.9-15.8s-8.4-12.3-15.8-10.9c-7.3,1.3-12.2,8.3-11,15.7C145.3,139.9,145.3,139.9,145.3,140
	 M279.2,191.3c2.7-3,2.5-7.6-0.5-10.3c-3-2.7-7.6-2.5-10.3,0.5c-2.7,3-2.5,7.6,0.5,10.3c0,0,0,0,0,0c1.3,1.2,3.1,1.9,4.9,1.9
	c0.7,0,1.4-0.1,2.1-0.3C277.1,193.1,278.3,192.3,279.2,191.3 M262.7,173.3c-0.6-2.2-2.1-4-4.1-5.2c-1.2-0.7-2.6-1-3.9-1
	c-4.7-0.1-8.6,3.7-8.7,8.4c-0.1,3.2,1.6,6.1,4.4,7.6c2,1.1,4.4,1.4,6.5,0.7c2.1-0.6,3.9-2.1,5-4.1
	C263,177.8,263.3,175.5,262.7,173.3 M239.2,171.2c0.7-2.6,0.4-5.3-0.9-7.6c-1.3-2.3-3.4-4-5.9-4.7c-0.8-0.2-1.7-0.4-2.6-0.4
	c-4.5,0-8.4,3-9.7,7.2c-1.5,5.3,1.5,10.8,6.8,12.4C232.2,179.6,237.7,176.5,239.2,171.2C239.2,171.3,239.2,171.2,239.2,171.2
	 M210.9,167.5c0.2-3.1-0.9-6.1-3-8.5c-2-2.3-4.9-3.7-7.9-3.8c-0.2,0-0.4,0-0.6,0c-6.1,0.2-11.1,5-11.5,11.1
	c-0.3,6.4,4.5,11.9,10.9,12.3h0.7C205.6,178.5,210.7,173.6,210.9,167.5 M164.2,159.5c-7.5,0.1-13.6,6.3-13.5,13.8
	c0.1,7.4,6,13.3,13.4,13.5c1.4,0,2.7-0.2,4-0.6c7.2-2.2,11.2-9.8,9.1-17C175.4,163.5,170.2,159.5,164.2,159.5 M111,196.1
	c2.4,5.9,8.1,9.7,14.5,9.8c1.5,0,3-0.2,4.4-0.7c0.6-0.2,1.2-0.4,1.8-0.6c8.1-3.5,11.8-12.8,8.4-20.9c-3.3-8-12.5-11.9-20.6-8.5
	c0,0-0.1,0-0.1,0.1C111.3,178.6,107.6,188,111,196.1L111,196.1 M274.4,207.4c-1.2-0.7-2.6-1-4-1c-4.7-0.1-8.6,3.7-8.7,8.4
	c0,3.1,1.6,6.1,4.4,7.6c2,1.1,4.3,1.4,6.5,0.8c4.6-1.4,7.1-6.2,5.7-10.8C277.7,210.3,276.3,208.5,274.4,207.4 M236.8,212.7
	c2.6,4.8,8.6,6.5,13.4,3.9c0,0,0.1,0,0.1-0.1c4.8-2.7,6.5-8.8,3.8-13.6c-1.3-2.3-3.4-4-5.9-4.7c-0.8-0.2-1.7-0.4-2.6-0.4
	c-5.5-0.1-10,4.4-10.1,9.9C235.5,209.5,236,211.2,236.8,212.7 M226.7,206.8c0.3-6.4-4.6-11.9-11-12.3h-0.5
	c-6.1,0.2-11.1,5-11.6,11.1c-0.4,6.4,4.5,11.9,10.9,12.3h0.6c1.1,0,2.2-0.2,3.3-0.5C223.1,215.9,226.4,211.7,226.7,206.8 M180,226.2
	c0.8,0,1.6-0.1,2.3-0.2c0.5-0.1,1-0.2,1.5-0.3c7.2-2.2,11.2-9.7,9.1-16.9c-2.1-7.1-9.5-11.3-16.7-9.2c0,0-0.1,0-0.1,0
	c-7.2,2.2-11.2,9.7-9.1,16.9C168.7,222.2,174,226.2,180,226.2 M156,235.1c3.3-8.2-0.6-17.5-8.8-20.8c-1.9-0.8-3.9-1.2-6-1.2
	c-2.1,0-4.1,0.4-6,1.3c-3.9,1.6-6.9,4.8-8.5,8.7c-3.3,8.2,0.6,17.5,8.8,20.8c1.9,0.8,3.9,1.2,5.9,1.2c1.5,0,3-0.2,4.5-0.7
	C150.4,243.1,154.2,239.7,156,235.1 M116.3,247.6c-3.5-4.8-9-7.7-15-7.7c-1.8,0-3.5,0.3-5.2,0.8c-9.8,3.1-15.3,13.6-12.3,23.4
	c2.9,9.7,13,15.3,22.8,12.5c9.9-3.1,15.5-13.6,12.4-23.5C118.4,251.1,117.5,249.3,116.3,247.6 M315,313.2c-0.3-3.3-3-5.8-6.3-5.8
	c-0.2,0-0.4,0-0.5,0c-2.7,0.3-4.9,2.2-5.5,4.9c-0.2,0.7-0.2,1.4-0.2,2c0.3,3.2,3,5.7,6.2,5.8c0.2,0,0.4,0,0.5,0
	C312.7,319.7,315.3,316.6,315,313.2 M319.4,306.1c-0.9,3.9,1.5,7.9,5.4,8.8c3.9,0.9,7.8-1.5,8.7-5.4c0,0,0,0,0,0
	c0.3-1.3,0.2-2.6-0.1-3.9c-0.9-3-3.7-5.1-6.9-5.1c-0.8,0-1.5,0.1-2.3,0.4C321.9,301.6,320,303.6,319.4,306.1 M337.1,294.4
	c-1.1,4.6,1.7,9.1,6.2,10.3c0.7,0.2,1.4,0.3,2.1,0.3c1.5,0,3-0.4,4.3-1.2c3.9-2.6,5.2-7.7,2.9-11.8c-1.5-2.6-4.3-4.1-7.3-4.1
	C341.3,287.8,337.9,290.6,337.1,294.4 M363.9,288.2c2.6,0,5-1,6.9-2.8c3.8-4,3.9-10.1,0.2-14.2c-1.9-1.9-4.4-3-7.1-3
	c-5.5,0-10,4.4-10.1,9.9c0,5.5,4.4,10,9.9,10.1L363.9,288.2z M390.1,258.8c3.4-5.4,1.9-12.6-3.4-16.2c-5.3-3.5-12.4-2-15.8,3.3
	c0,0-0.1,0.1-0.1,0.1l0,0l0,0.1c-0.7,1.1-1.2,2.3-1.5,3.6c-1.5,6.2,2.3,12.6,8.5,14.1C382.5,265,387.4,262.9,390.1,258.8
	 M397.2,205.6c-1.5-0.5-3-0.8-4.6-0.8c-5.7,0-10.8,3.6-12.7,9c-0.2,0.5-0.3,1-0.4,1.5c-1.6,6.7,2,13.6,8.5,16c1.5,0.5,3,0.8,4.5,0.8
	c5.7,0,10.8-3.6,12.7-9C407.7,216,404.1,208.3,397.2,205.6 M286.2,293.3c-0.9,3.9,1.5,7.9,5.4,8.9c0.5,0.1,1.1,0.2,1.7,0.2
	c0.8,0,1.6-0.1,2.3-0.4c3.9-1.4,5.9-5.6,4.5-9.5c-0.6-1.7-1.8-3.1-3.4-4l-0.1,0c-1-0.5-2.2-0.8-3.3-0.8
	C289.9,287.6,286.9,290,286.2,293.3 M310,291.9c2.2,0.5,4.5,0.2,6.4-1c3.9-2.6,5.2-7.7,2.9-11.8c-1.6-2.5-4.3-4.1-7.3-4.1
	c-4.7,0.1-8.5,4-8.4,8.8C303.7,287.6,306.3,290.9,310,291.9 M330.6,275.4c2.6,0,5.1-1,6.9-2.8c3.8-3.9,3.9-10.1,0.2-14.2
	c-3.8-3.9-10-4-13.9-0.3c0,0-0.1,0.1-0.1,0.1c-3.9,3.9-4,10.2-0.2,14.1c1.8,1.9,4.3,3,7,3L330.6,275.4z M356.8,245.9
	c1.6-2.6,2.2-5.7,1.5-8.8c-1.1-6.2-7.1-10.3-13.3-9.1c-3.2,0.6-5.9,2.5-7.6,5.2c-3.5,5.4-1.9,12.6,3.5,16.2c5.3,3.4,12.4,2,15.8-3.3
	C356.7,246,356.8,246,356.8,245.9 M354.7,218.4c7.1,2.4,14.7-1.3,17.2-8.4c0,0,0-0.1,0-0.1c2.4-7-1.1-14.5-8-17.2
	c-7-2.5-14.7,1.1-17.2,8c0,0,0,0.1,0,0.1c0,0,0,0,0,0c-0.2,0.5-0.3,1-0.4,1.5C344.6,209.1,348.3,216,354.7,218.4 M362.5,179.2
	c0.6,0.1,1.3,0.1,1.9,0.1c8.8-0.1,15.9-7.4,15.8-16.2c-0.1-7.9-6-14.6-13.9-15.6c-0.6-0.1-1.3-0.1-1.9-0.1c-7.3,0-13.7,5-15.3,12.2
	c-0.1,0.6-0.3,1.3-0.3,1.9c-0.5,4.2,0.6,8.5,3.3,11.9C354.5,176.5,358.3,178.7,362.5,179.2 M278.7,279.7c0.6-2.2,0.2-4.5-0.9-6.4
	c-2.4-4-7.5-5.4-11.6-3c0,0-0.1,0-0.1,0.1c-2,1.2-3.3,3.1-3.9,5.3c-0.5,2.2-0.2,4.5,1,6.5c2.3,4,7.5,5.3,11.5,3c0,0,0.1,0,0.1-0.1
	C276.8,283.9,278.2,282,278.7,279.7 M289.1,269.5L289.1,269.5c2.6,0,5-1,6.8-2.8c3.8-3.9,3.9-10.1,0.3-14.2
	c-3.7-3.9-9.9-4.1-13.9-0.4c0,0-0.1,0.1-0.1,0.1l0,0l0,0c-1.3,1.4-2.3,3-2.7,4.9c-1.3,5.3,1.9,10.7,7.2,12.1
	C287.5,269.4,288.3,269.5,289.1,269.5 M299.4,243.6c5.3,3.5,12.4,2,15.9-3.4c0,0,0.1-0.1,0.1-0.1l0,0c3.3-5.4,1.8-12.5-3.4-16.2
	c-5.3-3.5-12.5-2-15.9,3.3c0,0-0.1,0.1-0.1,0.1C292.4,232.8,294,240,299.4,243.6 M322.4,186.9c-7-2.5-14.7,1.1-17.3,8.1
	c0,0,0,0.1,0,0.1c-2.5,7.1,1.1,14.9,8.1,17.5l0,0c1.5,0.5,3,0.8,4.6,0.8c7.6-0.1,13.6-6.3,13.5-13.8
	C331.3,193.9,327.7,188.8,322.4,186.9 M324.8,141.6c-0.6-0.1-1.3-0.1-1.9-0.1c-7.3,0-13.7,5.1-15.3,12.2c-0.1,0.6-0.3,1.2-0.3,1.8
	c-1.1,8.7,5,16.7,13.7,17.8l0,0c0.6,0.1,1.2,0.1,1.8,0.1c8-0.1,14.7-6.1,15.7-14c1.1-8.7-5-16.6-13.6-17.8L324.8,141.6 M317.7,126.4
	c0.7,0,1.3,0,2-0.1c10.3-1.2,17.6-10.5,16.4-20.8c-1.1-9.3-8.9-16.4-18.3-16.5c-0.6,0-1.3,0-2,0.1c-7.8,0.9-14.2,6.6-16.1,14.2
	c-0.5,2.1-0.6,4.2-0.4,6.3C300.2,119.1,308.1,126.3,317.7,126.4 M171.2,257.5c-2.5-2.4-6.4-2.3-8.8,0.2c0,0,0,0-0.1,0.1
	c-0.5,0.5-0.8,1-1.1,1.6c-0.7,1.5-0.8,3.3-0.2,4.9c0.5,1.6,1.7,2.9,3.2,3.6c0.8,0.4,1.7,0.6,2.6,0.6l0,0c3.5,0,6.3-2.9,6.3-6.4
	C173.1,260.3,172.4,258.7,171.2,257.5 M164.5,273.4c-4-0.9-7.9,1.6-8.8,5.6c-0.9,4,1.6,7.9,5.6,8.8c4,0.9,7.9-1.6,8.8-5.6v0
	c0.9-3.9-1.6-7.8-5.5-8.7L164.5,273.4 M163.6,311.4c4.8-0.2,8.5-4.1,8.3-8.9c-0.1-2.2-1-4.4-2.6-5.9c-1.5-1.5-3.6-2.4-5.8-2.4
	c-4.7,0-8.5,3.7-8.6,8.4c0,0.1,0,0.2,0,0.3c0.2,4.6,3.9,8.3,8.5,8.5L163.6,311.4z M169.9,338.1c0.7,0,1.5-0.1,2.2-0.3
	c5.4-1.4,8.6-6.9,7.2-12.2c-1.1-4.4-5.1-7.4-9.6-7.5c-0.8,0-1.6,0.1-2.4,0.3c-5.3,1.4-8.5,6.8-7.2,12.2
	C161.3,335,165.3,338.1,169.9,338.1 M188.8,365.9c5.7-3,8-10,5.1-15.7c-2.8-5.7-9.8-8-15.5-5.2c0,0-0.1,0-0.1,0.1
	c-5.7,2.9-8,10-5.1,15.7c2,3.9,6.1,6.4,10.5,6.4C185.4,367.1,187.2,366.7,188.8,365.9 M216.8,374.4c-0.3-0.4-0.7-0.8-1-1.1
	c-5.4-5.1-13.8-4.9-19,0.4c0,0-0.1,0.1-0.1,0.1c-5.1,5.5-4.9,14.1,0.6,19.3c2.5,2.4,5.9,3.7,9.3,3.7c3.1,0,6.2-1.1,8.6-3.2
	C220.8,388.8,221.5,380.2,216.8,374.4 M192.1,250.6c-0.5-0.1-1-0.2-1.5-0.2c-4.1,0-7.4,3.2-7.4,7.3c0,4.1,3.2,7.4,7.3,7.4
	c4.1,0,7.4-3.2,7.4-7.3C197.9,254.4,195.5,251.4,192.1,250.6 M191.2,288.6c4.8-0.2,8.5-4.2,8.3-9c-0.1-2.2-1-4.3-2.6-5.8
	c-1.5-1.5-3.6-2.3-5.7-2.3h-0.3c-2.2,0-4.4,1-5.9,2.6c-3.3,3.5-3.1,8.9,0.3,12.2C186.8,287.8,189,288.6,191.2,288.6L191.2,288.6z
	 M188.8,300.3c-1.3,2.3-1.7,5-1.1,7.6c1.2,4.4,5.2,7.5,9.8,7.6c0.7,0,1.5-0.1,2.2-0.3c5.3-1.4,8.5-6.8,7.2-12.1
	c-1.3-5.3-6.6-8.6-11.9-7.3C192.4,296.3,190.2,297.9,188.8,300.3 M200.1,329.2c-2,6.1,1.4,12.7,7.5,14.6c1.2,0.4,2.4,0.6,3.7,0.6
	l0,0c1.8,0,3.5-0.4,5.1-1.2c5.7-3,7.9-10,5-15.7c-1.9-3.9-5.9-6.4-10.3-6.3C206.1,321.1,201.6,324.4,200.1,329.2 M244.4,351.7
	c-0.3-0.4-0.7-0.8-1.1-1.2c-2.5-2.4-5.8-3.7-9.3-3.7c-7.5,0.1-13.5,6.2-13.5,13.7c0,3.2,1.1,6.3,3.2,8.8c2.5,3.1,6.3,4.9,10.3,4.9
	c7.5,0,13.6-6.1,13.6-13.6C247.7,357.3,246.5,354.2,244.4,351.7 M278.6,374.5c-0.5-0.4-0.9-0.9-1.5-1.2c-2.7-2.1-6.1-3.2-9.5-3.2
	c-0.8,0-1.5,0.1-2.3,0.2c-8.7,1.2-14.7,9.2-13.5,17.9c1.2,8.7,9.2,14.7,17.9,13.5s14.7-9.2,13.5-17.9
	C282.8,380.2,281.1,377,278.6,374.5 M216.9,255.2c4.7,0,8.6-3.9,8.6-8.6c0-4.7-3.9-8.6-8.6-8.6c-4.7,0-8.6,3.9-8.6,8.6
	c0,0,0,0.1,0,0.1v0l0,0c0.2,4.6,3.8,8.3,8.4,8.4L216.9,255.2z M213.4,274.3c1.2,4.4,5.2,7.5,9.8,7.6c0.7,0,1.5-0.1,2.2-0.3
	c5.3-1.4,8.6-6.8,7.3-12.1c-0.5-1.8-1.4-3.5-2.8-4.8c-1.8-1.8-4.3-2.8-6.8-2.8c-0.8,0-1.6,0.1-2.4,0.3
	C215.3,263.6,212.1,269,213.4,274.3 M226.5,304.6c2,3.9,6.1,6.3,10.4,6.3l0,0c1.8,0,3.5-0.4,5-1.2c5.7-2.9,8-10,5.1-15.7
	c-2.8-5.7-9.7-8-15.4-5.2c0,0-0.1,0-0.1,0.1C225.9,291.8,223.6,298.8,226.5,304.6C226.5,304.6,226.5,304.6,226.5,304.6 M249.5,335.8
	c2.5,3.1,6.3,4.9,10.3,4.9c7.5,0,13.6-6.2,13.5-13.7c0-3.2-1.1-6.3-3.2-8.8c-0.3-0.4-0.7-0.7-1-1.1c-4.9-4.8-12.8-5.1-18-0.6
	C245.4,321.5,244.7,330,249.5,335.8 M306,362.2c5.2-7.1,3.8-17-3.2-22.3c-6.3-4.8-15.3-4.1-20.8,1.6c-0.4,0.5-0.9,1-1.2,1.5
	c-5.2,7.1-3.7,17.2,3.3,22.5c2.7,2,5.9,3.1,9.3,3.1c0.7,0,1.5-0.1,2.2-0.1C299.8,367.8,303.5,365.6,306,362.2 M351.3,359.3
	c-1.5-1.5-3.3-2.7-5.2-3.5c-2.3-1.1-4.9-1.6-7.4-1.6c-10.4,0.1-18.6,8.6-18.5,19c0.1,7.3,4.4,13.9,11,16.9c2.3,1.1,4.9,1.6,7.4,1.6
	c10.4-0.1,18.7-8.7,18.5-19C357,367.5,354.9,362.8,351.3,359.3"/>
</svg>
