<?xml version="1.0" encoding="utf-8"?>
<!-- Generator: Adobe Illustrator 22.0.0, SVG Export Plug-In . SVG Version: 6.00 Build 0)  -->
<svg version="1.1" id="MITH" xmlns="http://www.w3.org/2000/svg" xmlns:xlink="http://www.w3.org/1999/xlink" x="0px" y="0px"
	 viewBox="0 0 490 490" style="enable-background:new 0 0 490 490;" xml:space="preserve">
<style type="text/css">
	.st0{fill:#4EE5CF;}
	.st1{fill:none;stroke:#FFFFFF;stroke-width:12;stroke-linecap:round;stroke-linejoin:round;}
	.st2{fill:none;stroke:#FFFFFF;stroke-width:8;stroke-linejoin:round;}
	.st3{fill:none;stroke:#FFFFFF;stroke-width:8;}
</style>
<path id="Full" class="st0" d="M0,245c0,135.1,109.9,245,245,245s245-109.9,245-245S380.1,0,245,0S0,109.9,0,245z"/>
<path id="Outer" class="st1" d="M86,313l51-55l61-88l50,65l50-98l65,110l43,66H86z"/>
<path id="Line1" class="st2" d="M197,173l-4,52l-58,33l25,55l51-67l37,39v-53l49-90l-1,87l64,13l-5,71"/>
<path id="Line2" class="st2" d="M192,225l55,59l56,28l50-1l-56-83"/>
<path id="Line3" class="st3" d="M295,229l-70,82"/>
</svg>
