<svg xmlns="http://www.w3.org/2000/svg" xmlns:xlink="http://www.w3.org/1999/xlink" width="985" height="1006" fill="none" xmlns:v="https://vecta.io/nano"><g fill-rule="evenodd"><path d="M472.746 272.289c.005-.006.009-.013.014-.019 36.29 18.62 76 25 114 24.89 22.08 20.28 40.45 44.1 57.71 68.56a275.47 275.47 0 0 1 19.32 32c13.199 25.416 22.906 52.308 32.728 79.517l8.762 23.993 2.937 10.284.053-.014c15.17 52.03 37.32 107.61 67 153.5l-.029.012A340.39 340.39 0 0 0 808.13 707.7l7.239 7.665.001.001.001.001.003.003c11.368 11.91 22.816 23.904 29.306 38.91 8.08 18.7 7.46 40.21 2.6 60-22.93 93.28-112.76 117.79-198.61 120.05l.041-.107c-32.189.641-64.155-1.758-92.501-4.663 0 0-136.71-14.15-252.59-98.87l-3.74-2.78a418.02 418.02 0 0 1-38.64-32.61c-32.48-31-61.38-66.16-83.48-104.76l.443-.445a366.27 366.27 0 0 1-7.523-14.265c-21.38-42.79-34.41-89.37-35-138.88-1.006-83.077 27.415-168.155 81.438-229.837l-.058-.153c29.25-32.04 65.81-57.21 109.09-71.54a250.58 250.58 0 0 1 84.22-12.87c17.405 20.437 38.584 37.324 62.376 49.739zM406.153 815.85c19.558-7.139 38.087-16.74 55.365-28.571-17.387 11.75-35.943 21.358-55.365 28.571z" fill="url(#A)"/><path d="M756.498 204.628l.042-.001 1.18-.76c-152.42-260-351.72-55.3-351.72-55.3l.285.501-.035.009c114.606 200.933 332.414 67.01 350.248 55.551z" fill="url(#B)"/></g><path d="M567.56 652.44c-42 100.4-122.64 166.88-220.34 176.95-2.1.28-28.84 2.39-43.6 1.3 115.88 84.72 252.59 98.87 252.59 98.87 29.27 3 62.4 5.46 95.65 4.59 11.71-30.57 18.3-65.57 16.41-105.28-4.39-92.23 49.09-139.58 107-163.87-29.68-45.89-51.83-101.47-67-153.5-45.22 12.03-102.65 49.86-140.71 140.94z" fill="url(#C)"/><path d="M666.44 828.22c1.9 39.71-6.06 75.54-17.77 106.11 85.85-2.26 175.68-26.77 198.61-120.05 4.86-19.79 5.48-41.3-2.6-60-7.88-18.22-23.07-32-36.55-46.58-12.611-13.931-24.046-28.882-34.19-44.7-57.86 24.3-111.89 73-107.5 165.22z" fill="url(#D)"/><path d="M705.28 501.23c-13.19-35.3-24.42-70.64-41.49-103.51a275.47 275.47 0 0 0-19.32-32c-17.26-24.46-35.63-48.28-57.71-68.56-38 .11-77.71-6.27-114-24.89-36.76 52.14-78.82 140.59-40.32 241.55 56.85 149.1-58.52 251-132.56 314.09l3.74 2.78c13.882 1.083 27.835.883 41.68-.6 97.69-10.08 183-78.16 225-178.55 38.07-91.08 93.45-125.68 138.61-137.72l-3.63-12.59z" fill="url(#E)"/><path d="M221.09 302.67c-56.6 62-86.44 149.19-85.41 234.28.59 49.51 13.62 96.09 35 138.88a367.48 367.48 0 0 0 10.2 19c118.99-119.44 76-297.41 40.21-392.16z" fill="url(#F)"/><path d="M434.44 513.82c-38.5-101 2.62-188.87 39.33-241-24.209-12.463-45.746-29.54-63.4-50.27a250.58 250.58 0 0 0-84.22 12.87c-43.28 14.33-79.84 39.5-109.09 71.54 35 92.67 77.06 266.76-39.3 383.58 22.1 38.6 51 73.76 83.48 104.76a417.77 417.77 0 0 0 40.64 34.09c74.04-63.06 189.41-166.47 132.56-315.57z" fill="url(#G)"/><path d="M578 165.13c80.57 31.79 137 40.4 177.91 39.17l1.18-.76c-152.42-260-351.72-55.3-351.72-55.3l.29.51c42.99-7.62 105.47-9.99 172.34 16.38z" fill="url(#H)"/><path d="M579 163.33C512.17 137 449.33 138 405.62 148.75c114.61 200.94 332.43 67 350.25 55.55-40.94 1.23-96.3-9.18-176.87-40.97z" fill="url(#I)"/><defs><linearGradient id="A" x1="46.5" y1="344.5" x2="978.5" y2="903" xlink:href="#J"><stop stop-color="#e54033"/><stop offset=".49" stop-color="#feca1a"/><stop offset="1" stop-color="#afd803"/></linearGradient><linearGradient id="B" x1="263767" y1="31225.5" x2="205421" y2="-28791.6" xlink:href="#J"><stop offset=".15" stop-color="#6cbf00"/><stop offset="1" stop-color="#afd803"/></linearGradient><linearGradient id="C" x1="207.43" y1="837.73" x2="791.43" y2="695.73" xlink:href="#J"><stop offset=".21" stop-color="#e54033"/><stop offset=".84" stop-color="#feca1a"/></linearGradient><linearGradient id="D" x1="667.54" y1="798.34" x2="847.74" y2="799.69" xlink:href="#J"><stop stop-color="#feca1a"/><stop offset=".4" stop-color="#feca1a"/><stop offset="1" stop-color="#afd803"/></linearGradient><linearGradient id="E" x1="259.65" y1="841.37" x2="629.1" y2="341.2" xlink:href="#J"><stop offset=".16" stop-color="#e54033"/><stop offset=".84" stop-color="#feca1a"/></linearGradient><linearGradient id="F" x1="205.85" y1="344.39" x2="189.49" y2="667.45" xlink:href="#J"><stop stop-color="#feca1a"/><stop offset=".76" stop-color="#e54033"/></linearGradient><linearGradient id="G" x1="386.58" y1="260.5" x2="287.91" y2="635.17" xlink:href="#J"><stop offset=".16" stop-color="#feca1a"/><stop offset="1" stop-color="#e54033"/></linearGradient><linearGradient id="H" x1="424.8" y1="81.12" x2="790.13" y2="215.78" xlink:href="#J"><stop offset=".15" stop-color="#6cbf00"/><stop offset="1" stop-color="#afd803"/></linearGradient><linearGradient id="I" x1="263766" y1="31225.2" x2="205420" y2="-28791.9" xlink:href="#J"><stop offset=".15" stop-color="#6cbf00"/><stop offset="1" stop-color="#afd803"/></linearGradient><linearGradient id="J" gradientUnits="userSpaceOnUse"/></defs></svg>