<svg xmlns="http://www.w3.org/2000/svg" xmlns:xlink="http://www.w3.org/1999/xlink" width="250" height="250" xmlns:v="https://vecta.io/nano"><defs><linearGradient id="A" x1="17.336" x2="80" y1="74.339" y2="74.339" xlink:href="#S"><stop offset="0" stop-color="#700000"/><stop offset=".327" stop-color="#730000"/><stop offset=".59" stop-color="#7d0000"/><stop offset=".83" stop-color="#8e0000"/><stop offset="1" stop-color="#9f0000"/></linearGradient><linearGradient id="B" x1="17.586" x2="17.586" y1="67.986" y2="80.117" xlink:href="#S"><stop offset=".35" stop-color="#dfdfdf"/><stop offset=".645" stop-color="#ddd"/><stop offset=".752" stop-color="#d6d6d6"/><stop offset=".828" stop-color="#cbcbcb"/><stop offset=".889" stop-color="#bababa"/><stop offset=".941" stop-color="#a4a4a4"/><stop offset=".987" stop-color="#898989"/><stop offset="1" stop-color="gray"/></linearGradient><linearGradient id="C" x1="46.429" x2="46.429" y1="68.69" y2="80" xlink:href="#S"><stop offset=".35" stop-color="#0050cf"/><stop offset=".645" stop-color="#004ecd"/><stop offset=".752" stop-color="#0049c6"/><stop offset=".828" stop-color="#003fbb"/><stop offset=".889" stop-color="#0031aa"/><stop offset=".941" stop-color="#001e94"/><stop offset=".987" stop-color="#000879"/><stop offset="1" stop-color="#000070"/></linearGradient><linearGradient id="D" x1="48.668" x2="48.668" y1="68.691" y2="80" xlink:href="#S"><stop offset=".35" stop-color="#cf2000"/><stop offset=".645" stop-color="#cd1f00"/><stop offset=".752" stop-color="#c61d00"/><stop offset=".828" stop-color="#bb1900"/><stop offset=".889" stop-color="#aa1300"/><stop offset=".941" stop-color="#940c00"/><stop offset=".987" stop-color="#790300"/><stop offset="1" stop-color="#700000"/></linearGradient><linearGradient id="E" x1="17.336" x2="80" y1="55.314" y2="55.314" xlink:href="#S"><stop offset="0" stop-color="#cf2000"/><stop offset=".021" stop-color="#d12201"/><stop offset=".244" stop-color="#e23309"/><stop offset=".487" stop-color="#ec3d0e"/><stop offset=".791" stop-color="#ef4010"/><stop offset=".841" stop-color="#ec3d0f"/><stop offset=".882" stop-color="#e2330d"/><stop offset=".919" stop-color="#d12208"/><stop offset=".954" stop-color="#b90a03"/><stop offset=".966" stop-color="#af0000"/><stop offset="1" stop-color="#ef4010"/></linearGradient><linearGradient id="F" x1="17.337" x2="80" y1="55.971" y2="55.971" xlink:href="#S"><stop offset="0" stop-color="#0050cf"/><stop offset=".021" stop-color="#0252d1"/><stop offset=".244" stop-color="#1363e2"/><stop offset=".487" stop-color="#1d6dec"/><stop offset=".791" stop-color="#2070ef"/><stop offset=".841" stop-color="#1e6dec"/><stop offset=".882" stop-color="#1963e2"/><stop offset=".919" stop-color="#1152d1"/><stop offset=".954" stop-color="#053ab9"/><stop offset=".966" stop-color="#0030af"/><stop offset="1" stop-color="#2070ef"/></linearGradient><linearGradient id="G" x1="17.337" x2="79.998" y1="57.255" y2="57.255" xlink:href="#S"><stop offset="0" stop-color="#fbbf00"/><stop offset=".021" stop-color="#fbc102"/><stop offset=".244" stop-color="#fdd213"/><stop offset=".487" stop-color="#ffdc1d"/><stop offset=".791" stop-color="#ffdf20"/><stop offset=".841" stop-color="#fddc1e"/><stop offset=".882" stop-color="#f8d219"/><stop offset=".919" stop-color="#eec111"/><stop offset=".954" stop-color="#e1a905"/><stop offset=".966" stop-color="#db9f00"/><stop offset="1" stop-color="#ffdf20"/></linearGradient><linearGradient xlink:href="#G" id="H" x1="17.336" x2="80" y1="53.8" y2="53.8"/><linearGradient xlink:href="#G" id="I" x1="17.336" x2="80.002" y1="45.229" y2="45.229"/><linearGradient xlink:href="#G" id="J" x2="79.997" y1="51.134" y2="51.134"/><linearGradient xlink:href="#G" id="K" x2="79.997" y1="64.102" y2="64.102"/><linearGradient xlink:href="#G" id="L" x1="17.335" x2="80.003" y1="64.407" y2="64.407"/><linearGradient xlink:href="#G" id="M" y1="68.818" y2="68.818"/><linearGradient xlink:href="#G" id="N" x1="17.339" x2="79.994" y1="63.832" y2="63.832"/><linearGradient xlink:href="#G" id="O" x1="17.336" x2="80.001" y1="64.489" y2="64.489"/><linearGradient xlink:href="#G" id="P" y1="71.034" y2="71.034"/><linearGradient xlink:href="#G" id="Q" y1="59.631" y2="59.631"/><linearGradient xlink:href="#G" id="R"/><linearGradient id="S" gradientUnits="userSpaceOnUse"/></defs><circle cx="125" cy="125" r="125" fill="#cdcdcd" fill-rule="evenodd"/><g transform="matrix(2.410898 0 0 2.417365 27.128046 21.611516)"><path fill="#0e3ca5" d="M32.585 59.26c2 7.4 9.176 13.045 12.8 12.811.127-.008 13.745-2.547 21.2-15 5.8-9.693 3.826-19.051-4.064-19.255-2.839.207-33.745 7.349-29.934 21.446m29.198-47.527l-.008-.007.011-.007a34.628 34.628 0 0 0-36.5-5.266 20.417 20.417 0 0 0-2.2 1.074c-.486.259-.972.517-1.444.8l.115.036a15.776 15.776 0 0 0-3.655 3.459C8.172 24.953 41.486 34.5 59.3 34.528c8.191 5.882 10.491-16.561 2.485-22.793z"/><path fill="#5493f7" d="M27.3 12C22.723 18.88 7.478 23.727 4.971 22.972l-.017-.032c.1-.207.207-.414.313-.619a36.682 36.682 0 0 1 10.87-12.683q1.407-1.032 2.913-1.929a10.79 10.79 0 0 1 5.04-1.342c6.789.13 3.244 5.58 3.208 5.635m-3.754 48.611c.329 2.161-.008 10.7-.45 11.418-.381.023-1.174.072-3.471-1.217A36.541 36.541 0 0 1 3.054 27.558q.183-.55.383-1.093c2.631 3.5 5.676 6.666 8.264 10.2 2.465 3.365 5.856 8.851 6.546 10.024 4.284 7.277 4.967 11.767 5.294 13.925m50.648-21.52A36.4 36.4 0 0 1 71.648 52.5c-4.3 4.62-33.283-6.753-33.567-6.878C34.116 43.885 22.05 38.6 20.961 30.3 19.4 18.35 43.63 10.026 54.28 9.711c1.277.015 5.163.06 7.429 1.9a36.415 36.415 0 0 1 12.48 27.483M54.568 71.466c-3.159 1.475-6.638.4-5.734-2.676 1.735-5.909 16.886-11.967 20.232-12.3.413-.041.588.24.405.561a36.864 36.864 0 0 1-14.9 14.41"/><path fill="url(#A)" d="M17.336 77.254a2.552 2.552 0 0 0 2.328 2.714c30.7.21 60.336-1.2 60.336-5.8 0-13.924-62.664 3.086-62.664 3.086z"/><path fill="url(#B)" d="M17.587 78.389v-.007z"/><path fill="url(#C)" d="M59.549 75.664l-5.907-5.907c-6.911.926-14.151 2.323-20.333 3.663l5.223 5.223c7.704-.82 14.885-1.958 21.017-2.979z"/><path fill="url(#D)" d="M53.642 69.757l5.907 5.907c11.993-2 19.97-3.54 19.97-1.366 0 4.244-29.172 5.7-59.841 5.493a2.194 2.194 0 0 1-.245-.014 2.353 2.353 0 0 1-1.846-1.388v-.007a2.532 2.532 0 0 1-.138-.368 2.532 2.532 0 0 0 .138.368 2.331 2.331 0 0 0 2.089 1.388c6.437-.039 12.807-.488 18.857-1.132l-5.224-5.218c-9.146 1.982-15.973 3.834-15.973 3.834a2.549 2.549 0 0 0 2.34 2.714c30.692.233 60.287-.731 60.324-5.8 0-6.222-12.515-6.268-26.358-4.411z"/><path fill="url(#E)" d="M19.68 37.823a2.343 2.343 0 0 0-2.344 2.343v37.088a2.343 2.343 0 0 0 2.328 2.346C50.363 79.37 80.037 69.209 80 74.169V32.393c.037-4.96-29.627 5.2-60.32 5.43z"/><path fill="url(#F)" d="M38.3 36.632v41.774c7.616-.855 14.756-2.036 20.9-3.094V33.536c-6.148 1.064-13.287 2.24-20.9 3.096z"/><path fill="url(#R)" d="M29.465 57.263l1.646-1.1a164.945 164.945 0 0 1-6.584.384l1.645.913 1.646.9 1.647-1.097z"/><path fill="url(#H)" d="M30.008 53.636a4.174 4.174 0 0 1-2.19.779 3.8 3.8 0 0 1-2.189-.525 3.6 3.6 0 0 1-1.43-1.6v.062a3.355 3.355 0 0 0 1.059 2.466 3.425 3.425 0 0 0 2.561.908 3.852 3.852 0 0 0 2.562-1.207 3.779 3.779 0 0 0 1.059-2.59v-.061a4.265 4.265 0 0 1-1.432 1.768z"/><path fill="url(#I)" d="M27.818 47.852a1.772 1.772 0 0 0 1.647-1.744c0-.656-.412-.71-.412-.956s.248-.59-.247-.968c.247.4-.164.5-.164.913s.164.4.164.726a.356.356 0 0 1-.328.35.305.305 0 0 1-.33-.308c0-.327.33-.676.33-1.169a1.566 1.566 0 0 0-.33-1.046c-.247-.394-.659-.7-.33-1.047-.494.193-.247.835-.247 1.246s-.328.674-.328 1.166.246.56.246.888a.352.352 0 0 1-.33.346.309.309 0 0 1-.33-.31c0-.328.166-.336.166-.747s-.412-.469-.166-.892c-.493.436-.246.749-.246 1s-.412.349-.412 1a1.538 1.538 0 0 0 1.647 1.552z"/><path fill="url(#J)" d="M27.818 53.758a2.78 2.78 0 0 0 1.863-.888 2.809 2.809 0 0 0 .771-1.912 2.426 2.426 0 0 0-.771-1.8 2.5 2.5 0 0 0-1.863-.649 2.813 2.813 0 0 0-1.863.866 2.732 2.732 0 0 0-.771 1.889 2.469 2.469 0 0 0 2.634 2.493z"/><path fill="url(#K)" d="M27.818 64.059a1.669 1.669 0 0 0 1.55-1.636 1.441 1.441 0 0 0-1.5-1.448h-.046a3.519 3.519 0 0 0-2.328 1.08 3.4 3.4 0 0 0-.963 2.36A3.172 3.172 0 0 0 25 66.1a3.077 3.077 0 0 0 1.25 1.127 1.845 1.845 0 0 1-.378-1.133 2.022 2.022 0 0 1 .572-1.395 2.073 2.073 0 0 1 1.374-.64zm0-2.2a.616.616 0 0 1 .658.622.7.7 0 0 1-.658.693.611.611 0 0 1-.657-.617.708.708 0 0 1 .657-.697z"/><path fill="url(#L)" d="M29.379 61.271a1.821 1.821 0 0 1 .383 1.125 2.092 2.092 0 0 1-1.944 2.055 1.646 1.646 0 0 0-1.092.516 1.613 1.613 0 0 0-.458 1.111 1.472 1.472 0 0 0 .458 1.072 1.451 1.451 0 0 0 1.046.392h.046a3.478 3.478 0 0 0 2.329-1.112 3.516 3.516 0 0 0 .964-2.392 3.061 3.061 0 0 0-.48-1.667 3.01 3.01 0 0 0-1.252-1.1zm-1.561 5.378a.612.612 0 0 1-.657-.617.7.7 0 0 1 .657-.692.61.61 0 0 1 .658.616.7.7 0 0 1-.658.693z"/><path fill="url(#M)" d="M24.527 68.354v1.311a159.406 159.406 0 0 0 6.583-.383V67.97l-3.293.225-3.29.159z"/><path fill="url(#N)" d="M31.768 71.853l3.29-.294V55.811a217.07 217.07 0 0 1-3.29.294z"/><path fill="url(#O)" d="M20.575 72.411l3.293-.1V56.563l-3.293.1z"/><path fill="url(#P)" d="M24.526 70.322l1.645.913 1.647.895 1.647-1.087 1.645-1.106-3.292.225-3.292.16z"/><path fill="url(#Q)" d="M24.527 59.166v1.313l3.29-.16 3.295-.219v-1.317l-3.294.224-3.291.159z"/></g></svg>