<?xml version="1.0" encoding="UTF-8"?><svg id="Layer_2" xmlns="http://www.w3.org/2000/svg" xmlns:xlink="http://www.w3.org/1999/xlink" viewBox="0 0 156.17 156.17"><defs><style>.cls-1{fill:none;}.cls-2{clip-path:url(#clippath);}.cls-3{fill:#fff;}.cls-4{fill:#92197c;stroke:#92197c;stroke-miterlimit:10;stroke-width:16px;}.cls-5{fill:url(#radial-gradient);}</style><clipPath id="clippath"><circle class="cls-1" cx="78.08" cy="78.08" r="70.08"/></clipPath><radialGradient id="radial-gradient" cx="77.29" cy="77.64" fx="65.88" fy="77.64" r="142.35" gradientTransform="translate(0 13.62) scale(1 .82)" gradientUnits="userSpaceOnUse"><stop offset=".37" stop-color="#fff"/><stop offset=".39" stop-color="#fff" stop-opacity=".94"/><stop offset=".45" stop-color="#fff" stop-opacity=".72"/><stop offset=".52" stop-color="#fff" stop-opacity=".53"/><stop offset=".59" stop-color="#fff" stop-opacity=".37"/><stop offset=".65" stop-color="#fff" stop-opacity=".23"/><stop offset=".72" stop-color="#fff" stop-opacity=".13"/><stop offset=".8" stop-color="#fff" stop-opacity=".06"/><stop offset=".87" stop-color="#fff" stop-opacity=".01"/><stop offset=".95" stop-color="#fff" stop-opacity="0"/></radialGradient><symbol id="Mok_Colred_symbol" viewBox="0 0 156.17 156.17"><g><circle class="cls-4" cx="78.08" cy="78.08" r="70.08"/><g class="cls-2"><path class="cls-5" d="M115.66,18.94c-10.89,9.69-25.82,23.01-46.34,41.37-.43,.35-.86,.74-1.31,1.17l-.21,.18v.02c-4.44,4.36-6.89,10.18-6.89,16.4,0,5.35,1.88,10.55,5.29,14.67l-.02,.05,.24,.22c1.2,1.4,2.3,2.63,4.53,4.59,.42,.37,24.11,21.54,44.6,39.68,19.59-12.43,32.6-34.29,32.6-59.21s-12.97-46.71-32.51-59.14Zm-31.5,79.36c-11.15,0-20.21-9.07-20.21-20.21s9.07-20.21,20.21-20.21,20.21,9.07,20.21,20.21-9.07,20.21-20.21,20.21Zm47.77,.31l-19.75-18.87v18.87h-4.62V57.44h4.62v17.36l19.07-17.36h6.26l-21.98,19.85,22.56,21.32h-6.16Z"/><polygon class="cls-3" points="53.78 98.63 53.78 64.08 38.53 81.8 37.07 81.8 21.88 64.09 21.88 98.63 18.61 98.63 18.61 57.43 20.58 57.43 37.83 77.75 55.08 57.43 57.06 57.43 57.06 98.63 53.78 98.63"/></g></g></symbol></defs><g id="Layer_1-2"><use width="156.17" height="156.17" xlink:href="#Mok_Colred_symbol"/></g></svg>