<svg xmlns="http://www.w3.org/2000/svg" width="250" height="250" xmlns:v="https://vecta.io/nano"><defs><linearGradient id="A" x1="92.891" y1="221.709" x2="165.301" y2="26" gradientUnits="userSpaceOnUse"><stop offset="0" stop-color="#ca49e9"/><stop offset="1" stop-color="#18ecb4"/></linearGradient></defs><circle cx="125" cy="125" r="125" fill="#fff"/><path d="M147.188 26l5.39 9.434-5.39 9.057 8.896-5.783 9.216 5.783-5.471-9.434L165.301 26l-9.056 5.688L147.188 26m-36.981 12.613c-15.886 2.087-30.796 6.482-44.15 15.698C55.931 61.3 47.536 70.085 40.775 80.339c-5.802 8.801-9.682 18.487-12.217 28.679-2.315 9.306-3.099 19.141-2.187 28.679 1.101 11.522 3.737 22.734 8.841 33.207 18.475 37.906 61.482 58.475 102.542 49.731 35.53-7.566 62.659-35.777 70.697-70.863 2.17-9.47 2.469-19.447 1.44-29.056-.408-3.806-.449-8.739-4.591-10.48-2.701-1.135-6.281-.45-8.153 1.817-2.142 2.595-2.881 6.771-4.393 9.795-2.712 5.423-6.412 10.178-10.85 14.305-16.689 15.519-42.602 16.889-61.131 3.913-24.78-17.354-27.852-53.314-6.778-74.816 4.206-4.291 9.547-8.041 15.079-10.41 3.986-1.707 9.253-2.569 9.997-7.708.525-3.626-2.044-6.755-5.469-7.54-7.171-1.643-16.102-1.937-23.396-.979m-3.396 14.179c-2.826 4.012-6.692 7.247-9.539 11.321-6.563 9.393-10.399 20.654-11.181 32.075-2.751 40.164 34.852 71.533 73.55 65.556 9.067-1.4 18.279-5.386 25.66-10.796 3.761-2.757 6.794-6.443 10.566-9.1-.415 9.641-4.847 20.136-9.736 28.302-16.879 28.19-50.167 44.075-82.716 37.566-32.457-6.49-56.361-31.814-62.64-63.981-2.475-12.678-1.049-26.298 3.019-38.49 4.146-12.427 11.596-24.311 21.509-32.936 11.321-9.85 26.212-18.299 41.509-19.516m40.377 9.434v.377c3.144 1.966 5.678 4.778 7.617 7.924 6.634 10.761 4.002 25.051-5.73 33.032-11.019 9.036-29.814 7.566-37.358-5.485-1.385 3.301-.151 8.378.759 11.698 3.097 11.301 11.119 20.344 21.882 24.953 28.957 12.401 59.274-16.072 50.782-45.708-2.12-7.398-6.643-14.043-12.669-18.788-7.54-5.937-15.868-8.004-25.283-8.004m-19.245 14.339l3.927 6.632-3.927 6.575 6.415-4.528h.377l6.415 4.528-4.528-6.415v-.377l4.528-6.415-6.632 3.971-6.575-3.971m71.32 0l4.954 7.924 2.244 3.774-2.113 3.396-5.085 7.924c3.812-1.215 8.806-4.836 11.321-7.924h.377c2.529 3.127 7.473 6.698 11.321 7.924l-4.862-7.547-2.336-3.774 2.244-3.774 4.954-7.924-7.924 5.143-3.774 2.186-11.321-7.329m-128.3 57.358l3.876 6.415-3.876 6.792 6.632-3.9 6.575 3.9-4.528-6.415v-.377l4.528-6.415-6.415 3.833-6.792-3.833m42.264 32.452l5.017 7.924 2.211 3.774-7.228 11.698c3.821-2.034 8.731-4.786 11.321-8.302h.377c2.913 3.334 7.635 6.549 11.698 8.302-1.712-3.968-4.944-8.965-8.302-11.698v-.377c3.541-2.608 6.255-7.476 8.302-11.321l-11.698 7.198-3.774-2.235-7.924-4.963m-36.603 3.019l5.738 9.434-5.738 9.434 9.434-5.739 9.434 5.739-5.688-9.434 5.688-9.434-9.434 5.669z" fill="url(#A)"/></svg>