<svg id="Monaco" xmlns="http://www.w3.org/2000/svg" width="256" height="256" viewBox="0 0 512 512">
<defs>
    <style>
      .cls-1 {
        fill: #002d72;
      }

      .cls-1, .cls-2 {
        fill-rule: evenodd;
      }

      .cls-2 {
        fill: #fff;
      }
    </style>
  </defs>
  <path id="Main" class="cls-1" d="M11,256c0,135.094,109.906,245,245,245S501,391.094,501,256,391.094,11,256,11,11,120.906,11,256Z"/>
  <path id="Monaco-2" data-name="Monaco" class="cls-2" d="M256,82L105,168.473V342.58L256,430l150-87.42V168.473ZM182.335,238.685L142,268l54.547,93.491H218.24L243,338V326.061L217,301V261ZM218,227l12,33.79-4.136,37.617h58.591L280,260.79,292.681,227H218Zm76,34v40l-26,25.061V338l24.681,23.491h21.641L367.578,268l-39.353-29.315ZM196.547,157.447l-14.212,59.816h145.89l-13.9-59.816H196.547Z"/>
</svg>
