<?xml version="1.0" encoding="UTF-8"?><svg id="CIRCLE_OUTLINE_BLACK" xmlns="http://www.w3.org/2000/svg" xmlns:xlink="http://www.w3.org/1999/xlink" viewBox="0 0 512 512"><defs><clipPath id="clippath"><rect width="512" height="512" fill="none" stroke-width="0"/></clipPath></defs><g clip-path="url(#clippath)"><path d="M256,512c141.38539,0,256-114.61461,256-256S397.38539,0,256,0,0,114.61513,0,256s114.61513,256,256,256Z" fill="#2470ff" stroke-width="0"/><path d="M149.21779,302.59029v76.24534c0,4.69505,3.97228,6.64234,5.20807,7.08438,1.23579.53247,5.3847,1.68276,9.0921-1.76982l57.6797-55.43083c4.91177-4.72062,9.65292-9.6819,13.21643-15.48628,1.67594-2.72896,2.37055-4.26667,2.37055-4.26667,3.53281-7.17313,3.53281-14.08.08875-20.98859-5.11828-10.27242-18.18453-20.72234-37.86923-30.63979l-33.63242,18.77333c-9.97461,5.66784-16.15395,15.67573-16.15395,26.47893Z" fill="#fff" isolation="isolate" opacity=".8" stroke-width="0"/><path d="M116.05333,133.00514v79.96638c0,10.00618,6.70891,18.86207,16.24268,21.69514,32.48453,9.38667,89.06719,29.57823,102.75125,59.24352,1.76297,3.89633,2.82281,7.7056,3.17781,11.68896,9.0931-16.55979,13.24031-35.59935,11.29982-54.90346-2.65044-27.36469-17.1281-52.24789-39.72436-68.09941l-80.59426-56.40993c-1.41262-1.06275-3.08975-1.59402-4.7669-1.59402-1.41243,0-2.64823.26572-3.97227.97415-2.6484,1.50546-4.41378,4.25062-4.41378,7.43868Z" fill="#fff" stroke-width="0"/><path d="M363.75211,302.59029v76.24534c0,4.69505-3.97141,6.64234-5.20875,7.08438-1.23393.53247-5.38625,1.68276-9.09141-1.76982l-59.02336-56.71935c-4.0175-3.86219-7.85409-7.94625-10.88-12.62594-2.39786-3.70516-3.36385-5.83849-3.36385-5.83849-3.53109-7.17313-3.53109-14.08-.09044-20.98859,5.12169-10.27242,18.18622-20.72234,37.86922-30.63979l33.63328,18.77333c10.06422,5.66784,16.15531,15.67573,16.15531,26.47893Z" fill="#fff" isolation="isolate" opacity=".8" stroke-width="0"/><path d="M396.97068,132.99951v79.96518c0,10.00789-6.71062,18.86208-16.24406,21.69685-32.48469,9.38667-89.06581,29.57826-102.74987,59.24354-1.76641,3.8963-2.82625,7.70388-3.17781,11.68896-9.09312-16.55979-13.24031-35.59937-11.29984-54.90346,2.64706-27.36471,17.12469-52.2479,39.72437-68.09943l80.59393-56.41046c1.4131-1.06273,3.08906-1.59402,4.76672-1.59402,1.41141,0,2.64875.26573,3.96969.97417,2.65047,1.50546,4.41688,4.25063,4.41688,7.43867Z" fill="#fff" stroke-width="0"/></g></svg>