<?xml version="1.0" encoding="UTF-8"?><svg id="Layer_1" xmlns="http://www.w3.org/2000/svg" width="128" height="128" viewBox="0 0 128 128"><defs><style>.cls-1{fill:#f2bb13;}</style></defs><circle class="cls-1" cx="64" cy="64" r="64"/><path d="M93.44,49.28l.12-.05c.36-.15.62-.24.83-.26l.23-.04c.47-.1.95-.14,1.43-.14,2.91,0,5.33-.91,7.02-2.62,1.21-1.23,1.97-2.83,2.24-4.69h.15s0-10.65,0-10.65h-17.75v7.7c-.04.56-.04,1.07-.04,1.52,0,.5,0,.97-.05,1.32l-.02.11c-.2,1.5-.93,2.9-2.05,3.93-1.15,1.06-1.68,1.29-1.86,1.34-.18.05-.44.03-1.18-.07-.64-.09-1.53-.21-2.6-.21-4.6,0-8.45,3.47-8.97,8.08-.11,1.05-.05,1.83,0,2.4.05.64.07.83-.15,1.46-.44,1.24-1.36,2.4-2.61,3.25-1.25.85-2.69,1.32-4.05,1.32h-.13s-.13,0-.13,0c-1.36,0-2.8-.47-4.05-1.32-1.25-.85-2.18-2-2.61-3.24-.22-.64-.21-.83-.15-1.46.05-.57.11-1.35,0-2.4-.51-4.61-4.37-8.08-8.97-8.08-1.08,0-1.96.12-2.61.21-.74.1-1,.12-1.18.07-.18-.05-.71-.28-1.86-1.34-1.12-1.03-1.85-2.43-2.05-3.93l-.02-.11c-.03-.17-.04-.37-.05-.59v-9.96h-17.75v9.03c-.02,2.54.79,4.72,2.35,6.31,1.68,1.71,4.11,2.62,7.02,2.62.48,0,.97.05,1.43.15l.23.04c.21.03.47.11.83.27l.12.05c1.2.48,2.26,1.28,3.05,2.32,1.95,2.56,1.95,6.14.01,8.71-.63.84-1.46,1.54-2.39,2.03l-.08.05c-.25.14-.48.24-.69.32-.09.03-.18.06-.25.08l-.09.03c-.7.23-1.43.34-2.18.34-5.63,0-9.41,3.49-9.41,8.68,0,4.05,1.83,6.16,3.37,7.21,1.88,1.28,4.14,1.65,6.3,1.85l.15.02c.57.08,1.06.19,1.62.4l.27.1.05.02c1.46.5,2.68,1.53,3.44,2.89.43.77.73,1.78.84,2.84.04.42.07.82.1,1.22.02.3.05.64.08.98v7.82h17.75v-10.44h-.13c-.29-2.01-1.24-3.85-2.73-5.28-.13-.12-.25-.23-.35-.31l-.06-.05c-1.91-1.67-4.39-1.71-6.21-1.75h-.02c-.3,0-.59-.01-.84-.02l-.27-.04-.58-.13-.55-.17-.59-.24c-.62-.28-1.2-.65-1.71-1.1l-.12-.1c-1.64-1.48-2.46-3.31-2.49-5.58,0-1.62.52-3.16,1.49-4.45.95-1.26,2.28-2.19,3.77-2.63,1.51-.45,4.31-.46,5.67-.02,2.47.79,4.22,3.08,4.35,5.68.01.22,0,.44,0,.71-.03.76-.07,1.81.37,3.13,1.24,3.68,4.66,6.16,8.52,6.18,3.85-.02,7.27-2.5,8.51-6.18.44-1.32.4-2.36.37-3.13,0-.26-.02-.49,0-.7.14-2.6,1.89-4.89,4.35-5.68,1.35-.44,4.16-.42,5.67.02,1.49.44,2.83,1.38,3.77,2.63.97,1.29,1.48,2.83,1.49,4.45-.03,2.27-.85,4.1-2.49,5.58l-.1.09c-.52.45-1.1.82-1.72,1.1l-.59.24-.55.17-.48.11-.38.06c-.25.01-.54.02-.84.02h-.02c-1.81.03-4.3.08-6.2,1.74l-.07.06c-.1.08-.22.19-.35.32-1.44,1.38-2.37,3.14-2.7,5.07h-.16v10.65h17.75v-7.82c.03-.34.06-.68.08-.98.03-.39.06-.8.1-1.22.11-1.06.41-2.07.84-2.84.76-1.36,1.98-2.39,3.44-2.89l.31-.12c.56-.2,1.04-.32,1.62-.4l.15-.02c2.17-.2,4.43-.56,6.3-1.85,2.79-1.9,3.37-4.97,3.37-7.21,0-5.19-3.78-8.68-9.41-8.68-.74,0-1.48-.12-2.18-.34l-.09-.03c-.08-.02-.16-.05-.25-.08-.21-.07-.44-.18-.7-.32l-.08-.04c-.93-.49-1.75-1.19-2.39-2.03-1.94-2.57-1.93-6.15.02-8.71.79-1.04,1.84-1.84,3.05-2.32h0Z"/></svg>