<svg xmlns="http://www.w3.org/2000/svg" width="250" height="250" fill="none" xmlns:v="https://vecta.io/nano"><circle cx="125" cy="125" r="125" fill="#1d1d1d"/><g clip-path="url(#B)" transform="matrix(1.551328 0 0 1.551328 33.448611 46.523013)"><path fill-rule="evenodd" d="M20.32 73.2c.341-.369.753-.666 1.211-.872s.953-.318 1.456-.328h83.786a1.84 1.84 0 0 1 1.663 1.109c.141.325.185.684.126 1.034s-.216.675-.455.937L90.347 94.8c-.341.369-.753.666-1.211.872s-.953.318-1.456.328H3.84a1.84 1.84 0 0 1-1.663-1.109 1.84 1.84 0 0 1 .329-1.971zm87.867-16.347c.239.262.397.587.455.937s.015.709-.126 1.034a1.84 1.84 0 0 1-1.663 1.109L23.04 60c-.502-.01-.997-.122-1.456-.328s-.87-.503-1.211-.872L2.48 39.147a1.84 1.84 0 0 1-.329-1.971 1.84 1.84 0 0 1 1.663-1.109L87.627 36c.502.01.998.122 1.456.328s.87.503 1.211.872zM20.32 1.2c.341-.369.753-.666 1.211-.872S22.484.01 22.987 0l83.84.067a1.84 1.84 0 0 1 .995.309c.295.197.527.474.667.8s.185.684.127 1.034-.217.675-.456.937L90.347 22.8c-.341.369-.753.666-1.211.872s-.953.318-1.456.328H3.84a1.84 1.84 0 0 1-1.663-1.109 1.84 1.84 0 0 1 .329-1.971z" fill="url(#A)"/><ellipse cx="206.983" cy="-116.03" rx="138.113" ry="89.081" fill="#cdcdcd" fill-opacity="0"/></g><defs><linearGradient id="A" x1="5.24" y1="98.093" x2="105.427" y2="-2.093" gradientUnits="userSpaceOnUse"><stop stop-color="#9945ff"/><stop offset=".297" stop-color="#8a53f4"/><stop offset=".547" stop-color="#6377d6"/><stop offset=".79" stop-color="#24b0a7"/><stop offset=".99" stop-color="#00d18c"/></linearGradient><clipPath id="B"><path fill="#fff" d="M0 0h792v96H0z"/></clipPath></defs><text xml:space="preserve" x="70.981" y="140.583" transform="scale(.78181443 1.2790759)" font-size="125.527" font-family="Lucida Calligraphy" fill="#fff"><tspan x="70.981" y="140.583">M</tspan></text></svg>