<svg id="MTH" xmlns="http://www.w3.org/2000/svg" width="512" height="512" viewBox="0 0 512 512">
  <defs>
    <style>
      .cls-1 {
        fill: #001c3e;
      }

      .cls-1, .cls-2 {
        fill-rule: evenodd;
      }

      .cls-2 {
        fill: #fff;
      }
    </style>
  </defs>
  <path id="Full" class="cls-1" d="M11,256c0,135.094,109.906,245,245,245S501,391.094,501,256,391.094,11,256,11,11,120.906,11,256Z"/>
  <path id="MTH-2" data-name="MTH" class="cls-2" d="M300.976,307.984l-35.351,27.434V252.611a45.246,45.246,0,0,1,18.019-36.141l34.834-26.239v82.007a45.249,45.249,0,0,1-17.5,35.746h0Zm-90.021.047a45.244,45.244,0,0,1-17.513-35.755V190.254l34.852,26.277a45.248,45.248,0,0,1,18,36.128v82.78ZM370.083,351.1l-33.936,25.88V200.217a48.074,48.074,0,0,1,18.84-38.168L389,136V312.87A48.074,48.074,0,0,1,370.083,351.1h0Zm-228.168.021A48.075,48.075,0,0,1,123,312.892V136.021l34.014,26.049a48.074,48.074,0,0,1,18.84,38.168V377l-33.937-25.881h0Z"/>
</svg>
