<?xml version="1.0" encoding="utf-8"?>
<!-- Generator: Adobe Illustrator 22.0.0, SVG Export Plug-In . SVG Version: 6.00 Build 0)  -->
<svg version="1.1" id="MTH" xmlns="http://www.w3.org/2000/svg" xmlns:xlink="http://www.w3.org/1999/xlink" x="0px" y="0px"
	 viewBox="0 0 490 490" style="enable-background:new 0 0 490 490;" xml:space="preserve">
<style type="text/css">
	.st0{fill:#001C3E;}
	.st1{fill:#FFFFFF;}
</style>
<path id="Full" class="st0" d="M0,245c0,135.1,109.9,245,245,245s245-109.9,245-245S380.1,0,245,0S0,109.9,0,245z"/>
<path id="MTH-2" class="st1" d="M290,297l-35.4,27.4v-82.8c0-14.2,6.7-27.6,18-36.1l34.8-26.2v82C307.5,275.2,301,288.4,290,297
	L290,297L290,297z M200,297c-11-8.6-17.5-21.8-17.5-35.8v-82l34.9,26.3c11.3,8.6,18,21.9,18,36.1v82.8L200,297z M359.1,340.1
	L325.1,366V189.2c0-15,7-29.1,18.8-38.2l34-26v176.9C378,316.9,371,331,359.1,340.1L359.1,340.1z M130.9,340.1
	C119,331,112,316.9,112,301.9V125l34,26c11.9,9.1,18.8,23.2,18.8,38.2V366L130.9,340.1L130.9,340.1L130.9,340.1z"/>
</svg>
