<?xml version="1.0" encoding="utf-8"?>
<!-- Generator: Adobe Illustrator 22.0.0, SVG Export Plug-In . SVG Version: 6.00 Build 0)  -->
<svg version="1.1" id="MTL" xmlns="http://www.w3.org/2000/svg" xmlns:xlink="http://www.w3.org/1999/xlink" x="0px" y="0px"
	 viewBox="0 0 490 490" style="enable-background:new 0 0 490 490;" xml:space="preserve">
<style type="text/css">
	.st0{fill:#FF3667;}
	.st1{fill:#FFFFFF;}
</style>
<path id="Full" class="st0" d="M0,245c0,135.1,109.9,245,245,245s245-109.9,245-245S380.1,0,245,0S0,109.9,0,245z"/>
<path id="MTL-2" class="st1" d="M375,133c6.7,0,12.9,3.5,16.3,9.2c1.7,2.8,2.6,6.1,2.6,9.4v187.7c0,6.7-3.6,12.8-9.4,16.1
	c-9,5.2-20.5,2.2-25.9-6.7c-1.7-2.8-2.6-6.1-2.6-9.4V151.6c0-6.7,3.6-12.8,9.4-16.1C368.3,133.9,371.6,133,375,133z M114.9,133
	c10.4-0.1,18.8,8.3,18.9,18.7v187.7c-0.5,10.4-9.4,18.5-19.9,18c-9.7-0.5-17.5-8.3-18-18V151.6C96.1,141.3,104.5,132.9,114.9,133
	C114.9,133,114.9,133,114.9,133z M202.4,176.1L202.4,176.1c10.4-0.1,18.8,8.3,18.9,18.7v109.7c-0.1,10.4-8.5,18.7-18.9,18.7l0,0
	c-10.4,0.1-18.8-8.3-18.9-18.7V194.7C183.6,184.4,192,176,202.4,176.1L202.4,176.1z M287.5,211.5L287.5,211.5
	c10.4-0.1,18.8,8.3,18.9,18.7v46.4c-0.1,10.4-8.5,18.7-18.9,18.7l0,0c-10.4,0.1-18.8-8.3-18.9-18.7v-46.4
	C268.7,219.8,277.1,211.5,287.5,211.5L287.5,211.5z"/>
</svg>
