<svg id="MTL" xmlns="http://www.w3.org/2000/svg" width="512" height="512" viewBox="0 0 512 512">
<defs>
    <style>
      .cls-1 {
        fill: #ff3667;
      }

      .cls-1, .cls-2 {
        fill-rule: evenodd;
      }

      .cls-2 {
        fill: #fff;
      }
    </style>
  </defs>
  <path id="Full" class="cls-1" d="M11,256c0,135.094,109.906,245,245,245S501,391.094,501,256,391.094,11,256,11,11,120.906,11,256Z"/>
  <path id="MTL-2" data-name="MTL" class="cls-2" d="M385.977,143.987a18.878,18.878,0,0,1,16.336,9.237,18.368,18.368,0,0,1,2.574,9.414V350.354a18.52,18.52,0,0,1-9.365,16.1,19.083,19.083,0,0,1-25.88-6.685,18.371,18.371,0,0,1-2.575-9.414V162.638a18.521,18.521,0,0,1,9.365-16.1A19.026,19.026,0,0,1,385.977,143.987Zm-260.038,0a18.782,18.782,0,0,1,18.9,18.663V350.342a18.934,18.934,0,0,1-37.821,0V162.65A18.781,18.781,0,0,1,125.939,143.987Zm87.462,43.09h0a18.781,18.781,0,0,1,18.91,18.651V315.437a18.782,18.782,0,0,1-18.91,18.652h0a18.783,18.783,0,0,1-18.911-18.652V205.728A18.782,18.782,0,0,1,213.4,187.077Zm85.1,35.459h0a18.782,18.782,0,0,1,18.911,18.651v46.351A18.782,18.782,0,0,1,298.5,306.189h0a18.782,18.782,0,0,1-18.91-18.651V241.187A18.781,18.781,0,0,1,298.5,222.536Z"/>
</svg>
