<?xml version="1.0" encoding="UTF-8" standalone="no"?>
<!-- Created with Inkscape (http://www.inkscape.org/) -->

<svg
   version="1.1"
   id="svg2"
   width="250"
   height="250"
   viewBox="0 0 250 250"
   sodipodi:docname="MTSLA.svg"
   inkscape:version="1.1.1 (3bf5ae0d25, 2021-09-20)"
   xmlns:inkscape="http://www.inkscape.org/namespaces/inkscape"
   xmlns:sodipodi="http://sodipodi.sourceforge.net/DTD/sodipodi-0.dtd"
   xmlns="http://www.w3.org/2000/svg"
   xmlns:svg="http://www.w3.org/2000/svg">
  <defs
     id="defs6" />
  <sodipodi:namedview
     id="namedview4"
     pagecolor="#ffffff"
     bordercolor="#666666"
     borderopacity="1.0"
     inkscape:pageshadow="2"
     inkscape:pageopacity="0.0"
     inkscape:pagecheckerboard="0"
     showgrid="false"
     inkscape:zoom="2.1907152"
     inkscape:cx="219.79124"
     inkscape:cy="111.60739"
     inkscape:window-width="2560"
     inkscape:window-height="1377"
     inkscape:window-x="-8"
     inkscape:window-y="-8"
     inkscape:window-maximized="1"
     inkscape:current-layer="g8" />
  <g
     inkscape:groupmode="layer"
     inkscape:label="Image"
     id="g8">
    <circle
       style="fill:#ffffff;stroke-width:9.76382"
       id="path1336"
       cx="125"
       cy="125"
       r="125" />
    <g
       id="g865"
       transform="matrix(0.20390684,0,0,0.20390684,39.811877,41.721441)">
      <path
         style="fill:#ee6d71"
         d="m 79.489752,184.70533 -1.904988,-2.25 2.25,1.90499 c 2.114445,1.79022 2.705241,2.59501 1.904988,2.59501 -0.189757,0 -1.202257,-1.0125 -2.25,-2.25 z M 383.89726,13.272212 c 0.72187,-0.288871 1.58438,-0.253344 1.91667,0.07895 0.33229,0.332292 -0.25834,0.56864 -1.3125,0.525219 -1.16495,-0.04798 -1.4019,-0.28494 -0.60417,-0.604166 z"
         id="path873" />
      <path
         style="fill:#e72026"
         d="M 418.87435,798.95533 C 407.87334,735.21577 307.63825,179.17727 307.03543,178.54641 c -1.18624,-1.24143 -53.92108,0.95156 -70.81782,2.94498 -45.02714,5.31212 -65.77307,19.03869 -71.49881,47.30727 -0.81805,4.03884 -1.73626,7.59222 -2.04045,7.89641 -0.30419,0.30419 -8.32469,-3.30717 -17.82333,-8.02524 -27.8173,-13.81714 -52.250902,-31.04087 -69.28454,-48.84004 -8.414257,-8.79241 -17.485716,-20.0457 -17.485716,-21.69131 0,-2.22769 44.355706,-19.96274 74.999996,-29.98777 61.33812,-20.06626 143.85307,-35.907344 194.90356,-37.417256 l 9.40355,-0.278128 39.75872,48.376564 c 21.86729,26.60711 40.37761,48.99545 41.13403,49.75187 1.16709,1.16709 7.5772,-6.19998 42.33773,-48.65827 l 40.96241,-50.0336 9.5,0.590957 c 78.27297,4.869053 166.15404,24.570423 238.42609,53.450873 11.93338,4.76867 30.74933,12.87647 31.4203,13.53902 0.58577,0.57841 -5.31344,8.58814 -12.32015,16.72783 -15.56291,18.07943 -45.96837,40.38183 -73.68255,54.04616 -20.38385,10.05014 -19.4156,9.85941 -20.21327,3.98184 -1.77806,-13.10145 -8.97688,-26.4772 -17.79693,-33.06759 -12.81503,-9.57545 -28.36015,-14.51899 -55.83002,-17.75463 -11.84037,-1.39466 -69.71231,-4.12947 -70.41266,-3.32744 -0.22978,0.26315 -93.16621,522.06544 -110.40408,619.87642 l -0.79306,4.5 z M 33.412667,114.28076 C 27.856231,102.82677 23.066271,92.714168 22.768312,91.808307 22.210745,90.113181 33.23209,85.597757 67.584764,73.447091 189.79172,30.222047 334.1648,8.3492082 460.08476,13.982481 c 120.07698,5.371876 235.7043,29.625892 347.83221,72.961369 7.98185,3.084847 8.30551,3.331497 7.69741,5.865865 -0.72357,3.01564 -17.64123,37.653875 -19.80414,40.548185 -1.37119,1.83488 -1.89866,1.70417 -14.82363,-3.67327 C 659.22149,79.024192 526.16081,55.841106 385.51036,60.781028 c -38.00244,1.334722 -50.40449,2.194688 -81.4256,5.646105 -82.28797,9.155383 -165.8905,30.26887 -238.196919,60.155687 -10.066692,4.16092 -19.218711,7.78088 -20.33782,8.04434 -1.779703,0.41898 -3.301031,-2.13129 -12.137354,-20.3464 z"
         id="path867" />
    </g>
  </g>
</svg>
