<?xml version="1.0" encoding="UTF-8"?><svg id="Layer_1" xmlns="http://www.w3.org/2000/svg" viewBox="0 0 245 245"><path d="M122.5,245c67.7,0,122.5-54.8,122.5-122.5S190.2,0,122.5,0,0,54.8,0,122.5s54.8,122.5,122.5,122.5Z" style="fill:#00ec97;"/><path d="M175.1,55.7c-5,0-9.5,2.6-12.1,6.8l-27.9,41.5c-.9,1.4-.5,3.2.8,4.1,1.1.7,2.6.6,3.6-.2l27.5-23.9c.5-.4,1.2-.4,1.6,0,.2.2.3.5.3.8v74.7c0,.6-.5,1.1-1.1,1.1s-.6-.1-.9-.4L83.7,60.7c-2.7-3.2-6.7-5-10.9-5h-2.9c-7.9,0-14.2,6.4-14.2,14.2v105.2c0,7.9,6.4,14.2,14.2,14.2s9.5-2.6,12.1-6.8l27.9-41.5c.9-1.4.5-3.2-.8-4.1-1.1-.7-2.6-.6-3.6.2l-27.5,23.9c-.5.4-1.2.4-1.6,0-.2-.2-.3-.5-.3-.8v-74.7c0-.6.5-1.1,1.1-1.1s.6.1.9.4l83.1,99.5c2.7,3.2,6.7,5,10.9,5h2.9c7.9,0,14.2-6.4,14.3-14.2v-105.2c0-7.9-6.4-14.2-14.2-14.2h0Z"/></svg>