<?xml version="1.0" encoding="UTF-8" standalone="no"?>
<svg
   xmlns:dc="http://purl.org/dc/elements/1.1/"
   xmlns:cc="http://creativecommons.org/ns#"
   xmlns:rdf="http://www.w3.org/1999/02/22-rdf-syntax-ns#"
   xmlns:svg="http://www.w3.org/2000/svg"
   xmlns="http://www.w3.org/2000/svg"
   xmlns:sodipodi="http://sodipodi.sourceforge.net/DTD/sodipodi-0.dtd"
   xmlns:inkscape="http://www.inkscape.org/namespaces/inkscape"
   width="236"
   height="236"
   version="1.1"
   id="svg8"
   sodipodi:docname="NEAR_BEP20.svg"
   inkscape:version="1.0.2-2 (e86c870879, 2021-01-15)">
  <metadata
     id="metadata8">
    <rdf:RDF>
      <cc:Work
         rdf:about="">
        <dc:format>image/svg+xml</dc:format>
        <dc:type
           rdf:resource="http://purl.org/dc/dcmitype/StillImage" />
      </cc:Work>
    </rdf:RDF>
  </metadata>
  <defs
     id="defs12" />
  <sodipodi:namedview
     id="namedview10"
     pagecolor="#ffffff"
     bordercolor="#666666"
     borderopacity="1.0"
     inkscape:pageshadow="2"
     inkscape:pageopacity="0.0"
     inkscape:pagecheckerboard="0"
     showgrid="false"
     inkscape:zoom="3.4101562"
     inkscape:cx="118"
     inkscape:cy="118"
     inkscape:window-width="1920"
     inkscape:window-height="1017"
     inkscape:window-x="-8"
     inkscape:window-y="-8"
     inkscape:window-maximized="1"
     inkscape:current-layer="svg8"
     inkscape:document-rotation="0" />
  <circle
     cx="118"
     cy="118"
     r="118"
     fill="#ffffff"
     paint-order="stroke fill markers"
     id="circle2" />
  <path
     d="m 168.021,43.484 -34.637,51.46 c -2.395,3.504 2.211,7.747 5.527,4.796 l 34.084,-29.696 c 0.921,-0.738 2.211,-0.184 2.211,1.107 v 92.776 c 0,1.291 -1.658,1.844 -2.395,0.922 L 69.637,41.271 C 66.321,37.213 61.531,35 56.188,35 H 52.503 C 42.922,35 35,42.931 35,52.707 v 130.587 c 0,9.775 7.922,17.706 17.687,17.706 6.08,0 11.791,-3.136 15.108,-8.484 l 34.637,-51.46 c 2.395,-3.504 -2.211,-7.747 -5.527,-4.796 L 62.82,165.771 c -0.921,0.738 -2.211,0.184 -2.211,-1.107 V 72.073 c 0,-1.291 1.658,-1.844 2.395,-0.922 l 103.174,123.578 c 3.316,4.058 8.291,6.271 13.45,6.271 h 3.685 C 193.078,201 201,193.069 201,183.293 V 52.707 C 201,42.931 193.078,35 183.313,35 c -6.264,0 -11.976,3.136 -15.292,8.484 z"
     id="path4" />
</svg>
