<?xml version="1.0" encoding="UTF-8" standalone="no"?>
<svg
   xmlns:dc="http://purl.org/dc/elements/1.1/"
   xmlns:cc="http://creativecommons.org/ns#"
   xmlns:rdf="http://www.w3.org/1999/02/22-rdf-syntax-ns#"
   xmlns:svg="http://www.w3.org/2000/svg"
   xmlns="http://www.w3.org/2000/svg"
   id="svg3052"
   version="1.1"
   viewBox="0 0 67.733333 67.733335"
   height="256"
   width="256">
  <defs
     id="defs3046" />
  <metadata
     id="metadata3049">
    <rdf:RDF>
      <cc:Work
         rdf:about="">
        <dc:format>image/svg+xml</dc:format>
        <dc:type
           rdf:resource="http://purl.org/dc/dcmitype/StillImage" />
        <dc:title></dc:title>
      </cc:Work>
    </rdf:RDF>
  </metadata>
  <g
     transform="translate(0,-229.26665)"
     id="layer1">
    <g
       id="g2739">
      <circle
         style="opacity:1;fill:#1e4dd8;fill-opacity:1;fill-rule:nonzero;stroke:none;stroke-width:0.56656402;stroke-linecap:round;stroke-linejoin:round;stroke-miterlimit:4;stroke-dasharray:none;stroke-dashoffset:0;stroke-opacity:1;paint-order:stroke fill markers"
         id="path3597"
         cx="33.866665"
         cy="263.13333"
         r="32.411457" />
      <g
         id="g3714"
         transform="matrix(0.05367326,0,0,0.05367326,19.707661,244.94118)">
        <g
           id="g3712">
          <path
             id="path3690"
             d="m 260.7,579.7 c -1.3,-15.3 -8.2,-29.6 -19.5,-40.1 -11.3,-10.5 -26,-16.3 -41.3,-16.5 H 197 c -7.3,0.3 -14.5,1.9 -21.2,4.8 l -1.5,0.6 h -0.6 c -10.9,4.9 -20,12.9 -26.4,23 -6.4,10.1 -9.6,21.8 -9.4,33.8 0,0 0,0.7 0,1.2 0.7,16.4 7.7,31.9 19.6,43.2 11.8,11.3 27.6,17.7 44,17.7 h 34.9 c 0.9,0 1.8,-0.4 2.5,-1 0.7,-0.7 1,-1.5 1,-2.5 v -19.7 c 0,-0.5 -0.1,-0.9 -0.3,-1.3 -0.2,-0.4 -0.4,-0.8 -0.8,-1.1 -0.3,-0.3 -0.7,-0.6 -1.1,-0.7 -0.4,-0.2 -0.9,-0.2 -1.3,-0.2 H 200 c -7.4,-0.3 -14.6,-2.9 -20.5,-7.4 -5.9,-4.5 -10.3,-10.8 -12.5,-17.8 h 89.6 c 0.6,0 1.1,-0.1 1.6,-0.2 0.5,-0.2 1,-0.5 1.4,-0.9 0.4,-0.4 0.7,-0.8 1,-1.3 0.3,-0.5 0.4,-1.1 0.4,-1.6 v -10.6 c 0,-0.7 -0.1,-1.1 -0.3,-1.4 z m -28.8,-6.4 H 167 c 3.1,-8.8 9.5,-16 17.9,-20 l 1.4,-0.6 c 4.3,-1.8 9,-2.6 13.6,-2.5 4.7,0.1 9.3,1.1 13.5,3.1 4.2,1.9 8.1,4.7 11.2,8.2 3.1,3.5 5.6,7.5 7.1,11.9 h 0.2 z"
             class="st0"
             style="fill:#ffffff" />
          <path
             id="path3692"
             d="m 60.6,523.3 c -11.6,0.3 -22.9,4 -32.4,10.6 v -7 c 0,-0.6 -0.2,-1.1 -0.6,-1.5 -0.4,-0.4 -0.9,-0.6 -1.5,-0.6 H 3.4 c -0.6,0 -1.1,0.2 -1.5,0.6 -0.4,0.4 -0.6,0.9 -0.6,1.5 v 56.5 c -0.1,1 -0.1,1.9 0,2.9 V 644 c 0,0.9 0.4,1.8 1,2.4 0.6,0.7 1.5,1 2.4,1.1 h 20.1 c 0.5,0 0.9,-0.1 1.3,-0.3 0.4,-0.2 0.8,-0.4 1.1,-0.8 0.3,-0.3 0.6,-0.7 0.7,-1.1 0.2,-0.4 0.2,-0.9 0.2,-1.3 v -59.1 c 0,-4.9 1,-9.6 3,-14.1 2,-4.4 4.8,-8.4 8.4,-11.7 3.6,-3.3 7.8,-5.7 12.4,-7.2 4.6,-1.5 9.5,-2.1 14.3,-1.6 8.8,0.9 16.9,5.1 22.8,11.7 5.9,6.6 9.1,15.1 9,24 v 58.2 c 0,0.5 0.1,0.9 0.2,1.3 0.2,0.4 0.4,0.8 0.7,1.1 0.3,0.3 0.7,0.6 1.1,0.8 0.4,0.2 0.9,0.3 1.3,0.3 h 20 c 0.9,0 1.8,-0.4 2.5,-1 0.7,-0.7 1,-1.5 1,-2.5 v -59.3 c 0,-8.3 -1.7,-16.6 -5,-24.2 -3.3,-7.7 -8.1,-14.6 -14.1,-20.3 -6,-5.8 -13.1,-10.2 -20.9,-13.2 -7.6,-3 -15.9,-4.3 -24.2,-3.9 z"
             class="st0"
             style="fill:#ffffff" />
          <path
             id="path3694"
             d="m 378.5,523.9 c -0.3,-0.3 -0.7,-0.5 -1.2,-0.5 -0.4,0 -0.9,0.2 -1.2,0.5 l -42.9,42.4 -42.4,-42.4 c -0.3,-0.3 -0.7,-0.5 -1.2,-0.5 -0.4,0 -0.9,0.2 -1.2,0.5 l -17.3,17.9 c -0.3,0.3 -0.5,0.7 -0.5,1.2 0,0.4 0.2,0.9 0.5,1.2 l 42.4,42.4 -43,43.1 c -0.3,0.3 -0.5,0.7 -0.5,1.2 0,0.4 0.2,0.9 0.5,1.2 l 16.9,16.9 c 0.2,0.2 0.4,0.4 0.7,0.5 0.3,0.1 0.5,0.2 0.8,0.2 0.3,0 0.6,-0.1 0.8,-0.2 0.3,-0.1 0.5,-0.3 0.7,-0.5 l 42.4,-42.4 42.4,42.4 c 0.3,0.3 0.7,0.5 1.2,0.5 0.5,0 0.9,-0.2 1.2,-0.5 l 17.3,-17.2 c 0.3,-0.3 0.5,-0.7 0.5,-1.2 0,-0.4 -0.2,-0.9 -0.5,-1.2 l -42.4,-42.4 43,-42.4 c 0.3,-0.3 0.5,-0.7 0.5,-1.2 0,-0.4 -0.2,-0.9 -0.5,-1.2 z"
             class="st0"
             style="fill:#ffffff" />
          <path
             id="path3696"
             d="m 464.6,522.7 c -12.6,-0.2 -25,3.4 -35.5,10.3 -10.6,6.9 -18.8,16.8 -23.8,28.4 -4.9,11.6 -6.3,24.4 -4,36.8 2.4,12.4 8.3,23.8 17.2,32.8 8.9,9 20.2,15.1 32.5,17.7 12.3,2.5 25.2,1.3 36.8,-3.5 11.7,-4.8 21.6,-12.9 28.7,-23.4 7,-10.5 10.8,-22.8 10.8,-35.4 0,-16.7 -6.6,-32.8 -18.3,-44.7 -11.7,-12 -27.7,-18.8 -44.4,-19 z m 0,99.9 c -5,0.3 -9.9,-0.5 -14.6,-2.2 -4.7,-1.7 -8.9,-4.4 -12.6,-7.8 -3.6,-3.4 -6.5,-7.6 -8.5,-12.1 -2,-4.6 -3,-9.5 -3,-14.5 0,-5 1,-9.9 3,-14.5 2,-4.6 4.8,-8.7 8.5,-12.1 3.6,-3.4 7.9,-6.1 12.6,-7.8 4.7,-1.7 9.6,-2.5 14.6,-2.2 9.4,0.5 18.2,4.6 24.6,11.4 6.4,6.8 10,15.9 10,25.2 0,9.3 -3.6,18.4 -10,25.2 -6.4,6.9 -15.2,10.9 -24.6,11.4 z"
             class="st0"
             style="fill:#ffffff" />
          <path
             id="path3698"
             d="M 520.1,73 393.9,0 262.7,75.8 136.6,3 C 135,2.1 133.2,1.6 131.3,1.6 129.4,1.6 127.6,2.1 126,3 L 0.3,75.8 v 297.8 c 0,1.8 0.5,3.5 1.4,5 0.9,1.5 2.1,2.8 3.7,3.7 l 126.7,73 131.2,-75.9 126.2,73 c 1.6,0.9 3.4,1.4 5.3,1.4 1.9,0 3.7,-0.5 5.3,-1.4 l 126.7,-73 V 81.8 c -0.2,-1.9 -0.9,-3.8 -2.1,-5.3 -1.2,-1.6 -2.8,-2.8 -4.6,-3.5 z"
             class="st0"
             style="fill:#ffffff" />
          <path
             id="path3700"
             d="M 137,3 395,152.2 V 304.4 L 0.3,76.1 127.3,3 c 1.5,-0.8 3.1,-1.2 4.8,-1.2 1.7,0 3.4,0.4 4.9,1.2 z"
             class="st1"
             style="fill:#d9eeff" />
          <path
             id="path3702"
             d="M 395,0 263.4,76.2 395,152.2 Z"
             class="st2"
             style="fill:#bbddff" />
          <path
             id="path3704"
             d="m 395,0 126.5,73.2 c 1.5,0.9 2.8,2.2 3.7,3.8 0.9,1.6 1.4,3.3 1.4,5.1 V 380.6 L 395,304.4 Z"
             class="st3"
             style="fill:#a0ccff" />
          <path
             id="path3706"
             d="m 526.7,380.5 -127.1,73.2 c -1.6,0.9 -3.4,1.4 -5.3,1.4 -1.9,0 -3.7,-0.5 -5.3,-1.4 L 131.9,304.4 V 152 Z"
             class="st2"
             style="fill:#bbddff" />
          <path
             id="path3708"
             d="m 0.3,76.1 v 298.6 c 0,1.8 0.5,3.5 1.4,5.1 0.9,1.5 2.1,2.8 3.7,3.8 l 127.1,73.2 V 152 Z"
             class="st0"
             style="fill:#ffffff" />
          <path
             id="path3710"
             d="M 131.9,456.6 263.4,380.4 131.9,304.3 Z"
             class="st1"
             style="fill:#d9eeff" />
        </g>
      </g>
      <circle
         style="opacity:1;fill:none;fill-opacity:1;fill-rule:nonzero;stroke:#b0b0b0;stroke-width:3.41965675;stroke-linecap:round;stroke-linejoin:round;stroke-miterlimit:4;stroke-dasharray:none;stroke-dashoffset:0;stroke-opacity:1;paint-order:stroke fill markers"
         id="path2008"
         cx="33.866665"
         cy="263.13333"
         r="30.83392" />
    </g>
  </g>
  <style
     type="text/css"
     id="style3688">
	.st0{fill:#FFFFFF;}
	.st1{fill:#D9EEFF;}
	.st2{fill:#BBDDFF;}
	.st3{fill:#A0CCFF;}
</style>
</svg>
