<svg xmlns="http://www.w3.org/2000/svg" width="250" height="250" xmlns:v="https://vecta.io/nano"><defs><linearGradient id="A" x1="37.764" y1="209.592" x2="213.746" y2="47.961" gradientUnits="userSpaceOnUse"><stop offset="0" stop-color="#16e5aa"/><stop offset="1" stop-color="#b889e7"/></linearGradient></defs><circle cx="125" cy="125" r="125" fill="url(#A)"/><path d="M117.896 249.887c-.092-.092-1.548-.281-3.237-.42-37.515-3.09-71.753-23.04-92.992-54.186-10.944-16.049-18.072-34.675-20.597-53.827-.881-6.681-1.07-9.6-1.07-16.518s.189-9.836 1.07-16.518C5.692 73.37 25.269 41.652 54.62 21.656 70.662 10.728 89.33 3.591 108.474 1.07 115.159.189 118.079 0 125 0c19.618 0 38.572 4.471 56.037 13.219 4.997 2.503 8.232 4.397 13.453 7.88 17.986 11.997 32.616 28.545 42.284 47.829 6.162 12.291 10.372 25.969 12.155 39.492.881 6.681 1.07 9.6 1.07 16.518s-.189 9.836-1.07 16.518c-3.497 26.519-15.513 51.247-34.256 70.498-9.955 10.224-21.163 18.455-33.636 24.703-14.166 7.095-28.224 11.055-45.743 12.885-3.344.349-17.121.624-17.399.347zm20.379-8.088c31.697-3.827 59.386-19.247 79.162-44.086 3.098-3.891 8.011-11.25 10.529-15.77 12.851-23.072 17.486-50.18 13.104-76.639-6.676-40.304-34.636-74.779-72.864-89.84-19.31-7.608-40.296-9.942-61.221-6.809-16.431 2.46-33.047 8.915-47.092 18.295-13.23 8.836-24.159 19.781-32.813 32.863-6.087 9.201-10.122 17.38-13.541 27.445-3.919 11.541-5.773 22.276-6.039 34.982-.215 10.268.501 18.113 2.51 27.496 6.806 31.785 26.573 59.229 54.982 76.338 14.704 8.855 32.557 14.541 50.526 16.092 4.384.378 18.463.151 22.757-.367zm-21.944-9.939c-3.821-.309-8.37-.943-12.4-1.727-3.267-.636-3.366-.677-5.689-2.352-12.398-8.94-22.091-20.777-27.561-33.659-1.51-3.555-3.658-9.882-3.651-10.753.003-.45.387-.025 1.394 1.546 2.47 3.852 4.579 6.424 8.333 10.164 4.248 4.232 8.025 7.31 13.567 11.055 5.948 4.02 11.941 7.494 19.235 11.149 1.863.933 3.235 1.749 3.05 1.813-.552.191-5.58-1.482-9.245-3.075-4-1.739-9.157-4.503-13.675-7.329-1.765-1.104-3.329-1.967-3.476-1.918s.871 1.188 2.261 2.531c8.988 8.687 22.391 16.712 35.918 21.505 1.378.488 2.506.993 2.506 1.122 0 .287-6.692.242-10.566-.072zm17.474-.755c-4.253-1.256-4.764-1.442-4.679-1.697.05-.15 1.953-1.102 4.228-2.114 6.824-3.037 13.932-7.198 19.687-11.524 4.446-3.342 10.485-8.823 10.122-9.186-.078-.078-1.473.684-3.1 1.692-6.317 3.916-11.483 6.625-16.408 8.605-2.998 1.205-6.96 2.421-7.179 2.203-.069-.069 2.228-1.342 5.104-2.829 19.29-9.97 31.224-19.414 38.664-30.597.917-1.378 1.711-2.505 1.764-2.505.412 0-1.85 6.811-3.684 11.095-4.949 11.56-13.142 22.151-23.657 30.587-5.438 4.362-6.103 4.733-9.681 5.405-3.221.605-8.462 1.383-9.148 1.359-.224-.008-1.138-.23-2.032-.495zm-50.749-7.333c-16.697-7.049-31.608-18.554-42.991-33.171-1.379-1.77-1.976-2.734-1.725-2.783.211-.042 5.721 1.756 12.244 3.994l12.149 4.069c.397 0 .217-.869-1.085-5.237-1.338-4.49-2.584-10.448-3.15-15.064-.789-6.433-.498-6.581 1.229-.623 4.519 15.584 10.131 29.284 14.893 36.358 1.167 1.734 5.875 7.164 9.47 10.922 1.742 1.821 2.349 2.615 1.997 2.609-.278-.004-1.643-.488-3.032-1.074zm80.685.661c0-.083 1.311-1.517 2.912-3.188 4.069-4.243 8.455-9.457 9.786-11.631 4.319-7.058 9.355-19.575 13.473-33.486.813-2.747 1.536-5.052 1.606-5.122.36-.36.358.45-.01 3.639-.697 6.045-1.923 11.81-3.806 17.889-1.064 3.436-1.048 3.345-.595 3.353.186.003 5.555-1.78 11.93-3.962s11.666-3.893 11.757-3.802c.349.349-3.78 5.524-8.383 10.507-9.156 9.912-22.59 19.347-35.2 24.72-2.797 1.192-3.471 1.402-3.471 1.083zm-41.992-16.698c-3.286-2.546-10.952-10.019-10.786-10.516.062-.184 3.903-2.063 8.536-4.174 11.103-5.059 13.139-6.3 20.778-12.661 2.103-1.751 3.926-3.185 4.052-3.186s-.21.795-.745 1.768-.973 1.901-.973 2.062c0 .805 5.869-4.275 10.4-9.002 1.73-1.805 3.146-3.143 3.146-2.974 0 .563-2.975 6.871-4.927 10.446-6.134 11.237-13.316 20.17-21.759 27.065-3.019 2.465-4.306 3.404-4.647 3.387-.126-.006-1.509-1.003-3.074-2.215zm-30.386-9.628c-10.796-11.076-19.57-26.655-23.749-42.166-.346-1.284-.656-1.924-.962-1.984-.959-.188-8.245 4.468-12.29 7.854-1.227 1.027-3.604 3.269-5.283 4.981-1.771 1.807-3.962 3.72-5.22 4.557-3.817 2.542-11.522 6.11-12.437 5.759-1.011-.388-5.983-11.459-8.249-18.366-3.68-11.22-5.269-21.243-5.273-33.264-.002-7.156.276-10.784 1.327-17.324 1.021-6.352 3.632-16.489 4.278-16.614.13-.025 3.16 6.334 6.735 14.131 5.387 11.751 6.436 14.234 6.131 14.51-.203.184-2.487 1.298-5.077 2.476-2.776 1.263-4.864 2.379-5.089 2.718-.335.506-.311.752.191 2.031.617 1.571 1.48 2.674 2.092 2.674.592 0 36.441-16.47 36.685-16.855.357-.562.255-1.421-.325-2.73-.664-1.501-1.203-2.077-1.942-2.077-.306 0-2.727.991-5.38 2.203s-4.992 2.138-5.198 2.059-4.681-9.541-9.944-21.026l-9.569-20.883 1.286-2.094c4.488-7.308 11.577-15.826 18.203-21.874 11.441-10.441 24.449-18.093 38.913-22.887 6.57-2.178 14.37-3.864 21.998-4.755 5.645-.659 17.402-.655 23.028.008 8.112.957 14.755 2.418 22.215 4.887 22.406 7.414 41.84 22.259 55.086 42.078 1.515 2.267 2.755 4.346 2.755 4.619 0 .792-18.901 41.854-19.305 41.94-.2.042-2.518-.91-5.15-2.117-3.187-1.461-5.038-2.166-5.54-2.108-.631.072-.906.39-1.687 1.944-.863 1.718-.904 1.909-.542 2.541.309.54 4.164 2.411 18.353 8.906l18.493 8.223c.707 0 1.295-.731 2.075-2.581.579-1.372.606-1.594.255-2.128-.24-.366-2.29-1.469-5.305-2.855-2.702-1.242-4.98-2.366-5.061-2.497-.214-.346 12.703-28.408 13.028-28.303.356.114 2.347 7.052 3.25 11.323 1.779 8.416 2.443 15.831 2.227 24.865-.255 10.7-1.637 19.301-4.701 29.255-2.334 7.581-7.744 19.544-8.916 19.711-.736.105-5.876-2.061-8.631-3.638-3.787-2.167-5.627-3.601-8.521-6.638-1.544-1.621-4.044-3.941-5.554-5.156-4.654-3.744-11.106-7.756-11.95-7.433-.188.072-.61 1.122-.937 2.333-3.388 12.549-9.653 24.848-17.98 35.295-2.668 3.347-6.904 8.039-7.258 8.039-.142 0 1.01-1.858 2.56-4.129 6.319-9.256 10.379-16.911 14.397-27.146 1.763-4.491 4.51-12.693 5.556-16.593l.602-2.241-.718-1.035c-.983-1.418-5.416-5.719-5.895-5.719-.213 0-1.558 1.554-2.989 3.452-6.893 9.15-15.583 18.283-19.489 20.482l-.91.512.964-1.054 3.017-3.277c7.164-7.759 13.029-16.814 16.022-24.738 3.658-9.684 5.781-18.083 6.696-26.48.431-3.953.183-18.819-.411-24.679-2.345-23.143-7.753-36.138-19.34-46.473-9.319-8.312-16.78-11.053-30.11-11.064-4.426-.003-6.54.116-8.805.496-10.864 1.824-21.915 7.46-28.866 14.721-3.547 3.706-5.863 7.059-8.376 12.127-3.974 8.015-6.164 16.205-7.513 28.095-.365 3.221-.466 6.389-.459 14.418.008 8.917.09 10.955.612 15.279 1.474 12.209 4.258 23.09 7.456 29.129 3.779 7.138 8.248 13.347 14.449 20.073 1.698 1.842 2.989 3.348 2.869 3.347-.64-.008-4.509-3.313-8.223-7.026-4.503-4.501-7.097-7.5-11.432-13.213-1.497-1.973-2.851-3.588-3.008-3.588-.471 0-5.312 5.135-5.484 5.817-.184.734.942 4.88 3.055 11.242 4.584 13.801 10.142 24.962 18.045 36.232 1.181 1.684 2.096 3.112 2.034 3.174s-.911-.706-1.887-1.707zm-38.252-39.953c3.142-2.441 5.195-3.717 8.604-5.349 2.87-1.373 3.344-1.696 3.818-2.601.298-.568 1.504-2.039 2.681-3.269l2.139-2.236-2.174-4.804-5.757-12.725c-2.476-5.474-3.714-7.92-4.006-7.92-.233 0-4.456 1.845-9.386 4.1-10.597 4.847-11.807 5.43-11.807 5.681 0 .172 13.167 29.886 13.455 30.363.229.38.576.204 2.433-1.239zm1.336-12.435c-.77-2.685-1.835-4.137-3.75-5.113-.576-.294-1.006-.619-.954-.723l.458-.913c.322-.641.295-.867-.239-1.969-.332-.685-.531-1.433-.442-1.662.206-.536.706-.236.706.424 0 .278.326.892.725 1.366.605.719.672.945.406 1.371-.52.832-.386 1.136 1.04 2.363.747.643 1.603 1.648 1.902 2.234s.647 1.065.773 1.065c.442 0 1.656-2.163 1.656-2.951 0-.438.074-.989.164-1.224.321-.835.648-.411.648.84 0 1.055-.216 1.601-1.287 3.246-1.285 1.975-1.624 2.284-1.807 1.646zm-10.116-7.267c-1.082-.755-1.906-1.471-1.832-1.591s.542-.295 1.039-.388c1.501-.281 3.319-1.622 4.139-3.053l.811-1.395c.034-.048.436.106.894.342.778.402.898.395 1.85-.115.56-.3 1.172-.545 1.361-.545.657 0 .336.519-.593.96-.515.244-1.068.603-1.23.798-.231.278-.47.287-1.118.043-.765-.289-.866-.252-1.411.501-.86 1.191-1.805 2.016-3.021 2.637l-1.077.55 1.06.916c.626.541 1.484.984 2.093 1.081 1.328.212 1.339.638.017.634-.779-.002-1.475-.323-2.983-1.375zm8.605.193c0-.205.369-.446.821-.536s1.12-.487 1.486-.881c.62-.668.723-.693 1.518-.363.766.317.892.3 1.229-.168.817-1.136 1.837-2.06 2.837-2.57.577-.294 1.049-.644 1.049-.777s-.512-.618-1.137-1.078c-.81-.596-1.44-.836-2.19-.836-1.314 0-1.255-.635.071-.765.722-.07 1.322.198 3.021 1.354 1.166.793 2.086 1.552 2.044 1.687s-.579.393-1.193.575c-2.098.619-2.847 1.253-4.593 3.888-.038.057-.419-.041-.848-.218-.679-.281-.946-.234-2.081.37-1.463.777-2.034.867-2.034.32zm-.929-2.219c-1.272-1.271.396-3.413 1.893-2.432.861.564 1.066 1.394.542 2.194-.51.777-1.772.901-2.435.238zm3.815-2.079c-.205-.484-.629-1.108-.942-1.387-.516-.46-.534-.574-.193-1.235.432-.835.362-.978-.955-1.958-.531-.395-1.262-1.278-1.625-1.962s-.808-1.244-.988-1.244c-.514 0-1.705 2.254-1.705 3.228 0 1.112-.644.997-.754-.135-.054-.561.301-1.4 1.219-2.881.713-1.149 1.432-2.094 1.599-2.099s.459.545.648 1.222c.469 1.673 1.662 3.243 2.973 3.911.598.305 1.087.625 1.087.71s-.195.486-.434.89c-.413.699-.4.784.271 1.772.714 1.051.926 2.045.437 2.045-.147 0-.435-.396-.64-.88zm149.671 10.013c3.697-8.306 6.662-15.251 6.59-15.434-.183-.464-20.574-9.741-21.162-9.627-.342.066-2.087 3.647-6.108 12.54l-5.626 12.86c.002.227.667.993 1.477 1.704s1.998 2.095 2.638 3.077c1.123 1.722 1.264 1.833 3.938 3.089 2.991 1.406 6.206 3.416 9.011 5.633.969.766 1.932 1.362 2.141 1.326.218-.038 3.249-6.513 7.101-15.168zm-12.29-.286c-1.076-1.654-1.287-2.187-1.287-3.262 0-.787.105-1.22.271-1.117.149.092.271.532.271.977 0 1.182 1.279 3.491 1.933 3.491.123 0 .465-.474.761-1.054s1.17-1.607 1.943-2.282c1.381-1.208 1.399-1.243 1.056-2.071-.312-.754-.29-.905.21-1.441a3.64 3.64 0 0 0 .745-1.346c.102-.411.294-.814.426-.896.464-.287.234 1.381-.315 2.28-.509.835-.52.959-.134 1.547.601.917.519 1.387-.274 1.586-1.201.301-3 2.364-3.531 4.051-.264.836-.549 1.518-.633 1.516s-.733-.893-1.441-1.981zm7.924-4.515c0-.149.347-.271.772-.271.707 0 2.728-1.202 3.139-1.867.095-.153-.297-.518-.871-.81-1.14-.581-2.331-1.645-3.175-2.838-.495-.699-.604-.737-1.265-.434-.618.283-.835.253-1.49-.201-.422-.292-.98-.608-1.241-.702-.453-.163-.677-.73-.289-.73.102 0 .726.262 1.386.581 1.144.554 1.238.56 1.972.126l.771-.455.543 1.063c.703 1.377 2.418 2.833 3.877 3.29.635.199 1.259.451 1.386.56s-.604.815-1.626 1.568c-1.439 1.062-2.086 1.372-2.873 1.38-.559.005-1.016-.112-1.016-.261zm-6.727-1.272c-1.191-.613-1.516-.681-1.953-.409-.804.502-.968.419-1.732-.884-.745-1.271-2.349-2.407-4.07-2.881-.528-.146-.957-.351-.952-.456s.879-.791 1.943-1.524c1.394-.961 2.205-1.34 2.904-1.354 1.367-.028 1.47.494.13.657-1.161.142-3.084 1.264-3.087 1.802-.001.172.535.627 1.192 1.012s1.621 1.213 2.142 1.841c.899 1.082.987 1.124 1.691.803.669-.305.814-.269 1.476.364.403.386 1.054.788 1.445.892.693.185.997.64.531.795-.127.042-.874-.254-1.66-.659zm.586-2.144c-.416-.634-.423-.783-.065-1.422.705-1.261 2.955-.89 2.955.487 0 1.566-2.043 2.227-2.89.935zm-2.257-1.42c0-.277.305-.953.678-1.502.636-.936.652-1.047.271-1.784-.224-.432-.407-.851-.407-.93s.489-.393 1.087-.698c1.311-.668 2.504-2.239 2.973-3.911.19-.677.433-1.231.541-1.231s.762.851 1.455 1.892c.974 1.464 1.259 2.138 1.259 2.979 0 .598-.122 1.086-.271 1.086s-.271-.385-.271-.856c0-1.012-1.209-3.205-1.767-3.205-.214 0-.632.474-.927 1.054s-1.11 1.543-1.81 2.141c-1.248 1.066-1.265 1.103-.919 1.937.325.785.299.908-.332 1.583-.377.402-.768 1.006-.869 1.341-.223.736-.689.808-.689.105zm-84.739 59.152c-1.461-1.664-4.747-6.423-6.923-10.027-2.011-3.332-6.939-13.026-7.371-14.502-.13-.442 1.246.777 3.972 3.52 4.566 4.595 9.232 8.649 9.394 8.161.057-.17-.345-1.111-.892-2.09s-.941-1.834-.874-1.901 1.413.967 2.992 2.297c4.24 3.572 7.032 5.7 10.164 7.747 1.539 1.006 2.697 1.927 2.574 2.048-.195.192-11.926 5.67-12.142 5.67-.045 0-.447-.416-.893-.923zm13.627-10.064a50.43 50.43 0 0 1-8.266-5.392c-2.405-1.939-5.565-4.956-5.382-5.138.082-.082 1.906.696 4.053 1.729 4.116 1.981 9.798 4.021 11.89 4.269 2.272.269 8.958-1.936 14.866-4.903 1.394-.7 2.587-1.22 2.65-1.157.242.242-5.341 5.276-7.782 7.015-2.941 2.096-8.005 4.817-8.964 4.817-.36 0-1.739-.558-3.065-1.24zm-22.701-22.115c-12.045-11.981-19.029-27.849-21.184-48.131-.991-9.324-.804-25.093.399-33.637 3.024-21.484 12.368-35.334 28.165-41.75.951-.386 1.844-.702 1.983-.702s-.733 1.042-1.939 2.316c-4.465 4.715-7.327 8.879-10.225 14.879-4.545 9.41-6.805 19.734-7.39 33.764-.135 3.228-.324 5.996-.42 6.152-.113.183-.527.094-1.174-.253-1.61-.862-3.893-.608-5.472.611-1.142.881-2.349 2.829-2.992 4.83-.553 1.72-.598 2.237-.438 5.077.671 11.937 4.308 19.612 11.791 24.881 1.417.998 1.488 1.11 2.511 3.998a73.21 73.21 0 0 0 2.513 6.005c.803 1.668 1.401 3.092 1.329 3.164s-1.31-.395-2.751-1.038c-1.475-.657-2.727-1.067-2.864-.937-.365.346.491 1.514 2.671 3.644 2.645 2.585 5.451 4.468 10.576 7.1 2.384 1.224 4.245 2.229 4.135 2.234s-1.39-.373-2.845-.838c-3.151-1.009-7.434-2.805-10.716-4.493-1.31-.674-2.457-1.151-2.549-1.059-.256.256.406 2.238 1.55 4.638 1.179 2.474 3.706 6.337 6.167 9.427.927 1.164 1.685 2.169 1.685 2.234 0 .317-.441-.055-2.514-2.116zm48.929.798c3.9-4.809 6.599-8.947 8.035-12.322.833-1.955 1.002-2.76.581-2.76-.13 0-1.562.663-3.183 1.473-3.536 1.767-8.494 3.787-11.007 4.484-1.006.279-1.829.461-1.829.404s1.737-.947 3.861-1.979c5.929-2.881 10.429-6.119 12.973-9.336 1.655-2.093 1.31-2.11-3.214-.158-.779.336-1.48.547-1.558.469s.468-1.339 1.213-2.802a73.75 73.75 0 0 0 2.473-5.528l1.118-2.868 2.281-1.339c7.321-4.297 11.315-11.456 12.546-22.49.597-5.344.147-8.35-1.654-11.069-1.202-1.814-2.611-2.682-4.585-2.825-1.362-.098-1.77-.01-2.841.618-.688.403-1.308.675-1.378.605s-.184-2.731-.254-5.913c-.273-12.453-1.375-19.938-4.184-28.402-2.779-8.374-6.56-14.83-12.328-21.048-1.14-1.229-1.946-2.234-1.793-2.234s1.277.438 2.497.974c13.46 5.915 22.447 18.541 26.097 36.664 1.441 7.154 1.637 9.64 1.643 20.85.006 10.684-.118 12.618-1.242 19.361-2.327 13.97-8.188 27.906-16.271 38.691-2.521 3.363-6.538 7.876-7.976 8.961l-1.055.796zm-48.121-20.131c-1.629-3.26-2.894-7.834-2.904-10.503-.006-1.464-.154-1.642-1.912-2.3-8.61-3.22-13.673-11.894-14.236-24.39-.152-3.368-.116-3.783.449-5.28.354-.937 1.042-2.054 1.624-2.64 1.527-1.535 2.298-1.428 6.167.854 4.134 2.438 6.664 3.667 7.159 3.477.298-.114.438-.825.552-2.817.291-5.051 1.973-10.955 4.782-16.776 1.823-3.779 2.375-4.408 2.088-2.38-1.309 9.251-2.217 22.793-1.629 24.322.319.832 8.106 2.872 14.194 3.718 3.344.465 14.977.471 18.422.01 9.772-1.309 19.007-4.592 27.742-9.864 2.416-1.458 2.792-1.604 3.793-1.47 2.301.309 3.955 3.364 3.955 7.308 0 4.517-1.115 10.435-2.673 14.189-3.078 7.416-9.408 12.215-17.267 13.091-4.043.451-11.327-.275-19.615-1.954-3.937-.798-6.571-.736-11.785.274-6.031 1.169-10.216 1.683-14.539 1.786-2.036.048-3.844.176-4.018.283-.354.218-.246 2.338.444 8.753.23 2.133.353 3.943.274 4.022s-.56-.692-1.07-1.713zm20.926-19.802c-1.375-4.2-3.206-7.094-6.324-9.995-4.312-4.012-10.254-6.524-18.45-7.8-3.157-.492-12.871-.882-12.864-.517s.246.638 2.209 2.478c1.392 1.306 1.991 1.692 2.624 1.692.773 0 .829.073.99 1.286.504 3.811 1.453 6.355 3.163 8.483 1.163 1.447 3.599 3.046 5.703 3.745 2.039.677 5.901 1.212 6.249.865.144-.144-.126-.317-.664-.424-2.09-.416-4.858-1.336-5.174-1.719-.296-.359-.224-.39.555-.235.492.097 2.199.255 3.793.35 4.531.271 8.317-.535 10.019-2.133.44-.413.733-.509.988-.325a171.05 171.05 0 0 0 1.921 1.328c.857.587 2.487 2.159 3.621 3.493 2.348 2.763 2.694 2.643 1.641-.573zm12.394-.282c.827-.941 2.007-2.031 2.622-2.422s1.389-.949 1.719-1.24c.599-.526.604-.525 1.574.215 1.924 1.467 3.648 1.875 7.985 1.892 2.161.008 4.446-.077 5.08-.191.657-.118 1.151-.101 1.151.039 0 .343-1.661.96-4.135 1.538-2.803.654-2.356 1.089.702.683 4.161-.553 6.767-1.755 9.059-4.177 2.074-2.192 3.127-4.683 3.532-8.353.184-1.667.208-1.71 1.034-1.79.608-.059 1.427-.617 2.914-1.987 1.137-1.048 1.999-2.016 1.915-2.152-.207-.335-6.185-.313-9.642.036-15.52 1.564-25.023 7.908-28.129 18.778-.623 2.179-.462 2.746.462 1.63.359-.434 1.33-1.559 2.157-2.499zm-96.503-8.022c-.37-.837-.673-1.592-.673-1.679s1.846-2.651 4.101-5.699c4.51-6.093 4.32-5.967 5.349-3.552l.542 1.272-.613.903c-1.404 2.067-7.535 10.099-7.774 10.184-.143.05-.562-.593-.932-1.429zm171.116-4.085l-4.138-5.527.686-1.497c.377-.824.813-1.497.969-1.497.44 0 8.146 10.405 8.139 10.99-.007.612-.913 2.686-1.269 2.906-.136.084-2.11-2.334-4.386-5.374zm-162.51.484c-2.012-.114-2.077-.302-.721-2.078.844-1.105 1.086-1.262 1.829-1.19.733.071.963.293 1.595 1.541.406.802.673 1.563.594 1.692s-.473.211-.874.183l-2.422-.148zm155.817-.115c-.077-.125.202-.867.621-1.648.629-1.174.903-1.434 1.575-1.5.702-.069.956.111 1.855 1.314.573.767.938 1.49.812 1.607-.323.299-4.692.504-4.863.228zm-166.211-.769c-.553-.323-1.714-2.978-1.412-3.232.278-.234 4.577.045 4.846.315.299.3-2.001 3.19-2.531 3.181-.256-.005-.662-.123-.903-.264zm177.337-1.365c-.552-.752-.925-1.445-.829-1.542s1.277-.228 2.624-.292l2.449-.117-.391.914c-1.003 2.348-1.049 2.403-1.968 2.403-.746 0-1.036-.21-1.885-1.367zm-175.613-3.642c-.398-.286-.61-.718-.61-1.247 0-2.304 4.508-3.566 5.048-1.413.45 1.791-2.875 3.784-4.439 2.661zm174.296.117c-1.06-.308-2.331-1.571-2.331-2.316 0-1.075.748-1.533 2.268-1.387 1.09.105 1.507.298 2.118.982.419.468.761 1.07.761 1.337 0 1.155-1.339 1.814-2.816 1.384zm-179.428-2c-.616-1.256-.677-1.578-.409-2.166.294-.644.442-.691 2.201-.691 1.037 0 1.959.118 2.048.262.17.276-2.536 4.071-2.903 4.071-.117 0-.539-.664-.937-1.476zm184.172-.454c-1.66-2.217-1.598-2.393.843-2.399 1.339-.004 1.61.084 1.976.643.397.605.376.746-.321 2.166-.41.835-.815 1.519-.899 1.519s-.804-.868-1.598-1.929zM35.326 98.974l-5.825-.438-.807-1.541c-.444-.847-.713-1.634-.599-1.748.216-.216 13.338.608 13.752.863.302.186 1.335 2.51 1.335 3.001 0 .446-.111.444-7.857-.138zm170.895.366c-.191-.191.766-2.533 1.235-3.019.308-.319 13.592-1.386 13.865-1.113.073.073-.181.817-.565 1.653-.82 1.791-.392 1.665-7.032 2.074l-5.97.429c-.751.079-1.441.069-1.533-.024zM36.749 94.418c-.335-.065-.61-.244-.61-.399 0-.441 2.508-3.743 2.843-3.743.357 0 1.492 2.24 1.492 2.944 0 1.142-1.503 1.625-3.725 1.198zm172.709-.276c-.26-.288-.473-.711-.473-.941 0-.621 1.07-2.924 1.358-2.924.279 0 2.976 3.472 2.976 3.831 0 .127-.227.23-.504.23s-1.039.073-1.694.163c-.965.132-1.279.064-1.663-.36zM31.052 93.105c-1.572-1.101.278-3.64 2.653-3.64 1.326 0 1.892.434 1.892 1.452 0 1.906-2.932 3.318-4.545 2.189zm184.57.042c-1.696-.748-2.415-2.534-1.337-3.322 1.143-.835 3.609.015 4.349 1.499.827 1.657-.95 2.733-3.013 1.823zm-189.908-2.59c-.375-.74-.682-1.535-.682-1.767 0-.388 7.978-11.24 8.264-11.24.214 0 1.489 2.665 1.489 3.112 0 .388-7.978 11.24-8.264 11.24-.069 0-.433-.605-.808-1.345zm192.922-4.203c-2.179-2.902-3.962-5.465-3.962-5.695 0-.418 1.271-3.108 1.468-3.108.057 0 1.958 2.503 4.223 5.562l4.119 5.562-.638 1.473c-.351.81-.775 1.475-.943 1.478s-2.088-2.37-4.267-5.272zm-184.032.427c-1.068-.088-2.011-.229-2.096-.313s.302-.782.859-1.549c.854-1.177 1.149-1.396 1.888-1.403.784-.007.949.137 1.576 1.373.698 1.376.722 2.178.062 2.095-.191-.024-1.221-.115-2.29-.203zm177.361-.304c0-.154.307-.885.682-1.625.584-1.153.796-1.345 1.478-1.345.628 0 .998.265 1.756 1.257 1.13 1.479 1.154 1.606.351 1.821-1.032.276-4.267.194-4.267-.109zM26.152 84.095c.166-.496.475-.968.686-1.049.731-.28.667.143-.159 1.045l-.829.906zm196.598.023c-.718-.836-.819-1.152-.365-1.152.236 0 .551.322.701.715.337.886.201 1.063-.336.438zM27.741 80.662c0-.595 1.311-3.112 1.621-3.112.605 0 .84 1.068.415 1.888-.511.987-2.036 1.904-2.036 1.223zm192.554-.4c-.811-.638-1.169-1.794-.723-2.332.174-.209.397-.38.497-.38.164 0 1.649 2.81 1.649 3.12s-.797.084-1.423-.408zM30.631 75.474c-.299-.298-.196-.731.336-1.423l.505-.656.438.846c.241.465.438.974.438 1.13 0 .31-1.423.396-1.716.104zm186.631-.067c-.208-.336.309-1.648.65-1.648.288 0 1.243 1.309 1.066 1.46-.308.262-1.583.402-1.715.189z" fill="#212323"/></svg>