<?xml version="1.0" encoding="UTF-8" standalone="no"?>
<svg
   xmlns:dc="http://purl.org/dc/elements/1.1/"
   xmlns:cc="http://creativecommons.org/ns#"
   xmlns:rdf="http://www.w3.org/1999/02/22-rdf-syntax-ns#"
   xmlns:svg="http://www.w3.org/2000/svg"
   xmlns="http://www.w3.org/2000/svg"
   xmlns:sodipodi="http://sodipodi.sourceforge.net/DTD/sodipodi-0.dtd"
   xmlns:inkscape="http://www.inkscape.org/namespaces/inkscape"
   width="236"
   height="236"
   version="1.1"
   id="svg23"
   sodipodi:docname="NKN_ERC20.svg"
   inkscape:version="1.0.2-2 (e86c870879, 2021-01-15)">
  <metadata
     id="metadata27">
    <rdf:RDF>
      <cc:Work
         rdf:about="">
        <dc:format>image/svg+xml</dc:format>
        <dc:type
           rdf:resource="http://purl.org/dc/dcmitype/StillImage" />
      </cc:Work>
    </rdf:RDF>
  </metadata>
  <sodipodi:namedview
     pagecolor="#ffffff"
     bordercolor="#666666"
     borderopacity="1"
     objecttolerance="10"
     gridtolerance="10"
     guidetolerance="10"
     inkscape:pageopacity="0"
     inkscape:pageshadow="2"
     inkscape:window-width="1920"
     inkscape:window-height="1017"
     id="namedview25"
     showgrid="false"
     inkscape:zoom="3.3203125"
     inkscape:cx="118"
     inkscape:cy="118"
     inkscape:window-x="-8"
     inkscape:window-y="-8"
     inkscape:window-maximized="1"
     inkscape:current-layer="svg23" />
  <defs
     id="defs15">
    <linearGradient
       id="A"
       x1="128"
       y1="10"
       x2="128"
       y2="246"
       gradientUnits="userSpaceOnUse"
       gradientTransform="translate(-10,-10)">
      <stop
         offset=".01"
         stop-color="#6172b0"
         id="stop2" />
      <stop
         offset=".08"
         stop-color="#495b9e"
         id="stop4" />
      <stop
         offset=".09"
         stop-color="#485a9d"
         id="stop6" />
      <stop
         offset=".37"
         stop-color="#2f4387"
         id="stop8" />
      <stop
         offset=".55"
         stop-color="#253a7e"
         id="stop10" />
      <stop
         offset="1"
         stop-color="#20326e"
         id="stop12" />
    </linearGradient>
  </defs>
  <circle
     cx="118"
     cy="118"
     r="118"
     fill="url(#A)"
     id="circle19"
     style="fill:url(#A)" />
  <path
     d="m 120.358,149.672 c 0,0 24.431,6.013 43.797,-9.181 19.366,-15.194 18.732,-38.144 18.732,-38.144 0,0 -21.897,-6.816 -41.787,7.685 -19.89,14.501 -20.742,39.64 -20.742,39.64 z m -0.079,11.472 c 0,0 3.979,17.2 19.637,24.496 15.658,7.296 29.815,-0.351 29.815,-0.351 0,0 -2.675,-15.869 -18.06,-23.727 -15.385,-7.858 -31.393,-0.418 -31.393,-0.418 z m 36.813,-7.445 c 0,0 8.446,9.392 20.776,8.54 12.33,-0.852 18.545,-10.543 18.545,-10.543 0,0 -7.169,-9.015 -19.529,-8.61 -12.36,0.405 -19.791,10.612 -19.791,10.612 z M 144.739,94.414 c 0,0 -13.021,-21.525 -37.464,-24.46 -24.443,-2.935 -40.214,13.708 -40.214,13.708 0,0 10.665,20.303 34.981,24.116 24.316,3.813 42.697,-13.365 42.697,-13.365 z m 8.165,-8.05 c 0,0 9.347,-14.976 3.437,-31.22 C 150.431,38.9 135.01,34.311 135.01,34.311 c 0,0 -9.33,13.124 -3.996,29.57 5.334,16.446 21.89,22.483 21.89,22.483 z M 121.61,65.598 c 0,0 0.665,-12.615 -8.646,-20.73 -9.311,-8.115 -20.569,-5.658 -20.569,-5.658 0,0 -1.302,11.441 7.719,19.887 9.021,8.446 21.496,6.501 21.496,6.501 z m -21.931,58.401 c 0,0 -21.525,13.024 -24.46,37.464 -2.935,24.44 13.708,40.219 13.708,40.219 0,0 20.303,-10.665 24.116,-34.983 C 116.856,142.381 99.678,124 99.678,124 Z m -8.05,-8.165 c 0,0 -14.978,-9.347 -31.208,-3.441 -16.23,5.906 -20.833,21.331 -20.833,21.331 0,0 13.112,9.33 29.539,4.011 16.427,-5.319 22.502,-21.9 22.502,-21.9 z m -20.767,31.297 c 0,0 -12.615,-0.668 -20.73,8.646 -8.115,9.314 -5.658,20.567 -5.658,20.567 0,0 11.441,1.302 19.887,-7.719 8.446,-9.021 6.501,-21.494 6.501,-21.494 z"
     fill="#ffffff"
     id="path21" />
</svg>
