<svg xmlns="http://www.w3.org/2000/svg" width="256" height="256" xmlns:v="https://vecta.io/nano"><defs><linearGradient id="A" x1="128" y1="10" x2="128" y2="246" gradientUnits="userSpaceOnUse"><stop offset=".01" stop-color="#6172b0"/><stop offset=".08" stop-color="#495b9e"/><stop offset=".09" stop-color="#485a9d"/><stop offset=".37" stop-color="#2f4387"/><stop offset=".55" stop-color="#253a7e"/><stop offset="1" stop-color="#20326e"/></linearGradient></defs><path d="M6.557 128c0 66.964 54.479 121.443 121.443 121.443S249.443 194.964 249.443 128 194.964 6.557 128 6.557 6.557 61.036 6.557 128z" fill="#fff" fill-rule="evenodd" stroke="#b0b0b0" stroke-width="13.114" paint-order="normal"/><circle cx="128" cy="128" r="118" fill="url(#A)"/><path d="M130.358 159.672s24.431 6.013 43.797-9.181 18.732-38.144 18.732-38.144-21.897-6.816-41.787 7.685-20.742 39.64-20.742 39.64zm-.079 11.472s3.979 17.2 19.637 24.496 29.815-.351 29.815-.351-2.675-15.869-18.06-23.727-31.393-.418-31.393-.418zm36.813-7.445s8.446 9.392 20.776 8.54 18.545-10.543 18.545-10.543-7.169-9.015-19.529-8.61-19.791 10.612-19.791 10.612zm-12.353-59.285s-13.021-21.525-37.464-24.46-40.214 13.708-40.214 13.708 10.665 20.303 34.981 24.116 42.697-13.365 42.697-13.365zm8.165-8.05s9.347-14.976 3.437-31.22-21.331-20.833-21.331-20.833-9.33 13.124-3.996 29.57 21.89 22.483 21.89 22.483zM131.61 75.598s.665-12.615-8.646-20.73-20.569-5.658-20.569-5.658-1.302 11.441 7.719 19.887 21.496 6.501 21.496 6.501zm-21.931 58.401s-21.525 13.024-24.46 37.464 13.708 40.219 13.708 40.219 20.303-10.665 24.116-34.983S109.678 134 109.678 134zm-8.05-8.165s-14.978-9.347-31.208-3.441-20.833 21.331-20.833 21.331 13.112 9.33 29.539 4.011 22.502-21.9 22.502-21.9zm-20.767 31.297s-12.615-.668-20.73 8.646-5.658 20.567-5.658 20.567 11.441 1.302 19.887-7.719 6.501-21.494 6.501-21.494z" fill="#fff"/></svg>