<?xml version="1.0" encoding="UTF-8" standalone="no"?>
<svg
   xmlns:dc="http://purl.org/dc/elements/1.1/"
   xmlns:cc="http://creativecommons.org/ns#"
   xmlns:rdf="http://www.w3.org/1999/02/22-rdf-syntax-ns#"
   xmlns:svg="http://www.w3.org/2000/svg"
   xmlns="http://www.w3.org/2000/svg"
   xmlns:sodipodi="http://sodipodi.sourceforge.net/DTD/sodipodi-0.dtd"
   xmlns:inkscape="http://www.inkscape.org/namespaces/inkscape"
   width="236"
   height="236"
   version="1.1"
   id="svg10"
   sodipodi:docname="NMR_ERC20.svg"
   inkscape:version="1.0.2-2 (e86c870879, 2021-01-15)">
  <metadata
     id="metadata16">
    <rdf:RDF>
      <cc:Work
         rdf:about="">
        <dc:format>image/svg+xml</dc:format>
        <dc:type
           rdf:resource="http://purl.org/dc/dcmitype/StillImage" />
      </cc:Work>
    </rdf:RDF>
  </metadata>
  <defs
     id="defs14" />
  <sodipodi:namedview
     pagecolor="#ffffff"
     bordercolor="#666666"
     borderopacity="1"
     objecttolerance="10"
     gridtolerance="10"
     guidetolerance="10"
     inkscape:pageopacity="0"
     inkscape:pageshadow="2"
     inkscape:window-width="1920"
     inkscape:window-height="1017"
     id="namedview12"
     showgrid="false"
     inkscape:zoom="3.3203125"
     inkscape:cx="118"
     inkscape:cy="118"
     inkscape:window-x="-8"
     inkscape:window-y="-8"
     inkscape:window-maximized="1"
     inkscape:current-layer="svg10" />
  <g
     transform="scale(7.375)"
     id="g8">
    <circle
       fill="#050708"
       cx="16"
       cy="16"
       r="16"
       id="circle4" />
    <path
       d="m 15.855,5.014 a 0.77,0.77 0 0 1 0.627,0.154 l 8.702,6.465 c 0.2,0.15 0.325,0.4 0.315,0.654 v 7.424 a 0.802,0.802 0 0 1 -0.346,0.682 l -8.671,6.442 A 0.782,0.782 0 0 1 15.49,26.81 L 6.851,20.392 a 0.826,0.826 0 0 1 -0.35,-0.68 v -7.42 a 0.826,0.826 0 0 1 0.347,-0.68 l 8.641,-6.42 a 0.901,0.901 0 0 1 0.366,-0.178 z m -0.104,20.014 a 10.16,10.16 0 0 0 -0.008,0.349 l 0.002,0.697 h 0.45 V 25.05 a 5.023,5.023 0 0 0 -0.444,-0.022 z m -1.71,-0.918 -0.252,0.001 0.535,0.947 0.452,-0.01 c -0.12,-0.332 -0.327,-0.621 -0.482,-0.936 a 17.125,17.125 0 0 0 -0.505,0 z m 2.727,0.48 a 9.27,9.27 0 0 0 0.003,0.458 h 0.42 c 0.019,-0.149 0.02,-0.298 0.017,-0.448 a 5.86,5.86 0 0 0 -0.44,-0.01 z m -0.475,-2.457 c -0.63,0.004 -1.261,-0.004 -1.892,0.005 a 15.41,15.41 0 0 0 0,0.43 l 1.676,0.006 v 1.029 c -0.116,10e-4 -0.23,-0.003 -0.344,0.009 -0.033,0.136 -0.016,0.277 -0.018,0.416 l 0.606,0.001 0.187,-0.204 0.001,-1.47 a 51.921,51.921 0 0 0 -0.216,-0.222 z m 3.344,0.576 c -0.143,-0.07 -0.295,-0.308 -0.462,-0.165 l -1.5,0.98 0.013,0.425 1.378,-0.001 0.001,-0.45 a 14.925,14.925 0 0 0 -0.338,-0.004 l -0.212,0.002 1.12,-0.734 z M 13.095,22.957 12.2,22.96 a 11.35,11.35 0 0 0 0,0.452 L 13.99,23.41 V 22.961 L 12.2,22.96 Z M 11.592,22.3 11.371,22.301 v 0.452 h 0.443 v -0.45 a 12.723,12.723 0 0 0 -0.443,-0.002 z m 8.593,-1.614 -0.003,0.738 0.718,1.111 0.605,-0.935 c 0.038,-0.068 0.099,-0.134 0.094,-0.218 a 13.81,13.81 0 0 0 -0.004,-0.675 l -0.57,0.9 c -0.042,0.058 -0.073,0.132 -0.14,0.162 z M 18.75,20.133 c -0.281,0.001 -0.562,-0.002 -0.844,0.003 a 83.136,83.136 0 0 1 -0.514,1.837 l 0.434,0.003 0.388,-1.421 0.236,0.012 0.383,1.405 0.434,0.003 z m -8.752,1.03 -0.393,0.008 v 0.444 l 1.174,-0.003 c 0.019,-0.147 0.01,-0.296 0.007,-0.445 -0.394,-0.002 -0.788,-0.009 -1.181,0.004 z m 3.15,-1.048 -1.612,1.039 a 10.37,10.37 0 0 0 0.002,0.432 l 2.529,0.002 10e-4,-0.456 c -0.57,-0.008 -1.138,0.004 -1.707,-0.007 l 1.162,-0.743 z m 1.9,-0.334 -0.224,0.001 -0.003,1.687 0.135,0.025 0.318,-0.02 -0.003,-1.692 a 20.223,20.223 0 0 0 -0.447,0 z m 1.378,0.416 c -0.155,0.021 -0.312,0.03 -0.469,0.03 l 0.525,0.937 0.44,-0.003 c -0.095,-0.35 -0.312,-0.656 -0.496,-0.964 z m 5.959,0.213 -0.23,0.004 v 0.444 l 0.46,0.003 v -0.449 a 8.59,8.59 0 0 0 -0.46,0.002 z m -10.788,-1.792 -0.714,1.099 -0.699,-1.09 a 20.66,20.66 0 0 0 -0.003,0.747 l 0.7,1.08 0.72,-1.101 z m 1.15,0.475 a 4.51,4.51 0 0 0 -0.003,0.465 h 0.443 a 10.04,10.04 0 0 0 0,-0.454 4.732,4.732 0 0 0 -0.44,-0.011 z m 6.116,-1.224 -0.224,0.21 0.003,0.598 0.43,-0.002 0.003,-0.37 1.004,0.001 -0.001,1.213 a 12.65,12.65 0 0 0 0.436,0.004 V 18.08 l -0.217,-0.21 c -0.478,-0.001 -0.956,0.002 -1.434,-0.002 z M 7.666,17.582 H 7.384 l -0.212,0.211 -0.002,0.981 0.006,0.49 c 0.037,0.089 0.12,0.166 0.202,0.214 L 8.85,19.484 H 9.055 L 9.261,19.483 9.259,19.057 7.601,19.054 7.598,18.023 7.948,18.018 A 19.27,19.27 0 0 0 7.947,17.585 21.315,21.315 0 0 0 7.384,17.583 Z m 9.654,0.38 -1.613,1.053 0.023,0.435 2.521,-10e-4 a 9.131,9.131 0 0 0 0,-0.472 c -0.56,-0.007 -1.122,0.004 -1.684,-0.006 l 1.134,-0.745 -0.38,-0.265 z m 5.989,-0.07 -1.6,1.036 v 0.44 h 2.518 V 18.91 c -0.565,-0.004 -1.13,0.003 -1.694,-0.003 l 1.153,-0.747 z m -9.95,-1.983 -0.222,10e-4 v 2.563 a 13.46,13.46 0 0 0 0.449,0.003 l 0.028,-1.708 0.955,1.54 0.153,-0.003 c -0.024,-0.233 0.067,-0.501 -0.086,-0.701 l -1.057,-1.693 a 11.843,11.843 0 0 0 -0.442,0 z m 8.183,0.924 C 21.396,16.81 21.247,16.82 21.099,16.823 a 85.573,85.573 0 0 0 0,1.586 h 0.447 z m -9.91,0.595 c -0.515,0.016 -1.034,-0.029 -1.548,0.028 l 0.002,0.446 1.946,0.002 v -0.458 a 3.414,3.414 0 0 0 -0.4,-0.018 z M 24.56,15.406 A 41.8,41.8 0 0 0 23.1,15.404 l -0.197,0.204 0.002,0.584 0.429,-0.002 0.003,-0.355 1.02,0.005 -10e-4,1.908 0.415,10e-4 c -0.007,-0.138 0.03,-0.274 0.022,-0.412 l 0.002,-0.508 v -1.057 c 0.026,-0.164 -0.112,-0.29 -0.235,-0.366 z m -7.322,1.726 -0.217,10e-4 v 0.455 h 0.433 v -0.454 a 28.388,28.388 0 0 0 -0.433,-0.001 z m -1.91,-0.896 -0.225,0.003 -10e-4,1.117 0.451,0.002 v -1.12 a 11.25,11.25 0 0 0 -0.45,0 z m 4.612,0.518 -0.686,0.004 a 8.44,8.44 0 0 0 -0.002,0.45 c 0.387,0.045 0.778,0.01 1.167,0.022 0.078,-0.008 0.181,0.027 0.225,-0.062 a 1.794,1.794 0 0 0 -0.017,-0.412 c -0.458,0 -0.915,-0.004 -1.373,0.002 z m -1.896,-0.017 -0.221,0.001 v 0.455 l 0.442,10e-4 a 12.64,12.64 0 0 0 0,-0.456 23.627,23.627 0 0 0 -0.442,0 z M 9.694,15.422 H 9.242 L 9.241,16.87 h 0.454 v -1.448 z m 1.635,-0.575 -0.419,0.002 -0.52,1.842 0.434,0.002 0.372,-1.41 0.24,-0.018 0.402,1.428 0.42,-0.001 -0.51,-1.842 c -0.28,-0.004 -0.558,-0.002 -0.838,0 z m 5.396,-0.136 -0.069,0.002 h -1.715 a 22.12,22.12 0 0 0 0,0.438 l 1.672,0.024 v 1.009 l -0.356,0.004 v 0.44 l 0.568,0.002 0.22,-0.24 v -1.282 c 0.027,-0.209 -0.18,-0.428 -0.389,-0.395 z m -8.902,1.115 -0.004,0.441 a 13.44,13.44 0 0 0 0.449,0 v -0.43 A 5.402,5.402 0 0 0 7.823,15.826 Z m 10.64,-1.845 h -0.285 c -0.081,0.107 -0.238,0.187 -0.218,0.343 v 1.24 c -0.019,0.154 0.135,0.235 0.215,0.341 l 1.886,-0.002 a 12.89,12.89 0 0 0 0.003,-0.44 c -0.559,-0.006 -1.117,0 -1.675,-0.004 v -1.035 l 0.36,-0.003 a 9.783,9.783 0 0 0 -0.002,-0.437 l -0.57,-0.003 z m -4.833,0.732 h -1.093 a 5.93,5.93 0 0 0 10e-4,0.462 h 1.092 a 11.86,11.86 0 0 0 0,-0.462 z m 8.893,-0.531 -0.976,0.004 v 0.452 l 1.95,0.003 0.001,-0.458 c -0.65,0 -1.3,-0.006 -1.95,0.003 z m -2.215,0 -0.231,0.004 v 0.45 a 5.93,5.93 0 0 0 0.462,0 v -0.45 a 6.196,6.196 0 0 0 -0.462,0 z m -12.016,-0.94 -1.12,0.003 v 0.457 l 1.406,0.002 -0.552,0.36 c 0.124,0.09 0.234,0.213 0.379,0.267 a 25.56,25.56 0 0 0 1.01,-0.653 L 9.414,13.246 7.171,13.245 Z m 3.098,-0.369 -1.082,0.73 1.064,0.719 0.732,-0.003 -1.084,-0.712 1.082,-0.73 c -0.238,-0.004 -0.474,0 -0.712,-0.004 z m 3.144,0.813 h -0.97 l 0.002,0.453 1.932,-10e-4 a 1.88,1.88 0 0 0 0.006,-0.45 c -0.646,-0.006 -1.293,0 -1.94,-0.003 z m 1.625,0 -0.233,0.002 v 0.446 l 0.466,-0.002 V 13.69 a 8.23,8.23 0 0 0 -0.466,-0.002 z m 1.079,-1.339 h -0.217 v 1.45 h 0.434 v -1.449 a 24.331,24.331 0 0 0 -0.434,0 z m 5.509,0.833 -0.225,0.003 a 13.74,13.74 0 0 0 0,0.454 h 0.448 a 8.52,8.52 0 0 0 0.001,-0.455 13.44,13.44 0 0 0 -0.449,0 z m -1.504,-1.777 c -0.28,-0.046 -0.563,-0.002 -0.844,0 l -0.517,1.832 0.435,0.001 0.381,-1.417 0.238,-0.003 0.397,1.42 h 0.432 z m -2.48,1.077 -0.219,10e-4 a 18.66,18.66 0 0 0 0,0.454 h 0.437 l 10e-4,-0.452 a 10.58,10.58 0 0 0 -0.438,-0.002 z m 5.32,-0.512 -0.5,0.003 0.532,0.94 0.455,-0.006 c -0.123,-0.332 -0.323,-0.626 -0.488,-0.937 z m -8.22,-1.375 -0.215,0.003 -0.003,1.694 c -0.341,-0.008 -0.682,0.02 -1.021,-0.019 a 7.101,7.101 0 0 0 -0.002,-0.34 H 14.21 c 0,0.198 -0.018,0.398 0.007,0.595 0.058,0.068 0.125,0.128 0.19,0.192 l 1.477,-0.003 a 9.1,9.1 0 0 1 0.198,-0.195 l -0.004,-1.925 a 14.004,14.004 0 0 0 -0.43,0 z m -3.395,1.061 h -0.217 l -0.004,1.06 h 0.44 l -0.002,-1.058 -0.434,-0.001 z m 10.277,-0.619 -0.223,0.003 a 79.94,79.94 0 0 0 0,1.453 h 0.447 v -1.453 a 9.335,9.335 0 0 0 -0.447,0 z M 9.343,11.632 8.37,11.636 v 0.455 h 1.946 a 9.76,9.76 0 0 0 0,-0.455 127.41,127.41 0 0 0 -1.946,0 z m 1.72,0.004 h -0.442 v 0.456 h 0.443 a 10.7,10.7 0 0 0 0,-0.456 z m 3.21,-1.682 -0.712,1.105 -0.707,-1.097 0.006,0.74 0.228,0.368 0.471,0.727 0.71,-1.115 c 0.02,-0.242 0.004,-0.486 0.004,-0.728 z m 2.929,-1.096 -0.216,0.002 -0.001,2.562 a 11.25,11.25 0 0 0 0.45,0 l 0.003,-1.716 0.972,1.538 0.168,0.03 0.003,-0.56 -1.163,-1.855 A 11.263,11.263 0 0 0 16.986,8.86 Z M 11.9,9.338 11.578,9.351 a 14.56,14.56 0 0 0 -0.362,0 l 0.002,0.452 0.485,0.009 -0.945,0.592 c 0.116,0.097 0.225,0.213 0.367,0.268 L 12.542,9.781 12.543,9.354 A 7.62,7.62 0 0 0 11.578,9.351 Z m 8.578,0.683 -1.067,0.002 v 0.441 h 2.133 v -0.44 a 189.57,189.57 0 0 0 -2.133,0 z M 15.247,9.517 15.025,9.52 a 11.4,11.4 0 0 0 0,0.453 h 0.444 a 11.4,11.4 0 0 0 0,-0.453 7.954,7.954 0 0 0 -0.444,0 z m 3.752,-0.313 -0.23,0.003 0.001,0.442 0.459,-10e-4 v -0.44 a 9.118,9.118 0 0 0 -0.46,-10e-4 z m -4.91,-1.839 -0.23,0.005 0.02,1.988 0.441,-0.003 0.002,-1.987 A 7.242,7.242 0 0 0 13.858,7.37 Z m 1.702,0.94 -0.498,0.003 0.527,0.94 0.457,-0.007 C 16.149,8.911 15.949,8.619 15.791,8.305 Z m 2.612,-0.226 -0.617,0.003 v 0.457 h 1.233 a 18.52,18.52 0 0 0 0,-0.458 61.4,61.4 0 0 0 -1.233,0.001 z M 15.97,6.577 15.284,6.578 C 15.15,6.56 15.072,6.698 14.996,6.785 14.969,6.975 14.989,7.17 14.988,7.362 h 0.426 l 0.003,-0.36 h 1.006 c 0.03,0.357 -10e-4,0.715 -10e-4,1.073 l 0.033,0.134 c 0.135,0.01 0.272,0.003 0.408,0.001 V 6.773 L 16.729,6.64 16.655,6.583 15.285,6.578 Z"
       fill="#ffffff"
       id="path6" />
  </g>
</svg>
