<svg xmlns="http://www.w3.org/2000/svg" width="256" height="256" xmlns:v="https://vecta.io/nano"><path d="M6.557 128c0 66.964 54.479 121.443 121.443 121.443S249.443 194.964 249.443 128 194.964 6.557 128 6.557 6.557 61.036 6.557 128z" fill="#fff" fill-rule="evenodd" stroke="#b0b0b0" stroke-width="13.114" paint-order="normal"/><g transform="matrix(7.375 0 0 7.375 10 10)"><circle fill="#050708" cx="16" cy="16" r="16"/><path d="M15.855 5.014a.77.77 0 0 1 .627.154l8.702 6.465c.2.15.325.4.315.654v7.424a.802.802 0 0 1-.346.682l-8.671 6.442a.782.782 0 0 1-.992-.025l-8.639-6.418a.826.826 0 0 1-.35-.68v-7.42a.826.826 0 0 1 .347-.68l8.641-6.42a.901.901 0 0 1 .366-.178zm-.104 20.014a10.16 10.16 0 0 0-.008.349l.002.697h.45V25.05a5.023 5.023 0 0 0-.444-.022zm-1.71-.918l-.252.001.535.947.452-.01c-.12-.332-.327-.621-.482-.936a17.125 17.125 0 0 0-.505 0zm2.727.48a9.27 9.27 0 0 0 .003.458h.42c.019-.149.02-.298.017-.448a5.86 5.86 0 0 0-.44-.01zm-.475-2.457c-.63.004-1.261-.004-1.892.005a15.41 15.41 0 0 0 0 .43l1.676.006v1.029c-.116.001-.23-.003-.344.009-.033.136-.016.277-.018.416l.606.001.187-.204.001-1.47a51.921 51.921 0 0 0-.216-.222zm3.344.576c-.143-.07-.295-.308-.462-.165l-1.5.98.013.425 1.378-.001.001-.45a14.925 14.925 0 0 0-.338-.004l-.212.002 1.12-.734zm-6.542.248l-.895.003a11.35 11.35 0 0 0 0 .452l1.79-.002v-.449l-1.79-.001zm-1.503-.657l-.221.001v.452h.443v-.45a12.723 12.723 0 0 0-.443-.002zm8.593-1.614l-.003.738.718 1.111.605-.935c.038-.068.099-.134.094-.218a13.81 13.81 0 0 0-.004-.675l-.57.9c-.042.058-.073.132-.14.162l-.7-1.083zm-1.435-.553c-.281.001-.562-.002-.844.003a83.136 83.136 0 0 1-.514 1.837l.434.003.388-1.421.236.012.383 1.405.434.003zm-8.752 1.03l-.393.008v.444l1.174-.003c.019-.147.01-.296.007-.445-.394-.002-.788-.009-1.181.004zm3.15-1.048l-1.612 1.039a10.37 10.37 0 0 0 .002.432l2.529.002.001-.456c-.57-.008-1.138.004-1.707-.007l1.162-.743-.375-.267zm1.9-.334l-.224.001-.003 1.687.135.025.318-.02-.003-1.692a20.223 20.223 0 0 0-.447 0zm1.378.416c-.155.021-.312.03-.469.03l.525.937.44-.003c-.095-.35-.312-.656-.496-.964zm5.959.213l-.23.004v.444l.46.003v-.449a8.59 8.59 0 0 0-.46.002zm-10.788-1.792l-.714 1.099-.699-1.09a20.66 20.66 0 0 0-.003.747l.7 1.08.72-1.101-.004-.735zm1.15.475a4.51 4.51 0 0 0-.003.465h.443a10.04 10.04 0 0 0 0-.454 4.732 4.732 0 0 0-.44-.011zm6.116-1.224l-.224.21.003.598.43-.002.003-.37 1.004.001-.001 1.213a12.65 12.65 0 0 0 .436.004V18.08l-.217-.21c-.478-.001-.956.002-1.434-.002zm-11.197-.287h-.282l-.212.211-.002.981.006.49c.037.089.12.166.202.214l1.472.006h.205l.206-.001-.002-.426-1.658-.003-.003-1.031.35-.005a19.27 19.27 0 0 0-.001-.433 21.315 21.315 0 0 0-.563-.002zm9.654.38l-1.613 1.053.023.435 2.521-.001a9.131 9.131 0 0 0 0-.472c-.56-.007-1.122.004-1.684-.006l1.134-.745-.38-.265zm5.989-.07l-1.6 1.036v.44h2.518v-.458c-.565-.004-1.13.003-1.694-.003l1.153-.747-.377-.268zm-9.95-1.983l-.222.001v2.563a13.46 13.46 0 0 0 .449.003l.028-1.708.955 1.54.153-.003c-.024-.233.067-.501-.086-.701l-1.057-1.693a11.843 11.843 0 0 0-.442 0zm8.183.924c-.146-.023-.295-.013-.443-.01a85.573 85.573 0 0 0 0 1.586h.447l-.004-1.576zm-9.91.595c-.515.016-1.034-.029-1.548.028l.002.446 1.946.002v-.458a3.414 3.414 0 0 0-.4-.018zm12.928-2.022a41.8 41.8 0 0 0-1.46-.002l-.197.204.002.584.429-.002.003-.355 1.02.005-.001 1.908.415.001c-.007-.138.03-.274.022-.412l.002-.508v-1.057c.026-.164-.112-.29-.235-.366zm-7.322 1.726l-.217.001v.455h.433v-.454a28.388 28.388 0 0 0-.433-.001zm-1.91-.896l-.225.003-.001 1.117.451.002v-1.12a11.25 11.25 0 0 0-.45 0zm4.612.518l-.686.004a8.44 8.44 0 0 0-.002.45c.387.045.778.01 1.167.022.078-.008.181.027.225-.062a1.794 1.794 0 0 0-.017-.412c-.458 0-.915-.004-1.373.002zm-1.896-.017l-.221.001v.455l.442.001a12.64 12.64 0 0 0 0-.456 23.627 23.627 0 0 0-.442 0zm-8.35-1.315h-.452l-.001 1.448h.454v-1.448zm1.635-.575l-.419.002-.52 1.842.434.002.372-1.41.24-.018.402 1.428.42-.001-.51-1.842c-.28-.004-.558-.002-.838 0zm5.396-.136l-.069.002h-1.715a22.12 22.12 0 0 0 0 .438l1.672.024v1.009l-.356.004v.44l.568.002.22-.24v-1.282c.027-.209-.18-.428-.389-.395zm-8.902 1.115l-.004.441a13.44 13.44 0 0 0 .449 0v-.43a5.402 5.402 0 0 0-.445-.011zm10.64-1.845h-.285c-.081.107-.238.187-.218.343v1.24c-.019.154.135.235.215.341l1.886-.002a12.89 12.89 0 0 0 .003-.44c-.559-.006-1.117 0-1.675-.004v-1.035l.36-.003a9.783 9.783 0 0 0-.002-.437l-.57-.003zm-4.833.732h-1.093a5.93 5.93 0 0 0 .001.462h1.092a11.86 11.86 0 0 0 0-.462zm8.893-.531l-.976.004v.452l1.95.003.001-.458c-.65 0-1.3-.006-1.95.003zm-2.215 0l-.231.004v.45a5.93 5.93 0 0 0 .462 0v-.45a6.196 6.196 0 0 0-.462 0zm-12.016-.94l-1.12.003v.457l1.406.002-.552.36c.124.09.234.213.379.267a25.56 25.56 0 0 0 1.01-.653l-.001-.432-2.243-.001zm3.098-.369l-1.082.73 1.064.719.732-.003-1.084-.712 1.082-.73c-.238-.004-.474 0-.712-.004zm3.144.813h-.97l.002.453 1.932-.001a1.88 1.88 0 0 0 .006-.45c-.646-.006-1.293 0-1.94-.003zm1.625 0l-.233.002v.446l.466-.002v-.442a8.23 8.23 0 0 0-.466-.002zm1.079-1.339h-.217v1.45h.434v-1.449a24.331 24.331 0 0 0-.434 0zm5.509.833l-.225.003a13.74 13.74 0 0 0 0 .454h.448a8.52 8.52 0 0 0 .001-.455 13.44 13.44 0 0 0-.449 0zm-1.504-1.777c-.28-.046-.563-.002-.844 0l-.517 1.832.435.001.381-1.417.238-.003.397 1.42h.432zm-2.48 1.077l-.219.001a18.66 18.66 0 0 0 0 .454h.437l.001-.452a10.58 10.58 0 0 0-.438-.002zm5.32-.512l-.5.003.532.94.455-.006c-.123-.332-.323-.626-.488-.937zm-8.22-1.375l-.215.003-.003 1.694c-.341-.008-.682.02-1.021-.019a7.101 7.101 0 0 0-.002-.34h-.412c0 .198-.018.398.007.595.058.068.125.128.19.192l1.477-.003a9.1 9.1 0 0 1 .198-.195l-.004-1.925a14.004 14.004 0 0 0-.43 0zm-3.395 1.061h-.217l-.004 1.06h.44l-.002-1.058-.434-.001zm10.277-.619l-.223.003a79.94 79.94 0 0 0 0 1.453h.447v-1.453a9.335 9.335 0 0 0-.447 0zm-13.402.597l-.973.004v.455h1.946a9.76 9.76 0 0 0 0-.455 127.41 127.41 0 0 0-1.946 0zm1.72.004h-.442v.456h.443a10.7 10.7 0 0 0 0-.456zm3.21-1.682l-.712 1.105-.707-1.097.006.74.228.368.471.727.71-1.115c.02-.242.004-.486.004-.728zm2.929-1.096l-.216.002-.001 2.562a11.25 11.25 0 0 0 .45 0l.003-1.716.972 1.538.168.03.003-.56-1.163-1.855a11.263 11.263 0 0 0-.432.001zm-5.302.48l-.322.013a14.56 14.56 0 0 0-.362 0l.002.452.485.009-.945.592c.116.097.225.213.367.268l1.417-.891.001-.427a7.62 7.62 0 0 0-.965-.003zm8.578.683l-1.067.002v.441h2.133v-.44a189.57 189.57 0 0 0-2.133 0zm-5.231-.504l-.222.003a11.4 11.4 0 0 0 0 .453h.444a11.4 11.4 0 0 0 0-.453 7.954 7.954 0 0 0-.444 0zm3.752-.313l-.23.003.001.442.459-.001v-.44a9.118 9.118 0 0 0-.46-.001zm-4.91-1.839l-.23.005.02 1.988.441-.003.002-1.987a7.242 7.242 0 0 0-.464.002zm1.702.94l-.498.003.527.94.457-.007c-.128-.33-.328-.622-.486-.936zm2.612-.226l-.617.003v.457h1.233a18.52 18.52 0 0 0 0-.458 61.4 61.4 0 0 0-1.233.001zM15.97 6.577l-.686.001c-.134-.018-.212.12-.288.207-.027.19-.007.385-.008.577h.426l.003-.36h1.006c.03.357-.001.715-.001 1.073l.033.134c.135.01.272.003.408.001V6.773l-.134-.133-.074-.057-1.37-.005z" fill="#fff"/></g></svg>