<svg xmlns="http://www.w3.org/2000/svg" width="245" height="245" viewBox="0 0 245 245">
  <g id="nologoline" transform="translate(4719 6202) rotate(180)">
    <g id="BNB_1_" data-name="BNB (1)" transform="translate(4474 5957)">
      <path id="Main_copy_14" d="M0,122.5C0,190,55,245,122.5,245S245,190,245,122.5,190,0,122.5,0,0,55,0,122.5Z" fill="#fff"/>
    </g>
    <g id="Group_2768" data-name="Group 2768" transform="translate(0.497 -7.754)">
      <g id="Box_Left" data-name="Box Left" transform="translate(4683.498 6111.466) rotate(180)">
        <g id="Box_Left-2" data-name="Box Left" transform="translate(-269 -802)" fill="none" fill-rule="evenodd">
          <path d="M269,822.428,304.274,802l35.155,20.428v40.856l-35.155,20.428L269,863.284Z" stroke="none"/>
          <path d="M 304.2706909179688 806.6243286132813 L 273 824.73388671875 L 273 860.9783325195313 L 304.2706909179688 879.0880126953125 L 335.4293823242188 860.9822387695313 L 335.4293823242188 824.72998046875 L 304.2706909179688 806.6243286132813 M 304.2740783691406 802 L 339.4293823242188 822.4280395507813 L 339.4293823242188 863.2841796875 L 304.2740783691406 883.7123413085938 L 269 863.2841796875 L 269 822.4280395507813 L 304.2740783691406 802 Z" stroke="none" fill="#232220"/>
        </g>
      </g>
      <g id="Box_Right" data-name="Box Right" transform="translate(4579.932 6111.466) rotate(180)">
        <g id="Box_Left-3" data-name="Box Left" transform="translate(-1141 -802)" fill="none" fill-rule="evenodd">
          <path d="M1141,822.428,1176.274,802l35.155,20.428v40.856l-35.155,20.428L1141,863.284Z" stroke="none"/>
          <path d="M 1176.270629882813 806.6243286132813 L 1145 824.73388671875 L 1145 860.9783325195313 L 1176.270629882813 879.0880126953125 L 1207.429443359375 860.9822387695313 L 1207.429443359375 824.72998046875 L 1176.270629882813 806.6243286132813 M 1176.274047851563 802 L 1211.429443359375 822.4280395507813 L 1211.429443359375 863.2841796875 L 1176.274047851563 883.7123413085938 L 1141 863.2841796875 L 1141 822.4280395507813 L 1176.274047851563 802 Z" stroke="none" fill="#232220"/>
        </g>
      </g>
      <g id="Box_Main" data-name="Box Main" transform="translate(4641.097 6152.797) rotate(180)">
        <g id="Box_Main-2" data-name="Box Main" transform="translate(-626 -454)" fill="none" fill-rule="evenodd">
          <path d="M626,480.01,670.538,454l44.657,26.01v14.608l-31.949,18.528v37.412l-12.708,7.364-12.589-7.364V513.146L626,494.619Z" stroke="none"/>
          <path d="M 670.5406494140625 458.630615234375 L 630 482.3063354492188 L 630 492.3143920898438 L 659.9552612304688 509.6861877441406 L 661.9485473632813 510.8421630859375 L 661.9485473632813 513.1464233398438 L 661.9485473632813 548.2639770507813 L 670.5474243164063 553.2935180664063 L 679.2461547851563 548.2531127929688 L 679.2461547851563 513.1464233398438 L 679.2461547851563 510.8421630859375 L 681.2394409179688 509.6861877441406 L 711.1947021484375 492.3143920898438 L 711.1947021484375 482.3094482421875 L 670.5406494140625 458.630615234375 M 670.5379638671875 454 L 715.1947021484375 480.0101928710938 L 715.1947021484375 494.61865234375 L 683.2461547851563 513.1464233398438 L 683.2461547851563 550.558349609375 L 670.5379638671875 557.9219970703125 L 657.9485473632813 550.558349609375 L 657.9485473632813 513.1464233398438 L 626 494.61865234375 L 626 480.0101928710938 L 670.5379638671875 454 Z" stroke="none" fill="#232220"/>
        </g>
      </g>
    </g>
  </g>
</svg>
