<?xml version="1.0" encoding="UTF-8"?>
<svg xmlns="http://www.w3.org/2000/svg" version="1.1" viewBox="0 0 250 250">
  <defs>
    <style>
      .cls-1 {
        fill: #fff;
      }
    </style>
  </defs>
  <!-- Generator: Adobe Illustrator 28.6.0, SVG Export Plug-In . SVG Version: 1.2.0 Build 709)  -->
  <g>
    <g id="Layer_1">
      <path d="M125,247.5c67.7,0,122.5-54.8,122.5-122.5S192.7,2.5,125,2.5,2.5,57.3,2.5,125s54.8,122.5,122.5,122.5Z"/>
      <path class="cls-1" d="M85.2,177.2h79.6c14.6,0,23.9-15.8,16.5-28.5l-49.1-85.1c-3.2-5.5-11.2-5.5-14.4,0l-49.1,85.1c-7.3,12.7,1.9,28.5,16.5,28.5h0ZM132.1,89.2l10.6,20.7,25.8,46.1c1.7,2.9-.4,6.7-4,6.7h-32.5v-73.6h0ZM81.2,156l25.8-46.1,10.6-20.7v73.6h-32.5c-3.5,0-5.7-3.8-4-6.7h0Z"/>
    </g>
  </g>
</svg>