<svg xmlns="http://www.w3.org/2000/svg" xmlns:xlink="http://www.w3.org/1999/xlink" width="250" height="250" xmlns:v="https://vecta.io/nano"><defs><linearGradient id="A" x1="17.335" x2="80" y1="74.339" y2="74.339" xlink:href="#J"><stop offset="0" stop-color="#700000"/><stop offset=".327" stop-color="#730000"/><stop offset=".59" stop-color="#7d0000"/><stop offset=".83" stop-color="#8e0000"/><stop offset="1" stop-color="#9f0000"/></linearGradient><linearGradient id="B" x1="17.584" x2="17.584" y1="68.073" y2="80.102" xlink:href="#J"><stop offset=".35" stop-color="#dfdfdf"/><stop offset=".645" stop-color="#ddd"/><stop offset=".752" stop-color="#d6d6d6"/><stop offset=".828" stop-color="#cbcbcb"/><stop offset=".889" stop-color="#bababa"/><stop offset=".941" stop-color="#a4a4a4"/><stop offset=".987" stop-color="#898989"/><stop offset="1" stop-color="gray"/></linearGradient><linearGradient id="C" x1="48.667" x2="48.667" y1="68.69" y2="80" xlink:href="#J"><stop offset=".35" stop-color="#cf2000"/><stop offset=".645" stop-color="#cd1f00"/><stop offset=".752" stop-color="#c61d00"/><stop offset=".828" stop-color="#bb1900"/><stop offset=".889" stop-color="#aa1300"/><stop offset=".941" stop-color="#940c00"/><stop offset=".987" stop-color="#790300"/><stop offset="1" stop-color="#700000"/></linearGradient><linearGradient xlink:href="#B" id="D" x1="38.026" x2="38.026" y1="68.69" y2="80"/><linearGradient id="E" x1="37.877" x2="37.877" y1="68.689" y2="80" xlink:href="#J"><stop offset=".35" stop-color="#10208f"/><stop offset=".645" stop-color="#101f8d"/><stop offset=".752" stop-color="#0f1d86"/><stop offset=".828" stop-color="#0d197b"/><stop offset=".889" stop-color="#0a136a"/><stop offset=".941" stop-color="#060c54"/><stop offset=".987" stop-color="#020339"/><stop offset="1" stop-color="#000030"/></linearGradient><linearGradient id="F" x1="17.335" x2="80" y1="55.313" y2="55.313" xlink:href="#J"><stop offset="0" stop-color="#cf2000"/><stop offset=".021" stop-color="#d12201"/><stop offset=".244" stop-color="#e23309"/><stop offset=".487" stop-color="#ec3d0e"/><stop offset=".791" stop-color="#ef4010"/><stop offset=".841" stop-color="#ec3d0f"/><stop offset=".882" stop-color="#e2330d"/><stop offset=".919" stop-color="#d12208"/><stop offset=".954" stop-color="#b90a03"/><stop offset=".966" stop-color="#af0000"/><stop offset="1" stop-color="#ef4010"/></linearGradient><linearGradient id="G" x1="17.335" x2="80" y1="57.229" y2="57.229" xlink:href="#J"><stop offset="0" stop-color="#dfdfdf"/><stop offset=".021" stop-color="#e1e1e1"/><stop offset=".244" stop-color="#f2f2f2"/><stop offset=".487" stop-color="#fcfcfc"/><stop offset=".791" stop-color="#fff"/><stop offset=".841" stop-color="#fcfcfc"/><stop offset=".882" stop-color="#f2f2f2"/><stop offset=".919" stop-color="#e1e1e1"/><stop offset=".954" stop-color="#c9c9c9"/><stop offset=".966" stop-color="#bfbfbf"/><stop offset="1" stop-color="#fff"/></linearGradient><linearGradient id="H" x1="17.335" x2="80" y1="57.28" y2="57.28" xlink:href="#J"><stop offset="0" stop-color="#00209f"/><stop offset=".021" stop-color="#0222a1"/><stop offset=".244" stop-color="#1333b2"/><stop offset=".487" stop-color="#1d3dbc"/><stop offset=".791" stop-color="#2040bf"/><stop offset=".841" stop-color="#1e3dbc"/><stop offset=".882" stop-color="#1933b2"/><stop offset=".919" stop-color="#1122a1"/><stop offset=".954" stop-color="#050a89"/><stop offset=".966" stop-color="#00007f"/><stop offset="1" stop-color="#2040bf"/></linearGradient><linearGradient xlink:href="#B" id="I"/><linearGradient id="J" gradientUnits="userSpaceOnUse"/></defs><circle cx="125" cy="125" r="125" fill="#cdcdcd" fill-rule="evenodd"/><g transform="matrix(2.410836 0 0 2.417207 27.128294 21.616887)"><path fill="#0e3ca5" d="M32.585 59.259c2 7.4 9.176 13.044 12.8 12.811.127-.008 13.745-2.547 21.2-15 5.8-9.693 3.826-19.051-4.065-19.255-2.838.207-33.745 7.348-29.934 21.446m29.199-47.528l-.008-.007.011-.006a34.626 34.626 0 0 0-36.5-5.267 20.236 20.236 0 0 0-2.2 1.075c-.486.258-.972.516-1.444.8l.115.035a15.78 15.78 0 0 0-3.655 3.46C8.172 24.951 41.486 34.495 59.3 34.526c8.191 5.883 10.491-16.56 2.485-22.793z"/><path fill="#5493f7" d="M27.3 12C22.723 18.878 7.478 23.725 4.971 22.97l-.017-.032q.155-.31.313-.618a36.676 36.676 0 0 1 10.87-12.684q1.407-1.03 2.914-1.928a10.792 10.792 0 0 1 5.039-1.343c6.789.13 3.244 5.58 3.208 5.635m-3.753 48.611c.328 2.162-.009 10.7-.451 11.419-.381.023-1.174.071-3.471-1.217A36.542 36.542 0 0 1 3.054 27.556q.183-.551.383-1.093c2.631 3.5 5.676 6.665 8.264 10.2 2.465 3.366 5.856 8.852 6.546 10.024 4.284 7.278 4.967 11.768 5.3 13.925m50.642-21.52a36.418 36.418 0 0 1-2.54 13.408c-4.3 4.621-33.284-6.753-33.568-6.877-3.965-1.739-16.031-7.023-17.12-15.329-1.561-11.945 22.67-20.269 33.32-20.585 1.277.015 5.163.06 7.428 1.9a36.415 36.415 0 0 1 12.48 27.483m-19.62 32.373c-3.16 1.475-6.639.4-5.735-2.677 1.735-5.908 16.886-11.966 20.232-12.295.413-.04.589.241.405.561a36.864 36.864 0 0 1-14.9 14.411"/><path fill="url(#A)" d="M17.335 77.254a2.551 2.551 0 0 0 2.328 2.714c30.7.21 60.337-1.2 60.337-5.8 0-13.925-62.665 3.086-62.665 3.086z"/><path fill="url(#I)" d="M17.586 78.389v-.007z"/><path fill="url(#C)" d="M40.43 71.956l5.757 5.758c19.066-2.581 33.332-6.324 33.332-3.414 0 4.245-29.173 5.7-59.843 5.494a2.194 2.194 0 0 1-.245-.014 2.35 2.35 0 0 1-1.845-1.388v-.007a2.532 2.532 0 0 1-.138-.368 2.654 2.654 0 0 0 .138.368v.007a2.327 2.327 0 0 0 2.087 1.386c5.093-.031 10.143-.319 15.027-.756l-4.834-4.836c-7.364 1.669-12.531 3.071-12.531 3.071a2.549 2.549 0 0 0 2.34 2.714c30.692.233 60.288-.731 60.325-5.8 0-8.198-21.707-5.671-39.57-2.215z"/><path fill="url(#D)" d="M46.187 77.714l-5.757-5.758c-3.774.731-7.375 1.5-10.564 2.227l4.834 4.836c3.963-.356 7.813-.809 11.487-1.305z"/><path fill="url(#E)" d="M37.719 72.494l-5.278 1.115 5.132 5.133q2.922-.3 5.739-.655z"/><path fill="url(#F)" d="M19.678 37.821a2.343 2.343 0 0 0-2.343 2.344v37.089a2.342 2.342 0 0 0 2.328 2.346C50.362 79.37 80.037 69.209 80 74.169V32.392c.037-4.96-29.628 5.199-60.322 5.429z"/><path fill="url(#G)" d="M80 47.621c0-.9-.959-1.237-2.161-1.351a20.447 20.447 0 0 0-3.9.134l-3.076.409-2.7.42-2.61.439-2.562.451-2.569.444-2.619.451-2.7.461-2.86.458-3.055.473-3.276.483V35.658c-3.664.52-7.5.994-11.429 1.367v15.191l-3.173.277-2.795.2-2.606.141-2.6.1-2.8.078-3.178.033v11.398l3.176-.033 2.8-.078 2.6-.1 2.605-.142 2.8-.2 3.173-.277V78.8c3.931-.372 7.762-.846 11.425-1.366V62.288a216.24 216.24 0 0 0 3.279-.483l3.052-.473q1.476-.229 2.86-.458l2.7-.462 2.618-.45 2.569-.444 2.562-.451 2.61-.439 2.7-.42c.918-.136 1.833-.273 3.075-.408a20.449 20.449 0 0 1 3.9-.135c1.2.114 2.161.456 2.161 1.351V47.621z"/><path fill="url(#H)" d="M80 50.47c0-.895-.962-1.236-2.172-1.351a20.623 20.623 0 0 0-3.929.14l-3.1.414-2.738.425-2.636.445-2.577.453-2.562.445-2.583.443-2.637.45-2.749.441-2.9.449-3.064.456-3.306.44V36.049l-5.707.686v18.049a285.096 285.096 0 0 1-6.066.562 160.008 160.008 0 0 1-5.227.33l-2.645.106-2.86.081-3.21.035v5.7l3.209-.035 2.86-.081a197.226 197.226 0 0 0 5.225-.248l2.648-.189 2.856-.247 3.21-.314V78.51q2.9-.314 5.706-.685v-18.01q1.716-.215 3.305-.439l3.066-.457 2.9-.448 2.749-.441 2.638-.45 2.584-.443 2.562-.444 2.577-.453a211.968 211.968 0 0 1 5.374-.871l3.1-.414a20.538 20.538 0 0 1 3.929-.14c1.21.114 2.172.457 2.172 1.35V50.47z"/></g></svg>