<svg xmlns="http://www.w3.org/2000/svg" width="500" height="500" fill="none" xmlns:v="https://vecta.io/nano"><circle cx="250" cy="250" r="250" fill="#2b2c37"/><path d="M124.055 188.95c-1.972-2.385-4.458-4.292-7.269-5.577-2.669-1.205-5.552-1.859-8.478-1.924a24.02 24.02 0 0 0-9.476 1.616 21.08 21.08 0 0 0-7.231 4.751c-2.012 2.047-3.568 4.498-4.565 7.193a27.21 27.21 0 0 0 0 18.196 20.32 20.32 0 0 0 4.565 7.251c2.055 2.07 4.518 3.688 7.231 4.751 3.018 1.171 6.241 1.72 9.476 1.615 2.926-.065 5.809-.719 8.478-1.923 2.812-1.285 5.297-3.192 7.269-5.578l-4.968-3.847c-1.124 1.675-2.621 3.064-4.373 4.059a12.33 12.33 0 0 1-6.406 1.654c-2.317.101-4.628-.306-6.771-1.193-1.936-.771-3.688-1.945-5.141-3.443-1.442-1.59-2.54-3.463-3.222-5.501-1.472-4.465-1.472-9.287 0-13.752a15.55 15.55 0 0 1 3.222-5.482c1.427-1.548 3.166-2.774 5.102-3.597a15.93 15.93 0 0 1 6.771-1.192 12.33 12.33 0 0 1 6.407 1.654 13.02 13.02 0 0 1 4.373 4.059l4.968-3.847.038.057zm14.539 36.834h6.081v-22.158c-.135-3.189.524-6.362 1.918-9.232 1.004-1.954 2.433-3.656 4.181-4.982 1.294-1.013 2.793-1.728 4.392-2.097.864-.151 1.734-.253 2.609-.307 4.476 0 7.545 1.282 9.207 3.847 1.86 3.368 2.724 7.197 2.493 11.04v23.889h6.081v-27.428c.295-4.517-1.115-8.98-3.952-12.502-2.672-2.873-6.77-4.309-12.294-4.309a15.95 15.95 0 0 0-4.278.597 19.07 19.07 0 0 0-4.104 1.654c-1.267.694-2.44 1.547-3.491 2.539-1.01.945-1.876 2.034-2.571 3.231h-.191v-33.583h-6.081v69.801zm85.355-21.504v3.135a18.29 18.29 0 0 1-.786 5.405 11.78 11.78 0 0 1-2.452 4.437 11.73 11.73 0 0 1-4.089 2.987c-1.817.78-3.779 1.16-5.754 1.116a16.15 16.15 0 0 1-3.645-.423c-1.16-.264-2.264-.733-3.26-1.385a7.26 7.26 0 0 1-2.34-2.501c-.613-1.117-.918-2.379-.883-3.654-.043-.965.138-1.926.531-2.808s.987-1.659 1.733-2.27a14.6 14.6 0 0 1 5.428-2.731 33.17 33.17 0 0 1 6.636-1.116c2.302-.154 4.22-.231 5.755-.231l3.126.039zm-3.031-4.982c-2.557 0-5.396.122-8.516.366-2.988.247-5.929.894-8.746 1.923a16.6 16.6 0 0 0-6.81 4.482c-1.923 2.309-2.897 5.266-2.723 8.27a11.56 11.56 0 0 0 1.247 5.501 12.18 12.18 0 0 0 3.318 3.963 14.06 14.06 0 0 0 4.738 2.404c1.794.526 3.654.792 5.524.788 3.071.082 6.116-.578 8.88-1.923 2.632-1.461 4.814-3.616 6.311-6.232h.192c0 1.167.044 2.366.134 3.597s.236 2.347.441 3.347h5.754c-.179-1.167-.345-2.661-.498-4.482s-.205-3.533-.154-5.135v-19.234a16.57 16.57 0 0 0-1.285-6.829 13.99 13.99 0 0 0-3.414-4.75c-1.457-1.284-3.171-2.241-5.026-2.809a19.81 19.81 0 0 0-6.022-.923c-8.107 0-14.181 2.09-18.222 6.271l3.683 4.346c3.575-3.319 8.285-5.137 13.158-5.077 7.365 0 11.048 3.725 11.048 11.175v1.115l-3.012-.154zm29.27-16.714l.327 5.078c.089 1.782.134 3.257.134 4.424v33.698h6.08v-22.158a19.29 19.29 0 0 1 1.918-9.232c1.004-1.954 2.433-3.656 4.182-4.982 1.293-1.013 2.793-1.728 4.392-2.097a23.41 23.41 0 0 1 2.57-.365c4.476 0 7.545 1.282 9.207 3.847 1.86 3.368 2.725 7.197 2.494 11.04v23.947h6.08v-27.428a18.06 18.06 0 0 0-3.951-12.502c-2.647-2.873-6.733-4.309-12.257-4.309a15.94 15.94 0 0 0-4.277.597 19.08 19.08 0 0 0-4.105 1.654 16.99 16.99 0 0 0-3.548 2.481c-1.01.945-1.876 2.034-2.571 3.231h-.191v-3.462a26.44 26.44 0 0 0-.231-3.462h-6.253zm63.854 14.637a16.89 16.89 0 0 1 3.414-5.27 16.51 16.51 0 0 1 5.063-3.597c1.981-.905 4.135-1.365 6.311-1.346a16.75 16.75 0 0 1 6.809 1.346 15.58 15.58 0 0 1 5.16 3.597c1.418 1.52 2.515 3.313 3.222 5.27a18.44 18.44 0 0 1 1.113 6.424 16.85 16.85 0 0 1-1.151 6.828c-.793 1.975-2.003 3.754-3.549 5.213-3.119 2.932-7.232 4.568-11.508 4.577a14.84 14.84 0 0 1-6.311-1.346c-1.899-.866-3.618-2.087-5.063-3.597-1.458-1.526-2.616-3.314-3.415-5.27-1.656-4.115-1.656-8.714 0-12.829h-.095zm-6.867 42.027a26.74 26.74 0 0 0 9.207 6.558 29.5 29.5 0 0 0 11.508 2.116 26.77 26.77 0 0 0 11.777-2.212 19.41 19.41 0 0 0 7.04-5.539 18.52 18.52 0 0 0 3.414-7.29c.563-2.455.859-4.963.882-7.482v-42.815h-6.08v7.193h-.192c-2.101-2.923-4.951-5.222-8.248-6.655-1.39-.597-2.845-1.029-4.335-1.288-1.355-.237-2.728-.359-4.104-.366a22.2 22.2 0 0 0-8.785 1.712 20.55 20.55 0 0 0-6.905 4.751 22.55 22.55 0 0 0-4.565 7.117 23 23 0 0 0-1.65 8.77c-.027 3.013.567 5.999 1.745 8.771a21.03 21.03 0 0 0 4.796 6.963c2.065 1.968 4.487 3.522 7.135 4.578a23.18 23.18 0 0 0 8.785 1.654 22.09 22.09 0 0 0 8.938-1.924c2.951-1.343 5.444-3.522 7.174-6.27h.192v7.694a24.19 24.19 0 0 1-.883 6.597 14.06 14.06 0 0 1-2.839 5.443 13.58 13.58 0 0 1-5.198 3.655 20.42 20.42 0 0 1-7.825 1.346c-3.324.053-6.613-.692-9.591-2.173a19.42 19.42 0 0 1-6.943-5.771l-4.45 4.867zm68.399-38.469c.003-1.799.43-3.571 1.246-5.174.833-1.662 1.957-3.16 3.319-4.423 1.413-1.315 3.05-2.363 4.833-3.097a14.68 14.68 0 0 1 5.755-1.154c1.892-.112 3.786.172 5.563.834a13.65 13.65 0 0 1 4.756 3.013c1.233 1.344 2.188 2.92 2.81 4.637s.899 3.54.815 5.364h-29.097zm35.714 4.982v-2.693c.016-2.841-.451-5.664-1.381-8.347-.867-2.522-2.231-4.844-4.008-6.828-1.804-1.988-3.998-3.579-6.445-4.674a21.05 21.05 0 0 0-8.747-1.751 21.38 21.38 0 0 0-8.554 1.712 21.1 21.1 0 0 0-6.905 4.751c-1.991 2.071-3.556 4.516-4.604 7.194-1.122 2.879-1.682 5.948-1.649 9.04a23.58 23.58 0 0 0 1.707 9.04 22.49 22.49 0 0 0 4.642 7.193 20.79 20.79 0 0 0 7.039 4.751 22.96 22.96 0 0 0 8.881 1.712 23.78 23.78 0 0 0 9.993-2.116 23.36 23.36 0 0 0 8.516-7.02l-4.699-3.847c-1.384 2.12-3.226 3.902-5.39 5.212-2.529 1.557-5.454 2.346-8.42 2.27a14.85 14.85 0 0 1-5.985-1.193 15.9 15.9 0 0 1-8.286-8.213c-.868-1.927-1.4-3.989-1.573-6.097l35.868-.096z" fill="#fff"/><path d="M90.758 341.188h15.459V274.35h.25l42.965 66.838h19.641v-87.149h-15.479v64.742h-.23l-42.198-64.742H90.758v87.149zm103.001-24.619c2.134 5.393 5.373 10.279 9.505 14.34a41.39 41.39 0 0 0 14.49 9.241 50.68 50.68 0 0 0 18.471 3.27c6.383-.004 12.71-1.191 18.663-3.501a43.71 43.71 0 0 0 14.616-9.425 42.62 42.62 0 0 0 9.59-14.406 48.5 48.5 0 0 0 3.357-18.599c.093-6.485-1.073-12.927-3.433-18.965-2.158-5.455-5.424-10.401-9.591-14.522a40.81 40.81 0 0 0-14.616-9.175 51.55 51.55 0 0 0-18.663-3.019c-6.306-.069-12.569 1.039-18.471 3.269a41.7 41.7 0 0 0-14.481 9.29 42.67 42.67 0 0 0-9.591 14.58c-2.286 6.08-3.38 12.546-3.222 19.042-.085 6.359 1.081 12.673 3.433 18.58h-.057zm14.922-31.756c1.367-3.666 3.432-7.03 6.081-9.905a27.92 27.92 0 0 1 9.398-6.655c3.874-1.652 8.049-2.471 12.257-2.404a30.48 30.48 0 0 1 12.276 2.404c3.582 1.53 6.803 3.797 9.456 6.655 2.647 2.876 4.712 6.24 6.08 9.905 1.421 3.886 2.123 7.999 2.072 12.137a37.61 37.61 0 0 1-2.148 12.925 30.41 30.41 0 0 1-6.081 10.214 28.1 28.1 0 0 1-9.456 6.77 29.8 29.8 0 0 1-12.276 2.462c-4.201.063-8.367-.776-12.218-2.462-3.565-1.582-6.765-3.887-9.399-6.77a30.34 30.34 0 0 1-6.08-10.214c-1.461-4.149-2.182-8.525-2.129-12.925-.035-4.162.694-8.296 2.148-12.194l.019.057zm111 56.375h14.232l20.14-66.357h.25l20.216 66.357h14.731l25.28-87.149h-15.709l-17.071 62.78h-.249l-19.181-62.78h-15.229l-19.546 62.78h-.249l-16.323-62.78H293.96l25.721 87.149z" fill="#00c26f"/></svg>