<?xml version="1.0" encoding="utf-8"?>
<!-- Generator: Adobe Illustrator 22.0.0, SVG Export Plug-In . SVG Version: 6.00 Build 0)  -->
<svg version="1.1" id="NTK" xmlns="http://www.w3.org/2000/svg" xmlns:xlink="http://www.w3.org/1999/xlink" x="0px" y="0px"
	 viewBox="0 0 490 490" style="enable-background:new 0 0 490 490;" xml:space="preserve">
<style type="text/css">
	.st0{fill:#A059A2;}
	.st1{fill:none;stroke:#FFFFFF;stroke-width:2;stroke-linecap:round;stroke-linejoin:round;}
</style>
<path id="Full" class="st0" d="M0,245c0,135.1,109.9,245,245,245s245-109.9,245-245S380.1,0,245,0S0,109.9,0,245z"/>
<path id="Form_3" class="st1" d="M245,86v154l45-76L245,86z"/>
<path id="Form_5" class="st1" d="M245,86l-41,67l14,3L245,86z M245,86l-41,67l14,3L245,86z M245,87l-27,71l21,82l2,1v-8l4,7V87z
	 M245,86v154l45-76L245,86z"/>
<path id="Form_3_kopiera_4" class="st1" d="M244.9,409V255l-45.1,76L244.9,409z"/>
<path id="Form_4_kopiera_4" class="st1" d="M244.9,408l28-72l-22-82h-2v8l-4-7L244.9,408L244.9,408z"/>
<path id="Form_5_kopiera_4" class="st1" d="M244.9,409l41.1-67l-14-3L244.9,409z M244.9,409l41.1-67l-13-4L244.9,409z M244.9,408
	l28-72l-22-82h-2v8l-4-7L244.9,408L244.9,408z M244.9,409V255l-44.1,76L244.9,409z"/>
<path id="Form_3_kopiera" class="st1" d="M129.3,134.1l111.1,106.6l-23.7-85.1L129.3,134.1z"/>
<path id="Form_4_kopiera" class="st1" d="M130.1,134.8l32.6,69.1l74.4,41.9l1.4-1.4l-5.5-4.8l7.5,1.2L130.1,134.8z"/>
<path id="Form_5_kopiera" class="st1" d="M129.3,134.1l20,76l11.9-7L129.3,134.1z M130.1,134.8l32.6,69.1l74.4,41.9l1.4-1.4
	l-5.5-4.8l7.5,1.2L130.1,134.8z M129.3,134.1l111.1,106.6l-23.7-84.1L129.3,134.1z"/>
<path id="Form_3_kopiera_2" class="st1" d="M84.2,247.6l154-0.4L162,202.4L84.2,247.6z"/>
<path id="Form_4_kopiera_2" class="st1" d="M85.2,247.6l71.1,26.8l82.9-21.2v-2l-8,0l7-4L85.2,247.6z"/>
<path id="Form_5_kopiera_2" class="st1" d="M84.2,247.6l66.1,39.8l4-13L84.2,247.6z M85.2,247.6l71.1,26.8l82.9-21.2v-2l-8,0l7-4
	L85.2,247.6z M84.2,247.6l154-0.4L162,203.4L84.2,247.6z"/>
<path id="Form_3_kopiera_3" class="st1" d="M130.7,361.3l109.2-108.6l-85.6,21.7L130.7,361.3z"/>
<path id="Form_4_kopiera_3" class="st1" d="M131.4,360.6l69.8-30.9l43.6-73.4l-1.4-1.4l-6,6.4l2.4-8.5L131.4,360.6z"/>
<path id="Form_5_kopiera_3" class="st1" d="M130.7,361.3l76.4-18.2l-6.7-12L130.7,361.3z M131.4,360.6l69.8-30.9l43.6-73.4l-1.4-1.4
	l-6,6.4l2.4-8.5L131.4,360.6z M130.7,361.3l109.2-108.6l-85.6,21.7L130.7,361.3z"/>
<path id="Form_3_kopiera_5" class="st1" d="M362.7,361L251.2,254.5l23.8,85L362.7,361z"/>
<path id="Form_4_kopiera_5" class="st1" d="M362,360.3l-32.7-69l-74.6-41.9l-1.4,1.4l6.5,5.8l-8.5-2.2L362,360.3z"/>
<path id="Form_5_kopiera_5" class="st1" d="M362.7,361l-20-75.9l-11.9,7L362.7,361z M362,360.3l-32.7-69l-74.6-41.9l-1.4,1.4
	l6.5,5.8l-8.5-2.2L362,360.3z M362.7,361L251.2,254.5l22.8,84L362.7,361z"/>
<path id="Form_3_kopiera_5-2" class="st1" d="M408,247.6L253.5,248l76.3,44.8L408,247.6z"/>
<path id="Form_4_kopiera_5-2" class="st1" d="M407,247.6l-72.3-26.8L252.5,242l0,2l8,0l-7,4L407,247.6z"/>
<path id="Form_5_kopiera_5-2" class="st1" d="M408,247.6l-67.3-40.8l-4,14L408,247.6z M407,247.6l-72.3-26.8L252.5,242l0,2l8,0l-7,4
	L407,247.6z M408,247.6L253.5,248l76.3,43.8L408,247.6z"/>
<path id="Form_3_kopiera_5-3" class="st1" d="M361.3,134L251.8,242.5l85.9-21.7L361.3,134z"/>
<path id="Form_4_kopiera_5-3" class="st1" d="M360.6,134.7l-71,30.9l-42.7,73.4l1.4,1.4l6-6.3l-2.4,8.5L360.6,134.7z"/>
<path id="Form_5_kopiera_5-3" class="st1" d="M361.3,134l-77.6,18.2l6.8,12L361.3,134z M360.6,134.7l-71,30.9l-43.7,74.4l2.4,0.4
	l6-6.3l-2.4,8.5L360.6,134.7z M361.3,134L251.8,242.5l84.9-21.7L361.3,134z"/>
</svg>
