<svg xmlns="http://www.w3.org/2000/svg" width="250" height="250" xmlns:v="https://vecta.io/nano"><circle cx="125" cy="125" r="119.608" fill="#1e65f3" stroke="#fff" stroke-width=".784"/><path d="M174.241 65.068l-15.627 7.409c-.065.032-.162.097-.194.162-.065.065-.097.129-.129.226s-.032.162-.032.259.032.162.065.259l23.747 50.051c8.832 18.636 6.471 32.742-6.956 39.148-10.871 5.144-20.221 1.553-27.533-11l-28.147-59.304c-11.388-24.039-26.918-30.412-45.359-21.644-11.971 5.694-18.927 15.853-18.797 28.762a.65.65 0 0 1-.129.421.6.6 0 0 1-.388.226c-.162.032-.291.032-.453-.032-.129-.065-.259-.162-.324-.324l-6.147-12.941c-.032-.065-.097-.162-.162-.194a.52.52 0 0 0-.226-.129c-.065-.065-.129-.065-.226-.065s-.162.032-.259.065L31.369 93.83a.5.5 0 0 0-.324.388c-.065.162-.065.356.032.518l43.127 90.945c.065.162.226.291.388.356s.356.065.518-.032l15.627-7.409c.065-.032.162-.097.194-.162a.52.52 0 0 0 .129-.226c.032-.097.032-.162.032-.259s-.032-.162-.065-.259l-23.1-48.659c-9.415-19.865-7.635-34.23 6.762-41.056 11.065-5.241 19.671-1.715 27.403 11.744 0 0 .032.032.032.065l27.856 58.689c10.741 22.647 27.436 30.412 45.036 22.065 13.621-6.471 19.283-16.177 18.927-28.989a.65.65 0 0 1 .129-.421.6.6 0 0 1 .388-.226c.162-.032.291-.032.453.032a.63.63 0 0 1 .324.324l6.212 13.071c.032.065.097.162.162.194.065.065.129.097.226.129s.162.032.259.032.162-.032.259-.065l15.627-7.409c.065-.032.162-.097.194-.162.065-.065.097-.129.129-.226s.032-.162.032-.259-.032-.162-.065-.259l-43.159-90.913a.7.7 0 0 0-.388-.356c-.162-.065-.356-.032-.485.032z" fill="#fff"/></svg>