<svg id="NUKE" xmlns="http://www.w3.org/2000/svg" width="512" height="512" viewBox="0 0 512 512">
<defs>
    <style>
      .cls-1 {
        fill: #fb351f;
      }

      .cls-1, .cls-2 {
        fill-rule: evenodd;
      }

      .cls-2 {
        fill: #fff;
      }
    </style>
  </defs>
  <path id="Full" class="cls-1" d="M11,256c0,135.094,109.906,245,245,245S501,391.094,501,256,391.094,11,256,11,11,120.906,11,256Z"/>
  <path id="NUKE-2" data-name="NUKE" class="cls-2" d="M254.752,445L183.99,371.717V224.434l44.37-19.175L184.006,186.1V88L256,130.312,327.986,88v98.085l-44.37,19.176,44.37,19.175V371.826Zm-48.834-82.126,49.114,50.876,51.026-50.985V238.855L256,217.208l-50.078,21.631V362.875Zm13.2-185.479L256,193.34l36.874-15.928L256,155.734Zm58.491-34.373,28.46,16.721V126.3ZM205.918,126.3v33.441l28.46-16.721Z"/>
</svg>
