<?xml version="1.0" encoding="UTF-8" standalone="no"?>
<svg
   xmlns:dc="http://purl.org/dc/elements/1.1/"
   xmlns:cc="http://creativecommons.org/ns#"
   xmlns:rdf="http://www.w3.org/1999/02/22-rdf-syntax-ns#"
   xmlns:svg="http://www.w3.org/2000/svg"
   xmlns="http://www.w3.org/2000/svg"
   id="svg8"
   version="1.1"
   viewBox="0 0 67.733332 67.733335"
   height="256"
   width="256">
  <defs
     id="defs2" />
  <metadata
     id="metadata5">
    <rdf:RDF>
      <cc:Work
         rdf:about="">
        <dc:format>image/svg+xml</dc:format>
        <dc:type
           rdf:resource="http://purl.org/dc/dcmitype/StillImage" />
        <dc:title></dc:title>
      </cc:Work>
    </rdf:RDF>
  </metadata>
  <g
     transform="translate(0,-229.26665)"
     id="layer1">
    <circle
       r="32.411457"
       cy="263.13333"
       cx="33.866665"
       id="path815"
       style="opacity:1;fill:#20252e;fill-opacity:1;fill-rule:nonzero;stroke:none;stroke-width:2.99606323;stroke-linecap:round;stroke-linejoin:round;stroke-miterlimit:4;stroke-dasharray:none;stroke-dashoffset:0;stroke-opacity:1;paint-order:stroke fill markers" />
    <g
       transform="matrix(0.96193892,0,0,0.96193892,1.2889972,10.014861)"
       id="g1027">
      <path
         style="fill:#ffffff;fill-opacity:1;stroke:none;stroke-width:0.00668776"
         d="m 35.201135,239.39493 c 2.300584,0.45478 4.306924,2.01971 5.323455,4.13973 1.464625,3.063 0.829288,6.46038 -1.671944,8.89473 -0.601893,0.58851 -0.976404,1.12354 -1.210483,1.73881 -0.214002,0.55509 -0.260813,1.692 -0.100317,2.30727 0.361143,1.39106 1.464625,2.48117 2.875743,2.8423 0.514955,0.13376 1.411117,0.12708 1.932757,-0.006 0.789161,-0.20063 1.263989,-0.52164 2.213659,-1.46461 1.083417,-1.09011 1.805692,-1.585 2.976047,-2.01971 1.518119,-0.57514 3.57127,-0.58852 5.102769,-0.0402 3.972528,1.41111 6.07249,5.77153 4.681435,9.68387 -0.99648,2.78881 -3.444205,4.72156 -6.406885,5.05596 -1.765566,0.20062 -3.711702,-0.32102 -5.196391,-1.39107 -0.287573,-0.20732 -0.829275,-0.69553 -1.210482,-1.0834 -0.52164,-0.5484 -0.789149,-0.7691 -1.156976,-0.95636 -1.143609,-0.59521 -2.441042,-0.60859 -3.638144,-0.0335 -0.588526,0.28089 -1.424498,1.11686 -1.718755,1.72544 -0.461461,0.92961 -0.541715,2.12003 -0.214015,3.063 0.167192,0.48821 0.688844,1.30412 1.023227,1.59837 0.434702,0.38121 1.25061,1.3108 1.558247,1.77895 1.518131,2.30059 1.671943,5.24989 0.41465,7.67756 -1.578322,3.02287 -4.908817,4.62124 -8.252705,3.95914 -2.300584,-0.46144 -4.280164,-1.99963 -5.316771,-4.13303 -1.457929,-3.00949 -0.835972,-6.44032 1.598373,-8.83454 0.909542,-0.88946 1.317496,-1.59837 1.478005,-2.56809 0.247446,-1.47801 -0.414651,-2.99612 -1.671944,-3.85216 -1.203799,-0.8159 -2.675108,-0.91621 -3.999288,-0.26081 -0.407954,0.20062 -0.64202,0.39457 -1.471308,1.21716 -1.049975,1.04998 -1.531499,1.39106 -2.601537,1.85252 -2.882427,1.25061 -6.253061,0.5484 -8.460024,-1.75888 -1.825756,-1.91271 -2.5145867,-4.56106 -1.859187,-7.12916 0.728958,-2.85567 3.15662,-5.0827 6.085857,-5.59766 0.675464,-0.11371 2.113329,-0.10032 2.728614,0.0335 1.638501,0.35444 2.681792,0.93629 4.086213,2.27383 0.675464,0.64204 0.963037,0.86942 1.350928,1.05668 1.611753,0.78916 3.437508,0.46144 4.634624,-0.82929 0.71559,-0.7624 1.049974,-1.62512 1.049974,-2.69516 0.0063,-1.26399 -0.341067,-1.95952 -1.57831,-3.20344 -1.116848,-1.11687 -1.62512,-1.87927 -2.059834,-3.09643 -0.541703,-1.51144 -0.541703,-3.48434 0,-5.00245 0.99648,-2.77543 3.470952,-4.74163 6.373442,-5.04927 0.648717,-0.0735 1.631817,-0.0268 2.307281,0.10702 z"
         id="path916" />
      <path
         style="fill:#20252e;fill-opacity:1;stroke:none;stroke-width:0.00668776"
         d="m 32.599598,242.46461 c -1.585006,0.40127 -2.909187,1.73882 -3.283697,3.33051 -0.11371,0.47483 -0.127065,1.54488 -0.02679,1.98626 0.37451,1.67863 1.698691,3.03625 3.343875,3.43751 0.488208,0.12041 1.538195,0.14045 1.999643,0.0335 1.344244,-0.29425 2.507916,-1.21048 3.103126,-2.42766 0.354447,-0.72896 0.461448,-1.29742 0.428017,-2.19358 -0.05344,-1.21048 -0.421334,-2.0799 -1.257306,-2.92924 -0.488208,-0.49489 -1.150292,-0.91623 -1.805692,-1.14361 -0.568462,-0.19394 -1.899326,-0.24076 -2.501219,-0.0936 z m 1.986264,1.43788 c 1.598373,0.49489 2.541346,2.22702 2.059834,3.79864 -0.561779,1.85251 -2.614917,2.74199 -4.340368,1.87926 -0.448081,-0.22069 -1.123545,-0.88278 -1.344231,-1.3108 -0.441397,-0.8761 -0.441397,-1.97288 0,-2.84898 0.200623,-0.38121 0.862719,-1.05667 1.257294,-1.27068 0.708907,-0.38789 1.605069,-0.48152 2.367471,-0.24744 z"
         id="path918" />
      <path
         style="fill:#20252e;fill-opacity:1;stroke:none;stroke-width:0.00668776"
         d="m 49.111678,258.57543 c -1.538182,0.39458 -2.715234,1.46463 -3.223506,2.93594 -0.173875,0.50157 -0.187255,0.62864 -0.187255,1.48467 0.0063,0.84935 0.02009,0.9831 0.187255,1.43788 0.267522,0.72227 0.548399,1.17036 1.090114,1.70537 0.541703,0.53502 1.009847,0.83598 1.712058,1.09011 0.441398,0.1605 0.581843,0.18057 1.424498,0.18057 0.782465,0 1.00986,-0.0268 1.404434,-0.14713 0.66878,-0.21402 1.26399,-0.58184 1.805693,-1.12355 0.535019,-0.5417 0.835971,-1.01654 1.090101,-1.71875 0.227395,-0.64872 0.280889,-1.7455 0.11371,-2.49454 -0.354447,-1.61175 -1.705374,-2.95599 -3.343887,-3.34388 -0.488196,-0.12041 -1.618437,-0.12041 -2.073202,-0.006 z m 2.126709,1.51144 c 0.775781,0.29426 1.491372,1.00985 1.785629,1.79232 0.220698,0.58183 0.254142,1.35761 0.07353,1.93946 -0.38789,1.27735 -1.457928,2.12671 -2.795488,2.20695 -2.347395,0.13376 -3.965845,-2.37416 -2.88911,-4.48749 0.200635,-0.3812 0.862719,-1.05667 1.257306,-1.27067 0.749021,-0.40795 1.778932,-0.48152 2.568093,-0.18057 z"
         id="path920" />
      <path
         style="fill:#20252e;fill-opacity:1;stroke:none;stroke-width:0.00668776"
         d="m 16.542282,258.90983 c -1.538196,0.39457 -2.688488,1.43117 -3.23019,2.92924 -0.160508,0.44808 -0.180572,0.57514 -0.180572,1.45793 0,0.88278 0.02009,1.00984 0.180572,1.45792 0.254129,0.70891 0.555082,1.18374 1.090101,1.71876 0.869403,0.86941 1.732135,1.24392 2.976048,1.29074 0.876099,0.0335 1.411118,-0.0668 2.086582,-0.37452 1.210495,-0.55508 2.186899,-1.7455 2.494535,-3.03623 0.11371,-0.48153 0.127078,-1.55157 0.02678,-1.99296 -0.367827,-1.67863 -1.692007,-3.03624 -3.343887,-3.43751 -0.521639,-0.12707 -1.618437,-0.13375 -2.099949,-0.0134 z m 2.106645,1.50474 c 1.718754,0.66208 2.487839,2.6283 1.671931,4.2668 -0.247446,0.50157 -0.856035,1.11016 -1.357611,1.35761 -1.705375,0.85603 -3.765209,-0.0268 -4.326988,-1.85251 -0.508259,-1.63851 0.468145,-3.39069 2.146772,-3.86552 0.494905,-0.13376 1.384371,-0.0936 1.865896,0.0936 z"
         id="path922" />
      <path
         style="fill:#20252e;fill-opacity:1;stroke:none;stroke-width:0.00668776"
         d="m 33.061046,275.00727 c -1.691995,0.41464 -3.029555,1.73882 -3.417445,3.37062 -0.147129,0.63534 -0.100318,1.83246 0.09362,2.44105 0.207319,0.64202 0.588526,1.24392 1.116849,1.77224 0.862731,0.86274 1.732134,1.23725 2.955997,1.29075 1.217166,0.0467 2.140088,-0.24076 3.042934,-0.95635 0.735654,-0.57514 1.344231,-1.53818 1.558246,-2.45441 0.120407,-0.52833 0.127065,-1.57162 0.0063,-2.05983 -0.374511,-1.53818 -1.384358,-2.66841 -2.87573,-3.23019 -0.481525,-0.18057 -0.642033,-0.20064 -1.377688,-0.2207 -0.461448,-0.0134 -0.956353,0.006 -1.103481,0.0469 z m 1.738818,1.43118 c 0.548399,0.14713 0.963037,0.38789 1.404434,0.82928 1.571626,1.57163 0.989784,4.22667 -1.103481,5.0292 -1.538183,0.58852 -3.363938,-0.24076 -3.945781,-1.79901 -0.869402,-2.30728 1.257306,-4.68144 3.644828,-4.05947 z"
         id="path924" />
    </g>
  </g>
</svg>
