<svg id="OAX" xmlns="http://www.w3.org/2000/svg" width="512" height="512" viewBox="0 0 512 512">
  <defs>
    <style>
      .cls-1 {
        fill: #161c32;
      }

      .cls-1, .cls-2 {
        fill-rule: evenodd;
      }

      .cls-2 {
        fill: #fff;
      }
    </style>
  </defs>
  <path id="Full" class="cls-1" d="M11,256c0,135.094,109.906,245,245,245S501,391.094,501,256,391.094,11,256,11,11,120.906,11,256Z"/>
  <path id="OAX-2" data-name="OAX" class="cls-2" d="M366.176,145.1a150.085,150.085,0,0,1,44.807,110.907,156.047,156.047,0,0,1-44.807,110.907c-29.869,31.559-66.693,45.1-110.186,45.1A153.527,153.527,0,0,1,101,256.008a148.717,148.717,0,0,1,28.543-90.319l38.005,38.253a102.1,102.1,0,0,0-14.938,53.434,106.765,106.765,0,0,0,29.869,73.976A101.36,101.36,0,0,0,326.448,334.4q1.543-1.49,3.023-3.043a100.379,100.379,0,0,0,29.869-73.976A106.769,106.769,0,0,0,329.471,183.4a99.062,99.062,0,0,0-73.495-30.065,94.441,94.441,0,0,0-51.609,13.694l-38-38.252a146.442,146.442,0,0,1,89.733-28.73A149.083,149.083,0,0,1,366.176,145.1Z"/>
</svg>
