<?xml version="1.0" encoding="utf-8"?>
<!-- Generator: Adobe Illustrator 22.0.0, SVG Export Plug-In . SVG Version: 6.00 Build 0)  -->
<svg version="1.1" id="OAX" xmlns="http://www.w3.org/2000/svg" xmlns:xlink="http://www.w3.org/1999/xlink" x="0px" y="0px"
	 viewBox="0 0 490 490" style="enable-background:new 0 0 490 490;" xml:space="preserve">
<style type="text/css">
	.st0{fill:#161C32;}
	.st1{fill:#FFFFFF;}
</style>
<path id="Full" class="st0" d="M0,245c0,135.1,109.9,245,245,245s245-109.9,245-245S380.1,0,245,0S0,109.9,0,245z"/>
<path id="OAX-2" class="st1" d="M355.2,134.1c29.7,29.2,45.9,69.3,44.8,110.9c0.4,41.5-15.7,81.4-44.8,110.9
	C325.3,387.5,288.5,401,245,401c-84.8,0.8-154.2-67.3-155-152c0-1.3,0-2.6,0-4c-0.6-32.4,9.4-64.1,28.5-90.3l38,38.3
	c-9.8,16.1-15,34.6-14.9,53.4c0,27.6,10.7,54.1,29.9,74c38.6,40.6,102.7,42.2,143.3,3.7c0.2-0.2,0.4-0.4,0.7-0.6c1-1,2-2,3-3
	c19.7-19.5,30.6-46.2,29.9-74c0-27.6-10.7-54.1-29.9-74c-19.2-19.8-45.9-30.7-73.5-30.1c-18.2-0.5-36.1,4.3-51.6,13.7l-38-38.3
	c25.9-19.2,57.5-29.3,89.7-28.7C286.5,88.1,326.3,104.5,355.2,134.1z"/>
</svg>
