<?xml version="1.0" encoding="UTF-8" standalone="no"?>
<svg
   xmlns:dc="http://purl.org/dc/elements/1.1/"
   xmlns:cc="http://creativecommons.org/ns#"
   xmlns:rdf="http://www.w3.org/1999/02/22-rdf-syntax-ns#"
   xmlns:svg="http://www.w3.org/2000/svg"
   xmlns="http://www.w3.org/2000/svg"
   id="svg8"
   version="1.1"
   viewBox="0 0 67.733332 67.733335"
   height="256"
   width="256">
  <defs
     id="defs2" />
  <metadata
     id="metadata5">
    <rdf:RDF>
      <cc:Work
         rdf:about="">
        <dc:format>image/svg+xml</dc:format>
        <dc:type
           rdf:resource="http://purl.org/dc/dcmitype/StillImage" />
        <dc:title></dc:title>
      </cc:Work>
    </rdf:RDF>
  </metadata>
  <g
     transform="translate(0,-229.26665)"
     id="layer1">
    <circle
       r="32.411457"
       cy="263.13333"
       cx="33.866665"
       id="path815"
       style="opacity:1;fill:#141414;fill-opacity:1;fill-rule:nonzero;stroke:none;stroke-width:6.23717594;stroke-linecap:round;stroke-linejoin:round;stroke-miterlimit:4;stroke-dasharray:none;stroke-dashoffset:0;stroke-opacity:1;paint-order:stroke fill markers" />
    <path
       id="path878"
       d="m 18.156037,262.33395 c 0,1.25559 -1.015829,2.27411 -2.270676,2.27411 -1.253752,0 -2.270677,-1.01852 -2.270677,-2.27411 0,-1.2556 1.016925,-2.27301 2.270677,-2.27301 1.254847,0 2.270676,1.01741 2.270676,2.27301 m 36.085352,0 c 0,1.25559 -1.016925,2.27411 -2.270128,2.27411 -1.2543,0 -2.271225,-1.01852 -2.271225,-2.27411 0,-1.2556 1.016925,-2.27301 2.271225,-2.27301 1.253203,0 2.270128,1.01741 2.270128,2.27301 m -18.042677,8.97165 c 0,1.25543 -1.016801,2.27385 -2.270401,2.27385 -1.254148,0 -2.270952,-1.01842 -2.270952,-2.27385 0,-1.25544 1.016804,-2.27329 2.270952,-2.27329 1.2536,0 2.270401,1.01785 2.270401,2.27329 m -9.082706,-4.42396 c 0,1.25504 -1.016255,2.27357 -2.270952,2.27357 -1.254147,0 -2.270403,-1.01853 -2.270403,-2.27357 0,-1.25614 1.016256,-2.27358 2.270403,-2.27358 1.254697,0 2.270952,1.01744 2.270952,2.27358 m 18.042677,0 c 0,1.25504 -1.016805,2.27357 -2.270403,2.27357 -1.254697,0 -2.270952,-1.01853 -2.270952,-2.27357 0,-1.25614 1.016255,-2.27358 2.270952,-2.27358 1.253598,0 2.270403,1.01744 2.270403,2.27358 m -27.739081,2.33556 c 0,0.84692 -0.686306,1.53566 -1.533412,1.53566 -0.848212,0 -1.535071,-0.68874 -1.535071,-1.53566 0,-0.84913 0.686859,-1.53674 1.535071,-1.53674 0.847106,0 1.533412,0.68761 1.533412,1.53674 m 36.085351,0 c 0,0.84692 -0.687287,1.53566 -1.53424,1.53566 -0.847507,0 -1.53424,-0.68874 -1.53424,-1.53566 0,-0.84913 0.686733,-1.53674 1.53424,-1.53674 0.846953,0 1.53424,0.68761 1.53424,1.53674 m -18.042675,9.09262 c 0,0.84857 -0.687593,1.53731 -1.533688,1.53731 -0.846651,0 -1.534795,-0.68874 -1.534795,-1.53731 0,-0.84803 0.688144,-1.53509 1.534795,-1.53509 0.846095,0 1.533688,0.68706 1.533688,1.53509 m -9.082708,-4.54547 c 0,0.84833 -0.686734,1.53564 -1.533688,1.53564 -0.847507,0 -1.534794,-0.68731 -1.534794,-1.53564 0,-0.8489 0.687287,-1.53676 1.534794,-1.53676 0.846954,0 1.533688,0.68786 1.533688,1.53676 m 18.042676,0 c 0,0.84833 -0.687715,1.53564 -1.533412,1.53564 -0.847908,0 -1.535072,-0.68731 -1.535072,-1.53564 0,-0.8489 0.687164,-1.53676 1.535072,-1.53676 0.845697,0 1.533412,0.68786 1.533412,1.53676 m -27.73908,0.85885 c 0,0.44201 -0.356966,0.79968 -0.797524,0.79968 -0.441122,0 -0.798088,-0.35767 -0.798088,-0.79968 0,-0.44087 0.356966,-0.79796 0.798088,-0.79796 0.440558,0 0.797524,0.35709 0.797524,0.79796 m 36.085353,0 c 0,0.44201 -0.357785,0.79968 -0.797524,0.79968 -0.441436,0 -0.798088,-0.35767 -0.798088,-0.79968 0,-0.44087 0.356652,-0.79796 0.798088,-0.79796 0.439739,0 0.797524,0.35709 0.797524,0.79796 m -18.042677,9.09457 c 0,0.44127 -0.357783,0.79938 -0.797523,0.79938 -0.44087,0 -0.798088,-0.35811 -0.798088,-0.79938 0,-0.44128 0.357218,-0.79826 0.798088,-0.79826 0.43974,0 0.797523,0.35698 0.797523,0.79826 m -9.082708,-4.54657 c 0,0.44071 -0.35753,0.79882 -0.798088,0.79882 -0.439993,0 -0.797522,-0.35811 -0.797522,-0.79882 0,-0.44184 0.357529,-0.79882 0.797522,-0.79882 0.440558,0 0.798088,0.35698 0.798088,0.79882 m 18.042676,0 c 0,0.44071 -0.357784,0.79882 -0.797523,0.79882 -0.442001,0 -0.798088,-0.35811 -0.798088,-0.79882 0,-0.44184 0.356087,-0.79882 0.798088,-0.79882 0.439739,0 0.797523,0.35698 0.797523,0.79882 m -6.75066,-34.34927 c 0,1.6972 -1.374038,3.07233 -3.067658,3.07233 -1.69527,0 -3.069309,-1.37513 -3.069309,-3.07233 0,-1.69676 1.374039,-3.07244 3.069309,-3.07244 1.69362,0 3.067658,1.37568 3.067658,3.07244 m 0,9.09422 c 0,1.69696 -1.374038,3.07239 -3.067658,3.07239 -1.69527,0 -3.069309,-1.37543 -3.069309,-3.07239 0,-1.69642 1.374039,-3.07239 3.069309,-3.07239 1.69362,0 3.067658,1.37597 3.067658,3.07239 m 0,8.97194 c 0,1.69616 -1.374038,3.07183 -3.067658,3.07183 -1.69527,0 -3.069309,-1.37567 -3.069309,-3.07183 0,-1.69728 1.374039,-3.07297 3.069309,-3.07297 1.69362,0 3.067658,1.37569 3.067658,3.07297 m 18.042676,-8.97194 c 0,1.69696 -1.373793,3.07239 -3.068208,3.07239 -1.694966,0 -3.068756,-1.37543 -3.068756,-3.07239 0,-1.69642 1.37379,-3.07239 3.068756,-3.07239 1.694415,0 3.068208,1.37597 3.068208,3.07239 m -36.085354,0 c 0,1.69696 -1.373487,3.07239 -3.068206,3.07239 -1.69472,0 -3.068758,-1.37543 -3.068758,-3.07239 0,-1.69642 1.374038,-3.07239 3.068758,-3.07239 1.694719,0 3.068206,1.37597 3.068206,3.07239 m 9.082708,-4.54713 c 0,1.69671 -1.37361,3.07238 -3.06848,3.07238 -1.694874,0 -3.068483,-1.37567 -3.068483,-3.07238 0,-1.69783 1.373609,-3.07239 3.068483,-3.07239 1.69487,0 3.06848,1.37456 3.06848,3.07239 m 0,8.97109 c 0,1.6969 -1.37361,3.07266 -3.06848,3.07266 -1.694874,0 -3.068483,-1.37576 -3.068483,-3.07266 0,-1.69633 1.373609,-3.0721 3.068483,-3.0721 1.69487,0 3.06848,1.37577 3.06848,3.0721 m 18.042677,-8.97109 c 0,1.69671 -1.374037,3.07238 -3.068758,3.07238 -1.694719,0 -3.068206,-1.37567 -3.068206,-3.07238 0,-1.69783 1.373487,-3.07239 3.068206,-3.07239 1.694721,0 3.068758,1.37456 3.068758,3.07239 m 0,8.97109 c 0,1.6969 -1.374037,3.07266 -3.068758,3.07266 -1.694719,0 -3.068206,-1.37576 -3.068206,-3.07266 0,-1.69633 1.373487,-3.0721 3.068206,-3.0721 1.694721,0 3.068758,1.37577 3.068758,3.0721"
       style="fill:#ffffff;fill-rule:evenodd;stroke-width:0.11473457" />
  </g>
</svg>
