<?xml version="1.0" encoding="UTF-8" standalone="no"?>
<svg
   xmlns:dc="http://purl.org/dc/elements/1.1/"
   xmlns:cc="http://creativecommons.org/ns#"
   xmlns:rdf="http://www.w3.org/1999/02/22-rdf-syntax-ns#"
   xmlns:svg="http://www.w3.org/2000/svg"
   xmlns="http://www.w3.org/2000/svg"
   id="svg1778"
   version="1.1"
   viewBox="0 0 67.733332 67.733335"
   height="256"
   width="256">
  <title
     id="title1539">OM</title>
  <defs
     id="defs1772" />
  <metadata
     id="metadata1775">
    <rdf:RDF>
      <cc:Work
         rdf:about="">
        <dc:format>image/svg+xml</dc:format>
        <dc:type
           rdf:resource="http://purl.org/dc/dcmitype/StillImage" />
        <dc:title>OM</dc:title>
      </cc:Work>
    </rdf:RDF>
  </metadata>
  <g
     transform="translate(0,-229.26665)"
     id="layer1">
    <g
       id="g1471">
      <g
         id="g1429">
        <g
           id="g1388">
          <g
             id="g1348">
            <g
               id="g1309">
              <g
                 id="g1271">
                <path
                   style="display:inline;opacity:1;fill:#ed1b6c;fill-opacity:1;fill-rule:evenodd;stroke:none;stroke-width:0;stroke-miterlimit:4;stroke-dasharray:none;stroke-opacity:1"
                   d="m 1.5317715,263.19039 c 0,17.87181 14.5396475,32.41146 32.4114575,32.41146 17.871811,0 32.411459,-14.53965 32.411459,-32.41146 0,-17.87181 -14.539648,-32.41146 -32.411459,-32.41146 -17.87181,0 -32.4114575,14.53965 -32.4114575,32.41146 z"
                   class="cls-1"
                   id="Full" />
                <path
                   style="fill:#ffffff;fill-opacity:1;stroke-width:0.02885181"
                   d="m 40.092359,251.36403 c -0.06231,0.0434 -0.09437,0.0661 -0.127522,0.0889 -0.260817,0.18 -0.521647,0.361 -0.783622,0.53998 -0.02193,0.0144 -0.05074,0.0185 -0.07677,0.0279 0.01675,-0.0176 0.03206,-0.0394 0.05195,-0.0528 0.280439,-0.20173 0.561168,-0.40344 0.842753,-0.60206 0.01326,-0.0109 0.03929,-0.002 0.09317,-0.002 z"
                   id="path1013" />
                <path
                   style="fill:#ffffff;fill-opacity:1;stroke-width:0.02885181"
                   d="m 37.145432,254.98968 c -0.0176,-0.003 -0.02169,-0.003 -0.02688,-0.005 0.0024,-0.0125 0.0012,-0.0279 0.0072,-0.0362 0.09003,-0.11173 0.18234,-0.22138 0.274377,-0.33205 0.0048,-0.005 0.01241,-0.007 0.01964,-0.0109 0.0012,0.003 0.0048,0.009 0.0048,0.0109 -0.09317,0.12723 -0.187547,0.25239 -0.278717,0.37343 z"
                   id="path1015" />
                <path
                   style="fill:#ffffff;fill-opacity:1;stroke-width:0.02885181"
                   d="m 37.542149,254.28244 c -0.01699,-0.005 -0.0211,-0.006 -0.02627,-0.008 0.0037,-0.0121 0.0037,-0.0277 0.01085,-0.0353 0.101008,-0.10213 0.203697,-0.20179 0.306704,-0.30261 0.0048,-0.005 0.12088,-0.13455 0.128678,-0.13796 0.04038,-0.0385 0.307849,-0.32061 0.02254,0 -0.105585,0.11715 -0.339585,0.37253 -0.44259,0.48373 z"
                   id="path1017" />
                <path
                   style="fill:#ffffff;fill-opacity:1;stroke-width:0.02885181"
                   d="m 37.714388,253.35623 c 0.0681,-0.0897 0.324879,-0.35967 0.699081,-0.72149 0.10679,-0.0961 0.289382,-0.26642 0.397872,-0.36117 0.0048,-0.005 0.0681,-0.0521 0.07594,-0.0549 2.89e-4,0.005 -0.05074,0.0569 -0.05219,0.0588 -0.112214,0.11089 -0.890376,0.79345 -1.120614,1.07891 z"
                   id="path1019" />
                <path
                   style="fill:#ffffff;fill-opacity:1;stroke-width:0.02885181"
                   d="m 37.404526,255.3321 c -0.07268,0.10763 -0.145132,0.21618 -0.218704,0.32376 -0.0061,0.009 -0.02483,0.0109 -0.03809,0.0165 -0.0012,-0.009 -0.0048,-0.0228 -0.0012,-0.0279 0.08485,-0.10454 0.171962,-0.20791 0.257937,-0.31237 z"
                   id="path1021" />
                <path
                   style="fill:#ffffff;fill-opacity:1;stroke-width:0.02885181"
                   d="m 35.900189,256.11898 c -0.06087,0.11462 -0.12146,0.23028 -0.183208,0.345 -0.0048,0.009 -0.02339,0.014 -0.0364,0.0205 -0.0024,-0.009 -0.0072,-0.0221 -0.0037,-0.0277 0.07352,-0.11282 0.149157,-0.2249 0.223597,-0.33785 z"
                   id="path1023" />
                <path
                   style="fill:#ffffff;fill-opacity:1;stroke-width:0.02885181"
                   d="m 50.200875,276.95878 c 0.03399,-0.009 0.06726,-0.0228 0.101604,-0.0269 0.05882,-0.007 0.118001,-0.008 0.176868,-0.0125 -0.06002,0.0135 -0.118843,0.03 -0.17917,0.0394 -0.03206,0.005 -0.06725,-10e-4 -0.100401,-10e-4 z"
                   id="path1025" />
                <path
                   style="fill:#ffffff;fill-opacity:1;stroke-width:0.02885181"
                   d="m 40.327214,251.22539 c -0.0072,0.007 -0.01326,0.0165 -0.02158,0.0207 -0.03315,0.0176 -0.06725,0.0332 -0.101605,0.0508 0,-0.008 -0.0024,-0.0228 0,-0.0248 0.03833,-0.0185 0.07786,-0.0361 0.115952,-0.0538 0.0037,0.002 0.0048,0.005 0.0072,0.007 z"
                   id="path1027" />
                <path
                   style="fill:#ffffff;fill-opacity:1;stroke-width:0.02885181"
                   d="m 38.950121,252.19774 c -0.01964,-0.0248 -0.02568,-0.032 -0.02568,-0.0332 0.0352,-0.0332 0.07039,-0.0661 0.10643,-0.0983 0.0012,-0.001 0.01362,0.0109 0.01362,0.0109 -0.02881,0.0382 -0.05918,0.0754 -0.09437,0.11993 z"
                   id="path1029" />
                <path
                   style="fill:#ffffff;fill-opacity:1;stroke-width:0.02885181"
                   d="m 37.65611,255.07967 c -0.03953,0.032 -0.07268,0.0589 -0.10679,0.0858 -0.0037,-0.005 -0.01241,-0.0156 -0.01241,-0.0156 0.03206,-0.0279 0.06401,-0.0558 0.09727,-0.0827 0.0012,-0.001 0.0085,0.005 0.02193,0.0125 z"
                   id="path1031" />
                <path
                   style="fill:#ffffff;fill-opacity:1;stroke-width:0.02885181"
                   d="m 38.083695,254.29559 c 0.01085,-0.0109 0.02363,-0.0217 0.0352,-0.0331 0.01964,-0.0165 0.03929,-0.0332 0.05882,-0.0507 0.0024,0.002 0.0048,0.003 0.0072,0.007 -0.03291,0.0258 -0.06725,0.0517 -0.101248,0.0765 z"
                   id="path1033" />
                <path
                   style="fill:#ffffff;fill-opacity:1;stroke-width:0.02885181"
                   d="m 36.993382,254.71239 c 0.01446,-0.0134 0.02483,-0.0226 0.03604,-0.0331 0.0037,0.003 0.0096,0.0109 0.0085,0.0109 -0.0096,0.0109 -0.0188,0.0227 -0.02881,0.0331 -0.0012,0.001 -0.0096,-0.005 -0.01555,-0.0109 z"
                   id="path1035" />
                <path
                   style="fill:#ffffff;fill-opacity:1;stroke-width:0.02885181"
                   d="m 39.096108,253.33356 c 0.01266,-0.001 0.02507,-0.002 0.03748,-0.003 -0.02712,0.0197 -0.05508,0.0392 -0.08196,0.0589 0.01446,-0.0185 0.03001,-0.0373 0.04447,-0.0558 z"
                   id="path1037" />
                <path
                   style="fill:#ffffff;fill-opacity:1;stroke-width:0.02885181"
                   d="m 37.682941,273.24419 c 0.02169,0.0228 0.04243,0.0455 0.06401,0.0683 -0.02158,-0.0228 -0.04243,-0.0455 -0.06401,-0.0683 z"
                   id="path1039" />
                <path
                   style="fill:#ffffff;fill-opacity:1;stroke-width:0.02885181"
                   d="m 35.574453,256.27664 c -0.0096,0.0109 -0.06581,0.14259 -0.07304,0.15294 -0.0037,-0.006 -0.01085,-0.0144 -0.0085,-0.0187 0.0048,-0.0109 0.07389,-0.12499 0.08136,-0.13431 z"
                   id="path1041" />
                <path
                   style="fill:#ffffff;fill-opacity:1;stroke-width:0.02885181"
                   d="m 37.385771,255.08587 c 0.01965,-0.0109 0.03833,-0.0207 0.05798,-0.0311 -0.0188,0.0109 -0.03833,0.0207 -0.05798,0.0311 z"
                   id="path1043" />
                <path
                   style="fill:#ffffff;fill-opacity:1;stroke-width:0.02885181"
                   d="m 40.405113,251.17888 c -0.02592,0.0156 -0.05195,0.031 -0.07786,0.0466 -0.0024,-0.002 -0.0037,-0.005 -0.0061,-0.007 0.02603,-0.0155 0.0517,-0.031 0.07762,-0.0466 0.0012,0.002 0.0037,0.005 0.0061,0.007 z"
                   id="path1045" />
                <path
                   style="fill:#ffffff;fill-opacity:1;stroke-width:0.02885181"
                   d="m 38.738927,253.92318 c 0.01241,-0.001 0.02507,-0.002 0.03748,-0.003 -0.02193,0.0109 -0.04351,0.0207 -0.06629,0.0311 0.01085,-0.009 0.01965,-0.0187 0.02881,-0.0279 z"
                   id="path1047" />
                <path
                   style="fill:#ffffff;fill-opacity:1;stroke-width:0.02885181"
                   d="m 36.655823,271.84136 c -0.01242,-0.0156 -0.02398,-0.0319 -0.0364,-0.0475 0.0048,-10e-4 0.01205,-0.003 0.01241,-0.002 0.01085,0.0144 0.01965,0.0289 0.03001,0.0434 -0.0024,0.002 -0.0037,0.003 -0.0061,0.006 z"
                   id="path1049" />
                <path
                   style="fill:#ffffff;fill-opacity:1;stroke-width:0.02885181"
                   d="m 37.405394,255.33301 c 0.0085,-0.0144 0.01639,-0.0289 0.02398,-0.0434 0.0037,0.003 0.0085,0.006 0.01242,0.009 -0.01242,0.0109 -0.02483,0.0217 -0.0364,0.034 -8.68e-4,-10e-4 0,0 0,0 z"
                   id="path1051" />
                <path
                   style="fill:#ffffff;fill-opacity:1;stroke-width:0.02885181"
                   d="m 50.200019,276.95774 c -0.03121,0.005 -0.06316,0.009 -0.09437,0.0144 l 0.0012,10e-4 c 0.03086,-0.005 0.06292,-0.009 0.09402,-0.0144 z"
                   id="path1053" />
                <path
                   style="fill:#ffffff;fill-opacity:1;stroke-width:0.02885181"
                   d="m 42.280192,276.97327 c 0.05279,0.0207 0.104378,0.0413 0.157246,0.063 0.0096,0.0109 0.01965,0.0207 0.02917,0.031 l 8.69e-4,-0.001 c -0.223598,-0.093 -0.44634,-0.18621 -0.669937,-0.2793 0.160704,0.062 0.321119,0.12414 0.482691,0.1862 z"
                   id="path1055" />
                <path
                   style="fill:#ffffff;fill-opacity:1;stroke-width:0.02885181"
                   d="m 36.386628,272.1984 c 0.0072,0.0217 0.01555,0.0445 0.02278,0.0661 -0.0085,-0.0217 -0.01555,-0.0445 -0.02278,-0.0661 z"
                   id="path1057" />
                <path
                   style="fill:#ffffff;fill-opacity:1;stroke-width:0.02885181"
                   d="m 50.7029,250.04932 c -0.0061,-0.001 -0.01085,-0.002 -0.0164,-0.003 -0.123195,-0.0152 -0.380843,0.0952 -1.356615,-0.1641 -0.114504,-0.0303 -0.2161,-0.054 -0.30727,-0.072 -0.194754,-0.0195 -0.388062,-0.0353 -0.573572,-0.0458 -0.248414,0.0197 -0.391521,0.0918 -0.725332,0.0537 -0.182641,-0.0208 -0.369018,0.003 -0.517609,0.0387 -0.325447,0.0762 -0.470566,0.20034 0,0 0.0072,-0.002 0.01326,-0.006 0.02025,-0.008 0.231964,-0.0997 0.693887,-0.11355 1.222742,-0.0837 0.140214,-0.0109 0.313609,-0.006 0.573572,0.0458 0.616854,0.0617 1.245821,0.15936 1.663884,0.23607 0.0061,7.3e-4 0.01085,0.001 0.0164,0.003 z"
                   id="path1059" />
                <path
                   style="clip-rule:evenodd;fill:#ffffff;fill-opacity:1;fill-rule:evenodd;stroke-width:0.02885181"
                   d="m 59.973566,272.20483 c 0.04556,-0.0595 0.09112,-0.11908 0.137044,-0.17816 0.02833,-0.0421 0.05593,-0.0833 0.08402,-0.1244 v -7e-5 c 0.05026,-0.0739 0.100161,-0.14745 0.150025,-0.22518 0.03086,-0.0469 0.06461,-0.0921 0.09835,-0.13713 v -4e-5 c 0.03688,-0.0493 0.07388,-0.0986 0.10679,-0.1504 0.107634,-0.17068 0.214365,-0.34238 0.310729,-0.51927 0.03869,-0.0713 0.07786,-0.14224 0.116796,-0.21333 v -6e-5 -5e-5 l 2.88e-4,-4e-5 c 0.152906,-0.27799 0.306114,-0.55626 0.439698,-0.84371 0.118241,-0.25314 0.218981,-0.51492 0.319673,-0.77638 v -2e-5 -2e-5 c 0.03894,-0.10077 0.07762,-0.20136 0.117398,-0.30146 0.01241,-0.0313 0.02483,-0.0626 0.03748,-0.0939 v -2e-5 -3e-5 -3e-5 c 0.05967,-0.1488 0.119447,-0.29818 0.167334,-0.4511 0.100401,-0.32273 0.193597,-0.64755 0.280729,-0.97445 0.0048,-0.0165 0.0085,-0.033 0.01302,-0.0494 l 0.0072,-0.0287 c 0.08738,-0.32983 0.174843,-0.65998 0.241196,-0.99455 0.064,-0.32172 0.106428,-0.64963 0.140792,-0.97756 0.03315,-0.32169 0.06087,-0.6465 0.06316,-0.96925 5.78e-4,-0.13946 0.0024,-0.28286 0.0048,-0.42761 v -1.5e-4 -2e-5 -6e-5 -2e-5 c 0.0048,-0.29528 0.0096,-0.59615 8.56e-4,-0.88067 -0.0085,-0.10956 -0.01555,-0.21939 -0.02217,-0.32923 v -1.3e-4 c -0.01446,-0.23551 -0.02857,-0.47094 -0.0646,-0.70299 -0.09522,-0.62171 -0.213497,-1.23925 -0.332365,-1.85679 -0.359496,-1.85962 -1.275834,-3.57477 -2.417783,-5.06765 -0.977218,-1.27251 -2.052525,-2.39819 -3.388938,-3.31016 -1.918351,-1.31059 -3.934524,-2.16834 -6.26286,-2.50746 -0.391233,-0.0562 -0.785635,-0.0946 -1.179459,-0.13313 -0.09232,-0.008 -0.184364,-0.018 -0.276402,-0.0272 -0.120604,-0.012 -0.241785,-0.0167 -0.362667,-0.0216 -0.05653,-0.002 -0.113057,-0.005 -0.169658,-0.007 h -0.170793 -0.10872 -0.04641 v 0 0 c -0.02592,0.009 -0.05195,0.0185 -0.07871,0.0259 -0.0048,7.2e-4 -0.0096,-0.002 -0.01507,-0.005 -0.0024,-0.001 -0.0048,-0.002 -0.0072,-0.003 0.0037,-0.003 0.0085,-0.006 0.01205,-0.008 0.0037,-0.002 0.0072,-0.006 0.01205,-0.008 h -0.07762 c -0.06026,0.003 -0.120893,0.008 -0.181472,0.012 -0.09003,0.006 -0.180326,0.0109 -0.270062,0.0182 -0.287648,0.0228 -0.575584,0.0466 -0.862376,0.0724 -0.05943,0.005 -0.118844,0.009 -0.178302,0.0149 -0.188981,0.0152 -0.377382,0.0303 -0.564062,0.0587 -0.28995,0.0434 -0.578766,0.0983 -0.863533,0.16653 -0.38517,0.0921 -0.768315,0.19655 -1.1483,0.30827 -0.09256,0.0275 -0.181183,0.0674 -0.270051,0.10715 -0.06773,0.0307 -0.136176,0.0611 -0.206289,0.0863 -0.09751,0.0347 -0.197346,0.064 -0.29717,0.0934 -0.07557,0.0223 -0.150905,0.0445 -0.225621,0.0691 -0.01844,0.006 -0.03375,0.0213 -0.04906,0.0364 -0.0147,0.0144 -0.02941,0.0289 -0.04724,0.0359 -0.08546,0.0352 -0.171673,0.0684 -0.257936,0.1016 v 0 c -0.131573,0.0507 -0.263132,0.1015 -0.3921,0.15903 -0.235145,0.10454 -0.465094,0.2193 -0.691862,0.33826 -0.283621,0.14895 -0.564061,0.30618 -0.843633,0.46341 -0.02857,0.016 -0.05171,0.0419 -0.07473,0.0679 v 0 0 0 2e-5 c -0.01085,0.0126 -0.02217,0.0252 -0.03399,0.0366 0.0024,10e-4 0.0037,0.003 0.0048,0.005 v 1e-5 c 5.79e-4,8e-4 0.0013,0.001 0.0024,0.002 0.125798,-0.0651 0.251018,-0.13132 0.376226,-0.19749 v 0 c 0.244666,-0.12934 0.489332,-0.25861 0.737747,-0.37974 0.272075,-0.13175 0.547899,-0.25459 0.824011,-0.37747 l 2.77e-4,-10e-6 v -1e-5 c 0.111974,-0.0498 0.223899,-0.0997 0.335547,-0.15005 0.03785,-0.017 0.07533,-0.0346 0.112818,-0.0523 0.104377,-0.0492 0.20888,-0.0984 0.317949,-0.13184 0.0822,-0.0253 0.167334,-0.0422 0.252452,-0.0589 0.109322,-0.0217 0.218403,-0.0431 0.321119,-0.0828 l 0.0164,-0.006 0.01615,-0.006 c 0.189559,-0.0734 0.376515,-0.14574 0.579345,-0.18292 0.18205,-0.0333 0.362666,-0.0759 0.543282,-0.11824 v 0 c 0.111009,-0.026 0.222151,-0.0522 0.333522,-0.0762 0.03748,-0.008 0.07642,-0.008 0.115107,-0.009 0.03724,-9e-4 0.07473,-0.001 0.110768,-0.008 0.07618,-0.0152 0.15234,-0.0339 0.228214,-0.0525 0.125509,-0.031 0.251295,-0.0618 0.378541,-0.0768 0.262842,-0.0318 0.528854,-0.0455 0.793998,-0.0592 0.04472,-0.002 0.08968,-0.005 0.134742,-0.007 0.154063,-0.008 0.308427,-0.012 0.463069,-0.0157 0.07727,-0.002 0.154352,-0.003 0.231685,-0.006 0.03495,-0.001 0.06978,-0.002 0.104742,-0.003 0.103299,-0.003 0.206578,-0.007 0.31044,-0.007 0.05943,0 0.118844,0.003 0.178302,0.006 0.05399,0.002 0.107875,0.006 0.16215,0.006 0.05219,8.4e-4 0.104503,-5.4e-4 0.156377,-0.002 0.07557,-0.002 0.151182,-0.003 0.22678,9e-4 0.335546,0.0228 0.669936,0.0527 1.004326,0.0828 v 0 c 0.02857,0.002 0.05593,0.0132 0.08365,0.0241 0.01206,0.005 0.02278,0.009 0.03435,0.0131 -0.01362,3.6e-4 -0.02712,8.3e-4 -0.04038,0.001 -0.02652,9.1e-4 -0.05279,0.002 -0.07967,0.002 -0.03315,10e-4 -0.06641,10e-4 -0.09956,0 -0.09727,-0.003 -0.194165,-0.008 -0.291396,-0.0138 -0.193309,-0.009 -0.386617,-0.0192 -0.580214,-0.0233 -0.09955,-0.002 -0.199081,-0.002 -0.298326,-0.003 0.0048,-9e-4 0.01085,-0.002 0.01555,-0.003 0.0048,-0.001 0.01085,-0.002 0.01555,-0.003 -0.0061,-0.002 -0.01205,-0.005 -0.01699,-0.008 -0.01217,-0.006 -0.02422,-0.0127 -0.03688,-0.0134 -0.071,-0.002 -0.141951,-0.005 -0.21322,-0.008 v 0 c -0.190127,-0.008 -0.380553,-0.0158 -0.570402,-0.0109 -0.382277,0.0109 -0.764276,0.032 -1.145119,0.0673 -0.158113,0.0143 -0.314778,0.0448 -0.471445,0.0752 -0.07039,0.0137 -0.140793,0.0274 -0.210906,0.0395 -0.05399,0.009 -0.107875,0.0191 -0.161861,0.0287 l -2.9e-4,5e-5 c -0.119446,0.0211 -0.238892,0.0423 -0.358627,0.0644 -0.115108,0.0209 -0.230529,0.0412 -0.345636,0.0613 v 0 c -0.294289,0.0516 -0.588867,0.10328 -0.880275,0.16719 -0.220717,0.0486 -0.433925,0.13035 -0.645132,0.2131 -0.263119,0.10296 -0.525094,0.21054 -0.787068,0.31819 l -2.89e-4,1e-5 c -0.145987,0.0601 -0.292276,0.12006 -0.438553,0.17936 -0.07063,0.0287 -0.142528,0.0551 -0.214365,0.0818 -0.133006,0.0494 -0.266302,0.0987 -0.393546,0.16127 -0.338427,0.16552 -0.67195,0.34138 -0.999131,0.52757 -0.369597,0.21102 -0.738037,0.42721 -1.091181,0.6641 -0.117156,0.0777 -0.216679,0.18169 -0.315924,0.28552 -0.04472,0.0467 -0.08944,0.0933 -0.135598,0.13754 -0.01302,0.0135 -0.02592,0.0267 -0.03869,0.0399 -0.01302,0.0132 -0.02592,0.0264 -0.03894,0.0398 -0.03544,0.0297 -0.071,0.0597 -0.106188,0.0898 l -2.89e-4,7e-5 v 8e-5 c -0.08136,0.069 -0.162729,0.13788 -0.245534,0.20487 -0.06147,0.0499 -0.124063,0.0989 -0.186666,0.14773 v 2e-5 c -0.121472,0.0952 -0.24322,0.19046 -0.35805,0.29291 -0.06111,0.0544 -0.112215,0.12041 -0.163309,0.18644 -0.03375,0.0434 -0.06725,0.0867 -0.103896,0.12701 -0.09607,0.10511 -0.195044,0.2079 -0.29371,0.31055 v 7e-5 l -2.89e-4,5e-5 v 3e-5 6e-5 c -0.04508,0.0467 -0.09004,0.0934 -0.134453,0.14025 0,0.005 0,0.0109 2.89e-4,0.0154 v 2e-5 c 5.78e-4,0.009 8.68e-4,0.0194 -2.89e-4,0.0291 -8.68e-4,0.002 -0.0085,0.005 -0.01592,0.006 -0.0024,4.9e-4 -0.0061,9.8e-4 -0.0085,0.001 0.0024,-0.007 0.0048,-0.0137 0.0072,-0.0207 v -2e-5 c 0.0024,-0.007 0.0048,-0.014 0.0072,-0.0207 -0.04556,0.0507 -0.09208,0.1014 -0.13878,0.15209 0.0096,-0.008 0.01929,-0.0155 0.02917,-0.0228 0.0048,-0.003 0.0085,-0.006 0.01241,-0.009 l 0.0061,0.009 c -0.0072,0.005 -0.01555,0.009 -0.02363,0.0151 -0.0085,0.005 -0.01616,0.009 -0.02398,0.0151 -0.02134,0.028 -0.04207,0.0566 -0.06316,0.0852 -0.04881,0.0669 -0.09787,0.13382 -0.153207,0.19619 -0.07159,0.0808 -0.145409,0.15999 -0.218981,0.2391 -0.118242,0.12744 -0.236881,0.25477 -0.347371,0.38881 -0.07618,0.0928 -0.139937,0.19607 -0.203698,0.29934 v 2e-5 c -0.03495,0.0566 -0.06978,0.11331 -0.106791,0.16818 -0.09256,0.13857 -0.187823,0.28251 -0.283031,0.42649 l -2.89e-4,1.2e-4 c -0.09522,0.144 -0.190427,0.288 -0.283043,0.42663 0.05858,-0.0831 0.132439,-0.1681 0.205433,-0.25237 0.06292,-0.0722 0.124919,-0.14377 0.176566,-0.21295 0.161572,-0.2162 0.327182,-0.42825 0.495962,-0.63824 0.09498,-0.11776 0.194754,-0.23073 0.294578,-0.34391 v -3e-5 l 2.89e-4,-3e-5 v -2e-5 -4e-5 -2e-5 c 0.03086,-0.0349 0.06172,-0.0698 0.09232,-0.10486 0.0072,-0.009 0.01964,-0.0145 0.03146,-0.02 0.0061,-0.002 0.01085,-0.005 0.01616,-0.008 -0.0013,0.006 -0.0024,0.0132 -0.0037,0.02 -0.0024,0.0137 -0.0037,0.0276 -0.01206,0.0359 -0.01699,0.0184 -0.03604,0.0353 -0.05484,0.0522 -0.02772,0.0248 -0.05545,0.0497 -0.07762,0.0792 -0.144842,0.19341 -0.286791,0.38995 -0.425571,0.58752 -0.07594,0.10848 -0.141661,0.21809 -0.207724,0.32812 v 2e-5 c -0.05484,0.0915 -0.109924,0.1832 -0.171094,0.27478 l -0.0024,0.003 c -0.0013,0.002 -0.0024,0.003 -0.0037,0.005 l -0.0013,0.002 -0.0024,0.002 c -0.0048,0.006 -0.01241,0.018 -0.03495,0.05 v -3e-5 l 2.89e-4,-6e-5 v -3e-5 c 0.01085,-0.009 0.01591,-0.014 0.02134,-0.0189 0.0061,-0.006 0.01085,-0.0109 0.02302,-0.0228 v -4e-5 c 0.01844,-0.026 0.03665,-0.0518 0.05508,-0.0778 0.07497,-0.10631 0.149736,-0.21183 0.230528,-0.315 0.07124,-0.0914 0.142239,-0.18332 0.212919,-0.27526 v -2e-5 -2e-5 -4e-5 -2e-5 c 0.223898,-0.29097 0.447785,-0.58199 0.691005,-0.8563 0.333522,-0.37738 0.691295,-0.73434 1.048187,-1.09063 0.02857,-0.0286 0.05713,-0.057 0.0857,-0.0855 0.234855,-0.23479 0.484427,-0.45928 0.737168,-0.67651 0.08485,-0.073 0.17917,-0.13567 0.27322,-0.19816 v -2e-5 -3e-5 c 0.05399,-0.0357 0.107635,-0.0715 0.159559,-0.10896 0.0669,-0.0486 0.132717,-0.0987 0.198504,-0.1489 0.112214,-0.0857 0.224465,-0.17133 0.341886,-0.24833 0.15927,-0.10401 0.321987,-0.20219 0.485005,-0.30039 0.112215,-0.0679 0.224756,-0.13569 0.336126,-0.20544 0.532024,-0.33308 1.091169,-0.61236 1.676287,-0.84097 0.07099,-0.0284 0.141949,-0.057 0.212919,-0.0857 v -2e-5 0 c 0.252741,-0.10202 0.505483,-0.20409 0.76342,-0.29292 0.296314,-0.10202 0.5981,-0.18925 0.899898,-0.27655 v 0 l 2.77e-4,-3e-5 c 0.047,-0.0136 0.09437,-0.0272 0.141383,-0.041 0.169936,-0.0496 0.342754,-0.0962 0.516729,-0.12826 0.10908,-0.0196 0.218704,-0.0328 0.328628,-0.0459 0.09378,-0.0109 0.187824,-0.0225 0.281308,-0.0379 0.071,-0.012 0.140793,-0.0284 0.210905,-0.0451 0.08112,-0.0196 0.162428,-0.0389 0.244655,-0.05 0.22332,-0.0293 0.447496,-0.0523 0.671671,-0.0754 0.09256,-0.009 0.185233,-0.019 0.277849,-0.0291 0.02592,-0.002 0.05159,-0.006 0.07762,-0.009 0.07618,-0.009 0.15205,-0.0189 0.228793,-0.0197 0.132717,-0.001 0.265144,0.001 0.397873,0.003 0.07967,10e-4 0.159258,0.003 0.238893,0.003 0.08629,5.8e-4 0.172817,0.001 0.259082,0.001 0.2161,0.001 0.431911,0.002 0.648011,0.006 0.03315,7.1e-4 0.06641,0.013 0.09957,0.0253 0.01241,0.005 0.02483,0.009 0.03748,0.0133 -0.0317,0.001 -0.06352,0.002 -0.09522,0.005 -0.07473,0.003 -0.149447,0.008 -0.224176,0.006 -0.04062,-9.3e-4 -0.08136,-0.007 -0.121761,-0.0126 -0.04906,-0.007 -0.09775,-0.014 -0.146276,-0.0122 -0.302943,0.009 -0.605019,0.0253 -0.907383,0.0407 -0.04532,0.002 -0.09028,0.005 -0.135321,0.007 -0.04556,0.002 -0.09112,0.005 -0.136755,0.007 -0.213219,0.0109 -0.426426,0.0212 -0.638779,0.0418 -0.12029,0.012 -0.239471,0.0313 -0.358628,0.0514 -0.08546,0.0142 -0.170515,0.0286 -0.25649,0.0397 -0.0675,0.008 -0.135899,0.0141 -0.204277,0.0197 -0.104136,0.008 -0.208313,0.0168 -0.31015,0.0361 -0.09872,0.0185 -0.194754,0.0483 -0.29083,0.0779 -0.06436,0.0199 -0.128679,0.0399 -0.193887,0.0564 -0.0857,0.0217 -0.172238,0.0403 -0.259094,0.0587 -0.156654,0.0334 -0.31332,0.0666 -0.462489,0.11921 -0.05484,0.0193 -0.109322,0.0386 -0.163875,0.0578 -0.58454,0.20592 -1.16908,0.41193 -1.738324,0.656 -0.369018,0.15776 -0.72303,0.35294 -1.076175,0.54776 -0.105344,0.0581 -0.210617,0.11619 -0.316213,0.17323 -0.218692,0.11692 -0.430755,0.24826 -0.636755,0.38584 -0.252742,0.16965 -0.501156,0.34654 -0.744665,0.52963 -0.212063,0.15929 -0.420377,0.32584 -0.622339,0.49858 -0.130414,0.11246 -0.255334,0.23076 -0.380553,0.34921 v 3e-5 c -0.04761,0.0451 -0.09522,0.0902 -0.143107,0.13488 -0.0147,0.0138 -0.02688,0.0315 -0.03894,0.049 -0.0048,0.007 -0.0096,0.0144 -0.01494,0.0214 0.0072,-0.005 0.01591,-0.008 0.02398,-0.013 0.01989,-0.0109 0.03977,-0.0209 0.05689,-0.0356 0.121761,-0.1051 0.24293,-0.21128 0.364113,-0.31748 v -4e-5 c 0.07328,-0.0642 0.146566,-0.1285 0.219849,-0.19246 0.01085,-0.0109 0.02651,-0.0154 0.04182,-0.0205 0.0061,-0.002 0.01241,-0.003 0.0182,-0.006 -0.0048,0.006 -0.0085,0.012 -0.01217,0.0175 -0.0072,0.0109 -0.01446,0.0223 -0.02422,0.0311 -0.08631,0.0798 -0.173686,0.15855 -0.261107,0.23731 v 3e-5 3e-5 4e-5 l -2.89e-4,2e-5 c -0.168502,0.15211 -0.337282,0.30412 -0.499433,0.4629 -0.21927,0.21422 -0.432478,0.43483 -0.645408,0.65531 v 5e-5 l -2.9e-4,4e-5 v 6e-5 4e-5 c -0.07099,0.0733 -0.14166,0.14661 -0.21264,0.21963 -0.0096,0.009 -0.01592,0.0222 -0.02254,0.035 -0.0037,0.007 -0.0072,0.0135 -0.01085,0.0199 0.0061,-0.005 0.01302,-0.008 0.01964,-0.012 0.01266,-0.007 0.02507,-0.0142 0.03519,-0.0245 0.06087,-0.0609 0.121182,-0.12258 0.181484,-0.18438 0.09667,-0.099 0.193308,-0.19801 0.292842,-0.29351 l 0.03375,-0.0326 c 0.252741,-0.24359 0.504905,-0.48673 0.767458,-0.71943 0.175999,-0.15486 0.358339,-0.30276 0.540389,-0.45063 l 2.89e-4,-8e-5 c 0.08052,-0.0654 0.160993,-0.13085 0.241207,-0.19683 0.0085,-0.007 0.01965,-0.009 0.03086,-0.0133 0.0061,-10e-4 0.01205,-0.003 0.01675,-0.005 -0.0037,0.005 -0.0061,0.0109 -0.0085,0.0172 -0.0048,0.0109 -0.01085,0.023 -0.01928,0.0304 -0.07847,0.0658 -0.157823,0.1309 -0.236879,0.1959 v 4e-5 2e-5 h -2.9e-4 v 2e-5 c -0.163006,0.13394 -0.326314,0.26779 -0.482403,0.40916 -0.276401,0.25032 -0.547897,0.50788 -0.807557,0.77475 -0.217259,0.22294 -0.423547,0.4558 -0.630126,0.68861 -0.04243,0.0481 -0.08509,0.0962 -0.127812,0.14412 -0.02568,0.0286 -0.04303,0.0642 -0.06063,0.10014 -0.0135,0.0279 -0.02736,0.0561 -0.04496,0.0809 -0.02543,0.0353 -0.05074,0.0707 -0.07618,0.10607 l -2.9e-4,3.7e-4 c -0.544138,0.75907 -1.090879,1.52151 -1.478652,2.3762 -0.06436,0.1419 -0.354012,0.92471 -0.281019,0.77883 0.283333,-0.61001 0.583962,-1.23506 0.946049,-1.80217 0.526553,-0.82819 1.081371,-1.5769 1.766891,-2.2258 0.0061,-0.006 0.01205,-0.0109 0.0176,-0.0165 v -4e-5 c 0.0061,-0.006 0.01217,-0.0109 0.0176,-0.0165 l 0.0499,-0.0714 c 0.0024,0.006 0.0061,0.0135 0.0096,0.0207 0.0013,0.002 0.0037,0.003 0.0048,0.005 8.68e-4,6.9e-4 0.0013,0.001 0.0024,0.002 0.03894,-0.039 0.07786,-0.0781 0.116794,-0.11727 l 2.9e-4,-9e-5 c 0.116794,-0.11727 0.233421,-0.23439 0.352867,-0.34922 0.09402,-0.0908 0.191572,-0.17905 0.288804,-0.26725 l 2.9e-4,-1.2e-4 v -1.1e-4 l 2.89e-4,-9e-5 c 0.03544,-0.0322 0.071,-0.0642 0.106188,-0.0966 0.0096,-0.0127 0.01904,-0.0248 0.02881,-0.0368 v -2e-5 c 0.0048,-0.007 0.01085,-0.0134 0.01592,-0.02 0.0072,-0.007 0.01531,-0.0142 0.02302,-0.0212 0.0072,-0.007 0.01555,-0.014 0.02339,-0.0212 -0.0024,0.0109 -0.0024,0.022 -0.0037,0.0325 v 0.002 c 0.01531,-0.009 0.03086,-0.0185 0.04556,-0.0289 0.137623,-0.10307 0.274667,-0.20727 0.411711,-0.31151 v -2e-5 c 0.333522,-0.25376 0.667055,-0.50749 1.011835,-0.74356 0.351987,-0.24204 0.731106,-0.44791 1.108779,-0.65066 0.340729,-0.18205 0.687533,-0.35585 1.044715,-0.50272 0.426717,-0.17482 0.861521,-0.3331 1.301508,-0.46757 0.471157,-0.14378 0.947496,-0.27205 1.431055,-0.37239 1.25591,-0.25137 2.524237,-0.3093 3.800939,-0.19758 1.067508,0.0942 2.111079,0.30205 3.128977,0.63824 0.349106,0.11559 0.690704,0.24527 1.024816,0.38862 -0.281597,-0.11692 -0.569533,-0.22083 -0.866426,-0.3082 -0.05026,-0.0165 -0.103896,-0.0364 -0.157812,-0.0563 v -1e-5 c -0.05364,-0.0199 -0.107393,-0.0398 -0.157534,-0.0563 -0.09112,-0.03 -0.200805,-0.0653 -0.292842,-0.0902 -0.0828,-0.0228 -0.167056,-0.0471 -0.251886,-0.0717 -0.193296,-0.0562 -0.390365,-0.1133 -0.581648,-0.15352 -0.347949,-0.0734 -0.796892,-0.16241 -1.148879,-0.20275 -0.569534,-0.0641 -0.968841,-0.0902 -1.577042,-0.1127 -0.04966,0 -0.108237,-3e-4 -0.170516,-6.2e-4 -0.135596,-7.2e-4 -0.286779,-10e-4 -0.392666,6.2e-4 -0.231685,0.005 -0.364401,0.018 -0.589734,0.0398 l -0.01592,0.001 c -0.42239,0.0413 -0.844779,0.0921 -1.265144,0.15621 -0.393546,0.0589 -0.783911,0.13654 -1.173117,0.21619 -0.06605,0.0134 -0.129547,0.0405 -0.193019,0.0679 v 0 c -0.04496,0.0193 -0.09003,0.0387 -0.136466,0.0533 -0.09931,0.0314 -0.199659,0.0602 -0.300062,0.0889 -0.178302,0.051 -0.356314,0.10213 -0.529143,0.16759 -0.409987,0.15413 -0.815924,0.3217 -1.215521,0.50273 -0.347962,0.15723 -0.68956,0.32894 -1.023093,0.51514 -0.223597,0.12427 -0.438252,0.26512 -0.652918,0.40603 v 3e-5 c -0.05858,0.0386 -0.117397,0.0771 -0.176276,0.11534 -0.07594,0.0492 -0.147145,0.10443 -0.218415,0.15966 v 3e-5 c -0.02627,0.0204 -0.05255,0.0406 -0.07871,0.0606 -0.105585,0.0795 -0.210616,0.15904 -0.315925,0.23856 l -5.78e-4,3.9e-4 -5.78e-4,5.3e-4 -2.9e-4,1.4e-4 v 1.2e-4 l -2.88e-4,1.4e-4 c -0.104984,0.0793 -0.20975,0.15868 -0.315057,0.23803 -0.04388,0.0331 -0.08919,0.0649 -0.134452,0.0968 -0.09354,0.0659 -0.187246,0.13199 -0.27034,0.20937 -0.27351,0.2536 -0.5401,0.51492 -0.806402,0.77596 v 4e-5 l -5.78e-4,6.6e-4 c -0.04219,0.0411 -0.08402,0.0822 -0.126088,0.12332 -0.135598,0.13343 -0.26688,0.27101 -0.396427,0.41064 -0.07268,0.079 -0.139924,0.16265 -0.207434,0.24622 v 6e-5 4e-5 c -0.0096,0.0128 -0.02049,0.0254 -0.03062,0.0382 -0.0072,0.008 -0.0072,0.0221 -0.0061,0.0359 2.77e-4,0.007 2.77e-4,0.0137 -2.89e-4,0.02 0.0061,-0.002 0.01386,-0.003 0.02134,-0.005 0.01592,-0.002 0.03206,-0.006 0.03977,-0.015 0.02217,-0.0264 0.04267,-0.0545 0.06292,-0.0826 0.02507,-0.0346 0.05026,-0.0692 0.07871,-0.10056 0.0505,-0.0553 0.10354,-0.10751 0.156955,-0.15962 0.0364,-0.0359 0.07268,-0.0716 0.108237,-0.10824 0.128101,-0.13347 0.255623,-0.26741 0.383145,-0.40116 v -1.1e-4 -1.3e-4 l 2.89e-4,-1e-4 v -1.3e-4 c 0.06207,-0.0651 0.124063,-0.13025 0.1861,-0.19525 l 0.02796,-0.0279 c 0.0072,-0.001 0.01411,-0.003 0.02134,-0.006 0.0096,-0.002 0.02025,-0.006 0.03025,-0.007 0.06954,-0.064 0.137332,-0.12969 0.205421,-0.19538 0.143107,-0.1382 0.285924,-0.27637 0.441723,-0.39835 0.404791,-0.31653 0.822275,-0.61758 1.24264,-0.91342 0.203987,-0.14362 0.420376,-0.27109 0.636187,-0.39811 0.02796,-0.0166 0.05629,-0.0332 0.08426,-0.0498 0.113419,-0.0669 0.230227,-0.12828 0.347082,-0.18965 0.05822,-0.0308 0.116915,-0.0613 0.174842,-0.0928 0.0096,-0.006 0.01989,-0.0125 0.03001,-0.0185 0.0096,-0.006 0.02025,-0.0125 0.03001,-0.0185 0,0.009 -8.67e-4,0.0185 -0.0024,0.0279 v 1e-5 c 0.07159,-0.0338 0.143106,-0.0683 0.214666,-0.10297 v -1e-5 -2e-5 c 0.147433,-0.0713 0.295145,-0.14259 0.444892,-0.20735 0.314767,-0.13655 0.630414,-0.27311 0.952692,-0.38895 0.304376,-0.10861 0.61396,-0.20482 0.927583,-0.28137 0.02339,-0.006 0.04676,-0.0109 0.07015,-0.0172 0.441723,-0.10824 0.88547,-0.21701 1.334979,-0.28283 0.591169,-0.0868 1.18869,-0.14895 1.785923,-0.17792 0.722741,-0.0351 1.444614,0.006 2.164173,0.10245 0.818817,0.11064 1.621482,0.29171 2.408261,0.541 0.904803,0.28653 1.776702,0.65583 2.587431,1.14717 0.564351,0.34241 1.111948,0.7179 1.63186,1.1234 0.480389,0.37547 0.929609,0.79652 1.366715,1.22373 0.596363,0.58341 1.101558,1.24752 1.559155,1.94368 0.870741,1.32613 1.500288,2.75881 1.859784,4.3063 0.315634,1.36337 0.415182,2.74226 0.308427,4.13771 -0.07557,0.98994 -0.256779,1.95921 -0.548767,2.90776 -0.377949,1.22993 -0.927583,2.37918 -1.637054,3.45394 -0.553949,0.84101 -1.193596,1.60956 -1.919507,2.30576 -0.756779,0.72513 -1.589445,1.35196 -2.507796,1.85988 -0.06497,0.0359 -0.129546,0.0721 -0.194176,0.10823 l -5.78e-4,2e-4 c -0.31766,0.17765 -0.636176,0.35563 -0.968842,0.50082 -0.568666,0.24723 -1.150614,0.46341 -1.732261,0.67651 -0.284768,0.10338 -0.579924,0.18101 -0.875937,0.24825 -0.251886,0.0572 -0.506062,0.1038 -0.760251,0.15046 l -5.78e-4,8e-5 -2.89e-4,6e-5 -5.79e-4,7e-5 v 5e-5 c -0.108236,0.0198 -0.216389,0.0397 -0.324578,0.0603 -0.0364,0.007 -0.07304,0.0129 -0.109684,0.0188 v 3e-5 l -2.88e-4,2e-5 c -0.0072,0.001 -0.01507,0.002 -0.02217,0.003 -0.01085,0.001 -0.02169,0.003 -0.03267,0.005 0.02339,-0.008 0.04676,-0.0169 0.07015,-0.0254 0.02339,-0.008 0.04641,-0.017 0.06978,-0.0253 0.0013,-8.7e-4 0.0037,-0.003 0.0048,-0.005 l 0.0013,-2e-4 -0.0012,-0.001 c -2.9e-4,4.1e-4 -5.78e-4,8.1e-4 -5.78e-4,0.001 -0.08485,0.009 -0.169649,0.0191 -0.254466,0.0286 -0.230817,0.0256 -0.461923,0.0512 -0.692452,0.083 -0.813622,0.11378 -1.630702,0.087 -2.444614,0.0332 -0.865545,-0.0569 -1.722739,-0.21102 -2.552223,-0.45825 -1.968853,-0.58538 -3.744963,-1.50652 -5.306433,-2.84984 -0.707157,-0.60928 -1.36469,-1.27028 -1.970287,-1.98197 -0.01085,-0.0134 -0.02772,-0.0225 -0.04447,-0.0317 -0.0061,-0.003 -0.01265,-0.007 -0.0188,-0.0109 0.0024,0.008 0.0037,0.0164 0.0061,0.0247 0.0037,0.0183 0.0072,0.0365 0.01736,0.0509 0.04158,0.0614 0.08196,0.12388 0.122327,0.1863 0.102086,0.15819 0.204277,0.31615 0.326026,0.45711 0.298326,0.34548 0.611948,0.67858 0.935092,1.00236 0.169937,0.16993 0.35083,0.32914 0.531735,0.48834 v 6e-5 c 0.07883,0.0692 0.157246,0.13832 0.234856,0.20833 -0.02796,-0.0205 -0.05653,-0.0404 -0.08509,-0.0603 v -1.1e-4 c -0.07497,-0.0521 -0.149748,-0.10412 -0.214666,-0.16677 -0.07184,-0.0692 -0.143685,-0.1384 -0.215811,-0.20761 v -6e-5 c -0.393824,-0.37855 -0.788516,-0.75787 -1.168501,-1.15053 -0.16214,-0.16775 -0.306403,-0.35236 -0.450667,-0.53702 -0.064,-0.0818 -0.127811,-0.16361 -0.193295,-0.24397 l -0.0061,0.006 c 0.0164,0.0262 0.0323,0.0528 0.04822,0.0794 v 2e-5 5e-5 2e-5 c 0.03665,0.0616 0.07352,0.12343 0.115349,0.18119 0.105585,0.14599 0.214377,0.2892 0.323144,0.43249 l 0.03001,0.0396 c 0.01085,0.0136 0.02073,0.0273 0.03121,0.0411 l 0.01085,0.0135 c 0.07823,0.10181 0.156377,0.20381 0.234855,0.30571 0.07847,0.10182 0.156956,0.20375 0.235145,0.30562 0.02073,0.0248 0.04122,0.0487 0.06207,0.0724 v 9e-5 c 0.09546,0.1075 0.190704,0.21508 0.284767,0.32264 0.0061,0.007 0.01085,0.0157 0.01531,0.0244 v 2e-5 c 0.0024,0.003 0.0048,0.008 0.0061,0.012 -0.0037,-0.002 -0.0072,-0.003 -0.01085,-0.006 -0.0072,-0.003 -0.01446,-0.007 -0.02049,-0.0127 -0.02339,-0.0197 -0.04785,-0.0386 -0.07208,-0.0575 v -3e-5 c -0.05545,-0.043 -0.110767,-0.0863 -0.156654,-0.13796 -0.295157,-0.33205 -0.590313,-0.6662 -0.87508,-1.00754 -0.04303,-0.0515 -0.0863,-0.10286 -0.129548,-0.15422 v -2e-5 l -2.89e-4,-2.1e-4 c -0.214365,-0.25403 -0.429308,-0.50886 -0.609345,-0.78586 -0.257358,-0.39631 -0.494817,-0.80621 -0.732263,-1.21588 v -1.1e-4 -2e-5 c -0.08341,-0.14417 -0.167056,-0.28832 -0.251296,-0.43184 -0.05364,-0.0915 -0.105344,-0.17099 -0.156666,-0.25017 -0.05508,-0.0845 -0.109683,-0.16872 -0.166477,-0.26698 -0.0085,-0.015 -0.0182,-0.0294 -0.02965,-0.0468 v -3e-5 -9e-5 -1.1e-4 -4e-5 c -0.01555,-0.0235 -0.03459,-0.0525 -0.06026,-0.0958 0.0188,0.0412 0.04014,0.0954 0.05713,0.1389 l 0.0024,0.007 c 0.03894,0.097 0.07701,0.19421 0.115107,0.2914 0.06978,0.17762 0.139347,0.35517 0.213209,0.53099 0.05484,0.13344 0.120048,0.26376 0.191584,0.38997 0.218402,0.38275 0.437962,0.7665 0.667621,1.14304 0.07352,0.12029 0.15956,0.23347 0.245535,0.34666 v 2e-5 c 0.03785,0.0494 0.07533,0.0989 0.111612,0.14882 0.0037,0.0109 0.0072,0.022 0.01205,0.0332 0.0037,0.0109 0.0072,0.0223 0.01085,0.0332 0.01387,0.0153 0.02772,0.0308 0.04158,0.046 v 1.2e-4 3e-5 c 0.04038,0.0447 0.08076,0.0895 0.120049,0.13482 0.03375,0.0393 0.06786,0.0786 0.101605,0.11788 v 1e-4 2e-5 6e-5 c 0.107032,0.12436 0.214087,0.2489 0.321987,0.37226 0.01989,0.0224 0.04038,0.0443 0.06087,0.066 v 3e-5 c 0.03724,0.0392 0.07413,0.0785 0.106791,0.12111 0.04822,0.0616 0.09461,0.1248 0.140792,0.18799 0.06726,0.0916 0.134163,0.18332 0.207157,0.27028 0.164742,0.19653 0.332377,0.39308 0.513559,0.57408 0.248415,0.24828 0.500012,0.49655 0.771496,0.7179 0.25044,0.20395 0.511258,0.39519 0.772364,0.58656 0.11113,0.0813 0.221873,0.16272 0.332377,0.24512 1.259382,0.95323 2.852285,1.55338 4.373353,1.96749 1.611092,0.44213 3.116864,0.49809 4.768345,0.38991 1.691584,-0.11403 3.355757,-0.43007 4.913755,-1.10574 0.272353,-0.11692 0.541548,-0.24205 0.809572,-0.3672 0.167924,-0.0777 0.333535,-0.15932 0.497119,-0.24518 0.121182,-0.0632 0.239182,-0.13137 0.356037,-0.20275 0.207157,-0.1262 0.414314,-0.25343 0.619157,-0.38479 0.113058,-0.0735 0.222741,-0.15209 0.330351,-0.23379 0.0869,-0.0653 0.171962,-0.13272 0.257359,-0.2002 0.05942,-0.0469 0.118602,-0.0939 0.178591,-0.14015 0.08365,-0.0652 0.167924,-0.12936 0.251886,-0.19356 l 2.89e-4,-2.6e-4 c 0.167044,-0.12731 0.333812,-0.2545 0.495383,-0.38855 0.180038,-0.14995 0.349975,-0.31341 0.515584,-0.47998 0.287937,-0.28963 0.573572,-0.58237 0.851119,-0.88234 0.190427,-0.20586 0.368729,-0.42308 0.545596,-0.6403 0.104742,-0.12808 0.205422,-0.25955 0.306114,-0.39078 z m -20.903432,2.05206 c 0.0012,0.002 0.0024,0.005 0.0037,0.008 0.0037,0.009 0.0072,0.0187 0.01362,0.0239 0.06231,0.0476 0.126365,0.0942 0.190705,0.14068 0.064,0.0466 0.599546,0.40935 0.599546,0.40935 0,0 -0.695043,-0.50761 -0.747835,-0.55003 -0.01206,-0.009 -0.02507,-0.0158 -0.03894,-0.0223 -0.0072,-0.003 -0.01362,-0.006 -0.02025,-0.009 z m 9.983018,-24.73744 c -0.0048,0.005 -0.0085,0.009 -0.01302,0.0142 -0.0048,0.006 -0.0096,0.0109 -0.01446,0.016 0.0048,10e-4 0.0085,0.002 0.01302,0.003 v 1e-5 c 0.0096,0.003 0.01929,0.006 0.02941,0.007 0.0364,0.002 0.07268,0.003 0.10908,0.006 0.07268,0.003 0.145422,0.006 0.216969,0.0161 0.141081,0.0187 0.282742,0.0316 0.424414,0.0445 0.352277,0.032 0.704842,0.0641 1.042993,0.18511 0.02688,0.009 0.05689,0.009 0.0869,0.008 0.02446,-3.1e-4 0.0493,-6.1e-4 0.07244,0.005 0.159258,0.0333 0.317949,0.0679 0.476629,0.10254 l 2.89e-4,5e-5 c 0.112817,0.0246 0.225333,0.0492 0.33815,0.0732 0.03025,0.006 0.06087,0.0109 0.09173,0.0147 0.04303,0.006 0.0857,0.012 0.126654,0.0236 0.06063,0.018 0.119206,0.043 0.177736,0.0681 0.02543,0.0109 0.05111,0.0218 0.07677,0.0322 0.0048,-0.012 0.243799,-8.1e-4 0.38171,0.006 0.05918,0.002 0.09981,0.005 0.09462,0.003 -0.249572,-0.0668 -0.74293,-0.16746 -1.146275,-0.24983 -0.184365,-0.0376 -0.349685,-0.0715 -0.464805,-0.0965 -0.386037,-0.0849 -0.775256,-0.1593 -1.166766,-0.2131 -0.220427,-0.0303 -0.44288,-0.042 -0.665042,-0.0537 -0.09642,-0.005 -0.192441,-0.009 -0.288517,-0.0166 z m 3.267758,0.6245 0.02688,0.008 v 1e-5 c 0.05508,0.0167 0.109923,0.0334 0.16532,0.0493 0.0072,0.002 0.01411,0.002 0.02134,0.003 0.0024,2.1e-4 0.0048,4e-4 0.0072,6.8e-4 -0.0013,-0.001 -0.0037,-0.003 -0.0048,-0.006 -0.0037,-0.005 -0.0085,-0.009 -0.01362,-0.0109 -0.06725,-0.0157 -0.134742,-0.0303 -0.202251,-0.045 z m -3.910574,-0.93977 c -0.06774,-0.002 -0.135309,-0.005 -0.203119,-0.007 v 0 c -0.09028,-0.003 -0.180604,-0.006 -0.270629,-0.008 -0.0085,0 -0.01675,0.002 -0.02483,0.003 -0.0048,9.2e-4 -0.0085,0.002 -0.01266,0.002 0.0048,0.001 0.0085,0.002 0.01362,0.005 0.0085,0.002 0.01675,0.006 0.02483,0.006 0.101249,3.5e-4 0.202541,-6e-5 0.303522,-4.6e-4 v 0 0 c 0.05653,-2.3e-4 0.112817,-4.6e-4 0.169358,-5.5e-4 z m -0.595207,0.86836 c -0.02254,-0.002 -0.04532,-0.003 -0.0681,-0.003 -0.0048,0 -0.0085,0.003 -0.01326,0.007 -0.0024,0.002 -0.0048,0.003 -0.0072,0.005 v -1e-5 h 2.9e-4 c 0.02917,-0.002 0.05858,-0.006 0.08859,-0.008 z m 0.01411,-9e-4 c 0.01989,-9e-4 0.03977,-0.001 0.05967,-0.001 -0.0012,-0.002 -0.0024,-0.006 -0.0024,-0.006 -0.01904,0.002 -0.03809,0.005 -0.05737,0.008 z m 13.933982,12.50969 v -0.0303 c -8.67e-4,0.009 -8.67e-4,0.0199 0,0.0303 z m 0,0 c 5.67e-4,0.012 0.0024,0.0238 0.0048,0.0358 -0.0013,-0.012 -0.0037,-0.0239 -0.0048,-0.0358 z m 0,-0.15181 v -0.001 c -8.67e-4,0 -8.67e-4,4.9e-4 0,0.001 z m 0.03254,0.32566 v 2.5e-4 c 8.68e-4,0 5.79e-4,-1.1e-4 0,-2.5e-4 z M 37.32164,254.18076 c -0.0061,0.007 -0.215521,0.22617 -0.215521,0.22617 0.0085,-0.0156 0.203974,-0.26238 0.203974,-0.26238 0,0 0.299195,-0.31857 0.449522,-0.47791 0.0085,-0.009 0.0176,-0.018 0.02688,-0.0265 v -2e-5 c 0.0061,-0.006 0.01205,-0.0109 0.0176,-0.017 0.02796,-0.029 0.05484,-0.0579 0.0816,-0.087 -0.0061,0.0109 -0.01206,0.0222 -0.0176,0.0335 -0.01362,0.0265 -0.02688,0.0531 -0.04641,0.074 -0.110527,0.12005 -0.221874,0.23903 -0.333232,0.35811 v 2e-5 c -0.05569,0.0595 -0.111372,0.11909 -0.166768,0.17874 z m 3.398449,-2.44534 c 0.0072,4.5e-4 0.0147,0.001 0.02446,0.001 -0.01386,0.0109 -0.02398,0.0203 -0.03206,0.0276 v 0 c -0.0096,0.008 -0.01639,0.0145 -0.02398,0.02 -0.08799,0.0579 -0.177145,0.11486 -0.266012,0.1717 -0.01085,0.006 -0.02194,0.0109 -0.03315,0.0144 0.0013,-0.003 0.0024,-0.007 0.0048,-0.0109 0.0024,-0.007 0.0061,-0.0151 0.01085,-0.0193 0.09607,-0.0682 0.193597,-0.13549 0.291975,-0.20273 0.0048,-0.003 0.01205,-0.002 0.02302,-0.002 z m -1.044137,0.0987 c -0.03688,0.0253 -0.07388,0.0506 -0.110768,0.0761 -0.01085,-0.003 -0.0164,-0.006 -0.02169,-0.006 0.0012,-0.003 0.0024,-0.006 0.0037,-0.009 0.0024,-0.007 0.0037,-0.0137 0.0085,-0.0173 0.0693,-0.0476 0.13878,-0.093 0.209171,-0.13757 0.0037,-0.003 0.01555,-0.002 0.02073,0.001 0.0024,10e-4 0.0037,0.0156 8.67e-4,0.0176 -0.03665,0.0253 -0.07389,0.0506 -0.110768,0.0761 z m 21.989985,9.84065 c -0.0048,0.005 -0.0072,0.009 -0.0048,0.0137 0.0013,-0.005 0.0037,-0.009 0.0048,-0.0137 z m -23.459706,-8.44553 c 0.0048,0.002 0.01085,0.005 0.0182,0.008 -0.03809,0.0341 -0.07304,0.0656 -0.107032,0.0962 v 1.3e-4 l -2.89e-4,1.9e-4 c -0.02652,0.024 -0.05279,0.0475 -0.07906,0.0711 -0.0012,0 -0.0085,-0.005 -0.01241,-0.008 0.02796,-0.0285 0.05593,-0.0571 0.08365,-0.0858 0.02796,-0.0287 0.05593,-0.0573 0.08402,-0.0858 8.69e-4,-0.001 0.0048,3.8e-4 0.01302,0.005 z m -0.290528,20.70381 h 0.01989 c 0.02627,0.0248 0.224465,0.19945 0.435383,0.38519 l 0.0024,10e-4 2.9e-4,2.7e-4 8.68e-4,6.5e-4 2.89e-4,2.3e-4 c 0.243509,0.21443 0.502881,0.44283 0.533761,0.47268 0.75274,0.6738 -0.04508,-0.0225 -0.04508,-0.0225 l -0.776402,-0.66241 c -0.05593,-0.0517 -0.111973,-0.10339 -0.167912,-0.1562 -0.0024,-0.002 -0.0024,-0.007 -0.0024,-0.0127 0,-0.002 0,-0.005 -5.78e-4,-0.007 z m 0.49625,-21.06486 c 0.0037,0.002 0.0072,0.006 0.01205,0.009 -0.03025,0.0267 -0.05918,0.0524 -0.08738,0.0778 v 5e-5 3e-5 c -0.01784,0.016 -0.03543,0.0318 -0.0534,0.0474 l -0.0096,-0.0125 c 0.04351,-0.0424 0.08714,-0.0849 0.13156,-0.12619 0,-5.5e-4 0.0024,0.001 0.0061,0.005 z m 8.848267,-2.75383 v 1e-5 0 c -0.03833,0.003 -0.07642,0.006 -0.112818,0.009 -0.03724,-0.003 -0.07244,-0.006 -0.107634,-0.0109 0.0135,-0.002 0.02688,-0.005 0.04038,-0.007 0.03121,-0.006 0.06231,-0.012 0.09402,-0.0134 0.01844,0 0.03748,0.006 0.05653,0.0128 0.0096,0.003 0.01964,0.006 0.0294,0.008 z m -9.057159,23.66375 c 0.0024,-0.003 0.0061,-0.007 0.0085,-0.012 0.01699,0.0206 0.03315,0.0396 0.04846,0.0577 v 2e-4 c 0.01699,0.02 0.03315,0.039 0.0487,0.058 l 0.643975,0.61864 c -0.03604,-0.032 -0.72678,-0.67242 -0.761974,-0.70554 -8.69e-4,-7.9e-4 0.0048,-0.007 0.01205,-0.0174 z m 1.798048,-21.54552 c -0.01446,0.0109 -0.02941,0.022 -0.04447,0.0334 -0.0061,-0.009 -0.01085,-0.0156 -0.0096,-0.0156 l 2.89e-4,-3e-5 c 0.04532,-0.0332 0.09088,-0.0661 0.137622,-0.0983 5.66e-4,0 0.0024,0.002 0.0048,0.005 0.0024,0.001 0.0048,0.003 0.0061,0.005 -0.03146,0.0229 -0.06255,0.0463 -0.09522,0.0709 v 6e-5 z m 21.680111,9.52733 c -5.66e-4,2.1e-4 -2.89e-4,10e-4 8.68e-4,0.002 -2.89e-4,-8.7e-4 -5.78e-4,-10e-4 -8.68e-4,-0.002 z M 38.596882,252.7313 c 5.79e-4,4e-4 0.0013,8.4e-4 0.0024,0.001 l -0.0037,0.003 -0.0048,0.003 v 1e-4 c -0.0176,0.0152 -0.03206,0.0275 -0.04737,0.039 -0.0013,7.6e-4 -0.0061,-0.003 -0.01085,-0.007 -5.67e-4,-6.8e-4 -0.0013,-0.001 -0.0024,-0.002 -8.68e-4,-7.2e-4 -0.0013,-0.001 -0.0024,-0.002 0.0061,-0.005 0.01205,-0.009 0.01736,-0.0152 v -6e-5 -2e-5 c 0.01085,-0.009 0.02193,-0.0197 0.03351,-0.0292 0.0013,-7.4e-4 0.0061,10e-4 0.01302,0.005 l 0.0024,0.001 c 8.68e-4,5.3e-4 0.0024,10e-4 0.0037,10e-4 z m 24.188209,11.10815 c -2.89e-4,4.7e-4 -5.79e-4,7.6e-4 0,7.6e-4 z m -0.510968,-4.19736 5.79e-4,10e-4 c -8.69e-4,1.9e-4 -0.0013,3.9e-4 -0.0024,6.2e-4 0,-1.2e-4 2.9e-4,-2.3e-4 2.9e-4,-3.5e-4 5.78e-4,-5.2e-4 0.0012,-10e-4 0.0013,-10e-4 z m -0.0211,-0.0598 -2.89e-4,-7.7e-4 c -0.0012,7.7e-4 -8.68e-4,9.5e-4 2.89e-4,7.7e-4 z M 39.41768,252.00757 c -0.01085,0.0109 -0.02217,0.0215 -0.03459,0.034 -5.79e-4,-0.002 -8.56e-4,-0.005 -0.0013,-0.007 -0.0012,-0.005 -0.0013,-0.008 2.89e-4,-0.0109 0.0164,-0.0176 0.03399,-0.0352 0.05159,-0.0528 0,-0.001 0.0085,0.005 0.01242,0.008 -0.0096,0.009 -0.01844,0.0184 -0.02833,0.028 z m 14.054586,-1.48412 c 0.0072,0.003 0.01494,0.008 0.02507,0.013 -0.01217,0.001 -0.02158,0.003 -0.02881,0.005 -0.0096,0.002 -0.0164,0.003 -0.02158,0.001 -0.0096,-0.003 -0.01784,-0.0109 -0.02628,-0.0177 -0.0037,-0.003 -0.0072,-0.006 -0.01085,-0.009 0.0024,-3.2e-4 0.0037,-7e-4 0.0061,-0.001 0.0012,-2.9e-4 0.0024,-5.7e-4 0.0037,-8.6e-4 v 0 h 2.89e-4 c 0.0085,-0.002 0.01699,-0.003 0.02507,-0.002 0.0085,0.001 0.01616,0.006 0.02772,0.012 z m -6.133903,-1.3168 c 0.0048,0.003 0.01085,0.007 0.0182,0.012 -0.01085,0 -0.01929,2.3e-4 -0.02652,4.3e-4 -0.01507,3.9e-4 -0.02459,6.3e-4 -0.03351,-0.001 -0.0048,-10e-4 -0.0096,-0.007 -0.01411,-0.0122 -0.0024,-0.002 -0.0048,-0.005 -0.0072,-0.007 0.0037,-2.8e-4 0.0072,-7.2e-4 0.01085,-0.001 0.0096,-0.001 0.02073,-0.002 0.03121,-9.1e-4 0.0061,7e-4 0.01085,0.003 0.02025,0.0109 z m -6.662458,2.05537 c 0.0024,0.001 0.0061,0.003 0.0096,0.005 -0.0037,0.002 -0.0061,0.005 -0.0085,0.007 v 1e-5 c -0.01085,0.009 -0.02049,0.0178 -0.02977,0.0245 -5.79e-4,0 -0.0048,-0.005 -0.0096,-0.009 -0.0024,-0.002 -0.0048,-0.005 -0.0061,-0.006 0.0024,-0.002 0.0061,-0.005 0.0085,-0.007 0.0085,-0.006 0.01699,-0.0128 0.02627,-0.0181 0.0012,-6.3e-4 0.0048,0.001 0.0085,0.003 z m 21.749936,9.0354 c 2.89e-4,9.2e-4 2.89e-4,0.001 5.78e-4,0.002 0.0013,0.006 0.0024,0.0129 0.0013,0.0197 5.79e-4,-0.005 5.79e-4,-0.009 -2.9e-4,-0.0141 -5.78e-4,-0.002 -0.0012,-0.005 -0.0024,-0.008 z m -13.035532,16.80857 c 0.0037,10e-4 0.0072,0.003 0.01326,0.006 -0.0037,0.001 -0.0061,0.002 -0.0085,0.003 l -2.89e-4,1.7e-4 c -0.01205,0.005 -0.01965,0.007 -0.02736,0.007 -0.0024,0 -0.0061,-0.003 -0.0096,-0.006 -0.0013,-10e-4 -0.0024,-0.002 -0.0037,-0.003 0.0024,-10e-4 0.0061,-0.002 0.0085,-0.003 0.0061,-0.002 0.01085,-0.005 0.01675,-0.006 0.0024,-6.1e-4 0.0061,9.5e-4 0.01085,0.003 z m -13.279341,-5.36575 0.0024,0.002 c 0.0024,0.002 0.0048,0.006 0.0072,0.008 l -0.0012,7.7e-4 -0.0013,10e-4 c -0.0037,0.002 -0.0072,0.005 -0.0072,0.005 -0.0085,-0.009 -0.01675,-0.0187 -0.02398,-0.0289 0,-0.001 0.0048,-0.006 0.0085,-0.009 0.0013,0.002 0.0037,0.005 0.0048,0.006 0.0013,0.002 0.0037,0.003 0.0048,0.006 l 0.0037,0.003 2.89e-4,1.7e-4 v 8e-5 l 5.79e-4,8.4e-4 z m 15.054879,-22.26143 c -2.77e-4,10e-4 -5.66e-4,0.003 -0.0012,0.005 -0.0037,-3.4e-4 -0.0072,-5.6e-4 -0.01205,-7.8e-4 -0.0085,-4.7e-4 -0.01592,-9.2e-4 -0.02363,-0.002 -0.0048,-0.001 -0.0085,-0.005 -0.01205,-0.007 -8.67e-4,-6.4e-4 -0.0013,-0.001 -0.0024,-0.002 -5.78e-4,-3.8e-4 -0.0012,-7.7e-4 -0.0013,-10e-4 -5.79e-4,-3.7e-4 -0.0012,-7.3e-4 -0.0013,-0.001 0.0048,0 0.0085,-3.3e-4 0.01217,-6.6e-4 0.0061,-4.9e-4 0.01205,-9.8e-4 0.01784,-3.8e-4 0.0061,7.1e-4 0.01085,0.002 0.01675,0.003 0.0024,8e-4 0.0061,0.001 0.0085,0.002 -2.9e-4,0.001 -5.79e-4,0.003 -8.68e-4,0.005 z m -4.615994,0.15772 c 0.0061,-0.002 0.01085,-0.005 0.01555,-0.007 0.0072,0.002 0.01206,0.003 0.01555,0.003 -0.0037,0.001 -0.0072,0.003 -0.01085,0.005 -0.0072,0.003 -0.01387,0.007 -0.02073,0.009 -0.0024,10e-4 -0.0072,-6.9e-4 -0.01085,-0.002 -0.0013,-8.8e-4 -0.0037,-0.001 -0.0048,-0.002 0.0048,-0.002 0.01085,-0.005 0.01531,-0.007 z m 5.916357,0.16647 v 0 c 0.0061,0.001 0.01241,0.002 0.02073,0.005 -0.0048,0.002 -0.0072,0.005 -0.01085,0.007 -0.0072,0.005 -0.01206,0.008 -0.01531,0.007 -0.0061,-0.001 -0.01242,-0.005 -0.0182,-0.008 v -1e-5 c -0.0024,-10e-4 -0.0048,-0.002 -0.0072,-0.003 5.79e-4,-6.1e-4 0.0012,-0.001 0.0013,-0.002 2.9e-4,-3.8e-4 5.79e-4,-7.4e-4 8.67e-4,-0.001 l 5.79e-4,-10e-4 v -1.5e-4 c 0.0024,-0.003 0.0037,-0.006 0.0061,-0.006 0.0072,6.4e-4 0.01387,0.002 0.02278,0.003 z m -0.892967,-0.22277 c 0.0037,-9.5e-4 0.0072,-0.002 0.01085,-0.002 0.0096,0.003 0.0164,0.005 0.02254,0.006 -0.0024,4.6e-4 -0.0048,9.6e-4 -0.0072,0.001 -0.0085,0.002 -0.01699,0.003 -0.02507,0.003 -0.0048,0 -0.0085,-0.001 -0.01302,-0.002 -0.0024,-7.5e-4 -0.0061,-0.001 -0.0085,-0.002 0.0072,-0.001 0.01387,-0.002 0.02025,-0.005 v -1e-5 z m -13.803581,24.19084 0.0024,10e-4 0.0024,0.001 c 0.0024,0.002 0.0048,0.003 0.0072,0.006 -0.0048,0.003 0.04267,0.0579 0.071,0.0898 v 3e-5 c 0.01217,0.0137 0.02073,0.0233 0.01989,0.023 -0.0072,-0.005 -0.122906,-0.11391 -0.129258,-0.12109 -8.69e-4,-10e-4 0.0096,-0.0125 0.01085,-0.0125 0.0061,0.002 0.01085,0.007 0.0164,0.012 z m 4.333265,-22.76702 c -0.0037,0.009 -0.0085,0.0187 -0.0096,0.0197 -0.01675,-0.002 -0.02073,-0.002 -0.02603,-0.002 0.0024,-0.002 0.0037,-0.003 0.0061,-0.006 l 0.0012,-0.001 v -3e-5 -1e-5 c 0.0037,-0.005 0.0085,-0.008 0.01265,-0.0123 0.0024,-0.001 0.0072,-2.6e-4 0.01085,9.2e-4 l 0.0013,3.8e-4 c 0.0012,3e-4 0.0024,5.8e-4 0.0037,7.6e-4 z m 11.423294,-0.75242 v 6e-5 2.6e-4 c -8.67e-4,0.002 -0.0024,0.006 -0.0024,0.0109 -0.0085,-0.006 -0.01591,-0.0109 -0.02193,-0.015 l -0.0037,-0.002 c -0.0037,-0.002 -0.0061,-0.005 -0.0096,-0.006 0.0013,-3.9e-4 0.0037,-10e-4 0.0048,-0.002 0.0024,-0.001 0.0048,-0.002 0.0072,-0.002 0.0096,0.002 0.0188,0.006 0.02688,0.0109 8.56e-4,0 0,0.002 -0.0012,0.007 z m -16.523727,4.28601 c -0.0037,0.003 -0.0061,0.008 -0.01085,0.0124 -2.89e-4,-5e-4 -0.0012,-0.001 -0.0013,-0.001 -0.0024,-0.002 -0.0048,-0.005 -0.0048,-0.006 0.0037,-0.003 0.0061,-0.008 0.01085,-0.0109 z m 13.327229,-5.21304 v 1e-5 1e-4 l 2.89e-4,2e-5 c 0.0013,7.9e-4 0.0037,0.001 0.0061,0.002 -0.0024,9e-4 -0.0037,0.002 -0.0061,0.002 v 1e-5 c -0.0037,0.002 -0.0061,0.003 -0.0085,0.002 -0.0037,-0.001 -0.0085,-0.003 -0.01241,-0.006 -0.0024,-0.001 -0.0037,-0.002 -0.0061,-0.003 8.68e-4,-3.4e-4 0.0024,-0.001 0.0037,-0.001 0.0024,-0.001 0.0061,-0.003 0.0072,-0.002 0.0061,7.9e-4 0.0096,0.002 0.01616,0.006 z m -1.125508,-0.097 c 0.0013,7.7e-4 0.0024,0.001 0.0048,0.002 -0.0024,5.2e-4 -0.0048,0.001 -0.0072,0.001 v 0 c -0.0061,10e-4 -0.01241,0.003 -0.01784,0.002 -0.0024,-7e-4 -0.0061,-0.003 -0.0085,-0.006 -0.0012,-0.001 -0.0024,-0.002 -0.0037,-0.003 0.0048,0 0.0085,-2.7e-4 0.01217,-5.3e-4 0.0037,-2.4e-4 0.0072,-5e-4 0.01085,-5e-4 0.0024,0 0.0061,0.001 0.0096,0.003 z m -2.759091,-0.13873 c 0.0024,-1.1e-4 0.0061,-2.3e-4 0.01085,-5.5e-4 -0.0048,0.003 -0.0072,0.006 -0.01085,0.008 -0.0048,0.003 -0.0072,0.007 -0.01205,0.008 -0.0024,0.001 -0.0061,9e-4 -0.0085,4.2e-4 -0.0013,-2.1e-4 -0.0037,-4.2e-4 -0.0048,-4.2e-4 8.69e-4,-0.001 0.0013,-0.003 0.0024,-0.005 0.0024,-0.003 0.0037,-0.008 0.0072,-0.009 0.0037,-0.002 0.0085,-0.002 0.01531,-0.002 z m -8.408292,4.20231 c 0.0024,-0.003 0.0061,-0.007 0.0096,-0.0125 5.79e-4,0.001 0.0013,0.002 0.0024,0.005 0.0013,0.002 0.0037,0.005 0.0024,0.006 -0.0024,0.003 -0.0048,0.008 -0.0096,0.0109 -0.0024,7e-4 -0.0048,4.5e-4 -0.0072,2.6e-4 l -2.89e-4,-3e-5 c -2.9e-4,-7e-5 -8.69e-4,-9e-5 -0.0012,-1.2e-4 -8.68e-4,-6e-5 -0.0013,-1.1e-4 -0.0024,-1.1e-4 0.0024,-0.002 0.0037,-0.005 0.0061,-0.008 z m 8.778455,24.34489 0.01411,10e-4 c -0.0048,-9e-5 -0.0096,-4.7e-4 -0.01411,-10e-4 z m 2.848248,-0.0783 c -0.01206,10e-4 -0.02339,0.003 -0.03519,0.005 0.04846,-0.0157 0.09088,-0.0331 0.126089,-0.0523 0.05593,-0.0307 0.103059,-0.0553 0.141949,-0.0747 -0.110527,0.0365 -0.271786,0.0745 -0.446917,0.0723 -0.19273,-0.002 -0.324289,0.0404 -0.463648,0.0858 v 2e-5 c -0.06087,0.0198 -0.123195,0.0402 -0.19273,0.0572 -0.216099,0.0158 -0.430187,0.0258 -0.641671,0.0307 -0.05279,-0.006 -0.109081,-0.0132 -0.16878,-0.0227 -0.660703,-0.10463 -0.930464,-0.0569 -1.066653,-0.033 -0.03689,0.006 -0.064,0.0109 -0.08654,0.0109 0.227068,0.0181 0.526263,0.036 0.848527,0.0466 -0.281006,-0.003 -0.55712,-0.0172 -0.828327,-0.0384 -2.717556,-0.23242 -4.962521,-1.37602 -7.085437,-2.7028 1.088867,0.90251 3.699102,2.4371 7.085437,2.7028 0.323132,0.0276 0.652918,0.0423 0.990188,0.043 0.147434,0.003 0.297749,0.005 0.446628,0.005 0.112215,0.006 0.208025,0.003 0.292265,-0.005 0.424414,-0.012 0.811319,-0.0483 1.049633,-0.12561 0.01206,-0.001 0.02339,-0.003 0.0352,-0.005 z m 0.305546,-0.0471 c -0.102693,0.017 -0.204565,0.0328 -0.305546,0.0471 0.101248,-0.0143 0.203119,-0.0301 0.305546,-0.0471 z m -1.390375,0.17776 c -0.09606,0.002 -0.193874,0.003 -0.292264,0.005 -0.0352,-0.002 -0.07207,-0.005 -0.110768,-0.008 0.199659,-0.005 0.4022,-0.0152 0.607043,-0.0306 -0.06123,0.0148 -0.127811,0.027 -0.203987,0.0346 z m 2.690147,-0.18035 c -2.609934,0.64992 -4.480397,0.46295 -6.571287,-0.0215 0.09232,0.007 0.234855,0.0346 0.426717,0.0721 v 2e-5 c 0.924413,0.18062 2.997995,0.58585 6.14457,-0.0505 z m -6.39096,-0.49871 c 1.794287,0.50699 3.153782,0.68157 5.623792,0.0933 -2.685821,0.60148 -4.464813,0.17404 -5.257956,-0.0165 -0.164742,-0.0396 -0.28678,-0.069 -0.365836,-0.0768 z m 0.01615,0.59663 c -2.625229,-0.58497 -4.215253,-1.58835 -5.868747,-2.95621 0.08112,0.0483 0.197924,0.14235 0.355747,0.2695 0.738604,0.59513 2.378538,1.91677 5.513,2.68671 z"
                   id="path1061" />
                <path
                   style="fill:#fefefe;stroke-width:0.02885181;fill-opacity:1"
                   d="M 8.20478,264.62307 6.199539,260.45875 H 5.5457765 v 6.1778 H 6.199539 v -4.83456 l 1.7552717,3.59844 h 0.4999492 l 1.7470071,-3.59844 v 4.83456 h 0.653781 v -6.1778 h -0.653781 z"
                   id="path1063" />
                <path
                   style="fill:#fefefe;stroke-width:0.02885181;fill-opacity:1"
                   d="m 13.879881,260.45875 -2.246978,6.1778 h 0.68947 l 0.447753,-1.2828 0.260964,-0.75814 h -0.0028 l 1.120721,-3.22216 0.72245,2.06568 0.40378,1.15648 h -0.0027 l 0.247231,0.71142 0.464226,1.32952 h 0.689472 l -2.24698,-6.1778 z"
                   id="path1065" />
                <path
                   style="fill:#fefefe;stroke-width:0.02885181;fill-opacity:1"
                   d="m 21.30201,265.41966 -3.197385,-4.96091 h -0.653754 v 6.1778 h 0.653754 v -4.9774 l 3.197385,4.9774 h 0.653783 v -6.1778 H 21.30201 Z"
                   id="path1067" />
                <path
                   style="fill:#fefefe;stroke-width:0.02885181;fill-opacity:1"
                   d="m 22.741399,261.04933 h 1.763509 v 5.58722 h 0.64553 v -5.58722 h 1.763512 v -0.59058 h -4.172551 z"
                   id="path1069" />
                <path
                   style="fill:#fefefe;stroke-width:0.02885181;fill-opacity:1"
                   d="m 31.506719,263.28807 c 0.233504,-0.2857 0.348877,-0.65102 0.348877,-1.09329 0,-0.55487 -0.164826,-0.98338 -0.497203,-1.28555 -0.329629,-0.29938 -0.785599,-0.45048 -1.365209,-0.45048 h -2.290923 v 6.1778 h 0.653784 v -2.71121 h 1.486078 l 1.395414,2.71121 h 0.752657 l -1.458609,-2.77439 c 0.41752,-0.0962 0.741665,-0.28843 0.975134,-0.57409 z m -3.150674,0.0714 v -2.31013 h 1.58495 c 0.406551,0 0.716943,0.0962 0.936707,0.29118 0.214245,0.19503 0.324121,0.48343 0.324121,0.86525 0,0.37084 -0.109924,0.65377 -0.332377,0.85431 -0.219741,0.20053 -0.530156,0.29939 -0.931188,0.29939 z"
                   id="path1071" />
                <path
                   style="fill:#fefefe;stroke-width:0.02885181;fill-opacity:1"
                   d="m 42.285677,260.45875 h -2.112538 v 6.1778 h 2.112538 c 0.656377,0 1.1783,-0.18956 1.562903,-0.56861 0.384591,-0.37908 0.576742,-0.9779 0.576742,-1.79374 v -1.45035 c 0,-0.8186 -0.192151,-1.41466 -0.576742,-1.79375 -0.387194,-0.38181 -0.906526,-0.57135 -1.562903,-0.57135 z m 1.474904,3.85116 c 0,1.15644 -0.488754,1.73605 -1.466829,1.73605 h -1.458463 v -4.99663 h 1.458463 c 0.472592,0 0.835257,0.14285 1.088,0.42852 0.252452,0.28568 0.38171,0.74166 0.38171,1.37071 v 1.46135 z"
                   id="path1073" />
                <path
                   style="fill:#fefefe;stroke-width:0.02885181;fill-opacity:1"
                   d="m 54.391322,260.9477 c -0.384603,-0.37907 -0.903935,-0.56859 -1.552237,-0.56859 -0.656376,0 -1.178301,0.18952 -1.565495,0.56859 -0.387484,0.37907 -0.582514,0.9779 -0.582514,1.79374 v 1.60144 c 0,0.81859 0.192439,1.41467 0.57703,1.79373 0.384314,0.37908 0.906238,0.56861 1.562904,0.56861 0.650904,0 1.170236,-0.18953 1.557419,-0.56861 0.387484,-0.37906 0.582527,-0.97791 0.582527,-1.79373 v -1.60144 c 0,-0.81584 -0.192452,-1.41467 -0.579634,-1.79374 z m -0.07413,3.43365 c 0,1.15092 -0.491923,1.72779 -1.478086,1.72779 -0.488741,0 -0.859773,-0.13733 -1.115118,-0.41204 -0.255333,-0.27469 -0.38171,-0.71419 -0.38171,-1.31575 v -1.61244 c 0,-0.6318 0.126377,-1.09052 0.376226,-1.37347 0.249861,-0.28293 0.623496,-0.42576 1.118011,-0.42576 0.98327,0 1.477785,0.59882 1.477785,1.79923 v 1.61244 z"
                   id="path1075" />
                <path
                   style="fill:#fefefe;stroke-width:0.02885181;fill-opacity:1"
                   d="m 50.116925,266.63655 -2.246979,-6.1778 h -0.546452 l -2.246978,6.1778 h 0.689269 l 0.371032,-1.06031 0.337849,-0.98063 0.258226,-0.74719 0.859784,-2.47497 1.128968,3.22216 h -0.0024 l 0.32429,0.93392 0.384603,1.10702 z"
                   id="path1077" />
                <path
                   style="fill:#fefefe;stroke-width:0.02885181;fill-opacity:1"
                   d="M 37.450979,266.63655 35.204,260.45875 h -0.546452 l -2.247015,6.1778 h 0.689475 l 0.436757,-1.2526 0.271931,-0.78834 h -0.0024 l 1.120771,-3.22216 1.024527,2.9282 0.101605,0.29396 0.272074,0.78834 0.436818,1.2526 z"
                   id="path1079" />
              </g>
            </g>
          </g>
        </g>
      </g>
    </g>
  </g>
</svg>
