<svg xmlns="http://www.w3.org/2000/svg" viewBox="0 0 67.733 67.733" height="256" width="256" xmlns:v="https://vecta.io/nano"><path d="M1.532 33.923c0 17.872 14.54 32.411 32.411 32.411s32.411-14.54 32.411-32.411S51.815 1.512 33.943 1.512 1.532 16.052 1.532 33.923z" fill="#ed1b6c" fill-rule="evenodd"/><g fill="#fff"><path d="M40.092 22.097l-.128.089-.784.54c-.022.014-.051.018-.077.028.017-.018.032-.039.052-.053l.843-.602c.013-.011.039-.002.093-.002zm-2.947 3.626l-.027-.005c.002-.012.001-.028.007-.036l.274-.332c.005-.005.012-.007.02-.011l-.274.384zm.397-.708l-.026-.008c.004-.012.004-.028.011-.035l.307-.303.129-.138c.04-.038.308-.321.023 0l-.443.484zm.172-.926c.068-.09.325-.36.699-.721l.398-.361a.82.82 0 0 1 .076-.055c0 .005-.051.057-.052.059l-1.121 1.079z"/><path d="M37.405 26.065l-.219.324c-.006.009-.025.011-.038.017-.001-.009-.005-.023-.001-.028l.258-.312zm-1.505.787l-.183.345c-.005.009-.023.014-.036.021-.002-.009-.007-.022-.004-.028l.224-.338zm14.301 20.84c.034-.009.067-.023.102-.027l.177-.012-.179.039c-.032.005-.067-.001-.1-.001zm-9.874-25.734c-.007.007-.013.017-.022.021l-.102.051c0-.008-.002-.023 0-.025l.116-.054z"/><path d="M38.95 22.931l-.026-.033.106-.098c-.015.049-.046.086-.081.131zm-1.294 2.882l-.107.086a.27.27 0 0 1 .085-.098c.001-.001.008.005.022.012zm.428-.784l.035-.033.059-.051a.46.46 0 0 1-.094.084zm-1.091.416l.036-.033c-.001.022-.01.034-.02.044zm2.103-1.378l.037-.003-.082.059.044-.056zm-1.413 19.91l.064.068-.064-.068zM35.574 27.01c-.01.011-.066.143-.073.153-.004-.006-.011-.014-.008-.019a2.65 2.65 0 0 1 .081-.134zm1.812-1.191l.058-.031-.058.031zm3.019-3.907l-.078.047c.02-.023.046-.038.072-.054zm-1.666 2.744l.037-.003-.066.031c.011-.009.02-.019.029-.028zm-2.083 17.918l-.036-.048c.023.012.032.027.042.041zm.749-16.508l.024-.043c0 .02-.012.031-.024.043zM50.2 47.691l-.094.014.001.001.094-.014zm-7.92.015l.157.063.029.031v-.001l-.67-.279.483.186zm-5.893-4.775l.023.066-.023-.066zm14.316-22.149c-.14-.018-.397.092-1.373-.167l-.307-.072-.574-.046c-.248.02-.392.092-.725.054-.183-.021-.369.003-.518.039-.325.076-.471.2 0 0 .007-.002.013-.006.02-.008.232-.1.694-.114 1.223-.084a2.04 2.04 0 0 1 .574.046l1.664.236z"/><path d="M59.974 42.938l.137-.178.084-.124h0l.15-.225.098-.137h0l.107-.15.311-.519.117-.213h0 0 0l.44-.844.32-.776h0 0l.117-.301.037-.094h0 0 0l.167-.451.281-.974.013-.049.007-.029.241-.995c.064-.322.106-.65.141-.978l.063-.969.005-.428h0 0 0 0l.001-.881-.022-.329h0l-.065-.703-.332-1.857c-.359-1.86-1.276-3.575-2.418-5.068-.977-1.273-2.053-2.398-3.389-3.31-1.918-1.311-3.935-2.168-6.263-2.507l-1.179-.133-.276-.027-.363-.022-.17-.007h-.171-.109-.046 0 0l-.079.026-.022-.008.024-.016h-.078l-.181.012-.27.018-.862.072-.178.015-.564.059-.864.167-1.148.308c-.093.028-.181.067-.27.107l-.206.086-.297.093-.226.069c-.018.006-.034.021-.049.036s-.029.029-.047.036l-.258.102h0l-.392.159-.692.338-.844.463c-.029.016-.052.042-.075.068h0 0 0 0l-.034.037.005.005.379-.195h0l.738-.38.824-.377h0 0l.336-.15.113-.052.318-.132a2.48 2.48 0 0 1 .252-.059c.109-.022.218-.043.321-.083l.016-.006.016-.006a3.2 3.2 0 0 1 .579-.183l.543-.118h0l.334-.076c.037-.008.076-.008.115-.009s.075-.001.111-.008l.228-.053.379-.077.794-.059.135-.007.463-.016.232-.006.105-.003.31-.007.178.006.162.006.156-.002.227.001 1.004.083h0c.029.002.056.013.084.024l.034.013-.04.001-.08.002h-.1l-.291-.014-.58-.023-.298-.003.031-.006c-.029-.014-.041-.021-.054-.021l-.213-.008h0l-.57-.011-1.145.067c-.158.014-.315.045-.471.075l-.211.04-.162.029h0l-.359.064-.346.061h0l-.88.167c-.221.049-.434.13-.645.213l-.787.318h0l-.439.179-.214.082-.394.161-.999.528-1.091.664c-.117.078-.217.182-.316.286l-.136.138-.039.04-.039.04-.106.09h0 0l-.246.205-.187.148h0l-.358.293a1.35 1.35 0 0 0-.163.186l-.104.127-.294.311h0 0 0 0l-.134.14v.015c.001.009.001.019 0 .029-.018.006-.022.007-.024.007l.007-.021h0l.007-.021-.139.152.029-.023h.019l-.024.015c-.008.005-.016.009-.024.015l-.063.085-.153.196-.219.239-.347.389c-.076.093-.14.196-.204.299h0l-.107.168-.283.426h0l-.283.427c.059-.083.132-.168.205-.252l.177-.213.496-.638.295-.344h0 0 0 0 0l.092-.105c.007-.009.02-.014.031-.02.01.026.009.04 0 .048-.017.018-.036.035-.055.052-.028.025-.055.05-.078.079l-.426.588-.208.328h0l-.171.275-.002.003-.005.007-.002.002c-.005.006-.012.018-.035.05h0 0 0l.021-.019.023-.023h0l.055-.078.231-.315.213-.275h0 0 0 0l.691-.856 1.048-1.091.086-.085.737-.677c.085-.073.179-.136.273-.198h0 0l.16-.109.199-.149.342-.248.485-.3.336-.205c.532-.333 1.091-.612 1.676-.841l.213-.086h0 0l.763-.293.9-.277h0 0l.141-.041.517-.128.329-.046.281-.038.211-.045.245-.05.672-.075.278-.029.078-.009.229-.02.398.003.239.003.259.001.648.006c.033.001.066.013.1.025l.037.013-.095.005-.224.006c-.041-.001-.081-.007-.122-.013-.049-.007-.098-.014-.146-.012l-.907.041-.135.007-.137.007-.639.042-.359.051-.256.04-.204.02-.31.036c-.099.018-.195.048-.291.078l-.194.056-.259.059-.462.119-.164.058-1.738.656a12.09 12.09 0 0 0-1.076.548l-.316.173c-.219.117-.431.248-.637.386l-.745.53-.622.499-.381.349h0l-.143.135c-.015.014-.027.031-.039.049l-.015.021c.007-.005.016-.008.024-.013.02-.011.04-.021.057-.036l.364-.317h0l.22-.192c.011-.011.027-.015.042-.02-.001.022-.008.034-.018.043l-.261.237h0 0 0 0l-.499.463-.645.655h0 0 0 0l-.213.22c-.01.009-.016.022-.023.035l-.011.02c.006-.005.013-.008.02-.012.013-.007.025-.014.035-.024l.181-.184.293-.294.034-.033.767-.719.54-.451h0l.241-.197c.008-.007.02-.009.031-.013.003.023-.003.035-.011.043l-.237.196h0 0 0 0l-.482.409-.808.775-.63.689-.128.144c-.026.029-.043.064-.061.1a.56.56 0 0 1-.045.081l-.076.106h0c-.544.759-1.091 1.522-1.479 2.376-.064.142-.354.925-.281.779l.946-1.802c.527-.828 1.081-1.577 1.767-2.226l.018-.017h0l.018-.017.05-.071c.002.006.006.013.01.021.046-.032.085-.071.124-.11h0l.353-.349.289-.267h0 0 0l.106-.097.029-.037h0c.005-.007.011-.013.016-.02l.023-.021.023-.021c-.002.011-.002.022-.004.032v.002l.046-.029.412-.312h0l1.012-.744c.352-.242.731-.448 1.109-.651l1.045-.503 1.302-.468 1.431-.372c1.256-.251 2.524-.309 3.801-.198 1.068.094 2.111.302 3.129.638l1.025.389c-.282-.117-.57-.221-.866-.308l-.158-.056h0l-.158-.056-.293-.09-.252-.072-.582-.154-1.149-.203-1.577-.113a35.25 35.25 0 0 1-.171-.001c-.136-.001-.287-.001-.393.001l-.59.04-.016.001-1.265.156-1.173.216c-.066.013-.13.041-.193.068h0l-.136.053-.3.089-.529.168-1.216.503-1.023.515-.653.406h0l-.176.115c-.076.049-.147.104-.218.16h0l-.079.061-.316.239h-.001v.001h0 0 0l-.315.238-.134.097-.27.209-.806.776h0l-.001.001-.126.123-.396.411-.207.246h0 0l-.031.038c-.007.008-.007.022-.006.036 0 .007 0 .014 0 .02.006-.002.014-.003.021-.005.016-.002.032-.006.04-.015l.063-.083.079-.101.157-.16.108-.108.383-.401h0 0 0 0l.186-.195.028-.028c.007-.001.014-.003.021-.006s.02-.006.03-.007l.205-.195.442-.398 1.243-.913c.204-.144.42-.271.636-.398l.084-.05.347-.19.175-.093.03-.018.03-.018c0 .009-.001.018-.002.028h0l.215-.103h0 0l.445-.207.953-.389.928-.281.07-.017 1.335-.283 1.786-.178a11.92 11.92 0 0 1 2.164.102 14.3 14.3 0 0 1 2.408.541c.905.287 1.777.656 2.587 1.147a16.97 16.97 0 0 1 1.632 1.123c.48.375.93.797 1.367 1.224.596.583 1.102 1.248 1.559 1.944a13.27 13.27 0 0 1 1.86 4.306c.316 1.363.415 2.742.308 4.138a13.29 13.29 0 0 1-.549 2.908c-.378 1.23-.928 2.379-1.637 3.454a13.39 13.39 0 0 1-1.92 2.306c-.757.725-1.589 1.352-2.508 1.86l-.194.108h-.001l-.969.501-1.732.677a7.31 7.31 0 0 1-.876.248l-.76.15h-.001 0-.001 0l-.325.06-.11.019h0 0l-.022.003c-.011.001-.022.003-.033.005l.07-.025.07-.025.006-.005-.001-.001-.255.03-.692.083c-.814.114-1.631.087-2.445.033-.866-.057-1.723-.211-2.552-.458-1.969-.585-3.745-1.507-5.306-2.85a18.08 18.08 0 0 1-1.97-1.982c-.011-.013-.028-.022-.044-.032a.21.21 0 0 1-.019-.011c.002.008.004.016.006.025.004.018.007.036.017.051l.122.186.326.457.935 1.002.532.488h0l.235.208-.085-.06h0a1.7 1.7 0 0 1-.215-.167l-.216-.208h0l-1.169-1.151c-.162-.168-.306-.352-.451-.537l-.193-.244-.006.006.048.079h0 0 0l.115.181.323.432.03.04.031.041.011.014.235.306.235.306.062.072h0l.285.323c.006.007.011.016.015.024h0c-.012.003-.019-.001-.025-.007l-.072-.058h0c-.055-.043-.111-.086-.157-.138l-.875-1.008-.13-.154h0 0l-.609-.786-.732-1.216h0 0l-.251-.432-.157-.25-.166-.267c-.008-.015-.018-.029-.03-.047h0 0 0 0l-.06-.096.057.139.002.007.115.291.213.531c.055.133.12.264.192.39l.668 1.143c.074.12.16.233.246.347h0l.112.149.012.033.011.033.042.046h0 0l.12.135.102.118h0 0 0l.322.372.061.066h0l.107.121.141.188.207.27.514.574.771.718.772.587.332.245c1.259.953 2.852 1.553 4.373 1.967 1.611.442 3.117.498 4.768.39 1.692-.114 3.356-.43 4.914-1.106l.81-.367.497-.245.356-.203.619-.385.33-.234.257-.2.179-.14.252-.194h0l.495-.389c.18-.15.35-.313.516-.48l.851-.882.546-.64.306-.391zM39.07 44.99c.007.017.011.027.017.032l.191.141.6.409-.748-.55a.22.22 0 0 0-.039-.022l-.02-.009zm9.983-24.737l-.027.03.013.003c.01.003.019.006.029.007l.109.006.217.016.424.044c.352.032.705.064 1.043.185a.25.25 0 0 0 .087.008c.024 0 .049-.001.072.005l.477.103h0l.338.073.092.015.127.024c.061.018.119.043.178.068l.077.032c.005-.012.244-.001.382.006l.095.003-1.146-.25-.465-.096-1.167-.213c-.22-.03-.443-.042-.665-.054l-.289-.017zm3.268.625l.027.008h0l.165.049c.007.002.014.002.021.003-.078-.032-.146-.047-.213-.061zm-3.911-.94l-.203-.007h0l-.271-.008c-.008 0-.017.002-.025.003.009.009.018.013.026.013h.304 0 0l.169-.001zm-.595.868l-.068-.003-.02.012h0 0l.089-.008zm.014-.001l.06-.001c-.021-.004-.04-.001-.06.002zm13.934 12.51v-.03c-.001.009-.001.02 0 .03zm0 0a.24.24 0 0 0 .005.036l-.005-.036zm0-.152v-.001zm.033.326h0zm-24.474-8.574l-.216.226c.008-.016.204-.262.204-.262l.45-.478.027-.026h0l.018-.017.082-.087-.018.034c-.014.026-.027.053-.046.074l-.333.358h0l-.167.179zm3.398-2.445l.024.001-.032.028h0l-.024.02-.266.172a.18.18 0 0 1-.033.014c.007-.018.011-.026.016-.03l.292-.203c.005-.003.012-.002.023-.002zm-1.044.099l-.111.076c-.011-.003-.016-.006-.022-.006.006-.016.007-.023.012-.026l.209-.138c.004-.003.016-.002.021.001-.036.043-.073.068-.11.094zm21.99 9.841zm-23.46-8.446c-.02.042-.055.074-.089.104h0 0l-.079.071c.016-.037.044-.065.071-.094l.084-.086zm-.291 20.704h.02l.435.385.002.001h0 .001 0l.534.473c.753.674-.045-.022-.045-.022l-.776-.662-.168-.156zm.496-21.065c-.018.036-.047.061-.075.087h0 0l-.053.047-.01-.012.132-.126zm8.848-2.754h0 0l-.113.009-.108-.011.04-.007.094-.013c.018 0 .037.006.057.013l.029.008zm-9.057 23.664c.025.009.042.028.057.046h0l.049.058.644.619-.762-.706c-.001-.001.005-.007.012-.017zm1.798-21.546l-.044.033-.009-.016.138-.098c-.021.033-.052.056-.084.081h0zm21.68 9.527zm-23.084-9.029l-.001.004-.005.003h0l-.047.039c-.01-.016-.004-.02.002-.026h0 0l.034-.029.015.006zm24.188 11.108zm-.511-4.197l.001.001zm-.021-.06h0zm-22.835-7.575l-.035.034c.015-.035.033-.053.051-.071.003.017-.006.026-.016.036zm14.055-1.484c.007.003.015.008.025.013-.012.001-.022.003-.029.005s-.016.003-.022.001-.018-.011-.026-.018l-.001-.011h0c.008-.002.017-.003.025-.002s.016.006.028.012zm-6.134-1.317l.018.012h-.027c-.015 0-.025.001-.034-.001l-.021-.019c.02-.002.032-.003.042-.002s.011.003.02.011zm-6.662 2.055l.001.012-.03.024-.016-.015.035-.025zm21.75 9.035c.002.008.003.015.002.022-.001-.016-.001-.019-.003-.022zM49.39 47.839l.004.009c-.012.005-.02.007-.027.007.001-.014.006-.017.012-.018zm-13.279-5.366l.002.002.006.009-.001.001c-.016-.004-.024-.014-.031-.024l.022.006h0 0l.001.001zm15.055-22.261c-.022.004-.029.003-.037.002l-.017-.011.03-.001.025.005zm-4.616.158c.023-.005.028-.004.031-.004l-.032.014zm5.916.166h0c.006.001.012.002.021.005-.018.012-.023.015-.026.014l-.018-.008-.004-.007h0c.013-.005.02-.004.029-.003zm-.893-.223c.02.001.027.003.033.004-.016.003-.024.004-.032.004l-.022-.004c.007-.001.014-.002.02-.005h0zM37.77 44.504l.002.001.002.001a.87.87 0 0 0 .078.096h0l.02.023a4.82 4.82 0 0 1-.129-.121c.017-.01.022-.005.027 0zm4.333-22.767c-.004.009-.008.019-.01.02l-.026-.002.007-.007h0 0c.015-.013.02-.013.023-.011h.001zm11.423-.752h0 0c-.011.005-.018 0-.024-.004l-.004-.002c.012-.008.021-.004.029.001zm-16.524 4.286zm13.327-5.213h0 0 0v.004c-.012.001-.017-.001-.021-.004.011-.005.014-.004.021 0zm-1.126-.097l-.002.003c-.02.001-.024-.001-.026-.004.022-.004.025-.003.029-.001zm-2.759-.139c-.014.016-.018.016-.021.016.008-.016.013-.016.02-.016zm-8.408 4.202l-.003.01zm8.778 24.345l.014.001zm2.848-.078c-.012.001-.023.003-.035.005.048-.016.091-.033.126-.052l.142-.075c-.111.036-.272.075-.447.072a1.32 1.32 0 0 0-.464.086h0l-.193.057-.642.031-.169-.023c-.661-.105-.93-.057-1.067-.033l-.087.011.849.047-.828-.038c-2.718-.232-4.963-1.376-7.085-2.703 1.089.903 3.699 2.437 7.085 2.703l.99.043.447.005a1.96 1.96 0 0 0 .292-.005c.424-.012.811-.048 1.05-.126.012-.001.023-.003.035-.005zm.306-.047l-.306.047.306-.047zm-1.39.178l-.292.005-.111-.008.607-.031c-.061.015-.128.027-.204.035zm2.69-.18c-2.61.65-4.48.463-6.571-.022.092.007.235.035.427.072h0c.924.181 2.998.586 6.145-.05zm-6.391-.499c1.794.507 3.154.682 5.624.093-2.686.601-4.465.174-5.258-.017l-.366-.077zm.016.597c-2.625-.585-4.215-1.588-5.869-2.956.081.048.198.142.356.269.739.595 2.379 1.917 5.513 2.687z" fill-rule="evenodd"/></g><path d="M8.205 35.356L6.2 31.192h-.654v6.178H6.2v-4.835l1.755 3.598h.5l1.747-3.598v4.835h.654v-6.178h-.654zm5.675-4.164l-2.247 6.178h.689l.448-1.283.261-.758h-.003l1.121-3.222.722 2.066.404 1.156h-.003l.247.711.464 1.33h.689l-2.247-6.178zm7.422 4.961l-3.197-4.961h-.654v6.178h.654v-4.977l3.197 4.977h.654v-6.178h-.654zm1.439-4.371h1.764v5.587h.646v-5.587h1.764v-.591h-4.173zm8.766 2.239c.234-.286.349-.651.349-1.093 0-.555-.165-.983-.497-1.286s-.786-.45-1.365-.45h-2.291v6.178h.654v-2.711h1.486l1.395 2.711h.753l-1.459-2.774c.418-.096.742-.288.975-.574zm-3.151.071v-2.31h1.585c.407 0 .717.096.937.291.214.195.324.483.324.865 0 .371-.11.654-.332.854s-.53.299-.931.299zm13.93-2.9h-2.113v6.178h2.113c.656 0 1.178-.19 1.563-.569s.577-.978.577-1.794v-1.45c0-.819-.192-1.415-.577-1.794s-.907-.571-1.563-.571zm1.475 3.851c0 1.156-.489 1.736-1.467 1.736h-1.458v-4.997h1.458c.473 0 .835.143 1.088.429s.382.742.382 1.371v1.461zm10.63-3.362c-.385-.379-.904-.569-1.552-.569-.656 0-1.178.19-1.565.569s-.583.978-.583 1.794v1.601c0 .819.192 1.415.577 1.794s.906.569 1.563.569c.651 0 1.17-.19 1.557-.569s.583-.978.583-1.794v-1.601c0-.816-.192-1.415-.58-1.794zm-.074 3.434c0 1.151-.492 1.728-1.478 1.728-.489 0-.86-.137-1.115-.412s-.382-.714-.382-1.316v-1.612c0-.632.126-1.091.376-1.373s.623-.426 1.118-.426c.983 0 1.478.599 1.478 1.799v1.612zm-4.2 2.255l-2.247-6.178h-.546l-2.247 6.178h.689l.371-1.06.338-.981.258-.747.86-2.475 1.129 3.222h-.002l.324.934.385 1.107zm-12.666 0l-2.247-6.178h-.546l-2.247 6.178h.689l.437-1.253.272-.788h-.002l1.121-3.222 1.025 2.928.102.294.272.788.437 1.253z" fill="#fefefe"/></svg>