<?xml version="1.0" encoding="UTF-8"?><svg id="Layer_1" xmlns="http://www.w3.org/2000/svg" width="128" height="128" viewBox="0 0 128 128"><defs><style>.cls-1{fill:#fff;}.cls-2{fill:#06070a;fill-rule:evenodd;}</style></defs><path class="cls-1" d="M64,128h0C28.61,128,0,99.36,0,64.05h0C0,28.64,28.61,0,64,0h0c35.29,0,64,28.64,64,64.05h0c-.09,35.32-28.71,63.95-64,63.95Z"/><path class="cls-2" d="M64,9.14c-30.29,0-54.86,24.57-54.86,54.86s24.57,54.86,54.86,54.86h32.86c-9.71,5.71-20.86,9.14-32.86,9.14-35.43,0-64-28.86-64-64S28.57,0,64,0s64,28.57,64,64c0,3.14-.29,6.29-.57,9.14h-9.14c.57-2.86.86-6,.86-9.14-.29-30.29-24.86-54.86-55.14-54.86Z"/><path class="cls-2" d="M116.57,100.57c-2.29,3.14-5.14,6.29-8,9.14h-44.57c-25.14,0-45.71-20.57-45.71-45.71s20.57-45.71,45.71-45.71,45.71,20.57,45.71,45.71c0,3.14-.29,6.29-.86,9.14h-9.43c.86-2.86,1.14-6,1.14-9.14,0-20.29-16.29-36.57-36.57-36.57S27.43,43.71,27.43,64s16.29,36.57,36.57,36.57h52.57Z"/><path class="cls-2" d="M121.71,91.43h0c1.43-2.86,2.57-6,3.43-9.14h-61.43c-10,0-18.29-8.29-18.29-18.29s8.29-18.29,18.29-18.29,18.29,8.29,18.29,18.29c0,3.43-.86,6.57-2.57,9.14h10c1.14-2.86,1.43-6,1.43-9.14,0-15.14-12.29-27.43-27.43-27.43s-27.43,12.29-27.43,27.43,12.29,27.43,27.43,27.43h58.29Z"/></svg>