<?xml version="1.0" encoding="utf-8"?>
<!-- Generator: Adobe Illustrator 22.0.0, SVG Export Plug-In . SVG Version: 6.00 Build 0)  -->
<svg version="1.1" id="ONG" xmlns="http://www.w3.org/2000/svg" xmlns:xlink="http://www.w3.org/1999/xlink" x="0px" y="0px"
	 viewBox="0 0 490 490" style="enable-background:new 0 0 490 490;" xml:space="preserve">
<style type="text/css">
	.st0{fill:#489ED7;}
	.st1{fill:none;stroke:#FFFFFF;stroke-width:7;}
</style>
<path id="Full" class="st0" d="M0,245c0,135.1,109.9,245,245,245s245-109.9,245-245S380.1,0,245,0S0,109.9,0,245z"/>
<path id="ONG-2" class="st1" d="M153.3,318.6v56 M204.8,334.4V402 M269.1,334.4v38.7 M336.3,318.6v73.2 M307.1,256.3L148.3,97v97.6
	 M148.3,194.6c-0.1,53.6,43.2,97.3,96.9,97.4c25.9,0.1,50.7-10.2,69-28.5L176.8,125.7 M189.1,137.9l153.6,154.2v-97.6 M342.7,194.5
	c0.2-53.6-43.2-97.3-96.8-97.5c-25.9-0.1-50.7,10.2-69,28.4l137.4,137.9"/>
</svg>
