<svg id="ONG" xmlns="http://www.w3.org/2000/svg" width="512" height="512" viewBox="0 0 512 512">
  <defs>
    <style>
      .cls-1 {
        fill: #32a4be;
      }

      .cls-1, .cls-2 {
        fill-rule: evenodd;
      }

      .cls-2 {
        fill: none;
        stroke: #fff;
        stroke-width: 7px;
      }
    </style>
  </defs>
  <path id="Full" class="cls-1" d="M11,256c0,135.094,109.906,245,245,245S501,391.094,501,256,391.094,11,256,11,11,120.906,11,256Z"/>
  <path id="ONG-2" data-name="ONG" class="cls-2" d="M164.311,329.648V385.6m51.461-40.171V413M280.1,345.429v38.737m67.184-54.518v73.183m-29.211-135.5L159.308,107.991v97.557m0,0.059a97.133,97.133,0,0,0,165.817,68.949L187.756,136.684m12.394,12.2L353.714,303.106V205.548m0,0A97.134,97.134,0,0,0,187.9,136.541L325.265,274.413"/>
</svg>
