<?xml version="1.0" encoding="utf-8"?>
<!-- Generator: Adobe Illustrator 22.0.0, SVG Export Plug-In . SVG Version: 6.00 Build 0)  -->
<svg version="1.1" id="ONT" xmlns="http://www.w3.org/2000/svg" xmlns:xlink="http://www.w3.org/1999/xlink" x="0px" y="0px"
	 viewBox="0 0 490 490" style="enable-background:new 0 0 490 490;" xml:space="preserve">
<style type="text/css">
	.st0{fill:#489ED7;}
	.st1{fill:#FFFFFF;}
</style>
<path id="Full" class="st0" d="M0,245c0,135.1,109.9,245,245,245s245-109.9,245-245S380.1,0,245,0S0,109.9,0,245z"/>
<path id="ONT-2" class="st1" d="M112,243l0-127.9l221.7,220.8l1.3,1.1l3.9,4.2c-52,51.7-136,51.7-188,0
	c-24.9-24.8-39-58.5-38.9-93.6L112,243z M378,242.4c0-35.2-14-68.9-38.9-93.7c-52-51.7-136-51.7-188,0l3.9,4.3l2,2l221,219.8
	l0-129.8L378,242.4z"/>
</svg>
