<svg id="ONT" xmlns="http://www.w3.org/2000/svg" width="512" height="512" viewBox="0 0 512 512">
  <defs>
    <style>
      .cls-1 {
        fill: #32a4be;
      }

      .cls-1, .cls-2 {
        fill-rule: evenodd;
      }

      .cls-2 {
        fill: #fff;
      }
    </style>
  </defs>
  <path id="Full" class="cls-1" d="M11,256c0,135.094,109.906,245,245,245S501,391.094,501,256,391.094,11,256,11,11,120.906,11,256Z"/>
  <path id="ONT-2" data-name="ONT" class="cls-2" d="M123,254l-0.015-127.917L344.733,346.867,346,348l3.884,4.19a133.337,133.337,0,0,1-187.972,0,131.67,131.67,0,0,1-38.927-93.6Zm266.005-.608a131.863,131.863,0,0,0-38.929-93.676,133.336,133.336,0,0,0-187.97,0L166,164l2,2L389.005,385.824,389,256Z"/>
</svg>
