<svg xmlns="http://www.w3.org/2000/svg" viewBox="0 0 490 490" xmlns:v="https://vecta.io/nano"><path d="M0,245c0,135.1,109.9,245,245,245s245-109.9,245-245S380.1,0,245,0S0,109.9,0,245z" fill="#489ed7"/><path d="M112 243V115.1l221.7 220.8 1.3 1.1 3.9 4.2c-52 51.7-136 51.7-188 0-24.9-24.8-39-58.5-38.9-93.6V243zm266-.6c0-35.2-14-68.9-38.9-93.7-52-51.7-136-51.7-188 0l3.9 4.3 2 2 221 219.8V245v-2.6z" fill="#fff"/><path d="M244.959 21.982C122.007 21.982 21.978 122.027 21.978 245s100.029 223.018 222.981 223.018S467.94 367.973 467.94 245 367.912 21.982 244.959 21.982m0-21.982c134.97 0 244.959 109.998 244.959 245s-109.98 245-244.959 245S0 379.998 0 245 109.99 0 244.959 0z" fill="#474747"/></svg>