<?xml version="1.0" encoding="UTF-8" standalone="no"?>
<svg
   viewBox="0 0 490 490"
   version="1.1"
   id="svg8"
   sodipodi:docname="ONT_BEP20.svg"
   inkscape:version="1.1 (c68e22c387, 2021-05-23)"
   xmlns:inkscape="http://www.inkscape.org/namespaces/inkscape"
   xmlns:sodipodi="http://sodipodi.sourceforge.net/DTD/sodipodi-0.dtd"
   xmlns="http://www.w3.org/2000/svg"
   xmlns:svg="http://www.w3.org/2000/svg">
  <defs
     id="defs12" />
  <sodipodi:namedview
     id="namedview10"
     pagecolor="#ffffff"
     bordercolor="#666666"
     borderopacity="1.0"
     inkscape:pageshadow="2"
     inkscape:pageopacity="0.0"
     inkscape:pagecheckerboard="0"
     showgrid="false"
     inkscape:zoom="1.7816327"
     inkscape:cx="245"
     inkscape:cy="245"
     inkscape:window-width="2560"
     inkscape:window-height="1361"
     inkscape:window-x="-9"
     inkscape:window-y="-9"
     inkscape:window-maximized="1"
     inkscape:current-layer="svg8" />
  <path
     d="M0,245c0,135.1,109.9,245,245,245s245-109.9,245-245S380.1,0,245,0S0,109.9,0,245z"
     fill="#489ed7"
     id="path2" />
  <path
     d="M112 243V115.1l221.7 220.8 1.3 1.1 3.9 4.2c-52 51.7-136 51.7-188 0-24.9-24.8-39-58.5-38.9-93.6V243zm266-.6c0-35.2-14-68.9-38.9-93.7-52-51.7-136-51.7-188 0l3.9 4.3 2 2 221 219.8V245v-2.6z"
     fill="#fff"
     id="path4" />
  <path
     d="M244.959 21.982C122.007 21.982 21.978 122.027 21.978 245s100.029 223.018 222.981 223.018S467.94 367.973 467.94 245 367.912 21.982 244.959 21.982m0-21.982c134.97 0 244.959 109.998 244.959 245s-109.98 245-244.959 245S0 379.998 0 245 109.99 0 244.959 0z"
     fill="#474747"
     id="path6"
     style="fill:#e8a607;fill-opacity:1" />
</svg>
