<?xml version="1.0" encoding="UTF-8" standalone="no"?>
<svg
   xmlns:dc="http://purl.org/dc/elements/1.1/"
   xmlns:cc="http://creativecommons.org/ns#"
   xmlns:rdf="http://www.w3.org/1999/02/22-rdf-syntax-ns#"
   xmlns:svg="http://www.w3.org/2000/svg"
   xmlns="http://www.w3.org/2000/svg"
   xmlns:sodipodi="http://sodipodi.sourceforge.net/DTD/sodipodi-0.dtd"
   xmlns:inkscape="http://www.inkscape.org/namespaces/inkscape"
   viewBox="0 0 490 490"
   version="1.1"
   id="svg8"
   sodipodi:docname="ONT_BEP20.svg"
   inkscape:version="1.0.2-2 (e86c870879, 2021-01-15)"
   width="490"
   height="490">
  <metadata
     id="metadata8">
    <rdf:RDF>
      <cc:Work
         rdf:about="">
        <dc:format>image/svg+xml</dc:format>
        <dc:type
           rdf:resource="http://purl.org/dc/dcmitype/StillImage" />
      </cc:Work>
    </rdf:RDF>
  </metadata>
  <defs
     id="defs12" />
  <sodipodi:namedview
     id="namedview10"
     pagecolor="#ffffff"
     bordercolor="#666666"
     borderopacity="1.0"
     inkscape:pageshadow="2"
     inkscape:pageopacity="0.0"
     inkscape:pagecheckerboard="0"
     showgrid="false"
     inkscape:zoom="1.7816327"
     inkscape:cx="245"
     inkscape:cy="245"
     inkscape:window-width="1920"
     inkscape:window-height="1017"
     inkscape:window-x="-8"
     inkscape:window-y="-8"
     inkscape:window-maximized="1"
     inkscape:current-layer="svg8"
     inkscape:document-rotation="0" />
  <path
     d="M 0,245 C 0,380.1 109.9,490 245,490 380.1,490 490,380.1 490,245 490,109.9 380.1,0 245,0 109.9,0 0,109.9 0,245 Z"
     fill="#489ed7"
     id="path2" />
  <path
     d="M 112,243 V 115.1 l 221.7,220.8 1.3,1.1 3.9,4.2 c -52,51.7 -136,51.7 -188,0 -24.9,-24.8 -39,-58.5 -38.9,-93.6 z m 266,-0.6 c 0,-35.2 -14,-68.9 -38.9,-93.7 -52,-51.7 -136,-51.7 -188,0 l 3.9,4.3 2,2 221,219.8 V 245 Z"
     fill="#ffffff"
     id="path4" />
</svg>
