<?xml version="1.0" encoding="UTF-8" standalone="no"?>
<!-- Generator: Adobe Illustrator 22.0.0, SVG Export Plug-In . SVG Version: 6.00 Build 0)  -->

<svg
   version="1.1"
   id="_0xBTC"
   x="0px"
   y="0px"
   viewBox="0 0 491.33859 491.33859"
   xml:space="preserve"
   sodipodi:docname="0xBTC.svg"
   width="491.33859"
   height="491.33859"
   inkscape:version="1.1.1 (c3084ef, 2021-09-22)"
   xmlns:inkscape="http://www.inkscape.org/namespaces/inkscape"
   xmlns:sodipodi="http://sodipodi.sourceforge.net/DTD/sodipodi-0.dtd"
   xmlns="http://www.w3.org/2000/svg"
   xmlns:svg="http://www.w3.org/2000/svg"><defs
   id="defs831" /><sodipodi:namedview
   id="namedview829"
   pagecolor="#ffffff"
   bordercolor="#666666"
   borderopacity="1.0"
   inkscape:pageshadow="2"
   inkscape:pageopacity="0.0"
   inkscape:pagecheckerboard="0"
   showgrid="false"
   inkscape:zoom="0.89230539"
   inkscape:cx="224.69886"
   inkscape:cy="139.52622"
   inkscape:window-width="1624"
   inkscape:window-height="997"
   inkscape:window-x="56"
   inkscape:window-y="25"
   inkscape:window-maximized="1"
   inkscape:current-layer="_0xBTC" />
<style
   type="text/css"
   id="style824">
	.st0{fill:#FF7F00;}
	.st1{fill:#FFFFFF;}
</style>
<path
   id="Full"
   class="st0"
   d="m 0,245.66929 c 0,135.46907 110.20022,245.66929 245.66929,245.66929 135.46907,0 245.66929,-110.20022 245.66929,-245.66929 C 491.33858,110.20022 381.13836,0 245.66929,0 110.20022,0 0,110.20022 0,245.66929 Z"
   style="fill:#ffffff;stroke-width:1.00273" /><path
   fill="#000005"
   d="m 88.736989,245.38276 v -80.70103 a 16.427463,16.427463 0 0 1 8.97675,-15.44002 L 186.22456,98.25373 c 16.8763,-9.694897 33.84237,-19.389793 50.71867,-29.264225 a 17.773977,17.773977 0 0 1 19.30002,0 l 139.13972,80.162435 a 16.786534,16.786534 0 0 1 8.88699,11.13118 c 0.2693,1.16697 0.35907,2.42372 0.35907,3.5907 v 163.37696 a 15.709323,15.709323 0 0 1 -8.34838,14.27304 L 368.1834,357.68198 257.32047,421.5067 c -1.97489,1.25674 -4.03955,2.24419 -6.19397,2.96233 a 16.158161,16.158161 0 0 1 -13.46513,-1.79535 L 200.2283,400.94994 c -7.45071,-4.21907 -14.72188,-8.52791 -22.17259,-12.65722 a 17.055836,17.055836 0 0 1 -9.33583,-16.15816 v -46.67913 a 16.427463,16.427463 0 0 1 13.82421,-17.05584 c 4.12931,-0.5386 8.25861,0.35907 11.66978,2.51349 l 34.29121,19.74887 c 4.93721,2.87256 9.87443,5.65535 14.72188,8.61768 a 5.6553563,5.6553563 0 0 0 6.6428,0 c 20.467,-11.93908 41.11354,-23.7884 61.67031,-35.63772 5.11675,-2.87256 10.05397,-5.83489 15.17072,-8.61769 a 4.7576807,4.7576807 0 0 0 2.78279,-4.66791 v -89.40849 a 4.7576807,4.7576807 0 0 0 -2.69302,-4.75768 l -77.46941,-44.61448 a 5.0269834,5.0269834 0 0 0 -5.65535,0.0898 c -25.67353,14.90142 -51.43682,29.6233 -77.20011,44.43494 a 5.3860536,5.3860536 0 0 0 -2.87256,5.56559 v 147.93694 c 0,1.79535 0,3.5907 -0.35907,5.29629 a 16.337696,16.337696 0 0 1 -23.7884,11.04141 c -3.94977,-2.06466 -7.80978,-4.39861 -11.66978,-6.6428 a 78744.104,78744.104 0 0 0 -30.520971,-17.59444 17.414907,17.414907 0 0 1 -6.73257,-6.6428 15.529788,15.529788 0 0 1 -1.79535,-7.72001 z M 147.3552,351.57779 v -150.8095 a 19.748863,19.748863 0 0 1 10.77211,-18.67166 c 26.03259,-14.90141 51.97542,-29.80283 77.91824,-44.88378 a 19.748863,19.748863 0 0 1 21.18515,0 l 78.00801,44.88378 a 20.107933,20.107933 0 0 1 10.7721,18.85119 v 89.13919 a 20.287469,20.287469 0 0 1 -10.95164,19.12049 l -78.09778,44.88378 a 19.300025,19.300025 0 0 1 -20.64653,0.0898 l -47.66658,-27.46888 -3.3214,-1.79535 v 3.5907 l -0.0898,42.01122 a 4.488378,4.488378 0 0 0 2.69303,4.48838 c 18.67165,10.77211 37.25354,21.45445 55.83542,32.3163 a 4.8474482,4.8474482 0 0 0 5.65536,0 c 45.33262,-26.21211 90.755,-52.42423 136.26716,-78.45683 a 4.8474482,4.8474482 0 0 0 2.69302,-4.93721 V 167.19522 a 4.8474482,4.8474482 0 0 0 -2.87256,-4.84745 L 249.77999,84.24999 246.54836,82.454639 105.16445,163.96359 v 163.37696 z"
   id="path913"
   style="stroke-width:8.97676" />

</svg>
