<svg xmlns="http://www.w3.org/2000/svg" width="439" height="439" fill="none" xmlns:v="https://vecta.io/nano"><path d="M439 219.5C439 340.727 340.727 439 219.5 439S0 340.727 0 219.5 98.274 0 219.5 0 439 98.274 439 219.5z" fill="#f2c45b"/><path d="M115.89 314.105c1.907-1.295 3.687-3.236 4.573-5.99.986-3.062.405-5.756-.057-7.247l-.047-.149.368-2.146c1.014.571 2.183 1.338 3.516 2.275l1.236.879 1.692 1.2 2.905 1.823c29.477 18.321 53.854 25.874 73.217 24.938 20.018-.967 34.057-11.037 41.298-25.734 6.999-14.205 7.243-31.807 2.338-48.113-4.937-16.412-15.319-32.361-30.794-43.399-26.077-18.599-49.971-46.878-62.053-70.925-6.136-12.212-8.577-22.061-7.933-28.492.3-2.993 1.217-4.803 2.314-5.969s3.097-2.452 6.95-3.087c8.161-1.344 17.601-4.283 27.179-7.266l11.153-3.403c13.807-4.037 28.423-7.429 43.787-7.4 29.798.056 64.769 12.993 101.589 66.813 47.3 69.136 21.332 146.393-33.158 186.979-27.175 20.24-61.08 30.984-95.921 26.899-31.371-3.678-64.228-19.465-94.152-52.486zm5.486-17.893c0 .001-.01.021-.034.057.021-.041.033-.059.034-.057zm-2.961 1.35c-.002-.002.029.001.094.017a.43.43 0 0 1-.094-.017z" fill="#fff" stroke="#000" stroke-width="17.8"/><g fill="#000"><path d="M142.967 107.5s84.5-22.5 103-22.5 92.426 35.898 114 101.5c30.585 93-52.605 153.978-62 148 89.5-74-57-210.784-129-200.5-9 1.286-4 9-4 9l-2 20-15-25-5-30.5z"/><path d="M347.656 158.526c26.684 46.972 21.138 20.079 15.215 73.776 10.962-17.733 28.102-4.455 35.181 2.326 1.269 1.215 3.362.461 3.303-1.294-.27-7.965-2.552-25.176-15.737-43.641-18.08-25.32-37.962-31.167-37.962-31.167z"/></g><path d="M362.871 232.302c5.923-53.697 11.469-26.804-15.215-73.776 0 0 19.882 5.847 37.962 31.167 13.185 18.465 15.467 35.676 15.737 43.641.059 1.755-2.034 2.509-3.303 1.294-7.079-6.781-24.219-20.059-35.181-2.326zm0 0l2.613-6.455" stroke="#000"/><g fill="#000"><path d="M132.971 225.139c-11.258 19.062-34.358 17.632-33.916 40.366 20.632 45.84 20.755 42.552 20.755 42.552 38.217-21.47 22.512-68.876 16.841-82.819-.641-1.576-2.815-1.563-3.68-.099z"/><path d="M46.339 267.283c21.951 2.864 35.046-16.219 52.689-1.874 23.421 44.48 20.754 42.552 20.754 42.552-40.447 16.898-68.134-24.664-75.63-37.717-.847-1.475.501-3.181 2.188-2.961zm184.128-28.281s22 22.503 10.5 26c-14.34-8.826-40.037-1.967-52.632 2.281-3.101 1.046-6.141-1.706-5.023-4.782 4.283-11.785 14.859-33.601 35.155-36.499 12-3.002 12 13 12 13z"/></g><path d="M243.967 129c-2.5-3.5-7.5-13 8-13s39.184 17.551 44 24.043c-1.5 3.957-11.5 4.842-16.5 4.457s-13.5-1.207-20-4.457-13-7.543-15.5-11.043z" fill="#fff"/></svg>