<svg xmlns="http://www.w3.org/2000/svg" width="250" height="250" xmlns:v="https://vecta.io/nano"><circle cx="125" cy="125" r="124.927" fill="#55555f" stroke="#fff" stroke-width=".146"/><path d="M118.74 227.65l-27.149-15.62-35.15-20.261c-20.332-11.712-21.847-12.65-22.667-14.038-.704-1.192-.769-5.669-.769-52.672 0-57.476-.291-52.785 3.413-55.084 5.029-3.123 85.372-49.237 86.574-49.691.924-.349 1.901-.375 2.988-.08.889.241 21.183 11.714 45.098 25.496l44.476 26.452.994 1.394v51.595 51.595l-.975 1.306c-.612.82-8.042 5.381-19.955 12.251l-70.482 39.744c-1.595.163-2.526-.184-6.395-2.386zm-3.633-21.957c2.593-1.899 2.823-3.091 2.824-14.615l.001-10.553 2.381 1.465c3.054 1.879 5.446 1.943 8.515.228 1.218-.681 2.281-1.238 2.363-1.238s.212 4.788.29 10.641c.131 9.903.207 10.73 1.097 11.921 1.705 2.282 3.342 3.195 5.69 3.177 1.997-.016 4.557-1.395 32.054-17.275l30.793-18.081c2.265-2.05 2.206-1.028 2.206-38.515 0-39.607.208-37.284-3.529-39.481-2.937-1.727-4.454-1.279-13.642 4.028-4.467 2.58-8.278 4.692-8.469 4.692s-.355-1.618-.365-3.596c-.019-4.22-.493-5.264-3.204-7.059l-2.002-1.325 1.799-1.118c.989-.615 4.456-2.631 7.704-4.48 3.504-1.995 6.307-3.925 6.892-4.747 2.07-2.907 1.428-7.211-1.369-9.18-2.638-1.858-58.867-34.126-60.423-34.675-1.878-.663-4.378-.279-6.274.963-1.119.733-6.329 3.748-42.587 24.641-8.387 4.833-15.746 9.283-16.353 9.889-2.39 2.386-2.338 6.599.113 9.05.674.674 4.556 3.13 8.627 5.458l7.401 4.232-1.769.992c-2.896 1.624-3.885 3.545-3.885 7.544 0 1.877-.126 3.412-.279 3.412s-3.965-2.134-8.469-4.741c-7.151-4.14-8.465-4.743-10.36-4.757-2.349-.017-3.987.898-5.69 3.179-.944 1.264-.959 1.76-1.088 36.169-.115 30.772-.045 35.114.597 36.804.819 2.156 1.51 2.877 4.175 4.36l29.237 16.82 28.773 16.424c1.752.8 4.658.496 6.225-.652zm5.493-36.833l-2.668-1.474v-18.054c0-19.036-.041-19.444-2.157-21.329-.473-.421-5.454-3.428-11.069-6.681l-15.547-9.007-5.337-3.091-.119-3.685c-.074-2.285.104-4.118.468-4.825.592-1.152 3.865-3.689 4.795-3.717.277-.008 7.795 4.193 16.707 9.336s16.896 9.51 17.744 9.704 2.17.172 2.939-.048 8.696-4.61 17.616-9.755c15.194-8.764 16.296-9.32 17.48-8.817 3.419 1.453 4.284 3.077 4.265 8.004l-.015 3.859-10.079 5.782c-21.508 12.339-22.367 12.893-23.335 15.024-.812 1.787-.879 3.274-.888 19.645l-.01 17.711-2.204 1.253c-3.334 1.896-5.38 1.935-8.585.164z" fill="#f7334b"/><path d="M123.294 182.967c-.497-.129-1.645-.701-2.552-1.271s-10.525-6.132-21.373-12.359c-16.736-9.608-20.004-11.323-21.58-11.323-1.549-.001-3.853 1.153-13.901 6.958l-12.46 7.129c-.762.312-2.665-1.023-3.588-2.516-.64-1.036-.912-2.302-.912-4.246v-2.77l11.718-6.75c8.507-4.9 12.004-7.165 12.762-8.265l1.044-1.516v-24.922c0-16.454.168-25.405.495-26.342.272-.781 1.264-1.934 2.204-2.562s10.585-6.232 21.433-12.453 20.35-11.869 21.116-12.551l1.392-1.241.232-13.82.232-13.82 1.568-.915c1.996-1.165 5.117-1.18 7.242-.036l1.632.879V51.42c0 14.949-.014 14.883 3.712 17.225 1.149.722 10.756 6.271 21.348 12.33s19.834 11.621 20.535 12.359l1.276 1.342v25.408c0 23.689.057 25.515.845 26.984.697 1.3 2.911 2.773 12.646 8.414l11.801 6.838.137 3.323c.134 3.262.107 3.352-1.514 4.974-1.063 1.063-1.953 1.572-2.497 1.43-.465-.122-6.153-3.318-12.64-7.103-10.384-6.059-12.044-6.883-13.882-6.896-1.885-.013-3.761.95-19.259 9.887l-21.348 12.356c-4.161 2.445-6.149 3.121-7.864 2.676zm21.773-22.846c10.178-5.857 19.043-11.187 19.701-11.844l1.196-1.195.232-18.689-.012-23.427c-.219-4.261-.359-4.85-1.392-5.856-1.99-1.938-37.589-22.173-39.447-22.422-1.097-.147-2.252.061-3.277.591-2.271 1.173-33.925 19.451-35.893 20.725-3.1 2.008-3.049 1.574-3.047 25.965.002 20.746.051 22.054.881 23.415.676 1.108 4.945 3.783 18.445 11.556l18.959 10.965c3.165 1.934 3.622 1.746 23.655-9.782z" fill="#00e93b"/></svg>