<svg id="OST" xmlns="http://www.w3.org/2000/svg" width="512" height="512" viewBox="0 0 512 512">
  <defs>
    <style>
      .cls-1 {
        fill: #34445b;
      }

      .cls-1, .cls-2 {
        fill-rule: evenodd;
      }

      .cls-2 {
        fill: #fff;
      }
    </style>
  </defs>
  <path id="Full" class="cls-1" d="M11,256c0,135.094,109.906,245,245,245S501,391.094,501,256,391.094,11,256,11,11,120.906,11,256Z"/>
  <path id="OST-2" data-name="ST" class="cls-2" d="M269.554,193.375l28.936-45.366a29.332,29.332,0,1,0-17.34-11.169l-35.945,56.347A114.476,114.476,0,1,0,269.554,193.375ZM256.4,368.564a61.021,61.021,0,1,1,56.825-82.575,35.263,35.263,0,1,0-.063,43.3,60.768,60.768,0,0,1-56.768,39.279H256.4Z"/>
</svg>
