<?xml version="1.0" encoding="utf-8"?>
<!-- Generator: Adobe Illustrator 22.0.0, SVG Export Plug-In . SVG Version: 6.00 Build 0)  -->
<svg version="1.1" id="OST" xmlns="http://www.w3.org/2000/svg" xmlns:xlink="http://www.w3.org/1999/xlink" x="0px" y="0px"
	 viewBox="0 0 490 490" style="enable-background:new 0 0 490 490;" xml:space="preserve">
<style type="text/css">
	.st0{fill:#34445B;}
	.st1{fill:#FFFFFF;}
</style>
<path id="Full" class="st0" d="M0,245c0,135.1,109.9,245,245,245s245-109.9,245-245S380.1,0,245,0S0,109.9,0,245z"/>
<path id="OST-2" class="st1" d="M258.6,182.4l28.9-45.4c15.8,3.4,31.4-6.6,34.9-22.5s-6.6-31.4-22.5-34.9
	c-15.8-3.4-31.4,6.6-34.9,22.5c-1.8,8.3,0.1,16.9,5.1,23.7l-35.9,56.3c-62.9,6.2-108.9,62.3-102.6,125.2S193.9,416.3,256.8,410
	s108.9-62.3,102.6-125.2C354.1,231.2,312.1,188.5,258.6,182.4z M245.4,357.6c-33.7,0.1-61.1-27.1-61.3-60.8s27.1-61.1,60.8-61.3
	c25.5-0.1,48.3,15.6,57.3,39.5c-11.9-15.4-34.1-18.2-49.5-6.3s-18.2,34.1-6.3,49.5c11.9,15.4,34.1,18.2,49.5,6.3
	c2.3-1.8,4.4-3.9,6.2-6.2C293.2,341.9,270.6,357.5,245.4,357.6L245.4,357.6L245.4,357.6z"/>
</svg>
