<svg xmlns="http://www.w3.org/2000/svg" width="250" height="250" xmlns:v="https://vecta.io/nano"><circle cx="125" cy="125" r="119.926" fill="#5f45ba" stroke="#fff" stroke-width=".148"/><g fill="#fff"><path d="M87.65 68.633c-2.545 4.283-8.08 5.695-12.364 3.151s-5.695-8.08-3.151-12.364 8.08-5.695 12.364-3.151 5.695 8.08 3.151 12.364m-30.798-4.004a6.38 6.38 0 0 1-8.734 2.225 6.38 6.38 0 0 1-2.225-8.734c1.795-3.031 5.711-4.02 8.734-2.225 3.031 1.803 4.028 5.711 2.225 8.734"/><path d="M142.585 195.206c33.055-3.885 59.641-30.909 61.811-65.304 2.441-38.702-26.961-72.053-65.663-74.485a70.42 70.42 0 0 0-13.6.463c-9.301.758-17.158 4.307-17.158 4.307-6.365 3.111-10.473 8.312-10.473 15.267 0 9.045 7.33 16.384 16.376 16.384 1.516 0 6.748-1.659 7.993-2.09a37.58 37.58 0 0 1 14.821-2.018c13.369.846 24.672 8.535 30.726 19.439a37.67 37.67 0 0 1 4.666 20.715c-1.316 20.859-19.287 36.708-40.154 35.392-12.324-.782-22.893-7.378-29.218-16.942-7.562-9.891-5.815-25.709-5.823-25.908-.311-8.798-7.514-15.834-16.384-15.834-7.578 0-13.935 5.145-15.826 12.124-.367 1.372-.558 5.392-.503 5.927-1.563 38.032 27.543 70.521 65.719 72.922 4.236.263 8.479.144 12.691-.359M78.254 93.68c-3.302 5.56-10.481 7.386-16.033 4.084s-7.386-10.481-4.084-16.033 10.481-7.386 16.033-4.084a11.71 11.71 0 0 1 4.084 16.033"/></g></svg>