<svg xmlns="http://www.w3.org/2000/svg" width="244.8" height="244.8" viewBox="0 0 244.8 244.8">
  <g id="oxygen-solana" transform="translate(-3515.5 -6056.924)">
    <path id="Main_copy_10" d="M0,121.252C0,188.064,54.44,242.5,121.252,242.5S242.5,188.064,242.5,121.252,188.064,0,121.252,0,0,54.44,0,121.252Z" transform="translate(3516.748 6058.172)" fill="#2261f6"/>
    <g id="Main_copy_14" transform="translate(3515.5 6056.924)" fill="none">
      <path d="M0,122.4c0,67.444,54.954,122.4,122.4,122.4s122.4-54.954,122.4-122.4S189.841,0,122.4,0,0,54.954,0,122.4Z" stroke="none"/>
      <path d="M 122.4000015258789 11 C 60.97383117675781 11 11 60.97383117675781 11 122.4000015258789 C 11 183.826171875 60.97383117675781 233.8000030517578 122.4000015258789 233.8000030517578 C 183.826171875 233.8000030517578 233.8000030517578 183.826171875 233.8000030517578 122.4000015258789 C 233.8000030517578 60.97383117675781 183.826171875 11 122.4000015258789 11 M 122.4000015258789 0 C 189.8410034179688 0 244.8000030517578 54.95399475097656 244.8000030517578 122.4000015258789 C 244.8000030517578 189.8460083007813 189.8460083007813 244.8000030517578 122.4000015258789 244.8000030517578 C 54.95399475097656 244.8000030517578 0 189.843994140625 0 122.4000015258789 C 0 54.95399475097656 54.95899963378906 0 122.4000015258789 0 Z" stroke="none" fill="#1ae5ae"/>
    </g>
    <g id="oxygen-solan_a" data-name="oxygen-solan a" transform="translate(43.046 -332.045)">
      <circle id="Ellipse_834" data-name="Ellipse 834" cx="10.642" cy="10.642" r="10.642" transform="translate(3584.212 6562.452)" fill="#fff"/>
      <circle id="Ellipse_835" data-name="Ellipse 835" cx="10.642" cy="10.642" r="10.642" transform="translate(3584.212 6439)" fill="#fff"/>
      <circle id="Ellipse_836" data-name="Ellipse 836" cx="8.514" cy="8.514" r="8.514" transform="translate(3586.34 6472.346)" fill="#fff"/>
      <circle id="Ellipse_837" data-name="Ellipse 837" cx="8.514" cy="8.514" r="8.514" transform="translate(3556.542 6456.738)" fill="#fff"/>
      <circle id="Ellipse_838" data-name="Ellipse 838" cx="8.514" cy="8.514" r="8.514" transform="translate(3556.542 6549.681)" fill="#fff"/>
      <circle id="Ellipse_839" data-name="Ellipse 839" cx="8.514" cy="8.514" r="8.514" transform="translate(3612.947 6488.31)" fill="#fff"/>
      <circle id="Ellipse_840" data-name="Ellipse 840" cx="8.514" cy="8.514" r="8.514" transform="translate(3612.947 6517.754)" fill="#fff"/>
      <circle id="Ellipse_841" data-name="Ellipse 841" cx="8.514" cy="8.514" r="8.514" transform="translate(3586.34 6533.363)" fill="#fff"/>
      <circle id="Ellipse_842" data-name="Ellipse 842" cx="6.74" cy="6.74" r="6.74" transform="translate(3588.115 6504.627)" fill="#fff"/>
      <circle id="Ellipse_843" data-name="Ellipse 843" cx="6.74" cy="6.74" r="6.74" transform="translate(3558.315 6519.883)" fill="#fff"/>
      <circle id="Ellipse_844" data-name="Ellipse 844" cx="6.74" cy="6.74" r="6.74" transform="translate(3558.315 6490.083)" fill="#fff"/>
      <circle id="Ellipse_845" data-name="Ellipse 845" cx="4.966" cy="4.966" r="4.966" transform="translate(3531 6475.894)" fill="#fff"/>
      <circle id="Ellipse_846" data-name="Ellipse 846" cx="4.966" cy="4.966" r="4.966" transform="translate(3531 6506.401)" fill="#fff"/>
      <circle id="Ellipse_847" data-name="Ellipse 847" cx="4.966" cy="4.966" r="4.966" transform="translate(3531 6536.909)" fill="#fff"/>
      <circle id="Ellipse_848" data-name="Ellipse 848" cx="10.642" cy="10.642" r="10.642" transform="translate(3610.818 6454.61)" fill="#fff"/>
      <circle id="Ellipse_849" data-name="Ellipse 849" cx="10.642" cy="10.642" r="10.642" transform="translate(3610.818 6547.197)" fill="#fff"/>
      <circle id="Ellipse_850" data-name="Ellipse 850" cx="10.642" cy="10.642" r="10.642" transform="translate(3637.424 6470.217)" fill="#fff"/>
      <circle id="Ellipse_851" data-name="Ellipse 851" cx="10.642" cy="10.642" r="10.642" transform="translate(3637.424 6531.234)" fill="#fff"/>
      <circle id="Ellipse_852" data-name="Ellipse 852" cx="10.642" cy="10.642" r="10.642" transform="translate(3637.424 6500.725)" fill="#fff"/>
    </g>
  </g>
</svg>
