<?xml version="1.0" encoding="UTF-8" standalone="no"?>
<svg
   id="svg"
   version="1.1"
   width="400"
   height="400"
   viewBox="0, 0, 400,400"
   sodipodi:docname="image2vector (1).svg"
   inkscape:version="1.1.1 (c3084ef, 2021-09-22)"
   xmlns:inkscape="http://www.inkscape.org/namespaces/inkscape"
   xmlns:sodipodi="http://sodipodi.sourceforge.net/DTD/sodipodi-0.dtd"
   xmlns="http://www.w3.org/2000/svg"
   xmlns:svg="http://www.w3.org/2000/svg">
  <defs
     id="defs3622" />
  <sodipodi:namedview
     id="namedview3620"
     pagecolor="#ffffff"
     bordercolor="#666666"
     borderopacity="1.0"
     inkscape:pageshadow="2"
     inkscape:pageopacity="0.0"
     inkscape:pagecheckerboard="0"
     showgrid="false"
     inkscape:zoom="1.5625"
     inkscape:cx="173.12"
     inkscape:cy="157.76"
     inkscape:window-width="1296"
     inkscape:window-height="847"
     inkscape:window-x="53"
     inkscape:window-y="25"
     inkscape:window-maximized="0"
     inkscape:current-layer="svg" />
  <circle
     style="fill:#e3924e;fill-opacity:1;stroke-width:1.79451"
     id="path3703"
     cx="200"
     cy="200"
     r="200" />
  <g
     id="svgg">
    <path
       id="path1"
       d="m 135.319,101.584 c -2.711,1.653 -2.519,-3.352 -2.519,65.616 0,68.454 -0.168,63.771 2.356,65.568 1.659,1.182 22.367,1.294 24.411,0.132 3.055,-1.736 2.833,3.42 2.833,-65.708 0,-67.401 0.154,-63.182 -2.376,-65.311 l -1.285,-1.081 -11.07,0.001 c -10.273,0.002 -11.161,0.058 -12.35,0.783 m 52.246,0.128 c -2.49,1.678 -2.369,-0.458 -2.262,39.762 l 0.097,36.874 1.138,1.188 c 2.109,2.2 21.174,3.032 25.166,1.098 2.811,-1.362 2.662,0.664 2.82,-38.605 0.156,-38.825 0.195,-38.015 -1.88,-39.917 l -1.432,-1.312 h -11.147 c -10.941,0 -11.172,0.017 -12.5,0.912 m 52.994,64.85 c -0.683,0.303 -1.628,1.093 -2.1,1.756 l -0.859,1.205 0.001,62.739 c 0.002,70.463 -0.268,64.361 2.912,65.87 2.151,1.02 21.433,0.994 23.487,-0.033 2.985,-1.491 2.753,3.663 2.935,-65.1 0.174,-65.405 0.221,-63.725 -1.818,-65.679 l -1.168,-1.12 -11.075,-0.094 c -8.687,-0.073 -11.342,0.025 -12.315,0.456 m -52.791,52.592 c -2.694,1.643 -2.568,-0.298 -2.568,39.513 0,34.049 0.039,36.017 0.731,37.308 1.43,2.666 2.205,2.825 13.776,2.825 11.345,0 12.298,-0.16 13.834,-2.316 l 0.859,-1.207 v -36.901 -36.9 l -1.617,-1.538 -1.617,-1.538 -11.083,0.001 c -10.138,0.002 -11.188,0.066 -12.315,0.753"
       stroke="none"
       fill="#fbfbfb"
       fill-rule="evenodd"
       sodipodi:nodetypes="csccsccccccccccccscccccccccccccscscccccccc" />
  </g>
</svg>
