<svg width="256px" height="256px" viewBox="0 0 490 490" version="1.1" xmlns="http://www.w3.org/2000/svg" xmlns:xlink="http://www.w3.org/1999/xlink">
    <g id="Page-1" stroke="none" stroke-width="1" fill="none" fill-rule="evenodd">
        <g id="PAX">
            <path d="M0,245 C0,380.094 109.906,490 245,490 C380.094,490 490,380.094 490,245 C490,109.906 380.094,0 245,0 C109.906,0 0,109.906 0,245 Z" id="Main-F" fill="#00522C"></path>
            <path d="M408.074064,211.826286 C437.097621,258.645498 418.300486,288.336363 415,294 C399.177,319.656 355.87,330 334,348 C313.219,361.992 276.737,399.768 266,406 C254.565896,413.579645 195.635975,428.1896 148.518504,372.552572 C143.632877,371.803003 138.787958,370.949103 134,370 C119.26,363.461 65.813,358.456 65.813,302 C65.813,274.844 83.719,236.112 91.001,217 C103.12,163.237 103.375,139.961 117,125 C129.758202,102.071753 161.596271,99.2426382 185.532833,100.341855 C199.038639,88.7301553 217.78895,76.3930898 236,77 C270.057,78.135 279.63,95.841 301,104 C325.935,116.716 375.3,121.1 393,126 C434.508034,147.375081 409.622569,208.157141 408.074064,211.826286 Z M165,190 C125.1,236.674 152.715,290.471 164,304 C202.4,352.377 257.9,338.08 274,333 C290.1,327.92 344.191,291.193 325,218 C310.268,148.342 251.234,148 245,148 C238.766,148 199.047,145.84 165,190 Z" id="Shape" fill="#FFFFFF"></path>
        </g>
    </g>
</svg>