<?xml version="1.0" encoding="utf-8"?>
<!-- Generator: Adobe Illustrator 22.0.0, SVG Export Plug-In . SVG Version: 6.00 Build 0)  -->
<svg version="1.1" id="Lager_1" xmlns="http://www.w3.org/2000/svg" xmlns:xlink="http://www.w3.org/1999/xlink" x="0px" y="0px"
	 viewBox="0 0 256 256" style="enable-background:new 0 0 256 256;" xml:space="preserve">
<style type="text/css">
	.st0{fill:#00522C;}
	.st1{fill:#FFFFFF;}
</style>
<g id="Page-1">
	<g id="PAX">
		<path id="Main-F" class="st0" d="M0,128c0,70.6,57.4,128,128,128s128-57.4,128-128S198.6,0,128,0S0,57.4,0,128z"/>
		<path id="Shape" class="st1" d="M213.2,110.7c15.2,24.5,5.3,40,3.6,42.9c-8.3,13.4-30.9,18.8-42.3,28.2
			c-10.9,7.3-29.9,27-35.5,30.3c-6,4-36.8,11.6-61.4-17.5c-2.6-0.4-5.1-0.8-7.6-1.3c-7.7-3.4-35.6-6-35.6-35.5
			c0-14.2,9.4-34.4,13.2-44.4c6.3-28.1,6.5-40.2,13.6-48.1c6.7-12,23.3-13.5,35.8-12.9c7.1-6.1,16.9-12.5,26.4-12.2
			c17.8,0.6,22.8,9.8,34,14.1c13,6.6,38.8,8.9,48.1,11.5C227,77,214,108.8,213.2,110.7z M86.2,99.3c-20.8,24.4-6.4,52.5-0.5,59.6
			c20.1,25.3,49.1,17.8,57.5,15.2c8.4-2.7,36.7-21.8,26.6-60.1c-7.7-36.4-38.5-36.6-41.8-36.6C124.7,77.3,104,76.2,86.2,99.3z"/>
	</g>
</g>
</svg>
