<?xml version="1.0" encoding="UTF-8" standalone="no"?>
<svg
   xmlns:dc="http://purl.org/dc/elements/1.1/"
   xmlns:cc="http://creativecommons.org/ns#"
   xmlns:rdf="http://www.w3.org/1999/02/22-rdf-syntax-ns#"
   xmlns:svg="http://www.w3.org/2000/svg"
   xmlns="http://www.w3.org/2000/svg"
   xmlns:sodipodi="http://sodipodi.sourceforge.net/DTD/sodipodi-0.dtd"
   xmlns:inkscape="http://www.inkscape.org/namespaces/inkscape"
   viewBox="0 0 236 236"
   version="1.1"
   id="svg8"
   sodipodi:docname="PAX_BEP20.svg"
   inkscape:version="1.0.2-2 (e86c870879, 2021-01-15)"
   width="236"
   height="236">
  <metadata
     id="metadata8">
    <rdf:RDF>
      <cc:Work
         rdf:about="">
        <dc:format>image/svg+xml</dc:format>
        <dc:type
           rdf:resource="http://purl.org/dc/dcmitype/StillImage" />
      </cc:Work>
    </rdf:RDF>
  </metadata>
  <defs
     id="defs12" />
  <sodipodi:namedview
     id="namedview10"
     pagecolor="#ffffff"
     bordercolor="#666666"
     borderopacity="1.0"
     inkscape:pageshadow="2"
     inkscape:pageopacity="0.0"
     inkscape:pagecheckerboard="0"
     showgrid="false"
     inkscape:zoom="3.4101562"
     inkscape:cx="118"
     inkscape:cy="118"
     inkscape:window-width="1920"
     inkscape:window-height="1017"
     inkscape:window-x="-8"
     inkscape:window-y="-8"
     inkscape:window-maximized="1"
     inkscape:current-layer="svg8"
     inkscape:document-rotation="0" />
  <path
     d="m 0,118 c 0,65.084 52.916,118 118,118 65.084,0 118,-52.916 118,-118 C 236,52.916 183.084,0 118,0 52.916,0 0,52.916 0,118 Z"
     fill="#00522c"
     id="path2" />
  <path
     d="m 196.544,102.052 c 14.012,22.586 4.886,36.875 3.319,39.548 -7.652,12.353 -28.486,17.331 -38.995,25.997 -10.048,6.73 -27.564,24.891 -32.727,27.933 -5.531,3.688 -33.925,10.694 -56.603,-16.133 -2.397,-0.369 -4.702,-0.738 -7.006,-1.198 -7.098,-3.134 -32.819,-5.531 -32.819,-32.727 0,-13.091 8.666,-31.713 12.169,-40.931 5.808,-25.905 5.992,-37.059 12.537,-44.342 6.177,-11.062 21.48,-12.445 33.003,-11.892 6.545,-5.623 15.58,-11.523 24.338,-11.247 16.409,0.553 21.019,9.034 31.344,12.998 11.984,6.084 35.769,8.205 44.342,10.602 19.82,10.325 7.836,39.641 7.098,41.392 z M 79.466,91.542 c -19.175,22.494 -5.9,48.398 -0.461,54.944 18.53,23.323 45.264,16.409 53.008,14.012 7.744,-2.489 33.833,-20.097 24.522,-55.405 C 149.437,71.537 121.043,71.352 118.001,71.352 114.959,71.26 95.876,70.246 79.467,91.541 Z"
     fill="#ffffff"
     id="path4" />
</svg>
