<?xml version="1.0" encoding="UTF-8" standalone="no"?>
<svg
   xmlns:dc="http://purl.org/dc/elements/1.1/"
   xmlns:cc="http://creativecommons.org/ns#"
   xmlns:rdf="http://www.w3.org/1999/02/22-rdf-syntax-ns#"
   xmlns:svg="http://www.w3.org/2000/svg"
   xmlns="http://www.w3.org/2000/svg"
   xmlns:sodipodi="http://sodipodi.sourceforge.net/DTD/sodipodi-0.dtd"
   xmlns:inkscape="http://www.inkscape.org/namespaces/inkscape"
   width="256"
   height="256"
   version="1.1"
   id="svg27"
   sodipodi:docname="PAXG_ERC20.svg"
   inkscape:version="1.0.2-2 (e86c870879, 2021-01-15)">
  <metadata
     id="metadata31">
    <rdf:RDF>
      <cc:Work
         rdf:about="">
        <dc:format>image/svg+xml</dc:format>
        <dc:type
           rdf:resource="http://purl.org/dc/dcmitype/StillImage" />
      </cc:Work>
    </rdf:RDF>
  </metadata>
  <sodipodi:namedview
     pagecolor="#ffffff"
     bordercolor="#666666"
     borderopacity="1"
     objecttolerance="10"
     gridtolerance="10"
     guidetolerance="10"
     inkscape:pageopacity="0"
     inkscape:pageshadow="2"
     inkscape:window-width="1920"
     inkscape:window-height="1017"
     id="namedview29"
     showgrid="false"
     inkscape:zoom="3.3203125"
     inkscape:cx="128"
     inkscape:cy="128"
     inkscape:window-x="-8"
     inkscape:window-y="-8"
     inkscape:window-maximized="1"
     inkscape:current-layer="svg27" />
  <defs
     id="defs5">
    <mask
       id="A"
       x="0"
       y="4.82"
       width="23.84"
       height="54.6"
       maskUnits="userSpaceOnUse">
      <path
         d="M 23.84,59.42 H 0 V 4.82 h 23.84 z"
         fill="#ffffff"
         fill-rule="evenodd"
         id="path2" />
    </mask>
  </defs>
  <path
     d="M 6.5570002,128 C 6.5570002,194.964 61.036,249.443 128,249.443 194.964,249.443 249.443,194.964 249.443,128 249.443,61.036 194.964,6.5570002 128,6.5570002 61.036,6.5570002 6.5570002,61.036 6.5570002,128 Z"
     fill="#ffffff"
     fill-rule="evenodd"
     stroke="#b0b0b0"
     stroke-width="13.114"
     paint-order="normal"
     id="path7"
     style="stroke:#ffffff;stroke-opacity:1" />
  <g
     transform="matrix(2.884423,0,0,2.884423,24.555849,30.347393)"
     id="g25">
    <g
       mask="url(#A)"
       id="g11">
      <path
         d="m 20,8.84 3.83,-4 c -20.26,-0.65 -14.36,14 -21,28.87 -7.6,17.14 0.9,23.67 13.56,25.71 a 27.56,27.56 0 0 1 -4.28,-7 C 3.94,42.09 7.25,23.26 20,8.84"
         fill="#efe812"
         id="path9" />
    </g>
    <g
       fill="#ede70a"
       id="g17">
      <path
         d="M 68.75,27.1 A 57.87,57.87 0 0 1 58.52,44.23 49.09,49.09 0 0 1 46.09,55 33.56,33.56 0 0 1 27.75,60.21 72.2,72.2 0 0 1 16.43,59.42 23.14,23.14 0 0 0 24,65.35 C 42.32,74.21 43.47,57.76 62.85,49.41 73.73,44.72 73.77,35.56 68.74,27.1"
         id="path13" />
      <path
         d="m 46.09,10 a 24.07,24.07 0 0 1 7.56,2.68 42.17,42.17 0 0 1 15.1,14.42 C 72.05,17.8 70.51,10.5 63.3,9.18 55.36,7.73 49.16,7.26 43.2,3.1 35.86,-2 29.42,-0.34 23.84,4.85 l 1.21,0.05 c 7.74,0.46 15.14,2 21,5.08"
         id="path15" />
    </g>
    <path
       d="M 20,8.84 C 7.25,23.26 3.94,42.09 12.15,52.42 a 31.36,31.36 0 0 1 1.77,-28 C 20.83,12.9 34.7,7.9 46.09,10 40.19,6.88 32.79,5.38 25.09,4.92 L 23.88,4.86 C 22.64,6 21.38,7.28 20,8.84"
       fill="#dec21c"
       id="path19" />
    <path
       d="M 53.65,12.66 A 24.07,24.07 0 0 0 46.09,10 C 53.85,14.08 59,21 59,31.94 A 27.53,27.53 0 0 1 46.09,55 48.89,48.89 0 0 0 58.52,44.23 57.87,57.87 0 0 0 68.75,27.1 42.17,42.17 0 0 0 53.65,12.66"
       fill="#e5cb22"
       id="path21" />
    <path
       d="M 46.09,10 C 34.7,7.9 20.83,12.9 13.92,24.37 a 31.33,31.33 0 0 0 -1.77,28.05 27.28,27.28 0 0 0 4.28,7 72.2,72.2 0 0 0 11.32,0.79 A 33.56,33.56 0 0 0 46.09,55 27.52,27.52 0 0 0 59,31.94 C 59,21 53.85,14.08 46.09,10 M 44.81,49.8 A 18.94,18.94 0 0 1 18.69,44.18 c -5.66,-8.73 -2.86,-20 5.63,-26 9.5,-6.75 21.68,-4.09 26.12,5.62 4.33,9.46 3.14,20.39 -5.63,26"
       fill="#cca727"
       id="path23" />
  </g>
</svg>
