<svg xmlns="http://www.w3.org/2000/svg" width="250" height="250" xmlns:v="https://vecta.io/nano"><circle cx="125" cy="125" r="124.814" fill="#55555f" stroke="#fff" stroke-width=".371"/><path d="M109.178 164.159c-3.03-8.641-1.888-5.007-5.388-11.275-5.079-9.096-12.825-12.535-27.902-17.613-14.775-4.976-21.133-10.929-26.304-16.101-2.41-2.41-5.137-3.206-4.831-4.853.12-5.304-1.291-34.071 5.247-50.213 4.745-11.716 14.747-16.227 14.747-16.227l24.765 37.519c2.268 2.244 67.939 27.099 81.828 39.797 10.546 9.642 36.276 15.127 1.282 33.048-9.8 5.019-33.797 5.357-44.398 5.727-6.264.455-18.642.2-19.046.192z" fill="#705ff9"/><path d="M167.969 95.878l-59.077-47.633c-3.5-2.996-8.639-6.093-13.158-7.46-2.795-.845 7.478-.644 23.072-.768 15.66-.125 31.928.427 36.338 1.232 30.601 5.589 52.696 33.977 50.916 64.489-.803 7.403-20.76 6.096-38.092-9.861z" fill="#07d4d6"/><path d="M167.109 122.801c-7.098-5.571-20.83-12.135-56.686-27.097-26.229-10.945-44.787-23.545-48.237-35.496-2.986-10.341-3.595-9.905 9.401-15.889 11.863-5.031 24.004-4.513 28.949-3.718 7.493 1.206 9.653 12.506 40.241 28.697 35.167 18.615 65.126 30.521 65.311 38.319.569 23.934-17.776 38.771-19.237 41.402-4.539-9.502-11.999-19.985-19.742-26.219z" fill="#0092ee"/><path d="M58.653 206.671c-6.294-3.326-11.471-9.529-13.226-15.848-1.442-5.191-2.027-75.663-.629-75.663.427 0 2.621 1.844 4.874 4.098 5.085 5.085 13.214 9.208 27.923 14.163 15.083 5.08 22.395 10.224 27.481 19.331 3.536 6.332 4.042 8.493 3.782 16.15-.611 18.001-6.437 27.608-21.56 35.555-11.02 5.791-20.491 6.523-28.646 2.214z" fill="#2b63eb"/></svg>