<?xml version="1.0" encoding="UTF-8" standalone="no"?>
<svg
   xmlns:dc="http://purl.org/dc/elements/1.1/"
   xmlns:cc="http://creativecommons.org/ns#"
   xmlns:rdf="http://www.w3.org/1999/02/22-rdf-syntax-ns#"
   xmlns:svg="http://www.w3.org/2000/svg"
   xmlns="http://www.w3.org/2000/svg"
   id="svg8"
   version="1.1"
   viewBox="0 0 67.733332 67.733335"
   height="256"
   width="256">
  <defs
     id="defs2" />
  <metadata
     id="metadata5">
    <rdf:RDF>
      <cc:Work
         rdf:about="">
        <dc:format>image/svg+xml</dc:format>
        <dc:type
           rdf:resource="http://purl.org/dc/dcmitype/StillImage" />
        <dc:title></dc:title>
      </cc:Work>
    </rdf:RDF>
  </metadata>
  <g
     transform="translate(0,-229.26665)"
     id="layer1">
    <g
       id="g1040">
      <path
         style="stroke-width:0.13229166;fill:#8b68ae;fill-opacity:1"
         id="Full"
         class="cls-1"
         d="m 1.4882812,263.20359 c 0,17.87181 14.5396478,32.41146 32.4114578,32.41146 17.871811,0 32.411459,-14.53965 32.411459,-32.41146 0,-17.87181 -14.539648,-32.41146 -32.411459,-32.41146 -17.87181,0 -32.4114578,14.53965 -32.4114578,32.41146 z" />
      <path
         id="path940"
         style="fill:none;fill-opacity:1;stroke:#ffffff;stroke-width:1.56500006;stroke-linecap:butt;stroke-linejoin:miter;stroke-miterlimit:4;stroke-dasharray:none;stroke-opacity:1"
         d="m 28.527646,246.37247 5.684406,15.76131 4.49585,-15.86467 m 8.991698,7.13135 -13.487548,8.73332 -14.572754,-8.52661 m -0.826823,11.67887 c 0,0 -4.237467,-2.68717 -3.669026,-6.40788 0.56844,-3.7207 3.152262,-5.11596 4.495849,-5.27099 0,0 0.516765,-8.62997 8.888347,-7.2347 0,0 5.684407,-5.68441 10.180257,-0.10336 0,0 9.353434,-1.75699 8.991699,7.13135 0,0 8.994296,4.21714 1.70792,12.02028 l -15.451254,-2.73885 z" />
      <path
         style="fill:#8b68ae;fill-opacity:1;stroke:#ffffff;stroke-width:1.95299995;stroke-linecap:round;stroke-linejoin:miter;stroke-miterlimit:4;stroke-dasharray:none;stroke-opacity:1"
         d="m 15.320289,269.54843 c 0,0 1.026088,12.54343 18.474923,12.84956 0,0 17.272861,0.0675 18.685772,-12.75632"
         id="path928" />
      <ellipse
         style="opacity:1;fill:#8a67ac;fill-opacity:1;fill-rule:nonzero;stroke:#ffffff;stroke-width:2.17054677;stroke-linecap:round;stroke-linejoin:miter;stroke-miterlimit:4;stroke-dasharray:none;stroke-dashoffset:65.67904663;stroke-opacity:1;paint-order:fill markers stroke"
         id="path992"
         ry="6.2834539"
         rx="18.470793"
         cy="269.15591"
         cx="33.89526" />
      <path
         style="fill:none;stroke:#ffffff;stroke-width:2.06500006;stroke-linecap:round;stroke-linejoin:miter;stroke-miterlimit:4;stroke-dasharray:none;stroke-opacity:1"
         d="m 43.100398,269.05842 c 0,0 -2.325439,-2.32544 -4.599202,-3.97909"
         id="path943" />
      <path
         style="fill:none;stroke:#ffffff;stroke-width:2.06500006;stroke-linecap:round;stroke-linejoin:miter;stroke-miterlimit:4;stroke-dasharray:none;stroke-opacity:1"
         d="m 24.548559,269.05842 c 0,0 2.067057,-2.27376 4.65088,-3.77238"
         id="path945" />
      <path
         style="opacity:1;fill:#8b68ae;fill-opacity:1;fill-rule:nonzero;stroke:#ffffff;stroke-width:1.648;stroke-linecap:round;stroke-linejoin:miter;stroke-miterlimit:4;stroke-dasharray:none;stroke-dashoffset:65.67904663;stroke-opacity:1;paint-order:normal"
         d="m 40.449834,262.9606 a 6.7028663,6.7028663 0 0 1 -6.702867,6.70287 6.7028663,6.7028663 0 0 1 -6.702866,-6.70287 6.7028663,6.7028663 0 0 1 6.702866,-6.70286 6.7028663,6.7028663 0 0 1 6.702867,6.70286 z"
         id="path923" />
      <circle
         style="opacity:1;fill:#ffffff;fill-opacity:1;fill-rule:nonzero;stroke:none;stroke-width:3.96287322;stroke-linecap:round;stroke-linejoin:miter;stroke-miterlimit:4;stroke-dasharray:none;stroke-dashoffset:65.67904663;stroke-opacity:1;paint-order:stroke fill markers"
         id="path947"
         cx="32.300026"
         cy="261.46198"
         r="2.6776044" />
    </g>
  </g>
</svg>
