<?xml version="1.0" encoding="UTF-8"?>
<svg id="Layer_1" xmlns="http://www.w3.org/2000/svg" version="1.1" viewBox="0 0 250 250">
  <!-- Generator: Adobe Illustrator 29.0.1, SVG Export Plug-In . SVG Version: 2.1.0 Build 192)  -->
  <defs>
    <style>
      .st0 {
        fill: #949596;
      }

      .st1 {
        fill: #fff;
      }
    </style>
  </defs>
  <path class="st1" d="M137.3,241.3c0,1.9,0,3.7-.2,5.6-4,.4-8,.6-12.1.6-42.5,0-80-21.7-102-54.6,10.5-10.1,24.2-16.9,39.4-18.5V19.6c4.8-2.9,9.8-5.4,15-7.6v162.3c33.6,3.8,59.8,32.3,59.8,67Z"/>
  <path class="st0" d="M62.5,19.6v154.7c-15.3,1.7-29,8.4-39.4,18.5C10.1,173.5,2.5,150.1,2.5,125c0-44.8,24.1-84,60-105.4Z"/>
  <path class="st0" d="M247.5,125c0,63.6-48.5,115.9-110.4,121.9.1-1.8.2-3.7.2-5.6,0-34.6-26.1-63.2-59.8-67V12c14.6-6.1,30.7-9.5,47.5-9.5,67.7,0,122.5,54.8,122.5,122.5Z"/>
</svg>