<?xml version="1.0" encoding="UTF-8"?><svg id="Layer_1" xmlns="http://www.w3.org/2000/svg" width="128" height="128" xmlns:xlink="http://www.w3.org/1999/xlink" viewBox="0 0 128 128"><defs><style>.cls-1{fill:none;}.cls-2{fill:#11151f;}.cls-3{fill:#fffef3;}.cls-4{clip-path:url(#clippath-2);}.cls-5{fill:#060606;}.cls-6{fill:#f6b438;}.cls-7{fill:#fffdf4;fill-rule:evenodd;}.cls-8{fill:#7eacf9;}.cls-9{fill:#010100;}.cls-10{fill:#e9f7fa;}</style><clipPath id="clippath-2"><circle class="cls-1" cx="64" cy="64" r="64"/></clipPath></defs><circle class="cls-10" cx="64" cy="64" r="64"/><g class="cls-4"><path class="cls-8" d="M103.01,99.96c-3.82-6.2-7.78-9.33-7.81-9.36-.2-.16-.33-.39-.35-.65-.02-.26.07-.51.25-.69,3.96-4.15,5.72-8.98,5.22-14.35-.4-4.33-2.14-7.75-2.88-9.21-.35-.69-.47-.93-.38-1.31,0-.02.41-1.7.22-4.48-.18-2.56-.93-6.6-3.46-11.31-3.75-6.96-14.1-9.41-19.55-10.23-.26.63-.8,1.25-1.33,1.74l2.04,2.97c.21.31.21.72,0,1.03-.21.31-.59.45-.96.37l-2.6-.62c-.49-.12-.79-.61-.67-1.09.12-.49.61-.79,1.09-.67l.31.07-1.16-1.7c-.27-.39-.19-.92.18-1.22.46-.37.92-.83,1.2-1.19-.07-.03-.12-.07-.18-.12-1.02-.09-2.86-.03-4.42.11-.36.03-.7-.14-.87-.45s-.15-.69.06-.98c1.4-1.92,1.79-3.1,1.89-3.72-2.55.39-6.46,3.04-7.88,4.14-.14.11-.32.18-.5.19-11.35.71-20.31,4.47-20.4,4.51-.04.02-3.31,1.39-6.76,4.4-4.58,4-7.3,8.86-8.09,14.44-1.66,11.82,2.62,19.51,4.92,23.64.37.67.69,1.24.93,1.74,1.53,3.15.27,5.09-.73,5.77-4.67,5.59-10.54,14.65-12.21,26.24-.66,4.55-.46,8.11-.23,10.05h21.97c.3-2.74.95-7.32,2.32-11.56,1.94-6.01-.95-11.51-.98-11.57-.24-.44-.07-.99.37-1.23.44-.24.99-.07,1.23.37.13.25,3.28,6.24,1.1,12.98-1.28,3.96-1.92,8.32-2.22,11.01h64.24c-1.04-10.14-3.59-17.32-5.61-21.64-2.32-4.96-4.46-7.32-4.48-7.34-.34-.37-.31-.94.05-1.28.37-.34.94-.32,1.28.05.36.39,8.51,9.44,10.58,30.21h2.62c.24-12.94-3.85-22.38-7.34-28.04h0Z"/><path class="cls-7" d="M45.1,127.95h60.54s-.62-19.81-11.55-30.74c0,0-3.74-2.96.78-7.18,4.52-4.21,6.55-10.14,6.55-10.14l.16-5.62-3.64-9.67.52-5.62s-1.09-10.3-11.7-11.7c0,0-4.21-.62-9.67,5.77,0,0-1.25,1.56-3.12,0s-11.23-8.27-22-7.33c-8.85.77-15.17,8.99-15.75,17.5-.64,9.25,3.84,18.43,10.14,24.94,13.89,14.35,3.9,28.24,3.9,28.24l-5.15,11.55h0Z"/><path class="cls-2" d="M104.51,98.93c-3.03-4.89-6.08-7.9-7.45-9.13,3.88-4.39,5.59-9.45,5.07-15.07-.43-4.68-2.35-8.45-3.07-9.86-.06-.12-.12-.24-.17-.34.29-1.47,1.2-8.11-3.47-16.79-2.1-3.91-6.19-6.95-12.14-9.05-2.89-1.02-6.09-1.76-9.52-2.22-.58-.29-1.76-.5-4.29-.37,1.72-2.92,1.2-4.26.97-4.63-.15-.25-.42-.41-.72-.43-3.3-.2-8.4,3.45-9.64,4.39-11.54.77-20.35,4.47-20.71,4.63-.14.06-3.53,1.47-7.21,4.67-6.16,5.36-8.16,11.44-8.74,15.6-1.75,12.42,2.72,20.46,5.13,24.78.36.64.67,1.2.88,1.65,1.23,2.53-.02,3.41-.15,3.5-.11.06-.17.11-.25.2-8.79,10.48-11.77,20.65-12.72,27.34-.65,4.57-.48,8.14-.26,10.22h1.83c-.22-1.94-.43-5.5.23-10.05,1.68-11.58,7.55-20.64,12.21-26.24,1-.68,2.26-2.61.73-5.77-.24-.49-.56-1.07-.93-1.74-2.3-4.13-6.58-11.82-4.92-23.64.79-5.58,3.51-10.44,8.09-14.44,3.45-3.02,6.72-4.38,6.76-4.4.09-.04,9.06-3.8,20.4-4.51.18-.01.35-.08.5-.19,1.42-1.1,5.34-3.75,7.88-4.14-.1.62-.49,1.8-1.89,3.72-.21.29-.23.67-.06.98s.52.49.87.45c1.56-.15,3.4-.2,4.42-.11.05.05.11.09.18.12-.28.36-.74.82-1.2,1.19-.37.3-.45.83-.18,1.22l1.16,1.7-.31-.07c-.49-.12-.98.18-1.09.67-.12.49.18.98.67,1.09l2.6.62c.37.09.75-.06.96-.37.21-.31.21-.72,0-1.03l-2.04-2.97c.53-.49,1.07-1.11,1.33-1.74,5.45.82,15.8,3.27,19.55,10.23,2.53,4.71,3.28,8.75,3.46,11.31.2,2.78-.21,4.46-.22,4.48-.09.38.02.61.38,1.31.74,1.46,2.48,4.87,2.88,9.21.5,5.38-1.26,10.2-5.22,14.35-.18.18-.27.44-.25.69.02.26.14.49.35.65.04.03,3.99,3.17,7.81,9.36,3.49,5.66,7.58,15.1,7.34,28.04h1.81c.24-13.4-4.02-23.2-7.66-29.07Z"/><path class="cls-2" d="M95.87,97.74c-.37.34-.39.91-.05,1.28.02.02,2.16,2.38,4.48,7.34,2.02,4.32,4.58,11.5,5.61,21.64h1.82c-2.07-20.76-10.23-29.82-10.58-30.21-.34-.37-.91-.39-1.28-.05h0Z"/><path class="cls-2" d="M42.78,104.01c-.24-.44-.79-.61-1.23-.37-.44.24-.61.79-.37,1.23.03.05,2.92,5.55.98,11.57-1.37,4.24-2.03,8.82-2.32,11.56h1.83c.3-2.69.94-7.05,2.22-11.01,2.17-6.74-.97-12.73-1.1-12.98h0Z"/><ellipse class="cls-5" cx="57.79" cy="64.5" rx="5.09" ry="5.77"/><circle class="cls-3" cx="55.64" cy="67.2" r="1.14"/><ellipse class="cls-3" cx="59.38" cy="63.27" rx="2.62" ry="3.32"/><ellipse class="cls-5" cx="90.38" cy="64.21" rx="3.91" ry="5.38"/><circle class="cls-3" cx="88.61" cy="66.43" r="1.14"/><ellipse class="cls-3" cx="91.36" cy="62.63" rx="1.93" ry="2.63" transform="translate(-6.66 11.04) rotate(-6.67)"/><path class="cls-6" d="M78.61,75.11l1.1-.49.9-.8.56-.6.41-.62.3-.56.38-.66.11-.36c-.2-.23-1.19-1.39-2.06-1.62l-.45-.2-.6-.21-1.12-.29h-.09c-.33-.01-.57-.1-.94-.1-3.3.04-5.26,1.43-6.18,2.32-.41.4-.43,1.02-.05,1.44,1.05,1.14,3.42,3.27,6.5,3.19.15,0,.3-.02.45-.03l-.07-.21.86-.22Z"/><path class="cls-9" d="M81.33,71.53c-2.69.77-5.49.56-8.25.41,2.55.71,5.87.89,8.25-.41h0Z"/><path class="cls-9" d="M77.38,68.64v.04c.23.03.47.04.71.07.7.1,1.39.31,2.03.63.82.41,1.59.99,2.15,1.72-.8,1.91-2.3,3.81-4.45,4.16-2.74.35-5.24-1.47-7.02-3.39.58-1.4,2.06-2.22,3.44-2.68.43-.15,1.08-.29,1.53-.39v-.04c-1.59.15-3.25.6-4.44,1.72-.43.42-.79.88-.99,1.47,0,0,.07.08.07.08,1.98,2.32,5.25,4.42,8.37,3.26,1.79-.75,3-2.45,3.68-4.22-1.21-1.55-3.16-2.37-5.09-2.43h0Z"/></g></svg>