<?xml version="1.0" encoding="UTF-8"?>
<svg id="Layer_1" data-name="Layer 1" xmlns="http://www.w3.org/2000/svg" version="1.1" viewBox="0 0 250 250">
  <defs>
    <style>
      .cls-1 {
        fill: #983b1f;
      }

      .cls-1, .cls-2, .cls-3, .cls-4, .cls-5 {
        stroke-width: 0px;
      }

      .cls-2 {
        fill: #000;
      }

      .cls-3 {
        fill: #c82727;
      }

      .cls-4 {
        fill: #3d8130;
      }

      .cls-5 {
        fill: #fff;
      }
    </style>
  </defs>
  <circle class="cls-4" cx="125" cy="125" r="122.5"/>
  <g>
    <path class="cls-4" d="M180.4,108.5h0Z"/>
    <path class="cls-4" d="M181.6,130.9h0Z"/>
    <polygon class="cls-4" points="172.4 165.4 172.4 165.4 172.3 165.4 172.4 165.4"/>
    <path class="cls-4" d="M74.9,99.4l-5.6,10.8-5.8,11.4-4.1,10.6-2.7,11.3-1.7,12.4-1,10.7-1.1,7,1.1,5.5,2,4.6,3.7,6.4,8.5,5.3,6.3,2.5c1.5.5,3.2.9,4.6,1.4l7.5,1.3,10.6.5h8.8c1,0,10-.5,10-.6h0l11.3.2,10.9-1.3,4.7-2,3.2-3.9.2-5.1c-.2-.5-.9-2.1-1-2.7-.2-.5-2.3-3-4.3-5.2h0c-.9-1.3-2.3-3.5-2.3-4.2s.9-2.8,1-3.2v-.2c0,0,4.6-1.3,4.6-1.3l3,2.2,2.7-1.5,3-3,5.3-3.9,4.8-2.7,3.8-.8,5,3.4-.4-.4,2.1-1.8,1.9-3.2v-3.3l-.4-.9-2.5,2-4.4,1.2h0l-6.7-.2-9.9,1-3.1.4-2.4-.4-6.4-.9-7.1-1.3-11.6-1.9h0l-11.1-4.6-9.8-5.6-6-4-.6-2.8.8-2.7,2.4-1.7,5.5,1.2,12,3.7c5.9,1.2,14.9,3,15.5,3h0c.3,0,1.4.2,4.4.7,3.1.5,7.4,1.2,8.2,1.2,1.5,0,13.1.7,13.7.7s10-.2,11-.2,4.3-1.2,6.4-2l3.3-3.9,3.1-5.5c.2-1.6,0-3.2-.6-4.6-.8-2-2.2-3.8-4.1-4.9-.9,1.8-2.2,3-3.7,3.5-.6.2-1.1.3-1.7.3-.9,0-1.7-.2-2.5-.6l.5-.9c1,.6,2.3.7,3.4.3,1.3-.5,2.5-1.6,3.3-3.4-1,.4-2.2.7-3.4.7s-1.4,0-2.2-.3v-.5c0,0,.2-.5.2-.5,0,0,3.8.9,6.5-1.2,2-1.5,3.1-4.2,3.3-8l-3.2,3.8-3.9,1.8c-1.7.5-7.6,1.9-8.1,1.9s-.9,0-2.8-.5c-2.4-.4-5.9-.9-6.8-.9-1.6,0-4-1.8-4.2-2l-.3-.2,1.8-5.4,5.1-5.8,5.4-3.8h6.6l6.3.7,2.7,3.1,1.3,1.9v-5.2l-5.2-1.9c-.6,0-5.8-.9-7-.9s-5.9.8-6.6.9l-6.7,4.4-.6-.9,6.8-4.5h0c.3,0,5.5-.9,6.8-.9s6.9.9,7.2.9h0l5.7,2.1.6.3v-.4l-2.7-2.3-4.8-2.3-5.8-.5-6.6,1.1-2.7,1.1-.4-.9,2.8-1.2,6.8-1.2,6.1.6.3.2-1.8-2.8-5.2-4.6h0l-20.1.6s-2.7.4-5.6.8l2.8,4.1,1.4,2.6-.8,2.6-.9-.3.7-2.2-1.2-2.2-3-4.4.2-.2c-3.8.5-7.8.9-8.1.9-.5,0-16.6,1.2-17.3,1.2-1.3,0-2.7-.3-4-.6-.3-.2-11-4.1-11.4-4.3s-4.2-3.9-4.2-3.9l-7.4-2.3-6.4,8-6.6,10h.2ZM153.4,121.7c.9.5,1.8.9,2.7,1.5l5.5.7,3.1-.7.2.9-3.3.7-3.8-.5c1.6,1.2,3.1,2.6,4.5,4.1.9,1.1,1.8,2.3,2.6,3.6l-.9.5c-.9-1.4-1.9-2.8-3.1-4.1s-3.4-3.1-5.3-4.4h0l-2.8-1.6.6-.9h0ZM98.2,103.6l4.4-4.2,3.8-3.1,5.5-1,5.8-.2h6.2l5.1.2,10.3.2,3.2,2,4,3.6,2.3,2.8,1,5.7-.9.2-1-5.5-2.1-2.7-3.8-3.5-2.9-1.8-8.1-.2,3.5,1.9c1.9.9,5.1,2.7,5.5,3.4.3.4,2.8,2.9,5.2,5.1h0l3.6,4.7.6,3.9-.9.2-.5-3.6-3.4-4.5c-1.2-1.1-5-4.6-5.3-5.4-.3-.4-2.8-1.8-5-3l-5.2-2.8-5-.2h-6.1l-5.7.2-5.1.9-3.6,2.9-4.1,4-.5,2.7.9.8,2.2-1.1,3.6-4.5,6.4-2.5,8.4-.9,7.1.7,9.2,4.8,3.8,2.3,3.7,4.9,1.7,5.3,2.5,1.6v2.2l-2.3,2.1-4.1,1.7-1.7,1.4-1.8,3-.9,1.5h0c-1.2.7-3.3,1.8-3.9,1.8-.5,0-3.1,1.3-5.6,2.6h-.3c-.2,0-4.5,1.4-5.5,1.6l-.2-.9c.9-.2,4.9-1.3,5.3-1.5,2.5-1.1,5.4-2.6,6-2.6,1.1-.5,2.3-.9,3.4-1.6l.5-.8,2.2-3.6.6-.5c-1.5-.2-3.6-.4-4.1-.7-.3,0-1.7-.3-9.3-.3s-6.4-1-6.9-1.2c-.5-.2-5-1.5-5.1-1.5h0v-.2c0,0-4.4-4.1-7.5-5.9l.5-.9c3,1.7,6.8,5.3,7.5,6,.8.2,4.5,1.3,5,1.5.6.2,4.9,1.1,6.6,1.1,9.1,0,9.5.3,9.8.5.4.2,2.6.5,4.4.6v.4l.7-.7,4.1-1.7,1.8-1.6v-1.2l-1.2-.9v.2l-4.2,1.5-5.8.7h-2.9c-1.4,0-3.4,0-4-.3-.8-.3-5.7-1.3-8.1-1.8h0c-3-1.7-6.8-3.8-7.1-4.3-.3-.3-2.1-1.2-3.7-2h0l-5.4-3.1-.8.2v-.7c0,0-1.8-.9-1.8-.9l-2.7,1.4-1.8-1.6.7-3.5h-.2ZM100.4,126.7l.3.9-3.3.8-1.6.4v-.4c0,0-.3-.6-.3-.6,0,0,4.9-1.1,4.9-1.1ZM102.4,131.4l-.3.9c-1.1-.3-2.3-.2-3.4,0-1.8.4-4.6,1.4-7.1,4.4l-.8-.7c5.4-6.3,11.3-4.8,11.5-4.7h0Z"/>
    <path class="cls-4" d="M109.1,106.8c.3,0,7.1-.9,8.1-.9s1.3,0,2.6.2c1.7.2,4.6.4,5,.4.7-.2,7.5-.8,8.2-.9l4-.3-.9-.5-9-4.6-6.8-.7-8.2.9-6.1,2.3-3.1,3.9,2,1.1,4.3-.9h0Z"/>
    <path class="cls-4" d="M133,106.6c-3,.3-7.6.8-8.1.9s-2,0-5.3-.3c-1.1,0-2.2-.2-2.5-.2-.7,0-5.9.7-7.9.9l-3.2.6,4.4,2.6c1.3.7,3.7,1.8,4.1,2.4.4.4,3.7,2.3,6.7,3.9.8.2,7.1,1.5,8.2,1.9.7.3,4.4.2,6.5.2l5.7-.7,3.4-1.3h-.2c0,0-1.7-5.6-1.7-5.6l-3.4-4.6-2-1.2v.5l-4.6.3h0Z"/>
    <path class="cls-4" d="M177.6,106.3l-2.5-2.7-5.9-.7h-6.3l-5.1,3.6-4.8,5.5-1.5,4.5c.8.6,2.3,1.5,3.3,1.5s4.3.6,6.9.9c1.2.2,2.6.4,2.7.4.5,0,5-1.1,7.8-1.8l3.6-1.6,2.8-3.3-.3-1.5-8.8-3.6-11.3-.4v-.9l11.5.4,9.5,3.9.4,2.5v-3.1l-2.2-3.4h0Z"/>
    <path class="cls-4" d="M167.1,163l-3.3.7-4.6,2.7-5.2,3.9-1.4,1.4,3.3,2.3.3,1.8-2.2,2.2-.7-.7,1.9-1.9v-.9c0,0-3.2-2.2-3.2-2.2l-.9.9-1.9,1-.6,2.7,2.7,2.4,3.9-.2c.8-.6,1.9-1.3,2.6-1.3.6-.4,1.1-.8,1.7-1.1,1.3-1,1.8-1.3,2.2-1.3,1.1-.6,2.3-1.2,3.3-1.9h.2c0,0,4.7.5,4.7.5l1.6,1.6-.4.4c-1,1.1-2.2,2.6-2.2,2.9s0,.5-.2.7l1.1-.7,5.2-3.7.6.9-5.3,3.8-2.5,1.3c0,.2-.2.3-.3.4l-.2-.2-3.8,2.1-2.7,3.8-.9,2.2,1.9,2.7,2.1,2.4,2.5.3,2.3-.5v-.5l2.5-4,4.7-4.6.7.8-4.6,4.6-2.3,3.5.2,2.7,2.5,1.6,3.2.4,1.8-.6-.4-.6.3-.3c0-.2,2.7-3.1,3.2-3.6s2.7-2.9,3.7-4.2l.8.7c-.2.2-3.2,3.8-3.8,4.3-.4.4-2.3,2.5-2.9,3.2l1.7,2.6h2.8l2.5-1.1,2-3,2.7-2.9.8.7-2.7,2.8-2.1,3.1-2.9,1.3h-3.6l-1.5-2.2-2.3.7-3.6-.4-3-2.1v-1.9c0,0-2.4.5-2.4.5l-3-.4-2.3-2.7-3.4-2-3.5-3.9-.9-6.1.9-.2.8,5.2,4.2-3.3,4.6-4.4,2.7-3.6-1.2-.2c-1.4.9-3,1.9-3.6,2-.6.4-1.1.8-1.7,1.1-1.3,1-1.9,1.3-2.2,1.3-.8.4-1.4.8-2.1,1.2h-.2c0,0-4.6.3-4.6.3l-3.4-3,.5-2.3-.4.2-3.1-2.2-3.6,1c-.4.9-.7,1.7-.9,2.7,0,.4,1.1,2.2,2.1,3.6,1.3,1.4,4.3,4.9,4.5,5.6.2.6.8,2.1,1,2.7h0c0,0-.2,6.6-.2,6.6l1.9,2.8c.9.6,8.1,4.7,8.9,5.2.6.4,5.7,1.8,8.8,2.7l10.6,1,8.5-1.1,7.3-3.3,4-3.8-.9-3.4-4.9-9.1-3.5-5.4-6.2-6.6-9-5-1.3-2.9-4.5-3h0Z"/>
    <path class="cls-1" d="M174.8,143.4h-.2c-.9.4-5.9,2.1-6.9,2.1s-10.9.2-11,.2h0c-.2,0-12.2-.7-13.7-.7s-4.9-.7-8.3-1.2c-1.9-.4-3.9-.7-4.2-.7-.7,0-13.2-2.6-15.7-3h0l-12-3.7-5-1.1-1.7,1.3-.6,2.1.5,2.2,5.6,3.8,9.7,5.6,10.9,4.6,11.5,1.8,7.1,1.3,8.5,1.1,12.9-1.3h0l6.7.2,4.1-1.1,3.4-2.7,2.8-4.3.7-2-.9-2.2c-4.1,3.7-4.5,3.8-4.7,3.9l-4.2,1-11.6.6h0l-12.1-.7-12-2.2-9.7.2h0l-10-2.6-8.9-3.1-4.7-2.9.6-.9,4.6,2.8,8.7,3,10,2.6,9.7-.2h0l12,2.2,12,.7,11.5-.5,4-1c.3,0,1.6-1.1,4.5-3.8.4-.4.7-.6.8-.7l3.7-5,1.2-2.4c-.2-.9-.4-1.6-.5-2.5-.5-.8-1-1.4-1.6-2.1,0,.5,0,.9,0,1.3h0c0,0-3.3,5.9-3.3,5.9l-3.4,4.2h-.3Z"/>
    <path class="cls-2" d="M197.3,194.7l-4.9-9.2-3.6-5.5-6.2-6.9-8.9-4.9-1.3-2.8-.3.2s.9,3,1.4,3.3,8.3,4.3,8.7,4.5,7.1,8.2,7.1,8.2l5.4,9.4,3.2,7.3s-4.2,4.3-4.4,4.3-8.2,4-8.5,4-8.1.9-8.4.8c-.5-.2-10-.9-10.7-1-.8,0-9.7-3.6-9.7-3.6l-7.7-4.6-2.2-3.4-3,3.4s-4.3,2.2-4.9,2.2-11.1,1.4-11.9,1.4h-21.2s-21-.4-21.9-.9c-.3-.2-2-.7-4.2-1.4l-1.8-.4-2.8-1c-3.4-1-6.5-2-6.5-2l-8.6-5.6s-3.6-6.3-3.8-6.6-2.4-5.6-2.4-5.9-.8-4.5-.8-4.5l1.5-9.7.7-10.1,1.6-11s2.7-11.1,2.8-11.6c0-.6,4.5-11.5,4.5-11.5l4.6-8.4,6.2-12.8,6.8-9.7,6.6-7.9.5.2h0l-.8-.7-6.4,8-7.1,10.4-5.6,10.9-5.8,11.3-4.1,10.7-2.7,11.4-1.7,12.5-1,10.7-1.2,7.2,1.2,5.7,2.1,4.8,3.8,6.7,8.7,5.5,9.2,3.6,9.4,1.7,10.8.6h8.8c1,0,9.5-.5,10-.6l11.4.2h0l11.1-1.3h0l5.1-2.1,2.7-3.1,2.2,3.2h0c0,0,8.2,4.8,9,5.3.9.6,8.2,2.6,9.1,2.7l10.8,1,8.7-1.2h0l7.6-3.4h0l4.5-4.4-1.1-4.1.3.4Z"/>
    <path class="cls-2" d="M81.4,89l-6.8,9.7-6.2,12.8-4.6,8.4s-4.5,10.9-4.5,11.5-2.8,11.6-2.8,11.6l-1.6,11-.7,10.1-1.5,9.7s.8,4.2.8,4.5,2.2,5.5,2.4,5.9,3.8,6.6,3.8,6.6l8.6,5.6s3.1.9,6.5,2l-6.3-2.5-8.5-5.3-3.7-6.4-2-4.6-1.1-5.5,1.1-7,1-10.7,1.7-12.4,2.7-11.3,4.1-10.6,5.8-11.4,5.6-10.8,7.1-10.3,6.4-8-.5-.2-6.6,7.9h-.3Z"/>
    <path class="cls-2" d="M167.3,162l-3.8.8-4.8,2.7-5.3,3.9-3,3-2.7,1.5-3-2.2-4.6,1.3v.2c-.3.5-1.1,2.6-1.1,3.2s1.4,2.9,2.3,4.2h0c2,2.3,4.2,4.8,4.3,5.3.2.7.9,2.3,1,2.7l-.2,5.1-3.2,3.9-4.7,2-10.9,1.3-11.3-.2h0c0,0-9,.6-10,.6h-8.8l-10.6-.5-7.5-1.3c2.2.7,3.9,1.2,4.2,1.4.9.5,21.9.9,21.9.9h21.2c.9,0,11.4-1.4,11.9-1.4s4.9-2.2,4.9-2.2l3-3.4,2.2,3.4,7.7,4.6s8.8,3.5,9.7,3.6c.8,0,10.3.9,10.7,1,.5.2,8.2-.8,8.4-.8s8.2-3.9,8.5-4c.3,0,4.4-4.3,4.4-4.3l-3.2-7.3-5.4-9.4s-6.7-8.1-7.1-8.2-8.2-4.2-8.7-4.5-1.4-3.3-1.4-3.3l.3-.2h0l-5.1-3.4v-.2ZM172.9,168.9l9,5,6.1,6.6,3.5,5.4,4.9,9.1.9,3.4-4,3.8-7.3,3.3-8.5,1.1-10.6-1c-3.1-.9-8.2-2.3-8.8-2.7-.9-.5-8-4.6-8.9-5.2l-1.9-2.8.2-6.5h0c-.3-.7-.9-2.2-1-2.7-.2-.8-3.2-4.2-4.5-5.6-.9-1.4-2.1-3.2-2.1-3.6.2-.9.5-1.8.9-2.7l3.6-1,3.1,2.2.4-.2-.5,2.3,3.4,3,4.6-.2h.2c.7-.6,1.3-1,2.1-1.3.4,0,.9-.4,2.2-1.3.6-.5,1.1-.9,1.7-1.1.6,0,2.3-1.1,3.6-2l1.2.2-2.7,3.6-4.6,4.4-4.2,3.3-.8-5.2-.9.2.9,6.1,3.5,3.9,3.4,2,2.3,2.7,3,.4,2.3-.5v1.9c0,0,3.1,2.1,3.1,2.1l3.6.4,2.3-.7,1.5,2.2h3.6l2.9-1.3,2.1-3.1,2.7-2.8-.8-.7-2.7,2.9-2,3-2.5,1.1h-2.8l-1.7-2.6c.7-.8,2.6-2.8,2.9-3.2s3.6-4.1,3.8-4.3l-.8-.7c-1.1,1.3-3.3,3.8-3.7,4.2s-3.1,3.5-3.2,3.6l-.3.3.4.6-1.8.6-3.2-.4-2.5-1.6-.2-2.7,2.3-3.5,4.6-4.6-.7-.8-4.7,4.6-2.6,4v.5l-2.2.5-2.5-.3-2.1-2.4-1.9-2.7.9-2.2,2.7-3.8,3.8-2.1.2.2c0,0,.2-.2.3-.4l2.5-1.3,5.3-3.8-.6-.9-5.2,3.7-1.1.7c0-.2.2-.5.2-.7,0-.4,1.2-1.8,2.2-2.9l.4-.4-1.6-1.6-4.7-.6h-.2c-1,.9-2.2,1.5-3.3,2-.4,0-.9.4-2.2,1.3-.6.5-1.1.9-1.7,1.1-.6,0-1.7.9-2.6,1.3l-3.9.2-2.7-2.4.6-2.7,1.9-1,.9-.9,3.1,2.2v.9c0,0-1.8,1.9-1.8,1.9l.7.7,2.2-2.2-.3-1.8-3.3-2.3,1.4-1.4,5.2-3.9,4.6-2.7,3.3-.7,4.5,3,1.4,2.8h0ZM159.6,190.5l-1.3-.8-2.9-3.2,4.5-3.5,4.6-4.5,3-4.2,1.7.2.8.8c-.9,1-2.2,2.6-2.2,3.2-.2.6-.5,1.1-.8,1.5l-4.2,2.3-2.8,4-1.1,2.9.9,1.1h0Z"/>
    <path class="cls-2" d="M171.5,92l2.5,3.2s1.2,1.9,1.6,2,4.5,2.5,4.5,2.5l1.6,1.8-.4,1-1.2-.4.2,6.3h.4v-5.6l1.1.7.3-2.4-3.1-2.7-3.4-1.6h.2c0,0-2.7-4.2-2.7-4.2l-5.3-4.6-.6.7h.6l3.7,3.4h0Z"/>
    <path class="cls-2" d="M179.7,117.5s-1.8,3.6-2,3.7c-.2.2-1.8.9-1.8.9l.2.9c.8.6,1.4,1.1,2.1,1.7,0,.2,1.1,2.3,2,3.9h.9c-.9-2.5-2.5-4.5-4.6-5.8,0-.2.2-.5.3-.7.2,0,.4-.2.5-.4,2.4-1.8,3.6-4.9,3.7-9.2v-3l-.6-.9.2,4.6-.8,4.3h0Z"/>
    <path class="cls-2" d="M172.4,93.3l1.8,2.8-.3-.2-6.1-.6-6.8,1.2-2.8,1.2.4.9,2.7-1.1,6.6-1.1,5.8.5,4.8,2.3,2.7,2.3v.4l-.6-.3-5.7-2.1h0c-.3,0-5.8-.9-7.2-.9s-6.6.9-6.8.9h0l-6.8,4.5.6.9,6.7-4.4c.8,0,5.4-.9,6.6-.9s6.4.8,7,.9l5.2,1.9v5.3l-1.3-1.9-2.7-3.1-6.3-.7h-6.6l-5.4,3.8-5.1,5.8-1.8,5.4.3.2c.3.2,2.6,2,4.2,2s4.5.6,6.8.9c1.9.3,2.7.5,2.8.5.6,0,6.4-1.4,8.1-1.9l3.9-1.8,3.2-3.8c-.2,3.7-1.3,6.4-3.3,8-2.8,2.2-6.5,1.2-6.5,1.2v.5c0,0-.2.5-.2.5.8.2,1.4.3,2.2.3,1.1,0,2.3-.2,3.4-.7-.9,1.8-2,2.9-3.3,3.4-1.1.4-2.4.3-3.4-.3l-.5.9c.8.4,1.6.6,2.5.6s1.1,0,1.7-.3c1.4-.6,2.7-1.7,3.7-3.5,1.8,1.1,3.3,2.9,4.1,4.9h.2c-.9-1.6-1.9-3.7-2-3.9-.7-.7-1.3-1.2-2.1-1.7l-.2-.9s1.6-.7,1.8-.9c.2-.2,2-3.7,2-3.7l.8-4.2-.2-4.6h0l-.2-6.3,1.2.4.4-1-1.6-1.8s-4-2.4-4.5-2.5c-.5-.2-1.6-2-1.6-2l-2.5-3.2-3.8-3.4h-.6l4.9,4.6h0ZM179.9,112.9l-.4-2.5-9.5-3.9-11.5-.4v.9l11.2.4,8.8,3.6.3,1.5-2.8,3.3-3.6,1.6c-2.8.7-7.4,1.8-7.8,1.8s-1.4-.2-2.7-.4c-2.7-.5-6-.9-6.9-.9s-2.6-.9-3.3-1.5l1.5-4.5,4.8-5.5,5.1-3.6h6.3l5.9.7,2.5,2.7,2.3,3.4v3.2h0Z"/>
    <polygon class="cls-2" points="149 160.1 152.1 159.8 146.6 159.8 149 160.1"/>
    <path class="cls-2" d="M176.6,160c-.2.3-2.9,4.8-2.9,4.8l-1.2.7.3.4,2.2-1.9,2.1-3.6v-.5h-.5v.2h0Z"/>
    <path class="cls-2" d="M176.6,160v-.2h-.6v.2l-1.9,3.2-2.1,1.8.4.4h0l1.2-.7s2.7-4.5,2.8-4.8h0Z"/>
    <path class="cls-2" d="M181.1,130.3l.5.7c0-.9-.3-1.6-.6-2.5h-.9c.6,1,.9,1.8.9,1.8h0Z"/>
    <path class="cls-2" d="M184.3,135.7c0,.3-.7,2.2-.8,2.5-.2.4-4.6,6.5-4.6,6.5l1,2.2s.2,1.5,0,1.8-4.2,6.4-4.2,6.4l.7,1.7s.2,2.2,0,2.8h.5v-3.3l-.6-1.4h0l.5-.4,2.9-4.6.8-2.5-1.1-2.8.2-.2,3.8-5.2,1.5-2.7v-.2c-.3-.8-.5-1.6-.6-2.5,0-.2,0-.8-2.6-3.4l-.2.2,1.5,2.1s1.2,2.5,1.2,2.7v.3Z"/>
    <path class="cls-2" d="M180.2,128.4h-.2c.6,1.5.8,3.1.6,4.6l-3.2,5.5-3.3,3.9c-2.2.8-5.9,2-6.4,2-1,0-10.4.2-11,.2s-12.2-.7-13.7-.7-5.1-.7-8.2-1.2c-2.8-.5-4.1-.7-4.4-.7h0c-.7,0-9.6-1.8-15.5-3l-12-3.7-5.5-1.2-2.4,1.7-.8,2.7.6,2.8,6,4,9.8,5.6,11.1,4.6h0l11.6,1.9,7.1,1.3,6.4.9h5.5l9.9-1,6.7.2h0l4.4-1.2,2.5-2,.4.9v3.1h.6c0-.7,0-2.8,0-2.8l-.7-1.7s4-6.3,4.2-6.4c.2-.3,0-1.8,0-1.8l-1-2.2s4.6-6.3,4.6-6.5c.2-.4.7-2.2.8-2.5,0-.3-1.2-2.7-1.2-2.7l-1.5-2.1h0l-.5-.7c0,0-.5-.8-1-1.7h.2ZM181.6,133.4c0-.5,0-.9,0-1.3.7.7,1.1,1.3,1.6,2.1,0,.9.3,1.6.5,2.5l-1.2,2.4-3.7,5c0,0-.4.4-.8.7-2.8,2.7-4.2,3.6-4.5,3.8l-4,1-11.5.5-12-.7-12-2.2h0l-9.7.2-10-2.6-8.7-3-4.6-2.8-.6.9,4.7,2.9,8.9,3.1,10,2.6h0l9.7-.2,12,2.2,12.1.7h0l11.6-.6,4.2-1c.2,0,.7-.2,4.7-3.9l.9,2.2-.7,2-2.8,4.3-3.4,2.7-4.1,1.1-6.7-.2h0l-12.9,1.3-8.5-1.1-7.1-1.3-11.5-1.8-10.9-4.6-9.7-5.6-5.6-3.8-.5-2.2.6-2.1,1.7-1.3,5,1.1,12,3.7h0c2.6.6,15,3,15.7,3s2.3.4,4.2.7c3.5.6,7.4,1.2,8.3,1.2,1.5,0,13.6.7,13.7.7h0c0,0,10-.2,11-.2s6-1.7,6.9-2.1h.2l3.5-4.2,3.3-5.8h.2Z"/>
    <path class="cls-2" d="M98.8,132.3c1.1-.3,2.3-.3,3.4,0l.3-.9c-.3,0-6.2-1.5-11.5,4.7l.8.7c2.7-3,5.3-4.1,7.1-4.4h0Z"/>
    <polygon class="cls-2" points="97.3 128.4 100.6 127.7 100.4 126.7 95.5 127.9 95.6 128.4 97.3 128.4"/>
    <polygon class="cls-2" points="95.7 128.9 97.3 128.4 95.6 128.4 95.7 128.9"/>
    <path class="cls-2" d="M155.8,124.2c1.9,1.2,3.7,2.7,5.3,4.4h1.3c-1.3-1.5-2.8-2.9-4.5-4.1l3.8.5,3.3-.7-.2-.9-3.1.7-5.5-.7c-.9-.6-1.8-1-2.7-1.5l-.5.9,2.7,1.5h0Z"/>
    <path class="cls-2" d="M164.2,132.5l.9-.5c-.8-1.2-1.6-2.5-2.6-3.6h-1.3c1.1,1.2,2.2,2.7,3,4.1Z"/>
    <path class="cls-2" d="M102,107.3l1.7.9v.7c0,0,.9-.2.9-.2l5.4,3.1h0c1.6.8,3.5,1.7,3.7,2,.4.5,4.1,2.6,7.1,4.3h0c2.5.6,7.3,1.6,8.1,1.8.6.2,2.4.3,4,.3h2.9l5.8-.7,4.2-1.5v-.2l1.2.9v1.2l-1.8,1.6-4.1,1.7-.8.7v-.4c-1.8-.2-4-.5-4.3-.6-.3-.2-.7-.5-9.8-.5s-6.1-.9-6.6-1.1c-.5-.2-4.3-1.3-5-1.5-.7-.7-4.5-4.2-7.5-6l-.5.9c3.1,1.8,7.4,5.8,7.4,5.9h0c0,0,0,.2,0,.2,0,0,4.6,1.3,5.1,1.5s5,1.2,6.9,1.2c7.6,0,9,.2,9.3.3.6.3,2.6.6,4.1.7l-.6.5-2.2,3.6h1.1l1.8-3,1.7-1.4,4.1-1.7,2.3-2.1v-2.2l-2.5-1.6-1.7-5.3-3.7-4.9-3.8-2.3-9.2-4.8-7.1-.7-8.4.9-6.4,2.5-3.6,4.5-2.2,1.1-.9-.8.5-2.7,4.1-4,3.6-2.9,5.1-.9,5.7-.2h6.1l5,.2,5.2,2.8c2.2,1.1,4.8,2.7,5,3,.4.7,4.1,4.3,5.3,5.4l3.4,4.5.5,3.6.9-.2-.6-3.9-3.6-4.6h0c-2.4-2.2-4.9-4.7-5.2-5.2-.4-.8-3.6-2.5-5.5-3.4l-3.5-1.9,8.1.2,2.9,1.8,3.8,3.5,2.1,2.7,1,5.5.9-.2-1-5.7-2.3-2.8-4-3.6-3.2-2-10.3-.2-5.1-.2h-6.2l-5.8.2-5.5,1-3.8,3.1-4.4,4.2-.6,3.5,1.8,1.6,2.7-1.4h.3ZM139.7,107l3.4,4.6,1.7,5.5h.2c0,0-3.4,1.4-3.4,1.4l-5.7.7c-2.2,0-5.9,0-6.5-.2-.9-.4-7.4-1.7-8.2-1.9-3-1.6-6.4-3.5-6.7-3.9-.4-.6-2.7-1.7-4.1-2.4l-4.4-2.6,3.2-.6c2-.3,7.2-.9,7.9-.9s1.3,0,2.5.2c3.3.3,4.8.4,5.3.3s5.1-.6,8.1-.9l4.7-.4v-.5l2,1.2v.2ZM105.9,102.8l6.1-2.3,8.2-.9,6.8.7,9,4.6.9.5-4,.3c-.8,0-7.6.7-8.2.9-.5,0-3.2-.2-5-.4-1.2,0-2.2-.2-2.6-.2-.9,0-7.8.9-8.1.9l-4.4.9-2-1.1,3.1-3.9h0Z"/>
    <path class="cls-2" d="M136.7,129.2c-1.1.7-2.2,1.1-3.4,1.6-.6,0-3.5,1.4-6,2.6-.5.2-4.4,1.3-5.3,1.5l.2.9c1-.2,5.3-1.5,5.5-1.5h0c2.5-1.2,5.2-2.5,5.6-2.6.6,0,2.7-1.1,3.9-1.7h0l.9-1.5h-1.1l-.4.8h0Z"/>
    <path class="cls-2" d="M141.3,89.6l-.7.5c.3,0,.6,0,.9,0l-.3-.4h0Z"/>
    <path class="cls-2" d="M143.6,94.6l1.2,2.2-.7,2.2.9.3.8-2.6-1.4-2.6-2.8-4.1c-.3,0-.6,0-.9,0l-.2.2,3,4.4h0Z"/>
    <path class="cls-3" d="M173.2,93.5l4.3-.5s10.7,3.2,11.2,3.6,5.9,2.8,5.9,2.8l3.2.3.5-2.9-2.4-3.4-6.8-5-7.8-3.8-4.9-1.7-1.7-24.6-4.1-6.2-6.2-5-8-3.9-8.2-.2-15.5,1.9-14.2,2.8-.9-2.5c-1.1-.3-2.2-.5-3.3-.7-.9,0-8.3,2.3-8.3,2.3l-4.6,2.5-.9,2.8-6.5,3.6-5.3,6.6-3,6.4s-1.5,6.4-1.5,6.8.9,3.9,1.4,4.2,4.9,1.4,4.9,1.4l5.7,2.8,8.2,4.7,10.1,3.3s9.7-.7,10.6-.7,15.5-1.5,16.3-1.5,16.8-1.2,17.2-1.2,10-.2,10-.2l3.8,3.3,1.3,1.4-.4.2Z"/>
    <polyline class="cls-2" points="169.4 107.1 170.6 109.8 171.4 112.8 171 114.8 169.4 119 164.2 119.8 155.7 118.3 154.7 115.4 155.1 112.7 156 108.5 158.2 106.1 159.5 106.8 168.8 107.1"/>
    <path class="cls-2" d="M131.1,106.7l1.5,2.9.2,3.6-.8,3.2-1.6,2.6-2.7.2-10.2-3-4.1-3.6.6-2.3,1.4-2.2,1.9-1.5,7.1.2c0,0,6.4.5,6.6,0h0Z"/>
    <path class="cls-2" d="M196.8,93.8l-4-3.5-5.7-3.8-9.4-3.4-1.3-.6-.4-8.1c-.5-4-1.1-10-1.1-10.4s-.4-5.6-.4-5.8h0c0,0-2.8-5.2-2.8-5.2l-4.6-4.8-7.2-4.1-6-1.7h-8.2l-8.1,1c-3.2.6-8.3,1.3-8.9,1.3-.9,0-7.7,1.5-8.4,1.7l-2.4.7.4-.2-.8-1.5-2.6-.9-3.7.4-5.9,1.4-4.5,2.8-.9,2.4.7.3-2.5.7h0l-5.2,3.3-3.6,4.1-3.3,5.5-2.7,9v3.2l1.7,3,10.6,3.8,3.5,3.2,7.9,3.6,6.9,1.7,13-.9,18.8-2,13.4-1,11.1.2,11.8,1.7,9.3,4.4.5-.9-9.4-4.5-11.9-1.7-11.3-.2-13.5,1-18.8,2-12.8.9-6.6-1.6-7.7-3.5-3.6-3.2-10.4-3.7-1.3-2.5v-2.8l2.6-8.7,3.2-5.3,3.5-4,5-3.1,22-5.8c2.8-.7,7.7-1.7,8.2-1.7.9,0,8.2-1.2,9-1.3l8-1h8.1l5.7,1.6,7,4,4.5,4.6,2.7,4.8c0,1.8.4,5.1.4,5.6s1,9.6,1.2,10.5l.4,7.6-5.7-2.2-11.3-1.2-8.5-.9-8.3.7-9.7,1-11.3,2.6-8.4,2-5.7.4-7.3-1.4,3.7,2.7,3,1.7,6.8,1.7,6.7.2h0l6-.7,8.4-1.3,8.2-1.3,9.3-.7,6.4-.4,7.8.5,10.5,1.3,13.6,2.6,2.4,1.5,3.8,3.3,1,2.5-.3,1.8-2,.2-4-1.8-7.3-2.9-5.8-1.7-5,.6v.9c0,0,4.9-.5,4.9-.5l5.5,1.6,7.3,2.8,4.2,1.9,3-.2.5-2.9-1.2-2.7-.2-.2ZM101,51.5l.8-1.8,4-2.6,5.7-1.3,3.4-.4,1.9.8.6,1s-16.3,4.3-16.3,4.3ZM176.4,86.1v.5c0,0,0-.5,0-.5l-10.6-1.3-7.9-.6-6.4.4-9.3.7-8.3,1.3-8.4,1.3-5.9.7-6.5-.2-6.6-1.6-2.8-1.6h0l2.9.6,5.9-.4,8.5-2,11.2-2.6,9.7-1,8.2-.7,8.4.9,11.1,1.1,8,3,9.3,3.4,1,.8-11.2-2.2h-.2Z"/>
    <ellipse class="cls-5" cx="127.2" cy="112.3" rx="3" ry="2.6" transform="translate(-26.8 41) rotate(-16.6)"/>
    <circle class="cls-5" cx="120" cy="113.2" r="1.2"/>
    <circle class="cls-5" cx="119.2" cy="109.3" r="1.2"/>
    <circle class="cls-5" cx="160.2" cy="114.9" r="1.1"/>
    <circle class="cls-5" cx="160.1" cy="110.4" r="1.2"/>
    <circle class="cls-5" cx="167" cy="113" r="2.3"/>
  </g>
</svg>