<?xml version="1.0" encoding="UTF-8" standalone="no"?>
<svg
   xmlns:dc="http://purl.org/dc/elements/1.1/"
   xmlns:cc="http://creativecommons.org/ns#"
   xmlns:rdf="http://www.w3.org/1999/02/22-rdf-syntax-ns#"
   xmlns:svg="http://www.w3.org/2000/svg"
   xmlns="http://www.w3.org/2000/svg"
   xmlns:sodipodi="http://sodipodi.sourceforge.net/DTD/sodipodi-0.dtd"
   xmlns:inkscape="http://www.inkscape.org/namespaces/inkscape"
   width="236"
   height="236"
   fill="none"
   version="1.1"
   id="svg18"
   sodipodi:docname="PERP_ERC20.svg"
   inkscape:version="1.0.2-2 (e86c870879, 2021-01-15)">
  <metadata
     id="metadata24">
    <rdf:RDF>
      <cc:Work
         rdf:about="">
        <dc:format>image/svg+xml</dc:format>
        <dc:type
           rdf:resource="http://purl.org/dc/dcmitype/StillImage" />
      </cc:Work>
    </rdf:RDF>
  </metadata>
  <defs
     id="defs22" />
  <sodipodi:namedview
     pagecolor="#ffffff"
     bordercolor="#666666"
     borderopacity="1"
     objecttolerance="10"
     gridtolerance="10"
     guidetolerance="10"
     inkscape:pageopacity="0"
     inkscape:pageshadow="2"
     inkscape:window-width="1920"
     inkscape:window-height="1017"
     id="namedview20"
     showgrid="false"
     inkscape:zoom="3.3203125"
     inkscape:cx="118"
     inkscape:cy="118"
     inkscape:window-x="-8"
     inkscape:window-y="-8"
     inkscape:window-maximized="1"
     inkscape:current-layer="svg18" />
  <g
     transform="scale(7.375)"
     id="g16">
    <circle
       cx="16"
       cy="16"
       r="16"
       fill="#3ceaaa"
       id="circle4" />
    <g
       fill="#185e44"
       id="g14">
      <g
         fill-rule="evenodd"
         id="g10">
        <path
           d="m 12.348,8.764 c 1.04,-1.019 2.705,-1.019 3.745,0 l 2.463,2.413 c 1.071,1.049 1.071,2.774 0,3.823 l -4.293,4.205 3.078,3.016 c 0.587,0.575 0.596,1.516 0.022,2.102 -0.574,0.586 -1.516,0.596 -2.102,0.022 L 7.803,17.039 c -1.071,-1.049 -1.071,-2.774 0,-3.823 z m -0.209,8.36 4.119,-4.035 -2.038,-1.997 -4.12,4.035 z"
           id="path6" />
        <path
           d="m 18.592,10.803 c 1.041,-1.019 2.705,-1.019 3.745,0 l 2.463,2.413 c 1.071,1.049 1.071,2.774 0,3.823 l -7.458,7.306 c -0.587,0.575 -1.528,0.565 -2.102,-0.022 -0.574,-0.587 -0.565,-1.528 0.022,-2.102 l 3.079,-3.016 -2.211,-2.166 c -1.071,-1.049 -1.071,-2.774 0,-3.823 z m 1.873,6.321 2.038,-1.997 -2.038,-1.997 -2.038,1.997 z"
           id="path8" />
      </g>
      <path
         opacity="0.95"
         d="m 18.425,15.133 -2.165,-2.056 -2.077,2.04 2.114,2.103 z"
         id="path12" />
    </g>
  </g>
</svg>
