<svg xmlns="http://www.w3.org/2000/svg" width="256" height="256" fill="none" xmlns:v="https://vecta.io/nano"><path d="M6.557 128c0 66.964 54.479 121.443 121.443 121.443S249.443 194.964 249.443 128 194.964 6.557 128 6.557 6.557 61.036 6.557 128z" fill="#fff" fill-rule="evenodd" stroke="#b0b0b0" stroke-width="13.114" paint-order="normal"/><g transform="matrix(7.375 0 0 7.375 10 10)"><circle cx="16" cy="16" r="16" fill="#3ceaaa"/><g fill="#185e44"><g fill-rule="evenodd"><path d="M12.348 8.764c1.04-1.019 2.705-1.019 3.745 0l2.463 2.413c1.071 1.049 1.071 2.774 0 3.823l-4.293 4.205 3.078 3.016c.587.575.596 1.516.022 2.102s-1.516.596-2.102.022l-7.458-7.306c-1.071-1.049-1.071-2.774 0-3.823zm-.209 8.36l4.119-4.035-2.038-1.997-4.12 4.035z"/><path d="M18.592 10.803c1.041-1.019 2.705-1.019 3.745 0l2.463 2.413c1.071 1.049 1.071 2.774 0 3.823l-7.458 7.306c-.587.575-1.528.565-2.102-.022s-.565-1.528.022-2.102l3.079-3.016-2.211-2.166c-1.071-1.049-1.071-2.774 0-3.823zm1.873 6.321l2.038-1.997-2.038-1.997-2.038 1.997z"/></g><path opacity=".95" d="M18.425 15.133l-2.165-2.056-2.077 2.04 2.114 2.103z"/></g></g></svg>