<svg xmlns="http://www.w3.org/2000/svg" width="250" height="250" xmlns:v="https://vecta.io/nano"><circle cx="125" cy="125" r="124.816" fill="#cffd50" stroke="#fff" stroke-width=".368"/><path d="M70.041 171.875V151.25l12.085-.066 16.699.066-.104-13.08.105-15.045-15.956.462-12.489.072-.047-30.222L70 60h52.583 49.22c-.299 9.873-.161 19.167-.391 28.75l15.956-.124L200 88.555l-.173 34.273s-2.594.215-3.891.187c-9.109.123-15.535-.009-24.525.11l.245 15.938.289 12.187h-34.951-38.17v19.375V190H84.432 70.04v-20.625zm101.371-65.937V88.75h-36.293-36.293v17.187 17.187h36.293 36.293z" fill="#fff"/></svg>