<svg xmlns="http://www.w3.org/2000/svg" xmlns:xlink="http://www.w3.org/1999/xlink" width="250" height="250" xmlns:v="https://vecta.io/nano"><defs><linearGradient id="A" x1="17.337" x2="80" y1="74.339" y2="74.339" xlink:href="#K"><stop offset="0" stop-color="#700000"/><stop offset=".327" stop-color="#730000"/><stop offset=".59" stop-color="#7d0000"/><stop offset=".83" stop-color="#8e0000"/><stop offset="1" stop-color="#9f0000"/></linearGradient><linearGradient id="B" x1="48.669" x2="48.669" y1="68.69" y2="80" xlink:href="#K"><stop offset=".35" stop-color="#cf2000"/><stop offset=".645" stop-color="#cd1f00"/><stop offset=".752" stop-color="#c61d00"/><stop offset=".828" stop-color="#bb1900"/><stop offset=".889" stop-color="#aa1300"/><stop offset=".941" stop-color="#940c00"/><stop offset=".987" stop-color="#790300"/><stop offset="1" stop-color="#700000"/></linearGradient><linearGradient id="C" x1="17.337" x2="80" y1="50.108" y2="50.108" xlink:href="#K"><stop offset="0" stop-color="#0050cf"/><stop offset=".021" stop-color="#0252d1"/><stop offset=".244" stop-color="#1363e2"/><stop offset=".487" stop-color="#1d6dec"/><stop offset=".791" stop-color="#2070ef"/><stop offset=".841" stop-color="#1e6dec"/><stop offset=".882" stop-color="#1963e2"/><stop offset=".919" stop-color="#1152d1"/><stop offset=".954" stop-color="#053ab9"/><stop offset=".966" stop-color="#0030af"/><stop offset="1" stop-color="#2070ef"/></linearGradient><linearGradient id="D" x1="17.337" x2="80" y1="65.759" y2="65.759" xlink:href="#K"><stop offset="0" stop-color="#cf2000"/><stop offset=".021" stop-color="#d12201"/><stop offset=".244" stop-color="#e23309"/><stop offset=".487" stop-color="#ec3d0e"/><stop offset=".791" stop-color="#ef4010"/><stop offset=".841" stop-color="#ec3d0f"/><stop offset=".882" stop-color="#e2330d"/><stop offset=".919" stop-color="#d12208"/><stop offset=".954" stop-color="#b90a03"/><stop offset=".966" stop-color="#af0000"/><stop offset="1" stop-color="#ef4010"/></linearGradient><linearGradient id="E" x1="17.337" x2="80" y1="58.727" y2="58.727" xlink:href="#K"><stop offset="0" stop-color="#dfdfdf"/><stop offset=".021" stop-color="#e1e1e1"/><stop offset=".244" stop-color="#f2f2f2"/><stop offset=".487" stop-color="#fcfcfc"/><stop offset=".791" stop-color="#fff"/><stop offset=".841" stop-color="#fcfcfc"/><stop offset=".882" stop-color="#f2f2f2"/><stop offset=".919" stop-color="#e1e1e1"/><stop offset=".954" stop-color="#c9c9c9"/><stop offset=".966" stop-color="#bfbfbf"/><stop offset="1" stop-color="#fff"/></linearGradient><linearGradient id="F" x1="17.337" x2="80.001" y1="58.261" y2="58.261" xlink:href="#K"><stop offset="0" stop-color="#fbbf00"/><stop offset=".021" stop-color="#fbc102"/><stop offset=".244" stop-color="#fdd213"/><stop offset=".487" stop-color="#ffdc1d"/><stop offset=".791" stop-color="#ffdf20"/><stop offset=".841" stop-color="#fddc1e"/><stop offset=".882" stop-color="#f8d219"/><stop offset=".919" stop-color="#eec111"/><stop offset=".954" stop-color="#e1a905"/><stop offset=".966" stop-color="#db9f00"/><stop offset="1" stop-color="#ffdf20"/></linearGradient><linearGradient xlink:href="#F" id="G" x1="17.335" x2="80.002" y1="56.33" y2="56.33"/><linearGradient xlink:href="#F" id="H" x2="80.003" y1="73.695" y2="73.695"/><linearGradient xlink:href="#F" id="I" x2="80.002" y1="43.75" y2="43.75"/><linearGradient xlink:href="#F" id="J"/><linearGradient id="K" gradientUnits="userSpaceOnUse"/></defs><circle cx="125" cy="125" r="125" fill="#cdcdcd" fill-rule="evenodd"/><g transform="matrix(2.410746 0 0 2.417396 27.128228 21.608989)"><path fill="#0e3ca5" d="M32.585 59.261c2 7.4 9.176 13.045 12.8 12.811.127-.008 13.745-2.547 21.2-15 5.8-9.693 3.826-19.05-4.064-19.255-2.839.208-33.745 7.349-29.934 21.446m29.198-47.527l-.008-.007.011-.007a34.628 34.628 0 0 0-36.5-5.266 20.236 20.236 0 0 0-2.2 1.075c-.486.258-.972.516-1.444.8l.115.035a15.759 15.759 0 0 0-3.655 3.46C8.172 24.954 41.486 34.5 59.3 34.529c8.191 5.883 10.491-16.561 2.485-22.793z"/><path fill="#5493f7" d="M27.3 12C22.723 18.881 7.478 23.728 4.971 22.973l-.017-.032c.1-.207.207-.414.313-.619a36.682 36.682 0 0 1 10.87-12.683q1.407-1.03 2.913-1.929a10.8 10.8 0 0 1 5.04-1.342c6.789.13 3.244 5.58 3.207 5.635m-3.753 48.611c.329 2.161-.008 10.7-.45 11.418-.381.023-1.174.072-3.471-1.217A36.541 36.541 0 0 1 3.054 27.559q.183-.551.383-1.093c2.631 3.5 5.676 6.666 8.264 10.2 2.465 3.365 5.856 8.852 6.546 10.024 4.284 7.277 4.967 11.767 5.294 13.925M74.189 39.1a36.4 36.4 0 0 1-2.541 13.4c-4.3 4.62-33.283-6.753-33.567-6.877C34.116 43.887 22.05 38.6 20.961 30.3 19.4 18.351 43.63 10.027 54.28 9.712c1.277.015 5.163.06 7.429 1.9A36.415 36.415 0 0 1 74.189 39.1M54.568 71.467c-3.159 1.475-6.638.4-5.734-2.676C50.569 62.882 65.72 56.824 69.066 56.5c.413-.041.588.24.405.561a36.864 36.864 0 0 1-14.9 14.41"/><path fill="url(#A)" d="M17.337 77.255a2.552 2.552 0 0 0 2.329 2.713c30.7.211 60.334-1.2 60.334-5.8 0-13.924-62.663 3.087-62.663 3.087z"/><path fill="url(#B)" d="M17.337 77.255a2.548 2.548 0 0 0 2.34 2.713c30.691.233 60.285-.731 60.323-5.8 0-13.924-62.663 3.087-62.663 3.087zm2.342 2.537a2.193 2.193 0 0 1-.245-.015 2.4 2.4 0 0 1-1.987-1.763 2.369 2.369 0 0 0 2.228 1.763c30.671-.194 59.844-9.637 59.844-5.479 0 4.244-29.171 5.702-59.84 5.494z"/><path fill="url(#C)" d="M19.681 37.824a2.343 2.343 0 0 0-2.344 2.343v29.017q1.8 0 3.511-.039 1.711-.039 3.356-.1 1.639-.063 3.216-.148 1.577-.085 3.1-.2l2.986-.249 2.9-.276 2.825-.3 2.762-.327 2.728-.349 2.7-.376 2.683-.408 2.7-.421 2.719-.44 2.752-.472 2.814-.483 2.884-.5 2.967-.515 3.074-.494 3.3-.463a24.282 24.282 0 0 1 4.28-.229c1.346.092 2.411.433 2.411 1.37V32.4c.032-4.966-29.631 5.194-60.324 5.424z"/><path fill="url(#D)" d="M19.666 79.6C50.364 79.37 80.037 69.21 80 74.17V53.318c0-.937-1.065-1.281-2.41-1.37a24.282 24.282 0 0 0-4.28.227c-1.307.161-2.258.306-3.3.465l-3.072.492-2.968.517-2.884.5-2.814.483-2.75.473-2.718.439-2.7.42-2.68.409-2.7.376a289.362 289.362 0 0 1-5.491.676l-2.825.3-2.9.277a169.348 169.348 0 0 1-9.301.596 181.907 181.907 0 0 1-6.868.14v18.51a2.342 2.342 0 0 0 2.327 2.352z"/><path fill="url(#E)" d="M23.582 75.922a292.563 292.563 0 0 0 8.134-5.138l2.525-1.684 2.517-1.691 2.536-1.728 2.59-1.8 2.7-1.893 2.83-2.022 3-2.19 3.23-2.362q-1.674-.7-3.229-1.354a289.308 289.308 0 0 1-5.83-2.512l-2.7-1.2-2.589-1.186-2.535-1.188-2.519-1.2-2.534-1.234-2.6-1.3-2.7-1.392-2.83-1.513-3.014-1.645a245.68 245.68 0 0 1-2.36-1.326 2.325 2.325 0 0 0-.875 1.812v37.079a2.328 2.328 0 0 0 .915 1.845l2.315-1.36q1.567-.928 3.023-1.818z"/><path fill="url(#J)" d="M36.394 57.047l-1.854.384a4.779 4.779 0 0 0-.049-.318l1.677-.437 1.678-.446-.625-.443-2.818.975a3.771 3.771 0 0 0-.373-.853l2.5-1.7.087-.8-1.393 1.109-1.392 1.1a2.927 2.927 0 0 0-.2-.245l1.454-1.294 1.456-1.3.081-1.312-1.319.2-1.165 1.561-1.162 1.557a3.504 3.504 0 0 0-.263-.173l.989-1.463.991-1.468-.8.157-1.493 2.609a4.072 4.072 0 0 0-.895-.288l.732-2.859-.5-.582-.295 1.693-.3 1.692a5.737 5.737 0 0 0-.326-.025l.207-1.859.208-1.859-.869-.913-.881 1.041.207 1.832.206 1.832-.325.072-.275-1.652-.276-1.654-.51.657.7 2.761a4.615 4.615 0 0 0-.893.428l-1.467-2.41-.8-.048.977 1.339.974 1.333a4.41 4.41 0 0 0-.265.213l-1.162-1.389-1.161-1.395-1.307-.027.071 1.31a303.842 303.842 0 0 0 2.911 2.188 6.145 6.145 0 0 0-.2.272 273.996 273.996 0 0 1-2.758-1.852l.081.8 2.485 1.382a4.314 4.314 0 0 0-.364.91 194.999 194.999 0 0 1-2.806-.614l-.625.522 1.673.233 1.673.221-.05.328-1.849-.127-1.848-.142-.983.894.983.849a250.937 250.937 0 0 0 3.702-.556l.05.322-1.676.346-1.675.336.624.488 2.814-.816a4.012 4.012 0 0 0 .373.871l-2.5 1.57-.086.8 1.39-1.028 1.393-1.038c.062.088.128.172.2.253l-1.454 1.229-1.455 1.218-.08 1.307 1.315-.125 1.166-1.506 1.174-1.525.264.18-.992 1.431-.99 1.425.8-.12 1.495-2.564a3.883 3.883 0 0 0 .9.306l-.733 2.846.5.591.294-1.689.3-1.689a3.184 3.184 0 0 0 .326.028l-.208 1.857-.208 1.859.869.916.88-1.045-.207-1.831-.206-1.83.324-.074.277 1.648.275 1.649.509-.664-.7-2.75a4.423 4.423 0 0 0 .892-.445l1.466 2.365.8.011-.976-1.3-.973-1.3.265-.221 1.161 1.346 1.161 1.34 1.31-.05-.073-1.3-1.463-1.016-1.455-1.025.2-.28 1.379.859 1.383.851-.082-.793-2.486-1.249a4.655 4.655 0 0 0 .363-.928l2.809.455.625-.566-1.675-.122-1.675-.133.05-.33 1.851.028 1.851.014.98-.974-.98-.768-1.857.398z"/><path fill="url(#G)" d="M47.718 55.764l.008-1.873a540.16 540.16 0 0 1-1.089 1.679l-1.781-.341 1.112 1.355-1.11 1.659 1.78-.834 1.092 1.359-.011-1.868 1.777-.84-1.778-.296z"/><path fill="url(#H)" d="M21.131 73l-.753-1.7-.382 1.839-1.87.2 1.63.912-.4 1.833 1.391-1.283 1.619.9-.77-1.683 1.4-1.285-1.865.267z"/><path fill="url(#I)" d="M20 44.3l.382 1.823.753-1.73 1.868.151a227.15 227.15 0 0 1-1.4-1.2l.772-1.727-1.621.986-1.392-1.232.4 1.821-1.632.946L20 44.3z"/></g></svg>