<svg xmlns="http://www.w3.org/2000/svg" viewBox="0 0 512 512"><defs><clipPath id="a"><circle cx="256" cy="256" r="256" fill="none"/></clipPath></defs><g fill-rule="evenodd" clip-path="url(#a)"><path fill="#c1b8ac" d="M-.806-.806h241.793v8.338q-16.146-2.968-25.013 8.338-13.818 13.763-33.351 16.675-11.864-8.159-29.182-8.338A2993 2993 0 0 1 49.22 36.714Q27.752 56.208-.806 57.558z"/><path fill="#d4c9bc" d="M240.987 7.532V-.806h250.131q-89.527 19.329-183.43 33.351 6.182 19.079 16.675 33.351-17.94 23.491-41.688 16.675-4.715-46.422-41.688-75.039"/><path fill="#c9c2b5" d="M182.623 32.545q0 8.337-8.338 8.338L65.896 53.389Q39.568 68.314 24.208 95.077q-11.856 6.038-25.013 4.169V57.558q28.557-1.35 50.026-20.844a2990 2990 0 0 0 104.221-12.507q17.318.178 29.182 8.338z"/><path fill="#cbdaed" d="M441.091 24.207q9.687 66.244 8.338 133.403v41.688l-8.338 16.675q-24.306-7.233-8.338-25.013a549 549 0 0 1-41.688-70.87q5.07-11.823 16.675-16.675-17.895-5.819-29.182-20.844-1.867 34.749-20.844 12.507 11.008-16.96 8.338-37.52h-25.013V32.545z"/><path fill="#773d18" d="M240.987 7.532q36.974 28.618 41.688 75.039-21.549 16.26-54.195 16.675-84.914 7.576-25.013-41.688 12.613-19.072 12.507-41.688 8.867-11.305 25.013-8.338"/><path fill="#c4ccde" d="M532.806 107.584v58.364q-32.953 37.283-83.377 33.351V157.61q19.437-14.92 41.688-29.182-14.263-9.27 0-20.844-6.57-8.66-16.675-12.507a196.6 196.6 0 0 0 25.013-29.182q18.797 13.633 8.338 29.182 9.303 12.99 25.013 12.507"/><path fill="#dbd5c5" d="m174.285 40.883-8.338 16.675q-11.305 8.867-8.338 25.013-34.673 3.502-62.533-16.675-2.737 17.984-12.507 33.351-39.28 22.584-83.375 33.35V99.246q13.157 1.87 25.013-4.169 15.362-26.763 41.688-41.688l108.39-12.507z"/><path fill="#c0cade" d="M532.806 7.532v100.052q-15.71.483-25.013-12.507 10.46-15.549-8.338-29.182a196.7 196.7 0 0 1-25.013 29.182q10.107 3.847 16.675 12.507-14.264 11.575 0 20.844-22.252 14.262-41.688 29.182 1.35-67.159-8.338-133.403a2030 2030 0 0 0 91.715-16.675"/><path fill="#a76e48" d="M215.974 15.869q.108 22.617-12.507 41.688-59.9 49.265 25.013 41.688 32.646-.416 54.195-16.675 23.748 6.816 41.688-16.675 46.098-4.628 25.013 33.351h-8.338l-16.675 8.338q-89.089-2.145-183.429 0 8.867-11.305 25.013-8.338V57.558l8.338-16.675q8.338 0 8.338-8.338 19.532-2.913 33.351-16.675z"/><path fill="#d2d8e5" d="M491.117-.806h41.688v8.338a2030 2030 0 0 1-91.715 16.675l-100.052 8.338v25.013h25.013q2.67 20.56-8.338 37.52 18.978 22.243 20.844-12.507 11.287 15.026 29.182 20.844-11.605 4.852-16.675 16.675a549 549 0 0 0 41.688 70.87q-15.97 17.78 8.338 25.013.913 19.096-16.675 25.013-15.668-37.878-41.688-70.87 12.72-13.125 4.169-29.182-17.08-23.283-37.52-41.688 21.085-37.979-25.013-33.351-10.493-14.272-16.675-33.351 93.903-14.02 183.429-33.35"/><path fill="#150b06" d="M291.013 124.259h8.338q-26.702 19.647-58.364 33.351h-8.338q-11.977-32.826-29.182 0-6.038-11.856-4.169-25.013 45.255-9.3 91.715-8.338"/><path fill="#e3dddd" d="M341.039 99.246q-.05 43.58 25.013 79.208-15.26 27.14 0 54.195h-16.675q4.168-37.52-33.351-33.351-4.481-39.88-16.675-75.039 9.887-11.272 25.013-16.675z"/><path fill="#6d371a" d="M324.364 107.584q-15.126 5.404-25.013 16.675h-8.338q-35.062-14.23-75.039-4.169-24.02 14.036-50.026 20.844v25.013q-52.78.911-58.364-50.026 15.107-9.181 33.351-8.338 94.34-2.145 183.429 0z"/><path fill="#453020" d="M299.351 124.259q12.194 35.159 16.675 75.039 5.713 28.423 33.351 33.351h16.675q8.338 16.675 25.013 25.013v16.675L374.39 266q-24.927 8.379-58.364 0l-8.338-16.675v-25.013q-40.317-26.81-66.701-66.701 31.661-13.704 58.364-33.351z"/><path fill="#eae3d5" d="M165.948 57.558v41.688q-16.146-2.969-25.013 8.338-18.244-.843-33.351 8.338-29.443 6.414-50.026 29.182l16.675 16.675q-20.437 6.173-41.688 4.169Q19.192 154.26-.806 157.61v-25.013q44.095-10.765 83.377-33.351 9.769-15.367 12.507-33.351 27.86 20.178 62.533 16.675-2.969-16.146 8.338-25.013z"/><path fill="#3c2214" d="M291.013 124.259q-46.46-.962-91.715 8.338-1.87 13.157 4.169 25.013 17.205-32.826 29.182 0-2.762 32.483-12.507 0-16.432 10.166-29.182 25.013l-25.013-16.675v-25.013q26.007-6.808 50.026-20.844 39.977-10.062 75.039 4.169z"/><path fill="#f1ebdd" d="M107.584 115.922q5.583 50.938 58.364 50.026-20.881 31.287-54.195 50.026-13.499 32.05-12.507 66.701-12.11 26.356-8.338 58.364-45.074-12.764-91.715 0v-50.026q21.195-6.397 41.688-16.675 14.893-39.229 25.013-79.208-25.569-6.232-33.351-29.182 21.25 2.004 41.688-4.169l-16.675-16.675q20.584-22.768 50.026-29.182z"/><path fill="#dadfec" d="M341.039 99.246h8.338q20.44 18.406 37.52 41.688 8.551 16.057-4.169 29.182 26.02 32.992 41.688 70.87-9.842 20.063-33.351 16.675-16.675-8.338-25.013-25.013-15.26-27.056 0-54.195-25.062-35.628-25.013-79.208z"/><path fill="#dd9c76" d="M316.026 199.299q37.52-4.168 33.351 33.351-27.637-4.927-33.351-33.351"/><path fill="#735531" d="M232.649 157.61h8.338q26.384 39.893 66.701 66.701-38.393-3.767-70.87-25.013-27.363-1.826-33.351 25.013-20.844-12.506-33.351-33.351-6.156 13.12 4.169 25.013l-50.026 83.377q2.969 16.146-8.338 25.013 4.75-27.489-16.675-41.688-.992-34.65 12.507-66.701 33.313-18.74 54.195-50.026l25.013 16.675q12.75-14.848 29.182-25.013 9.745 32.483 12.507 0z"/><path fill="#533214" d="M307.688 224.312v25.013q-22.187 17.271-37.52-8.338-15.873 17.568-12.507 41.688-51.28-3.293-100.052 8.338l-33.351 8.338 50.026-83.377q-10.326-11.894-4.169-25.013 12.506 20.844 33.351 33.351 5.988-26.839 33.351-25.013 32.477 21.246 70.87 25.013z"/><path fill="#f4f1ec" d="M-.806 157.61q19.998-3.35 33.351 8.338 7.782 22.95 33.351 29.182-10.12 39.979-25.013 79.208-20.493 10.28-41.688 16.675z"/><path fill="#1f0d05" d="M215.974 215.974h33.351v58.364q-54.936.54-8.338-12.507-15.742-11.55-33.351-20.844 7.844-11.466 8.338-25.013"/><path fill="#cfd2de" d="M532.806 165.948v83.377q-18.426-7.154-33.351-20.844-21.006-.43-37.52-4.169-10.88 7.602-12.507 20.844 4.984 29.229 0 62.533-10.22 30.874-12.507 66.701-9.626 13.734-20.844 0 2.963-54.852-25.013-100.052v-16.675q23.508 3.388 33.351-16.675 17.588-5.917 16.675-25.013l8.338-16.675q50.425 3.932 83.377-33.351z"/><path fill="#d8d7dc" d="M532.806 249.325v58.364h-83.377q4.984-33.303 0-62.533 1.627-13.242 12.507-20.844 16.514 3.74 37.52 4.169 14.925 13.69 33.351 20.844z"/><path fill="#8a462c" d="M374.39 266q-28.472 82.525-58.364 0 33.437 8.379 58.364 0"/><path fill="#2b160d" d="M157.61 291.013v33.351q16.146-2.969 25.013 8.338-38.25 2.649-62.533 33.351 9.645-21.011-4.169-41.688 11.305-8.867 8.338-25.013l33.351-8.338z"/><path fill="#71481a" d="M257.662 282.675q21.134 4.458 25.013 25.013v41.688h-66.701q-20.673-1.996-33.351-16.675-8.867-11.305-25.013-8.338v-33.351q48.773-11.63 100.052-8.338z"/><path fill="#3f1f12" d="M282.675 307.688q9.598 8.404 16.675 20.844-10.463 12.648-8.338 29.182 23.946-3.558 41.688 8.338-11.414 32.242-33.351 58.364-17.657-21.64 8.338-37.52-19.522-3.972-29.182-20.844-13.92 15.763-4.169 29.182-7.434 5.807-16.675 4.169-9.654-14.927-25.013-25.013l-16.675-25.013h66.701v-41.688z"/><path fill="#f2b888" d="M307.688 249.325 316.026 266q29.892 82.525 58.364 0l16.675 8.338q27.976 45.2 25.013 100.052 7.907 49.168 41.688 83.377 9.993 36.644 8.338 75.039h-41.688q-31.84-30.325-37.52-75.039-32.547-12.22-62.533-29.182 29.906-8.647 0-25.013 44.475-12.559 8.338-37.52-17.743-11.896-41.688-8.338-2.126-16.534 8.338-29.182-7.078-12.44-16.675-20.844-3.88-20.556-25.013-25.013-3.367-24.12 12.507-41.688 15.332 25.61 37.52 8.338z"/><path fill="#f1bd8a" d="M99.246 282.675q21.427 14.2 16.675 41.688 13.814 20.678 4.169 41.688 24.283-30.701 62.533-33.351 12.678 14.68 33.351 16.675l16.675 25.013v41.688q-64.494.171-87.546-58.364a196.6 196.6 0 0 1-29.182 25.013q31.494 20.708 0 33.351H99.246z"/><path fill="#dbd4c2" d="M90.909 341.039v66.701q-44.83-13.542-91.715-16.675v-50.026q46.64-12.764 91.715 0"/><path fill="#443830" d="M457.767 307.688h75.039v16.675q-28.865-15.186-58.364 0-11.897 65.907-8.338 133.403h-8.338z"/><path fill="#bab5af" d="M532.806 324.364v16.675h-33.351q9.852 36.699 16.675 75.039.279 30.828-12.507 58.364-3.117-14.058-12.507-25.013-11.466 7.844-25.013 8.338-3.559-67.496 8.338-133.403 29.498-15.186 58.364 0z"/><path fill="#d3c9b5" d="M99.246 282.675v133.403q17.822 17.785 25.013 41.688-19.975-7.385-33.351-25.013-6.972 27.734 0 58.364 1.637 10.961-8.338 16.675-25.551-13.5-33.351-41.688-23.713-12.076-50.026-8.338v-66.701q46.885 3.133 91.715 16.675v-66.701q-3.772-32.008 8.338-58.364"/><path fill="#f6bb83" d="M232.649 391.065q12.11 26.356 8.338 58.364 23.508-3.388 33.351 16.675l-50.026-4.169q6.462 37.322-16.675 70.87h-16.675q21.56-49.977-25.013-79.208 11.888-8.974 4.169-20.844-25.93-2.97-54.195-16.675 31.494-12.644 0-33.351a196.7 196.7 0 0 0 29.182-25.013q23.052 58.536 87.546 58.364v-25.013z"/><path fill="#c3b5ad" d="M449.429 307.688h8.338v150.078q-33.781-34.209-41.688-83.377 11.219 13.734 20.844 0 2.288-35.828 12.507-66.701z"/><path fill="#ce8e62" d="M332.701 366.052q36.138 24.96-8.338 37.52 29.906 16.366 0 25.013 29.986 16.962 62.533 29.182 5.68 44.713 37.52 75.039h-25.013q-26.05-34.343-66.701-50.026-26.31-23.41-33.351-58.364 21.936-26.122 33.351-58.364z"/><path fill="#b57649" d="M232.649 374.39q15.36 10.086 25.013 25.013 20.852 41.571 54.195 75.039 6.173 20.437 4.169 41.688h-25.013q5.222-9.024 16.675-12.507-19.277-17.149-33.351-37.52-9.842-20.063-33.351-16.675 3.772-32.008-8.338-58.364V374.39z"/><path fill="#a08c7a" d="M532.806 341.039v150.078q-7.722 1.384-12.507 8.338-19.814-17.026-45.857-16.675v50.026h-8.338q1.655-38.397-8.338-75.039h8.338q13.547-.492 25.013-8.338 9.39 10.955 12.507 25.013 12.785-27.536 12.507-58.364-6.824-38.34-16.675-75.039z"/><path fill="#c7bbac" d="M-.806 457.767q26.313-3.738 50.026 8.338 7.8 28.19 33.351 41.688 9.974-5.715 8.338-16.675 21.55 13.823 25.013 41.688H-.806z"/><path fill="#e5a770" d="M99.246 416.078h16.675q28.265 13.705 54.195 16.675 7.72 11.87-4.169 20.844 46.573 29.23 25.013 79.208h-8.338q-14.928-48.317-58.364-75.039-7.191-23.904-25.013-41.688z"/><path fill="#f8c590" d="M274.338 466.104q14.073 20.37 33.351 37.52-11.454 3.482-16.675 12.507-34.12-4.12-58.364 16.675h-25.013q23.137-33.548 16.675-70.87z"/><path fill="#180604" d="M299.351 424.416q7.041 34.953 33.351 58.364l16.675 33.351h-33.351q2.004-21.251-4.169-41.688-33.344-33.469-54.195-75.039 9.241 1.638 16.675-4.169-9.751-13.419 4.169-29.182 9.66 16.872 29.182 20.844-25.995 15.88-8.338 37.52z"/><path fill="#905a32" d="M332.701 482.78q40.65 15.683 66.701 50.026h-33.351l-16.675-16.675z"/><path fill="#cdc1af" d="M124.259 457.767q43.436 26.723 58.364 75.039h-66.701q-3.463-27.865-25.013-41.688-6.972-30.63 0-58.364 13.375 17.628 33.351 25.013z"/><path fill="#4c495c" d="M532.806 491.117v41.688h-58.364V482.78q26.043-.35 45.857 16.675 4.785-6.954 12.507-8.338"/></g></svg>