<svg id="Po.et" xmlns="http://www.w3.org/2000/svg" width="256" height="256" viewBox="0 0 512 512">
<defs>
    <style>
      .cls-1 {
        fill: #43b880;
      }

      .cls-1, .cls-2, .cls-3, .cls-4 {
        fill-rule: evenodd;
      }

      .cls-2 {
        fill: #fff;
      }

      .cls-3, .cls-4 {
        fill: none;
        stroke: #fff;
        stroke-width: 17px;
      }

      .cls-3 {
        stroke-linecap: round;
        stroke-linejoin: round;
      }
    </style>
  </defs>
  <path id="Main" class="cls-1" d="M11,256c0,135.094,109.906,245,245,245S501,391.094,501,256,391.094,11,256,11,11,120.906,11,256Z"/>
  <g id="Po.et-2" data-name="Po.et">
    <path id="Middle" class="cls-2" d="M106,400h24L354,176c7.088-8.575-4.43-19.529-13-11Z"/>
    <path id="Outer" class="cls-3" d="M156,361l1-80S273.514,165.486,305,134c18.384-18.384,56.519-17.589,77,6,21.254,22.667,18.637,56.363,2,73L236,361H156Z"/>
    <path id="Top_Line" data-name="Top Line" class="cls-4" d="M299,141v76h79"/>
    <path id="Middle_Line" data-name="Middle Line" class="cls-4" d="M251,190v76h79"/>
    <path id="Bottom_Line" data-name="Bottom Line" class="cls-4" d="M202,239v76h79"/>
  </g>
</svg>
