<svg xmlns="http://www.w3.org/2000/svg" width="245" height="245" viewBox="0 0 245 245">
  <g id="Polygon_matic_logo" transform="translate(-771 -289)">
    <circle id="path1530" cx="122.5" cy="122.5" r="122.5" transform="translate(771 289)" fill="#8247e5"/>
    <g id="polygon-matic-logo" transform="translate(815 343)">
      <path id="Path_27" data-name="Path 27" d="M118.561,42.01a10.417,10.417,0,0,0-9.812,0L85.855,55.5,70.319,64.087,47.833,77.578a10.417,10.417,0,0,1-9.812,0l-17.58-10.63a9.965,9.965,0,0,1-4.906-8.585V37.921a10.084,10.084,0,0,1,4.906-8.585l17.58-10.221a10.417,10.417,0,0,1,9.812,0l17.58,10.63a9.965,9.965,0,0,1,4.906,8.585V51.822l15.536-8.994v-13.9a10.084,10.084,0,0,0-4.906-8.585L48.242,1.126a10.417,10.417,0,0,0-9.812,0L4.906,20.75A8.993,8.993,0,0,0,0,28.927v38.43a10.084,10.084,0,0,0,4.906,8.585L38.021,95.158a10.417,10.417,0,0,0,9.812,0L70.319,82.075l15.536-8.994L108.341,60a10.417,10.417,0,0,1,9.812,0l17.58,10.221a9.965,9.965,0,0,1,4.906,8.585V99.246a10.084,10.084,0,0,1-4.906,8.585l-17.171,10.221a10.417,10.417,0,0,1-9.812,0L91.17,107.832a9.965,9.965,0,0,1-4.906-8.585V86.163L70.728,95.158v13.491a10.084,10.084,0,0,0,4.906,8.585l33.115,19.215a10.417,10.417,0,0,0,9.812,0l33.115-19.215a9.965,9.965,0,0,0,4.906-8.585V69.81a10.084,10.084,0,0,0-4.906-8.585Z" transform="translate(0 0.1)" fill="#fff"/>
    </g>
  </g>
</svg>
