<?xml version="1.0" encoding="UTF-8" standalone="no"?>
<svg
   width="96"
   height="96"
   version="1.1"
   id="svg24"
   sodipodi:docname="POLIS.svg"
   inkscape:version="1.1.1 (3bf5ae0d25, 2021-09-20)"
   xmlns:inkscape="http://www.inkscape.org/namespaces/inkscape"
   xmlns:sodipodi="http://sodipodi.sourceforge.net/DTD/sodipodi-0.dtd"
   xmlns:xlink="http://www.w3.org/1999/xlink"
   xmlns="http://www.w3.org/2000/svg"
   xmlns:svg="http://www.w3.org/2000/svg">
  <sodipodi:namedview
     id="namedview26"
     pagecolor="#ffffff"
     bordercolor="#666666"
     borderopacity="1.0"
     inkscape:pageshadow="2"
     inkscape:pageopacity="0.0"
     inkscape:pagecheckerboard="0"
     showgrid="false"
     inkscape:zoom="9.09375"
     inkscape:cx="48"
     inkscape:cy="48"
     inkscape:window-width="2560"
     inkscape:window-height="1361"
     inkscape:window-x="-9"
     inkscape:window-y="-9"
     inkscape:window-maximized="1"
     inkscape:current-layer="g13" />
  <defs
     id="defs4">
    <path
       id="A"
       d="M8 15.5L.5.5h15z" />
    <path
       d="M26 20.487L12.588 49.322c-.443.924-.673 1.674-1.648 1.674L2.081 51c-1.27 0-1.97-.331-1.354-1.674L22.39 2.112c.442-.785.717-1.362 1.693-1.362h3.835c.975 0 1.25.577 1.693 1.362l21.661 47.214C51.89 50.669 51.189 51 49.919 51l-8.859-.004c-.975 0-1.205-.75-1.648-1.674L26 20.487h0z"
       id="B" />
  </defs>
  <circle
     cx="48"
     cy="48"
     r="48"
     fill="#17181d"
     id="circle6" />
  <g
     fill="none"
     fill-rule="evenodd"
     id="g22">
    <g
       transform="translate(40 67)"
       id="g13">
      <mask
         id="C"
         fill="#fff">
        <use
           xlink:href="#A"
           id="use8" />
      </mask>
      <path
         fill="#32feff"
         mask="url(#C)"
         d="M-3.25 19.25h22.5v-22.5h-22.5z"
         id="path11"
         style="fill:#ffffff;fill-opacity:1" />
    </g>
    <g
       transform="translate(22 21)"
       id="g20">
      <mask
         id="D"
         fill="#fff">
        <use
           xlink:href="#B"
           id="use15" />
      </mask>
      <path
         fill="#fff"
         mask="url(#D)"
         d="M-3.25 54.75h58.5V-3h-58.5z"
         id="path18" />
    </g>
  </g>
</svg>
