<?xml version="1.0" encoding="utf-8"?>
<!-- Generator: Adobe Illustrator 22.0.0, SVG Export Plug-In . SVG Version: 6.00 Build 0)  -->
<svg version="1.1" id="Polymath" xmlns="http://www.w3.org/2000/svg" xmlns:xlink="http://www.w3.org/1999/xlink" x="0px" y="0px"
	 viewBox="0 0 245 245" style="enable-background:new 0 0 245 245;" xml:space="preserve">
<style type="text/css">
	.st0{fill:#252E6A;}
	.st1{fill:#FFFFFF;}
</style>
<path id="Main" class="st0" d="M0,122.5C0,190,55,245,122.5,245S245,190,245,122.5S190,0,122.5,0S0,55,0,122.5z"/>
<path id="Polymath-2" class="st1" d="M52.5,176.5l10-2.5l-1.5-6.5l8-17l16.5-6.5l6-10.5l10.5-8l20.5,3.5l21-9.5l-3.5,15h-9.5
	L128,147l8.5-5.5L149,136l10.5-16.5l0.5-7.5l5.5,5.5l16,10.5l10-4.5L190,101l-2.5-7.5l12-3l8-10.5v-5.5l-2,4.5l-9.5,8.5L185,89l-3-3
	l9.5-13.5l11.5-3L190.5,70L175,81l-14-1l-20.5-11L129,71.5l-37.5,32l-18,5.5l-7.5,8.5H52.5L46,130l-8.5,2.5l8,1.5l8.5-11.5l12,3V137
	l-6,16.5l-3.5,16L52.5,176.5z"/>
</svg>
