<svg id="Polymath" xmlns="http://www.w3.org/2000/svg" width="256" height="256" viewBox="0 0 512 512">
<defs>
    <style>
      .cls-1 {
        fill: #252e6a;
      }

      .cls-1, .cls-2 {
        fill-rule: evenodd;
      }

      .cls-2 {
        fill: #fff;
      }
    </style>
  </defs>
  <path id="Main" class="cls-1" d="M11,256c0,135.094,109.906,245,245,245S501,391.094,501,256,391.094,11,256,11,11,120.906,11,256Z"/>
  <path id="Polymath-2" data-name="Polymath" class="cls-2" d="M116,364l20-5-3-13,16-34,33-13,12-21,21-16,41,7,42-19-7,30H272l-5,25,17-11,25-11,21-33,1-15,11,11,32,21,20-9-3-45-5-15,24-6,16-21V160l-4,9-19,17-22,3-6-6,19-27,23-6-25,1-31,22-28-2-41-22-23,5-75,64-36,11-15,17H116l-13,25-17,5,16,3,17-23,24,6v23l-12,33-7,32Z"/>
</svg>
