<?xml version="1.0" encoding="UTF-8"?><svg id="CIRCLE_OUTLINE_BLACK" xmlns="http://www.w3.org/2000/svg" viewBox="0 0 512 512"><circle cx="256" cy="256" r="256" fill="#efdedd" stroke-width="0"/><path d="M390.2704,160.58601c-2.23715,21.36187,2.68548,40.95534,12.2264,60.29717,31.36225,63.57925,11.61957,149.96858-62.12526,186.27463-31.92691,15.71824-65.0692,15.9255-98.74514,9.66151-48.58123-9.03654-80.99677-38.47303-101.51443-82.48589-12.89453-27.66036-19.40262-57.01647-25.18709-86.75672-4.64015-23.8568-11.34529-47.3042-16.5449-71.06219-5.0095-22.88942-4.39019-45.73964,3.26574-68.08107,6.06416-17.69631,18.30846-22.17523,33.37261-10.98189,11.53119,8.56818,21.97037,18.71755,32.28088,28.79238,18.22454,17.808,38.7777,24.86378,64.84399,21.75551,21.78242-2.59744,44.26895-.71501,66.31779.90096,12.46586.91363,23.12678-1.52811,33.52835-7.69775,9.40388-5.5779,18.621-11.68715,28.57777-16.06822,17.07039-7.51113,29.2792.85367,29.68535,19.42062.11681,5.34122.01793,10.68717.01793,16.03093ZM357.33634,185.00511c-.68092.63394-1.36185,1.26785-2.04277,1.90176,1.76138,1.75969,3.63178,3.42608,5.24464,5.31267,1.02871,1.20329,1.67597,2.73266,2.49429,4.11583-1.53256.85127-3.33617,2.70547-4.55009,2.37743-4.85251-1.31121-9.79572-2.78695-14.20543-5.13912-11.40856-6.0854-11.5996-8.03921-1.24736-18.27993-1.67414-.86312-3.61472-1.41491-4.96202-2.62651-16.63262-14.95684-36.51299-20.32531-58.37023-20.26147-8.1388.02376-16.9625-4.06261-23.35883,4.80752-.75322,1.04456-2.8998,1.22965-4.45514,1.52827-17.30306,3.32204-31.95052,11.74836-45.17185,23.0941-4.71539,4.04645-8.45641,7.91978-2.09797,13.3378q-12.63424,10.40474-7.24307,21.08724c-7.09186,9.1818-14.04638,17.95789-20.74585,26.92456-6.512,8.7158-11.00489,17.6825-.79644,26.03784-6.09843,7.03451-12.08269,13.14975-17.08538,19.98359-3.3604,4.5904-5.292,10.07939.4474,15.07586,1.00936.87875,1.44708,3.57072.8886,4.8931-2.38843,5.65551-4.14047,12.18941-8.21026,16.37499-5.4142,5.5682-4.38291,10.06229-1.22992,15.51943,1.47111,2.54618,2.80655,5.17158,4.30444,7.70132,35.72841,60.34144,104.91822,77.66295,164.51974,59.44885,61.94586-18.93045,91.04538-67.95337,91.5091-132.18062.17321-23.98642-17.29882-39.68651-24.78849-60.00051-2.64246-7.16703-12.45625-11.69-19.62593-17.97227.93307-6.13481-2.7726-10.51135-9.22117-13.06172ZM158.25956,172.93116c2.64216-10.02755,4.4519-19.2763-1.02871-27.91138-7.82639-12.33103-15.82712-24.57636-24.37183-36.4118-2.67149-3.70034-7.08392-6.40137-11.16081-8.7636-4.97636-2.88342-9.59623-1.71541-11.60692,4.05572-2.70881,7.77487-5.80736,15.59919-7.06106,23.6631-4.90423,31.54439-.93056,60.82401,24.31194,85.08742.56346-3.84592.97023-6.62229,1.41905-9.68567,5.10969.19513,11.14256,2.39857,11.05987-5.99865-.0084-.85327,1.95227-1.58775,2.65427-2.61343,1.74327-2.54696,3.79344-5.05965,4.75554-7.9116.81491-2.41562.1221-5.30175.3716-7.95379.5954-6.32852,3.13526-9.73332,10.65705-5.55634ZM379.81086,198.4658c1.33191-.12842,2.66377-.25685,3.99563-.38525.36175-3.9373,1.0026-7.87252,1.0317-11.81225.08036-10.88087-.06365-21.76395-.18345-32.64545-.05267-4.78121.79509-9.92928-.70606-14.23425-1.41795-4.06607-4.67715-9.02-8.3566-10.47714-10.52676-4.16884-27.68344,7.61828-29.57398,19.75125,1.80915,0,3.66044-.38498,5.26894.07639,3.91699,1.12347,9.66308,1.52902,11.1973,4.21138,4.14959,7.25501,6.57934,15.51173,9.52079,23.4344,2.71684,7.31765,5.2126,14.71734,7.80571,22.08092Z" fill="#764b46" stroke-width="0"/><path d="M357.33634,185.00511c6.44857,2.55037,10.15423,6.92691,9.22117,13.06172,7.16967,6.28227,16.98347,10.80524,19.62593,17.97227,7.48968,20.314,24.9617,36.01409,24.78849,60.00051-.46372,64.22725-29.56324,113.25017-91.5091,132.18062-59.60152,18.2141-128.79133.8926-164.51974-59.44885-1.49789-2.52974-2.83333-5.15515-4.30444-7.70132-3.15299-5.45714-4.18428-9.95123,1.22992-15.51943,4.06979-4.18557,5.82184-10.71947,8.21026-16.37499.55848-1.32238.12076-4.01435-.8886-4.8931-5.7394-4.99647-3.8078-10.48546-.4474-15.07586,5.00269-6.83384,10.98695-12.94908,17.08538-19.98359-10.20845-8.35535-5.71556-17.32204.79644-26.03784,6.69946-8.96667,13.65398-17.74276,20.74585-26.92456q-5.39117-10.6825,7.24307-21.08724c-6.35844-5.41802-2.61742-9.29136,2.09797-13.3378,13.22133-11.34574,27.8688-19.77206,45.17185-23.0941,1.55534-.29862,3.70192-.48371,4.45514-1.52827,6.39634-8.87013,15.22003-4.78375,23.35883-4.80752,21.85724-.06384,41.73761,5.30463,58.37023,20.26147,1.3473,1.2116,3.28788,1.76339,4.96202,2.62651-10.35223,10.24071-10.16119,12.19453,1.24736,18.27993,4.40972,2.35217,9.35292,3.82791,14.20543,5.13912,1.21392.32804,3.01754-1.52616,4.55009-2.37743-.81831-1.38316-1.46558-2.91254-2.49429-4.11583-1.61286-1.88659-3.48326-3.55299-5.24464-5.31267.68092-.63391,1.36185-1.26782,2.04277-1.90176ZM316.87116,207.20429c-.58795,1.07107-1.1759,2.14212-1.76385,3.21319-6.10637,0-12.22582-.2614-18.31687.04405-30.65874,1.53748-57.10136,12.01488-77.44518,36.03158-20.44706,24.13856-24.46371,62.85087-7.95256,87.61097,32.55592,48.82088,103.74788,65.09539,151.5741,24.3104,20.28279-17.29674,31.60656-39.89453,31.18581-66.78139-.54515-34.83212-27.93054-69.02135-61.91477-78.42768-7.04037-1.9487-8.83202-4.73879-5.80772-11.03375,6.35785,3.27605,6.88712,3.12827,10.0825-2.27669-10.49252-1.06024-21.29274-2.15157-32.51873-3.28592,4.58574,3.77311,8.7315,7.18417,12.87727,10.59524ZM226.31386,184.6292c-10.50004-5.42206-10.46321,9.95976-18.52254,10.63444,3.50161,1.89632,7.02755,3.04368,10.32039,2.57009,11.78836-1.69538,23.53138-3.77534,35.19938-6.16071,1.68024-.34348,2.97043-3.08425,4.12607-4.91454.1526-.24171-2.24528-2.49926-2.33228-2.42878-4.81481,3.90075-5.11965-2.23384-7.6144-3.3325-.89191-.39274-1.89588-.53106-3.01489-.82988.21275,2.04488.38726,3.72227.72059,6.92593-4.70098-1.65939-8.53515-2.83196-12.19681-4.40587-1.23955-.5328-2.0429-2.08045-3.04559-3.16434-1.15236,1.61654-2.30472,3.2331-3.63991,5.10615Z" fill="#fff" stroke-width="0"/><path d="M158.25956,172.93116c-7.52179-4.17698-10.06165-.77218-10.65705,5.55634-.2495,2.65204.44331,5.53816-.3716,7.95379-.9621,2.85195-3.01227,5.36464-4.75554,7.9116-.70199,1.02567-2.66267,1.76015-2.65427,2.61343.08268,8.39722-5.95019,6.19378-11.05987,5.99865-.44882,3.06338-.85559,5.83974-1.41905,9.68567-25.2425-24.26341-29.21617-53.54303-24.31194-85.08742,1.2537-8.06391,4.35224-15.88823,7.06106-23.6631,2.01069-5.77112,6.63056-6.93914,11.60692-4.05572,4.07689,2.36223,8.48932,5.06326,11.16081,8.7636,8.54471,11.83544,16.54544,24.08077,24.37183,36.4118,5.48061,8.63508,3.67088,17.88383,1.02871,27.91138Z" fill="#c58e8e" stroke-width="0"/><path d="M379.81086,198.4658c-2.59312-7.36358-5.08888-14.76327-7.80571-22.08092-2.94144-7.92267-5.3712-16.17939-9.52079-23.4344-1.53422-2.68237-7.28031-3.08791-11.1973-4.21138-1.6085-.46136-3.45979-.07639-5.26894-.07639,1.89054-12.13297,19.04721-23.92009,29.57398-19.75125,3.67945,1.45714,6.93865,6.41107,8.3566,10.47714,1.50115,4.30497.65339,9.45305.70606,14.23425.1198,10.8815.2638,21.76457.18345,32.64545-.0291,3.93973-.66995,7.87495-1.0317,11.81225-1.33186.1284-2.66372.25682-3.99563.38525Z" fill="#c58e8e" stroke-width="0"/><path d="M316.87116,207.20429c-4.14576-3.41106-8.29153-6.82213-12.87727-10.59524,11.22599,1.13435,22.02621,2.22568,32.51873,3.28592-3.19538,5.40496-3.72465,5.55274-10.0825,2.27669-3.0243,6.29496-1.23264,9.08505,5.80772,11.03375,33.98423,9.40633,61.36962,43.59557,61.91477,78.42768.42075,26.88686-10.90302,49.48465-31.18581,66.78139-47.82622,40.785-119.01818,24.51048-151.5741-24.3104-16.51115-24.7601-12.4945-63.47241,7.95256-87.61097,20.34382-24.0167,46.78643-34.4941,77.44518-36.03158,6.09106-.30545,12.21051-.04405,18.31687-.04405.58795-1.07107,1.1759-2.14212,1.76385-3.21319Z" fill="#331616" stroke-width="0"/><path d="M226.31386,184.6292c1.33519-1.87304,2.48755-3.48961,3.63991-5.10615,1.00269,1.08388,1.80604,2.63153,3.04559,3.16434,3.66166,1.57391,7.49583,2.74648,12.19681,4.40587-.33333-3.20366-.50784-4.88105-.72059-6.92593,1.11901.29881,2.12298.43714,3.01489.82988,2.49475,1.09866,2.79959,7.23325,7.6144,3.3325.087-.07048,2.48488,2.18707,2.33228,2.42878-1.15564,1.83029-2.44583,4.57107-4.12607,4.91454-11.668,2.38537-23.41102,4.46533-35.19938,6.16071-3.29283.47359-6.81877-.67377-10.32039-2.57009,8.05933-.67468,8.0225-16.0565,18.52254-10.63444Z" fill="#0f0a05" stroke-width="0"/></svg>