<?xml version="1.0" encoding="utf-8"?>
<!-- Generator: Adobe Illustrator 22.0.0, SVG Export Plug-In . SVG Version: 6.00 Build 0)  -->
<svg version="1.1" id="Lager_1" xmlns="http://www.w3.org/2000/svg" xmlns:xlink="http://www.w3.org/1999/xlink" x="0px" y="0px"
	 viewBox="0 0 256 256" style="enable-background:new 0 0 256 256;" xml:space="preserve">
<style type="text/css">
	.st0{fill:#101010;}
	.st1{fill:#FFFFFF;}
	.st2{font-family:'CourierNewPS-BoldMT';}
	.st3{font-size:10.449px;}
	.st4{letter-spacing:1;}
</style>
<title>POR</title>
<g id="PORLOGO">
	<g id="POR">
		<path id="Full" class="st0" d="M0,128c0,70.6,57.4,128,128,128s128-57.4,128-128S198.6,0,128,0S0,57.4,0,128z"/>
		<text transform="matrix(1 0 0 1 52.2451 53.8125)" class="st1 st2 st3 st4">  </text>
		<text transform="matrix(1 0 0 1 67.189 53.8125)" class="st1 st2 st3 st4">0000000019d6689c</text>
		<text transform="matrix(1 0 0 1 186.7417 53.8125)" class="st1 st2 st3 st4"> </text>
		<text transform="matrix(1 0 0 1 52.2451 65.8286)" class="st1 st2 st3 st4"> </text>
		<text transform="matrix(1 0 0 1 59.7168 65.8286)" class="st1 st2 st3 st4">00000000019d6689c08</text>
		<text transform="matrix(1 0 0 1 201.6855 65.8286)" class="st1 st2 st3 st4"> </text>
		<text transform="matrix(1 0 0 1 52.2451 77.8447)" class="st1 st2 st3 st4">000000000019d6689c085</text>
		<text transform="matrix(1 0 0 1 209.1577 77.8447)" class="st1 st2 st3 st4"> </text>
		<text transform="matrix(1 0 0 1 52.2451 89.8613)" class="st1 st2 st3 st4">00000</text>
		<text transform="matrix(1 0 0 1 89.605 89.8613)" class="st1 st2 st3 st4">           </text>
		<text transform="matrix(1 0 0 1 171.7979 89.8613)" class="st1 st2 st3 st4">9c085</text>
		<text transform="matrix(1 0 0 1 209.1577 89.8613)" class="st1 st2 st3 st4"> </text>
		<text transform="matrix(1 0 0 1 52.2451 101.8779)" class="st1 st2 st3 st4">00000</text>
		<text transform="matrix(1 0 0 1 89.605 101.8779)" class="st1 st2 st3 st4">            </text>
		<text transform="matrix(1 0 0 1 179.2695 101.8779)" class="st1 st2 st3 st4">c085</text>
		<text transform="matrix(1 0 0 1 209.1577 101.8779)" class="st1 st2 st3 st4"> </text>
		<text transform="matrix(1 0 0 1 52.2451 113.894)" class="st1 st2 st3 st4">00000</text>
		<text transform="matrix(1 0 0 1 89.605 113.894)" class="st1 st2 st3 st4">            </text>
		<text transform="matrix(1 0 0 1 179.2695 113.894)" class="st1 st2 st3 st4">c085</text>
		<text transform="matrix(1 0 0 1 209.1577 113.894)" class="st1 st2 st3 st4"> </text>
		<text transform="matrix(1 0 0 1 52.2451 125.9101)" class="st1 st2 st3 st4">00000</text>
		<text transform="matrix(1 0 0 1 89.605 125.9101)" class="st1 st2 st3 st4">           </text>
		<text transform="matrix(1 0 0 1 171.7979 125.9101)" class="st1 st2 st3 st4">9c085</text>
		<text transform="matrix(1 0 0 1 209.1577 125.9101)" class="st1 st2 st3 st4"> </text>
		<text transform="matrix(1 0 0 1 52.2451 137.9268)" class="st1 st2 st3 st4">00000</text>
		<text transform="matrix(1 0 0 1 89.605 137.9268)" class="st1 st2 st3 st4">    </text>
		<text transform="matrix(1 0 0 1 119.4932 137.9268)" class="st1 st2 st3 st4">019d6689c085</text>
		<text transform="matrix(1 0 0 1 209.1577 137.9268)" class="st1 st2 st3 st4"> </text>
		<text transform="matrix(1 0 0 1 52.2451 149.9429)" class="st1 st2 st3 st4">00000</text>
		<text transform="matrix(1 0 0 1 89.605 149.9429)" class="st1 st2 st3 st4">   </text>
		<text transform="matrix(1 0 0 1 112.0215 149.9429)" class="st1 st2 st3 st4">0019d6689c085</text>
		<text transform="matrix(1 0 0 1 209.1577 149.9429)" class="st1 st2 st3 st4"> </text>
		<text transform="matrix(1 0 0 1 52.2451 161.959)" class="st1 st2 st3 st4">00000</text>
		<text transform="matrix(1 0 0 1 89.605 161.959)" class="st1 st2 st3 st4">  </text>
		<text transform="matrix(1 0 0 1 104.5488 161.959)" class="st1 st2 st3 st4">00019d6689c</text>
		<text transform="matrix(1 0 0 1 186.7417 161.959)" class="st1 st2 st3 st4"> </text>
		<text transform="matrix(1 0 0 1 52.2451 173.9756)" class="st1 st2 st3 st4">00000</text>
		<text transform="matrix(1 0 0 1 89.605 173.9756)" class="st1 st2 st3 st4"> </text>
		<text transform="matrix(1 0 0 1 52.2451 185.9922)" class="st1 st2 st3 st4">00000</text>
		<text transform="matrix(1 0 0 1 89.605 185.9922)" class="st1 st2 st3 st4"> </text>
		<text transform="matrix(1 0 0 1 52.2451 198.0083)" class="st1 st2 st3 st4">00000</text>
		<text transform="matrix(1 0 0 1 89.605 198.0083)" class="st1 st2 st3 st4"> </text>
		<text transform="matrix(1 0 0 1 52.2451 210.0244)" class="st1 st2 st3 st4">00000</text>
	</g>
</g>
</svg>
