<svg id="PPT" xmlns="http://www.w3.org/2000/svg" width="512" height="512" viewBox="0 0 512 512">
  <defs>
    <style>
      .cls-1 {
        fill: #5ca0f6;
      }

      .cls-1, .cls-2 {
        fill-rule: evenodd;
      }

      .cls-2 {
        fill: #fff;
      }
    </style>
  </defs>
  <path id="Full" class="cls-1" d="M11,256c0,135.094,109.906,245,245,245S501,391.094,501,256,391.094,11,256,11,11,120.906,11,256Z"/>
  <path id="PPT-2" data-name="PPT" class="cls-2" d="M280.451,117.04A33.254,33.254,0,1,1,247.2,84a33.147,33.147,0,0,1,33.253,33.04M167,352.2h43.033V171.458h-3.912A38.995,38.995,0,0,0,167,210.328V352.2ZM268.714,428H225.681V169.514h66.506A52.7,52.7,0,0,1,345,221.989v77.74A52.7,52.7,0,0,1,292.187,352.2H268.714V428Zm0-118.554h23.473a9.759,9.759,0,0,0,9.78-9.717v-77.74a9.76,9.76,0,0,0-9.78-9.718H268.714v97.175Z"/>
</svg>
