<?xml version="1.0" encoding="utf-8"?>
<!-- Generator: Adobe Illustrator 22.0.0, SVG Export Plug-In . SVG Version: 6.00 Build 0)  -->
<svg version="1.1" id="PPT" xmlns="http://www.w3.org/2000/svg" xmlns:xlink="http://www.w3.org/1999/xlink" x="0px" y="0px"
	 viewBox="0 0 490 490" style="enable-background:new 0 0 490 490;" xml:space="preserve">
<style type="text/css">
	.st0{fill:#5CA0F6;}
	.st1{fill:#FFFFFF;}
</style>
<path id="Full" class="st0" d="M0,245c0,135.1,109.9,245,245,245s245-109.9,245-245S380.1,0,245,0S0,109.9,0,245z"/>
<path id="PPT-2" class="st1" d="M269.5,106c0.1,18.4-14.7,33.3-33,33.5c-18.4,0.1-33.3-14.7-33.5-33c-0.1-18.4,14.7-33.3,33-33.5
	c0.1,0,0.1,0,0.2,0C254.5,72.9,269.4,87.7,269.5,106 M156,341.2h43V160.5h-3.9c-21.5-0.1-39.1,17.3-39.1,38.9c0,0,0,0,0,0V341.2z
	 M257.7,417h-43V158.5h66.5c29.1-0.1,52.7,23.4,52.8,52.5v77.7c-0.1,29.1-23.8,52.5-52.8,52.5h-23.5V417z M257.7,298.4h23.5
	c5.4,0,9.8-4.3,9.8-9.7V211c0-5.4-4.4-9.7-9.8-9.7h-23.5V298.4z"/>
</svg>
