<svg xmlns="http://www.w3.org/2000/svg" width="245" height="245" viewBox="0 0 245 245">
  <g id="Presearch_logo" transform="translate(-12715 -8003)">
    <g id="BNB" transform="translate(12715 8003)">
      <path id="Main_copy_14" d="M0,122.5C0,190,55,245,122.5,245S245,190,245,122.5,190,0,122.5,0,0,55,0,122.5Z" fill="#2d8eff"/>
    </g>
    <g id="Group_9113" data-name="Group 9113" transform="translate(-295.063 -37.202)">
      <path id="Path_472478" data-name="Path 472478" d="M27.315,61.558h12.44a24.033,24.033,0,0,0,10.282-2.327,25.725,25.725,0,0,0,8-6.135,28.391,28.391,0,0,0,5.077-8.928,29.364,29.364,0,0,0,1.862-10.324,25.641,25.641,0,0,0-1.989-9.986A30.93,30.93,0,0,0,57.61,15.1a26.784,26.784,0,0,0-8.166-6.3A22.087,22.087,0,0,0,39.12,6.341H6.37v79.5H27.526Zm0-36.008H37.893a5.67,5.67,0,0,1,3.85,1.862,9.309,9.309,0,0,1,1.989,6.728,8.97,8.97,0,0,1-1.819,6.474,4.739,4.739,0,0,1-3.554,1.862H27.315Z" transform="translate(13086.118 8116.159)" fill="#fff"/>
      <path id="Path_472479" data-name="Path 472479" d="M0,7.658V125.625a7.658,7.658,0,0,0,7.658,7.658H125.625a7.659,7.659,0,0,0,7.658-7.658V7.658A7.659,7.659,0,0,0,125.625,0H7.658A7.658,7.658,0,0,0,0,7.658ZM110.012,117.67H23.187a7.658,7.658,0,0,1-7.658-7.658V23.187a7.658,7.658,0,0,1,7.658-7.658h86.824a7.658,7.658,0,0,1,7.658,7.658v86.824a7.659,7.659,0,0,1-7.658,7.574Z" transform="translate(13065.535 8095.674)" fill="#fff"/>
      <rect id="Rectangle_848" data-name="Rectangle 848" width="49.04" height="15.063" transform="translate(13122.783 8187.068)" fill="#fff"/>
    </g>
  </g>
</svg>
