<?xml version="1.0" encoding="UTF-8"?><svg id="CIRCLE_OUTLINE_BLACK" xmlns="http://www.w3.org/2000/svg" viewBox="0 0 512 512"><path d="m375.33156,269.07654c6.42356-6.46321,12.79992-8.97071,21.82916-8.86497,37.51547.43994,75.06619.22721,114.78326.20392.02518-1.47026.05602-2.93926.05602-4.41581,0-7.9555-.38204-15.82037-1.09199-23.59083-40.31311.04154-79.9918.44372-119.62769-.3147-12.4632-.23854-20.89263,3.63977-29.57696,12.40152-75.76859,76.44455-152.17412,152.25908-227.90368,228.7414-1.97503,1.99454-3.79649,3.54095-5.54682,4.6556,8.31992,4.80036,16.94068,9.13309,25.81698,12.99,1.93097-2.06755,3.53969-3.78264,5.19499-5.4392,72.06022-72.08539,144.2161-144.07448,216.06673-216.36694Z" fill="#def141" stroke-width="0"/><path d="m414.17378,303.97123c-6.14348.15483-13.70499,2.99842-18.03645,7.23611-63.42749,62.04724-126.58623,124.37329-189.31573,187.12608-2.92541,2.92667-5.75011,5.35171-8.66042,7.10456,18.58654,4.29307,37.94786,6.56203,57.8385,6.56203,125.65284,0,230.15375-90.53032,251.85578-209.92198-1.85859.76156-3.84054,1.27515-5.38633,1.30032-29.42906.46827-58.87825-.1498-88.29535.59289Z" fill="#def141" stroke-width="0"/><path d="m129.95284,314.5538c62.42676-61.82569,125.1059-123.39648,187.37406-185.38078,6.47266-6.44307,12.85594-8.88952,21.85811-8.8014,43.93589.42924,87.88058.42862,131.81647-.01699.75905-.00755,1.46207.02706,2.16448.06168C427.92408,48.10497,347.58612,0,255.99969,0,114.61522,0,0,114.61522,0,255.99969c0,53.44724,16.38808,103.06275,44.40101,144.11351,29.08667-29.13828,57.21163-57.49233,85.55184-85.55939Z" fill="#def141" stroke-width="0"/><path d="m344.99177,199.10779c7.48346-7.53318,14.86369-10.29683,25.26501-10.1634,42.16793.54065,84.3497.49155,126.51952.03021,2.4263-.02643,4.57441.08749,6.4544.42484-2.34385-8.72399-5.13394-17.26419-8.35076-25.59355-45.42377.07238-88.65285.69485-131.8064-.44876-15.1872-.40218-25.15486,4.83309-35.31197,15.05188-82.70699,83.20673-165.83567,165.99365-248.72582,249.01848-2.15063,2.15378-3.94313,4.68519-5.9597,7.6408,6.03586,6.16551,12.3776,12.02955,19.00697,17.56252,1.4476-1.59236,2.83037-3.08402,4.26412-4.51777,82.92665-82.95686,165.98106-165.78721,248.64462-249.00527Z" fill="#def141" stroke-width="0"/><path d="m327.76157,178.40901c10.15711-10.21879,20.12477-15.45406,35.31197-15.05188,43.15355,1.1436,86.38263.52114,131.8064.44876-5.87851-15.22056-13.17063-29.73494-21.71398-43.38957-.7024-.03462-1.40543-.06923-2.16448-.06168-43.93589.44561-87.88058.44624-131.81647.01699-9.00218-.08811-15.38546,2.35833-21.85811,8.8014-62.26815,61.9843-124.9473,123.55508-187.37406,185.38078-28.34021,28.06705-56.46517,56.42111-85.55184,85.55939,8.52447,12.49215,18.1296,24.18434,28.67505,34.95511,2.01657-2.95562,3.80907-5.48703,5.9597-7.6408,82.89014-83.02483,166.01883-165.81176,248.72582-249.01848Z" stroke-width="0"/><path d="m361.70336,244.49568c8.68433-8.76175,17.11377-12.64006,29.57696-12.40152,39.63589.75842,79.31457.35624,119.62769.3147-1.3469-14.73341-3.94062-29.10492-7.67731-43.00942-1.87999-.33735-4.0281-.45127-6.4544-.42484-42.16982.46134-84.35159.51044-126.51952-.03021-10.40131-.13343-17.78155,2.63022-25.26501,10.1634-82.66356,83.21806-165.71798,166.04841-248.64462,249.00527-1.43375,1.43375-2.81652,2.92541-4.26412,4.51777,11.27805,9.41191,23.37117,17.87785,36.16983,25.26186,1.75034-1.11465,3.57179-2.66106,5.54682-4.6556,75.72956-76.48231,152.13509-152.29685,227.90368-228.7414Z" stroke-width="0"/><path d="m397.16072,260.21157c-9.02924-.10574-15.4056,2.40176-21.82916,8.86497-71.85063,72.29246-144.00651,144.28155-216.06673,216.36694-1.6553,1.65656-3.26402,3.37165-5.19499,5.4392,14.08703,6.12208,28.82358,11.02944,44.09135,14.55529,2.9103-1.75285,5.73501-4.1779,8.66042-7.10456,62.7295-62.75278,125.88824-125.07884,189.31573-187.12608,4.33147-4.23769,11.89297-7.08128,18.03645-7.23611,29.4171-.74268,58.8663-.12462,88.29535-.59289,1.54578-.02518,3.52774-.53876,5.38633-1.30032,2.46218-13.54575,3.8481-27.4641,4.08852-41.66253-39.71708.02329-77.26779.23602-114.78326-.20392Z" stroke-width="0"/></svg>