<svg xmlns="http://www.w3.org/2000/svg" width="250" height="250" xmlns:v="https://vecta.io/nano"><circle cx="125" cy="125" r="119.342" fill="#ea7437" stroke="#fff" stroke-width="1.315"/><g fill-rule="evenodd"><path d="M116.812 213.607h16.822l-45.225-72.896c-2.316-3.657-2.926-7.07-1.219-11.459.853-2.072 2.56-4.023 4.145-5.485-.488-.609-.975-1.341-1.463-2.072-2.438-3.779-4.145-7.923-5.242-12.312-15.237 7.436-18.651 22.429-9.874 37.301zm-6.461-53.392c9.874 1.097 19.016 1.097 28.768 0 11.946-1.341 22.673-4.145 29.256-8.533 6.948-4.51 11.58-11.702 11.58-20.113 0-9.752-5.973-17.31-14.14-21.698-.731 3.657-1.95 7.07-3.535 10.118-.853 1.707-1.828 3.291-3.047 4.754 1.828 1.95 3.535 4.388 3.535 6.704 0 3.901-4.388 8.167-7.68 9.996-3.779 2.072-9.264 3.413-13.531 3.901-5.607.609-11.215.853-16.822.975-2.926 0-6.095-.122-9.021-.366-4.998-.244-10.361-.609-15.237-1.95z" fill="#020202"/><path d="M125.345 36c15.116 24.746 9.874 39.495 7.802 48.76-3.169 14.384 14.994 19.138 16.335 2.438.366-3.901.122-8.411-.122-12.678 18.651 29.987 6.461 57.049-24.014 57.049-25.599 0-39.983-23.405-29.865-46.687-1.097 12.312 7.558 16.335 6.095 10.605-.366-1.463-1.097-3.901-1.707-8.899C97.552 62.696 126.929 56.601 125.345 36z" fill="#fff"/></g></svg>
