<?xml version="1.0" encoding="UTF-8"?><svg id="Layer_1" xmlns="http://www.w3.org/2000/svg" width="128" height="128" viewBox="0 0 128 128"><defs><style>.cls-1{fill:#0071f3;}.cls-2{fill:#fff;}</style></defs><circle class="cls-1" cx="64" cy="64" r="64"/><path class="cls-2" d="M72.14,25.63h-22.31c-2.41,0-4.67,1.81-4.98,4.37l-1.51,10.25v.15h-7.54c-1.96,0-3.62,1.66-3.62,3.62,0,2.11,1.66,3.62,3.62,3.77h6.33l-1.06,7.09v.6h-7.54c-1.96,0-3.62,1.66-3.62,3.62s1.66,3.62,3.62,3.62h6.33l-3.47,22.01-1.06,7.39-.6,3.92c-.45,3.17,1.81,5.88,4.98,5.88h16.89c2.41,0,4.52-1.81,4.98-4.37l3.17-20.2h7.84c14.17,0,25.78-11.76,25.48-26.08-.15-14.62-11.91-25.63-25.93-25.63ZM49.52,47.49l22.61.15c1.96,0,3.77,1.66,3.77,3.77s-1.66,3.77-3.77,3.77h-23.82l1.21-7.69ZM72.29,69.5h-9.35c-2.41,0-4.52,1.81-4.98,4.37l-3.17,20.2h-12.51l4.82-31.66h25.03c6.03,0,11.01-4.98,11.01-11.01s-4.98-11.01-11.01-11.01l-21.41-.15,1.06-7.24h20.81c10.25,0,18.39,8.44,18.24,18.69-.3,9.95-8.59,17.79-18.54,17.79Z"/></svg>