<?xml version="1.0" encoding="utf-8"?>
<!-- Generator: Adobe Illustrator 22.0.0, SVG Export Plug-In . SVG Version: 6.00 Build 0)  -->
<svg version="1.1" id="QASH" xmlns="http://www.w3.org/2000/svg" xmlns:xlink="http://www.w3.org/1999/xlink" x="0px" y="0px"
	 viewBox="0 0 245 245" style="enable-background:new 0 0 245 245;" xml:space="preserve">
<style type="text/css">
	.st0{fill:#1348E8;}
	.st1{fill:none;stroke:#FFFFFF;stroke-width:7;stroke-linecap:round;stroke-linejoin:round;}
	.st2{fill:none;stroke:#FFFFFF;stroke-width:3;stroke-linecap:round;stroke-linejoin:round;}
	.st3{fill:none;stroke:#FFFFFF;stroke-width:10;stroke-dasharray:12.122,4.0407;}
</style>
<path id="Full" class="st0" d="M0,122.5C0,190,55,245,122.5,245S245,190,245,122.5S190,0,122.5,0S0,55,0,122.5z"/>
<path id="Q" class="st1" d="M116.8,80.9h11.5c12.4,0,22.5,10.1,22.5,22.5v32.2c0,12.4-10.1,22.5-22.5,22.5h-11.5
	c-12.4,0-22.5-10.1-22.5-22.5v-32.2C94.3,91,104.3,80.9,116.8,80.9z M131.5,145l19.5,19.5"/>
<path id="Ring" class="st2" d="M122.5,35c48.3,0,87.5,39.2,87.5,87.5S170.8,210,122.5,210S35,170.8,35,122.5S74.2,35,122.5,35z
	 M122.8,44.8c43,0,77.9,34.9,77.9,77.9s-34.9,77.9-77.9,77.9s-77.9-34.9-77.9-77.9C44.8,79.7,79.7,44.8,122.8,44.8L122.8,44.8z"/>
<g id="Holes">
	<circle class="st3" cx="122.5" cy="122.5" r="82.3"/>
</g>
</svg>
