<svg id="QASH" xmlns="http://www.w3.org/2000/svg" width="256" height="256" viewBox="0 0 512 512">
  <defs>
    <style>
      .cls-1 {
        fill: #1348e8;
      }

      .cls-1, .cls-2, .cls-3 {
        fill-rule: evenodd;
      }

      .cls-2, .cls-3, .cls-4 {
        fill: none;
        stroke: #fff;
      }

      .cls-2, .cls-3 {
        stroke-linecap: round;
        stroke-linejoin: round;
      }

      .cls-2 {
        stroke-width: 13px;
      }

      .cls-3 {
        stroke-width: 6px;
      }

      .cls-4 {
        stroke-width: 18px;
        stroke-dasharray: 24.12 6.3;
      }
    </style>
  </defs>
  <path id="Full" class="cls-1" d="M11,256c0,135.094,109.906,245,245,245S501,391.094,501,256,391.094,11,256,11,11,120.906,11,256Z"/>
  <path id="Q" class="cls-2" d="M244.5,172.825H267.5a45,45,0,0,1,45,45v64.35a45,45,0,0,1-45,45H244.5a45,45,0,0,1-45-45v-64.35A45,45,0,0,1,244.5,172.825ZM274,301l39,39"/>
  <path id="Ring" class="cls-3" d="M256,81A175,175,0,1,1,81,256,175,175,0,0,1,256,81Zm0.5,19.671A155.829,155.829,0,1,1,100.671,256.5,155.829,155.829,0,0,1,256.5,100.671Z"/>
  <circle id="Holes" class="cls-4" cx="256" cy="256" r="164.625"/>
</svg>
