<?xml version="1.0" encoding="utf-8"?>
<!-- Generator: Adobe Illustrator 22.0.0, SVG Export Plug-In . SVG Version: 6.00 Build 0)  -->
<svg version="1.1" id="QLC" xmlns="http://www.w3.org/2000/svg" xmlns:xlink="http://www.w3.org/1999/xlink" x="0px" y="0px"
	 viewBox="0 0 490 490" style="enable-background:new 0 0 490 490;" xml:space="preserve">
<style type="text/css">
	.st0{fill:#4D3D9D;}
	.st1{fill:#FFFFFF;}
</style>
<path id="Full" class="st0" d="M0,245c0,135.1,109.9,245,245,245s245-109.9,245-245S380.1,0,245,0S0,109.9,0,245z"/>
<path id="QLC-2" class="st1" d="M245,358.1c7.6-0.2,13.6-6.5,13.5-14.1c-0.2-7.4-6.1-13.3-13.5-13.5c-47.2-0.1-85.5-38.3-85.5-85.6
	c0.1-7.6-6.1-13.8-13.7-13.9c-7.6-0.1-13.8,6.1-13.9,13.7c0,0.1,0,0.2,0,0.2C131.8,307.4,182.5,358.1,245,358.1
	C245,358.1,245,358.1,245,358.1 M245,131.9c-7.6,0.2-13.6,6.5-13.5,14.1c0.2,7.4,6.1,13.3,13.5,13.5c47.2,0.1,85.5,38.3,85.5,85.6
	c0,7.6,6.2,13.8,13.8,13.8c7.6,0,13.8-6.2,13.8-13.8C358.2,182.6,307.5,131.9,245,131.9C245,131.9,245,131.9,245,131.9 M184.7,245
	L184.7,245 M245,184.8L245,184.8c33.3,0,60.2,27,60.2,60.3c0,7.6-6.2,13.8-13.8,13.8c-7.6,0-13.8-6.2-13.8-13.8c0,0,0,0,0,0
	c-0.1-18-14.8-32.6-32.8-32.5s-32.6,14.8-32.5,32.8c0.1,18,14.7,32.5,32.6,32.5c7.6,0.2,13.6,6.5,13.5,14.1
	c-0.2,7.4-6.1,13.3-13.5,13.5c-33.3,0-60.3-27.1-60.3-60.4S211.7,184.7,245,184.8L245,184.8L245,184.8z M301.2,301.2L301.2,301.2
	c5.4-5.4,5.4-14.1,0-19.5c0,0,0,0,0,0l-0.2-0.2c-5.4-5.4-14.1-5.4-19.5,0s-5.4,14.1,0,19.5l0.2,0.2
	C287,306.6,295.7,306.6,301.2,301.2C301.1,301.3,301.2,301.2,301.2,301.2 M245,80c-7.6,0.2-13.6,6.5-13.4,14.1
	c0.2,7.3,6.1,13.3,13.4,13.4c75.9,0.1,137.4,61.6,137.4,137.5c0,7.6,6.2,13.8,13.8,13.8c7.6,0,13.8-6.2,13.8-13.8c0,0,0,0,0,0
	C409.9,153.9,336.1,80.1,245,80 M245,410c7.6-0.2,13.6-6.5,13.4-14.1c-0.2-7.3-6.1-13.3-13.4-13.4c-75.9-0.1-137.4-61.6-137.4-137.5
	c0-7.6-6.2-13.8-13.8-13.7S80,237.4,80,245l0,0C80,336.2,153.9,410,245,410"/>
</svg>
