<svg id="QLC" xmlns="http://www.w3.org/2000/svg" width="512" height="512" viewBox="0 0 512 512">
  <defs>
    <style>
      .cls-1 {
        fill: #4d3d9d;
      }

      .cls-1, .cls-2 {
        fill-rule: evenodd;
      }

      .cls-2 {
        fill: #fff;
      }
    </style>
  </defs>
  <path id="Full" class="cls-1" d="M11,256c0,135.094,109.906,245,245,245S501,391.094,501,256,391.094,11,256,11,11,120.906,11,256Z"/>
  <path id="QLC-2" data-name="QLC" class="cls-2" d="M256,369.116a13.8,13.8,0,0,0,0-27.592,85.658,85.658,0,0,1-85.549-85.574,13.792,13.792,0,1,0-27.583,0A113.13,113.13,0,0,0,256,369.116m0-226.232a13.8,13.8,0,0,0,0,27.592,85.658,85.658,0,0,1,85.548,85.574,13.792,13.792,0,1,0,27.584,0A113.13,113.13,0,0,0,256,142.884M195.736,256.05h0M256,195.768h0a60.235,60.235,0,0,1,60.164,60.282,13.792,13.792,0,1,1-27.584,0,32.647,32.647,0,1,0-32.68,32.79,13.8,13.8,0,0,1,0,27.592,60.332,60.332,0,0,1,.1-120.664h0Zm56.166,116.465h0a13.759,13.759,0,0,0,0-19.494l-0.2-.2a13.782,13.782,0,1,0-19.488,19.494l0.2,0.2a13.75,13.75,0,0,0,19.488,0M256,91a13.8,13.8,0,0,0,0,27.591A137.531,137.531,0,0,1,393.417,256.05a13.792,13.792,0,1,0,27.584,0A165.174,165.174,0,0,0,256,91m0,330a13.8,13.8,0,0,0,0-27.591A137.53,137.53,0,0,1,118.583,255.95a13.792,13.792,0,1,0-27.584.1A165,165,0,0,0,256,421"/>
</svg>
