<svg id="QSP" xmlns="http://www.w3.org/2000/svg" width="512" height="512" viewBox="0 0 512 512">
  <defs>
    <style>
      .cls-1 {
        fill: #4cbbfd;
      }

      .cls-1, .cls-2 {
        fill-rule: evenodd;
      }

      .cls-2 {
        fill: #fff;
      }
    </style>
  </defs>
  <path id="Full" class="cls-1" d="M11,256c0,135.094,109.906,245,245,245S501,391.094,501,256,391.094,11,256,11,11,120.906,11,256Z"/>
  <path id="QSP-2" data-name="QSP" class="cls-2" d="M372.138,256.029a115.442,115.442,0,0,0-18.753-63.142l45.536-45.536-34.215-34.2L319.22,158.682a115.6,115.6,0,0,0-126.293,0l-45.586-45.536-34.2,34.205,45.536,45.536a115.6,115.6,0,0,0,0,126.283l-45.536,45.556,34.205,34.195,45.536-45.536a115.6,115.6,0,0,0,126.283,0l45.546,45.536,34.2-34.195L353.375,319.22a115.445,115.445,0,0,0,18.763-63.181v-0.01Zm-183.84,0a67.731,67.731,0,1,1,129.526,27.63l-44.688-44.738-34.215,34.215,44.688,44.688A67.6,67.6,0,0,1,188.3,256.029Z"/>
</svg>
