<?xml version="1.0" encoding="utf-8"?>
<!-- Generator: Adobe Illustrator 22.0.0, SVG Export Plug-In . SVG Version: 6.00 Build 0)  -->
<svg version="1.1" id="QSP" xmlns="http://www.w3.org/2000/svg" xmlns:xlink="http://www.w3.org/1999/xlink" x="0px" y="0px"
	 viewBox="0 0 490 490" style="enable-background:new 0 0 490 490;" xml:space="preserve">
<style type="text/css">
	.st0{fill:#4CBBFD;}
	.st1{fill:#FFFFFF;}
</style>
<path id="Full" class="st0" d="M0,245c0,135.1,109.9,245,245,245s245-109.9,245-245S380.1,0,245,0S0,109.9,0,245z"/>
<path id="QSP-2" class="st1" d="M361.1,245c0-22.4-6.5-44.4-18.8-63.1l45.5-45.5l-34.2-34.2l-45.5,45.5c-38.4-25-87.9-25-126.3,0
	l-45.6-45.5l-34.2,34.2l45.5,45.5c-25,38.4-25,87.9,0,126.3l-45.5,45.6l34.2,34.2l45.5-45.5c38.4,25,87.9,25,126.3,0l45.5,45.5
	l34.2-34.2l-45.5-45.5C354.6,289.4,361.2,267.5,361.1,245L361.1,245z M177.3,245c-0.1-37.4,30.2-67.8,67.6-67.8
	c37.4-0.1,67.8,30.2,67.8,67.6c0,9.6-2,19.1-5.9,27.8l-44.7-44.7l-34.2,34.2l44.7,44.7c-34.1,15.3-74.1,0.1-89.4-34
	C179.3,264.1,177.3,254.6,177.3,245L177.3,245z"/>
</svg>
