<?xml version="1.0" encoding="UTF-8" standalone="no"?>
<svg
   xmlns:dc="http://purl.org/dc/elements/1.1/"
   xmlns:cc="http://creativecommons.org/ns#"
   xmlns:rdf="http://www.w3.org/1999/02/22-rdf-syntax-ns#"
   xmlns:svg="http://www.w3.org/2000/svg"
   xmlns="http://www.w3.org/2000/svg"
   xmlns:sodipodi="http://sodipodi.sourceforge.net/DTD/sodipodi-0.dtd"
   xmlns:inkscape="http://www.inkscape.org/namespaces/inkscape"
   id="svg"
   version="1.1"
   width="382.60611"
   height="382.59491"
   viewBox="0 0 382.60611 382.59491"
   sodipodi:docname="image2vector.svg"
   inkscape:version="1.0.2-2 (e86c870879, 2021-01-15)">
  <metadata
     id="metadata13">
    <rdf:RDF>
      <cc:Work
         rdf:about="">
        <dc:format>image/svg+xml</dc:format>
        <dc:type
           rdf:resource="http://purl.org/dc/dcmitype/StillImage" />
      </cc:Work>
    </rdf:RDF>
  </metadata>
  <defs
     id="defs11" />
  <sodipodi:namedview
     pagecolor="#ffffff"
     bordercolor="#666666"
     borderopacity="1"
     objecttolerance="10"
     gridtolerance="10"
     guidetolerance="10"
     inkscape:pageopacity="0"
     inkscape:pageshadow="2"
     inkscape:window-width="1920"
     inkscape:window-height="1017"
     id="namedview9"
     showgrid="false"
     inkscape:zoom="2.125"
     inkscape:cx="190.92783"
     inkscape:cy="182.79633"
     inkscape:window-x="-8"
     inkscape:window-y="-8"
     inkscape:window-maximized="1"
     inkscape:current-layer="svgg" />
  <g
     id="svgg"
     transform="translate(-9.0721729,-17.203666)">
    <path
       id="path0"
       d="m 272.027,37.3 c -3.132,12.546 -15.613,35.571 -22.812,42.086 -1.494,1.352 -0.85,1.347 3.685,-0.029 2.475,-0.752 4.945,-1.484 5.489,-1.627 l 0.989,-0.261 -0.758,1.165 c -8.874,13.651 -28.54,29.605 -42.475,34.456 -1.087,0.379 -1.376,0.804 -2.156,3.174 -1.943,5.907 -5.149,11.329 -9.145,15.468 l -2.638,2.733 2.069,-0.816 c 44.19,-17.418 66.168,-47.352 68.392,-93.149 0.28,-5.783 0.158,-6.396 -0.64,-3.2 m -74.618,74.56 c -0.875,0.76 -3.789,2.465 -6.477,3.789 l -4.887,2.408 -0.646,1.946 c -0.945,2.845 -3.318,6.28 -6.135,8.88 -3.863,3.567 -6.402,4.807 -16.064,7.851 -1.983,0.624 6.414,0.18 10.265,-0.544 11.893,-2.234 20.162,-9.429 24.371,-21.206 1.666,-4.662 1.632,-4.912 -0.427,-3.124 m 58.791,29.487 c 15.676,3.093 30.273,9.047 42.573,17.367 2.971,2.009 4.247,2.627 6,2.905 13.666,2.169 17.853,3.096 25.627,5.676 2.75,0.912 7.245,2.794 9.99,4.182 2.744,1.388 5.068,2.523 5.163,2.523 0.174,0 -1.56,-1.33 -9.966,-7.646 -9.268,-6.963 -17.846,-12.375 -28.252,-17.822 -6.578,-3.443 -6.34,-3.647 -2.776,2.38 2.459,4.156 2.488,4.137 -2.659,1.715 -14.499,-6.823 -31.594,-11.258 -46.3,-12.011 l -4.2,-0.215 4.8,0.946 m -67.587,19.961 c 4.071,2.225 7.37,4.331 10.257,6.548 1.248,0.959 2.43,1.744 2.626,1.744 0.594,0 7.454,7.224 9.443,9.944 2.944,4.025 2.786,4.165 -2.939,2.604 -38.627,-10.53 -76.967,-5.695 -106.066,13.378 -6.07,3.979 -6.009,3.862 -3.587,6.77 7.796,9.361 19.939,15.131 35.253,16.752 l 2.6,0.276 -1.407,-1.562 c -7.385,-8.198 -3.54,-15.609 9.807,-18.902 20.344,-5.019 56.882,0.579 65.786,10.079 36.869,39.337 -24.968,93.361 -88.201,77.057 -31.691,-8.171 -58.333,-33.359 -75.043,-70.949 l -2.333,-5.247 -0.004,4.236 c -0.049,45.374 24.186,91.729 63.103,120.705 37.228,27.717 86.764,37.396 132.337,25.857 55.792,-14.126 84.301,-62.353 69.197,-117.054 C 295.498,193.045 251.944,160.701 196.6,159.746 l -11.2,-0.193 3.213,1.755 m -79.27,1.495 c -4.024,0.89 -8.999,6.911 -9.911,11.997 -0.229,1.277 -0.148,1.207 0.923,-0.8 4.48,-8.397 12.885,-11.145 12.384,-4.048 -0.167,2.375 0.197,2.32 0.812,-0.122 1.227,-4.873 -0.548,-7.835 -4.208,-7.027"
       stroke="none"
       fill="#1b245b"
       fill-rule="evenodd" />
    <path
       id="path1"
       d="M 190.648,54.816 C 111.32,60.311 50.096,122.234 45.139,201.987 l -0.462,7.419 1.907,4.397 c 16.508,38.077 43.592,63.94 75.601,72.193 63.233,16.304 125.07,-37.72 88.201,-77.057 -7.522,-8.026 -41.777,-14.582 -59.586,-11.404 -18.731,3.343 -24.57,10.721 -16.007,20.227 l 1.407,1.562 -2.6,-0.276 c -15.469,-1.637 -29.053,-8.239 -35.8,-17.4 -1.53,-2.077 -1.279,-2.131 -5.283,1.152 -4.634,3.799 -4.386,3.881 -5.482,-1.8 -2.338,-12.118 -2.018,-22.491 0.943,-30.605 l 1.178,-3.227 -1.478,1.183 c -0.813,0.65 -7.058,5.942 -13.878,11.759 -6.82,5.816 -12.461,10.419 -12.535,10.228 -0.22,-0.567 1.117,-8.157 2.384,-13.537 14.503,-61.572 70.546,-106.733 133.075,-107.234 3.589,-0.028 6.589,0.012 6.667,0.091 0.078,0.078 -20.719,17.872 -46.217,39.542 l -46.359,39.4 -0.008,1.713 c -0.048,11.145 16.107,7.656 29.981,-6.476 2.987,-3.042 2.834,-3.004 5.763,-1.463 2.67,1.405 5.05,1.82 8.151,1.424 l 2.298,-0.293 -2.19,-0.568 c -11.205,-2.901 -13.174,-16.3 -3.73,-25.383 3.567,-3.431 4.848,-4.135 14.541,-7.991 23.074,-9.178 37.877,-19.331 42.97,-29.47 1.359,-2.707 1.814,-2.473 4.004,2.055 1.977,4.088 3.273,8.385 3.655,12.109 l 0.255,2.493 3.567,-2.398 c 10.458,-7.032 21.603,-16.736 29.379,-25.579 4.595,-5.226 4.711,-4.734 -1.593,-6.725 -18.554,-5.862 -39.241,-8.477 -57.21,-7.232 m 76.972,16.533 c -0.199,0.521 -0.919,2.546 -1.601,4.5 -4.774,13.679 -15.742,29.098 -27.306,38.385 l -1.487,1.194 5.666,0.713 c 34.982,4.404 69.406,22.066 94.777,48.628 4.329,4.532 5.787,6.442 5.596,7.331 -0.036,0.165 0.07,0.255 0.235,0.2 0.165,-0.055 0.705,0.305 1.2,0.8 0.495,0.495 0.85,0.9 0.79,0.9 -0.061,0 -2.356,-1.135 -5.1,-2.523 -9.013,-4.557 -21.214,-7.96 -34.762,-9.694 l -2.173,-0.278 4.173,3.343 c 24.067,19.286 40.384,50.137 42.239,79.867 0.335,5.376 0.584,5.359 1.877,-0.129 15.949,-67.724 -18.131,-141.33 -79.836,-172.426 -4.095,-2.064 -3.831,-2.014 -4.288,-0.811 m -88.42,49.41 c -12.834,5.079 -16.88,8.378 -17.487,14.258 l -0.218,2.114 3.46,-0.974 c 10.784,-3.037 17.401,-8.175 20.277,-15.745 0.95,-2.5 1.197,-2.514 -6.032,0.347 m -72.837,46.378 c -2.208,1.401 -4.504,4.014 -5.853,6.663 l -1.018,2 2.061,-1.923 c 3.744,-3.492 8.298,-4.609 9.996,-2.451 0.443,0.564 0.709,1.329 0.591,1.7 -0.162,0.506 -0.121,0.542 0.163,0.146 0.658,-0.917 0.59,-5.271 -0.099,-6.321 -0.913,-1.395 -3.477,-1.313 -5.841,0.186 M 205,173.2 c 1.971,1.98 3.673,3.6 3.783,3.6 0.11,0 -1.412,-1.62 -3.383,-3.6 -1.971,-1.98 -3.673,-3.6 -3.783,-3.6 -0.11,0 1.412,1.62 3.383,3.6 m 6.385,7.5 c 0.617,0.935 1.198,1.7 1.291,1.7 0.288,0 -1.243,-2.434 -1.844,-2.931 -0.312,-0.258 -0.064,0.296 0.553,1.231 m 101.939,91.1 c 0.002,1.32 0.077,1.812 0.166,1.093 0.089,-0.719 0.087,-1.799 -0.004,-2.4 -0.091,-0.601 -0.164,-0.013 -0.162,1.307 M 89.4,319.2 c 1.083,1.1 2.06,2 2.17,2 0.11,0 -0.687,-0.9 -1.77,-2 -1.083,-1.1 -2.06,-2 -2.17,-2 -0.11,0 0.687,0.9 1.77,2 m 5.6,5.2 c 1.083,1.1 2.06,2 2.17,2 0.11,0 -0.687,-0.9 -1.77,-2 -1.083,-1.1 -2.06,-2 -2.17,-2 -0.11,0 0.687,0.9 1.77,2 m 3,2.525 c 0,0.069 0.585,0.654 1.3,1.3 l 1.3,1.175 -1.175,-1.3 C 98.33,326.888 98,326.616 98,326.925 m 8.8,7.221 c 0,0.11 0.54,0.584 1.2,1.054 0.66,0.47 1.2,0.764 1.2,0.654 0,-0.11 -0.54,-0.584 -1.2,-1.054 -0.66,-0.47 -1.2,-0.764 -1.2,-0.654 m 175.775,5.554 -1.175,1.3 1.3,-1.175 c 0.715,-0.646 1.3,-1.231 1.3,-1.3 0,-0.309 -0.33,-0.037 -1.425,1.175 m -7.694,5.672 c -1.858,1.313 -2.119,1.689 -0.55,0.79 0.732,-0.419 1.519,-0.987 1.749,-1.262 0.591,-0.707 0.313,-0.598 -1.199,0.472 M 127.6,347.398 c 0,0.267 5.649,3.087 5.827,2.908 0.08,-0.079 -1.199,-0.809 -2.841,-1.622 -1.642,-0.813 -2.986,-1.391 -2.986,-1.286 m 136,4.602 c -1.21,0.639 -2.059,1.171 -1.887,1.181 0.425,0.026 4.287,-1.945 4.287,-2.188 0,-0.267 0.055,-0.29 -2.4,1.007 m -65.284,13.497 c 1.383,0.078 3.543,0.077 4.8,-0.002 1.256,-0.079 0.124,-0.143 -2.516,-0.142 -2.64,0 -3.668,0.065 -2.284,0.144"
       stroke="none"
       fill="#458ccc"
       fill-rule="evenodd"
       style="stroke:#458ccc;stroke-opacity:1" />
    <path
       id="path2"
       d="m 193.505,54.683 c 0.497,0.096 1.217,0.092 1.6,-0.008 0.382,-0.1 -0.025,-0.179 -0.905,-0.174 -0.88,0.004 -1.193,0.086 -0.695,0.182 M 205.5,54.682 c 0.495,0.096 1.305,0.096 1.8,0 0.495,-0.095 0.09,-0.173 -0.9,-0.173 -0.99,0 -1.395,0.078 -0.9,0.173 m 47.7,9.396 c 0,0.263 -0.495,1.027 -1.1,1.699 l -1.1,1.22 1.137,-0.998 c 1.338,-1.176 2.091,-2.399 1.477,-2.399 -0.228,0 -0.414,0.215 -0.414,0.478 m -3.819,4.822 -1.581,1.7 1.7,-1.581 c 1.581,-1.471 1.884,-1.819 1.581,-1.819 -0.065,0 -0.83,0.765 -1.7,1.7 M 193.2,69.644 c -61.515,2.318 -115.344,46.842 -129.551,107.157 -1.266,5.377 -2.604,12.971 -2.384,13.535 0.444,1.136 27.989,-23.387 29.584,-26.339 3.347,-6.192 9.336,-13.079 16.151,-18.573 5.26,-4.24 5.608,-4.238 4.369,0.022 -0.347,1.194 -0.567,2.359 -0.49,2.591 0.077,0.232 20.956,-17.277 46.397,-38.908 25.441,-21.631 46.227,-39.349 46.19,-39.374 -0.414,-0.281 -4.558,-0.326 -10.266,-0.111 m 74.833,0.508 c 0.408,0.372 4.367,2.241 4.367,2.061 0,-0.225 -3.82,-2.213 -4.253,-2.213 -0.154,0 -0.205,0.068 -0.114,0.152 M 241.6,76.896 c -3.41,3.33 -4.94,4.954 -3.4,3.609 2.789,-2.437 10.156,-9.724 9.792,-9.684 -0.106,0.011 -2.982,2.745 -6.392,6.075 M 125.5,73.429 c -1.495,0.811 -1.404,1.149 0.1,0.371 0.66,-0.341 1.2,-0.706 1.2,-0.81 0,-0.258 -0.043,-0.243 -1.3,0.439 m 157.1,4.778 c 0.44,0.359 1.16,0.828 1.6,1.044 l 0.8,0.393 -0.8,-0.651 c -0.44,-0.359 -1.16,-0.828 -1.6,-1.044 l -0.8,-0.393 0.8,0.651 m 5,3.139 c 0,0.11 0.54,0.584 1.2,1.054 0.66,0.47 1.2,0.764 1.2,0.654 0,-0.11 -0.54,-0.584 -1.2,-1.054 -0.66,-0.47 -1.2,-0.764 -1.2,-0.654 m -176.6,1.289 -1.2,1.031 1.3,-0.86 c 0.715,-0.473 1.3,-0.938 1.3,-1.033 0,-0.3 -0.169,-0.195 -1.4,0.862 m 121.8,2.222 -2.2,2.032 2.099,-1.681 c 1.84,-1.474 2.814,-2.435 2.425,-2.395 -0.068,0.007 -1.114,0.927 -2.324,2.044 m -127.267,1.73 c -2.127,1.641 -3.988,3.178 -4.134,3.415 -0.23,0.372 6.924,-5.045 7.981,-6.043 1.155,-1.091 -0.441,-0.001 -3.847,2.628 M 202.4,88.2 c -1.639,1.65 -2.89,3 -2.78,3 0.11,0 1.541,-1.35 3.18,-3 1.639,-1.65 2.89,-3 2.78,-3 -0.11,0 -1.541,1.35 -3.18,3 m 26.2,0.044 -1.6,1.432 1.7,-1.272 c 1.463,-1.094 1.991,-1.621 1.6,-1.598 -0.055,0.003 -0.82,0.65 -1.7,1.438 m -131,4.989 -3,2.832 3.1,-2.7 c 2.781,-2.422 3.332,-2.966 3,-2.964 -0.055,0 -1.45,1.274 -3.1,2.832 m 126.2,-1.398 -1.2,1.031 1.3,-0.86 c 0.715,-0.473 1.3,-0.938 1.3,-1.033 0,-0.3 -0.169,-0.195 -1.4,0.862 m 78.573,1.06 c 0.755,0.821 1.46,1.406 1.566,1.299 0.107,-0.107 0.118,-0.239 0.026,-0.294 -0.093,-0.055 -0.798,-0.64 -1.567,-1.299 L 301,91.402 l 1.373,1.493 M 310,100.2 c 3.184,3.19 5.88,5.8 5.99,5.8 0.11,0 -2.406,-2.61 -5.59,-5.8 -3.184,-3.19 -5.88,-5.8 -5.99,-5.8 -0.11,0 2.406,2.61 5.59,5.8 m -219.808,-0.1 -3.992,4.1 4.1,-3.992 C 94.108,96.499 94.582,96 94.292,96 c -0.059,0 -1.904,1.845 -4.1,4.1 m 101.305,-3.334 c -1.644,1.053 -1.872,1.425 -0.422,0.688 0.701,-0.357 1.386,-0.83 1.523,-1.051 0.321,-0.519 0.225,-0.488 -1.101,0.363 m -9.197,5.261 c -0.825,0.436 -1.5,0.881 -1.5,0.991 0,0.109 0.72,-0.169 1.6,-0.618 0.88,-0.449 1.6,-0.903 1.6,-1.008 0,-0.262 -0.003,-0.261 -1.7,0.635 m -4.7,2.373 c -1.21,0.639 -2.02,1.162 -1.8,1.162 0.22,0 1.39,-0.523 2.6,-1.162 1.21,-0.639 2.02,-1.162 1.8,-1.162 -0.22,0 -1.39,0.523 -2.6,1.162 m -93.2,1.8 c -0.972,0.99 -1.677,1.8 -1.567,1.8 0.11,0 0.995,-0.81 1.967,-1.8 0.972,-0.99 1.677,-1.8 1.567,-1.8 -0.11,0 -0.995,0.81 -1.967,1.8 m 232.8,1.6 c 0.746,0.77 1.447,1.4 1.557,1.4 0.11,0 -0.411,-0.63 -1.157,-1.4 -0.746,-0.77 -1.447,-1.4 -1.557,-1.4 -0.11,0 0.411,0.63 1.157,1.4 m -235.632,1.7 c -2.359,2.643 -2.894,3.3 -2.686,3.3 0.121,0 1.067,-0.99 2.1,-2.2 1.914,-2.24 2.373,-3.102 0.586,-1.1 m -4.368,5.3 c -0.697,0.88 -1.177,1.6 -1.067,1.6 0.11,0 0.77,-0.72 1.467,-1.6 0.697,-0.88 1.177,-1.6 1.067,-1.6 -0.11,0 -0.77,0.72 -1.467,1.6 m 161.3,1.076 c 0.385,0.1 1.015,0.1 1.4,0 0.385,-0.101 0.07,-0.183 -0.7,-0.183 -0.77,0 -1.085,0.082 -0.7,0.183 m 86.075,1.056 c 0.616,0.807 1.201,1.468 1.3,1.468 0.278,0 -1.454,-2.34 -1.966,-2.656 -0.25,-0.155 0.05,0.38 0.666,1.188 M 74.8,118 c -0.47,0.66 -0.764,1.2 -0.654,1.2 0.11,0 0.584,-0.54 1.054,-1.2 0.47,-0.66 0.764,-1.2 0.654,-1.2 -0.11,0 -0.584,0.54 -1.054,1.2 m 191,3.2 c 0.44,0.189 1.07,0.344 1.4,0.344 0.378,0 0.304,-0.127 -0.2,-0.344 -0.44,-0.189 -1.07,-0.344 -1.4,-0.344 -0.378,0 -0.304,0.127 0.2,0.344 m 64.055,3.2 c 1.025,1.54 1.937,2.8 2.027,2.8 0.213,0 -0.084,-0.499 -1.967,-3.3 -0.849,-1.265 -1.63,-2.3 -1.733,-2.3 -0.104,0 0.649,1.26 1.673,2.8 M 170.7,124.026 c -1.265,0.653 -2.3,1.268 -2.3,1.368 0,0.272 1.065,-0.189 3.348,-1.448 2.717,-1.498 1.886,-1.435 -1.048,0.08 m -5.9,4.174 c -0.972,0.99 -1.677,1.8 -1.567,1.8 0.11,0 0.995,-0.81 1.967,-1.8 0.972,-0.99 1.677,-1.8 1.567,-1.8 -0.11,0 -0.995,0.81 -1.967,1.8 m 128,3.59 c 0,0.11 1.26,0.834 2.8,1.61 1.54,0.776 2.8,1.32 2.8,1.21 0,-0.11 -1.26,-0.834 -2.8,-1.61 -1.54,-0.776 -2.8,-1.32 -2.8,-1.21 m -229,3.41 c -0.341,0.66 -0.531,1.2 -0.421,1.2 0.11,0 0.48,-0.54 0.821,-1.2 0.341,-0.66 0.531,-1.2 0.421,-1.2 -0.11,0 -0.48,0.54 -0.821,1.2 m 272.8,0.4 c 0.341,0.66 0.711,1.2 0.821,1.2 0.11,0 -0.08,-0.54 -0.421,-1.2 -0.341,-0.66 -0.711,-1.2 -0.821,-1.2 -0.11,0 0.08,0.54 0.421,1.2 M 146,135.891 c 0,1.424 5.442,6.52 6.945,6.504 0.25,-0.002 -0.355,-0.467 -1.345,-1.031 -2.39,-1.363 -3.106,-2.028 -4.461,-4.142 -0.626,-0.978 -1.139,-1.577 -1.139,-1.331 m -5.422,8.144 c -1.528,1.547 -4.083,3.817 -5.678,5.044 -1.595,1.228 -2.9,2.318 -2.9,2.424 0,0.195 2.023,-1.26 4.2,-3.021 1.794,-1.45 7.442,-6.973 7.289,-7.126 -0.073,-0.073 -1.383,1.132 -2.911,2.679 M 312.4,143.346 c 0,0.11 0.54,0.584 1.2,1.054 0.66,0.47 1.2,0.764 1.2,0.654 0,-0.11 -0.54,-0.584 -1.2,-1.054 -0.66,-0.47 -1.2,-0.764 -1.2,-0.654 m 28.828,1.254 c 0,0.22 0.258,0.85 0.572,1.4 0.314,0.55 0.572,0.82 0.572,0.6 0,-0.22 -0.258,-0.85 -0.572,-1.4 -0.314,-0.55 -0.572,-0.82 -0.572,-0.6 m -24.841,1.662 c 5.237,4.298 9.726,7.795 9.255,7.21 -0.614,-0.764 -6.517,-5.489 -9.042,-7.239 l -1.6,-1.109 1.387,1.138 M 327.8,155.6 c 0.859,0.88 1.652,1.6 1.762,1.6 0.11,0 -0.503,-0.72 -1.362,-1.6 -0.859,-0.88 -1.652,-1.6 -1.762,-1.6 -0.11,0 0.503,0.72 1.362,1.6 m 6.8,6.4 c 2.633,2.64 4.877,4.8 4.987,4.8 0.11,0 -1.954,-2.16 -4.587,-4.8 -2.633,-2.64 -4.877,-4.8 -4.987,-4.8 -0.11,0 1.954,2.16 4.587,4.8 m -31.2,-0.12 c 0.22,0.208 1.21,0.966 2.2,1.685 l 1.8,1.307 -1.4,-1.264 c -1.226,-1.107 -3.644,-2.714 -2.6,-1.728 m 8,6.52 c 0.859,0.88 1.652,1.6 1.762,1.6 0.11,0 -0.503,-0.72 -1.362,-1.6 -0.859,-0.88 -1.652,-1.6 -1.762,-1.6 -0.11,0 0.503,0.72 1.362,1.6 m 29.622,0.425 c 0.868,1.004 1.659,1.763 1.758,1.687 0.1,-0.077 -0.61,-0.898 -1.577,-1.826 l -1.759,-1.686 1.578,1.825 m -23.513,5.375 c 6.079,6.705 7.773,8.455 5.242,5.419 -1.183,-1.42 -3.744,-4.21 -5.691,-6.2 l -3.541,-3.619 3.99,4.4 M 104.7,171.429 c -1.551,0.841 -1.375,1.132 0.2,0.33 1.508,-0.766 1.775,-0.965 1.267,-0.943 -0.202,0.009 -0.862,0.285 -1.467,0.613 m -3.715,3.071 -1.985,2.1 2.1,-1.985 c 1.155,-1.092 2.1,-2.037 2.1,-2.1 0,-0.298 -0.371,0.034 -2.215,1.985 M 328.4,187.2 c 0.47,0.66 0.944,1.2 1.054,1.2 0.11,0 -0.184,-0.54 -0.654,-1.2 -0.47,-0.66 -0.944,-1.2 -1.054,-1.2 -0.11,0 0.184,0.54 0.654,1.2 m 6.2,9.6 c 0.341,0.66 0.711,1.2 0.821,1.2 0.11,0 -0.08,-0.54 -0.421,-1.2 -0.341,-0.66 -0.711,-1.2 -0.821,-1.2 -0.11,0 0.08,0.54 0.421,1.2 m 2,3.6 c 0.557,1.1 1.103,2 1.213,2 0.11,0 -0.256,-0.9 -0.813,-2 -0.557,-1.1 -1.103,-2 -1.213,-2 -0.11,0 0.256,0.9 0.813,2 m 18.693,-0.8 c 0,0.77 0.082,1.085 0.183,0.7 0.1,-0.385 0.1,-1.015 0,-1.4 -0.101,-0.385 -0.183,-0.07 -0.183,0.7 M 93.6,201.474 c -3.913,3.261 -5.012,4.233 -4.4,3.893 0.989,-0.55 7.28,-5.769 6.927,-5.746 -0.18,0.011 -1.317,0.845 -2.527,1.853 M 44.901,202.6 c 0.004,0.88 0.086,1.193 0.182,0.695 0.096,-0.497 0.092,-1.217 -0.008,-1.6 -0.1,-0.382 -0.179,0.025 -0.174,0.905 m 310.823,7.2 c 0.002,1.32 0.077,1.812 0.166,1.093 0.089,-0.719 0.087,-1.799 -0.004,-2.4 -0.091,-0.601 -0.164,-0.013 -0.162,1.307 m -5.69,40.42 c 0.034,1.561 0.039,1.566 0.39,0.39 0.22,-0.737 0.207,-1.339 -0.034,-1.58 -0.253,-0.253 -0.378,0.165 -0.356,1.19"
       stroke="none"
       fill="#76a2d5"
       fill-rule="evenodd"
       style="fill:#458ccc;fill-opacity:1;stroke:#458ccc;stroke-opacity:1" />
    <path
       id="path3"
       d="M 186.6,17.852 C 98.563,24.756 27.055,89.446 12.225,175.6 c -4.044,23.496 -3.434,51.064 1.638,74 22.067,99.784 118.054,164.048 219.485,146.948 78.931,-13.308 142.058,-76.815 155.412,-156.348 2.456,-14.627 3.173,-39.561 1.525,-53 C 379.254,97.28 312.006,29.895 222,18.571 c -4.789,-0.603 -30.281,-1.12 -35.4,-0.719 m 86.232,23.42 c -0.65,10.082 -2.844,23.377 -4.612,27.938 -0.174,0.448 0.482,0.964 2.472,1.946 63.387,31.257 97.743,105.753 80.839,175.289 l -1.302,5.355 -0.302,-4.4 c -3.682,-53.755 -44.482,-98.752 -96.327,-106.236 -7.879,-1.137 -2.827,-1.363 7.2,-0.322 14.021,1.456 30.767,6.305 42.94,12.432 3.02,1.52 3.017,1.622 0.088,-3.276 -1.38,-2.309 -2.372,-4.253 -2.203,-4.32 1.684,-0.67 23.907,12.831 35.275,21.431 7.005,5.299 7.231,5.195 1.752,-0.805 -19.918,-21.814 -49.438,-39.366 -78.452,-46.646 -10.378,-2.604 -22.639,-4.421 -23.859,-3.536 -10.062,7.298 -17.875,11.749 -28.781,16.396 -6.03,2.569 -6.048,2.567 -3.266,-0.34 4.222,-4.414 7.26,-9.482 9.516,-15.878 0.602,-1.705 1.295,-3.103 1.542,-3.106 1.079,-0.016 12.827,-6.13 16.648,-8.664 9.483,-6.291 18.174,-14.823 26.904,-26.411 0.231,-0.307 -0.593,-0.198 -2.271,0.3 -9.804,2.909 -9.078,2.823 -7.463,0.881 10.687,-12.844 18.026,-26.404 22.642,-41.833 1.42,-4.748 1.541,-4.295 1.02,3.805 M 218.4,55.375 c 11.031,1.413 20.779,3.569 30.531,6.75 l 5.209,1.699 -3.639,4.216 c -7.621,8.827 -18.945,18.852 -29.24,25.885 l -4.767,3.257 -0.4,-2.691 c -0.856,-5.764 -4.446,-15.482 -5.894,-15.957 -0.22,-0.072 -1.015,1.058 -1.766,2.511 -4.905,9.485 -20.613,20.077 -42.634,28.749 -8.652,3.407 -10.995,4.661 -14.059,7.523 -10.089,9.427 -8.277,22.201 3.618,25.507 l 2.441,0.678 -1.934,0.299 c -3.801,0.589 -7.644,0.057 -9.953,-1.379 -1.253,-0.779 -2.147,-1.119 -2.236,-0.852 -0.616,1.847 -11.636,10.391 -16.678,12.93 -12.447,6.268 -19.947,0.64 -15.19,-11.4 1.46,-3.695 -13.378,9.844 -17.695,16.145 -8.377,12.228 -10.309,23.928 -6.862,41.555 0.452,2.31 0.94,4.323 1.085,4.473 0.225,0.234 3.066,-1.922 7.863,-5.965 4.971,-4.19 17.445,-11.162 26.2,-14.643 24.189,-9.619 53.968,-10.696 84.752,-3.064 5.713,1.416 5.714,1.416 4.129,-0.873 -4.928,-7.117 -12.817,-13.835 -22.281,-18.973 l -3.6,-1.955 3.8,-0.363 c 11.4,-1.088 31.636,1.511 45.002,5.78 84.944,27.13 108.065,139.001 37.74,182.603 -16.228,10.061 -35.27,15.649 -59.342,17.414 C 116.74,372.261 37.309,292.824 45.182,197.8 51.601,120.313 111.654,60.869 189.8,54.65 c 4.698,-0.374 23.807,0.11 28.6,0.725 m -20.1,58.956 c -5.035,14.708 -15.302,22.026 -31.926,22.757 l -5.027,0.221 0.265,-2.555 c 0.636,-6.144 4.604,-9.337 17.903,-14.405 7.721,-2.942 15.221,-6.584 17.885,-8.683 2.541,-2.003 2.52,-2.066 0.9,2.665 m -85.929,48.654 c 1.829,0.946 2.231,4.257 0.976,8.044 -0.761,2.297 -1.347,3.115 -1.347,1.88 0,-3.996 -6.815,-2.592 -11.387,2.347 l -2.124,2.293 0.588,-2.274 c 2.165,-8.388 8.864,-14.581 13.294,-12.29"
       stroke="none"
       fill="#fbfbfb"
       fill-rule="evenodd"
       style="stroke:#fbfbfb;stroke-opacity:1" />
    <path
       id="path4"
       d="m 272.79,36.719 0.193,1.881 0.136,-1.553 c 0.074,-0.854 -0.012,-1.7 -0.193,-1.881 -0.181,-0.181 -0.242,0.518 -0.136,1.553 M 248.378,90.7 247,92.2 l 1.5,-1.378 c 1.396,-1.284 1.684,-1.622 1.378,-1.622 -0.066,0 -0.741,0.675 -1.5,1.5 m -4,4 -1.378,1.5 1.5,-1.378 c 1.396,-1.284 1.684,-1.622 1.378,-1.622 -0.066,0 -0.741,0.675 -1.5,1.5 m -87.773,18.611 c -2.728,1.468 -7.653,5.958 -8.722,7.952 -0.619,1.153 -0.623,1.2 -0.027,0.337 1.684,-2.438 6.494,-6.698 9.144,-8.098 1.54,-0.813 2.62,-1.479 2.4,-1.48 -0.22,0 -1.478,0.58 -2.795,1.289 m 93.029,27.084 c 0.374,0.219 1.113,0.228 1.8,0.022 1.076,-0.321 1.028,-0.35 -0.634,-0.37 -1.288,-0.016 -1.619,0.083 -1.166,0.348 m -108.253,3.305 -1.581,1.7 1.7,-1.581 c 1.581,-1.471 1.884,-1.819 1.581,-1.819 -0.065,0 -0.83,0.765 -1.7,1.7 m -32.381,0.144 -1.6,1.432 1.8,-1.315 c 0.99,-0.724 1.875,-1.371 1.967,-1.438 0.091,-0.068 0.001,-0.12 -0.2,-0.117 -0.202,0.003 -1.087,0.65 -1.967,1.438 m -8.02,7.056 c -3.107,3.19 -6.744,7.238 -4.94,5.5 1.697,-1.635 8.862,-9.2 8.714,-9.2 -0.093,0 -1.792,1.665 -3.774,3.7 m 9.534,-1.1 c 0.003,1.1 0.081,1.503 0.173,0.895 0.092,-0.609 0.09,-1.509 -0.005,-2 -0.095,-0.492 -0.171,0.005 -0.168,1.105 m 1.684,5.337 c 0.436,0.515 1.155,1.122 1.598,1.349 0.849,0.435 0.725,0.301 -1.193,-1.292 -1.155,-0.959 -1.169,-0.961 -0.405,-0.057 M 93.293,159.9 c -1.036,1.496 -1.372,2.1 -1.17,2.1 0.094,0 0.647,-0.72 1.23,-1.6 1.183,-1.788 1.131,-2.221 -0.06,-0.5 m 98.807,-0.403 c 1.485,0.077 3.915,0.077 5.4,0 1.485,-0.077 0.27,-0.14 -2.7,-0.14 -2.97,0 -4.185,0.063 -2.7,0.14 M 90.8,164 c -0.449,0.88 -0.726,1.6 -0.616,1.6 0.11,0 0.567,-0.72 1.016,-1.6 0.449,-0.88 0.726,-1.6 0.616,-1.6 -0.11,0 -0.567,0.72 -1.016,1.6 m 13.375,1.7 -1.175,1.3 1.3,-1.175 c 1.212,-1.095 1.484,-1.425 1.175,-1.425 -0.069,0 -0.654,0.585 -1.3,1.3 m 60.742,10.997 c 1.494,0.077 3.834,0.077 5.2,-0.001 1.365,-0.078 0.143,-0.141 -2.717,-0.141 -2.86,0.001 -3.978,0.065 -2.483,0.142 M 355.693,206.4 c 0,0.77 0.082,1.085 0.183,0.7 0.1,-0.385 0.1,-1.015 0,-1.4 -0.101,-0.385 -0.183,-0.07 -0.183,0.7 M 44.52,213.6 c 0,1.21 0.075,1.705 0.167,1.1 0.091,-0.605 0.091,-1.595 0,-2.2 -0.092,-0.605 -0.167,-0.11 -0.167,1.1 m 311.181,-0.2 c 0.004,0.88 0.086,1.193 0.182,0.695 0.096,-0.497 0.092,-1.217 -0.008,-1.6 -0.1,-0.382 -0.179,0.025 -0.174,0.905 m -42.408,53.8 c 0,0.77 0.082,1.085 0.183,0.7 0.1,-0.385 0.1,-1.015 0,-1.4 -0.101,-0.385 -0.183,-0.07 -0.183,0.7 m 0,9.2 c 0,0.77 0.082,1.085 0.183,0.7 0.1,-0.385 0.1,-1.015 0,-1.4 -0.101,-0.385 -0.183,-0.07 -0.183,0.7 m -23.715,57.1 -1.378,1.5 1.5,-1.378 c 1.396,-1.284 1.684,-1.622 1.378,-1.622 -0.066,0 -0.741,0.675 -1.5,1.5 m -97.273,31.983 c 0.497,0.096 1.217,0.092 1.6,-0.008 0.382,-0.1 -0.025,-0.179 -0.905,-0.174 -0.88,0.004 -1.193,0.086 -0.695,0.182 m 15.195,-10e-4 c 0.495,0.096 1.305,0.096 1.8,0 0.495,-0.095 0.09,-0.173 -0.9,-0.173 -0.99,0 -1.395,0.078 -0.9,0.173"
       stroke="none"
       fill="#bcb4be"
       fill-rule="evenodd" />
  </g>
</svg>
