<svg id="Ravencoin" xmlns="http://www.w3.org/2000/svg" width="256" height="256" viewBox="0 0 512 512">
<defs>
    <style>
      .cls-1 {
        fill: #f05239;
      }

      .cls-1, .cls-2 {
        fill-rule: evenodd;
      }

      .cls-2 {
        fill: #fff;
      }
    </style>
  </defs>
  <path id="Main-F" class="cls-1" d="M11,256c0,135.094,109.906,245,245,245S501,391.094,501,256,391.094,11,256,11,11,120.906,11,256Z"/>
  <g id="RVN">
    <path class="cls-2" d="M162,407l51-235,30,176Zm53-235s0.039,0.231.115,0.676C217.133,184.516,245,348,245,348l49,1Zm107,14,15,17L299,345ZM218,166l62-42,29,13Zm16-41,39-1-45,17Z"/>
    <path class="cls-2" d="M296,348L216,169l105,14ZM216,165l12-21,50-20Zm18-42,14-13,27,12Zm15-15,19-9,26,29Zm21-10h21l12,13Zm33,17,6,20-12-6Z"/>
    <path class="cls-2" d="M220,167l89-28,11,43Zm52-66,24,26,5-14Zm32,11,7,24,39-11Z"/>
  </g>
</svg>
