<?xml version="1.0" encoding="UTF-8" standalone="no"?>
<svg
   xmlns:dc="http://purl.org/dc/elements/1.1/"
   xmlns:cc="http://creativecommons.org/ns#"
   xmlns:rdf="http://www.w3.org/1999/02/22-rdf-syntax-ns#"
   xmlns:svg="http://www.w3.org/2000/svg"
   xmlns="http://www.w3.org/2000/svg"
   xmlns:sodipodi="http://sodipodi.sourceforge.net/DTD/sodipodi-0.dtd"
   xmlns:inkscape="http://www.inkscape.org/namespaces/inkscape"
   width="242.5"
   height="242.5"
   viewBox="0 0 242.5 242.5"
   version="1.1"
   id="svg14"
   sodipodi:docname="RAY_SOL.svg"
   inkscape:version="1.0.2-2 (e86c870879, 2021-01-15)">
  <metadata
     id="metadata20">
    <rdf:RDF>
      <cc:Work
         rdf:about="">
        <dc:format>image/svg+xml</dc:format>
        <dc:type
           rdf:resource="http://purl.org/dc/dcmitype/StillImage" />
      </cc:Work>
    </rdf:RDF>
  </metadata>
  <defs
     id="defs18" />
  <sodipodi:namedview
     pagecolor="#ffffff"
     bordercolor="#666666"
     borderopacity="1"
     objecttolerance="10"
     gridtolerance="10"
     guidetolerance="10"
     inkscape:pageopacity="0"
     inkscape:pageshadow="2"
     inkscape:window-width="1920"
     inkscape:window-height="1017"
     id="namedview16"
     showgrid="false"
     inkscape:zoom="3.4722222"
     inkscape:cx="121.151"
     inkscape:cy="121.152"
     inkscape:window-x="-8"
     inkscape:window-y="-8"
     inkscape:window-maximized="1"
     inkscape:current-layer="radium-solana" />
  <g
     id="radium-solana"
     transform="translate(-3670.468,-5348.924)">
    <path
       id="Main_copy_10"
       d="M 0,121.252 C 0,188.064 54.44,242.5 121.252,242.5 188.064,242.5 242.5,188.064 242.5,121.252 242.5,54.44 188.064,0 121.252,0 54.44,0 0,54.44 0,121.252 Z"
       transform="translate(3670.468,5348.924)"
       fill="#634efe" />
    <g
       id="Group_9259"
       data-name="Group 9259"
       transform="translate(3721.155,5388.718)">
      <path
         id="Path_472522"
         data-name="Path 472522"
         d="m 133.573,61.067 v 56.738 L 70.465,154.234 7.321,117.805 V 44.912 L 70.465,8.447 118.965,36.464 126.286,32.24 70.465,0 0,40.688 v 81.341 l 70.465,40.688 70.465,-40.688 V 56.843 Z"
         fill="#fff" />
      <path
         id="Path_472523"
         data-name="Path 472523"
         d="M 19.053,80.7 H 8.494 V 45.287 h 35.2 a 12.671,12.671 0 0 0 12.53,-12.636 12.07,12.07 0 0 0 -3.7,-8.834 12.215,12.215 0 0 0 -8.834,-3.7 H 8.494 V 9.351 h 35.232 a 23.44,23.44 0 0 1 23.3,23.3 22.63,22.63 0 0 1 -4.118,13.2 22.945,22.945 0 0 1 -10.137,8.307 40.643,40.643 0 0 1 -12.6,1.9 H 19.053 Z"
         transform="translate(33.743,37.145)"
         fill="#fff" />
      <path
         id="Path_472524"
         data-name="Path 472524"
         d="M 37.65,38.565 H 25.33 l -9.5,-16.578 a 40.141,40.141 0 0 0 11.017,-2.253 z"
         transform="translate(62.874,78.395)"
         fill="#fff" />
      <path
         id="Path_472525"
         data-name="Path 472525"
         d="m 25.383,20.117 7.286,4.048 7.286,-4.048 V 11.564 L 32.669,7.34 25.383,11.564 Z"
         transform="translate(100.834,29.159)"
         fill="#fff" />
    </g>
  </g>
</svg>
