<svg xmlns="http://www.w3.org/2000/svg" width="244.8" height="244.8" viewBox="0 0 244.8 244.8">
  <g id="radium-solana" transform="translate(-3669.219 -5347.676)">
    <path id="Main_copy_10" d="M0,121.252C0,188.064,54.44,242.5,121.252,242.5S242.5,188.064,242.5,121.252,188.064,0,121.252,0,0,54.44,0,121.252Z" transform="translate(3670.468 5348.924)" fill="#634efe"/>
    <g id="Main_copy_14" transform="translate(3669.219 5347.676)" fill="none">
      <path d="M0,122.4c0,67.444,54.954,122.4,122.4,122.4s122.4-54.954,122.4-122.4S189.841,0,122.4,0,0,54.954,0,122.4Z" stroke="none"/>
      <path d="M 122.4000015258789 11 C 60.97383117675781 11 11 60.97383117675781 11 122.4000015258789 C 11 183.826171875 60.97383117675781 233.8000030517578 122.4000015258789 233.8000030517578 C 183.826171875 233.8000030517578 233.8000030517578 183.826171875 233.8000030517578 122.4000015258789 C 233.8000030517578 60.97383117675781 183.826171875 11 122.4000015258789 11 M 122.4000015258789 0 C 189.8410034179688 0 244.8000030517578 54.95399475097656 244.8000030517578 122.4000015258789 C 244.8000030517578 189.8460083007813 189.8460083007813 244.8000030517578 122.4000015258789 244.8000030517578 C 54.95399475097656 244.8000030517578 0 189.843994140625 0 122.4000015258789 C 0 54.95399475097656 54.95899963378906 0 122.4000015258789 0 Z" stroke="none" fill="#1ae5ae"/>
    </g>
    <g id="Group_9259" data-name="Group 9259" transform="translate(3721.155 5388.718)">
      <path id="Path_472522" data-name="Path 472522" d="M133.573,61.067v56.738L70.465,154.234,7.321,117.805V44.912L70.465,8.447l48.5,28.017,7.321-4.224L70.465,0,0,40.688v81.341l70.465,40.688,70.465-40.688V56.843Z" transform="translate(0 0)" fill="#fff"/>
      <path id="Path_472523" data-name="Path 472523" d="M19.053,80.7H8.494V45.287h35.2a12.671,12.671,0,0,0,12.53-12.636,12.07,12.07,0,0,0-3.7-8.834,12.215,12.215,0,0,0-8.834-3.7H8.494V9.351H43.726a23.44,23.44,0,0,1,23.3,23.3,22.63,22.63,0,0,1-4.118,13.2,22.945,22.945,0,0,1-10.137,8.307,40.643,40.643,0,0,1-12.6,1.9H19.053Z" transform="translate(33.743 37.145)" fill="#fff"/>
      <path id="Path_472524" data-name="Path 472524" d="M37.65,38.565H25.33l-9.5-16.578a40.141,40.141,0,0,0,11.017-2.253Z" transform="translate(62.874 78.395)" fill="#fff"/>
      <path id="Path_472525" data-name="Path 472525" d="M25.383,20.117l7.286,4.048,7.286-4.048V11.564L32.669,7.34l-7.286,4.224Z" transform="translate(100.834 29.159)" fill="#fff"/>
    </g>
  </g>
</svg>
