<?xml version="1.0" encoding="utf-8"?>
<!-- Generator: Adobe Illustrator 22.0.0, SVG Export Plug-In . SVG Version: 6.00 Build 0)  -->
<svg version="1.1" id="Ripio" xmlns="http://www.w3.org/2000/svg" xmlns:xlink="http://www.w3.org/1999/xlink" x="0px" y="0px"
	 viewBox="0 0 245 245" style="enable-background:new 0 0 245 245;" xml:space="preserve">
<style type="text/css">
	.st0{fill:#4155FF;}
	.st1{fill:none;stroke:#FFFFFF;stroke-width:10;stroke-linecap:round;stroke-linejoin:round;}
	.st2{fill:#FFFFFF;}
</style>
<path id="Full" class="st0" d="M0,122.5C0,190,55,245,122.5,245S245,190,245,122.5S190,0,122.5,0S0,55,0,122.5z"/>
<circle id="Ring" class="st1" cx="122.5" cy="122.5" r="73.5"/>
<path id="Left" class="st2" d="M122.5,71.5l7-7l32.5,32L133,125l-6.5-6.5c0,0,11.2-10.7,16.5-16c-30.8-2.9-87.5,20-100.5,56
	c-3,4.4-9.6,3.4-9.6-2.5c9.8-30.9,57.2-65,110.1-64C139.3,88.4,122.5,71.5,122.5,71.5z"/>
<path id="Right" class="st2" d="M122.5,173.5l-7,7L83,148.6l29-28.4l6.5,6.5c0,0-11.2,10.7-16.5,16c30.8,2.9,87.5-20,100.4-55.9
	c3-4.3,9.6-3.4,9.6,2.5c-9.8,30.8-57.2,64.8-110,63.9C105.6,156.6,122.5,173.5,122.5,173.5z"/>
</svg>
