<?xml version="1.0" encoding="UTF-8" standalone="no"?>
<svg
   xmlns:dc="http://purl.org/dc/elements/1.1/"
   xmlns:cc="http://creativecommons.org/ns#"
   xmlns:rdf="http://www.w3.org/1999/02/22-rdf-syntax-ns#"
   xmlns:svg="http://www.w3.org/2000/svg"
   xmlns="http://www.w3.org/2000/svg"
   xmlns:sodipodi="http://sodipodi.sourceforge.net/DTD/sodipodi-0.dtd"
   xmlns:inkscape="http://www.inkscape.org/namespaces/inkscape"
   width="235.99992"
   height="235.99992"
   fill="none"
   version="1.1"
   id="svg21"
   sodipodi:docname="REEF_ERC20.svg"
   inkscape:version="1.0.2-2 (e86c870879, 2021-01-15)">
  <metadata
     id="metadata25">
    <rdf:RDF>
      <cc:Work
         rdf:about="">
        <dc:format>image/svg+xml</dc:format>
        <dc:type
           rdf:resource="http://purl.org/dc/dcmitype/StillImage" />
      </cc:Work>
    </rdf:RDF>
  </metadata>
  <sodipodi:namedview
     pagecolor="#ffffff"
     bordercolor="#666666"
     borderopacity="1"
     objecttolerance="10"
     gridtolerance="10"
     guidetolerance="10"
     inkscape:pageopacity="0"
     inkscape:pageshadow="2"
     inkscape:window-width="1920"
     inkscape:window-height="1017"
     id="namedview23"
     showgrid="false"
     inkscape:zoom="3.3203125"
     inkscape:cx="118"
     inkscape:cy="118"
     inkscape:window-x="-8"
     inkscape:window-y="-8"
     inkscape:window-maximized="1"
     inkscape:current-layer="svg21" />
  <g
     transform="scale(0.907692)"
     id="g12">
    <path
       d="m 130.523,256.829 c 70.045,0 126.828,-56.783 126.828,-126.828 C 257.351,59.956 200.568,3.173 130.523,3.173 60.478,3.173 3.695,59.956 3.695,130.001 c 0,70.045 56.783,126.828 126.828,126.828 z"
       fill="#ffffff"
       id="path4" />
    <path
       d="M 162.348,203.113 V 144.561 H 98.7 v 58.552 H 69.632 V 56.889 H 98.7 v 58.552 h 63.648 V 56.889 h 29.068 v 146.224 z"
       fill="#4d2176"
       id="path6" />
    <circle
       r="130"
       transform="matrix(1,0,0,-1,130,130)"
       fill="url(#A)"
       cx="0"
       cy="0"
       id="circle8"
       style="fill:url(#A)" />
    <path
       d="m 121.001,130.114 a 7.71,7.71 0 0 1 -1.264,-0.105 l 5.267,-11.272 c 1.686,-3.723 3.161,-7.129 4.425,-10.219 1.264,-3.09 2.283,-5.829 3.055,-8.217 0.772,-2.388 1.159,-4.249 1.159,-5.583 0,-1.334 -0.211,-2.423 -0.632,-3.266 -0.422,-0.913 -0.913,-1.58 -1.475,-2.002 -0.562,-0.492 -1.194,-0.808 -1.896,-0.948 -0.703,-0.211 -1.299,-0.316 -1.791,-0.316 -1.826,0 -3.898,1.054 -6.216,3.16 -2.247,2.037 -4.67,4.775 -7.268,8.217 -2.529,3.441 -5.162,7.409 -7.901,11.904 a 477.93,477.93 0 0 0 -8.006,13.8 l -31.077,56.886 c -0.772,1.475 -1.37,3.055 -1.791,4.741 -0.421,1.686 -0.632,3.336 -0.632,4.951 0,1.124 0.14,2.318 0.421,3.582 0.351,1.264 0.913,2.423 1.686,3.476 0.773,1.053 1.861,1.931 3.266,2.634 1.405,0.703 3.231,1.053 5.478,1.053 2.739,0 5.267,-0.983 7.585,-2.95 2.318,-1.967 4.495,-4.529 6.531,-7.69 2.037,-3.23 3.898,-6.847 5.583,-10.85 a 375.23,375.23 0 0 0 4.846,-12.325 l 4.319,-12.01 c 1.334,-3.933 2.634,-7.339 3.898,-10.218 2.247,7.304 4.811,14.256 7.69,20.858 2.879,6.531 6.075,12.255 9.586,17.171 3.511,4.916 7.41,8.814 11.694,11.693 4.284,2.879 8.954,4.32 14.01,4.32 6.181,0 12.712,-1.545 19.595,-4.636 6.952,-3.16 14.046,-8.146 21.279,-14.959 2.458,-2.317 4.179,-4.529 5.162,-6.636 1.054,-2.177 1.58,-4.074 1.58,-5.689 0,-1.685 -0.491,-3.02 -1.474,-4.003 -0.983,-0.983 -2.178,-1.475 -3.582,-1.475 -2.248,0 -4.46,1.229 -6.637,3.687 -2.318,3.09 -5.057,5.794 -8.217,8.112 -2.669,2.036 -6.004,3.898 -10.008,5.583 -4.004,1.685 -8.568,2.528 -13.694,2.528 h -1.475 c -0.492,0 -1.019,-0.035 -1.58,-0.105 -2.81,-0.211 -5.478,-1.615 -8.007,-4.214 -2.529,-2.599 -4.845,-5.724 -6.952,-9.376 a 83.57,83.57 0 0 1 -5.268,-11.693 c -1.404,-4.143 -2.423,-7.865 -3.055,-11.166 4.495,-0.773 9.13,-2.037 13.906,-3.793 4.846,-1.755 9.551,-3.897 14.116,-6.426 a 89.28,89.28 0 0 0 12.852,-8.638 c 4.073,-3.301 7.62,-6.882 10.64,-10.745 3.02,-3.933 5.408,-8.112 7.163,-12.536 1.826,-4.495 2.739,-9.2 2.739,-14.117 0,-7.304 -1.51,-13.695 -4.529,-19.173 -2.95,-5.478 -6.953,-10.008 -12.01,-13.59 -5.056,-3.652 -10.885,-6.391 -17.487,-8.217 -6.531,-1.826 -13.379,-2.739 -20.542,-2.739 -7.304,0 -14.222,0.773 -20.753,2.318 -6.532,1.475 -12.571,3.476 -18.12,6.005 -5.478,2.458 -10.429,5.337 -14.854,8.638 -4.424,3.231 -8.182,6.602 -11.272,10.113 -3.02,3.512 -5.373,7.023 -7.058,10.534 -1.615,3.512 -2.423,6.777 -2.423,9.797 0,3.231 0.878,5.759 2.634,7.584 1.756,1.756 4.389,2.634 7.901,2.634 2.599,0 4.776,-0.597 6.531,-1.791 1.755,-1.194 3.336,-2.739 4.741,-4.635 1.475,-1.896 2.879,-4.073 4.214,-6.531 a 149.33,149.33 0 0 1 4.424,-7.585 c 1.686,-2.599 3.652,-5.127 5.899,-7.585 2.317,-2.458 5.127,-4.635 8.427,-6.531 3.371,-1.896 7.339,-3.441 11.904,-4.635 4.636,-1.194 10.149,-1.791 16.54,-1.791 5.688,0 10.569,0.667 14.643,2.002 4.143,1.334 7.514,3.125 10.113,5.373 2.668,2.247 4.6,4.881 5.794,7.901 1.264,3.02 1.896,6.215 1.896,9.586 0,4.705 -1.194,9.551 -3.582,14.537 -2.317,4.987 -5.513,9.517 -9.586,13.59 -4.073,4.073 -8.849,7.444 -14.327,10.113 -5.408,2.599 -11.167,3.898 -17.277,3.898 z"
       fill="#ffffff"
       id="path10" />
  </g>
  <defs
     id="defs19">
    <linearGradient
       id="A"
       x1="320.32999"
       y1="-50.181999"
       x2="320.32999"
       y2="432.086"
       gradientUnits="userSpaceOnUse">
      <stop
         stop-color="#9e00f6"
         id="stop14" />
      <stop
         offset="1"
         stop-color="#fa7564"
         id="stop16" />
    </linearGradient>
  </defs>
</svg>
