<svg xmlns="http://www.w3.org/2000/svg" width="256" height="256" fill="none" xmlns:v="https://vecta.io/nano"><path d="M6.557 128c0 66.964 54.479 121.443 121.443 121.443S249.443 194.964 249.443 128 194.964 6.557 128 6.557 6.557 61.036 6.557 128z" fill="#fff" fill-rule="evenodd" stroke="#b0b0b0" stroke-width="13.114" paint-order="normal"/><g transform="matrix(.907692 0 0 .907692 10 10)"><path d="M130.523 256.829c70.045 0 126.828-56.783 126.828-126.828S200.568 3.173 130.523 3.173 3.695 59.956 3.695 130.001s56.783 126.828 126.828 126.828z" fill="#fff"/><path d="M162.348 203.113v-58.552H98.7v58.552H69.632V56.889H98.7v58.552h63.648V56.889h29.068v146.224z" fill="#4d2176"/><circle r="130" transform="matrix(1 0 0 -1 130 130)" fill="url(#A)" cx="0" cy="0"/><path d="M121.001 130.114a7.71 7.71 0 0 1-1.264-.105l5.267-11.272c1.686-3.723 3.161-7.129 4.425-10.219s2.283-5.829 3.055-8.217 1.159-4.249 1.159-5.583-.211-2.423-.632-3.266c-.422-.913-.913-1.58-1.475-2.002-.562-.492-1.194-.808-1.896-.948-.703-.211-1.299-.316-1.791-.316-1.826 0-3.898 1.054-6.216 3.16-2.247 2.037-4.67 4.775-7.268 8.217-2.529 3.441-5.162 7.409-7.901 11.904a477.93 477.93 0 0 0-8.006 13.8l-31.077 56.886c-.772 1.475-1.37 3.055-1.791 4.741s-.632 3.336-.632 4.951c0 1.124.14 2.318.421 3.582.351 1.264.913 2.423 1.686 3.476s1.861 1.931 3.266 2.634 3.231 1.053 5.478 1.053c2.739 0 5.267-.983 7.585-2.95s4.495-4.529 6.531-7.69c2.037-3.23 3.898-6.847 5.583-10.85a375.23 375.23 0 0 0 4.846-12.325l4.319-12.01c1.334-3.933 2.634-7.339 3.898-10.218 2.247 7.304 4.811 14.256 7.69 20.858 2.879 6.531 6.075 12.255 9.586 17.171s7.41 8.814 11.694 11.693 8.954 4.32 14.01 4.32c6.181 0 12.712-1.545 19.595-4.636 6.952-3.16 14.046-8.146 21.279-14.959 2.458-2.317 4.179-4.529 5.162-6.636 1.054-2.177 1.58-4.074 1.58-5.689 0-1.685-.491-3.02-1.474-4.003s-2.178-1.475-3.582-1.475c-2.248 0-4.46 1.229-6.637 3.687-2.318 3.09-5.057 5.794-8.217 8.112-2.669 2.036-6.004 3.898-10.008 5.583s-8.568 2.528-13.694 2.528h-1.475c-.492 0-1.019-.035-1.58-.105-2.81-.211-5.478-1.615-8.007-4.214s-4.845-5.724-6.952-9.376a83.57 83.57 0 0 1-5.268-11.693c-1.404-4.143-2.423-7.865-3.055-11.166 4.495-.773 9.13-2.037 13.906-3.793 4.846-1.755 9.551-3.897 14.116-6.426a89.28 89.28 0 0 0 12.852-8.638c4.073-3.301 7.62-6.882 10.64-10.745 3.02-3.933 5.408-8.112 7.163-12.536 1.826-4.495 2.739-9.2 2.739-14.117 0-7.304-1.51-13.695-4.529-19.173-2.95-5.478-6.953-10.008-12.01-13.59-5.056-3.652-10.885-6.391-17.487-8.217-6.531-1.826-13.379-2.739-20.542-2.739-7.304 0-14.222.773-20.753 2.318-6.532 1.475-12.571 3.476-18.12 6.005-5.478 2.458-10.429 5.337-14.854 8.638-4.424 3.231-8.182 6.602-11.272 10.113-3.02 3.512-5.373 7.023-7.058 10.534-1.615 3.512-2.423 6.777-2.423 9.797 0 3.231.878 5.759 2.634 7.584 1.756 1.756 4.389 2.634 7.901 2.634 2.599 0 4.776-.597 6.531-1.791s3.336-2.739 4.741-4.635c1.475-1.896 2.879-4.073 4.214-6.531a149.33 149.33 0 0 1 4.424-7.585c1.686-2.599 3.652-5.127 5.899-7.585 2.317-2.458 5.127-4.635 8.427-6.531 3.371-1.896 7.339-3.441 11.904-4.635 4.636-1.194 10.149-1.791 16.54-1.791 5.688 0 10.569.667 14.643 2.002 4.143 1.334 7.514 3.125 10.113 5.373 2.668 2.247 4.6 4.881 5.794 7.901 1.264 3.02 1.896 6.215 1.896 9.586 0 4.705-1.194 9.551-3.582 14.537-2.317 4.987-5.513 9.517-9.586 13.59s-8.849 7.444-14.327 10.113c-5.408 2.599-11.167 3.898-17.277 3.898z" fill="#fff"/></g><defs><linearGradient id="A" x1="320.33" y1="-50.182" x2="320.33" y2="432.086" gradientUnits="userSpaceOnUse"><stop stop-color="#9e00f6"/><stop offset="1" stop-color="#fa7564"/></linearGradient></defs></svg>