<svg id="REN" xmlns="http://www.w3.org/2000/svg" width="512" height="512" viewBox="0 0 512 512">
  <defs>
    <style>
      .cls-1 {
        fill: #001b3a;
      }

      .cls-1, .cls-2 {
        fill-rule: evenodd;
      }

      .cls-2 {
        fill: #fff;
      }
    </style>
  </defs>
  <path id="Full" class="cls-1" d="M11,256c0,135.094,109.906,245,245,245S501,391.094,501,256,391.094,11,256,11,11,120.906,11,256Z"/>
  <path id="REN-2" data-name="REN" class="cls-2" d="M166.376,171.764l21.475-12.359,3.044,4.977,79.645-45.929-5.853-3.474-5.888-3.24L255.989,110,126,184.992v3.24l37.331-21.445Zm0,47.232,62.485-35.975,2.81,5.01,79.88-45.962L305.7,138.6l-5.854-3.24L297,133.618,126,231.99v3.474l37.331-21.445Zm0,23.616,82.89-47.867,2.81,4.978,79.879-45.93L326.1,150.52l-5.888-3.474-2.81-1.737L126,255.639v3.441l37.331-21.645Zm0,23.416L270.306,206.2l2.844,5.01,79.21-45.729-5.887-3.273-5.854-3.441-2.81-1.536L126,279.255v3.24l37.331-21.444Zm0,23.616,124.335-71.717,2.843,5.211,79.211-45.729-5.887-3.474-5.62-3.273-3.044-1.7L126,302.871v3.24l37.331-21.444ZM381.629,182.386l-3.01-1.737L126,326.487v3.24l37.331-21.444,3.044,4.977,124.335-71.717,2.843,4.977,92.424-53.077v-8.451ZM142.057,344.057l20.84-11.925,3.044,4.977,124.134-71.716,3.011,5.177,92.892-53.745V200.157L139.248,342.32Zm148.018-55.048,3.011,5.211,92.892-53.746v-16.7L159.652,354.245l2.81,1.737,21.275-12.359,3.01,4.977m-3.88,19.073,21.475-12.359,2.81,5.211,82.923-47.9,3.011,4.977,92.892-53.512v-16.9L180.024,365.936Zm20.605,11.691,21.275-12.125,2.81,4.977,62.518-35.975,3.011,4.977,92.892-53.512V270.8L200.428,377.861Zm17.361,10.188,3.044,1.737,21.275-12.359,2.809,5.211,42.114-24.284,3.011,5.01,92.892-53.545v-16.9Zm23.449,13.428,21.274-12.125,3.011,4.977,21.508-12.559,3.011,5.21,92.892-53.545v-16.9L241.439,401.477Zm46.864-272.836-5.854-3.24h0l-5.854-3.474-3.044-1.737L126,208.608v3.24L163.332,190.4l3.044,4.977,42.08-24.25,2.844,4.977Z"/>
</svg>
