<?xml version="1.0" encoding="utf-8"?>
<!-- Generator: Adobe Illustrator 22.0.0, SVG Export Plug-In . SVG Version: 6.00 Build 0)  -->
<svg version="1.1" id="REN" xmlns="http://www.w3.org/2000/svg" xmlns:xlink="http://www.w3.org/1999/xlink" x="0px" y="0px"
	 viewBox="0 0 490 490" style="enable-background:new 0 0 490 490;" xml:space="preserve">
<style type="text/css">
	.st0{fill:#001B3A;}
	.st1{fill:#FFFFFF;}
</style>
<path id="Full" class="st0" d="M0,245c0,135.1,109.9,245,245,245s245-109.9,245-245S380.1,0,245,0S0,109.9,0,245z"/>
<path id="REN-2" class="st1" d="M155.4,160.8l21.5-12.4l3,5l79.6-45.9l-5.9-3.5l-5.9-3.2L245,99l-130,75v3.2l37.3-21.4L155.4,160.8z
	 M155.4,208l62.5-36l2.8,5l79.9-46l-5.9-3.5l-5.9-3.2l-2.8-1.7L115,221v3.5l37.3-21.4L155.4,208z M155.4,231.6l82.9-47.9l2.8,5
	l79.9-45.9l-5.9-3.3l-5.9-3.5l-2.8-1.7L115,244.6v3.4l37.3-21.6L155.4,231.6z M155.4,255l103.9-59.8l2.8,5l79.2-45.7l-5.9-3.3
	l-5.9-3.4l-2.8-1.5L115,268.3v3.2l37.3-21.4L155.4,255z M155.4,278.6l124.3-71.7l2.8,5.2l79.2-45.7l-5.9-3.5l-5.6-3.3l-3-1.7
	L115,291.9v3.2l37.3-21.4L155.4,278.6z M370.6,171.4l-3-1.7L115,315.5v3.2l37.3-21.4l3,5l124.3-71.7l2.8,5l92.4-53.1V174
	L370.6,171.4z M131.1,333.1l20.8-11.9l3,5l124.1-71.7l3,5.2l92.9-53.7v-16.7L128.2,331.3L131.1,333.1z M279.1,278l3,5.2l92.9-53.7
	v-16.7L148.7,343.2l2.8,1.7l21.3-12.4l3,5 M171.9,356.7l21.5-12.4l2.8,5.2l82.9-47.9l3,5l92.9-53.5v-16.9L169,354.9L171.9,356.7z
	 M192.5,368.4l21.3-12.1l2.8,5l62.5-36l3,5l92.9-53.5v-16.9L189.4,366.9L192.5,368.4z M209.8,378.6l3,1.7l21.3-12.4l2.8,5.2
	l42.1-24.3l3,5l92.9-53.5v-16.9L209.8,378.6z M233.3,392l21.3-12.1l3,5l21.5-12.6l3,5.2l92.9-53.5V307l-144.5,83.4L233.3,392z
	 M280.1,119.1l-5.9-3.2l0,0l-5.9-3.5l-3-1.7L115,197.6v3.2l37.3-21.4l3,5l42.1-24.2l2.8,5L280.1,119.1z"/>
</svg>
