<?xml version="1.0" encoding="utf-8"?>
<!-- Generator: Adobe Illustrator 22.0.0, SVG Export Plug-In . SVG Version: 6.00 Build 0)  -->
<svg version="1.1" id="Augur" xmlns="http://www.w3.org/2000/svg" xmlns:xlink="http://www.w3.org/1999/xlink" x="0px" y="0px"
	 viewBox="0 0 245 245" style="enable-background:new 0 0 245 245;" xml:space="preserve">
<style type="text/css">
	.st0{fill:#553580;}
	.st1{fill:#FFFFFF;}
</style>
<path id="Full" class="st0" d="M0,122.5C0,190,55,245,122.5,245S245,190,245,122.5S190,0,122.5,0S0,55,0,122.5z"/>
<path id="Augur-2" class="st1" d="M204.7,163.1L124.5,33.9c-0.6-0.9-1.8-1.2-2.8-0.6c-0.2,0.2-0.5,0.4-0.6,0.6L40.8,162.6
	c-0.5,0.9-0.3,2.1,0.6,2.6c0,0,0,0,0.1,0l80.4,46.4c0.6,0.4,1.4,0.4,2,0l80.2-45.9c0.4-0.3,0.8-0.7,0.9-1.2
	C205.1,164.1,205,163.6,204.7,163.1 M151.5,132l0.3,1.7l0.1,0.7c1.2,9.3,4.8,12,13.7,16c0,0,0,0,0.1,0l32.4,14.4l-73.2,41.9v-24
	c0-8.8,0.5-10.4,8.3-14.7c1.5-0.8,3.1-1.7,4.8-2.7l1.1-0.6c4.8-2.6,8.8-6.4,11.7-11c0.1-0.2,0.9-1.3,1-1.5c-0.6-0.3-1.2-0.7-1.7-1.2
	c-0.5-0.5-1-1-1.3-1.6c-2.5,5-6.5,9.2-11.4,11.9l-1.2,0.7c-1.7,1-3.4,1.9-4.9,2.7c-9.6,5.3-10.3,8.5-10.3,18v24L47,164l31.6-13.9
	l2.1-0.9c0.8-0.4,3.3-1.4,5.3-1.5c2-0.1,5,0,6.6,2.1l4.5,5.7c3.5,4.6,8.1,8.2,13.5,10.5c0,0,0,0,0.1,0c1.5,0.5,3,1,4.5,1.3
	c0.4-0.7,0.8-1.3,1.3-1.9c0.3-0.4,0.8-0.9,1.3-1.4c-2.4-0.4-4.8-1.2-7.1-2.2l0,0c-4.1-1.9-7.7-4.7-10.5-8.3
	c-0.1-0.1-0.1-0.1-0.2-0.2c-0.1-0.1-0.1-0.2-0.2-0.3c-0.3-0.4-0.6-0.7-0.8-1.1c-1.1-1.5-2.2-3-3.4-4.4c-1.1-1.3-2.5-2.3-4.1-2.8h0
	c-1.8-0.6-3.8-0.9-5.7-0.9c-3.2,0.1-6.8,1.8-6.8,1.9l-1.1,0.5h0l-0.1,0l-2.9,1.2c0,0,0,0,0,0l-27.6,12.1l73.6-117.8v49.9
	c0,8.6-0.6,10.5-8.5,14.9c-0.6,0.3-1.2,0.6-1.9,0.9c-0.3,0.2-0.7,0.3-1,0.5c-0.3,0.1-0.5,0.2-0.8,0.4c0,0,0,0,0,0h0
	c-10.3,5-17.5,15-18.1,26.8c0.7,0.2,1.7,0.5,2.3,0.6c0.5,0.2,1.1,0.4,1.6,0.7c0.1-10.9,6.6-20.2,16.1-24.8c0,0,0,0,0,0
	c0,0,0,0,0.1,0c0.6-0.3,1.1-0.6,1.7-0.8c0.7-0.3,1.4-0.7,2.1-1.1c1.2-0.7,2.5-1.4,3.6-2.2c0.3-0.2,0.5-0.4,0.8-0.6
	c0.6-0.4,1.1-0.8,1.6-1.3c0.3-0.2,0.5-0.4,0.7-0.7c3.1-3.2,3.8-6.8,3.8-13.4V41.8l73.8,118.9L166,146.3c0,0,0,0,0,0
	c-7.2-3.2-9.4-5.9-10.4-13.6c0-0.1,0-0.4-0.1-0.5c-1.9-12.3-11-22.2-23.1-25.7c-0.8-0.2-1.5-0.4-1.6-0.5c-0.2,0.6-0.5,1.2-0.8,1.8
	c-0.4,0.6-0.8,1.2-1.3,1.7c0.2,0,1.3,0.3,1.5,0.3C141.1,112.6,149.5,121.2,151.5,132"/>
</svg>
