<svg id="Augur" xmlns="http://www.w3.org/2000/svg" width="256" height="256" viewBox="0 0 512 512">
  <defs>
    <style>
      .cls-1 {
        fill: #553580;
      }

      .cls-1, .cls-2 {
        fill-rule: evenodd;
      }

      .cls-2 {
        fill: #fff;
      }
    </style>
  </defs>
  <path id="Full" class="cls-1" d="M11,256c0,135.094,109.906,245,245,245S501,391.094,501,256,391.094,11,256,11,11,120.906,11,256Z"/>
  <path id="Augur-2" data-name="Augur" class="cls-2" d="M420.416,337.276L260.06,78.855a4.018,4.018,0,0,0-6.773,0L92.571,336.237a3.794,3.794,0,0,0,1.36,5.29l160.716,92.887a4.063,4.063,0,0,0,4.04,0l160.359-91.853a3.908,3.908,0,0,0,1.825-2.366,3.705,3.705,0,0,0-.451-2.924M313.934,274.949l0.563,3.387,0.189,1.34c2.4,18.641,9.6,24.088,27.473,32.028,0.045,0.018.081,0.013,0.117,0.027l64.849,28.738L260.709,424.343v-48c0-17.615,1.058-20.773,16.637-29.418,3.062-1.691,6.152-3.464,9.543-5.389l2.117-1.219a63.605,63.605,0,0,0,23.428-22c0.212-.333,1.766-2.69,1.973-3.027a16.265,16.265,0,0,1-3.346-2.443,13.478,13.478,0,0,1-2.68-3.3,56.384,56.384,0,0,1-22.767,23.872l-2.4,1.377c-3.342,1.907-6.751,3.778-9.8,5.461-19.1,10.593-20.623,17.088-20.623,36.084v48.054l-147.767-85.4,63.232-27.745,4.117-1.777c1.607-.787,6.665-2.86,10.57-2.982,3.986-.243,10.03.014,13.286,4.179l9.043,11.488a65.363,65.363,0,0,0,26.978,20.948,0.807,0.807,0,0,0,.1.059,59.314,59.314,0,0,0,9.026,2.568,25.51,25.51,0,0,1,2.535-3.778c0.658-.828,1.64-1.844,2.559-2.8a61.877,61.877,0,0,1-14.106-4.385l-0.014-.009a57.332,57.332,0,0,1-20.924-16.6c-0.121-.139-0.236-0.283-0.347-0.431q-0.2-.273-0.387-0.549c-0.554-.742-1.117-1.462-1.631-2.231q-3.328-4.491-6.8-8.875a17.829,17.829,0,0,0-8.129-5.555l0.009,0a33.361,33.361,0,0,0-11.471-1.714c-6.418.212-13.548,3.644-13.692,3.716l-2.216.958h-0.009l-0.166.072-5.756,2.487a0.313,0.313,0,0,0-.067.072l-55.261,24.25L252.652,94.675V194.44c0,17.242-1.257,21.007-16.97,29.72-1.2.67-2.478,1.277-3.8,1.9-0.667.323-1.347,0.674-2.027,1.007-0.518.225-1,.5-1.5,0.747-0.009,0-.023,0-0.023.009h-0.009c-20.613,9.936-35,30.084-36.264,53.6,1.356,0.369,3.405.953,4.549,1.3a20.035,20.035,0,0,1,3.171,1.458c0.2-21.731,13.277-40.475,32.156-49.525,0.009,0,.009,0,0.009-0.014a1.264,1.264,0,0,0,.145-0.031c1.134-.585,2.234-1.116,3.319-1.633,1.459-.7,2.864-1.381,4.215-2.132q3.742-2.064,7.283-4.463c0.572-.378,1.058-0.782,1.585-1.16,1.149-.837,2.234-1.7,3.175-2.537a11.6,11.6,0,0,0,1.405-1.368c6.292-6.405,7.522-13.62,7.522-26.881V94.625L408.211,332.5,343.06,303.634a0.052,0.052,0,0,0-.037,0c-14.447-6.419-18.839-11.781-20.775-27.2-0.032-.211-0.09-0.733-0.14-0.931-3.724-24.659-22.077-44.447-46.186-51.369-1.648-.468-2.941-0.855-3.256-0.94a18.354,18.354,0,0,1-1.608,3.616,19.769,19.769,0,0,1-2.567,3.41c0.365,0.081,2.662.585,3.027,0.67,21.676,5.326,38.444,22.433,42.416,44.06"/>
</svg>
