<svg xmlns="http://www.w3.org/2000/svg" width="250" height="250" fill="none" xmlns:v="https://vecta.io/nano"><circle cx="125" cy="125" r="125" fill="#fff"/><path d="M179.648 132.631l-.846 9.351-1.489 9.286-2.129 9.184-.082.262-.098.259-.114.25-.133.247-.151.236-.166.228-.181.22-.195.208-.209.196-.223.185-.236.172-.246.158-.258.145-5.189 2.525-5.354 2.231-5.498 1.928-5.621 1.62-5.722 1.302-5.801.982-5.857.657-5.788.31-.103.019h-2.951-2.951l-.102-.019-5.789-.31-5.858-.657-5.799-.982-5.723-1.302-5.618-1.62-5.501-1.928-5.353-2.231-5.191-2.525-.255-.145-.249-.158-.236-.172-.221-.185-.212-.196-.195-.208-.18-.22-.167-.228-.149-.236-.133-.247-.115-.25-.098-.259-.082-.262-2.129-9.184-1.489-9.286-.845-9.351-.198-9.38.451-9.373 1.098-9.329 1.741-9.25.066-.254.082-.252.07-.174.029-.073.115-.24.133-.233 1.908-2.932 2.115-2.813 2.316-2.684 2.505-2.542 1.059-.944 1.623-1.446 2.852-2.228 3.006-2.059 3.15-1.877 3.279-1.69 3.394-1.494 3.494-1.292 3.581-1.086 3.653-.875 3.706-.659 3.75-.442 3.77-.22h1.891 1.89l3.771.22 3.748.442 3.708.659 3.653.875 3.581 1.086 3.494 1.292 3.392 1.494 3.28 1.69 3.15 1.877 3.004 2.059 2.852 2.228 1.623 1.446 1.061.944 2.504 2.542 2.316 2.684 2.115 2.813 1.909 2.932.131.233.116.24.031.073.068.174.083.252.066.254 1.74 9.25 1.099 9.329.449 9.373zm21.329-18.578l-.091-.803-.139-.793-.191-.786-.24-.773-.291-.756-.338-.737-.384-.716-.429-.691-.472-.665-.516-.635-.554-.602-.591-.568-.628-.531-.66-.494-.689-.453-.978-.56-.251-.165-.239-.179-.227-.194-.217-.206-.2-.218-.188-.231-.17-.242-.157-.252-.139-.26-.123-.267-.106-.274-.748-1.945-.878-1.892-1.006-1.833-1.126-1.766-1.242-1.692-1.353-1.61-1.461-1.52-1.56-1.423-1.65-1.324-.213-.168-.204-.18-.191-.191-.179-.201-.171-.211-.156-.22-.143-.228-2.088-3.3-2.306-3.164-2.507-3.015-2.701-2.855L167 69.582l-3.055-2.5-3.212-2.306-3.359-2.102-3.491-1.892-3.607-1.671-3.711-1.446-3.798-1.213-3.872-.977-3.927-.737-3.968-.493-3.995-.247h-1.999-2l-3.993.247-3.969.493-3.927.737-3.871.977-3.797 1.213-3.713 1.446-3.608 1.671-3.491 1.892-3.359 2.102-3.212 2.306-3.054 2.5-2.884 2.682-2.701 2.855-2.509 3.015-2.304 3.164-2.089 3.3-.143.228-.157.22-.168.211-.18.201-.191.191-.202.18-.214.168-1.653 1.324-1.558 1.423-1.459 1.52-1.354 1.61-1.244 1.692-1.124 1.766-1.006 1.833-.877 1.892-.75 1.945-.103.274-.125.267-.139.26-.154.252-.172.242-.185.231-.203.218-.214.206-.228.194-.24.179-.25.165-.978.56-.689.453-.661.494-.628.531-.588.568-.556.602-.514.635-.472.665-.429.691-.385.716-.337.737-.291.756-.241.773-.19.786-.14.793-.089.803-.038.805.013.807 1.706 36.813.045.56.079.558.115.553.148.543.181.534.218.522.249.511.281.492.311.477.659.881.711.842.764.798.813.752.858.703.9.652 1.192.757.24.174.23.189.216.201.203.214.189.225.176.236.157.247.144.255.128.262 1.332 3.286 1.408 2.939c1.047 1.882 24.608 19.236 24.608 19.236s12.232 5.58 37.735 5.58 37.733-5.58 37.733-5.58 23.561-17.354 24.608-19.236l1.409-2.939 1.332-3.286.126-.262.144-.255.158-.247.176-.236.189-.225.204-.214.216-.201.228-.189.24-.174 1.191-.757.9-.652.858-.703.814-.752.763-.798.712-.842.659-.881.311-.477.281-.492.248-.511.218-.522.183-.534.148-.543.115-.553.08-.558.042-.56 1.708-36.813.013-.807zm-48.035 18.063h-7.196c-.901 0-1.631.732-1.631 1.632v4.961a3.41 3.41 0 0 1-.998 2.411l-.458.458c-.639.64-1.507.997-2.411.997h-30.48c-.904 0-1.771-.357-2.411-.997l-.458-.458a3.41 3.41 0 0 1-.998-2.411v-4.961c0-.9-.73-1.632-1.632-1.632h-7.194c-.901 0-1.632.732-1.632 1.632v7.195a1.63 1.63 0 0 0 1.632 1.632h5.418a3.41 3.41 0 0 1 2.411.999c.641.64.998 1.508.998 2.411v5.263a1.79 1.79 0 0 0 1.784 1.785h.005 34.636.003a1.79 1.79 0 0 0 1.787-1.785v-5.263c0-.904.357-1.771.998-2.411a3.41 3.41 0 0 1 2.411-.999h5.418a1.63 1.63 0 0 0 1.632-1.632v-7.195c0-.9-.731-1.632-1.632-1.632z" fill="#000"/></svg>