<svg id="Ripio" xmlns="http://www.w3.org/2000/svg" width="256" height="256" viewBox="0 0 512 512">
  <defs>
    <style>
      .cls-1 {
        fill: #4155ff;
      }

      .cls-1, .cls-3 {
        fill-rule: evenodd;
      }

      .cls-2 {
        fill: none;
        stroke: #fff;
        stroke-linecap: round;
        stroke-linejoin: round;
        stroke-width: 20px;
      }

      .cls-3 {
        fill: #fff;
      }
    </style>
  </defs>
  <path id="Full" class="cls-1" d="M11,256c0,135.094,109.906,245,245,245S501,391.094,501,256,391.094,11,256,11,11,120.906,11,256Z"/>
  <circle id="Ring" class="cls-2" cx="256" cy="256" r="147"/>
  <path id="Left" class="cls-3" d="M256,154l14-14,65,64-58,57-13-13s22.4-21.472,33-32c-61.562-5.754-175.074,40-201,112-5.958,8.716-19.187,6.875-19.187-5,19.7-61.748,114.5-129.943,220.188-128C289.686,187.863,256,154,256,154Z"/>
  <path id="Right" class="cls-3" d="M255.943,358.032L241.953,372,177,308.145l57.958-56.871,12.99,12.97s-22.381,21.423-32.976,31.928c61.518,5.741,174.947-39.91,200.854-111.747,5.954-8.7,19.174-6.859,19.174,4.989-19.688,61.608-114.416,129.649-220.028,127.71C222.281,324.245,255.943,358.032,255.943,358.032Z"/>
</svg>
