<svg id="RLC" xmlns="http://www.w3.org/2000/svg" width="512" height="512" viewBox="0 0 512 512">
  <defs>
    <style>
      .cls-1 {
        fill: #fbd503;
      }

      .cls-1, .cls-2 {
        fill-rule: evenodd;
      }

      .cls-2 {
        fill: #fff;
      }
    </style>
  </defs>
  <path id="Full" class="cls-1" d="M11,256c0,135.094,109.906,245,245,245S501,391.094,501,256,391.094,11,256,11,11,120.906,11,256Z"/>
  <path id="RLC-2" data-name="RLC" class="cls-2" d="M368.577,221.09a42.034,42.034,0,0,0-37.25,44.309c0,6.11-2.283,11.457-7.6,14.514h0a15.269,15.269,0,0,1-8.36,2.293A17.242,17.242,0,0,1,307,279.917a45.61,45.61,0,0,0-22.038-6.1h-4.56c-22.04,2.3-38,22.16-36.49,44.309,0,6.111-2.283,11.458-7.6,14.514a15.27,15.27,0,0,1-8.36,2.294,12.792,12.792,0,0,1-7.6-2.29,45.609,45.609,0,0,0-22.038-6.1h-4.56c-20.52,2.3-35.724,19.867-36.49,41.253-0.006,22.914,18.229,42,41.028,42h3.8c19.76-2.3,35.724-17.576,37.249-37.435q0-3.437,0-6.874c0-6.11,2.282-11.457,7.6-14.514h0a15.263,15.263,0,0,1,8.36-2.293,17.249,17.249,0,0,1,8.36,2.289,45.6,45.6,0,0,0,22.037,6.1h4.56a41.4,41.4,0,0,0,36.489-37.435q0-3.436,0-6.874c0-6.11,2.282-11.457,7.6-14.513a15.264,15.264,0,0,1,8.36-2.294,12.8,12.8,0,0,1,7.6,2.289,45.6,45.6,0,0,0,22.037,6.105h4.56c20.521-3.824,36.485-20.632,36.49-42.018,0.006-22.913-18.229-42-41.028-42-1.52,0-3.04,0-3.8.765m-87.384-52.679a42.036,42.036,0,0,0-37.25,44.309c0,6.11-2.283,11.458-7.6,14.514a15.27,15.27,0,0,1-8.36,2.294,12.792,12.792,0,0,1-7.6-2.29,45.609,45.609,0,0,0-22.038-6.1h-4.56c-20.52,3.06-35.724,19.867-35.729,40.489-0.006,22.914,18.228,42,41.028,42h3.8c19.76-2.3,35.723-17.576,37.248-37.435q0-3.436,0-6.874c0-6.11,2.283-11.457,7.6-14.514a15.266,15.266,0,0,1,8.361-2.293,12.787,12.787,0,0,1,7.6,2.289,45.61,45.61,0,0,0,22.038,6.1l4.56,0c20.52-2.3,35.724-19.867,36.489-41.253,0.006-22.914-18.228-42-41.028-42-2.28,0-3.04,0-4.56.765m-83.584-52.679a41.245,41.245,0,1,1-41.049,41.255A41.116,41.116,0,0,1,197.609,115.732Z"/>
</svg>
