<?xml version="1.0" encoding="utf-8"?>
<!-- Generator: Adobe Illustrator 22.0.0, SVG Export Plug-In . SVG Version: 6.00 Build 0)  -->
<svg version="1.1" id="RLC" xmlns="http://www.w3.org/2000/svg" xmlns:xlink="http://www.w3.org/1999/xlink" x="0px" y="0px"
	 viewBox="0 0 490 490" style="enable-background:new 0 0 490 490;" xml:space="preserve">
<style type="text/css">
	.st0{fill:#FBD503;}
	.st1{fill:#FFFFFF;}
</style>
<path id="Full" class="st0" d="M0,245c0,135.1,109.9,245,245,245s245-109.9,245-245S380.1,0,245,0S0,109.9,0,245z"/>
<path id="RLC-2" class="st1" d="M357.6,210.1c-22.2,2.5-38.6,22-37.2,44.3c0,6.1-2.3,11.5-7.6,14.5l0,0c-2.5,1.6-5.4,2.4-8.4,2.3
	c-2.9,0-5.8-0.8-8.4-2.3c-6.7-3.9-14.3-6-22-6.1h-4.6c-22,2.3-38,22.2-36.5,44.3c0,6.1-2.3,11.5-7.6,14.5c-2.5,1.6-5.4,2.4-8.4,2.3
	c-2.7,0.1-5.4-0.7-7.6-2.3c-6.7-3.9-14.3-6-22-6.1h-4.6c-20.5,2.3-35.7,19.9-36.5,41.3c0,22.9,18.2,42,41,42h3.8
	c19.8-2.3,35.7-17.6,37.2-37.4c0-2.3,0-4.6,0-6.9c0-6.1,2.3-11.5,7.6-14.5l0,0c2.5-1.6,5.4-2.4,8.4-2.3c2.9,0,5.8,0.8,8.4,2.3
	c6.7,3.9,14.3,6,22,6.1h4.6c19.5-2.3,34.7-17.9,36.5-37.4c0-2.3,0-4.6,0-6.9c0-6.1,2.3-11.5,7.6-14.5c2.5-1.6,5.4-2.4,8.4-2.3
	c2.7-0.1,5.4,0.7,7.6,2.3c6.7,3.9,14.3,6,22,6.1h4.6c20.5-3.8,36.5-20.6,36.5-42c0-22.9-18.2-42-41-42
	C359.8,209.3,358.3,209.3,357.6,210.1 M270.2,157.4c-22.2,2.5-38.6,22-37.2,44.3c0,6.1-2.3,11.5-7.6,14.5c-2.5,1.6-5.4,2.4-8.4,2.3
	c-2.7,0.1-5.4-0.7-7.6-2.3c-6.7-3.9-14.3-6-22-6.1h-4.6c-20.5,3.1-35.7,19.9-35.7,40.5c0,22.9,18.2,42,41,42h3.8
	c19.8-2.3,35.7-17.6,37.2-37.4c0-2.3,0-4.6,0-6.9c0-6.1,2.3-11.5,7.6-14.5c2.5-1.6,5.4-2.4,8.4-2.3c2.7-0.1,5.4,0.7,7.6,2.3
	c6.7,3.9,14.3,6,22,6.1h4.6c20.5-2.3,35.7-19.9,36.5-41.3c0-22.9-18.2-42-41-42C272.5,156.7,271.7,156.7,270.2,157.4 M186.6,104.7
	c22.8-0.1,41.3,18.3,41.4,41s-18.3,41.3-41,41.4c-22.8,0.1-41.3-18.3-41.4-41c0-0.1,0-0.1,0-0.2
	C145.5,123.3,163.8,104.8,186.6,104.7C186.5,104.7,186.6,104.7,186.6,104.7L186.6,104.7z"/>
</svg>
