<?xml version="1.0" encoding="UTF-8"?>
<svg id="Layer_1" data-name="Layer 1" xmlns="http://www.w3.org/2000/svg" version="1.1" viewBox="0 0 250 250">
  <defs>
    <style>
      .cls-1 {
        fill: #cf1011;
      }

      .cls-1, .cls-2 {
        fill-rule: evenodd;
      }

      .cls-1, .cls-2, .cls-3 {
        stroke-width: 0px;
      }

      .cls-2, .cls-3 {
        fill: #fff;
      }
    </style>
  </defs>
  <g id="Layer_1-2" data-name="Layer 1-2">
    <g id="_1704857643392" data-name=" 1704857643392">
      <path class="cls-1" d="M125,2.5c67.6,0,122.5,54.9,122.5,122.5s-54.9,122.5-122.5,122.5S2.5,192.6,2.5,125,57.4,2.5,125,2.5Z"/>
      <g>
        <path class="cls-2" d="M125,96c16,0,29,12.9,29,29s-12.9,29-29,29-29-12.9-29-29,12.9-29,29-29Z"/>
        <path class="cls-2" d="M125.7,49.1c9.1,0,18.1,1.9,26.6,5.1s16.3,7.9,23.1,14l.2.2h0c15.6,13.9,24.1,32.7,25.2,52,1.2,19.4-5.1,39.2-18.9,54.9l-.2.2h0c-13.9,15.6-32.7,24.1-52,25.2-19.4,1.2-39.2-5.1-54.9-18.9-15.7-13.9-24.3-32.8-25.4-52.2-1.2-19.4,5.1-39.2,18.9-54.9l6.6,5.8c-12.2,13.8-17.7,31.4-16.8,48.5,1.1,17.2,8.6,33.9,22.4,46.2s31.4,17.7,48.5,16.8c17.1-1.1,33.9-8.6,46.2-22.4l.2-.2h0c12.2-13.8,17.6-31.3,16.6-48.3-1.1-17.1-8.6-33.9-22.4-46.2l-.2-.2h0c-6-5.3-12.8-9.4-20.2-12.2s-15.4-4.4-23.4-4.5v-8.8h-.1Z"/>
        <path class="cls-3" d="M81.9,49.6c5.3,0,10,2.2,13.4,5.6s5.6,8.2,5.6,13.4-2.2,10-5.6,13.4-8.2,5.6-13.4,5.6-10-2.2-13.4-5.6-5.6-8.2-5.6-13.4,2.2-10,5.6-13.4,8.2-5.6,13.4-5.6ZM89.1,61.5c-1.9-1.9-4.4-3-7.3-3s-5.4,1.2-7.3,3-3,4.4-3,7.3,1.2,5.4,3,7.3,4.4,3,7.3,3,5.4-1.2,7.3-3,3-4.4,3-7.3-1.2-5.4-3-7.3Z"/>
      </g>
    </g>
  </g>
</svg>