<svg xmlns="http://www.w3.org/2000/svg" width="244.8" height="244.8" viewBox="0 0 244.8 244.8">
  <g id="rope-sol" transform="translate(-13851 -7406)">
    <path id="Main_copy_10" d="M0,121.252C0,188.064,54.44,242.5,121.252,242.5S242.5,188.064,242.5,121.252,188.064,0,121.252,0,0,54.44,0,121.252Z" transform="translate(13852.248 7407.248)" fill="#649acd"/>
    <g id="Main_copy_14" transform="translate(13851 7406)">
      <path id="Path_472526" data-name="Path 472526" d="M0,122.4c0,67.444,54.954,122.4,122.4,122.4s122.4-54.954,122.4-122.4S189.841,0,122.4,0,0,54.954,0,122.4Z" fill="none"/>
      <path id="Path_472527" data-name="Path 472527" d="M122.4,11A111.4,111.4,0,1,0,233.8,122.4,111.526,111.526,0,0,0,122.4,11m0-11c67.441,0,122.4,54.954,122.4,122.4S189.846,244.8,122.4,244.8,0,189.844,0,122.4,54.959,0,122.4,0Z" fill="none"/>
    </g>
    <g id="Group_9244" data-name="Group 9244" transform="translate(-131.647)">
      <path id="Path_472521" data-name="Path 472521" d="M70.152,50.475l6.554-23.947a12.658,12.658,0,0,0-24.452-6.554L45.7,43.921A44.061,44.061,0,0,1,70.152,50.475Z" transform="translate(14048.5 7418.687)" fill="#fff"/>
      <path id="Path_472522" data-name="Path 472522" d="M48.915,73.5,42.361,97.447a12.691,12.691,0,1,0,24.452,6.806V104l6.554-23.947A48.673,48.673,0,0,1,48.915,73.5Z" transform="translate(14042.765 7514.138)" fill="#fff"/>
      <path id="Path_472523" data-name="Path 472523" d="M116.957,63.952a39.1,39.1,0,0,0-11.091-12.1L97.547,89.916h0A17.6,17.6,0,1,1,63.012,83.11v-.252l7.814-28.989A12.985,12.985,0,0,0,62,38.24h-.252a12.707,12.707,0,0,0-15.377,9.327h0L37.3,87.9a43.021,43.021,0,0,0,85.959-3.781A40.265,40.265,0,0,0,116.957,63.952Z" transform="translate(14035.726 7459.911)" fill="#fff"/>
      <path id="Path_472524" data-name="Path 472524" d="M54.326,65.642a17.654,17.654,0,1,1,34.787,6.05v.5L81.3,101.185a12.985,12.985,0,0,0,8.823,15.629h.252a12.707,12.707,0,0,0,15.377-9.327l8.823-40.332A43.228,43.228,0,0,0,69.954,25.814c-23.7.756-42.1,20.922-41.341,44.618A43.337,43.337,0,0,0,45.755,103.2Z" transform="translate(14022.48 7441.583)" fill="#fff"/>
    </g>
  </g>
</svg>
