<?xml version="1.0" encoding="UTF-8"?><svg id="CIRCLE_OUTLINE_BLACK" xmlns="http://www.w3.org/2000/svg" viewBox="0 0 512 512"><circle cx="255.99999" cy="256" r="255.99999" fill="#0089db"/><path d="m390.20855,154.42256c-25.52593-32.6311-62.89382-53.42027-104.20899-53.42027-79.99883,0-138.68217,74.47259-138.68217,154.99772,0,56.05182,37.36787,98.15646,78.68305,98.15646,3.94731,0,7.63147-.26315,11.57878-1.05262-27.89432-20.26287-45.52564-57.10444-45.52564-97.10384,0-63.68328,43.15725-113.41938,93.94599-113.41938,55.5255,0,93.946,54.9992,93.946,113.41938-.26315,43.15726-15.52609,86.05136-42.63094,117.62984-23.68386,27.63117-54.20972,44.99933-87.89345,50.52556,0,0,2.89469.26315,6.57885.26315,92.89336,0,168.41856-75.52522,168.41856-168.41858,0-38.15731-12.6314-73.41996-34.21002-101.57743Zm-25.52593,101.57745c0-56.05181-37.36786-98.15645-78.68306-98.15645-3.94731,0-7.63147.26316-11.57878,1.05262,27.89432,20.26286,45.52565,57.10442,45.52565,97.10383,0,63.68327-43.15726,113.41938-93.94599,113.41938-55.5255,0-93.94599-54.9992-93.94599-113.41938.26316-43.15726,15.52609-86.05137,42.63095-117.62985,23.68386-27.63117,54.20974-44.99934,87.89344-50.52557,0,0-2.89469-.26315-6.57885-.26315-92.89337,0-168.41858,75.52521-168.41858,168.41858,0,38.15733,12.63139,73.41998,34.21002,101.57745,25.52594,32.6311,62.89382,53.15712,104.20899,53.15712,79.99883.26315,138.68218-74.20945,138.68218-154.73457Z" fill="#fff" fill-rule="evenodd"/></svg>