<svg xmlns="http://www.w3.org/2000/svg" width="245" height="245" viewBox="0 0 245 245">
  <g id="rapt_red" transform="translate(-13242 -7352)">
    <g id="BNB" transform="translate(13242 7352)">
      <path id="Main_copy_14" d="M0,122.5C0,190,55,245,122.5,245S245,190,245,122.5,190,0,122.5,0,0,55,0,122.5Z" fill="#b64326"/>
    </g>
    <g id="eyeonly-b7410e" transform="translate(13300.735 7408.471)">
      <path id="Path_472525" data-name="Path 472525" d="M77.131,277.172C71.79,242.537,80.8,227.849,87.48,221.136c21.377-21.52,78.355-21.544,97.383-25.5a60.551,60.551,0,0,0,16.751-5.127,113.872,113.872,0,0,0,10.993-5.627,72.191,72.191,0,0,1-12.459,16.382,73.734,73.734,0,0,1-8.083,6.832,270.918,270.918,0,0,1-40.978,24.227c-38.223,17.6-49.908,17.288-64.584,32.858a81.62,81.62,0,0,0-9.371,11.994Z" transform="translate(-71.527 -184.87)" fill="#fff" fill-rule="evenodd"/>
      <path id="Path_472526" data-name="Path 472526" d="M191.3,203.71a213.424,213.424,0,0,1-21.961,14.736,259.466,259.466,0,0,1-29.067,14.414c-17.347,7.618-26.015,11.434-31.9,13.52a58.229,58.229,0,0,0-16.155,8.405,55.7,55.7,0,0,0-7.511,6.76,77.984,77.984,0,0,1,12.137-16.489c11.136-11.505,22.653-15.988,46.033-24.393C163.21,213.355,179.865,207.632,191.3,203.71Z" transform="translate(-69.761 -181.25)" fill="#fff"/>
      <path id="Path_472527" data-name="Path 472527" d="M135.14,229.08" transform="translate(-60.064 -176.373)" fill="none" stroke="#666766" stroke-width="1" fill-rule="evenodd"/>
      <path id="Path_472528" data-name="Path 472528" d="M210.55,204.39c-23.249.763-46,24.155-70.08,27.922C184.679,231.967,194.86,210.423,210.55,204.39Z" transform="translate(-59.039 -181.119)" fill="#fff" fill-rule="evenodd"/>
      <path id="Path_472529" data-name="Path 472529" d="M83.032,279.656c2.3,1.085,21.866,9.848,42.539-.68s25.085-31.618,25.6-34.134c.167-.93.37-2.182.489-3.66.393-4.936-.441-7.666-.083-7.762.584-.155,4.066,6.486,4.519,14.844a39.513,39.513,0,0,1-1.133,10.873c-8.25,32-30.724,37.2-30.724,37.2C109.631,299.686,93.428,293.021,83.032,279.656Zm-5.544.083c-8.513,12.662-5.651,25.323.5,37.985.31-7.154.99-14.307,8-21.46-5.508-5.532-7.022-11.028-8.5-16.525Zm83.827-31.082" transform="translate(-72.17 -175.539)" fill="#fff" fill-rule="evenodd"/>
      <path id="Path_472530" data-name="Path 472530" d="M93.75,267.528a34.727,34.727,0,0,1,3.779-7.642,37.033,37.033,0,0,1,3.231-4.173,40.537,40.537,0,0,1,17.466-11.076c.382-.119,2.575-.751,5.449-1.466,1.061-.274,1.943-.477,2.563-.62C131.592,258.812,116.88,278.425,93.75,267.528Z" transform="translate(-68.021 -173.783)" fill="#fff" fill-rule="evenodd"/>
    </g>
  </g>
</svg>
