<?xml version="1.0" encoding="utf-8"?>
<!-- Generator: Adobe Illustrator 22.0.0, SVG Export Plug-In . SVG Version: 6.00 Build 0)  -->
<svg version="1.1" id="Ravencoin" xmlns="http://www.w3.org/2000/svg" xmlns:xlink="http://www.w3.org/1999/xlink" x="0px" y="0px"
	 viewBox="0 0 245 245" style="enable-background:new 0 0 245 245;" xml:space="preserve">
<style type="text/css">
	.st0{fill:#F05239;}
	.st1{fill:#FFFFFF;}
</style>
<path id="Main-F" class="st0" d="M0,122.5C0,190,55,245,122.5,245S245,190,245,122.5S190,0,122.5,0S0,55,0,122.5z"/>
<g id="RVN">
	<path class="st1" d="M75.5,198L101,80.5l15,88L75.5,198z M102,80.5c0,0,0,0.1,0.1,0.3c1,5.9,14.9,87.7,14.9,87.7l24.5,0.5L102,80.5
		z M155.5,87.5L163,96l-19,71L155.5,87.5z M103.5,77.5l31-21L149,63L103.5,77.5z M111.5,57l19.5-0.5L108.5,65L111.5,57z"/>
	<path class="st1" d="M142.5,168.5l-40-89.5l52.5,7L142.5,168.5z M102.5,77l6-10.5l25-10L102.5,77z M111.5,56l7-6.5l13.5,6L111.5,56
		z M119,48.5l9.5-4.5l13,14.5L119,48.5z M129.5,43.5H140l6,6.5L129.5,43.5z M146,52l3,10l-6-3L146,52z"/>
	<path class="st1" d="M104.5,78L149,64l5.5,21.5L104.5,78z M130.5,45l12,13l2.5-7L130.5,45z M146.5,50.5l3.5,12l19.5-5.5L146.5,50.5
		z"/>
</g>
</svg>
