<?xml version="1.0" encoding="UTF-8" standalone="no"?>
<svg
   xmlns:dc="http://purl.org/dc/elements/1.1/"
   xmlns:cc="http://creativecommons.org/ns#"
   xmlns:rdf="http://www.w3.org/1999/02/22-rdf-syntax-ns#"
   xmlns:svg="http://www.w3.org/2000/svg"
   xmlns="http://www.w3.org/2000/svg"
   id="svg833"
   version="1.1"
   viewBox="0 0 67.733332 67.733335"
   height="256"
   width="256">
  <defs
     id="defs827" />
  <metadata
     id="metadata830">
    <rdf:RDF>
      <cc:Work
         rdf:about="">
        <dc:format>image/svg+xml</dc:format>
        <dc:type
           rdf:resource="http://purl.org/dc/dcmitype/StillImage" />
        <dc:title></dc:title>
      </cc:Work>
    </rdf:RDF>
  </metadata>
  <g
     id="g1468">
    <g
       transform="translate(9.9999982e-8,-229.26665)"
       style="fill:#e6523e;fill-opacity:1"
       id="g907">
      <path
         style="fill:#e6523e;fill-opacity:1;stroke-width:0.13229166"
         id="Full"
         class="cls-1"
         d="m 1.4552083,263.13332 c 0,17.87181 14.5396477,32.41146 32.4114577,32.41146 17.871811,0 32.411459,-14.53965 32.411459,-32.41146 0,-17.87181 -14.539648,-32.41146 -32.411459,-32.41146 -17.87181,0 -32.4114577,14.53965 -32.4114577,32.41146 z" />
    </g>
    <path
       style="fill:#ffffff;fill-opacity:1;stroke:none;stroke-width:0.28541917px;stroke-linecap:butt;stroke-linejoin:miter;stroke-opacity:1"
       d="M 6.8092977,31.198386 8.7240303,46.453468 11.297934,45.794298 9.1320879,37.256474 18.548806,44.03651 14.43684,28.373371 14.09156,37.444808 Z"
       id="path929" />
    <path
       style="fill:#ffffff;fill-opacity:1;stroke:none;stroke-width:0.28541917px;stroke-linecap:butt;stroke-linejoin:miter;stroke-opacity:1"
       d="m 16.382961,35.467299 3.076127,-13.905355 7.125317,-1.97751 -0.03139,15.945643 -2.699458,-0.03139 v -6.842813 l -4.771137,0.06278 v 6.811426 z"
       id="path931" />
    <path
       style="fill:#e6523e;fill-opacity:1;stroke:none;stroke-width:0.28541917px;stroke-linecap:butt;stroke-linejoin:miter;stroke-opacity:1"
       d="m 19.179285,26.32355 4.572256,-4.427985 0.0111,4.450181 z"
       id="path935" />
    <path
       style="fill:#ffffff;fill-opacity:1;stroke:none;stroke-width:0.07011873;stroke-linecap:butt;stroke-linejoin:miter;stroke-miterlimit:4;stroke-dasharray:none;stroke-opacity:1"
       d="m 29.300394,22.239593 -3.963704,23.923527 4.008095,-0.03016 -0.04439,-10.232087 6.969363,0.04439 0.0222,10.209889 4.017372,-0.0222 0.0222,-23.92666 -3.995174,10.209893 h -7.013751 z"
       id="path939" />
    <path
       style="fill:#ffffff;fill-opacity:1;stroke:none;stroke-width:0.28541917px;stroke-linecap:butt;stroke-linejoin:miter;stroke-opacity:1"
       d="m 47.677854,34.839516 h 2.730848 l 0.03139,-15.97703 -7.407819,1.883343 -2.730847,14.156465 2.730847,-0.06277 v -6.811427 l 4.67697,0.06277 z"
       id="path941" />
    <path
       style="fill:#e6523e;fill-opacity:1;stroke:none;stroke-width:0.10787497;stroke-linecap:butt;stroke-linejoin:miter;stroke-miterlimit:4;stroke-dasharray:none;stroke-opacity:1"
       d="m 43.122795,25.681759 4.541701,-4.34457 0.0042,4.355273 z"
       id="path943" />
    <path
       style="fill:#ffffff;fill-opacity:1;stroke:none;stroke-width:0.28541917px;stroke-linecap:butt;stroke-linejoin:miter;stroke-opacity:1"
       d="m 53.17094,29.848656 -4.739748,14.595913 2.479734,0.470835 1.69501,-8.380878 5.241972,9.667831 3.076128,-15.34925 -4.111966,7.815876 z"
       id="path945" />
  </g>
</svg>
