<?xml version="1.0" encoding="UTF-8"?>
<svg id="svg" width="380" height="380" version="1.1" viewBox="0 0 380 380" xmlns="http://www.w3.org/2000/svg">
 <circle cx="190" cy="190" r="190" fill="#fcdc6c" fill-rule="evenodd" stroke-width="2.0581"/>
 <g id="svgg" transform="matrix(.99783 0 0 .99783 -15.553 -15.553)" fill-rule="evenodd">
  <path d="m172.27 56.264c-0.148 0.148-0.269 2.847-0.269 5.999v5.729l-35.8 0.208-0.111 5.894-0.11 5.893-10.89 0.107-10.889 0.106-0.111 5.889-0.11 5.89-5.89 0.11-5.889 0.111-0.224 9.776-9.776 0.224-0.111 5.889-0.11 5.89-5.89 0.11-5.889 0.111-0.106 10.889-0.107 10.89-5.893 0.11-5.894 0.111-0.104 17.889-0.104 17.89-5.896 0.11-5.896 0.111v67.6l5.896 0.111 5.895 0.11 0.105 16.89 0.104 16.889 5.894 0.111 5.893 0.11 0.107 10.89 0.106 10.889 5.9 0.111 5.9 0.11v5.766c0 3.625 0.157 5.863 0.423 6.027 0.233 0.144 5.093 0.131 10.8-0.03l10.377-0.292v-5.466c0-6.836-0.414-6.426 6.48-6.426h5.52v-4.52c0-5.669-0.189-5.48 5.48-5.48h4.52v-11.2h-4.52c-5.755 0-5.48 0.325-5.48-6.48v-5.52h-5.52c-6.805 0-6.48 0.275-6.48-5.48v-4.52h-5.52c-3.76 0-5.673-0.153-6-0.48-0.69-0.69-0.69-35.15 0-35.84 0.327-0.327 2.24-0.48 6-0.48h5.52v-10.52c0-12.622-0.645-11.48 6.48-11.48h5.52v-16.52c0-19.331-0.58-17.48 5.48-17.48h4.52v-11.52c0-13.768-0.669-12.48 6.48-12.48h5.52v-10.52c0-12.622-0.645-11.48 6.48-11.48h5.52v-5.52c0-6.898-0.418-6.48 6.48-6.48h5.52v-4.52c0-5.669-0.189-5.48 5.48-5.48h4.52v-5.52c0-3.76 0.153-5.673 0.48-6 0.693-0.693 45.147-0.693 45.84 0 0.327 0.327 0.48 2.24 0.48 6v5.52h5.52c6.805 0 6.48-0.275 6.48 5.48v4.52h5.52c6.898 0 6.48-0.418 6.48 6.48v5.52h4.52c5.964 0 5.48-1.015 5.48 11.48v10.52h5.52c7.149 0 6.48-1.288 6.48 12.48v11.52h5.52c7.125 0 6.48-1.142 6.48 11.48v10.52h4.52c6.06 0 5.48-1.851 5.48 17.48v16.52h5.551c4.203 0 5.661 0.133 6.004 0.546 0.326 0.393 0.424 5.525 0.349 18.3l-0.104 17.754-5.888 0.111-5.888 0.11-0.112 4.89-0.112 4.889-9.779 0.224-0.11 5.888-0.111 5.888-5.9 0.111-5.9 0.11v11.179h5.52c6.805 0 6.48-0.275 6.48 5.48v4.52h4.52c5.75 0 5.48-0.316 5.48 6.416v5.457l8.464 0.263c4.656 0.145 9.966 0.264 11.8 0.264h3.336v-12h12v-22h10v-34h12.005l-0.103-33.9-0.102-33.9-5.896-0.111-5.896-0.11-0.104-17.89-0.104-17.889-4.894-0.112-4.893-0.113-0.107-10.887-0.106-10.888-5.889-0.111-5.89-0.11-0.11-5.89-0.111-5.889-5.888-0.111-5.888-0.11-0.112-4.89-0.112-4.889-5.889-0.111-5.89-0.11-0.11-5.89-0.111-5.889-10.889-0.106-10.89-0.107-0.11-5.893-0.111-5.894-16.889-0.104-16.89-0.105-0.11-5.895-0.111-5.896-33.631-0.102c-18.497-0.056-33.752 0.019-33.9 0.166m43.911 58.245c-0.113 0.292-0.154 2.952-0.092 5.911l0.112 5.38 5.888 0.111 5.888 0.11 0.112 4.89 0.112 4.889 11.825 0.222-0.113-4.911-0.112-4.911-5.889-0.111-5.89-0.11-0.11-5.89-0.111-5.889-5.708-0.111c-4.456-0.087-5.753 5e-3 -5.912 0.42m-55.78 62.691v4.8h11.6v-9.6h-11.6v4.8m68 0v4.8h11.6v-9.6h-11.6v4.8m-56.089 45.1-0.111 5.9-23.779 0.212-0.11 5.894-0.111 5.894-5.9 0.111-5.9 0.11v11.179h35.2v-5.52c0-3.76 0.153-5.673 0.48-6 0.755-0.755 33.253-0.683 33.882 0.075 0.312 0.376 0.425 2.404 0.349 6.3l-0.111 5.745-23.8 0.212v9.188h33.2v-4.52c0-5.755-0.325-5.48 6.48-5.48h5.52v-11.2h-5.52c-6.898 0-6.48 0.418-6.48-6.48v-5.52h-4.52c-5.755 0-5.48 0.325-5.48-6.48v-5.52h-33.179l-0.11 5.9m-58.148 98.251c-0.103 0.269-0.137 2.91-0.075 5.869l0.112 5.38 10.888 0.106 10.887 0.107 0.113 4.893 0.112 4.894 35.779 0.208 0.11 5.896 0.111 5.896 33.9 0.102 33.9 0.103v-12.005h34v-10h22.021l-0.11-5.9-0.111-5.9-90.724-0.069c-71.218-0.055-90.765 0.036-90.913 0.42" fill="#fcdc6c"/>
  <path d="m160.31 40.3-0.111 5.9-23.775 0.212-0.113 4.894-0.112 4.894-10.889 0.106-10.89 0.107-0.11 5.893-0.111 5.894-10.889 0.106-10.89 0.107-0.11 5.893-0.111 5.894-5.889 0.111-5.89 0.11-0.11 5.89-0.111 5.889-5.894 0.111-5.893 0.11-0.107 10.89-0.106 10.889-5.894 0.111-5.893 0.11-0.107 10.89-0.106 10.889-4.894 0.112-4.894 0.113-0.106 11.887-0.106 11.888-5.9 0.111-5.9 0.11v91.158l5.9 0.11 5.9 0.111 0.106 10.888 0.107 10.887 4.893 0.113 4.894 0.112 0.106 10.889 0.107 10.89 5.893 0.11 5.894 0.111 0.106 11.889 0.106 11.89 5.894 0.11 5.894 0.111 0.111 5.889 0.11 5.89 5.89 0.11 5.889 0.111 0.112 4.894 0.113 4.893 10.887 0.107 10.888 0.106 0.111 5.894 0.11 5.893 10.89 0.107 10.889 0.106 0.111 5.894 0.11 5.894 23.779 0.212 0.112 4.9 0.113 4.9h91.15l0.113-4.9 0.112-4.9 10.889-0.106 10.89-0.107 0.11-5.893 0.111-5.894 10.889-0.106 10.89-0.107 0.11-5.893 0.111-5.894 23.775-0.212 0.113-4.894 0.112-4.894 5.889-0.111 5.89-0.11 0.11-5.89 0.111-5.889 4.894-0.112 4.894-0.113 0.106-11.887 0.106-11.888 5.894-0.111 5.893-0.11 0.107-10.89 0.106-10.889 5.894-0.111 5.893-0.11 0.107-10.89 0.106-10.889 4.9-0.112 4.9-0.113v-91.15l-4.9-0.113-4.9-0.112-0.106-11.889-0.106-11.89-5.894-0.11-5.894-0.111-0.106-10.889-0.107-10.89-5.893-0.11-5.894-0.111-0.106-10.888-0.107-10.887-4.893-0.113-4.894-0.112-0.111-5.889-0.11-5.89-5.89-0.11-5.889-0.111-0.111-5.894-0.11-5.894-23.779-0.212-0.111-5.894-0.11-5.893-10.89-0.107-10.889-0.106-0.112-4.894-0.113-4.893-10.887-0.107-10.888-0.106-0.111-5.9-0.11-5.9h-91.158l-0.11 5.9m79.6 21.796 0.11 5.895 16.89 0.105 16.889 0.104 0.111 5.894 0.11 5.893 10.89 0.107 10.889 0.106 0.111 5.889 0.11 5.89 5.89 0.11 5.889 0.111 0.112 4.889 0.112 4.89 5.888 0.11 5.888 0.111 0.111 5.889 0.11 5.89 5.89 0.11 5.889 0.111 0.106 10.888 0.107 10.887 4.893 0.113 4.894 0.112 0.104 17.889 0.104 17.89 5.896 0.11 5.896 0.111 0.102 33.9 0.103 33.9h-12.005v34h-10v22h-12v12h-11.579l-0.111 6.1-0.11 6.1h-12.4l-0.111-5.888-0.11-5.888-9.779-0.224-0.111-5.889-0.11-5.89-5.89-0.11-5.889-0.111-0.112-4.889-0.112-4.89-5.888-0.11-5.888-0.111v-12.4l5.889-0.111 5.89-0.11 0.11-5.89 0.111-5.889 5.888-0.111 5.888-0.11 0.112-4.89 0.112-4.889 4.9-0.112 4.9-0.113v-35.15l-4.9-0.113-4.9-0.112-0.104-16.889-0.105-16.89-5.895-0.11-5.896-0.111-0.106-10.889-0.107-10.89-5.893-0.11-5.894-0.111-0.106-11.888-0.106-11.887-4.894-0.113-4.894-0.112-0.106-10.889-0.107-10.89-5.893-0.11-5.894-0.111-0.111-5.889-0.11-5.89-5.89-0.11-5.889-0.111-0.112-4.9-0.113-4.9h-45.15l-0.113 4.9-0.112 4.9-9.779 0.224-0.11 5.888-0.111 5.888-5.894 0.111-5.893 0.11-0.107 10.89-0.106 10.889-5.9 0.111-5.9 0.11v23.167l23.8 0.212-0.129 10.995c-0.07 6.048-0.16 11.025-0.2 11.062-0.039 0.037-5.471 0.129-12.071 0.205l-12 0.138-0.106-10.9-0.107-10.9h-11.178l-0.105 16.9-0.104 16.9-4.894 0.112-4.893 0.113-0.107 10.887-0.106 10.888-5.9 0.111-5.9 0.11v35.179h11.179l0.11-5.9 0.111-5.9 9.779-0.224 0.11-5.888 0.111-5.888 5.889-0.111 5.89-0.11 0.11-5.89 0.111-5.889 23.775-0.212 0.113-4.894 0.112-4.894h34.4l0.224 9.776 9.776 0.224 0.111 5.894 0.11 5.894 23.779 0.212v24.4l-5.888 0.111-5.888 0.11-0.112 4.89-0.112 4.889-5.889 0.111-5.89 0.11-0.11 5.89-0.111 5.889h-44.4l-0.111-5.9-0.11-5.9h-35.179v11.179l5.9 0.11 5.9 0.111 0.111 5.889 0.11 5.89 5.89 0.11 5.889 0.111 0.106 10.889 0.107 10.89 5.893 0.11 5.894 0.111 0.11 6.1 0.111 6.1h55.158l0.111-6.1 0.11-6.1 5.894-0.111 5.893-0.11 0.107-10.89 0.106-10.889h12.4v22.4l-5.9 0.111-5.9 0.11v11.574l27.7 0.102 27.7 0.103 0.111 5.9 0.11 5.9h-22.021v10h-34v12.005l-67.8-0.205-0.111-5.896-0.11-5.896-35.779-0.208-0.112-4.894-0.113-4.893-10.887-0.107-10.888-0.106v-11.6l45.4-0.207v-11.572l-5.9-0.11-5.9-0.111-0.106-10.9-0.107-10.9h-11.162l-0.113 4.9-0.112 4.9-9.779 0.224-0.11 5.888-0.111 5.888-5.889 0.111-5.89 0.11-0.11 5.89-0.111 5.889h-12.4l-0.11-6.087-0.111-6.088-4.689-0.112-4.69-0.113-0.111-5.889-0.11-5.89-5.89-0.11-5.889-0.111-0.106-10.889-0.107-10.89-5.893-0.11-5.894-0.111-0.104-16.889-0.105-16.89-5.895-0.11-5.896-0.111v-67.6l5.896-0.111 5.896-0.11 0.104-17.89 0.104-17.889 5.894-0.111 5.893-0.11 0.107-10.89 0.106-10.889 5.889-0.111 5.89-0.11 0.11-5.89 0.111-5.889 9.776-0.224 0.224-9.776 5.889-0.111 5.89-0.11 0.11-5.89 0.111-5.889 10.889-0.106 10.89-0.107 0.11-5.893 0.111-5.894 35.8-0.208v-5.729c0-3.152 0.121-5.851 0.269-5.999 0.148-0.147 15.403-0.222 33.9-0.166l33.631 0.102 0.111 5.896m-12 57.993 0.11 5.89 5.89 0.11 5.889 0.111 0.112 4.911 0.113 4.911-11.825-0.222-0.112-4.889-0.112-4.89-5.888-0.11-5.888-0.111-0.112-5.38c-0.148-7.093-0.746-6.462 6.004-6.331l5.708 0.111 0.111 5.889m12.16 50.706c-0.07 6.048-0.16 11.025-0.2 11.062-0.039 0.037-5.471 0.129-12.071 0.205l-12 0.138-0.107-10.794c-0.058-5.937-0.018-11.024 0.09-11.306 0.155-0.403 2.761-0.489 12.307-0.406l12.11 0.106-0.129 10.995m-113.67 86.205v4.6h9.2v-9.2h-9.2v4.6" fill="#fcc40c"/>
  <path d="m159.6 27.6v6h-34v12h-12v10h-22v12h-12v12h-12v12h-12v22h-10v12h-12v34h-12v92.8h12v34h12v10h10v24h12v12h12v10h12v12h22v12h12v10h34v14h92.8v-14h34v-10h10v-12h24v-12h12v-10h10v-12h12v-24h12v-10h10v-34h14v-92.8h-14v-34h-10v-12h-12v-22h-12v-12h-10v-12h-12v-12h-24v-10h-10v-12h-34v-12h-92.8v6m92.711 12.494 0.11 5.893 10.89 0.107 10.889 0.106 0.112 4.894 0.113 4.893 10.887 0.107 10.888 0.106 0.111 5.894 0.11 5.894 23.779 0.212 0.111 5.889 0.11 5.89 5.89 0.11 5.889 0.111 0.111 5.888 0.11 5.888 9.779 0.224 0.106 10.889 0.107 10.89 5.893 0.11 5.894 0.111 0.106 10.889 0.107 10.89 5.893 0.11 5.894 0.111 0.106 11.888 0.106 11.887 4.894 0.113 4.894 0.112 0.102 45.557c0.074 33.333-0.02 45.703-0.349 46.1-0.332 0.399-1.657 0.543-5.002 0.543h-4.551v10.52c0 12.622 0.645 11.48-6.48 11.48h-5.52v10.52c0 12.622 0.645 11.48-6.48 11.48h-5.52v11.52c0 13.634 0.507 12.48-5.48 12.48h-4.52v5.52c0 6.898 0.418 6.48-6.48 6.48h-5.52v4.52c0 5.987 1.154 5.48-12.48 5.48h-11.52v5.52c0 7.125 1.142 6.48-11.48 6.48h-10.52v5.52c0 7.125 1.142 6.48-11.48 6.48h-10.52v4.551c0 3.345-0.144 4.67-0.543 5.002-0.397 0.329-12.767 0.423-46.1 0.349l-45.557-0.102-0.112-4.894-0.113-4.894-23.775-0.212-0.111-5.894-0.11-5.893-10.89-0.107-10.889-0.106-0.111-5.894-0.11-5.893-10.89-0.107-10.889-0.106-0.112-4.889-0.112-4.89-5.888-0.11-5.888-0.111-0.111-5.889-0.11-5.89-5.89-0.11-5.889-0.111-0.106-11.889-0.106-11.89-5.894-0.11-5.894-0.111-0.106-10.888-0.107-10.887-4.893-0.113-4.894-0.112-0.106-10.889-0.107-10.89-5.893-0.11-5.894-0.111-0.102-46.089-0.101-46.09 5.901-0.11 5.902-0.111 0.106-11.888 0.106-11.887 4.894-0.113 4.894-0.112 0.106-10.889 0.107-10.89 5.893-0.11 5.894-0.111 0.106-10.889 0.107-10.89 5.893-0.11 5.894-0.111 0.111-5.889 0.11-5.89 5.89-0.11 5.889-0.111 0.111-5.894 0.11-5.893 10.89-0.107 10.889-0.106 0.111-5.894 0.11-5.893 10.89-0.107 10.889-0.106 0.112-4.894 0.113-4.894 23.775-0.212 0.111-5.902 0.11-5.901 46.09 0.101 46.089 0.102 0.111 5.894m-69.911 46.106v5.8h45.2v-11.6h-45.2v5.8m-10 11.013v4.812l4.7-0.112 4.7-0.113 0.113-4.7 0.112-4.7h-9.625v4.813m56-0.013v4.8h11.2v-9.6h-11.2v4.8m-68 11.011v5.811l11.4-0.222 0.222-11.4h-11.622v5.811m80-0.011v5.8h11.2v-11.6h-11.2v5.8m-92 17.011v10.811l11.4-0.222 0.107-10.7 0.106-10.7h-11.613v10.811m104-0.011v10.8h9.2v-21.6h-9.2v10.8m-116 23.011v11.811l11.4-0.222 0.212-23.4h-11.612v11.811m126-0.011v11.8h11.2v-23.6h-11.2v11.8m-136 29.013v16.812l4.7-0.112 4.7-0.113 0.104-16.7 0.105-16.7h-9.609v16.813m22-6.013v10.8h11.2v-4.72c0-5.998-0.374-5.68 6.68-5.68h5.72v-11.2h-23.6v10.8m68 0v10.8h11.2v-4.72c0-5.998-0.374-5.68 6.68-5.68h5.72v-11.2h-23.6v10.8m58 0v10.8h11.2v-21.6h-11.2v10.8m12 28v16.8h9.2v-33.6h-9.2v16.8m-172 6.011v10.811l11.4-0.222 0.107-10.7 0.106-10.7h-11.613v10.811m58 5.789v4.6h33.6v-9.2h-33.6v4.6m-70 23v17.6h11.6v-35.2h-11.6v17.6m46-12v5.6h23.2v-11.2h-23.2v5.6m58 0v5.6h9.6v-11.2h-9.6v5.6m90 12v17.6h11.2v-35.2h-11.2v17.6m-160 0v5.6h11.2v-11.2h-11.2v5.6m80 0v5.6h5.52c6.914 0 6.48-0.448 6.48 6.691v5.731l11.4-0.222 0.212-23.4h-23.612v5.6m-90 12.2v5.8h9.2v-11.6h-9.2v5.8m45.911 0.1-0.111 5.9-35.8 0.208v9.584l35.8 0.208 0.111 5.903 0.11 5.904 21.69-0.104 21.689-0.103 0.222-11.4h-16.731c-19.556 0-17.691 0.569-17.691-5.4 0-5.894-1.141-5.4 12.48-5.4h11.52v-11.2h-33.179l-0.11 5.9m-57.911 10.7v4.6h11.6v-9.2h-11.6v4.6m102 0.211v4.811l11.4-0.222 0.113-4.7 0.112-4.7h-11.625v4.811m70-0.211v4.6h9.2v-9.2h-9.2v4.6m-160 11v5.6h9.6v-11.2h-9.6v5.6m148 0v5.6h11.2v-11.2h-11.2v5.6m-138 12.211v5.811l11.4-0.222 0.222-11.4h-11.622v5.811m126-0.011v5.8h11.2v-11.6h-11.2v5.8m-136 11.013v4.812l4.7-0.112 4.7-0.113 0.113-4.7 0.112-4.7h-9.625v4.813m22 5.998v10.811l11.4-0.222 0.107-10.7 0.106-10.7h-11.613v10.811m92 0v10.811l11.4-0.222 0.107-10.7 0.106-10.7h-11.613v10.811m34-6.011v4.8h11.2v-9.6h-11.2v4.8m-160 11.011v5.811l11.4-0.222 0.222-11.4h-11.622v5.811m172-0.011v5.8h9.2v-11.6h-9.2v5.8m-184 12.011v5.811l11.4-0.222 0.222-11.4h-11.622v5.811m58-0.211v5.6h11.6v-11.2h-11.6v5.6m68 0v5.6h11.6v-11.2h-11.6v5.6m68 0.211v5.811l11.4-0.222 0.222-11.4h-11.622v5.811" fill="#947404"/>
  <path d="m252.16 40c0 3.19 0.062 4.495 0.138 2.9s0.076-4.205 0-5.8-0.138-0.29-0.138 2.9m21.994 11c0 2.64 0.065 3.668 0.144 2.284 0.078-1.383 0.077-3.543-2e-3 -4.8-0.079-1.256-0.143-0.124-0.142 2.516m22.006 11c0 3.19 0.062 4.495 0.138 2.9s0.076-4.205 0-5.8-0.138-0.29-0.138 2.9m24 12c0 3.19 0.062 4.495 0.138 2.9s0.076-4.205 0-5.8-0.138-0.29-0.138 2.9m-137.89 6.263c-0.149 0.149-0.27 2.845-0.27 5.991v5.721l-4.9 0.113-4.9 0.112-0.112 4.889-0.112 4.89-5.888 0.11-5.888 0.111-0.111 5.889-0.11 5.89-5.89 0.11-5.889 0.111-0.106 10.889-0.107 10.89-5.893 0.11-5.894 0.111-0.106 11.888-0.106 11.887-4.894 0.113-4.894 0.112-0.104 16.889-0.105 16.89-5.895 0.11-5.896 0.111-0.106 10.889-0.107 10.89-5.893 0.11-5.894 0.111v35.6l5.888 0.111 5.888 0.11 0.112 4.89 0.112 4.889 5.889 0.111 5.89 0.11 0.11 5.89 0.111 5.889 4.9 0.112 4.9 0.113v11.95l-4.9 0.113-4.9 0.112-0.112 4.889-0.112 4.89-5.888 0.11-5.888 0.111-0.111 5.889-0.11 5.89-5.89 0.11-5.889 0.111-0.016 5.6-0.017 5.6 0.127-5.489 0.128-5.49 5.889-0.11 5.889-0.111 0.111-5.889 0.11-5.89 5.89-0.11 5.889-0.111 0.224-9.776 9.776-0.224 0.111-5.9 0.11-5.9 11.379-0.146-6.6-0.272c-3.63-0.149-8.445-0.296-10.7-0.327l-4.1-0.055v-11.175l4.9-0.113 4.9-0.112 0.112-4.896 0.113-4.896 35.775-0.208 0.111-5.9 0.11-5.9h33.179v11.188l-11.7 0.112-11.7 0.113 11.911 0.093 11.91 0.094-0.11-5.9-0.111-5.9h-33.6l-0.111 5.9-0.11 5.9h-35.979v-12h12v-12h24v-12h33.979l0.11 5.9 0.111 5.9 9.779 0.224 0.11 5.888 0.111 5.888 5.8 0.018 5.8 0.017-5.7-0.128-5.7-0.129v-11.178l11.7-0.077 11.7-0.076-13.4-0.267c-7.37-0.148-14.885-0.293-16.7-0.324l-3.3-0.056v-11.2l4.7-0.069 4.7-0.07-5.6-0.282c-3.08-0.155-12.845-0.303-21.7-0.33l-16.1-0.049v-9.191l33.4-0.222-16.8 6e-3 -16.8 7e-3 -0.112 4.894-0.113 4.894-23.775 0.212-0.111 5.889-0.11 5.89-5.89 0.11-5.889 0.111-0.111 5.888-0.11 5.888-9.779 0.224-0.111 5.9-0.11 5.9-3.09-1e-3c-1.699-1e-3 -7.004-0.119-11.789-0.264l-8.7-0.262v-35.052l5.9-0.11 5.9-0.111 0.106-10.889 0.107-10.89 5.893-0.11 5.894-0.111 0.104-16.888 0.105-16.887 4.895-0.113 4.896-0.112 0.106-11.889 0.106-11.89 5.894-0.11 5.894-0.111 0.106-10.889 0.107-10.89 5.893-0.11 5.894-0.111 0.111-5.889 0.11-5.89 5.89-0.11 5.889-0.111 0.224-9.776 9.776-0.224 0.111-5.9 0.11-5.9h45.179l0.049 5.1c0.027 2.805 0.175 7.62 0.33 10.7l0.282 5.6 0.07-4.7 0.069-4.7h11.2l0.055 4.1c0.031 2.255 0.178 7.07 0.327 10.7l0.272 6.6 0.146-11.4h11.2l0.053 4.3c0.029 2.365 0.175 9.88 0.325 16.7l0.272 12.4 0.15-21.4h9.2l0.056 9.3c0.031 5.115 0.176 15.33 0.324 22.7l0.267 13.4 0.076-11.7 0.077-11.7h11.2l0.053 10.3c0.029 5.665 0.175 15.88 0.325 22.7l0.272 12.4 0.15-21.4h11.2l0.057 8.7c0.032 4.785 0.177 17.25 0.322 27.7l0.265 19 0.156-33.4h9.069l0.265 25.266c0.146 13.896 0.266 29.551 0.266 34.788v9.521l-4.9 0.113-4.9 0.112-0.112 4.889-0.112 4.89-5.888 0.11-5.888 0.111-0.111 5.889-0.11 5.89-5.89 0.11-5.889 0.111-0.016 5.6-0.017 5.6 0.128-5.5 0.127-5.5h11.178l0.049 5.1c0.027 2.805 0.175 7.62 0.33 10.7l0.282 5.6 0.07-4.7 0.069-4.7h11.2l0.055 4.1c0.031 2.255 0.178 7.07 0.327 10.7l0.272 6.6 0.146-11.4h9.105l0.348 11.7c0.28 9.436 0.368 10.599 0.458 6.011l0.111-5.689 11.378-0.246-11.779-0.176-0.11-5.9-0.111-5.9-9.776-0.224-0.224-9.776-5.9-0.111-5.9-0.11v-11.979h12v-12h10v-10h12.008l-0.208-35.8-5.896-0.111-5.895-0.11-0.105-16.89-0.104-16.889-4.894-0.112-4.893-0.113-0.107-10.887-0.106-10.888-5.894-0.111-5.894-0.11-0.106-11.89-0.106-11.889-5.894-0.111-5.893-0.11-0.107-10.89-0.106-10.889-9.779-0.224-0.11-5.888-0.111-5.888-5.888-0.111-5.888-0.11-0.112-4.89-0.112-4.889-5.889-0.111-5.89-0.11-0.11-5.89-0.111-5.889-22.63-0.103c-12.447-0.057-22.752 0.018-22.9 0.166m149.89 5.737c0 3.19 0.062 4.495 0.138 2.9s0.076-4.205 0-5.8-0.138-0.29-0.138 2.9m10.016 17c0 5.94 0.056 8.426 0.124 5.524s0.068-7.762 0-10.8-0.124-0.664-0.124 5.276m12 22c0 5.94 0.056 8.426 0.124 5.524s0.068-7.762 0-10.8-0.124-0.664-0.124 5.276m12.002 23c0 6.49 0.055 9.145 0.122 5.9s0.067-8.555 0-11.8-0.122-0.59-0.122 5.9m-218.18 22.8 0.199 11 0.214-21.388 11.694-0.106 11.693-0.107-12-0.199-12-0.2 0.2 11m68.181-10.293c-0.107 0.278-0.144 5.183-0.081 10.9l0.114 10.393 0.186-21.388 11.7-0.112 11.7-0.113-11.713-0.093c-9.151-0.074-11.755 0.017-11.906 0.413m160.01 45.493c0 25.19 0.048 35.495 0.107 22.9s0.059-33.205 0-45.8-0.107-2.29-0.107 22.9m-212.88-34.102c1.715 0.075 4.415 0.074 6-1e-3 1.585-0.076 0.182-0.138-3.118-0.137s-4.597 0.062-2.882 0.138m68 0c1.715 0.075 4.415 0.074 6-1e-3 1.585-0.076 0.182-0.138-3.118-0.137s-4.597 0.062-2.882 0.138m-71.564 5.302c0 2.75 0.064 3.875 0.142 2.5s0.078-3.625 0-5-0.142-0.25-0.142 2.5m68 0c0 2.75 0.064 3.875 0.142 2.5s0.078-3.625 0-5-0.142-0.25-0.142 2.5m-56.154 44.8v5.6h-23.2v-11.2h23.2v5.6m136 12v17.6h-11.2v-35.2h11.2v17.6m-160 0v5.6h-11.2v-11.2h11.2v5.6m-11.818 17.029c0.161 5.846 0.199 10.723 0.085 10.838-0.115 0.114-4.992 0.076-10.838-0.085l-10.629-0.293v-9.068l5.9-0.11 5.9-0.111 0.111-5.9 0.11-5.9h9.068l0.293 10.629m92.306-4.94-0.088 5.89-5.9 0.11-5.9 0.111-0.112 4.896-0.113 4.895-33.775 0.222 17-6e-3 17-7e-3 0.112-4.9 0.113-4.9h5.8c6.853 0 6.237 0.671 6.075-6.619l-0.125-5.581-0.087 5.889m-190.99 6.208c1.595 0.076 4.205 0.076 5.8 0s0.29-0.138-2.9-0.138-4.495 0.062-2.9 0.138m329.08 0.21c-0.107 0.278-0.144 5.183-0.081 10.9l0.114 10.393 0.093-10.687 0.093-10.688 4.7-0.126 4.7-0.127-4.713-0.086c-3.498-0.064-4.762 0.045-4.906 0.421m-184.43 4.493c0 2.64 0.065 3.668 0.144 2.284 0.078-1.383 0.077-3.543-2e-3 -4.8-0.079-1.256-0.143-0.124-0.142 2.516m113.85 0v4.6h-9.2v-9.2h9.2v4.6m-123.44 11c0 3.19 0.062 4.495 0.138 2.9s0.076-4.205 0-5.8-0.138-0.29-0.138 2.9m113.44 0v5.6h-11.2v-11.2h11.2v5.6m-236.88 6.297c1.383 0.078 3.543 0.077 4.8-2e-3 1.256-0.079 0.124-0.143-2.516-0.142-2.64 0-3.668 0.065-2.284 0.144m305.46 0.21c-0.107 0.278-0.144 5.183-0.081 10.9l0.114 10.393 0.186-21.378 11.4-0.246-5.713-0.088c-4.306-0.066-5.76 0.037-5.906 0.419m-206.18 22.293 0.199 11 0.214-21.378 5.694-0.112 5.693-0.113-6-0.198-6-0.199 0.2 11m92.267-10.533c-0.147 0.146-0.267 5.092-0.267 10.989v10.723l-5.9 0.11-5.9 0.111v11.6l11.6 0.032-5.7-0.127-5.7-0.126v-11.158l5.9-0.11 5.9-0.111 0.106-10.889 0.107-10.889 11.387-0.246-5.633-0.088c-3.099-0.048-5.754 0.032-5.9 0.179m-181.17 10.03c1.595 0.076 4.205 0.076 5.8 0s0.29-0.138-2.9-0.138-4.495 0.062-2.9 0.138m283.08 0.208c-0.107 0.278-0.143 5.633-0.081 11.9l0.113 11.395 0.093-11.689 0.094-11.689 11.4-0.246-5.713-0.088c-4.298-0.066-5.76 0.037-5.906 0.417m-182.18 17.295 0.2 6 11.6 0.032-5.7-0.127-5.7-0.126v-11.157l5.7-0.112 5.7-0.113-6-0.198-6-0.199 0.2 6m-88.9 6.497c1.595 0.076 4.205 0.076 5.8 0s0.29-0.138-2.9-0.138-4.495 0.062-2.9 0.138m261.08 0.223c-0.11 0.286-0.143 2.941-0.075 5.9l0.125 5.38 0.088-5.687 0.087-5.688 4.7-0.126 4.7-0.127-4.713-0.086c-3.561-0.065-4.761 0.041-4.912 0.434m-249.08 11.777c1.595 0.076 4.205 0.076 5.8 0s0.29-0.138-2.9-0.138-4.495 0.062-2.9 0.138m237.07 0.229c-0.111 0.289-0.143 2.494-0.072 4.9l0.129 4.374 0.17-9.378 11.4-0.246-5.713-0.088c-4.413-0.068-5.758 0.032-5.914 0.438m-222.45 9.773c3.038 0.068 7.898 0.068 10.8 0s0.416-0.124-5.524-0.124-8.314 0.056-5.276 0.124m198.45 0.221c-0.11 0.286-0.143 2.941-0.075 5.9l0.125 5.38 0.088-5.694 0.087-5.694 11.7-0.112 11.7-0.113-11.713-0.093c-9.31-0.075-11.753 0.013-11.912 0.426m-176.45 11.779c3.038 0.068 7.898 0.068 10.8 0s0.416-0.124-5.524-0.124-8.314 0.056-5.276 0.124m154.45 0.221c-0.11 0.286-0.143 2.941-0.075 5.9l0.125 5.38 0.088-5.693 0.087-5.694 10.7-0.113 10.7-0.114-10.713-0.093c-8.489-0.074-10.754 0.015-10.912 0.427m-132.08 11.779c3.245 0.067 8.555 0.067 11.8 0s0.59-0.122-5.9-0.122-9.145 0.055-5.9 0.122m110.07 0.227c-0.111 0.289-0.143 2.494-0.072 4.9l0.129 4.374 0.085-4.693 0.085-4.694 10.7-0.113 10.7-0.114-10.713-0.093c-8.546-0.074-10.753 0.013-10.914 0.433m-69.073 9.774c12.595 0.059 33.205 0.059 45.8 0s2.29-0.107-22.9-0.107-35.495 0.048-22.9 0.107" fill="#a8ac38"/>
  <path d="m160.09 39.9 0.088 5.9 0.123-5.698 0.123-5.699 91.778-0.206-92.2-0.197 0.088 5.9m92.258 6.207c0.169 0.168 5.155 0.258 11.081 0.199l10.773-0.107-11.081-0.199c-6.094-0.11-10.942-0.062-10.773 0.107m-116.26 4.793 0.086 4.9 0.127-4.694 0.126-4.694 11.688-0.112 11.687-0.113-11.9-0.093-11.9-0.094 0.086 4.9m138.26 5.207c0.169 0.168 5.155 0.258 11.081 0.199l10.773-0.107-11.081-0.199c-6.094-0.11-10.942-0.062-10.773 0.107m-160.26 5.793 0.088 5.9 0.123-5.693 0.123-5.694 10.689-0.113 10.689-0.114-21.8-0.186 0.088 5.9m182.26 6.206c0.168 0.169 5.605 0.258 12.08 0.2l11.774-0.107-12.08-0.199c-6.645-0.11-11.943-0.062-11.774 0.106m-204.26 5.794 0.088 5.9 0.123-5.693 0.123-5.694 10.689-0.113 10.689-0.114-21.8-0.186 0.088 5.9m228.26 6.211c0.172 0.172 2.909 0.261 6.081 0.199l5.769-0.113-6.081-0.198c-3.345-0.11-5.941-0.059-5.769 0.112m-240.26 5.789 0.088 5.9 0.246-11.378 11.378-0.246-11.8-0.176 0.088 5.9m147.83 0.125 0.12 5.988-46.24-0.213 0.396 10 0.115-4.697 0.114-4.696 22.888-0.104 22.887-0.103 0.111-5.769c0.062-3.172-0.028-5.909-0.2-6.081-0.171-0.172-0.257 2.382-0.191 5.675m104.43 6.088c0.173 0.173 2.46 0.262 5.081 0.198l4.767-0.115-5.081-0.198c-2.795-0.109-4.94-0.057-4.767 0.115m-264.26 10.787 0.093 10.9 0.114-10.689 0.113-10.689 11.387-0.246-11.8-0.176 0.093 10.9m171.83-5.861 0.123 5.002-6.004-0.121c-3.302-0.066-5.864 0.02-5.692 0.191 0.172 0.172 2.909 0.262 6.081 0.2l5.769-0.111 0.113-4.767c0.063-2.621-0.027-4.908-0.2-5.081-0.172-0.173-0.258 1.936-0.19 4.687m-67.924 10.761 0.198 6 0.113-5.687 0.112-5.688 4.689-0.114 4.689-0.115-10-0.396 0.199 6m79.921 0.239 0.121 6.002-6.002-0.121c-3.301-0.066-5.861 0.02-5.689 0.191 0.172 0.172 2.909 0.262 6.081 0.2l5.769-0.111 0.111-5.769c0.062-3.172-0.028-5.909-0.2-6.081-0.171-0.172-0.257 2.388-0.191 5.689m-91.92 16.761 0.199 11 0.214-21.378 5.694-0.112 5.693-0.113-6-0.198-6-0.199 0.2 11m182.35-10.689c0.172 0.172 2.909 0.261 6.081 0.199l5.769-0.113-6.081-0.198c-3.345-0.11-5.941-0.059-5.769 0.112m-286.26 10.789 0.093 10.9 0.114-10.689 0.113-10.689 11.387-0.246-11.8-0.176 0.093 10.9m205.82 0.143 0.113 11.003-4.994-0.123c-2.747-0.068-4.852 0.018-4.679 0.19 0.173 0.173 2.46 0.263 5.081 0.2l4.767-0.113 0.107-10.773c0.058-5.926-0.032-10.912-0.2-11.081-0.169-0.169-0.256 4.645-0.195 10.697m-114 22.877 0.112 12.119-6.112-0.119-6.111-0.12 0.4 34 0.104-16.689 0.105-16.69 5.895-0.11 5.896-0.111 0.212-23.778 5.694-0.112 5.694-0.113-6-0.198-6-0.199 0.111 12.12m206.44-11.809c0.172 0.172 2.909 0.261 6.081 0.199l5.769-0.113-6.081-0.198c-3.345-0.11-5.941-0.059-5.769 0.112m-308.26 11.789 0.093 11.9 0.113-11.687 0.112-11.688 4.694-0.126 4.694-0.127-9.8-0.172 0.094 11.9m227.82 0.14 0.111 12-5.993-0.12c-3.296-0.066-5.852 0.02-5.68 0.191 0.172 0.172 2.909 0.262 6.081 0.2l5.769-0.111 0.106-11.774c0.059-6.475-0.031-11.912-0.2-12.08-0.168-0.169-0.256 5.093-0.194 11.694m92.44 12.073c0.173 0.173 2.46 0.262 5.081 0.198l4.767-0.115-5.081-0.198c-2.795-0.109-4.94-0.057-4.767 0.115m-332.25 45.987 0.099 46.1 0.206-91.778 11.397-0.246-11.8-0.176 0.098 46.1m137.9-40.181 0.198 5.881 0.113-5.568c0.063-3.063-0.027-5.709-0.198-5.882-0.172-0.172-0.223 2.334-0.113 5.569m68 0 0.198 5.881 0.113-5.568c0.063-3.063-0.027-5.709-0.198-5.882-0.172-0.172-0.223 2.334-0.113 5.569m45.913 5.121 0.113 11-5.994-0.12c-3.296-0.066-5.853 0.02-5.681 0.191 0.172 0.172 2.909 0.262 6.081 0.2l5.769-0.111 0.107-10.773c0.058-5.926-0.032-10.912-0.2-11.081-0.169-0.169-0.256 4.643-0.195 10.694m-125.83 5.86 0.086 4.9 0.127-4.689 0.126-4.689 11.375-0.246-11.8-0.176 0.086 4.9m68 0 0.086 4.9 0.127-4.689 0.126-4.689 11.375-0.246-11.8-0.176 0.086 4.9m-79.736 5.212c0.173 0.171 2.819 0.261 5.882 0.198l5.568-0.113-5.881-0.198c-3.235-0.11-5.741-0.059-5.569 0.113m68 0c0.173 0.171 2.819 0.261 5.882 0.198l5.568-0.113-5.881-0.198c-3.235-0.11-5.741-0.059-5.569 0.113m79.558 16.931 0.109 17.003-4.99-0.123c-2.744-0.068-4.848 0.018-4.675 0.19 0.173 0.173 2.46 0.263 5.081 0.2l4.767-0.113 0.104-16.776c0.058-9.226-0.032-16.912-0.2-17.08-0.167-0.167-0.255 7.347-0.196 16.699m-169.91 5.757 0.199 11 0.107-10.687 0.107-10.688 4.694-0.114 4.693-0.115-10-0.396 0.2 11m79.923 6.227 0.123 4.99-17.123-0.109-17.123-0.108 0.199 6 0.198 6 0.113-5.696 0.112-5.695 16.889-0.105 16.889-0.104 0.113-4.767c0.063-2.621-0.027-4.908-0.2-5.081-0.172-0.173-0.258 1.931-0.19 4.675m-92.015 22.893 0.108 18.12-5.989-0.12c-3.294-0.066-5.849 0.02-5.677 0.191 0.172 0.172 2.909 0.262 6.081 0.2l5.769-0.111 0.208-35.778 5.696-0.112 5.696-0.113-6-0.198-6-0.199 0.108 18.12m102.01-11.878 0.121 6.004-5.002-0.123c-2.751-0.068-4.86 0.018-4.687 0.19 0.173 0.173 2.46 0.263 5.081 0.2l4.767-0.113 0.111-5.769c0.062-3.172-0.028-5.909-0.2-6.081-0.171-0.172-0.257 2.39-0.191 5.692m92.08 11.878 0.2 17.88 0.104-17.576c0.058-9.666-0.032-17.713-0.2-17.88-0.167-0.167-0.214 7.742-0.104 17.576m-160-0.12 0.198 6 0.113-5.694 0.112-5.694 11.689-0.106 11.689-0.107-12-0.199-12-0.2 0.199 6m92.001 6.12 0.199 11.88 0.107-11.574c0.059-6.365-0.031-11.712-0.2-11.88-0.168-0.169-0.216 5.039-0.106 11.574m-104.08 6.003 0.12 6.122-5.12-0.122-5.12-0.123 0.123 5.12 0.122 5.121-6.004-0.121c-3.302-0.066-5.863 0.02-5.691 0.191 0.172 0.172 2.909 0.262 6.081 0.2l5.769-0.111 0.224-9.776 9.776-0.224 0.111-5.889 0.11-5.889 5.69-0.112 5.689-0.113-6-0.198-6-0.199 0.12 6.123m80.43-5.812c0.172 0.172 2.909 0.261 6.081 0.199l5.769-0.113-6.081-0.198c-3.345-0.11-5.941-0.059-5.769 0.112m-10.351 5.808 0.198 5.881 0.113-5.568c0.063-3.063-0.027-5.709-0.198-5.882-0.172-0.172-0.223 2.334-0.113 5.569m21.999 10.881 0.198 5 0.115-4.689 0.114-4.689 5.688-0.112 5.687-0.113-6-0.198-6-0.199 0.198 5m68 0 0.198 5 0.115-4.689 0.114-4.689 5.688-0.112 5.687-0.113-6-0.198-6-0.199 0.198 5m-250 6.319 0.199 11.081 0.107-10.773c0.059-5.926-0.031-10.912-0.199-11.081-0.169-0.169-0.217 4.679-0.107 10.773m136.09-6.019 0.087 5.1 0.252-9.788 11.687-0.112 11.688-0.113-11.9-0.093-11.9-0.094 0.086 5.1m-46.166 10.823 0.12 6.123-5.002-0.123c-2.75-0.068-4.859 0.018-4.686 0.19 0.173 0.173 2.46 0.263 5.081 0.2l4.767-0.113 0.111-5.896 0.11-5.896 35.779-0.208-36.4-0.4 0.12 6.123m80.079-0.123 0.198 6 0.113-5.689 0.112-5.689 5.689-0.112 5.689-0.113-6-0.198-6-0.199 0.199 6m70 0 0.198 6 0.113-5.687 0.112-5.688 4.689-0.114 4.689-0.115-10-0.396 0.199 6m-113.66 6.304c0.167 0.166 10.013 0.256 21.881 0.199l21.576-0.103-21.88-0.2c-12.034-0.11-21.744-0.063-21.577 0.104m101.58 5.816 0.12 6.121-6.001-0.121c-3.301-0.066-5.861 0.02-5.689 0.191 0.172 0.172 2.909 0.262 6.081 0.2l5.769-0.111 0.111-5.889 0.11-5.889 5.69-0.112 5.689-0.113-6-0.198-6-0.199 0.12 6.12m-217.92 5.199 0.199 11.081 0.107-10.773c0.059-5.926-0.031-10.912-0.199-11.081-0.169-0.169-0.217 4.679-0.107 10.773m91.92-5.08 0.121 6.001-12.241-0.24 0.396 10 0.115-4.689 0.114-4.69 5.888-0.11 5.887-0.111 0.111-5.769c0.062-3.172-0.028-5.909-0.2-6.081-0.171-0.172-0.257 2.388-0.191 5.689m11.992 17.001 0.113 11-5.994-0.12c-3.296-0.066-5.853 0.02-5.681 0.191 0.172 0.172 2.909 0.262 6.081 0.2l5.769-0.111 0.107-10.773c0.058-5.926-0.032-10.912-0.2-11.081-0.169-0.169-0.256 4.643-0.195 10.694m92.088-0.121 0.199 10.881 0.107-10.573c0.059-5.815-0.03-10.712-0.199-10.881s-0.217 4.589-0.107 10.573m33.923-5.88 0.123 5.002-6.004-0.121c-3.302-0.066-5.864 0.02-5.692 0.191 0.172 0.172 2.909 0.262 6.081 0.2l5.769-0.111 0.113-4.767c0.063-2.621-0.027-4.908-0.2-5.081-0.172-0.173-0.258 1.936-0.19 4.687m-159.92 10.761 0.198 6 0.113-5.687 0.112-5.688 4.689-0.114 4.689-0.115-10-0.396 0.199 6m-57.999 6.32 0.199 12.08 0.107-11.774c0.058-6.475-0.031-11.912-0.2-12.08-0.168-0.169-0.216 5.129-0.106 11.774m227.92-6.078 0.121 6.004-5.002-0.123c-2.751-0.068-4.86 0.018-4.687 0.19 0.173 0.173 2.46 0.263 5.081 0.2l4.767-0.113 0.111-5.769c0.062-3.172-0.028-5.909-0.2-6.081-0.171-0.172-0.257 2.39-0.191 5.692m-181.92 11.758 0.198 6 0.113-5.689 0.112-5.689 5.689-0.112 5.689-0.113-6-0.198-6-0.199 0.199 6m126 0 0.198 6 0.113-5.689 0.112-5.689 5.689-0.112 5.689-0.113-6-0.198-6-0.199 0.199 6m-68 0.119 0.198 5.881 0.113-5.568c0.063-3.063-0.027-5.709-0.198-5.882-0.172-0.172-0.223 2.334-0.113 5.569m136 0 0.198 5.881 0.113-5.568c0.063-3.063-0.027-5.709-0.198-5.882-0.172-0.172-0.223 2.334-0.113 5.569m-205.65 6.193c0.173 0.171 2.819 0.261 5.882 0.198l5.568-0.113-5.881-0.198c-3.235-0.11-5.741-0.059-5.569 0.113m58 0c0.173 0.171 2.819 0.261 5.882 0.198l5.568-0.113-5.881-0.198c-3.235-0.11-5.741-0.059-5.569 0.113m68 0c0.173 0.171 2.819 0.261 5.882 0.198l5.568-0.113-5.881-0.198c-3.235-0.11-5.741-0.059-5.569 0.113m68 0c0.173 0.171 2.819 0.261 5.882 0.198l5.568-0.113-5.881-0.198c-3.235-0.11-5.741-0.059-5.569 0.113m-216.35 6.007 0.198 6.081 0.113-5.769c0.062-3.172-0.027-5.909-0.199-6.081-0.171-0.172-0.222 2.424-0.112 5.769m11.999 11 0.198 5.081 0.115-4.767c0.064-2.621-0.025-4.908-0.198-5.081-0.172-0.173-0.224 1.972-0.115 4.767m22.001 11 0.198 6.081 0.113-5.769c0.062-3.172-0.027-5.909-0.199-6.081-0.171-0.172-0.222 2.424-0.112 5.769m22 12 0.198 6.081 0.113-5.769c0.062-3.172-0.027-5.909-0.199-6.081-0.171-0.172-0.222 2.424-0.112 5.769m23.999 11 0.198 5.081 0.115-4.767c0.064-2.621-0.025-4.908-0.198-5.081-0.172-0.173-0.224 1.972-0.115 4.767" fill="#e09c40"/>
  <path d="m251.67 40.076c-0.041 3.232 0.061 5.961 0.226 6.063 0.165 0.103 0.252-1.641 0.194-3.876-0.191-7.353-0.345-8.154-0.42-2.187m21.996 11c-0.039 2.682 0.065 4.961 0.23 5.064 0.165 0.102 0.252-1.372 0.193-3.277-0.189-6.109-0.351-6.795-0.423-1.787m22.004 11c-0.041 3.232 0.061 5.961 0.226 6.063 0.165 0.103 0.252-1.641 0.194-3.876-0.191-7.353-0.345-8.154-0.42-2.187m24 12c-0.041 3.232 0.061 5.961 0.226 6.063 0.165 0.103 0.252-1.641 0.194-3.876-0.191-7.353-0.345-8.154-0.42-2.187m-126.2 5.824c6.199 0.062 16.459 0.062 22.8 0 6.34-0.062 1.268-0.113-11.272-0.113s-17.728 0.051-11.528 0.113m-11.785 5.987-0.087 5.688-4.7 0.126-4.7 0.127 4.713 0.086c5.601 0.102 5.149 0.676 4.987-6.334l-0.125-5.38-0.088 5.687m149.99 0.189c-0.041 3.232 0.061 5.961 0.226 6.063 0.165 0.103 0.252-1.641 0.194-3.876-0.191-7.353-0.345-8.154-0.42-2.187m-100.57 5.821c1.595 0.076 4.205 0.076 5.8 0s0.29-0.138-2.9-0.138-4.495 0.062-2.9 0.138m-59.415 4.992-0.085 4.689-11.4 0.246 5.713 0.088c6.695 0.103 6.161 0.58 5.986-5.338l-0.129-4.374-0.085 4.689m55.985 0.187c-0.039 2.682 0.065 4.961 0.23 5.064 0.165 0.102 0.252-1.372 0.193-3.277-0.189-6.109-0.351-6.795-0.423-1.787m114.01 6c-0.046 5.982 0.051 10.961 0.216 11.063s0.254-3.082 0.198-7.077c-0.192-13.558-0.33-14.893-0.414-3.986m-98.584-1.179c1.595 0.076 4.205 0.076 5.8 0s0.29-0.138-2.9-0.138-4.495 0.062-2.9 0.138m-83.413 5.992-0.087 5.689-11.4 0.246 5.713 0.088c6.748 0.104 6.151 0.736 5.987-6.332l-0.125-5.38-0.088 5.689m79.987 0.187c-0.041 3.232 0.061 5.961 0.226 6.063 0.165 0.103 0.252-1.641 0.194-3.876-0.191-7.353-0.345-8.154-0.42-2.187m15.042 5.821c1.383 0.078 3.543 0.077 4.8-2e-3 1.256-0.079 0.124-0.143-2.516-0.142-2.64 0-3.668 0.065-2.284 0.144m-107.02 10.992-0.093 10.689-11.4 0.246 5.713 0.088c6.875 0.106 6.128 1.519 5.987-11.319l-0.114-10.393-0.093 10.689m103.99 0.187c-0.046 5.982 0.051 10.961 0.216 11.063s0.254-3.082 0.198-7.077c-0.192-13.558-0.33-14.893-0.414-3.986m102 0c-0.046 5.982 0.051 10.961 0.216 11.063s0.254-3.082 0.198-7.077c-0.192-13.558-0.33-14.893-0.414-3.986m-88.584 10.821c1.595 0.076 4.205 0.076 5.8 0s0.29-0.138-2.9-0.138-4.495 0.062-2.9 0.138m-129.41 11.99-0.094 11.688-4.7 0.126-4.7 0.127 4.713 0.086c5.724 0.104 5.125 1.586 4.987-12.319l-0.113-11.395-0.093 11.687m125.99 0.189c-0.047 6.532 0.05 11.96 0.215 12.063 0.165 0.102 0.254-3.352 0.198-7.677-0.193-14.817-0.328-16.253-0.413-4.386m104 0c-0.047 6.532 0.05 11.96 0.215 12.063 0.165 0.102 0.254-3.352 0.198-7.677-0.193-14.817-0.328-16.253-0.413-4.386m-213.28 11.807c10.528 0.282 19.908 0.291 19.739 0.017-0.103-0.165-5.531-0.262-12.063-0.215s-9.986 0.136-7.676 0.198m63.467-0.016c-0.37 0.369-0.338 22.042 0.033 22.272 0.165 0.102 0.25-4.843 0.188-10.988l-0.112-11.174 12.174 0.112c6.696 0.061 12.091-0.024 11.988-0.189-0.229-0.371-23.901-0.403-24.271-0.033m61.233 0.03c1.595 0.076 4.205 0.076 5.8 0s0.29-0.138-2.9-0.138-4.495 0.062-2.9 0.138m-151.4 16.992-0.095 16.689-11.4 0.246 5.713 0.088c4.27 0.066 5.761-0.038 5.904-0.412 0.106-0.276 0.143-7.881 0.083-16.9l-0.109-16.4-0.096 16.689m21.989-5.813c-0.046 5.982 0.051 10.961 0.216 11.063s0.254-3.082 0.198-7.077c-0.192-13.558-0.33-14.893-0.414-3.986m126 0c-0.046 5.982 0.051 10.961 0.216 11.063s0.254-3.082 0.198-7.077c-0.192-13.558-0.33-14.893-0.414-3.986m102.01 34.812-0.098 45.687-4.9 0.113-4.9 0.112-0.106 10.889-0.107 10.89-5.893 0.11-5.894 0.111-0.106 10.889-0.107 10.89-5.893 0.11-5.894 0.111-0.106 11.888-0.106 11.887-4.894 0.113-4.894 0.112-0.111 5.889-0.11 5.89-5.89 0.11-5.889 0.111-0.112 4.894-0.113 4.894-23.775 0.212-0.111 5.894-0.11 5.893-10.89 0.107-10.889 0.106-0.111 5.894-0.11 5.893-10.89 0.107-10.889 0.106-0.112 4.898-0.113 4.899-91.375 0.208 91.6-5e-3 0.112-4.894 0.113-4.893 10.887-0.107 10.888-0.106 0.111-5.894 0.11-5.893 10.89-0.107 10.889-0.106 0.111-5.894 0.11-5.894 23.779-0.212 0.112-4.889 0.112-4.89 5.888-0.11 5.888-0.111 0.111-5.888 0.11-5.888 9.779-0.224 0.106-11.889 0.106-11.89 5.894-0.11 5.894-0.111 0.106-10.889 0.107-10.89 5.893-0.11 5.894-0.111 0.106-10.9 0.107-10.9h4.806c3.477 0 4.859-0.138 4.997-0.5 0.104-0.275 0.143-20.93 0.085-45.9l-0.104-45.4-0.099 45.688m-86.982-23.991c1.383 0.078 3.543 0.077 4.8-2e-3 1.256-0.079 0.124-0.143-2.516-0.142-2.64 0-3.668 0.065-2.284 0.144m-3.027 17.179c-0.049 9.282 0.046 16.96 0.211 17.063 0.273 0.169 0.267-12.655-0.013-27.939-0.06-3.3-0.149 1.594-0.198 10.876m-172 5.813-0.093 10.689-11.4 0.246 5.713 0.088c6.875 0.106 6.128 1.519 5.987-11.319l-0.114-10.393-0.093 10.689m58.174 0.978c-0.147 0.146-0.267 2.394-0.267 4.994v4.727l-23.8 0.212-0.111 5.889-0.11 5.89-5.89 0.11-5.889 0.111-0.111 5.888-0.11 5.888-9.779 0.224-0.111 5.889-0.11 5.889-5.49 0.128-5.489 0.127 5.6-0.017 5.6-0.016 0.111-5.888 0.11-5.888 9.779-0.224 0.111-5.889 0.11-5.89 5.89-0.11 5.889-0.111 0.111-5.894 0.11-5.894 23.779-0.212 0.112-4.908 0.113-4.909 17.149 0.109c9.433 0.059 17.066-0.027 16.964-0.192-0.229-0.371-33.901-0.403-34.271-0.033m35.933 9.996c3.801 0.292 8.511 0.313 8.34 0.037-0.103-0.165-2.382-0.269-5.064-0.23-2.682 0.038-4.156 0.125-3.276 0.193m91.3 0.034c1.595 0.076 4.205 0.076 5.8 0s0.29-0.138-2.9-0.138-4.495 0.062-2.9 0.138m-197.32 18.103c0 9.79 0.052 13.795 0.116 8.9 0.063-4.895 0.063-12.905 0-17.8-0.064-4.895-0.116-0.89-0.116 8.9m103.98-12c0 3.19 0.062 4.495 0.138 2.9s0.076-4.205 0-5.8-0.138-0.29-0.138 2.9m89.937 11.888-0.096 17.687-4.9 0.113-4.9 0.112-0.112 4.889-0.112 4.89-5.888 0.11-5.888 0.111-0.111 5.889-0.11 5.89-5.89 0.11-5.889 0.111-0.111 5.969c-0.061 3.283 0.029 6.109 0.2 6.281s0.257-2.464 0.192-5.858l-0.12-6.17 11.839-0.222 0.111-5.889 0.11-5.89 5.89-0.11 5.889-0.111 0.112-4.9 0.113-4.9h4.8c3.471 0 4.853-0.138 4.992-0.5 0.105-0.275 0.143-8.33 0.083-17.9l-0.109-17.4-0.095 17.688m-75.296-6.005c10.528 0.282 19.908 0.291 19.739 0.017-0.103-0.165-5.531-0.262-12.063-0.215s-9.986 0.136-7.676 0.198m-4.641 6.117c0 3.19 0.062 4.495 0.138 2.9s0.076-4.205 0-5.8-0.138-0.29-0.138 2.9m-35.032 5.9c4.69 0.064 12.25 0.064 16.8-1e-3 4.55-0.064 0.713-0.116-8.527-0.116s-12.963 0.053-8.273 0.117m-9.04 5.996-0.087 5.696-17.7 0.108-17.7 0.109 17.713 0.095c14.236 0.077 17.751-6e-3 17.912-0.424 0.11-0.286 0.143-2.941 0.075-5.9l-0.125-5.38-0.088 5.696m56-7e-3 -0.087 5.689-11.4 0.246 5.713 0.088c6.748 0.104 6.151 0.736 5.987-6.332l-0.125-5.38-0.088 5.689m-191.49 5.979c4.823 0.291 10.111 0.307 9.939 0.032-0.102-0.165-2.831-0.267-6.063-0.226s-4.976 0.128-3.876 0.194m77.553 5.132c0 2.64 0.065 3.668 0.144 2.284 0.078-1.383 0.077-3.543-2e-3 -4.8-0.079-1.256-0.143-0.124-0.142 2.516m21.932-0.113-0.085 4.688-4.7 0.126-4.7 0.127 4.713 0.086c5.555 0.101 5.16 0.524 4.986-5.34l-0.129-4.374-0.085 4.687m80 9e-3 -0.085 4.695-33.4 0.218 16.713 0.096c13.504 0.077 16.751-6e-3 16.914-0.431 0.111-0.289 0.143-2.494 0.072-4.9l-0.129-4.374-0.085 4.696m-89.926 11.104c0 3.19 0.062 4.495 0.138 2.9s0.076-4.205 0-5.8-0.138-0.29-0.138 2.9m45.915 0.076c-0.041 3.232 0.061 5.961 0.226 6.063 0.165 0.103 0.252-1.641 0.194-3.876-0.191-7.353-0.345-8.154-0.42-2.187m-123.87 5.787c3.801 0.292 8.511 0.313 8.34 0.037-0.103-0.165-2.382-0.269-5.064-0.23-2.682 0.038-4.156 0.125-3.276 0.193m90.4 5e-3c4.823 0.291 10.111 0.307 9.939 0.032-0.102-0.165-2.831-0.267-6.063-0.226s-4.976 0.128-3.876 0.194m-2.513 6.019-0.087 5.688-4.7 0.126-4.7 0.127 4.713 0.086c5.601 0.102 5.149 0.676 4.987-6.334l-0.125-5.38-0.088 5.687m14.513 5.981c4.823 0.291 10.111 0.307 9.939 0.032-0.102-0.165-2.831-0.267-6.063-0.226s-4.976 0.128-3.876 0.194m89.667-1e-3c-0.147 0.146-0.267 5.092-0.267 10.989v10.723l-5.9 0.11-5.9 0.111-0.111 5.969c-0.061 3.283 0.029 6.109 0.2 6.281s0.257-2.464 0.192-5.858l-0.12-6.17 11.839-0.222 0.106-10.919 0.107-10.92 6.156 0.12c3.386 0.065 6.072-0.016 5.97-0.181-0.23-0.371-11.903-0.402-12.272-0.033m37.233 0.03c1.595 0.076 4.205 0.076 5.8 0s0.29-0.138-2.9-0.138-4.495 0.062-2.9 0.138m-151.42 4.992-0.085 4.689-11.4 0.246 5.713 0.088c6.695 0.103 6.161 0.58 5.986-5.338l-0.129-4.374-0.085 4.689m21.999 6.187c-0.046 5.982 0.051 10.961 0.216 11.063s0.254-3.082 0.198-7.077c-0.192-13.558-0.33-14.893-0.414-3.986m125.99-6c-0.039 2.682 0.065 4.961 0.23 5.064 0.165 0.102 0.252-1.372 0.193-3.277-0.189-6.109-0.351-6.795-0.423-1.787m-215.47 4.792c4.823 0.291 10.111 0.307 9.939 0.032-0.102-0.165-2.831-0.267-6.063-0.226s-4.976 0.128-3.876 0.194m230.52 0.029c1.383 0.078 3.543 0.077 4.8-2e-3 1.256-0.079 0.124-0.143-2.516-0.142-2.64 0-3.668 0.065-2.284 0.144m-175.03 5.992-0.087 5.689-11.4 0.246 5.713 0.088c6.748 0.104 6.151 0.736 5.987-6.332l-0.125-5.38-0.088 5.689m171.99 0.187c-0.041 3.232 0.061 5.961 0.226 6.063 0.165 0.103 0.252-1.641 0.194-3.876-0.191-7.353-0.345-8.154-0.42-2.187m-123.47 5.792c4.823 0.291 10.111 0.307 9.939 0.032-0.102-0.165-2.831-0.267-6.063-0.226s-4.976 0.128-3.876 0.194m136.9 0.029c1.595 0.076 4.205 0.076 5.8 0s0.29-0.138-2.9-0.138-4.495 0.062-2.9 0.138m-197.43 5.979c-0.041 3.342 0.061 6.161 0.226 6.263 0.165 0.103 0.253-1.731 0.195-4.076-0.187-7.582-0.345-8.404-0.421-2.187m58 0.2c-0.041 3.232 0.061 5.961 0.226 6.063 0.165 0.103 0.252-1.641 0.194-3.876-0.191-7.353-0.345-8.154-0.42-2.187m136 0c-0.041 3.232 0.061 5.961 0.226 6.063 0.165 0.103 0.252-1.641 0.194-3.876-0.191-7.353-0.345-8.154-0.42-2.187m-225.47 5.792c4.823 0.291 10.111 0.307 9.939 0.032-0.102-0.165-2.831-0.267-6.063-0.226s-4.976 0.128-3.876 0.194m12 12c4.823 0.291 10.111 0.307 9.939 0.032-0.102-0.165-2.831-0.267-6.063-0.226s-4.976 0.128-3.876 0.194m13.8 10.013c9.464 0.284 18.309 0.293 18.139 0.019-0.102-0.165-5.081-0.262-11.063-0.216s-9.166 0.135-7.076 0.197m22 12c9.464 0.284 18.309 0.293 18.139 0.019-0.102-0.165-5.081-0.262-11.063-0.216s-9.166 0.135-7.076 0.197m22.4 12.002c10.528 0.282 19.908 0.291 19.739 0.017-0.103-0.165-5.531-0.262-12.063-0.215s-9.986 0.136-7.676 0.198" fill="#e0c808"/>
 </g>
</svg>
