<?xml version="1.0" encoding="utf-8"?>
<!-- Generator: Adobe Illustrator 22.0.0, SVG Export Plug-In . SVG Version: 6.00 Build 0)  -->
<svg version="1.1" id="Safecoin" xmlns="http://www.w3.org/2000/svg" xmlns:xlink="http://www.w3.org/1999/xlink" x="0px" y="0px"
	 viewBox="0 0 245 245" style="enable-background:new 0 0 245 245;" xml:space="preserve">
<style type="text/css">
	.st0{fill:#00688B;}
	.st1{fill:none;stroke:#E6E6E6;stroke-width:15;}
	.st2{fill:#FFFFFF;}
	.st3{fill:#EFEFEF;}
</style>
<path id="Main_copy_21" class="st0" d="M0,122.5C0,190,55,245,122.5,245S245,190,245,122.5S190,0,122.5,0S0,55,0,122.5z"/>
<g id="Safecoin-2">
	<path id="Main" class="st1" d="M53,82.5l69-40l70,40v80l-69.5,40l-69.5-40V82.5z"/>
	<path id="S" class="st2" d="M122.5,64l50,29l-9,5.5l-41-23.5L86,96l12,7.5L122.5,89l29.5,17v28l25,13.5L122.5,180L72,151l9-5
		l41.5,24l37-22.5l-11.5-6l-25.5,15L93,140v-30L68,96L122.5,64z"/>
	<path id="Keyhole" class="st3" d="M122.5,107c-1.6,0-8,0.5-8.5,8c0,5,3,6.3,5.5,8c-0.6,2-4,15.5-4,15.5H129c0,0-3.7-14.3-4-15.5
		c2-1,5.5-2.5,5.5-8C129.5,107.5,124.1,107,122.5,107z"/>
</g>
</svg>
