<?xml version="1.0" encoding="UTF-8"?>
<svg width="57px" height="89px" viewBox="0 0 57 89" version="1.1" xmlns="http://www.w3.org/2000/svg" xmlns:xlink="http://www.w3.org/1999/xlink">
    <!-- Generator: Sketch 51.2 (57519) - http://www.bohemiancoding.com/sketch -->
    <title>Logo</title>
    <desc>Created with Sketch.</desc>
    <defs></defs>
    <g id="Desktop" stroke="none" stroke-width="1" fill="none" fill-rule="evenodd">
        <g id="1-Start-Desktop-Large" transform="translate(-945.000000, -103.000000)" fill="#56BAA5">
            <g id="Logo" transform="translate(945.000000, 103.000000)">
                <path d="M28.7075552,0 L2.06024096,15.1423074 L2.06024096,45.4542208 L20.864147,56.1384615 L24.1206185,54.2884584 L6.93227725,44.5218696 L57,16.0746586 L28.710723,0 L28.7075552,0 Z M30.3252317,4.61870824 L50.484945,16.0746586 L30.3252317,27.5285091 L30.3252317,4.61870824 Z M6.93227725,16.0746586 L27.0930464,4.61975819 L27.0930464,27.5285091 L6.93227725,16.0746586 Z M5.29242629,18.8433637 L25.4521395,30.2982641 L5.29242629,41.7521146 L5.29242629,18.8433637 Z" id="Fill-1"></path>
                <path d="M32.8909966,34.7127993 L50.0666668,44.4720837 L0,72.9235374 L28.290333,89 L54.939759,73.8559932 L54.939759,43.5406779 L36.1474682,32.8615385 L32.8909966,34.7127993 Z M31.5478605,58.6972855 L51.7075737,47.2421496 L51.7075737,70.1545215 L31.5478605,58.6972855 Z M29.9058977,61.4673514 L50.0666668,72.9235374 L29.9058977,84.3797233 L29.9058977,61.4673514 Z M6.51399911,72.9235374 L26.6737123,61.4673514 L26.6737123,84.3797233 L6.51399911,72.9235374 Z" id="Fill-2"></path>
            </g>
        </g>
    </g>
</svg>