<svg xmlns="http://www.w3.org/2000/svg" width="244.555" height="244.555" viewBox="0 0 244.555 244.555">
  <g id="safemoon-bsc" transform="translate(-7401 -5104)">
    <g id="safemoonm" transform="translate(-1036 -745)">
      <path id="Main_copy_14" d="M0,119.243c0,65.705,53.538,119.243,119.243,119.243s119.243-53.538,119.243-119.243S184.949,0,119.243,0,0,53.538,0,119.243Z" transform="translate(8440 5852)" fill="#00a89e"/>
      <g id="Layer_2" data-name="Layer 2" transform="translate(8480.723 5892.726)">
        <g id="Layer_1" data-name="Layer 1" transform="translate(0 0)">
          <path id="Path_474306" data-name="Path 474306" d="M81.39,102.06l1,4.931,1.849-2.466,1.815,9.258,1.807-9.258,1.849,2.466,1-4.931Z" transform="translate(-7.875 -9.873)" fill="#fff"/>
          <path id="Path_474307" data-name="Path 474307" d="M90.1,90.867V76.976c0-2.71-4.878-9.566-4.878-9.566S80.3,74.266,80.3,76.976V90.867a15.879,15.879,0,0,0-7.958,5.79H98.02A15.879,15.879,0,0,0,90.1,90.867Z" transform="translate(-6.999 -6.52)" fill="#fff"/>
          <path id="Path_474308" data-name="Path 474308" d="M150.52,108.22a7.28,7.28,0,1,0-7.28,7.28,7.28,7.28,0,0,0,7.28-7.28Zm-11.544,0a4.264,4.264,0,1,1,4.264,4.255,4.264,4.264,0,0,1-4.264-4.255Z" transform="translate(-13.154 -9.764)" fill="#fff"/>
          <path id="Path_474309" data-name="Path 474309" d="M78.186,0A78.276,78.276,0,0,0,0,78.176c0,29.807,18.309,53.779,42.6,55.794,14.777,1.22,29.066-4.046,38.478-8.69a59,59,0,0,0,15.5-9.385l1.011-.84h0c.758-.659,1.46-1.292,2.142-1.933,8.815-8.355,19.32-23.385,19.32-47.565V62.893l-40.529-27.8-40.538,27.8v2.655c0,24.18,10.505,39.21,19.32,47.565,1.03.973,2.113,1.933,3.234,2.854,3.7-1.336,7.388-2.71,10.993-4.308-9.2-5.98-22.545-18.9-23.43-43.491L78.519,47.293l30.412,20.875c-.714,19.871-9.655,32.074-17.478,38.966l-.973.75c-.235.181-23.71,17.993-47.05,16.051-14.588-1.21-26.42-13.07-31.135-29.592a8.319,8.319,0,0,0-2.2-14.678V78.176A67.59,67.59,0,0,1,16.042,50.41a20.044,20.044,0,0,0,7.515,1.482A19.772,19.772,0,0,0,40.971,22.833c-.226-.416-.47-.8-.714-1.2a68.014,68.014,0,0,1,95.157,19.691,14.172,14.172,0,0,0,9.159,24.993h.659a67.988,67.988,0,0,1,1.093,11.86c0,35.317-28.1,63.227-68.286,68.132-32.137,3.947-52.749-9.393-52.749-9.393,12.023,13.268,28.832,19.446,52.9,19.446A78.182,78.182,0,0,0,78.192,0ZM12.646,88.7a5.23,5.23,0,0,1-1.2,2.366A60.1,60.1,0,0,1,10.261,83.1,5.284,5.284,0,0,1,12.646,88.7ZM38.3,24.252A16.743,16.743,0,0,1,17.306,47.673,68.575,68.575,0,0,1,37.783,23.384c.154.28.361.569.524.867ZM144.574,63.3a11.155,11.155,0,0,1-7.551-19.371,67.924,67.924,0,0,1,7.614,19.366Z" transform="translate(0 0.002)" fill="#fff"/>
        </g>
      </g>
    </g>
    <g id="Main_copy_14-2" data-name="Main_copy_14" transform="translate(7413 5116)" fill="none">
      <path d="M0,110.278A110.278,110.278,0,1,0,110.278,0,110.457,110.457,0,0,0,0,110.278Z" stroke="none"/>
      <path d="M 110.2775955200195 1.52587890625e-05 C 49.51239013671875 1.52587890625e-05 1.52587890625e-05 49.51239013671875 1.52587890625e-05 110.2775955200195 C 1.52587890625e-05 171.0428009033203 49.51239013671875 220.55517578125 110.2775955200195 220.55517578125 C 171.0428009033203 220.55517578125 220.55517578125 171.0428009033203 220.55517578125 110.2775955200195 C 220.55517578125 49.51239013671875 171.0428009033203 1.52587890625e-05 110.2775955200195 1.52587890625e-05 M 110.2775955200195 -11.99998474121094 C 177.7016754150391 -11.99998474121094 232.55517578125 42.853515625 232.55517578125 110.2775955200195 C 232.55517578125 177.7016754150391 177.7016754150391 232.55517578125 110.2775955200195 232.55517578125 C 42.853515625 232.55517578125 -11.99998474121094 177.7016754150391 -11.99998474121094 110.2775955200195 C -11.99998474121094 42.853515625 42.853515625 -11.99998474121094 110.2775955200195 -11.99998474121094 Z" stroke="none" fill="#e8a607"/>
    </g>
  </g>
</svg>
