<?xml version="1.0" encoding="UTF-8" standalone="no"?>
<svg
   xmlns:dc="http://purl.org/dc/elements/1.1/"
   xmlns:cc="http://creativecommons.org/ns#"
   xmlns:rdf="http://www.w3.org/1999/02/22-rdf-syntax-ns#"
   xmlns:svg="http://www.w3.org/2000/svg"
   xmlns="http://www.w3.org/2000/svg"
   xmlns:sodipodi="http://sodipodi.sourceforge.net/DTD/sodipodi-0.dtd"
   xmlns:inkscape="http://www.inkscape.org/namespaces/inkscape"
   width="238.48599"
   height="238.48599"
   viewBox="0 0 238.486 238.486"
   version="1.1"
   id="svg16"
   sodipodi:docname="SAFEMOON_BEP20.svg"
   inkscape:version="1.0.2-2 (e86c870879, 2021-01-15)">
  <metadata
     id="metadata22">
    <rdf:RDF>
      <cc:Work
         rdf:about="">
        <dc:format>image/svg+xml</dc:format>
        <dc:type
           rdf:resource="http://purl.org/dc/dcmitype/StillImage" />
      </cc:Work>
    </rdf:RDF>
  </metadata>
  <defs
     id="defs20" />
  <sodipodi:namedview
     pagecolor="#ffffff"
     bordercolor="#666666"
     borderopacity="1"
     objecttolerance="10"
     gridtolerance="10"
     guidetolerance="10"
     inkscape:pageopacity="0"
     inkscape:pageshadow="2"
     inkscape:window-width="1920"
     inkscape:window-height="1017"
     id="namedview18"
     showgrid="false"
     showguides="false"
     inkscape:zoom="3.4757009"
     inkscape:cx="119.2775"
     inkscape:cy="119.2775"
     inkscape:window-x="-8"
     inkscape:window-y="-8"
     inkscape:window-maximized="1"
     inkscape:current-layer="safemoon-bsc" />
  <g
     id="safemoon-bsc"
     transform="translate(-7404,-5107)">
    <g
       id="safemoonm"
       transform="translate(-1036,-745)">
      <path
         id="Main_copy_14"
         d="m 0,119.243 c 0,65.705 53.538,119.243 119.243,119.243 65.705,0 119.243,-53.538 119.243,-119.243 C 238.486,53.538 184.949,0 119.243,0 53.537,0 0,53.538 0,119.243 Z"
         transform="translate(8440,5852)"
         fill="#00a89e" />
      <g
         id="Layer_2"
         data-name="Layer 2"
         transform="translate(8480.723,5892.726)">
        <g
           id="Layer_1"
           data-name="Layer 1">
          <path
             id="Path_474306"
             data-name="Path 474306"
             d="m 81.39,102.06 1,4.931 1.849,-2.466 1.815,9.258 1.807,-9.258 1.849,2.466 1,-4.931 z"
             transform="translate(-7.875,-9.873)"
             fill="#ffffff" />
          <path
             id="Path_474307"
             data-name="Path 474307"
             d="M 90.1,90.867 V 76.976 c 0,-2.71 -4.878,-9.566 -4.878,-9.566 0,0 -4.922,6.856 -4.922,9.566 v 13.891 a 15.879,15.879 0 0 0 -7.958,5.79 H 98.02 a 15.879,15.879 0 0 0 -7.92,-5.79 z"
             transform="translate(-6.999,-6.52)"
             fill="#ffffff" />
          <path
             id="Path_474308"
             data-name="Path 474308"
             d="m 150.52,108.22 a 7.28,7.28 0 1 0 -7.28,7.28 7.28,7.28 0 0 0 7.28,-7.28 z m -11.544,0 a 4.264,4.264 0 1 1 4.264,4.255 4.264,4.264 0 0 1 -4.264,-4.255 z"
             transform="translate(-13.154,-9.764)"
             fill="#ffffff" />
          <path
             id="Path_474309"
             data-name="Path 474309"
             d="M 78.186,0 A 78.276,78.276 0 0 0 0,78.176 c 0,29.807 18.309,53.779 42.6,55.794 14.777,1.22 29.066,-4.046 38.478,-8.69 a 59,59 0 0 0 15.5,-9.385 l 1.011,-0.84 v 0 c 0.758,-0.659 1.46,-1.292 2.142,-1.933 8.815,-8.355 19.32,-23.385 19.32,-47.565 v -2.664 l -40.529,-27.8 -40.538,27.8 v 2.655 c 0,24.18 10.505,39.21 19.32,47.565 1.03,0.973 2.113,1.933 3.234,2.854 3.7,-1.336 7.388,-2.71 10.993,-4.308 -9.2,-5.98 -22.545,-18.9 -23.43,-43.491 l 30.418,-20.875 30.412,20.875 c -0.714,19.871 -9.655,32.074 -17.478,38.966 l -0.973,0.75 c -0.235,0.181 -23.71,17.993 -47.05,16.051 -14.588,-1.21 -26.42,-13.07 -31.135,-29.592 a 8.319,8.319 0 0 0 -2.2,-14.678 v -1.489 a 67.59,67.59 0 0 1 5.947,-27.766 20.044,20.044 0 0 0 7.515,1.482 19.772,19.772 0 0 0 17.414,-29.059 c -0.226,-0.416 -0.47,-0.8 -0.714,-1.2 a 68.014,68.014 0 0 1 95.157,19.691 14.172,14.172 0 0 0 9.159,24.993 h 0.659 a 67.988,67.988 0 0 1 1.093,11.86 c 0,35.317 -28.1,63.227 -68.286,68.132 -32.137,3.947 -52.749,-9.393 -52.749,-9.393 12.023,13.268 28.832,19.446 52.9,19.446 A 78.182,78.182 0 0 0 78.192,0 Z m -65.54,88.7 a 5.23,5.23 0 0 1 -1.2,2.366 60.1,60.1 0 0 1 -1.185,-7.966 5.284,5.284 0 0 1 2.385,5.6 z M 38.3,24.252 A 16.743,16.743 0 0 1 17.306,47.673 68.575,68.575 0 0 1 37.783,23.384 c 0.154,0.28 0.361,0.569 0.524,0.867 z M 144.574,63.3 a 11.155,11.155 0 0 1 -7.551,-19.371 67.924,67.924 0 0 1 7.614,19.366 z"
             transform="translate(0,0.002)"
             fill="#ffffff" />
        </g>
      </g>
    </g>
  </g>
</svg>
