<?xml version="1.0" encoding="UTF-8" standalone="no"?>
<svg
   version="1.0"
   width="200.000000pt"
   height="200.000000pt"
   viewBox="0 0 200.000000 200.000000"
   preserveAspectRatio="xMidYMid meet"
   id="svg18"
   sodipodi:docname="SAITO.svg"
   inkscape:version="1.1.1 (3bf5ae0d25, 2021-09-20)"
   xmlns:inkscape="http://www.inkscape.org/namespaces/inkscape"
   xmlns:sodipodi="http://sodipodi.sourceforge.net/DTD/sodipodi-0.dtd"
   xmlns="http://www.w3.org/2000/svg"
   xmlns:svg="http://www.w3.org/2000/svg">
  <defs
     id="defs22">
    <clipPath
       clipPathUnits="userSpaceOnUse"
       id="clipPath779">
      <ellipse
         style="fill:#000000;stroke-width:7.5"
         id="ellipse781"
         cx="1001.4443"
         cy="-995.07233"
         rx="928.29535"
         ry="942.22845"
         transform="scale(1,-1)" />
    </clipPath>
  </defs>
  <sodipodi:namedview
     id="namedview20"
     pagecolor="#505050"
     bordercolor="#eeeeee"
     borderopacity="1"
     inkscape:pageshadow="0"
     inkscape:pageopacity="0"
     inkscape:pagecheckerboard="0"
     inkscape:document-units="pt"
     showgrid="false"
     inkscape:zoom="2.1531401"
     inkscape:cx="143.74355"
     inkscape:cy="124.23715"
     inkscape:window-width="1920"
     inkscape:window-height="1001"
     inkscape:window-x="-9"
     inkscape:window-y="-9"
     inkscape:window-maximized="1"
     inkscape:current-layer="svg18">
    <inkscape:grid
       type="xygrid"
       id="grid520" />
  </sodipodi:namedview>
  <g
     transform="translate(0.000000,200.000000) scale(0.100000,-0.100000)"
     fill="#f71e3d"
     stroke="none"
     id="g16">
    <path
       d="M0 1000 l0 -1000 1000 0 1000 0 0 1000 0 1000 -1000 0 -1000 0 0 -1000z m1305 526 l300 -174 0 -352 0 -352 -302 -175 -303 -175 -302 175 -303 175 0 352 0 352 300 174 c165 96 302 174 305 174 3 0 140 -78 305 -174z"
       id="path2"
       clip-path="url(#clipPath779)" />
    <path
       d="M720 1500 c-140 -82 -256 -153 -257 -157 -2 -5 118 -79 267 -165 l270 -157 135 77 c74 42 135 80 135 84 0 16 -274 468 -284 467 -6 -1 -126 -68 -266 -149z"
       id="path4" />
    <path
       d="M1176 1418 c70 -117 128 -214 129 -216 5 -6 235 130 235 138 0 5 -96 63 -212 130 -117 67 -228 131 -245 142 -29 17 -20 -2 93 -194z"
       id="path6" />
    <path
       d="M430 1024 c0 -158 2 -285 4 -283 11 12 247 421 244 423 -1 2 -43 27 -93 56 -49 28 -105 61 -122 72 l-33 20 0 -288z"
       id="path8" />
    <path
       d="M1295 1151 l-270 -158 -3 -156 -3 -157 276 0 275 0 0 315 c0 173 -1 315 -2 314 -2 -1 -124 -72 -273 -158z"
       id="path10" />
    <path
       d="M669 1068 c-174 -297 -229 -393 -229 -398 0 -4 122 -76 270 -162 l270 -156 -2 321 -3 321 -125 73 c-69 40 -128 73 -132 73 -4 0 -26 -32 -49 -72z"
       id="path12" />
    <path
       d="M1020 496 l0 -144 243 140 c133 77 244 142 246 144 2 2 -107 4 -242 4 l-247 0 0 -144z"
       id="path14" />
  </g>
  <path
     style="fill:#ffffff;stroke:none;stroke-width:0.328407"
     d="M 100.1642,207.53959 C 82.101806,197.06603 64.037593,186.61454 60.021508,184.31406 l -7.301972,-4.1827 0.0037,-46.79803 0.0037,-46.798026 23.536312,-13.6289 C 111.25967,52.641476 114.80087,50.600394 124.45436,45.129938 l 8.85501,-5.017974 2.14663,1.186998 c 5.19221,2.871086 27.82247,15.878461 52.14033,29.969121 l 26.34839,15.267221 6.6e-4,46.798026 6.5e-4,46.79803 -11.89917,6.88034 c -6.54445,3.78418 -24.53454,14.18829 -39.97789,23.12023 -15.44335,8.93194 -28.3005,16.28728 -28.57143,16.34519 -0.27094,0.0579 -15.27094,-8.46398 -33.33334,-18.93753 z m 30.58321,-6.47227 c -0.11156,-10.25041 -0.29517,-29.53372 -0.408,-42.85181 l -0.20516,-24.21471 -11.20834,-6.53019 c -12.95249,-7.54636 -18.65558,-10.77779 -21.294311,-12.06556 -1.860318,-0.90789 -1.881573,-0.91021 -2.576798,-0.28104 -1.183307,1.07088 -3.840387,5.34527 -12.033944,19.35875 -18.170113,31.07644 -24.400167,41.99076 -24.400167,42.7462 0,0.22414 1.068865,1.09897 2.375257,1.94407 2.836979,1.83524 19.883175,11.95169 31.12228,18.47023 4.425287,2.56661 14.770113,8.56802 22.988503,13.33646 8.21839,4.76845 15.14525,8.68224 15.39303,8.69731 0.37899,0.0231 0.4183,-2.93085 0.24765,-18.60971 z m 25.81591,7.02631 c 32.68946,-18.86458 44.58611,-25.85144 44.58611,-26.18527 0,-0.46211 -9.66803,-0.62757 -36.66897,-0.62757 h -28.68407 v 19.21182 c 0,12.39809 0.11476,19.21182 0.32358,19.21182 0.17797,0 9.37748,-5.22486 20.44335,-11.6108 z m 52.79629,-74.13862 c 0,-33.52619 -0.0834,-42.0377 -0.41051,-41.906038 -0.55871,0.224864 -39.32235,22.714708 -57.58727,33.410908 l -14.81222,8.67425 -0.21136,9.86233 c -0.11625,5.42428 -0.30848,14.85001 -0.42718,20.94607 l -0.21581,11.08374 h 36.83217 36.83218 z M 62.645999,160.34483 c 11.545643,-19.38132 27.830191,-47.98788 27.830191,-48.88844 0,-0.32552 -3.319169,-2.33808 -16.748768,-10.15553 -4.425287,-2.57599 -9.893268,-5.809655 -12.151067,-7.185921 l -4.105091,-2.502305 -0.100663,33.421926 c -0.0966,32.07193 0.04832,42.78153 0.57892,42.78153 0.135175,0 2.248589,-3.36207 4.696478,-7.47126 z M 146.5822,123.17416 c 12.27083,-7.03417 20.52949,-11.99707 22.33025,-13.41899 l 0.76795,-0.60639 -1.61131,-3.09656 c -4.60434,-8.84843 -26.31542,-44.679532 -33.67165,-55.570354 -2.27377,-3.366284 -2.70512,-3.841089 -3.31673,-3.650849 -2.58477,0.803986 -41.52649,23.207615 -59.487935,34.224103 -8.495971,5.210926 -10.01642,6.221366 -10.01642,6.656594 0,0.492861 7.913976,5.581879 18.877171,12.138815 10.726714,6.415501 52.415034,30.763411 52.770484,30.820411 0.1205,0.0193 6.13168,-3.35422 13.35819,-7.49678 z m 30.61446,-17.9302 c 6.00173,-3.02242 24.849,-14.276068 27.39138,-16.355313 0.85413,-0.698532 0.91927,-0.865672 0.52332,-1.342759 -0.94657,-1.140551 -16.09038,-10.232722 -37.78788,-22.687414 -4.96716,-2.851224 -11.98686,-6.914418 -15.59934,-9.029318 -7.20711,-4.219346 -8.50038,-4.926036 -9.01489,-4.926036 -1.63574,0 2.08555,6.84623 21.05624,38.738164 7.13467,11.994206 10.12737,16.749356 10.54484,16.754906 0.3206,0.004 1.61945,-0.51424 2.88633,-1.15223 z"
     id="path61"
     transform="scale(0.75)" />
  <ellipse
     style="fill:none;stroke-width:0.75"
     id="path676"
     cx="-4.1799417"
     cy="52.075104"
     rx="82.553848"
     ry="53.468422" />
</svg>
