<svg xmlns="http://www.w3.org/2000/svg" width="266.667" height="266.667" viewBox="0 0 200 200" preserveAspectRatio="xMidYMid meet" xmlns:v="https://vecta.io/nano"><defs><clipPath id="A"><ellipse cx="1001.444" cy="-995.072" rx="928.295" ry="942.228" transform="scale(1 -1)" fill="#000" stroke-width="7.5"/></clipPath></defs><g fill="#f71e3d"><path d="M0 1000V0h1000 1000v1000 1000H1000 0V1000zm1305 526l300-174v-352-352l-302-175-303-175-302 175-303 175v352 352l300 174 305 174c3 0 140-78 305-174z" clip-path="url(#A)" transform="matrix(.1 0 0 -.1 0 200)"/><path d="M72 50c-14 8.2-25.6 15.3-25.7 15.7-.2.5 11.8 7.9 26.7 16.5l27 15.7 13.5-7.7c7.4-4.2 13.5-8 13.5-8.4 0-1.6-27.4-46.8-28.4-46.7C98 35.2 86 41.9 72 50zm45.6 8.2l12.9 21.6c.5.6 23.5-13 23.5-13.8 0-.5-9.6-6.3-21.2-13l-24.5-14.2c-2.9-1.7-2 .2 9.3 19.4zM43 97.6l.4 28.3c1.1-1.2 24.7-42.1 24.4-42.3-.1-.2-4.3-2.7-9.3-5.6l-12.2-7.2-3.3-2v28.8zm86.5-12.7l-27 15.8-.3 15.6-.3 15.7h27.6H157v-31.5l-.2-31.4c-.2.1-12.4 7.2-27.3 15.8zm-62.6 8.3L44 133c0 .4 12.2 7.6 27 16.2l27 15.6-.2-32.1-.3-32.1L85 93.3c-6.9-4-12.8-7.3-13.2-7.3s-2.6 3.2-4.9 7.2zm35.1 57.2v14.4l24.3-14 24.6-14.4c.2-.2-10.7-.4-24.2-.4H102v14.4z"/></g><path d="M75.123 155.655l-30.107-17.419-5.476-3.137.003-35.099.003-35.099L57.197 54.68l36.143-20.832 6.641-3.763 1.61.89c3.894 2.153 20.867 11.909 39.105 22.477l19.761 11.45V100v35.099l-8.924 5.16-29.983 17.34-21.429 12.259c-.203.043-11.453-6.348-25-14.203zm22.937-4.854l-.306-32.139-.154-18.161-8.406-4.898-15.971-9.049c-1.395-.681-1.411-.683-1.933-.211-.887.803-2.88 4.009-9.025 14.519l-18.3 32.06c0 .168.802.824 1.781 1.458 2.128 1.376 14.912 8.964 23.342 13.853l17.241 10.002 11.545 6.523c.284.017.314-2.198.186-13.957zm19.362 5.27l33.44-19.639c0-.347-7.251-.471-27.502-.471h-21.513v14.409c0 9.299.086 14.409.243 14.409.133 0 7.033-3.919 15.333-8.708zm39.597-55.604l-.308-31.43c-.419.169-29.492 17.036-43.19 25.058l-11.109 6.506-.159 7.397-.32 15.71-.162 8.313h27.624 27.624zM46.984 120.259c8.659-14.536 20.873-35.991 20.873-36.666 0-.244-2.489-1.754-12.562-7.617l-9.113-5.389-3.079-1.877-.075 25.066c-.072 24.054.036 32.086.434 32.086.101 0 1.686-2.522 3.522-5.603zm62.952-27.878c9.203-5.276 15.397-8.998 16.748-10.064l.576-.455-1.208-2.322c-3.453-6.636-19.737-33.51-25.254-41.678-1.705-2.525-2.029-2.881-2.488-2.738-1.939.603-31.145 17.406-44.616 25.668-6.372 3.908-7.512 4.666-7.512 4.992 0 .37 5.935 4.186 14.158 9.104l39.578 23.115c.09.014 4.599-2.516 10.019-5.623zm22.961-13.448c4.501-2.267 18.637-10.707 20.544-12.266.641-.524.689-.649.392-1.007-.71-.855-12.068-7.675-28.341-17.016l-11.7-6.772c-5.405-3.165-6.375-3.695-6.761-3.695-1.227 0 1.564 5.135 15.792 29.054 5.351 8.996 7.596 12.562 7.909 12.566.24.003 1.215-.386 2.165-.864z" fill="#fff"/></svg>