<svg xmlns="http://www.w3.org/2000/svg" width="250" height="250" xmlns:v="https://vecta.io/nano"><defs><linearGradient id="A" x1="18.51" y1="-98.615" x2="269.755" y2="-98.615" gradientUnits="userSpaceOnUse"><stop offset="0" stop-color="#75bef9"/><stop offset="1" stop-color="#75bef9" stop-opacity="0"/></linearGradient></defs><ellipse cx="144.132" cy="-98.615" rx="125.623" ry="124.374" transform="matrix(.192627 .981272 -.986018 .166637 0 0)" fill="url(#A)"/><path d="M108.81 223.376c-14.135-3.248-32.869-10.4-44.562-18.836-1.906-.386-2.219.633-4.368 1.868-4.201-6.333-5.176-8.303-10.939-16.306-3.861-4.744-11.177-21.775-12.164-26.425-.063-7.411.162-14.311-.301-21.44-.164-13.019 8.495-25.334 13.034-33.238-.566-6.576-2.06-9.862-3.814-15.272 2.021-1.267 2.91-1.181 5.515-2.03-1.195-4.655.135-12.843-1.312-12.779-.805 3.91.9-.445 3.477-.322 6.778-19.258 15.693-43.303 28.344-56.07 5.714-.257.805-.34 6.684-.356 9.35 7.596 11.505 10.433 19.448 26.295 7.074 1.274 13.415.967 26.734.677 8.409-15.908 12.191-22.141 18.547-27.57.804-.584 3.901-.509 5.135.179 5.35 4.261 11.63 12.011 14.026 15.353 7.423 12.87 16.225 34.135 18.876 42.035 4.17 12.271 3.374 18.505 3.992 26.862 6.524 9.849 12.063 19.729 14.169 23.362 3.838 12.425 5.497 18.893 3.953 31.425-2.115-.542-2.986-1.403-4.788-1.377-2.895 8.943-6.105 15.835-14.159 24.955-9.351 8.542-15.6 13.797-25.044 26.553-1.603.508-2.85-.429-5.385-4.633-3.458 1.61-4.563 2.056-8.935 5.223-9.213 4.432-11.53 5.092-46.164 11.869z" fill="#ededed"/><path d="M105.476 224.773c-2.698-.305-7.723-1.293-9.304-2.588-.785-.693-2.516-1.454-4.547-2.001-8.866-3.409-19.556-10.115-27.999-16.609-.617 1.242-3.114 3.302-3.746 2.833-8.803-13.576-19.652-28.79-22.901-40.109-.005-8.325 1.104-20.115-.969-25.032 1.56-10.224 8.471-22.843 13.422-31.677-.639-7.3-1.38-10.001-4.071-15.894 1.807-1.231 1.979-1.181 5.374-1.141-.401-3.823-1.154-11.371-1.648-14.139 1.103.006 3.83-.029 4.718-.732C59.354 62.591 66.528 46.726 72.075 33.4c2.6-4.174 7.122-9.141 10.836-11.279 2.816-.312 5.053-.222 7.129.58 7.487 7.053 8.305 7.942 18.258 26.363 6.637 1.039 16.294.012 26.287.078 3.078-4.874 3.881-7.173 10.165-18.488 2.045-3.191 7.204-8.799 11.41-9.672 6.272 1.195 14.982 14.33 24.206 31.241.945 2.059 10.488 26.477 10.931 27.359 1.478-.527 2.289-.648 4.072-.888.163 3.015-.954 9.734-1.55 11.384 2.855 1.371 1.04 1.518 5.335 2.491-1.955 3.318-3.811 9.549-4.215 12.299 2.779 5.51 5.43 9.11 6.355 10.616 2.62 3.792 9.131 17.526 11.915 24.959.709 4.865.756 13.358 1.082 18.235-1.657 1.303-3.935 1.145-5.049.588-.62 1.067-1.06 2.396-3.144 8.744-1.76 4.005-10.089 15.241-18.239 22.026-2.177 1.872-13.743 12.777-19.928 21.75-1.597-1.438-3.149-3.77-4.023-5.501-2.795 1.278-6.853 3.474-8.588 4.541-3.138 1.923-18.349 7.318-25.767 8.668-4.075.693-4.474 1.73-5.366 3.436-6.75 2.185-10.301 2.324-18.713 1.844zm68.162-50.259c1.893-.345.782 1.382 1.071 2.629 16.823-.204 11.196-36.819 17.821-43.009 2.239-.655 3.005 8.17 4.655 8.196 7.016-13.743-6.471-28.564-16.462-36.005.851-2.408 3.608-3.234 4.919-5.788 1.841-3.504 1.975-8.053 2.967-9.964.623-1.136.248-1.808-.454-1.894-2.006-.936.01-3.789-.496-5.035-.212-.499.573-2.324.921-2.841.391-1.815-1.339-5.253-1.707-7.349-2.498-6.777-4.414-11.881-7.324-18.106-1.852-6.178-5.834-10.744-8.368-16.053-.615-1.108-1.209-2.964-2.377-1.659 6.482 11.052 12.273 22.397 14.863 34.377.536 2.189.756 5.256.571 7.953-.237 3.45-.255 3.467-2.899 2.651-4.401-1.875-8.702-4.581-12.506-7.495-2.902-3.059-1.302-7.163-1.42-10.173-2.394-.677-4.708 2.744-4.894-1.491-.461-2.587-1.935-5.556-2.741-6.289-2.749.455-3.683 5.685-6.87 2.028-5.747-7.74-5.097-10.413-4.245-16.912.483-6.191 3.743-14.747 7.619-16.577 6.916.907 8.11 7.337 11.468 11.034.438 1.059 1.009-.597 1.341-.748-3.23-4.067-7.186-9.939-11.582-12.944-1.234-.688-2.693-.762-3.498-.179-.732.764-6.431 5.769-5.985 6.617.422.786.31 1.386-.526 2.808-1.722 3.857-3.062 9.499-3.203 13.359-.428 2.299-.092 4.215-.13 5.921-.358 1.583-1.831 2.038-2.765 2.018-3.599-1.13-8.124-2.115-10.97-2.807-6.161-.286-12.174.522-16.148 1.778-3.584-.564-6.938-2.036-11.282-1.712-1.83.143-8.015 2.917-8.432 2.435-.394-.847-.131-1.898.514-2.333.841-.697 2.292-2.247 2.127-2.762-.315-3.072 2.921-3.403 2.765-5.128-2.155-7.238-7.741-16.86-12.696-19.177-.854-.379-2.605-.331-3.948-.047-2.387.969-4.074 3.018-5.332 4.318-3.303 4.233-5.76 9.168-8.009 13.428-1.921 4.402-4.154 8.966-5.732 13.006-1.599 3.686-2.925 7.787-4.343 11.363-1.389 4.862-3.442 10.013-4.682 14.449-.324 1.497-1.479 1.865-2.684.854-3.425-1.935 2.051 13.266 3.158 16.194.187.686.048.973-.905.862-2.299-.824-3.904-3.549-5.894-3.929-.998-.192-1.334.177-.652 1.047.977 2.088 1.812 4.167 2.485 6.715.344 1.871 1.638 8.718-.125 9.929-1.445 1.834-3.1 3.981-4.078 5.85-2.675 4.389-4.831 9.029-6.436 13.627-.692 1.439-1.87 6.441-1.077 6.664 1.321-.043 2.259-2.348 3.22-1.848 1.516 1.687-.012 2.968-.644 4.716-1.766 4.666-2.317 10.032-2.677 14.655-.115 1.508.218 1.984.48.685.118-.583.197-.668.369-.4 4.454 11.852 13.517 29.973 24.771 32.875 2.704-1.173-2.983-4.522-.286-4.566 16.546 14.076 37.057 18.798 56.098 13.778-.091 1.048-2.088 2.649-.859 2.966 21.945 1.443 38.271-18.653 54.139-26.568zM58.438 83.216c.532-13.797 5.575-23.87 10.759-36.272 3.174-6.54 6.792-13.124 10.818-17.326 2.643-1.937 4.273-2.281 5.578-.933 7.299 6.585 9.145 23.137 1.453 31.296-1.986 1.662-2.79 2.185-4.894-2.064-3.467-.271-3.62 8.652-4.944 8.26-1.657.184-4.054-2.481-3.491.694.719 5.217-1.788 9.002-5.6 11.753-1.435 1.164-7.888 5.113-9.679 4.592z" fill="#d7d2d2"/><path d="M63.855 61.779c2.329-6.279 6.104-14.461 10.634-22.263 3.157-6.124 5.511-9.779 9.634-10.593 5.099.997 7.069 14.253 6.846 18.528-.136 2.613-4.876 13.743-6.418 12.775-1.178-.74-1.577-3.328-2.552-3.285-2.782.124-4.611 6.908-4.75 8.717-.059.763-3.66-1.993-4.27-.653-.548 1.203 1.365 5.422-1.476 9.125-.402.707-9.269 8.534-12.223 8.353-.471-3.692 2.621-15.862 4.573-20.704zm105.273 11.886c-.909-2.336-1.488-5.417-.871-7.368.615-2.674-1.664-3.151-3.239-2.022-3.11-2.319-2.866-8.583-6.179-8.816-1.885.595-2.034 3.62-4.104 3.772-2.307-1.502-4.961-6.742-5.215-9.328-.543-5.3.18-11.043 1.966-15.503.375-1.861 2.699-6.734 5.445-7.951 3.509-.871 12.13 13.535 14.024 16.775 1.866 3.437 14.936 26.626 12.401 38.789-5.525-1.052-10.767-4.931-14.229-8.346z" fill="#d7a7a9"/><path d="M102.889 197.202c-7.011-1.778-12.171-6.975-14.047-11.844-1.234-7.904-.892-14.224 1.493-20.101 4.155-5.341 8.937-7.945 8.963-7.948 4.419 1.882 11.552 6.326 19.281 8.418-1.327 7.281-1.31 17.316-2.213 24.826-3.072 4.558-8.331 7.315-13.479 6.65z" fill="#bb6b73"/><path d="M89.728 219.469c-16.873-2.939-20.731-10.51-25.914-14.356-1.45.494-3.427 3.363-4.516 2.624-.847-1.398-1.491-3.252-2.788-5.035-3.892-6.867-8.162-11.353-12.409-17.679-5.48-7.812-6.592-12.871-7.893-19.862-.727-7.235-.711-15.105.452-20.048-.248-.708-.108-.5-.676-.129-.976.638-1.16.189-.837-2.037.275-3.965 1.792-11.546 2.804-13.401 2.831-7.447 6.735-12.796 10.283-19.089 1.062-4.955-.219-9.505-2.024-12.987-3.986-8.663 5.719-4.132 4.05-7.785-.845-3.557-2.008-7.165-2.018-10.095-.026-2.169.38-3.075 2.048-2.487 1.839.651 2.397.545 3.053-.579 4.646-13.078 8.191-23.868 13.919-35.112 2.872-6.445 6.07-12.047 10.39-16.592 2.661-2.934 5.254-3.486 7.811-3.487 4.865-.416 9.318 4.193 11.986 7.465 4.996 5.345 7.258 12.212 11.521 18.966.456.927 19.391 1.313 25.378.679 3.087-6.744 6.166-11.769 9.37-18.003 2.679-3.978 7.682-11.2 13.041-10.375 2.712.474 5.711 3.176 11.602 10.313 4.984 6.276 9.199 13.326 11.98 20.176 2.954 6.088 5.048 11.833 7.669 17.921 1.172 3.228 2.004 6.071 3.247 8.971.456 1.087.889 1.145 2.388.316 2.518-1.391 2.72-1.153 2.72 3.205.175 4.712-2.873 8.89 1.469 9.989 3.42.868 3.633 1.442 1.356 3.659-2.22 2.655-3.47 6.567-3.511 9.949-.276 1.88 2.227 4.947 7.247 11.668 3.001 5.024 7.62 12.16 9.028 17.764 1.195 4.11 1.492 5.852 2.288 9.836.933 8.135 1.003 13.717.227 16.989-.853 2.633-1.854 3.186-2.868 1.655-.406-.52-1.438-2.392-2.055-1.897-1.558 3.329-2.154 7.203-3.932 10.629-3.136 6.246-7.573 11.822-13.142 16.583-9.825 8.038-18.358 16.284-22.467 23.255-.523 1.06-1.235 2.456-2.342 2.196-.754-.189-2.968-3.194-3.261-4.428-.335-1.405-1.369-1.71-2.49-.734-7.406 5.039-16.746 8.974-24.949 10.757-1.896.475-6.639.953-6.181.463 18.865-6.497 24.196-7.796 36.053-18.984.844 2.375-2.219 9.645.911 10.273 2.034-.878 4.716-6.838 10.901-12.515 4.37-4.101 10.774-9.415 17.014-15.589 3.069-3.504 6.783-7.986 8.382-11.62 2.525-5.064 3.387-9.656 3.423-13.487.025-2.753.11-5.071.19-5.151 2.137 1.455 2.966 7.542 5.142 6.946 1.265-.503.716-2.543.764-3.72-.674-12.24-2.877-21.338-5.133-25.809-1.575-3.849-3.649-7.79-5.89-11.173-2.122-4.435-8.444-9.215-8.682-13.283 1.146-7.663 3.329-8.517 4.068-12.263-.289-.804-.457-.8-1.113-1.004-2.828.175-4.065 1.984-6.167 3.645-.397-6.115 5.977-11.456 3.771-15.796-1.125-.626-2.849 2.547-3.622 1.88-.053-.089-.173-.522-.267-.962-2.011-4.307-2.479-9.387-4.69-13.584-2.072-5.379-4.356-10.664-5.823-13.968-3.325-7.826-8.145-15.026-12.458-21.561-2.368-2.845-5.132-6.269-7.709-8.191-3.465-2.839-6.695-1.76-9.678 1.191-3.709 3.879-6.506 8.411-8.825 12.934-1.227 2.275-4.674 9.272-4.729 11.151-.019 1.704.881 1.293 1.832 2.154 0 .401-2.392.199-3.156-.266-10.876-.911-23.985-1.238-32.537-.715-2.383.323-3.226.329-3.226.025 0-.13.129-.273.286-.32 2.15-.756 4.586-1.202 6.696-1.385.06-.712.13-1.552-.217-2.169-3.081-5.754-6.189-11.713-9.787-16.034-4.191-4.529-7.018-8.168-12.009-7.631-2.774.202-5.414 2.326-6.489 3.783-3.823 4.621-7.17 10.908-9.506 15.772-1.861 4.075-3.654 8.397-5.227 12.337-3.136 7.666-5.978 16.262-8.727 23.493-.155 4.52-2.614.774-4.675 2.023.033 5.875 4.66 16.217 3.861 15.854-1.866-.533-5.925-4.177-7.248-1.843 1.758 3.451 3.943 9.962 4.05 15.047.151 2.395-1.159 2.367-1.984 3.946-4.426 6.531-9.322 17.113-9.946 19.549-.593 1.623-2.333 8.082-1.315 8.973.934.356 3.139-2.748 3.712-2.422-.377 3.118-2.996 7.224-3.054 10.343-1.111 6.924-1.144 11.727.535 20.416 1.834 6.137 4.045 9.135 6.891 14.198 3.399 4.941 6.314 9.33 9.932 14.011.702.225 4.578 8.603 6.103 6.944.65-.801.884-4.514 1.288-4.61.636-.018 2.948 3.78 4.435 5.226 5.298 5.516 13.717 9.709 22.717 13.31 1.511.346 1.893.366 1.893.598 0 .223-.492.379-2.012.197zm-3.023-39.656c-.715-2.601 1.732-8.08.691-9.74-1.753-4.691-5.887-7.416-8.282-10.806-9.302-14.839-1.952-34.703 13.679-39.371 9.037-2.107 16.922-.651 15.66 1-24.877-2.32-35.275 12.739-29.533 34.222 2.291 4.621 6.485 9.247 11.439 6.53 2.899-1.955 8.525-4.837 8.059-8.343-1.683-9.641-11.474-10.151-11.715-17.15.961-12.494 23.073-9.994 26.333-3.412 5.693 11.825-13.448 11.497-12.992 19.284.97 6.649 12.089 11.782 17.246 12.449 2.216.837 3.842.062 5.283 0 9.913-2.126 13.928-12.23 18.183-19.083 1.682-2.701-6.433-5.934-5.746-9.348 4.419 3.859 10.922 10.247 9.959 15.417-1.384.307-.1-4.574-2.221-2.98-4.617 17.302-17.735 20.563-24.709 28.833-.312 7.594 1.543 13.828-4.512 18.903-19.729 8.054-26.513-9.159-26.822-16.405zm29.657 5.21c-.656-7.977.639-11.891.59-18.417-3.431-.807-8.048-3.961-11.743-5.554-5.735 6.639-5.341 14.216-6.854 20.266-1.64-9.386 1.972-15.398 4.05-21.103-3.785-5.991-9.887 2.454-11.81 9.028-1.55 3.911-2.144 7.613-2.155 10.494.417 17.959 27.139 24.525 27.922 5.286zm-5.061-48.907c2.179-7.226-20.915-9.431-21.577-2.644 6.411-2.103 16.972-2.044 21.577 2.644zm17.796-19.105c-3.273-.385-6.397-3.647-5.854-7.039.038-3.384 6.274-5.559 8.409-3.437-2.221 5.719 3.309 4.414 5.85 3.704.893 5.986-4.829 7.378-8.405 6.772zm-49.237-.562c-2.127-.446-4.754-2.927-3.46-5.51 5.094 2.066 4.706-1.259 4.286-3.855.077-.077.87-.139 1.762-.138 3.394.183 5.175 2.114 5.051 4.323-.172 3.066-4.626 5.812-7.639 5.18z" fill="#202023"/></svg>