<svg xmlns="http://www.w3.org/2000/svg" width="256" height="256" xmlns:v="https://vecta.io/nano"><linearGradient id="A" gradientUnits="userSpaceOnUse" x1="25.214" y1="1024.822" x2="25.837" y2="1024.119" gradientTransform="matrix(50,0,0,-50,-1250,51250)"><stop offset="0" stop-color="#00adef"/><stop offset="1" stop-color="#0084ff"/></linearGradient><path d="M6.557 128c0 66.964 54.479 121.443 121.443 121.443S249.443 194.964 249.443 128 194.964 6.557 128 6.557 6.557 61.036 6.557 128z" fill="#fff" fill-rule="evenodd" stroke="#b0b0b0" stroke-width="13.114" paint-order="normal"/><g transform="matrix(4.72 0 0 4.72 10 10)"><circle cx="25" cy="25" r="25" fill="url(#A)"/><path d="M16.6 11.8l-2.7 2.7v10.7l2.7 2.7h10.7v5.4H22v-2.7h-8.1V36l2.7 2.7h16.1l2.7-2.7V25.2l-2.7-2.7H22v-5.4h5.4v2.7h8.1v-5.4l-2.7-2.7H16.6z" fill="#fff"/></g></svg>