<svg xmlns="http://www.w3.org/2000/svg" xmlns:xlink="http://www.w3.org/1999/xlink" width="250" height="250" xmlns:v="https://vecta.io/nano"><defs><linearGradient id="A" x1="17.334" x2="80" y1="74.339" y2="74.339" xlink:href="#G"><stop offset="0" stop-color="#000070"/><stop offset=".327" stop-color="#000273"/><stop offset=".59" stop-color="#00097d"/><stop offset=".83" stop-color="#00148e"/><stop offset="1" stop-color="#00209f"/></linearGradient><linearGradient id="B" x1="17.584" x2="17.584" y1="68.073" y2="80.102" xlink:href="#G"><stop offset=".35" stop-color="#dfdfdf"/><stop offset=".645" stop-color="#ddd"/><stop offset=".752" stop-color="#d6d6d6"/><stop offset=".828" stop-color="#cbcbcb"/><stop offset=".889" stop-color="#bababa"/><stop offset=".941" stop-color="#a4a4a4"/><stop offset=".987" stop-color="#898989"/><stop offset="1" stop-color="gray"/></linearGradient><linearGradient id="C" x1="48.667" x2="48.667" y1="68.69" y2="80" xlink:href="#G"><stop offset=".35" stop-color="#0050cf"/><stop offset=".645" stop-color="#004ecd"/><stop offset=".752" stop-color="#0049c6"/><stop offset=".828" stop-color="#003fbb"/><stop offset=".889" stop-color="#0031aa"/><stop offset=".941" stop-color="#001e94"/><stop offset=".987" stop-color="#000879"/><stop offset="1" stop-color="#000070"/></linearGradient><linearGradient id="D" x1="38.625" x2="38.625" y1="68.69" y2="80" xlink:href="#G"><stop offset=".35" stop-color="#fbbf00"/><stop offset=".645" stop-color="#f9bd00"/><stop offset=".752" stop-color="#f2b600"/><stop offset=".828" stop-color="#e7ab00"/><stop offset=".889" stop-color="#d69a00"/><stop offset=".941" stop-color="#c08400"/><stop offset=".987" stop-color="#a56900"/><stop offset="1" stop-color="#9c6000"/></linearGradient><linearGradient id="E" x1="17.334" x2="80" y1="55.313" y2="55.313" xlink:href="#G"><stop offset="0" stop-color="#0050cf"/><stop offset=".021" stop-color="#0252d1"/><stop offset=".244" stop-color="#1363e2"/><stop offset=".487" stop-color="#1d6dec"/><stop offset=".791" stop-color="#2070ef"/><stop offset=".841" stop-color="#1e6dec"/><stop offset=".882" stop-color="#1963e2"/><stop offset=".919" stop-color="#1152d1"/><stop offset=".954" stop-color="#053ab9"/><stop offset=".966" stop-color="#0030af"/><stop offset="1" stop-color="#2070ef"/></linearGradient><linearGradient id="F" x1="17.334" x2="80" y1="57.174" y2="57.174" xlink:href="#G"><stop offset="0" stop-color="#fbbf00"/><stop offset=".021" stop-color="#fbc102"/><stop offset=".244" stop-color="#fdd213"/><stop offset=".487" stop-color="#ffdc1d"/><stop offset=".791" stop-color="#ffdf20"/><stop offset=".841" stop-color="#fddc1e"/><stop offset=".882" stop-color="#f8d219"/><stop offset=".919" stop-color="#eec111"/><stop offset=".954" stop-color="#e1a905"/><stop offset=".966" stop-color="#db9f00"/><stop offset="1" stop-color="#ffdf20"/></linearGradient><linearGradient id="G" gradientUnits="userSpaceOnUse"/></defs><circle cx="125" cy="125" r="125" fill="#cdcdcd" fill-rule="evenodd"/><g transform="matrix(2.41095 0 0 2.417249 27.123881 21.613515)"><path fill="#0e3ca5" d="M32.585 59.259c2 7.4 9.176 13.044 12.8 12.811.127-.008 13.745-2.547 21.2-15 5.8-9.693 3.826-19.051-4.064-19.255-2.839.207-33.745 7.348-29.934 21.446m29.197-47.528l-.008-.006.012-.007a34.63 34.63 0 0 0-36.5-5.266A20.493 20.493 0 0 0 23.1 7.528c-.486.259-.973.516-1.444.8l.115.036a15.776 15.776 0 0 0-3.655 3.459C8.172 24.951 41.486 34.495 59.3 34.527c8.19 5.882 10.49-16.561 2.484-22.794z"/><path fill="#5493f7" d="M27.3 12C22.723 18.878 7.478 23.726 4.971 22.971l-.017-.032q.155-.312.313-.619a36.682 36.682 0 0 1 10.87-12.683q1.407-1.032 2.913-1.929a10.777 10.777 0 0 1 5.04-1.342c6.789.134 3.244 5.579 3.21 5.634m-3.756 48.612c.329 2.161-.008 10.7-.45 11.418-.381.023-1.174.071-3.471-1.217a36.44 36.44 0 0 1-17.952-25.8 36.9 36.9 0 0 1 0-11.841 36.291 36.291 0 0 1 1.383-5.615q.183-.55.383-1.093c2.631 3.5 5.676 6.666 8.264 10.2 2.465 3.365 5.856 8.851 6.546 10.024 4.284 7.277 4.967 11.767 5.294 13.925m50.648-21.521A36.4 36.4 0 0 1 71.648 52.5c-4.3 4.62-33.283-6.753-33.567-6.878-3.965-1.738-16.031-7.022-17.12-15.328C19.4 18.349 43.63 10.025 54.28 9.71c1.277.014 5.163.06 7.429 1.9a36.411 36.411 0 0 1 12.48 27.482M54.568 71.465c-3.16 1.475-6.638.4-5.734-2.676 1.735-5.909 16.886-11.967 20.232-12.3.412-.04.588.241.405.562a36.87 36.87 0 0 1-14.9 14.41"/><path fill="url(#A)" d="M17.334 77.254a2.553 2.553 0 0 0 2.329 2.714c30.7.21 60.337-1.2 60.337-5.8 0-13.925-62.666 3.086-62.666 3.086z"/><path fill="url(#B)" d="M17.586 78.389v-.007z"/><path fill="url(#C)" d="M39.658 72.107l5.715 5.715c19.473-2.582 34.146-6.473 34.146-3.522 0 4.245-29.173 5.7-59.843 5.494a2.19 2.19 0 0 1-.244-.014 2.354 2.354 0 0 1-1.846-1.388v-.007a2.94 2.94 0 0 1-.139-.368 2.791 2.791 0 0 0 .139.368v.007a2.331 2.331 0 0 0 2.087 1.386c5.88-.036 11.7-.414 17.278-.97l-5.073-5.073c-8.419 1.86-14.544 3.522-14.544 3.522a2.549 2.549 0 0 0 2.341 2.714c30.692.233 60.287-.731 60.325-5.8 0-8.317-22.34-5.602-40.342-2.064z"/><path fill="url(#D)" d="M45.373 77.822l-5.715-5.715a337.03 337.03 0 0 0-7.78 1.625l5.073 5.073 8.422-.983z"/><path fill="url(#E)" d="M19.678 37.822a2.344 2.344 0 0 0-2.344 2.343v37.089a2.344 2.344 0 0 0 2.329 2.346c30.7-.23 60.374-10.391 60.337-5.431V32.393c.037-4.961-29.627 5.198-60.322 5.429z"/><path fill="url(#F)" d="M80 49.142c0-.916-1-1.252-2.251-1.358a21.5 21.5 0 0 0-3.995.163l-3.1.42-2.767.431-2.671.455-2.624.462-2.63.455-2.679.459-2.766.468-2.931.464-3.12.482-3.36.481V35.771l-8.379 1.031v16.716l-3.592.341a173.197 173.197 0 0 1-6.105.441l-2.942.131-3.161.1-3.593.042v8.355l3.593-.042 3.159-.1 2.944-.131 2.946-.185 3.156-.255 3.591-.341v16.7l8.377-1.03V60.88q1.754-.239 3.361-.482 1.607-.243 3.121-.481l2.929-.464 2.769-.469 2.679-.46 2.63-.454 2.624-.461a187.95 187.95 0 0 1 5.439-.887l3.1-.42a21.515 21.515 0 0 1 4-.164C79 56.246 80 56.581 80 57.5z"/></g></svg>