<?xml version="1.0" encoding="UTF-8"?><svg id="Layer_1" xmlns="http://www.w3.org/2000/svg" width="128" height="128" viewBox="0 0 128 128"><defs><style>.cls-1{fill:#fff;}.cls-2{fill:#4a21ef;}</style></defs><path class="cls-2" d="M64,0h0c35.37,0,64,28.63,64,64h0c0,35.37-28.63,64-64,64h0C28.63,128,0,99.37,0,64h0C0,28.63,28.63,0,64,0Z"/><path class="cls-1" d="M59.59,28.16c-2.19,0-4.28.89-5.8,2.4l-24.24,24.24c-.94.94-1.36,2.14-1.36,3.34s.47,2.4,1.36,3.34l15.88,15.88v-28.11c0-2.09,1.67-3.81,3.76-3.81h33.38l17.24-17.24h-40.28l.05-.05Z"/><path class="cls-1" d="M45.4,82.6h33.38c2.09,0,3.81-1.72,3.81-3.81v-28.11l15.88,15.88c.94.94,1.36,2.14,1.36,3.34s-.47,2.4-1.36,3.34l-24.24,24.24c-1.57,1.57-3.66,2.4-5.8,2.4H28.16l17.24-17.24v-.05Z"/></svg>