<svg xmlns="http://www.w3.org/2000/svg" width="80.003" height="190.002" viewBox="0 0 80.003 190.002">
  <g id="Group_9621" data-name="Group 9621" transform="translate(1519.75 21292)">
    <path id="Fill-3" d="M150.1,172.187v63.438c0,3.368-2.116,4.98-4.729,3.558l-35.883-19.676a10.814,10.814,0,0,1-4.756-8.716V148.8a11.868,11.868,0,0,0,1.667,1.116Z" transform="translate(-1624.451 -21341.699)" fill="#425cc7"/>
    <g id="Group-7" transform="translate(-1519.75 -21292.502)">
      <path id="Fill-5" d="M4.012,92.675,76.05,55.738A8.49,8.49,0,0,0,80,48.751V3.853C80,1.07,78.22-.209,76.05.9L9.666,34.946C2.815,38.62-.356,40.348.032,48.111V89.723c0,2.647,1.81,4.069,3.98,2.953" fill="#005cb9"/>
    </g>
    <path id="Fill-8" d="M108.713,90.489l72.038,36.937a8.53,8.53,0,0,1,3.953,7.015v44.871c0,2.783-1.783,4.089-3.953,2.98l-72.038-36.944a8.517,8.517,0,0,1-3.98-7.008V93.463c0-2.749,1.81-4.089,3.98-2.973" transform="translate(-1624.451 -21341.699)" fill="#3cb4e5"/>
    <path id="Fill-10" d="M109.84,141.873l50.1-25.691-50.1-25.691a2.522,2.522,0,0,0-2.783,0,9.877,9.877,0,0,0-1.2,4.341v43.5a8.022,8.022,0,0,0,.585,2.79,2.367,2.367,0,0,0,3.239.85c.048-.034.1-.068.156-.1" transform="translate(-1624.451 -21341.699)" fill="#00a0df"/>
  </g>
</svg>
