<svg xmlns="http://www.w3.org/2000/svg" xmlns:xlink="http://www.w3.org/1999/xlink" width="250" height="250" xmlns:v="https://vecta.io/nano"><defs><linearGradient id="A" x1="17.337" x2="80" y1="74.339" y2="74.339" gradientUnits="userSpaceOnUse"><stop offset="0" stop-color="gray"/><stop offset=".327" stop-color="#838383"/><stop offset=".59" stop-color="#8d8d8d"/><stop offset=".83" stop-color="#9e9e9e"/><stop offset="1" stop-color="#afafaf"/></linearGradient><linearGradient id="B" x1="48.669" x2="48.669" y1="68.69" y2="80" gradientUnits="userSpaceOnUse"><stop offset=".35" stop-color="#dfdfdf"/><stop offset=".645" stop-color="#ddd"/><stop offset=".752" stop-color="#d6d6d6"/><stop offset=".828" stop-color="#cbcbcb"/><stop offset=".889" stop-color="#bababa"/><stop offset=".941" stop-color="#a4a4a4"/><stop offset=".987" stop-color="#898989"/><stop offset="1" stop-color="gray"/></linearGradient><linearGradient id="C" x1="17.337" x2="80" y1="55.314" y2="55.314" gradientUnits="userSpaceOnUse"><stop offset="0" stop-color="#dfdfdf"/><stop offset=".021" stop-color="#e1e1e1"/><stop offset=".244" stop-color="#f2f2f2"/><stop offset=".487" stop-color="#fcfcfc"/><stop offset=".791" stop-color="#fff"/><stop offset=".841" stop-color="#fcfcfc"/><stop offset=".882" stop-color="#f2f2f2"/><stop offset=".919" stop-color="#e1e1e1"/><stop offset=".954" stop-color="#c9c9c9"/><stop offset=".966" stop-color="#bfbfbf"/><stop offset="1" stop-color="#fff"/></linearGradient><linearGradient id="D" x1="17.337" x2="80" y1="44.88" y2="44.88" gradientUnits="userSpaceOnUse"><stop offset="0" stop-color="#cf2000"/><stop offset=".021" stop-color="#d12201"/><stop offset=".244" stop-color="#e23309"/><stop offset=".487" stop-color="#ec3d0e"/><stop offset=".791" stop-color="#ef4010"/><stop offset=".841" stop-color="#ec3d0f"/><stop offset=".882" stop-color="#e2330d"/><stop offset=".919" stop-color="#d12208"/><stop offset=".954" stop-color="#b90a03"/><stop offset=".966" stop-color="#af0000"/><stop offset="1" stop-color="#ef4010"/></linearGradient><linearGradient xlink:href="#C" id="E" x2="80.001" y1="47.75" y2="47.75"/><linearGradient xlink:href="#C" id="F" x1="17.338" x2="79.998" y1="46.261" y2="46.261"/><linearGradient xlink:href="#C" id="G" y1="45.477" y2="45.477"/><linearGradient xlink:href="#C" id="H" x1="17.335" x2="80.006" y1="42.796" y2="42.796"/><linearGradient xlink:href="#C" id="I" x2="79.999" y1="51.11" y2="51.11"/><linearGradient xlink:href="#C" id="J" x2="79.998" y1="50.617" y2="50.617"/><linearGradient xlink:href="#C" id="K"/></defs><circle cx="125" cy="125" r="125" fill="#cdcdcd" fill-rule="evenodd"/><g transform="matrix(2.41095 0 0 2.417396 27.123881 21.608989)"><path fill="#0e3ca5" d="M32.585 59.261c2 7.4 9.176 13.044 12.8 12.811.127-.008 13.745-2.547 21.2-15 5.8-9.693 3.826-19.051-4.064-19.255-2.839.207-33.745 7.348-29.934 21.446m29.198-47.528l-.008-.006.011-.007a34.628 34.628 0 0 0-36.5-5.266A20.417 20.417 0 0 0 23.1 7.53c-.486.259-.972.516-1.444.8l.115.035a15.78 15.78 0 0 0-3.655 3.46C8.172 24.953 41.486 34.5 59.3 34.529c8.191 5.882 10.491-16.561 2.485-22.794z"/><path fill="#5493f7" d="M27.3 12C22.723 18.88 7.478 23.727 4.971 22.973l-.017-.032q.155-.312.313-.619a36.682 36.682 0 0 1 10.87-12.683q1.407-1.032 2.913-1.929a10.777 10.777 0 0 1 5.04-1.342c6.789.132 3.244 5.579 3.21 5.632m-3.756 48.614c.329 2.161-.008 10.7-.45 11.417-.381.024-1.174.072-3.471-1.216a36.44 36.44 0 0 1-17.952-25.8 36.9 36.9 0 0 1 0-11.841 36.3 36.3 0 0 1 1.383-5.616c.122-.366.25-.731.383-1.092 2.631 3.5 5.676 6.666 8.264 10.2 2.465 3.366 5.856 8.852 6.546 10.024 4.284 7.278 4.967 11.768 5.294 13.926m50.648-21.522A36.4 36.4 0 0 1 71.648 52.5c-4.3 4.621-33.283-6.753-33.567-6.877C34.116 43.886 22.05 38.6 20.961 30.3 19.4 18.351 43.63 10.027 54.28 9.711c1.277.015 5.163.061 7.429 1.9a36.411 36.411 0 0 1 12.48 27.482M54.568 71.467c-3.16 1.474-6.638.4-5.734-2.677 1.735-5.908 16.886-11.966 20.232-12.3.413-.04.588.241.405.562a36.87 36.87 0 0 1-14.9 14.41"/><path fill="url(#A)" d="M17.337 77.254a2.552 2.552 0 0 0 2.329 2.714c30.7.21 60.334-1.2 60.334-5.8 0-13.924-62.663 3.086-62.663 3.086z"/><path fill="url(#B)" d="M17.337 77.254a2.55 2.55 0 0 0 2.341 2.714c30.69.233 60.285-.731 60.322-5.8 0-13.924-62.663 3.086-62.663 3.086zm2.342 2.537a2.194 2.194 0 0 1-.245-.014 2.4 2.4 0 0 1-1.987-1.762 2.368 2.368 0 0 0 2.229 1.76c30.67-.192 59.843-9.635 59.843-5.477 0 4.244-29.172 5.702-59.84 5.493z"/><path fill="url(#K)" d="M19.681 37.823a2.344 2.344 0 0 0-2.344 2.344v37.087a2.343 2.343 0 0 0 2.329 2.346C50.364 79.37 80.037 69.208 80 74.168V32.4c.037-4.966-29.626 5.194-60.319 5.423z"/><path fill="url(#D)" d="M19.681 37.823a2.344 2.344 0 0 0-2.344 2.344v18.56q1.8 0 3.513-.041 1.713-.041 3.356-.1 1.64-.06 3.216-.148 1.576-.088 3.095-.2l2.986-.248 2.9-.276 2.826-.3 2.762-.328 2.73-.348 2.7-.377 2.681-.409 2.7-.42 2.718-.44 2.75-.471 2.814-.485 2.884-.5 2.967-.516 3.073-.493 3.3-.464a24.266 24.266 0 0 1 4.279-.228C78.933 52.02 80 52.361 80 53.3V32.4c.037-4.966-29.626 5.194-60.319 5.423z"/><path fill="url(#E)" d="M28.566 53.065a6.786 6.786 0 0 1-1.523-2.232 7.143 7.143 0 0 1-.559-2.792 7.573 7.573 0 0 1 .559-2.849 8.075 8.075 0 0 1 1.523-2.41 8.45 8.45 0 0 1 2.27-1.76 8.224 8.224 0 0 1 2.787-.9 7.892 7.892 0 0 0-2.6-.225 8.593 8.593 0 0 0-3.068.826 8.71 8.71 0 0 0-2.5 1.812 8.309 8.309 0 0 0-1.69 2.565 7.97 7.97 0 0 0-.62 3.079 7.639 7.639 0 0 0 .619 3.035 7.386 7.386 0 0 0 1.686 2.431 7.216 7.216 0 0 0 2.506 1.555 7.329 7.329 0 0 0 3.068.407 7.945 7.945 0 0 0 2.6-.668 6.875 6.875 0 0 1-2.787-.429 6.646 6.646 0 0 1-2.271-1.445z"/><path fill="url(#F)" d="M31.335 45.786l-.407-1.291-.406 1.352-1.326.091 1.075.739-.413 1.35 1.07-.9 1.07.732-.411-1.285 1.072-.9-1.324.112z"/><path fill="url(#G)" d="M39.734 44.968l-.405-1.277-.408 1.367-1.324.14 1.073.7-.411 1.366 1.07-.936 1.066.694-.41-1.273 1.069-.939-1.32.158z"/><path fill="url(#H)" d="M35.791 43.088l1.075-.92-1.327.134-.408-1.282-.407 1.36-1.326.12 1.074.714-.411 1.359 1.07-.92 1.073.714z"/><path fill="url(#I)" d="M32.5 49.339l-.406 1.356-1.325.1 1.074.728-.412 1.355 1.069-.908 1.07.723-.412-1.283 1.072-.911-1.324.123a324.8 324.8 0 0 1-.406-1.283z"/><path fill="url(#J)" d="M38.164 50.114l-.406-1.278-.408 1.364-1.327.13 1.076.706-.413 1.362 1.072-.929 1.069.7-.412-1.274 1.072-.933z"/></g></svg>