<svg xmlns="http://www.w3.org/2000/svg" viewBox="0 0 490 490"><defs><style>.a{fill:#0d172c;}.b{fill:#fffffe;}</style></defs><title>Shapeshift</title><rect class="a" width="490" height="490" rx="60.06" ry="60.06"/><path class="b" d="M392.35,110.68l-15.47,92.73-55-64.72ZM377.21,243.29,391,294.11l-105.25,29ZM148.1,217.75,204.53,144h98l62.64,73.73ZM357.9,236l-102,89L152,236ZM185.63,138.74l-50.42,65.87L119.73,111l65.91,27.71Zm40,184.33L119.4,294.13,134,244.54Zm19.62,24.22-20.06,22.07a333.89,333.89,0,0,0-55.63-42.68l75.69,20.62Zm97.29-21a334,334,0,0,0-55.48,43.22l-20.49-22.3,76-20.91ZM415.63,81.81,305,125.81H201.87L96.37,81.45l24,144.83-23,78.41,60,35.89a315.11,315.11,0,0,1,75.69,63.21l23.38,26.76L281,402.41a314.69,314.69,0,0,1,72.87-61.61l58.88-36.12-21.2-78.28Z" transform="translate(-10 -10)"/></svg>