<svg xmlns="http://www.w3.org/2000/svg" xmlns:xlink="http://www.w3.org/1999/xlink" viewBox="0 0 490 490"><defs><style>.a{fill:url(#a);}.b{fill:#273c51;}.c{fill:url(#b);}.d{fill:#466284;}.e{fill:#354d6a;}.f{fill:url(#c);}.g{fill:url(#d);}.h{fill:url(#e);}.i{fill:url(#f);}.j{fill:url(#g);}.k{fill:url(#h);}.l{fill:url(#i);}.m{fill:#fff;}.n{fill:url(#j);}.o{fill:url(#k);}.p{fill:none;}</style><linearGradient id="a" x1="245" y1="490" x2="245" gradientUnits="userSpaceOnUse"><stop offset="0" stop-color="#4f6f95" stop-opacity="0.5"/><stop offset="1" stop-color="#e5e6e5" stop-opacity="0.5"/></linearGradient><linearGradient id="b" x1="247.42" y1="103.8" x2="166.97" y2="-129.57" gradientTransform="matrix(1, 0, 0, -1, -1.5, 197)" gradientUnits="userSpaceOnUse"><stop offset="0.13" stop-color="#2b415b"/><stop offset="0.38" stop-color="#3b5676"/><stop offset="0.69" stop-color="#54769e"/><stop offset="0.79" stop-color="#52749b"/><stop offset="0.86" stop-color="#4d6c92"/><stop offset="0.92" stop-color="#436082"/><stop offset="0.98" stop-color="#364f6c"/><stop offset="1" stop-color="#314863"/></linearGradient><linearGradient id="c" x1="345.76" y1="-2.99" x2="139.33" y2="116.19" gradientTransform="matrix(1, 0, 0, -1, -1.5, 197)" gradientUnits="userSpaceOnUse"><stop offset="0" stop-color="#54769e"/><stop offset="0.48" stop-color="#53749c"/><stop offset="0.69" stop-color="#4f6f95"/><stop offset="0.84" stop-color="#486588"/><stop offset="0.91" stop-color="#435f80"/></linearGradient><linearGradient id="d" x1="464.11" y1="63.99" x2="261.91" y2="63.99" gradientTransform="matrix(1, 0, 0, -1, -1.5, 197)" gradientUnits="userSpaceOnUse"><stop offset="0.25" stop-color="#20344c"/><stop offset="0.41" stop-color="#273d57"/><stop offset="0.67" stop-color="#395373"/><stop offset="1" stop-color="#54769e"/></linearGradient><linearGradient id="e" x1="25.25" y1="64.04" x2="234.29" y2="64.04" gradientTransform="matrix(1, 0, 0, -1, -1.5, 197)" gradientUnits="userSpaceOnUse"><stop offset="0.25" stop-color="#54769e"/><stop offset="0.41" stop-color="#4d6e93"/><stop offset="0.69" stop-color="#3c5777"/><stop offset="1" stop-color="#233850"/></linearGradient><linearGradient id="f" x1="249.26" y1="212.66" x2="245.12" y2="41.08" gradientTransform="matrix(1, 0, 0, -1, -1.5, 197)" gradientUnits="userSpaceOnUse"><stop offset="0.01" stop-color="#54769e"/><stop offset="0.2" stop-color="#507198"/><stop offset="0.45" stop-color="#466488"/><stop offset="0.73" stop-color="#354f6d"/><stop offset="1" stop-color="#21354d"/></linearGradient><linearGradient id="g" x1="285.92" y1="155.62" x2="116.92" y2="-8.4" gradientTransform="matrix(1, 0, 0, -1, -1.5, 197)" gradientUnits="userSpaceOnUse"><stop offset="0.25" stop-color="#54769e"/><stop offset="0.41" stop-color="#4d6e93"/><stop offset="0.68" stop-color="#3c5777"/><stop offset="1" stop-color="#22364e"/></linearGradient><linearGradient id="h" x1="224.56" y1="133.72" x2="365.4" y2="8.13" xlink:href="#g"/><linearGradient id="i" x1="69.87" y1="-111.9" x2="372.07" y2="-219.76" gradientTransform="matrix(1, 0, 0, -1, -1.5, 197)" gradientUnits="userSpaceOnUse"><stop offset="0.27" stop-color="#54769e"/><stop offset="1" stop-color="#425e7f"/></linearGradient><linearGradient id="j" x1="206.45" y1="202.71" x2="386.32" y2="42.46" gradientTransform="matrix(1, 0, 0, -1, -1.5, 197)" gradientUnits="userSpaceOnUse"><stop offset="0.46" stop-color="#54769e" stop-opacity="0"/><stop offset="0.57" stop-color="#52739a" stop-opacity="0.22"/><stop offset="0.68" stop-color="#4a698e" stop-opacity="0.43"/><stop offset="0.78" stop-color="#3d597b" stop-opacity="0.64"/><stop offset="0.89" stop-color="#2c435f" stop-opacity="0.84"/><stop offset="0.97" stop-color="#1b2e45"/></linearGradient><linearGradient id="k" x1="247.31" y1="-235.18" x2="247.31" y2="232.47" xlink:href="#g"/></defs><title>Shapeshift</title><rect class="a" width="490" height="490" rx="60.06" ry="60.06"/><polygon class="b" points="329.4 152.28 344.67 65.11 280.87 91.74 210.75 91.74 146.95 65 162.32 152.28 147.9 200.91 161.48 209.44 102 261.66 102 310.72 170.01 404.42 234.13 425.89 234.23 426 284.34 400.31 284.45 400.21 284.45 362.2 256.02 346.62 256.02 346.62 256.02 346.62 300.66 227.76 300.35 227.76 343.72 200.91 329.4 152.28"/><polygon class="c" points="204.86 171.44 102 261.66 245.28 344.09 245.81 174.17 204.86 171.44"/><polygon class="d" points="190.22 227.23 245.39 374.73 245.81 235.45 190.22 227.23"/><polygon class="e" points="300.66 227.76 245.39 374.73 245.81 235.45 300.66 227.76"/><polygon class="f" points="344.67 65.11 289.82 93.95 245.92 103.53 201.59 93.95 146.95 65 165.8 152.06 147.9 200.91 210.65 239.87 245.5 277.77 245.5 278.08 245.71 277.87 245.92 278.08 245.92 277.77 280.76 239.87 343.72 200.91 325.82 152.17 344.67 65.11"/><polygon class="g" points="344.67 65.11 329.4 152.28 343.72 200.91 325.82 152.17 344.67 65.11"/><polygon class="h" points="146.95 65 162.32 152.28 147.9 200.91 165.8 152.06 146.95 65"/><polygon class="i" points="146.95 65 210.75 91.74 280.87 91.74 344.67 65.11 289.82 93.95 245.92 103.53 201.59 93.95 146.95 65"/><polygon class="j" points="165.8 152.06 162.64 160.8 228.86 99.74 165.8 152.06"/><polygon class="k" points="325.82 152.17 263.08 99.74 328.88 160.38 325.82 152.17"/><polygon class="l" points="102 261.66 256.02 346.62 275.5 395.36 234.23 411.05 170.01 404.42 102 310.72 102 261.66"/><polygon class="m" points="229.49 331.99 170.22 404.21 170.01 404.42 234.13 425.89 234.23 426 284.34 400.31 284.45 400.21 284.45 362.2 229.49 331.99"/><polygon class="n" points="325.82 152.17 344.67 65.11 289.82 93.95 263.08 99.74 325.82 152.17"/><polygon class="m" points="245.81 278.08 228.44 259.03 245.81 239.87 263.29 259.03 245.81 278.08"/><polygon class="o" points="244.13 103.11 245.92 103.53 247.5 103.22 245.81 214.28 244.13 103.11"/><path class="p" d="M193.7,113.22" transform="translate(-10 -10)"/><path class="p" d="M191.06,113.22" transform="translate(-10 -10)"/></svg>