<?xml version="1.0" encoding="UTF-8" standalone="no"?>
<!-- Generator: Adobe Illustrator 24.0.0, SVG Export Plug-In . SVG Version: 6.00 Build 0)  -->

<svg
   version="1.1"
   id="Layer_1"
   x="0px"
   y="0px"
   viewBox="0 0 60.472441 60.472441"
   xml:space="preserve"
   sodipodi:docname="SIGUSD copy.svg"
   width="60.472443"
   height="60.472443"
   inkscape:version="1.1.1 (c3084ef, 2021-09-22)"
   xmlns:inkscape="http://www.inkscape.org/namespaces/inkscape"
   xmlns:sodipodi="http://sodipodi.sourceforge.net/DTD/sodipodi-0.dtd"
   xmlns="http://www.w3.org/2000/svg"
   xmlns:svg="http://www.w3.org/2000/svg"><defs
   id="defs930" /><sodipodi:namedview
   id="namedview928"
   pagecolor="#ffffff"
   bordercolor="#666666"
   borderopacity="1.0"
   inkscape:pageshadow="2"
   inkscape:pageopacity="0.0"
   inkscape:pagecheckerboard="0"
   showgrid="false"
   inkscape:zoom="10.333865"
   inkscape:cx="38.175455"
   inkscape:cy="36.33684"
   inkscape:window-width="1296"
   inkscape:window-height="847"
   inkscape:window-x="52"
   inkscape:window-y="25"
   inkscape:window-maximized="0"
   inkscape:current-layer="Layer_1" />
<style
   type="text/css"
   id="style914">
	.st0{fill-rule:evenodd;clip-rule:evenodd;}
</style>
<title
   id="title916">Group 16</title>
<desc
   id="desc918">Created with Sketch.</desc>
<path
   id="Full"
   d="m 0,30.23622 c 0,16.660775 13.575443,30.236221 30.23622,30.236221 16.660778,0 30.236221,-13.575446 30.236221,-30.236221 C 60.472441,13.575446 46.896998,0 30.23622,0 13.575443,0 0,13.575446 0,30.23622 Z"
   fill="#ffffff"
   style="stroke-width:0.246827" /><g
   id="main"
   transform="matrix(0.77528773,0,0,0.77595091,7.5978195,7.5743569)">
	<g
   id="Group-16"
   transform="translate(-70,-35)">
		<g
   transform="translate(70,34)"
   id="g923">
			<g
   id="Group-15"
   transform="translate(0,0.83028)">
				<path
   id="Fill-9"
   class="st0"
   d="M 11.2,47.8 29.5,55.2 47.7,47.4 55,29.1 47.2,10.9 28.9,3.6 10.7,11.4 3.4,29.7 Z m 18.3,10.8 c -0.2,0 -0.4,0 -0.6,-0.1 L 9.3,50.6 C 8.9,50.4 8.6,50.1 8.4,49.7 L 0.1,30.3 C -0.1,29.9 -0.1,29.5 0.1,29 L 8,9.5 C 8.2,9.1 8.5,8.8 8.9,8.6 L 28.3,0.3 c 0.4,-0.2 0.8,-0.2 1.3,0 L 49.2,8.2 C 49.5,8.3 49.8,8.6 50,9 l 8.3,19.4 c 0.2,0.4 0.2,0.8 0,1.3 l -7.9,19.6 c -0.2,0.4 -0.5,0.7 -0.9,0.9 l -19.4,8.3 c -0.1,0.1 -0.4,0.1 -0.6,0.1 z" />
				<polygon
   id="Fill-10"
   class="st0"
   points="25.8,21 33.4,29.1 25.6,37.7 38,37.7 38,41.5 20.5,41.5 20.5,37.7 28.3,29.1 20.5,21 20.5,17.3 38,17.3 38,21 " />
			</g>
		</g>
	</g>
</g>
<text
   xml:space="preserve"
   style="font-style:normal;font-weight:normal;font-size:8px;line-height:1.25;font-family:sans-serif;fill:#000000;fill-opacity:1;stroke:none"
   x="21.676304"
   y="46.158916"
   id="text2921"><tspan
     sodipodi:role="line"
     id="tspan2919"
     x="21.676304"
     y="46.158916"
     style="font-size:8px">RSV</tspan></text></svg>
