<?xml version="1.0" encoding="utf-8"?>
<!-- Generator: Adobe Illustrator 22.0.0, SVG Export Plug-In . SVG Version: 6.00 Build 0)  -->
<svg version="1.1" id="SIN" xmlns="http://www.w3.org/2000/svg" xmlns:xlink="http://www.w3.org/1999/xlink" x="0px" y="0px"
	 viewBox="0 0 490 490" style="enable-background:new 0 0 490 490;" xml:space="preserve">
<style type="text/css">
	.st0{fill:#FFFFFF;}
</style>
<path id="Full" class="st0" d="M0,245c0,135.1,109.9,245,245,245s245-109.9,245-245S380.1,0,245,0S0,109.9,0,245z"/>
<path id="SIN-2" d="M320.1,66c0,0-146.4,47.1-152.4,131c-0.9,54.4,48.1,78.6,54.1,138.8c1.1,47.1-60.8,84.8-60.8,84.8
	c3.6,1.7,7.3,3.1,11,4.4c2.2,0.3,149.6-47.4,151.3-133.2c-3.5-55.4-52-86.1-54.1-136.6c-1.3-44,58.8-83.1,60.8-84.8
	C326.8,68.7,323.5,67.2,320.1,66z"/>
</svg>
