<svg id="SIN" xmlns="http://www.w3.org/2000/svg" width="512" height="512" viewBox="0 0 512 512">
  <defs>
    <style>
      .cls-1 {
        fill: #fff;
      }

      .cls-1, .cls-2 {
        fill-rule: evenodd;
      }
    </style>
  </defs>
  <path id="Full" class="cls-1" d="M11,256c0,135.094,109.906,245,245,245S501,391.094,501,256,391.094,11,256,11,11,120.906,11,256Z"/>
  <path id="SIN-2" data-name="SIN" class="cls-2" d="M349.471,30S164.9,89.263,157.353,194.994c-1.109,68.525,60.658,99.019,68.216,174.7C226.953,428.981,149,476.454,149,476.454A136.042,136.042,0,0,0,162.922,482c2.8,0.332,188.557-59.713,190.725-167.767-4.373-69.808-65.592-108.368-68.216-171.926C283.79,86.863,359.587,37.7,362,35.546A81.383,81.383,0,0,0,349.471,30Z"/>
</svg>
