<svg id="Sirin" xmlns="http://www.w3.org/2000/svg" width="256" height="256" viewBox="0 0 512 512">
<defs>
    <style>
      .cls-1 {
        fill: #070f12;
      }

      .cls-1, .cls-2 {
        fill-rule: evenodd;
      }

      .cls-2 {
        fill: #fff;
      }
    </style>
  </defs>
  <path id="Main" class="cls-1" d="M11,256c0,135.094,109.906,245,245,245S501,391.094,501,256,391.094,11,256,11,11,120.906,11,256Z"/>
  <path id="SRN" class="cls-2" d="M219,239h12s1,22.063,13,34c-0.295,4.345-3.9,25.7-18,27-14.641-1.307-19.4-18.574-21-25C215.5,265.231,219,239,219,239Zm30-23c7,1.853,9.592.3,13,0,0.248,7.626,12,22,12,22s-2.047,31.786-18,33c-17.332,1.276-20-34-20-34S246.825,224.791,249,216Zm-59-2c2.882,1.535,12,1,12,1s4.8,19.952,12,21c-1.3,5.137-5.439,35.529-20,36s-17.606-28.781-18-36C185.591,228.432,189.19,216.383,190,214Zm92,25h13s0.927,26.93,14,36c-3.112,6.883-8.752,25.363-22,25-15.026-.563-17.658-24.672-18-28C280.892,261.8,282,239,282,239Zm-58-55c3,1.619,11,0,11,0s2.489,22.869,9,25c0.882,6.663-7.984,25.889-20,25-9.023-.084-15.935-13.377-16-23C214.134,209.5,223.685,189.587,224,184Zm55-1c3.571,1.482,10,0,10,0s4.275,17.478,15,26c-0.24,4.352-.615,23.864-17,24s-16.855-19.942-18-25C278.354,204.237,277.973,187.235,279,183Zm-23-23c-9.075-.031-5.97,18.278-17,23,1.055,5.64,2.211,26.6,17,27,15.755,0.4,16.792-22.563,17-27C264.018,179.165,265.075,160.031,256,160Zm-47,0c-5.006-.3-16.355,20.946-22,22-0.869,2.476-5.036,25.963,9,27s20.763-24.665,22-27C210.273,177.022,216.191,160.471,209,160Zm95,0c7.484-1.5,15.321,20.416,23,23,1.111,4.594,5.477,25.823-10,26s-20.839-23.507-22-27C303.615,173.187,296.516,161.5,304,160Zm6,55c4.438,2.171,14-1,14-1s4.63,18.938,15,24c-1.778,4.588-4.759,34.765-19,35-17.41.2-18.563-34.132-20-36C309.6,231.072,309.7,217.706,310,215Zm22-32c2.8,1.4,7,0,7,0s8.838,22.573,16,27c0.762,3.662-.6,23.55-10,23s-14.882-14.5-18-24C337.27,196.275,329.2,181.6,332,183Zm13-22c4.147-1.534,19.1,18.107,24,22,1.082,2.48,8.614,23.8-2,27-8.264,2.349-21.729-23.691-23-28C347.769,179.506,341.423,163.763,345,161Zm29,3c4.634,0.212,13.372,9.006,20,16,2.122,3.936,14.7,23.29,7,30-4.593.769-19.589-26.469-21-30C380.852,177.087,373.121,165.74,374,164Zm26,21c2.332-.162,10.764,11.483,12,17,1.2,3.1,8.993,19.205,5,30-1.745.585-8.788-16.365-10-22C409.7,200.461,398.936,185.9,400,185Zm-27-2c1.733,0.661,2.484.024,4,0,1.353,6.288,17,28,17,28s4.19,22.947-4,23-15-25-15-25S377.571,198.539,373,183Zm45,56c1.362,0,4.593,12.034,5,20s1.287,32.912-8,39c-1.695.32-1.805-18.58-2-24C417.35,266.838,416.638,239,418,239Zm-16-24h4s4.892,14.85,8,21c0,2.638.076,34.49-6,36s-9.052-34.034-10-37C401.029,231.475,402,215,402,215Zm-39,0h9s2.446,14.206,13,23c-0.409,8.267-1.522,36.7-13,36-10.609-.64-14.415-28.2-16-37C364.745,229.189,363,215,363,215Zm25,24h5s5.285,26.9,8,35c-0.431,4.873-6.924,27.951-14,26-7.618-1.978-5.981-20.077-7-27C388.539,266.29,388,239,388,239Zm17,40h5s-1.131,15.919,0,25c-1.5,4.26-13.011,28.211-18,27s0.841-21.788,1-26C401.041,297.787,405,279,405,279Zm9,26c1.484,0.307-2.883,17.287-9,27-0.9,1.854-8.349,13.966-16,13-2.424-1.772,4.734-12,12-18C405.019,324.32,412.516,304.693,414,305Zm-30,0c1.859,1.052,5-1,5-1s-3.556,21.461-3,27c-2.068,3.307-11.567,22.311-23,17-3.7-2,2.745-14.379,4-17C372.464,328.9,383.109,307.992,384,305Zm-17-26c2.949,1.627,8,0,8,0s0.52,20.913,6,23c-1.884,3.013-15.332,29.265-24,29-6.548-.7-3.7-24.085-4-28C361.558,299.19,365.652,281.9,367,279Zm-25-40c2.192,1.056,9,0,9,0s5.771,33.733,11,36c-0.653,2.267-6.3,22.141-18,25-11.951-1.86-12.176-21.268-13-27C343.114,263.648,341.963,241.124,342,239Zm-29,40c6.216,1.931,13,0,13,0s-0.343,15.3,9,24c-3.9,7.542-11.415,26.067-24,26-12.621-.774-12.746-19.687-13-26C308.729,300.02,312.239,281.461,313,279Zm26,26c1.946,1.477,7,0,7,0s-1.479,19.69,3,28c-1.393,5.109-11.2,16.453-20,17s-8.142-11.77-8-17C335.745,323.373,337.782,307.753,339,305Zm-59,0,12,1s0.121,20.687,7,28c-3.035,7.18-5.193,17.009-19,17-12.656.114-12.123-13.2-14-19C274.118,329.368,280,305,280,305Zm-31-28c4.865,1.819,13,0,13,0s5.33,22.58,12,26c0.045,2.763-1.04,24.326-18,27-14.486-.678-17.065-21.6-19-28C245.2,295.956,248.088,279.3,249,277Zm-29,26h12s4.376,25.649,13,27c0.207,4.225.76,20.033-15,20-13.062-.019-16.331-13.625-18-17C221.577,324.658,220,303,220,303Zm-34-25c5.389,2.5,14,0,14,0s4.072,22.043,14,25c-0.071,2.379,1.228,25.718-12,26-8.987,1.135-22.9-17.533-25-27C184.012,299.981,186.643,281.786,186,278Zm-20,27c2.643,1.4,5.513.482,8,0-0.613,2.393,8.454,25.007,17,27,0.906,3.4,3.843,17.491-7,18-8.051.983-18.722-14.851-20-18C168.039,329.505,166.1,308.334,166,305Zm-28-26a56.417,56.417,0,0,0,9,0s6.077,21.432,13,24c0.368,3.033,3.582,26.611-4,28-8.318,1.195-22.677-23.388-23-29C135.181,296.294,138.005,280.585,138,279Zm-14,27h5s10.407,24.564,17,28c4.635,6.034,5.585,14.142,4,16-3.659,2.847-17.478-1.819-23-18C127.929,327.485,124,306,124,306Zm-24-1s7.419,18.612,11,23c4.011,3.132,16.03,14.055,14,16s-11.286-1.866-17-13S100,305,100,305Zm4-26h4s5.537,19.874,12,25c1.088,5.632,5.468,25.368,2,26-6.535.632-18.022-20.121-19-28C104.078,300.176,104,279,104,279ZM93,240c3.332-.242,1.538,28.786,5,35,0.286,5.377.977,20.873-2,24-6.266-7.152-7.321-19.789-8-28C88.125,256,91.1,241.338,93,240Zm26-2h5s2.25,28.179,8,35c0.351,6.338,2.565,27.4-7,27s-13.67-22-14-26C113.19,267.415,119,238,119,238Zm44,1c2.83,1.093,8,0,8,0s1.091,27.67,11,35c-0.061,3.168-2.513,25.9-13,26-13.351-.138-16.6-19.7-18-26C160.492,268.937,162.112,243.352,163,239Zm-22-24c2.955,1.364,9,1,9,1s1.558,16.737,7,19c-0.278,5.424-4.678,35.993-15,37s-13.168-30.143-13-36C134.2,234.3,139.44,219.754,141,215Zm-33,0h3s0.771,16.49,3,21c0.082,4.478-3.981,35.6-9,36-5.941.375-6.711-30.681-6-35C101.277,232.994,108,215,108,215Zm4-30c0.231,2.827-8.507,15.03-7,26-1.783,6.522-7.02,20.64-11,20-2.912-.373,4-25,4-25S105.3,187.176,112,185Zm26-21c1.991,1.318-7,17-7,17s-14.591,30-20,29c-6.724-6.235,4.414-26.346,6-28C119.737,180.314,134.924,162.795,138,164Zm-4,20h4s-5.25,19.663-2,24c-0.456,5.061-7.406,26.354-15,26-9.668-2.03-4.275-20.322-3-23C123.192,207.4,134,184,134,184Zm40,0h6s-0.655,22.141,5,25c-0.947,3.569-8.883,26.3-18,25-11.37-1.206-10.271-19.121-11-23C163.039,208.209,174,184,174,184Zm-6-23c3.221,1.238-3.991,17.394,1,22-3.5,4.03-15.339,29.484-24,27-9.332-3.564-2.023-23.186-1-27C146.282,183.029,164.779,159.762,168,161Z"/>
</svg>
