<svg xmlns="http://www.w3.org/2000/svg" width="256" height="256" xmlns:v="https://vecta.io/nano"><path d="M6.557 128c0 66.964 54.479 121.443 121.443 121.443S249.443 194.964 249.443 128 194.964 6.557 128 6.557 6.557 61.036 6.557 128z" fill="#fff" fill-rule="evenodd" stroke="#b0b0b0" stroke-width="13.114" paint-order="normal"/><g transform="matrix(7.375 0 0 7.375 10 10)"><circle cx="16" cy="16" r="16"/><path d="M22.514 8.492v.991H9.81v13.034h12.704V24.5l-7.42-.057-7.45-.085-.086-8.443L7.5 7.5h15.014zm1.184 2.408c1.126.312 2.108 1.19 2.425 2.182.173.595.087.651-.924.651-.78 0-1.212-.17-1.472-.566-.433-.709-2.397-.794-2.974-.114-.635.765.058 1.332 2.31 1.842 1.126.255 2.31.68 2.627.963 1.444 1.275.866 4.08-1.01 4.845-1.27.51-3.35.51-4.62 0-.866-.368-1.877-1.643-1.877-2.436 0-.51 1.877-.312 2.368.283 1.04 1.162 3.464.992 3.638-.255.144-.963-.405-1.388-2.05-1.587-2.685-.368-3.667-1.19-3.667-3.06 0-2.21 2.425-3.513 5.226-2.748z" fill="#fff"/></g></svg>