<?xml version="1.0" encoding="UTF-8" standalone="no"?>
<svg
   xmlns:dc="http://purl.org/dc/elements/1.1/"
   xmlns:cc="http://creativecommons.org/ns#"
   xmlns:rdf="http://www.w3.org/1999/02/22-rdf-syntax-ns#"
   xmlns:svg="http://www.w3.org/2000/svg"
   xmlns="http://www.w3.org/2000/svg"
   xmlns:sodipodi="http://sodipodi.sourceforge.net/DTD/sodipodi-0.dtd"
   xmlns:inkscape="http://www.inkscape.org/namespaces/inkscape"
   width="236"
   height="236"
   version="1.1"
   id="svg10"
   sodipodi:docname="SKL_ERC20.svg"
   inkscape:version="1.0.2-2 (e86c870879, 2021-01-15)">
  <metadata
     id="metadata16">
    <rdf:RDF>
      <cc:Work
         rdf:about="">
        <dc:format>image/svg+xml</dc:format>
        <dc:type
           rdf:resource="http://purl.org/dc/dcmitype/StillImage" />
      </cc:Work>
    </rdf:RDF>
  </metadata>
  <defs
     id="defs14" />
  <sodipodi:namedview
     pagecolor="#ffffff"
     bordercolor="#666666"
     borderopacity="1"
     objecttolerance="10"
     gridtolerance="10"
     guidetolerance="10"
     inkscape:pageopacity="0"
     inkscape:pageshadow="2"
     inkscape:window-width="1920"
     inkscape:window-height="1017"
     id="namedview12"
     showgrid="false"
     inkscape:zoom="3.3203125"
     inkscape:cx="118"
     inkscape:cy="118"
     inkscape:window-x="-8"
     inkscape:window-y="-8"
     inkscape:window-maximized="1"
     inkscape:current-layer="svg10" />
  <g
     transform="scale(7.375)"
     id="g8">
    <circle
       cx="16"
       cy="16"
       r="16"
       id="circle4" />
    <path
       d="M 22.514,8.492 V 9.483 H 9.81 V 22.517 H 22.514 V 24.5 L 15.094,24.443 7.644,24.358 7.558,15.915 7.5,7.5 h 15.014 z m 1.184,2.408 c 1.126,0.312 2.108,1.19 2.425,2.182 0.173,0.595 0.087,0.651 -0.924,0.651 -0.78,0 -1.212,-0.17 -1.472,-0.566 -0.433,-0.709 -2.397,-0.794 -2.974,-0.114 -0.635,0.765 0.058,1.332 2.31,1.842 1.126,0.255 2.31,0.68 2.627,0.963 1.444,1.275 0.866,4.08 -1.01,4.845 -1.27,0.51 -3.35,0.51 -4.62,0 -0.866,-0.368 -1.877,-1.643 -1.877,-2.436 0,-0.51 1.877,-0.312 2.368,0.283 1.04,1.162 3.464,0.992 3.638,-0.255 0.144,-0.963 -0.405,-1.388 -2.05,-1.587 -2.685,-0.368 -3.667,-1.19 -3.667,-3.06 0,-2.21 2.425,-3.513 5.226,-2.748 z"
       fill="#ffffff"
       id="path6" />
  </g>
</svg>
