<svg xmlns="http://www.w3.org/2000/svg" xmlns:xlink="http://www.w3.org/1999/xlink" width="250" height="250" xmlns:v="https://vecta.io/nano"><defs><linearGradient x1="67.622" y1="93.895" x2="38.62" y2="23.686" id="A" gradientTransform="scale(0.82014092,1.2193027)" xlink:href="#J"><stop stop-color="#c20ff6" offset="0%"/><stop stop-color="#749cce" offset="48.5747204%"/><stop stop-color="#47c1c1" offset="100%"/></linearGradient><linearGradient x1="40.908" y1="4.141" x2="81.091" y2="39.073" id="B" gradientTransform="scale(1.1480139,0.87106959)" xlink:href="#J"><stop stop-color="#4af3ff" offset="0%"/><stop stop-color="#087792" offset="100%"/></linearGradient><linearGradient x1="82.868" y1="47.372" x2="55.278" y2="66.96" id="C" gradientTransform="scale(1.110342,0.90062343)" xlink:href="#J"><stop stop-color="#004957" offset="0%"/><stop stop-color="#7a97d0" offset="100%"/></linearGradient><linearGradient x1="34.383" y1="29.533" x2="25.438" y2="40.05" id="D" gradientTransform="scale(1.201069,0.83259166)" xlink:href="#J"><stop stop-color="#4adae8" offset="0%"/><stop stop-color="#5e92c9" offset="100%"/></linearGradient><linearGradient x1="15.467" y1="146.363" x2="46.181" y2="158.319" id="E" gradientTransform="scale(1.3936923,0.7175185)" xlink:href="#J"><stop stop-color="#d29bff" offset="0%"/><stop stop-color="#b661e2" offset="100%"/></linearGradient><linearGradient x1="28.162" y1="71.847" x2="28.162" y2="92.078" id="F" xlink:href="#J"><stop stop-color="#7599ce" offset="0%"/><stop stop-color="#69039c" offset="100%"/></linearGradient><linearGradient x1="27.375" y1="56.398" x2="80.831" y2="92.157" id="G" gradientTransform="scale(1.1446348,0.87364106)" xlink:href="#J"><stop stop-color="#1eb8f1" offset="0%"/><stop stop-color="#9f76db" offset="100%"/></linearGradient><linearGradient x1="59.585" y1="48.985" x2="44" y2="64.798" id="H" xlink:href="#J"><stop stop-color="#313131" stop-opacity="0" offset="0%"/><stop offset="100%"/></linearGradient><linearGradient x1="23.099" y1="88.977" x2="6.635" y2="101.377" id="I" gradientTransform="scale(1.1567106,0.86452047)" xlink:href="#J"><stop stop-color="#313131" stop-opacity="0" offset="0%"/><stop offset="100%"/></linearGradient><linearGradient id="J" gradientUnits="userSpaceOnUse"/></defs><circle cx="125" cy="125" r="125"/><g transform="matrix(1.400074 0 0 1.400074 63.630541 33.857281)" fill-rule="evenodd"><path fill="url(#A)" transform="matrix(-1 0 0 1 87.670884 0)" d="M50.185 0H38.09L0 38.343l27.019 26.548L43.8 48.164 33.409 37.665l10.565-10.553 10.571 10.594L23.954 68.2 0 92.078l38.09 38.262h12.095l37.486-38.262-27.18-26.908-16.517 16.148 10.571 10.387-10.71 10.422-10.426-10.422 54.262-53.362z"/><path fill="url(#B)" d="M49.581 0H37.486l38.072 38.078h12.113z"/><path fill="url(#C)" d="M60.651 64.892l27.019-26.813H75.995L54.614 58.839z"/><path fill="url(#D)" d="M33.708 38.078l9.988-10.967-7.425-7.255L17.41 38.078z"/><path fill="url(#E)" d="M49.581 130.34L12.627 92.078h20.777l18.986 18.202 18.665-18.575h16.615z"/><path fill="url(#F)" d="M33.404 92.078H12.627l21-20.232 10.07 9.471z"/><path fill="url(#G)" d="M33.824 38.165l-16.414-.086 53.646 53.627h16.615z"/><path fill="url(#H)" d="M44 48.29l16.651 16.601L73.479 53.16 53.732 38.078z"/><path fill="url(#I)" transform="rotate(180 25.686 78.617)" d="M7.675 75.917L24.13 92.078l19.567-19.827-25.729-7.095z"/></g></svg>