<svg xmlns="http://www.w3.org/2000/svg" width="250" height="250" xmlns:v="https://vecta.io/nano"><defs><linearGradient id="A" x1="721.624" y1="609.004" x2="573.823" y2="665.076" gradientUnits="userSpaceOnUse"><stop offset="0" stop-color="#fd5b27"/><stop offset="1" stop-color="#fd8b4a"/></linearGradient></defs><path d="M117.925 249.866c.182-.073.48-.073.661 0s.033.133-.331.133-.513-.06-.331-.133zm13.494 0c.182-.073.48-.073.661 0s.033.133-.331.133-.513-.06-.331-.133zm-17.181-.27c.191-.076.419-.067.507.021s-.068.15-.347.139c-.308-.013-.371-.075-.16-.16zm21.166 0c.191-.076.419-.067.507.021s-.068.15-.347.139c-.308-.013-.371-.075-.16-.16zm-93.116-30.71c-.329-.42-.32-.429.1-.1.255.2.463.408.463.463 0 .218-.217.078-.563-.363zm-2.632-2.381l-.641-.728.728.641c.68.6.849.814.641.814-.047 0-.375-.327-.728-.728zm170.409.066c.342-.364.681-.661.754-.661s-.147.298-.489.661-.681.661-.754.661.147-.298.489-.661zm6.35-6.35c.342-.364.681-.661.754-.661s-.147.298-.489.661-.681.661-.754.661.147-.298.489-.661zm32.829-71.99c.013-.308.075-.371.16-.16.076.191.067.419-.021.507s-.15-.068-.139-.347zM.274 135.585c.013-.308.075-.371.16-.16.076.191.067.419-.021.507s-.15-.068-.139-.347zm-.244-3.814c0-.364.06-.513.133-.331s.073.48 0 .661-.133.033-.133-.331zm249.772-.132c.005-.437.065-.583.132-.326s.063.615-.01.794-.127-.031-.122-.468zM.031 118.277c0-.364.06-.513.133-.331s.073.48 0 .661-.133.033-.133-.331zm249.763 0c0-.364.06-.513.133-.331s.073.48 0 .661-.133.033-.133-.331zM.274 114.418c.013-.308.075-.371.16-.16.076.191.067.419-.021.507s-.15-.068-.139-.347zm249.233 0c.013-.308.075-.371.16-.16.076.191.067.419-.021.507s-.15-.068-.139-.347zM33.326 39.827c.342-.364.681-.661.754-.661s-.147.298-.489.661-.681.661-.754.661.147-.298.489-.661zm183.069-.066l-.641-.728.728.641c.4.353.728.68.728.728 0 .208-.214.039-.814-.641zM39.676 33.477c.342-.364.681-.661.754-.661s-.147.298-.489.661-.681.661-.754.661.147-.298.489-.661zm170.231-.198l-.504-.595.595.504c.327.277.595.545.595.595 0 .212-.213.055-.687-.504zM114.238.355c.191-.076.419-.067.507.021s-.068.15-.347.139c-.308-.013-.371-.075-.16-.16zm21.166 0c.191-.076.419-.067.507.021s-.068.15-.347.139c-.308-.013-.371-.075-.16-.16zM117.925.096c.182-.073.48-.073.661 0s.033.133-.331.133-.513-.06-.331-.133zm13.494 0c.182-.073.48-.073.661 0s.033.133-.331.133-.513-.06-.331-.133z" fill="#fd8b4a"/><path d="M643.19 1045.315c-181.796 1.353-395.132-220.37-394.942-382.562.249-202.365 269.17-393.396 430.621-392.345 164.162.662 418.837 228.199 418.4 372.814-.01 154.107-213.259 399.687-454.079 402.094z" fill="url(#A)" transform="matrix(.264579 0 0 .264587 -50.016434 -50.000431)"/><path d="M115.875 249.739c-47.987-3.591-89.523-34.218-107.241-79.074-8.233-20.842-10.668-44.207-6.916-66.356 6.229-36.769 28.645-69.074 60.719-87.505C95.749-2.338 135.282-5.273 170.907 8.753c26.248 10.334 48.43 29.508 62.49 54.015 15.991 27.871 20.655 60.849 13.015 92.022a125.32 125.32 0 0 1-58.572 78.308c-16.493 9.594-34.95 15.253-54.371 16.67-4.3.314-13.205.299-17.595-.03zm23.151-.988c2.474-.297 5.569-.725 6.879-.951 51.722-8.909 92.184-48.95 101.608-100.55 1.48-8.102 1.815-12.204 1.815-22.225 0-7.866-.086-9.958-.569-13.891-1.862-15.151-5.663-28.076-12.101-41.143-12.201-24.769-31.982-44.553-56.622-56.632C166.59 6.767 153.473 2.961 137.967 1.15c-3.055-.357-6.069-.463-13.097-.46-9.872.004-14.008.345-22.092 1.821-42.459 7.755-77.921 36.874-93.615 76.872-4.3 10.96-6.757 21.143-8.171 33.867-.21 1.887-.334 6.408-.328 11.906.01 8.928.259 12.537 1.329 19.242 5.109 32.024 22.341 60.701 48.134 80.104 19.044 14.327 41.383 22.733 65.748 24.74 4.854.4 18.067.119 23.151-.492zm-32.874-50.486c.255-.067.671-.067.926 0s.046.121-.463.121-.718-.054-.463-.121zm-7.753-3.456l-.912-.992.992.912c.923.849 1.114 1.073.912 1.073-.044 0-.491-.446-.992-.992zm-3.384-8.004c0-.364.06-.513.133-.331s.073.48 0 .661-.133.033-.133-.331zm3.133-8.038c0-.055.208-.263.463-.463.42-.329.429-.32.1.1-.346.441-.563.581-.563.363zm-21.2-62.276c-.329-.42-.32-.429.1-.1.255.2.463.408.463.463 0 .218-.217.078-.563-.363zm15.115.116c0-.046.387-.432.86-.86l.86-.777-.777.86c-.724.802-.943.982-.943.777zm-16.438-1.439c-.329-.42-.32-.429.1-.1.441.346.581.563.363.563-.055 0-.263-.208-.463-.463zm-43.601-.485c.013-.308.075-.371.16-.16.076.191.067.419-.021.507s-.15-.068-.139-.347zm-.244-2.227c0-.364.06-.513.133-.331s.073.48 0 .661-.133.033-.133-.331zm-.227-5.027c0-.8.05-1.128.11-.728s.061 1.055 0 1.455-.11.073-.11-.728zm41.481-1.213c.013-.308.075-.371.16-.16.076.191.067.419-.021.507s-.15-.068-.139-.347zm-41.253-3.814c0-.364.06-.513.133-.331s.073.48 0 .661-.133.033-.133-.331zm.244-2.271c.013-.308.075-.371.16-.16.076.191.067.419-.021.507s-.15-.068-.139-.347zm44.296-.639c.263-.291.538-.529.611-.529s-.083.238-.347.529-.538.529-.611.529.083-.238.347-.529zm2.249-2.514c.342-.364.681-.661.754-.661s-.147.298-.489.661-.681.661-.754.661.147-.298.489-.661zM42.586 75.314c0-.055.208-.263.463-.463.42-.329.429-.32.1.1-.346.441-.563.581-.563.363zm1.587-1.852c0-.055.208-.263.463-.463.42-.329.429-.32.1.1-.346.441-.563.581-.563.363zm5.953-6.25c1.304-1.31 2.43-2.381 2.502-2.381s-.934 1.072-2.238 2.381-2.43 2.381-2.502 2.381.934-1.072 2.238-2.381zm11.641-11.906c.568-.582 1.093-1.058 1.166-1.058s-.333.476-.901 1.058-1.093 1.058-1.166 1.058.333-.476.901-1.058z" fill="#5a5755"/><path d="M176.674 198.994c-2.088-.668-3.592-1.603-5.001-3.109-3.137-3.354-4.177-7.606-2.884-11.792.988-3.2 1.894-4.207 9.84-10.941 4.414-3.74 7.989-6.995 8.996-8.189 7.493-8.889 9.419-20.932 5.056-31.605-3.371-8.247-9.889-14.422-18.383-17.419-3.369-1.188-6.121-1.631-10.137-1.631-9.011 0-15.509 2.812-22.866 9.896l-10.869 10.477-10.328 9.948c-7.843 7.528-17.244 12.389-27.638 14.291-3.632.665-12.171.796-16.111.248a52.54 52.54 0 0 1-37.723-24.87c-10.195-16.879-9.841-38.629.897-55.168 2.724-4.195 4.231-5.903 14.465-16.392 9.903-10.149 10.85-10.957 13.85-11.813 2.432-.694 5.838-.432 8.166.63 3.227 1.471 5.991 4.844 6.782 8.279.672 2.914.052 6.499-1.565 9.046-.443.699-4.719 5.283-9.502 10.187l-9.689 10.107c-6.423 7.698-8.41 18.008-5.248 27.23 3.432 10.009 12.175 17.303 22.561 18.822 3.275.479 8.265.188 11.396-.664 3.019-.821 7.169-2.831 9.525-4.613.946-.715 7.523-6.898 14.617-13.739l14.949-14.093c7.524-6.07 16.913-10.116 26.719-11.515 4.077-.582 11.346-.575 15.284.014 10.088 1.508 19.038 5.417 26.877 11.737 2.574 2.075 7.401 7.066 9.314 9.628 10.82 14.498 13.863 33.04 8.238 50.208-2.733 8.34-7.224 15.573-13.513 21.758-2.627 2.584-12.663 11.207-15.53 13.344-2.843 2.119-7.099 2.808-10.545 1.706zm8.285-.997c1.688-.797 4.108-2.731 13.199-10.547 4.58-3.938 6.809-6.252 9.646-10.013 9.078-12.037 12.65-28.017 9.646-43.153-3.299-16.62-14.332-30.839-29.666-38.234-17.948-8.655-39.024-6.832-55.373 4.789-3.045 2.165-3.977 3.019-17.666 16.208-6.806 6.557-13.268 12.591-14.36 13.409-10.893 8.157-26.485 7.249-36.476-2.126-6.955-6.527-10.252-16.092-8.746-25.378.714-4.406 2.438-8.58 5.089-12.325.721-1.019 5.459-6.113 10.529-11.322s9.553-9.971 9.964-10.583c2.095-3.128 2.359-7.669.646-11.128-2.075-4.191-5.78-6.523-10.363-6.523-3.587 0-6.02 1.123-9.066 4.184L45.389 72.224c-5.148 5.572-8.785 11.742-11.137 18.89-9.729 29.567 8.267 60.532 38.942 67.005 4.546.959 12.611 1.203 17.281.523 8.005-1.167 14.979-3.821 21.563-8.209 4.04-2.692 5.286-3.81 18.893-16.968l13.758-13.016c8.659-6.946 20.752-8.703 31.199-4.534 8.336 3.327 15.243 10.688 17.993 19.178 1.191 3.677 1.5 5.718 1.5 9.907 0 5.597-1.035 9.937-3.473 14.562-2.535 4.809-4.204 6.599-13.432 14.404-5.277 4.464-7.078 6.147-7.84 7.325-2.857 4.42-2.347 10.157 1.246 14.009 2.561 2.746 5.012 3.741 8.844 3.593 2.156-.083 2.801-.22 4.233-.896zm-81.848.2c-6.028-1.927-9.642-8.438-8.034-14.475.788-2.959 2.931-5.829 5.46-7.31.65-.381 3.2-1.353 5.666-2.16 9.047-2.961 17.498-7.866 27.662-16.054a156.29 156.29 0 0 0 15.081-14.003l4.939-5.194c7.108-7.173 19.533-2.549 20.381 7.585.423 5.056-1.482 8.026-11.54 17.992-17.317 17.158-34.85 28.608-50.866 33.218-3.717 1.07-6.286 1.187-8.75.4zm8.623-.84c11.41-3.184 25.247-11.099 38.268-21.887 9.535-7.9 20.836-19.349 22.546-22.842 3.202-6.54-.351-14.413-7.32-16.216-3.02-.782-6.18-.332-8.839 1.257-.922.551-2.697 2.241-5.06 4.818-15.176 16.547-32.373 28.705-46.031 32.542-3.398.955-5.091 1.835-6.783 3.527-6.433 6.434-3.152 17.5 5.783 19.5 2.099.47 3.828.307 7.435-.7zm-29.726-77.864c-6.054-1.36-10.128-7.266-9.256-13.418.277-1.956 1.133-4.083 2.218-5.515 1.621-2.139 8.025-8.857 12.158-12.755 11.412-10.763 21.485-18.294 32.185-24.063 4.733-2.552 8.979-4.391 14.155-6.131 3.62-1.217 4.19-1.336 6.482-1.352 2.982-.022 4.534.432 6.915 2.022 6.139 4.099 6.972 13.069 1.703 18.338-1.712 1.712-2.688 2.215-7.455 3.84a74.94 74.94 0 0 0-12.972 5.944c-11.003 6.456-22.886 16.465-33.678 28.367-2.061 2.273-2.765 2.862-4.348 3.638-2.899 1.422-5.221 1.732-8.107 1.084zm6.105-.673c2.337-.727 4.134-2.07 6.515-4.865 6.52-7.657 18.327-18.13 27.291-24.209 7.402-5.019 13.519-8.076 20.735-10.361 4.644-1.471 7.458-4.218 8.528-8.327 1.877-7.209-3.736-14.431-11.215-14.431-2.649 0-10.034 2.529-16.552 5.667-13.741 6.616-27.242 16.834-41.681 31.543-4.907 5-6.562 6.925-7.458 8.677-2.682 5.245-.913 11.797 4.045 14.978a12 12 0 0 0 9.792 1.326z" fill="#5f453a"/><path d="M115.875 249.243c-29.914-2.464-56.735-14.574-77.836-35.142-10.282-10.022-18.309-21.09-24.69-34.043-6.614-13.427-10.371-26.369-12.21-42.069-.581-4.961-.67-20.025-.147-24.739 1.806-16.257 5.576-29.461 12.353-43.26C25.463 45.312 45.212 25.563 69.97 13.366 83.035 6.93 95.941 3.133 111.112 1.264c6.24-.769 20.719-.83 26.855-.114 15.506 1.811 28.623 5.618 42.068 12.209 24.64 12.079 44.421 31.863 56.622 56.632 6.437 13.068 10.239 25.992 12.101 41.143.483 3.933.569 6.025.569 13.891 0 10.021-.335 14.123-1.815 22.225-6.576 36.007-28.536 67.258-60.09 85.516-14.973 8.664-30.695 13.857-48.397 15.985-5.083.611-18.297.892-23.151.492zm68.076-50.27c2.079-.642 3.1-1.386 10.504-7.652 11.059-9.359 14.78-13.704 18.934-22.112 7.373-14.922 7.521-32.656.398-47.626-2.78-5.842-5.64-9.95-10.198-14.647-5.933-6.113-12.072-10.214-19.837-13.25-9.913-3.876-22.393-4.633-32.891-1.996-7.549 1.897-15.099 5.638-21.031 10.424-1.129.91-7.855 7.252-14.949 14.093l-14.617 13.739c-2.356 1.782-6.506 3.792-9.525 4.613-3.132.852-8.121 1.143-11.396.664-10.386-1.519-19.129-8.813-22.561-18.822-2.757-8.04-1.515-17.545 3.197-24.483 1.69-2.488 2.57-3.452 11.739-12.853 4.783-4.904 9.058-9.488 9.502-10.187 3.011-4.745 2.296-10.772-1.759-14.841-2.302-2.309-4.421-3.26-7.656-3.434-2.81-.151-4.749.298-6.956 1.61-1.521.904-18.928 18.514-21.92 22.176-16.696 20.433-15.424 50.345 2.944 69.248 8.398 8.642 18.696 13.89 30.474 15.529 3.94.548 12.479.417 16.111-.248 10.394-1.902 19.795-6.763 27.638-14.291l10.328-9.948 10.869-10.477c7.358-7.084 13.855-9.896 22.866-9.896 4.016 0 6.768.443 10.137 1.631 8.495 2.997 15.012 9.172 18.383 17.419 4.363 10.673 2.437 22.716-5.056 31.605-1.006 1.194-4.582 4.449-8.996 8.189-7.946 6.733-8.852 7.74-9.84 10.941-1.93 6.25 1.581 12.885 7.885 14.901 2.071.662 5.092.654 7.276-.021zm-72.089-1.175c16.016-4.61 33.55-16.061 50.866-33.218 10.058-9.966 11.963-12.937 11.54-17.992-.849-10.134-13.274-14.758-20.381-7.585-.752.759-2.975 3.096-4.939 5.194a156.29 156.29 0 0 1-15.081 14.003c-10.164 8.189-18.615 13.093-27.662 16.054-2.466.807-5.016 1.779-5.666 2.16-2.529 1.481-4.673 4.351-5.46 7.31-1.607 6.038 2.006 12.548 8.034 14.475 2.464.788 5.032.671 8.75-.4zM86.801 119.6c.784-.145 2.275-.681 3.314-1.191 1.584-.777 2.287-1.365 4.348-3.638 7.288-8.037 15.103-15.259 22.602-20.884 9.076-6.808 16.047-10.701 24.049-13.428 4.768-1.625 5.743-2.128 7.455-3.84 5.269-5.269 4.435-14.238-1.703-18.338-2.382-1.59-3.933-2.044-6.915-2.022-2.292.017-2.863.136-6.482 1.352-15.252 5.127-29.841 14.632-46.34 30.194-4.133 3.898-10.537 10.616-12.158 12.755-1.085 1.432-1.941 3.558-2.218 5.515-1.146 8.078 6.052 15.008 14.048 13.525z" fill="#3c3c3b"/></svg>