<svg id="SNGLS" xmlns="http://www.w3.org/2000/svg" width="512" height="512" viewBox="0 0 512 512">
  <defs>
    <style>
      .cls-1 {
        fill: #b30d23;
      }

      .cls-1, .cls-2 {
        fill-rule: evenodd;
      }

      .cls-2 {
        fill: #fff;
      }
    </style>
  </defs>
  <path id="Full" class="cls-1" d="M11,256c0,135.094,109.906,245,245,245S501,391.094,501,256,391.094,11,256,11,11,120.906,11,256Z"/>
  <path id="SNGLS-2" data-name="SNGLS" class="cls-2" d="M271.213,330.672l-14.723,27.3-14.724-27.3c-88.941-6.872-158.751-72.88-158.751-72.88,0-.157,67.835-64.121,154.96-72.549l11.532-19.655,6.983-11.557,11.848,19.655,6.667,11.557c87.109,8.27,154.96,72.549,154.96,72.549S360.139,323.8,271.2,330.672h0.015ZM97.738,257.792c-0.158,0,67.078,45.725,134.613,55.4l-32.923-61.323,8.942-15.44,8.215,15.283-0.158.157L248.449,314.6c2.575,0.157,5.15.157,7.741,0.157,2.575,0,5.008,0,7.583-.157L287.3,267.934l17.157-31.825,8.941,15.441-32.922,61.48c67.535-9.513,134.755-54.137,134.755-55.395,0-1.1-64.029-43.681-129.9-54.609l10.015,17.328L287,237.037l-21.706-36.2q-4.395-.275-8.8-0.315c-2.891,0-5.924.157-8.957,0.315l-22.165,36.2-8.183-15.913,10.458-17.94C161.782,214.269,97.738,257.792,97.738,257.792Z"/>
</svg>
