<?xml version="1.0" encoding="utf-8"?>
<!-- Generator: Adobe Illustrator 22.0.0, SVG Export Plug-In . SVG Version: 6.00 Build 0)  -->
<svg version="1.1" id="SNGLS" xmlns="http://www.w3.org/2000/svg" xmlns:xlink="http://www.w3.org/1999/xlink" x="0px" y="0px"
	 viewBox="0 0 490 490" style="enable-background:new 0 0 490 490;" xml:space="preserve">
<style type="text/css">
	.st0{fill:#B30D23;}
	.st1{fill:#FFFFFF;}
</style>
<path id="Full" class="st0" d="M0,245c0,135.1,109.9,245,245,245s245-109.9,245-245S380.1,0,245,0S0,109.9,0,245z"/>
<path id="SNGLS-2" class="st1" d="M260.2,319.7L245.5,347l-14.7-27.3C141.8,312.8,72,246.8,72,246.8c0-0.2,67.8-64.1,155-72.5
	l11.5-19.7l7-11.6l11.8,19.7l6.7,11.6c87.1,8.3,155,72.5,155,72.5S349.1,312.8,260.2,319.7L260.2,319.7L260.2,319.7z M86.7,246.8
	c-0.2,0,67.1,45.7,134.6,55.4l-32.9-61.3l8.9-15.4l8.2,15.3l-0.2,0.2l32,62.7c2.6,0.2,5.1,0.2,7.7,0.2c2.6,0,5,0,7.6-0.2l23.5-46.7
	l17.2-31.8l8.9,15.4L269.5,302c67.5-9.5,134.8-54.1,134.8-55.4c0-1.1-64-43.7-129.9-54.6l10,17.3L276,226l-21.7-36.2
	c-2.9-0.2-5.9-0.3-8.8-0.3c-2.9,0-5.9,0.2-9,0.3L214.4,226l-8.2-15.9l10.5-17.9C150.8,203.3,86.7,246.8,86.7,246.8z"/>
</svg>
