<?xml version="1.0" encoding="utf-8"?>
<!-- Generator: Adobe Illustrator 22.0.0, SVG Export Plug-In . SVG Version: 6.00 Build 0)  -->
<svg version="1.1" id="Status" xmlns="http://www.w3.org/2000/svg" xmlns:xlink="http://www.w3.org/1999/xlink" x="0px" y="0px"
	 viewBox="0 0 245 245" style="enable-background:new 0 0 245 245;" xml:space="preserve">
<style type="text/css">
	.st0{fill:#505DB7;}
	.st1{fill:#FFFFFF;}
</style>
<path id="Main" class="st0" d="M0,122.5C0,190,55,245,122.5,245S245,190,245,122.5S190,0,122.5,0S0,55,0,122.5z"/>
<path id="Down" class="st1" d="M157,130c-16.5,4.3-54.4-2.2-64.5-2c-0.8,0.2-30-0.2-32,28c0,30.1,28.1,28.5,30.5,28.5
	C127.4,184.5,157,157.5,157,130z"/>
<path id="Up" class="st1" d="M88,114.8c16.5-4.3,54.4,2.2,64.5,2c0.8-0.2,30,0.2,32-27.9c0-30-28.1-28.4-30.5-28.4
	C117.7,60.5,88,87.4,88,114.8z"/>
</svg>
