<svg xmlns="http://www.w3.org/2000/svg" viewBox="0 0 67.733 67.733" height="256" width="256" xmlns:v="https://vecta.io/nano"><circle cx="33.867" cy="33.866" r="32.411" fill="#00d1ff" paint-order="stroke fill markers"/><path d="M23.082 26c-.292-.334-.651-.501-1.079-.501h-8.744c-.078 0-.141-.025-.189-.074s-.073-.103-.073-.162V19.37c0-.059.024-.113.073-.162s.111-.074.189-.074h9.24c2.332 0 4.343.953 6.034 2.858l2.244 2.74-4.372 5.333L23.082 26zm16.148-4.036c1.691-1.886 3.711-2.829 6.063-2.829h9.211c.078 0 .136.02.175.059s.058.098.058.177v5.893c0 .059-.02.113-.058.162s-.097.074-.175.074h-8.744c-.428 0-.787.167-1.079.501l-6.442 7.837 6.47 7.896a1.38 1.38 0 0 0 1.05.472h8.744c.078 0 .136.025.175.074s.058.114.058.191v5.893c0 .059-.02.114-.058.162s-.097.074-.175.074h-9.211c-2.351 0-4.363-.952-6.034-2.858l-5.363-6.541-5.363 6.541c-1.691 1.906-3.712 2.858-6.063 2.858h-9.211c-.078 0-.136-.025-.175-.074s-.058-.112-.058-.192v-5.893c0-.059.019-.113.058-.162s.097-.074.175-.074h8.744c.408 0 .767-.167 1.079-.501l6.325-7.719z" fill="#fff"/><path d="M33.873 3.043c-17.002 0-30.834 13.848-30.834 30.869s13.832 30.869 30.834 30.869 30.834-13.848 30.834-30.869S50.875 3.043 33.873 3.043m0-3.043c18.664 0 33.873 15.226 33.873 33.912S52.538 67.824 33.873 67.824 0 52.598 0 33.912 15.209 0 33.873 0z" fill="#474747"/></svg>