<?xml version="1.0" encoding="UTF-8" standalone="no"?>
<svg
   xmlns:dc="http://purl.org/dc/elements/1.1/"
   xmlns:cc="http://creativecommons.org/ns#"
   xmlns:rdf="http://www.w3.org/1999/02/22-rdf-syntax-ns#"
   xmlns:svg="http://www.w3.org/2000/svg"
   xmlns="http://www.w3.org/2000/svg"
   xmlns:sodipodi="http://sodipodi.sourceforge.net/DTD/sodipodi-0.dtd"
   xmlns:inkscape="http://www.inkscape.org/namespaces/inkscape"
   viewBox="0 0 64.822 64.822"
   height="244.99774"
   width="244.99774"
   version="1.1"
   id="svg8"
   sodipodi:docname="SNX_BEP20.svg"
   inkscape:version="1.0.2-2 (e86c870879, 2021-01-15)">
  <metadata
     id="metadata8">
    <rdf:RDF>
      <cc:Work
         rdf:about="">
        <dc:format>image/svg+xml</dc:format>
        <dc:type
           rdf:resource="http://purl.org/dc/dcmitype/StillImage" />
      </cc:Work>
    </rdf:RDF>
  </metadata>
  <defs
     id="defs12" />
  <sodipodi:namedview
     id="namedview10"
     pagecolor="#ffffff"
     bordercolor="#666666"
     borderopacity="1.0"
     inkscape:pageshadow="2"
     inkscape:pageopacity="0.0"
     inkscape:pagecheckerboard="0"
     showgrid="false"
     inkscape:zoom="3.4101562"
     inkscape:cx="122.49698"
     inkscape:cy="122.50075"
     inkscape:window-width="1920"
     inkscape:window-height="1017"
     inkscape:window-x="-8"
     inkscape:window-y="-8"
     inkscape:window-maximized="1"
     inkscape:current-layer="svg8"
     inkscape:document-rotation="0" />
  <circle
     cx="32.410999"
     cy="32.410999"
     r="32.410999"
     fill="#00d1ff"
     paint-order="stroke fill markers"
     id="circle2" />
  <path
     d="m 21.625999,24.544998 c -0.292,-0.334 -0.651,-0.501 -1.079,-0.501 h -8.744 c -0.078,0 -0.141,-0.025 -0.189,-0.074 -0.048,-0.049 -0.073,-0.103 -0.073,-0.162 v -5.893 c 0,-0.059 0.024,-0.113 0.073,-0.162 0.049,-0.049 0.111,-0.074 0.189,-0.074 h 9.24 c 2.332,0 4.343,0.953 6.034,2.858 l 2.244,2.74 -4.372,5.333 z m 16.148,-4.036 c 1.691,-1.886 3.711,-2.829 6.063,-2.829 h 9.211 c 0.078,0 0.136,0.02 0.175,0.059 0.039,0.039 0.058,0.098 0.058,0.177 v 5.893 c 0,0.059 -0.02,0.113 -0.058,0.162 -0.038,0.049 -0.097,0.074 -0.175,0.074 h -8.744 c -0.428,0 -0.787,0.167 -1.079,0.501 l -6.442,7.837 6.47,7.896 a 1.38,1.38 0 0 0 1.05,0.472 h 8.744 c 0.078,0 0.136,0.025 0.175,0.074 0.039,0.049 0.058,0.114 0.058,0.191 v 5.893 c 0,0.059 -0.02,0.114 -0.058,0.162 -0.038,0.048 -0.097,0.074 -0.175,0.074 h -9.211 c -2.351,0 -4.363,-0.952 -6.034,-2.858 l -5.363,-6.541 -5.363,6.541 c -1.691,1.906 -3.712,2.858 -6.063,2.858 h -9.211 c -0.078,0 -0.136,-0.025 -0.175,-0.074 -0.039,-0.049 -0.058,-0.112 -0.058,-0.192 v -5.893 c 0,-0.059 0.019,-0.113 0.058,-0.162 0.039,-0.049 0.097,-0.074 0.175,-0.074 h 8.744 c 0.408,0 0.767,-0.167 1.079,-0.501 l 6.325,-7.719 z"
     fill="#ffffff"
     id="path4" />
</svg>
