<svg xmlns="http://www.w3.org/2000/svg" width="250" height="250" viewBox="0 0 66.146 66.146" xmlns:v="https://vecta.io/nano"><circle cx="33.073" cy="33.073" r="33.073" fill="#303067"/><path d="M787.921 1198.439c-1.845 3.31-4.141 5.957-6.932 8.076-7.577 5.766-18.986 7.634-36.061 7.811h-4.354.015-94.617l-48.196 39.995h149.575c24.255-.089 40.288-16.092 40.512-38.951l.059-16.931zm-165.924-49.571h116.293c7.065-.03 14.901 3.368 21.028 9.12 6.113 5.751 9.766 13.136 9.794 19.828.039 8.281-5.626 14.342-14.382 14.371H617.111c-5.55-.177-11.61-2.883-16.403-7.355-4.975-4.633-7.974-10.606-8.059-16.048l-.536-36.215c9.926 11.194 23.777 16.166 29.884 16.298zm95.43-21.579l27.958-34.714H616.295c-5.761.015-9.443 4.163-9.423 9.62.019 5.795 3.184 12.194 8.491 17.181s12.11 7.943 18.219 7.914h83.844z" fill="#00f9bb" transform="matrix(.192409 0 -.067203 .192409 -17.504942 -192.804729)" fill-rule="evenodd"/></svg>