<svg xmlns="http://www.w3.org/2000/svg" width="245" height="245" viewBox="0 0 245 245">
  <g id="SOL-3" transform="translate(-13826 -6701)">
    <g id="BNB" transform="translate(13826 6701)">
      <path id="Main_copy_14" d="M0,122.5C0,190,55,245,122.5,245S245,190,245,122.5,190,0,122.5,0,0,55,0,122.5Z" fill="#1ae5ae"/>
    </g>
    <g id="solana-sol-logo" transform="translate(13878.131 6768.735)">
      <path id="Path_472470" data-name="Path 472470" d="M22.894,235.447a4.614,4.614,0,0,1,3.262-1.347H138.707a2.3,2.3,0,0,1,1.631,3.936L118.1,260.27a4.614,4.614,0,0,1-3.262,1.348H2.292a2.3,2.3,0,0,1-1.631-3.936Z" transform="translate(0 -151.088)" fill="#fff"/>
      <path id="Path_472471" data-name="Path 472471" d="M22.894,1.347A4.742,4.742,0,0,1,26.157,0H138.707a2.3,2.3,0,0,1,1.631,3.936L118.1,26.17a4.614,4.614,0,0,1-3.262,1.347H2.292A2.3,2.3,0,0,1,.661,23.581Z" transform="translate(0)" fill="#fff"/>
      <path id="Path_472472" data-name="Path 472472" d="M118.1,117.647a4.614,4.614,0,0,0-3.262-1.347H2.292a2.3,2.3,0,0,0-1.631,3.936L22.894,142.47a4.614,4.614,0,0,0,3.262,1.348H138.707a2.3,2.3,0,0,0,1.631-3.936Z" transform="translate(0 -75.06)" fill="#fff"/>
    </g>
  </g>
</svg>
