<svg width="128" height="128" viewBox="0 0 128 128" fill="none" xmlns="http://www.w3.org/2000/svg">
<g clip-path="url(#clip0_3243_2044)">
<path d="M64 0C99.328 0 128 28.6464 128 64C128 99.3536 99.328 128 64 128C28.672 128 0 99.328 0 64C0 28.672 28.6464 0 64 0Z" fill="black"/>
<path fill-rule="evenodd" clip-rule="evenodd" d="M29.5938 57.8816H88.8322C89.5746 57.8816 90.2658 58.1632 90.7778 58.7008L100.147 68.1216C101.888 69.8624 100.659 72.832 98.2018 72.832H38.9634C38.221 72.832 37.5298 72.5504 37.0178 72.0128L27.6482 62.592C25.9074 60.8768 27.1362 57.8816 29.5938 57.8816ZM27.6226 45.3888L36.9922 35.968C37.5298 35.4304 38.221 35.1488 38.9378 35.1488H98.1506C100.608 35.1488 101.863 38.1184 100.096 39.8592L90.7522 49.28C90.2402 49.8176 89.5234 50.0992 88.8066 50.0992H29.5938C27.1362 50.0992 25.9074 47.1296 27.6226 45.3888ZM100.122 85.376L90.7522 94.8224C90.2402 95.3344 89.5234 95.6416 88.8066 95.6416H29.5938C27.1362 95.6416 25.9074 92.672 27.6226 90.9312L36.9922 81.4848C37.5298 80.9728 38.221 80.6656 38.9378 80.6656H98.1506C100.634 80.64 101.888 83.6096 100.122 85.376Z" fill="url(#paint0_linear_3243_2044)"/>
</g>
<defs>
<linearGradient id="paint0_linear_3243_2044" x1="31.0428" y1="98.2183" x2="96.7273" y2="32.5337" gradientUnits="userSpaceOnUse">
<stop stop-color="#CB4EE8"/>
<stop offset="1" stop-color="#10F4B1"/>
</linearGradient>
<clipPath id="clip0_3243_2044">
<rect width="128" height="128" fill="white"/>
</clipPath>
</defs>
</svg>
