<svg xmlns="http://www.w3.org/2000/svg" width="250" height="250" xmlns:v="https://vecta.io/nano"><path d="M46.116 169.729l4.218-10.476 3.73-9.228c.123-.309 15.108-.388 73.474-.388h73.319l-.56.951c-1.009 1.714-4.852 5.952-7.382 8.141-6.757 5.846-15.372 9.947-24.676 11.747l-3.542.685-59.612.101-59.612.101z" fill="#58a5c4"/><path d="M59.734 100.536c0-.052 2.002-4.972 4.448-10.933l4.448-10.839h47.724l50.976.574c10.589 1.87 19.875 6.429 27.228 13.367 1.888 1.782 5.619 6.174 6.358 7.486.214.38-9.49.44-70.467.44-38.893 0-70.715-.043-70.715-.095z" fill="#6955a4"/><path d="M68.195 135.292l4.268-11.01 3.861-10.002 65.329-.001 65.494.542c1.292 4.258 1.223 15.24-.127 20.255l-.329 1.224h-69.451-69.451z" fill="#0ab294"/><path d="M114.929 249.804c-36.859-3.229-68.877-21.043-90.833-50.539-6.034-8.106-12.627-20.18-16.261-29.776-3.338-8.817-5.965-19.46-7.233-29.311-.803-6.238-.803-24.159 0-30.397 1.269-9.851 3.895-20.494 7.233-29.311 2.264-5.979 7.488-16.476 10.914-21.929C36.992 29.507 66.51 8.995 99.616 2.346 109.073.447 113.762.008 124.697 0c10.623-.008 14.645.317 23 1.859 36.602 6.752 68.416 29.639 86.64 62.327 14.437 25.896 19.092 56.342 13.139 85.936-8.363 41.577-37.979 76.559-77.662 91.733-10.026 3.834-19.315 6.108-30.698 7.514-4.657.575-19.531.843-24.187.435zm53.31-79.327c9.304-1.799 17.919-5.901 24.676-11.747 2.53-2.189 6.373-6.427 7.382-8.141l.56-.951h-73.319l-73.474.388-3.73 9.228-4.218 10.476-.643 1.636 59.612-.101 59.612-.101zm38.78-35.4c1.35-5.015 1.419-15.997.127-20.255-.156-.515-3.545-.543-65.494-.542l-65.329.001-3.861 10.002-4.268 11.01-.406 1.008h69.451 69.451zm-6.079-34.833c-.125-.213-.855-1.211-1.622-2.216-8.221-10.788-21.218-17.74-35.725-19.109-2.406-.227-18.263-.306-49.257-.244l-45.708.09-4.448 10.839-4.448 10.933c0 .052 31.823.095 70.717.095l70.489-.388z"/></svg>