<svg id="Sonm" xmlns="http://www.w3.org/2000/svg" width="256" height="256" viewBox="0 0 512 512">
<defs>
    <style>
      .cls-1 {
        fill: #6522ff;
      }

      .cls-1, .cls-2 {
        fill-rule: evenodd;
      }

      .cls-2 {
        fill: #fff;
      }
    </style>
  </defs>
  <path id="Main_copy_9" data-name="Main copy 9" class="cls-1" d="M11,256c0,135.094,109.906,245,245,245S501,391.094,501,256,391.094,11,256,11,11,120.906,11,256Z"/>
  <path id="Sonm-2" data-name="Sonm" class="cls-2" d="M437,256c0-105.25-81.473-182-181-182C155.613,74,74,150.072,74,256c0,104.8,87.021,181,182,181C352.843,437,437,358.488,437,256ZM236.211,94.454c-1.991,1.174-5.354.547-7.773,1.15-5.89,1.47-12.179,2.558-17.561,4.314-2.17.707-5,.714-6.621,2.013a18.923,18.923,0,0,1,13.531,8.914q1.006,2.445,2.015,4.889v-0.575c1.466-1.871,1.907-4.59,3.167-6.614,2.881-4.63,9.808-12.3,15.546-13.8V94.454h-2.3Zm36.274,0c1.9,1.787,4.818,2.762,6.91,4.314,4.408,3.269,10.371,10.874,11.8,16.967h0.288c0.789-6.013,6.008-10.384,10.652-12.653,1.382-.675,3.434-0.558,4.606-1.438-2.676-.307-5.163-1.546-7.485-2.3-4.027-1.309-7.814-1.437-12.091-2.588A63.022,63.022,0,0,0,272.485,94.454Zm-17.561,11.215c-1.731,1.035-4.726.458-6.621,1.15A24.346,24.346,0,0,0,234.2,120.335c-5.305,13.054,3.132,24.161,11.516,28.47,2.275,1.17,6.838,3.359,10.652,2.588,9.816-1.983,16.727-5.659,20.152-13.8C283.667,120.583,270.29,106.59,254.924,105.669Zm-69.381,3.739c-1.368,1.255-3.455,1.689-5.182,2.588-3.035,1.579-6.251,3.316-9.212,5.176-5.642,3.544-11.083,7.564-16.41,11.5-2.566,1.9-4.674,4.707-7.2,6.614a35.33,35.33,0,0,0-6.91,6.615c-3.12,4.11-8.2,7.014-10.652,11.79h0.288c2.42-3.493,7.259-5.49,10.94-7.764,12.883-7.96,27.915-11.484,48.653-10.066v-0.287c-1.946-.974-2.844-2.57-4.03-4.314-4.916-7.23-3.953-14.831.288-21.855h-0.576Zm139.338,0c4.267,6.975,5.188,14.677.288,21.855-1.194,1.75-2.084,3.325-4.03,4.314v0.287h1.151c2.222-1.441,14.616-.621,17.274,0,6.16,1.441,11.49,1.316,16.7,3.451a105.194,105.194,0,0,1,16.122,7.765c3.044,1.918,5.685,4.635,8.637,6.614-1.953-3.71-9.018-10.968-12.38-13.516l-3.742-4.026a87.779,87.779,0,0,0-8.637-7.477c-6.776-5.015-13.594-9.286-21.016-13.8C332.172,113,328.631,110.428,324.881,109.408Zm-124.368,2.875c-0.614.381-1.533,0.248-2.3,0.576a9.446,9.446,0,0,0-4.894,5.463c-1.7,5.256,3.777,12.134,9.5,10.641C212.418,126.458,211.833,112.257,200.513,112.283Zm108.246,0c-0.614.382-1.533,0.248-2.3,0.576a9.449,9.449,0,0,0-4.894,5.463c-1.71,5.31,3.769,12.132,9.5,10.641C320.622,126.474,320.1,112.262,308.759,112.283Zm-91.548,18.693c-2.32,4.614-6.683,6.448-11.8,8.339a1.038,1.038,0,0,0,.576.288c1.805,1.342,4.471,1.646,6.622,2.588,3.627,1.59,7.073,4.043,10.364,6.039a70.779,70.779,0,0,1-4.319-9.777C218.025,136.4,218.451,132.567,217.211,130.976Zm76.29,0c-0.639,7.186-2.863,12.244-5.47,17.254h0.288c2.036-2.491,8.861-5.508,12.092-6.9,1.7-.733,3.913-0.847,5.182-2.013-3.077-1.091-5.706-1.989-8.061-3.738C295.921,134.38,295.056,132.217,293.5,130.976ZM175.179,150.531c-1.595.963-4.361,0.364-6.334,0.862-4.332,1.095-8.746,2.041-12.667,3.739-15.994,6.926-27.621,19.357-34.258,35.659-1.515,3.719-2.208,8-3.167,12.078-2.148,9.131.049,20.756,2.3,27.608,6.156,18.713,17.656,31.455,35.122,38.822,5.467,2.306,16.888,6.509,24.759,4.889h5.182c5.289-1.164,10.642-1.567,15.258-3.451,15.42-6.294,28.566-17.148,35.122-32.208a96.21,96.21,0,0,0,4.607-14.092c3.5-13.418-.493-29.507-5.182-38.535C224.788,164.466,207.83,150.606,175.179,150.531Zm150.854,0c-1.653.994-4.608,0.352-6.622,0.862a84.643,84.643,0,0,0-11.8,3.451c-16.959,7.131-28.461,19.913-35.41,37.1-1.494,3.693-1.959,8.022-2.879,12.078-1.776,7.827.045,18.944,2.015,25.019,6.466,19.941,17.729,32.744,36.274,40.548,5.3,2.229,16.6,6.162,24.183,4.6h4.894c5.735-1.254,11.207-1.732,16.121-3.739,15.185-6.2,28.085-17.36,34.547-32.208a93.027,93.027,0,0,0,4.606-14.666c3.025-12.127-.453-26.365-4.03-34.8C378.143,165.716,359.032,150.607,326.033,150.531ZM239.378,162.9c1.27,2.047,3.228,3.8,4.606,5.752a83.355,83.355,0,0,1,8.061,15.241c0.78,1.844,2.609,10.515,3.743,11.216,0.145-3,1.418-5.706,2.3-8.052,2.323-6.16,4.513-11.53,7.773-16.68,1.66-2.622,4.041-4.906,5.758-7.477h-0.288c-1.367,1.3-3.4,1.354-5.47,2.014C257.245,167.661,246.393,166.235,239.378,162.9ZM103.783,198.843c-0.441,3.431-2.409,6.951-3.455,10.065L96.3,225.3l-0.576,5.177c-2.894,11.578-1.483,26.807-1.439,39.972H94.57v-0.575c1.391-1.783,2.121-3.984,3.455-5.751,3.439-4.559,13.07-7.867,20.44-4.889v-0.575c-2.7-1.99-3.968-5.986-5.758-8.915-3.553-5.816-5.98-12.772-8.061-20.13q-0.862-5.9-1.727-11.791,0.144-6.9.288-13.8C103.494,202.743,104.273,199.818,103.783,198.843Zm303.147,0c2.326,17.762-.1,33.121-5.758,46.012a71.223,71.223,0,0,1-5.758,10.353c-0.878,1.318-2.287,2.38-2.879,4.026h0.288c2.033-1.609,7.432-1.33,10.076-.575,6.373,1.819,12.082,5.237,13.531,11.79h0.288v-2.588c0.594-.923.016-2.69,0.288-4.026,0.892-4.38.39-10.624,0.287-15.529a128.536,128.536,0,0,0-6.045-36.234C409.987,208.211,409.2,201.607,406.93,198.843ZM255.212,229.614c-0.141,2.994-1.416,5.71-2.3,8.052-4.046,10.687-8.477,17.664-14.682,25.882l-6.91,6.9h0.288c2.47-1.925,6.884-1.749,10.364-2.588,11.769-2.837,28.155-1.3,37.714,2.588l-6.91-6.9c-6.179-8.168-15.873-21.257-16.985-33.934h-0.576ZM110.98,268.724c-3.166,2.074-5.569,1.929-6.91,6.039-1.646,5.05,3.777,11.961,9.213,10.64C123.344,282.96,122.769,268.428,110.98,268.724Zm286.449,0c-2.781,1.869-5.485,2.25-6.621,5.751-1.773,5.464,3.586,12.338,9.212,10.928C409.943,282.917,409.4,268.446,397.429,268.724Zm-267.161,2.588a22.494,22.494,0,0,1-1.151,14.379h0.288c3.67-3.374,10.474-2.859,16.409-4.026v-0.288C139.627,279.845,135.022,274.516,130.268,271.312Zm250.176,0c-1.79,2.63-11.706,9.1-15.258,10.065a1.044,1.044,0,0,0,.575.288c1.414,0.832,4.347.143,6.046,0.575a53.882,53.882,0,0,1,10.076,3.451,34.57,34.57,0,0,1-2.015-5.752C379.137,276.955,381.074,272.773,380.444,271.312ZM253.2,281.665c-1.52.908-4.442,0.132-6.334,0.575-4.319,1.012-8.788,1.577-12.667,3.163-17.393,7.114-29.766,19.127-36.85,36.522-1.716,4.215-2.38,9.063-3.454,13.8-1.935,8.539.616,20.167,2.591,26.169,6.188,18.81,17.844,31.414,35.41,38.823a87.889,87.889,0,0,0,12.667,4.026l6.622,0.575a26.034,26.034,0,0,0,8.636.287c6.123-1.333,12.063-1.611,17.274-3.738,16.287-6.65,28.8-18.223,35.7-34.221,6.178-14.332,5.625-33.8-.288-47.738C303.348,298.34,283.839,281.755,253.2,281.665Zm-49.229,4.026c-1.847,1.418-4.928,1.337-7.485,2.013-4.376,1.156-12.134,2.814-17.274,1.725h-5.757l-6.046-.862v0.287h0.576c0.82,1.089,2.2,1.643,3.167,2.588a48.8,48.8,0,0,1,7.485,9.2,42.333,42.333,0,0,1,3.742,9.49c0.535,1.778.176,4.379,1.152,5.751v-0.575c2.257-2.941,2.966-7.2,4.894-10.353,2.6-4.263,6.014-7.932,8.924-11.79,1.425-1.888,4.992-6.418,7.2-7.19v-0.287h-0.576Zm102.488,0c3.234,3.5,7.213,6.493,10.076,10.353,2.788,3.756,4.684,7.647,7.2,11.79a29.145,29.145,0,0,1,3.742,8.052h0.288a34.244,34.244,0,0,1,10.364-22.431c1.581-1.582,3.111-3.86,5.47-4.6v-0.287c-4.664.24-10.214,1.288-14.97,0.862H323.73L313.078,287.7C311,287.12,308.636,286.209,306.456,285.691ZM97.161,288.854a43.572,43.572,0,0,0,2.3,8.915c1.755,5.353,2.543,10.271,4.606,15.241,1.181,2.842,2.894,5.813,3.743,8.915H108.1v-6.039c0.627-1.05.221-2.651,0.576-4.026q0.862-3.02,1.727-6.039c1.59-3.859,4.214-6.883,6.046-10.353h-0.288c-1.263.859-4.488,0.647-6.046,0.288-4.824-1.112-7.429-1.888-10.652-4.314C98.553,290.756,98.106,289.544,97.161,288.854Zm316.39,0c-2.622,4.464-11.412,9.259-19,6.614v0.288c5.806,5.64,8.259,14.829,8.349,26.169h0.288V321.35c1.415-1.621,1.689-4.2,2.591-6.327,2.37-5.6,4.358-11.992,6.334-18.117C412.589,295.425,413.939,289.671,413.551,288.854Zm-270.328,8.052c-1.557.971-4.06,0.721-5.757,1.438A24.145,24.145,0,0,0,124.8,310.71c-5.834,13.928,3.36,25.556,13.243,29.62,2.392,0.983,7.211,2.387,11.228,1.438,8.143-1.924,14.26-6.514,17.273-13.516,5.959-13.846-3.479-26.307-13.243-30.195C150.5,296.941,147.043,296.868,143.223,296.906Zm219.66,0c-1.818,1.112-4.73.9-6.622,1.726a23.973,23.973,0,0,0-12.955,15.241c-3.776,12.721,5.578,22.841,13.531,26.169,2.566,1.075,7.366,2.774,11.8,1.726,8.938-2.112,15.206-7.194,18.137-15.242,5.105-14.015-5.789-26.064-15.834-29.045C368.551,296.771,365.835,296.877,362.883,296.906Zm-184.825,41.7a33.215,33.215,0,0,1-8.349,10.065c-1.213.9-2.578,1.363-3.455,2.588,6.791-.12,9.374,3.4,13.243,6.039v-0.863c-1.321-2.132-1.151-8.931-1.151-12.366C178.346,342.485,178.719,339.662,178.058,338.605Zm154.6,0A139.049,139.049,0,0,1,331.5,357.3h0.288c1.784-2.635,5.575-4.748,8.924-5.752,1.256-.376,3.038.051,4.031-0.575a33.4,33.4,0,0,1-8.925-7.764C334.734,341.745,334.058,339.733,332.654,338.605ZM124.8,350.683c1.021,2.029,2.752,3.453,4.031,5.176a125.725,125.725,0,0,0,12.379,14.091c1.658,1.656,4.725,5.552,6.909,6.327V375.7c-0.74-.924-0.525-2.029-0.863-3.451-1.7-7.174,2.342-11.928,4.894-15.817h-0.864c-1.65,1.093-6.874.748-8.924,0.288-2.108-.473-3.571-0.033-5.47-0.575A49.971,49.971,0,0,1,124.8,350.683Zm261.116,0c-0.983,1.212-2.567,1.541-4.031,2.3-6.112,3.17-14.007,4.472-23.031,3.451v0.288c5.205,3.613,5.73,12.327,4.031,19.555h0.575c1.58-2.39,4.328-4.036,6.334-6.039A115.911,115.911,0,0,0,381.02,357.3c1.492-2.015,4-3.777,4.894-6.327H386.2ZM163.376,361.9c-2.239,1.669-4.427,2.315-5.47,5.176-1.852,5.078,3.422,11.663,8.636,10.353C176.061,375.036,175.658,361.512,163.376,361.9Zm180.218,0c-2.395,1.781-4.869,2.474-5.758,5.752-1.4,5.165,4.091,10.992,8.925,9.777C356.155,375.067,355.8,361.512,343.594,361.9ZM183.528,372.826c-0.295,8.592-10.811,17.021-21.016,14.954v0.287H162.8c2.833,2.826,6.873,4.447,10.364,6.615a180.293,180.293,0,0,0,26.2,12.94c2.929,1.21,5.584,1.482,8.636,2.589,3.593,1.3,7.457,1.988,11.516,3.163,1.257,0.364,3.78,1.4,4.894.863-2.914-.773-5.458-2.6-7.773-4.026-9.892-6.107-18.194-13.061-24.758-22.431a64.608,64.608,0,0,1-6.046-10.353C185.161,375.9,184.933,373.588,183.528,372.826Zm143.368,0c-1.055,4.583-4.1,8.535-6.333,12.078a73.09,73.09,0,0,1-23.895,23.869c-3,1.883-6.277,4.466-10.076,5.464v0.287h0.864c2.269-1.418,5.931-1.184,8.636-2.013l15.546-4.889c8.941-3.684,17.982-7.508,25.91-12.365,3.654-2.238,7.143-5.187,10.94-7.19V387.78h-0.576c-2.125,1.374-6.867-.3-8.348-0.863-5.708-2.152-11.869-6.718-12.092-14.091H326.9Z"/>
</svg>
