<?xml version="1.0" encoding="utf-8"?>
<!-- Generator: Adobe Illustrator 22.0.0, SVG Export Plug-In . SVG Version: 6.00 Build 0)  -->
<svg version="1.1" id="Sonm" xmlns="http://www.w3.org/2000/svg" xmlns:xlink="http://www.w3.org/1999/xlink" x="0px" y="0px"
	 viewBox="0 0 245 245" style="enable-background:new 0 0 245 245;" xml:space="preserve">
<style type="text/css">
	.st0{fill:#6522FF;}
	.st1{fill:#FFFFFF;}
</style>
<path id="Main_copy_9" class="st0" d="M0,122.5C0,190,55,245,122.5,245S245,190,245,122.5S190,0,122.5,0S0,55,0,122.5z"/>
<path class="st1" d="M122.5,31.5c-50.2,0-91,38-91,91c0,52.4,43.5,90.5,91,90.5c48.4,0,90.5-39.3,90.5-90.5
	C213,69.9,172.3,31.5,122.5,31.5z M155.1,62.3c1-0.5,1.4-1.3,2-2.2c2.5-3.6,2-7.4-0.1-10.9c1.9,0.5,3.6,1.8,5.2,2.7
	c3.7,2.3,7.1,4.4,10.5,6.9c1.5,1.2,3,2.4,4.3,3.7l1.9,2c1.7,1.3,5.2,4.9,6.2,6.8c-1.5-1-2.8-2.3-4.3-3.3c-2.6-1.5-5.3-2.8-8.1-3.9
	c-2.6-1.1-5.3-1-8.4-1.7c-1.3-0.3-7.5-0.7-8.6,0h-0.6V62.3z M157.5,69.8L157.5,69.8L157.5,69.8L157.5,69.8
	c16.5,0,26.1,7.6,30.9,19.1c1.8,4.2,3.5,11.3,2,17.4c-0.6,2.5-1.3,5-2.3,7.3c-3.2,7.4-9.7,13-17.3,16.1c-2.5,1-5.2,1.2-8.1,1.9h-2.4
	c-3.8,0.8-9.4-1.2-12.1-2.3c-9.3-3.9-14.9-10.3-18.1-20.3c-1-3-1.9-8.6-1-12.5c0.5-2,0.7-4.2,1.4-6c3.5-8.6,9.2-15,17.7-18.5
	c1.9-0.7,3.9-1.3,5.9-1.7C155.2,69.9,156.7,70.3,157.5,69.8z M184.4,134.5c0.3,1,0.6,1.9,1,2.9c-1.6-0.7-3.3-1.3-5-1.7
	c-0.8-0.2-2.3,0.1-3-0.3c-0.1,0-0.2-0.1-0.3-0.1c1.8-0.5,6.7-3.7,7.6-5C185,130.9,184.1,133,184.4,134.5z M160.8,163.8L160.8,163.8
	C160.8,163.8,160.8,163.8,160.8,163.8c0.7,0.6,1,1.6,1.6,2.3c1.2,1.5,2.8,2.9,4.5,3.9c-0.5,0.3-1.4,0.1-2,0.3
	c-1.7,0.5-3.6,1.6-4.5,2.9h-0.1C160.7,170.1,160.8,166.9,160.8,163.8C160.8,163.8,160.8,163.8,160.8,163.8z M163.6,141.2
	c-3.1,3-4.9,7-5.2,11.2h-0.1c-0.4-1.4-1-2.8-1.9-4c-1.3-2.1-2.2-4-3.6-5.9c-1.4-1.9-3.4-3.4-5-5.2c0,0,0,0,0,0h0c0,0,0,0,0,0
	c1.1,0.3,2.3,0.7,3.3,1l5.3,0.9h2.4c2.4,0.2,5.2-0.3,7.5-0.4v0.1C165.1,139.3,164.4,140.4,163.6,141.2z M121,113.3
	c0.4-1.2,1.1-2.5,1.2-4h0h0.3c0.6,6.3,5.4,12.9,8.5,17l3.5,3.5c-4.8-1.9-13-2.7-18.9-1.3c-1.7,0.4-3.9,0.3-5.2,1.3h-0.1l3.5-3.5
	C116.7,122.2,118.9,118.7,121,113.3z M116.5,78.8c-0.7-1-1.7-1.9-2.3-2.9c3.5,1.7,8.9,2.4,13.2,1c1-0.3,2.1-0.4,2.7-1h0.1
	c-0.9,1.3-2,2.4-2.9,3.7c-1.6,2.6-2.7,5.3-3.9,8.3c-0.4,1.2-1.1,2.5-1.2,4c-0.6-0.4-1.5-4.7-1.9-5.6
	C119.4,83.8,118.1,81.2,116.5,78.8z M141.2,60L141.2,60C141.3,60,141.3,60,141.2,60c0.8,0.6,1.2,1.7,2,2.3c1.2,0.9,2.5,1.3,4,1.9
	c-0.6,0.6-1.7,0.6-2.6,1c-1.6,0.7-5,2.2-6,3.5h-0.1C139.8,66.1,140.9,63.6,141.2,60C141.3,60,141.3,60,141.2,60z M150,59
	c-2.9,0.7-5.6-2.7-4.8-5.3c0.4-1.2,1.3-2.2,2.4-2.7c0.4-0.2,0.8-0.1,1.2-0.3C154.5,50.6,154.8,57.7,150,59z M138.1,42.9
	c2.1,0.6,4,0.6,6,1.3c1.2,0.4,2.4,1,3.7,1.2c-0.6,0.4-1.6,0.4-2.3,0.7c-2.3,1.1-4.9,3.3-5.3,6.3h-0.1c-0.7-3-3.7-6.8-5.9-8.5
	c-1-0.8-2.5-1.3-3.5-2.2C133.2,41.8,135.7,42.2,138.1,42.9z M118.7,47.9c0.9-0.3,2.4-0.1,3.3-0.6c7.7,0.5,14.4,7.5,10.8,16
	c-1.7,4.1-5.2,5.9-10.1,6.9c-1.9,0.4-4.2-0.7-5.3-1.3c-4.2-2.2-8.4-7.7-5.8-14.2C112.9,51.5,115.5,49.1,118.7,47.9z M99.9,44.5
	c2.7-0.9,5.8-1.4,8.8-2.2c1.2-0.3,2.9,0,3.9-0.6h0h1.2v0.1c-2.9,0.8-6.3,4.6-7.8,6.9c-0.6,1-0.9,2.4-1.6,3.3v0.3
	c-0.3-0.8-0.7-1.6-1-2.4c-1.5-2.4-4-4.1-6.8-4.5C97.4,44.8,98.9,44.8,99.9,44.5z M106,68.6c-1.6-1-3.4-2.2-5.2-3
	c-1.1-0.5-2.4-0.6-3.3-1.3c-0.1,0-0.2-0.1-0.3-0.1c2.6-0.9,4.7-1.9,5.9-4.2h0c0.6,0.8,0.4,2.7,0.7,3.7C104.4,65.4,105.1,67,106,68.6
	z M91.2,53.7c0.4-1.2,1.3-2.2,2.4-2.7c0.4-0.2,0.8-0.1,1.1-0.3c5.7,0,6,7.1,1.2,8.3C93,59.7,90.3,56.3,91.2,53.7z M64.8,65.5
	c1-1.3,2.2-2.4,3.5-3.3c1.3-1,2.3-2.4,3.6-3.3c2.7-2,5.4-4,8.2-5.8c1.5-0.9,3.1-1.8,4.6-2.6c0.9-0.4,1.9-0.7,2.6-1.3l0,0h0.3
	c-2.1,3.5-2.6,7.3-0.1,10.9c0.6,0.9,1,1.7,2,2.2v0.1c-10.4-0.7-17.9,1.1-24.3,5c-1.8,1.1-4.3,2.1-5.5,3.9h-0.1
	C60.7,69,63.3,67.5,64.8,65.5z M41.8,129.7h-0.1c0-6.6-0.7-14.2,0.7-20l0.3-2.6l2-8.2c0.5-1.6,1.5-3.3,1.7-5c0.2,0.5-0.1,2-0.3,2.6
	c0,2.3-0.1,4.6-0.1,6.9c0.3,2,0.6,3.9,0.9,5.9c1,3.7,2.3,7.2,4,10.1c0.9,1.5,1.5,3.5,2.9,4.5v0.3c-3.7-1.5-8.5,0.2-10.2,2.4
	c-0.7,0.9-1,2-1.7,2.9V129.7z M49.7,147.4c-0.3,1-0.6,2-0.9,3c-0.2,0.7,0,1.5-0.3,2v3h-0.1c-0.4-1.6-1.3-3-1.9-4.5
	c-1-2.5-1.4-4.9-2.3-7.6c-0.5-1.4-0.9-2.9-1.2-4.5c0.5,0.3,0.7,1,1.2,1.3c1.6,1.2,2.9,1.6,5.3,2.2c0.8,0.2,2.4,0.3,3-0.1h0.1
	C51.8,144,50.5,145.5,49.7,147.4z M51.1,137.2c-2.7,0.7-5.4-2.8-4.6-5.3c0.7-2.1,1.9-2,3.5-3C55.9,128.7,56.2,136,51.1,137.2z
	 M53.9,95.9c0.5-2,0.8-4.2,1.6-6c3.3-8.2,9.1-14.4,17.1-17.8c2-0.8,4.2-1.3,6.3-1.9c1-0.2,2.4,0.1,3.2-0.4c16.3,0,24.8,7,30.4,17.7
	c2.3,4.5,4.3,12.6,2.6,19.3c-0.6,2.4-1.4,4.8-2.3,7c-3.3,7.5-9.9,13-17.6,16.1c-2.3,0.9-5,1.1-7.6,1.7H85c-3.9,0.8-9.6-1.3-12.4-2.4
	c-8.7-3.7-14.5-10.1-17.6-19.4C53.9,106.3,52.8,100.5,53.9,95.9z M84.2,172.7v0.4c-1.9-1.3-3.2-3.1-6.6-3c0.4-0.6,1.1-0.8,1.7-1.3
	c1.7-1.4,3.1-3.1,4.2-5v0c0.3,0.5,0.1,1.9,0.1,2.7C83.7,168.3,83.6,171.7,84.2,172.7z M83.8,144.8c-1.1-1.7-2.3-3.2-3.7-4.6
	c-0.5-0.5-1.2-0.7-1.6-1.3h-0.3v-0.1l3,0.4h2.9c2.6,0.5,6.4-0.3,8.6-0.9c1.3-0.3,2.8-0.3,3.7-1l0,0h0.3v0.1
	c-1.1,0.4-2.9,2.7-3.6,3.6c-1.5,1.9-3.2,3.8-4.5,5.9c-1,1.6-1.3,3.7-2.4,5.2v0.3c-0.5-0.7-0.3-2-0.6-2.9
	C85.3,147.9,84.6,146.3,83.8,144.8z M59.6,130.2c2.4,1.6,4.7,4.3,7.8,5v0.1c-3,0.6-6.4,0.3-8.2,2h-0.1
	C60,135.1,60.2,132.6,59.6,130.2z M56.9,149.9c1.3-2.8,3.5-5,6.3-6.2c0.8-0.4,2.1-0.2,2.9-0.7c1.9,0,3.6,0,5,0.6
	c4.9,1.9,9.6,8.2,6.6,15.1c-1.5,3.5-4.6,5.8-8.6,6.8c-2,0.5-4.4-0.2-5.6-0.7C58.6,162.6,54,156.8,56.9,149.9z M68.1,180.6
	c0.2,0.7,0.1,1.3,0.4,1.7v0.3c-1.1-0.4-2.6-2.3-3.5-3.2c-2.2-2.2-4.3-4.5-6.2-7c-0.6-0.9-1.5-1.6-2-2.6c1.9,1.2,3.9,2.1,6,2.7
	c0.9,0.3,1.7,0.1,2.7,0.3c1,0.2,3.6,0.4,4.5-0.1h0.4C69.3,174.7,67.3,177,68.1,180.6z M73.5,178c0.5-1.4,1.6-1.8,2.7-2.6
	c6.1-0.2,6.3,6.6,1.6,7.8C75.2,183.9,72.5,180.6,73.5,178z M104.3,201.2c-2-0.6-4-0.9-5.8-1.6c-1.5-0.6-2.9-0.7-4.3-1.3
	c-4.5-1.8-8.9-4-13.1-6.5c-1.7-1.1-3.8-1.9-5.2-3.3h-0.1v-0.1c5.1,1,10.4-3.2,10.5-7.5c0.7,0.4,0.8,1.5,1.2,2.3
	c0.8,1.8,1.9,3.5,3,5.2c3.3,4.7,7.4,8.2,12.4,11.2c1.2,0.7,2.4,1.6,3.9,2C106.1,201.9,104.9,201.4,104.3,201.2z M124.4,197.3
	c-1.4,0.2-2.9,0.1-4.3-0.1l-3.3-0.3c-2.2-0.5-4.3-1.2-6.3-2c-8.8-3.7-14.6-10-17.7-19.4c-1-3-2.3-8.8-1.3-13.1
	c0.5-2.4,0.9-4.8,1.7-6.9c3.5-8.7,9.7-14.7,18.4-18.3c1.9-0.8,4.2-1.1,6.3-1.6c0.9-0.2,2.4,0.2,3.2-0.3c15.3,0,25.1,8.3,29.7,19.1
	c3,7,3.2,16.7,0.1,23.9c-3.5,8-9.7,13.8-17.9,17.1C130.4,196.5,127.5,196.6,124.4,197.3z M168.7,188.5c-1.9,1-3.6,2.5-5.5,3.6
	c-4,2.4-8.5,4.3-13,6.2l-7.8,2.4c-1.4,0.4-3.2,0.3-4.3,1h-0.4v-0.1c1.9-0.5,3.5-1.8,5-2.7c4.9-3,9-7.1,11.9-11.9
	c1.1-1.8,2.6-3.7,3.2-6h0h0.3c0.1,3.7,3.2,6,6,7c0.7,0.3,3.1,1.1,4.2,0.4h0.3V188.5z M167.9,183.2c-2.4,0.6-5.2-2.3-4.5-4.9
	c0.4-1.6,1.7-2,2.9-2.9C172.4,175.3,172.6,182,167.9,183.2z M187.5,170c-0.4,1.3-1.7,2.2-2.4,3.2c-1.7,2.3-3.6,4.5-5.6,6.5
	c-1,1-2.4,1.8-3.2,3h-0.3c0.8-3.6,0.6-8-2-9.8v-0.1c4.5,0.5,8.5-0.1,11.5-1.7c0.7-0.4,1.5-0.5,2-1.2l0.1,0.1H187.5z M187.9,157.8
	c-1.5,4-4.6,6.6-9.1,7.6c-2.2,0.5-4.6-0.3-5.9-0.9c-4-1.7-8.7-6.7-6.8-13.1c0.9-3.4,3.3-6.1,6.5-7.6c0.9-0.4,2.4-0.3,3.3-0.9
	c1.5,0,2.8-0.1,4,0.3C185,144.7,190.4,150.8,187.9,157.8z M189.9,131.7c0.6-1.8,1.9-1.9,3.3-2.9h0h0l0,0c6-0.1,6.3,7.1,1.3,8.3
	C191.7,137.9,189,134.5,189.9,131.7z M200.6,143c-1,3.1-2,6.3-3.2,9.1c-0.5,1.1-0.6,2.4-1.3,3.2v0.3H196c0-5.7-1.3-10.3-4.2-13.1
	v-0.1c3.8,1.3,8.2-1.1,9.5-3.3C201.5,139.3,200.8,142.2,200.6,143z M202.9,128.4v1.3h-0.1c-0.7-3.3-3.6-5-6.8-5.9
	c-1.3-0.4-4-0.5-5,0.3h-0.1c0.3-0.8,1-1.4,1.4-2c1.1-1.6,2.1-3.4,2.9-5.2c2.8-6.4,4-14.1,2.9-23c1.1,1.4,1.5,4.7,2.2,6.6
	c1.9,5.9,2.9,12,3,18.1c0.1,2.5,0.3,5.6-0.1,7.8C202.9,127.1,203.2,128,202.9,128.4z"/>
</svg>
