<svg id="Sophiatx" xmlns="http://www.w3.org/2000/svg" width="256" height="256" viewBox="0 0 512 512">
<defs>
    <style>
      .cls-1 {
        fill: #00b098;
      }

      .cls-1, .cls-2 {
        fill-rule: evenodd;
      }

      .cls-2 {
        fill: #fff;
      }
    </style>
  </defs>
  <path id="Main_copy_3" data-name="Main copy 3" class="cls-1" d="M11,256c0,135.094,109.906,245,245,245S501,391.094,501,256,391.094,11,256,11,11,120.906,11,256Z"/>
  <g id="TX">
    <g id="T">
      <path id="T_1" data-name="T 1" class="cls-2" d="M102,185v-6H231v6H102Z"/>
      <path id="T_2" data-name="T 2" class="cls-2" d="M102,201v-6H231v6H102Z"/>
      <path id="T_3" data-name="T 3" class="cls-2" d="M155,212h6V348h-6V212Z"/>
      <path id="T_4" data-name="T 4" class="cls-2" d="M170,212h6V348h-6V212Z"/>
    </g>
    <g id="X">
      <path id="X_1" data-name="X 1" class="cls-2" d="M248.826,194.067l4.348-4.134,58,61-4.348,4.134Z"/>
      <path id="X_2" data-name="X 2" class="cls-2" d="M258.826,184.067l4.348-4.134,58,61-4.348,4.134Z"/>
      <path id="X_1_Down" data-name="X 1 Down" class="cls-2" d="M336.826,286.067l4.348-4.134,58,61-4.348,4.134Z"/>
      <path id="X_2_Down" data-name="X 2 Down" class="cls-2" d="M346.826,276.067l4.348-4.134,58,61-4.348,4.134Z"/>
      <path id="X_3" data-name="X 3" class="cls-2" d="M252.184,338.057l-4.368-4.114,146-155,4.368,4.114Z"/>
      <path id="X_4" data-name="X 4" class="cls-2" d="M263.184,349.057l-4.368-4.114,146-155,4.368,4.114Z"/>
    </g>
  </g>
</svg>
