<?xml version="1.0" encoding="utf-8"?>
<!-- Generator: Adobe Illustrator 22.0.0, SVG Export Plug-In . SVG Version: 6.00 Build 0)  -->
<svg version="1.1" id="Sophiatx" xmlns="http://www.w3.org/2000/svg" xmlns:xlink="http://www.w3.org/1999/xlink" x="0px" y="0px"
	 viewBox="0 0 245 245" style="enable-background:new 0 0 245 245;" xml:space="preserve">
<style type="text/css">
	.st0{fill:#00B098;}
	.st1{fill:#FFFFFF;}
</style>
<path id="Main_copy_3" class="st0" d="M0,122.5C0,190,55,245,122.5,245S245,190,245,122.5S190,0,122.5,0S0,55,0,122.5z"/>
<g id="TX">
	<g id="T">
		<path id="T_1" class="st1" d="M45.5,87v-3H110v3H45.5z"/>
		<path id="T_2" class="st1" d="M45.5,95v-3H110v3H45.5z"/>
		<path id="T_3" class="st1" d="M72,100.5h3v68h-3V100.5z"/>
		<path id="T_4" class="st1" d="M79.5,100.5h3v68h-3V100.5z"/>
	</g>
	<g id="X">
		<path id="X_1" class="st1" d="M118.9,91.5l2.2-2.1l29,30.5l-2.2,2.1L118.9,91.5z"/>
		<path id="X_2" class="st1" d="M123.9,86.5l2.2-2.1l29,30.5l-2.2,2.1L123.9,86.5z"/>
		<path id="X_1_Down" class="st1" d="M162.9,137.5l2.2-2.1l29,30.5l-2.2,2.1L162.9,137.5z"/>
		<path id="X_2_Down" class="st1" d="M167.9,132.5l2.2-2.1l29,30.5l-2.2,2.1L167.9,132.5z"/>
		<path id="X_3" class="st1" d="M120.6,163.5l-2.2-2.1l73-77.5l2.2,2.1L120.6,163.5z"/>
		<path id="X_4" class="st1" d="M126.1,169l-2.2-2.1l73-77.5l2.2,2.1L126.1,169z"/>
	</g>
</g>
</svg>
