<svg xmlns="http://www.w3.org/2000/svg" width="245" height="245" xmlns:v="https://vecta.io/nano"><path d="M0 122.5C0 190 55 245 122.5 245S245 190 245 122.5 190 0 122.5 0 0 55 0 122.5z" fill="#38c3d7"/><path d="M122.4 11.001c-61.426 0-111.4 49.974-111.4 111.4s49.974 111.4 111.4 111.4 111.4-49.974 111.4-111.4-49.974-111.4-111.4-111.4m0-11c67.441 0 122.4 54.954 122.4 122.4s-54.954 122.4-122.4 122.4S0 189.844 0 122.401 54.959.001 122.4.001z" fill="#b0b0b0"/><path d="M122.935 170.017c-22.313-.012-40.398-18.097-40.41-40.41 0-21.68 36.581-59.968 38.133-61.572l1.915-2.018 1.966 1.966c1.6 1.6 38.806 39.893 38.806 61.572.01 22.331-18.079 40.444-40.41 40.462zm-.31-96.187c-3.208 3.467-9.934 10.969-16.609 19.765-11.849 15.622-18.11 28.044-18.11 35.96 0 19.346 15.683 35.029 35.029 35.029s35.029-15.683 35.029-35.029c0-7.916-6.364-20.334-18.42-35.96-6.778-8.744-13.66-16.298-16.919-19.765zm.31 109.123c-29.448-.034-53.312-23.898-53.345-53.346 0-28.768 40.151-68.92 41.859-70.575a2.71 2.71 0 0 1 3.829 0 2.71 2.71 0 0 1 0 3.829c-.414.414-40.255 40.255-40.255 66.746s21.474 47.965 47.965 47.965 47.965-21.474 47.965-47.965c0-10.866-7.037-25.871-20.386-43.515a253.46 253.46 0 0 0-20.645-23.852 2.71 2.71 0 0 1 0-3.829 2.71 2.71 0 0 1 3.829 0c1.759 1.707 42.635 42.376 42.635 71.2-.119 29.453-23.996 53.284-53.449 53.345zm0 12.935c-35.846-.041-64.894-29.09-64.935-64.936 0-14.8 7.451-33.011 22.094-54.07a240.51 240.51 0 0 1 21.886-27.06 2.71 2.71 0 0 1 4.575 1.138 2.71 2.71 0 0 1-.694 2.639 241.86 241.86 0 0 0-21.369 26.44c-13.815 19.817-21.111 37.409-21.111 50.913 0 21.277 11.351 40.937 29.777 51.576s41.128 10.638 59.555 0 29.777-30.299 29.777-51.576c0-13.5-7.347-31.1-21.266-50.914a242.68 242.68 0 0 0-21.576-26.439 2.71 2.71 0 0 1 .077-3.803 2.71 2.71 0 0 1 3.804.026c1.811 1.863 44.342 46.05 44.342 81.131-.041 35.846-29.09 64.894-64.936 64.935z" fill="#fff"/></svg>