<svg xmlns="http://www.w3.org/2000/svg" width="245" height="245" viewBox="0 0 245 245">
  <g id="SRM-medium" transform="translate(-13290 -6375)">
    <g id="BNB" transform="translate(13290 6375)">
      <path id="Main_copy_14" d="M0,122.5C0,190,55,245,122.5,245S245,190,245,122.5,190,0,122.5,0,0,55,0,122.5Z" fill="#38c3d7"/>
    </g>
	<g id="Main_copy_14" transform="translate(13290 6375)" fill="none">
      <path d="M0,122.4c0,67.444,54.954,122.4,122.4,122.4s122.4-54.954,122.4-122.4S189.841,0,122.4,0,0,54.954,0,122.4Z" stroke="none"/>
      <path d="M 122.4000015258789 11 C 60.97383117675781 11 11 60.97383117675781 11 122.4000015258789 C 11 183.826171875 60.97383117675781 233.8000030517578 122.4000015258789 233.8000030517578 C 183.826171875 233.8000030517578 233.8000030517578 183.826171875 233.8000030517578 122.4000015258789 C 233.8000030517578 60.97383117675781 183.826171875 11 122.4000015258789 11 M 122.4000015258789 0 C 189.8410034179688 0 244.8000030517578 54.95399475097656 244.8000030517578 122.4000015258789 C 244.8000030517578 189.8460083007813 189.8460083007813 244.8000030517578 122.4000015258789 244.8000030517578 C 54.95399475097656 244.8000030517578 0 189.843994140625 0 122.4000015258789 C 0 54.95399475097656 54.95899963378906 0 122.4000015258789 0 Z" stroke="none" fill="#1ae5ae"/>
    </g>
    <g id="serum-srm-logo" transform="translate(13348 6423.988)">
      <path id="Path_472473" data-name="Path 472473" d="M87.81,136.9A40.432,40.432,0,0,1,47.4,96.49c0-21.68,36.581-59.968,38.133-61.572L87.448,32.9l1.966,1.966c1.6,1.6,38.806,39.893,38.806,61.572A40.443,40.443,0,0,1,87.81,136.9ZM87.5,40.713c-3.208,3.467-9.934,10.969-16.609,19.765C59.042,76.1,52.781,88.522,52.781,96.438a35.029,35.029,0,0,0,70.058,0c0-7.916-6.364-20.334-18.42-35.96C97.641,51.734,90.759,44.18,87.5,40.713Z" transform="translate(-22.875 -15.871)" fill="#fff"/>
      <path id="Path_472474" data-name="Path 472474" d="M75.745,141.982A53.406,53.406,0,0,1,22.4,88.636c0-28.768,40.151-68.92,41.859-70.575a2.707,2.707,0,1,1,3.829,3.829c-.414.414-40.255,40.255-40.255,66.746a47.964,47.964,0,1,0,95.929,0c0-10.866-7.037-25.871-20.386-43.515A253.461,253.461,0,0,0,82.731,21.269a2.707,2.707,0,0,1,3.829-3.829c1.759,1.707,42.635,42.376,42.635,71.2a53.561,53.561,0,0,1-53.449,53.345Z" transform="translate(-10.81 -8.017)" fill="#fff"/>
      <path id="Path_472475" data-name="Path 472475" d="M64.935,146.9A65.01,65.01,0,0,1,0,81.964c0-14.8,7.451-33.011,22.094-54.07A240.477,240.477,0,0,1,43.98.834a2.708,2.708,0,1,1,3.881,3.777,241.858,241.858,0,0,0-21.369,26.44C12.677,50.868,5.381,68.46,5.381,81.964a59.554,59.554,0,1,0,119.109,0c0-13.5-7.347-31.1-21.266-50.914A242.682,242.682,0,0,0,81.648,4.611,2.708,2.708,0,0,1,85.529.834c1.811,1.863,44.342,46.05,44.342,81.131A65.01,65.01,0,0,1,64.935,146.9Z" transform="translate(0 0)" fill="#fff"/>
    </g>
  </g>
</svg>
