<?xml version="1.0" encoding="UTF-8" standalone="no"?>
<svg
   xmlns:dc="http://purl.org/dc/elements/1.1/"
   xmlns:cc="http://creativecommons.org/ns#"
   xmlns:rdf="http://www.w3.org/1999/02/22-rdf-syntax-ns#"
   xmlns:svg="http://www.w3.org/2000/svg"
   xmlns="http://www.w3.org/2000/svg"
   xmlns:sodipodi="http://sodipodi.sourceforge.net/DTD/sodipodi-0.dtd"
   xmlns:inkscape="http://www.inkscape.org/namespaces/inkscape"
   width="245"
   height="245"
   version="1.1"
   id="svg8"
   sodipodi:docname="SRM_ERC20.svg"
   inkscape:version="1.0.2-2 (e86c870879, 2021-01-15)">
  <metadata
     id="metadata14">
    <rdf:RDF>
      <cc:Work
         rdf:about="">
        <dc:format>image/svg+xml</dc:format>
        <dc:type
           rdf:resource="http://purl.org/dc/dcmitype/StillImage" />
      </cc:Work>
    </rdf:RDF>
  </metadata>
  <defs
     id="defs12" />
  <sodipodi:namedview
     pagecolor="#ffffff"
     bordercolor="#666666"
     borderopacity="1"
     objecttolerance="10"
     gridtolerance="10"
     guidetolerance="10"
     inkscape:pageopacity="0"
     inkscape:pageshadow="2"
     inkscape:window-width="1920"
     inkscape:window-height="1017"
     id="namedview10"
     showgrid="false"
     inkscape:zoom="3.4693878"
     inkscape:cx="122.5"
     inkscape:cy="122.5"
     inkscape:window-x="-8"
     inkscape:window-y="-8"
     inkscape:window-maximized="1"
     inkscape:current-layer="svg8" />
  <path
     d="M 0,122.5 C 0,190 55,245 122.5,245 190,245 245,190 245,122.5 245,55 190,0 122.5,0 55,0 0,55 0,122.5 Z"
     fill="#38c3d7"
     id="path2" />
  <path
     d="m 122.935,170.017 c -22.313,-0.012 -40.398,-18.097 -40.41,-40.41 0,-21.68 36.581,-59.968 38.133,-61.572 l 1.915,-2.018 1.966,1.966 c 1.6,1.6 38.806,39.893 38.806,61.572 0.01,22.331 -18.079,40.444 -40.41,40.462 z m -0.31,-96.187 c -3.208,3.467 -9.934,10.969 -16.609,19.765 -11.849,15.622 -18.11,28.044 -18.11,35.96 0,19.346 15.683,35.029 35.029,35.029 19.346,0 35.029,-15.683 35.029,-35.029 0,-7.916 -6.364,-20.334 -18.42,-35.96 -6.778,-8.744 -13.66,-16.298 -16.919,-19.765 z m 0.31,109.123 C 93.487,182.919 69.623,159.055 69.59,129.607 c 0,-28.768 40.151,-68.92 41.859,-70.575 a 2.71,2.71 0 0 1 3.829,0 2.71,2.71 0 0 1 0,3.829 c -0.414,0.414 -40.255,40.255 -40.255,66.746 0,26.491 21.474,47.965 47.965,47.965 26.491,0 47.965,-21.474 47.965,-47.965 0,-10.866 -7.037,-25.871 -20.386,-43.515 a 253.46,253.46 0 0 0 -20.645,-23.852 2.71,2.71 0 0 1 0,-3.829 2.71,2.71 0 0 1 3.829,0 c 1.759,1.707 42.635,42.376 42.635,71.2 -0.119,29.453 -23.996,53.284 -53.449,53.345 z m 0,12.935 C 87.089,195.847 58.041,166.798 58,130.952 c 0,-14.8 7.451,-33.011 22.094,-54.07 a 240.51,240.51 0 0 1 21.886,-27.06 2.71,2.71 0 0 1 4.575,1.138 2.71,2.71 0 0 1 -0.694,2.639 241.86,241.86 0 0 0 -21.369,26.44 c -13.815,19.817 -21.111,37.409 -21.111,50.913 0,21.277 11.351,40.937 29.777,51.576 18.426,10.639 41.128,10.638 59.555,0 18.427,-10.638 29.777,-30.299 29.777,-51.576 0,-13.5 -7.347,-31.1 -21.266,-50.914 a 242.68,242.68 0 0 0 -21.576,-26.439 2.71,2.71 0 0 1 0.077,-3.803 2.71,2.71 0 0 1 3.804,0.026 c 1.811,1.863 44.342,46.05 44.342,81.131 -0.041,35.846 -29.09,64.894 -64.936,64.935 z"
     fill="#ffffff"
     id="path6" />
</svg>
