<?xml version="1.0" encoding="utf-8"?>
<!-- Generator: Adobe Illustrator 22.0.0, SVG Export Plug-In . SVG Version: 6.00 Build 0)  -->
<svg version="1.1" id="Sirin" xmlns="http://www.w3.org/2000/svg" xmlns:xlink="http://www.w3.org/1999/xlink" x="0px" y="0px"
	 viewBox="0 0 245 245" style="enable-background:new 0 0 245 245;" xml:space="preserve">
<style type="text/css">
	.st0{fill:#070F12;}
	.st1{fill:#FFFFFF;}
</style>
<path id="Main" class="st0" d="M0,122.5C0,190,55,245,122.5,245S245,190,245,122.5S190,0,122.5,0S0,55,0,122.5z"/>
<path id="SRN" class="st1" d="M104,114h6c0,0,0.5,11,6.5,17c-0.1,2.2-1.9,12.9-9,13.5c-7.3-0.7-9.7-9.3-10.5-12.5
	C102.2,127.1,104,114,104,114z M119,102.5c3.5,0.9,4.8,0.2,6.5,0c0.1,3.8,6,11,6,11s-1,15.9-9,16.5c-8.7,0.6-10-17-10-17
	S117.9,106.9,119,102.5z M89.5,101.5c1.4,0.8,6,0.5,6,0.5s2.4,10,6,10.5c-0.7,2.6-2.7,17.8-10,18s-8.8-14.4-9-18
	C87.3,108.7,89.1,102.7,89.5,101.5z M135.5,114h6.5c0,0,0.5,13.5,7,18c-1.6,3.4-4.4,12.7-11,12.5c-7.5-0.3-8.8-12.3-9-14
	C134.9,125.4,135.5,114,135.5,114z M106.5,86.5c1.5,0.8,5.5,0,5.5,0s1.2,11.4,4.5,12.5c0.4,3.3-4,12.9-10,12.5c-4.5,0-8-6.7-8-11.5
	C101.6,99.2,106.3,89.3,106.5,86.5z M134,86c1.8,0.7,5,0,5,0s2.1,8.7,7.5,13c-0.1,2.2-0.3,11.9-8.5,12s-8.4-10-9-12.5
	C133.7,96.6,133.5,88.1,134,86z M122.5,74.5c-4.5,0-3,9.1-8.5,11.5c0.5,2.8,1.1,13.3,8.5,13.5c7.9,0.2,8.4-11.3,8.5-13.5
	C126.5,84.1,127,74.5,122.5,74.5z M99,74.5c-2.5-0.2-8.2,10.5-11,11c-0.4,1.2-2.5,13,4.5,13.5s10.4-12.3,11-13.5
	C99.6,83,102.6,74.7,99,74.5z M146.5,74.5c3.7-0.8,7.7,10.2,11.5,11.5c0.6,2.3,2.7,12.9-5,13s-10.4-11.8-11-13.5
	C146.3,81.1,142.8,75.2,146.5,74.5z M149.5,102c2.2,1.1,7-0.5,7-0.5s2.3,9.5,7.5,12c-0.9,2.3-2.4,17.4-9.5,17.5
	c-8.7,0.1-9.3-17.1-10-18C149.3,110,149.4,103.4,149.5,102z M160.5,86c1.4,0.7,3.5,0,3.5,0s4.4,11.3,8,13.5c0.4,1.8-0.3,11.8-5,11.5
	s-7.4-7.2-9-12C163.1,92.6,159.1,85.3,160.5,86z M167,75c2.1-0.8,9.6,9.1,12,11c0.5,1.2,4.3,11.9-1,13.5c-4.1,1.2-10.9-11.8-11.5-14
	C168.4,84.3,165.2,76.4,167,75z M181.5,76.5c2.3,0.1,6.7,4.5,10,8c1.1,2,7.4,11.6,3.5,15c-2.3,0.4-9.8-13.2-10.5-15
	C184.9,83,181.1,77.4,181.5,76.5z M194.5,87c1.2-0.1,5.4,5.7,6,8.5c0.6,1.6,4.5,9.6,2.5,15c-0.9,0.3-4.4-8.2-5-11
	C199.4,94.7,194,87.4,194.5,87z M181,86c0.9,0.3,1.2,0,2,0c0.7,3.1,8.5,14,8.5,14s2.1,11.5-2,11.5S182,99,182,99S183.3,93.8,181,86z
	 M203.5,114c0.7,0,2.3,6,2.5,10s0.6,16.5-4,19.5c-0.8,0.2-0.9-9.3-1-12C203.2,127.9,202.8,114,203.5,114z M195.5,102h2
	c0,0,2.4,7.4,4,10.5c0,1.3,0,17.2-3,18s-4.5-17-5-18.5C195,110.2,195.5,102,195.5,102z M176,102h4.5c0,0,1.2,7.1,6.5,11.5
	c-0.2,4.1-0.8,18.4-6.5,18c-5.3-0.3-7.2-14.1-8-18.5C176.9,109.1,176,102,176,102z M188.5,114h2.5c0,0,2.6,13.4,4,17.5
	c-0.2,2.4-3.5,14-7,13c-3.8-1-3-10-3.5-13.5C188.8,127.6,188.5,114,188.5,114z M197,134h2.5c0,0-0.6,8,0,12.5
	c-0.8,2.1-6.5,14.1-9,13.5s0.4-10.9,0.5-13C195,143.4,197,134,197,134z M201.5,147c0.7,0.2-1.4,8.6-4.5,13.5c-0.4,0.9-4.2,7-8,6.5
	c-1.2-0.9,2.4-6,6-9C197,156.7,200.8,146.8,201.5,147z M186.5,147c0.9,0.5,2.5-0.5,2.5-0.5s-1.8,10.7-1.5,13.5
	c-1,1.7-5.8,11.2-11.5,8.5c-1.9-1,1.4-7.2,2-8.5C180.7,158.9,186.1,148.5,186.5,147z M178,134c1.5,0.8,4,0,4,0s0.3,10.5,3,11.5
	c-0.9,1.5-7.7,14.6-12,14.5c-3.3-0.4-1.9-12-2-14C175.3,144.1,177.3,135.4,178,134z M165.5,114c1.1,0.5,4.5,0,4.5,0s2.9,16.9,5.5,18
	c-0.3,1.1-3.1,11.1-9,12.5c-6-0.9-6.1-10.6-6.5-13.5C166.1,126.3,165.5,115.1,165.5,114z M151,134c3.1,1,6.5,0,6.5,0
	s-0.2,7.6,4.5,12c-1.9,3.8-5.7,13-12,13c-6.3-0.4-6.4-9.8-6.5-13C148.9,144.5,150.6,135.2,151,134z M164,147c1,0.7,3.5,0,3.5,0
	s-0.7,9.8,1.5,14c-0.7,2.6-5.6,8.2-10,8.5s-4.1-5.9-4-8.5C162.4,156.2,163.4,148.4,164,147z M134.5,147l6,0.5c0,0,0.1,10.3,3.5,14
	c-1.5,3.6-2.6,8.5-9.5,8.5c-6.3,0.1-6.1-6.6-7-9.5C131.6,159.2,134.5,147,134.5,147z M119,133c2.4,0.9,6.5,0,6.5,0s2.7,11.3,6,13
	c0,1.4-0.5,12.2-9,13.5c-7.2-0.3-8.5-10.8-9.5-14C117.1,142.5,118.5,134.1,119,133z M104.5,146h6c0,0,2.2,12.8,6.5,13.5
	c0.1,2.1,0.4,10-7.5,10c-6.5,0-8.2-6.8-9-8.5C105.3,156.8,104.5,146,104.5,146z M87.5,133.5c2.7,1.2,7,0,7,0s2,11,7,12.5
	c0,1.2,0.6,12.9-6,13c-4.5,0.6-11.4-8.8-12.5-13.5C86.5,144.5,87.8,135.4,87.5,133.5z M77.5,147c1.3,0.7,2.8,0.2,4,0
	c-0.3,1.2,4.2,12.5,8.5,13.5c0.5,1.7,1.9,8.7-3.5,9c-4,0.5-9.4-7.4-10-9C78.5,159.3,77.6,148.7,77.5,147z M63.5,134
	c1.5,0.1,3,0.1,4.5,0c0,0,3,10.7,6.5,12c0.2,1.5,1.8,13.3-2,14c-4.2,0.6-11.3-11.7-11.5-14.5C62.1,142.6,63.5,134.8,63.5,134z
	 M56.5,147.5H59c0,0,5.2,12.3,8.5,14c2.3,3,2.8,7.1,2,8c-1.8,1.4-8.7-0.9-11.5-9C58.5,158.2,56.5,147.5,56.5,147.5z M44.5,147
	c0,0,3.7,9.3,5.5,11.5c2,1.6,8,7,7,8s-5.6-0.9-8.5-6.5S44.5,147,44.5,147z M46.5,134h2c0,0,2.8,9.9,6,12.5c0.5,2.8,2.7,12.7,1,13
	c-3.3,0.3-9-10.1-9.5-14C46.5,144.6,46.5,134,46.5,134z M41,114.5c1.7-0.1,0.8,14.4,2.5,17.5c0.1,2.7,0.5,10.4-1,12
	c-3.1-3.6-3.7-9.9-4-14C38.6,122.5,40,115.2,41,114.5z M54,113.5h2.5c0,0,1.1,14.1,4,17.5c0.2,3.2,1.3,13.7-3.5,13.5s-6.8-11-7-13
	C51.1,128.2,54,113.5,54,113.5z M76,114c1.4,0.5,4,0,4,0s0.5,13.8,5.5,17.5c0,1.6-1.3,12.9-6.5,13c-6.7-0.1-8.3-9.9-9-13
	C74.7,129,75.6,116.2,76,114z M65,102c1.5,0.7,4.5,0.5,4.5,0.5s0.8,8.4,3.5,9.5c-0.1,2.7-2.3,18-7.5,18.5s-6.6-15.1-6.5-18
	C61.6,111.7,64.2,104.4,65,102z M48.5,102H50c0,0,0.4,8.2,1.5,10.5c0,2.2-2,17.8-4.5,18c-3,0.2-3.4-15.3-3-17.5
	C45.1,111,48.5,102,48.5,102z M50.5,87c0.1,1.4-4.3,7.5-3.5,13c-0.9,3.3-3.5,10.3-5.5,10c-1.5-0.2,2-12.5,2-12.5S47.2,88.1,50.5,87z
	 M63.5,76.5c1,0.7-3.5,8.5-3.5,8.5s-7.3,15-10,14.5c-3.4-3.1,2.2-13.2,3-14C54.4,84.7,62,75.9,63.5,76.5z M61.5,86.5h2
	c0,0-2.6,9.8-1,12c-0.2,2.5-3.7,13.2-7.5,13c-4.8-1-2.1-10.2-1.5-11.5C56.1,98.2,61.5,86.5,61.5,86.5z M81.5,86.5h3
	c0,0-0.3,11.1,2.5,12.5c-0.5,1.8-4.4,13.2-9,12.5c-5.7-0.6-5.1-9.6-5.5-11.5C76,98.6,81.5,86.5,81.5,86.5z M78.5,75
	c1.6,0.6-2,8.7,0.5,11c-1.8,2-7.7,14.7-12,13.5c-4.7-1.8-1-11.6-0.5-13.5C67.6,86,76.9,74.4,78.5,75z"/>
</svg>
