<?xml version="1.0" encoding="UTF-8"?><svg id="CIRCLE_OUTLINE_BLACK" xmlns="http://www.w3.org/2000/svg" viewBox="0 0 512 512"><path d="m0,255.99936c0,141.38392,114.61186,255.9974,255.99612,255.9974s256.00388-114.61348,256.00388-255.9974S397.38005.00324,255.99612.00324,0,114.61509,0,255.99936Z" fill="#0c0c4f" fill-rule="evenodd" stroke-width="0"/><path d="m143.08198,195.68964l6.31931-19.5234c1.28454-3.97091,4.41843-7.06074,8.40393-8.27917l19.61899-6.03318c2.71555-.82956,2.73759-4.66081.04407-5.53413l-19.53085-6.31963c-3.96346-1.28422-7.05361-4.41844-8.27916-8.40394l-6.02605-19.61867c-.82925-2.70842-4.6605-2.7379-5.53414-.03694l-6.31931,19.52372c-1.28454,3.96314-4.41843,7.05329-8.40393,8.27917l-19.619,6.02572c-2.71554.83669-2.74502,4.66081-.04407,5.53413l19.53085,6.31931c3.96347,1.28454,7.05361,4.42588,8.27917,8.41138l6.02605,19.61155c.82925,2.71555,4.6605,2.74503,5.53414.04407Z" fill="#fafafa" fill-rule="evenodd" stroke-width="0"/><path d="m453.17835,184.32648c-8.08831-9.04425-20.7101-14.13638-32.9819-16.22457-12.36902-2.00555-25.34076-1.81955-37.55098.34998-24.70886,4.1796-47.15585,14.41053-66.73467,27.03198-10.16708,6.19422-18.83737,13.36159-27.82006,20.66113-4.32803,3.6916-8.27398,7.62297-12.3836,11.49797l-11.22899,11.17262c-12.20149,12.75366-24.22765,24.37023-35.86365,33.99874-11.683,9.58413-22.60578,16.86328-33.37009,21.94667-10.75752,5.10962-22.26812,8.11454-37.27134,8.59543-14.87133.52465-32.46598-2.15946-51.28619-6.58957-18.92132-4.41065-38.79081-10.69756-60.99443-16.10725,7.7474,21.49298,19.41387,40.48655,34.39246,57.85015,15.15423,17.06126,34.07716,32.60923,58.38647,42.83626,23.95803,10.45387,54.06558,14.20639,82.21717,8.54522,28.22609-5.43434,52.99587-18.49357,73.01768-33.60082,20.0733-15.25954,36.31344-32.64226,50.00457-50.71393,3.77843-4.99295,5.77781-7.78726,8.51281-11.6898l7.5601-11.19756c5.25287-6.92625,10.03585-14.81235,15.23361-21.67477,10.19464-14.3723,20.24669-28.72807,31.92548-41.95387,5.87826-6.70817,12.07738-13.1247,19.39443-19.29106,3.64878-3.00978,7.59251-5.9554,11.96069-8.60872,4.433-2.86202,9.11556-5.10218,14.88044-6.83423Z" fill="#ec796b" fill-rule="evenodd" stroke-width="0"/><path d="m453.17835,184.32583c-8.6878-21.92526-24.84172-40.38124-46.52398-54.00011-21.54935-13.46949-51.47866-20.34326-81.13902-14.48377-14.65131,2.83382-28.84667,8.28953-41.30382,15.55475-12.40079,7.23638-23.51313,15.9475-33.13321,25.29281-4.80244,4.68835-9.16157,9.57893-13.49219,14.49737l-11.22446,14.3104-17.33638,23.03643c-22.10122,29.63897-45.90112,64.37396-84.95829,74.66614-38.34264,10.10423-54.9726,1.15556-78.37456-2.54121,4.27909,11.04722,9.57926,21.77588,16.76476,31.21385,7.05167,9.62918,15.38106,18.67212,25.73643,26.42667,5.2331,3.72332,10.75816,7.39807,16.89438,10.51543,6.10868,3.01043,12.69598,5.66117,19.72723,7.65407,13.98602,3.83351,29.73196,5.17833,44.97758,3.11412,15.25274-2.03503,29.83178-6.86662,42.57539-13.28607,12.83759-6.36111,24.02057-14.10591,34.0062-22.27816,19.84971-16.48445,35.28943-34.69803,48.33149-53.10898,6.5601-9.20498,12.51483-18.58366,18.02208-27.96492l6.482-11.16873c1.98156-3.26481,3.98581-6.54969,6.0202-9.60873,8.2147-12.29124,16.2479-22.14661,26.00507-29.54403,9.62107-7.58862,23.02054-13.19534,40.92435-14.4977,17.82926-1.31824,38.41295,1.11668,61.01876,6.20038Z" fill="#fafafa" fill-rule="evenodd" stroke-width="0"/><path d="m356.71818,366.49478c0,16.10532,13.06247,29.16456,29.16456,29.16456,16.10532,0,29.14836-13.05924,29.14836-29.16456,0-16.10208-13.04304-29.16456-29.14836-29.16456-16.10208,0-29.16456,13.06247-29.16456,29.16456Z" fill="#ec796b" fill-rule="evenodd" stroke-width="0"/></svg>