<svg id="Status" xmlns="http://www.w3.org/2000/svg" width="256" height="256" viewBox="0 0 512 512">
<defs>
    <style>
      .cls-1 {
        fill: #505db7;
      }

      .cls-1, .cls-2 {
        fill-rule: evenodd;
      }

      .cls-2 {
        fill: #fff;
      }
    </style>
  </defs>
  <path id="Main" class="cls-1" d="M11,256c0,135.094,109.906,245,245,245S501,391.094,501,256,391.094,11,256,11,11,120.906,11,256Z"/>
  <path id="Down" class="cls-2" d="M325,271c-33.024,8.568-108.813-4.426-129-4-1.562.316-60.056-.426-64,56,0,60.164,56.147,57.043,61,57C265.7,380,325,326.093,325,271Z"/>
  <path id="Up" class="cls-2" d="M187,240.581c33.024-8.533,108.813,4.407,129,3.983,1.562-.315,60.056.425,64-55.768,0-59.916-56.147-56.808-61-56.765C246.3,132.031,187,185.716,187,240.581Z"/>
</svg>
