<?xml version="1.0" encoding="UTF-8" standalone="no"?>
<svg
   width="331.66147"
   height="331.68701"
   viewBox="0 0 331.66147 331.68701"
   fill="none"
   version="1.1"
   id="svg33"
   sodipodi:docname="a1c942f4a95d2aa8b4ec6aa126e74b58.svg"
   xmlns:inkscape="http://www.inkscape.org/namespaces/inkscape"
   xmlns:sodipodi="http://sodipodi.sourceforge.net/DTD/sodipodi-0.dtd"
   xmlns="http://www.w3.org/2000/svg"
   xmlns:svg="http://www.w3.org/2000/svg">
  <sodipodi:namedview
     id="namedview35"
     pagecolor="#ffffff"
     bordercolor="#666666"
     borderopacity="1.0"
     inkscape:pageshadow="2"
     inkscape:pageopacity="0.0"
     inkscape:pagecheckerboard="0" />
  <g
     clip-path="url(#clip0_466_137)"
     id="g26"
     transform="translate(-4.0000001,-1.3129924)">
    <path
       d="m 170.699,326.149 c 88.282,0 159.848,-71.566 159.848,-159.848 0,-88.2813 -71.566,-159.84763 -159.848,-159.84763 -88.2815,0 -159.8478,71.56633 -159.8478,159.84763 0,88.282 71.5663,159.848 159.8478,159.848 z"
       fill="#000000"
       id="path2" />
    <path
       d="M 170.699,333 C 137.729,333 105.5,323.223 78.0861,304.906 50.6726,286.589 29.3063,260.554 16.6893,230.094 4.0722,199.634 0.771024,166.116 7.20318,133.78 13.6353,101.444 29.5119,71.7407 52.8253,48.4275 84.2381,17.9198 126.394,0.99743 170.181,1.31745 c 43.788,0.32001 85.692,17.85675 116.656,48.82035 30.963,30.9635 48.5,72.8672 48.82,116.6552 0.32,43.788 -16.602,85.943 -47.11,117.356 -15.438,15.53 -33.802,27.844 -54.031,36.23 -20.229,8.385 -41.919,12.674 -63.817,12.621 z m 0,-319.6963 c -30.26,0 -59.841,8.9732 -85.0008,25.7848 -25.1604,16.8116 -44.7705,40.7065 -56.3505,68.6635 -11.58,27.956 -14.6099,58.719 -8.7064,88.398 5.9034,29.678 20.475,56.94 41.8721,78.337 21.3971,21.397 48.6586,35.969 78.3376,41.872 29.678,5.904 60.441,2.874 88.398,-8.706 27.956,-11.58 51.851,-31.19 68.663,-56.351 16.812,-25.16 25.785,-54.741 25.785,-85.001 C 323.652,125.738 307.518,86.8481 278.835,58.1652 250.152,29.4823 211.263,13.3485 170.699,13.3037 Z"
       fill="#2b65c1"
       id="path4" />
    <path
       d="m 160.398,169.648 -0.665,0.873 c -1.732,2.292 -3.516,4.649 -5.209,6.954 -5.873,8.075 -12.112,17.751 -13.831,28.3 -1.302,8.009 -0.325,17.894 6.76,23.155 l 0.885,0.664 0.69,0.56 -0.325,0.43 -10.028,14.104 v 0.079 l -0.638,-0.482 -0.443,-0.339 c -8.713,-6.512 -14.039,-17.334 -15.003,-29.237 -0.313,-3.913 -0.147,-7.849 0.495,-11.721 2.331,-14.326 10.327,-26.763 17.034,-35.971 1.772,-2.435 3.595,-4.857 5.366,-7.188 z"
       fill="#2b65c1"
       id="path6" />
    <path
       d="m 175.322,146.532 c -0.416,0.833 -0.846,1.641 -1.302,2.461 -0.456,0.821 -0.729,1.303 -1.12,1.98 -2.66,4.496 -5.564,8.844 -8.699,13.023 l -14.613,-10.419 c 3.635,-4.765 6.872,-9.823 9.677,-15.12 v -0.078 c 7.098,-14.17 9.037,-30.371 5.482,-45.8157 l -0.156,-0.6772 -0.13,-0.573 17.477,-4.1153 0.3,1.3023 c 0.377,1.6539 0.716,3.3209 1.003,5.0009 3.044,18.069 0.271,36.639 -7.919,53.031 z"
       fill="#2649a6"
       id="path8" />
    <path
       d="m 185.884,157.562 13.597,11.995 c -2.97,4.441 -6.16,8.647 -9.286,12.789 -0.508,0.651 -1.003,1.302 -1.511,1.979 l -3.659,4.962 c -5.874,8.075 -12.112,17.751 -13.831,28.3 -0.935,7.091 0.636,14.286 4.441,20.342 1.131,1.761 2.564,3.309 4.232,4.571 l 1.147,0.847 -11.617,11.513 -0.677,0.729 -0.925,-0.69 -0.313,-0.248 c -7.017,-5.355 -11.846,-13.081 -13.583,-21.736 -1.313,-5.992 -1.476,-12.179 -0.482,-18.232 2.357,-14.326 10.419,-26.763 17.048,-35.971 1.615,-2.227 3.282,-4.428 4.896,-6.511 0.157,-0.222 0.326,-0.43 0.482,-0.638 3.595,-4.767 7.033,-9.325 10.041,-14.001 z"
       fill="#2649a6"
       id="path10" />
    <path
       d="m 206.083,158.487 c -0.807,1.615 -1.667,3.178 -2.604,4.715 l -13.766,-12.216 c 0.117,-0.208 0.221,-0.417 0.326,-0.625 5.731,-11.007 8.317,-23.381 7.475,-35.762 l 17.464,-3.595 c 1.146,15.394 -1.94,33.757 -8.895,47.483 z"
       fill="#2b65c1"
       id="path12" />
    <path
       d="m 205.432,246.251 c -6.147,5.21 -14.325,8.4 -23.78,9.364 -0.886,0.091 -1.771,0.169 -2.605,0.221 -3.1,0.168 -6.208,0.107 -9.299,-0.182 l -1.914,-0.195 c -10.389,-1.338 -20.345,-4.992 -29.133,-10.692 l 10.015,-14.079 0.378,-0.533 c 1.575,0.986 3.201,1.89 4.87,2.708 6.744,3.315 14.156,5.048 21.671,5.066 0.781,0 1.55,0 2.331,-0.078 4.649,-0.26 11.187,-1.406 15.876,-5.365 6.602,-5.574 9.272,-16.931 6.511,-27.571 -2.19,-7.698 -6.181,-14.765 -11.643,-20.615 -2.343,-2.625 -4.848,-5.1 -7.501,-7.411 -1.888,-1.654 -3.829,-3.23 -5.821,-4.766 0.156,-0.222 0.325,-0.43 0.481,-0.638 3.582,-4.728 7.02,-9.273 10.028,-13.948 2.423,1.866 4.806,3.811 7.15,5.834 2.292,2.019 4.454,4.063 6.447,6.147 9.285,9.637 15.419,19.991 18.232,30.878 4.519,17.412 -0.416,35.827 -12.294,45.855 z"
       fill="#00adee"
       id="path14" />
    <path
       d="m 215.174,113.531 -17.621,1.016 c -0.208,-2.627 -0.587,-5.237 -1.133,-7.814 -0.104,-0.479 -0.257,-0.946 -0.456,-1.394 v 0 c -0.248,-0.562 -0.545,-1.103 -0.885,-1.615 v 0 c -0.039,-0.075 -0.087,-0.145 -0.144,-0.208 -0.247,-0.378 -0.507,-0.743 -0.781,-1.107 l -0.078,-0.117 c -0.248,-0.313 -0.495,-0.639 -0.755,-0.951 -2.706,-3.3445 -6.111,-6.056 -9.976,-7.9443 -0.469,-0.2257 -0.938,-0.4341 -1.407,-0.6251 -0.677,-0.2735 -1.302,-0.534 -2.044,-0.7423 -4.936,-1.5705 -10.227,-1.6339 -15.199,-0.1823 -1.655,0.459 -3.257,1.092 -4.779,1.8883 -5.824,3.0292 -10.289,8.1457 -12.503,14.3257 -1.07,3.092 -1.507,6.368 -1.283,9.633 0.224,3.265 1.103,6.451 2.586,9.368 2.37,4.35 6.394,8.009 10.601,11.278 l 1.029,0.795 0.755,0.573 c 3.659,2.747 7.54,5.456 11.291,8.061 l 0.586,0.417 1.055,0.742 c 3.907,2.735 7.944,5.561 11.864,8.582 -3.008,4.676 -6.446,9.221 -10.028,13.948 -0.156,0.209 -0.325,0.417 -0.481,0.638 -3.569,-2.773 -7.307,-5.43 -11.174,-8.113 l -1.055,-0.729 -1.042,-0.73 c -3.777,-2.604 -7.671,-5.352 -11.5,-8.204 l -0.312,-0.235 -0.704,-0.534 c -6.225,-4.727 -12.489,-10.21 -16.669,-17.907 -2.681,-5.11 -4.285,-10.715 -4.715,-16.469 -0.43,-5.754 0.323,-11.536 2.214,-16.988 3.793,-10.8013 11.646,-19.6996 21.893,-24.8058 10.246,-5.1062 22.079,-6.0183 32.987,-2.5427 10.348,3.0521 19.193,9.8372 24.823,19.0401 l 0.664,1.0679 c 0.657,1.0643 1.19,2.2004 1.589,3.386 l 0.521,1.5759 c 0.102,0.2716 0.184,0.5506 0.247,0.8336 1.124,4.179 1.801,8.466 2.019,12.789 z"
       fill="#00adee"
       id="path16" />
    <path
       d="M 163.536,59.0674 H 151.711 V 78.446 h 11.825 z"
       fill="#00adee"
       id="path18" />
    <path
       d="M 191.419,59.0674 H 179.594 V 78.446 h 11.825 z"
       fill="#00adee"
       id="path20" />
    <path
       d="m 163.536,250.38 h -11.825 v 19.378 h 11.825 z"
       fill="#00adee"
       id="path22" />
    <path
       d="m 191.419,250.38 h -11.825 v 19.378 h 11.825 z"
       fill="#00adee"
       id="path24" />
  </g>
  <defs
     id="defs31">
    <clipPath
       id="clip0_466_137">
      <rect
         width="340"
         height="333"
         fill="#ffffff"
         id="rect28"
         x="0"
         y="0" />
    </clipPath>
  </defs>
</svg>
