<?xml version="1.0" encoding="UTF-8" standalone="no"?>
<svg
   xmlns:dc="http://purl.org/dc/elements/1.1/"
   xmlns:cc="http://creativecommons.org/ns#"
   xmlns:rdf="http://www.w3.org/1999/02/22-rdf-syntax-ns#"
   xmlns:svg="http://www.w3.org/2000/svg"
   xmlns="http://www.w3.org/2000/svg"
   xmlns:sodipodi="http://sodipodi.sourceforge.net/DTD/sodipodi-0.dtd"
   xmlns:inkscape="http://www.inkscape.org/namespaces/inkscape"
   width="242.5"
   height="242.5"
   viewBox="0 0 242.5 242.5"
   version="1.1"
   id="svg19"
   sodipodi:docname="STEP_SOL.svg"
   inkscape:version="1.0.2-2 (e86c870879, 2021-01-15)">
  <metadata
     id="metadata25">
    <rdf:RDF>
      <cc:Work
         rdf:about="">
        <dc:format>image/svg+xml</dc:format>
        <dc:type
           rdf:resource="http://purl.org/dc/dcmitype/StillImage" />
      </cc:Work>
    </rdf:RDF>
  </metadata>
  <defs
     id="defs23" />
  <sodipodi:namedview
     pagecolor="#ffffff"
     bordercolor="#666666"
     borderopacity="1"
     objecttolerance="10"
     gridtolerance="10"
     guidetolerance="10"
     inkscape:pageopacity="0"
     inkscape:pageshadow="2"
     inkscape:window-width="1920"
     inkscape:window-height="1017"
     id="namedview21"
     showgrid="false"
     inkscape:zoom="3.4722222"
     inkscape:cx="121.151"
     inkscape:cy="121.152"
     inkscape:window-x="-8"
     inkscape:window-y="-8"
     inkscape:window-maximized="1"
     inkscape:current-layer="step-solana" />
  <g
     id="step-solana"
     transform="translate(-2418.77,-5797.947)">
    <path
       id="Main_copy_10"
       d="M 0,121.252 C 0,188.064 54.44,242.5 121.252,242.5 188.064,242.5 242.5,188.064 242.5,121.252 242.5,54.44 188.064,0 121.252,0 54.44,0 0,54.44 0,121.252 Z"
       transform="translate(2418.77,5797.947)"
       fill="#ffd166" />
    <path
       id="Path_472584"
       data-name="Path 472584"
       d="M 142.987,121.43 V 43.638 L 75.552,4.7 v 77.823 l -67.413,38.92 67.436,38.931 67.371,-38.893 0.041,0.024 v -0.047 l 0.024,-0.014 z"
       transform="translate(2464.457,5837.782)"
       fill="#ffffff"
       fill-rule="evenodd" />
    <path
       id="Path_472585"
       data-name="Path 472585"
       d="M 8.147,43.638 75.58,4.7 V 82.567 L 8.144,121.5 Z"
       transform="translate(2464.47,5837.781)"
       fill="#fff" />
    <path
       id="Path_472586"
       data-name="Path 472586"
       d="M 41.483,4.684 108.92,43.615 86.441,56.592 19,17.661 Z"
       fill="#fff"
       transform="translate(2498.574,5837.724)" />
    <path
       id="Path_472587"
       data-name="Path 472587"
       d="M 86.426,46.747 V 72.7 L 18.994,33.767 V 7.811 Z"
       transform="translate(2498.539,5847.545)"
       fill="#ffd166" />
    <path
       id="Path_472588"
       data-name="Path 472588"
       d="M 36.031,14.09 103.467,53.021 80.989,66 13.553,27.067 Z"
       transform="translate(2481.455,5867.261)"
       fill="#fff" />
    <path
       id="Path_472589"
       data-name="Path 472589"
       d="M 81.051,56.192 V 82.148 L 13.619,43.212 V 17.256 Z"
       transform="translate(2481.66,5877.201)"
       fill="#ffd166" />
    <path
       id="Path_472590"
       data-name="Path 472590"
       d="M 30.618,23.5 98.054,62.427 75.576,75.4 8.139,36.473 Z"
       transform="translate(2464.457,5896.796)"
       fill="#fff" />
    <path
       id="Path_472591"
       data-name="Path 472591"
       d="M 75.561,65.56 V 91.516 L 8.129,52.579 V 26.624 Z"
       transform="translate(2464.421,5906.616)"
       fill="#ffd166" />
    <path
       id="Path_472592"
       data-name="Path 472592"
       d="M 35.29,27.062 57.768,14.083 V 91.95 l -22.481,12.979 z"
       transform="translate(2549.703,5867.238)"
       fill="#fff" />
    <path
       id="Path_472593"
       data-name="Path 472593"
       d="M 29.849,36.468 52.327,23.49 v 51.911 l -22.48,12.978 z"
       transform="translate(2532.62,5896.775)"
       fill="#fff" />
  </g>
</svg>
