<svg xmlns="http://www.w3.org/2000/svg" width="244.8" height="244.8" viewBox="0 0 244.8 244.8">
  <g id="step-solana" transform="translate(-2417.521 -5796.699)">
    <path id="Main_copy_10" d="M0,121.252C0,188.064,54.44,242.5,121.252,242.5S242.5,188.064,242.5,121.252,188.064,0,121.252,0,0,54.44,0,121.252Z" transform="translate(2418.77 5797.947)" fill="#ffd166"/>
    <g id="Main_copy_14" transform="translate(2417.521 5796.699)" fill="none">
      <path d="M0,122.4c0,67.444,54.954,122.4,122.4,122.4s122.4-54.954,122.4-122.4S189.841,0,122.4,0,0,54.954,0,122.4Z" stroke="none"/>
      <path d="M 122.4000015258789 11 C 60.97383117675781 11 11 60.97383117675781 11 122.4000015258789 C 11 183.826171875 60.97383117675781 233.8000030517578 122.4000015258789 233.8000030517578 C 183.826171875 233.8000030517578 233.8000030517578 183.826171875 233.8000030517578 122.4000015258789 C 233.8000030517578 60.97383117675781 183.826171875 11 122.4000015258789 11 M 122.4000015258789 0 C 189.8410034179688 0 244.8000030517578 54.95399475097656 244.8000030517578 122.4000015258789 C 244.8000030517578 189.8460083007813 189.8460083007813 244.8000030517578 122.4000015258789 244.8000030517578 C 54.95399475097656 244.8000030517578 0 189.843994140625 0 122.4000015258789 C 0 54.95399475097656 54.95899963378906 0 122.4000015258789 0 Z" stroke="none" fill="#1ae5ae"/>
    </g>
    <path id="Path_472584" data-name="Path 472584" d="M142.987,121.43l0-77.792L75.552,4.7l0,77.823L8.139,121.443l67.436,38.931,67.371-38.893.041.024v-.047l.024-.014Z" transform="translate(2464.457 5837.782)" fill="#fff" fill-rule="evenodd"/>
    <path id="Path_472585" data-name="Path 472585" d="M8.147,43.638,75.58,4.7l0,77.867L8.144,121.5Z" transform="translate(2464.47 5837.781)" fill="#fff"/>
    <path id="Path_472586" data-name="Path 472586" d="M41.483,4.684,108.92,43.615,86.441,56.592,19,17.661Z" transform="translate(2498.574 5837.724)" fill="#fff"/>
    <path id="Path_472587" data-name="Path 472587" d="M86.426,46.747V72.7L18.994,33.767V7.811Z" transform="translate(2498.539 5847.545)" fill="#ffd166"/>
    <path id="Path_472588" data-name="Path 472588" d="M36.031,14.09l67.436,38.931L80.989,66,13.553,27.067Z" transform="translate(2481.455 5867.261)" fill="#fff"/>
    <path id="Path_472589" data-name="Path 472589" d="M81.051,56.192V82.148L13.619,43.212V17.256Z" transform="translate(2481.66 5877.201)" fill="#ffd166"/>
    <path id="Path_472590" data-name="Path 472590" d="M30.618,23.5,98.054,62.427,75.576,75.4,8.139,36.473Z" transform="translate(2464.457 5896.796)" fill="#fff"/>
    <path id="Path_472591" data-name="Path 472591" d="M75.561,65.56V91.516L8.129,52.579V26.624Z" transform="translate(2464.421 5906.616)" fill="#ffd166"/>
    <path id="Path_472592" data-name="Path 472592" d="M35.29,27.062,57.768,14.083l0,77.867L35.287,104.929Z" transform="translate(2549.703 5867.238)" fill="#fff"/>
    <path id="Path_472593" data-name="Path 472593" d="M29.849,36.468,52.327,23.49l0,51.911L29.847,88.379Z" transform="translate(2532.62 5896.775)" fill="#fff"/>
  </g>
</svg>
