<svg xmlns="http://www.w3.org/2000/svg" width="238.501" height="236.921" viewBox="0 0 238.501 236.921">
  <g id="steth_eth" transform="translate(-2778.645 -6071)">
    <path id="Path_473878" data-name="Path 473878" d="M119.25,0C185.111,0,238.5,53.037,238.5,118.461s-53.39,118.461-119.25,118.461S0,183.885,0,118.461,53.39,0,119.25,0Z" transform="translate(2778.645 6071)" fill="#00a3ff"/>
    <g id="STETH" transform="translate(2695.216 6003.498)">
      <path id="Path_473870" data-name="Path 473870" d="M160.282,240.488l-1.157,1.775a49.857,49.857,0,0,0,7.008,63.042,52.048,52.048,0,0,0,36.526,14.826Z" transform="translate(0 -66.477)" fill="#fff"/>
      <path id="Path_473871" data-name="Path 473871" d="M212.151,264.694l-42.377-24.206,42.377,79.643Z" transform="translate(-9.492 -66.477)" fill="#fff" opacity="0.6"/>
      <path id="Path_473872" data-name="Path 473872" d="M297.943,240.488l1.157,1.775a49.857,49.857,0,0,1-7.008,63.042,52.047,52.047,0,0,1-36.526,14.826Z" transform="translate(-52.867 -66.477)" fill="#fff" opacity="0.6"/>
      <path id="Path_473873" data-name="Path 473873" d="M255.566,264.694l42.376-24.206-42.376,79.643Z" transform="translate(-52.866 -66.477)" fill="#fff" opacity="0.2"/>
      <path id="Path_473874" data-name="Path 473874" d="M255.584,180.09v41.748l36.5-20.86Z" transform="translate(-52.875 -35.941)" fill="#fff" opacity="0.2"/>
      <path id="Path_473875" data-name="Path 473875" d="M218.232,180.09,181.7,200.977l36.529,20.861Z" transform="translate(-15.523 -35.941)" fill="#fff" opacity="0.6"/>
      <path id="Path_473876" data-name="Path 473876" d="M218.232,109.054,181.7,165.064l36.529-20.946Z" transform="translate(-15.523 -0.027)" fill="#fff"/>
      <path id="Path_473877" data-name="Path 473877" d="M255.584,144.092l36.53,20.947L255.584,109Z" transform="translate(-52.875 0)" fill="#fff" opacity="0.6"/>
    </g>
  </g>
</svg>
