<svg xmlns="http://www.w3.org/2000/svg" viewBox="0 0 490 490"><defs><style>.a{fill:#fff;}</style></defs><title>Stex</title><rect width="490" height="490" rx="60.06" ry="60.06"/><path class="a" d="M213.36,286.89H193.47v-49h-28V223.11h75v14.77H213.35v49Z" transform="translate(-10 -10)"/><path class="a" d="M332.08,272v14.85h-70V223.11h70v14.77H282v10.71h47v12.9H282V272Z" transform="translate(-10 -10)"/><path class="a" d="M380,286.89H353.18l30.91-31.48-29.78-32.3H380.2l17.61,19.71,17.53-19.71h26.13L411.36,255.4l31.49,31.49h-26.7l-18.1-19.15Z" transform="translate(-10 -10)"/><path class="a" d="M145.43,223.11v13.18H94.66V237c-.47,0-.91.06-1.33.11a8.52,8.52,0,0,0-2.43.7,4.25,4.25,0,0,0-1.83,1.58,5,5,0,0,0-.69,2.76q0,3.08,2.19,4.05a12.09,12.09,0,0,0,4.08.9v1h30.52l3.22.15c1.73.08,3.16.17,4.3.29,4.24.23,7.56,1.4,10,3.49a2.75,2.75,0,0,0-.15,3.75c.39.52.74,1,1.06,1.44-1.18,3.84-.48,9-1.41,12.08a3,3,0,0,0,1,3.4c-1,2.68-1.74,5.25-1.12,8.19l-4.9,4.9a29.2,29.2,0,0,1-8.66,1.13H70.86v-13.8H121l.81,0c.45,0,.89-.06,1.3-.1a9.44,9.44,0,0,0,2-.46,6.62,6.62,0,0,0,.62-.24,4.4,4.4,0,0,0,1.95-1.58,4.76,4.76,0,0,0,.73-2.76,4.58,4.58,0,0,0-1-3.12,5.66,5.66,0,0,0-2.28-1.59l-.35-.12a14.11,14.11,0,0,0-3-.61v-1.2H90.11l-.52,0-.47,0c-1.68-.07-3.12-.17-4.31-.28-5.42-.29-9.45-1.94-12.09-4.92a3.5,3.5,0,0,0,.26-.43,14.62,14.62,0,0,0,1.5-4.79c.33-2.39-1.38-4.82-1-6.94s2-3,1.75-5.33C75,235.87,73,234,72.52,231.44a3.72,3.72,0,0,0-.4-1.11l6-6a20.76,20.76,0,0,1,7.5-1.21Z" transform="translate(-10 -10)"/><path class="a" d="M89.59,223.11V238a3.42,3.42,0,0,0-2.92,4.61c-.93,2,0,4.9,2.73,5.07h.19v13.55H70.83V231.61l1.29-1.29h0l6-6h0l1.2-1.21Z" transform="translate(-10 -10)"/><rect class="a" x="73.62" y="226.66" width="11.04" height="11.04"/><path class="a" d="M144.82,248.08v30.06L142,280.92s0,0,0-.06l-4.9,4.9.09,0-1.15,1.16h-10.9V248.08Z" transform="translate(-10 -10)"/><path class="a" d="M121.85,262.1h7.44v11.48H121v-.5l.81,0V262.1Z" transform="translate(-10 -10)"/><path class="a" d="M121,273.08l.81,0v1.09h-51v-1H120Z" transform="translate(-10 -10)"/><rect class="a" x="84.66" y="224.95" width="50.78" height="2.93"/><path class="a" d="M137.13,285.77l.09,0-1.15,1.15H136Z" transform="translate(-10 -10)"/><path class="a" d="M144.82,278.07v.07L142,280.92s0,0,0-.06Z" transform="translate(-10 -10)"/><rect class="a" x="131.34" y="275.46" width="12.37" height="8.26" transform="translate(-167.42 169.14) rotate(-45)"/></svg>