<?xml version="1.0" encoding="UTF-8" standalone="no"?>
<svg
   xmlns:dc="http://purl.org/dc/elements/1.1/"
   xmlns:cc="http://creativecommons.org/ns#"
   xmlns:rdf="http://www.w3.org/1999/02/22-rdf-syntax-ns#"
   xmlns:svg="http://www.w3.org/2000/svg"
   xmlns="http://www.w3.org/2000/svg"
   xmlns:sodipodi="http://sodipodi.sourceforge.net/DTD/sodipodi-0.dtd"
   xmlns:inkscape="http://www.inkscape.org/namespaces/inkscape"
   width="236"
   height="236"
   version="1.1"
   id="svg19"
   sodipodi:docname="STMX_ERC20.svg"
   inkscape:version="1.0.2-2 (e86c870879, 2021-01-15)">
  <metadata
     id="metadata23">
    <rdf:RDF>
      <cc:Work
         rdf:about="">
        <dc:format>image/svg+xml</dc:format>
        <dc:type
           rdf:resource="http://purl.org/dc/dcmitype/StillImage" />
      </cc:Work>
    </rdf:RDF>
  </metadata>
  <sodipodi:namedview
     pagecolor="#ffffff"
     bordercolor="#666666"
     borderopacity="1"
     objecttolerance="10"
     gridtolerance="10"
     guidetolerance="10"
     inkscape:pageopacity="0"
     inkscape:pageshadow="2"
     inkscape:window-width="1920"
     inkscape:window-height="1017"
     id="namedview21"
     showgrid="false"
     inkscape:zoom="3.3203125"
     inkscape:cx="118"
     inkscape:cy="118"
     inkscape:window-x="-8"
     inkscape:window-y="-8"
     inkscape:window-maximized="1"
     inkscape:current-layer="g17" />
  <defs
     id="defs5">
    <filter
       id="A"
       x="0"
       y="0"
       width="1"
       height="1">
      <feColorMatrix
         in="SourceGraphic"
         values="0 0 0 0 1.000000 0 0 0 0 1.000000 0 0 0 0 1.000000 0 0 0 1.000000 0"
         id="feColorMatrix2" />
    </filter>
  </defs>
  <g
     fill-rule="evenodd"
     id="g17"
     transform="translate(-10,-10)">
    <g
       fill="none"
       transform="matrix(1.18,0,0,1.18,10,10)"
       id="g15">
      <circle
         fill="#fd2e53"
         cx="100"
         cy="100"
         r="100"
         id="circle9" />
      <g
         transform="translate(38,45)"
         filter="url(#A)"
         id="g13">
        <path
           d="m 32.779,0 35.802,41.791 a 20.28,20.28 0 0 1 0,26.418 L 32.779,110 H 0 L 39.577,63.807 c 4.348,-5.074 4.348,-12.537 0,-17.614 L 0,0 Z M 95.237,85.811 124.951,110 H 83.997 L 65.559,87.593 83.248,83.155 a 13.71,13.71 0 0 1 11.99,2.657 z M 124.951,0 95.238,24.189 a 13.72,13.72 0 0 1 -11.99,2.657 L 65.559,22.408 83.997,0 Z"
           fill="#000000"
           fill-rule="nonzero"
           id="path11" />
      </g>
    </g>
  </g>
</svg>
