<svg xmlns="http://www.w3.org/2000/svg" width="256" height="256" xmlns:v="https://vecta.io/nano"><defs><filter id="A" x="0" y="0" width="1" height="1"><feColorMatrix in="SourceGraphic" values="0 0 0 0 1.000000 0 0 0 0 1.000000 0 0 0 0 1.000000 0 0 0 1.000000 0"/></filter></defs><g fill-rule="evenodd"><path d="M6.557 128c0 66.964 54.479 121.443 121.443 121.443S249.443 194.964 249.443 128 194.964 6.557 128 6.557 6.557 61.036 6.557 128z" fill="#fff" stroke="#b0b0b0" stroke-width="13.114" paint-order="normal"/><g fill="none" transform="matrix(1.18 0 0 1.18 10 10)"><circle fill="#fd2e53" cx="100" cy="100" r="100"/><g transform="translate(38 45)" filter="url(#A)"><path d="M32.779 0l35.802 41.791a20.28 20.28 0 0 1 0 26.418L32.779 110H0l39.577-46.193c4.348-5.074 4.348-12.537 0-17.614L0 0zm62.458 85.811L124.951 110H83.997L65.559 87.593l17.689-4.438a13.71 13.71 0 0 1 11.99 2.657zM124.951 0L95.238 24.189a13.72 13.72 0 0 1-11.99 2.657l-17.689-4.438L83.997 0z" fill="#000" fill-rule="nonzero"/></g></g></g></svg>