<?xml version="1.0" encoding="utf-8"?>
<!-- Generator: Adobe Illustrator 22.0.0, SVG Export Plug-In . SVG Version: 6.00 Build 0)  -->
<svg version="1.1" id="Storj" xmlns="http://www.w3.org/2000/svg" xmlns:xlink="http://www.w3.org/1999/xlink" x="0px" y="0px"
	 viewBox="0 0 245 245" style="enable-background:new 0 0 245 245;" xml:space="preserve">
<style type="text/css">
	.st0{fill:#2683FF;}
	.st1{fill:#FFFFFF;}
</style>
<path id="Main" class="st0" d="M0,122.5C0,190,55,245,122.5,245S245,190,245,122.5S190,0,122.5,0S0,55,0,122.5z"/>
<g id="Storj-2">
	<g>
		<path class="st1" d="M146,120.5c0,0,0-16.6-19.5-18.5c-8.3-1.3-17.5,7.5-17.5,7.5s-17.5-1.6-17.5,15c0,15.9,16.5,17.4,21.5,14.5
			c1.6,1.4,8.1,4.6,12.5,4.5c4.4,0.2,10-2.5,10-2.5s2,1.9,6.5,2c10.7,0,11.5-9.6,11.5-11C154.2,124.7,146,120.5,146,120.5z"/>
		<path class="st1" d="M193.5,146.6v-48c0,0,8.5-3.8,8.5-13.5c0-10.2-8.6-14.5-14.5-14.6c-3,0-6,0.8-8.5,2.5c0,0-39.1-22.4-42-24
			c0-9.7-6-16-14.5-16c-7.6,0-14.5,5-14.5,16c-1.3,1-41.8,24-41.8,24s-4.1-2.4-8.7-2.5S43,74.4,43,85.1c-0.1,5.8,3.3,11.1,8.5,13.5
			v48c-5.2,2.3-8.6,7.5-8.5,13.2c0,10,7.4,14.7,14.5,14.7c3,0,6-0.7,8.7-2.2c0,0,38.4,22,41.8,24.1c0,9.9,6.6,15.6,14.5,15.6
			s14.5-6,14.5-15.6c5.5-3.2,42-24.1,42-24.1s2.8,2.5,8.5,2.7c5.6,0,14.5-4.8,14.5-15.2C202,149.9,193.5,146.6,193.5,146.6z
			 M187.5,171.5c-8.5,0-12-6.7-12-13c-2.5-1.4-21-12.5-21-12.5s-5.9,3.1-9.5,3c-2.2,0-6.6-1.4-8-2.4c-4.2,1.4-10.5,2.9-10.5,2.9V186
			c3.3,1.6,7.5,4.6,7.5,11.5s-4.4,12-11.5,12c-6,0.1-11.5-5.3-11.5-12s4.2-9.6,7.5-11.5v-37.5c0,0-5.2-2.8-7-4
			c-0.4,0.3-2.9,1.5-7,1.5s-10-2.5-10-2.5l-25.5,15c0,0,0.8,6.1-3,10c-0.7,0.8-11.5,7.7-18-1.5c-5-8,0.7-14.6,1-15
			c7.2-7.1,16-1.5,16-1.5l23-13c-2.6-3.9-4-8.4-4-13c0-8.1,7-15.5,7-15.5L65,94.5c0,0-9.2,6.5-16.5-2c-5.5-6.3-1-13.5-1-13.5
			s3.9-5.5,10-5.5c12,0.1,12,13.5,12,13.5l30.5,17.5c1.6,0.3,3.4,0.3,5,0c3-0.4,5.7-4.4,13-7.5V59c0,0-7.5-4.2-7.5-11
			c0-8.7,7.6-12,12-12c9.1,0,12,9.2,12,11.5C134.6,55,127,59,127,59s0,35.2,0,36.5c12.3,1.7,18.5,8.5,18.5,8.5L176,86.5
			c0,0-0.8-5.7,3-9.5c4.5-4.6,11.9-4.7,16.5-0.2c2.2,2.2,3.5,5.1,3.5,8.2c0,6.5-6.3,11.9-11.5,11.9c-4.9,0-7.5-2.5-7.5-2.5
			s-28.3,16.4-29.5,17c0.1,2,4.4,7.8,5,9c0.5,0.6,5.5,5,5.5,10c0,2.9-0.3,5.7-1,8.5l20,11.5c0,0,3.7-2,7.5-2
			c7.3,0,11.5,6.2,11.5,11.3S196,171.5,187.5,171.5z"/>
	</g>
	<path id="Rounds" class="st1" d="M122.5,44c1.9,0,3.5,1.6,3.5,3.5s-1.6,3.5-3.5,3.5s-3.5-1.6-3.5-3.5S120.6,44,122.5,44z
		 M187.5,81.5c1.9,0,3.5,1.6,3.5,3.5s-1.6,3.5-3.5,3.5S184,86.9,184,85l0,0C184,83.1,185.6,81.5,187.5,81.5z M187.5,156.5
		c1.9,0,3.5,1.6,3.5,3.5s-1.6,3.5-3.5,3.5s-3.5-1.6-3.5-3.5S185.6,156.5,187.5,156.5z M122.5,194c1.9,0,3.5,1.6,3.5,3.5
		s-1.6,3.5-3.5,3.5s-3.5-1.6-3.5-3.5S120.6,194,122.5,194z M57.5,156.5c1.9,0,3.5,1.6,3.5,3.5s-1.6,3.5-3.5,3.5
		c-1.9,0-3.5-1.6-3.5-3.5S55.6,156.5,57.5,156.5z M57.5,81.5c1.9,0,3.5,1.6,3.5,3.5s-1.6,3.5-3.5,3.5c-1.9,0-3.5-1.6-3.5-3.5l0,0
		C54,83.1,55.6,81.5,57.5,81.5z"/>
</g>
</svg>
