<svg id="Storj" xmlns="http://www.w3.org/2000/svg" width="256" height="256" viewBox="0 0 512 512">
<defs>
    <style>
      .cls-1 {
        fill: #2683ff;
      }

      .cls-1, .cls-2 {
        fill-rule: evenodd;
      }

      .cls-2 {
        fill: #fff;
      }
    </style>
  </defs>
  <path id="Main" class="cls-1" d="M11,256c0,135.094,109.906,245,245,245S501,391.094,501,256,391.094,11,256,11,11,120.906,11,256Z"/>
  <g id="Storj-2" data-name="Storj">
    <path id="Main-2" data-name="Main" class="cls-2" d="M97,181.147c0-21.294,19.695-29.22,28.981-29.147s17.4,4.911,17.4,4.911,80.988-46.156,83.58-48.1c0-22.091,13.923-31.995,29.044-31.995,17.017,0,28.93,12.591,28.93,31.995,5.682,3.343,83.972,48.1,83.972,48.1A31.6,31.6,0,0,1,386,152c11.891,0.109,29,8.812,29,29.147,0,19.424-17,27.016-17,27.016v96.094s17,6.61,17,26.406C415,351.384,397.165,361,385.913,361c-11.322-.308-17.011-5.337-17.011-5.337s-72.933,41.81-83.972,48.269c0,19.334-13.049,31.256-28.93,31.256s-29.044-11.433-29.044-31.256c-6.823-4.24-83.58-48.269-83.58-48.269A35.382,35.382,0,0,1,126,360c-14.162,0-29-9.349-29-29.337a28.23,28.23,0,0,1,17-26.406V208.163A29.386,29.386,0,0,1,97,181.147ZM126,158c24.027,0.267,24,27,24,27l61,35a24.349,24.349,0,0,0,10,0c5.956-.87,11.425-8.788,26-15V129s-15-8.409-15-22c-0.073-17.431,15.251-24,24-24,18.159,0.018,24,18.313,24,23,0.222,14.913-15,23-15,23s0.015,70.385,0,73c24.646,3.336,37,17,37,17l61-35s-1.573-11.41,5.9-19A23.4,23.4,0,0,1,409,181.147C409,194.219,396.455,205,385.913,205c-9.765,0-14.913-5-14.913-5s-56.69,32.811-59,34c0.165,3.945,8.807,15.641,10,18,1.046,1.142,10.924,10.012,11,20a64.124,64.124,0,0,1-2,17l40,23s7.387-4,14.913-4C400.546,308,409,320.428,409,330.663S402.923,354,385.913,354,362,340.6,362,328c-5.048-2.818-42-25-42-25s-11.8,6.216-19,6c-4.359.06-13.252-2.819-16.07-4.743C276.518,306.972,264,310,264,310v73c6.619,3.3,15,9.16,15,23s-8.852,24-23,24c-12.081.176-23-10.506-23-24s8.464-19.16,15-23V308s-10.379-5.543-14-8c-0.877.613-5.806,3-14,3s-20-5-20-5l-51,30s1.684,12.213-6,20c-1.306,1.619-22.958,15.413-36-3-10-15.992,1.435-29.227,2-30,14.455-14.145,32-3,32-3l46-26a47.772,47.772,0,0,1-8-26c0-16.173,14-31,14-31l-52-29s-18.389,12.952-33-4c-11-12.675-2-27-2-27S113.828,158,126,158Zm103,72s-35-3.227-35,30c0,31.805,32.956,34.753,43,29,3.15,2.787,16.188,9.248,25,9,8.7,0.352,20-5,20-5s3.924,3.842,13,4c21.351-.018,22.9-19.135,23-22,1.494-14.63-15-23-15-23s-0.1-33.2-39-37C247.365,212.431,229,230,229,230Z"/>
    <path id="Rounds" class="cls-2" d="M256,99a7,7,0,1,1-7,7A7,7,0,0,1,256,99Zm130,75a7,7,0,1,1-7,7A7,7,0,0,1,386,174Zm0,150a7,7,0,1,1-7,7A7,7,0,0,1,386,324ZM256,399a7,7,0,1,1-7,7A7,7,0,0,1,256,399ZM126,324a7,7,0,1,1-7,7A7,7,0,0,1,126,324Zm0-150a7,7,0,1,1-7,7A7,7,0,0,1,126,174Z"/>
  </g>
</svg>
