<svg id="Stox" xmlns="http://www.w3.org/2000/svg" width="256" height="256" viewBox="0 0 512 512">
<defs>
    <style>
      .cls-1 {
        fill: #710afc;
      }

      .cls-1, .cls-2, .cls-3 {
        fill-rule: evenodd;
      }

      .cls-2, .cls-3 {
        fill: none;
        stroke: #fff;
        stroke-linejoin: round;
        stroke-width: 6px;
      }

      .cls-3 {
        stroke-linecap: round;
      }
    </style>
  </defs>
  <path id="Main_copy_25" data-name="Main copy 25" class="cls-1" d="M11,256c0,135.094,109.906,245,245,245S501,391.094,501,256,391.094,11,256,11,11,120.906,11,256Z"/>
  <g id="Stox-2" data-name="Stox">
    <path id="S" class="cls-2" d="M74.23,299.885s37.08,2.583,40.875-42.617c1.055-32.286,29.379-45.2,35.765-45.2h63.867"/>
    <path id="T" class="cls-2" d="M186.636,258.559v43.909"/>
    <path id="O" class="cls-3" d="M282.441,214.648c23.277,0,42.146,19.082,42.146,42.62s-18.869,42.619-42.146,42.619-42.147-19.081-42.147-42.619S259.164,214.648,282.441,214.648Z"/>
    <path id="X" class="cls-2" d="M346.3,214.65c23.28,0,42.152,19.081,42.152,42.618s-18.872,42.617-42.152,42.617"/>
    <path id="X2" class="cls-2" d="M436.993,214.65c-23.28,0-42.152,19.081-42.152,42.618s18.872,42.617,42.152,42.617"/>
  </g>
</svg>
