<svg id="STRAT" xmlns="http://www.w3.org/2000/svg" width="512" height="512" viewBox="0 0 512 512">
  <defs>
    <style>
      .cls-1 {
        fill: #1488ca;
      }

      .cls-1, .cls-2 {
        fill-rule: evenodd;
      }

      .cls-2 {
        fill: #fff;
      }
    </style>
  </defs>
  <path id="Full" class="cls-1" d="M11,256c0,135.094,109.906,245,245,245S501,391.094,501,256,391.094,11,256,11,11,120.906,11,256Z"/>
  <path id="STRAT-2" data-name="STRAT" class="cls-2" d="M251.194,388.447l-147.649-82.6c-0.17,0-.17-0.342,0-0.342l6.329-9.916c0-.173.346-0.173,0.346,0l146.115,81.748h0.341l136.876-76.622c3.426-1.877,5.136-5.641,5.136-9.573V270.276c0-.174-0.171-0.342-0.517-0.174L261.806,346.377c-3.766,2.05-6.675,2.05-10.612,0l-137.9-77.131A23.941,23.941,0,0,1,102,248.547v-36.26c0-5.3,2.738-7.014,6.67-9.232l142.353-79.7a11.332,11.332,0,0,1,10.954,0l144.4,80.9a10.385,10.385,0,0,1,0,17.275L261.63,302.6c-3.761,2.051-6.67,2.051-10.436,0L114.664,226.14a0.331,0.331,0,0,0-.517.174v22.06a11.77,11.77,0,0,0,5.647,10.094l136.365,76.274H256.5l139.1-77.815c3.591-2.223,8.727-2.4,12.147.51a10.221,10.221,0,0,1,3.25,7.529v25.656c0,7.865-4.619,16.587-10.948,20L261.63,388.105c-3.59,2.565-6.5,2.565-10.436.347v0ZM117.056,213.5L256.33,291.484h0.34L395.944,213.5a0.323,0.323,0,0,0,0-.515L256.67,134.987h-0.34L117.056,212.976a0.323,0.323,0,0,0,0,.515v0Z"/>
</svg>
