<?xml version="1.0" encoding="utf-8"?>
<!-- Generator: Adobe Illustrator 22.0.0, SVG Export Plug-In . SVG Version: 6.00 Build 0)  -->
<svg version="1.1" id="STRAT" xmlns="http://www.w3.org/2000/svg" xmlns:xlink="http://www.w3.org/1999/xlink" x="0px" y="0px"
	 viewBox="0 0 490 490" style="enable-background:new 0 0 490 490;" xml:space="preserve">
<style type="text/css">
	.st0{fill:#1488CA;}
	.st1{fill:#FFFFFF;}
</style>
<path id="Full" class="st0" d="M0,245c0,135.1,109.9,245,245,245s245-109.9,245-245S380.1,0,245,0S0,109.9,0,245z"/>
<path id="STRAT-2" class="st1" d="M240.2,377.4L92.5,294.8c-0.2,0-0.2-0.3,0-0.3l6.3-9.9c0-0.2,0.3-0.2,0.3,0l146.1,81.7h0.3
	l136.9-76.6c3.4-1.9,5.1-5.6,5.1-9.6v-20.9c0-0.2-0.2-0.3-0.5-0.2l-136.4,76.3c-3.8,2-6.7,2-10.6,0l-137.9-77.1
	c-7.1-4.4-11.4-12.3-11.3-20.7v-36.3c0-5.3,2.7-7,6.7-9.2L240,112.4c3.4-1.9,7.5-1.9,11,0l144.4,80.9c4.8,3.2,6.1,9.6,2.9,14.4
	c-0.8,1.1-1.7,2.1-2.9,2.9l-144.7,81.1c-3.8,2.1-6.7,2.1-10.4,0l-136.5-76.5c-0.1-0.1-0.4-0.1-0.5,0.1c0,0,0,0.1-0.1,0.1v22.1
	c0,4.1,2.1,8,5.6,10.1l136.4,76.3h0.3l139.1-77.8c3.6-2.2,8.7-2.4,12.1,0.5c2.1,1.9,3.3,4.7,3.2,7.5v25.7c0,7.9-4.6,16.6-10.9,20
	l-138.4,77.5C247,379.7,244.1,379.7,240.2,377.4L240.2,377.4L240.2,377.4z M106.1,202.5l139.3,78h0.3l139.3-78
	c0.1-0.1,0.2-0.3,0.1-0.5c0,0,0,0-0.1-0.1l-139.3-78h-0.3l-139.3,78C105.9,202.1,105.9,202.3,106.1,202.5
	C106,202.5,106,202.5,106.1,202.5L106.1,202.5L106.1,202.5z"/>
</svg>
