<svg xmlns="http://www.w3.org/2000/svg" width="512" height="512" fill="none" xmlns:v="https://vecta.io/nano"><path d="M256 512c141.385 0 256-114.615 256-256S397.385 0 256 0 0 114.615 0 256s114.615 256 256 256z" fill="#fff"/><path d="M156.104 142.826a9.66 9.66 0 0 1 6.827-2.826h236.23c4.304 0 6.458 5.204 3.413 8.245l-46.678 46.642a9.66 9.66 0 0 1-6.827 2.826h-236.23c-4.303 0-6.458-5.204-3.413-8.245l46.678-46.642z" fill="url(#A)"/><path d="M156.104 317.076c1.811-1.811 4.267-2.826 6.827-2.826h236.23c4.304 0 6.458 5.203 3.413 8.245l-46.678 46.641a9.66 9.66 0 0 1-6.827 2.827h-236.23c-4.303 0-6.458-5.204-3.413-8.246l46.678-46.641z" fill="url(#A)"/><path d="M349.069 226.57a9.66 9.66 0 0 1 6.827 2.826l46.678 46.641c3.045 3.042.891 8.246-3.413 8.246h-236.23a9.66 9.66 0 0 1-6.827-2.827l-46.678-46.641c-3.045-3.042-.89-8.245 3.413-8.245h236.23z" fill="url(#A)"/><defs><linearGradient id="A" x1="404" y1="139.991" x2="115.507" y2="380.486" gradientUnits="userSpaceOnUse"><stop stop-color="#00a3ff"/><stop offset="1" stop-color="#3adcff"/></linearGradient></defs></svg>