<?xml version="1.0" encoding="utf-8"?>
<!-- Generator: Adobe Illustrator 22.0.0, SVG Export Plug-In . SVG Version: 6.00 Build 0)  -->
<svg version="1.1" id="Substratum" xmlns="http://www.w3.org/2000/svg" xmlns:xlink="http://www.w3.org/1999/xlink" x="0px" y="0px"
	 viewBox="0 0 245 245" style="enable-background:new 0 0 245 245;" xml:space="preserve">
<style type="text/css">
	.st0{fill:#EF4138;}
	.st1{fill:none;stroke:#FFFFFF;stroke-width:5;stroke-linecap:round;stroke-linejoin:round;}
</style>
<path id="Full" class="st0" d="M0,122.5C0,190,55,245,122.5,245S245,190,245,122.5S190,0,122.5,0S0,55,0,122.5z"/>
<g id="Substratum-2">
	<path id="S" class="st1" d="M101,48.5L92,41L61.5,64.5l122,92.5l-8,7"/>
	<path id="S2" class="st1" d="M144,196.5l9,7.5l30.5-23.5L61.5,88l8-7"/>
	<path id="Bottom" class="st1" d="M162,174l-39.5,29.5l-61-46H92l39.5,30"/>
	<path id="Top" class="st1" d="M83,71l39.5-29.5l61,46H153l-39.5-30"/>
</g>
</svg>
