<?xml version="1.0" encoding="UTF-8"?><svg id="Layer_1" xmlns="http://www.w3.org/2000/svg" width="245" height="245" viewBox="0 0 245 245"><defs><style>.cls-1{fill:#fff;fill-rule:evenodd;}.cls-2{fill:#4da1ff;}</style></defs><circle class="cls-2" cx="122.5" cy="122.5" r="122.5"/><path class="cls-1" d="M162.17,108.75c6.89,8.65,11.01,19.59,11.01,31.49s-4.25,23.17-11.32,31.87l-.61.75-.16-.95c-.14-.81-.3-1.63-.49-2.45-3.54-15.56-15.08-28.9-34.07-39.71-12.83-7.28-20.17-16.03-22.09-25.99-1.25-6.44-.32-12.9,1.47-18.44,1.79-5.53,4.45-10.17,6.71-12.96l7.39-9.03c1.29-1.59,3.72-1.59,5.02,0l37.15,45.43h0ZM173.85,99.72l-49.52-60.54c-.95-1.16-2.71-1.16-3.66,0l-49.51,60.54-.16.2c-9.11,11.31-14.56,25.68-14.56,41.32,0,36.43,29.58,65.96,66.07,65.96s66.07-29.53,66.07-65.96c0-15.64-5.46-30.01-14.56-41.31l-.16-.2h0ZM83.01,108.55l4.43-5.42.13,1c.1.79.24,1.59.39,2.39,2.87,15.04,13.1,27.57,30.22,37.28,14.88,8.47,23.54,18.2,26.03,28.88,1.04,4.45,1.22,8.84.77,12.67l-.03.24-.22.1c-6.72,3.28-14.27,5.12-22.24,5.12-27.98,0-50.67-22.64-50.67-50.58,0-12,4.18-23.01,11.17-31.69h.01Z"/></svg>