<?xml version="1.0" encoding="UTF-8" standalone="no"?>
<svg
   xmlns:dc="http://purl.org/dc/elements/1.1/"
   xmlns:cc="http://creativecommons.org/ns#"
   xmlns:rdf="http://www.w3.org/1999/02/22-rdf-syntax-ns#"
   xmlns:svg="http://www.w3.org/2000/svg"
   xmlns="http://www.w3.org/2000/svg"
   width="256"
   height="256"
   viewBox="0 0 67.733332 67.733335"
   version="1.1"
   id="svg8">
  <defs
     id="defs2" />
  <metadata
     id="metadata5">
    <rdf:RDF>
      <cc:Work
         rdf:about="">
        <dc:format>image/svg+xml</dc:format>
        <dc:type
           rdf:resource="http://purl.org/dc/dcmitype/StillImage" />
        <dc:title></dc:title>
      </cc:Work>
    </rdf:RDF>
  </metadata>
  <g
     id="g2369">
    <g
       transform="translate(0,-229.26665)"
       id="layer1"
       style="fill:#ffd609;fill-opacity:1">
      <path
         d="m 1.4882812,263.20359 c 0,17.87181 14.5396478,32.41146 32.4114578,32.41146 17.871811,0 32.411459,-14.53965 32.411459,-32.41146 0,-17.87181 -14.539648,-32.41146 -32.411459,-32.41146 -17.87181,0 -32.4114578,14.53965 -32.4114578,32.41146 z"
         class="cls-1"
         id="Full"
         style="stroke-width:0.13229166;fill:#ffd609;fill-opacity:1" />
    </g>
    <path
       style="opacity:1;fill:#ffffff;fill-opacity:1;stroke:#000000;stroke-width:0;stroke-linecap:butt;stroke-linejoin:miter;stroke-miterlimit:4;stroke-dasharray:none;stroke-opacity:1"
       d="m 36.910622,18.749637 -3.375339,19.746875 5.062987,0.05819 -4.210074,13.466985 c 0,0 3.838626,-0.184263 7.85914,-2.278236 2.150969,-1.120273 7.902755,-5.57818 8.164571,-13.574755 0.260595,-7.959247 -3.196087,-11.893701 -6.910373,-14.43816 -3.714285,-2.544459 -7.10375,-3.004789 -6.590912,-2.980899 z"
       id="path985" />
    <path
       style="fill:#fffef7;stroke:#0c0c0c;stroke-width:0;stroke-linecap:butt;stroke-linejoin:miter;stroke-miterlimit:4;stroke-dasharray:none;stroke-opacity:1;fill-opacity:1"
       d="M 213.45724 92.822554 L 213.46304 92.820465 "
       id="path1298"
       transform="scale(0.26458333)" />
    <path
       style="fill:#ffffff;fill-opacity:1;stroke:#ffd609;stroke-width:0.52916667;stroke-linecap:butt;stroke-linejoin:miter;stroke-miterlimit:4;stroke-dasharray:none;stroke-opacity:1"
       d="m 23.322013,28.283243 21.619539,0.0291 c 0,0 2.124128,-0.174585 1.542174,2.124126 -0.581951,2.298713 -2.735178,7.099823 -2.735178,7.099823 l -7.361698,0.05819 -1.425784,-4.917499 c 0,0 -0.785636,-2.21142 -1.542175,0.145488 -0.756538,2.356908 -1.280295,4.772011 -1.280295,4.772011 l -7.332603,0.0291 -2.618787,-6.605162 c 0,0 -1.280297,-2.735181 1.134807,-2.735179 z"
       id="path991" />
    <path
       style="fill:#ffd609;fill-opacity:1;stroke:#000000;stroke-width:0;stroke-linecap:butt;stroke-linejoin:miter;stroke-miterlimit:4;stroke-dasharray:none;stroke-opacity:1"
       d="m 25.273407,29.77998 6.460592,0.06172 c 0,0 1.008182,-0.0823 0.88473,0.987608 -0.123449,1.069906 -1.069906,4.629404 -1.069906,4.629404 0,0 -0.205751,0.987604 -1.255083,0.987604 -1.049332,0 -3.333172,0.04115 -3.333172,0.04115 0,0 -0.987606,0.0823 -1.378534,-0.92588 -0.390927,-1.008182 -1.419684,-4.320778 -1.419684,-4.320778 0,0 -0.658404,-1.48141 1.111057,-1.460834 z"
       id="path993" />
    <path
       style="fill:#ffd609;fill-opacity:1;stroke:#000000;stroke-width:0;stroke-linecap:butt;stroke-linejoin:miter;stroke-miterlimit:4;stroke-dasharray:none;stroke-opacity:1"
       d="m 43.417421,29.77998 -6.460592,0.06172 c 0,0 -1.008182,-0.0823 -0.88473,0.987608 0.123449,1.069906 1.069906,4.629404 1.069906,4.629404 0,0 0.205751,0.987604 1.255083,0.987604 1.049332,0 3.333172,0.04115 3.333172,0.04115 0,0 0.987606,0.0823 1.378534,-0.92588 0.390927,-1.008182 1.419684,-4.320778 1.419684,-4.320778 0,0 0.658404,-1.48141 -1.111057,-1.460834 z"
       id="path993-3" />
    <path
       style="fill:#ffd609;fill-opacity:1;stroke:#000000;stroke-width:0;stroke-linecap:butt;stroke-linejoin:miter;stroke-miterlimit:4;stroke-dasharray:none;stroke-opacity:1"
       d="m 37.058385,43.439246 -0.20061,0.648116 c 0,0 2.687627,-0.704697 3.675235,-1.918629 l -0.370352,-0.401216 c 0,0 -0.889874,1.059618 -3.104273,1.671729 z"
       id="path1108" />
    <path
       style="fill:#fffdfc;fill-opacity:1;stroke:none;stroke-width:0.26458332px;stroke-linecap:butt;stroke-linejoin:miter;stroke-opacity:1"
       d="m 37.058385,43.439246 -0.20061,0.648116 c 0,0 -7.119998,1.05166 -9.113186,-2.265469 l 0.596503,-0.23278 c 0,0 1.29995,2.783691 8.717293,1.850133 z"
       id="path1110" />
    <path
       style="fill:#fffef7;stroke:#0c0c0c;stroke-width:0;stroke-linecap:butt;stroke-linejoin:miter;stroke-opacity:1;stroke-miterlimit:4;stroke-dasharray:none;fill-opacity:1"
       d="m 24.628432,11.336897 0.802431,-0.329202 c 0,0 2.448441,4.217902 2.448441,4.115026 0,-0.102875 0.06172,-4.938031 0.06172,-4.938031 l 0.92588,-0.1851763 -0.144026,8.8678813 z"
       id="path1306" />
    <path
       style="fill:#fffef7;stroke:#0c0c0c;stroke-width:0;stroke-linecap:butt;stroke-linejoin:miter;stroke-opacity:1;stroke-miterlimit:4;stroke-dasharray:none;fill-opacity:1"
       d="M 30.307168,9.7526122 31.356501,9.6085863 31.31535,18.599919 30.410044,18.76452 Z"
       id="path1308" />
    <path
       style="fill:#fffef7;stroke:#0c0c0c;stroke-width:0;stroke-linecap:butt;stroke-linejoin:miter;stroke-opacity:1;stroke-miterlimit:4;stroke-dasharray:none;fill-opacity:1"
       d="m 33.125963,9.4645603 0.823005,0.020574 -0.02059,8.7032807 -0.843579,0.02057 z"
       id="path1310" />
    <path
       style="fill:#fffef7;stroke:#0c0c0c;stroke-width:0;stroke-linecap:butt;stroke-linejoin:miter;stroke-opacity:1;stroke-miterlimit:4;stroke-dasharray:none;fill-opacity:1"
       d="m 36.397408,9.6291613 0.905304,0.1028758 -0.102875,8.8678819 -0.987605,-0.185176 z"
       id="path1312" />
    <path
       style="fill:#fffef7;fill-opacity:1;stroke:#0c0c0c;stroke-width:0;stroke-linecap:butt;stroke-linejoin:miter;stroke-miterlimit:4;stroke-dasharray:none;stroke-opacity:1"
       d="m 38.866422,10.061239 0.984315,0.199352 0.08559,4.540804 2.204009,-3.876296 1.005712,0.420856 -4.108442,7.974093 z"
       id="path1314" />
    <path
       style="fill:#fffef7;fill-opacity:1;stroke:#0c0c0c;stroke-width:0;stroke-linecap:butt;stroke-linejoin:miter;stroke-miterlimit:4;stroke-dasharray:none;stroke-opacity:1"
       d="m 43.975209,11.768975 1.058875,0.479949 -1.742735,4.581327 3.617828,-3.468719 0.948579,0.63266 -6.419443,6.457489 z"
       id="path1316" />
    <path
       style="fill:#fffef7;stroke:#0c0c0c;stroke-width:0;stroke-linecap:butt;stroke-linejoin:miter;stroke-opacity:1;stroke-miterlimit:4;stroke-dasharray:none;fill-opacity:1"
       d="m 49.236291,14.896395 0.823005,0.658404 -6.172542,5.987364 -0.781854,-0.617254 z"
       id="path1318" />
    <path
       style="fill:#fffef7;stroke:#0c0c0c;stroke-width:0;stroke-linecap:butt;stroke-linejoin:miter;stroke-opacity:1;stroke-miterlimit:4;stroke-dasharray:none;fill-opacity:1"
       d="m 51.211503,16.665856 0.699553,0.637829 -6.007938,5.843338 -0.699553,-0.699555 z"
       id="path1320" />
    <path
       style="fill:#fffef7;stroke:#0c0c0c;stroke-width:0;stroke-linecap:butt;stroke-linejoin:miter;stroke-opacity:1;stroke-miterlimit:4;stroke-dasharray:none;fill-opacity:1"
       d="m 53.37189,19.176022 0.637831,0.76128 -6.09024,5.781612 -0.637829,-0.823005 z"
       id="path1322" />
    <path
       style="fill:#fffef7;stroke:#0c0c0c;stroke-width:0;stroke-linecap:butt;stroke-linejoin:miter;stroke-opacity:1;stroke-miterlimit:4;stroke-dasharray:none;fill-opacity:1"
       d="m 54.89445,21.315836 0.493803,0.925881 -3.209719,3.189145 4.073874,-1.378533 0.452655,0.987606 -7.386474,2.180964 z"
       id="path1324" />
    <path
       style="fill:#fffef7;stroke:#0c0c0c;stroke-width:0;stroke-linecap:butt;stroke-linejoin:miter;stroke-opacity:1;stroke-miterlimit:4;stroke-dasharray:none;fill-opacity:1"
       d="m 56.972538,25.924666 0.370353,0.987605 -3.826976,2.263264 4.300205,-0.226325 0.20575,1.069907 -7.695099,-0.06173 z"
       id="path1326" />
    <path
       style="fill:#fffef7;stroke:#0c0c0c;stroke-width:0;stroke-linecap:butt;stroke-linejoin:miter;stroke-opacity:1;stroke-miterlimit:4;stroke-dasharray:none;fill-opacity:1"
       d="m 58.227621,31.603402 0.0823,1.049332 -7.674523,0.04115 -0.185176,-1.049332 z"
       id="path1328" />
    <path
       style="fill:#fffef7;stroke:#0c0c0c;stroke-width:0;stroke-linecap:butt;stroke-linejoin:miter;stroke-opacity:1;stroke-miterlimit:4;stroke-dasharray:none;fill-opacity:1"
       d="m 58.344175,33.866664 -0.01368,1.15221 -7.509925,-0.102876 -0.06173,-1.131633 z"
       id="path1330" />
    <path
       style="fill:#fffef7;stroke:#0c0c0c;stroke-width:0;stroke-linecap:butt;stroke-linejoin:miter;stroke-opacity:1;stroke-miterlimit:4;stroke-dasharray:none;fill-opacity:1"
       d="m 58.104171,37.40559 -0.185176,1.008182 -7.324746,-0.102878 0.123449,-1.111057 z"
       id="path1332" />
    <path
       style="fill:#fffef7;stroke:#0c0c0c;stroke-width:0;stroke-linecap:butt;stroke-linejoin:miter;stroke-opacity:1;stroke-miterlimit:4;stroke-dasharray:none;fill-opacity:1"
       d="m 57.466343,40.183231 -0.123452,0.76128 -3.12742,0.04115 2.592467,1.378534 -0.452652,1.193356 c 0,0 -6.193115,-3.374321 -6.049089,-3.374321 0.144026,0 7.160146,0 7.160146,10e-7 z"
       id="path1334" />
    <path
       style="fill:#fffef7;stroke:#0c0c0c;stroke-width:0;stroke-linecap:butt;stroke-linejoin:miter;stroke-opacity:1;stroke-miterlimit:4;stroke-dasharray:none;fill-opacity:1"
       d="m 55.82033,44.565733 -0.349776,0.740707 -2.757067,-0.55553 2.036937,1.872337 -0.617254,0.92588 -4.752853,-4.81458 z"
       id="path1336" />
    <path
       style="fill:#fffef7;stroke:#0c0c0c;stroke-width:0;stroke-linecap:butt;stroke-linejoin:miter;stroke-opacity:1;stroke-miterlimit:4;stroke-dasharray:none;fill-opacity:1"
       d="m 52.878087,49.215714 -0.555527,0.678979 -4.752856,-4.81458 0.534953,-0.843579 z"
       id="path1338" />
    <path
       style="fill:#fffef7;stroke:#0c0c0c;stroke-width:0;stroke-linecap:butt;stroke-linejoin:miter;stroke-opacity:1;stroke-miterlimit:4;stroke-dasharray:none;fill-opacity:1"
       d="m 51.232077,51.067477 -0.699556,0.699553 -4.567676,-4.794006 0.802428,-0.802429 z"
       id="path1340" />
    <path
       style="fill:#fffef7;stroke:#0c0c0c;stroke-width:0;stroke-linecap:butt;stroke-linejoin:miter;stroke-opacity:1;stroke-miterlimit:4;stroke-dasharray:none;fill-opacity:1"
       d="m 48.742486,53.269014 -0.905307,0.637831 -4.505952,-4.691131 0.843579,-0.678979 z"
       id="path1342" />
    <path
       style="fill:#fffef7;stroke:#0c0c0c;stroke-width:0;stroke-linecap:butt;stroke-linejoin:miter;stroke-opacity:1;stroke-miterlimit:4;stroke-dasharray:none;fill-opacity:1"
       d="m 46.355772,54.812149 -0.905306,0.576104 -1.604862,-1.460834 0.534956,1.995787 -0.905307,0.432078 -1.831186,-5.987362 z"
       id="path1344" />
    <path
       style="fill:#fffef7;stroke:#0c0c0c;stroke-width:0;stroke-linecap:butt;stroke-linejoin:miter;stroke-opacity:1;stroke-miterlimit:4;stroke-dasharray:none;fill-opacity:1"
       d="m 42.302469,56.787361 -0.946454,0.329203 -1.131634,-1.687161 -0.102875,2.057514 -1.069906,0.246901 c 0,0 0.1646,-6.213689 0.246901,-6.151964 0.0823,0.06173 3.003968,5.205507 3.003968,5.205507 z"
       id="path1346" />
    <path
       style="fill:#fffef7;stroke:#0c0c0c;stroke-width:0;stroke-linecap:butt;stroke-linejoin:miter;stroke-opacity:1;stroke-miterlimit:4;stroke-dasharray:none;fill-opacity:1"
       d="m 36.417982,58.145322 c 0.1646,0 0.967031,-0.144026 0.967031,-0.144026 l 0.02058,-6.172541 -1.049332,0.267478 z"
       id="path1348" />
    <path
       style="fill:#fffef7;stroke:#0c0c0c;stroke-width:0;stroke-linecap:butt;stroke-linejoin:miter;stroke-opacity:1;stroke-miterlimit:4;stroke-dasharray:none;fill-opacity:1"
       d="m 34.895422,58.248197 h -0.946454 l 0.0823,-5.966788 1.131634,-0.06172 z"
       id="path1350" />
    <path
       style="fill:#fffef7;stroke:#0c0c0c;stroke-width:0;stroke-linecap:butt;stroke-linejoin:miter;stroke-opacity:1;stroke-miterlimit:4;stroke-dasharray:none;fill-opacity:1"
       d="m 31.541677,58.124745 -1.008181,-0.0823 0.02058,-6.172541 1.049332,0.185176 z"
       id="path1352" />
    <path
       style="fill:#fffef7;stroke:#0c0c0c;stroke-width:0;stroke-linecap:butt;stroke-linejoin:miter;stroke-opacity:1;stroke-miterlimit:4;stroke-dasharray:none;fill-opacity:1"
       d="m 28.887486,57.713244 c 0.06172,-0.144026 0.06172,-6.110814 0.06172,-6.110814 l -3.106845,5.246659 1.049332,0.390927 1.049332,-1.666587 -0.04115,1.975213 z"
       id="path1354" />
    <path
       style="fill:#fffef7;fill-opacity:1;stroke:#0c0c0c;stroke-width:0;stroke-linecap:butt;stroke-linejoin:miter;stroke-miterlimit:4;stroke-dasharray:none;stroke-opacity:1"
       d="m 24.177863,56.145355 c 0,0 0.864573,0.522855 0.95103,0.435712 0.08646,-0.08714 1.707533,-6.274265 1.707533,-6.274265 l -4.841611,4.683913 1.059103,0.566427 1.404931,-1.285352 z"
       id="path1356" />
    <path
       style="fill:#fffef7;stroke:#0c0c0c;stroke-width:0;stroke-linecap:butt;stroke-linejoin:miter;stroke-opacity:1;stroke-miterlimit:4;stroke-dasharray:none;fill-opacity:1"
       d="m 20.060753,53.927419 -0.884731,-0.678979 4.505954,-4.361928 0.946456,0.658405 z"
       id="path1358" />
    <path
       style="fill:#fffef7;stroke:#0c0c0c;stroke-width:0;stroke-linecap:butt;stroke-linejoin:miter;stroke-opacity:1;stroke-miterlimit:4;stroke-dasharray:none;fill-opacity:1"
       d="m 17.982665,52.32256 -0.823005,-0.781857 4.629404,-4.341352 0.80243,0.76128 z"
       id="path1360" />
    <path
       style="fill:#fffef7;stroke:#0c0c0c;stroke-width:0;stroke-linecap:butt;stroke-linejoin:miter;stroke-opacity:1;stroke-miterlimit:4;stroke-dasharray:none;fill-opacity:1"
       d="m 15.6371,49.935844 -0.699555,-0.781855 4.629405,-4.547105 0.617254,0.843582 z"
       id="path1362" />
    <path
       style="fill:#fffef7;stroke:#0c0c0c;stroke-width:0;stroke-linecap:butt;stroke-linejoin:miter;stroke-opacity:1;stroke-miterlimit:4;stroke-dasharray:none;fill-opacity:1"
       d="m 13.744188,47.528553 c 0,0 -0.658404,-0.781854 -0.576104,-0.823004 0.0823,-0.04115 2.078088,-1.892912 2.078088,-1.892912 l -2.695342,0.699553 -0.473228,-0.864155 6.460591,-1.913488 z"
       id="path1364" />
    <path
       style="fill:#fffef7;stroke:#0c0c0c;stroke-width:0;stroke-linecap:butt;stroke-linejoin:miter;stroke-opacity:1;stroke-miterlimit:4;stroke-dasharray:none;fill-opacity:1"
       d="m 11.522074,43.536978 c 0,0 -0.473228,-0.905306 -0.370353,-0.967031 0.102876,-0.06172 2.407291,-1.296233 2.32499,-1.296233 -0.0823,0 -2.798218,-0.04115 -2.798218,-0.04115 l -0.267477,-0.946457 c 0,0 7.263022,-0.102875 7.263022,-0.02058 0,0.0823 -6.151964,3.271446 -6.151964,3.271446 z"
       id="path1366" />
    <path
       style="fill:#fffef7;stroke:#0c0c0c;stroke-width:0;stroke-linecap:butt;stroke-linejoin:miter;stroke-opacity:1;stroke-miterlimit:4;stroke-dasharray:none;fill-opacity:1"
       d="m 9.9995139,38.598945 -0.1646012,-1.028755 7.1601463,0.0823 0.144025,0.987605 z"
       id="path1368" />
    <path
       style="fill:#fffef7;stroke:#0c0c0c;stroke-width:0;stroke-linecap:butt;stroke-linejoin:miter;stroke-opacity:1;stroke-miterlimit:4;stroke-dasharray:none;fill-opacity:1"
       d="m 9.6497366,36.08878 -0.082301,-1.111057 7.3247464,0.0823 v 1.090481 z"
       id="path1370" />
    <path
       style="fill:#fffef7;stroke:#0c0c0c;stroke-width:0;stroke-linecap:butt;stroke-linejoin:miter;stroke-opacity:1;stroke-miterlimit:4;stroke-dasharray:none;fill-opacity:1"
       d="m 9.5880112,32.652734 0.061725,-0.987607 7.5716488,0.20575 c 0,0 -0.102876,1.028758 -0.185176,1.028758 -0.0823,0 -7.4481982,-0.246901 -7.4481978,-0.246901 z"
       id="path1372" />
    <path
       style="fill:#fffef7;stroke:#0c0c0c;stroke-width:0;stroke-linecap:butt;stroke-linejoin:miter;stroke-opacity:1;stroke-miterlimit:4;stroke-dasharray:none;fill-opacity:1"
       d="m 9.7937626,30.533496 0.1440259,-1.008182 4.9586065,0.144026 -4.423653,-2.613043 0.329202,-0.946455 6.872094,3.84755 c 0,0 -0.06173,0.658402 -0.185176,0.699553 -0.123451,0.04115 -7.6950994,-0.123449 -7.6950994,-0.123449 z"
       id="path1374" />
    <path
       style="fill:#fffef7;stroke:#0c0c0c;stroke-width:0;stroke-linecap:butt;stroke-linejoin:miter;stroke-opacity:1;stroke-miterlimit:4;stroke-dasharray:none;fill-opacity:1"
       d="m 11.089996,25.410287 0.390927,-0.925881 4.176752,1.316809 -3.230296,-3.497773 0.576104,-0.987606 5.905063,6.172538 z"
       id="path1376" />
    <path
       style="fill:#fffef7;stroke:#0c0c0c;stroke-width:0;stroke-linecap:butt;stroke-linejoin:miter;stroke-opacity:1;stroke-miterlimit:4;stroke-dasharray:none;fill-opacity:1"
       d="m 20.36938,24.978209 -5.781612,-5.884487 -0.781855,0.987606 5.925638,5.719887 z"
       id="path1378" />
    <path
       style="fill:#fffef7;stroke:#0c0c0c;stroke-width:0;stroke-linecap:butt;stroke-linejoin:miter;stroke-opacity:1;stroke-miterlimit:4;stroke-dasharray:none;fill-opacity:1"
       d="m 15.451924,17.941514 0.823005,-0.88473 5.761037,5.925638 -0.843581,0.864155 z"
       id="path1380" />
    <path
       style="fill:#fffef7;stroke:#0c0c0c;stroke-width:0;stroke-linecap:butt;stroke-linejoin:miter;stroke-opacity:1;stroke-miterlimit:4;stroke-dasharray:none;fill-opacity:1"
       d="m 17.756338,15.616525 0.843581,-0.740705 6.110814,6.21369 -0.864156,0.617254 z"
       id="path1382" />
    <path
       style="fill:#fffef7;stroke:#0c0c0c;stroke-width:0;stroke-linecap:butt;stroke-linejoin:miter;stroke-opacity:1;stroke-miterlimit:4;stroke-dasharray:none;fill-opacity:1"
       d="m 19.793277,14.052815 0.987606,-0.72013 3.353746,3.250871 -1.111057,-4.588255 0.925881,-0.370352 2.489591,8.559255 -0.411503,0.164601 z"
       id="path1384" />
    <circle
       style="opacity:1;fill:none;fill-opacity:1;fill-rule:nonzero;stroke:#ffffff;stroke-width:1.11125;stroke-linecap:butt;stroke-linejoin:round;stroke-miterlimit:4;stroke-dasharray:none;stroke-dashoffset:65.67904663;stroke-opacity:1;paint-order:stroke fill markers"
       id="path903"
       cx="33.853237"
       cy="35.252956"
       r="16.737343" />
    <path
       style="fill:#ffffff;fill-opacity:1;stroke:none;stroke-width:0.05291667;stroke-linecap:butt;stroke-linejoin:miter;stroke-miterlimit:4;stroke-dasharray:none;stroke-opacity:1"
       d="m 25.777167,29.950059 h 0.388877 l -1.473067,2.455113 -0.136449,-0.42878 z"
       id="path1388" />
    <path
       style="fill:#ffffff;fill-opacity:1;stroke:none;stroke-width:0.079375;stroke-linecap:butt;stroke-linejoin:miter;stroke-miterlimit:4;stroke-dasharray:none;stroke-opacity:1"
       d="m 26.615077,29.950059 c 0.08365,-0.01455 0.649402,1e-6 0.649402,1e-6 l -2.198636,3.724495 -0.201918,-0.67652 z"
       id="path1390" />
    <path
       style="fill:#ffffff;fill-opacity:1;stroke:none;stroke-width:0;stroke-linecap:butt;stroke-linejoin:miter;stroke-miterlimit:4;stroke-dasharray:none;stroke-opacity:1"
       d="m 28.544775,29.950059 1.949541,-1e-6 c -0.08729,0 -3.637203,6.299639 -3.637203,6.299639 0,0 -0.914659,0.115962 -1.215343,-1.113348 z"
       id="path1394" />
    <path
       style="fill:#ffffff;fill-opacity:1;stroke:none;stroke-width:0.26458332px;stroke-linecap:butt;stroke-linejoin:miter;stroke-opacity:1"
       d="m 40.998559,29.950059 1.964091,-1e-6 -3.659543,6.27407 c 0,0 -1.38515,0.21096 -1.70897,-0.367248 10e-7,-0.116391 3.404422,-5.906821 3.404422,-5.906821 z"
       id="path1400" />
    <path
       style="fill:#ffffff;fill-opacity:1;stroke:none;stroke-width:0.05291667;stroke-linecap:butt;stroke-linejoin:miter;stroke-miterlimit:4;stroke-dasharray:none;stroke-opacity:1"
       d="m 37.955462,29.95006 h 0.388877 l -1.730256,2.835753 -0.0953,-0.459643 z"
       id="path1388-6" />
    <path
       style="fill:#ffffff;fill-opacity:1;stroke:none;stroke-width:0.079375;stroke-linecap:butt;stroke-linejoin:miter;stroke-miterlimit:4;stroke-dasharray:none;stroke-opacity:1"
       d="m 38.793372,29.95006 c 0.08365,-0.01455 0.649402,1e-6 0.649402,1e-6 l -2.486688,4.218298 -0.201918,-0.75882 z"
       id="path1390-7" />
  </g>
</svg>
