<svg xmlns="http://www.w3.org/2000/svg" xmlns:xlink="http://www.w3.org/1999/xlink" width="250" height="250" fill="none" xmlns:v="https://vecta.io/nano"><circle cx="125" cy="125" r="125" fill="#fff"/><defs><linearGradient id="A" x1="28.924" y1="-6.965" x2="3.758" y2="12.715" xlink:href="#I"><stop stop-color="red"/><stop offset="1" stop-color="#ffc700"/></linearGradient><linearGradient id="B" x1="18.97" y1="-2.727" x2="-4.668" y2="22.423" xlink:href="#I"><stop stop-color="red"/><stop offset="1" stop-color="#ffc700"/></linearGradient><linearGradient id="C" x1="16.571" y1="12.572" x2="-6.746" y2="34.917" xlink:href="#I"><stop stop-color="red"/><stop offset="1" stop-color="#ffc700"/></linearGradient><linearGradient id="D" x1="19.034" y1="20.553" x2="-8.448" y2="39.527" xlink:href="#I"><stop stop-color="red"/><stop offset="1" stop-color="#ffc700"/></linearGradient><linearGradient id="E" x1="34.314" y1="23.486" x2="9.068" y2="42.953" xlink:href="#I"><stop stop-color="red"/><stop offset="1" stop-color="#ffc700"/></linearGradient><linearGradient id="F" x1="47.691" y1="21.607" x2="24.614" y2="46.988" xlink:href="#I"><stop stop-color="red"/><stop offset="1" stop-color="#ffc700"/></linearGradient><linearGradient id="G" x1="47.592" y1="6.121" x2="24.432" y2="28.779" xlink:href="#I"><stop stop-color="red"/><stop offset="1" stop-color="#ffc700"/></linearGradient><linearGradient id="H" x1="42.494" y1="-8.445" x2="15.034" y2="9.883" xlink:href="#I"><stop stop-color="red"/><stop offset="1" stop-color="#ffc700"/></linearGradient><linearGradient id="I" gradientUnits="userSpaceOnUse"/></defs><g transform="matrix(4.347826 0 0 4.347826 25 25)"><path d="M13.9.4l4 3.8c1.5 1.4 2.3 3.3 2.3 5.4 0 2 .8 3.9 2.2 5.3l.5.5L27.5.5" fill="url(#A)"/><path d="M.3 13.7l5.5-.2c2-.1 4 .7 5.4 2.1s3.3 2.1 5.3 2.1h.7L9.8 4" fill="url(#B)"/><path d="M.3 32.7l3.7-4c1.4-1.5 3.3-2.4 5.3-2.4s3.8-.9 5.2-2.3l.5-.5-15-4.3" fill="url(#C)"/><path d="M13.9 45.9l-.3-5.5a7.52 7.52 0 0 1 2-5.5c1.3-1.4 2.1-3.4 2-5.3v-.7L4 36.6" fill="url(#D)"/><path d="M32.9 45.5l-4.1-3.6c-1.5-1.3-2.4-3.2-2.5-5.3-.1-2-1-3.8-2.4-5.2l-.5-.5-4 15.1" fill="url(#E)"/><path d="M45.9 31.6l-5.5.4c-2 .2-4-.5-5.5-1.9-1.5-1.3-3.4-2-5.4-1.9h-.7l8 13.4" fill="url(#F)"/><path d="M45 12.7l-3.5 4.2c-1.3 1.5-3.2 2.5-5.2 2.6s-3.8 1-5.1 2.5l-.4.5L46 26.1" fill="url(#G)"/><path d="M30.9 0l.5 5.5c.2 2-.4 4-1.8 5.6-1.3 1.5-1.9 3.4-1.8 5.4l.1.7 13.2-8.3" fill="url(#H)"/></g></svg>