<?xml version="1.0" encoding="UTF-8"?>
<svg id="Layer_1" xmlns="http://www.w3.org/2000/svg" version="1.1" viewBox="0 0 250 250">
  <!-- Generator: Adobe Illustrator 29.0.1, SVG Export Plug-In . SVG Version: 2.1.0 Build 192)  -->
  <defs>
    <style>
      .st0 {
        fill: #72f395;
      }

      .st1 {
        fill: #231f20;
      }
    </style>
  </defs>
  <circle class="st1" cx="125" cy="125" r="122.5"/>
  <path class="st0" d="M96,87.8c-.1.1-.2.3-.2.5v49.3c0,.3-.1.5-.3.7l-25.9,25.9c-.2.2-.4.3-.6.3h-33.4c-.2,0-.3-.2-.3-.3h0v-33.3c0-.3.1-.5.3-.7l11.7-11.7c.3-.3.5-.7.5-1.1v-48.8c0-.3.1-.6.4-.9l26.7-26.7c.2-.2.5-.3.8-.3h33.1c.3,0,.4.1.4.4v33.3c0,.3-.1.5-.3.7l-12.7,12.7Z"/>
  <path class="st0" d="M149,124.9c0,14.2,0,25.7,0,34.5,0,.4-.2.7-.4,1l-44.9,44.9c-.2.2-.5.3-.8.3h-33.2c-.2,0-.3-.1-.3-.3v-33.2c0-.3.1-.6.3-.8l30.9-30.9c.2-.2.3-.4.3-.7,0-4.8,0-9.7,0-14.7,0-14.2,0-25.7,0-34.5,0-.4.2-.7.4-1l44.9-44.9c.2-.2.5-.3.8-.3h33.2c.2,0,.3.1.3.3v33.2c0,.3-.1.6-.3.8l-30.9,30.9c-.2.2-.3.4-.3.7,0,4.8,0,9.7,0,14.7Z"/>
  <path class="st0" d="M154.2,111.9l26.2-26.2c0,0,.2-.1.3-.1h33.5c.2,0,.4.2.4.4v33.4c0,.1,0,.2-.1.3l-12.2,12.2c0,0-.1.2-.1.3v49.6c0,.1,0,.2-.1.3l-27.1,27.1c0,0-.2.1-.3.1h-33.4c-.2,0-.4-.2-.4-.4v-33.5c0-.1,0-.2.1-.3l13-13c0,0,.1-.2.1-.3v-49.7c0-.1,0-.2.1-.3Z"/>
</svg>