<?xml version="1.0" encoding="utf-8"?>
<!-- Generator: Adobe Illustrator 22.0.0, SVG Export Plug-In . SVG Version: 6.00 Build 0)  -->
<svg version="1.1" id="SUQA" xmlns="http://www.w3.org/2000/svg" xmlns:xlink="http://www.w3.org/1999/xlink" x="0px" y="0px"
	 viewBox="0 0 245 245" style="enable-background:new 0 0 245 245;" xml:space="preserve">
<style type="text/css">
	.st0{fill:#E76B38;}
	.st1{fill:#FFFFFF;}
</style>
<path id="Full" class="st0" d="M0,122.5C0,190,55,245,122.5,245S245,190,245,122.5S190,0,122.5,0S0,55,0,122.5z"/>
<path id="Left" class="st1" d="M118.9,204v-61c0,0-41-20.5-41-41c0-21.5,41-61,41-61S37,94.9,37,126C37,157,118.9,204,118.9,204z"/>
<path id="Right" class="st1" d="M126,41v61c0,0,41,20.5,41,41c0,21.5-41,61-41,61s82-53.9,82-85C208,88,126,41,126,41z"/>
</svg>
