<svg id="SUQA" xmlns="http://www.w3.org/2000/svg" width="256" height="256" viewBox="0 0 512 512">
<defs>
    <style>
      .cls-1 {
        fill: #e76b38;
      }

      .cls-1, .cls-2 {
        fill-rule: evenodd;
      }

      .cls-2 {
        fill: #fff;
      }
    </style>
  </defs>
  <path id="Full" class="cls-1" d="M11,256c0,135.094,109.906,245,245,245S501,391.094,501,256,391.094,11,256,11,11,120.906,11,256Z"/>
  <path id="Left" class="cls-2" d="M248.88,419V296.96S166.96,256,166.96,215c0-42.938,81.92-122,81.92-122S85.04,200.727,85.04,263C85.04,324.906,248.88,419,248.88,419Z"/>
  <path id="Right" class="cls-2" d="M263,93V215.04s82,40.96,82,81.96c0,42.938-82,122-82,122s164-107.727,164-170C426.991,187.094,263,93,263,93Z"/>
</svg>
