<?xml version="1.0" encoding="UTF-8" standalone="no"?>
<svg
   xmlns:dc="http://purl.org/dc/elements/1.1/"
   xmlns:cc="http://creativecommons.org/ns#"
   xmlns:rdf="http://www.w3.org/1999/02/22-rdf-syntax-ns#"
   xmlns:svg="http://www.w3.org/2000/svg"
   xmlns="http://www.w3.org/2000/svg"
   id="svg8"
   version="1.1"
   viewBox="0 0 67.733332 67.733335"
   height="256"
   width="256">
  <defs
     id="defs2" />
  <metadata
     id="metadata5">
    <rdf:RDF>
      <cc:Work
         rdf:about="">
        <dc:format>image/svg+xml</dc:format>
        <dc:type
           rdf:resource="http://purl.org/dc/dcmitype/StillImage" />
        <dc:title></dc:title>
      </cc:Work>
    </rdf:RDF>
  </metadata>
  <g
     transform="translate(0,-229.26665)"
     id="layer1">
    <g
       transform="matrix(0.07629733,0,0,0.07629733,-1600.2931,-1011.7432)"
       id="Logos"
       style="clip-rule:evenodd;fill-rule:evenodd;stroke-linecap:round;stroke-linejoin:round">
        </g>
    <g
       id="g989">
      <circle
         style="opacity:1;fill:#f14f9b;fill-opacity:1;fill-rule:nonzero;stroke:none;stroke-width:3.70443511;stroke-linecap:round;stroke-linejoin:round;stroke-miterlimit:4;stroke-dasharray:none;stroke-dashoffset:0;stroke-opacity:1;paint-order:stroke fill markers"
         id="path815"
         cx="33.866665"
         cy="263.13333"
         r="32.411457" />
      <g
         id="g963"
         transform="matrix(1.1562935,0,0,1.1562935,-5.8217335,-40.136159)">
        <rect
           id="rect869"
           style="clip-rule:evenodd;fill:none;fill-rule:evenodd;stroke-width:0.02712795;stroke-linecap:round;stroke-linejoin:round"
           height="39.064228"
           width="39.064281"
           y="242.74513"
           x="14.791671" />
        <path
           id="path879"
           style="clip-rule:evenodd;fill:#ffffff;fill-opacity:1;fill-rule:evenodd;stroke-width:0.16953748;stroke-linecap:round;stroke-linejoin:round"
           d="m 24.156572,247.60139 c 1.017224,-1.42412 2.983858,-2.05141 5.526919,-1.84796 3.509424,0.28821 8.154748,2.17008 12.630536,5.35739 4.458833,3.20426 7.730904,7.01885 9.121111,10.24007 1.017224,2.33962 1.051132,4.40798 0.03391,5.83209 0,0 -6.984941,9.76537 -6.984941,9.76537 -1.017224,1.42411 -3.000812,2.0514 -5.526919,1.84796 -3.509424,-0.30517 -8.171702,-2.17009 -12.630535,-5.37435 -4.475787,-3.1873 -7.730905,-7.0019 -9.138066,-10.22311 -1.017224,-2.33962 -1.051132,-4.40798 -0.03391,-5.8321 z m 26.34611,18.88649 v -0.017 c 0.81378,-1.11894 0.644243,-2.78041 -0.152583,-4.64533 -1.339346,-3.06863 -4.475787,-6.67978 -8.74813,-9.73145 -4.255388,-3.05168 -8.680314,-4.86573 -12.0202,-5.13699 -2.034449,-0.16954 -3.645054,0.20344 -4.458834,1.33934 l -0.03391,0.0678 c -0.762919,1.1359 -0.593381,2.74651 0.203445,4.57751 1.339345,3.08559 4.475787,6.69674 8.731175,9.74841 4.255389,3.05168 8.680315,4.86573 12.020201,5.13699 2.000541,0.15259 3.577239,-0.20344 4.407972,-1.27153 l 0.05086,-0.0848 z m -10.8843,-11.63028 c 2.136171,1.52584 3.712869,3.33989 4.374065,4.88268 0.389936,0.86464 0.491658,1.62756 0.101722,2.15313 -0.372982,0.52556 -1.1359,0.67815 -2.068356,0.59338 -1.67842,-0.13563 -3.882406,-1.05113 -6.018577,-2.57697 -2.136172,-1.52584 -3.712869,-3.32294 -4.374065,-4.86573 -0.372982,-0.86464 -0.474705,-1.62756 -0.101723,-2.15313 0.372983,-0.52556 1.135901,-0.67815 2.08531,-0.61033 1.661467,0.15258 3.882407,1.05113 6.001624,2.57697 z" />
        <path
           id="path883"
           style="clip-rule:evenodd;fill:none;fill-rule:evenodd;stroke:#f14f9b;stroke-width:0.50861245px;stroke-linecap:round;stroke-linejoin:round;stroke-dasharray:1.01722494, 1.01722494, 12.71531175, 12.71531175;stroke-dashoffset:3;stroke-opacity:1"
           d="m 23.455492,251.09488 c 0.186491,4.45884 4.577509,8.71423 7.951303,11.59637 4.696186,4.00109 12.257554,7.0019 16.479035,6.32375" />
      </g>
    </g>
  </g>
</svg>
