<?xml version="1.0" encoding="UTF-8" standalone="no"?>
<svg
   xmlns:dc="http://purl.org/dc/elements/1.1/"
   xmlns:cc="http://creativecommons.org/ns#"
   xmlns:rdf="http://www.w3.org/1999/02/22-rdf-syntax-ns#"
   xmlns:svg="http://www.w3.org/2000/svg"
   xmlns="http://www.w3.org/2000/svg"
   xmlns:sodipodi="http://sodipodi.sourceforge.net/DTD/sodipodi-0.dtd"
   xmlns:inkscape="http://www.inkscape.org/namespaces/inkscape"
   width="235.99988"
   height="235.99988"
   version="1.1"
   id="svg17"
   sodipodi:docname="SXP_BEP20.svg"
   inkscape:version="1.0.2-2 (e86c870879, 2021-01-15)">
  <metadata
     id="metadata12">
    <rdf:RDF>
      <cc:Work
         rdf:about="">
        <dc:format>image/svg+xml</dc:format>
        <dc:type
           rdf:resource="http://purl.org/dc/dcmitype/StillImage" />
      </cc:Work>
    </rdf:RDF>
  </metadata>
  <sodipodi:namedview
     id="namedview19"
     pagecolor="#ffffff"
     bordercolor="#666666"
     borderopacity="1.0"
     inkscape:pageshadow="2"
     inkscape:pageopacity="0.0"
     inkscape:pagecheckerboard="0"
     showgrid="false"
     inkscape:zoom="3.4101562"
     inkscape:cx="118"
     inkscape:cy="118"
     inkscape:window-width="1920"
     inkscape:window-height="1017"
     inkscape:window-x="-8"
     inkscape:window-y="-8"
     inkscape:window-maximized="1"
     inkscape:current-layer="svg17"
     inkscape:document-rotation="0" />
  <defs
     id="defs7">
    <linearGradient
       id="A"
       x1="40.415001"
       y1="-60.562"
       x2="516.44"
       y2="635.16498"
       gradientUnits="userSpaceOnUse">
      <stop
         offset="0"
         stop-color="#ff3b3b"
         id="stop2" />
      <stop
         offset="1"
         stop-color="#ff9914"
         id="stop4" />
    </linearGradient>
  </defs>
  <g
     transform="scale(0.397842)"
     id="g13">
    <circle
       cx="296.60001"
       cy="296.60001"
       r="296.60001"
       fill="url(#A)"
       id="circle9"
       style="fill:url(#A)" />
    <path
       d="m 285.86,107 a 75.41,75.41 0 0 0 -45.34,22.25 l -26.91,27.33 -13.93,14 -14.64,14.53 -13.34,13.75 -21,21.07 -15.93,16.82 c -3.13,3.31 -6.5,6.38 -9.45,9.86 a 83.1,83.1 0 0 0 -18.83,52.67 c 0,1.13 0,2.29 0.07,3.41 a 68.86,68.86 0 0 0 8.44,31.51 119.77,119.77 0 0 0 10.44,16.71 c 2.6,3.66 4.49,3.6 7.91,0.77 a 17,17 0 0 0 1.83,-1.77 l 10.1,-10.63 14.64,-15.29 15.17,-16.11 c 2.42,-2.6 5,-5 7.44,-7.56 l 15.46,-16.58 15.53,-15.82 17.05,-17.71 15.88,-16.29 20.48,-21.61 12.87,-12.87 c 5.9,-5.9 11.39,-11.8 17.18,-17.7 L 312.03,166.8 Q 328.66,150 345.24,133 a 23.64,23.64 0 0 0 2,-2.24 c 2.72,-3.43 2.95,-4.19 -0.41,-6.61 a 105.84,105.84 0 0 0 -16.41,-10.63 77.1,77.1 0 0 0 -32.67,-7.26 h -0.56 a 90.26,90.26 0 0 0 -11.28,0.71 l -0.06,-0.06 z m 97.69,72.66 h -0.71 a 33.33,33.33 0 0 0 -25.44,11.81 24.63,24.63 0 0 1 -1.77,1.77 l -18.06,17.71 -18.48,18.54 -15.34,15.29 -16,16.23 -17,16.53 -20.13,20.3 -37.42,37.43 q -24.8,24.9 -49.53,49.7 c -3.18,3.13 -3.24,3.54 0,6.9 l 23.61,24 a 31.64,31.64 0 0 0 17.83,9.5 42.26,42.26 0 0 0 19.42,-0.65 29.56,29.56 0 0 0 12.75,-6.79 l 19.6,-18.93 13.81,-13.28 27.15,-27 L 320.27,337 351,307.05 379.86,278.83 a 6.32,6.32 0 0 1 11.14,1.25 43.17,43.17 0 0 1 7.55,24.4 44.26,44.26 0 0 1 -0.23,4.46 40.72,40.72 0 0 1 -10.32,23.61 c -7.09,7.62 -14.64,14.82 -22,22.14 l -15.88,15.52 -20.25,20.31 c -1,1.12 -1.94,2.3 -3,3.36 l -6.67,6.91 -15,14.87 -15.8,16.34 c -0.47,0.53 -1,0.88 -1.47,1.35 -5.91,5.49 -11.34,11 -16.95,16.53 l -7.79,7.85 -13.4,13.64 c -2.65,2.77 -2.65,4.48 0.48,6.67 a 112.39,112.39 0 0 0 16.35,10.44 82.41,82.41 0 0 0 45.62,6.49 74.59,74.59 0 0 0 41.33,-18.83 c 8.73,-7.67 16.53,-16.29 24.67,-24.55 l 18.12,-18.3 17.06,-17.18 15.59,-15.7 17.7,-17.24 17.71,-18.06 a 136.64,136.64 0 0 0 13,-15.35 83.71,83.71 0 0 0 13.41,-37.12 82.31,82.31 0 0 0 0,-19.84 82.94,82.94 0 0 0 -12.46,-32.88 95.35,95.35 0 0 0 -16.52,-19 l -48.64,-49.17 a 37.19,37.19 0 0 0 -27.65,-12.34 h -0.22 l -1.77,0.24 z"
       fill="#ffffff"
       fill-rule="evenodd"
       id="path11" />
  </g>
</svg>
