<svg xmlns="http://www.w3.org/2000/svg" width="256" height="256" xmlns:v="https://vecta.io/nano"><defs><linearGradient id="A" x1="40.415" y1="-60.562" x2="516.44" y2="635.165" gradientUnits="userSpaceOnUse"><stop offset="0" stop-color="#ff3b3b"/><stop offset="1" stop-color="#ff9914"/></linearGradient></defs><g transform="matrix(.397842 0 0 .397842 10 10)"><circle cx="296.6" cy="296.6" r="296.6" fill="url(#A)"/><path d="M285.86 107a75.41 75.41 0 0 0-45.34 22.25l-26.91 27.33-13.93 14-14.64 14.53-13.34 13.75-21 21.07-15.93 16.82c-3.13 3.31-6.5 6.38-9.45 9.86a83.1 83.1 0 0 0-18.83 52.67c0 1.13 0 2.29.07 3.41A68.86 68.86 0 0 0 115 334.2a119.77 119.77 0 0 0 10.44 16.71c2.6 3.66 4.49 3.6 7.91.77a17 17 0 0 0 1.83-1.77l10.1-10.63 14.64-15.29 15.17-16.11c2.42-2.6 5-5 7.44-7.56l15.46-16.58 15.53-15.82 17.05-17.71 15.88-16.29 20.48-21.61 12.87-12.87c5.9-5.9 11.39-11.8 17.18-17.7l15.05-14.94q16.63-16.8 33.21-33.8a23.64 23.64 0 0 0 2-2.24c2.72-3.43 2.95-4.19-.41-6.61a105.84 105.84 0 0 0-16.41-10.63 77.1 77.1 0 0 0-32.67-7.26h-.56a90.26 90.26 0 0 0-11.28.71l-.06-.06zm97.69 72.66h-.71a33.33 33.33 0 0 0-25.44 11.81 24.63 24.63 0 0 1-1.77 1.77l-18.06 17.71-18.48 18.54-15.34 15.29-16 16.23-17 16.53-20.13 20.3-37.42 37.43q-24.8 24.9-49.53 49.7c-3.18 3.13-3.24 3.54 0 6.9l23.61 24a31.64 31.64 0 0 0 17.83 9.5 42.26 42.26 0 0 0 19.42-.65 29.56 29.56 0 0 0 12.75-6.79l19.6-18.93 13.81-13.28 27.15-27L320.27 337 351 307.05l28.86-28.22a6.32 6.32 0 0 1 11.14 1.25 43.17 43.17 0 0 1 7.55 24.4 44.26 44.26 0 0 1-.23 4.46A40.72 40.72 0 0 1 388 332.55c-7.09 7.62-14.64 14.82-22 22.14l-15.88 15.52-20.25 20.31c-1 1.12-1.94 2.3-3 3.36l-6.67 6.91-15 14.87L289.4 432c-.47.53-1 .88-1.47 1.35-5.91 5.49-11.34 11-16.95 16.53l-7.79 7.85-13.4 13.64c-2.65 2.77-2.65 4.48.48 6.67a112.39 112.39 0 0 0 16.35 10.44 82.41 82.41 0 0 0 45.62 6.49 74.59 74.59 0 0 0 41.33-18.83c8.73-7.67 16.53-16.29 24.67-24.55l18.12-18.3 17.06-17.18 15.59-15.7 17.7-17.24 17.71-18.06a136.64 136.64 0 0 0 13-15.35 83.71 83.71 0 0 0 13.41-37.12 82.31 82.31 0 0 0 0-19.84 82.94 82.94 0 0 0-12.46-32.88 95.35 95.35 0 0 0-16.52-19l-48.64-49.17a37.19 37.19 0 0 0-27.65-12.34h-.22l-1.77.24z" fill="#fff" fill-rule="evenodd"/></g><path d="M128 11.485C63.753 11.485 11.485 63.753 11.485 128S63.753 244.515 128 244.515 244.515 192.247 244.515 128 192.247 11.485 128 11.485M128 0c70.527 0 128 57.468 128 128s-57.468 128-128 128S0 198.53 0 128 57.473 0 128 0z" fill="#474747"/></svg>