<?xml version="1.0" encoding="UTF-8"?>
<svg xmlns="http://www.w3.org/2000/svg" version="1.1" viewBox="0 0 250 250">
  <defs>
    <style>
      .cls-1 {
        fill: #fff;
      }
    </style>
  </defs>
  <!-- Generator: Adobe Illustrator 28.7.1, SVG Export Plug-In . SVG Version: 1.2.0 Build 142)  -->
  <g>
    <g id="Layer_1">
      <path class="cls-1" d="M125,247.5c67.7,0,122.5-54.8,122.5-122.5S192.7,2.5,125,2.5,2.5,57.3,2.5,125s54.8,122.5,122.5,122.5Z"/>
      <path d="M175.5,77.6c-.2.7-.5,1.5-.7,2.2-.7,2.9-2.1,5.4-4.3,7.5-2.4,2.3-5.2,3.9-8.6,4.7-1.8.5-3.7.7-5.6.7-8.8,0-17.6.1-26.5.2-2.7,0-5.5,0-8.4,0,2,1.1,3.8,1.9,5.5,3,4,2.5,6.6,5.8,7.8,10.1.5,1.8.9,3.5,1,5.3,0,1.6.2,3.3.2,4.9,0,10.9,0,21.8,0,32.7,0,2.2,0,4.4,0,6.5,0,1.4,0,2.8,0,4.1.3,2.8,1,5.6,3.4,7.6,1.7,1.4,3.7,2.1,5.9,2.7.9.2,1.8.5,2.8.7-1,.5-1.9,1.2-3,1.6-1.6.6-3.3,1.2-5,1.6-1.1.3-2.3.3-3.5.5-.2,0-.5,0-.7.1h-.7c-.1,0-.2-.1-.3-.1-2.8,0-5.4-.6-8-1.5-2.7-1-5.2-2.3-7.2-4.3-2-2-3.3-4.2-3.9-6.8-.3-1.4-.5-2.8-.5-4.2,0-21.2,0-42.5,0-63.7v-.9h-40.7c-.2-1.7,0-3.3.5-4.9,1.6-4.8,4.8-8.5,9.6-10.8,1.5-.7,3.2-1.1,5-1.2,2.2-.2,4.4-.3,6.6-.4,1.8,0,3.6-.2,5.3-.2,24.6,0,49.2,0,73.8,0v2.1Z"/>
    </g>
  </g>
</svg>