<svg xmlns="http://www.w3.org/2000/svg" width="238.501" height="236.921" viewBox="0 0 238.501 236.921">
  <g id="Group_10126" data-name="Group 10126" transform="translate(-2905.623 -5184.078)">
    <path id="Path_81" data-name="Path 81" d="M119.25,0C185.111,0,238.5,53.037,238.5,118.461s-53.39,118.461-119.25,118.461S0,183.885,0,118.461,53.39,0,119.25,0Z" transform="translate(2905.623 5184.078)" fill="#14c8ff"/>
    <path id="Subtraction_111" data-name="Subtraction 111" d="M147.652,190.759h-30.04a24.66,24.66,0,0,1-10.556-2.274,23.545,23.545,0,0,1-8.207-6.418,30.409,30.409,0,0,1-6.191-13.677A48.037,48.037,0,0,1,92.907,150c1.816-9.2,7.3-34.5,7.353-34.756H84l3.372-17.672a75.488,75.488,0,0,0,36.091-29.814h12.006l-5.252,27.018,37.193-.063-3.97,20.49-37.152-.053-6.911,35.68c-1.339,6.809-2.106,11.846.218,14.675,1.462,1.78,4.063,2.609,8.186,2.609H152.9l-5.252,22.643Z" transform="translate(2899.168 5173.28)" fill="#fff"/>
  </g>
</svg>
