<svg xmlns="http://www.w3.org/2000/svg" width="245" height="245" viewBox="0 0 245 245">
  <g id="Flux_test" transform="translate(-1480 5687)">
    <g id="g5158" transform="translate(1474.477 -5692.58)">
      <g id="g2438" transform="translate(0 -1746)">
        <circle id="ellipse1808" cx="122.5" cy="122.5" r="122.5" transform="translate(5.523 1751.58)" fill="#2b61d1"/>
        <path id="Full-4-8" d="M19.374,1874.34A108.924,108.924,0,1,0,128.3,1765.416,109.047,109.047,0,0,0,19.374,1874.34Z" fill="none" stroke="#fff" stroke-width="5.159" fill-rule="evenodd"/>
        <g id="g2883" transform="translate(0.029 -2.866)">
          <path id="path2518" d="M90.958,1836.86H78.649v33.866h-7.01V1836.86H59.466v-5.676H90.958Z" fill="#fff"/>
          <path id="path2520" d="M122.069,1865.08v5.649H96.12v-39.542h25.786v5.676H103.158v10.727h16.167v5.54H103.158v11.949Z" fill="#fff"/>
          <path id="path2522" d="M139.948,1853.73a27.981,27.981,0,0,1-9.646-4.753,9.118,9.118,0,0,1-3.4-7.36,9.594,9.594,0,0,1,1.766-5.676,11.682,11.682,0,0,1,5-3.884,18.038,18.038,0,0,1,7.336-1.412,16.58,16.58,0,0,1,7.554,1.629,11.953,11.953,0,0,1,5,4.372,11.129,11.129,0,0,1,1.739,6.083h-7.01a6.182,6.182,0,0,0-1.875-4.725,7.662,7.662,0,0,0-5.489-1.765,7.965,7.965,0,0,0-5.217,1.494,4.768,4.768,0,0,0-1.766,3.857,4.326,4.326,0,0,0,2.011,3.585,21.05,21.05,0,0,0,6.331,2.716,32.128,32.128,0,0,1,7.363,3.042,12.061,12.061,0,0,1,4.293,4.047,10.339,10.339,0,0,1,1.413,5.459,9.672,9.672,0,0,1-1.739,5.757,11.106,11.106,0,0,1-4.945,3.775,19.536,19.536,0,0,1-7.445,1.3,20.433,20.433,0,0,1-7.554-1.412,13.706,13.706,0,0,1-5.788-4.291,10.91,10.91,0,0,1-2.2-6.871h7.037a6.2,6.2,0,0,0,2.31,5.3,10.251,10.251,0,0,0,6.2,1.711,8.412,8.412,0,0,0,5.244-1.412,4.562,4.562,0,0,0,1.82-3.8,5.034,5.034,0,0,0-.679-2.716,6.2,6.2,0,0,0-2.473-2.064,29.417,29.417,0,0,0-5.19-1.983Z" fill="#fff"/>
          <path id="path2524" d="M190.079,1836.86H177.77v33.866h-7.01V1836.86H158.587v-5.676h31.492Z" fill="#fff"/>
        </g>
      </g>
    </g>
    <g id="Flux_white_symbol" transform="translate(1517.112 -5554.609)">
      <g id="Group_194" data-name="Group 194" transform="translate(0 0)">
        <g id="Group_180" data-name="Group 180" transform="translate(0 0)">
          <path id="Path_73" data-name="Path 73" d="M97.29,171.8l-4.212,2.433-9.048-5.223,4.109-2.373.1-.06.157.091Z" transform="translate(-72.7 -127.175)" fill="#fff"/>
          <path id="Path_74" data-name="Path 74" d="M87.258,47.825v4.9l-8.906-5.142-2.415-1.395-2.415,1.395L62.2,54.117l-2.415,1.395V58.4L55.427,55.88l-2.415-1.395L50.6,55.88l-4.1,2.364V47.825L66.879,36.06Z" transform="translate(-46.5 -36.06)" fill="#fff"/>
          <path id="Path_75" data-name="Path 75" d="M129.143,94.609v13.073l-11.322,6.536-.015-.009L106.5,107.682V94.609l11.322-6.539Z" transform="translate(-88.385 -72.368)" fill="#fff"/>
          <path id="Path_76" data-name="Path 76" d="M59.524,119.329v7.518l-6.512,3.762L46.5,126.846v-7.518l6.512-3.759Z" transform="translate(-46.5 -91.565)" fill="#fff"/>
        </g>
      </g>
    </g>
    <text id="FLUX" transform="translate(1565 -5514)" fill="#fff" font-size="46" font-family="Helvetica-Bold, Helvetica" font-weight="700"><tspan x="0" y="0">FLUX</tspan></text>
  </g>
</svg>
