<?xml version="1.0" encoding="UTF-8" standalone="no"?>
<svg
   id="Cube"
   width="256"
   height="256"
   viewBox="0 0 256 256"
   version="1.1"
   xmlns="http://www.w3.org/2000/svg"
   xmlns:svg="http://www.w3.org/2000/svg"
   xmlns:rdf="http://www.w3.org/1999/02/22-rdf-syntax-ns#"
   xmlns:cc="http://creativecommons.org/ns#"
   xmlns:dc="http://purl.org/dc/elements/1.1/">
  <metadata
     id="metadata1819">
    <rdf:RDF>
      <cc:Work
         rdf:about="">
        <dc:format>image/svg+xml</dc:format>
        <dc:type
           rdf:resource="http://purl.org/dc/dcmitype/StillImage" />
      </cc:Work>
    </rdf:RDF>
  </metadata>
  <defs
     id="defs1806">
    <style
       id="style1804">
      .cls-1 {
        fill: #183c87;
      }

      .cls-2 {
        fill: #fff;
        fill-rule: evenodd;
      }
    </style>
  </defs>
  <g
     id="g5087">
    <circle
       id="ellipse1808"
       cy="127.77759"
       cx="128.02293"
       class="cls-1"
       style="fill:#b0b0b0;fill-opacity:1;stroke-width:0.12240822"
       r="122.5" />
    <path
       style="fill:none;fill-opacity:1;fill-rule:evenodd;stroke:#ffffff;stroke-width:5.15905523;stroke-miterlimit:4;stroke-dasharray:none;stroke-opacity:1"
       id="Full-4-8"
       class="cls-1"
       d="m 19.374119,128.3378 c 0,60.0614 48.863059,108.9244 108.924441,108.9244 60.06138,0 108.92443,-48.863 108.92443,-108.9244 0,-60.0614 -48.86305,-108.9245 -108.92443,-108.9245 -60.061382,0 -108.924441,48.8631 -108.924441,108.9245 z" />
    <path
       id="path2518"
       style="font-style:normal;font-variant:normal;font-weight:500;font-stretch:normal;font-size:331.23999023px;line-height:1.25;font-family:Heebo;-inkscape-font-specification:'Heebo, Medium';font-variant-ligatures:normal;font-variant-caps:normal;font-variant-numeric:normal;font-feature-settings:normal;text-align:center;letter-spacing:0px;word-spacing:0px;writing-mode:lr-tb;text-anchor:middle;fill:#ffffff;fill-opacity:1;stroke:none;stroke-width:0.16795458"
       d="M 90.986658,87.9991 H 78.677996 v 33.866 h -7.010244 v -33.866 h -12.17281 v -5.6759 h 19.183054 12.308662 z" />
    <path
       id="path2520"
       style="font-style:normal;font-variant:normal;font-weight:500;font-stretch:normal;font-size:331.23999023px;line-height:1.25;font-family:Heebo;-inkscape-font-specification:'Heebo, Medium';font-variant-ligatures:normal;font-variant-caps:normal;font-variant-numeric:normal;font-feature-settings:normal;text-align:center;letter-spacing:0px;word-spacing:0px;writing-mode:lr-tb;text-anchor:middle;fill:#ffffff;fill-opacity:1;stroke:none;stroke-width:0.16795458"
       d="m 122.09802,116.2163 v 5.6488 H 101.31184 96.149258 V 82.3232 h 7.037392 18.74832 v 5.6759 h -18.74832 v 10.7274 h 16.16704 v 5.5403 h -16.16704 v 11.9495 z" />
    <path
       id="path2522"
       style="font-style:normal;font-variant:normal;font-weight:500;font-stretch:normal;font-size:331.23999023px;line-height:1.25;font-family:Heebo;-inkscape-font-specification:'Heebo, Medium';font-variant-ligatures:normal;font-variant-caps:normal;font-variant-numeric:normal;font-feature-settings:normal;text-align:center;letter-spacing:0px;word-spacing:0px;writing-mode:lr-tb;text-anchor:middle;fill:#ffffff;fill-opacity:1;stroke:none;stroke-width:0.16795458"
       d="m 139.97683,104.8643 q -6.24944,-1.9283 -9.64587,-4.7527 -3.39643,-2.8244 -3.39643,-7.3598 0,-3.1774 1.76615,-5.6761 1.79331,-2.4984 4.99954,-3.8835 3.20624,-1.4121 7.3363,-1.4121 4.32026,0 7.55368,1.6294 3.26057,1.6023 4.99953,4.3724 1.73899,2.7429 1.73899,6.0833 h -7.01025 q 0,-2.9601 -1.87483,-4.7254 -1.84767,-1.7653 -5.48863,-1.7653 -3.4236,0 -5.21691,1.4936 -1.76615,1.4666 -1.76615,3.8566 0,2.1182 2.01068,3.5848 2.01069,1.4665 6.33094,2.7157 4.51048,1.3308 7.36347,3.0418 2.88019,1.7109 4.29311,4.0465 1.41291,2.3356 1.41291,5.4587 0,3.3133 -1.73898,5.7574 -1.73898,2.4443 -4.94522,3.775 -3.17906,1.3036 -7.44497,1.3036 -3.96704,0 -7.55367,-1.4121 -3.55946,-1.4396 -5.78753,-4.2911 -2.20088,-2.8514 -2.20088,-6.8709 h 7.03743 q 0,3.5577 2.30956,5.2958 2.33675,1.711 6.19509,1.711 3.42361,0 5.2441,-1.4122 1.82048,-1.4123 1.82048,-3.8022 0,-1.6295 -0.67929,-2.7158 -0.67928,-1.1135 -2.47259,-2.0639 -1.76615,-0.9505 -5.18976,-1.9825 z" />
    <path
       id="path2524"
       style="font-style:normal;font-variant:normal;font-weight:500;font-stretch:normal;font-size:331.23999023px;line-height:1.25;font-family:Heebo;-inkscape-font-specification:'Heebo, Medium';font-variant-ligatures:normal;font-variant-caps:normal;font-variant-numeric:normal;font-feature-settings:normal;text-align:center;letter-spacing:0px;word-spacing:0px;writing-mode:lr-tb;text-anchor:middle;fill:#ffffff;fill-opacity:1;stroke:none;stroke-width:0.16795458"
       d="m 190.10821,87.9991 h -12.3087 v 33.866 h -7.01022 v -33.866 h -12.17283 v -5.6759 h 19.18305 12.3087 z" />
    <g
       aria-label="ETH"
       transform="matrix(0.16788557,0,0,0.16788557,51.600445,60.2742)"
       style="font-style:normal;font-variant:normal;font-weight:normal;font-stretch:normal;font-size:331.23999023px;line-height:1.25;font-family:HelveticaNeue;-inkscape-font-specification:'HelveticaNeue, Normal';font-variant-ligatures:normal;font-variant-caps:normal;font-variant-numeric:normal;font-feature-settings:normal;text-align:center;letter-spacing:0px;word-spacing:0px;writing-mode:lr-tb;text-anchor:middle;fill:#ffffff;fill-opacity:1;stroke:none"
       id="flowRoot2923">
      <path
         d="m 411.13534,664.9932 v 33.64156 H 287.40555 256.67528 V 463.14383 h 41.89022 111.59941 v 33.8033 H 298.5655 v 63.88662 h 96.23427 v 32.9946 H 298.5655 v 71.16485 z"
         style="font-style:normal;font-variant:normal;font-weight:500;font-stretch:normal;font-size:331.23999023px;font-family:Heebo;-inkscape-font-specification:'Heebo, Medium';font-variant-ligatures:normal;font-variant-caps:normal;font-variant-numeric:normal;font-feature-settings:normal;text-align:center;writing-mode:lr-tb;text-anchor:middle;fill:#ffffff;fill-opacity:1"
         id="path3741" />
      <path
         d="M 618.64554,496.94713 H 545.37811 V 698.63476 H 503.64963 V 496.94713 h -72.45875 v -33.8033 h 114.18723 73.26743 z"
         style="font-style:normal;font-variant:normal;font-weight:500;font-stretch:normal;font-size:331.23999023px;font-family:Heebo;-inkscape-font-specification:'Heebo, Medium';font-variant-ligatures:normal;font-variant-caps:normal;font-variant-numeric:normal;font-feature-settings:normal;text-align:center;writing-mode:lr-tb;text-anchor:middle;fill:#ffffff;fill-opacity:1"
         id="path3743" />
      <path
         d="M 836.99221,463.14383 V 698.63476 H 795.26374 V 594.31357 H 691.26603 V 698.63476 H 649.37581 V 463.14383 h 41.89022 v 97.68992 h 103.99771 v -97.68992 z"
         style="font-style:normal;font-variant:normal;font-weight:500;font-stretch:normal;font-size:331.23999023px;font-family:Heebo;-inkscape-font-specification:'Heebo, Medium';font-variant-ligatures:normal;font-variant-caps:normal;font-variant-numeric:normal;font-feature-settings:normal;text-align:center;writing-mode:lr-tb;text-anchor:middle;fill:#ffffff;fill-opacity:1"
         id="path3745" />
    </g>
    <g
       id="Eth_copy"
       data-name="Eth copy"
       transform="matrix(0.13598867,0,0,0.13598867,34.756552,122.0191)">
      <path
         id="Shape1"
         class="cls-2"
         d="M 256,87 152,259 256,212 Z"
         style="fill:#ffffff;fill-rule:evenodd" />
      <path
         id="Shape2"
         class="cls-2"
         d="M 256,87 360,259 256,212 Z"
         style="fill:#ffffff;fill-rule:evenodd" />
      <path
         id="Shape3"
         class="cls-3"
         d="M 152,258 256,211 V 320 Z"
         style="fill:#efefef;fill-rule:evenodd" />
      <path
         id="Shape4"
         class="cls-3"
         d="M 360,258 256,211 v 109 z"
         style="fill:#efefef;fill-rule:evenodd" />
      <path
         id="Shape5"
         class="cls-2"
         d="m 152,279 104,61 v 85 z"
         style="fill:#ffffff;fill-rule:evenodd" />
      <path
         id="Shape6"
         class="cls-2"
         d="m 360,279 -104,61 v 85 z"
         style="fill:#ffffff;fill-rule:evenodd" />
    </g>
    <text
       xml:space="preserve"
       style="font-style:normal;font-weight:normal;font-size:17.4672px;line-height:1.25;font-family:sans-serif;fill:#ffffff;fill-opacity:1;stroke:none;stroke-width:0.436679"
       x="93.615852"
       y="204.62556"
       id="text2223"><tspan
         id="tspan2221"
         x="93.615852"
         y="204.62556"
         style="fill:#ffffff;stroke-width:0.436679">SEPOLIA</tspan></text>
  </g>
</svg>
