<?xml version="1.0" encoding="UTF-8" standalone="no"?>
<svg
   xmlns:dc="http://purl.org/dc/elements/1.1/"
   xmlns:cc="http://creativecommons.org/ns#"
   xmlns:rdf="http://www.w3.org/1999/02/22-rdf-syntax-ns#"
   xmlns:svg="http://www.w3.org/2000/svg"
   xmlns="http://www.w3.org/2000/svg"
   version="1.1"
   viewBox="0 0 256 256"
   height="256"
   width="256"
   id="Cube">
  <metadata
     id="metadata1819">
    <rdf:RDF>
      <cc:Work
         rdf:about="">
        <dc:format>image/svg+xml</dc:format>
        <dc:type
           rdf:resource="http://purl.org/dc/dcmitype/StillImage" />
        <dc:title></dc:title>
      </cc:Work>
    </rdf:RDF>
  </metadata>
  <defs
     id="defs1806">
    <style
       id="style1804">
      .cls-1 {
        fill: #183c87;
      }

      .cls-2 {
        fill: #fff;
        fill-rule: evenodd;
      }
    </style>
  </defs>
  <g
     transform="translate(0,-1746)"
     id="g2438">
    <g
       id="g1814">
      <circle
         id="ellipse1808"
         cy="1873.7776"
         cx="128.02293"
         class="cls-1"
         style="fill:#e6007a;fill-opacity:1;stroke-width:0.12240822"
         r="122.5" />
      <path
         style="fill:none;fill-opacity:1;fill-rule:evenodd;stroke:#ffffff;stroke-width:5.15905523;stroke-miterlimit:4;stroke-dasharray:none;stroke-opacity:1"
         id="Full-4-8"
         class="cls-1"
         d="m 19.374119,1874.3378 c 0,60.0614 48.863059,108.9244 108.924441,108.9244 60.06138,0 108.92443,-48.863 108.92443,-108.9244 0,-60.0614 -48.86305,-108.9245 -108.92443,-108.9245 -60.061382,0 -108.924441,48.8631 -108.924441,108.9245 z" />
      <path
         id="path2518"
         style="font-style:normal;font-variant:normal;font-weight:500;font-stretch:normal;font-size:331.23999023px;line-height:1.25;font-family:Heebo;-inkscape-font-specification:'Heebo, Medium';font-variant-ligatures:normal;font-variant-caps:normal;font-variant-numeric:normal;font-feature-settings:normal;text-align:center;letter-spacing:0px;word-spacing:0px;writing-mode:lr-tb;text-anchor:middle;fill:#ffffff;fill-opacity:1;stroke:none;stroke-width:0.16795458"
         d="M 90.986658,1833.9991 H 78.677996 v 33.866 h -7.010244 v -33.866 h -12.17281 v -5.6759 h 19.183054 12.308662 z" />
      <path
         id="path2520"
         style="font-style:normal;font-variant:normal;font-weight:500;font-stretch:normal;font-size:331.23999023px;line-height:1.25;font-family:Heebo;-inkscape-font-specification:'Heebo, Medium';font-variant-ligatures:normal;font-variant-caps:normal;font-variant-numeric:normal;font-feature-settings:normal;text-align:center;letter-spacing:0px;word-spacing:0px;writing-mode:lr-tb;text-anchor:middle;fill:#ffffff;fill-opacity:1;stroke:none;stroke-width:0.16795458"
         d="m 122.09802,1862.2163 v 5.6488 h -20.78618 -5.162582 v -39.5419 h 7.037392 18.74832 v 5.6759 h -18.74832 v 10.7274 h 16.16704 v 5.5403 h -16.16704 v 11.9495 z" />
      <path
         id="path2522"
         style="font-style:normal;font-variant:normal;font-weight:500;font-stretch:normal;font-size:331.23999023px;line-height:1.25;font-family:Heebo;-inkscape-font-specification:'Heebo, Medium';font-variant-ligatures:normal;font-variant-caps:normal;font-variant-numeric:normal;font-feature-settings:normal;text-align:center;letter-spacing:0px;word-spacing:0px;writing-mode:lr-tb;text-anchor:middle;fill:#ffffff;fill-opacity:1;stroke:none;stroke-width:0.16795458"
         d="m 139.97683,1850.8643 q -6.24944,-1.9283 -9.64587,-4.7527 -3.39643,-2.8244 -3.39643,-7.3598 0,-3.1774 1.76615,-5.6761 1.79331,-2.4984 4.99954,-3.8835 3.20624,-1.4121 7.3363,-1.4121 4.32026,0 7.55368,1.6294 3.26057,1.6023 4.99953,4.3724 1.73899,2.7429 1.73899,6.0833 h -7.01025 q 0,-2.9601 -1.87483,-4.7254 -1.84767,-1.7653 -5.48863,-1.7653 -3.4236,0 -5.21691,1.4936 -1.76615,1.4666 -1.76615,3.8566 0,2.1182 2.01068,3.5848 2.01069,1.4665 6.33094,2.7157 4.51048,1.3308 7.36347,3.0418 2.88019,1.7109 4.29311,4.0465 1.41291,2.3356 1.41291,5.4587 0,3.3133 -1.73898,5.7574 -1.73898,2.4443 -4.94522,3.775 -3.17906,1.3036 -7.44497,1.3036 -3.96704,0 -7.55367,-1.4121 -3.55946,-1.4396 -5.78753,-4.2911 -2.20088,-2.8514 -2.20088,-6.8709 h 7.03743 q 0,3.5577 2.30956,5.2958 2.33675,1.711 6.19509,1.711 3.42361,0 5.2441,-1.4122 1.82048,-1.4123 1.82048,-3.8022 0,-1.6295 -0.67929,-2.7158 -0.67928,-1.1135 -2.47259,-2.0639 -1.76615,-0.9505 -5.18976,-1.9825 z" />
      <path
         id="path2524"
         style="font-style:normal;font-variant:normal;font-weight:500;font-stretch:normal;font-size:331.23999023px;line-height:1.25;font-family:Heebo;-inkscape-font-specification:'Heebo, Medium';font-variant-ligatures:normal;font-variant-caps:normal;font-variant-numeric:normal;font-feature-settings:normal;text-align:center;letter-spacing:0px;word-spacing:0px;writing-mode:lr-tb;text-anchor:middle;fill:#ffffff;fill-opacity:1;stroke:none;stroke-width:0.16795458"
         d="m 190.10821,1833.9991 h -12.3087 v 33.866 h -7.01022 v -33.866 h -12.17283 v -5.6759 h 19.18305 12.3087 z" />
      <g
         aria-label="WND"
         transform="matrix(0.17014812,0,0,0.17014812,125.17352,1797.842)"
         style="font-style:normal;font-variant:normal;font-weight:normal;font-stretch:normal;font-size:331.23999023px;line-height:1.25;font-family:HelveticaNeue;-inkscape-font-specification:'HelveticaNeue, Normal';font-variant-ligatures:normal;font-variant-caps:normal;font-variant-numeric:normal;font-feature-settings:normal;text-align:center;letter-spacing:0px;word-spacing:0px;writing-mode:lr-tb;text-anchor:middle;fill:#ffffff;fill-opacity:1;stroke:none"
         id="flowRoot1010">
        <path
           d="M 73.174426,503.43829 19.153737,738.92968 H -8.8270386 -21.442649 L -65.273806,568.61895 -110.0754,738.92968 h -26.52512 -14.07126 l -54.02069,-235.49139 h 41.56682 l 36.0677,175.64811 44.154637,-175.64811 h 25.554698 9.542576 L -4.1366195,679.57162 31.44587,503.43829 Z"
           style="font-style:normal;font-variant:normal;font-weight:500;font-stretch:normal;font-size:331.2406311px;font-family:Heebo;-inkscape-font-specification:'Heebo, Medium';font-variant-ligatures:normal;font-variant-caps:normal;font-variant-numeric:normal;font-feature-settings:normal;text-align:center;writing-mode:lr-tb;text-anchor:middle;fill:#ffffff;fill-opacity:1"
           id="path1794" />
        <path
           d="M 248.01384,738.92968 144.3394,573.30936 V 738.92968 H 102.44911 V 503.43829 h 41.89029 l 103.99791,165.9438 v -165.9438 h 41.56682 v 235.49139 z"
           style="font-style:normal;font-variant:normal;font-weight:500;font-stretch:normal;font-size:331.2406311px;font-family:Heebo;-inkscape-font-specification:'Heebo, Medium';font-variant-ligatures:normal;font-variant-caps:normal;font-variant-numeric:normal;font-feature-settings:normal;text-align:center;writing-mode:lr-tb;text-anchor:middle;fill:#ffffff;fill-opacity:1"
           id="path1796" />
        <path
           d="m 407.81157,503.43829 q 31.37729,0 55.47634,13.90952 24.09905,13.90952 37.36161,39.30248 13.4243,25.39296 13.4243,58.87285 v 11.48344 q 0,33.64162 -13.4243,59.03458 -13.26256,25.23122 -37.68509,39.14074 -24.42253,13.74778 -56.77025,13.74778 H 356.3787 337.9405 V 503.43829 h 41.89029 z m 64.21022,111.76137 q 0,-37.84683 -16.49734,-57.90242 -16.49733,-20.05558 -47.71288,-20.05558 h -27.98078 v 168.04639 h 26.36339 q 32.34772,0 49.0068,-20.37906 16.82081,-20.5408 16.82081,-57.90241 z"
           style="font-style:normal;font-variant:normal;font-weight:500;font-stretch:normal;font-size:331.2406311px;font-family:Heebo;-inkscape-font-specification:'Heebo, Medium';font-variant-ligatures:normal;font-variant-caps:normal;font-variant-numeric:normal;font-feature-settings:normal;text-align:center;writing-mode:lr-tb;text-anchor:middle;fill:#ffffff;fill-opacity:1"
           id="path1798" />
      </g>
      <g
         id="g938"
         transform="matrix(0.42346965,0,0,0.42346965,27.650024,1866.5866)">
        <g
           id="g936">
          <path
             id="path934"
             d="m 85,34.7 c -20.8,0 -37.8,16.9 -37.8,37.8 0,4.2 0.7,8.3 2,12.3 0.9,2.7 3.9,4.2 6.7,3.3 2.7,-0.9 4.2,-3.9 3.3,-6.7 C 58.1,78.3 57.6,75 57.7,71.7 58.1,57.6 69.5,46 83.6,45.3 c 15.7,-0.8 28.7,11.7 28.7,27.2 0,14.5 -11.4,26.4 -25.7,27.2 0,0 -5.3,0.3 -7.9,0.7 -1.3,0.2 -2.3,0.4 -3,0.5 -0.3,0.1 -0.6,-0.2 -0.5,-0.5 L 76.1,96 81,73.4 c 0.6,-2.8 -1.2,-5.6 -4,-6.2 -2.8,-0.6 -5.6,1.2 -6.2,4 0,0 -11.8,55 -11.9,55.6 -0.6,2.8 1.2,5.6 4,6.2 2.8,0.6 5.6,-1.2 6.2,-4 0.1,-0.6 1.7,-7.9 1.7,-7.9 1.2,-5.6 5.8,-9.7 11.2,-10.4 1.2,-0.2 5.9,-0.5 5.9,-0.5 19.5,-1.5 34.9,-17.8 34.9,-37.7 0,-20.9 -17,-37.8 -37.8,-37.8 z m 2.7,87 c -3.4,-0.7 -6.8,1.4 -7.5,4.9 -0.7,3.4 1.4,6.8 4.9,7.5 3.4,0.7 6.8,-1.4 7.5,-4.9 0.7,-3.5 -1.4,-6.8 -4.9,-7.5 z"
             class="st0"
             style="fill:#ffffff" />
        </g>
      </g>
    </g>
  </g>
</svg>
