<?xml version="1.0" encoding="UTF-8" standalone="no"?>
<svg
   xmlns:dc="http://purl.org/dc/elements/1.1/"
   xmlns:cc="http://creativecommons.org/ns#"
   xmlns:rdf="http://www.w3.org/1999/02/22-rdf-syntax-ns#"
   xmlns:svg="http://www.w3.org/2000/svg"
   xmlns="http://www.w3.org/2000/svg"
   id="Cube"
   width="256"
   height="256"
   viewBox="0 0 256 256"
   version="1.1">
  <metadata
     id="metadata1819">
    <rdf:RDF>
      <cc:Work
         rdf:about="">
        <dc:format>image/svg+xml</dc:format>
        <dc:type
           rdf:resource="http://purl.org/dc/dcmitype/StillImage" />
        <dc:title></dc:title>
      </cc:Work>
    </rdf:RDF>
  </metadata>
  <defs
     id="defs1806">
    <style
       id="style1804">
      .cls-1 {
        fill: #183c87;
      }

      .cls-2 {
        fill: #fff;
        fill-rule: evenodd;
      }
    </style>
  </defs>
  <g
     id="g5158">
    <g
       transform="translate(0,-1746)"
       id="g2438">
      <circle
         r="122.5"
         style="fill:#183c87;stroke-width:0.12240822"
         class="cls-1"
         cx="128.02293"
         cy="1874.0758"
         id="ellipse1808" />
      <path
         d="m 19.374119,1874.3378 c 0,60.0614 48.863059,108.9244 108.924441,108.9244 60.06138,0 108.92443,-48.863 108.92443,-108.9244 0,-60.0614 -48.86305,-108.9245 -108.92443,-108.9245 -60.061382,0 -108.924441,48.8631 -108.924441,108.9245 z"
         class="cls-1"
         id="Full-4-8"
         style="fill:none;fill-opacity:1;fill-rule:evenodd;stroke:#ffffff;stroke-width:5.15905523;stroke-miterlimit:4;stroke-dasharray:none;stroke-opacity:1" />
      <g
         transform="translate(0.02895111,-2.8659304)"
         id="g2883">
        <g
           transform="matrix(0.03842833,0,0,0.03840912,38.956185,1869.0695)"
           id="g2404">
          <g
             id="Box_Left"
             data-name="Box Left">
            <path
               style="fill:#ffffff;fill-rule:evenodd"
               id="Box_Left-2"
               data-name="Box Left"
               class="cls-2"
               d="M 269,974 566,802 862,974 v 344 L 566,1490 269,1318 Z" />
          </g>
          <g
             id="Box_Right"
             data-name="Box Right">
            <path
               style="fill:#ffffff;fill-rule:evenodd"
               id="Box_Left-3"
               data-name="Box Left"
               class="cls-2"
               d="m 1141,974 297,-172 296,172 v 344 l -296,172 -297,-172 z" />
          </g>
          <g
             id="Box_Main"
             data-name="Box Main">
            <path
               style="fill:#ffffff;fill-rule:evenodd"
               id="Box_Main-2"
               data-name="Box Main"
               class="cls-2"
               d="m 626,673 375,-219 376,219 v 123 l -269,156 v 315 l -107,62 -106,-62 V 952 L 626,796 Z" />
          </g>
        </g>
        <path
           id="path2518"
           style="font-style:normal;font-variant:normal;font-weight:500;font-stretch:normal;font-size:331.23999023px;line-height:1.25;font-family:Heebo;-inkscape-font-specification:'Heebo, Medium';font-variant-ligatures:normal;font-variant-caps:normal;font-variant-numeric:normal;font-feature-settings:normal;text-align:center;letter-spacing:0px;word-spacing:0px;writing-mode:lr-tb;text-anchor:middle;fill:#ffffff;fill-opacity:1;stroke:none;stroke-width:0.16795458"
           d="M 90.957707,1836.865 H 78.649045 v 33.866 h -7.010244 v -33.866 h -12.17281 v -5.6759 h 19.183054 12.308662 z" />
        <path
           id="path2520"
           style="font-style:normal;font-variant:normal;font-weight:500;font-stretch:normal;font-size:331.23999023px;line-height:1.25;font-family:Heebo;-inkscape-font-specification:'Heebo, Medium';font-variant-ligatures:normal;font-variant-caps:normal;font-variant-numeric:normal;font-feature-settings:normal;text-align:center;letter-spacing:0px;word-spacing:0px;writing-mode:lr-tb;text-anchor:middle;fill:#ffffff;fill-opacity:1;stroke:none;stroke-width:0.16795458"
           d="m 122.06907,1865.0822 v 5.6488 h -20.78618 -5.162583 v -39.5419 h 7.037393 18.74832 v 5.6759 H 103.1577 v 10.7274 h 16.16704 v 5.5403 H 103.1577 v 11.9495 z" />
        <path
           id="path2522"
           style="font-style:normal;font-variant:normal;font-weight:500;font-stretch:normal;font-size:331.23999023px;line-height:1.25;font-family:Heebo;-inkscape-font-specification:'Heebo, Medium';font-variant-ligatures:normal;font-variant-caps:normal;font-variant-numeric:normal;font-feature-settings:normal;text-align:center;letter-spacing:0px;word-spacing:0px;writing-mode:lr-tb;text-anchor:middle;fill:#ffffff;fill-opacity:1;stroke:none;stroke-width:0.16795458"
           d="m 139.94788,1853.7302 q -6.24944,-1.9283 -9.64587,-4.7527 -3.39643,-2.8244 -3.39643,-7.3598 0,-3.1774 1.76615,-5.6761 1.79331,-2.4984 4.99954,-3.8835 3.20624,-1.4121 7.3363,-1.4121 4.32026,0 7.55368,1.6294 3.26057,1.6023 4.99953,4.3724 1.73899,2.7429 1.73899,6.0833 h -7.01025 q 0,-2.9601 -1.87483,-4.7254 -1.84767,-1.7653 -5.48863,-1.7653 -3.4236,0 -5.21691,1.4936 -1.76615,1.4666 -1.76615,3.8566 0,2.1182 2.01068,3.5848 2.01069,1.4665 6.33094,2.7157 4.51048,1.3308 7.36347,3.0418 2.88019,1.7109 4.29311,4.0465 1.41291,2.3356 1.41291,5.4587 0,3.3133 -1.73898,5.7574 -1.73898,2.4443 -4.94522,3.775 -3.17906,1.3036 -7.44497,1.3036 -3.96704,0 -7.55367,-1.4121 -3.55946,-1.4396 -5.78753,-4.2911 -2.20088,-2.8514 -2.20088,-6.8709 h 7.03743 q 0,3.5577 2.30956,5.2958 2.33675,1.711 6.19509,1.711 3.42361,0 5.2441,-1.4122 1.82048,-1.4123 1.82048,-3.8022 0,-1.6295 -0.67929,-2.7158 -0.67928,-1.1135 -2.47259,-2.0639 -1.76615,-0.9505 -5.18976,-1.9825 z" />
        <path
           id="path2524"
           style="font-style:normal;font-variant:normal;font-weight:500;font-stretch:normal;font-size:331.23999023px;line-height:1.25;font-family:Heebo;-inkscape-font-specification:'Heebo, Medium';font-variant-ligatures:normal;font-variant-caps:normal;font-variant-numeric:normal;font-feature-settings:normal;text-align:center;letter-spacing:0px;word-spacing:0px;writing-mode:lr-tb;text-anchor:middle;fill:#ffffff;fill-opacity:1;stroke:none;stroke-width:0.16795458"
           d="m 190.07926,1836.865 h -12.3087 v 33.866 h -7.01022 v -33.866 h -12.17283 v -5.6759 h 19.18305 12.3087 z" />
        <path
           id="path2526"
           style="font-style:normal;font-variant:normal;font-weight:500;font-stretch:normal;font-size:331.23999023px;line-height:1.25;font-family:Heebo;-inkscape-font-specification:'Heebo, Medium';font-variant-ligatures:normal;font-variant-caps:normal;font-variant-numeric:normal;font-feature-settings:normal;text-align:center;letter-spacing:0px;word-spacing:0px;writing-mode:lr-tb;text-anchor:middle;fill:#ffffff;fill-opacity:1;stroke:none;stroke-width:0.16795458"
           d="m 142.86473,1920.6504 v 5.6487 h -27.38885 -2.17371 v -4.5082 l 20.37859,-29.3577 h -20.24275 v -5.6759 h 26.16613 2.63563 v 4.3724 l -20.35142,29.5207 z" />
        <path
           id="path2528"
           style="font-style:normal;font-variant:normal;font-weight:500;font-stretch:normal;font-size:331.23999023px;line-height:1.25;font-family:Heebo;-inkscape-font-specification:'Heebo, Medium';font-variant-ligatures:normal;font-variant-caps:normal;font-variant-numeric:normal;font-feature-settings:normal;text-align:center;letter-spacing:0px;word-spacing:0px;writing-mode:lr-tb;text-anchor:middle;fill:#ffffff;fill-opacity:1;stroke:none;stroke-width:0.16795458"
           d="m 174.65535,1920.6504 v 5.6487 h -20.78617 -5.16259 v -39.5418 h 7.0374 18.74831 v 5.6759 h -18.74831 v 10.7274 h 16.16703 v 5.5403 h -16.16703 v 11.9495 z" />
        <path
           id="path2530"
           style="font-style:normal;font-variant:normal;font-weight:500;font-stretch:normal;font-size:331.23999023px;line-height:1.25;font-family:Heebo;-inkscape-font-specification:'Heebo, Medium';font-variant-ligatures:normal;font-variant-caps:normal;font-variant-numeric:normal;font-feature-settings:normal;text-align:center;letter-spacing:0px;word-spacing:0px;writing-mode:lr-tb;text-anchor:middle;fill:#ffffff;fill-opacity:1;stroke:none;stroke-width:0.16795458"
           d="m 205.14172,1920.6504 v 5.6487 h -19.75365 -5.16259 v -39.5418 h 7.03742 v 33.8931 z" />
      </g>
    </g>
  </g>
</svg>
