<?xml version="1.0" encoding="UTF-8" standalone="no"?>
<svg
   xmlns:dc="http://purl.org/dc/elements/1.1/"
   xmlns:cc="http://creativecommons.org/ns#"
   xmlns:rdf="http://www.w3.org/1999/02/22-rdf-syntax-ns#"
   xmlns:svg="http://www.w3.org/2000/svg"
   xmlns="http://www.w3.org/2000/svg"
   id="Cube"
   width="256"
   height="256"
   viewBox="0 0 256 256"
   version="1.1">
  <metadata
     id="metadata1819">
    <rdf:RDF>
      <cc:Work
         rdf:about="">
        <dc:format>image/svg+xml</dc:format>
        <dc:type
           rdf:resource="http://purl.org/dc/dcmitype/StillImage" />
        <dc:title></dc:title>
      </cc:Work>
    </rdf:RDF>
  </metadata>
  <defs
     id="defs1806">
    <style
       id="style1804">
      .cls-1 {
        fill: #183c87;
      }

      .cls-2 {
        fill: #fff;
        fill-rule: evenodd;
      }
    </style>
  </defs>
  <g
     id="g5087">
    <circle
       id="ellipse1808"
       cy="127.77759"
       cx="128.02293"
       class="cls-1"
       style="fill:#b0b0b0;fill-opacity:1;stroke-width:0.12240822"
       r="122.5" />
    <path
       style="fill:none;fill-opacity:1;fill-rule:evenodd;stroke:#ffffff;stroke-width:5.15905523;stroke-miterlimit:4;stroke-dasharray:none;stroke-opacity:1"
       id="Full-4-8"
       class="cls-1"
       d="m 19.374119,128.3378 c 0,60.0614 48.863059,108.9244 108.924441,108.9244 60.06138,0 108.92443,-48.863 108.92443,-108.9244 0,-60.0614 -48.86305,-108.9245 -108.92443,-108.9245 -60.061382,0 -108.924441,48.8631 -108.924441,108.9245 z" />
    <path
       id="path2518"
       style="font-style:normal;font-variant:normal;font-weight:500;font-stretch:normal;font-size:331.23999023px;line-height:1.25;font-family:Heebo;-inkscape-font-specification:'Heebo, Medium';font-variant-ligatures:normal;font-variant-caps:normal;font-variant-numeric:normal;font-feature-settings:normal;text-align:center;letter-spacing:0px;word-spacing:0px;writing-mode:lr-tb;text-anchor:middle;fill:#ffffff;fill-opacity:1;stroke:none;stroke-width:0.16795458"
       d="M 90.986658,87.9991 H 78.677996 v 33.866 h -7.010244 v -33.866 h -12.17281 v -5.6759 h 19.183054 12.308662 z" />
    <path
       id="path2520"
       style="font-style:normal;font-variant:normal;font-weight:500;font-stretch:normal;font-size:331.23999023px;line-height:1.25;font-family:Heebo;-inkscape-font-specification:'Heebo, Medium';font-variant-ligatures:normal;font-variant-caps:normal;font-variant-numeric:normal;font-feature-settings:normal;text-align:center;letter-spacing:0px;word-spacing:0px;writing-mode:lr-tb;text-anchor:middle;fill:#ffffff;fill-opacity:1;stroke:none;stroke-width:0.16795458"
       d="m 122.09802,116.2163 v 5.6488 H 101.31184 96.149258 V 82.3232 h 7.037392 18.74832 v 5.6759 h -18.74832 v 10.7274 h 16.16704 v 5.5403 h -16.16704 v 11.9495 z" />
    <path
       id="path2522"
       style="font-style:normal;font-variant:normal;font-weight:500;font-stretch:normal;font-size:331.23999023px;line-height:1.25;font-family:Heebo;-inkscape-font-specification:'Heebo, Medium';font-variant-ligatures:normal;font-variant-caps:normal;font-variant-numeric:normal;font-feature-settings:normal;text-align:center;letter-spacing:0px;word-spacing:0px;writing-mode:lr-tb;text-anchor:middle;fill:#ffffff;fill-opacity:1;stroke:none;stroke-width:0.16795458"
       d="m 139.97683,104.8643 q -6.24944,-1.9283 -9.64587,-4.7527 -3.39643,-2.8244 -3.39643,-7.3598 0,-3.1774 1.76615,-5.6761 1.79331,-2.4984 4.99954,-3.8835 3.20624,-1.4121 7.3363,-1.4121 4.32026,0 7.55368,1.6294 3.26057,1.6023 4.99953,4.3724 1.73899,2.7429 1.73899,6.0833 h -7.01025 q 0,-2.9601 -1.87483,-4.7254 -1.84767,-1.7653 -5.48863,-1.7653 -3.4236,0 -5.21691,1.4936 -1.76615,1.4666 -1.76615,3.8566 0,2.1182 2.01068,3.5848 2.01069,1.4665 6.33094,2.7157 4.51048,1.3308 7.36347,3.0418 2.88019,1.7109 4.29311,4.0465 1.41291,2.3356 1.41291,5.4587 0,3.3133 -1.73898,5.7574 -1.73898,2.4443 -4.94522,3.775 -3.17906,1.3036 -7.44497,1.3036 -3.96704,0 -7.55367,-1.4121 -3.55946,-1.4396 -5.78753,-4.2911 -2.20088,-2.8514 -2.20088,-6.8709 h 7.03743 q 0,3.5577 2.30956,5.2958 2.33675,1.711 6.19509,1.711 3.42361,0 5.2441,-1.4122 1.82048,-1.4123 1.82048,-3.8022 0,-1.6295 -0.67929,-2.7158 -0.67928,-1.1135 -2.47259,-2.0639 -1.76615,-0.9505 -5.18976,-1.9825 z" />
    <path
       id="path2524"
       style="font-style:normal;font-variant:normal;font-weight:500;font-stretch:normal;font-size:331.23999023px;line-height:1.25;font-family:Heebo;-inkscape-font-specification:'Heebo, Medium';font-variant-ligatures:normal;font-variant-caps:normal;font-variant-numeric:normal;font-feature-settings:normal;text-align:center;letter-spacing:0px;word-spacing:0px;writing-mode:lr-tb;text-anchor:middle;fill:#ffffff;fill-opacity:1;stroke:none;stroke-width:0.16795458"
       d="m 190.10821,87.9991 h -12.3087 v 33.866 h -7.01022 v -33.866 h -12.17283 v -5.6759 h 19.18305 12.3087 z" />
    <g
       aria-label="ETH"
       transform="matrix(0.16788557,0,0,0.16788557,51.600445,60.2742)"
       style="font-style:normal;font-variant:normal;font-weight:normal;font-stretch:normal;font-size:331.23999023px;line-height:1.25;font-family:HelveticaNeue;-inkscape-font-specification:'HelveticaNeue, Normal';font-variant-ligatures:normal;font-variant-caps:normal;font-variant-numeric:normal;font-feature-settings:normal;text-align:center;letter-spacing:0px;word-spacing:0px;writing-mode:lr-tb;text-anchor:middle;fill:#ffffff;fill-opacity:1;stroke:none"
       id="flowRoot2923">
      <path
         d="m 411.13534,664.9932 v 33.64156 H 287.40555 256.67528 V 463.14383 h 41.89022 111.59941 v 33.8033 H 298.5655 v 63.88662 h 96.23427 v 32.9946 H 298.5655 v 71.16485 z"
         style="font-style:normal;font-variant:normal;font-weight:500;font-stretch:normal;font-size:331.23999023px;font-family:Heebo;-inkscape-font-specification:'Heebo, Medium';font-variant-ligatures:normal;font-variant-caps:normal;font-variant-numeric:normal;font-feature-settings:normal;text-align:center;writing-mode:lr-tb;text-anchor:middle;fill:#ffffff;fill-opacity:1"
         id="path3741" />
      <path
         d="M 618.64554,496.94713 H 545.37811 V 698.63476 H 503.64963 V 496.94713 h -72.45875 v -33.8033 h 114.18723 73.26743 z"
         style="font-style:normal;font-variant:normal;font-weight:500;font-stretch:normal;font-size:331.23999023px;font-family:Heebo;-inkscape-font-specification:'Heebo, Medium';font-variant-ligatures:normal;font-variant-caps:normal;font-variant-numeric:normal;font-feature-settings:normal;text-align:center;writing-mode:lr-tb;text-anchor:middle;fill:#ffffff;fill-opacity:1"
         id="path3743" />
      <path
         d="M 836.99221,463.14383 V 698.63476 H 795.26374 V 594.31357 H 691.26603 V 698.63476 H 649.37581 V 463.14383 h 41.89022 v 97.68992 h 103.99771 v -97.68992 z"
         style="font-style:normal;font-variant:normal;font-weight:500;font-stretch:normal;font-size:331.23999023px;font-family:Heebo;-inkscape-font-specification:'Heebo, Medium';font-variant-ligatures:normal;font-variant-caps:normal;font-variant-numeric:normal;font-feature-settings:normal;text-align:center;writing-mode:lr-tb;text-anchor:middle;fill:#ffffff;fill-opacity:1"
         id="path3745" />
    </g>
    <g
       id="Eth_copy"
       data-name="Eth copy"
       transform="matrix(0.13598867,0,0,0.13598867,34.756552,122.0191)">
      <path
         id="Shape1"
         class="cls-2"
         d="M 256,87 152,259 256,212 Z"
         style="fill:#ffffff;fill-rule:evenodd" />
      <path
         id="Shape2"
         class="cls-2"
         d="M 256,87 360,259 256,212 Z"
         style="fill:#ffffff;fill-rule:evenodd" />
      <path
         id="Shape3"
         class="cls-3"
         d="M 152,258 256,211 V 320 Z"
         style="fill:#efefef;fill-rule:evenodd" />
      <path
         id="Shape4"
         class="cls-3"
         d="M 360,258 256,211 v 109 z"
         style="fill:#efefef;fill-rule:evenodd" />
      <path
         id="Shape5"
         class="cls-2"
         d="m 152,279 104,61 v 85 z"
         style="fill:#ffffff;fill-rule:evenodd" />
      <path
         id="Shape6"
         class="cls-2"
         d="m 360,279 -104,61 v 85 z"
         style="fill:#ffffff;fill-rule:evenodd" />
    </g>
    <g
       aria-label="ROPSTEN"
       transform="matrix(0.05660585,0,0,0.05660585,30.592997,187.7845)"
       style="font-style:normal;font-variant:normal;font-weight:normal;font-stretch:normal;font-size:331.23999023px;line-height:1.25;font-family:HelveticaNeue;-inkscape-font-specification:'HelveticaNeue, Normal';font-variant-ligatures:normal;font-variant-caps:normal;font-variant-numeric:normal;font-feature-settings:normal;text-align:center;letter-spacing:0px;word-spacing:0px;writing-mode:lr-tb;text-anchor:middle;fill:#ffffff;fill-opacity:1;stroke:none"
       id="flowRoot879-1">
      <path
         d="m 1176.8666,294.17083 v 2.1026 h -44.9632 l -46.7424,-90.24996 h -44.8015 v 90.24996 H 998.46932 V 60.782499 h 83.45698 q 40.758,0 62.9162,18.276426 22.3198,18.276425 22.3198,52.726675 0,23.29031 -11.1599,39.46414 -11.1599,16.17383 -31.7007,24.9077 z M 1040.3595,172.38191 h 41.7285 q 21.026,0 32.0242,-10.51299 11.1599,-10.51299 11.1599,-27.98072 0,-18.5999 -10.6747,-28.95115 -10.6747,-10.351251 -32.6711,-10.351251 h -41.5668 z"
         style="font-style:normal;font-variant:normal;font-weight:500;font-stretch:normal;font-size:331.23999023px;font-family:Heebo;-inkscape-font-specification:'Heebo, Medium';font-variant-ligatures:normal;font-variant-caps:normal;font-variant-numeric:normal;font-feature-settings:normal;text-align:center;writing-mode:lr-tb;text-anchor:middle;fill:#ffffff;fill-opacity:1"
         id="path2567" />
      <path
         d="m 1394.8898,184.51228 q 0,35.25895 -12.2921,61.29881 -12.1303,25.87812 -34.2885,39.78761 -22.1581,13.9095 -51.271,13.9095 -28.7894,0 -51.1093,-13.9095 -22.3199,-13.90949 -34.7737,-39.94935 -12.4539,-26.03986 -12.4539,-61.13707 v -11.80689 q 0,-35.09721 12.2921,-61.13707 12.4539,-26.039864 34.612,-39.949356 22.3199,-14.07123 51.1093,-14.07123 29.1129,0 51.271,13.909492 22.3199,13.909491 34.612,39.949354 12.2921,26.03986 12.2921,61.29881 z m -42.0519,-12.13037 q 0,-38.97892 -14.7182,-59.51969 -14.5564,-20.702495 -41.405,-20.702495 -17.306,0 -29.9216,9.219085 -12.6156,9.21908 -19.4086,27.33377 -6.6312,17.95294 -6.6312,43.66933 v 12.13037 q 0,25.71639 6.793,43.83107 6.793,18.11469 19.4086,27.49551 12.7773,9.21908 30.0833,9.21908 26.8485,0 41.2432,-20.7025 14.5565,-20.7025 14.5565,-59.84316 z"
         style="font-style:normal;font-variant:normal;font-weight:500;font-stretch:normal;font-size:331.23999023px;font-family:Heebo;-inkscape-font-specification:'Heebo, Medium';font-variant-ligatures:normal;font-variant-caps:normal;font-variant-numeric:normal;font-feature-settings:normal;text-align:center;writing-mode:lr-tb;text-anchor:middle;fill:#ffffff;fill-opacity:1"
         id="path2569" />
      <path
         d="m 1525.5744,60.782499 q 26.6868,0 46.0954,9.704297 19.5703,9.542558 29.7598,26.686816 10.1895,16.982518 10.1895,38.817188 0,22.80509 -10.1895,39.3024 -10.0277,16.4973 -29.4363,25.23117 -19.2469,8.73387 -46.4189,8.73387 h -48.5215 v 87.01519 h -41.8902 V 60.782499 Z m 0,114.834181 q 22.4816,0 33.1563,-10.51299 10.8365,-10.51299 10.8365,-28.78942 0,-11.32167 -4.6904,-20.70249 -4.6904,-9.54256 -14.5565,-15.2034 -9.866,-5.822581 -24.7459,-5.822581 h -48.5215 v 81.030881 z"
         style="font-style:normal;font-variant:normal;font-weight:500;font-stretch:normal;font-size:331.23999023px;font-family:Heebo;-inkscape-font-specification:'Heebo, Medium';font-variant-ligatures:normal;font-variant-caps:normal;font-variant-numeric:normal;font-feature-settings:normal;text-align:center;writing-mode:lr-tb;text-anchor:middle;fill:#ffffff;fill-opacity:1"
         id="path2571" />
      <path
         d="m 1720.6307,195.02527 q -37.1998,-11.48342 -57.417,-28.3042 -20.2173,-16.82078 -20.2173,-43.83107 0,-18.92338 10.513,-33.803302 10.6747,-14.879922 29.7598,-23.128574 19.0851,-8.41039 43.6693,-8.41039 25.7164,0 44.9633,9.704296 19.4086,9.542559 29.7598,26.039863 10.3513,16.335567 10.3513,36.229377 h -41.7285 q 0,-17.62948 -11.16,-28.14246 -10.9982,-10.512991 -32.6711,-10.512991 -20.379,0 -31.0537,8.895605 -10.513,8.733866 -10.513,22.966836 0,12.61558 11.9686,21.34945 11.9686,8.73387 37.685,16.17383 26.8486,7.92518 43.8311,18.11469 17.1443,10.18951 25.5547,24.099 8.4103,13.90949 8.4103,32.50939 0,19.73207 -10.3512,34.28852 -10.3513,14.55644 -29.4364,22.48162 -18.9234,7.76344 -44.3163,7.76344 -23.6138,0 -44.9632,-8.41039 -21.1877,-8.57213 -34.4503,-25.55465 -13.1008,-16.98252 -13.1008,-40.91979 h 41.8903 q 0,21.18772 13.7477,31.53897 13.9095,10.18951 36.8763,10.18951 20.3791,0 31.2155,-8.41039 10.8365,-8.41039 10.8365,-22.64336 0,-9.7043 -4.0435,-16.17383 -4.0434,-6.63127 -14.7182,-12.29211 -10.5129,-5.66084 -30.892,-11.80689 z"
         style="font-style:normal;font-variant:normal;font-weight:500;font-stretch:normal;font-size:331.23999023px;font-family:Heebo;-inkscape-font-specification:'Heebo, Medium';font-variant-ligatures:normal;font-variant-caps:normal;font-variant-numeric:normal;font-feature-settings:normal;text-align:center;writing-mode:lr-tb;text-anchor:middle;fill:#ffffff;fill-opacity:1"
         id="path2573" />
      <path
         d="m 2019.0379,94.585799 h -73.2675 V 296.27343 H 1904.042 V 94.585799 h -72.4588 v -33.8033 h 114.1872 73.2675 z"
         style="font-style:normal;font-variant:normal;font-weight:500;font-stretch:normal;font-size:331.23999023px;font-family:Heebo;-inkscape-font-specification:'Heebo, Medium';font-variant-ligatures:normal;font-variant-caps:normal;font-variant-numeric:normal;font-feature-settings:normal;text-align:center;writing-mode:lr-tb;text-anchor:middle;fill:#ffffff;fill-opacity:1"
         id="path2575" />
      <path
         d="m 2204.2282,262.63187 v 33.64156 h -123.7298 -30.7303 V 60.782499 h 41.8903 111.5994 v 33.8033 h -111.5994 v 63.886621 h 96.2342 v 32.99461 h -96.2342 v 71.16484 z"
         style="font-style:normal;font-variant:normal;font-weight:500;font-stretch:normal;font-size:331.23999023px;font-family:Heebo;-inkscape-font-specification:'Heebo, Medium';font-variant-ligatures:normal;font-variant-caps:normal;font-variant-numeric:normal;font-feature-settings:normal;text-align:center;writing-mode:lr-tb;text-anchor:middle;fill:#ffffff;fill-opacity:1"
         id="path2577" />
      <path
         d="m 2382.9489,296.27343 -103.6742,-165.62 v 165.62 h -41.8902 V 60.782499 h 41.8902 L 2383.2724,226.72597 V 60.782499 h 41.5667 V 296.27343 Z"
         style="font-style:normal;font-variant:normal;font-weight:500;font-stretch:normal;font-size:331.23999023px;font-family:Heebo;-inkscape-font-specification:'Heebo, Medium';font-variant-ligatures:normal;font-variant-caps:normal;font-variant-numeric:normal;font-feature-settings:normal;text-align:center;writing-mode:lr-tb;text-anchor:middle;fill:#ffffff;fill-opacity:1"
         id="path2579" />
    </g>
  </g>
</svg>
