<svg xmlns="http://www.w3.org/2000/svg" xmlns:xlink="http://www.w3.org/1999/xlink" width="250" height="250" xmlns:v="https://vecta.io/nano"><defs><linearGradient id="A" x1="17.336" x2="80" y1="74.339" y2="74.339" xlink:href="#F"><stop offset="0" stop-color="#700000"/><stop offset=".327" stop-color="#730000"/><stop offset=".59" stop-color="#7d0000"/><stop offset=".83" stop-color="#8e0000"/><stop offset="1" stop-color="#9f0000"/></linearGradient><linearGradient id="B" x1="48.668" x2="48.668" y1="68.689" y2="80" xlink:href="#F"><stop offset=".35" stop-color="#cf2000"/><stop offset=".645" stop-color="#cd1f00"/><stop offset=".752" stop-color="#c61d00"/><stop offset=".828" stop-color="#bb1900"/><stop offset=".889" stop-color="#aa1300"/><stop offset=".941" stop-color="#940c00"/><stop offset=".987" stop-color="#790300"/><stop offset="1" stop-color="#700000"/></linearGradient><linearGradient id="C" x1="17.336" x2="80" y1="55.313" y2="55.313" xlink:href="#F"><stop offset="0" stop-color="#cf2000"/><stop offset=".021" stop-color="#d12201"/><stop offset=".244" stop-color="#e23309"/><stop offset=".487" stop-color="#ec3d0e"/><stop offset=".791" stop-color="#ef4010"/><stop offset=".841" stop-color="#ec3d0f"/><stop offset=".882" stop-color="#e2330d"/><stop offset=".919" stop-color="#d12208"/><stop offset=".954" stop-color="#b90a03"/><stop offset=".966" stop-color="#af0000"/><stop offset="1" stop-color="#ef4010"/></linearGradient><linearGradient id="D" x1="17.336" x2="80" y1="55.313" y2="55.313" xlink:href="#F"><stop offset="0" stop-color="#dfdfdf"/><stop offset=".021" stop-color="#e1e1e1"/><stop offset=".244" stop-color="#f2f2f2"/><stop offset=".487" stop-color="#fcfcfc"/><stop offset=".791" stop-color="#fff"/><stop offset=".841" stop-color="#fcfcfc"/><stop offset=".882" stop-color="#f2f2f2"/><stop offset=".919" stop-color="#e1e1e1"/><stop offset=".954" stop-color="#c9c9c9"/><stop offset=".966" stop-color="#bfbfbf"/><stop offset="1" stop-color="#fff"/></linearGradient><linearGradient id="E" x1="17.336" x2="80" y1="55.313" y2="55.313" xlink:href="#F"><stop offset="0" stop-color="#00209f"/><stop offset=".021" stop-color="#0222a1"/><stop offset=".244" stop-color="#1333b2"/><stop offset=".487" stop-color="#1d3dbc"/><stop offset=".791" stop-color="#2040bf"/><stop offset=".841" stop-color="#1e3dbc"/><stop offset=".882" stop-color="#1933b2"/><stop offset=".919" stop-color="#1122a1"/><stop offset=".954" stop-color="#050a89"/><stop offset=".966" stop-color="#00007f"/><stop offset="1" stop-color="#2040bf"/></linearGradient><linearGradient id="F" gradientUnits="userSpaceOnUse"/></defs><circle cx="125" cy="125" r="125" fill="#cdcdcd" fill-rule="evenodd"/><g transform="matrix(2.410676 0 0 2.417334 27.124209 21.61404)"><path fill="#0e3ca5" d="M32.585 59.259c2 7.4 9.176 13.044 12.8 12.811.127-.008 13.745-2.547 21.2-15 5.8-9.693 3.826-19.051-4.064-19.255-2.839.207-33.745 7.348-29.934 21.446m29.198-47.528l-.008-.006.011-.007a34.628 34.628 0 0 0-36.5-5.266 20.417 20.417 0 0 0-2.2 1.074c-.486.259-.973.516-1.444.8l.115.036a15.776 15.776 0 0 0-3.655 3.459C8.172 24.951 41.486 34.495 59.3 34.527c8.191 5.882 10.49-16.561 2.485-22.794z"/><path fill="#5493f7" d="M27.3 12C22.723 18.878 7.478 23.726 4.971 22.971l-.017-.032q.155-.312.313-.619a36.682 36.682 0 0 1 10.87-12.683q1.407-1.032 2.913-1.929a10.777 10.777 0 0 1 5.04-1.342c6.789.134 3.244 5.579 3.21 5.634m-3.756 48.612c.329 2.161-.008 10.7-.45 11.418-.381.023-1.174.071-3.471-1.217a36.44 36.44 0 0 1-17.952-25.8 36.9 36.9 0 0 1 0-11.841 36.291 36.291 0 0 1 1.383-5.615q.183-.55.383-1.093c2.631 3.5 5.676 6.666 8.264 10.2 2.465 3.365 5.856 8.851 6.546 10.024 4.284 7.277 4.967 11.767 5.294 13.925m50.648-21.521A36.4 36.4 0 0 1 71.648 52.5c-4.3 4.62-33.283-6.753-33.567-6.878-3.965-1.738-16.031-7.022-17.12-15.328C19.4 18.349 43.63 10.025 54.28 9.71c1.277.014 5.163.06 7.429 1.9a36.411 36.411 0 0 1 12.48 27.482M54.568 71.465c-3.16 1.475-6.638.4-5.734-2.676 1.735-5.909 16.886-11.967 20.232-12.3.412-.04.588.241.405.562a36.87 36.87 0 0 1-14.9 14.41"/><path fill="url(#A)" d="M17.336 77.255a2.551 2.551 0 0 0 2.328 2.713c30.7.21 60.336-1.2 60.336-5.8 0-13.925-62.664 3.087-62.664 3.087z"/><path fill="url(#B)" d="M17.336 77.255a2.548 2.548 0 0 0 2.34 2.713c30.691.233 60.287-.732 60.324-5.8 0-13.925-62.664 3.087-62.664 3.087zm2.341 2.536a2.194 2.194 0 0 1-.245-.014 2.4 2.4 0 0 1-1.987-1.763 2.37 2.37 0 0 0 2.229 1.762c30.671-.193 59.845-9.637 59.845-5.479 0 4.245-29.172 5.703-59.842 5.494z"/><path fill="url(#C)" d="M19.679 37.822a2.343 2.343 0 0 0-2.343 2.344v37.089a2.341 2.341 0 0 0 2.328 2.345C50.363 79.37 80.038 69.208 80 74.168V32.393c.038-4.961-29.627 5.199-60.321 5.429z"/><path fill="url(#D)" d="M77.59 38a24.475 24.475 0 0 0-4.28.228l-3.3.465-3.074.492-2.967.517-2.883.5-2.815.484-2.747.471-2.717.44-2.706.42-2.678.41-2.7.375-2.733.349-2.761.329-2.826.3-2.9.277-2.987.247-3.095.2-3.214.148-3.356.1-3.514.041v27.858l3.511-.04 3.356-.1 3.217-.149 3.095-.2 2.984-.253 2.9-.275 2.825-.3a324.1 324.1 0 0 0 5.49-.677 199.17 199.17 0 0 0 5.383-.785l2.7-.42 2.718-.439 2.754-.474 2.815-.483 2.883-.5 2.969-.516 3.072-.493 3.3-.465a24.282 24.282 0 0 1 4.28-.228c1.343.09 2.408.433 2.41 1.369V39.37c.001-.937-1.066-1.278-2.409-1.37z"/><path fill="url(#E)" d="M77.591 44.965a24.294 24.294 0 0 0-4.281.228l-3.3.464-3.073.493-2.968.516-2.882.5-2.816.485-2.749.471-2.717.441-2.7.418-2.68.411-2.7.375a312.543 312.543 0 0 1-5.493.677l-2.824.3-2.9.276-2.987.247-3.094.2-3.216.148-3.355.1-3.514.04v13.933l3.511-.04 3.356-.1 3.217-.149 3.1-.2 2.986-.248 2.9-.276 2.824-.3 2.762-.327 2.729-.349 2.7-.377 2.683-.409 2.7-.419 2.719-.44 2.752-.473 2.815-.483 2.883-.5 2.968-.517 3.073-.494 3.3-.462a24.176 24.176 0 0 1 4.279-.229c1.343.091 2.408.433 2.41 1.369V46.334c-.009-.934-1.075-1.277-2.418-1.369z"/></g></svg>