<?xml version="1.0" encoding="UTF-8" standalone="no"?>
<svg
   id="Layer_2"
   data-name="Layer 2"
   viewBox="0 0 1133.8583 1133.8583"
   version="1.1"
   sodipodi:docname="TLS.svg"
   width="1133.8583"
   height="1133.8583"
   inkscape:version="1.1.1 (c3084ef, 2021-09-22)"
   xmlns:inkscape="http://www.inkscape.org/namespaces/inkscape"
   xmlns:sodipodi="http://sodipodi.sourceforge.net/DTD/sodipodi-0.dtd"
   xmlns="http://www.w3.org/2000/svg"
   xmlns:svg="http://www.w3.org/2000/svg">
  <sodipodi:namedview
     id="namedview850"
     pagecolor="#ffffff"
     bordercolor="#666666"
     borderopacity="1.0"
     inkscape:pageshadow="2"
     inkscape:pageopacity="0.0"
     inkscape:pagecheckerboard="0"
     showgrid="false"
     inkscape:zoom="0.39773359"
     inkscape:cx="363.30851"
     inkscape:cy="453.82136"
     inkscape:window-width="1800"
     inkscape:window-height="1097"
     inkscape:window-x="0"
     inkscape:window-y="44"
     inkscape:window-maximized="1"
     inkscape:current-layer="Layer_2" />
  <defs
     id="defs826">
    <style
       id="style824">
      .cls-1 {
        fill: none;
      }

      .cls-1, .cls-2 {
        stroke-width: 0px;
      }

      .cls-2 {
        fill: #9f9874;
      }
    </style>
  </defs>
  <circle
     cx="566.92914"
     cy="566.92914"
     fill="#ffffff"
     id="circle932"
     style="stroke-width:4.53544;fill:#ffffff"
     r="566.92914" />
  <g
     id="Layer_1-2"
     data-name="Layer 1"
     transform="matrix(1.0265992,0,0,1.0265992,0,151.1811)">
    <g
       id="g846">
      <g
         id="g842">
        <rect
           class="cls-2"
           x="116.51"
           y="119.75"
           width="868.21997"
           height="68.690002"
           rx="7.5599999"
           ry="7.5599999"
           id="rect828" />
        <g
           id="g840">
          <path
             class="cls-2"
             d="m 239.96,308.19 h 267.15 c 4.18,0 7.56,3.38 7.56,7.56 v 507.29 c 0,4.18 3.38,7.56 7.56,7.56 h 53.57 c 4.18,0 7.56,-3.38 7.56,-7.56 V 315.75 c 0,-4.18 3.38,-7.56 7.56,-7.56 h 270.37 c 4.18,0 7.56,-3.38 7.56,-7.56 v -53.57 c 0,-4.18 -3.38,-7.56 -7.56,-7.56 H 239.96 c -4.18,0 -7.56,3.38 -7.56,7.56 v 53.57 c 0,4.18 3.38,7.56 7.56,7.56 z"
             id="path830" />
          <rect
             class="cls-2"
             x="267.82001"
             y="362.66"
             width="68.690002"
             height="281.19"
             rx="7.5599999"
             ry="7.5599999"
             id="rect832" />
          <rect
             class="cls-2"
             x="390.29999"
             y="362.66"
             width="68.690002"
             height="390.67001"
             rx="7.5599999"
             ry="7.5599999"
             id="rect834" />
          <rect
             class="cls-2"
             x="760.44"
             y="362.66"
             width="68.690002"
             height="281.19"
             rx="7.5599999"
             ry="7.5599999"
             id="rect836" />
          <rect
             class="cls-2"
             x="638.09003"
             y="362.66"
             width="68.690002"
             height="390.67001"
             rx="7.5599999"
             ry="7.5599999"
             id="rect838" />
        </g>
      </g>
      <rect
         class="cls-1"
         width="1104.48"
         height="957.31"
         id="rect844"
         x="0"
         y="0" />
    </g>
  </g>
</svg>
