<?xml version="1.0" encoding="utf-8"?>
<!-- Generator: Adobe Illustrator 22.0.0, SVG Export Plug-In . SVG Version: 6.00 Build 0)  -->
<svg version="1.1" id="TNB" xmlns="http://www.w3.org/2000/svg" xmlns:xlink="http://www.w3.org/1999/xlink" x="0px" y="0px"
	 viewBox="0 0 490 490" style="enable-background:new 0 0 490 490;" xml:space="preserve">
<style type="text/css">
	.st0{fill:#FCB31B;}
	.st1{fill:none;stroke:#FFFFFF;stroke-width:5;}
	.st2{fill:#FFFFFF;}
</style>
<path id="Full" class="st0" d="M0,245c0,135.1,109.9,245,245,245s245-109.9,245-245S380.1,0,245,0S0,109.9,0,245z"/>
<circle id="RING" class="st1" cx="245" cy="245" r="174.9"/>
<path id="TNB-2" class="st2" d="M101.6,185.9c10.6,0,21.2,0.1,31.8,0c-2.1,8-3.6,16.1-5.8,24.2H96.2
	C97.7,201.9,99.8,193.9,101.6,185.9z M140.3,185.9c33.6,0,67.1,0.1,100.7,0c-9.9,41.4-19.1,82.9-28.9,124.2
	c-9.8-0.1-19.8,0.1-29.6-0.1c7.9-33.3,15.3-66.7,23.4-100c-12.9,0.1-25.8,0-38.6,0c-7.8,33.3-15.5,66.6-23.1,99.9
	c-10.8,0.2-21.6,0-32.3,0.1C121.1,268.6,130.9,227.2,140.3,185.9z M295,185.8c16.5,0.2,33-0.2,49.5,0.2c11.6,0.8,24.2,2.8,32.8,11.3
	c5.1,4.7,6.9,11.9,6.7,18.7h9.8c-1.4,4.1-2,8.4-3.7,12.4c-3.1,0.3-6.3,0.1-9.4,0.2c-4.9,8.4-13.7,12.9-22.7,15.7
	c6.1,1.8,12.3,4.5,16.6,9.5c2.8,3.3,3.7,7.7,4.4,11.9h11.2c-1.2,4.1-2.5,8.2-3.5,12.4c-3,0-6,0-8.9,0.2
	c-3.3,13.6-15.3,23.1-28.1,27.2c-15.6,5.2-32.3,4.6-48.5,4.6c-11.1-0.1-22.2,0.2-33.2-0.1c-0.5-1.5-1.6-3-0.9-4.5
	C276.7,265.5,285.5,225.6,295,185.8z M319.2,209c-2.1,8.6-4.1,17.2-6,25.8c7.4-0.1,14.8,0.4,22.2-0.7c5.5-1,11.4-3.7,13.6-9.2
	c1.7-4.5,1.7-10.8-2.9-13.6c-6.7-3.6-14.6-2.5-22-2.7C322.5,208.8,320.5,208.1,319.2,209L319.2,209z M308.3,256.2
	c-2.6,10.3-4.8,20.6-7.2,30.9c12.6-0.5,26.2,1.9,37.7-4.5c6.9-3.6,9.5-12.7,6.2-19.5c-2.3-4-7.1-5.2-11.3-6.1
	C325.2,255.7,316.7,256.3,308.3,256.2L308.3,256.2z M236.7,233.3c3.6-15.6,7.1-31.1,10.8-46.6c8.6,20.3,17.5,40.3,26.2,60.5
	c-4,16.2-7.4,32.6-11.5,48.7c-8-19.4-16.3-38.6-24.6-58C237.2,236.5,236.1,234.9,236.7,233.3L236.7,233.3z"/>
</svg>
