<svg id="TNB" xmlns="http://www.w3.org/2000/svg" width="512" height="512" viewBox="0 0 512 512">
  <defs>
    <style>
      .cls-1 {
        fill: #fcb31b;
      }

      .cls-1, .cls-3 {
        fill-rule: evenodd;
      }

      .cls-2 {
        fill: none;
        stroke: #fff;
        stroke-width: 5px;
      }

      .cls-3 {
        fill: #fff;
      }
    </style>
  </defs>
  <path id="Full" class="cls-1" d="M11,256c0,135.094,109.906,245,245,245S501,391.094,501,256,391.094,11,256,11,11,120.906,11,256Z"/>
  <circle id="RING" class="cls-2" cx="256" cy="256" r="174.938"/>
  <path id="TNB-2" data-name="TNB" class="cls-3" d="M112.58,196.862c10.587,0,21.174.083,31.844,0-2.068,8.023-3.639,16.129-5.79,24.152H107.2C108.693,212.908,110.843,204.885,112.58,196.862Zm38.709,0c33.58,0,67.078.083,100.658,0-9.925,41.355-19.106,82.876-28.948,124.231-9.843-.083-19.768.083-29.611-0.083,7.94-33.332,15.3-66.747,23.407-100-12.9.082-25.8,0-38.625,0q-11.662,50-23.077,99.914c-10.752.165-21.587,0-32.339,0.082C132.1,279.572,141.86,238.217,151.289,196.862Zm154.751-.083c16.459,0.166,33-.165,49.46.166,11.58,0.827,24.235,2.812,32.836,11.331,5.128,4.715,6.865,11.91,6.7,18.693h9.843c-1.407,4.052-1.986,8.436-3.722,12.406-3.143.331-6.286,0.083-9.429,0.166-4.88,8.353-13.73,12.9-22.663,15.715,6.121,1.819,12.324,4.549,16.625,9.511,2.812,3.309,3.722,7.692,4.383,11.911h11.249c-1.158,4.135-2.481,8.188-3.474,12.406-2.977,0-5.955,0-8.85.166-3.308,13.564-15.3,23.076-28.121,27.211-15.633,5.211-32.257,4.632-48.469,4.632-11.083-.083-22.166.165-33.249-0.083-0.5-1.489-1.572-2.977-.91-4.549C287.678,276.512,296.528,236.563,306.04,196.779Zm24.151,23.242c-2.15,8.6-4.053,17.2-6.038,25.806,7.361-.083,14.805.413,22.167-0.745,5.459-.992,11.414-3.722,13.564-9.181,1.737-4.549,1.737-10.835-2.9-13.647-6.7-3.639-14.639-2.481-22-2.729C333.5,219.773,331.514,219.111,330.191,220.021Zm-10.918,47.228c-2.564,10.256-4.8,20.594-7.2,30.851,12.572-.5,26.219,1.9,37.715-4.55,6.865-3.556,9.512-12.737,6.2-19.519-2.316-3.97-7.113-5.211-11.332-6.121C336.229,266.67,327.71,267.331,319.273,267.249Zm-71.544-22.911c3.639-15.55,7.113-31.1,10.835-46.649,8.6,20.264,17.535,40.28,26.219,60.461-3.97,16.212-7.361,32.588-11.5,48.717-8.022-19.354-16.293-38.626-24.565-57.98C248.225,247.481,247.15,245.909,247.729,244.338Z"/>
</svg>
