<?xml version="1.0" encoding="utf-8"?>
<!-- Generator: Adobe Illustrator 22.0.0, SVG Export Plug-In . SVG Version: 6.00 Build 0)  -->
<svg version="1.1" id="TNT" xmlns="http://www.w3.org/2000/svg" xmlns:xlink="http://www.w3.org/1999/xlink" x="0px" y="0px"
	 viewBox="0 0 490 490" style="enable-background:new 0 0 490 490;" xml:space="preserve">
<style type="text/css">
	.st0{fill:#FF4081;}
	.st1{fill:#FFFFFF;}
</style>
<path id="Full" class="st0" d="M0,245c0,135.1,109.9,245,245,245s245-109.9,245-245S380.1,0,245,0S0,109.9,0,245z"/>
<path id="TNT-2" class="st1" d="M315.3,283.1c-46.4-3.3-93-3.3-139.4,0c-1.5-23.5-2.3-35.3-3.8-58.9c49-3.4,98.1-3.4,147,0
	C317.6,247.8,316.8,259.6,315.3,283.1 M277.2,379c-21.1-1.2-42.2-1.2-63.3,0c-0.7-21-1-31.5-1.7-52.5c22.2-1.3,44.5-1.3,66.8,0
	C278.3,347.5,277.9,358,277.2,379 M85.1,129.4c4.2,28.4,6.3,42.7,10.4,71.1c5.9-10.4,9-15.6,15.2-25.9c90.6-13.2,182.6-13,273.1,0.5
	c4.9,10.1,7.3,15.2,12,25.4c4.1-28.4,6.2-42.7,10.4-71.1C297.5,111.3,193.6,111.3,85.1,129.4"/>
</svg>
