<svg id="TNT" xmlns="http://www.w3.org/2000/svg" width="512" height="512" viewBox="0 0 512 512">
  <defs>
    <style>
      .cls-1 {
        fill: #ff4081;
      }

      .cls-1, .cls-2 {
        fill-rule: evenodd;
      }

      .cls-2 {
        fill: #fff;
      }
    </style>
  </defs>
  <path id="Full" class="cls-1" d="M11,256c0,135.094,109.906,245,245,245S501,391.094,501,256,391.094,11,256,11,11,120.906,11,256Z"/>
  <path id="TNT-2" data-name="TNT" class="cls-2" d="M326.274,294.11a994.193,994.193,0,0,0-139.386-.012c-1.531-23.55-2.3-35.326-3.83-58.872a1049.183,1049.183,0,0,1,147.045,0c-1.534,23.546-2.3,35.333-3.829,58.884m-38.025,95.864a557.754,557.754,0,0,0-63.345,0c-0.678-20.984-1.023-31.481-1.7-52.465a588.254,588.254,0,0,1,66.753,0c-0.682,20.981-1.019,31.474-1.7,52.458M96.087,140.443c4.174,28.434,6.251,42.656,10.374,71.1,5.919-10.426,8.951-15.6,15.163-25.916a934.4,934.4,0,0,1,273.1.533c4.9,10.122,7.3,15.2,11.96,25.383,4.123-28.442,6.2-42.664,10.378-71.1-108.517-18.119-212.463-18.119-320.979,0"/>
</svg>
