<svg id="TOKOK" xmlns="http://www.w3.org/2000/svg" width="256" height="256" viewBox="0 0 512 512">
<defs>
    <style>
      .cls-1 {
        fill: #f5692c;
      }

      .cls-1, .cls-2 {
        fill-rule: evenodd;
      }

      .cls-2 {
        fill: #fff;
      }
    </style>
  </defs>
  <path id="Full" class="cls-1" d="M11,256c0,135.094,109.906,245,245,245S501,391.094,501,256,391.094,11,256,11,11,120.906,11,256Z"/>
  <g id="Tokok-2" data-name="Tokok">
    <path id="Tokok-3" data-name="Tokok" class="cls-2" d="M116.224,146.68s62.347-25.6,139.776-25.6,139.747,25.6,139.747,25.6H116.224Zm-0.019,29.175H225.28L256,416.28,201.733,192.76Zm170.515,0L256,416.28l53.236-223.008,86.511-17.417H286.72Zm109.027,6.665,46.116,88.556s-4.11,27.668-47.623,27.668-53.2-27.668-53.2-27.668l36.336-67.092L350.72,271.076h80.9Zm-279.542,0L70.178,271.076s4.313,27.668,47.582,27.668S171,271.076,171,271.076l-35.82-67.092,26.1,67.092H79.872Z"/>
  </g>
</svg>
