<?xml version="1.0" encoding="utf-8"?>
<!-- Generator: Adobe Illustrator 22.0.0, SVG Export Plug-In . SVG Version: 6.00 Build 0)  -->
<svg version="1.1" id="TOKOK" xmlns="http://www.w3.org/2000/svg" xmlns:xlink="http://www.w3.org/1999/xlink" x="0px" y="0px"
	 viewBox="0 0 245 245" style="enable-background:new 0 0 245 245;" xml:space="preserve">
<style type="text/css">
	.st0{fill:#F5692C;}
	.st1{fill:#FFFFFF;}
</style>
<path id="Full" class="st0" d="M0,122.5C0,190,55,245,122.5,245S245,190,245,122.5S190,0,122.5,0S0,55,0,122.5z"/>
<g id="Tokok-2">
	<path id="Tokok-3" class="st1" d="M52.6,67.8c0,0,31.2-12.8,69.9-12.8s69.9,12.8,69.9,12.8H52.6z M52.6,82.4h54.5l15.4,120.2
		L95.4,90.9L52.6,82.4z M137.9,82.4l-15.4,120.2l26.6-111.5l43.3-8.7C192.4,82.4,137.9,82.4,137.9,82.4z M192.4,85.8l23.1,44.3
		c0,0-2.1,13.8-23.8,13.8S165,130,165,130l18.2-33.5L169.9,130h40.4L192.4,85.8z M52.6,85.8l-23,44.3c0,0,2.2,13.8,23.8,13.8
		S80,130,80,130L62.1,96.5L75.1,130H34.4L52.6,85.8z"/>
</g>
</svg>
