<?xml version="1.0" encoding="UTF-8"?>
<svg xmlns="http://www.w3.org/2000/svg" version="1.1" viewBox="0 0 250 250">
  <defs>
    <style>
      .cls-1 {
        fill: #0098ea;
      }

      .cls-2 {
        fill: #fff;
      }
    </style>
  </defs>
  <!-- Generator: Adobe Illustrator 28.6.0, SVG Export Plug-In . SVG Version: 1.2.0 Build 709)  -->
  <g>
    <g id="Layer_1">
      <g>
        <path class="cls-1" d="M125,247.5c67.7,0,122.5-54.8,122.5-122.5S192.7,2.5,125,2.5,2.5,57.3,2.5,125s54.8,122.5,122.5,122.5Z"/>
        <path class="cls-2" d="M166.8,70.9h-83.7c-15.4,0-25.1,16.6-17.4,30l51.6,89.5c3.4,5.8,11.8,5.8,15.2,0l51.6-89.5c7.7-13.4-2-30-17.4-30h0ZM117.4,163.5l-11.2-21.8-27.1-48.5c-1.8-3.1.4-7.1,4.2-7.1h34.2v77.4h0ZM171,93.2l-27.1,48.5-11.2,21.8v-77.4h34.2c3.7,0,6,4,4.2,7.1Z"/>
      </g>
    </g>
  </g>
</svg>