<?xml version="1.0" encoding="UTF-8" standalone="no"?>
<svg
   xmlns:dc="http://purl.org/dc/elements/1.1/"
   xmlns:cc="http://creativecommons.org/ns#"
   xmlns:rdf="http://www.w3.org/1999/02/22-rdf-syntax-ns#"
   xmlns:svg="http://www.w3.org/2000/svg"
   xmlns="http://www.w3.org/2000/svg"
   width="256"
   height="256"
   viewBox="0 0 67.733332 67.733335"
   version="1.1"
   id="svg1784">
  <defs
     id="defs1778" />
  <metadata
     id="metadata1781">
    <rdf:RDF>
      <cc:Work
         rdf:about="">
        <dc:format>image/svg+xml</dc:format>
        <dc:type
           rdf:resource="http://purl.org/dc/dcmitype/StillImage" />
        <dc:title></dc:title>
      </cc:Work>
    </rdf:RDF>
  </metadata>
  <g
     id="g1282">
    <g
       id="g907"
       style="fill:#1a5fac;fill-opacity:1;stroke:#1a5fac;stroke-opacity:1"
       transform="translate(0,-229.26665)">
      <path
         d="m 1.4552083,263.13332 c 0,17.87181 14.5396477,32.41146 32.4114577,32.41146 17.871811,0 32.411459,-14.53965 32.411459,-32.41146 0,-17.87181 -14.539648,-32.41146 -32.411459,-32.41146 -17.87181,0 -32.4114577,14.53965 -32.4114577,32.41146 z"
         class="cls-1"
         id="Full"
         style="fill:#1a5fac;fill-opacity:1;stroke-width:0.13229166;stroke:#1a5fac;stroke-opacity:1" />
    </g>
    <g
       id="g1262"
       transform="matrix(1.046164,0,0,1.046164,-1.0194888,-2.3534815)">
      <path
         id="path1030-3-6"
         d="m 47.137259,34.222671 -13.808093,18.039941 0.01578,-15.272762 5.19413,-2.767179 z"
         style="fill:none;fill-opacity:1;stroke:#ffffff;stroke-width:0.57201242;stroke-linecap:round;stroke-linejoin:round;stroke-miterlimit:4;stroke-dasharray:none;stroke-opacity:1" />
      <path
         id="path1030"
         d="M 19.552639,34.222671 33.344949,9.172144 v 22.283348 l -5.194131,2.767179 z"
         style="fill:none;fill-opacity:1;stroke:#ffffff;stroke-width:0.57201248;stroke-linecap:round;stroke-linejoin:round;stroke-miterlimit:4;stroke-dasharray:none;stroke-opacity:1" />
      <path
         id="path1030-3"
         d="M 47.137259,34.222671 33.344949,9.172144 v 22.283348 l 5.19413,2.767179 z"
         style="fill:none;fill-opacity:1;stroke:#ffffff;stroke-width:0.57201248;stroke-linecap:round;stroke-linejoin:round;stroke-miterlimit:4;stroke-dasharray:none;stroke-opacity:1" />
      <path
         id="path1030-3-6-7"
         d="M 19.606579,34.269419 33.329166,52.262612 33.344949,36.98985 28.150818,34.222671 Z"
         style="fill:none;fill-opacity:1;stroke:#ffffff;stroke-width:0.57201236;stroke-linecap:round;stroke-linejoin:round;stroke-miterlimit:4;stroke-dasharray:none;stroke-opacity:1" />
      <path
         id="path1181"
         d="m 9.0737215,42.793314 -0.043153,-4.40151 c 0,0 0.4746732,-0.517823 0.575361,-0.546589 0.1006865,-0.02877 6.5878775,-0.02877 6.5878775,-0.02877 l 0.04315,0.08631 0.129456,-0.115067 4.200133,0.115067 c 0,0 0.244527,-0.07152 0.604127,0.287681 0,0 0.244529,-0.330831 1.481554,-0.330831 1.237026,0 10.270186,0.04315 10.270186,0.04315 l 0.07191,-0.115067 2.790498,0.04315 0.172609,-0.244529 4.991252,0.201375 0.230144,0.302065 0.302065,-0.230144 4.142595,0.186992 c 0,0 0.273297,-0.273297 1.308946,-0.244529 1.035649,0.02877 9.277688,0.186993 10.730473,-0.02877 0,0 -0.63289,0.445902 -0.589739,2.258288 0.04315,1.812385 0.330833,10.744857 0.330833,10.744857 l -0.632897,0.647281 -7.450918,0.143841 0.07191,-0.186993 -0.359601,0.158223 -3.854915,-0.143839 -0.330832,0.330832 -8.443416,-0.402752 -0.129456,0.273297 -11.233914,-0.244529 -0.201377,0.158224 -5.285963,-0.115067 c 0,0 -0.525179,0.115067 -1.229995,0.100686 -0.704817,-0.01438 -2.819266,-0.04315 -2.819266,-0.04315 0,0 -0.532208,-0.05753 -0.690433,-0.273296 l -0.287674,0.302062 -4.7754927,-0.04315 c 0,0 0.8198897,-0.819889 0.7767377,-2.04253 l -0.05753,-7.49407 c 0,0 -0.7655466,0.08528 -1.2833704,0.790098"
         style="fill:#ecf3fc;fill-opacity:1;stroke:none;stroke-width:0.09764192;stroke-linecap:square;stroke-linejoin:miter;stroke-miterlimit:4;stroke-dasharray:none;stroke-opacity:1" />
      <path
         id="path1123"
         d="m 10.195674,38.701063 5.429966,-0.05035 c 0,0 -0.5394,0.09349 -0.409945,2.36617 0,0 -0.373984,-0.373978 -1.165104,-0.30925 l 0.02877,8.572872 c 0,0 0.0071,0.697624 0.294871,0.920577 l -2.912767,-0.0071 c 0,0 0.230144,-0.208568 0.21576,-1.287369 -0.01438,-1.078801 -0.02877,-8.234848 -0.02877,-8.234848 0,0 -0.783929,-0.07911 -1.43121,0.445905 z"
         style="fill:#1a5fac;fill-opacity:1;stroke:#ffffff;stroke-width:0.0325473;stroke-linecap:butt;stroke-linejoin:miter;stroke-miterlimit:4;stroke-dasharray:none;stroke-opacity:1" />
      <path
         id="path1129"
         d="m 15.498052,39.729466 -0.244104,9.621798 c 0,0 -0.08137,0.915393 0.813682,0.915393 0.89505,0 3.783624,0 3.783624,0 0,0 0.935735,-0.122054 0.956077,-1.159497 0.02035,-1.037447 0.284789,-9.845561 0.284789,-9.845561 0,0 -0.142394,-0.711972 -0.956078,-0.711972 -0.813682,0 -3.74294,0 -3.74294,0 0,0 -0.874709,0.183078 -0.89505,1.179839 z"
         style="fill:#1a5fac;fill-opacity:1;stroke:#fdfdfd;stroke-width:0.06509461;stroke-linecap:butt;stroke-linejoin:miter;stroke-miterlimit:4;stroke-dasharray:none;stroke-opacity:1" />
      <path
         id="path1131"
         d="m 17.898415,41.295806 h 0.650947 l -0.122054,6.245014 -0.711972,-0.02035 z"
         style="fill:#ffffff;fill-opacity:1;stroke:none;stroke-width:0.06509461;stroke-linecap:butt;stroke-linejoin:miter;stroke-miterlimit:4;stroke-dasharray:none;stroke-opacity:1" />
      <path
         id="path1141"
         d="m 21.19383,43.614801 0.183078,-4.495596 c 0,0 0.08137,-0.569578 0.956078,-0.569578 0.874709,0 4.109097,0 4.109097,0 l -0.223763,6.021251 -2.196943,-2.156259 -0.04068,-1.159497 h -0.671288 l -0.02035,1.179839 3.051311,3.010626 -0.06103,3.926019 c 0,0 -0.04068,0.895051 -1.240866,0.895051 -1.200182,0 -4.149783,0 -4.149783,0 l -0.04068,-0.325474 c 0,0 0.305131,-0.244104 0.325474,-0.549235 0.02035,-0.305131 0.08137,-5.146543 0.08137,-5.146543 l 2.095233,2.054548 -0.02035,1.220525 h 0.48821 l 0.04068,-1.322235 z"
         style="fill:#1a5fac;fill-opacity:1;stroke:#fefefe;stroke-width:0.13018923;stroke-linecap:butt;stroke-linejoin:miter;stroke-miterlimit:4;stroke-dasharray:none;stroke-opacity:1" />
      <path
         id="path1143"
         d="m 27.072688,38.549627 h 2.76652 c 0,0 -0.386499,0.528894 -0.406841,0.976419 -0.02035,0.447526 -0.04068,3.376783 -0.04068,3.376783 l 0.915393,-0.02035 0.08136,-3.74294 c 0,0 -0.142394,-0.58992 -0.223763,-0.58992 -0.08137,0 2.827548,0 2.827548,0 0,0 -0.467868,0.610263 -0.447525,1.668049 0.02035,1.057788 -0.203422,9.235298 -0.203422,9.235298 0,0 -0.02035,0.569578 0.223763,0.813683 l -2.68515,5e-6 c 0,0 0.406842,0.20342 0.406842,-4.576966 l -1.037445,0.04068 -0.162737,3.681914 c 0,0 -0.02035,0.508552 0.223762,0.854366 l -2.685152,5e-6 c 0,0 0.305131,0 0.366157,-1.383261 0.06103,-1.38326 0.264447,-9.520087 0.264447,-9.520087 0,0 0.08137,-0.427185 -0.183078,-0.813683 z"
         style="fill:#1a5fac;fill-opacity:1;stroke:#eeeeee;stroke-width:0.06509461;stroke-linecap:butt;stroke-linejoin:miter;stroke-miterlimit:4;stroke-dasharray:none;stroke-opacity:1" />
      <path
         id="path1145"
         d="m 33.643175,38.549627 h 2.908915 c 0,0 -0.366157,0.3865 -0.467867,2.257969 -0.101708,1.87147 -0.467868,8.66572 -0.467868,8.66572 0,0 -0.08137,0.345816 0.244105,0.793341 h -2.76652 c 0,0 0.251009,-0.549235 0.251009,-1.078129 0,-0.528894 0.542331,-9.581113 0.542331,-9.581113 0,0 0.05413,-0.589921 -0.244105,-1.057788 z"
         style="fill:#1a5fac;fill-opacity:1;stroke:#ffffff;stroke-width:0.16273654;stroke-linecap:butt;stroke-linejoin:miter;stroke-miterlimit:4;stroke-dasharray:none;stroke-opacity:1" />
      <path
         id="path1147"
         d="m 36.958931,38.549627 h 3.498836 l 0.386499,2.746179 0.772998,-2.746179 h 3.783624 c 0,0 -0.447525,-0.02035 -0.589919,2.318995 -0.142395,2.339338 -0.549236,8.706404 -0.549236,8.706404 0,0 -0.08137,0.528894 0.264447,0.935735 l -2.685152,-0.244104 c 0,0 0.142394,0.589921 0.264447,-1.179839 0.122054,-1.76976 0.162736,-3.214046 0.162736,-3.214046 l -1.200182,4.393886 -1.464629,-10e-7 -0.813682,-4.53628 -0.248415,3.946361 v 0.589919 h -1.948528 c 0,0 -0.345815,-0.06103 -0.284789,-0.834024 0.06103,-0.772999 0.528893,-10.537191 0.528893,-10.537191 z"
         style="fill:#1a5fac;fill-opacity:1;stroke:#fefefe;stroke-width:0.06509461;stroke-linecap:butt;stroke-linejoin:miter;stroke-miterlimit:4;stroke-dasharray:none;stroke-opacity:1" />
      <path
         id="path1129-5"
         d="m 45.32251,39.729465 -0.244104,9.621797 c 0,0 -0.08137,0.915394 0.813682,0.915394 0.895051,0 3.783624,0 3.783624,0 0,0 0.935735,-0.122054 0.956078,-1.159498 0.02035,-1.037446 0.284788,-9.84556 0.284788,-9.84556 0,0 -0.142394,-0.711972 -0.956077,-0.711972 -0.813683,0 -3.74294,0 -3.74294,0 0,0 -0.874709,0.183078 -0.895051,1.179839 z"
         style="fill:#1a5fac;fill-opacity:1;stroke:#fdfdfd;stroke-width:0.06509461;stroke-linecap:butt;stroke-linejoin:miter;stroke-miterlimit:4;stroke-dasharray:none;stroke-opacity:1" />
      <path
         id="path1131-3"
         d="m 47.678628,41.293599 h 0.650947 l -0.122054,6.245014 -0.711972,-0.02035 z"
         style="fill:#ffffff;fill-opacity:1;stroke:none;stroke-width:0.06509461;stroke-linecap:butt;stroke-linejoin:miter;stroke-miterlimit:4;stroke-dasharray:none;stroke-opacity:1" />
      <path
         id="path1179"
         d="m 50.974615,38.549627 h 2.278311 l 0.793341,2.624126 0.02035,-1.891812 c 0,0 -0.101708,-0.732314 -0.203421,-0.732314 -0.101708,0 2.807205,0 2.807205,0 0,0 -0.284789,0.142394 -0.244105,1.362919 0.04068,1.220523 0.305132,10.354111 0.305132,10.354111 h -1.932497 l -1.301892,-3.112336 -0.08137,2.502074 c 0,0 0,0.122054 0.305131,0.610262 h -2.827545 c 0,0 0.366156,-0.04068 0.284788,-1.179839 C 51.096663,47.947662 51.0153,43.858907 51.0153,43.858907 l 0.162736,-4.800728 c 0,0 -0.08137,-0.508552 -0.203421,-0.508552 z"
         style="fill:#1a5fac;fill-opacity:1;stroke:#f7f7f7;stroke-width:0.16273654;stroke-linecap:butt;stroke-linejoin:miter;stroke-miterlimit:4;stroke-dasharray:none;stroke-opacity:1" />
    </g>
  </g>
</svg>
