<?xml version="1.0" standalone="no"?>
<!DOCTYPE svg PUBLIC "-//W3C//DTD SVG 20010904//EN"
 "http://www.w3.org/TR/2001/REC-SVG-20010904/DTD/svg10.dtd">
<svg version="1.0" xmlns="http://www.w3.org/2000/svg"
 width="337.000000pt" height="337.000000pt" viewBox="0 0 337.000000 337.000000"
 preserveAspectRatio="xMidYMid meet">

<g transform="translate(0.000000,337.000000) scale(0.100000,-0.100000)"
fill="#000000" stroke="none">
<path d="M1542 3359 c-266 -22 -541 -117 -772 -266 -783 -508 -1000 -1561
-482 -2338 251 -376 650 -638 1097 -721 153 -29 482 -26 625 5 676 145 1175
644 1322 1321 19 91 22 134 22 325 0 247 -12 331 -81 537 -182 550 -654 975
-1223 1102 -98 21 -337 49 -389 45 -9 -1 -62 -6 -119 -10z m403 -569 c143 -5
316 -15 385 -21 232 -19 250 -41 250 -294 0 -255 -17 -274 -260 -297 -90 -8
-303 -13 -635 -13 -721 0 -833 14 -879 109 -17 34 -19 62 -19 201 0 194 10
226 83 262 62 30 250 45 770 61 25 1 162 -3 305 -8z m-891 -1015 c154 -20 241
-50 289 -98 78 -78 77 -67 77 -564 l0 -442 -27 -21 c-26 -21 -35 -21 -263 -18
-215 3 -238 5 -270 23 -80 47 -94 130 -94 555 -1 407 17 539 77 568 30 15 84
14 211 -3z m1445 0 c16 -8 33 -27 40 -42 47 -115 54 -819 10 -985 -5 -20 -21
-51 -35 -67 -38 -45 -94 -53 -342 -49 -212 3 -214 3 -233 27 -19 23 -19 41
-17 465 3 494 1 476 79 554 46 47 133 77 276 97 132 18 189 18 222 0z"/>
</g>
</svg>
