<svg xmlns="http://www.w3.org/2000/svg" width="449.333" height="449.333" viewBox="0 0 337 337" preserveAspectRatio="xMidYMid meet" xmlns:v="https://vecta.io/nano"><path d="M154.2 1.1C127.6 3.3 100.1 12.8 77 27.7-1.3 78.5-23 183.8 28.8 261.5c25.1 37.6 65 63.8 109.7 72.1 15.3 2.9 48.2 2.6 62.5-.5 67.6-14.5 117.5-64.4 132.2-132.1 1.9-9.1 2.2-13.4 2.2-32.5 0-24.7-1.2-33.1-8.1-53.7-18.2-55-65.4-97.5-122.3-110.2-17.399-3.839-34.794-4.636-50.8-3.5zM194.5 58c14.3.5 31.6 1.5 38.5 2.1 23.2 1.9 25 4.1 25 29.4 0 25.5-1.7 27.4-26 29.7-9 .8-30.3 1.3-63.5 1.3-72.1 0-83.3-1.4-87.9-10.9-1.7-3.4-1.9-6.2-1.9-20.1 0-19.4 1-22.6 8.3-26.2 6.2-3 25-4.5 77-6.1 2.5-.1 16.2.3 30.5.8zm-89.1 101.5c15.4 2 24.1 5 28.9 9.8 7.8 7.8 7.7 6.7 7.7 56.4-1.115 21.543-.353 44.73-2.7 46.3-3.379 2.261-3.5 2.109-26.3 1.8-21.5-.291-23.8-.5-27-2.3-8-4.7-9.4-13-9.4-55.5-.1-40.7 1.7-53.9 7.7-56.8 3-1.5 8.4-1.4 21.1.3zm144.5 0c1.6.8 3.3 2.7 4 4.2 4.7 11.5 5.4 81.9 1 98.5-.5 2-2.1 5.1-3.5 6.7-3.8 4.5-9.4 5.3-34.2 4.9-21.2-.3-21.4-.3-23.3-2.7-1.9-2.3-1.9-4.1-1.7-46.5.3-49.4.1-47.6 7.9-55.4 4.6-4.7 13.3-7.7 27.6-9.7 13.2-1.8 18.9-1.8 22.2 0z" fill="#178dd0"/></svg>