<svg id="TrueUSD" xmlns="http://www.w3.org/2000/svg" width="256" height="256" viewBox="0 0 512 512">
<defs>
    <style>
      .cls-1 {
        fill: #56cabd;
      }

      .cls-1, .cls-2 {
        fill-rule: evenodd;
      }

      .cls-2 {
        fill: #fff;
      }
    </style>
  </defs>
  <path id="Main" class="cls-1" d="M11,256c0,135.094,109.906,245,245,245S501,391.094,501,256,391.094,11,256,11,11,120.906,11,256Z"/>
  <g id="TrueUSD-2" data-name="TrueUSD">
    <path id="T" class="cls-2" d="M176,220h58V351s38-12.68,38-43V220h13c34.331,0,45-35,45-35H229C183.7,185,176,220,176,220Z"/>
    <path id="Bottom" class="cls-2" d="M338.789,155c71.352,65.608,53.235,153.319,1,200.068C283.348,405.139,169.762,419.8,99,333.061c30.419,74.975,169.993,146.805,275.758,47.016C452.756,307.006,419.309,190.645,338.789,155Z"/>
    <path id="Top" class="cls-2" d="M173,357c-71.415-65.585-53.281-153.266-1-200,56.49-50.053,170.176-64.709,241,22-30.446-74.949-170.143-146.755-276-47C58.933,205.046,92.41,321.368,173,357Z"/>
  </g>
</svg>
