<svg xmlns="http://www.w3.org/2000/svg" viewBox="0 0 490 490" xmlns:v="https://vecta.io/nano"><path d="M0,245c0,135.1,109.9,245,245,245s245-109.9,245-245S380.1,0,245,0S0,109.9,0,245z" fill="#eb0029"/><path d="M325 159.7L109 120l113.6 286L381 213.1l-56-53.4zm-3.5 17.6l33 31.4-90.3 16.3 57.3-47.7zm-77 44.4l-95.2-79L305 171.4l-60.5 50.3zm-6.7 14l-15.5 128.4-83.7-210.7 99.2 82.3zm14.3 6.8l100-18.1-114.7 139.8 14.7-121.7z" fill="#fff"/><path d="M122.6 11C61.064 11 11 61.064 11 122.6s50.064 111.6 111.6 111.6 111.6-50.064 111.6-111.6S184.136 11 122.6 11m0-11c67.551 0 122.6 55.044 122.6 122.6s-55.044 122.6-122.6 122.6S0 190.154 0 122.6 55.049 0 122.6 0z" fill="#474747" transform="matrix(2.000774 -.085445 .085671 1.995509 -10.277163 10.701037)"/></svg>