<?xml version="1.0" encoding="UTF-8" standalone="no"?>
<svg
   xmlns:dc="http://purl.org/dc/elements/1.1/"
   xmlns:cc="http://creativecommons.org/ns#"
   xmlns:rdf="http://www.w3.org/1999/02/22-rdf-syntax-ns#"
   xmlns:svg="http://www.w3.org/2000/svg"
   xmlns="http://www.w3.org/2000/svg"
   xmlns:sodipodi="http://sodipodi.sourceforge.net/DTD/sodipodi-0.dtd"
   xmlns:inkscape="http://www.inkscape.org/namespaces/inkscape"
   viewBox="0 0 490 490"
   version="1.1"
   id="svg8"
   sodipodi:docname="TRX_BEP20.svg"
   inkscape:version="1.0.2-2 (e86c870879, 2021-01-15)"
   width="490"
   height="490">
  <metadata
     id="metadata8">
    <rdf:RDF>
      <cc:Work
         rdf:about="">
        <dc:format>image/svg+xml</dc:format>
        <dc:type
           rdf:resource="http://purl.org/dc/dcmitype/StillImage" />
      </cc:Work>
    </rdf:RDF>
  </metadata>
  <defs
     id="defs12" />
  <sodipodi:namedview
     id="namedview10"
     pagecolor="#ffffff"
     bordercolor="#666666"
     borderopacity="1.0"
     inkscape:pageshadow="2"
     inkscape:pageopacity="0.0"
     inkscape:pagecheckerboard="0"
     showgrid="false"
     inkscape:zoom="1.7816327"
     inkscape:cx="245"
     inkscape:cy="245"
     inkscape:window-width="1920"
     inkscape:window-height="1017"
     inkscape:window-x="-8"
     inkscape:window-y="-8"
     inkscape:window-maximized="1"
     inkscape:current-layer="svg8"
     inkscape:document-rotation="0" />
  <path
     d="M 0,245 C 0,380.1 109.9,490 245,490 380.1,490 490,380.1 490,245 490,109.9 380.1,0 245,0 109.9,0 0,109.9 0,245 Z"
     fill="#eb0029"
     id="path2" />
  <path
     d="M 325,159.7 109,120 222.6,406 381,213.1 Z m -3.5,17.6 33,31.4 -90.3,16.3 z m -77,44.4 -95.2,-79 155.7,28.7 z m -6.7,14 -15.5,128.4 -83.7,-210.7 z m 14.3,6.8 100,-18.1 -114.7,139.8 z"
     fill="#ffffff"
     id="path4" />
</svg>
