<?xml version="1.0" encoding="UTF-8" standalone="no"?>
<svg
   xmlns:dc="http://purl.org/dc/elements/1.1/"
   xmlns:cc="http://creativecommons.org/ns#"
   xmlns:rdf="http://www.w3.org/1999/02/22-rdf-syntax-ns#"
   xmlns:svg="http://www.w3.org/2000/svg"
   xmlns="http://www.w3.org/2000/svg"
   xmlns:sodipodi="http://sodipodi.sourceforge.net/DTD/sodipodi-0.dtd"
   xmlns:inkscape="http://www.inkscape.org/namespaces/inkscape"
   width="242.5"
   height="242.5"
   viewBox="0 0 242.5 242.5"
   version="1.1"
   id="svg17"
   sodipodi:docname="TULIP_SOL.svg"
   inkscape:version="1.0.2-2 (e86c870879, 2021-01-15)">
  <metadata
     id="metadata23">
    <rdf:RDF>
      <cc:Work
         rdf:about="">
        <dc:format>image/svg+xml</dc:format>
        <dc:type
           rdf:resource="http://purl.org/dc/dcmitype/StillImage" />
      </cc:Work>
    </rdf:RDF>
  </metadata>
  <defs
     id="defs21" />
  <sodipodi:namedview
     pagecolor="#ffffff"
     bordercolor="#666666"
     borderopacity="1"
     objecttolerance="10"
     gridtolerance="10"
     guidetolerance="10"
     inkscape:pageopacity="0"
     inkscape:pageshadow="2"
     inkscape:window-width="1920"
     inkscape:window-height="1017"
     id="namedview19"
     showgrid="false"
     inkscape:zoom="3.4722222"
     inkscape:cx="121.152"
     inkscape:cy="121.152"
     inkscape:window-x="-8"
     inkscape:window-y="-8"
     inkscape:window-maximized="1"
     inkscape:current-layer="tulip_sol_2" />
  <g
     id="tulip_sol_2"
     transform="translate(-13930.948,-7969.194)">
    <path
       id="Main_copy_10"
       d="M 0,121.252 C 0,188.064 54.44,242.5 121.252,242.5 188.064,242.5 242.5,188.064 242.5,121.252 242.5,54.44 188.064,0 121.252,0 54.44,0 0,54.44 0,121.252 Z"
       transform="translate(13930.948,7969.194)"
       fill="#c44de5" />
    <g
       id="TULIP_SOL"
       transform="translate(13997.052,8014.476)">
      <g
         id="Layer_2"
         data-name="Layer 2"
         transform="translate(0,0.004)">
        <g
           id="Layer_1"
           data-name="Layer 1">
          <path
             id="Path_473139"
             data-name="Path 473139"
             d="m 528.588,928 c 0,0 7.936,49.056 -50.86,55.91 L 468.71,973.089 V 928 h 13.708 v 23.085 c 0,0 15.51,-21.636 46.17,-23.085 z"
             transform="translate(-420.215,-831.984)"
             fill="#ffffff"
             stroke="#c44de5"
             stroke-width="1.85" />
          <g
             id="Group_9315"
             data-name="Group 9315"
             transform="translate(48.495,96.016)"
             opacity="0.2">
            <path
               id="Path_473140"
               data-name="Path 473140"
               d="m 528.588,928 c 0,0 7.936,49.056 -50.86,55.91 L 468.71,973.089 V 928 h 13.708 v 23.085 c 0,0 15.51,-21.636 46.17,-23.085 z"
               transform="translate(-468.71,-928)"
               fill="#ffffff"
               stroke="#c44de5"
               stroke-width="1.85" />
          </g>
          <path
             id="Path_473141"
             data-name="Path 473141"
             d="m 71.047,968.313 c 0,0 2.525,-52.3 -55.91,-57.713 10e-4,0 -3.605,52.3 55.91,57.713 z"
             transform="translate(-13.534,-816.385)"
             fill="#ffffff"
             stroke="#c44de5"
             stroke-width="1.85" />
          <path
             id="Path_473143"
             data-name="Path 473143"
             d="m 313.369,97.822 c 12.887,-13.923 39,-54.57 2.039,-94.883 a 9.083,9.083 0 0 0 -13.1,-0.288 c -13.71,13.668 -39.357,52.282 -0.371,95.111 a 7.76,7.76 0 0 0 11.428,0.06 z"
             transform="translate(-252.174,-0.004)"
             fill="#ffffff"
             stroke="#c44de5"
             stroke-width="1.85" />
          <path
             id="Path_473144"
             data-name="Path 473144"
             d="m 158.964,171.8 c 6.534,-17.808 15,-65.377 -34.627,-88.36 a 9.083,9.083 0 0 0 -12.2,4.773 c -7.395,17.888 -16.209,63.4 36.256,87.928 a 7.76,7.76 0 0 0 10.569,-4.341 z"
             transform="translate(-95.501,-74.055)"
             fill="#ffffff"
             stroke="#c44de5"
             stroke-width="1.85" />
          <path
             id="Path_473145"
             data-name="Path 473145"
             d="m 434.959,173.536 c -6.534,-17.809 -15,-65.377 34.627,-88.36 a 9.083,9.083 0 0 1 12.2,4.773 c 7.395,17.888 16.21,63.4 -36.256,87.928 a 7.76,7.76 0 0 1 -10.569,-4.341 z"
             transform="translate(-385.465,-75.615)"
             fill="#ffffff"
             stroke="#c44de5"
             stroke-width="1.85" />
        </g>
      </g>
    </g>
  </g>
</svg>
