<svg xmlns="http://www.w3.org/2000/svg" width="244.8" height="244.8" viewBox="0 0 244.8 244.8">
  <g id="tulip_sol_2" transform="translate(-13929.7 -7967.946)">
    <path id="Main_copy_10" d="M0,121.252C0,188.064,54.44,242.5,121.252,242.5S242.5,188.064,242.5,121.252,188.064,0,121.252,0,0,54.44,0,121.252Z" transform="translate(13930.948 7969.194)" fill="#c44de5"/>
    <g id="Main_copy_14" transform="translate(13929.7 7967.946)">
      <path id="Path_472526" data-name="Path 472526" d="M0,122.4c0,67.444,54.954,122.4,122.4,122.4s122.4-54.954,122.4-122.4S189.841,0,122.4,0,0,54.954,0,122.4Z" fill="none"/>
      <path id="Path_472527" data-name="Path 472527" d="M122.4,11A111.4,111.4,0,1,0,233.8,122.4,111.526,111.526,0,0,0,122.4,11m0-11c67.441,0,122.4,54.954,122.4,122.4S189.846,244.8,122.4,244.8,0,189.844,0,122.4,54.959,0,122.4,0Z" fill="#1ae5ae"/>
    </g>
    <g id="TULIP_SOL" transform="translate(13997.052 8014.476)">
      <g id="Layer_2" data-name="Layer 2" transform="translate(0 0.004)">
        <g id="Layer_1" data-name="Layer 1" transform="translate(0 0)">
          <path id="Path_473139" data-name="Path 473139" d="M528.588,928s7.936,49.056-50.86,55.91l-9.018-10.821V928h13.708v23.085S497.928,929.449,528.588,928Z" transform="translate(-420.215 -831.984)" fill="#fff" stroke="#c44de5" stroke-width="1.85"/>
          <g id="Group_9315" data-name="Group 9315" transform="translate(48.495 96.016)" opacity="0.2">
            <path id="Path_473140" data-name="Path 473140" d="M528.588,928s7.936,49.056-50.86,55.91l-9.018-10.821V928h13.708v23.085S497.928,929.449,528.588,928Z" transform="translate(-468.71 -928)" fill="#fff" stroke="#c44de5" stroke-width="1.85"/>
          </g>
          <path id="Path_473141" data-name="Path 473141" d="M71.047,968.313s2.525-52.3-55.91-57.713C15.138,910.6,11.532,962.9,71.047,968.313Z" transform="translate(-13.534 -816.385)" fill="#fff" stroke="#c44de5" stroke-width="1.85"/>
          <path id="Path_473143" data-name="Path 473143" d="M313.369,97.822c12.887-13.923,39-54.57,2.039-94.883a9.083,9.083,0,0,0-13.1-.288c-13.71,13.668-39.357,52.282-.371,95.111a7.76,7.76,0,0,0,11.428.06Z" transform="translate(-252.174 -0.004)" fill="#fff" stroke="#c44de5" stroke-width="1.85"/>
          <path id="Path_473144" data-name="Path 473144" d="M158.964,171.8c6.534-17.808,15-65.377-34.627-88.36a9.083,9.083,0,0,0-12.2,4.773c-7.395,17.888-16.209,63.4,36.256,87.928a7.76,7.76,0,0,0,10.569-4.341Z" transform="translate(-95.501 -74.055)" fill="#fff" stroke="#c44de5" stroke-width="1.85"/>
          <path id="Path_473145" data-name="Path 473145" d="M434.959,173.536c-6.534-17.809-15-65.377,34.627-88.36a9.083,9.083,0,0,1,12.2,4.773c7.395,17.888,16.21,63.4-36.256,87.928a7.76,7.76,0,0,1-10.569-4.341Z" transform="translate(-385.465 -75.615)" fill="#fff" stroke="#c44de5" stroke-width="1.85"/>
        </g>
      </g>
    </g>
  </g>
</svg>
