<?xml version="1.0" encoding="UTF-8"?>
<svg id="Camada_1" xmlns="http://www.w3.org/2000/svg" version="1.1" viewBox="0 0 128 128">
  <!-- Generator: Adobe Illustrator 29.3.1, SVG Export Plug-In . SVG Version: 2.1.0 Build 151)  -->
  <defs>
    <style>
      .st0 {
        fill: #060302;
      }

      .st1 {
        fill: #d1ac80;
      }

      .st2 {
        fill: #f3dabc;
      }

      .st3 {
        fill: #ebc390;
      }

      .st4 {
        fill: #fbca01;
      }

      .st5 {
        fill: #fbf0e4;
      }

      .st6 {
        fill: #fff;
      }

      .st7 {
        fill: #da8e2e;
      }

      .st8 {
        fill: #fde38f;
      }
    </style>
  </defs>
  <circle class="st6" cx="64" cy="64" r="64"/>
  <path class="st8" d="M107.1,111.1c-.1-.9-.2-1.7-.1-2.4,0-1.3,0-2.1,0-2.4-.2-3.5-.7-7.1-1.4-10.6-.2-.8-.4-1.7-.7-2.5-.6-1.9-1-3.4-2.1-5,0,0,0-.2,0-.3.9-1.5,1.7-3.2,1.9-4.8.2-.9,0-1.8-.3-2.8,0-.1,0-.2,0-.3.6-1.1,1.4-2.1,1.8-3.2,0-.2.3-.8.7-1.6.5-1,1-2.6,1.7-4.9.3-1,.5-2.2.6-3.3,0-.7.3-1.5.7-2.4.4-.8.8-1.9,1.4-3.3.6-1.3,1-3,1.3-5.2.8-5.6,0-10.9-2.3-15.9-1-2.1-1.9-3.8-2.7-5-3.1-4.4-6.8-8-11-10.7-2.4-1.6-4.7-2.8-6.9-3.8-1-.4-2.4-1-4.2-1.7-1.6-.6-3-.9-4.4-1.3-1-.3-2.1-.6-3.4-.8-11.2-2.1-22.1-1.2-32.6,2.7-3.3,1.3-6.8,3.1-10.4,5.5-.4.3-.9.7-1.5,1.2-.1,0-.6.5-1.5,1.2-4.2,3.4-7.4,7.5-9.6,12.3-.5,1-.9,2.2-1.4,3.4-.4,1.3-.7,2.5-.9,3.6-.3,1.8-.4,2.7-.5,2.9-.2.9,0,2-.1,2.9,0,0,0,.2-.2.2-.3.1-.5.3-.7.5-3.8,3.8-4.5,9-3.2,14.2.6,2.2,1.6,4.2,3.1,5.8.7.7,1.4,1.1,2.4,1.7,0,0,.2.1.2.2.3.6.5,1.1.9,1.6,1.7,2.2,3.5,4.3,5.6,6.3.1.1.1.3,0,.4-.3.4-.7.8-1.1,1.2-.6.6-1,1-1.1,1.1-4.4,4.7-7.9,10-10.5,16.1-.2.5-.5,1.1-.7,1.8-2.6-3.3-4.7-6.5-6.3-9.6C.9,81.4-1.3,67.8,1,53.5c1.5-9,4.8-17.4,10.1-25.2,1.4-2,2.6-3.7,3.8-5.1C22.9,13.6,32.9,6.9,44.8,3.1c1.9-.6,4-1.1,6.2-1.6,13.3-2.7,26.2-1.4,38.6,4,1.9.8,3.8,1.8,5.7,2.9,12.7,7.2,21.9,17.7,27.8,31.4.2.4.8,2.3,2,5.7.4,1.1.7,2.2.9,3.3.3,1.4.7,3.1,1,4.4,2,11.9.8,23.4-3.6,34.4-3.6,9-9,16.9-16.3,23.6Z"/>
  <path class="st0" d="M107.1,111.1l-1.8,1.6c.3-2.8.4-5,.3-6.7-.2-3.5-.8-7.4-1.8-11.8-.2-1.1-.6-2.2-1.1-3.4,0-.4-.2-.8-.5-1.2,0,0-.1,0-.2,0-.9,1.6-1.8,3.3-2.7,5.1-.2.3-.4.7-.8,1.3-.4.7-.7,1.1-.7,1.4-.2,1.4-.3,4.3-.4,8.6,0,4,0,8.1,0,12.3-.3.3-.8.6-1.4.8,0,0,0,0,0,0,0,0,0,0,0,0v-16.6c0,0,.2-3,.2-3,0-.1,0-.1-.1,0-1.5,1.2-2.9,2.4-4.4,3.6-1.3,1.1-2.1,2.1-3.1,3.3-.4.6-.9.9-1.3.9-1.2.1-2.4.4-3.5.6-.1,0-.2,0-.2.2v1.9c0,0,1.1,14.3,1.1,14.3,0,0,0,.1,0,.1l-1.3.4c0,0,0,0,0,0l-1-14.5-.2-1.9c0-.1,0-.2-.2-.1-1.6.2-3.1.4-4.7.6-1,.1-1.9,0-2.6-.6,0,0-.4-.4-1-1.2-.6-.7-1.3-1.1-2.3-1.3-1-.2-2-.4-2.9-.7-1.7-.5-2.7-.8-2.9-.9-3-.9-5.2-1.6-6.6-2.1-1.6-.6-3.5-1.5-5.6-2.6-1.7-.9-3.5-2-5.2-3.3-2.8-2.1-5.4-4.2-7.8-6.5,0,0-.7-.7-2-1.9-.1,0-.2-.1-.3,0-.6.2-1.2.3-1.8.2-.1,0-.2,0-.1.2,2.1,4,3.1,8.1,3.1,12.3,0,2.2-1.2,3.1-2.8,4.4-.5.4-1,.9-1.3,1.3-.9,1.2-1.7,2.9-2.4,4.9-.4,1.3-1.3,3.6-2.7,6.8l-1.3-.9c.5-.9.8-1.6.9-1.8.9-2.4,1.7-4.4,2.2-6,.4-.9.7-1.8,1.2-2.5.6-1,1.1-1.7,1.7-2.2.8-.7,1.5-1.4,2.4-2.2.4-.4.6-.8.7-1.3,0-1.2,0-2.4-.1-3.5-.4-2.9-1.3-5.5-2.5-8-.5-1.4-1.3-2.3-2.3-2.9-1.2-.7-2.3-1.3-3.5-2.1,0,0-.1,0-.2,0-1.1,1-2.1,2.1-3.1,3.2-3.1,3.4-5.7,7.2-8,11.4-1,1.9-1.8,3.9-2.4,6l-1.2-1.4c.3-.7.5-1.3.7-1.8,2.5-6.1,6-11.5,10.5-16.1.1-.1.5-.5,1.1-1.1.4-.4.8-.8,1.1-1.2.1-.1,0-.3,0-.4-2-2-3.9-4.1-5.6-6.3-.4-.5-.6-1-.9-1.6,0-.1-.1-.2-.2-.2-1-.6-1.7-1-2.4-1.7-1.5-1.6-2.6-3.5-3.1-5.8-1.3-5.2-.7-10.4,3.2-14.2.2-.2.5-.4.7-.5,0,0,.1-.1.2-.2.2-.9-.1-1.9.1-2.9,0-.1.2-1.1.5-2.9.2-1.1.5-2.3.9-3.6.4-1.3.9-2.4,1.4-3.4,2.2-4.7,5.4-8.8,9.6-12.3.9-.7,1.4-1.1,1.5-1.2.6-.5,1.1-.9,1.5-1.2,3.6-2.4,7-4.3,10.4-5.5,10.5-4,21.4-4.9,32.6-2.7,1.3.2,2.4.5,3.4.8,1.5.4,2.8.7,4.4,1.3,1.9.7,3.3,1.3,4.2,1.7,2.2,1,4.5,2.2,6.9,3.8,4.2,2.7,7.8,6.3,11,10.7.8,1.2,1.8,2.8,2.7,5,2.3,5.1,3.1,10.4,2.3,15.9-.3,2.2-.7,3.9-1.3,5.2-.6,1.4-1.1,2.5-1.4,3.3-.4.9-.7,1.7-.7,2.4-.1,1.1-.4,2.3-.6,3.3-.6,2.3-1.2,3.9-1.7,4.9-.4.8-.7,1.4-.7,1.6-.4,1.1-1.2,2.1-1.8,3.2,0,0,0,.2,0,.3.4,1,.5,1.9.3,2.8-.3,1.7-1.1,3.3-1.9,4.8,0,0,0,.2,0,.3,1.1,1.6,1.5,3,2.1,5,.3.9.5,1.7.7,2.5.7,3.6,1.2,7.1,1.4,10.6,0,.3,0,1.1,0,2.4,0,.8,0,1.6.1,2.4ZM49.5,21.4c-4.7,2.7-8.5,6.6-11.4,11.4-1.1,1.7-1.9,3.3-2.4,4.6-.3.7-.5,1.3-.7,1.8-.3.7-.5,1.3-.6,1.8-1,3.9-1.8,7.8-2.2,11.9-.3-.3-.5-.7-.4-1.3,0-2.5.3-4.8.6-6.7.4-2.3.9-4.4,1.5-6.2,1.8-4.8,4.5-9.1,8.1-12.9,2.1-2.2,4.5-4,7-5.5.2-.1.5-.3.7-.6.1-.1,0-.2,0-.1-.4.1-.7.3-1.1.5-5,1.6-9.6,3.9-13.8,7-4.1,3-7.4,6.6-9.9,10.8-1.7,2.9-2.9,6.1-3.6,9.6-.1.7-.2,1.4-.2,2,0,.7-.1,1.3-.2,2,0,.1,0,.2.2.2,0,0,0,0,0,0h3.6c-.8.4-1.5.7-2,.8-1.1.2-1.1.5,0,.8.2,0,.7.3,1.3.7.4.2.7.5,1,.8,1.9,2,3.1,4.2,3.6,6.8.4,2.1.5,4.4.2,6.9-.2.5-.4,1.1-.6,1.6-.2.8-.4,1.3-.6,1.6-.6,1.2-1.4,2.1-2.5,2.8-.2.2-.2.2,0,.3l6,.4c.7,1.1,1.6,1.9,2.6,2.6,3.1,1.9,4.8,3,5.1,3.2.8.5,1.1,1.3,1,2.2,0,.1,0,.3.2.3,5.2,2.6,10.5,4.6,16,5.9,3.7.9,6.9,1.5,9.7,1.8,4.6.6,9.7.5,15.4,0,.8,0,1.8-.2,2.8-.4,1.2-.2,2.1-.4,2.7-.6,4-.9,7.7-2.6,11-4.9.5-.3.9-.7,1.4-1.2,0,0,.5-.5,1.3-1.3,1.8-1.7,3.2-3.7,4.3-5.9,2.6-4.8,3.8-10,3.6-15.4l-.5-3.4c0,0,0-.1-.1-.1,0,0,0,0,0,0-1.6,1.4-3.5,2.2-5.7,2.1-2.2,0-4.1-.8-5.7-2.3-1.1-.8-1.9-1.9-2.4-3.4-.8-2.2-1-4.4-.5-6.5.5-2,1.7-3.7,3.5-5.1,1.3-.6,2.6-1.1,4-1.3,0,0,.1,0,.1-.2,0,0,0,0,0,0-1-.9-2-1.8-3.1-2.5-1.2-.8-2.6-1.3-4.1-1.8-.8-.2-1.9-.3-3.2-.4-1.7,0-2.8,0-3.2,0-7.7.5-15.2,1.8-22.6,3.9-1.2.4-2.1.7-3.1,1-.6.1-1.3.4-2.3.8-1.4.5-2.7,1.1-4.1,1.7-.4.2-.4.3,0,.3,1.1,0,2.2.3,3.4.7,4.2,1.5,6.9,4.3,7.9,8.6.9,4.2-.1,7.8-3.2,10.8-3,2.8-6.7,4-10.9,3.7-4.3-.4-7.6-2.3-10-5.9-.9-1.4-1.5-3-1.8-5.1,0-.3,0-.7,0-1.1,0-.7,0-1,0-1.1,0-.1,0-.1-.2,0-.3.2-.6.6-.8.9-1.5,2.2-2.7,4.4-3.7,6.7-.3.8-.4,1.4-.7,2.1-.4.9-.4,2-.8,3-.1.3-.2.8-.3,1.4-.1,1-.3,2.2-.6,3.5,0,.2-.2.2-.6.2v-4.2c.2-.7.2-1.4.2-2,0-.6,0-1.3,0-2-.1-1.3-.2-2.7-.5-4-.3-1.4-.5-2.2-.7-2.5-.6-1.2-1.3-2.4-2.1-3.4-.2-.2-.5-.6-1.1-1-.4-.3-.7-.7-1-1.2,1.2.2,2.1.8,2.9,1.7.5.6,1,1.2,1.6,1.9.7,1.2,1.2,2.2,1.3,3,.2,1.4.5,2.6.7,3.5,0,.1,0,.1.1,0,.5-1.2.9-2,1.1-2.4.3-.8.7-1.6,1.2-2.3,1.7-2.9,3.8-5.4,6.3-7.7.7-.7,1.4-1.2,1.8-1.5.7-.4,1.3-.9,2-1.4,1-.7,2.1-1.4,3-1.9,4-2.3,8.2-4.1,12.4-5.4,7.8-2.4,15.8-3.9,24.2-4.7,1.8-.2,4.6-.1,8.4,0,2.3.2,5,.7,8.1,1.5,2.2.9,4.3,2.1,6.2,3.7.2.1.2.1.1,0-.1-.4-.4-.8-.7-1.4-2.2-3.7-4.8-6.9-7.7-9.6-.5-.5-1.1-1-1.8-1.4-1.6-1.2-3.1-2.4-4.6-3.3-2.4-1.4-4.8-2.6-7.4-3.6-.9-.4-1.7-.6-2.2-.8-.8-.2-1.5-.4-2.2-.7-.3-.1-1.2-.3-2.6-.7-.7-.1-1.6-.3-2.6-.6-3.8-.8-7.8-1.1-12.2-1-2.9,0-4.9.2-7,.8-1,.3-1.9.4-2.7.8-.3.1-.6.3-1,.4-.7.2-1.2.4-1.5.6-1,.5-2,1.1-3.1,1.7ZM109.6,61.7c0,.2,0,.2.1,0,.4-.6.5-1.3.7-1.9.9-3.1,1.3-6.3,1-9.7-.4-5.3-3.4-9.6-8.3-11.5-1.6-.6-3.2-1.1-4.7-1.4-.1,0-.2,0,0,.1.2.2.5.5,1,.9.4.3.9.9,1.7,1.9,1.4,1.8,2.2,2.8,3.1,4.4.8,1.3,1.6,3,2.6,4.8.3.5.5,1.2.7,1.9,0,.4.3,1,.5,1.9.3.8.5,1.8.7,2.9.4,1.9.7,3.8.8,5.7ZM107.6,55.7c0-.4,0-.9-.2-1.7,0-.1,0-.1-.2,0-.4.3-.8.7-1.2,1.1-.4.5-.8.8-1.2,1-.9.4-1.7.7-2.6.9-.7.1-1.5-.1-2.3-.3-1.9-.6-3.3-1.8-4-3.6-.2-.6-.4-1.3-.4-2.1,0-.9,0-1.6.1-2.2.7-3.3,3.2-4.6,6.5-4.8.2,0,.3-.1.2-.3l-.3-.5c0-.2-.3-.3-.5-.3-3.6-.1-5.8,1.5-6.8,4.8-.9,3-.5,5.7,1.4,8.2.6.9,1.4,1.5,2.2,2,3.1,1.6,6.1,1.3,8.7-1.2.3-.3.5-.6.5-.7ZM48,47.7c-.7.6-1.5.9-2.1,1.5-.9.7-1.7,1.5-2.7,2.2-.2.2-.5.5-.6.9-1,2.4-1.1,4.7-.2,7,.8,1.9,1.8,3.3,3.1,4.4,1.4,1.1,2.5,1.8,3.3,2.2,1.2.5,2.2.8,3,.9,2.2.2,4.3,0,6.3-.8,1-.3,2-.9,2.8-1.5.9-.7,1.7-1.5,2.4-2.2.7-.8,1.1-1.7,1.4-2.7.9-3.5.3-6.8-2-9.7-1.1-1.4-2.4-2.5-3.9-3.1-2.1-.9-4.4-1.1-6.8-.7-1.6.3-2.9.8-4,1.7ZM104.1,49.8c.6-.6.5-1.8-.4-2.8-.9-1-2.1-1.3-2.7-.7-.6.6-.5,1.8.4,2.8.9,1,2.1,1.3,2.7.7ZM22.8,73.6c3.1-.3,5.1-4.9,4.5-10.2s-3.6-9.3-6.6-8.9h0c-3.1.3-5.1,4.9-4.5,10.2.6,5.3,3.6,9.3,6.6,8.9h0ZM29.1,78.5c.2-.7.5-.9,1-1.2.7-.4.7-.6-.1-.8-1.2-.3-2.5-.4-3.8-.3-.5,0-1,0-1.4,0,0,0-.5,0-1.4-.2-.1,0-.1,0,0,.1.2.3.4.6.6,1,1.5,1.9,3,3.5,4.4,4.8,0,0,.1,0,.1,0,0-1.1.3-2.2.7-3.3ZM37.9,81.9c-1.9-1-3.7-2-5.1-3.2-.4-.3-.7-.4-.9-.4-.9.1-1.4.5-1.6,1.4-.2,1-.4,2.1-.5,3.2,0,.1,0,.2.1.3,2.7,1.8,4,2.9,6.2,3.2,1.4.2,1.5-.6,1.7-1.9.2-.9.4-1.5.4-1.8,0-.3,0-.7-.4-.9ZM88.8,93.9c.3.7.3,1.5-.1,2.2-.6,1.2-1.7,3.3-3.1,6.3,0,0-.3.6-.8,1.7-.3.6-.6,1.3-.9,2.3,0,.1,0,.2.1.1.7-.2,1.7-.5,2.5-.5.2,0,.4,0,.5,0,.2,0,.3-.2.4-.3.9-1.4,1.7-2.3,2.2-2.7,2.3-1.9,4.1-3.3,5.4-4.5.6-.5,1.2-1.2,1.7-1.9.6-1.1,1.3-2.2,2-3.5,0-.1.3-.6.8-1.5.2-.4.5-.9.8-1.5.6-1,1.3-2.4,2.2-4.4.6-1.1,1-2.2,1.1-3.2,0-.7-.1-.7-.6-.2-2.6,3.1-5.8,5.4-9.5,7.1-.1,0-1,.4-2.6,1.1-1,.4-2.2.6-3.2,1-.2,0-.2.2-.1.4l1.5,2.2ZM87.4,94.2l-1.8-2.4c0,0-.1-.1-.2,0-1.2.3-2.7.5-4.6.7-6.2.7-12.2.6-18-.3-.9-.1-2-.4-3.1-.6-.9-.1-1.6-.3-2.3-.5-1.3-.4-2.6-.7-3.9-.9-1.6-.5-3.3-1.1-4.9-1.5-1.2-.4-4.2-1.6-9-3.8-.1,0-.2,0-.2.1l-.3,1.3c0,.1,0,.2,0,.3.2.5.7,1,1.3,1.6,1.2,1.1,2.2,2.2,3.6,3.3,2.8,2.3,5.7,4.3,8.7,6.2,1.5.9,3.1,1.7,4.6,2.3,1.3.5,2.9,1.1,4.8,1.8,2.5.8,4.7,1.5,6.7,2,1.5.4,2.9.9,4.4,1.4.3,0,.5.3.7.5.3.4.6.9,1,1.3.8.9,1.6.6,3,.5,1.2-.2,2.4-.3,3.7-.5.1,0,.2,0,.2-.2,1.2-2.4,2.3-4.7,3.5-7.1,0,0,.4-.7,1.2-2.1.6-1.1.9-2.1,1-3.2Z"/>
  <path class="st6" d="M102.5,36.5c-2.7-3.4-5.7-6.2-8.9-8.3-10.6-7.1-22.3-10-35.3-8.5-2.4.3-4.6.7-6.6,1.2-.1,0-.5.2-1.1.4-.4.2-.8.2-1.1.2,1-.6,2-1.1,3.1-1.7.3-.2.8-.4,1.5-.6.4-.1.8-.3,1-.4.8-.4,1.7-.5,2.7-.8,2.1-.6,4.1-.7,7-.8,4.3-.1,8.4.2,12.2,1,1.1.2,2,.4,2.6.6,1.4.3,2.3.5,2.6.7.7.3,1.5.6,2.2.7.6.1,1.3.4,2.2.8,2.5,1,5,2.2,7.4,3.6,1.5.8,3,2.1,4.6,3.3.7.5,1.2,1,1.8,1.4,3,2.7,5.5,5.9,7.7,9.6.3.6.6,1,.7,1.4,0,.2,0,.2-.1,0-1.9-1.6-4-2.9-6.2-3.7Z"/>
  <path class="st3" d="M102.5,36.5c-3-.8-5.7-1.3-8.1-1.5-2-1.8-4-3.3-6.1-4.5-2.7-1.5-4.5-2.5-5.6-2.8-2.4-.8-4.3-1.4-5.6-1.8-1.8-.5-3.8-.9-6-1.1-7.2-.7-14.3,0-21.5,2.1-4.1,1.2-8,3.2-11.6,6,2.9-4.9,6.7-8.7,11.4-11.4.3,0,.7,0,1.1-.2.6-.2,1-.4,1.1-.4,1.9-.5,4.1-.9,6.6-1.2,12.9-1.5,24.7,1.3,35.3,8.5,3.2,2.2,6.2,4.9,8.9,8.3Z"/>
  <path class="st1" d="M32.1,52.9l-.2,2.9c-.6-.7-1.1-1.3-1.6-1.9-.8-.9-1.7-1.4-2.9-1.7-.8-.5-1.8-.8-2.9-.7h-3.6c-.1.1-.2,0-.2,0,0,0,0,0,0,0,.1-.7.2-1.4.2-2,0-.7.1-1.3.2-2,.7-3.5,1.9-6.7,3.6-9.6,2.5-4.2,5.8-7.8,9.9-10.8,4.2-3.1,8.8-5.4,13.8-7,.4-.1.7-.3,1.1-.5.2,0,.2,0,0,.1-.2.2-.4.4-.7.6-2.6,1.5-4.9,3.3-7,5.5-3.6,3.8-6.3,8.1-8.1,12.9-.7,1.8-1.2,3.9-1.5,6.2-.3,2-.5,4.2-.6,6.7,0,.6.1,1,.4,1.3Z"/>
  <path class="st2" d="M94.4,35c-3.8-.2-6.6-.2-8.4,0-8.3.7-16.4,2.3-24.2,4.7-4.3,1.3-8.4,3.1-12.4,5.4-1,.5-2,1.2-3,1.9-.7.5-1.3.9-2,1.4-.5.3-1.1.8-1.8,1.5-2.5,2.3-4.6,4.9-6.3,7.7-.5.8-.9,1.6-1.2,2.3-.2.4-.5,1.2-1.1,2.4,0,.1,0,0-.1,0-.2-.9-.4-2-.7-3.5-.1-.8-.6-1.8-1.3-3l.2-2.9c.4-4.1,1.1-8,2.2-11.9.1-.5.3-1,.6-1.8.2-.4.4-1,.7-1.8.5-1.3,1.3-2.8,2.4-4.6,3.6-2.8,7.5-4.8,11.6-6,7.1-2.1,14.3-2.8,21.5-2.1,2.2.2,4.2.6,6,1.1,1.3.4,3.2,1,5.6,1.8,1.1.4,2.9,1.3,5.6,2.8,2.1,1.2,4.1,2.7,6.1,4.5Z"/>
  <path class="st7" d="M96.6,42.6h0c0-.1-.1-.1-.1,0h0c0,0,0,0,0,0-1.9,0-3.6.1-5.2.3-4.4.5-9,1.2-13.9,2.1-2.5.4-5,1.1-7.5,1.9-.2,0-.7.3-1.6.7-.8.4-1,.9-.9,1.7,0,.5,0,1.3,0,2.6,0,.3-.2.5-.5.8,0,0-.1.2-.1.3,0,.3-.2.6-.4.7-1.1-4.3-3.7-7.2-7.9-8.6-1.2-.4-2.3-.6-3.4-.7-.5,0-.5-.1,0-.3,1.4-.6,2.7-1.2,4.1-1.7,1-.4,1.8-.6,2.3-.8,1.1-.3,1.9-.6,3.1-1,7.4-2.1,14.9-3.4,22.6-3.9.5,0,1.5,0,3.2,0,1.3,0,2.4.1,3.2.4,1.6.4,2.9,1,4.1,1.8,1.1.7,2.1,1.5,3.1,2.5,0,0,0,.2,0,.2,0,0,0,0,0,0-1.4.2-2.7.7-4,1.3Z"/>
  <path class="st1" d="M109.6,61.7c-.2-1.9-.5-3.8-.8-5.7-.2-1.1-.5-2.1-.7-2.9-.3-.9-.5-1.5-.5-1.9-.2-.7-.4-1.3-.7-1.9-1-1.9-1.8-3.5-2.6-4.8-.9-1.6-1.8-2.6-3.1-4.4-.8-1-1.3-1.6-1.7-1.9-.5-.4-.8-.7-1-.9,0-.1,0-.1,0-.1,1.5.3,3.1.7,4.7,1.4,4.9,1.9,7.9,6.3,8.3,11.5.2,3.4,0,6.6-1,9.7-.2.7-.3,1.4-.7,1.9,0,.1-.1.1-.1,0Z"/>
  <path class="st4" d="M96.6,42.6c-1.8,1.4-3,3.1-3.5,5.1-.5,2.2-.4,4.3.5,6.5.6,1.5,1.4,2.6,2.4,3.4.4,1.6.9,2.6,1.6,3.2,1.1.9,2.6,1.3,4.6,1.4,1.6,0,2.7,0,3.4-.2.8-.3,1.7-.5,2.5-.7.1,5.5-1.1,10.6-3.6,15.4l-.5-.2c-.1,0-.2,0-.3,0-1,1.1-2.1,2.1-3.3,2.9-4.1,2.9-8.5,5-13.2,6.4-8.1,2.3-16.1,2.6-24.2.7-1.8-.4-3.9-1-6.1-1.9-2.8-1-5.6-2.4-8.5-4.1-2.5-1.5-4.5-2.9-5.6-5.6-.7-1.6-1.2-3.3-.1-4.8.2-.3.5-.5.8-.6,1.8-.2,4.1.6,5.2.8,3.1.6,6.1.5,9-.3.6-.2,1.3-.4,2-.7,1.5-.7,2.5-1.4,3.3-2.7.2-.3.3-.7.2-1.1,0-.5-.1-.9-.2-1.3,3.1-3,4.1-6.5,3.2-10.8.3,0,.4-.3.4-.7,0-.1,0-.2.1-.3.3-.3.5-.6.5-.8,0-1.3,0-2.1,0-2.6,0-.9,0-1.3.9-1.7.9-.4,1.4-.6,1.6-.7,2.5-.9,5-1.5,7.5-1.9,4.9-.8,9.6-1.5,13.9-2.1,1.6-.2,3.3-.3,5.2-.3,0,0,0,0,0,0h0c0-.1.1-.1.1,0h0ZM90.6,57.7c0-.4-.5-.7-1.1-.7h0c-.5,0-.9.5-.8.9h0c0,.4.5.7,1.1.7.5,0,.9-.5.8-.9h0ZM85.3,59.1c0-.4-.4-.8-.9-.8-.5,0-.9.3-.9.8h0c0,.4.4.8.9.8.5,0,.9-.3.9-.8h0ZM100.9,69c-.5,0-.8,0-1,0-2.7-.9-4.4-1.4-5.1-1.6-2.6-.8-5.1-.7-7.5.3-1,.4-2.2,1-3.1,1.6-.2.2-1.4,1-3.5,2.3-1.1.8-2,1.3-2.7,1.5-2.1.8-4.5.9-6.6,1-2,0-3.7.5-5.1,1.5-.7.4-1.3.9-2,1.3-.4.3-.7.6-1,1-.2.4-.1.8.2,1,0,0,0,0,0,0,.3.1.5,0,.9-.2,1-.7,1.7-1.2,2.2-1.6.5-.3,1.2-.7,2.2-1.1.6-.2,1.4-.4,2.4-.5,1.6,0,3.1-.2,4.3-.4,2-.2,3.8-.9,5.5-2,1.4-1,2.8-1.9,4.2-2.9.8-.5,1.4-.7,2.1-1.1.5-.3,1-.5,1.6-.6,2.2-.5,4.4-.4,6.6.3.4.1,1.3.5,2.7,1.2.4.2,1.1.3,2.1.2.8,0,1.5,0,2.2-.3.6-.3,1.1-.5,1.6-.7.4-.2.6-.5.4-.9,0,0,0,0,0-.1-.3-.5-.7-.6-1.2-.4-1.3.7-2.2,1-2.6,1Z"/>
  <path class="st6" d="M107.6,55.7c0,.2-.2.4-.5.7-2.6,2.5-5.7,2.9-8.7,1.2-.9-.5-1.6-1.1-2.2-2-1.8-2.5-2.3-5.2-1.4-8.2,1-3.3,3.3-4.9,6.8-4.8.2,0,.4.1.5.3l.3.5c.1.2,0,.3-.2.3-3.2.1-5.7,1.5-6.5,4.8-.1.6-.2,1.3-.1,2.2,0,.8.2,1.5.4,2.1.7,1.8,2.1,3,4,3.6.7.2,1.6.5,2.3.3.9-.2,1.7-.5,2.6-.9.3-.2.7-.5,1.2-1,.4-.4.8-.8,1.2-1.1,0,0,.2,0,.2,0,.2.8.2,1.4.2,1.7Z"/>
  <path class="st6" d="M48,47.7c1.1-.9,2.4-1.5,4-1.7,2.4-.4,4.7-.2,6.8.7,1.5.6,2.8,1.6,3.9,3.1,2.3,3,2.9,6.2,2,9.7-.3,1-.7,1.9-1.4,2.7-.6.8-1.4,1.5-2.4,2.2-.9.7-1.8,1.2-2.8,1.5-2,.7-4.1.9-6.3.8-.7,0-1.7-.4-3-.9-.8-.3-1.9-1.1-3.3-2.2-1.3-1-2.3-2.5-3.1-4.4-.9-2.3-.9-4.7.2-7,.2-.4.4-.7.6-.9.9-.8,1.8-1.5,2.7-2.2.7-.6,1.4-.9,2.1-1.5ZM63.4,56.1c0-4.9-4.4-8.9-9.8-8.9h0c-5.4,0-9.7,4-9.7,9h0c0,4.9,4.4,8.9,9.8,8.9,5.4,0,9.7-4,9.7-9Z"/>
  <ellipse class="st6" cx="102.6" cy="48.1" rx="1.5" ry="2.4" transform="translate(-6 80.4) rotate(-41.7)"/>
  <path class="st0" d="M63.4,56.1c0,4.9-4.3,8.9-9.7,9-5.4,0-9.7-3.9-9.8-8.9,0-4.9,4.3-8.9,9.7-9h0c5.4,0,9.7,3.9,9.8,8.9h0ZM60,54.9c.8-.8.5-2.4-.6-3.5,0,0,0,0,0,0-1.1-1.2-2.7-1.5-3.5-.7-.8.8-.5,2.4.6,3.5h0c1.1,1.2,2.7,1.5,3.5.7Z"/>
  <ellipse class="st6" cx="57.9" cy="52.8" rx="2" ry="3" transform="translate(-20.4 56) rotate(-44.7)"/>
  <path class="st5" d="M27.4,52.2c.2.4.6.8,1,1.2.6.5.9.8,1.1,1,.8,1,1.6,2.2,2.1,3.4.1.3.4,1.2.7,2.5.3,1.3.4,2.7.5,4,0,.7,0,1.4,0,2,0,.7,0,1.4,0,2-1.4.2-2.8.1-4.2-.1.3-2.5.2-4.7-.2-6.9-.5-2.6-1.7-4.8-3.6-6.8-.3-.3-.7-.6-1-.8-.6-.4-1.1-.6-1.3-.7-1.1-.3-1.2-.6,0-.8.5-.1,1.2-.4,2-.9,1.1,0,2.1.2,2.9.7Z"/>
  <ellipse class="st1" cx="21.7" cy="64" rx="5.6" ry="9.6" transform="translate(-7 2.8) rotate(-6.4)"/>
  <path class="st7" d="M63,64.4c0,.4.1.9.2,1.3,0,.4,0,.7-.2,1.1-.8,1.3-1.8,2-3.3,2.7-.7.3-1.4.6-2,.7-2.9.8-5.9.9-9,.3-1.2-.2-3.4-1.1-5.2-.8-.3,0-.6.2-.8.6-1,1.4-.6,3.1.1,4.8,1.2,2.6,3.2,4.1,5.6,5.6,2.9,1.7,5.7,3.1,8.5,4.1,2.2.8,4.3,1.5,6.1,1.9,8.1,1.8,16.1,1.6,24.2-.7,4.7-1.4,9.1-3.5,13.2-6.4,1.2-.8,2.3-1.8,3.3-2.9,0,0,.2-.1.3,0l.5.2c-1.1,2.2-2.6,4.2-4.3,5.9-.8.8-1.2,1.2-1.3,1.3-.5.5-.9.8-1.4,1.2-3.3,2.4-7,4-11,4.9-.6.1-1.5.3-2.7.6-1,.2-1.9.3-2.8.4-5.7.6-10.8.6-15.4,0-2.7-.3-6-1-9.7-1.8-5.5-1.3-10.8-3.3-16-5.9-.1,0-.2-.2-.2-.3.1-.9-.2-1.6-1-2.2-.3-.2-2-1.2-5.1-3.2-1.1-.6-1.9-1.5-2.6-2.6.9-.4,1.5-1.2,1.6-2.4.3,0,.5,0,.6-.2.2-1.3.4-2.5.6-3.5,0-.6.2-1,.3-1.4.4-1,.4-2,.8-3,.3-.7.3-1.3.7-2.1,1-2.3,2.2-4.5,3.7-6.7.3-.4.5-.7.8-.9,0,0,.1,0,.2,0,0,0,0,.5,0,1.1,0,.4,0,.8,0,1.1.3,2,.9,3.7,1.8,5.1,2.4,3.5,5.7,5.5,10,5.9,4.2.4,7.8-.8,10.9-3.7Z"/>
  <ellipse class="st0" cx="89.7" cy="57.8" rx="1" ry=".8" transform="translate(-7 12.7) rotate(-7.8)"/>
  <path class="st7" d="M96.1,57.7c1.6,1.5,3.5,2.3,5.7,2.3,2.2,0,4.1-.7,5.7-2.1,0,0,.1,0,.2,0,0,0,0,0,0,0l.5,3.4c-.9.2-1.7.5-2.5.7-.7.2-1.8.3-3.4.2-1.9,0-3.4-.5-4.6-1.4-.7-.6-1.3-1.6-1.6-3.2Z"/>
  <ellipse class="st0" cx="84.4" cy="59.1" rx=".9" ry=".8" transform="translate(-.1 .1) rotate(0)"/>
  <path class="st0" d="M100.9,69c.4,0,1.2-.4,2.6-1,.4-.2.8,0,1.2.4,0,0,0,0,0,.1.1.4,0,.7-.4.9-.5.2-1,.4-1.6.7-.7.4-1.4.3-2.2.3-1,0-1.7,0-2.1-.2-1.4-.7-2.3-1-2.7-1.2-2.2-.7-4.4-.8-6.6-.3-.6.1-1.2.3-1.6.6-.7.4-1.3.6-2.1,1.1-1.4.9-2.8,1.9-4.2,2.9-1.7,1.1-3.5,1.8-5.5,2-1.2.1-2.7.3-4.3.4-.9,0-1.7.2-2.4.5-1,.4-1.7.7-2.2,1.1-.5.3-1.2.9-2.2,1.6-.3.2-.6.3-.9.2-.4-.2-.5-.7-.3-1,0,0,0,0,0,0,.3-.4.6-.8,1-1,.7-.4,1.3-.9,2-1.3,1.4-1,3.2-1.4,5.1-1.5,2.1,0,4.5-.2,6.6-1,.7-.3,1.6-.8,2.7-1.5,2.1-1.4,3.2-2.2,3.5-2.3.9-.6,2.1-1.2,3.1-1.6,2.4-1,4.9-1,7.5-.3.7.2,2.4.8,5.1,1.6.2,0,.5,0,1,0Z"/>
  <path class="st1" d="M28.7,68.3c1.3.2,2.7.3,4.2.1v4.2c-.3,1.2-.9,2-1.8,2.4l-6-.4c-.3,0-.3-.1,0-.3,1.1-.7,1.9-1.6,2.5-2.8.2-.3.4-.8.6-1.6.2-.6.4-1.1.6-1.6Z"/>
  <path class="st1" d="M30.1,77.3c-.5.2-.8.5-1,1.2-.4,1.1-.6,2.2-.7,3.3,0,.1,0,.1-.1,0-1.4-1.3-2.8-2.9-4.4-4.8-.3-.3-.5-.6-.6-1,0,0,0-.1,0-.1.8.1,1.3.2,1.4.2.4,0,.9,0,1.4,0,1.4,0,2.6,0,3.8.3.8.2.8.4.1.8Z"/>
  <path class="st1" d="M32.8,78.8c1.4,1.2,3.2,2.2,5.1,3.2.3.2.5.5.4.9,0,.2-.2.8-.4,1.8-.3,1.2-.3,2.1-1.7,1.9-2.2-.3-3.5-1.4-6.2-3.2,0,0-.1-.2-.1-.3,0-1.1.2-2.2.5-3.2.2-.9.7-1.3,1.6-1.4.2,0,.5.1.9.4ZM33,82c.3,0,1.1.4,2.5,1.1.5.2.7.1.8-.3,0-.1,0-.3-.2-.4-1-.8-1.9-1.4-2.7-1.8-.7-.3-1.6,0-1.6.9,0,.7,0,1.2,0,1.6,0,0,0,.2,0,.2,0,0,.2,0,.3,0,.1,0,.2-.1.2-.2l.2-1c0-.2.2-.3.4-.3Z"/>
  <path class="st0" d="M33,82c-.2,0-.4.1-.4.3l-.2,1c0,.1-.1.2-.2.2-.1,0-.2,0-.3,0,0,0,0-.1,0-.2,0-.4,0-1,0-1.6,0-1,.9-1.3,1.6-.9.8.4,1.7,1,2.7,1.8.1,0,.2.2.2.4,0,.4-.3.5-.8.3-1.4-.7-2.2-1.1-2.5-1.1Z"/>
  <path class="st5" d="M102.2,85.6c-2,2.4-4.3,4.3-7,5.5-.7.3-1.4.7-2.1,1-.5.2-1.2.5-2.2.9-.7.3-1.5.6-2.2.9l-1.5-2.2c-.1-.2,0-.3.1-.4,1-.4,2.3-.6,3.2-1,1.6-.6,2.4-1,2.6-1.1,3.8-1.7,7-4.1,9.5-7.1.4-.5.6-.4.6.2,0,1.1-.4,2.2-1.1,3.2Z"/>
  <path class="st7" d="M34.8,89.5c-2.9-1-5.5-.6-7.9,1.1-2.7,1.9-4.7,4.1-6.1,6.9-1.4,2.8-2.6,6.2-3.5,10l-2-2.3c.6-2.1,1.4-4.1,2.4-6,2.2-4.2,4.9-8,8-11.4,1-1.1,2.1-2.2,3.1-3.2,0,0,.1,0,.2,0,1.2.7,2.4,1.4,3.5,2.1,1,.6,1.8,1.5,2.3,2.9Z"/>
  <path class="st1" d="M53.4,90.1c.1.3.4.5.8.6,1.3.3,2.4.7,3.4,1,1.3.4,2.2.7,2.8.9,1.2.3,2.1.5,2.9.7,5.1,1.3,10.1,1.9,15,1.9,2.4,0,5.4-.3,9-1,0,1.1-.4,2.1-1,3.2-.8,1.4-1.1,2.1-1.2,2.1-1.1,2.4-2.3,4.8-3.5,7.1,0,0-.1.1-.2.2-1.2.2-2.5.4-3.7.5-1.4.2-2.2.4-3-.5-.4-.5-.8-.9-1-1.3-.2-.2-.4-.4-.7-.5-1.5-.4-2.9-1-4.4-1.4-2-.5-4.2-1.2-6.7-2-1.9-.6-3.5-1.2-4.8-1.8-1.5-.6-3.1-1.4-4.6-2.3-3-1.8-5.9-3.9-8.7-6.2-1.3-1.1-2.4-2.2-3.6-3.3-.7-.6-1.1-1.1-1.3-1.6,0,0,0-.2,0-.3l.3-1.3c0-.1.1-.2.2-.1,4.7,2.2,7.7,3.4,9,3.8,1.7.5,3.3,1,4.9,1.5Z"/>
  <path class="st1" d="M102.2,85.6c-.9,2-1.6,3.4-2.2,4.4-.3.5-.6,1-.8,1.5-.4.9-.7,1.4-.8,1.5-.7,1.3-1.4,2.4-2,3.5-.4.8-1.1,1.4-1.7,1.9-1.3,1.1-3.1,2.6-5.4,4.5-.5.4-1.2,1.3-2.2,2.7,0,.1-.2.2-.4.3-.1,0-.3,0-.5,0-.8,0-1.8.4-2.5.5-.1,0-.2,0-.1-.1.3-.9.7-1.7.9-2.3.5-1.1.8-1.7.8-1.7,1.4-3,2.5-5.1,3.1-6.3.4-.7.4-1.4.1-2.2.7-.4,1.4-.7,2.2-.9.9-.3,1.7-.6,2.2-.9.7-.3,1.4-.7,2.1-1,2.7-1.3,5-3.1,7-5.5Z"/>
  <path class="st1" d="M81.9,110.3c-4,.6-7.9.7-11.6.2-2.6-.3-5.7-1-8.7-1.8-2.8-.8-4.8-1.4-5.8-1.8-1.9-.7-3.1-1.2-3.5-1.3-2.3-.8-4.7-2.1-6.9-3.1-.5-.3-1.1,0-1.4.5,0,0,0,0,0,0-.3.7-.5,1.5-.6,2.6-.3,2.4-.5,4.1-.7,5-.6,3.5-1.5,7.7-2.7,12.6,0,0,0,.1-.2.1,0,0,0,0,0,0-3.6-1.5-7-3.3-10.1-5.2,1.4-3.2,2.3-5.5,2.7-6.8.7-2.1,1.5-3.7,2.4-4.9.3-.4.7-.8,1.3-1.3,1.5-1.3,2.8-2.2,2.8-4.4,0-4.2-1-8.3-3.1-12.3,0-.1,0-.2.1-.2.6,0,1.2,0,1.8-.2.1,0,.2,0,.3,0,1.3,1.2,1.9,1.8,2,1.9,2.4,2.3,5,4.5,7.8,6.5,1.7,1.3,3.5,2.4,5.2,3.3,2.1,1.1,4,2,5.6,2.6,1.4.5,3.6,1.3,6.6,2.1.2,0,1.2.4,2.9.9,1,.3,2,.5,2.9.7.9.2,1.7.6,2.3,1.3.6.8,1,1.2,1,1.2.7.5,1.6.7,2.6.6,1.6-.2,3.1-.4,4.7-.6.1,0,.2,0,.2.1l.2,1.9Z"/>
  <path class="st4" d="M34.8,89.5c1.2,2.4,2,5.1,2.5,8,.2,1.2.2,2.3.1,3.5,0,.5-.3.9-.7,1.3-.8.8-1.6,1.5-2.4,2.2-.6.5-1.1,1.3-1.7,2.2-.4.7-.8,1.6-1.2,2.5-.6,1.6-1.3,3.6-2.2,6-.1.3-.4.9-.9,1.8-4.2-2.8-7.9-6-11.2-9.5.9-3.8,2.1-7.2,3.5-10,1.4-2.7,3.4-5,6.1-6.9,2.4-1.7,5.1-2.1,7.9-1.1Z"/>
  <path class="st7" d="M102.6,90.9c-.3.8-.5,1.5-.5,2.3,0,.9-.2,1.5-.4,1.9-.3.9-.7,1.7-1,2.4-.4.7-.6,1.4-.7,2-.2,1.1-.3,1.8-.3,2.1,0,1.8,0,3.9,0,6.3.1,2.9.3,5.8.3,8.8l-2.8,1.7c0-4.2,0-8.3,0-12.3,0-4.3.2-7.1.4-8.6,0-.3.3-.7.7-1.4.4-.6.6-1,.8-1.3,1-1.8,1.9-3.5,2.7-5.1,0,0,.1,0,.2,0,.3.4.5.8.5,1.2Z"/>
  <path class="st5" d="M87.4,94.2c-3.5.7-6.5,1-9,1-4.9,0-9.9-.6-15-1.9-.8-.2-1.7-.4-2.9-.7-.6-.2-1.6-.5-2.8-.9-1-.3-2.1-.7-3.4-1-.4-.1-.7-.3-.8-.6,1.3.3,2.6.6,3.9.9.7.2,1.4.3,2.3.5,1,.2,2.2.4,3.1.6,5.8.9,11.8,1,18,.3,1.8-.2,3.4-.4,4.6-.7.1,0,.2,0,.2,0l1.8,2.4Z"/>
  <path class="st4" d="M102.6,90.9c.5,1.2.9,2.3,1.1,3.4,1,4.4,1.6,8.3,1.8,11.8,0,1.6,0,3.9-.3,6.7-1.6,1.4-3.3,2.7-5.3,4,0-3-.2-5.9-.3-8.8-.1-2.4-.1-4.5,0-6.3,0-.3.1-1,.3-2.1.1-.6.4-1.3.7-2,.3-.6.7-1.4,1-2.4.1-.4.3-1,.4-1.9,0-.8.3-1.5.5-2.3Z"/>
  <path class="st1" d="M95.8,102.6c-1.2,1.2-2.4,2.3-3.5,3.5-.4.4-.8.8-1.2,1.1-.6.5-1.2.9-1.8,1.3-1.8,1-3.7,1.6-5.8,1.6v-1.9c0-.1,0-.2,0-.2,1.2-.3,2.4-.5,3.5-.6.4,0,.8-.3,1.3-.9,1-1.2,1.8-2.2,3.1-3.3,1.5-1.2,2.9-2.4,4.4-3.6,0,0,.1,0,.1,0v3Z"/>
</svg>