<?xml version="1.0" encoding="UTF-8" standalone="no"?>
<!DOCTYPE svg PUBLIC "-//W3C//DTD SVG 1.1//EN" "http://www.w3.org/Graphics/SVG/1.1/DTD/svg11.dtd">
<svg xmlns="http://www.w3.org/2000/svg" version="1.1" viewBox="0.00 0.00 400.00 400.00">
<g stroke-width="2.10" fill="none" stroke-linecap="butt">
<path stroke="#838181" vector-effect="non-scaling-stroke" d="
  M 43.83 324.29
  L 47.57 328.67"
/>
<path stroke="#edc797" vector-effect="non-scaling-stroke" d="
  M 47.57 328.67
  L 53.75 335.78"
/>
<path stroke="#fde580" vector-effect="non-scaling-stroke" d="
  M 53.75 335.78
  Q 69.08 352.47 88.68 365.56"
/>
<path stroke="#838181" vector-effect="non-scaling-stroke" d="
  M 88.68 365.56
  L 92.81 368.34"
/>
<path stroke="#e8d6c0" vector-effect="non-scaling-stroke" d="
  M 92.81 368.34
  Q 107.41 377.48 124.40 384.71
  A 0.43 0.43 0.0 0 0 124.99 384.42
  Q 130.48 361.53 133.33 345.18
  Q 134.05 341.06 135.38 329.59
  Q 135.94 324.76 137.16 321.55
  A 3.21 3.21 0.0 0 1 141.58 319.81
  C 148.49 323.20 156.15 327.12 163.29 329.63
  Q 165.43 330.38 174.35 333.83
  Q 179.43 335.79 192.60 339.61
  C 201.72 342.25 211.52 344.27 219.67 345.36
  Q 237.29 347.70 256.05 344.83"
/>
<path stroke="#838181" vector-effect="non-scaling-stroke" d="
  M 256.05 344.83
  L 259.22 390.29
  Q 259.24 390.57 259.50 390.48
  L 263.51 389.22
  Q 263.80 389.13 263.77 388.83
  L 260.64 344.19"
/>
<path stroke="#e8d6c0" vector-effect="non-scaling-stroke" d="
  M 260.64 344.19
  Q 270.31 343.95 278.80 339.14
  C 280.85 337.98 282.60 336.55 284.47 335.10
  Q 286.28 333.71 288.30 331.61
  Q 293.48 326.23 299.32 320.70"
/>
<path stroke="#838181" vector-effect="non-scaling-stroke" d="
  M 299.32 320.70
  L 299.05 372.65
  A 0.21 0.20 -9.8 0 0 299.33 372.84
  Q 302.15 371.80 303.62 370.22"
/>
<path stroke="#edc797" vector-effect="non-scaling-stroke" d="
  M 303.62 370.22
  L 312.39 364.88"
/>
<path stroke="#fde580" vector-effect="non-scaling-stroke" d="
  M 312.39 364.88
  Q 321.49 358.88 328.84 352.35"
/>
<path stroke="#838181" vector-effect="non-scaling-stroke" d="
  M 328.84 352.35
  L 334.59 347.30"
/>
<path stroke="#fef1c7" vector-effect="non-scaling-stroke" d="
  M 334.59 347.30
  Q 368.75 315.84 385.53 273.53
  Q 406.10 221.65 396.67 165.97
  C 395.96 161.78 394.60 156.62 393.70 152.18
  Q 392.70 147.21 390.90 141.94
  Q 385.46 126.05 384.64 124.13
  Q 357.38 60.13 297.90 26.16
  Q 289.05 21.11 280.03 17.19
  Q 221.87 -8.04 159.38 4.65
  Q 148.94 6.77 140.03 9.65
  Q 84.13 27.75 46.59 72.31
  Q 41.04 78.89 34.68 88.37
  Q 10.08 125.04 3.22 167.24
  Q -7.67 234.18 24.17 294.35
  Q 31.84 308.84 43.83 324.29"
/>
<path stroke="#827349" vector-effect="non-scaling-stroke" d="
  M 334.59 347.30
  Q 334.08 343.31 334.20 339.75
  Q 334.40 333.74 334.31 332.24
  Q 333.26 315.78 329.85 299.03
  Q 329.05 295.13 327.80 291.08
  C 325.93 285.02 324.60 280.50 321.14 275.57
  Q 320.84 275.13 321.11 274.67
  C 323.90 269.91 326.32 264.73 327.19 259.55
  Q 327.91 255.29 326.22 250.82
  Q 326.05 250.34 326.27 249.89
  C 328.02 246.34 330.51 243.30 331.86 239.77
  Q 332.26 238.72 334.20 234.79
  Q 336.43 230.27 339.45 219.60
  C 340.30 216.59 341.01 212.63 341.40 209.33
  Q 341.76 206.25 343.73 201.88
  Q 345.40 198.20 348.25 191.55
  Q 350.85 185.50 352.26 175.31
  Q 355.86 149.18 344.96 125.50
  Q 340.34 115.47 336.41 109.94
  Q 321.68 89.18 302.09 76.55
  Q 290.77 69.26 280.40 64.67
  Q 275.86 62.66 267.13 59.27
  C 262.09 57.32 257.91 56.51 253.29 55.14
  Q 248.68 53.76 242.79 52.63
  Q 190.09 42.57 140.92 61.16
  Q 125.40 67.03 108.55 78.37
  Q 106.50 79.75 103.77 82.03
  Q 103.28 82.44 99.11 85.85
  Q 79.43 101.99 69.05 124.14
  Q 66.78 129.00 64.80 134.90
  Q 62.80 140.88 62.00 146.13
  Q 60.71 154.54 60.59 155.08
  C 59.91 157.99 60.83 161.18 60.26 164.06
  A 0.99 0.98 83.1 0 1 59.73 164.74
  Q 58.54 165.30 57.41 166.43
  C 45.43 178.29 43.38 194.54 47.53 210.81
  Q 50.22 221.34 57.32 228.80
  C 59.42 231.01 61.83 232.38 64.88 234.20
  Q 65.33 234.47 65.55 234.94
  C 66.52 236.96 67.17 238.41 68.38 240.00
  Q 76.31 250.40 85.77 259.83
  A 0.99 0.99 0.0 0 1 85.83 261.17
  Q 84.23 263.05 82.35 264.83
  Q 79.31 267.71 78.78 268.28
  Q 57.99 290.08 46.09 318.71
  Q 45.06 321.18 43.83 324.29"
/>
<path stroke="#816702" vector-effect="non-scaling-stroke" d="
  M 328.84 352.35
  Q 330.10 339.18 329.66 331.51
  Q 328.74 315.12 324.07 294.72
  Q 322.94 289.76 320.50 284.18"
/>
<path stroke="#704918" vector-effect="non-scaling-stroke" d="
  M 320.50 284.18
  Q 320.33 282.51 318.82 280.43
  Q 318.52 280.02 318.29 280.46
  Q 314.25 287.93 309.74 296.48
  Q 309.00 297.90 307.27 300.63
  Q 305.27 303.79 305.11 304.98
  Q 304.21 311.71 303.90 331.75
  Q 303.60 350.66 303.62 370.22"
/>
<path stroke="#6c5841" vector-effect="non-scaling-stroke" d="
  M 299.32 320.70
  L 299.73 311.37
  Q 299.75 310.79 299.30 311.16
  Q 292.41 316.84 285.54 322.53
  C 281.52 325.86 278.87 329.10 275.86 332.86
  Q 273.79 335.45 271.93 335.68
  Q 266.35 336.37 260.85 337.66
  Q 260.33 337.78 260.35 338.32
  L 260.64 344.19"
/>
<path stroke="#6c5841" vector-effect="non-scaling-stroke" d="
  M 256.05 344.83
  L 255.53 338.99
  Q 255.48 338.46 254.95 338.53
  Q 247.61 339.58 240.25 340.54
  Q 235.39 341.17 232.13 338.65
  Q 231.91 338.48 228.92 334.81
  Q 226.25 331.54 221.82 330.69
  Q 217.20 329.80 212.61 328.40
  Q 204.71 325.98 203.55 325.64
  Q 189.48 321.52 182.79 318.97
  Q 175.29 316.11 165.36 310.87
  Q 157.18 306.55 149.08 300.61
  Q 135.89 290.94 124.81 280.25
  Q 124.55 280.00 118.63 274.37
  Q 118.16 273.92 117.55 274.13
  Q 114.65 275.11 112.01 274.75
  Q 111.36 274.66 111.67 275.25
  Q 121.50 294.00 121.47 313.79
  C 121.45 320.76 117.59 323.60 112.81 327.57
  Q 110.30 329.66 108.81 331.58
  Q 104.40 337.30 101.25 346.99
  Q 99.26 353.11 92.81 368.34"
/>
<path stroke="#816702" vector-effect="non-scaling-stroke" d="
  M 88.68 365.56
  Q 90.90 361.13 91.38 359.87
  Q 95.64 348.54 98.36 341.22
  Q 100.01 336.79 101.96 333.39
  Q 104.58 328.82 107.20 326.41
  Q 110.76 323.14 114.57 319.58
  Q 116.54 317.74 116.71 315.49
  Q 117.13 309.94 116.31 304.49
  Q 114.28 290.99 108.62 279.63"
/>
<path stroke="#704918" vector-effect="non-scaling-stroke" d="
  M 108.62 279.63
  Q 106.11 273.18 101.43 270.56
  Q 96.00 267.51 90.38 264.02
  A 0.50 0.49 39.2 0 0 89.77 264.08
  Q 84.80 268.85 79.94 274.17
  Q 65.42 290.07 55.09 309.86
  Q 50.35 318.95 47.57 328.67"
/>
<path stroke="#ebac18" vector-effect="non-scaling-stroke" d="
  M 108.62 279.63
  Q 95.17 275.13 83.78 283.06
  Q 71.30 291.76 64.82 304.53
  Q 58.04 317.88 53.75 335.78"
/>
<path stroke="#ebac18" vector-effect="non-scaling-stroke" d="
  M 320.50 284.18
  Q 319.22 287.74 318.82 291.31
  Q 318.37 295.43 317.70 297.27
  Q 316.09 301.66 314.59 304.69
  Q 312.90 308.09 312.35 310.95
  Q 311.38 315.94 311.29 317.53
  Q 310.83 326.14 311.40 337.25
  Q 312.09 350.85 312.39 364.88"
/>
<path stroke="#796349" vector-effect="non-scaling-stroke" d="
  M 154.58 67.02
  Q 132.66 79.91 119.02 102.65"
/>
<path stroke="#7d6f5f" vector-effect="non-scaling-stroke" d="
  M 119.02 102.65
  Q 113.73 110.82 111.42 116.91
  Q 110.13 120.31 109.28 122.41
  Q 107.89 125.81 107.31 127.95
  Q 102.41 146.06 100.46 165.16"
/>
<path stroke="#6c5841" vector-effect="non-scaling-stroke" d="
  M 100.46 165.16
  Q 98.98 163.80 99.07 160.98
  Q 99.43 149.16 100.84 140.01
  Q 102.50 129.21 105.68 120.66
  Q 114.12 97.96 131.11 80.34
  Q 141.13 69.96 153.14 63.16
  Q 154.22 62.55 155.24 61.38
  Q 155.81 60.74 155.00 61.03
  C 153.81 61.46 152.75 62.07 151.50 62.46
  Q 128.14 69.73 108.46 84.21
  Q 89.23 98.36 77.49 117.98
  Q 69.43 131.46 66.23 147.87
  Q 65.61 151.07 65.48 154.15
  Q 65.34 157.24 64.78 160.45
  A 0.58 0.58 0.0 0 0 65.37 161.13
  L 76.56 160.78"
/>
<path stroke="#817a73" vector-effect="non-scaling-stroke" d="
  M 76.56 160.78
  Q 72.74 163.11 70.27 163.64
  Q 64.96 164.78 70.33 166.12
  Q 71.46 166.41 74.48 168.28
  Q 76.27 169.39 77.71 170.89
  Q 86.48 180.06 88.93 192.07
  Q 90.96 202.04 89.58 213.54"
/>
<path stroke="#6c5841" vector-effect="non-scaling-stroke" d="
  M 89.58 213.54
  Q 88.57 216.01 87.74 218.64
  Q 86.61 222.27 85.87 223.69
  Q 83.04 229.18 77.99 232.44
  Q 76.88 233.15 78.19 233.23
  L 97.01 234.45"
/>
<path stroke="#704918" vector-effect="non-scaling-stroke" d="
  M 97.01 234.45
  Q 100.24 239.51 105.20 242.55
  Q 119.83 251.52 121.15 252.42
  Q 124.89 254.98 124.32 259.28
  A 0.96 0.95 -73.2 0 0 124.84 260.26
  Q 149.14 272.53 174.76 278.71
  Q 192.13 282.91 204.97 284.48
  Q 226.53 287.11 253.17 284.31
  Q 257.15 283.89 261.80 282.94
  Q 267.46 281.78 270.37 281.11
  Q 289.21 276.77 304.76 265.73
  Q 306.89 264.22 309.10 262.09
  Q 309.36 261.84 313.15 258.14
  Q 321.39 250.05 326.66 239.75"
/>
<path stroke="#816702" vector-effect="non-scaling-stroke" d="
  M 326.66 239.75
  Q 338.66 217.16 337.97 191.50"
/>
<path stroke="#704918" vector-effect="non-scaling-stroke" d="
  M 337.97 191.50
  L 336.43 180.96
  A 0.41 0.41 0.0 0 0 335.75 180.71
  Q 328.24 187.45 317.99 187.41
  Q 307.71 187.37 300.18 180.30"
/>
<path stroke="#816702" vector-effect="non-scaling-stroke" d="
  M 300.18 180.30
  Q 295.19 176.61 292.56 169.68
  Q 288.67 159.42 291.11 149.29
  Q 293.40 139.77 302.00 133.25"
/>
<path stroke="#704918" vector-effect="non-scaling-stroke" d="
  M 302.00 133.25
  Q 307.99 130.26 314.56 129.17
  A 0.46 0.46 0.0 0 0 314.80 128.39
  Q 310.16 124.02 305.03 120.72
  Q 299.49 117.16 292.15 115.23
  Q 288.29 114.21 282.12 114.13
  Q 274.19 114.02 272.00 114.17
  Q 236.04 116.64 201.40 126.46
  C 197.50 127.56 194.93 128.72 191.62 129.56
  Q 188.95 130.24 184.32 132.04
  Q 177.90 134.54 171.45 137.49
  Q 169.50 138.39 171.65 138.53
  Q 176.59 138.84 182.15 140.75
  Q 201.97 147.58 206.92 167.73"
/>
<path stroke="#816702" vector-effect="non-scaling-stroke" d="
  M 206.92 167.73
  Q 211.31 187.50 196.94 201.35"
/>
<path stroke="#704918" vector-effect="non-scaling-stroke" d="
  M 196.94 201.35
  Q 182.69 214.56 162.98 212.79
  Q 143.03 211.00 131.79 194.42
  Q 127.47 188.05 126.01 178.57
  Q 125.78 177.07 125.86 175.02
  Q 125.98 171.91 125.87 171.52
  Q 125.72 170.95 125.32 171.29
  Q 123.97 172.41 122.72 174.22
  Q 115.69 184.38 111.23 195.20
  C 110.22 197.65 110.02 199.71 109.13 201.83
  C 107.91 204.72 107.87 208.05 106.60 211.09
  Q 105.95 212.65 105.60 215.38
  Q 104.99 220.10 103.85 226.24
  Q 103.71 227.02 102.12 226.95"
/>
<path stroke="#6c5841" vector-effect="non-scaling-stroke" d="
  M 102.12 226.95
  L 102.56 213.86"
/>
<path stroke="#817a73" vector-effect="non-scaling-stroke" d="
  M 102.56 213.86
  Q 102.71 210.72 102.76 207.46
  Q 102.81 204.50 102.50 201.07
  C 102.13 196.98 101.95 192.69 100.99 188.53
  Q 99.52 182.18 98.82 180.65
  Q 96.13 174.80 92.17 169.91
  Q 91.36 168.91 88.77 166.70
  Q 86.87 165.08 85.71 163.06"
/>
<path stroke="#6c5841" vector-effect="non-scaling-stroke" d="
  M 85.71 163.06
  Q 91.11 164.18 94.70 168.32
  Q 96.98 170.96 99.71 174.24"
/>
<path stroke="#7d6f5f" vector-effect="non-scaling-stroke" d="
  M 99.71 174.24
  Q 103.20 179.91 103.82 183.72
  Q 104.91 190.40 105.88 194.52
  Q 106.01 195.03 106.23 194.55
  Q 108.80 189.14 109.65 187.08
  Q 111.16 183.37 113.38 179.75
  Q 121.58 166.38 133.07 155.60
  Q 136.54 152.34 138.84 150.82
  Q 141.94 148.76 145.01 146.57
  Q 149.90 143.07 154.46 140.50
  Q 173.31 129.88 193.24 123.76
  Q 229.78 112.53 268.75 109.20
  Q 277.17 108.48 294.97 109.34"
/>
<path stroke="#796349" vector-effect="non-scaling-stroke" d="
  M 294.97 109.34
  Q 305.95 110.26 320.18 114.07"
/>
<path stroke="#838181" vector-effect="non-scaling-stroke" d="
  M 320.18 114.07
  Q 330.50 118.10 339.57 125.77
  Q 340.36 126.44 340.00 125.47
  Q 339.38 123.82 337.83 121.19
  Q 327.50 103.66 313.62 91.16
  Q 311.17 88.94 308.12 86.68
  C 303.05 82.93 298.29 79.14 293.70 76.50
  Q 282.64 70.10 270.72 65.30
  Q 266.40 63.56 263.80 62.94
  Q 260.28 62.09 256.87 60.63
  Q 255.53 60.05 248.74 58.55
  Q 245.57 57.85 240.50 56.82
  Q 222.73 53.22 202.52 53.74
  C 193.48 53.97 187.21 54.34 180.62 56.17
  C 177.36 57.07 174.67 57.30 172.13 58.65
  Q 170.94 59.28 168.92 59.97
  Q 165.58 61.11 164.13 61.84
  Q 159.34 64.24 154.58 67.02"
/>
<path stroke="#f5e1c8" vector-effect="non-scaling-stroke" d="
  M 320.18 114.07
  Q 307.31 98.14 292.28 87.99
  Q 242.68 54.51 182.01 61.58
  Q 170.61 62.91 161.47 65.28
  Q 160.99 65.41 158.14 66.51
  Q 156.22 67.25 154.58 67.02"
/>
<path stroke="#efcfa6" vector-effect="non-scaling-stroke" d="
  M 294.97 109.34
  Q 285.73 101.04 275.88 95.38
  Q 263.39 88.19 258.45 86.49
  Q 247.08 82.55 241.02 80.89
  Q 232.55 78.56 222.25 77.54
  Q 188.66 74.22 155.21 83.99
  Q 135.96 89.61 119.02 102.65"
/>
<path stroke="#e2c39e" vector-effect="non-scaling-stroke" d="
  M 100.46 165.16
  L 99.71 174.24"
/>
<path stroke="#e6ceb2" vector-effect="non-scaling-stroke" d="
  M 85.71 163.06
  Q 81.90 160.51 76.56 160.78"
/>
<path stroke="#e6ceb2" vector-effect="non-scaling-stroke" d="
  M 102.56 213.86
  Q 95.85 214.68 89.58 213.54"
/>
<path stroke="#d69d57" vector-effect="non-scaling-stroke" d="
  M 97.01 234.45
  Q 101.34 232.37 102.12 226.95"
/>
<path stroke="#ebac18" vector-effect="non-scaling-stroke" d="
  M 300.18 180.30
  Q 301.92 187.65 305.25 190.23
  Q 310.51 194.29 319.50 194.57
  Q 326.93 194.81 330.01 193.81
  Q 333.90 192.54 337.97 191.50"
/>
<path stroke="#ebac18" vector-effect="non-scaling-stroke" d="
  M 326.66 239.75
  L 325.02 239.07
  Q 324.51 238.86 324.15 239.27
  Q 319.50 244.39 313.87 248.34
  Q 294.52 261.91 272.57 268.24
  Q 234.82 279.12 196.99 270.53
  Q 188.38 268.58 177.86 264.67
  Q 164.90 259.86 151.38 251.91
  C 143.68 247.37 137.40 242.75 133.73 234.48
  C 131.45 229.36 130.09 224.05 133.32 219.58
  Q 134.44 218.03 135.83 217.84
  C 141.45 217.07 148.53 219.73 152.13 220.40
  Q 166.66 223.15 180.31 219.48
  Q 183.11 218.73 186.54 217.16
  C 191.17 215.03 194.28 212.86 196.82 208.84
  Q 197.80 207.30 197.58 205.52
  Q 197.32 203.34 196.94 201.35"
/>
<path stroke="#ebac18" vector-effect="non-scaling-stroke" d="
  M 302.00 133.25
  L 301.73 132.98
  A 0.35 0.34 48.3 0 0 301.27 132.95
  L 300.97 133.17
  Q 300.91 133.22 300.83 133.22
  Q 292.06 133.29 284.66 134.20
  Q 264.26 136.69 241.08 140.63
  Q 229.32 142.63 217.70 146.71
  Q 216.95 146.97 212.79 148.89
  C 210.26 150.06 209.68 151.57 209.98 154.26
  Q 210.22 156.37 210.27 162.26
  Q 210.28 163.52 208.67 164.87
  Q 208.30 165.19 208.27 165.68
  Q 208.17 167.30 206.92 167.73"
/>
<path stroke="#6c5841" vector-effect="non-scaling-stroke" d="
  M 342.41 192.68
  Q 342.48 193.40 342.86 192.79
  C 344.02 190.94 344.48 188.75 345.09 186.70
  Q 349.38 172.24 348.25 156.50
  C 347.05 139.96 337.71 126.50 322.46 120.41
  Q 314.97 117.42 307.75 116.12
  Q 307.13 116.01 307.52 116.51
  Q 308.23 117.41 310.57 119.17
  Q 312.36 120.52 315.89 125.14
  C 320.19 130.77 322.84 133.85 325.71 138.89
  Q 329.29 145.19 333.81 154.00
  Q 335.10 156.52 335.87 159.82
  Q 336.26 161.51 337.55 165.77
  Q 338.73 169.68 339.77 174.80
  Q 341.58 183.68 342.41 192.68"
/>
<path stroke="#838181" vector-effect="non-scaling-stroke" d="
  M 336.40 173.91
  Q 336.68 172.26 335.81 168.52
  Q 335.68 167.99 335.24 168.31
  Q 333.33 169.69 331.62 171.68
  Q 329.58 174.06 327.98 174.82
  Q 323.93 176.76 319.84 177.55
  C 317.64 177.98 315.03 177.21 312.76 176.48
  Q 303.62 173.56 300.25 165.25
  Q 299.15 162.54 298.94 158.63
  Q 298.72 154.49 299.34 151.78
  C 301.66 141.61 309.47 137.30 319.50 136.85
  Q 320.52 136.80 320.01 135.92
  L 319.04 134.24
  A 1.76 1.73 75.5 0 0 317.59 133.37
  Q 300.94 132.84 296.24 148.27
  Q 292.00 162.20 300.46 173.90
  Q 303.43 178.01 307.42 180.13
  C 317.08 185.28 326.52 184.05 334.76 176.24
  Q 336.25 174.82 336.40 173.91"
/>
<path stroke="#838181" vector-effect="non-scaling-stroke" d="
  M 150.00 149.08
  C 147.77 150.91 145.42 151.95 143.29 153.75
  Q 139.27 157.15 135.00 160.75
  Q 133.86 161.70 133.06 163.56
  Q 128.23 174.70 132.55 185.52
  Q 136.08 194.34 142.09 199.20
  Q 148.52 204.40 152.25 205.97
  Q 158.07 208.42 161.55 208.70
  Q 171.92 209.51 181.39 206.28
  Q 186.10 204.67 190.26 201.46
  Q 194.68 198.06 197.71 194.44
  Q 200.84 190.70 202.06 186.04
  Q 206.38 169.57 195.78 155.65
  Q 190.65 148.90 183.69 146.01
  Q 173.76 141.87 162.50 143.72
  Q 155.08 144.93 150.00 149.08"
/>
<path stroke="#838181" vector-effect="non-scaling-stroke" d="
  M 325.4427 155.7727
  A 7.37 4.84 48.3 0 0 324.1537 147.0503
  A 7.37 4.84 48.3 0 0 315.6373 144.7673
  A 7.37 4.84 48.3 0 0 316.9263 153.4897
  A 7.37 4.84 48.3 0 0 325.4427 155.7727"
/>
<path stroke="#6c5841" vector-effect="non-scaling-stroke" d="
  M 71.1719 230.0126
  A 30.07 17.41 83.6 0 0 85.1215 198.1893
  A 30.07 17.41 83.6 0 0 64.4681 170.2474
  A 30.07 17.41 83.6 0 0 50.5185 202.0707
  A 30.07 17.41 83.6 0 0 71.1719 230.0126"
/>
<path stroke="#6c5841" vector-effect="non-scaling-stroke" d="
  M 91.06 245.37
  C 91.77 243.32 92.77 242.43 94.19 241.68
  Q 97.51 239.92 93.84 239.15
  Q 88.22 237.96 81.86 238.11
  Q 79.45 238.17 77.59 237.96
  Q 77.24 237.92 73.30 237.38
  Q 72.79 237.31 73.00 237.77
  Q 73.71 239.31 74.89 240.77
  Q 81.99 249.58 88.49 255.74
  Q 88.85 256.08 88.89 255.58
  Q 89.31 250.42 91.06 245.37"
/>
<path stroke="#6c5841" vector-effect="non-scaling-stroke" d="
  M 118.53 256.07
  C 112.51 252.91 106.89 249.73 102.55 246.13
  Q 100.81 244.69 99.68 244.83
  C 96.92 245.18 95.25 246.34 94.68 249.12
  Q 93.68 253.95 93.24 259.20
  Q 93.20 259.72 93.63 260.02
  C 101.96 265.70 106.20 268.96 113.01 270.03
  C 117.52 270.74 117.56 268.01 118.46 264.23
  Q 119.51 259.85 119.76 258.75
  A 2.41 2.40 -69.8 0 0 118.53 256.07"
/>
<path stroke="#6c5841" vector-effect="non-scaling-stroke" d="
  M 277.45 293.51
  Q 278.87 297.02 277.09 300.35
  Q 274.06 306.02 267.36 320.00
  Q 267.31 320.12 264.75 325.26
  Q 263.41 327.95 261.79 332.37
  Q 261.56 332.99 262.20 332.83
  C 264.45 332.25 267.46 331.22 270.02 331.13
  Q 270.99 331.10 271.47 330.84
  Q 272.30 330.40 272.65 329.88
  Q 277.03 323.32 279.39 321.40
  Q 290.07 312.70 296.15 307.41
  C 298.04 305.76 300.00 303.76 301.37 301.39
  Q 304.26 296.43 307.63 290.49
  Q 307.95 289.92 310.02 285.76
  Q 311.05 283.68 312.62 281.12
  Q 315.35 276.66 319.41 267.43"
/>
<path stroke="#817a73" vector-effect="non-scaling-stroke" d="
  M 319.41 267.43
  Q 322.36 262.40 322.77 257.31
  Q 323.02 254.26 321.04 256.60
  Q 308.98 270.93 291.20 278.91
  Q 290.57 279.19 283.15 282.23
  C 280.13 283.47 276.26 284.02 273.08 285.32
  Q 272.11 285.72 272.70 286.59
  L 277.45 293.51"
/>
<path stroke="#e6ceb2" vector-effect="non-scaling-stroke" d="
  M 319.41 267.43
  Q 310.22 278.74 297.55 284.73
  Q 294.26 286.28 290.99 287.88
  Q 288.64 289.03 284.24 290.55
  Q 280.73 291.76 277.45 293.51"
/>
<path stroke="#817a73" vector-effect="non-scaling-stroke" d="
  M 273.03 294.42
  L 267.37 286.84
  Q 267.08 286.46 266.61 286.56
  Q 260.89 287.81 252.29 288.79
  Q 223.40 292.09 196.11 287.71
  C 193.30 287.26 189.72 286.38 186.48 285.90
  Q 182.48 285.31 179.32 284.43
  Q 173.28 282.75 167.03 281.47"
/>
<path stroke="#6c5841" vector-effect="non-scaling-stroke" d="
  M 167.03 281.47
  Q 159.46 278.94 151.60 276.67
  Q 145.76 274.99 123.62 264.81
  Q 123.02 264.53 122.87 265.18
  L 121.95 269.30
  Q 121.84 269.80 122.08 270.25
  Q 123.22 272.38 126.29 275.24
  C 130.05 278.75 133.26 282.23 137.45 285.69
  Q 150.38 296.37 164.59 304.91
  Q 171.73 309.20 178.91 312.22
  Q 184.87 314.73 193.92 317.72
  Q 205.55 321.56 214.84 323.98
  C 219.53 325.20 224.01 326.87 228.58 328.23
  A 4.07 4.04 -8.8 0 1 230.77 329.82
  Q 232.12 331.78 234.03 333.91
  C 236.57 336.72 239.16 335.90 243.46 335.34
  Q 249.15 334.60 254.91 333.73
  Q 255.41 333.65 255.63 333.21
  Q 261.22 322.19 266.43 311.00
  Q 266.47 310.92 270.03 304.29
  Q 272.68 299.36 273.03 294.42"
/>
<path stroke="#e6ceb2" vector-effect="non-scaling-stroke" d="
  M 167.03 281.47
  Q 167.64 282.85 169.68 283.38
  Q 175.71 284.97 180.25 286.54
  Q 186.15 288.59 189.10 289.36
  Q 194.53 290.78 198.10 291.66
  Q 221.87 297.53 245.00 297.60
  Q 256.39 297.63 273.03 294.42"
/>
<path stroke="#816702" vector-effect="non-scaling-stroke" d="
  M 283.2423 180.3242
  A 2.99 2.50 -7.8 0 0 279.9407 178.2531
  A 2.99 2.50 -7.8 0 0 277.3177 181.1358
  A 2.99 2.50 -7.8 0 0 280.6193 183.2069
  A 2.99 2.50 -7.8 0 0 283.2423 180.3242"
/>
<path stroke="#816702" vector-effect="non-scaling-stroke" d="
  M 266.4900 184.6350
  A 2.87 2.42 -0.1 0 0 263.6158 182.2200
  A 2.87 2.42 -0.1 0 0 260.7500 184.6450
  A 2.87 2.42 -0.1 0 0 263.6242 187.0600
  A 2.87 2.42 -0.1 0 0 266.4900 184.6350"
/>
<path stroke="#816702" vector-effect="non-scaling-stroke" d="
  M 315.25 215.77
  Q 312.95 215.85 312.20 215.61
  Q 299.58 211.53 296.22 210.54
  Q 284.11 206.94 272.86 211.42
  C 269.84 212.62 265.95 214.44 263.14 216.45
  Q 262.02 217.25 252.29 223.79
  Q 246.98 227.36 243.82 228.60
  C 237.29 231.17 229.77 231.51 223.27 231.78
  C 217.06 232.04 211.65 233.46 207.21 236.47
  Q 204.15 238.55 201.03 240.53
  Q 199.17 241.71 197.94 243.74
  A 2.35 2.30 -59.8 0 0 198.76 246.99
  Q 199.95 247.64 201.52 246.49
  Q 206.06 243.15 208.30 241.53
  Q 210.53 239.91 215.14 238.12
  Q 218.16 236.95 222.55 236.70
  Q 230.28 236.28 236.12 235.60
  Q 245.45 234.53 253.21 229.22
  Q 259.78 224.72 266.22 220.27
  C 268.66 218.59 270.59 218.02 272.72 216.85
  Q 274.97 215.61 277.87 214.94
  Q 288.02 212.60 298.46 215.85
  Q 300.49 216.48 307.02 219.55
  Q 308.84 220.40 313.65 220.25
  C 316.17 220.17 318.31 220.40 320.56 219.30
  Q 323.36 217.94 325.61 217.02
  Q 327.57 216.22 327.01 214.18
  Q 326.95 213.95 326.88 213.84
  Q 325.36 211.56 323.26 212.60
  Q 317.05 215.70 315.25 215.77"
/>
<path stroke="#838181" vector-effect="non-scaling-stroke" d="
  M 198.1896 175.1708
  A 30.40 27.88 -0.3 0 0 167.6440 147.4504
  A 30.40 27.88 -0.3 0 0 137.3904 175.4892
  A 30.40 27.88 -0.3 0 0 167.9360 203.2096
  A 30.40 27.88 -0.3 0 0 198.1896 175.1708"
/>
<path stroke="#838181" vector-effect="non-scaling-stroke" d="
  M 187.4653 171.6236
  A 9.22 6.27 45.3 0 0 185.4367 160.6597
  A 9.22 6.27 45.3 0 0 174.4947 158.5164
  A 9.22 6.27 45.3 0 0 176.5233 169.4803
  A 9.22 6.27 45.3 0 0 187.4653 171.6236"
/>
<path stroke="#6c5841" vector-effect="non-scaling-stroke" d="
  M 103.05 256.20
  Q 104.49 256.38 110.88 259.62
  Q 113.02 260.71 113.24 258.82
  A 1.32 1.31 22.8 0 0 112.75 257.63
  Q 108.08 254.00 104.19 252.16
  C 101.91 251.08 99.25 252.05 99.09 255.04
  Q 98.90 258.27 99.13 260.19
  Q 99.18 260.64 99.43 260.86
  Q 99.79 261.20 100.29 261.07
  Q 100.87 260.92 101.00 260.33
  L 101.72 257.13
  A 1.21 1.20 10.0 0 1 103.05 256.20"
/>
</g>
<path fill="#ffffff" d="
  M 400.00 0.00
  L 400.00 400.00
  L 0.00 400.00
  L 0.00 0.00
  L 400.00 0.00
  Z
  M 43.83 324.29
  L 47.57 328.67
  L 53.75 335.78
  Q 69.08 352.47 88.68 365.56
  L 92.81 368.34
  Q 107.41 377.48 124.40 384.71
  A 0.43 0.43 0.0 0 0 124.99 384.42
  Q 130.48 361.53 133.33 345.18
  Q 134.05 341.06 135.38 329.59
  Q 135.94 324.76 137.16 321.55
  A 3.21 3.21 0.0 0 1 141.58 319.81
  C 148.49 323.20 156.15 327.12 163.29 329.63
  Q 165.43 330.38 174.35 333.83
  Q 179.43 335.79 192.60 339.61
  C 201.72 342.25 211.52 344.27 219.67 345.36
  Q 237.29 347.70 256.05 344.83
  L 259.22 390.29
  Q 259.24 390.57 259.50 390.48
  L 263.51 389.22
  Q 263.80 389.13 263.77 388.83
  L 260.64 344.19
  Q 270.31 343.95 278.80 339.14
  C 280.85 337.98 282.60 336.55 284.47 335.10
  Q 286.28 333.71 288.30 331.61
  Q 293.48 326.23 299.32 320.70
  L 299.05 372.65
  A 0.21 0.20 -9.8 0 0 299.33 372.84
  Q 302.15 371.80 303.62 370.22
  L 312.39 364.88
  Q 321.49 358.88 328.84 352.35
  L 334.59 347.30
  Q 368.75 315.84 385.53 273.53
  Q 406.10 221.65 396.67 165.97
  C 395.96 161.78 394.60 156.62 393.70 152.18
  Q 392.70 147.21 390.90 141.94
  Q 385.46 126.05 384.64 124.13
  Q 357.38 60.13 297.90 26.16
  Q 289.05 21.11 280.03 17.19
  Q 221.87 -8.04 159.38 4.65
  Q 148.94 6.77 140.03 9.65
  Q 84.13 27.75 46.59 72.31
  Q 41.04 78.89 34.68 88.37
  Q 10.08 125.04 3.22 167.24
  Q -7.67 234.18 24.17 294.35
  Q 31.84 308.84 43.83 324.29
  Z"
/>
<path fill="#fde38f" d="
  M 334.59 347.30
  Q 334.08 343.31 334.20 339.75
  Q 334.40 333.74 334.31 332.24
  Q 333.26 315.78 329.85 299.03
  Q 329.05 295.13 327.80 291.08
  C 325.93 285.02 324.60 280.50 321.14 275.57
  Q 320.84 275.13 321.11 274.67
  C 323.90 269.91 326.32 264.73 327.19 259.55
  Q 327.91 255.29 326.22 250.82
  Q 326.05 250.34 326.27 249.89
  C 328.02 246.34 330.51 243.30 331.86 239.77
  Q 332.26 238.72 334.20 234.79
  Q 336.43 230.27 339.45 219.60
  C 340.30 216.59 341.01 212.63 341.40 209.33
  Q 341.76 206.25 343.73 201.88
  Q 345.40 198.20 348.25 191.55
  Q 350.85 185.50 352.26 175.31
  Q 355.86 149.18 344.96 125.50
  Q 340.34 115.47 336.41 109.94
  Q 321.68 89.18 302.09 76.55
  Q 290.77 69.26 280.40 64.67
  Q 275.86 62.66 267.13 59.27
  C 262.09 57.32 257.91 56.51 253.29 55.14
  Q 248.68 53.76 242.79 52.63
  Q 190.09 42.57 140.92 61.16
  Q 125.40 67.03 108.55 78.37
  Q 106.50 79.75 103.77 82.03
  Q 103.28 82.44 99.11 85.85
  Q 79.43 101.99 69.05 124.14
  Q 66.78 129.00 64.80 134.90
  Q 62.80 140.88 62.00 146.13
  Q 60.71 154.54 60.59 155.08
  C 59.91 157.99 60.83 161.18 60.26 164.06
  A 0.99 0.98 83.1 0 1 59.73 164.74
  Q 58.54 165.30 57.41 166.43
  C 45.43 178.29 43.38 194.54 47.53 210.81
  Q 50.22 221.34 57.32 228.80
  C 59.42 231.01 61.83 232.38 64.88 234.20
  Q 65.33 234.47 65.55 234.94
  C 66.52 236.96 67.17 238.41 68.38 240.00
  Q 76.31 250.40 85.77 259.83
  A 0.99 0.99 0.0 0 1 85.83 261.17
  Q 84.23 263.05 82.35 264.83
  Q 79.31 267.71 78.78 268.28
  Q 57.99 290.08 46.09 318.71
  Q 45.06 321.18 43.83 324.29
  Q 31.84 308.84 24.17 294.35
  Q -7.67 234.18 3.22 167.24
  Q 10.08 125.04 34.68 88.37
  Q 41.04 78.89 46.59 72.31
  Q 84.13 27.75 140.03 9.65
  Q 148.94 6.77 159.38 4.65
  Q 221.87 -8.04 280.03 17.19
  Q 289.05 21.11 297.90 26.16
  Q 357.38 60.13 384.64 124.13
  Q 385.46 126.05 390.90 141.94
  Q 392.70 147.21 393.70 152.18
  C 394.60 156.62 395.96 161.78 396.67 165.97
  Q 406.10 221.65 385.53 273.53
  Q 368.75 315.84 334.59 347.30
  Z"
/>
<path fill="#060302" d="
  M 334.59 347.30
  L 328.84 352.35
  Q 330.10 339.18 329.66 331.51
  Q 328.74 315.12 324.07 294.72
  Q 322.94 289.76 320.50 284.18
  Q 320.33 282.51 318.82 280.43
  Q 318.52 280.02 318.29 280.46
  Q 314.25 287.93 309.74 296.48
  Q 309.00 297.90 307.27 300.63
  Q 305.27 303.79 305.11 304.98
  Q 304.21 311.71 303.90 331.75
  Q 303.60 350.66 303.62 370.22
  Q 302.15 371.80 299.33 372.84
  A 0.21 0.20 -9.8 0 1 299.05 372.65
  L 299.32 320.70
  L 299.73 311.37
  Q 299.75 310.79 299.30 311.16
  Q 292.41 316.84 285.54 322.53
  C 281.52 325.86 278.87 329.10 275.86 332.86
  Q 273.79 335.45 271.93 335.68
  Q 266.35 336.37 260.85 337.66
  Q 260.33 337.78 260.35 338.32
  L 260.64 344.19
  L 263.77 388.83
  Q 263.80 389.13 263.51 389.22
  L 259.50 390.48
  Q 259.24 390.57 259.22 390.29
  L 256.05 344.83
  L 255.53 338.99
  Q 255.48 338.46 254.95 338.53
  Q 247.61 339.58 240.25 340.54
  Q 235.39 341.17 232.13 338.65
  Q 231.91 338.48 228.92 334.81
  Q 226.25 331.54 221.82 330.69
  Q 217.20 329.80 212.61 328.40
  Q 204.71 325.98 203.55 325.64
  Q 189.48 321.52 182.79 318.97
  Q 175.29 316.11 165.36 310.87
  Q 157.18 306.55 149.08 300.61
  Q 135.89 290.94 124.81 280.25
  Q 124.55 280.00 118.63 274.37
  Q 118.16 273.92 117.55 274.13
  Q 114.65 275.11 112.01 274.75
  Q 111.36 274.66 111.67 275.25
  Q 121.50 294.00 121.47 313.79
  C 121.45 320.76 117.59 323.60 112.81 327.57
  Q 110.30 329.66 108.81 331.58
  Q 104.40 337.30 101.25 346.99
  Q 99.26 353.11 92.81 368.34
  L 88.68 365.56
  Q 90.90 361.13 91.38 359.87
  Q 95.64 348.54 98.36 341.22
  Q 100.01 336.79 101.96 333.39
  Q 104.58 328.82 107.20 326.41
  Q 110.76 323.14 114.57 319.58
  Q 116.54 317.74 116.71 315.49
  Q 117.13 309.94 116.31 304.49
  Q 114.28 290.99 108.62 279.63
  Q 106.11 273.18 101.43 270.56
  Q 96.00 267.51 90.38 264.02
  A 0.50 0.49 39.2 0 0 89.77 264.08
  Q 84.80 268.85 79.94 274.17
  Q 65.42 290.07 55.09 309.86
  Q 50.35 318.95 47.57 328.67
  L 43.83 324.29
  Q 45.06 321.18 46.09 318.71
  Q 57.99 290.08 78.78 268.28
  Q 79.31 267.71 82.35 264.83
  Q 84.23 263.05 85.83 261.17
  A 0.99 0.99 0.0 0 0 85.77 259.83
  Q 76.31 250.40 68.38 240.00
  C 67.17 238.41 66.52 236.96 65.55 234.94
  Q 65.33 234.47 64.88 234.20
  C 61.83 232.38 59.42 231.01 57.32 228.80
  Q 50.22 221.34 47.53 210.81
  C 43.38 194.54 45.43 178.29 57.41 166.43
  Q 58.54 165.30 59.73 164.74
  A 0.99 0.98 83.1 0 0 60.26 164.06
  C 60.83 161.18 59.91 157.99 60.59 155.08
  Q 60.71 154.54 62.00 146.13
  Q 62.80 140.88 64.80 134.90
  Q 66.78 129.00 69.05 124.14
  Q 79.43 101.99 99.11 85.85
  Q 103.28 82.44 103.77 82.03
  Q 106.50 79.75 108.55 78.37
  Q 125.40 67.03 140.92 61.16
  Q 190.09 42.57 242.79 52.63
  Q 248.68 53.76 253.29 55.14
  C 257.91 56.51 262.09 57.32 267.13 59.27
  Q 275.86 62.66 280.40 64.67
  Q 290.77 69.26 302.09 76.55
  Q 321.68 89.18 336.41 109.94
  Q 340.34 115.47 344.96 125.50
  Q 355.86 149.18 352.26 175.31
  Q 350.85 185.50 348.25 191.55
  Q 345.40 198.20 343.73 201.88
  Q 341.76 206.25 341.40 209.33
  C 341.01 212.63 340.30 216.59 339.45 219.60
  Q 336.43 230.27 334.20 234.79
  Q 332.26 238.72 331.86 239.77
  C 330.51 243.30 328.02 246.34 326.27 249.89
  Q 326.05 250.34 326.22 250.82
  Q 327.91 255.29 327.19 259.55
  C 326.32 264.73 323.90 269.91 321.11 274.67
  Q 320.84 275.13 321.14 275.57
  C 324.60 280.50 325.93 285.02 327.80 291.08
  Q 329.05 295.13 329.85 299.03
  Q 333.26 315.78 334.31 332.24
  Q 334.40 333.74 334.20 339.75
  Q 334.08 343.31 334.59 347.30
  Z
  M 154.58 67.02
  Q 132.66 79.91 119.02 102.65
  Q 113.73 110.82 111.42 116.91
  Q 110.13 120.31 109.28 122.41
  Q 107.89 125.81 107.31 127.95
  Q 102.41 146.06 100.46 165.16
  Q 98.98 163.80 99.07 160.98
  Q 99.43 149.16 100.84 140.01
  Q 102.50 129.21 105.68 120.66
  Q 114.12 97.96 131.11 80.34
  Q 141.13 69.96 153.14 63.16
  Q 154.22 62.55 155.24 61.38
  Q 155.81 60.74 155.00 61.03
  C 153.81 61.46 152.75 62.07 151.50 62.46
  Q 128.14 69.73 108.46 84.21
  Q 89.23 98.36 77.49 117.98
  Q 69.43 131.46 66.23 147.87
  Q 65.61 151.07 65.48 154.15
  Q 65.34 157.24 64.78 160.45
  A 0.58 0.58 0.0 0 0 65.37 161.13
  L 76.56 160.78
  Q 72.74 163.11 70.27 163.64
  Q 64.96 164.78 70.33 166.12
  Q 71.46 166.41 74.48 168.28
  Q 76.27 169.39 77.71 170.89
  Q 86.48 180.06 88.93 192.07
  Q 90.96 202.04 89.58 213.54
  Q 88.57 216.01 87.74 218.64
  Q 86.61 222.27 85.87 223.69
  Q 83.04 229.18 77.99 232.44
  Q 76.88 233.15 78.19 233.23
  L 97.01 234.45
  Q 100.24 239.51 105.20 242.55
  Q 119.83 251.52 121.15 252.42
  Q 124.89 254.98 124.32 259.28
  A 0.96 0.95 -73.2 0 0 124.84 260.26
  Q 149.14 272.53 174.76 278.71
  Q 192.13 282.91 204.97 284.48
  Q 226.53 287.11 253.17 284.31
  Q 257.15 283.89 261.80 282.94
  Q 267.46 281.78 270.37 281.11
  Q 289.21 276.77 304.76 265.73
  Q 306.89 264.22 309.10 262.09
  Q 309.36 261.84 313.15 258.14
  Q 321.39 250.05 326.66 239.75
  Q 338.66 217.16 337.97 191.50
  L 336.43 180.96
  A 0.41 0.41 0.0 0 0 335.75 180.71
  Q 328.24 187.45 317.99 187.41
  Q 307.71 187.37 300.18 180.30
  Q 295.19 176.61 292.56 169.68
  Q 288.67 159.42 291.11 149.29
  Q 293.40 139.77 302.00 133.25
  Q 307.99 130.26 314.56 129.17
  A 0.46 0.46 0.0 0 0 314.80 128.39
  Q 310.16 124.02 305.03 120.72
  Q 299.49 117.16 292.15 115.23
  Q 288.29 114.21 282.12 114.13
  Q 274.19 114.02 272.00 114.17
  Q 236.04 116.64 201.40 126.46
  C 197.50 127.56 194.93 128.72 191.62 129.56
  Q 188.95 130.24 184.32 132.04
  Q 177.90 134.54 171.45 137.49
  Q 169.50 138.39 171.65 138.53
  Q 176.59 138.84 182.15 140.75
  Q 201.97 147.58 206.92 167.73
  Q 211.31 187.50 196.94 201.35
  Q 182.69 214.56 162.98 212.79
  Q 143.03 211.00 131.79 194.42
  Q 127.47 188.05 126.01 178.57
  Q 125.78 177.07 125.86 175.02
  Q 125.98 171.91 125.87 171.52
  Q 125.72 170.95 125.32 171.29
  Q 123.97 172.41 122.72 174.22
  Q 115.69 184.38 111.23 195.20
  C 110.22 197.65 110.02 199.71 109.13 201.83
  C 107.91 204.72 107.87 208.05 106.60 211.09
  Q 105.95 212.65 105.60 215.38
  Q 104.99 220.10 103.85 226.24
  Q 103.71 227.02 102.12 226.95
  L 102.56 213.86
  Q 102.71 210.72 102.76 207.46
  Q 102.81 204.50 102.50 201.07
  C 102.13 196.98 101.95 192.69 100.99 188.53
  Q 99.52 182.18 98.82 180.65
  Q 96.13 174.80 92.17 169.91
  Q 91.36 168.91 88.77 166.70
  Q 86.87 165.08 85.71 163.06
  Q 91.11 164.18 94.70 168.32
  Q 96.98 170.96 99.71 174.24
  Q 103.20 179.91 103.82 183.72
  Q 104.91 190.40 105.88 194.52
  Q 106.01 195.03 106.23 194.55
  Q 108.80 189.14 109.65 187.08
  Q 111.16 183.37 113.38 179.75
  Q 121.58 166.38 133.07 155.60
  Q 136.54 152.34 138.84 150.82
  Q 141.94 148.76 145.01 146.57
  Q 149.90 143.07 154.46 140.50
  Q 173.31 129.88 193.24 123.76
  Q 229.78 112.53 268.75 109.20
  Q 277.17 108.48 294.97 109.34
  Q 305.95 110.26 320.18 114.07
  Q 330.50 118.10 339.57 125.77
  Q 340.36 126.44 340.00 125.47
  Q 339.38 123.82 337.83 121.19
  Q 327.50 103.66 313.62 91.16
  Q 311.17 88.94 308.12 86.68
  C 303.05 82.93 298.29 79.14 293.70 76.50
  Q 282.64 70.10 270.72 65.30
  Q 266.40 63.56 263.80 62.94
  Q 260.28 62.09 256.87 60.63
  Q 255.53 60.05 248.74 58.55
  Q 245.57 57.85 240.50 56.82
  Q 222.73 53.22 202.52 53.74
  C 193.48 53.97 187.21 54.34 180.62 56.17
  C 177.36 57.07 174.67 57.30 172.13 58.65
  Q 170.94 59.28 168.92 59.97
  Q 165.58 61.11 164.13 61.84
  Q 159.34 64.24 154.58 67.02
  Z
  M 342.41 192.68
  Q 342.48 193.40 342.86 192.79
  C 344.02 190.94 344.48 188.75 345.09 186.70
  Q 349.38 172.24 348.25 156.50
  C 347.05 139.96 337.71 126.50 322.46 120.41
  Q 314.97 117.42 307.75 116.12
  Q 307.13 116.01 307.52 116.51
  Q 308.23 117.41 310.57 119.17
  Q 312.36 120.52 315.89 125.14
  C 320.19 130.77 322.84 133.85 325.71 138.89
  Q 329.29 145.19 333.81 154.00
  Q 335.10 156.52 335.87 159.82
  Q 336.26 161.51 337.55 165.77
  Q 338.73 169.68 339.77 174.80
  Q 341.58 183.68 342.41 192.68
  Z
  M 336.40 173.91
  Q 336.68 172.26 335.81 168.52
  Q 335.68 167.99 335.24 168.31
  Q 333.33 169.69 331.62 171.68
  Q 329.58 174.06 327.98 174.82
  Q 323.93 176.76 319.84 177.55
  C 317.64 177.98 315.03 177.21 312.76 176.48
  Q 303.62 173.56 300.25 165.25
  Q 299.15 162.54 298.94 158.63
  Q 298.72 154.49 299.34 151.78
  C 301.66 141.61 309.47 137.30 319.50 136.85
  Q 320.52 136.80 320.01 135.92
  L 319.04 134.24
  A 1.76 1.73 75.5 0 0 317.59 133.37
  Q 300.94 132.84 296.24 148.27
  Q 292.00 162.20 300.46 173.90
  Q 303.43 178.01 307.42 180.13
  C 317.08 185.28 326.52 184.05 334.76 176.24
  Q 336.25 174.82 336.40 173.91
  Z
  M 150.00 149.08
  C 147.77 150.91 145.42 151.95 143.29 153.75
  Q 139.27 157.15 135.00 160.75
  Q 133.86 161.70 133.06 163.56
  Q 128.23 174.70 132.55 185.52
  Q 136.08 194.34 142.09 199.20
  Q 148.52 204.40 152.25 205.97
  Q 158.07 208.42 161.55 208.70
  Q 171.92 209.51 181.39 206.28
  Q 186.10 204.67 190.26 201.46
  Q 194.68 198.06 197.71 194.44
  Q 200.84 190.70 202.06 186.04
  Q 206.38 169.57 195.78 155.65
  Q 190.65 148.90 183.69 146.01
  Q 173.76 141.87 162.50 143.72
  Q 155.08 144.93 150.00 149.08
  Z
  M 325.4427 155.7727
  A 7.37 4.84 48.3 0 0 324.1537 147.0503
  A 7.37 4.84 48.3 0 0 315.6373 144.7673
  A 7.37 4.84 48.3 0 0 316.9263 153.4897
  A 7.37 4.84 48.3 0 0 325.4427 155.7727
  Z
  M 71.1719 230.0126
  A 30.07 17.41 83.6 0 0 85.1215 198.1893
  A 30.07 17.41 83.6 0 0 64.4681 170.2474
  A 30.07 17.41 83.6 0 0 50.5185 202.0707
  A 30.07 17.41 83.6 0 0 71.1719 230.0126
  Z
  M 91.06 245.37
  C 91.77 243.32 92.77 242.43 94.19 241.68
  Q 97.51 239.92 93.84 239.15
  Q 88.22 237.96 81.86 238.11
  Q 79.45 238.17 77.59 237.96
  Q 77.24 237.92 73.30 237.38
  Q 72.79 237.31 73.00 237.77
  Q 73.71 239.31 74.89 240.77
  Q 81.99 249.58 88.49 255.74
  Q 88.85 256.08 88.89 255.58
  Q 89.31 250.42 91.06 245.37
  Z
  M 118.53 256.07
  C 112.51 252.91 106.89 249.73 102.55 246.13
  Q 100.81 244.69 99.68 244.83
  C 96.92 245.18 95.25 246.34 94.68 249.12
  Q 93.68 253.95 93.24 259.20
  Q 93.20 259.72 93.63 260.02
  C 101.96 265.70 106.20 268.96 113.01 270.03
  C 117.52 270.74 117.56 268.01 118.46 264.23
  Q 119.51 259.85 119.76 258.75
  A 2.41 2.40 -69.8 0 0 118.53 256.07
  Z
  M 277.45 293.51
  Q 278.87 297.02 277.09 300.35
  Q 274.06 306.02 267.36 320.00
  Q 267.31 320.12 264.75 325.26
  Q 263.41 327.95 261.79 332.37
  Q 261.56 332.99 262.20 332.83
  C 264.45 332.25 267.46 331.22 270.02 331.13
  Q 270.99 331.10 271.47 330.84
  Q 272.30 330.40 272.65 329.88
  Q 277.03 323.32 279.39 321.40
  Q 290.07 312.70 296.15 307.41
  C 298.04 305.76 300.00 303.76 301.37 301.39
  Q 304.26 296.43 307.63 290.49
  Q 307.95 289.92 310.02 285.76
  Q 311.05 283.68 312.62 281.12
  Q 315.35 276.66 319.41 267.43
  Q 322.36 262.40 322.77 257.31
  Q 323.02 254.26 321.04 256.60
  Q 308.98 270.93 291.20 278.91
  Q 290.57 279.19 283.15 282.23
  C 280.13 283.47 276.26 284.02 273.08 285.32
  Q 272.11 285.72 272.70 286.59
  L 277.45 293.51
  Z
  M 273.03 294.42
  L 267.37 286.84
  Q 267.08 286.46 266.61 286.56
  Q 260.89 287.81 252.29 288.79
  Q 223.40 292.09 196.11 287.71
  C 193.30 287.26 189.72 286.38 186.48 285.90
  Q 182.48 285.31 179.32 284.43
  Q 173.28 282.75 167.03 281.47
  Q 159.46 278.94 151.60 276.67
  Q 145.76 274.99 123.62 264.81
  Q 123.02 264.53 122.87 265.18
  L 121.95 269.30
  Q 121.84 269.80 122.08 270.25
  Q 123.22 272.38 126.29 275.24
  C 130.05 278.75 133.26 282.23 137.45 285.69
  Q 150.38 296.37 164.59 304.91
  Q 171.73 309.20 178.91 312.22
  Q 184.87 314.73 193.92 317.72
  Q 205.55 321.56 214.84 323.98
  C 219.53 325.20 224.01 326.87 228.58 328.23
  A 4.07 4.04 -8.8 0 1 230.77 329.82
  Q 232.12 331.78 234.03 333.91
  C 236.57 336.72 239.16 335.90 243.46 335.34
  Q 249.15 334.60 254.91 333.73
  Q 255.41 333.65 255.63 333.21
  Q 261.22 322.19 266.43 311.00
  Q 266.47 310.92 270.03 304.29
  Q 272.68 299.36 273.03 294.42
  Z"
/>
<path fill="#ffffff" d="
  M 320.18 114.07
  Q 307.31 98.14 292.28 87.99
  Q 242.68 54.51 182.01 61.58
  Q 170.61 62.91 161.47 65.28
  Q 160.99 65.41 158.14 66.51
  Q 156.22 67.25 154.58 67.02
  Q 159.34 64.24 164.13 61.84
  Q 165.58 61.11 168.92 59.97
  Q 170.94 59.28 172.13 58.65
  C 174.67 57.30 177.36 57.07 180.62 56.17
  C 187.21 54.34 193.48 53.97 202.52 53.74
  Q 222.73 53.22 240.50 56.82
  Q 245.57 57.85 248.74 58.55
  Q 255.53 60.05 256.87 60.63
  Q 260.28 62.09 263.80 62.94
  Q 266.40 63.56 270.72 65.30
  Q 282.64 70.10 293.70 76.50
  C 298.29 79.14 303.05 82.93 308.12 86.68
  Q 311.17 88.94 313.62 91.16
  Q 327.50 103.66 337.83 121.19
  Q 339.38 123.82 340.00 125.47
  Q 340.36 126.44 339.57 125.77
  Q 330.50 118.10 320.18 114.07
  Z"
/>
<path fill="#ebc390" d="
  M 320.18 114.07
  Q 305.95 110.26 294.97 109.34
  Q 285.73 101.04 275.88 95.38
  Q 263.39 88.19 258.45 86.49
  Q 247.08 82.55 241.02 80.89
  Q 232.55 78.56 222.25 77.54
  Q 188.66 74.22 155.21 83.99
  Q 135.96 89.61 119.02 102.65
  Q 132.66 79.91 154.58 67.02
  Q 156.22 67.25 158.14 66.51
  Q 160.99 65.41 161.47 65.28
  Q 170.61 62.91 182.01 61.58
  Q 242.68 54.51 292.28 87.99
  Q 307.31 98.14 320.18 114.07
  Z"
/>
<path fill="#d1ac80" d="
  M 100.46 165.16
  L 99.71 174.24
  Q 96.98 170.96 94.70 168.32
  Q 91.11 164.18 85.71 163.06
  Q 81.90 160.51 76.56 160.78
  L 65.37 161.13
  A 0.58 0.58 0.0 0 1 64.78 160.45
  Q 65.34 157.24 65.48 154.15
  Q 65.61 151.07 66.23 147.87
  Q 69.43 131.46 77.49 117.98
  Q 89.23 98.36 108.46 84.21
  Q 128.14 69.73 151.50 62.46
  C 152.75 62.07 153.81 61.46 155.00 61.03
  Q 155.81 60.74 155.24 61.38
  Q 154.22 62.55 153.14 63.16
  Q 141.13 69.96 131.11 80.34
  Q 114.12 97.96 105.68 120.66
  Q 102.50 129.21 100.84 140.01
  Q 99.43 149.16 99.07 160.98
  Q 98.98 163.80 100.46 165.16
  Z"
/>
<path fill="#f3dabc" d="
  M 294.97 109.34
  Q 277.17 108.48 268.75 109.20
  Q 229.78 112.53 193.24 123.76
  Q 173.31 129.88 154.46 140.50
  Q 149.90 143.07 145.01 146.57
  Q 141.94 148.76 138.84 150.82
  Q 136.54 152.34 133.07 155.60
  Q 121.58 166.38 113.38 179.75
  Q 111.16 183.37 109.65 187.08
  Q 108.80 189.14 106.23 194.55
  Q 106.01 195.03 105.88 194.52
  Q 104.91 190.40 103.82 183.72
  Q 103.20 179.91 99.71 174.24
  L 100.46 165.16
  Q 102.41 146.06 107.31 127.95
  Q 107.89 125.81 109.28 122.41
  Q 110.13 120.31 111.42 116.91
  Q 113.73 110.82 119.02 102.65
  Q 135.96 89.61 155.21 83.99
  Q 188.66 74.22 222.25 77.54
  Q 232.55 78.56 241.02 80.89
  Q 247.08 82.55 258.45 86.49
  Q 263.39 88.19 275.88 95.38
  Q 285.73 101.04 294.97 109.34
  Z"
/>
<path fill="#da8e2e" d="
  M 302.00 133.25
  L 301.73 132.98
  A 0.35 0.34 48.3 0 0 301.27 132.95
  L 300.97 133.17
  Q 300.91 133.22 300.83 133.22
  Q 292.06 133.29 284.66 134.20
  Q 264.26 136.69 241.08 140.63
  Q 229.32 142.63 217.70 146.71
  Q 216.95 146.97 212.79 148.89
  C 210.26 150.06 209.68 151.57 209.98 154.26
  Q 210.22 156.37 210.27 162.26
  Q 210.28 163.52 208.67 164.87
  Q 208.30 165.19 208.27 165.68
  Q 208.17 167.30 206.92 167.73
  Q 201.97 147.58 182.15 140.75
  Q 176.59 138.84 171.65 138.53
  Q 169.50 138.39 171.45 137.49
  Q 177.90 134.54 184.32 132.04
  Q 188.95 130.24 191.62 129.56
  C 194.93 128.72 197.50 127.56 201.40 126.46
  Q 236.04 116.64 272.00 114.17
  Q 274.19 114.02 282.12 114.13
  Q 288.29 114.21 292.15 115.23
  Q 299.49 117.16 305.03 120.72
  Q 310.16 124.02 314.80 128.39
  A 0.46 0.46 0.0 0 1 314.56 129.17
  Q 307.99 130.26 302.00 133.25
  Z"
/>
<path fill="#d1ac80" d="
  M 342.41 192.68
  Q 341.58 183.68 339.77 174.80
  Q 338.73 169.68 337.55 165.77
  Q 336.26 161.51 335.87 159.82
  Q 335.10 156.52 333.81 154.00
  Q 329.29 145.19 325.71 138.89
  C 322.84 133.85 320.19 130.77 315.89 125.14
  Q 312.36 120.52 310.57 119.17
  Q 308.23 117.41 307.52 116.51
  Q 307.13 116.01 307.75 116.12
  Q 314.97 117.42 322.46 120.41
  C 337.71 126.50 347.05 139.96 348.25 156.50
  Q 349.38 172.24 345.09 186.70
  C 344.48 188.75 344.02 190.94 342.86 192.79
  Q 342.48 193.40 342.41 192.68
  Z"
/>
<path fill="#fbca01" d="
  M 302.00 133.25
  Q 293.40 139.77 291.11 149.29
  Q 288.67 159.42 292.56 169.68
  Q 295.19 176.61 300.18 180.30
  Q 301.92 187.65 305.25 190.23
  Q 310.51 194.29 319.50 194.57
  Q 326.93 194.81 330.01 193.81
  Q 333.90 192.54 337.97 191.50
  Q 338.66 217.16 326.66 239.75
  L 325.02 239.07
  Q 324.51 238.86 324.15 239.27
  Q 319.50 244.39 313.87 248.34
  Q 294.52 261.91 272.57 268.24
  Q 234.82 279.12 196.99 270.53
  Q 188.38 268.58 177.86 264.67
  Q 164.90 259.86 151.38 251.91
  C 143.68 247.37 137.40 242.75 133.73 234.48
  C 131.45 229.36 130.09 224.05 133.32 219.58
  Q 134.44 218.03 135.83 217.84
  C 141.45 217.07 148.53 219.73 152.13 220.40
  Q 166.66 223.15 180.31 219.48
  Q 183.11 218.73 186.54 217.16
  C 191.17 215.03 194.28 212.86 196.82 208.84
  Q 197.80 207.30 197.58 205.52
  Q 197.32 203.34 196.94 201.35
  Q 211.31 187.50 206.92 167.73
  Q 208.17 167.30 208.27 165.68
  Q 208.30 165.19 208.67 164.87
  Q 210.28 163.52 210.27 162.26
  Q 210.22 156.37 209.98 154.26
  C 209.68 151.57 210.26 150.06 212.79 148.89
  Q 216.95 146.97 217.70 146.71
  Q 229.32 142.63 241.08 140.63
  Q 264.26 136.69 284.66 134.20
  Q 292.06 133.29 300.83 133.22
  Q 300.91 133.22 300.97 133.17
  L 301.27 132.95
  A 0.35 0.34 48.3 0 1 301.73 132.98
  L 302.00 133.25
  Z
  M 283.2423 180.3242
  A 2.99 2.50 -7.8 0 0 279.9407 178.2531
  A 2.99 2.50 -7.8 0 0 277.3177 181.1358
  A 2.99 2.50 -7.8 0 0 280.6193 183.2069
  A 2.99 2.50 -7.8 0 0 283.2423 180.3242
  Z
  M 266.4900 184.6350
  A 2.87 2.42 -0.1 0 0 263.6158 182.2200
  A 2.87 2.42 -0.1 0 0 260.7500 184.6450
  A 2.87 2.42 -0.1 0 0 263.6242 187.0600
  A 2.87 2.42 -0.1 0 0 266.4900 184.6350
  Z
  M 315.25 215.77
  Q 312.95 215.85 312.20 215.61
  Q 299.58 211.53 296.22 210.54
  Q 284.11 206.94 272.86 211.42
  C 269.84 212.62 265.95 214.44 263.14 216.45
  Q 262.02 217.25 252.29 223.79
  Q 246.98 227.36 243.82 228.60
  C 237.29 231.17 229.77 231.51 223.27 231.78
  C 217.06 232.04 211.65 233.46 207.21 236.47
  Q 204.15 238.55 201.03 240.53
  Q 199.17 241.71 197.94 243.74
  A 2.35 2.30 -59.8 0 0 198.76 246.99
  Q 199.95 247.64 201.52 246.49
  Q 206.06 243.15 208.30 241.53
  Q 210.53 239.91 215.14 238.12
  Q 218.16 236.95 222.55 236.70
  Q 230.28 236.28 236.12 235.60
  Q 245.45 234.53 253.21 229.22
  Q 259.78 224.72 266.22 220.27
  C 268.66 218.59 270.59 218.02 272.72 216.85
  Q 274.97 215.61 277.87 214.94
  Q 288.02 212.60 298.46 215.85
  Q 300.49 216.48 307.02 219.55
  Q 308.84 220.40 313.65 220.25
  C 316.17 220.17 318.31 220.40 320.56 219.30
  Q 323.36 217.94 325.61 217.02
  Q 327.57 216.22 327.01 214.18
  Q 326.95 213.95 326.88 213.84
  Q 325.36 211.56 323.26 212.60
  Q 317.05 215.70 315.25 215.77
  Z"
/>
<path fill="#ffffff" d="
  M 336.40 173.91
  Q 336.25 174.82 334.76 176.24
  C 326.52 184.05 317.08 185.28 307.42 180.13
  Q 303.43 178.01 300.46 173.90
  Q 292.00 162.20 296.24 148.27
  Q 300.94 132.84 317.59 133.37
  A 1.76 1.73 75.5 0 1 319.04 134.24
  L 320.01 135.92
  Q 320.52 136.80 319.50 136.85
  C 309.47 137.30 301.66 141.61 299.34 151.78
  Q 298.72 154.49 298.94 158.63
  Q 299.15 162.54 300.25 165.25
  Q 303.62 173.56 312.76 176.48
  C 315.03 177.21 317.64 177.98 319.84 177.55
  Q 323.93 176.76 327.98 174.82
  Q 329.58 174.06 331.62 171.68
  Q 333.33 169.69 335.24 168.31
  Q 335.68 167.99 335.81 168.52
  Q 336.68 172.26 336.40 173.91
  Z"
/>
<path fill="#ffffff" d="
  M 150.00 149.08
  Q 155.08 144.93 162.50 143.72
  Q 173.76 141.87 183.69 146.01
  Q 190.65 148.90 195.78 155.65
  Q 206.38 169.57 202.06 186.04
  Q 200.84 190.70 197.71 194.44
  Q 194.68 198.06 190.26 201.46
  Q 186.10 204.67 181.39 206.28
  Q 171.92 209.51 161.55 208.70
  Q 158.07 208.42 152.25 205.97
  Q 148.52 204.40 142.09 199.20
  Q 136.08 194.34 132.55 185.52
  Q 128.23 174.70 133.06 163.56
  Q 133.86 161.70 135.00 160.75
  Q 139.27 157.15 143.29 153.75
  C 145.42 151.95 147.77 150.91 150.00 149.08
  Z
  M 198.1896 175.1708
  A 30.40 27.88 -0.3 0 0 167.6440 147.4504
  A 30.40 27.88 -0.3 0 0 137.3904 175.4892
  A 30.40 27.88 -0.3 0 0 167.9360 203.2096
  A 30.40 27.88 -0.3 0 0 198.1896 175.1708
  Z"
/>
<ellipse fill="#ffffff" cx="0.00" cy="0.00" transform="translate(320.54,150.27) rotate(48.3)" rx="7.37" ry="4.84"/>
<path fill="#060302" d="
  M 198.1896 175.1708
  A 30.40 27.88 -0.3 0 1 167.9360 203.2096
  A 30.40 27.88 -0.3 0 1 137.3904 175.4892
  A 30.40 27.88 -0.3 0 1 167.6440 147.4504
  A 30.40 27.88 -0.3 0 1 198.1896 175.1708
  Z
  M 187.4653 171.6236
  A 9.22 6.27 45.3 0 0 185.4367 160.6597
  A 9.22 6.27 45.3 0 0 174.4947 158.5164
  A 9.22 6.27 45.3 0 0 176.5233 169.4803
  A 9.22 6.27 45.3 0 0 187.4653 171.6236
  Z"
/>
<ellipse fill="#ffffff" cx="0.00" cy="0.00" transform="translate(180.98,165.07) rotate(45.3)" rx="9.22" ry="6.27"/>
<path fill="#fbf0e4" d="
  M 85.71 163.06
  Q 86.87 165.08 88.77 166.70
  Q 91.36 168.91 92.17 169.91
  Q 96.13 174.80 98.82 180.65
  Q 99.52 182.18 100.99 188.53
  C 101.95 192.69 102.13 196.98 102.50 201.07
  Q 102.81 204.50 102.76 207.46
  Q 102.71 210.72 102.56 213.86
  Q 95.85 214.68 89.58 213.54
  Q 90.96 202.04 88.93 192.07
  Q 86.48 180.06 77.71 170.89
  Q 76.27 169.39 74.48 168.28
  Q 71.46 166.41 70.33 166.12
  Q 64.96 164.78 70.27 163.64
  Q 72.74 163.11 76.56 160.78
  Q 81.90 160.51 85.71 163.06
  Z"
/>
<ellipse fill="#d1ac80" cx="0.00" cy="0.00" transform="translate(67.82,200.13) rotate(83.6)" rx="30.07" ry="17.41"/>
<path fill="#da8e2e" d="
  M 196.94 201.35
  Q 197.32 203.34 197.58 205.52
  Q 197.80 207.30 196.82 208.84
  C 194.28 212.86 191.17 215.03 186.54 217.16
  Q 183.11 218.73 180.31 219.48
  Q 166.66 223.15 152.13 220.40
  C 148.53 219.73 141.45 217.07 135.83 217.84
  Q 134.44 218.03 133.32 219.58
  C 130.09 224.05 131.45 229.36 133.73 234.48
  C 137.40 242.75 143.68 247.37 151.38 251.91
  Q 164.90 259.86 177.86 264.67
  Q 188.38 268.58 196.99 270.53
  Q 234.82 279.12 272.57 268.24
  Q 294.52 261.91 313.87 248.34
  Q 319.50 244.39 324.15 239.27
  Q 324.51 238.86 325.02 239.07
  L 326.66 239.75
  Q 321.39 250.05 313.15 258.14
  Q 309.36 261.84 309.10 262.09
  Q 306.89 264.22 304.76 265.73
  Q 289.21 276.77 270.37 281.11
  Q 267.46 281.78 261.80 282.94
  Q 257.15 283.89 253.17 284.31
  Q 226.53 287.11 204.97 284.48
  Q 192.13 282.91 174.76 278.71
  Q 149.14 272.53 124.84 260.26
  A 0.96 0.95 -73.2 0 1 124.32 259.28
  Q 124.89 254.98 121.15 252.42
  Q 119.83 251.52 105.20 242.55
  Q 100.24 239.51 97.01 234.45
  Q 101.34 232.37 102.12 226.95
  Q 103.71 227.02 103.85 226.24
  Q 104.99 220.10 105.60 215.38
  Q 105.95 212.65 106.60 211.09
  C 107.87 208.05 107.91 204.72 109.13 201.83
  C 110.02 199.71 110.22 197.65 111.23 195.20
  Q 115.69 184.38 122.72 174.22
  Q 123.97 172.41 125.32 171.29
  Q 125.72 170.95 125.87 171.52
  Q 125.98 171.91 125.86 175.02
  Q 125.78 177.07 126.01 178.57
  Q 127.47 188.05 131.79 194.42
  Q 143.03 211.00 162.98 212.79
  Q 182.69 214.56 196.94 201.35
  Z"
/>
<ellipse fill="#060302" cx="0.00" cy="0.00" transform="translate(280.28,180.73) rotate(-7.8)" rx="2.99" ry="2.50"/>
<path fill="#da8e2e" d="
  M 300.18 180.30
  Q 307.71 187.37 317.99 187.41
  Q 328.24 187.45 335.75 180.71
  A 0.41 0.41 0.0 0 1 336.43 180.96
  L 337.97 191.50
  Q 333.90 192.54 330.01 193.81
  Q 326.93 194.81 319.50 194.57
  Q 310.51 194.29 305.25 190.23
  Q 301.92 187.65 300.18 180.30
  Z"
/>
<ellipse fill="#060302" cx="0.00" cy="0.00" transform="translate(263.62,184.64) rotate(-0.1)" rx="2.87" ry="2.42"/>
<path fill="#060302" d="
  M 315.25 215.77
  Q 317.05 215.70 323.26 212.60
  Q 325.36 211.56 326.88 213.84
  Q 326.95 213.95 327.01 214.18
  Q 327.57 216.22 325.61 217.02
  Q 323.36 217.94 320.56 219.30
  C 318.31 220.40 316.17 220.17 313.65 220.25
  Q 308.84 220.40 307.02 219.55
  Q 300.49 216.48 298.46 215.85
  Q 288.02 212.60 277.87 214.94
  Q 274.97 215.61 272.72 216.85
  C 270.59 218.02 268.66 218.59 266.22 220.27
  Q 259.78 224.72 253.21 229.22
  Q 245.45 234.53 236.12 235.60
  Q 230.28 236.28 222.55 236.70
  Q 218.16 236.95 215.14 238.12
  Q 210.53 239.91 208.30 241.53
  Q 206.06 243.15 201.52 246.49
  Q 199.95 247.64 198.76 246.99
  A 2.35 2.30 -59.8 0 1 197.94 243.74
  Q 199.17 241.71 201.03 240.53
  Q 204.15 238.55 207.21 236.47
  C 211.65 233.46 217.06 232.04 223.27 231.78
  C 229.77 231.51 237.29 231.17 243.82 228.60
  Q 246.98 227.36 252.29 223.79
  Q 262.02 217.25 263.14 216.45
  C 265.95 214.44 269.84 212.62 272.86 211.42
  Q 284.11 206.94 296.22 210.54
  Q 299.58 211.53 312.20 215.61
  Q 312.95 215.85 315.25 215.77
  Z"
/>
<path fill="#d1ac80" d="
  M 89.58 213.54
  Q 95.85 214.68 102.56 213.86
  L 102.12 226.95
  Q 101.34 232.37 97.01 234.45
  L 78.19 233.23
  Q 76.88 233.15 77.99 232.44
  Q 83.04 229.18 85.87 223.69
  Q 86.61 222.27 87.74 218.64
  Q 88.57 216.01 89.58 213.54
  Z"
/>
<path fill="#d1ac80" d="
  M 94.19 241.68
  C 92.77 242.43 91.77 243.32 91.06 245.37
  Q 89.31 250.42 88.89 255.58
  Q 88.85 256.08 88.49 255.74
  Q 81.99 249.58 74.89 240.77
  Q 73.71 239.31 73.00 237.77
  Q 72.79 237.31 73.30 237.38
  Q 77.24 237.92 77.59 237.96
  Q 79.45 238.17 81.86 238.11
  Q 88.22 237.96 93.84 239.15
  Q 97.51 239.92 94.19 241.68
  Z"
/>
<path fill="#d1ac80" d="
  M 102.55 246.13
  C 106.89 249.73 112.51 252.91 118.53 256.07
  A 2.41 2.40 -69.8 0 1 119.76 258.75
  Q 119.51 259.85 118.46 264.23
  C 117.56 268.01 117.52 270.74 113.01 270.03
  C 106.20 268.96 101.96 265.70 93.63 260.02
  Q 93.20 259.72 93.24 259.20
  Q 93.68 253.95 94.68 249.12
  C 95.25 246.34 96.92 245.18 99.68 244.83
  Q 100.81 244.69 102.55 246.13
  Z
  M 103.05 256.20
  Q 104.49 256.38 110.88 259.62
  Q 113.02 260.71 113.24 258.82
  A 1.32 1.31 22.8 0 0 112.75 257.63
  Q 108.08 254.00 104.19 252.16
  C 101.91 251.08 99.25 252.05 99.09 255.04
  Q 98.90 258.27 99.13 260.19
  Q 99.18 260.64 99.43 260.86
  Q 99.79 261.20 100.29 261.07
  Q 100.87 260.92 101.00 260.33
  L 101.72 257.13
  A 1.21 1.20 10.0 0 1 103.05 256.20
  Z"
/>
<path fill="#060302" d="
  M 103.05 256.20
  A 1.21 1.20 10.0 0 0 101.72 257.13
  L 101.00 260.33
  Q 100.87 260.92 100.29 261.07
  Q 99.79 261.20 99.43 260.86
  Q 99.18 260.64 99.13 260.19
  Q 98.90 258.27 99.09 255.04
  C 99.25 252.05 101.91 251.08 104.19 252.16
  Q 108.08 254.00 112.75 257.63
  A 1.32 1.31 22.8 0 1 113.24 258.82
  Q 113.02 260.71 110.88 259.62
  Q 104.49 256.38 103.05 256.20
  Z"
/>
<path fill="#fbf0e4" d="
  M 319.41 267.43
  Q 310.22 278.74 297.55 284.73
  Q 294.26 286.28 290.99 287.88
  Q 288.64 289.03 284.24 290.55
  Q 280.73 291.76 277.45 293.51
  L 272.70 286.59
  Q 272.11 285.72 273.08 285.32
  C 276.26 284.02 280.13 283.47 283.15 282.23
  Q 290.57 279.19 291.20 278.91
  Q 308.98 270.93 321.04 256.60
  Q 323.02 254.26 322.77 257.31
  Q 322.36 262.40 319.41 267.43
  Z"
/>
<path fill="#da8e2e" d="
  M 108.62 279.63
  Q 95.17 275.13 83.78 283.06
  Q 71.30 291.76 64.82 304.53
  Q 58.04 317.88 53.75 335.78
  L 47.57 328.67
  Q 50.35 318.95 55.09 309.86
  Q 65.42 290.07 79.94 274.17
  Q 84.80 268.85 89.77 264.08
  A 0.50 0.49 39.2 0 1 90.38 264.02
  Q 96.00 267.51 101.43 270.56
  Q 106.11 273.18 108.62 279.63
  Z"
/>
<path fill="#d1ac80" d="
  M 167.03 281.47
  Q 167.64 282.85 169.68 283.38
  Q 175.71 284.97 180.25 286.54
  Q 186.15 288.59 189.10 289.36
  Q 194.53 290.78 198.10 291.66
  Q 221.87 297.53 245.00 297.60
  Q 256.39 297.63 273.03 294.42
  Q 272.68 299.36 270.03 304.29
  Q 266.47 310.92 266.43 311.00
  Q 261.22 322.19 255.63 333.21
  Q 255.41 333.65 254.91 333.73
  Q 249.15 334.60 243.46 335.34
  C 239.16 335.90 236.57 336.72 234.03 333.91
  Q 232.12 331.78 230.77 329.82
  A 4.07 4.04 -8.8 0 0 228.58 328.23
  C 224.01 326.87 219.53 325.20 214.84 323.98
  Q 205.55 321.56 193.92 317.72
  Q 184.87 314.73 178.91 312.22
  Q 171.73 309.20 164.59 304.91
  Q 150.38 296.37 137.45 285.69
  C 133.26 282.23 130.05 278.75 126.29 275.24
  Q 123.22 272.38 122.08 270.25
  Q 121.84 269.80 121.95 269.30
  L 122.87 265.18
  Q 123.02 264.53 123.62 264.81
  Q 145.76 274.99 151.60 276.67
  Q 159.46 278.94 167.03 281.47
  Z"
/>
<path fill="#d1ac80" d="
  M 319.41 267.43
  Q 315.35 276.66 312.62 281.12
  Q 311.05 283.68 310.02 285.76
  Q 307.95 289.92 307.63 290.49
  Q 304.26 296.43 301.37 301.39
  C 300.00 303.76 298.04 305.76 296.15 307.41
  Q 290.07 312.70 279.39 321.40
  Q 277.03 323.32 272.65 329.88
  Q 272.30 330.40 271.47 330.84
  Q 270.99 331.10 270.02 331.13
  C 267.46 331.22 264.45 332.25 262.20 332.83
  Q 261.56 332.99 261.79 332.37
  Q 263.41 327.95 264.75 325.26
  Q 267.31 320.12 267.36 320.00
  Q 274.06 306.02 277.09 300.35
  Q 278.87 297.02 277.45 293.51
  Q 280.73 291.76 284.24 290.55
  Q 288.64 289.03 290.99 287.88
  Q 294.26 286.28 297.55 284.73
  Q 310.22 278.74 319.41 267.43
  Z"
/>
<path fill="#d1ac80" d="
  M 256.05 344.83
  Q 237.29 347.70 219.67 345.36
  C 211.52 344.27 201.72 342.25 192.60 339.61
  Q 179.43 335.79 174.35 333.83
  Q 165.43 330.38 163.29 329.63
  C 156.15 327.12 148.49 323.20 141.58 319.81
  A 3.21 3.21 0.0 0 0 137.16 321.55
  Q 135.94 324.76 135.38 329.59
  Q 134.05 341.06 133.33 345.18
  Q 130.48 361.53 124.99 384.42
  A 0.43 0.43 0.0 0 1 124.40 384.71
  Q 107.41 377.48 92.81 368.34
  Q 99.26 353.11 101.25 346.99
  Q 104.40 337.30 108.81 331.58
  Q 110.30 329.66 112.81 327.57
  C 117.59 323.60 121.45 320.76 121.47 313.79
  Q 121.50 294.00 111.67 275.25
  Q 111.36 274.66 112.01 274.75
  Q 114.65 275.11 117.55 274.13
  Q 118.16 273.92 118.63 274.37
  Q 124.55 280.00 124.81 280.25
  Q 135.89 290.94 149.08 300.61
  Q 157.18 306.55 165.36 310.87
  Q 175.29 316.11 182.79 318.97
  Q 189.48 321.52 203.55 325.64
  Q 204.71 325.98 212.61 328.40
  Q 217.20 329.80 221.82 330.69
  Q 226.25 331.54 228.92 334.81
  Q 231.91 338.48 232.13 338.65
  Q 235.39 341.17 240.25 340.54
  Q 247.61 339.58 254.95 338.53
  Q 255.48 338.46 255.53 338.99
  L 256.05 344.83
  Z"
/>
<path fill="#fbca01" d="
  M 108.62 279.63
  Q 114.28 290.99 116.31 304.49
  Q 117.13 309.94 116.71 315.49
  Q 116.54 317.74 114.57 319.58
  Q 110.76 323.14 107.20 326.41
  Q 104.58 328.82 101.96 333.39
  Q 100.01 336.79 98.36 341.22
  Q 95.64 348.54 91.38 359.87
  Q 90.90 361.13 88.68 365.56
  Q 69.08 352.47 53.75 335.78
  Q 58.04 317.88 64.82 304.53
  Q 71.30 291.76 83.78 283.06
  Q 95.17 275.13 108.62 279.63
  Z"
/>
<path fill="#da8e2e" d="
  M 320.50 284.18
  Q 319.22 287.74 318.82 291.31
  Q 318.37 295.43 317.70 297.27
  Q 316.09 301.66 314.59 304.69
  Q 312.90 308.09 312.35 310.95
  Q 311.38 315.94 311.29 317.53
  Q 310.83 326.14 311.40 337.25
  Q 312.09 350.85 312.39 364.88
  L 303.62 370.22
  Q 303.60 350.66 303.90 331.75
  Q 304.21 311.71 305.11 304.98
  Q 305.27 303.79 307.27 300.63
  Q 309.00 297.90 309.74 296.48
  Q 314.25 287.93 318.29 280.46
  Q 318.52 280.02 318.82 280.43
  Q 320.33 282.51 320.50 284.18
  Z"
/>
<path fill="#fbf0e4" d="
  M 273.03 294.42
  Q 256.39 297.63 245.00 297.60
  Q 221.87 297.53 198.10 291.66
  Q 194.53 290.78 189.10 289.36
  Q 186.15 288.59 180.25 286.54
  Q 175.71 284.97 169.68 283.38
  Q 167.64 282.85 167.03 281.47
  Q 173.28 282.75 179.32 284.43
  Q 182.48 285.31 186.48 285.90
  C 189.72 286.38 193.30 287.26 196.11 287.71
  Q 223.40 292.09 252.29 288.79
  Q 260.89 287.81 266.61 286.56
  Q 267.08 286.46 267.37 286.84
  L 273.03 294.42
  Z"
/>
<path fill="#fbca01" d="
  M 320.50 284.18
  Q 322.94 289.76 324.07 294.72
  Q 328.74 315.12 329.66 331.51
  Q 330.10 339.18 328.84 352.35
  Q 321.49 358.88 312.39 364.88
  Q 312.09 350.85 311.40 337.25
  Q 310.83 326.14 311.29 317.53
  Q 311.38 315.94 312.35 310.95
  Q 312.90 308.09 314.59 304.69
  Q 316.09 301.66 317.70 297.27
  Q 318.37 295.43 318.82 291.31
  Q 319.22 287.74 320.50 284.18
  Z"
/>
<path fill="#d1ac80" d="
  M 299.32 320.70
  Q 293.48 326.23 288.30 331.61
  Q 286.28 333.71 284.47 335.10
  C 282.60 336.55 280.85 337.98 278.80 339.14
  Q 270.31 343.95 260.64 344.19
  L 260.35 338.32
  Q 260.33 337.78 260.85 337.66
  Q 266.35 336.37 271.93 335.68
  Q 273.79 335.45 275.86 332.86
  C 278.87 329.10 281.52 325.86 285.54 322.53
  Q 292.41 316.84 299.30 311.16
  Q 299.75 310.79 299.73 311.37
  L 299.32 320.70
  Z"
/>
</svg>
