<?xml version="1.0" encoding="utf-8"?>
<!-- Generator: Adobe Illustrator 22.0.0, SVG Export Plug-In . SVG Version: 6.00 Build 0)  -->
<svg version="1.1" id="TrueUSD" xmlns="http://www.w3.org/2000/svg" xmlns:xlink="http://www.w3.org/1999/xlink" x="0px" y="0px"
	 viewBox="0 0 245 245" style="enable-background:new 0 0 245 245;" xml:space="preserve">
<style type="text/css">
	.st0{fill:#56CABD;}
	.st1{fill:#FFFFFF;}
</style>
<path id="Main" class="st0" d="M0,122.5C0,190,55,245,122.5,245S245,190,245,122.5S190,0,122.5,0S0,55,0,122.5z"/>
<g id="TrueUSD-2">
	<path id="T" class="st1" d="M82.5,104.5h29V170c0,0,19-6.3,19-21.5v-44h6.5c17.2,0,22.5-17.5,22.5-17.5H109
		C86.3,87,82.5,104.5,82.5,104.5z"/>
	<path id="Bottom" class="st1" d="M163.9,72c35.7,32.8,26.6,76.7,0.5,100c-28.2,25-85,32.4-120.4-11c15.2,37.5,85,73.4,137.9,23.5
		C220.9,148,204.2,89.8,163.9,72z"/>
	<path id="Top" class="st1" d="M81,173c-35.7-32.8-26.6-76.6-0.5-100c28.2-25,85.1-32.4,120.5,11c-15.2-37.5-85.1-73.4-138-23.5
		C24,97,40.7,155.2,81,173z"/>
</g>
</svg>
