<?xml version="1.0" encoding="UTF-8" standalone="no"?>
<svg
   xmlns:dc="http://purl.org/dc/elements/1.1/"
   xmlns:cc="http://creativecommons.org/ns#"
   xmlns:rdf="http://www.w3.org/1999/02/22-rdf-syntax-ns#"
   xmlns:svg="http://www.w3.org/2000/svg"
   xmlns="http://www.w3.org/2000/svg"
   xmlns:sodipodi="http://sodipodi.sourceforge.net/DTD/sodipodi-0.dtd"
   xmlns:inkscape="http://www.inkscape.org/namespaces/inkscape"
   id="svg1717"
   version="1.1"
   viewBox="0 0 64.822915 64.822918"
   height="245"
   width="245"
   sodipodi:docname="TUSD_ERC20.svg"
   inkscape:version="1.0.2-2 (e86c870879, 2021-01-15)">
  <sodipodi:namedview
     pagecolor="#ffffff"
     bordercolor="#666666"
     borderopacity="1"
     objecttolerance="10"
     gridtolerance="10"
     guidetolerance="10"
     inkscape:pageopacity="0"
     inkscape:pageshadow="2"
     inkscape:window-width="1920"
     inkscape:window-height="1017"
     id="namedview13"
     showgrid="false"
     inkscape:zoom="3.3203125"
     inkscape:cx="122.5"
     inkscape:cy="122.49999"
     inkscape:window-x="-8"
     inkscape:window-y="-8"
     inkscape:window-maximized="1"
     inkscape:current-layer="svg1717" />
  <defs
     id="defs1711" />
  <metadata
     id="metadata1714">
    <rdf:RDF>
      <cc:Work
         rdf:about="">
        <dc:format>image/svg+xml</dc:format>
        <dc:type
           rdf:resource="http://purl.org/dc/dcmitype/StillImage" />
        <dc:title />
      </cc:Work>
    </rdf:RDF>
  </metadata>
  <g
     transform="translate(-1.4552081,-230.72186)"
     id="layer1">
    <g
       transform="matrix(0.25321452,0,0,0.25321452,1.4552081,230.72186)"
       id="g2374">
      <path
         style="fill:#1a5aff"
         class="st0"
         d="m 128,0 v 0 c 70.7,0 128,57.3 128,128 v 0 c 0,70.7 -57.3,128 -128,128 v 0 C 57.3,256 0,198.7 0,128 v 0 C 0,57.3 57.3,0 128,0 Z"
         id="path2354" />
      <path
         style="fill:#ffffff"
         class="st1"
         d="M 78.3,186 50,169.8 96.1,90.2 C 99,85.2 104.4,82 110.2,82 H 147 v 32 h -27 z"
         id="path2356" />
      <path
         style="fill:#ffffff"
         class="st1"
         d="M 143.3,186 115,169.8 161.1,90.2 c 2.9,-5 8.3,-8.2 14.1,-8.2 H 212 v 32 h -27 z"
         id="path2358" />
      <path
         style="fill:#ffffff"
         class="st1"
         d="M 53,114 V 82 h 32 c 0,17.7 -14.3,32 -32,32 z"
         id="path2360" />
    </g>
  </g>
  <style
     type="text/css"
     id="style2352">
	.st0{fill:#1A5AFF;}
	.st1{fill:#FFFFFF;}
</style>
</svg>
