<?xml version="1.0" encoding="UTF-8" standalone="no"?>
<svg
   xmlns:dc="http://purl.org/dc/elements/1.1/"
   xmlns:cc="http://creativecommons.org/ns#"
   xmlns:rdf="http://www.w3.org/1999/02/22-rdf-syntax-ns#"
   xmlns:svg="http://www.w3.org/2000/svg"
   xmlns="http://www.w3.org/2000/svg"
   xmlns:sodipodi="http://sodipodi.sourceforge.net/DTD/sodipodi-0.dtd"
   xmlns:inkscape="http://www.inkscape.org/namespaces/inkscape"
   viewBox="0 0 64.823999 64.823999"
   height="245.00529"
   width="245.00529"
   version="1.1"
   id="svg8"
   sodipodi:docname="TUSD_BEP20.svg"
   inkscape:version="1.0.2-2 (e86c870879, 2021-01-15)">
  <metadata
     id="metadata8">
    <rdf:RDF>
      <cc:Work
         rdf:about="">
        <dc:format>image/svg+xml</dc:format>
        <dc:type
           rdf:resource="http://purl.org/dc/dcmitype/StillImage" />
      </cc:Work>
    </rdf:RDF>
  </metadata>
  <defs
     id="defs12" />
  <sodipodi:namedview
     id="namedview10"
     pagecolor="#ffffff"
     bordercolor="#666666"
     borderopacity="1.0"
     inkscape:pageshadow="2"
     inkscape:pageopacity="0.0"
     inkscape:pagecheckerboard="0"
     showgrid="false"
     inkscape:zoom="3.4101562"
     inkscape:cx="122.50076"
     inkscape:cy="122.50076"
     inkscape:window-width="1920"
     inkscape:window-height="1017"
     inkscape:window-x="-8"
     inkscape:window-y="-8"
     inkscape:window-maximized="1"
     inkscape:current-layer="svg8"
     inkscape:document-rotation="0" />
  <path
     d="m 32.412,0 v 0 c 17.902,0 32.412,14.509 32.412,32.412 v 0 c 0,17.902 -14.509,32.412 -32.412,32.412 v 0 C 14.51,64.824 0,50.315 0,32.412 v 0 C 0,14.51 14.509,0 32.412,0 Z"
     fill="#1a5aff"
     id="path2" />
  <path
     d="M 19.827,47.098 12.661,42.996 24.334,22.84 a 4.16,4.16 0 0 1 3.57,-2.076 h 9.318 v 8.103 h -6.837 z m 16.459,0 L 29.12,42.996 40.793,22.84 a 4.16,4.16 0 0 1 3.57,-2.076 h 9.318 v 8.103 H 46.845 Z M 13.421,28.866 v -8.103 h 8.103 c 0,4.482 -3.621,8.103 -8.103,8.103 z"
     fill="#ffffff"
     id="path4" />
</svg>
