<svg xmlns="http://www.w3.org/2000/svg" viewBox="0 0 67.733 67.733" height="256" width="256" xmlns:v="https://vecta.io/nano"><path d="M33.867 1.455h0c17.902 0 32.412 14.509 32.412 32.412h0c0 17.902-14.509 32.412-32.412 32.412h0c-17.902 0-32.412-14.509-32.412-32.412h0c0-17.902 14.509-32.412 32.412-32.412z" fill="#1a5aff"/><path d="M21.282 48.553l-7.166-4.102 11.673-20.156a4.16 4.16 0 0 1 3.57-2.076h9.318v8.103H31.84zm16.459 0l-7.166-4.102 11.673-20.156a4.16 4.16 0 0 1 3.57-2.076h9.318v8.103H48.3zM14.876 30.321v-8.103h8.103c0 4.482-3.621 8.103-8.103 8.103z" fill="#fff"/><circle r="30.834" cy="33.866" cx="33.867" fill="none" stroke="#474747" stroke-width="3.42" stroke-linejoin="round" paint-order="stroke fill markers"/></svg>