<?xml version="1.0" encoding="UTF-8" standalone="no"?>
<svg
   xmlns:dc="http://purl.org/dc/elements/1.1/"
   xmlns:cc="http://creativecommons.org/ns#"
   xmlns:rdf="http://www.w3.org/1999/02/22-rdf-syntax-ns#"
   xmlns:svg="http://www.w3.org/2000/svg"
   xmlns="http://www.w3.org/2000/svg"
   id="svg1717"
   version="1.1"
   viewBox="0 0 67.733332 67.733335"
   height="256"
   width="256">
  <defs
     id="defs1711" />
  <metadata
     id="metadata1714">
    <rdf:RDF>
      <cc:Work
         rdf:about="">
        <dc:format>image/svg+xml</dc:format>
        <dc:type
           rdf:resource="http://purl.org/dc/dcmitype/StillImage" />
        <dc:title></dc:title>
      </cc:Work>
    </rdf:RDF>
  </metadata>
  <g
     transform="translate(0,-229.26665)"
     id="layer1">
    <g
       transform="matrix(0.25321452,0,0,0.25321452,1.4552081,230.72186)"
       id="g2374">
      <path
         style="fill:#1a5aff"
         class="st0"
         d="m 128,0 v 0 c 70.7,0 128,57.3 128,128 v 0 c 0,70.7 -57.3,128 -128,128 v 0 C 57.3,256 0,198.7 0,128 v 0 C 0,57.3 57.3,0 128,0 Z"
         id="path2354" />
      <path
         style="fill:#ffffff"
         class="st1"
         d="M 78.3,186 50,169.8 96.1,90.2 C 99,85.2 104.4,82 110.2,82 H 147 v 32 h -27 z"
         id="path2356" />
      <path
         style="fill:#ffffff"
         class="st1"
         d="M 143.3,186 115,169.8 161.1,90.2 c 2.9,-5 8.3,-8.2 14.1,-8.2 H 212 v 32 h -27 z"
         id="path2358" />
      <path
         style="fill:#ffffff"
         class="st1"
         d="M 53,114 V 82 h 32 c 0,17.7 -14.3,32 -32,32 z"
         id="path2360" />
    </g>
    <circle
       r="30.833921"
       cy="263.13333"
       cx="33.866665"
       id="path2008"
       style="opacity:1;fill:none;fill-opacity:1;fill-rule:nonzero;stroke:#b0b0b0;stroke-width:3.41965699;stroke-linecap:round;stroke-linejoin:round;stroke-miterlimit:4;stroke-dasharray:none;stroke-dashoffset:0;stroke-opacity:1;paint-order:stroke fill markers" />
  </g>
  <style
     type="text/css"
     id="style2352">
	.st0{fill:#1A5AFF;}
	.st1{fill:#FFFFFF;}
</style>
</svg>
