<?xml version="1.0" encoding="UTF-8" standalone="no"?>
<svg
   xmlns:dc="http://purl.org/dc/elements/1.1/"
   xmlns:cc="http://creativecommons.org/ns#"
   xmlns:rdf="http://www.w3.org/1999/02/22-rdf-syntax-ns#"
   xmlns:svg="http://www.w3.org/2000/svg"
   xmlns="http://www.w3.org/2000/svg"
   id="svg8"
   version="1.1"
   viewBox="0 0 67.733332 67.733335"
   height="256"
   width="256">
  <defs
     id="defs2">
    <style
       id="style868">
      .cls-1 {
        fill: #ff4a4a;
      }
    </style>
  </defs>
  <metadata
     id="metadata5">
    <rdf:RDF>
      <cc:Work
         rdf:about="">
        <dc:format>image/svg+xml</dc:format>
        <dc:type
           rdf:resource="http://purl.org/dc/dcmitype/StillImage" />
        <dc:title></dc:title>
      </cc:Work>
    </rdf:RDF>
  </metadata>
  <g
     transform="translate(0,-229.26665)"
     id="layer1">
    <circle
       r="32.411457"
       cy="263.13333"
       cx="33.866665"
       id="path815"
       style="opacity:1;fill:#ff4a4a;fill-opacity:1;fill-rule:nonzero;stroke:none;stroke-width:0.72985065;stroke-linecap:round;stroke-linejoin:round;stroke-miterlimit:4;stroke-dasharray:none;stroke-dashoffset:0;stroke-opacity:1;paint-order:stroke fill markers" />
    <g
       style="fill:#ffffff;fill-opacity:1"
       transform="matrix(0.37072805,0,0,0.37072805,8.4710538,256.77237)"
       id="g886">
      <path
         style="fill:#ffffff;fill-opacity:1"
         id="Fill_1"
         data-name="Fill 1"
         class="cls-1"
         d="M 40.635,34.02 H 34.841 A 1.968,1.968 0 0 1 32.87,32.055 V 16.786 L 22.7,23.145 a 2.634,2.634 0 0 1 -2.792,0 L 9.736,16.785 v 15.27 A 1.968,1.968 0 0 1 7.765,34.02 H 1.971 A 1.968,1.968 0 0 1 0,32.055 V 2.625 A 2.628,2.628 0 0 1 4.112,0.464 L 20.19,11.445 a 1.974,1.974 0 0 0 2.228,0 L 38.493,0.464 a 2.627,2.627 0 0 1 4.113,2.16 v 29.431 a 1.968,1.968 0 0 1 -1.971,1.965"
         transform="translate(47.24,0.296)" />
      <path
         style="fill:#ffffff;fill-opacity:1"
         id="Fill_4"
         data-name="Fill 4"
         class="cls-1"
         d="M 38.511,34.054 H 2.615 A 2.612,2.612 0 0 1 0,31.444 V 1.957 A 1.959,1.959 0 0 1 1.961,0 h 5.767 a 1.959,1.959 0 0 1 1.961,1.957 v 22.43 H 31.437 V 1.957 A 1.958,1.958 0 0 1 33.4,0 h 5.767 a 1.959,1.959 0 0 1 1.961,1.957 v 29.488 a 2.612,2.612 0 0 1 -2.615,2.609" />
      <path
         style="fill:#ffffff;fill-opacity:1"
         id="Fill_6"
         data-name="Fill 6"
         class="cls-1"
         d="m 2.615,0 h 35.9 A 2.612,2.612 0 0 1 41.13,2.609 V 32.1 a 1.959,1.959 0 0 1 -1.961,1.957 H 33.4 A 1.959,1.959 0 0 1 31.437,32.1 V 10.971 a 1.306,1.306 0 0 0 -1.308,-1.3 H 11 a 1.306,1.306 0 0 0 -1.308,1.3 V 32.1 A 1.959,1.959 0 0 1 7.731,34.057 H 1.961 A 1.959,1.959 0 0 1 0,32.1 V 2.609 A 2.612,2.612 0 0 1 2.615,0"
         transform="translate(95.874)" />
      <path
         style="fill:#ffffff;fill-opacity:1"
         id="Fill_8"
         data-name="Fill 8"
         class="cls-1"
         d="M 0,1.943 V 7.749 A 1.953,1.953 0 0 0 1.963,9.692 H 7.729 A 1.953,1.953 0 0 0 9.692,7.749 V 1.943 A 1.953,1.953 0 0 0 7.729,0 H 1.963 A 1.953,1.953 0 0 0 0,1.943"
         transform="translate(111.591,15.979)" />
    </g>
  </g>
</svg>
