<svg xmlns="http://www.w3.org/2000/svg" viewBox="0 0 67.733 67.733" height="256" width="256" xmlns:v="https://vecta.io/nano"><path d="M1.455 33.866c0 17.872 14.54 32.411 32.411 32.411s32.411-14.54 32.411-32.411S51.738 1.455 33.867 1.455 1.455 15.995 1.455 33.866z" fill="#ff007a"/><g fill="#fff"><path d="M30.752 23.007c-.467-.072-.487-.081-.267-.115.421-.065 1.416.023 2.101.186 1.6.38 3.056 1.354 4.61 3.085l.413.46.591-.095c2.488-.4 5.019-.082 7.136.896.582.269 1.501.805 1.615.942.037.044.104.326.149.627.157 1.042.079 1.841-.24 2.438-.173.325-.183.428-.067.706.093.222.353.386.61.386.526-.001 1.092-.851 1.355-2.034l.104-.47.206.234c1.132 1.283 2.022 3.033 2.175 4.278l.04.325-.19-.295c-.327-.508-.657-.854-1.078-1.133-.76-.503-1.563-.674-3.691-.786-1.922-.101-3.009-.265-4.088-.617-1.835-.598-2.76-1.395-4.939-4.254-.968-1.27-1.567-1.973-2.162-2.539-1.353-1.286-2.682-1.96-4.383-2.224zm16.632 2.836c.048-.851.164-1.412.396-1.925.092-.203.178-.369.191-.369s-.027.15-.089.333c-.169.498-.196 1.178-.08 1.97.148 1.005.232 1.15 1.293 2.235l1.287 1.427.382.501-.382-.358c-.467-.438-1.541-1.292-1.778-1.414-.159-.082-.183-.08-.281.017-.09.09-.109.225-.122.864-.02.996-.155 1.636-.483 2.275-.177.346-.205.272-.045-.118.12-.291.132-.42.131-1.384-.002-1.938-.232-2.404-1.581-3.202a14.89 14.89 0 0 0-1.251-.648l-.612-.299c.038-.038 1.354.346 1.883.55.788.303.918.342 1.013.306.064-.025.095-.211.126-.76zm-15.725 3.315c-.948-1.305-1.535-3.306-1.408-4.802l.039-.463.216.039a5.42 5.42 0 0 1 1.431.533c.898.545 1.287 1.263 1.682 3.107l.338 1.358c.113.333.538 1.111.884 1.616.249.364.084.536-.467.487-.841-.076-1.98-.862-2.715-1.874zm14.575 9.714c-4.431-1.784-5.991-3.332-5.991-5.945l.029-.699c.016 0 .187.127.381.282.898.721 1.905 1.028 4.69 1.435 1.639.239 2.561.432 3.412.714 2.704.897 4.377 2.717 4.776 5.196.116.72.048 2.071-.14 2.783-.148.562-.601 1.576-.721 1.615-.033.011-.066-.117-.074-.29-.046-.931-.516-1.837-1.306-2.516-.898-.772-2.105-1.386-5.056-2.574zm-3.11.741c-.056-.331-.152-.752-.214-.937l-.113-.337.21.236c.291.326.52.744.715 1.299.149.424.165.551.164 1.24-.001.677-.02.819-.157 1.201-.216.602-.485 1.029-.935 1.488-.809.824-1.85 1.28-3.351 1.469-.261.033-1.022.088-1.691.123-1.685.088-2.795.269-3.791.619-.143.05-.271.081-.284.068-.04-.04.638-.445 1.199-.715.79-.381 1.577-.589 3.34-.882l1.998-.391c2.156-.661 3.265-2.368 2.91-4.48zm2.031 3.607c-.589-1.266-.724-2.487-.401-3.627.034-.122.09-.221.123-.221s.172.075.309.167c.271.183.815.49 2.265 1.28 1.809.986 2.84 1.75 3.541 2.622.614.764.994 1.634 1.177 2.695.104.601.043 2.047-.111 2.653-.486 1.908-1.617 3.407-3.229 4.282l-.471.234c-.023.001.063-.218.191-.486.542-1.134.604-2.236.194-3.464-.251-.751-.763-1.669-1.796-3.218l-1.792-2.917zm-16.642 6.828c1.644-1.388 3.69-2.374 5.553-2.677.803-.131 2.141-.079 2.885.112 1.192.305 2.258.988 2.813 1.802.542.796.775 1.489 1.017 3.032l.231 1.358c.182.799.536 1.439.974 1.759.696.51 1.895.541 3.075.081.2-.078.374-.132.386-.12.043.043-.551.44-.97.649a3.29 3.29 0 0 1-1.608.39c-1.08 0-1.977-.549-2.726-1.67-.147-.221-.478-.881-.736-1.468-.79-1.802-1.18-2.351-2.098-2.952-.798-.523-1.828-.616-2.603-.237-1.017.499-1.301 1.799-.573 2.623a2.26 2.26 0 0 0 1.271.665c.826.103 1.536-.526 1.536-1.36 0-.542-.208-.851-.732-1.087-.716-.323-1.485.055-1.482.727.002.287.126.467.414.597.184.083.189.09.038.059-.657-.136-.811-.928-.283-1.454.634-.631 1.945-.353 2.395.509.189.362.211 1.082.046 1.518-.369.974-1.445 1.486-2.537 1.207-.743-.19-1.046-.395-1.942-1.318-1.557-1.604-2.162-1.915-4.406-2.265l-.43-.067z"/><path d="M16.771 14.117l13.615 16.688c.329.454.205.863-.358 1.183-.313.178-.957.358-1.279.358-.365 0-.775-.176-1.074-.459-.211-.2-1.064-1.474-3.034-4.53l-2.802-4.31c-.08-.075-.078-.073 2.649 4.806l2.29 4.291c0 .295-.08.449-.444.855-.606.676-.877 1.435-1.072 3.007-.219 1.762-.835 3.007-2.543 5.137-1 1.247-1.163 1.475-1.416 1.978-.318.633-.405.987-.441 1.787a5.56 5.56 0 0 0 .294 2.199c.226.707.462 1.174 1.065 2.108.52.806.82 1.405.82 1.639 0 .187.036.187.842.005 1.93-.436 3.497-1.202 4.379-2.142.545-.581.674-.902.678-1.699.003-.521-.016-.63-.156-.93-.229-.488-.647-.894-1.567-1.523-1.206-.824-1.721-1.488-1.863-2.4-.117-.749.019-1.277.686-2.675.69-1.447.861-2.064.977-3.522.075-.942.178-1.314.449-1.612.282-.311.537-.416 1.235-.512 1.139-.156 1.865-.45 2.461-1 .517-.477.734-.936.767-1.627l.025-.524-.289-.337c-1.047-1.221-15.594-17.199-15.658-17.199-.014 0 .331.432.765.959zm6.857 31.747c.237-.419.111-.958-.285-1.221-.374-.249-.955-.132-.955.193 0 .099.055.171.178.234.208.107.223.227.059.472s-.152.467.038.616c.306.239.739.108.965-.294zm9.044-11.745c-.535.164-1.055.731-1.216 1.325-.098.362-.042.999.105 1.195.238.317.467.401 1.089.396 1.218-.009 2.277-.531 2.4-1.184.101-.535-.364-1.277-1.005-1.603a2.38 2.38 0 0 0-1.373-.13zm1.424 1.113c.188-.267.106-.555-.214-.75-.608-.371-1.528-.064-1.528.511 0 .286.48.598.919.598.293 0 .693-.175.823-.358z" fill-rule="evenodd"/></g><path d="M33.893 4.339c-16.282 0-29.527 13.246-29.527 29.527s13.246 29.527 29.527 29.527 29.527-13.246 29.527-29.527S50.175 4.339 33.893 4.339m0-2.91c17.873 0 32.438 14.564 32.438 32.438S51.767 66.305 33.893 66.305 1.455 51.74 1.455 33.867 16.02 1.429 33.893 1.429z" fill="#474747"/></svg>