<?xml version="1.0" encoding="UTF-8" standalone="no"?>
<svg
   xmlns:dc="http://purl.org/dc/elements/1.1/"
   xmlns:cc="http://creativecommons.org/ns#"
   xmlns:rdf="http://www.w3.org/1999/02/22-rdf-syntax-ns#"
   xmlns:svg="http://www.w3.org/2000/svg"
   xmlns="http://www.w3.org/2000/svg"
   xmlns:sodipodi="http://sodipodi.sourceforge.net/DTD/sodipodi-0.dtd"
   xmlns:inkscape="http://www.inkscape.org/namespaces/inkscape"
   viewBox="0 0 64.822 64.822"
   height="244.99774"
   width="244.99774"
   version="1.1"
   id="svg12"
   sodipodi:docname="UNI_BEP20.svg"
   inkscape:version="1.0.2-2 (e86c870879, 2021-01-15)">
  <metadata
     id="metadata10">
    <rdf:RDF>
      <cc:Work
         rdf:about="">
        <dc:format>image/svg+xml</dc:format>
        <dc:type
           rdf:resource="http://purl.org/dc/dcmitype/StillImage" />
      </cc:Work>
    </rdf:RDF>
  </metadata>
  <defs
     id="defs16" />
  <sodipodi:namedview
     id="namedview14"
     pagecolor="#ffffff"
     bordercolor="#666666"
     borderopacity="1.0"
     inkscape:pageshadow="2"
     inkscape:pageopacity="0.0"
     inkscape:pagecheckerboard="0"
     showgrid="false"
     inkscape:zoom="3.4101562"
     inkscape:cx="122.50076"
     inkscape:cy="122.50076"
     inkscape:window-width="1920"
     inkscape:window-height="1017"
     inkscape:window-x="-8"
     inkscape:window-y="-8"
     inkscape:window-maximized="1"
     inkscape:current-layer="svg12"
     inkscape:document-rotation="0" />
  <path
     d="m 0,32.411 c 0,17.872 14.54,32.411 32.411,32.411 17.871,0 32.411,-14.54 32.411,-32.411 C 64.822,14.54 50.283,0 32.412,0 14.541,0 0,14.54 0,32.411 Z"
     fill="#ff007a"
     id="path2" />
  <g
     fill="#ffffff"
     id="g8"
     transform="translate(-1.455,-1.455)">
    <path
       d="m 30.752,23.007 c -0.467,-0.072 -0.487,-0.081 -0.267,-0.115 0.421,-0.065 1.416,0.023 2.101,0.186 1.6,0.38 3.056,1.354 4.61,3.085 l 0.413,0.46 0.591,-0.095 c 2.488,-0.4 5.019,-0.082 7.136,0.896 0.582,0.269 1.501,0.805 1.615,0.942 0.037,0.044 0.104,0.326 0.149,0.627 0.157,1.042 0.079,1.841 -0.24,2.438 -0.173,0.325 -0.183,0.428 -0.067,0.706 0.093,0.222 0.353,0.386 0.61,0.386 0.526,-0.001 1.092,-0.851 1.355,-2.034 l 0.104,-0.47 0.206,0.234 c 1.132,1.283 2.022,3.033 2.175,4.278 l 0.04,0.325 -0.19,-0.295 c -0.327,-0.508 -0.657,-0.854 -1.078,-1.133 -0.76,-0.503 -1.563,-0.674 -3.691,-0.786 -1.922,-0.101 -3.009,-0.265 -4.088,-0.617 -1.835,-0.598 -2.76,-1.395 -4.939,-4.254 -0.968,-1.27 -1.567,-1.973 -2.162,-2.539 -1.353,-1.286 -2.682,-1.96 -4.383,-2.224 z m 16.632,2.836 c 0.048,-0.851 0.164,-1.412 0.396,-1.925 0.092,-0.203 0.178,-0.369 0.191,-0.369 0.013,0 -0.027,0.15 -0.089,0.333 -0.169,0.498 -0.196,1.178 -0.08,1.97 0.148,1.005 0.232,1.15 1.293,2.235 l 1.287,1.427 0.382,0.501 -0.382,-0.358 c -0.467,-0.438 -1.541,-1.292 -1.778,-1.414 -0.159,-0.082 -0.183,-0.08 -0.281,0.017 -0.09,0.09 -0.109,0.225 -0.122,0.864 -0.02,0.996 -0.155,1.636 -0.483,2.275 -0.177,0.346 -0.205,0.272 -0.045,-0.118 0.12,-0.291 0.132,-0.42 0.131,-1.384 -0.002,-1.938 -0.232,-2.404 -1.581,-3.202 A 14.89,14.89 0 0 0 44.972,26.047 L 44.36,25.748 c 0.038,-0.038 1.354,0.346 1.883,0.55 0.788,0.303 0.918,0.342 1.013,0.306 0.064,-0.025 0.095,-0.211 0.126,-0.76 z m -15.725,3.315 c -0.948,-1.305 -1.535,-3.306 -1.408,-4.802 l 0.039,-0.463 0.216,0.039 a 5.42,5.42 0 0 1 1.431,0.533 c 0.898,0.545 1.287,1.263 1.682,3.107 l 0.338,1.358 c 0.113,0.333 0.538,1.111 0.884,1.616 0.249,0.364 0.084,0.536 -0.467,0.487 -0.841,-0.076 -1.98,-0.862 -2.715,-1.874 z m 14.575,9.714 C 41.803,37.088 40.243,35.54 40.243,32.927 l 0.029,-0.699 c 0.016,0 0.187,0.127 0.381,0.282 0.898,0.721 1.905,1.028 4.69,1.435 1.639,0.239 2.561,0.432 3.412,0.714 2.704,0.897 4.377,2.717 4.776,5.196 0.116,0.72 0.048,2.071 -0.14,2.783 -0.148,0.562 -0.601,1.576 -0.721,1.615 -0.033,0.011 -0.066,-0.117 -0.074,-0.29 C 52.55,43.032 52.08,42.126 51.29,41.447 50.392,40.675 49.185,40.061 46.234,38.873 Z m -3.11,0.741 C 43.068,39.282 42.972,38.861 42.91,38.676 l -0.113,-0.337 0.21,0.236 c 0.291,0.326 0.52,0.744 0.715,1.299 0.149,0.424 0.165,0.551 0.164,1.24 -0.001,0.677 -0.02,0.819 -0.157,1.201 -0.216,0.602 -0.485,1.029 -0.935,1.488 -0.809,0.824 -1.85,1.28 -3.351,1.469 -0.261,0.033 -1.022,0.088 -1.691,0.123 -1.685,0.088 -2.795,0.269 -3.791,0.619 -0.143,0.05 -0.271,0.081 -0.284,0.068 -0.04,-0.04 0.638,-0.445 1.199,-0.715 0.79,-0.381 1.577,-0.589 3.34,-0.882 l 1.998,-0.391 c 2.156,-0.661 3.265,-2.368 2.91,-4.48 z m 2.031,3.607 c -0.589,-1.266 -0.724,-2.487 -0.401,-3.627 0.034,-0.122 0.09,-0.221 0.123,-0.221 0.033,0 0.172,0.075 0.309,0.167 0.271,0.183 0.815,0.49 2.265,1.28 1.809,0.986 2.84,1.75 3.541,2.622 0.614,0.764 0.994,1.634 1.177,2.695 0.104,0.601 0.043,2.047 -0.111,2.653 -0.486,1.908 -1.617,3.407 -3.229,4.282 l -0.471,0.234 c -0.023,10e-4 0.063,-0.218 0.191,-0.486 0.542,-1.134 0.604,-2.236 0.194,-3.464 -0.251,-0.751 -0.763,-1.669 -1.796,-3.218 z m -16.642,6.828 c 1.644,-1.388 3.69,-2.374 5.553,-2.677 0.803,-0.131 2.141,-0.079 2.885,0.112 1.192,0.305 2.258,0.988 2.813,1.802 0.542,0.796 0.775,1.489 1.017,3.032 l 0.231,1.358 c 0.182,0.799 0.536,1.439 0.974,1.759 0.696,0.51 1.895,0.541 3.075,0.081 0.2,-0.078 0.374,-0.132 0.386,-0.12 0.043,0.043 -0.551,0.44 -0.97,0.649 a 3.29,3.29 0 0 1 -1.608,0.39 c -1.08,0 -1.977,-0.549 -2.726,-1.67 -0.147,-0.221 -0.478,-0.881 -0.736,-1.468 -0.79,-1.802 -1.18,-2.351 -2.098,-2.952 -0.798,-0.523 -1.828,-0.616 -2.603,-0.237 -1.017,0.499 -1.301,1.799 -0.573,2.623 a 2.26,2.26 0 0 0 1.271,0.665 c 0.826,0.103 1.536,-0.526 1.536,-1.36 0,-0.542 -0.208,-0.851 -0.732,-1.087 -0.716,-0.323 -1.485,0.055 -1.482,0.727 0.002,0.287 0.126,0.467 0.414,0.597 0.184,0.083 0.189,0.09 0.038,0.059 -0.657,-0.136 -0.811,-0.928 -0.283,-1.454 0.634,-0.631 1.945,-0.353 2.395,0.509 0.189,0.362 0.211,1.082 0.046,1.518 -0.369,0.974 -1.445,1.486 -2.537,1.207 -0.743,-0.19 -1.046,-0.395 -1.942,-1.318 -1.557,-1.604 -2.162,-1.915 -4.406,-2.265 l -0.43,-0.067 z"
       id="path4" />
    <path
       d="m 16.771,14.117 13.615,16.688 c 0.329,0.454 0.205,0.863 -0.358,1.183 -0.313,0.178 -0.957,0.358 -1.279,0.358 -0.365,0 -0.775,-0.176 -1.074,-0.459 -0.211,-0.2 -1.064,-1.474 -3.034,-4.53 l -2.802,-4.31 c -0.08,-0.075 -0.078,-0.073 2.649,4.806 l 2.29,4.291 c 0,0.295 -0.08,0.449 -0.444,0.855 -0.606,0.676 -0.877,1.435 -1.072,3.007 -0.219,1.762 -0.835,3.007 -2.543,5.137 -1,1.247 -1.163,1.475 -1.416,1.978 -0.318,0.633 -0.405,0.987 -0.441,1.787 a 5.56,5.56 0 0 0 0.294,2.199 c 0.226,0.707 0.462,1.174 1.065,2.108 0.52,0.806 0.82,1.405 0.82,1.639 0,0.187 0.036,0.187 0.842,0.005 1.93,-0.436 3.497,-1.202 4.379,-2.142 0.545,-0.581 0.674,-0.902 0.678,-1.699 0.003,-0.521 -0.016,-0.63 -0.156,-0.93 -0.229,-0.488 -0.647,-0.894 -1.567,-1.523 -1.206,-0.824 -1.721,-1.488 -1.863,-2.4 -0.117,-0.749 0.019,-1.277 0.686,-2.675 0.69,-1.447 0.861,-2.064 0.977,-3.522 0.075,-0.942 0.178,-1.314 0.449,-1.612 0.282,-0.311 0.537,-0.416 1.235,-0.512 1.139,-0.156 1.865,-0.45 2.461,-1 0.517,-0.477 0.734,-0.936 0.767,-1.627 l 0.025,-0.524 -0.289,-0.337 C 30.618,29.135 16.071,13.157 16.007,13.157 c -0.014,0 0.331,0.432 0.765,0.959 z m 6.857,31.747 c 0.237,-0.419 0.111,-0.958 -0.285,-1.221 -0.374,-0.249 -0.955,-0.132 -0.955,0.193 0,0.099 0.055,0.171 0.178,0.234 0.208,0.107 0.223,0.227 0.059,0.472 -0.164,0.245 -0.152,0.467 0.038,0.616 0.306,0.239 0.739,0.108 0.965,-0.294 z m 9.044,-11.745 c -0.535,0.164 -1.055,0.731 -1.216,1.325 -0.098,0.362 -0.042,0.999 0.105,1.195 0.238,0.317 0.467,0.401 1.089,0.396 1.218,-0.009 2.277,-0.531 2.4,-1.184 0.101,-0.535 -0.364,-1.277 -1.005,-1.603 a 2.38,2.38 0 0 0 -1.373,-0.13 z m 1.424,1.113 c 0.188,-0.267 0.106,-0.555 -0.214,-0.75 -0.608,-0.371 -1.528,-0.064 -1.528,0.511 0,0.286 0.48,0.598 0.919,0.598 0.293,0 0.693,-0.175 0.823,-0.358 z"
       fill-rule="evenodd"
       id="path6" />
  </g>
</svg>
