<?xml version="1.0" encoding="UTF-8" standalone="no"?>
<svg
   xmlns:dc="http://purl.org/dc/elements/1.1/"
   xmlns:cc="http://creativecommons.org/ns#"
   xmlns:rdf="http://www.w3.org/1999/02/22-rdf-syntax-ns#"
   xmlns:svg="http://www.w3.org/2000/svg"
   xmlns="http://www.w3.org/2000/svg"
   id="svg8"
   version="1.1"
   viewBox="0 0 67.733332 67.733335"
   height="256"
   width="256">
  <defs
     id="defs2" />
  <metadata
     id="metadata5">
    <rdf:RDF>
      <cc:Work
         rdf:about="">
        <dc:format>image/svg+xml</dc:format>
        <dc:type
           rdf:resource="http://purl.org/dc/dcmitype/StillImage" />
        <dc:title></dc:title>
      </cc:Work>
    </rdf:RDF>
  </metadata>
  <g
     transform="translate(0,-229.26665)"
     id="layer1">
    <g
       id="g1154">
      <path
         style="fill:#ff007a;fill-opacity:1;stroke-width:0.13229166"
         id="Full"
         class="cls-1"
         d="m 1.4552083,263.13332 c 0,17.87181 14.5396477,32.41146 32.4114577,32.41146 17.871811,0 32.411459,-14.53965 32.411459,-32.41146 0,-17.87181 -14.539648,-32.41146 -32.411459,-32.41146 -17.87181,0 -32.4114577,14.53965 -32.4114577,32.41146 z" />
      <g
         style="fill:#ffffff;fill-opacity:1"
         id="g1084"
         transform="matrix(0.20239341,0,0,0.20239341,12.151779,242.4246)">
        <path
           id="path1049"
           d="m 91.9024,48.6661 c -2.3074,-0.3579 -2.4047,-0.3999 -1.3188,-0.5668 2.0809,-0.32 6.9944,0.1161 10.3804,0.9212 7.905,1.879 15.098,6.6924 22.775,15.2409 l 2.04,2.2711 2.918,-0.4691 c 12.293,-1.9755 24.799,-0.4055 35.259,4.4265 2.877,1.3294 7.414,3.9756 7.981,4.6556 0.181,0.2167 0.512,1.6117 0.737,3.1004 0.777,5.15 0.388,9.0975 -1.187,12.0459 -0.857,1.6045 -0.905,2.113 -0.329,3.4861 0.46,1.0957 1.743,1.9067 3.013,1.9049 2.599,-0.0035 5.397,-4.2054 6.693,-10.052 l 0.515,-2.3224 1.02,1.1555 c 5.595,6.3393 9.99,14.9847 10.745,21.1381 l 0.197,1.605 -0.941,-1.459 c -1.618,-2.51 -3.245,-4.218 -5.327,-5.596 -3.754,-2.4843 -7.724,-3.3297 -18.237,-3.8837 -9.494,-0.5003 -14.868,-1.3113 -20.196,-3.0488 -9.065,-2.9557 -13.635,-6.8921 -24.404,-21.0207 -4.783,-6.2754 -7.74,-9.7475 -10.68,-12.5436 -6.683,-6.3534 -13.249,-9.6854 -21.6536,-10.9891 z"
           style="fill:#ffffff;fill-opacity:1" />
        <path
           id="path1051"
           d="m 174.079,62.6777 c 0.238,-4.2052 0.809,-6.9788 1.955,-9.5118 0.454,-1.0027 0.879,-1.8233 0.945,-1.8233 0.066,0 -0.132,0.7401 -0.439,1.6445 -0.833,2.4583 -0.97,5.8206 -0.396,9.7326 0.729,4.9636 1.144,5.6798 6.39,11.0416 2.46,2.5149 5.323,5.6868 6.36,7.0485 l 1.887,2.4761 -1.887,-1.7696 c -2.307,-2.1639 -7.613,-6.3842 -8.785,-6.9875 -0.786,-0.4046 -0.903,-0.3976 -1.387,0.0849 -0.447,0.4446 -0.541,1.1126 -0.603,4.2708 -0.097,4.9221 -0.768,8.0815 -2.387,11.2405 -0.876,1.7086 -1.014,1.3439 -0.221,-0.5846 0.592,-1.4399 0.652,-2.073 0.647,-6.8379 -0.009,-9.574 -1.145,-11.8756 -7.811,-15.8185 -1.689,-0.9989 -4.471,-2.4394 -6.183,-3.2013 -1.712,-0.762 -3.072,-1.4257 -3.022,-1.4753 0.189,-0.1878 6.689,1.7095 9.306,2.7159 3.891,1.4971 4.534,1.6911 5.007,1.5106 0.316,-0.1211 0.47,-1.0438 0.624,-3.7562 z"
           style="fill:#ffffff;fill-opacity:1" />
        <path
           id="path1053"
           d="M 96.3845,79.056 C 91.7002,72.6069 88.8019,62.7191 89.4294,55.3275 l 0.194,-2.2874 1.0663,0.1946 c 2.0023,0.3653 5.4548,1.6503 7.0714,2.6322 4.4369,2.6943 6.3569,6.2416 8.3109,15.3506 0.572,2.6681 1.323,5.6873 1.669,6.7095 0.556,1.6453 2.658,5.4884 4.367,7.9844 1.231,1.7976 0.413,2.6494 -2.308,2.4038 -4.155,-0.3752 -9.784,-4.26 -13.4155,-9.2592 z"
           style="fill:#ffffff;fill-opacity:1" />
        <path
           id="path1055"
           d="m 168.397,127.053 c -21.891,-8.814 -29.601,-16.465 -29.601,-29.3736 0,-1.8997 0.065,-3.454 0.145,-3.454 0.079,0 0.926,0.6269 1.882,1.3933 4.439,3.5604 9.41,5.0813 23.171,7.0883 8.098,1.182 12.655,2.136 16.859,3.53 13.361,4.431 21.628,13.424 23.599,25.672 0.573,3.559 0.237,10.234 -0.692,13.751 -0.733,2.779 -2.97,7.786 -3.564,7.978 -0.164,0.054 -0.326,-0.577 -0.368,-1.435 -0.225,-4.599 -2.549,-9.077 -6.452,-12.431 -4.438,-3.813 -10.401,-6.849 -24.979,-12.719 z"
           style="fill:#ffffff;fill-opacity:1" />
        <path
           id="path1057"
           d="m 153.029,130.715 c -0.275,-1.633 -0.75,-3.717 -1.058,-4.632 l -0.558,-1.665 1.037,1.165 c 1.436,1.611 2.571,3.674 3.532,6.42 0.734,2.096 0.817,2.72 0.811,6.126 -0.005,3.344 -0.097,4.045 -0.775,5.932 -1.068,2.976 -2.395,5.085 -4.62,7.35 -3.999,4.07 -9.14,6.323 -16.559,7.258 -1.29,0.162 -5.048,0.435 -8.353,0.607 -8.327,0.433 -13.808,1.328 -18.733,3.057 -0.708,0.249 -1.341,0.4 -1.405,0.336 -0.199,-0.198 3.154,-2.197 5.924,-3.531 3.905,-1.881 7.792,-2.908 16.503,-4.358 4.302,-0.717 8.746,-1.586 9.874,-1.932 10.655,-3.267 16.132,-11.698 14.38,-22.133 z"
           style="fill:#ffffff;fill-opacity:1" />
        <path
           id="path1059"
           d="m 163.064,148.537 c -2.909,-6.253 -3.577,-12.29 -1.983,-17.92 0.17,-0.601 0.444,-1.094 0.609,-1.094 0.165,0 0.851,0.372 1.525,0.825 1.34,0.902 4.029,2.422 11.19,6.326 8.937,4.873 14.032,8.645 17.497,12.956 3.034,3.775 4.912,8.074 5.816,13.317 0.512,2.97 0.212,10.115 -0.55,13.106 -2.403,9.429 -7.987,16.835 -15.952,21.157 -1.167,0.633 -2.215,1.153 -2.328,1.155 -0.113,0.003 0.312,-1.079 0.945,-2.402 2.679,-5.601 2.984,-11.05 0.959,-17.114 -1.241,-3.713 -3.77,-8.244 -8.876,-15.901 -5.936,-8.903 -7.392,-11.272 -8.852,-14.411 z"
           style="fill:#ffffff;fill-opacity:1" />
        <path
           id="path1061"
           d="m 80.8383,182.272 c 8.1237,-6.859 18.2315,-11.732 27.4387,-13.228 3.968,-0.645 10.578,-0.389 14.253,0.552 5.889,1.507 11.158,4.883 13.898,8.905 2.678,3.932 3.827,7.357 5.023,14.979 0.472,3.007 0.985,6.026 1.14,6.71 0.899,3.95 2.647,7.108 4.813,8.693 3.44,2.519 9.365,2.675 15.192,0.402 0.99,-0.386 1.848,-0.653 1.909,-0.593 0.211,0.21 -2.724,2.175 -4.794,3.209 -2.786,1.391 -5.001,1.929 -7.944,1.929 -5.338,0 -9.769,-2.715 -13.467,-8.251 -0.728,-1.09 -2.363,-4.354 -3.635,-7.253 -3.904,-8.905 -5.832,-11.617 -10.365,-14.586 -3.945,-2.583 -9.032,-3.046 -12.86,-1.169 -5.027,2.465 -6.43,8.889 -2.829,12.961 1.431,1.618 4.1,3.014 6.282,3.285 4.083,0.508 7.591,-2.598 7.591,-6.72 0,-2.676 -1.028,-4.203 -3.618,-5.372 -3.537,-1.596 -7.339,0.27 -7.321,3.592 0.008,1.417 0.625,2.307 2.046,2.95 0.911,0.412 0.932,0.444 0.189,0.29 -3.245,-0.673 -4.006,-4.585 -1.396,-7.183 3.132,-3.118 9.61,-1.742 11.835,2.514 0.935,1.788 1.043,5.348 0.228,7.498 -1.823,4.812 -7.14,7.342 -12.534,5.966 -3.673,-0.938 -5.168,-1.953 -9.596,-6.514 -7.6933,-7.925 -10.6801,-9.461 -21.7718,-11.192 l -2.1254,-0.332 z"
           style="fill:#ffffff;fill-opacity:1" />
        <path
           id="path1063"
           d="M 22.823,4.74044 C 48.5163,35.9247 88.1281,84.4767 90.0947,87.195 c 1.6237,2.2444 1.0126,4.2623 -1.769,5.8437 -1.5469,0.8792 -4.7272,1.7701 -6.3195,1.7701 -1.801,0 -3.83,-0.8673 -5.3074,-2.2687 C 75.6545,91.5497 71.4398,85.2559 61.7097,70.1585 54.2648,58.6064 48.0345,49.0235 47.8645,48.863 c -0.393,-0.3711 -0.3863,-0.3585 13.0861,23.7471 8.4595,15.1368 11.3153,20.4881 11.3153,21.2037 0,1.4557 -0.3971,2.2208 -2.1928,4.2238 -2.9936,3.3394 -4.3318,7.0924 -5.2978,14.8574 -1.0829,8.706 -4.128,14.855 -12.567,25.38 -4.9399,6.161 -5.7483,7.29 -6.9947,9.773 -1.5701,3.127 -2.0018,4.879 -2.1768,8.827 -0.1849,4.175 0.1753,6.872 1.4508,10.864 1.1166,3.494 2.2822,5.802 5.262,10.417 2.5715,3.983 4.0522,6.943 4.0522,8.1 0,0.922 0.1758,0.923 4.1606,0.023 9.536,-2.153 17.2792,-5.941 21.6341,-10.582 2.6952,-2.873 3.328,-4.459 3.3485,-8.396 0.0135,-2.575 -0.0771,-3.114 -0.7732,-4.595 -1.1331,-2.411 -3.1957,-4.416 -7.742,-7.524 -5.9569,-4.072 -8.5012,-7.351 -9.204,-11.859 -0.5765,-3.699 0.0923,-6.309 3.3877,-13.216 3.4109,-7.149 4.2562,-10.196 4.828,-17.402 0.3693,-4.655 0.8807,-6.491 2.2183,-7.965 1.3951,-1.537 2.651,-2.057 6.1035,-2.529 5.6286,-0.769 9.2127,-2.2253 12.1588,-4.9401 2.5556,-2.355 3.6251,-4.6243 3.7892,-8.0403 l 0.1246,-2.5893 -1.4282,-1.6652 C 91.2357,78.9457 19.3593,0 19.041,0 18.973,0 20.675,2.13334 22.823,4.74044 Z M 56.705,161.599 c 1.1694,-2.071 0.5481,-4.733 -1.4079,-6.034 -1.8482,-1.229 -4.7192,-0.65 -4.7192,0.952 0,0.488 0.2702,0.844 0.8792,1.157 1.0255,0.528 1.0999,1.121 0.2931,2.334 -0.8171,1.228 -0.7512,2.308 0.1861,3.042 1.5105,1.183 3.6489,0.532 4.7687,-1.451 z"
           style="clip-rule:evenodd;fill:#ffffff;fill-opacity:1;fill-rule:evenodd" />
        <path
           id="path1065"
           d="m 101.388,103.569 c -2.6424,0.812 -5.211,3.612 -6.0061,6.549 -0.4851,1.791 -0.2098,4.934 0.5167,5.904 1.1738,1.568 2.3089,1.981 5.3824,1.959 6.018,-0.042 11.249,-2.623 11.857,-5.849 0.499,-2.645 -1.799,-6.31 -4.964,-7.919 -1.633,-0.83 -5.106,-1.16 -6.786,-0.644 z m 7.035,5.501 c 0.927,-1.319 0.522,-2.744 -1.057,-3.708 -3.005,-1.835 -7.5503,-0.316 -7.5503,2.523 0,1.414 2.3703,2.956 4.5423,2.956 1.446,0 3.425,-0.863 4.065,-1.771 z"
           style="clip-rule:evenodd;fill:#ffffff;fill-opacity:1;fill-rule:evenodd" />
      </g>
    </g>
  </g>
</svg>
