<svg xmlns="http://www.w3.org/2000/svg" xmlns:xlink="http://www.w3.org/1999/xlink" viewBox="0 0 28.15 28.15">
  <defs>
    <linearGradient id="linear-gradient" x1="1085.26" y1="108.27" x2="1085.26" y2="107.27" gradientTransform="matrix(28.15, 0, 0, -28.15, -30531.59, 3047.23)" gradientUnits="userSpaceOnUse">
      <stop offset="0" stop-color="#5c90e8"/>
      <stop offset="1" stop-color="#2e4874"/>
    </linearGradient>
  </defs>
  <g id="Layer_2" data-name="Layer 2">
    <g id="Layer_1-2" data-name="Layer 1">
      <g id="Сгруппировать_185796" data-name="Сгруппировать 185796">
        <path id="Full-7" d="M0,14.07A14.08,14.08,0,1,0,14.07,0h0A14.08,14.08,0,0,0,0,14.07Z" fill="url(#linear-gradient)"/>
        <g id="uniswap-uni-logo">
          <path id="Контур_13789" data-name="Контур 13789" d="M12.88,7.93c-.19,0-.2,0-.11,0a3,3,0,0,1,.84.08,3.53,3.53,0,0,1,1.83,1.22l.16.19.24,0a4.9,4.9,0,0,1,2.85.35,3.48,3.48,0,0,1,.64.38.94.94,0,0,1,.06.24,1.51,1.51,0,0,1-.1,1,.26.26,0,0,0,0,.28.28.28,0,0,0,.24.15c.22,0,.44-.34.55-.81l0-.19.08.09A3.58,3.58,0,0,1,21,12.52v.14L21,12.54a1.51,1.51,0,0,0-.42-.45,2.69,2.69,0,0,0-1.47-.32,6,6,0,0,1-1.63-.24c-.73-.25-1.1-.56-2-1.7a7.1,7.1,0,0,0-.87-1A3,3,0,0,0,12.88,7.93Z" fill="#fff"/>
          <path id="Контур_13790" data-name="Контур 13790" d="M19.52,9.06a1.9,1.9,0,0,1,.16-.77.55.55,0,0,1,.08-.15s0,.06,0,.14a1.71,1.71,0,0,0,0,.78c.06.4.09.45.51.89.2.2.43.46.52.57l.15.2-.15-.14A4.72,4.72,0,0,0,20,10c-.06,0-.07,0-.12,0s0,.09,0,.34a1.89,1.89,0,0,1-.2.91c-.07.14-.08.11,0,0a1.29,1.29,0,0,0,.05-.55c0-.78-.09-1-.63-1.28-.13-.08-.37-.2-.5-.26L18.31,9a4.25,4.25,0,0,1,.75.22c.31.13.36.13.4.13S19.51,9.28,19.52,9.06Z" fill="#fff"/>
          <path id="Контур_13791" data-name="Контур 13791" d="M13.24,10.39a3.22,3.22,0,0,1-.56-1.92l0-.19.09,0a2,2,0,0,1,.57.22c.36.21.52.5.67,1.23,0,.22.11.47.13.55a4,4,0,0,0,.36.64c.1.14,0,.21-.19.2A1.9,1.9,0,0,1,13.24,10.39Z" fill="#fff"/>
          <path id="Контур_13792" data-name="Контур 13792" d="M19.06,14.26c-1.76-.71-2.39-1.33-2.39-2.37,0-.15,0-.27,0-.27a.58.58,0,0,1,.15.11,3.58,3.58,0,0,0,1.88.57,8,8,0,0,1,1.36.29A2.58,2.58,0,0,1,22,14.66a3.52,3.52,0,0,1,0,1.12,2.59,2.59,0,0,1-.28.64s0-.05,0-.12a1.49,1.49,0,0,0-.52-1A7.07,7.07,0,0,0,19.06,14.26Z" fill="#fff"/>
          <path id="Контур_13793" data-name="Контур 13793" d="M17.81,14.56a1.61,1.61,0,0,0-.08-.38l-.05-.13.08.1a1.73,1.73,0,0,1,.29.51,1.43,1.43,0,0,1,.06.5,1.35,1.35,0,0,1-.06.49,1.65,1.65,0,0,1-.38.6,2.13,2.13,0,0,1-1.33.58l-.68.06a5.2,5.2,0,0,0-1.52.25c-.05,0-.1,0-.11,0a2.08,2.08,0,0,1,.48-.28,5.11,5.11,0,0,1,1.34-.36,5.53,5.53,0,0,0,.79-.16A1.52,1.52,0,0,0,17.81,14.56Z" fill="#fff"/>
          <path id="Контур_13794" data-name="Контур 13794" d="M18.62,16a2.11,2.11,0,0,1-.16-1.44c0-.05,0-.09.06-.09a.27.27,0,0,1,.12.06c.11.07.33.2.9.51a4.42,4.42,0,0,1,1.42,1,2.15,2.15,0,0,1,.47,1.08,3.43,3.43,0,0,1,0,1.06,2.64,2.64,0,0,1-1.29,1.71l-.19.09a.7.7,0,0,1,.08-.2,1.79,1.79,0,0,0,.08-1.38,5.79,5.79,0,0,0-.71-1.29A8.66,8.66,0,0,1,18.62,16Z" fill="#fff"/>
          <path id="Контур_13795" data-name="Контур 13795" d="M12,18.72a4.75,4.75,0,0,1,2.22-1.07,3.12,3.12,0,0,1,1.14,0,2,2,0,0,1,1.13.72,2.77,2.77,0,0,1,.41,1.21c0,.25.08.5.09.55a1.15,1.15,0,0,0,.39.7,1.34,1.34,0,0,0,1.23,0l.15,0a1.33,1.33,0,0,1-.39.26,1.26,1.26,0,0,1-.64.15,1.3,1.3,0,0,1-1.08-.67,6.54,6.54,0,0,1-.3-.59,2.1,2.1,0,0,0-.83-1.17,1.09,1.09,0,0,0-1-.1.67.67,0,0,0-.32.89.6.6,0,0,0,.09.15.93.93,0,0,0,.51.26.53.53,0,0,0,.61-.46.22.22,0,0,0,0-.08.41.41,0,0,0-.29-.43c-.28-.13-.6,0-.59.29a.25.25,0,0,0,.17.24c.07,0,.07,0,0,0a.33.33,0,0,1-.23-.41.34.34,0,0,1,.11-.17.64.64,0,0,1,.9.12l.06.08a.88.88,0,0,1,0,.6.84.84,0,0,1-1,.49,1.5,1.5,0,0,1-.78-.53,2.35,2.35,0,0,0-1.75-.9l-.17,0Z" fill="#fff"/>
          <path id="Контур_13796" data-name="Контур 13796" d="M7.3,4.38C9.38,6.9,12.58,10.82,12.74,11s.08.34-.15.47a1.25,1.25,0,0,1-.5.14.6.6,0,0,1-.43-.18c-.08-.08-.43-.59-1.21-1.81C9.85,8.72,9.35,8,9.33,7.94a14.83,14.83,0,0,0,1.05,1.92,14,14,0,0,1,.91,1.71c0,.12,0,.18-.17.34a1.94,1.94,0,0,0-.43,1.2,3.74,3.74,0,0,1-1,2.05,3.65,3.65,0,0,0-.56.79,1.5,1.5,0,0,0-.18.71,2.19,2.19,0,0,0,.12.88,3,3,0,0,0,.43.84,2.16,2.16,0,0,1,.33.64c0,.08,0,.08.34,0a3.48,3.48,0,0,0,1.74-.85.82.82,0,0,0,.27-.68.8.8,0,0,0-.06-.37,1.61,1.61,0,0,0-.63-.61,1.42,1.42,0,0,1-.74-1A1.75,1.75,0,0,1,11,14.49a3.14,3.14,0,0,0,.4-1.4c0-.38.07-.53.18-.64a.62.62,0,0,1,.49-.2,1.74,1.74,0,0,0,1-.4.87.87,0,0,0,.3-.65V11l-.12-.14C12.83,10.38,7,4,7,4S7.13,4.17,7.3,4.38ZM10,17.05a.38.38,0,0,0-.12-.49c-.15-.1-.38,0-.38.08a.1.1,0,0,0,.07.09c.08,0,.09.09,0,.19s-.07.18,0,.24A.25.25,0,0,0,10,17.1Z" fill="#fff" fill-rule="evenodd"/>
          <path id="Контур_13797" data-name="Контур 13797" d="M13.65,12.36a.82.82,0,0,0-.48.53.79.79,0,0,0,0,.48c.1.13.19.16.44.16.49,0,.91-.21.95-.47a.67.67,0,0,0-.4-.64A.86.86,0,0,0,13.65,12.36Zm.57.45a.2.2,0,0,0-.05-.28l0,0c-.24-.15-.61,0-.61.2s.19.24.37.24a.47.47,0,0,0,.33-.14Z" fill="#fff" fill-rule="evenodd"/>
        </g>
      </g>
    </g>
  </g>
</svg>
