<svg xmlns="http://www.w3.org/2000/svg" width="250" height="250" xmlns:v="https://vecta.io/nano"><ellipse cx="142.704" cy="118.222" rx="59.943" ry="55.794" fill="#7951d0" stroke="#fff" stroke-width=".331" transform="matrix(2.078487 0 0 2.235974 -171.67287 -139.21822)"/><path d="M111.998 197.297c-30.303-4.393-51.988-23.663-59.893-53.224-1.741-6.509-2.057-13.332-2.079-44.875L50 62h15.942 15.942l.59 37.789c.571 36.552.682 37.991 3.381 43.962 3.264 7.219 11.045 14.83 18.849 18.436 7.672 3.545 30.852 3.713 39.735.287 7.714-2.975 16.219-11.071 19.686-18.74 2.691-5.951 2.804-7.421 3.375-43.946l.59-37.789h15.942 15.942l-.056 37.789c-.048 32.416-.354 38.866-2.149 45.363-6.955 25.17-25.532 43.862-49.857 50.164-8.581 2.223-27.17 3.249-35.915 1.981zm5.063-59.872c-2.355-1.161-4.714-3.771-6.219-6.881-2.29-4.73-2.408-6.79-2.111-36.777L109.045 62h15.942 15.942v33.065c0 28.941-.251 33.524-2.015 36.744-3.731 6.813-14.049 9.464-21.854 5.616z" fill="#fff"/></svg>