<?xml version="1.0" encoding="UTF-8" standalone="no"?>
<svg
   viewBox="0 0 32 32"
   version="1.1"
   id="svg6"
   sodipodi:docname="USD.svg"
   inkscape:version="1.1.1 (3bf5ae0d25, 2021-09-20)"
   xmlns:inkscape="http://www.inkscape.org/namespaces/inkscape"
   xmlns:sodipodi="http://sodipodi.sourceforge.net/DTD/sodipodi-0.dtd"
   xmlns="http://www.w3.org/2000/svg"
   xmlns:svg="http://www.w3.org/2000/svg">
  <defs
     id="defs10" />
  <sodipodi:namedview
     id="namedview8"
     pagecolor="#ffffff"
     bordercolor="#666666"
     borderopacity="1.0"
     inkscape:pageshadow="2"
     inkscape:pageopacity="0.0"
     inkscape:pagecheckerboard="0"
     showgrid="false"
     inkscape:zoom="27.28125"
     inkscape:cx="16"
     inkscape:cy="16"
     inkscape:window-width="2560"
     inkscape:window-height="1377"
     inkscape:window-x="-8"
     inkscape:window-y="-8"
     inkscape:window-maximized="1"
     inkscape:current-layer="svg6" />
  <circle
     cx="16"
     cy="16"
     fill="#ffffff"
     id="circle2"
     style="stroke-width:0.875"
     r="14" />
  <path
     d="M 16,32 C 7.163,32 0,24.837 0,16 0,7.1630004 7.163,0 16,0 c 8.837,0 16,7.1630004 16,16 0,8.837 -7.163,16 -16,16 z m 6.5,-12.846 c 0,-2.523 -1.576,-3.948 -5.263,-4.836 V 9.8780004 C 18.377,10.112 19.468,10.603 20.535,11.374 l 1.359,-2.1959996 a 9.49,9.49 0 0 0 -4.56,-1.776 v -1.402 h -2.11 v 1.355 c -3.032,0.234 -5.093,1.963 -5.093,4.4859996 0,2.64 1.649,3.925 5.19,4.813 v 4.58 C 13.744,21 12.435,20.299 11.052,19.224 L 9.5,21.35 a 11.495,11.495 0 0 0 5.724,2.314 V 26 h 2.11 V 23.687 C 20.414,23.43 22.5,21.724 22.5,19.154 Z m -7.18,-5.327 c -1.867,-0.537 -2.327,-1.168 -2.327,-2.15 0,-1.027 0.8,-1.8449996 2.328,-1.9619996 z m 4.318,5.49 c 0,1.122 -0.873,1.893 -2.401,2.01 v -4.229 c 1.892,0.538 2.401,1.168 2.401,2.22 z"
     fill-rule="evenodd"
     id="path4" />
</svg>
