<svg xmlns="http://www.w3.org/2000/svg" width="244.8" height="244.8" xmlns:v="https://vecta.io/nano"><path d="M1.248 122.5c0 66.812 54.44 121.248 121.252 121.248S243.748 189.312 243.748 122.5 189.312 1.248 122.5 1.248 1.248 55.688 1.248 122.5z" fill="#2775ca"/><path d="M122.4 11C60.974 11 11 60.974 11 122.4s49.974 111.4 111.4 111.4 111.4-49.974 111.4-111.4S183.826 11 122.4 11m0-11c67.441 0 122.4 54.954 122.4 122.4s-54.954 122.4-122.4 122.4S0 189.844 0 122.4 54.959 0 122.4 0z" fill="#474747"/><path d="M122.4 228.976c58.86 0 106.576-47.715 106.576-106.576S181.261 15.824 122.401 15.824 15.825 63.539 15.824 122.399A106.32 106.32 0 0 0 122.4 228.976z" fill="#2775ca"/><path d="M151.709 139.269c0-15.542-9.325-20.871-27.976-23.091-13.322-1.777-15.986-5.329-15.986-11.547s4.441-10.213 13.322-10.213c7.993 0 12.434 2.664 14.654 9.326a3.34 3.34 0 0 0 3.109 2.22h7.1c.83.021 1.633-.3 2.221-.888a3.03 3.03 0 0 0 .888-2.22v-.444c-1.768-9.895-9.967-17.365-19.983-18.206V73.552c0-1.777-1.332-3.109-3.552-3.553h-6.661c-1.777 0-3.109 1.332-3.553 3.553v10.217c-13.319 1.773-21.758 10.654-21.758 21.756 0 14.654 8.881 20.426 27.532 22.647 12.434 2.22 16.431 4.884 16.431 11.99s-6.218 11.99-14.654 11.99c-11.546 0-15.543-4.885-16.875-11.546-.274-1.512-1.572-2.625-3.108-2.664h-7.55c-.831-.02-1.633.301-2.22.888a3.04 3.04 0 0 0-.888 2.221v.444c1.776 11.1 8.881 19.094 23.535 21.315v10.659c0 1.776 1.332 3.108 3.552 3.552h6.661c1.777 0 3.109-1.332 3.553-3.552V162.81c13.325-2.221 22.206-11.546 22.206-23.541zm-51.956 46.632c-26.177-9.595-43.581-34.511-43.581-62.392s17.404-52.796 43.581-62.392a4.46 4.46 0 0 0 2.664-4.441V50.46c.125-1.684-1.013-3.201-2.664-3.552-.626-.066-1.255.091-1.777.443-33.175 10.543-55.709 41.348-55.709 76.158s22.534 65.615 55.709 76.158a2.7 2.7 0 0 0 4-1.777c.444-.443.444-.888.444-1.776v-6.218c-.002-1.331-1.334-3.106-2.667-3.995zm47.072-138.549a2.7 2.7 0 0 0-4 1.777c-.444.444-.444.888-.444 1.777v6.217a5.89 5.89 0 0 0 2.664 4.441c26.177 9.595 43.581 34.511 43.581 62.392s-17.404 52.796-43.581 62.392a4.46 4.46 0 0 0-2.664 4.441v6.217c-.125 1.684 1.013 3.201 2.664 3.552.626.066 1.255-.091 1.777-.443 33.152-10.691 55.623-41.547 55.623-76.38s-22.471-65.689-55.623-76.38z" fill="#fff"/></svg>