<?xml version="1.0" encoding="UTF-8" standalone="no"?>
<svg
   xmlns:dc="http://purl.org/dc/elements/1.1/"
   xmlns:cc="http://creativecommons.org/ns#"
   xmlns:rdf="http://www.w3.org/1999/02/22-rdf-syntax-ns#"
   xmlns:svg="http://www.w3.org/2000/svg"
   xmlns="http://www.w3.org/2000/svg"
   xmlns:sodipodi="http://sodipodi.sourceforge.net/DTD/sodipodi-0.dtd"
   xmlns:inkscape="http://www.inkscape.org/namespaces/inkscape"
   width="242.5"
   height="242.5"
   viewBox="0 0 242.5 242.5"
   version="1.1"
   id="svg13"
   sodipodi:docname="USDC_SOL.svg"
   inkscape:version="1.0.2-2 (e86c870879, 2021-01-15)">
  <metadata
     id="metadata19">
    <rdf:RDF>
      <cc:Work
         rdf:about="">
        <dc:format>image/svg+xml</dc:format>
        <dc:type
           rdf:resource="http://purl.org/dc/dcmitype/StillImage" />
      </cc:Work>
    </rdf:RDF>
  </metadata>
  <defs
     id="defs17" />
  <sodipodi:namedview
     pagecolor="#ffffff"
     bordercolor="#666666"
     borderopacity="1"
     objecttolerance="10"
     gridtolerance="10"
     guidetolerance="10"
     inkscape:pageopacity="0"
     inkscape:pageshadow="2"
     inkscape:window-width="1920"
     inkscape:window-height="1017"
     id="namedview15"
     showgrid="false"
     inkscape:zoom="3.4722222"
     inkscape:cx="121.152"
     inkscape:cy="121.152"
     inkscape:window-x="-8"
     inkscape:window-y="-8"
     inkscape:window-maximized="1"
     inkscape:current-layer="usdc-solana" />
  <g
     id="usdc-solana"
     transform="translate(-3848.848,-7113.006)">
    <path
       id="Main_copy_10"
       d="M 0,121.252 C 0,188.064 54.44,242.5 121.252,242.5 188.064,242.5 242.5,188.064 242.5,121.252 242.5,54.44 188.064,0 121.252,0 54.44,0 0,54.44 0,121.252 Z"
       transform="translate(3848.848,7113.006)"
       fill="#2775ca" />
    <g
       id="usd-coin-usdc-logo"
       transform="translate(3863.424,7127.581)">
      <path
         id="Path_472659"
         data-name="Path 472659"
         d="M 106.576,213.153 A 106.576,106.576 0 1 0 0,106.576 106.32,106.32 0 0 0 106.576,213.153 Z"
         fill="#2775ca" />
      <path
         id="Path_472660"
         data-name="Path 472660"
         d="m 776.175,577.6 c 0,-15.542 -9.325,-20.871 -27.976,-23.091 -13.322,-1.777 -15.986,-5.329 -15.986,-11.547 0,-6.218 4.441,-10.213 13.322,-10.213 7.993,0 12.434,2.664 14.654,9.326 a 3.34,3.34 0 0 0 3.109,2.22 h 7.1 a 3.035,3.035 0 0 0 3.109,-3.108 v -0.444 a 22.185,22.185 0 0 0 -19.983,-18.206 v -10.654 c 0,-1.777 -1.332,-3.109 -3.552,-3.553 h -6.661 c -1.777,0 -3.109,1.332 -3.553,3.553 V 522.1 C 726.439,523.873 718,532.754 718,543.856 c 0,14.654 8.881,20.426 27.532,22.647 12.434,2.22 16.431,4.884 16.431,11.99 0,7.106 -6.218,11.99 -14.654,11.99 -11.546,0 -15.543,-4.885 -16.875,-11.546 a 3.243,3.243 0 0 0 -3.108,-2.664 h -7.55 a 3.035,3.035 0 0 0 -3.108,3.109 v 0.444 c 1.776,11.1 8.881,19.094 23.535,21.315 V 611.8 c 0,1.776 1.332,3.108 3.552,3.552 h 6.661 c 1.777,0 3.109,-1.332 3.553,-3.552 v -10.659 c 13.325,-2.221 22.206,-11.546 22.206,-23.541 z"
         transform="translate(-640.29,-454.154)"
         fill="#fff" />
      <path
         id="Path_472661"
         data-name="Path 472661"
         d="m 305.467,430.663 a 66.451,66.451 0 0 1 0,-124.783 4.457,4.457 0 0 0 2.664,-4.441 v -6.217 a 3.375,3.375 0 0 0 -2.664,-3.552 2.674,2.674 0 0 0 -1.777,0.443 79.911,79.911 0 0 0 0,152.316 2.7,2.7 0 0 0 4,-1.777 c 0.444,-0.443 0.444,-0.888 0.444,-1.776 v -6.218 c -0.002,-1.331 -1.334,-3.106 -2.667,-3.995 z m 47.072,-138.549 a 2.7,2.7 0 0 0 -4,1.777 c -0.444,0.444 -0.444,0.888 -0.444,1.777 v 6.217 a 5.89,5.89 0 0 0 2.664,4.441 66.451,66.451 0 0 1 0,124.783 4.457,4.457 0 0 0 -2.664,4.441 v 6.217 a 3.375,3.375 0 0 0 2.664,3.552 2.674,2.674 0 0 0 1.777,-0.443 80.253,80.253 0 0 0 0,-152.76 z"
         transform="translate(-221.538,-260.585)"
         fill="#fff" />
    </g>
  </g>
</svg>
