<svg width="256px" height="256px" viewBox="0 0 490 490" version="1.1" xmlns="http://www.w3.org/2000/svg" xmlns:xlink="http://www.w3.org/1999/xlink">
    <g id="Page-1" stroke="none" stroke-width="1" fill="none" fill-rule="evenodd">
        <g id="Circle">
            <path d="M0,245 C0,380.094 109.906,490 245,490 C380.094,490 490,380.094 490,245 C490,109.906 380.094,0 245,0 C109.906,0 0,109.906 0,245 Z" id="Main-F" fill="#2775CA"></path>
            <g id="Logo" transform="translate(70.000000, 70.000000)" fill-rule="nonzero">
                <path d="M302.9872,56.2680589 C301.545252,54.7214543 300.111058,53.1670974 298.603215,51.6592548 C297.099249,50.1552885 295.544892,48.7172175 293.998287,47.2752704 L289.610427,51.6592548 L285.005499,56.2641827 L270.423227,70.8387019 L269.938702,71.3232272 L261.430439,79.8276142 L246.68149,94.5688101 L246.68149,94.5688101 L237.684826,103.557722 C239.277945,104.953155 240.886569,106.321454 242.398287,107.829297 C243.910006,109.341016 245.282181,110.953516 246.677614,112.546635 C261.860697,129.861629 270.237169,151.766046 270.237169,175.003876 C270.237169,200.373618 260.348978,224.227764 242.398287,242.170703 C224.447596,260.109766 200.577945,269.994081 175.188822,269.994081 C151.939363,269.994081 130.019441,261.621484 112.696695,246.446154 L110.239183,248.89979 L103.70003,255.435066 C123.441526,272.998137 148.539934,282.708023 175.184946,282.708023 C203.969621,282.708023 231.033263,271.501923 251.3872,251.159615 C271.745012,230.817308 282.951112,203.769171 282.951112,175.003876 C282.951112,148.370493 273.241226,123.28759 255.666526,103.557722 L270.411599,88.8204026 C291.89351,112.476863 303.65003,142.8314 303.65003,175.003876 C303.65003,209.296635 290.288762,241.535006 266.023738,265.784525 C241.758714,290.034044 209.497085,303.391436 175.184946,303.391436 C142.996965,303.391436 112.623047,291.642668 88.9510817,270.172386 L79.9544171,279.161298 C106.033504,303.027073 139.597536,316.105379 175.18107,316.105379 C212.892638,316.105379 248.348257,301.430078 275.016526,274.773438 C301.684796,248.124549 316.367849,212.692188 316.367849,175.003876 C316.367849,139.435847 303.281791,105.891196 279.404387,79.8314904 L293.982782,65.2608474 L293.982782,65.2608474 C352.618089,128.609615 351.180018,227.805499 289.598798,289.351833 C259.046575,319.892428 218.41235,336.715144 175.192698,336.715144 C134.101082,336.715144 95.3661959,321.481671 65.383774,293.735817 L60.77497,298.340745 L56.3871094,302.72473 C88.7766526,332.869952 130.697776,349.429087 175.192698,349.429087 C221.811779,349.429087 265.639994,331.288462 298.607091,298.340745 C365.145974,231.836749 366.580168,124.582242 302.9872,56.2680589 Z" id="Shape" fill="#F2F2F2"></path>
                <path d="M269.934826,71.3232272 L270.419351,70.8387019 C244.344141,46.9729267 210.776232,33.8946214 175.192698,33.8946214 C137.48113,33.8946214 102.021635,48.5699219 75.3572416,75.2265625 C48.6889724,101.875451 34.0020433,137.307812 34.0020433,174.996124 C34.0020433,210.560276 47.088101,244.108804 70.969381,270.16851 L56.3909856,284.739153 C-2.24432091,221.394261 -0.80625,122.198377 60.77497,60.6481671 C91.3349459,30.1075721 131.969171,13.2848558 175.192698,13.2848558 C216.284315,13.2848558 255.023077,28.5183293 285.005499,56.2641827 L270.423227,70.8387019 L285.005499,56.2641827 L289.610427,51.6592548 L293.998287,47.2752704 C261.608744,17.1300481 219.683744,0.570913462 175.192698,0.570913462 C128.573618,0.570913462 84.7454026,18.7115385 51.7821815,51.6592548 C-14.7644531,118.163251 -16.1986478,225.421635 47.3943209,293.731941 C48.836268,295.278546 50.2704627,296.832903 51.7783053,298.340745 C53.2822716,299.844712 54.8366286,301.282782 56.3832332,302.72473 L60.7710938,298.340745 L65.3798978,293.735817 L79.9621695,279.161298 L88.9588341,270.172386 L103.703906,255.435066 L110.243059,248.89979 L112.700571,246.446154 C111.107452,245.050721 109.494952,243.682422 107.983233,242.170703 C106.471514,240.658984 105.099339,239.050361 103.703906,237.457242 C88.5208233,220.146124 80.144351,198.237831 80.144351,175.003876 C80.144351,149.630258 90.0325421,125.776112 107.983233,107.833173 C125.933924,89.8941106 149.803576,80.0097957 175.192698,80.0097957 C198.446034,80.0097957 220.362079,88.3823918 237.684826,103.557722 L246.68149,94.5688101 C226.939994,77.001863 201.841587,67.2958534 175.192698,67.2958534 C146.408023,67.2958534 119.344381,78.5019531 98.9904447,98.8442608 C78.6365084,119.186569 67.4265325,146.234706 67.4265325,175 C67.4265325,201.633383 77.1402945,226.720162 94.714994,246.446154 L79.9699219,261.183474 C58.4880108,237.527013 46.7314904,207.172476 46.7314904,175.003876 C46.7314904,140.707242 60.0927584,108.46887 84.3616587,84.2154748 C108.626683,59.9659555 140.884435,46.6085637 175.200451,46.6085637 C207.384555,46.6085637 237.76235,58.3573317 261.430439,79.8276142 L246.68149,94.5688101 L246.68149,94.5688101 L261.426563,79.8314904 L269.934826,71.3232272 Z" id="Shape" fill="#FFFFFF"></path>
            </g>
        </g>
    </g>
</svg>