<svg xmlns="http://www.w3.org/2000/svg" width="244.8" height="244.8" viewBox="0 0 244.8 244.8">
  <g id="usdc-solana" transform="translate(-3847.6 -7111.758)">
    <path id="Main_copy_10" d="M0,121.252C0,188.064,54.44,242.5,121.252,242.5S242.5,188.064,242.5,121.252,188.064,0,121.252,0,0,54.44,0,121.252Z" transform="translate(3848.848 7113.006)" fill="#2775ca"/>
    <g id="Main_copy_14" transform="translate(3847.6 7111.758)" fill="none">
      <path d="M0,122.4c0,67.444,54.954,122.4,122.4,122.4s122.4-54.954,122.4-122.4S189.841,0,122.4,0,0,54.954,0,122.4Z" stroke="none"/>
      <path d="M 122.4000015258789 11 C 60.97383117675781 11 11 60.97383117675781 11 122.4000015258789 C 11 183.826171875 60.97383117675781 233.8000030517578 122.4000015258789 233.8000030517578 C 183.826171875 233.8000030517578 233.8000030517578 183.826171875 233.8000030517578 122.4000015258789 C 233.8000030517578 60.97383117675781 183.826171875 11 122.4000015258789 11 M 122.4000015258789 0 C 189.8410034179688 0 244.8000030517578 54.95399475097656 244.8000030517578 122.4000015258789 C 244.8000030517578 189.8460083007813 189.8460083007813 244.8000030517578 122.4000015258789 244.8000030517578 C 54.95399475097656 244.8000030517578 0 189.843994140625 0 122.4000015258789 C 0 54.95399475097656 54.95899963378906 0 122.4000015258789 0 Z" stroke="none" fill="#1ae5ae"/>
    </g>
    <g id="usd-coin-usdc-logo" transform="translate(3863.424 7127.581)">
      <path id="Path_472659" data-name="Path 472659" d="M106.576,213.153A106.576,106.576,0,1,0,0,106.576,106.32,106.32,0,0,0,106.576,213.153Z" transform="translate(0 0)" fill="#2775ca"/>
      <path id="Path_472660" data-name="Path 472660" d="M776.175,577.6c0-15.542-9.325-20.871-27.976-23.091-13.322-1.777-15.986-5.329-15.986-11.547s4.441-10.213,13.322-10.213c7.993,0,12.434,2.664,14.654,9.326a3.34,3.34,0,0,0,3.109,2.22h7.1a3.035,3.035,0,0,0,3.109-3.108v-.444a22.185,22.185,0,0,0-19.983-18.206V511.883c0-1.777-1.332-3.109-3.552-3.553h-6.661c-1.777,0-3.109,1.332-3.553,3.553V522.1C726.439,523.873,718,532.754,718,543.856c0,14.654,8.881,20.426,27.532,22.647,12.434,2.22,16.431,4.884,16.431,11.99s-6.218,11.99-14.654,11.99c-11.546,0-15.543-4.885-16.875-11.546a3.243,3.243,0,0,0-3.108-2.664h-7.55a3.035,3.035,0,0,0-3.108,3.109v.444c1.776,11.1,8.881,19.094,23.535,21.315V611.8c0,1.776,1.332,3.108,3.552,3.552h6.661c1.777,0,3.109-1.332,3.553-3.552V601.141C767.294,598.92,776.175,589.595,776.175,577.6Z" transform="translate(-640.29 -454.154)" fill="#fff"/>
      <path id="Path_472661" data-name="Path 472661" d="M305.467,430.663a66.451,66.451,0,0,1,0-124.783,4.457,4.457,0,0,0,2.664-4.441v-6.217a3.375,3.375,0,0,0-2.664-3.552,2.674,2.674,0,0,0-1.777.443,79.911,79.911,0,0,0,0,152.316,2.7,2.7,0,0,0,4-1.777c.444-.443.444-.888.444-1.776v-6.218C308.132,433.327,306.8,431.552,305.467,430.663Zm47.072-138.549a2.7,2.7,0,0,0-4,1.777c-.444.444-.444.888-.444,1.777v6.217a5.89,5.89,0,0,0,2.664,4.441,66.451,66.451,0,0,1,0,124.783,4.457,4.457,0,0,0-2.664,4.441v6.217a3.375,3.375,0,0,0,2.664,3.552,2.674,2.674,0,0,0,1.777-.443,80.253,80.253,0,0,0,0-152.76Z" transform="translate(-221.538 -260.585)" fill="#fff"/>
    </g>
  </g>
</svg>
