<?xml version="1.0" encoding="UTF-8" standalone="no"?>
<svg
   xmlns:dc="http://purl.org/dc/elements/1.1/"
   xmlns:cc="http://creativecommons.org/ns#"
   xmlns:rdf="http://www.w3.org/1999/02/22-rdf-syntax-ns#"
   xmlns:svg="http://www.w3.org/2000/svg"
   xmlns="http://www.w3.org/2000/svg"
   xmlns:sodipodi="http://sodipodi.sourceforge.net/DTD/sodipodi-0.dtd"
   xmlns:inkscape="http://www.inkscape.org/namespaces/inkscape"
   width="242.5"
   height="242.5"
   version="1.1"
   id="svg10"
   sodipodi:docname="USDC_BEP20.svg"
   inkscape:version="1.0.2-2 (e86c870879, 2021-01-15)">
  <metadata
     id="metadata9">
    <rdf:RDF>
      <cc:Work
         rdf:about="">
        <dc:format>image/svg+xml</dc:format>
        <dc:type
           rdf:resource="http://purl.org/dc/dcmitype/StillImage" />
      </cc:Work>
    </rdf:RDF>
  </metadata>
  <defs
     id="defs14" />
  <sodipodi:namedview
     id="namedview12"
     pagecolor="#ffffff"
     bordercolor="#666666"
     borderopacity="1.0"
     inkscape:pageshadow="2"
     inkscape:pageopacity="0.0"
     inkscape:pagecheckerboard="0"
     showgrid="false"
     inkscape:zoom="3.5661764"
     inkscape:cx="121.152"
     inkscape:cy="121.152"
     inkscape:window-width="1920"
     inkscape:window-height="1017"
     inkscape:window-x="-8"
     inkscape:window-y="-8"
     inkscape:window-maximized="1"
     inkscape:current-layer="svg10"
     inkscape:document-rotation="0" />
  <path
     d="M 0,121.252 C 0,188.064 54.44,242.5 121.252,242.5 188.064,242.5 242.5,188.064 242.5,121.252 242.5,54.44 188.064,0 121.252,0 54.44,0 0,54.44 0,121.252 Z"
     fill="#2775ca"
     id="path2" />
  <path
     d="m 121.152,227.728 c 58.86,0 106.576,-47.715 106.576,-106.576 0,-58.861 -47.715,-106.576 -106.575,-106.576 -58.86,0 -106.576,47.715 -106.577,106.575 a 106.32,106.32 0 0 0 106.576,106.577 z"
     fill="#2775ca"
     id="path6" />
  <path
     d="m 150.461,138.021 c 0,-15.542 -9.325,-20.871 -27.976,-23.091 -13.322,-1.777 -15.986,-5.329 -15.986,-11.547 0,-6.218 4.441,-10.213 13.322,-10.213 7.993,0 12.434,2.664 14.654,9.326 a 3.34,3.34 0 0 0 3.109,2.22 h 7.1 c 0.83,0.021 1.633,-0.3 2.221,-0.888 a 3.03,3.03 0 0 0 0.888,-2.22 v -0.444 C 146.025,91.269 137.826,83.799 127.81,82.958 V 72.304 c 0,-1.777 -1.332,-3.109 -3.552,-3.553 h -6.661 c -1.777,0 -3.109,1.332 -3.553,3.553 v 10.217 c -13.319,1.773 -21.758,10.654 -21.758,21.756 0,14.654 8.881,20.426 27.532,22.647 12.434,2.22 16.431,4.884 16.431,11.99 0,7.106 -6.218,11.99 -14.654,11.99 -11.546,0 -15.543,-4.885 -16.875,-11.546 -0.274,-1.512 -1.572,-2.625 -3.108,-2.664 h -7.55 c -0.831,-0.02 -1.633,0.301 -2.22,0.888 a 3.04,3.04 0 0 0 -0.888,2.221 v 0.444 c 1.776,11.1 8.881,19.094 23.535,21.315 v 10.659 c 0,1.776 1.332,3.108 3.552,3.552 h 6.661 c 1.777,0 3.109,-1.332 3.553,-3.552 v -10.659 c 13.325,-2.221 22.206,-11.546 22.206,-23.541 z M 98.505,184.653 C 72.328,175.058 54.924,150.142 54.924,122.261 54.924,94.38 72.328,69.465 98.505,59.869 a 4.46,4.46 0 0 0 2.664,-4.441 v -6.216 c 0.125,-1.684 -1.013,-3.201 -2.664,-3.552 -0.626,-0.066 -1.255,0.091 -1.777,0.443 -33.175,10.543 -55.709,41.348 -55.709,76.158 0,34.81 22.534,65.615 55.709,76.158 a 2.7,2.7 0 0 0 4,-1.777 c 0.444,-0.443 0.444,-0.888 0.444,-1.776 v -6.218 c -0.002,-1.331 -1.334,-3.106 -2.667,-3.995 z M 145.577,46.104 a 2.7,2.7 0 0 0 -4,1.777 c -0.444,0.444 -0.444,0.888 -0.444,1.777 v 6.217 a 5.89,5.89 0 0 0 2.664,4.441 c 26.177,9.595 43.581,34.511 43.581,62.392 0,27.881 -17.404,52.796 -43.581,62.392 a 4.46,4.46 0 0 0 -2.664,4.441 v 6.217 c -0.125,1.684 1.013,3.201 2.664,3.552 0.626,0.066 1.255,-0.091 1.777,-0.443 33.152,-10.691 55.623,-41.547 55.623,-76.38 0,-34.833 -22.471,-65.689 -55.623,-76.38 z"
     fill="#ffffff"
     id="path8" />
</svg>
