<?xml version="1.0" encoding="utf-8"?>
<!-- Generator: Adobe Illustrator 22.0.0, SVG Export Plug-In . SVG Version: 6.00 Build 0)  -->
<svg version="1.1" id="Lager_1" xmlns="http://www.w3.org/2000/svg" xmlns:xlink="http://www.w3.org/1999/xlink" x="0px" y="0px"
	 viewBox="0 0 256 256" style="enable-background:new 0 0 256 256;" xml:space="preserve">
<style type="text/css">
	.st0{fill:#2775CA;}
	.st1{fill:#F2F2F2;}
	.st2{fill:#FFFFFF;}
</style>
<g id="Page-1">
	<g id="Circle">
		<path id="Main-F" class="st0" d="M0,128c0,70.6,57.4,128,128,128s128-57.4,128-128S198.6,0,128,0S0,57.4,0,128z"/>
		<g id="Logo" transform="translate(70.000000, 70.000000)">
			<path id="Shape" class="st1" d="M124.9-4c-0.8-0.8-1.5-1.6-2.3-2.4c-0.8-0.8-1.6-1.5-2.4-2.3l-2.3,2.3L115.5-4l-7.6,7.6l-0.3,0.3
				l-4.4,4.4L95.4,16l0,0l-4.7,4.7c0.8,0.7,1.7,1.4,2.5,2.2c0.8,0.8,1.5,1.6,2.2,2.5c7.9,9,12.3,20.5,12.3,32.6
				c0,13.3-5.2,25.7-14.5,35.1c-9.4,9.4-21.8,14.5-35.1,14.5c-12.1,0-23.6-4.4-32.6-12.3l-1.3,1.3l-3.4,3.4
				c10.3,9.2,23.4,14.2,37.3,14.2c15,0,29.2-5.9,39.8-16.5C108.5,87.2,114.4,73,114.4,58c0-13.9-5.1-27-14.3-37.3l7.7-7.7
				c11.2,12.4,17.4,28.2,17.4,45c0,17.9-7,34.8-19.7,47.4c-12.7,12.7-29.5,19.6-47.5,19.6c-16.8,0-32.7-6.1-45.1-17.4l-4.7,4.7
				c13.6,12.5,31.2,19.3,49.8,19.3c19.7,0,38.2-7.7,52.2-21.6c13.9-13.9,21.6-32.4,21.6-52.1c0-18.6-6.8-36.1-19.3-49.7l7.6-7.6l0,0
				c30.6,33.1,29.9,84.9-2.3,117.1c-16,16-37.2,24.7-59.8,24.7c-21.5,0-41.7-8-57.4-22.5l-2.4,2.4l-2.3,2.3
				c16.9,15.7,38.8,24.4,62.1,24.4c24.4,0,47.3-9.5,64.5-26.7C157.3,87.7,158.1,31.7,124.9-4z"/>
			<path id="Shape_1_" class="st2" d="M107.6,3.8l0.3-0.3C94.2-8.9,76.7-15.7,58.1-15.7c-19.7,0-38.2,7.7-52.2,21.6
				C-8,19.8-15.7,38.3-15.7,58c0,18.6,6.8,36.1,19.3,49.7l-7.6,7.6C-34.6,82.2-33.8,30.4-1.7-1.7c16-16,37.2-24.7,59.8-24.7
				c21.5,0,41.7,8,57.4,22.5l-7.6,7.6l7.6-7.6l2.4-2.4l2.3-2.3c-16.9-15.7-38.8-24.4-62.1-24.4c-24.4,0-47.3,9.5-64.5,26.7
				C-41.1,28.3-41.9,84.3-8.7,120c0.8,0.8,1.5,1.6,2.3,2.4c0.8,0.8,1.6,1.5,2.4,2.3l2.3-2.3l2.4-2.4l7.6-7.6l4.7-4.7l7.7-7.7
				l3.4-3.4l1.3-1.3c-0.8-0.7-1.7-1.4-2.5-2.2c-0.8-0.8-1.5-1.6-2.2-2.5C12.8,81.6,8.4,70.1,8.4,58c0-13.3,5.2-25.7,14.5-35.1
				c9.4-9.4,21.8-14.5,35.1-14.5c12.1,0,23.6,4.4,32.6,12.3l4.7-4.7C85.1,6.8,72,1.7,58.1,1.7c-15,0-29.2,5.9-39.8,16.5
				S1.8,43,1.8,58c0,13.9,5.1,27,14.3,37.3L8.4,103C-2.9,90.7-9,74.8-9,58c0-17.9,7-34.8,19.7-47.4C23.3-2.1,40.2-9.1,58.1-9.1
				c16.8,0,32.7,6.1,45.1,17.4L95.4,16l0,0l7.7-7.7L107.6,3.8z"/>
		</g>
	</g>
</g>
</svg>
