<?xml version="1.0" encoding="UTF-8"?><svg id="Layer_1" xmlns="http://www.w3.org/2000/svg" width="128" height="128" xmlns:xlink="http://www.w3.org/1999/xlink" viewBox="0 0 128 128"><defs><style>.cls-1{fill:#111;}.cls-2{fill-rule:evenodd;}.cls-2,.cls-3{fill:#fff;}.cls-4{fill:url(#linear-gradient);}.cls-5{fill:url(#radial-gradient);fill-opacity:.7;}</style><radialGradient id="radial-gradient" cx="-163.91" cy="-408.67" fx="-163.91" fy="-408.67" r=".32" gradientTransform="translate(-118209.27 67410.18) rotate(90) scale(411.15 289.41)" gradientUnits="userSpaceOnUse"><stop offset=".03" stop-color="#3a3a3a"/><stop offset="1" stop-color="#1c1c1c"/></radialGradient><linearGradient id="linear-gradient" x1="64" y1="-154.16" x2="64" y2="-26.16" gradientTransform="translate(0 154.14)" gradientUnits="userSpaceOnUse"><stop offset="0" stop-color="#fff"/><stop offset="1" stop-color="#111"/></linearGradient></defs><path class="cls-1" d="M64,0h0C99.36,0,128,28.64,128,64h0c0,35.33-28.64,64-64,64h0C28.64,128,0,99.33,0,64h0C0,28.64,28.64,0,64,0Z"/><path class="cls-5" d="M64,1.15h0C29.29,1.15,1.15,29.29,1.15,64h0c0,34.71,28.14,62.85,62.85,62.85h0c34.71,0,62.85-28.14,62.85-62.85h0C126.85,29.29,98.71,1.15,64,1.15Z"/><path class="cls-4" d="M64,127.98C28.71,127.98,0,99.27,0,63.98S28.71-.02,64-.02s64,28.71,64,64-28.71,64-64,64ZM64,2.29C29.98,2.29,2.3,29.96,2.3,63.98s27.68,61.7,61.7,61.7,61.7-27.68,61.7-61.7S98.02,2.29,64,2.29Z"/><path class="cls-2" d="M53.99,12.32C29.72,16.99,11.38,38.36,11.38,63.98s18.34,46.99,42.61,51.67v-4.93c-21.59-4.61-37.77-23.79-37.77-46.73S32.4,21.86,53.99,17.25v-4.93ZM74.1,17.28v-4.93c24.24,4.71,42.51,26.04,42.51,51.63s-18.27,46.93-42.51,51.63v-4.93c21.53-4.64,37.68-23.79,37.68-46.7s-16.15-42.06-37.68-46.7Z"/><path class="cls-3" d="M71.43,62.2c4.03.77,7.12,2.26,9.35,4.42,2.22,2.13,3.32,4.87,3.32,8.19v5.25c0,4-1.45,7.22-4.32,9.67-2.87,2.42-6.67,3.61-11.35,3.61h-1.61v8.35h-5.54v-8.35h-1.71c-3.09,0-5.8-.68-8.19-2.06-2.35-1.42-4.22-3.38-5.54-5.9-1.29-2.58-1.93-5.51-1.93-8.86h5.54c0,3.38.93,6.16,2.77,8.28,1.9,2.06,4.42,3.13,7.48,3.13h8.57c3.03,0,5.48-.71,7.35-2.13,1.84-1.48,2.77-3.38,2.77-5.74v-5.25c0-1.87-.71-3.45-2.09-4.77-1.35-1.32-3.19-2.16-5.54-2.55l-13.89-2.45c-3.9-.71-6.96-2.19-9.12-4.42-2.16-2.26-3.26-5.06-3.26-8.44v-4.42c0-4,1.39-7.16,4.16-9.51,2.84-2.42,6.57-3.61,11.18-3.61h1.39v-8.35h5.54v8.35h1.77c4.38,0,7.9,1.42,10.57,4.25,2.68,2.77,4.03,6.48,4.03,11.05h-5.54c0-3-.84-5.41-2.48-7.22-1.64-1.8-3.84-2.71-6.57-2.71h-8.73c-2.93,0-5.29.71-7.03,2.13-1.74,1.35-2.61,3.22-2.61,5.58v4.42c0,1.9.64,3.51,1.93,4.83,1.35,1.32,3.16,2.19,5.48,2.61l13.86,2.61Z"/></svg>