<svg xmlns="http://www.w3.org/2000/svg" width="256" height="256" xmlns:v="https://vecta.io/nano"><path d="M6.557 128c0 66.964 54.479 121.443 121.443 121.443S249.443 194.964 249.443 128 194.964 6.557 128 6.557 6.557 61.036 6.557 128z" fill="#bec0fb" fill-rule="evenodd" stroke="#b0b0b0" stroke-width="13.114" paint-order="normal"/><ellipse cx="128.27" cy="129.899" rx="60" ry="80" fill="#340c8f" paint-order="stroke fill markers"/><path d="M129.081 15c-.472 0-108.009 107.38-109.471 109.1s-12.207 8.037 5.242-2.228c18.517-8.93 36.458-13.291 50.074-12.082 4.492.399 9.222 6.959 12.899 4.308 2.761-1.992-.068-2.866-.011-10.214.117-14.991 9.964-26.952 25.692-31.21 7.25-1.963 8.071 1.086 8.071-2.686V57.307h6.431 6.384v13.36l9.027 2.128c7.741 2.605 16.152 8.19 19.459 12.662s6.996 13.755 6.996 16.958-.009 3.773-8.261 4.641-9.446-.985-10.692-5.874c-2.159-8.47-11.597-14.044-23.479-13.866-6.755.101-11.684 1.725-16.205 5.34-6.567 5.251-6.936 15.414-.748 20.621 3.517 2.96 12.134 5.452 18.369 7.754 8.353 3.084 19.697 5.047 25.456 8.098s8.136 5.511 9.737 7.656 6.582 8.114 8.711 8.926c6.171 2.353 6.723-3.988 16.333-3.911 15.19.121 18.44-.602 27.373-2.66 8.308-1.914 21.821-6.537 23.972-8.915 2.082-2.301 1.21-3.243-54.315-58.782L129.081 15z" fill="#02fab3"/><path d="M71.73 185.369c-30.589-30.597-55.616-56.459-55.616-57.472 0-1.707 16.091-10.145 25.044-13.057 10.823-3.521 23.276-5.981 33.767-5.049s13.095 1.359 16.399 7.879 9.423 12.119 19.544 15.311 16.405 4.341 24.822 6.737 11.64 3.638 14.596 8.113 3.772 10.273 1.606 15.393c-3.732 8.822-19.58 13.488-32.778 9.651-7.742-2.251-15.638-9.414-15.638-13.82s-1.737-5.426-10.171-5.426-9.893.003-6.755 10.366 14.514 20.521 30.247 25.056c4.676 1.348 4.741 1.441 5.316 7.727l.582 6.362h5.824 5.824l.349-6.698c.256-4.906.8-6.698 2.034-6.698 3.138 0 16.231-4.996 20.316-7.752 2.234-1.507 5.142-4.347 8.445-9.261s4.383-8.913 4.383-16.229-.462-10.922-1.027-12.406l-1.027-2.697s12.404.559 18.604.395c9.5-.251 19.084-.399 28.432-2.111 4.645-.851-6.096 1.613 13.581-4.027 13.009-3.728 32.227-25.144-43.417 51.112C155.331 216.694 130.068 241 129.102 241s-26.784-25.034-57.372-55.631z" fill="#05b494"/></svg>