<?xml version="1.0" encoding="utf-8"?>
<!-- Generator: Adobe Illustrator 22.0.0, SVG Export Plug-In . SVG Version: 6.00 Build 0)  -->
<svg version="1.1" id="USDS" xmlns="http://www.w3.org/2000/svg" xmlns:xlink="http://www.w3.org/1999/xlink" x="0px" y="0px"
	 viewBox="0 0 490 490" style="enable-background:new 0 0 490 490;" xml:space="preserve">
<style type="text/css">
	.st0{fill:#5C90E8;}
	.st1{fill:#FFFFFF;}
</style>
<path id="Full" class="st0" d="M0,245c0,135.1,109.9,245,245,245s245-109.9,245-245S380.1,0,245,0S0,109.9,0,245z"/>
<path id="Stably" class="st1" d="M322.8,294c0.1,9.6-2,19.1-6.2,27.8c-4.1,8.5-10,16-17.3,22c-8,6.5-17.1,11.4-26.9,14.4
	c-11.3,3.6-23.1,5.3-35,5.1c-12.3,0-24.5-1.3-36.6-3.9c-11.7-2.4-23-6.3-33.8-11.5l9.9-36.7c8.9,4.1,18.1,7.5,27.6,9.9
	c10.2,2.8,20.8,4.1,31.4,4.1c11.4,0,20.7-2.3,28-7c7.2-4.7,10.8-11.5,10.8-20.4c0-8.2-3.4-15-10.3-20.2s-17.4-10.7-31.6-16.5
	c-9.2-3.7-18.1-8-26.8-12.9c-7.2-4-13.8-9-19.6-14.9c-5.1-5.3-9.3-11.5-12.2-18.4c-3-7.2-4.4-15-4.3-22.8c0-21,7.2-37.2,21.5-48.5
	c14.3-11.3,33.4-17,57.5-17c11.4-0.1,22.8,1.1,34,3.4c10.4,2.3,20.4,6,29.8,11l-8.9,36.7c-8.1-3.9-16.5-7.1-25.2-9.4
	c-8.8-2.4-17.8-3.6-26.9-3.6c-10.1,0-18.2,1.9-24.4,5.7s-9.3,9.7-9.3,17.7c-0.1,3.3,0.4,6.5,1.5,9.6c1.2,3,3.2,5.7,5.7,7.7
	c3.3,2.8,6.9,5.2,10.8,7.2c4.5,2.4,10.1,5.1,17,8.1c9.1,3.9,17.9,8,26.2,12.3c8,4.1,15.4,9.2,22.1,15.1c6.3,5.6,11.6,12.4,15.4,19.9
	C320.9,275.5,322.8,284.2,322.8,294L322.8,294L322.8,294z"/>
<path id="Stripes" class="st1" d="M149.2,265.3v-15.5h191.7v15.5H149.2z M149.2,239.2v-15.5h191.7v15.5H149.2z"/>
</svg>
