<svg id="USDS" xmlns="http://www.w3.org/2000/svg" width="512" height="512" viewBox="0 0 512 512">
<defs>
    <style>
      .cls-1 {
        fill: #5c90e8;
      }

      .cls-1, .cls-2 {
        fill-rule: evenodd;
      }

      .cls-2 {
        fill: #fff;
      }
    </style>
  </defs>
  <path id="Full" class="cls-1" d="M11,256c0,135.094,109.906,245,245,245S501,391.094,501,256,391.094,11,256,11,11,120.906,11,256Z"/>
  <path id="Stably" class="cls-2" d="M333.834,305.049a62.647,62.647,0,0,1-6.188,27.783A65.651,65.651,0,0,1,310.32,354.8,81.021,81.021,0,0,1,283.388,369.2a112.4,112.4,0,0,1-34.99,5.145,173.672,173.672,0,0,1-36.55-3.944,146.576,146.576,0,0,1-33.78-11.491L188.01,322.2a165.231,165.231,0,0,0,27.618,9.947,120.05,120.05,0,0,0,31.4,4.116q17.141,0,27.955-7.032T285.8,308.822q0-12.348-10.3-20.237t-31.56-16.464a225.487,225.487,0,0,1-26.758-12.862,86.252,86.252,0,0,1-19.559-14.933,60.379,60.379,0,0,1-12.175-18.351,57.668,57.668,0,0,1-4.291-22.809q0-31.569,21.456-48.535,21.425-17,57.456-16.99a158.216,158.216,0,0,1,33.967,3.429,121.047,121.047,0,0,1,29.839,10.977l-8.919,36.713a145.331,145.331,0,0,0-25.211-9.433,102.03,102.03,0,0,0-26.944-3.6q-15.081,0-24.35,5.659t-9.256,17.665a27.048,27.048,0,0,0,1.535,9.6,19.575,19.575,0,0,0,5.663,7.717,59.062,59.062,0,0,0,10.8,7.2q6.7,3.6,16.989,8.061,13.716,5.843,26.246,12.348a107.8,107.8,0,0,1,22.13,15.1A68.9,68.9,0,0,1,328,278.981q5.819,11.319,5.825,26.068h0.013Z"/>
  <path id="Stripes" class="cls-2" d="M160.18,276.31v-15.5H351.859v15.5H160.18Zm0-26.068v-15.5H351.859v15.5H160.18Z"/>
</svg>
