<?xml version="1.0" encoding="UTF-8" standalone="no"?>
<svg
   xmlns:dc="http://purl.org/dc/elements/1.1/"
   xmlns:cc="http://creativecommons.org/ns#"
   xmlns:rdf="http://www.w3.org/1999/02/22-rdf-syntax-ns#"
   xmlns:svg="http://www.w3.org/2000/svg"
   xmlns="http://www.w3.org/2000/svg"
   version="1.1"
   viewBox="0 0 512 512"
   height="256"
   width="256"
   id="Tether">
  <title
     id="title1007">USDT ERC20</title>
  <metadata
     id="metadata976">
    <rdf:RDF>
      <cc:Work
         rdf:about="">
        <dc:format>image/svg+xml</dc:format>
        <dc:type
           rdf:resource="http://purl.org/dc/dcmitype/StillImage" />
        <dc:title>USDT ERC20</dc:title>
      </cc:Work>
    </rdf:RDF>
  </metadata>
  <defs
     id="defs969">
    <style
       id="style967">
      .cls-1 {
        fill: #26a17a;
      }

      .cls-1, .cls-2 {
        fill-rule: evenodd;
      }

      .cls-2 {
        fill: #fff;
      }
    </style>
  </defs>
  <path
     style="stroke:#b0b0b0;stroke-width:26.45669292;stroke-miterlimit:4;stroke-dasharray:none;paint-order:normal;stroke-opacity:1"
     d="M11,256c0,135.094,109.906,245,245,245S501,391.094,501,256,391.094,11,256,11,11,120.906,11,256Z"
     class="cls-1"
     data-name="Main copy 10"
     id="Main_copy_10" />
  <path
     d="M138,126v58h87v38s-120.316,5.287-124,33c-2.35,28.59,124,35,124,35V412h63V290s123.717-5.774,123-34-123-35-123-35V184h87V126H138Zm87,101s-104.206,2.785-110,26c-0.952,24.161,109.749,27.6,141,28,32.374-.641,141.654-4.21,140-28-1.654-22.137-108-27-108-27v43s-15,1-32,1-31-1-31-1V227Z"
     class="cls-2"
     id="T" />
</svg>
