<?xml version="1.0" encoding="utf-8"?>
<!-- Generator: Adobe Illustrator 22.0.0, SVG Export Plug-In . SVG Version: 6.00 Build 0)  -->
<svg version="1.1" id="Tether" xmlns="http://www.w3.org/2000/svg" xmlns:xlink="http://www.w3.org/1999/xlink" x="0px" y="0px"
	 viewBox="0 0 245 245" style="enable-background:new 0 0 245 245;" xml:space="preserve">
<style type="text/css">
	.st0{fill:#26A17A;}
	.st1{fill:#FFFFFF;}
</style>
<path id="Main_copy_10" class="st0" d="M0,122.5C0,190,55,245,122.5,245S245,190,245,122.5S190,0,122.5,0S0,55,0,122.5z"/>
<path class="st1" d="M138.5,105V86.5H182v-29H63.5v29H107v19c0,0-60.2,2.6-62,16.5c-1.2,14.3,62,17.5,62,17.5v61h31.5v-61
	c0,0,61.9-2.9,61.5-17C199.6,108.4,138.5,105,138.5,105z M122.5,135c-15.6-0.2-71-1.9-70.5-14c2.9-11.6,55-13,55-13v21
	c0,0,7,0.5,15.5,0.5s16-0.5,16-0.5v-21.5c0,0,53.2,2.4,54,13.5C193.3,132.9,138.7,134.7,122.5,135z"/>
</svg>
