<svg xmlns="http://www.w3.org/2000/svg" width="244.8" height="244.8" viewBox="0 0 244.8 244.8">
  <g id="USDT_solana" transform="translate(-4222 -4445)">
    <g id="USDT" transform="translate(4223.248 4446.248)">
      <path id="Main_copy_10" d="M0,121.252C0,188.064,54.44,242.5,121.252,242.5S242.5,188.064,242.5,121.252,188.064,0,121.252,0,0,54.44,0,121.252Z" fill="#26a17a"/>
      <path id="Path_4885" data-name="Path 4885" d="M137.547,104.516V86.2H180.6V57.5H63.311V86.2h43.057v18.806S46.781,107.584,45,121.343c-1.188,14.154,61.368,17.322,61.368,17.322v60.379h31.179V138.665s61.269-2.87,60.873-16.827S137.547,104.516,137.547,104.516ZM121.71,134.21c-15.441-.2-70.277-1.881-69.782-13.857,2.87-11.482,54.44-12.868,54.44-12.868v20.786s6.929.495,15.342.495,15.837-.495,15.837-.495V106.991s52.658,2.376,53.45,13.362C191.789,132.132,137.745,133.913,121.71,134.21Z" transform="translate(-0.458 -0.586)" fill="#fff"/>
    </g>
    <g id="Main_copy_14" transform="translate(4222 4445)" fill="none">
      <path d="M0,122.4c0,67.444,54.954,122.4,122.4,122.4s122.4-54.954,122.4-122.4S189.841,0,122.4,0,0,54.954,0,122.4Z" stroke="none"/>
      <path d="M 122.4000015258789 11 C 60.97383117675781 11 11 60.97383117675781 11 122.4000015258789 C 11 183.826171875 60.97383117675781 233.8000030517578 122.4000015258789 233.8000030517578 C 183.826171875 233.8000030517578 233.8000030517578 183.826171875 233.8000030517578 122.4000015258789 C 233.8000030517578 60.97383117675781 183.826171875 11 122.4000015258789 11 M 122.4000015258789 0 C 189.8410034179688 0 244.8000030517578 54.95399475097656 244.8000030517578 122.4000015258789 C 244.8000030517578 189.8460083007813 189.8460083007813 244.8000030517578 122.4000015258789 244.8000030517578 C 54.95399475097656 244.8000030517578 0 189.843994140625 0 122.4000015258789 C 0 54.95399475097656 54.95899963378906 0 122.4000015258789 0 Z" stroke="none" fill="#1ae5ae"/>
    </g>
  </g>
</svg>
