<?xml version="1.0" encoding="UTF-8" standalone="no"?>
<svg
   xmlns:dc="http://purl.org/dc/elements/1.1/"
   xmlns:cc="http://creativecommons.org/ns#"
   xmlns:rdf="http://www.w3.org/1999/02/22-rdf-syntax-ns#"
   xmlns:svg="http://www.w3.org/2000/svg"
   xmlns="http://www.w3.org/2000/svg"
   xmlns:sodipodi="http://sodipodi.sourceforge.net/DTD/sodipodi-0.dtd"
   xmlns:inkscape="http://www.inkscape.org/namespaces/inkscape"
   version="1.1"
   viewBox="0 0 516.45667 516.45667"
   height="258.22833"
   width="258.22833"
   id="Tether"
   sodipodi:docname="USDT_Omni.svg"
   inkscape:version="1.0.2-2 (e86c870879, 2021-01-15)">
  <sodipodi:namedview
     pagecolor="#ffffff"
     bordercolor="#666666"
     borderopacity="1"
     objecttolerance="10"
     gridtolerance="10"
     guidetolerance="10"
     inkscape:pageopacity="0"
     inkscape:pageshadow="2"
     inkscape:window-width="1920"
     inkscape:window-height="1017"
     id="namedview9"
     showgrid="false"
     inkscape:zoom="3.3203125"
     inkscape:cx="129.11417"
     inkscape:cy="129.11417"
     inkscape:window-x="-8"
     inkscape:window-y="-8"
     inkscape:window-maximized="1"
     inkscape:current-layer="Tether" />
  <title
     id="title1007">USDT Omni</title>
  <metadata
     id="metadata976">
    <rdf:RDF>
      <cc:Work
         rdf:about="">
        <dc:format>image/svg+xml</dc:format>
        <dc:type
           rdf:resource="http://purl.org/dc/dcmitype/StillImage" />
        <dc:title>USDT Omni</dc:title>
      </cc:Work>
    </rdf:RDF>
  </metadata>
  <defs
     id="defs969">
    <style
       id="style967">
      .cls-1 {
        fill: #26a17a;
      }

      .cls-1, .cls-2 {
        fill-rule: evenodd;
      }

      .cls-2 {
        fill: #fff;
      }
    </style>
  </defs>
  <path
     style="stroke:#26a17a;stroke-width:26.4567;stroke-miterlimit:4;stroke-dasharray:none;stroke-opacity:1;paint-order:normal"
     d="m 13.228347,258.22835 c 0,135.094 109.906003,245 245.000003,245 135.094,0 245,-109.906 245,-245 0,-135.094 -109.906,-245.000003 -245,-245.000003 -135.094,0 -245.000003,109.906003 -245.000003,245.000003 z"
     class="cls-1"
     data-name="Main copy 10"
     id="Main_copy_10" />
  <path
     d="m 140.22835,128.22835 v 58 h 87 v 38 c 0,0 -120.316,5.287 -124,33 -2.35,28.59 124,35 124,35 v 122 h 63 v -122 c 0,0 123.717,-5.774 123,-34 -0.717,-28.226 -123,-35 -123,-35 v -37 h 87 v -58 z m 87,101 c 0,0 -104.206,2.785 -110,26 -0.952,24.161 109.749,27.6 141,28 32.374,-0.641 141.654,-4.21 140,-28 -1.654,-22.137 -108,-27 -108,-27 v 43 c 0,0 -15,1 -32,1 -17,0 -31,-1 -31,-1 z"
     class="cls-2"
     id="T" />
</svg>
