<svg id="Tether" xmlns="http://www.w3.org/2000/svg" width="256" height="256" viewBox="0 0 512 512">
<defs>
    <style>
      .cls-1 {
        fill: #26a17a;
      }

      .cls-1, .cls-2 {
        fill-rule: evenodd;
      }

      .cls-2 {
        fill: #fff;
      }
    </style>
  </defs>
  <path id="Main_copy_10" data-name="Main copy 10" class="cls-1" d="M11,256c0,135.094,109.906,245,245,245S501,391.094,501,256,391.094,11,256,11,11,120.906,11,256Z"/>
  <path id="T" class="cls-2" d="M138,126v58h87v38s-120.316,5.287-124,33c-2.35,28.59,124,35,124,35V412h63V290s123.717-5.774,123-34-123-35-123-35V184h87V126H138Zm87,101s-104.206,2.785-110,26c-0.952,24.161,109.749,27.6,141,28,32.374-.641,141.654-4.21,140-28-1.654-22.137-108-27-108-27v43s-15,1-32,1-31-1-31-1V227Z"/>
</svg>
