<svg xmlns="http://www.w3.org/2000/svg" xmlns:xlink="http://www.w3.org/1999/xlink" width="250" height="250" xmlns:v="https://vecta.io/nano"><defs><linearGradient id="A" x1="17.336" x2="80" y1="74.339" y2="74.339" xlink:href="#AG"><stop offset="0" stop-color="#600000"/><stop offset=".327" stop-color="#630000"/><stop offset=".59" stop-color="#6d0000"/><stop offset=".83" stop-color="#7e0000"/><stop offset="1" stop-color="#8f0000"/></linearGradient><linearGradient id="B" x1="48.668" x2="48.668" y1="68.69" y2="80" xlink:href="#AG"><stop offset=".35" stop-color="#bf1010"/><stop offset=".645" stop-color="#bd1010"/><stop offset=".752" stop-color="#b60f0f"/><stop offset=".828" stop-color="#ab0d0d"/><stop offset=".889" stop-color="#9a0a0a"/><stop offset=".941" stop-color="#840606"/><stop offset=".987" stop-color="#690202"/><stop offset="1" stop-color="#600000"/></linearGradient><linearGradient id="C" x1="17.336" x2="80" y1="55.314" y2="55.314" xlink:href="#AG"><stop offset="0" stop-color="#bf1010"/><stop offset=".021" stop-color="#c11212"/><stop offset=".244" stop-color="#d22323"/><stop offset=".487" stop-color="#dc2d2d"/><stop offset=".791" stop-color="#df3030"/><stop offset=".841" stop-color="#dc2e2e"/><stop offset=".882" stop-color="#d22626"/><stop offset=".919" stop-color="#c11919"/><stop offset=".954" stop-color="#a90808"/><stop offset=".966" stop-color="#9f0000"/><stop offset="1" stop-color="#df3030"/></linearGradient><linearGradient id="D" x1="17.336" x2="80" y1="48.905" y2="48.905" xlink:href="#AG"><stop offset="0" stop-color="#dfdfdf"/><stop offset=".021" stop-color="#e1e1e1"/><stop offset=".244" stop-color="#f2f2f2"/><stop offset=".487" stop-color="#fcfcfc"/><stop offset=".791" stop-color="#fff"/><stop offset=".841" stop-color="#fcfcfc"/><stop offset=".882" stop-color="#f2f2f2"/><stop offset=".919" stop-color="#e1e1e1"/><stop offset=".954" stop-color="#c9c9c9"/><stop offset=".966" stop-color="#bfbfbf"/><stop offset="1" stop-color="#fff"/></linearGradient><linearGradient xlink:href="#D" id="E" y1="64.973" y2="64.973"/><linearGradient xlink:href="#D" id="F" y1="71.401" y2="71.401"/><linearGradient id="G" x1="17.336" x2="80" y1="47.875" y2="47.875" xlink:href="#AG"><stop offset="0" stop-color="#00209f"/><stop offset=".021" stop-color="#0222a1"/><stop offset=".244" stop-color="#1333b2"/><stop offset=".487" stop-color="#1d3dbc"/><stop offset=".791" stop-color="#2040bf"/><stop offset=".841" stop-color="#1e3dbc"/><stop offset=".882" stop-color="#1933b2"/><stop offset=".919" stop-color="#1122a1"/><stop offset=".954" stop-color="#050a89"/><stop offset=".966" stop-color="#00007f"/><stop offset="1" stop-color="#2040bf"/></linearGradient><linearGradient xlink:href="#D" id="H" x1="17.337" x2="79.997" y1="39.947" y2="39.947"/><linearGradient xlink:href="#D" id="I" x1="17.337" x2="79.994" y1="51.042" y2="51.042"/><linearGradient xlink:href="#D" id="J" x1="17.337" x2="79.994" y1="55.527" y2="55.527"/><linearGradient xlink:href="#D" id="K" x1="17.337" x2="79.997" y1="48.919" y2="48.919"/><linearGradient xlink:href="#D" id="L" x1="17.337" x2="79.997" y1="53.403" y2="53.403"/><linearGradient xlink:href="#D" id="M" x1="17.337" x2="79.997" y1="44.433" y2="44.433"/><linearGradient xlink:href="#D" id="N" x1="17.333" x2="80.009" y1="55.161" y2="55.161"/><linearGradient xlink:href="#D" id="O" x1="17.337" x2="79.994" y1="46.557" y2="46.557"/><linearGradient xlink:href="#D" id="P" x1="17.337" x2="79.994" y1="53.123" y2="53.123"/><linearGradient xlink:href="#D" id="Q" x1="17.337" x2="79.994" y1="57.609" y2="57.609"/><linearGradient xlink:href="#D" id="R" x1="17.337" x2="79.994" y1="42.071" y2="42.071"/><linearGradient xlink:href="#D" id="S" x1="17.337" x2="79.996" y1="48.638" y2="48.638"/><linearGradient xlink:href="#D" id="T" x1="17.337" x2="79.997" y1="57.89" y2="57.89"/><linearGradient xlink:href="#D" id="U" x2="80.008" y1="49.054" y2="49.054"/><linearGradient xlink:href="#D" id="V" x2="80.008" y1="44.568" y2="44.568"/><linearGradient xlink:href="#D" id="W" x2="79.991" y1="58.025" y2="58.025"/><linearGradient xlink:href="#D" id="X" x1="17.337" x2="79.994" y1="44.153" y2="44.153"/><linearGradient xlink:href="#D" id="Y" x1="17.337" x2="79.994" y1="39.666" y2="39.666"/><linearGradient xlink:href="#D" id="Z" x2="79.991" y1="53.539" y2="53.539"/><linearGradient xlink:href="#D" id="a" x2="79.993" y1="42.277" y2="42.277"/><linearGradient xlink:href="#D" id="b" x2="79.993" y1="46.762" y2="46.762"/><linearGradient xlink:href="#D" id="c" x2="79.993" y1="55.732" y2="55.732"/><linearGradient xlink:href="#D" id="d" x2="79.993" y1="51.247" y2="51.247"/><linearGradient xlink:href="#D" id="e" x2="80.006" y1="40.082" y2="40.082"/><linearGradient xlink:href="#D" id="f" x1="17.333" x2="80.009" y1="50.676" y2="50.676"/><linearGradient xlink:href="#D" id="g" x1="17.339" x2="79.995" y1="49.546" y2="49.546"/><linearGradient xlink:href="#D" id="h" x1="17.339" x2="79.995" y1="45.061" y2="45.061"/><linearGradient xlink:href="#D" id="i" x1="17.339" x2="79.995" y1="54.032" y2="54.032"/><linearGradient xlink:href="#D" id="j" x1="17.327" x2="80.015" y1="43.144" y2="43.144"/><linearGradient xlink:href="#D" id="k" x1="17.34" x2="79.994" y1="40.576" y2="40.576"/><linearGradient xlink:href="#D" id="l" x1="17.327" x2="80.015" y1="38.659" y2="38.659"/><linearGradient xlink:href="#D" id="m" x1="17.338" x2="79.998" y1="46.953" y2="46.953"/><linearGradient xlink:href="#D" id="n" x1="17.338" x2="79.998" y1="42.468" y2="42.468"/><linearGradient xlink:href="#D" id="o" x1="17.339" x2="79.997" y1="55.925" y2="55.925"/><linearGradient xlink:href="#D" id="p" x1="17.338" x2="79.998" y1="37.981" y2="37.981"/><linearGradient xlink:href="#D" id="q" x1="17.338" x2="79.998" y1="51.438" y2="51.438"/><linearGradient xlink:href="#D" id="r" x1="17.327" x2="80.015" y1="47.63" y2="47.63"/><linearGradient xlink:href="#D" id="s" x1="17.333" x2="80.009" y1="41.705" y2="41.705"/><linearGradient xlink:href="#D" id="t" x1="17.338" x2="79.995" y1="52.676" y2="52.676"/><linearGradient xlink:href="#D" id="u" x1="17.327" x2="80.015" y1="52.115" y2="52.115"/><linearGradient xlink:href="#D" id="v" x1="17.338" x2="79.995" y1="43.706" y2="43.706"/><linearGradient xlink:href="#D" id="w" x1="17.338" x2="79.995" y1="57.163" y2="57.163"/><linearGradient xlink:href="#D" id="x" x1="17.333" x2="80.009" y1="46.19" y2="46.19"/><linearGradient xlink:href="#D" id="y" x1="17.334" x2="80.006" y1="39.22" y2="39.22"/><linearGradient xlink:href="#D" id="z" x1="17.338" x2="79.995" y1="48.192" y2="48.192"/><linearGradient xlink:href="#D" id="AA" x1="17.327" x2="80.015" y1="56.601" y2="56.601"/><linearGradient xlink:href="#D" id="AB" x1="17.338" x2="79.996" y1="54.653" y2="54.653"/><linearGradient xlink:href="#D" id="AC" x1="17.338" x2="79.996" y1="41.198" y2="41.198"/><linearGradient xlink:href="#D" id="AD" x1="17.338" x2="79.996" y1="50.168" y2="50.168"/><linearGradient xlink:href="#D" id="AE" x1="17.338" x2="79.996" y1="45.682" y2="45.682"/><linearGradient xlink:href="#D" id="AF"/><linearGradient id="AG" gradientUnits="userSpaceOnUse"/></defs><circle cx="125" cy="125" r="125" fill="#cdcdcd" fill-rule="evenodd"/><g transform="matrix(2.410838 0 0 2.417365 27.128118 21.611516)"><path fill="#0e3ca5" d="M32.585 59.26c2 7.4 9.176 13.045 12.8 12.811.127-.008 13.745-2.547 21.2-15 5.8-9.693 3.827-19.051-4.064-19.255-2.838.207-33.745 7.349-29.934 21.446m29.198-47.527l-.008-.007.011-.007a34.628 34.628 0 0 0-36.5-5.266 20.417 20.417 0 0 0-2.2 1.074c-.486.259-.972.516-1.444.8l.115.036a15.776 15.776 0 0 0-3.655 3.459C8.172 24.953 41.486 34.5 59.3 34.528c8.191 5.882 10.491-16.561 2.485-22.793z"/><path fill="#5493f7" d="M27.3 12C22.723 18.88 7.478 23.727 4.971 22.972l-.017-.032c.1-.207.207-.414.313-.619a36.682 36.682 0 0 1 10.87-12.683q1.407-1.032 2.914-1.929a10.784 10.784 0 0 1 5.039-1.342c6.789.13 3.244 5.58 3.208 5.635m-3.754 48.611c.329 2.161-.008 10.7-.45 11.418-.381.023-1.174.072-3.471-1.217A36.541 36.541 0 0 1 3.054 27.558q.183-.55.383-1.093c2.631 3.5 5.676 6.666 8.264 10.2 2.465 3.365 5.856 8.851 6.546 10.024 4.284 7.277 4.967 11.767 5.294 13.925m50.648-21.52a36.418 36.418 0 0 1-2.54 13.406c-4.3 4.62-33.284-6.753-33.568-6.878C34.116 43.885 22.05 38.6 20.961 30.3 19.4 18.35 43.63 10.026 54.28 9.711c1.277.015 5.163.06 7.429 1.9a36.413 36.413 0 0 1 12.48 27.483M54.568 71.466c-3.159 1.475-6.638.4-5.734-2.676 1.735-5.909 16.886-11.967 20.232-12.3.413-.041.588.24.405.561a36.857 36.857 0 0 1-14.9 14.41"/><path fill="url(#A)" d="M17.336 77.255a2.552 2.552 0 0 0 2.329 2.713c30.7.21 60.335-1.2 60.335-5.8 0-13.924-62.664 3.087-62.664 3.087z"/><path fill="url(#B)" d="M17.336 77.255a2.549 2.549 0 0 0 2.34 2.713c30.692.233 60.287-.731 60.324-5.8 0-13.924-62.664 3.087-62.664 3.087zm2.341 2.536a2.208 2.208 0 0 1-.245-.014 2.4 2.4 0 0 1-1.987-1.762 2.369 2.369 0 0 0 2.229 1.761c30.671-.192 59.845-9.636 59.845-5.478 0 4.244-29.172 5.702-59.842 5.493z"/><path fill="url(#C)" d="M19.679 37.822a2.343 2.343 0 0 0-2.343 2.344v37.089a2.342 2.342 0 0 0 2.329 2.345C50.363 79.37 80.037 69.209 80 74.17V32.393c.037-4.96-29.627 5.2-60.321 5.429z"/><path fill="url(#AF)" d="M24.205 63.421l3.216-.148 3.095-.2 2.986-.249 2.9-.275 2.825-.3a291.93 291.93 0 0 0 5.492-.677l2.7-.375 2.682-.409 2.7-.42 2.718-.44 2.751-.472 2.815-.484 2.884-.5 2.967-.516 3.073-.494 3.3-.464a24.378 24.378 0 0 1 4.28-.228c1.345.091 2.41.433 2.41 1.371v-3.216c0-.926-1.021-1.258-2.274-1.361a21.6 21.6 0 0 0-4 .168l-3.089.419-2.759.432-2.672.453-2.644.465-2.68.464-2.767.476-2.9.488-3.127.492-3.381.519v-3.214l3.381-.519 3.127-.492 2.9-.489 2.768-.475 2.679-.464 2.644-.465 2.672-.453 2.759-.432 3.089-.419a21.851 21.851 0 0 1 4-.169c1.254.1 2.275.436 2.275 1.361V48.5c0-.924-1.021-1.258-2.274-1.362a21.865 21.865 0 0 0-4 .169l-3.089.419-2.759.432-2.672.453-2.644.466-2.68.464-2.767.475-2.9.487-3.127.493-3.38.518v-3.213l3.381-.519 3.127-.492 2.9-.488 2.768-.475 2.679-.464 2.644-.465a217.896 217.896 0 0 1 5.431-.885l3.089-.42a21.95 21.95 0 0 1 4-.168c1.253.1 2.274.437 2.274 1.362V42.07c0-.925-1.021-1.256-2.274-1.36a21.776 21.776 0 0 0-4 .168l-3.089.419-2.759.432-2.672.452-2.644.467-2.68.463-2.767.475-2.9.487-3.129.494-3.38.519v-3.214l3.379-.52 3.13-.493 2.9-.487 2.768-.475 2.679-.464 2.644-.465 2.672-.454 2.758-.431 3.09-.419a21.851 21.851 0 0 1 4-.169c1.254.1 2.275.437 2.275 1.361v-3.213c0-.925-1.021-1.258-2.274-1.362a21.955 21.955 0 0 0-4 .169l-3.089.419-2.759.432-2.672.453-2.644.466-2.679.462-2.768.477a300.015 300.015 0 0 1-6.03.979l-3.38.52v-3.259a203.887 203.887 0 0 1-28.029 2.423 2.343 2.343 0 0 0-2.343 2.344v23.4l3.512-.04 3.358-.105z"/><path fill="url(#E)" d="M24.2 69.849l3.217-.148 3.1-.2 2.985-.248 2.9-.276 2.825-.3a317.514 317.514 0 0 0 5.49-.676l2.7-.376 2.683-.41 2.7-.418 2.72-.441 2.752-.472 2.814-.484 2.884-.5 2.968-.516 3.073-.494 3.3-.464a24.187 24.187 0 0 1 4.28-.229c1.345.092 2.41.435 2.41 1.372v-3.217c0-.937-1.065-1.281-2.409-1.372a24.294 24.294 0 0 0-4.281.228l-3.3.465-3.073.493-2.967.516-2.885.5-2.814.484-2.751.472-2.72.44-2.7.421-2.683.408-2.7.376-2.728.349-2.762.327-2.825.3-2.9.275-2.986.249-3.1.2-3.217.148-3.357.1-3.51.042v3.213a202.98 202.98 0 0 0 6.867-.137z"/><path fill="url(#F)" d="M77.59 66.407a24.378 24.378 0 0 0-4.28.228l-3.3.465-3.072.493-2.969.516-2.884.5-2.815.484-2.752.472-2.72.44-2.7.419-2.684.409-2.7.377a326.153 326.153 0 0 1-5.49.676l-2.825.3-2.9.276-2.986.248-3.1.2a194.222 194.222 0 0 1-10.084.29v3.22q1.8 0 3.51-.04 1.71-.04 3.357-.1l3.217-.148 3.1-.2 2.986-.248 2.9-.275 2.825-.3 2.763-.328 2.726-.348 2.7-.376 2.684-.409 2.7-.42 2.72-.441 2.754-.472 2.814-.483 2.883-.5 2.97-.516 3.072-.494 3.3-.463a24.475 24.475 0 0 1 4.28-.228c1.345.089 2.41.432 2.41 1.37v-3.223c0-.938-1.065-1.278-2.41-1.371z"/><path fill="url(#G)" d="M24 60.216l2.963-.132 2.82-.173 2.746-.215a294.748 294.748 0 0 0 5.564-.537l2.958-.337 3.184-.4 3.47-.482V35.4a203.8 203.8 0 0 1-28.024 2.422 2.343 2.343 0 0 0-2.343 2.344v20.185l3.477-.039L24 60.216z"/><path fill="url(#H)" d="M24.566 38.77l-.285.9-.924.034.747.524-.286.9.748-.576.747.518-.286-.876.748-.583-.925.04z"/><path fill="url(#I)" d="M27.236 49.858l-.285.905-.926.046.748.513-.286.9.749-.588.75.506-.287-.872.75-.595-.926.055z"/><path fill="url(#J)" d="M27.523 55.216l-.287-.873-.285.906-.926.045.748.513-.286.9.749-.59.75.508-.287-.872.75-.595-.926.058z"/><path fill="url(#K)" d="M24.565 47.74l-.285.9-.924.034.746.522-.284.9.747-.579.748.52-.287-.878.749-.582-.925.04z"/><path fill="url(#L)" d="M24.564 52.225l-.284.9-.925.034.747.522-.285.9.747-.581.749.519-.287-.877.749-.583-.925.04z"/><path fill="url(#M)" d="M24.566 43.255l-.286.9-.924.034.747.523-.285.9.748-.578.747.519-.287-.877.749-.583-.925.041-.284-.879z"/><path fill="url(#N)" d="M32.582 53.965l-.285.912-.927.077.749.489-.285.913.748-.612.748.483a290.83 290.83 0 0 1-.286-.864l.748-.618-.925.083-.285-.863z"/><path fill="url(#O)" d="M27.236 45.373l-.285.905-.926.046.748.512-.286.905.749-.589.75.506-.287-.873.75-.593-.926.054z"/><path fill="url(#P)" d="M29.911 51.933l-.287.91-.924.057.75.5-.286.907.749-.6.749.494-.286-.868.748-.606-.925.07a62.45 62.45 0 0 1-.288-.864z"/><path fill="url(#Q)" d="M30.2 57.287l-.286-.868-.287.909-.926.061.75.5-.286.91.749-.6.749.495-.286-.868.748-.606z"/><path fill="url(#R)" d="M27.236 40.888l-.285.9-.926.047.748.513-.286.9.749-.589.75.507-.287-.873.75-.595-.926.055z"/><path fill="url(#S)" d="M29.909 47.449l-.285.909-.925.06.749.5-.287.909.75-.6.749.494-.286-.869.748-.6-.925.07z"/><path fill="url(#T)" d="M24.85 57.589l-.286-.878-.285.9-.924.035.747.522-.285.9.747-.579.749.52-.287-.877.749-.583z"/><path fill="url(#U)" d="M19.218 47.886l-.287.893-.927.006.75.544-.287.893.75-.559.75.539-.285-.884.749-.563-.927.016z"/><path fill="url(#V)" d="M19.218 43.4l-.287.892-.927.006.75.544-.286.893.75-.557.749.537-.285-.885.749-.562-.927.015z"/><path fill="url(#W)" d="M19.5 57.742l-.287-.885-.287.891-.926.008.75.543-.286.894.749-.558.75.539a304.2 304.2 0 0 1-.286-.887l.749-.562-.926.017z"/><path fill="url(#X)" d="M29.161 45.342l.748-.6.75.495-.285-.869.748-.607-.925.071-.287-.867-.286.907-.926.062.75.5z"/><path fill="url(#Y)" d="M29.161 40.856l.749-.6.749.494-.285-.868.748-.606-.925.07-.287-.869-.286.909-.926.062.75.5z"/><path fill="url(#Z)" d="M19.218 52.371l-.288.893h-.926l.75.547-.287.891.75-.558.75.538-.285-.885.748-.562-.926.015z"/><path fill="url(#a)" d="M21.894 41.1l-.286.895-.927.023.75.533-.286.9.749-.57.75.528-.287-.881.749-.574-.924.029-.288-.883z"/><path fill="url(#b)" d="M21.894 45.588l-.286.9-.927.022.75.531-.286.9.748-.569.751.526-.287-.88.749-.573-.926.029-.286-.886z"/><path fill="url(#c)" d="M22.179 55.439l-.286-.881-.286.9-.928.022.751.532-.287.9.749-.569.751.528-.287-.881.749-.574z"/><path fill="url(#d)" d="M21.893 50.073l-.286.9-.926.021.749.533-.286.9.749-.57.75.528-.287-.88.75-.575-.926.031z"/><path fill="url(#e)" d="M19.218 38.914l-.286.893-.928.008.75.543-.286.891.75-.555.75.536-.285-.884.75-.563-.929.017z"/><path fill="url(#f)" d="M32.582 49.481l-.285.912-.926.076.748.488-.285.914.748-.613.748.483-.286-.863.748-.618-.925.083-.285-.862z"/><path fill="url(#g)" d="M43.268 48.335l-.287.925-.927.117.749.456-.287.925.751-.644.75.453-.287-.852.751-.648-.927.121z"/><path fill="url(#h)" d="M43.268 43.85l-.287.925-.927.115.75.458-.286.924.75-.644.75.453-.287-.851.751-.649-.927.121z"/><path fill="url(#i)" d="M43.553 53.672l-.286-.852-.287.926-.926.115.749.457-.287.925.75-.644.75.453-.286-.851.75-.649z"/><path fill="url(#j)" d="M40.6 41.936l-.284.924-.922.106.746.463-.284.923.744-.637.747.459-.286-.854.75-.641-.926.113a31.775 31.775 0 0 1-.285-.856z"/><path fill="url(#k)" d="M43.269 39.364l-.288.925-.927.115.751.458-.287.926.75-.646.751.455a213.15 213.15 0 0 0-.287-.853l.751-.649-.928.121z"/><path fill="url(#l)" d="M40.6 37.452l-.284.923-.922.106.746.463-.284.922.744-.637.748.459-.286-.853.749-.641-.926.113a35.676 35.676 0 0 1-.285-.855z"/><path fill="url(#m)" d="M45.944 45.738l-.287.929-.925.124.749.449-.287.928.749-.652.748.445-.285-.849.746-.656-.922.131z"/><path fill="url(#n)" d="M45.946 41.253l-.287.927-.926.126.748.447-.286.93.75-.654.747.447-.285-.851.746-.655-.922.131z"/><path fill="url(#o)" d="M46.226 55.558l-.285-.849-.287.928-.924.125.748.449-.287.93.75-.655.747.447-.286-.85.747-.656-.923.131z"/><path fill="url(#p)" d="M45.947 36.766l-.287.929-.927.126.751.448-.288.927.751-.651.747.444-.285-.849.745-.656-.921.132z"/><path fill="url(#q)" d="M45.943 50.224l-.287.928-.925.124.748.45-.286.927.749-.651.747.444-.285-.849.746-.656-.923.131z"/><path fill="url(#r)" d="M40.6 46.422l-.284.923-.923.107.747.464-.284.922.744-.638.748.46-.286-.854.749-.641-.926.112z"/><path fill="url(#s)" d="M32.582 40.509l-.285.912-.927.077.749.49-.285.913.748-.614.748.484-.286-.863.748-.619-.925.084-.285-.864z"/><path fill="url(#t)" d="M35.254 51.477l-.286.917-.927.086.75.479-.287.917.75-.621.75.477-.287-.86.749-.624-.925.092-.287-.863z"/><path fill="url(#u)" d="M40.6 50.907l-.284.923-.923.107.747.464-.285.921.745-.636.747.459-.285-.853.749-.642-.926.112a31.712 31.712 0 0 1-.285-.855z"/><path fill="url(#v)" d="M35.254 42.507l-.286.916-.927.087.75.479-.287.917.75-.621.75.477-.286-.862.749-.623-.926.091z"/><path fill="url(#w)" d="M35.254 55.963l-.286.916-.927.087.75.479-.287.918.75-.622.75.478-.287-.862.749-.623-.925.09z"/><path fill="url(#x)" d="M32.582 45l-.285.913-.926.076.748.489-.285.913.748-.613.748.483-.286-.863.748-.618-.925.084z"/><path fill="url(#y)" d="M35.255 38.021l-.287.917-.927.086.749.48-.286.915.751-.62.749.477-.286-.861.75-.624-.927.092z"/><path fill="url(#z)" d="M35.254 46.992l-.286.916-.927.092.75.48-.286.917.749-.622.75.477-.286-.861.749-.624-.926.092-.287-.867z"/><path fill="url(#AA)" d="M40.88 56.249l-.285-.856-.284.923-.923.106.746.464-.284.923.745-.639.748.461-.286-.854.749-.642z"/><path fill="url(#AB)" d="M38.214 54.308l-.286-.859-.287.921-.925.1.749.473-.286.919.75-.629.748.47-.287-.858.749-.634-.925.097z"/><path fill="url(#AC)" d="M37.929 39.994l-.286.919-.926.1.749.474-.286.919.75-.629.748.469-.287-.857.749-.633-.925.1z"/><path fill="url(#AD)" d="M37.928 48.965l-.286.919-.926.1.75.472-.286.919.749-.627.749.467-.287-.856.749-.633-.925.1z"/><path fill="url(#AE)" d="M37.929 44.479l-.287.92-.926.095.75.472-.286.919.749-.627.749.468-.287-.857.749-.633-.925.1z"/></g></svg>