<?xml version="1.0" encoding="UTF-8" standalone="no"?>
<svg
   xmlns:dc="http://purl.org/dc/elements/1.1/"
   xmlns:cc="http://creativecommons.org/ns#"
   xmlns:rdf="http://www.w3.org/1999/02/22-rdf-syntax-ns#"
   xmlns:svg="http://www.w3.org/2000/svg"
   xmlns="http://www.w3.org/2000/svg"
   id="svg8"
   version="1.1"
   viewBox="0 0 67.733332 67.733335"
   height="256"
   width="256">
  <defs
     id="defs2" />
  <metadata
     id="metadata5">
    <rdf:RDF>
      <cc:Work
         rdf:about="">
        <dc:format>image/svg+xml</dc:format>
        <dc:type
           rdf:resource="http://purl.org/dc/dcmitype/StillImage" />
        <dc:title></dc:title>
      </cc:Work>
    </rdf:RDF>
  </metadata>
  <g
     transform="translate(0,-229.26665)"
     id="layer1">
    <ellipse
       ry="32.411457"
       rx="32.415031"
       cy="263.13333"
       cx="33.866665"
       id="path815"
       style="opacity:1;fill:#5493f7;fill-opacity:1;fill-rule:nonzero;stroke:none;stroke-width:3.46303225;stroke-linecap:round;stroke-linejoin:round;stroke-miterlimit:4;stroke-dasharray:none;stroke-dashoffset:0;stroke-opacity:1;paint-order:stroke fill markers" />
    <g
       transform="matrix(0.36399326,0,0,0.36399326,10.571098,239.83774)"
       id="g1090">
      <g
         style="display:none;opacity:0.49000005"
         class="st0"
         id="g1037">
	<circle
   style="display:inline;fill:#0ce8ae"
   class="st1"
   cx="64"
   cy="448"
   r="420"
   id="circle1035" />

</g>
      <g
         id="g1064">
	<g
   id="g1041">
		<circle
   style="fill:#ffffff"
   class="st2"
   cx="64"
   cy="64"
   r="64"
   id="circle1039" />

	</g>

	<g
   id="Symbol_x5F_terra">
		<g
   id="g1051">
			<path
   style="display:none;fill:#2845ae"
   class="st3"
   d="M 31.81,19.23 C 13.62,43.27 83.6,60 108.37,55.96 c 4.35,-0.71 17.58,-2.87 8.53,-20.18 -1.27,-2.16 -3.05,-5.01 -4.47,-7.08 -1.72,-2.16 -4.12,-4.96 -6,-6.99 -0.6,-0.6 -1.2,-1.18 -1.83,-1.75 C 99.77,15.74 89.71,6.96 63.94,6.66 48.7,6.98 37.88,11.21 31.81,19.23"
   id="path1043" />

			<path
   style="fill:#0e3ca5"
   class="st4"
   d="m 55.61,97.29 c 3.29,12.16 15.08,21.44 21.04,21.06 0.21,-0.01 22.6,-4.19 34.85,-24.66 9.54,-15.93 6.29,-31.32 -6.68,-31.65 -4.67,0.33 -55.48,12.07 -49.21,35.25"
   id="path1045" />

			<path
   style="fill:#0e3ca5"
   class="st4"
   d="m 103.61,19.16 c 0,0 -0.01,-0.01 -0.01,-0.01 l 0.02,-0.01 C 93.68,10.67 80.8,5.58 66.72,5.58 c -8.23,0 -16.04,1.76 -23.1,4.91 -1.27,0.53 -2.47,1.12 -3.61,1.77 -0.8,0.43 -1.6,0.85 -2.37,1.31 l 0.19,0.06 c -2.34,1.62 -4.36,3.51 -6.01,5.69 -16.34,21.59 38.43,37.28 67.7,37.33 13.47,9.65 17.25,-27.25 4.09,-37.49 z"
   id="path1047" />

			<path
   style="display:none;fill:#2845ae"
   class="st3"
   d="m 115.66,83.92 c 3.7,-12.17 -0.43,-22.14 -10.85,-22.4 -4.67,0.34 -55.47,12.08 -49.21,35.25 3.29,12.16 15.08,21.44 21.04,21.06 0.19,-0.01 17.82,-3.31 30.36,-18.35 5.22,-3.41 9.21,-6.04 9.27,-6.14 1.31,-2.31 2.46,-4.72 3.46,-7.21 v 0 c -0.37,-0.4 -1.87,-1.19 -4.07,-2.21 z"
   id="path1049" />

		</g>

		<g
   id="g1061">
			<path
   style="fill:#5493f7"
   class="st5"
   d="M 46.91,19.6 C 39.39,30.91 14.33,38.88 10.21,37.64 10.2,37.62 10.19,37.6 10.18,37.59 c 0.17,-0.34 0.34,-0.68 0.52,-1.02 1.43,-2.75 3.06,-5.38 4.88,-7.86 1.82,-2.48 3.83,-4.82 6,-6.99 2.17,-2.17 4.51,-4.18 6.99,-6 1.54,-1.13 3.14,-2.19 4.79,-3.17 3.51,-2.03 7.1,-2.16 8.28,-2.21 11.16,0.21 5.33,9.17 5.27,9.26"
   id="path1053" />

			<path
   style="fill:#5493f7"
   class="st5"
   d="m 40.74,99.51 c 0.54,3.55 -0.01,17.59 -0.74,18.77 -0.63,0.04 -1.93,0.12 -5.71,-2 -1.98,-1.13 -3.9,-2.37 -5.73,-3.72 -2.48,-1.82 -4.82,-3.83 -6.99,-6 -2.17,-2.17 -4.18,-4.51 -6,-6.99 C 13.75,97.09 12.12,94.46 10.69,91.71 9.26,88.96 8.04,86.08 7.05,83.1 6.06,80.12 5.29,77.03 4.78,73.87 4.27,70.7 4,67.45 4,64.13 4,60.82 4.27,57.57 4.79,54.4 c 0.52,-3.17 1.28,-6.25 2.27,-9.23 0.2,-0.6 0.41,-1.2 0.63,-1.8 v 0 c 4.33,5.75 9.33,10.96 13.59,16.77 4.05,5.53 9.63,14.55 10.76,16.48 7.04,11.96 8.16,19.34 8.7,22.89"
   id="path1055" />

			<path
   style="fill:#5493f7"
   class="st5"
   d="m 124,64.13 c 0,7.78 -1.48,15.22 -4.18,22.04 C 112.75,93.77 65.1,75.07 64.64,74.86 58.12,72 38.29,63.32 36.5,49.66 33.93,30.02 73.77,16.34 91.27,15.82 c 2.1,0.02 8.49,0.1 12.21,3.12 C 116.06,29.95 124,46.12 124,64.13"
   id="path1057" />

			<path
   style="fill:#5493f7"
   class="st5"
   d="m 91.75,117.35 c -5.19,2.42 -10.91,0.66 -9.43,-4.4 2.85,-9.71 27.76,-19.67 33.26,-20.21 0.68,-0.07 0.97,0.4 0.67,0.92 -5.74,10.05 -14.23,18.33 -24.5,23.69"
   id="path1059" />

		</g>

	</g>

</g>
    </g>
  </g>
  <style
     type="text/css"
     id="style1033">
	.st0{display:none;opacity:0.49;}
	.st1{display:inline;fill:#0CE8AE;}
	.st2{fill:#FFFFFF;}
	.st3{display:none;fill:#2845AE;}
	.st4{fill:#0E3CA5;}
	.st5{fill:#5493F7;}
</style>
</svg>
