<?xml version="1.0" encoding="UTF-8"?><svg id="Layer_1" xmlns="http://www.w3.org/2000/svg" width="128" height="128" viewBox="0 0 128 128"><defs><style>.cls-1{fill:#4142fb;}.cls-2{fill:#fff;}</style></defs><path class="cls-1" d="M64,0h0c35.37,0,64,28.63,64,64h0c0,35.37-28.63,64-64,64h0C28.63,128,0,99.37,0,64h0C0,28.63,28.63,0,64,0Z"/><path class="cls-2" d="M98.59,28.05l-12.64,72.39c-.09.5-.35.96-.75,1.29s-.9.51-1.42.51h-39.57c-.52,0-1.02-.18-1.42-.51-.4-.33-.66-.78-.75-1.29L29.41,28.05c-.05-.31-.04-.63.05-.93.08-.3.23-.58.44-.83.21-.24.46-.43.75-.57.29-.13.61-.2.93-.2h11.91c.52,0,1.02.18,1.41.51.4.33.66.78.75,1.28l9.11,51.16c.88,4.75,4.59,7.91,9.3,7.91s8.3-3.16,9.3-7.91l8.98-51.16c.09-.5.35-.96.75-1.28.4-.33.9-.51,1.42-.51h11.91c.32,0,.64.07.93.2.29.13.55.33.76.57.21.24.36.52.44.83.08.3.1.62.04.93Z"/></svg>