<?xml version="1.0" encoding="utf-8"?>
<!-- Generator: Adobe Illustrator 22.0.0, SVG Export Plug-In . SVG Version: 6.00 Build 0)  -->
<svg version="1.1" id="VBK" xmlns="http://www.w3.org/2000/svg" xmlns:xlink="http://www.w3.org/1999/xlink" x="0px" y="0px"
	 viewBox="0 0 490 490" style="enable-background:new 0 0 490 490;" xml:space="preserve">
<style type="text/css">
	.st0{fill:#12284B;}
	.st1{fill:#FFFFFF;}
</style>
<path id="Full" class="st0" d="M0,245c0,135.1,109.9,245,245,245s245-109.9,245-245S380.1,0,245,0S0,109.9,0,245z"/>
<path id="VBK-2" class="st1" d="M173,200.2l12.1,42.8h43.6l-11.3-42.8H173z M203.4,147.8h-45.2l12.1,42.5h44.4L203.4,147.8z
	 M285.9,147.8l-41.4,155.4l-13.4-50.3h-43.3l25.3,90.1h62.7l55.1-195.2L285.9,147.8L285.9,147.8z M245,66c-98.9,0-179,80.1-179,179
	s80.1,179,179,179s179-80.1,179-179c0,0,0,0,0,0C424,146.1,343.9,66,245,66z M246.7,391.6c-80.8,0-146.3-65.5-146.3-146.3
	S165.9,99,246.7,99S393,164.5,393.1,245.3c0,0,0,0,0,0C393.1,326.1,327.6,391.6,246.7,391.6C246.7,391.6,246.7,391.6,246.7,391.6z"
	/>
</svg>
