<svg id="VBK" xmlns="http://www.w3.org/2000/svg" width="512" height="512" viewBox="0 0 512 512">
  <defs>
    <style>
      .cls-1 {
        fill: #12284b;
      }

      .cls-1, .cls-2, .cls-3 {
        fill-rule: evenodd;
      }

      .cls-2 {
        fill: #2483c6;
      }

      .cls-3 {
        fill: #fff;
      }
    </style>
  </defs>
  <path id="Full" class="cls-1" d="M11,256c0,135.094,109.906,245,245,245S501,391.094,501,256,391.094,11,256,11,11,120.906,11,256Z"/>
  <path id="VBK-2" data-name="VBK" class="cls-2" d="M301.451,149.848L256.332,319.159l-14.64-54.776H194.536l27.532,98.146h68.265L350.38,149.848H301.451ZM256.859,60.784c-107.682,0-195,87.291-195,195s87.315,194.973,195,194.973,195-87.291,195-195S364.542,60.784,256.859,60.784Zm1.893,354.7a159.391,159.391,0,1,1,159.391-159.39A159.384,159.384,0,0,1,258.752,415.483Z"/>
  <path id="VBK-White" class="cls-3" d="M178.41,206.972l13.179,46.581h47.467l-12.292-46.581H178.41Zm33.115-57.124H162.308l13.179,46.293h48.33ZM256.5,31C131.949,31,31,131.973,31,256.5S131.949,482,256.5,482,482,381.051,482,256.5,381.051,31,256.5,31Zm0.6,437.8c-117.626,0-212.992-95.366-212.992-212.992S139.473,42.813,257.1,42.813s212.992,95.366,212.992,212.992S374.725,468.8,257.1,468.8Z"/>
</svg>
