<svg id="VEIL" xmlns="http://www.w3.org/2000/svg" width="512" height="512" viewBox="0 0 512 512">
<defs>
    <style>
      .cls-1 {
        fill: #0d124d;
      }

      .cls-1, .cls-10, .cls-11, .cls-2, .cls-3, .cls-4, .cls-5, .cls-6, .cls-7, .cls-8, .cls-9 {
        fill-rule: evenodd;
      }

      .cls-2 {
        fill: #d1d1d1;
      }

      .cls-3 {
        fill: #d6d6d6;
      }

      .cls-4 {
        fill: #dbdbdb;
      }

      .cls-5 {
        fill: #e0e0e0;
      }

      .cls-6 {
        fill: #e6e6e6;
      }

      .cls-7 {
        fill: #ebebeb;
      }

      .cls-8 {
        fill: #f0f0f0;
      }

      .cls-9 {
        fill: #f5f5f5;
      }

      .cls-10 {
        fill: #fafafa;
      }

      .cls-11 {
        fill: #fff;
      }
    </style>
  </defs>
  <path id="Full" class="cls-1" d="M11,256c0,135.094,109.906,245,245,245S501,391.094,501,256,391.094,11,256,11,11,120.906,11,256Z"/>
  <path id="VEIL_W10" data-name="VEIL W10" class="cls-2" d="M330.207,218.606a126.65,126.65,0,0,1,37.94-57.641,125.258,125.258,0,0,1,25.97-17.409c0.259-.13.534-0.229,0.8-0.343a2.021,2.021,0,0,1,.39,1.894,142.923,142.923,0,0,1-6.972,31.983,8.8,8.8,0,0,1-.391.928,144.675,144.675,0,0,1-10.987,23.7,151.228,151.228,0,0,1-10.387,15.4c-0.605.776-1.084,1.76-2.262,1.873a5.782,5.782,0,0,1-1.637.119q-15.1,0-30.2-.006C331.69,219.1,330.847,219.284,330.207,218.606ZM117.246,143.187a112.692,112.692,0,0,1,19.269,11.721,126.593,126.593,0,0,1,45.466,63.572,0.525,0.525,0,0,1,.007.126,2.766,2.766,0,0,1-2.266.5q-14.462.018-28.922,0.008c-0.884,0-1.768-.013-2.647.064a2.33,2.33,0,0,1-1.913-1.245c-2.912-3.606-5.475-7.46-8.015-11.329a132.974,132.974,0,0,1-8.566-15.578c-0.9-1.944-1.69-3.94-2.684-5.841a143.253,143.253,0,0,1-10.06-40.589A1.448,1.448,0,0,1,117.246,143.187Z"/>
  <path id="VEIL_W9" data-name="VEIL W9" class="cls-3" d="M153.188,225.439a54.823,54.823,0,0,1-5.573-6.578,6.9,6.9,0,0,1,2.117-.263q16.128,0.015,32.256.008c0.512,1.841,1.488,3.494,2.14,5.278,0.158,0.431.328,0.858,0.492,1.287-0.654.883-1.63,0.763-2.536,0.766-5.884.019-11.767,0.009-17.651,0.009-3.067,0-6.135,0-9.2,0A3.484,3.484,0,0,1,153.188,225.439Zm206.033-.254q-14.849,0-29.7.006a5.346,5.346,0,0,1-1.861-.255q1.272-3.165,2.543-6.33l34.589,0c-0.467,1.079-1.52,1.731-2.031,2.777a30.374,30.374,0,0,0-2.757,3.024A3.024,3.024,0,0,1,359.221,225.185Z"/>
  <path id="VEIL_W8" data-name="VEIL W8" class="cls-4" d="M262.01,395.788c0,0.253,0,.507,0,0.76a40.621,40.621,0,0,0-.119,4.6,3.425,3.425,0,0,1-.116,1.475,129.428,129.428,0,0,1-1.2,15.421,180.616,180.616,0,0,1-4.081,21.631,2.22,2.22,0,0,0-.007.5c-0.241.934-.494,0.607-0.824,0.03-1.671-2.919-3.362-5.827-5.04-8.741q-7.581-13.161-15.155-26.321a3.118,3.118,0,0,1,1.921-1.112c6.859-2.428,13.708-4.886,20.573-7.3,0.874-.307,1.729-0.665,2.61-0.947A1.368,1.368,0,0,1,262.01,395.788Zm97.211-170.6a64.265,64.265,0,0,1-8.6,8.609,7.145,7.145,0,0,1-1.862.258c-7.731-.012-15.462,0-23.193-0.02-0.8,0-1.729.222-2.235-.74,1.53-2.742,2.986-5.521,4.336-8.356a2.329,2.329,0,0,1,1.466-.261q13.976,0.012,27.951.01A2.568,2.568,0,0,1,359.221,225.185ZM188.029,231.77a11.53,11.53,0,0,1-3,.254q-12.63-.011-25.261,0a0.863,0.863,0,0,1-.983-0.358c-1.649-1.592-3.26-3.221-4.868-4.852a2.061,2.061,0,0,1-.471-0.868l-0.258-.5q13.9,0,27.8,0a14.059,14.059,0,0,0,3.633-.269Zm88.448,72.137c-1.2,2.121-2.39,4.246-3.595,6.363a170.916,170.916,0,0,0-10.83,22.812,176.467,176.467,0,0,0-5.68,17.272c-0.055.2-.146,0.387-0.3,0.79-1.205-4.383-2.451-8.547-3.907-12.644-2-5.636-4.253-11.17-6.8-16.588a170.6,170.6,0,0,0-9.577-17.643,1.27,1.27,0,0,1-.092-0.365,1.929,1.929,0,0,1,1.631-.5q18.761-.016,37.522,0A1.917,1.917,0,0,1,276.477,303.907Z"/>
  <path id="VEIL_W7" data-name="VEIL W7" class="cls-5" d="M188.029,231.77a90.832,90.832,0,0,0,5.052,7.671c0.216,0.3.408,0.62,0.611,0.93a1.918,1.918,0,0,1-1.628.5q-10.53.022-21.06,0.009c-0.466,0-.914-0.141-1.375-0.138a1.817,1.817,0,0,1-1.156-.416,80.874,80.874,0,0,1-8.133-7.08c-0.408-.419-1.16-0.942-0.153-1.567a6.319,6.319,0,0,1,2.008-.161c8.212-.015,16.423.022,24.635-0.026A1.816,1.816,0,0,1,188.029,231.77Zm44.218,167.794a43.337,43.337,0,0,1,6.462-2.488c7.679-2.732,15.374-5.421,23.063-8.126q0,0.5,0,1.007a20.786,20.786,0,0,1,.125,3.465,3.12,3.12,0,0,0,.117,1.347l-0.009,1.019q-8.986,3.166-17.973,6.332-4.284,1.51-8.565,3.028ZM343.025,240.373H320.444a3.166,3.166,0,0,1-1.722-.254q2.3-3.413,4.606-6.826a2.731,2.731,0,0,0,1.6.245q12.125,0,24.25.008a1.8,1.8,0,0,1,1.444.249c-1.583,2-3.7,3.405-5.589,5.059C344.4,239.4,343.7,239.869,343.025,240.373Zm-66.548,63.534-40.781,0c-1.943-2.877-3.86-5.771-5.836-8.624-1.474-2.129-3.023-4.2-4.54-6.3a1.791,1.791,0,0,1,1.445-.254q30.165-.009,60.329,0c-3.478,4.5-6.65,9.216-9.7,14.016A2.944,2.944,0,0,1,276.477,303.907Z"/>
  <path id="VEIL_W6" data-name="VEIL W6" class="cls-6" d="M343.025,240.373c-1.078,1.424-2.784,2.073-4.036,3.281-0.176.17-.347,0.346-0.52,0.519L328.6,250.5a32.083,32.083,0,0,1-6.3.247c-3.625.027-7.25,0.016-10.875,0a2.13,2.13,0,0,1-1.872-.525,100.664,100.664,0,0,0,9.176-10.1,5.038,5.038,0,0,1,1.734-.259c6.854,0.011,13.708,0,20.562.013A2.387,2.387,0,0,1,343.025,240.373Zm-173.889,0h24.556a107.942,107.942,0,0,0,8.684,9.581,1.38,1.38,0,0,1-1.463.767c-5.288.054-10.575,0.042-15.863,0.007a9.039,9.039,0,0,1-1.236-.223c-1.978-.835-3.607-2.244-5.439-3.321-1.437-.845-2.789-1.832-4.179-2.756a40.152,40.152,0,0,1-4.164-2.81A1.446,1.446,0,0,1,169.136,240.372Zm59.782,153.379A61.96,61.96,0,0,1,235.4,391.3c8.108-2.929,16.247-5.77,24.369-8.657,0.725-.257,1.379-0.466,1.743.483,0.025,1.944.42,3.872,0.257,5.824a2.789,2.789,0,0,1-1.48.9c-8.91,3.157-17.829,6.286-26.712,9.516a1.806,1.806,0,0,1-1.333.2Q230.582,396.657,228.918,393.751Zm-3.6-104.773q-3.264-3.888-6.531-7.771-1.377-1.629-2.806-3.214c-1.433-1.582-2.891-3.142-4.338-4.712a1.311,1.311,0,0,1,1.235-.728,10.562,10.562,0,0,1,1.39-.037q41.8,0,83.6,0a7.181,7.181,0,0,1,1.639.077,0.941,0.941,0,0,1,.991.93c-1.434,1.821-3.206,3.322-4.74,5.058-2.782,3.149-5.546,6.3-8.1,9.643a3.685,3.685,0,0,1-.565.494,3.935,3.935,0,0,1-2.177.512q-28.929-.01-57.858,0A7.3,7.3,0,0,1,225.32,288.978Z"/>
  <path id="VEIL_W5" data-name="VEIL W5" class="cls-7" d="M225.722,388.236q7.593-2.722,15.188-5.444,9.618-3.43,19.244-6.837c0.2-.07.4-0.112,0.605-0.166,0,0.167,0,.335,0,0.5,0.3,0.38-.052.888,0.249,1.267q0.252,2.782.5,5.567a4.087,4.087,0,0,0-2.681.274c-9.3,3.388-18.66,6.626-27.974,9.986a2.848,2.848,0,0,1-1.942.365C227.753,391.97,226.71,390.119,225.722,388.236ZM300.5,273.524c-0.445-.771-1.2-0.489-1.83-0.489q-40.5-.02-80.99-0.011c-1.518,0-3.037,0-4.555,0a2.776,2.776,0,0,0-1.475.26c-1.6-1.478-3.216-2.934-4.789-4.439a142.668,142.668,0,0,0-14.266-12.07,3.434,3.434,0,0,1-.424-0.451,1.685,1.685,0,0,1,1.881-.009c2.819,1.564,5.812,2.753,8.753,4.056a145.452,145.452,0,0,0,26.763,8.006,119.231,119.231,0,0,0,13.813,1.9c3.1,0.242,6.218.24,9.294,0.547,3.679,0.368,7.311-.044,10.947-0.157a115.8,115.8,0,0,0,13.113-1.35,146.727,146.727,0,0,0,19.762-4.42,108.164,108.164,0,0,0,11.855-4.274,18.3,18.3,0,0,0,4.429-1.73c2.859-1.319,5.67-2.739,8.514-4.09,0.278-.132.651-0.7,0.974-0.009a24.676,24.676,0,0,0-4.4,3.284A161.051,161.051,0,0,0,300.9,273.237,2.566,2.566,0,0,1,300.5,273.524Z"/>
  <path id="VEIL_W5_2" data-name="VEIL W5 2" class="cls-7" d="M308.347,260.621a1.621,1.621,0,0,0-1.315-.247c-2.519-.012-5.037-0.017-7.555,0a12.5,12.5,0,0,1-3.368-.291,93.526,93.526,0,0,0,13.437-9.864l17.322,0.026a3.192,3.192,0,0,1,1.727.252l-6.331,4.3c-0.31-.258-0.537-0.02-0.78.131a82.418,82.418,0,0,1-11.268,5.512C309.642,260.683,309.027,261.17,308.347,260.621Zm-93.088-1.038a2.978,2.978,0,0,1-1.586.282q-4.718-.007-9.435,0a1.294,1.294,0,0,0-1.438.5,1.613,1.613,0,0,1-1.543-.211c-2.315-1.067-4.682-2.022-6.934-3.219a7.392,7.392,0,0,0-2.157-.617l-8.352-5.819a1.787,1.787,0,0,1,1.442-.251q7.7-.018,15.4,0a3.191,3.191,0,0,0,1.716-.294A96.657,96.657,0,0,0,215.259,259.583Z"/>
  <path id="VEIL_W4" data-name="VEIL W4" class="cls-8" d="M362.765,221.385a1.8,1.8,0,0,0,1.446.25q8.349,0.017,16.7.007a2.949,2.949,0,0,1,1.6.254c-0.913,1.953-2.135,3.727-3.205,5.589a173.454,173.454,0,0,0-23.536,8.2,146.981,146.981,0,0,0-15.919,7.9,11.863,11.863,0,0,1-1.382.591c-0.15-.7.463-0.91,0.835-1.242,1.11-.99,2.476-1.659,3.5-2.764a87.936,87.936,0,0,0,7.6-6.584,93.685,93.685,0,0,0,8.606-8.616c0.823-.994,1.712-1.929,2.55-2.909A1.124,1.124,0,0,1,362.765,221.385ZM222.341,382.361q8.074-2.89,16.149-5.778c6.692-2.39,13.389-4.764,20.072-7.179a1.11,1.11,0,0,1,1.438.309c-0.062,2.065.844,4.008,0.759,6.076a2.514,2.514,0,0,1-1.24.819c-8.711,3.123-17.443,6.181-26.154,9.3-2.019.724-4.045,1.429-6.068,2.142a1.927,1.927,0,0,1-1.575.182Zm-7.082-122.778a90.49,90.49,0,0,0,15.62,6.984,81.421,81.421,0,0,0,33.154,3.6,78.4,78.4,0,0,0,29.534-8.775,11.239,11.239,0,0,1,2.542-1.307,3.364,3.364,0,0,1,1.488-.224c2.953,0.016,5.906,0,8.858.014a2.338,2.338,0,0,1,1.9.49c0.061,0.921-.711,1.044-1.3,1.279a127.145,127.145,0,0,1-15.982,5.231,142.493,142.493,0,0,1-25.688,4.151c-2.9.2-5.818,0.333-8.708,0.359a135.878,135.878,0,0,1-15.014-.772,138.735,138.735,0,0,1-24.672-4.837,136.118,136.118,0,0,1-12.924-4.425,1.549,1.549,0,0,1-1.336-1.171,1.451,1.451,0,0,1,1.58-.791C207.961,259.44,211.617,259.129,215.259,259.583Zm-61.813-33.64q2.6,2.541,5.2,5.08c0.358,0.348.745,0.666,1.118,1a59.907,59.907,0,0,0,7.713,7.006q0.827,0.674,1.655,1.345,2.529,2.028,5.06,4.054a35.38,35.38,0,0,1-4.668-2.467,181.6,181.6,0,0,0-24.716-10.8c-3.493-1.21-7.056-2.216-10.593-3.293a6.7,6.7,0,0,0-1.243-.143q-0.317-.615-0.632-1.23a3.449,3.449,0,0,1,1.844-.292q8.907,0,17.813-.006A1.814,1.814,0,0,0,153.446,225.943Z"/>
  <path id="VEIL_W3" data-name="VEIL W3" class="cls-9" d="M121.063,206.961a6.458,6.458,0,0,1,1.987-.26q7.005,0.021,14.011,0a1.827,1.827,0,0,0,1.446-.244c2.247,3.069,4.175,6.363,6.574,9.322a20.405,20.405,0,0,0,2.534,3.082,3.376,3.376,0,0,1,.712.5c1.683,2.077,3.577,3.975,5.177,6.125a0.712,0.712,0,0,1-.12.819,2.755,2.755,0,0,1-1.809.39c-5.959.012-11.919,0-17.878,0.011a3.08,3.08,0,0,1-1.353-.221Zm255.613-5.324a1.78,1.78,0,0,0,1.435.256q7.985,0.013,15.969,0c-3.783,6.709-7.6,13.4-11.569,20a5.015,5.015,0,0,1-1.734.256c-5.3-.012-10.6,0-15.9-0.009a3.67,3.67,0,0,1-1.965-.31,0.894,0.894,0,0,1,0-1.319,5.308,5.308,0,0,1,1.886-1.906,71.575,71.575,0,0,0,5.4-7.095c2.15-3.008,4.127-6.128,5.981-9.327A3.475,3.475,0,0,1,376.676,201.637ZM218.822,376.291c3.064-1.043,6.138-2.059,9.19-3.135,4.366-1.541,8.712-3.135,13.073-4.689q8.09-2.881,16.189-5.73c0.472-.165.974-0.244,1.462-0.363,0.2,2.484.975,4.87,1.264,7.339-2.834.324-5.378,1.6-8.02,2.519-8.774,3.062-17.5,6.261-26.284,9.295-1.082.374-2.087,1.17-3.355,0.834Z"/>
  <path id="VEIL_W2" data-name="VEIL W2" class="cls-10" d="M387.569,178.107q7.336,0,14.672,0a25.57,25.57,0,0,1,5.409.283q-6.784,11.753-13.57,23.5a2.9,2.9,0,0,1-1.78.511c-4.659,0-9.318.014-13.976-.018-0.626,0-1.387.124-1.648-.752a48.683,48.683,0,0,1,2.3-4.327,144.831,144.831,0,0,0,8.334-18.78A2.366,2.366,0,0,1,387.569,178.107ZM214.005,367.939a21.564,21.564,0,0,0,5.026-1.593c6.241-2.146,12.445-4.4,18.66-6.618,5.7-2.037,11.393-4.091,17.1-6.12,1.728-.614,1.761-0.581,2.177,1.175,0.6,2.529,1.182,5.06,1.772,7.591a2.776,2.776,0,0,1-1.176.709c-12.406,4.373-24.786,8.817-37.185,13.21a1.44,1.44,0,0,1-1.553,0Q216.413,372.115,214.005,367.939ZM108.811,185.732c5.73-.011,11.46-0.015,17.19-0.044,0.487,0,1.149.292,1.375-.5a25.524,25.524,0,0,1,1.837,3.981,161.49,161.49,0,0,0,9.294,17.289c-0.333,1.008-1.214.733-1.9,0.738-4.7.039-9.391,0.011-14.086,0.024a2.376,2.376,0,0,1-1.459-.258Z"/>
  <path id="VEIL_W" data-name="VEIL W" class="cls-11" d="M379.306,227.485q-5.175,9.021-10.353,18.042-13.7,23.76-27.417,47.509-17.151,29.7-34.312,59.4-14.472,25.06-28.937,50.126-10.779,18.67-21.558,37.341a2.088,2.088,0,0,1-.238.28c-0.611-.647-0.25-1.36-0.093-2.027,1.421-6.028,2.661-12.09,3.484-18.229a149.143,149.143,0,0,0,1.427-16.085,7.787,7.787,0,0,1,.107-1.258c0.208-2.465.166-3.922,0.209-5.883-0.053-.3.041-0.6,0.011-0.9a3.461,3.461,0,0,1-.033-1.117,16.974,16.974,0,0,0-.175-4.661,9.4,9.4,0,0,1-.058-1.138c-0.036-1.9-.258-3.788-0.313-5.686,0.129-1.343-.352-2.629-0.377-3.96-0.009-.5-0.135-0.991-0.113-1.494a2.708,2.708,0,0,0-.126-1.44c-0.043-.208-0.043-0.421-0.068-0.631-0.152-1.983-.8-3.9-0.836-5.895-0.221-1.878-.66-3.716-1.016-5.569a7.316,7.316,0,0,1-.222-1.619c-0.545-2.512-1.017-5.04-1.7-7.52-0.372-1.345-.537-1.465-1.853-0.99-9.039,3.264-18.113,6.424-27.157,9.671-3.967,1.424-7.953,2.794-11.91,4.244a1.524,1.524,0,0,1-1.671-.056q-4.026-6.914-8.049-13.826-13.569-23.463-27.122-46.934Q164.94,283.1,151.066,259.018q-8.691-15.067-17.394-30.127c-0.228-.394-0.464-0.781-0.7-1.172a1.584,1.584,0,0,1,1.778-.126,178.466,178.466,0,0,1,24.356,8.826c5.152,2.326,10.153,4.943,15.093,7.682,3.3,1.96,6.439,4.163,9.721,6.147q4.335,2.726,8.41,5.829a186.483,186.483,0,0,1,19.538,16.983,204.575,204.575,0,0,1,13.706,15.755,177.555,177.555,0,0,1,10.441,15.059,171.462,171.462,0,0,1,15.621,31.972c1.573,4.274,3,8.6,4.2,12.99a2.708,2.708,0,0,1,.1,1.989,170.925,170.925,0,0,1,20.222-46.951c2.543-4.026,5.264-7.935,7.94-11.874a36.175,36.175,0,0,1,2.737-3.474c2.078-2.484,4.08-5.032,6.2-7.479,2.321-2.671,4.727-5.255,7.245-7.738a183.522,183.522,0,0,1,19.014-16.919,17.945,17.945,0,0,1,2.77-1.963c2.094-1.456,4.188-2.914,6.38-4.225,3.378-2.049,6.564-4.4,10.007-6.355,2.958-1.51,5.815-3.206,8.8-4.675a177.078,177.078,0,0,1,30.36-11.642A1.79,1.79,0,0,1,379.306,227.485Zm-262.06-84.3a141.784,141.784,0,0,0,9.706,40.687c0.173,0.425.284,0.875,0.424,1.313,0.258,0.59-.187.739-0.582,0.883a3.967,3.967,0,0,1-1.378.137q-7.34,0-14.679,0a3.086,3.086,0,0,1-1.926-.479c-2.851-4.894-5.717-9.78-8.55-14.685Q89,151.563,77.769,132.066c-0.165-.286-0.326-0.574-0.626-1.1,2,0.3,3.8.54,5.589,0.853a127.905,127.905,0,0,1,34.215,11.14A1.841,1.841,0,0,1,117.246,143.187Zm270.323,34.92c1.615-5.044,3.207-10.1,4.368-15.269a135.565,135.565,0,0,0,2.755-16.489,27.9,27.9,0,0,0,.227-3.136,117.275,117.275,0,0,1,20.376-8.067,128.213,128.213,0,0,1,19.113-4.1,3.6,3.6,0,0,1,.449,0,2.558,2.558,0,0,1-.586,1.335q-13.217,22.923-26.455,45.832a1.069,1.069,0,0,1-.166.178,1.831,1.831,0,0,1-1.067.32c-5.753-.219-11.507-0.033-17.261-0.1A2.094,2.094,0,0,1,387.569,178.107Z"/>
</svg>
