<?xml version="1.0" encoding="utf-8"?>
<!-- Generator: Adobe Illustrator 22.0.0, SVG Export Plug-In . SVG Version: 6.00 Build 0)  -->
<svg version="1.1" id="VEIL" xmlns="http://www.w3.org/2000/svg" xmlns:xlink="http://www.w3.org/1999/xlink" x="0px" y="0px"
	 viewBox="0 0 490 490" style="enable-background:new 0 0 490 490;" xml:space="preserve">
<style type="text/css">
	.st0{fill:#0D124D;}
	.st1{fill:#D1D1D1;}
	.st2{fill:#D6D6D6;}
	.st3{fill:#DBDBDB;}
	.st4{fill:#E0E0E0;}
	.st5{fill:#E6E6E6;}
	.st6{fill:#EBEBEB;}
	.st7{fill:#F0F0F0;}
	.st8{fill:#F5F5F5;}
	.st9{fill:#FAFAFA;}
	.st10{fill:#FFFFFF;}
</style>
<path id="Full" class="st0" d="M0,245c0,135.1,109.9,245,245,245s245-109.9,245-245S380.1,0,245,0S0,109.9,0,245z"/>
<path id="VEIL_W10" class="st1" d="M319.2,207.6c7.1-22.4,20.2-42.3,37.9-57.6c7.9-6.9,16.6-12.7,26-17.4c0.3-0.1,0.5-0.2,0.8-0.3
	c0.4,0.5,0.6,1.2,0.4,1.9c-1.1,10.9-3.4,21.6-7,32c-0.1,0.3-0.2,0.6-0.4,0.9c-2.9,8.2-6.6,16.1-11,23.7c-3.1,5.3-6.6,10.5-10.4,15.4
	c-0.6,0.8-1.1,1.8-2.3,1.9c-0.5,0.1-1.1,0.2-1.6,0.1c-10.1,0-20.1,0-30.2,0C320.7,208.1,319.8,208.3,319.2,207.6z M106.2,132.2
	c6.8,3.3,13.3,7.2,19.3,11.7c21.5,15.9,37.4,38.1,45.5,63.6c0,0,0,0.1,0,0.1c-0.6,0.5-1.5,0.7-2.3,0.5c-9.6,0-19.3,0-28.9,0
	c-0.9,0-1.8,0-2.6,0.1c-0.8-0.1-1.5-0.5-1.9-1.2c-2.9-3.6-5.5-7.5-8-11.3c-3.2-5-6.1-10.2-8.6-15.6c-0.9-1.9-1.7-3.9-2.7-5.8
	c-5.3-13-8.7-26.6-10.1-40.6C105.8,133.1,105.9,132.6,106.2,132.2z"/>
<path id="VEIL_W9" class="st2" d="M142.2,214.4c-2-2-3.9-4.2-5.6-6.6c0.7-0.2,1.4-0.3,2.1-0.3c10.8,0,21.5,0,32.3,0
	c0.5,1.8,1.5,3.5,2.1,5.3c0.2,0.4,0.3,0.9,0.5,1.3c-0.7,0.9-1.6,0.8-2.5,0.8c-5.9,0-11.8,0-17.7,0c-3.1,0-6.1,0-9.2,0
	C143.5,215,142.8,214.8,142.2,214.4z M348.2,214.2c-9.9,0-19.8,0-29.7,0c-0.6,0-1.3-0.1-1.9-0.3c0.8-2.1,1.7-4.2,2.5-6.3h34.6
	c-0.5,1.1-1.5,1.7-2,2.8c-1,0.9-1.9,2-2.8,3C348.8,213.7,348.5,214,348.2,214.2z"/>
<path id="VEIL_W8" class="st3" d="M251,384.8c0,0.3,0,0.5,0,0.8c-0.1,1.5-0.2,3.1-0.1,4.6c0.1,0.5,0,1-0.1,1.5
	c-0.1,5.2-0.5,10.3-1.2,15.4c-0.9,7.3-2.3,14.5-4.1,21.6c0,0.2,0,0.3,0,0.5c-0.2,0.9-0.5,0.6-0.8,0c-1.7-2.9-3.4-5.8-5-8.7
	c-5.1-8.8-10.1-17.5-15.2-26.3c0.5-0.6,1.2-1,1.9-1.1c6.9-2.4,13.7-4.9,20.6-7.3c0.9-0.3,1.7-0.7,2.6-0.9
	C250,384.5,250.6,384.5,251,384.8z M348.2,214.2c-2.6,3.1-5.5,6-8.6,8.6c-0.6,0.2-1.2,0.3-1.9,0.3c-7.7,0-15.5,0-23.2,0
	c-0.8,0-1.7,0.2-2.2-0.7c1.5-2.7,3-5.5,4.3-8.4c0.4-0.2,1-0.3,1.5-0.3c9.3,0,18.6,0,28,0C346.8,213.5,347.6,213.7,348.2,214.2
	L348.2,214.2z M177,220.8c-1,0.2-2,0.3-3,0.3c-8.4,0-16.8,0-25.3,0c-0.4,0.1-0.8,0-1-0.4c-1.6-1.6-3.3-3.2-4.9-4.9
	c-0.2-0.2-0.4-0.5-0.5-0.9l-0.3-0.5c9.3,0,18.5,0,27.8,0c1.2,0.1,2.4,0,3.6-0.3L177,220.8z M265.5,292.9c-1.2,2.1-2.4,4.2-3.6,6.4
	c-4.2,7.3-7.8,15-10.8,22.8c-2.2,5.7-4.1,11.4-5.7,17.3c-0.1,0.2-0.1,0.4-0.3,0.8c-1.2-4.4-2.5-8.5-3.9-12.6
	c-2-5.6-4.3-11.2-6.8-16.6c-2.8-6.1-6-12-9.6-17.6c0-0.1-0.1-0.2-0.1-0.4c0.4-0.4,1-0.6,1.6-0.5c12.5,0,25,0,37.5,0
	C264.4,292.3,265,292.5,265.5,292.9z"/>
<path id="VEIL_W7" class="st4" d="M177,220.8c1.6,2.6,3.2,5.2,5.1,7.7c0.2,0.3,0.4,0.6,0.6,0.9c-0.4,0.4-1,0.6-1.6,0.5
	c-7,0-14,0-21.1,0c-0.5,0-0.9-0.1-1.4-0.1c-0.4,0-0.8-0.1-1.2-0.4c-2.9-2.2-5.6-4.5-8.1-7.1c-0.4-0.4-1.2-0.9-0.2-1.6
	c0.7-0.2,1.3-0.2,2-0.2c8.2,0,16.4,0,24.6,0C176.2,220.4,176.7,220.5,177,220.8z M221.2,388.6c2.1-1,4.2-1.8,6.5-2.5
	c7.7-2.7,15.4-5.4,23.1-8.1c0,0.3,0,0.7,0,1c0.1,1.1,0.2,2.3,0.1,3.5c-0.1,0.5,0,0.9,0.1,1.3l0,1c-6,2.1-12,4.2-18,6.3
	c-2.9,1-5.7,2-8.6,3L221.2,388.6z M332,229.4h-22.6c-0.6,0.1-1.2,0-1.7-0.3c1.5-2.3,3.1-4.6,4.6-6.8c0.5,0.2,1.1,0.3,1.6,0.2
	c8.1,0,16.2,0,24.2,0c0.5-0.1,1,0,1.4,0.2c-1.6,2-3.7,3.4-5.6,5.1C333.4,228.4,332.7,228.9,332,229.4z M265.5,292.9h-40.8
	c-1.9-2.9-3.9-5.8-5.8-8.6c-1.5-2.1-3-4.2-4.5-6.3c0.4-0.3,0.9-0.4,1.4-0.3c20.1,0,40.2,0,60.3,0c-3.5,4.5-6.6,9.2-9.7,14
	C266.2,292.2,265.9,292.6,265.5,292.9z"/>
<path id="VEIL_W6" class="st5" d="M332,229.4c-1.1,1.4-2.8,2.1-4,3.3c-0.2,0.2-0.3,0.3-0.5,0.5l-9.9,6.3c-2.1,0.3-4.2,0.4-6.3,0.2
	c-3.6,0-7.2,0-10.9,0c-0.7,0.1-1.4-0.1-1.9-0.5c3.3-3.2,6.3-6.5,9.2-10.1c0.6-0.2,1.1-0.3,1.7-0.3c6.9,0,13.7,0,20.6,0
	C330.7,228.7,331.5,228.9,332,229.4z M158.1,229.4h24.6c2.7,3.4,5.6,6.6,8.7,9.6c-0.3,0.6-0.9,0.9-1.5,0.8c-5.3,0.1-10.6,0-15.9,0
	c-0.4,0-0.8-0.1-1.2-0.2c-2-0.8-3.6-2.2-5.4-3.3c-1.4-0.8-2.8-1.8-4.2-2.8c-1.4-0.8-2.8-1.8-4.2-2.8
	C158.5,230.4,158.2,229.9,158.1,229.4L158.1,229.4z M217.9,382.8c2.1-0.9,4.3-1.8,6.5-2.5c8.1-2.9,16.2-5.8,24.4-8.7
	c0.7-0.3,1.4-0.5,1.7,0.5c0,1.9,0.4,3.9,0.3,5.8c-0.4,0.4-0.9,0.8-1.5,0.9c-8.9,3.2-17.8,6.3-26.7,9.5c-0.4,0.2-0.9,0.3-1.3,0.2
	C220.1,386.6,219,384.7,217.9,382.8L217.9,382.8z M214.3,278c-2.2-2.6-4.4-5.2-6.5-7.8c-0.9-1.1-1.9-2.2-2.8-3.2
	c-1.4-1.6-2.9-3.1-4.3-4.7c0.2-0.5,0.7-0.8,1.2-0.7c0.5,0,0.9-0.1,1.4,0c27.9,0,55.7,0,83.6,0c0.5,0,1.1,0,1.6,0.1
	c0.5,0,1,0.4,1,0.9c0,0,0,0,0,0c-1.4,1.8-3.2,3.3-4.7,5.1c-2.8,3.1-5.5,6.3-8.1,9.6c-0.2,0.2-0.4,0.3-0.6,0.5
	c-0.7,0.4-1.4,0.6-2.2,0.5c-19.3,0-38.6,0-57.9,0C215.5,278.2,214.9,278.1,214.3,278L214.3,278z"/>
<path id="VEIL_W5" class="st6" d="M214.7,377.2c5.1-1.8,10.1-3.6,15.2-5.4c6.4-2.3,12.8-4.6,19.2-6.8c0.2-0.1,0.4-0.1,0.6-0.2
	c0,0.2,0,0.3,0,0.5c0.3,0.4-0.1,0.9,0.2,1.3c0.2,1.9,0.3,3.7,0.5,5.6c-0.9-0.2-1.8-0.1-2.7,0.3c-9.3,3.4-18.7,6.6-28,10
	c-0.6,0.3-1.3,0.5-1.9,0.4C216.8,381,215.7,379.1,214.7,377.2z M289.5,262.5c-0.4-0.8-1.2-0.5-1.8-0.5c-27,0-54,0-81,0
	c-1.5,0-3,0-4.6,0c-0.5-0.1-1,0-1.5,0.3c-1.6-1.5-3.2-2.9-4.8-4.4c-4.5-4.3-9.3-8.4-14.3-12.1c-0.2-0.1-0.3-0.3-0.4-0.5
	c0.6-0.4,1.3-0.4,1.9,0c2.8,1.6,5.8,2.8,8.8,4.1c8.6,3.5,17.6,6.2,26.8,8c4.6,0.9,9.2,1.5,13.8,1.9c3.1,0.2,6.2,0.2,9.3,0.5
	c3.7,0.4,7.3,0,10.9-0.2c4.4-0.2,8.8-0.7,13.1-1.4c6.7-1,13.3-2.5,19.8-4.4c4-1.2,8-2.6,11.9-4.3c1.5-0.4,3-1,4.4-1.7
	c2.9-1.3,5.7-2.7,8.5-4.1c0.3-0.1,0.7-0.7,1,0c-1.6,0.9-3.1,2-4.4,3.3c-6,4.6-11.7,9.7-17,15.2C289.8,262.3,289.6,262.4,289.5,262.5
	z"/>
<path id="VEIL_W5_2" class="st6" d="M297.3,249.6c-0.4-0.3-0.9-0.4-1.3-0.2c-2.5,0-5,0-7.6,0c-1.1,0.1-2.3,0-3.4-0.3
	c4.8-2.9,9.3-6.2,13.4-9.9l17.3,0c0.6-0.1,1.2,0,1.7,0.3l-6.3,4.3c-0.3-0.3-0.5,0-0.8,0.1c-3.6,2.1-7.4,4-11.3,5.5
	C298.6,249.7,298,250.2,297.3,249.6z M204.3,248.6c-0.5,0.2-1,0.3-1.6,0.3c-3.1,0-6.3,0-9.4,0c-0.5-0.2-1.1,0-1.4,0.5
	c-0.5,0.2-1.1,0.1-1.5-0.2c-2.3-1.1-4.7-2-6.9-3.2c-0.7-0.3-1.4-0.5-2.2-0.6l-8.4-5.8c0.4-0.3,0.9-0.4,1.4-0.3c5.1,0,10.3,0,15.4,0
	c0.6,0.1,1.2,0,1.7-0.3C195.4,242.5,199.7,245.7,204.3,248.6L204.3,248.6z"/>
<path id="VEIL_W4" class="st7" d="M351.8,210.4c0.4,0.3,1,0.4,1.4,0.2c5.6,0,11.1,0,16.7,0c0.5-0.1,1.1,0,1.6,0.3
	c-0.9,2-2.1,3.7-3.2,5.6c-8,2.2-15.9,4.9-23.5,8.2c-5.5,2.3-10.8,4.9-15.9,7.9c-0.4,0.2-0.9,0.4-1.4,0.6c-0.1-0.7,0.5-0.9,0.8-1.2
	c1.1-1,2.5-1.7,3.5-2.8c2.7-2,5.2-4.2,7.6-6.6c3.1-2.7,5.9-5.6,8.6-8.6c0.8-1,1.7-1.9,2.5-2.9C350.8,210.6,351.3,210.3,351.8,210.4z
	 M211.3,371.4c5.4-1.9,10.8-3.9,16.1-5.8c6.7-2.4,13.4-4.8,20.1-7.2c0.5-0.3,1.1-0.1,1.4,0.3c-0.1,2.1,0.8,4,0.8,6.1
	c-0.3,0.4-0.8,0.7-1.2,0.8c-8.7,3.1-17.4,6.2-26.2,9.3c-2,0.7-4,1.4-6.1,2.1c-0.5,0.3-1,0.4-1.6,0.2L211.3,371.4z M204.3,248.6
	c5,2.8,10.2,5.2,15.6,7c10.7,3.5,22,4.7,33.2,3.6c10.3-0.9,20.4-3.9,29.5-8.8c0.8-0.5,1.6-1,2.5-1.3c0.5-0.2,1-0.3,1.5-0.2
	c3,0,5.9,0,8.9,0c0.7-0.1,1.4,0.1,1.9,0.5c0.1,0.9-0.7,1-1.3,1.3c-5.2,2.1-10.5,3.8-16,5.2c-8.4,2.2-17,3.6-25.7,4.2
	c-2.9,0.2-5.8,0.3-8.7,0.4c-5,0-10-0.2-15-0.8c-8.4-0.9-16.6-2.5-24.7-4.8c-4.4-1.3-8.7-2.7-12.9-4.4c-0.6-0.1-1.2-0.5-1.3-1.2
	c0.3-0.6,0.9-0.9,1.6-0.8C197,248.4,200.6,248.1,204.3,248.6z M142.4,214.9c1.7,1.7,3.5,3.4,5.2,5.1c0.4,0.3,0.7,0.7,1.1,1
	c2.4,2.6,4.9,4.9,7.7,7c0.6,0.4,1.1,0.9,1.7,1.3c1.7,1.4,3.4,2.7,5.1,4.1c-1.6-0.7-3.2-1.5-4.7-2.5c-8-4.2-16.2-7.8-24.7-10.8
	c-3.5-1.2-7.1-2.2-10.6-3.3c-0.4-0.1-0.8-0.1-1.2-0.1c-0.2-0.4-0.4-0.8-0.6-1.2c0.6-0.3,1.2-0.4,1.8-0.3c5.9,0,11.9,0,17.8,0
	C141.5,215.3,142,215.2,142.4,214.9L142.4,214.9z"/>
<path id="VEIL_W3" class="st8" d="M110.1,196c0.6-0.2,1.3-0.3,2-0.3c4.7,0,9.3,0,14,0c0.5,0.1,1,0,1.4-0.2c2.2,3.1,4.2,6.4,6.6,9.3
	c0.7,1.1,1.6,2.1,2.5,3.1c0.3,0.1,0.5,0.3,0.7,0.5c1.7,2.1,3.6,4,5.2,6.1c0.1,0.3,0.1,0.6-0.1,0.8c-0.5,0.3-1.2,0.5-1.8,0.4
	c-6,0-11.9,0-17.9,0c-0.5,0-0.9,0-1.4-0.2L110.1,196z M365.7,190.6c0.4,0.3,0.9,0.4,1.4,0.3c5.3,0,10.6,0,16,0
	c-3.8,6.7-7.6,13.4-11.6,20c-0.6,0.2-1.1,0.3-1.7,0.3c-5.3,0-10.6,0-15.9,0c-0.7,0.1-1.4,0-2-0.3c-0.4-0.3-0.4-0.9-0.1-1.3
	c0,0,0,0,0.1-0.1c0.5-0.8,1.1-1.4,1.9-1.9c1.9-2.3,3.7-4.6,5.4-7.1c2.1-3,4.1-6.1,6-9.3C365.3,191,365.5,190.8,365.7,190.6
	L365.7,190.6z M207.8,365.3c3.1-1,6.1-2.1,9.2-3.1c4.4-1.5,8.7-3.1,13.1-4.7c5.4-1.9,10.8-3.8,16.2-5.7c0.5-0.2,1-0.2,1.5-0.4
	c0.2,2.5,1,4.9,1.3,7.3c-2.8,0.3-5.4,1.6-8,2.5c-8.8,3.1-17.5,6.3-26.3,9.3c-1.1,0.4-2.1,1.2-3.4,0.8L207.8,365.3z"/>
<path id="VEIL_W2" class="st9" d="M376.6,167.1c4.9,0,9.8,0,14.7,0c1.8-0.1,3.6,0,5.4,0.3c-4.5,7.8-9,15.7-13.6,23.5
	c-0.5,0.4-1.1,0.5-1.8,0.5c-4.7,0-9.3,0-14,0c-0.6,0-1.4,0.1-1.6-0.8c0.7-1.5,1.5-2.9,2.3-4.3c3.2-6.1,6-12.3,8.3-18.8
	C376.4,167.4,376.5,167.2,376.6,167.1z M203,356.9c1.7-0.3,3.4-0.9,5-1.6c6.2-2.1,12.4-4.4,18.7-6.6c5.7-2,11.4-4.1,17.1-6.1
	c1.7-0.6,1.8-0.6,2.2,1.2c0.6,2.5,1.2,5.1,1.8,7.6c-0.3,0.3-0.7,0.6-1.2,0.7c-12.4,4.4-24.8,8.8-37.2,13.2c-0.5,0.3-1.1,0.3-1.6,0
	C206.2,362.5,204.6,359.7,203,356.9z M97.8,174.7c5.7,0,11.5,0,17.2,0c0.5,0,1.1,0.3,1.4-0.5c0.7,1.3,1.3,2.6,1.8,4
	c2.7,5.9,5.8,11.7,9.3,17.3c-0.3,1-1.2,0.7-1.9,0.7c-4.7,0-9.4,0-14.1,0c-0.5,0.1-1,0-1.5-0.3L97.8,174.7z"/>
<path id="VEIL_W" class="st10" d="M368.3,216.5c-3.5,6-6.9,12-10.4,18c-9.1,15.8-18.3,31.7-27.4,47.5
	c-11.4,19.8-22.9,39.6-34.3,59.4c-9.6,16.7-19.3,33.4-28.9,50.1c-7.2,12.4-14.4,24.9-21.6,37.3c-0.1,0.1-0.2,0.2-0.2,0.3
	c-0.6-0.6-0.2-1.4-0.1-2c1.4-6,2.7-12.1,3.5-18.2c0.8-5.3,1.2-10.7,1.4-16.1c0-0.4,0-0.8,0.1-1.3c0.2-2.5,0.2-3.9,0.2-5.9
	c-0.1-0.3,0-0.6,0-0.9c-0.1-0.4-0.1-0.7,0-1.1c0.2-1.6,0.1-3.1-0.2-4.7c0-0.4-0.1-0.8-0.1-1.1c0-1.9-0.3-3.8-0.3-5.7
	c0.1-1.3-0.4-2.6-0.4-4c0-0.5-0.1-1-0.1-1.5c0.1-0.5,0-1-0.1-1.4c0-0.2,0-0.4-0.1-0.6c-0.2-2-0.8-3.9-0.8-5.9
	c-0.2-1.9-0.7-3.7-1-5.6c-0.1-0.5-0.2-1.1-0.2-1.6c-0.5-2.5-1-5-1.7-7.5c-0.4-1.3-0.5-1.5-1.9-1c-9,3.3-18.1,6.4-27.2,9.7
	c-4,1.4-8,2.8-11.9,4.2c-0.5,0.3-1.2,0.3-1.7-0.1c-2.7-4.6-5.4-9.2-8-13.8c-9-15.6-18.1-31.3-27.1-46.9
	c-9.3-16.1-18.5-32.1-27.8-48.2c-5.8-10-11.6-20.1-17.4-30.1c-0.2-0.4-0.5-0.8-0.7-1.2c0.5-0.4,1.2-0.5,1.8-0.1
	c8.3,2.3,16.5,5.3,24.4,8.8c5.2,2.3,10.2,4.9,15.1,7.7c3.3,2,6.4,4.2,9.7,6.1c2.9,1.8,5.7,3.8,8.4,5.8c6.9,5.2,13.4,10.9,19.5,17
	c4.8,5,9.4,10.3,13.7,15.8c3.7,4.8,7.2,9.9,10.4,15.1c6.3,10.1,11.5,20.8,15.6,32c1.6,4.3,3,8.6,4.2,13c0.3,0.6,0.3,1.3,0.1,2
	c4.3-16.6,11.2-32.4,20.2-47c2.5-4,5.3-7.9,7.9-11.9c0.8-1.2,1.8-2.4,2.7-3.5c2.1-2.5,4.1-5,6.2-7.5c2.3-2.7,4.7-5.3,7.2-7.7
	c5.9-6.1,12.3-11.7,19-16.9c0.9-0.7,1.8-1.4,2.8-2c2.1-1.5,4.2-2.9,6.4-4.2c3.4-2,6.6-4.4,10-6.4c3-1.5,5.8-3.2,8.8-4.7
	c9.7-4.8,19.9-8.7,30.4-11.6C367.1,216.2,367.8,216.2,368.3,216.5z M106.2,132.2c1.2,14,4.5,27.7,9.7,40.7c0.2,0.4,0.3,0.9,0.4,1.3
	c0.3,0.6-0.2,0.7-0.6,0.9c-0.4,0.1-0.9,0.2-1.4,0.1c-4.9,0-9.8,0-14.7,0c-0.7,0.1-1.4-0.1-1.9-0.5c-2.9-4.9-5.7-9.8-8.6-14.7
	c-7.5-13-15-26-22.5-39c-0.2-0.3-0.3-0.6-0.6-1.1c2,0.3,3.8,0.5,5.6,0.9c11.9,2.1,23.4,5.8,34.2,11.1
	C106.1,132,106.2,132.1,106.2,132.2L106.2,132.2z M376.6,167.1c1.6-5,3.2-10.1,4.4-15.3c1.3-5.4,2.2-10.9,2.8-16.5
	c0.1-1,0.2-2.1,0.2-3.1c6.5-3.3,13.3-6,20.4-8.1c6.3-1.9,12.6-3.2,19.1-4.1c0.1,0,0.3,0,0.4,0c-0.1,0.5-0.3,1-0.6,1.3
	c-8.8,15.3-17.6,30.6-26.5,45.8c0,0.1-0.1,0.1-0.2,0.2c-0.3,0.2-0.7,0.3-1.1,0.3c-5.8-0.2-11.5,0-17.3-0.1
	C377.7,167.7,377,167.5,376.6,167.1L376.6,167.1z"/>
</svg>
