<?xml version="1.0" encoding="UTF-8" standalone="no"?>
<svg
   xmlns:dc="http://purl.org/dc/elements/1.1/"
   xmlns:cc="http://creativecommons.org/ns#"
   xmlns:rdf="http://www.w3.org/1999/02/22-rdf-syntax-ns#"
   xmlns:svg="http://www.w3.org/2000/svg"
   xmlns="http://www.w3.org/2000/svg"
   xmlns:sodipodi="http://sodipodi.sourceforge.net/DTD/sodipodi-0.dtd"
   xmlns:inkscape="http://www.inkscape.org/namespaces/inkscape"
   height="236"
   width="236"
   version="1.1"
   id="svg15"
   sodipodi:docname="VGX_ERC20.svg"
   inkscape:version="1.0.2-2 (e86c870879, 2021-01-15)">
  <metadata
     id="metadata19">
    <rdf:RDF>
      <cc:Work
         rdf:about="">
        <dc:format>image/svg+xml</dc:format>
        <dc:type
           rdf:resource="http://purl.org/dc/dcmitype/StillImage" />
      </cc:Work>
    </rdf:RDF>
  </metadata>
  <sodipodi:namedview
     pagecolor="#ffffff"
     bordercolor="#666666"
     borderopacity="1"
     objecttolerance="10"
     gridtolerance="10"
     guidetolerance="10"
     inkscape:pageopacity="0"
     inkscape:pageshadow="2"
     inkscape:window-width="1920"
     inkscape:window-height="1017"
     id="namedview17"
     showgrid="false"
     inkscape:zoom="3.3203125"
     inkscape:cx="118"
     inkscape:cy="118"
     inkscape:window-x="-8"
     inkscape:window-y="-8"
     inkscape:window-maximized="1"
     inkscape:current-layer="g13" />
  <defs
     id="defs7">
    <linearGradient
       id="A"
       x1="183.327"
       y1="85.439003"
       x2="-26.087"
       y2="-10.019"
       gradientUnits="userSpaceOnUse">
      <stop
         offset="0"
         stop-color="#171176"
         id="stop2" />
      <stop
         offset="1"
         stop-color="#493ed1"
         id="stop4" />
    </linearGradient>
  </defs>
  <g
     fill-rule="evenodd"
     id="g13"
     transform="translate(-10,-10)">
    <path
       d="m 77.201,-75.304 c 65.17,0 118,52.831 118,118 0,65.169 -52.83,118 -118,118 -65.17,0 -118,-52.831 -118,-118 0,-65.169 52.83,-118 118,-118 z m -39.687,64.9 H 7.455 l -0.181,0.011 a 2.12,2.12 0 0 0 -0.591,0.164 C 5.555,-9.886 5.252,-9.09 5.233,-8.336 L 5.22,-8.109 c -0.002,0.293 0.047,0.612 0.164,0.957 l 0.018,0.071 0.022,0.047 a 4.7,4.7 0 0 0 0.417,0.832 l 0.073,0.122 65.956,129.037 0.111,0.256 c 0.997,2.176 2.887,3.264 5.673,3.264 l 0.412,-0.005 c 2.717,-0.084 4.538,-1.255 5.466,-3.515 L 150,-7.08 l 0.096,-0.206 c 0.383,-0.882 0.351,-1.595 -0.096,-2.14 -0.481,-0.587 -1.445,-0.978 -2.651,-0.978 l -49.964,0.002 c -2.373,0.028 -3.219,0.481 -4.291,2.749 L 68.027,41.56 C 68.532,42.544 51.381,9.134 43.057,-7.079 l -0.075,-0.248 c -0.761,-2.345 -2.438,-3.076 -5.467,-3.076 z m 104.167,6.129 -63.607,124.441 -0.085,0.172 -0.112,0.006 -0.295,0.002 -0.166,-0.003 -0.087,-0.178 -8.87,-17.353 55,-107.089 z"
       fill="url(#A)"
       transform="translate(50.799,85.304)"
       id="path11"
       style="fill:url(#A)" />
  </g>
</svg>
