<svg xmlns="http://www.w3.org/2000/svg" height="256" width="256" xmlns:v="https://vecta.io/nano"><defs><linearGradient id="A" x1="183.327" y1="85.439" x2="-26.087" y2="-10.019" gradientUnits="userSpaceOnUse"><stop offset="0" stop-color="#171176"/><stop offset="1" stop-color="#493ed1"/></linearGradient></defs><g fill-rule="evenodd"><path d="M6.557 128.001c0 66.964 54.479 121.443 121.443 121.443s121.443-54.479 121.443-121.443S194.964 6.558 128 6.558 6.557 61.036 6.557 128.001z" fill="#fff" stroke="#b0b0b0" stroke-width="13.114" paint-order="normal"/><path d="M77.201-75.304c65.17 0 118 52.831 118 118s-52.83 118-118 118-118-52.831-118-118 52.83-118 118-118zm-39.687 64.9H7.455l-.181.011a2.12 2.12 0 0 0-.591.164c-1.128.343-1.431 1.139-1.45 1.893l-.013.227c-.002.293.047.612.164.957l.018.071.022.047a4.7 4.7 0 0 0 .417.832l.073.122L71.87 122.957l.111.256c.997 2.176 2.887 3.264 5.673 3.264l.412-.005c2.717-.084 4.538-1.255 5.466-3.515L150-7.08l.096-.206c.383-.882.351-1.595-.096-2.14-.481-.587-1.445-.978-2.651-.978l-49.964.002c-2.373.028-3.219.481-4.291 2.749L68.027 41.56c.505.984-16.646-32.426-24.97-48.639l-.075-.248c-.761-2.345-2.438-3.076-5.467-3.076zm104.167 6.129L78.074 120.166l-.085.172-.112.006-.295.002-.166-.003-.087-.178-8.87-17.353 55-107.089z" fill="url(#A)" transform="translate(50.799 85.304)"/></g></svg>