<svg id="VIBE" xmlns="http://www.w3.org/2000/svg" width="512" height="512" viewBox="0 0 512 512">
  <defs>
    <style>
      .cls-1 {
        fill: #00bfff;
      }

      .cls-1, .cls-2 {
        fill-rule: evenodd;
      }

      .cls-2 {
        fill: #fff;
      }
    </style>
  </defs>
  <path id="Full" class="cls-1" d="M11,256c0,135.094,109.906,245,245,245S501,391.094,501,256,391.094,11,256,11,11,120.906,11,256Z"/>
  <path id="VIBE-2" data-name="VIBE" class="cls-2" d="M399.132,294.4c-10.631-6.69-22.443-10.494-34.386-13.773-5.906-1.575-11.812-2.886-17.98-4.46,24.542-37.649,48.823-74.9,73.234-112.553a17.161,17.161,0,0,0-2.231-.131c-15.618,0-31.236,0-46.854-.131-2.363,0-3.15,1.181-4.2,2.755q-43.311,66.7-86.622,133.541c-7.874,12.2-15.88,24.4-24.149,37.124a16.5,16.5,0,0,1-1.837-2.624q-53.745-84.021-107.621-167.91c-1.312-2.1-2.624-3.017-5.118-3.017-14.831.131-29.661,0-44.492,0.131-0.919,0-1.969.131-3.412,0.262,24.017,37.255,47.51,73.986,71.265,111.11-0.918.262-1.443,0.262-1.968,0.393-11.025,2.886-22.049,5.378-32.943,8.789s-21.392,7.871-29.923,15.742c-10.762,9.838-10.5,20.07.656,29.646,0.394,0.394.919,0.656,1.312,1.05,7.612,6.165,16.406,10.232,25.593,13.511,29.005,10.626,59.322,14.692,90.034,16.922a5.415,5.415,0,0,1,4.593,2.755c8.925,14.036,17.85,28.073,26.905,41.978,2.232,3.41,4.463,6.821,6.825,10.494a29.881,29.881,0,0,1,2.363-3.411c10.762-16.4,21.392-32.8,32.154-49.192a5.605,5.605,0,0,1,3.544-2.492c15.356-1.968,30.842-3.28,46.067-5.641,18.768-2.886,37.142-7.74,54.466-16.266,6.825-3.28,13.256-7.215,17.981-13.381,5.381-7.083,5.775-14.167-.131-20.857A77.333,77.333,0,0,0,399.132,294.4M150.161,320.9a42.72,42.72,0,0,1-10.631-8.789,8.792,8.792,0,0,1,.132-12.2,36.323,36.323,0,0,1,10.106-8.395,147.637,147.637,0,0,1,18.242-7.478,3.746,3.746,0,0,1,3.282,1.05c10.63,16.4,21.13,32.926,31.761,49.323,0.131,0.263.131,0.656,0.394,1.574-18.768-2.886-36.88-6.165-53.286-15.085m215.11-5.641a43.6,43.6,0,0,1-19.03,11.019c-11.419,3.28-23.1,5.9-34.649,8.789-0.787.262-1.706,0-3.15,0,4.069-6.3,8.006-12.462,11.943-18.5,6.3-9.576,12.6-19.152,18.768-28.86,1.182-1.836,2.363-2.623,4.331-1.574,5.775,2.886,11.681,5.641,17.325,8.527a20.178,20.178,0,0,1,4.462,3.673c5.25,5.509,5.25,11.544,0,16.922M346.372,148c-30.055,48.8-59.848,97.335-89.9,146.265C226.021,245.335,195.834,196.8,165.386,148H346.372Z"/>
</svg>
