<?xml version="1.0" encoding="utf-8"?>
<!-- Generator: Adobe Illustrator 22.0.0, SVG Export Plug-In . SVG Version: 6.00 Build 0)  -->
<svg version="1.1" id="VIBE" xmlns="http://www.w3.org/2000/svg" xmlns:xlink="http://www.w3.org/1999/xlink" x="0px" y="0px"
	 viewBox="0 0 490 490" style="enable-background:new 0 0 490 490;" xml:space="preserve">
<style type="text/css">
	.st0{fill:#00BFFF;}
	.st1{fill:#FFFFFF;}
</style>
<path id="Full" class="st0" d="M0,245c0,135.1,109.9,245,245,245s245-109.9,245-245S380.1,0,245,0S0,109.9,0,245z"/>
<path id="VIBE-2" class="st1" d="M388.1,283.4c-10.6-6.7-22.4-10.5-34.4-13.8c-5.9-1.6-11.8-2.9-18-4.5
	c24.5-37.6,48.8-74.9,73.2-112.6c-0.7-0.1-1.5-0.1-2.2-0.1c-15.6,0-31.2,0-46.9-0.1c-2.4,0-3.1,1.2-4.2,2.8
	c-28.9,44.5-57.7,89-86.6,133.5c-7.9,12.2-15.9,24.4-24.1,37.1c-0.7-0.8-1.3-1.7-1.8-2.6c-35.8-56-71.7-112-107.6-167.9
	c-1.3-2.1-2.6-3-5.1-3c-14.8,0.1-29.7,0-44.5,0.1c-0.9,0-2,0.1-3.4,0.3c24,37.3,47.5,74,71.3,111.1c-0.9,0.3-1.4,0.3-2,0.4
	c-11,2.9-22,5.4-32.9,8.8s-21.4,7.9-29.9,15.7c-10.8,9.8-10.5,20.1,0.7,29.6c0.4,0.4,0.9,0.7,1.3,1c7.6,6.2,16.4,10.2,25.6,13.5
	c29,10.6,59.3,14.7,90,16.9c1.9,0,3.7,1.1,4.6,2.8c8.9,14,17.9,28.1,26.9,42c2.2,3.4,4.5,6.8,6.8,10.5c0.7-1.2,1.5-2.3,2.4-3.4
	c10.8-16.4,21.4-32.8,32.2-49.2c0.8-1.3,2.1-2.2,3.5-2.5c15.4-2,30.8-3.3,46.1-5.6c18.8-2.9,37.1-7.7,54.5-16.3
	c6.8-3.3,13.3-7.2,18-13.4c5.4-7.1,5.8-14.2-0.1-20.9C397.3,289.8,392.9,286.4,388.1,283.4 M139.2,309.9c-4-2.3-7.6-5.3-10.6-8.8
	c-3.2-3.4-3.2-8.8,0.1-12.2c2.8-3.4,6.3-6.2,10.1-8.4c5.9-2.9,12-5.4,18.2-7.5c1.2-0.2,2.4,0.2,3.3,1c10.6,16.4,21.1,32.9,31.8,49.3
	c0.1,0.3,0.1,0.7,0.4,1.6C173.7,322.1,155.6,318.8,139.2,309.9 M354.3,304.3c-5.3,5.2-11.8,9-19,11c-11.4,3.3-23.1,5.9-34.6,8.8
	c-0.8,0.3-1.7,0-3.1,0c4.1-6.3,8-12.5,11.9-18.5c6.3-9.6,12.6-19.2,18.8-28.9c1.2-1.8,2.4-2.6,4.3-1.6c5.8,2.9,11.7,5.6,17.3,8.5
	c1.7,1,3.2,2.2,4.5,3.7C359.5,292.8,359.5,298.9,354.3,304.3 M335.4,137c-30.1,48.8-59.8,97.3-89.9,146.3
	c-30.5-48.9-60.6-97.5-91.1-146.3H335.4z"/>
</svg>
