<svg xmlns="http://www.w3.org/2000/svg" width="250" height="250" xmlns:v="https://vecta.io/nano"><circle cx="125" cy="125" r="119.734" fill="#30363d" stroke="#fff" stroke-width=".532"/><path d="M107.791 223.779c-36.822-6.948-65.73-31.802-77.389-66.54-16.293-48.543 5.288-100.1 51.056-121.974 14.294-6.831 23.384-9.195 38.827-10.095 28.98-1.69 56.517 9.283 77.115 30.727 12.678 13.199 20.463 27.222 25.483 45.903 2.874 10.695 2.81 36.101-.119 47.269-9.372 35.734-37.354 63.847-72.71 73.049-11.717 3.05-30.905 3.803-42.263 1.66zm46.026-9.837c20.357-6.804 37.26-19.537 48.742-36.718 11.244-16.824 15.975-32.508 15.961-52.907-.018-24.662-8.862-46.282-26.303-64.299-12.736-13.157-27.963-21.702-46.521-26.105-13.274-3.15-34.122-2.544-46.588 1.354-26.284 8.218-46.501 25.475-58.426 49.871-18.694 38.244-7.674 86.114 25.929 112.637 19.18 15.14 36.952 20.963 61.911 20.286 12.151-.329 15.677-.903 25.296-4.119z" fill="#f99655"/><path d="M113.288 206.113c.001-2.552-1.799-2.63 10.492-2.76 45.077-1.001 77.73-36.272 78.387-76.504 0-7.318-2.106-21.126-4.771-27.454-1.573-3.735-1.59-4.527-.129-5.976 2.509-2.489 3.656-1.12 6.381 7.612 3.836 12.294 5.12 24.53 3.678 35.053-5.851 42.687-39.863 72.654-82.461 72.654-11.222 0-11.577-.081-11.577-2.626zm24.356-15.618c-1.362-1.351-.932-5.135.645-5.679 17.083-5.887 26.374-12.053 34.342-22.791 20.597-27.755 13.109-67.102-16.245-85.361l-6.439-4.03c-.221-.151-.053-1.364.373-2.697 1.095-3.422 3.869-3.021 10.708 1.547 13.609 9.091 24.151 23.6 28.113 38.692 2.264 8.623 2.295 24.828.062 33.149-4.884 18.205-18.396 34.685-34.738 42.367-9.372 4.406-15.468 6.146-16.823 4.802zm-58.919-17.062c-21.952-21.986-25.757-56.625-9.057-82.442 10.519-16.261 30.237-28.039 49.502-29.568 3.654-.29 4.158.013 4.471 2.685.336 2.869-.037 3.081-7.881 4.472-22.936 4.066-42.077 21.206-47.732 42.743-2.228 8.487-2.306 22.494-.168 30.458 2.545 9.48 8.964 20.263 16.392 27.536 5.297 5.185 6.679 7.24 6.098 9.058-1.243 3.885-3.967 2.726-11.625-4.943zM51.66 95.191c-2.094-1.519-2.1-1.747-.133-5.584C63.935 65.405 89.84 47.56 115.346 45.644c8.138-.611 8.53-.526 8.53 1.862 0 2.059-.696 2.503-3.93 2.503-6.75 0-21.709 4.413-30.544 9.012-10.641 5.538-23.744 17.744-29.105 27.112-6.394 11.175-6.119 10.886-8.638 9.059z" fill="#e35868"/><path d="M103.466 168.096c-18.561-9.057-29.692-30.255-26.233-49.96 3.445-19.625 16.906-34.416 35.902-39.449 8.863-2.348 11.177-2.106 11.177 1.17 0 2.414-.821 2.92-6.616 4.075-29.276 7.061-42.808 34.538-31.235 58.797 11.807 21.659 38.731 29.85 58.756 19.69 4.056-2.182 9.279-6.058 11.607-8.613 4.956-5.442 9.83-15.799 10.71-21.929.568-3.953 1.027-4.59 3.571-4.59 2.855 0 2.927.192 2.243 5.926-2.212 18.525-19.537 35.892-39.49 39.586-10.916 1.805-20.992-.177-30.392-4.704z" fill="#7a59ae"/><path d="M111.748 149.361c-1.314-2.044-1.87-35.36-.696-41.715.674-3.651 1.612-5.365 3.09-5.647 4.644-.887 37.231 20.37 37.231 24.286 0 3.805-13.216 14.126-26.733 20.879-7.847 3.92-11.397 4.525-12.892 2.198z" fill="#23103c"/></svg>