<?xml version="1.0" encoding="UTF-8"?><svg id="Layer_1" xmlns="http://www.w3.org/2000/svg" width="128" height="128" xmlns:xlink="http://www.w3.org/1999/xlink" viewBox="0 0 128 128"><defs><style>.cls-1{fill:url(#linear-gradient-2);fill-rule:evenodd;}.cls-2{fill:url(#linear-gradient-3);}.cls-3{fill:url(#linear-gradient);}</style><linearGradient id="linear-gradient" x1="11.52" y1="26.61" x2="115.77" y2="100.88" gradientUnits="userSpaceOnUse"><stop offset="0" stop-color="#c8f2e6"/><stop offset="1" stop-color="#e7f7da"/></linearGradient><linearGradient id="linear-gradient-2" x1="254.1" y1="318.27" x2="341.52" y2="374.67" gradientTransform="translate(-233.5 -283)" gradientUnits="userSpaceOnUse"><stop offset="0" stop-color="#44bcc3"/><stop offset="1" stop-color="#236d66"/></linearGradient><linearGradient id="linear-gradient-3" x1="271.74" y1="290.93" x2="359.15" y2="347.33" xlink:href="#linear-gradient-2"/></defs><circle class="cls-3" cx="64" cy="64" r="64"/><path class="cls-1" d="M79.89,66.11c6.94-2.43,13.45-6.54,18.44-11.03h0c.2-.17.31-.42.34-.7.03-.25-.06-.54-.23-.73-.17-.23-.39-.37-.65-.39-.25-.06-.54,0-.76.14-4.99,2.99-10.52,5.36-16.19,6.8.17-2.14.14-4.31-.14-6.49-.65-4.79-2.26-9.56-5.64-13.2-3.75-4.15-9.9-5.7-15.2-4.03-6.37,1.89-11.67,7.64-11.87,14.49-.25,9.02,8.15,16.36,16.69,17.2.99.11,2,.17,3.02.17-1.58,3.44-3.61,6.74-5.81,9.79-6.71-11.08-16.81-20.16-28.76-25.13-2.82-1.21-5.7-2.14-8.66-2.79-1.02-.2-1.97-.39-3.02-.51-.25-.03-.51.06-.73.2-.23.14-.37.37-.42.62-.08.25-.06.51.06.73s.31.42.54.51c6.68,3.3,12.83,7.61,18.19,12.8,6.94,6.68,12.41,14.75,16.07,23.63,1.61,3.84,6.66,5.25,10.04,2.76.51-.39.99-.82,1.41-1.3,3.02-3.27,5.7-6.88,7.95-10.74,2.31-3.89,4.2-8.26,5.33-12.8ZM64.88,83.67h0l.08.17c-.03-.06-.06-.11-.08-.17ZM70.05,61.54c.54-2.26.79-4.57.7-6.88-.23-4.15-1.83-10.01-6.77-10.1-4.26-.06-8.15,3.98-6.94,8.23,1.8,6.23,7.19,8.49,13,8.74Z"/><path class="cls-2" d="M101.6,50.85c.42,2.03,1.1,3.33,3.07,3.05,1.69-.23,3.07-1.92,3.07-3.61s-1.38-2.76-3.07-2.51c-2.11.34-3.41,1.41-3.07,3.07Z"/></svg>