<?xml version="1.0" standalone="no"?>
<!DOCTYPE svg PUBLIC "-//W3C//DTD SVG 20010904//EN"
 "http://www.w3.org/TR/2001/REC-SVG-20010904/DTD/svg10.dtd">
<svg version="1.0" xmlns="http://www.w3.org/2000/svg"
 width="180.000000pt" height="180.000000pt" viewBox="0 0 180.000000 180.000000"
 preserveAspectRatio="xMidYMid meet">

<g transform="translate(0.000000,180.000000) scale(0.100000,-0.100000)"
fill="#000000" stroke="none">
<path d="M737 1785 c-341 -65 -617 -324 -709 -665 -32 -118 -31 -327 1 -445
84 -311 334 -561 646 -646 115 -32 335 -32 450 0 312 85 562 335 646 646 32
118 33 327 1 445 -85 316 -337 569 -647 650 -106 28 -283 35 -388 15z m261
-389 c83 -142 89 -149 133 -166 95 -35 155 -103 268 -300 l71 -125 -285 -285
-285 -285 -285 285 -284 284 46 86 c112 208 192 303 284 337 59 23 47 7 188
251 24 40 47 72 52 70 5 -2 49 -70 97 -152z"/>
</g>
</svg>
