<svg xmlns="http://www.w3.org/2000/svg" width="245" height="245" viewBox="0 0 245 245">
  <g id="Group_9265" data-name="Group 9265" transform="translate(-12124 -7389)">
    <g id="BNB" transform="translate(12124 7389)">
      <path id="Main_copy_14" d="M0,122.5C0,190,55,245,122.5,245S245,190,245,122.5,190,0,122.5,0,0,55,0,122.5Z" fill="#048657"/>
    </g>
    <g id="Layer_2" data-name="Layer 2" transform="translate(12157.702 7422.201)">
      <g id="Layer_1" data-name="Layer 1">
        <g id="Page-1">
          <g id="Group-Copy-4">
            <path id="Combined-Shape" d="M151.3,25.792q-.775-.744-1.564-1.459L87.73,111.092,64.036,80.561H25.469L14.63,93.028H34.8l48.145,62.844a7.064,7.064,0,0,0,4.789,2.289,6.258,6.258,0,0,0,4.538-2.289L168.392,49.521q-.661-1.366-1.366-2.705A90.1,90.1,0,0,1,177.856,89.8c0,49.591-39.815,89.8-88.929,89.8S0,139.394,0,89.8,39.82,0,88.93,0A88.208,88.208,0,0,1,151.3,25.792Z" fill="#048657" fill-rule="evenodd"/>
            <path id="Path-2-Copy-6" d="M139.25,300.286l10.839-12.467h38.567l23.693,30.531,62.009-86.76a79.47,79.47,0,0,1,10.335,11.452,83.814,83.814,0,0,1,8.318,13.738L216.887,363.13a6.256,6.256,0,0,1-4.538,2.289,7.061,7.061,0,0,1-4.789-2.289l-48.145-62.844Z" transform="translate(-124.62 -207.258)" fill="#fff" fill-rule="evenodd"/>
          </g>
        </g>
      </g>
    </g>
  </g>
</svg>
