<svg xmlns="http://www.w3.org/2000/svg" width="238.501" height="236.921" viewBox="0 0 238.501 236.921">
  <g id="Group_10128" data-name="Group 10128" transform="translate(-2600.623 -5175.896)">
    <path id="Path_473869" data-name="Path 473869" d="M119.25,0C185.111,0,238.5,53.037,238.5,118.461s-53.39,118.461-119.25,118.461S0,183.885,0,118.461,53.39,0,119.25,0Z" transform="translate(2600.623 5175.896)" fill="#fff"/>
    <path id="VYA-2" d="M144.247,98.956c-2.147,1.561-9.417,12.637-13.467,20.639a61.776,61.776,0,0,0-4.391,11.612c-.683,2.83-1.366,5.562-1.415,6.05-.244.586-3.757-.1-11.661-2.1-15.613-4.05-19.663-4.635-22.737-3.367-4.733,2-4.879,7.855-.293,13.418,2.83,3.464,8.295,6.294,18.248,9.514,12.881,4.1,12.735,4.05,12.93,6,.146.976-.683,3.513-1.805,5.709-1.952,3.611-2,4.05-1.122,7.026.585,2.147,2.147,4.342,5.026,6.88,2.537,2.391,4.05,4.391,4.05,5.465,0,2.976,6.733,20.736,10.637,28.055,10.49,19.663,29.617,36.2,38.155,32.983,1.22-.439,3.659-3.22,6.294-7.124,2.488-3.513,4.635-6.441,4.928-6.441.537,0,3.513,6.05,4.538,9.124.976,2.781,2,1.025,4.928-7.855,3.123-9.563,5.318-19.761,5.318-24.493,0-1.513,1.415-6.441,3.074-10.929,3.367-8.831,4.635-17.272,2.976-19.322-.732-.829-.683-1.561.244-3.269,1.025-2,1.561-2.244,5.465-2.537,4.928-.39,12.93-3.659,12.93-5.318,0-1.513-4.733-5.562-8.685-7.465-1.805-.829-3.269-1.854-3.269-2.147,0-.829,6.636-1.025,13.808-.537,1.659.1,3.074-.1,3.074-.537.244-1.22-5.9-2.537-12.052-2.537h-6l5.611-3.269c10.393-6.05,17.175-13.418,17.175-18.394a8.359,8.359,0,0,0-4.879-7.465c-3.415-1.269-14.345,1.854-25.177,7.27-2.781,1.366-5.221,2.488-5.367,2.488-.244,0-.732-1.952-1.22-4.342-2.391-11.515-8.051-24.933-12.2-28.641-3.659-3.367-5.757-3.464-11.954-.39-7.855,3.9-13.32,3.464-22.054-1.805C148.59,97.638,146.736,97.248,144.247,98.956Zm8.343,3.757c4.538,3.074,6.88,4.1,11.076,4.733l3.952.586-3.611,2.1a78.422,78.422,0,0,1-7.855,3.9l-4.245,1.805h3.952c4.391,0,9.124-2,14.93-6.489,6.782-5.221,13.515-6.977,16-4.2,3.074,3.513,8.246,16.98,9.954,25.908.585,3.22.976,6.2.732,6.489-.244.39-1.854.146-3.659-.439-3.123-1.122-3.269-1.269-3.611-4.733-.39-3.611-5.611-15.125-7.172-15.662-.39-.1.146,1.854,1.22,4.489a23.959,23.959,0,0,1,1.952,8.831l.1,4.1-2.635-.1c-1.415,0-6-.439-10.1-.976a74.552,74.552,0,0,0-24.445.976l-5.074.976-.732-2.684c-1.22-4.245-.878-6.831,1.415-12.3,2.488-5.611,1.854-6.587-1.122-1.952-1.854,3.074-7.758,16.98-7.758,18.394,0,1.025-6.782,2.684-7.612,1.854-.683-.683.878-9.124,2.781-14.345,2.83-7.953,11.271-20.59,14.881-22.151C148.98,100.566,149.419,100.566,152.591,102.713ZM231.1,129.207c.244.39-1.025.829-2.781.976-2.342.293-6.294,2.244-14.442,7.124-6.148,3.757-16.98,9.71-24.152,13.223-15.174,7.563-20.2,8.929-27.811,7.27-4.342-.878-7.026-1.952-26.006-10.49-13.174-5.9-26.4-9.222-37.667-9.27-3.513-.1-4.635-.293-3.757-.732,3.269-1.854,25.274,1.513,51.085,7.855,11.076,2.684,13.32,3.074,21.664,3.074a66.132,66.132,0,0,0,30.641-6.977c20.444-10.1,31.861-14.3,33.227-12.052Zm-55.818,5.611a105.7,105.7,0,0,1,18.1,4.2c1.854.585,1.805.585-.976,1.805-2.635,1.122-3.123,1.122-7.465-.1-6.733-1.854-27.811-1.854-35.911,0-5.026,1.22-6.343,1.269-9.954.439-4.928-1.122-4.538-1.366,5.318-4.05,6.88-1.854,19.517-3.367,24.3-2.928,1.073.2,4,.39,6.587.634ZM101.9,141.258c-4.245.537-6.294,1.952-4.928,3.269.439.439,1.269.244,2.1-.537a5.163,5.163,0,0,1,3.22-1.22h1.805l-1.659.683c-.976.39-1.708.976-1.708,1.366,0,1.025,3.123,3.611,6.587,5.318,3.9,1.952,4.2,2.781.39,1.122-1.561-.683-4.2-1.659-5.757-2.244-6.148-2.244-10.149-7.124-6.587-8a31.894,31.894,0,0,1,6.148-.39l4.879.1Zm79.531,2c1.659.439,1.513.586-1.854,1.513-4.782,1.22-18.931,1.22-24.689-.1-4.538-.976-4.489-1.561.39-2.244,3.659-.439,23.908.2,26.152.829Zm43.815,2.879c-2.635,2.342-16.15,9.954-16.15,9.075a42.713,42.713,0,0,1,5.465-3.367c2.928-1.659,7.124-4.2,9.124-5.611,4.684-3.318,5.318-3.415,1.561-.1Zm-81.921,8.88a38.326,38.326,0,0,1,6.343,6.489c6.733,8.441,10.539,12.2,11.905,11.661,1.415-.585,1.659-2,.244-2-.537,0-2.147-1.22-3.611-2.684l-2.537-2.635,2.244.537a12.122,12.122,0,0,1,4.733,2.781c1.561,1.561,2.391,1.952,2.391,1.22a3.274,3.274,0,0,0-.878-2c-.683-.683-.244-.878,2-.878s2.684.244,2,.878c-1.122,1.122-1.22,2.1-.146,2.1.439,0,1.22-.829,1.659-1.854a2.717,2.717,0,0,1,2.537-1.854,11.607,11.607,0,0,0,3.611-.732c1.952-.732,1.952-.683.732,1.22-1.513,2.147-3.269,3.269-5.465,3.269-1.854,0-2.1,1.122-.39,1.805,3.367,1.269,4.928.1,10.929-8.587,3.659-5.172,8.978-10.393,10.539-10.393.439,0-.146.683-1.415,1.513-2.684,1.708-9.661,10.393-8.88,11.076.293.293,1.22-.537,2.1-1.708,2.635-3.806,9.173-10.1,10.49-10.1,1.659,0,9.856,6.977,12.539,10.637,2.537,3.513,2.488,3.806-1.415,11.808l-2.781,5.611-.537-5.221c-.293-2.927-.586-7.465-.586-10.344-.1-5.465-.829-6.294-2.537-2.83-1.708,3.22-6.441,6.977-13.369,10.539-5.074,2.537-6.733,3.074-9.856,2.976-5.221-.244-5.318-.244-3.611,1.659a30.653,30.653,0,0,1,3.513,5.465l1.854,3.757-1.659.537c-3.123.878-3.952.585-5.367-2-1.708-3.269-3.415-3.123-4.245.293-.683,2.488-.732,2.488-3.806,2a15.421,15.421,0,0,1-3.367-.829c-.976-.878,1.952-6,4.928-8.685,3.269-2.928,3.367-3.074,1.366-2.635-5.465,1.366-6.05,1.269-10.149-.878-14.345-7.612-17.126-9.27-19.37-11.661a15.287,15.287,0,0,0-2.976-2.684c-.293,0-.293,4.879-.244,10.832.293,10.246.244,10.832-1.122,10.832-1.513,0-7.709-6-9.124-8.734a13.6,13.6,0,0,1-.829-4.782c0-2.976.39-3.611,5.074-8.246a46.162,46.162,0,0,1,7.465-6.2c2.147-1.122,2.635-1.122,5.172-.1a25.051,25.051,0,0,1,6.343,5.026c1.952,2.147,3.757,3.659,3.952,3.464.683-.683-5.66-7.319-8.539-8.831-1.513-.732-2.147-1.415-1.561-1.513C140.247,153.212,141.857,154.042,143.32,155.017Zm69.235,6.05c3.513,1.025,10.783,5.757,10.783,6.977,0,1.366-12.1,4.733-13.174,3.659s1.708-3.464,4.2-3.659c2.1-.244,2.342-.39,1.122-.829-3.513-1.366-5.172-2.537-6.977-4.879-2.2-2.732-1.561-2.976,4.05-1.269ZM138.832,182.1l1.854,1.025-2.147-.146c-1.22-.146-2.342-.683-2.537-1.22-.39-1.122.488-1.073,2.83.342Zm60.16-.439a2.892,2.892,0,0,1-2.1.732c-1.366,0-1.415-.146-.537-.732,1.513-.976,3.22-.976,2.635,0Zm6.343,3.9c0,4.586-4.635,18.248-9.368,27.616-2.391,4.635-16.443,25.421-19.37,28.641-1.805,1.805-2.391,2-4.782,1.561-6.587-1.22-16.736-10.393-25.811-23.274-6.05-8.734-13.32-24.542-14.442-31.666l-.537-3.074h3.659a55.73,55.73,0,0,1,11.125,2.147c17.37,5.026,28.348,5.074,44.5.244,5.513-1.659,10.929-3.367,11.954-3.757,2.928-1.122,3.074-1.073,3.074,1.561Zm-7.9,38.106c-.146,3.269-2.684,11.612-3.952,12.881-.439.439-1.366-.439-2.342-2.635l-1.659-3.269,3.074-4.782a32.93,32.93,0,0,0,3.074-5.367c0-.342.439-.586.976-.39C197.138,220.2,197.43,221.618,197.43,223.667Zm-30.446-42.888c-1.805,1.952-1.561,2.244.976,2,2.83-.244,3.415-.829,2.244-2.244S168.5,179.12,166.984,180.779ZM140.3,191.026c-1.122,1.366-.732,2.391,5.465,14.979,6.05,12.344,11.368,20.785,16.248,26.055,6.05,6.587,9.563,7.319,11.222,2.342,1.025-3.074.39-4.391-.683-1.561-1.025,2.684-2.1,3.074-4.245,1.659-4.2-2.684-7.611-15.272-6.782-24.689.39-4.586,1.708-8.587,2.928-8.587.39,0,2.342,1.513,4.245,3.367,4.05,3.757,7.563,10.637,8.148,15.857.146,1.805.683,3.22.976,3.22,1.025,0,.732-12.052-.39-16.443a42.385,42.385,0,0,1-.976-4.245c.439-.439,2.83,2.147,4.635,5.026,3.123,4.928,3.22,2.244.1-2.976-1.952-3.269-2.342-4.489-1.513-4.489,2.147,0,6.343,2.244,8.587,4.635,2.147,2.342,2.342,2.391,1.805.586-.585-2.147-5.074-7.026-8-8.831-1.22-.683-2.1-1.513-2.1-1.805,0-1.025,9.563-.585,13.174.586a12.521,12.521,0,0,0,3.757.829c.586-.586-5.9-5.757-7.27-5.757a85.562,85.562,0,0,0-8.587,1.659c-10.783,2.342-23.713,2.147-32.69-.439-7.758-2.488-6.928-2.391-8.051-.976Zm16.3,8.392a51.663,51.663,0,0,0-3.22,5.221c-1.22,2.147-2.342,3.952-2.635,3.952-.829,0-2.488-5.757-1.952-6.684.732-1.22,5.757-3.757,7.465-3.806,1.317.049,1.415.2.342,1.317Zm2.732,4.05a36.9,36.9,0,0,0-1.513,7.612c-.585,6.489-.878,7.27-2.244,5.465-1.269-1.805-1.415-7.416-.244-9.661.976-1.854,4.342-6.489,4.733-6.489a12.821,12.821,0,0,1-.732,3.074Z" transform="translate(2552.36 5126.753)"/>
  </g>
</svg>
