<?xml version="1.0" encoding="utf-8"?>
<!-- Generator: Adobe Illustrator 22.0.0, SVG Export Plug-In . SVG Version: 6.00 Build 0)  -->
<svg version="1.1" id="VYA" xmlns="http://www.w3.org/2000/svg" xmlns:xlink="http://www.w3.org/1999/xlink" x="0px" y="0px"
	 viewBox="0 0 490 490" style="enable-background:new 0 0 490 490;" xml:space="preserve">
<style type="text/css">
	.st0{fill:#FFFFFF;}
</style>
<path id="Full" class="st0" d="M0,245c0,135.1,109.9,245,245,245s245-109.9,245-245S380.1,0,245,0S0,109.9,0,245z"/>
<path id="VYA-2" d="M204.4,100c-4.4,3.2-19.3,25.9-27.6,42.3c-3.8,7.6-6.8,15.6-9,23.8c-1.4,5.8-2.8,11.4-2.9,12.4
	c-0.5,1.2-7.7-0.2-23.9-4.3c-32-8.3-40.3-9.5-46.6-6.9c-9.7,4.1-10,16.1-0.6,27.5c5.8,7.1,17,12.9,37.4,19.5
	c26.4,8.4,26.1,8.3,26.5,12.3c0.3,2-1.4,7.2-3.7,11.7c-4,7.4-4.1,8.3-2.3,14.4c1.2,4.4,4.4,8.9,10.3,14.1c5.2,4.9,8.3,9,8.3,11.2
	c0,6.1,13.8,42.5,21.8,57.5c21.5,40.3,60.7,74.2,78.2,67.6c2.5-0.9,7.5-6.6,12.9-14.6c5.1-7.2,9.5-13.2,10.1-13.2
	c1.1,0,7.2,12.4,9.3,18.7c2,5.7,4.1,2.1,10.1-16.1c6.4-19.6,10.9-40.5,10.9-50.2c0-3.1,2.9-13.2,6.3-22.4
	c6.9-18.1,9.5-35.4,6.1-39.6c-1.5-1.7-1.4-3.2,0.5-6.7c2.1-4.1,3.2-4.6,11.2-5.2c10.1-0.8,26.5-7.5,26.5-10.9
	c0-3.1-9.7-11.4-17.8-15.3c-3.7-1.7-6.7-3.8-6.7-4.4c0-1.7,13.6-2.1,28.3-1.1c3.4,0.2,6.3-0.2,6.3-1.1c0.5-2.5-12.1-5.2-24.7-5.2
	h-12.3l11.5-6.7c21.3-12.4,35.2-27.5,35.2-37.7c0-6.4-4.4-13.2-10-15.3c-7-2.6-29.4,3.8-51.6,14.9c-5.7,2.8-10.7,5.1-11,5.1
	c-0.5,0-1.5-4-2.5-8.9c-4.9-23.6-16.5-51.1-25-58.7c-7.5-6.9-11.8-7.1-24.5-0.8c-16.1,8-27.3,7.1-45.2-3.7
	C213.3,97.3,209.5,96.5,204.4,100z M221.5,107.7c9.3,6.3,14.1,8.4,22.7,9.7l8.1,1.2l-7.4,4.3c-5.2,3-10.6,5.6-16.1,8l-8.7,3.7h8.1
	c9,0,18.7-4.1,30.6-13.3c13.9-10.7,27.7-14.3,32.8-8.6c6.3,7.2,16.9,34.8,20.4,53.1c1.2,6.6,2,12.7,1.5,13.3
	c-0.5,0.8-3.8,0.3-7.5-0.9c-6.4-2.3-6.7-2.6-7.4-9.7c-0.8-7.4-11.5-31-14.7-32.1c-0.8-0.2,0.3,3.8,2.5,9.2c2.5,5.7,3.8,11.9,4,18.1
	l0.2,8.4l-5.4-0.2c-2.9,0-12.3-0.9-20.7-2c-16.1-2.1-32-1.5-50.1,2l-10.4,2l-1.5-5.5c-2.5-8.7-1.8-14,2.9-25.2
	c5.1-11.5,3.8-13.5-2.3-4c-3.8,6.3-15.9,34.8-15.9,37.7c0,2.1-13.9,5.5-15.6,3.8c-1.4-1.4,1.8-18.7,5.7-29.4
	c5.8-16.3,23.1-42.2,30.5-45.4C214.1,103.3,215,103.3,221.5,107.7z M382.4,162c0.5,0.8-2.1,1.7-5.7,2c-4.8,0.6-12.9,4.6-29.6,14.6
	c-12.6,7.7-34.8,19.9-49.5,27.1c-31.1,15.5-41.4,18.3-57,14.9c-8.9-1.8-14.4-4-53.3-21.5c-27-12.1-54.1-18.9-77.2-19
	c-7.2-0.2-9.5-0.6-7.7-1.5c6.7-3.8,51.8,3.1,104.7,16.1c22.7,5.5,27.3,6.3,44.4,6.3c23.3,0,43.5-4.6,62.8-14.3
	C356.2,166,379.6,157.4,382.4,162L382.4,162z M268,173.5c8.3,0.8,22.1,4,37.1,8.6c3.8,1.2,3.7,1.2-2,3.7c-5.4,2.3-6.4,2.3-15.3-0.2
	c-13.8-3.8-57-3.8-73.6,0c-10.3,2.5-13,2.6-20.4,0.9c-10.1-2.3-9.3-2.8,10.9-8.3c14.1-3.8,40-6.9,49.8-6
	C256.7,172.6,262.7,173,268,173.5L268,173.5z M117.6,186.7c-8.7,1.1-12.9,4-10.1,6.7c0.9,0.9,2.6,0.5,4.3-1.1
	c1.8-1.6,4.2-2.4,6.6-2.5h3.7l-3.4,1.4c-2,0.8-3.5,2-3.5,2.8c0,2.1,6.4,7.4,13.5,10.9c8,4,8.6,5.7,0.8,2.3
	c-3.2-1.4-8.6-3.4-11.8-4.6c-12.6-4.6-20.8-14.6-13.5-16.4c1.4-0.5,7-0.8,12.6-0.8l10,0.2L117.6,186.7z M280.6,190.8
	c3.4,0.9,3.1,1.2-3.8,3.1c-9.8,2.5-38.8,2.5-50.6-0.2c-9.3-2-9.2-3.2,0.8-4.6C234.5,188.2,276,189.5,280.6,190.8L280.6,190.8z
	 M370.4,196.7c-5.4,4.8-33.1,20.4-33.1,18.6c0-0.3,5.1-3.5,11.2-6.9c6-3.4,14.6-8.6,18.7-11.5C376.8,190.1,378.1,189.9,370.4,196.7
	L370.4,196.7z M202.5,214.9c2.9,2,8.9,8,13,13.3c13.8,17.3,21.6,25,24.4,23.9c2.9-1.2,3.4-4.1,0.5-4.1c-1.1,0-4.4-2.5-7.4-5.5
	l-5.2-5.4l4.6,1.1c2.6,0.5,6.9,3.1,9.7,5.7c3.2,3.2,4.9,4,4.9,2.5c-0.1-1.6-0.8-3-1.8-4.1c-1.4-1.4-0.5-1.8,4.1-1.8
	c4.6,0,5.5,0.5,4.1,1.8c-2.3,2.3-2.5,4.3-0.3,4.3c0.9,0,2.5-1.7,3.4-3.8c1.1-2.5,2.9-3.8,5.2-3.8c2.5-0.1,5-0.6,7.4-1.5
	c4-1.5,4-1.4,1.5,2.5c-3.1,4.4-6.7,6.7-11.2,6.7c-3.8,0-4.3,2.3-0.8,3.7c6.9,2.6,10.1,0.2,22.4-17.6c7.5-10.6,18.4-21.3,21.6-21.3
	c0.9,0-0.3,1.4-2.9,3.1c-5.5,3.5-19.8,21.3-18.2,22.7c0.6,0.6,2.5-1.1,4.3-3.5c5.4-7.8,18.8-20.7,21.5-20.7
	c3.4,0,20.2,14.3,25.7,21.8c5.2,7.2,5.1,7.8-2.9,24.2l-5.7,11.5l-1.1-10.7c-0.6-6-1.2-15.3-1.2-21.2c-0.2-11.2-1.7-12.9-5.2-5.8
	c-3.5,6.6-13.2,14.3-27.4,21.6c-10.4,5.2-13.8,6.3-20.2,6.1c-10.7-0.5-10.9-0.5-7.4,3.4c2.8,3.5,5.2,7.2,7.2,11.2l3.8,7.7l-3.4,1.1
	c-6.4,1.8-8.1,1.2-11-4.1c-3.5-6.7-7-6.4-8.7,0.6c-1.4,5.1-1.5,5.1-7.8,4.1c-3.5-0.6-6.6-1.4-6.9-1.7c-2-1.8,4-12.3,10.1-17.8
	c6.7-6,6.9-6.3,2.8-5.4c-11.2,2.8-12.4,2.6-20.8-1.8c-29.4-15.6-35.1-19-39.7-23.9c-2.9-3.1-5.7-5.5-6.1-5.5c-0.6,0-0.6,10-0.5,22.2
	c0.6,21,0.5,22.2-2.3,22.2c-3.1,0-15.8-12.3-18.7-17.9c-0.9-1.8-1.7-6.3-1.7-9.8c0-6.1,0.8-7.4,10.4-16.9
	c5.8-5.7,12.7-11.4,15.3-12.7c4.4-2.3,5.4-2.3,10.6-0.2c3.2,1.4,9,6,13,10.3c4,4.4,7.7,7.5,8.1,7.1c1.4-1.4-11.6-15-17.5-18.1
	c-3.1-1.5-4.4-2.9-3.2-3.1C196.2,211.2,199.5,212.9,202.5,214.9z M344.4,227.3c7.2,2.1,22.1,11.8,22.1,14.3c0,2.8-24.8,9.7-27,7.5
	s3.5-7.1,8.6-7.5c4.3-0.5,4.8-0.8,2.3-1.7c-7.2-2.8-10.6-5.2-14.3-10C331.6,224.3,332.9,223.8,344.4,227.3L344.4,227.3z
	 M193.3,270.4l3.8,2.1l-4.4-0.3c-2.5-0.3-4.8-1.4-5.2-2.5C186.7,267.4,188.5,267.5,193.3,270.4L193.3,270.4z M316.6,269.5
	c-0.5,0.8-2.5,1.5-4.3,1.5c-2.8,0-2.9-0.3-1.1-1.5C314.3,267.5,317.8,267.5,316.6,269.5L316.6,269.5z M329.6,277.5
	c0,9.4-9.5,37.4-19.2,56.6c-4.9,9.5-33.7,52.1-39.7,58.7c-3.7,3.7-4.9,4.1-9.8,3.2c-13.5-2.5-34.3-21.3-52.9-47.7
	c-12.4-17.9-27.3-50.3-29.6-64.9l-1.1-6.3h7.5c4.1,0,14.4,2,22.8,4.4c35.6,10.3,58.1,10.4,91.2,0.5c11.3-3.4,22.4-6.9,24.5-7.7
	C329.3,272,329.6,272.1,329.6,277.5L329.6,277.5z M313.4,355.6c-0.3,6.7-5.5,23.8-8.1,26.4c-0.9,0.9-2.8-0.9-4.8-5.4l-3.4-6.7
	l6.3-9.8c3.5-5.4,6.3-10.3,6.3-11s0.9-1.2,2-0.8C312.8,348.5,313.4,351.4,313.4,355.6z M251,267.7c-3.7,4-3.2,4.6,2,4.1
	c5.8-0.5,7-1.7,4.6-4.6S254.1,264.3,251,267.7z M196.3,288.7c-2.3,2.8-1.5,4.9,11.2,30.7c12.4,25.3,23.3,42.6,33.3,53.4
	c12.4,13.5,19.6,15,23,4.8c2.1-6.3,0.8-9-1.4-3.2c-2.1,5.5-4.3,6.3-8.7,3.4c-8.6-5.5-15.6-31.3-13.9-50.6c0.8-9.4,3.5-17.6,6-17.6
	c0.8,0,4.8,3.1,8.7,6.9c8.3,7.7,15.5,21.8,16.7,32.5c0.3,3.7,1.4,6.6,2,6.6c2.1,0,1.5-24.7-0.8-33.7c-1.2-4.6-2.1-8.6-2-8.7
	c0.9-0.9,5.8,4.4,9.5,10.3c6.4,10.1,6.6,4.6,0.2-6.1c-4-6.7-4.8-9.2-3.1-9.2c4.4,0,13,4.6,17.6,9.5c4.4,4.8,4.8,4.9,3.7,1.2
	c-1.2-4.4-10.4-14.4-16.4-18.1c-2.5-1.4-4.3-3.1-4.3-3.7c0-2.1,19.6-1.2,27,1.2c3.8,1.2,7.4,2,7.7,1.7c1.2-1.2-12.1-11.8-14.9-11.8
	c-1.4,0-9.3,1.5-17.6,3.4c-22.1,4.8-48.6,4.4-67-0.9C196.9,285.6,198.6,285.8,196.3,288.7L196.3,288.7z M229.7,305.9
	c-2.4,3.4-4.6,7-6.6,10.7c-2.5,4.4-4.8,8.1-5.4,8.1c-1.7,0-5.1-11.8-4-13.7c1.5-2.5,11.8-7.7,15.3-7.8
	C231.7,303.3,231.9,303.6,229.7,305.9L229.7,305.9z M235.3,314.2c-1.6,5.1-2.6,10.3-3.1,15.6c-1.2,13.3-1.8,14.9-4.6,11.2
	c-2.6-3.7-2.9-15.2-0.5-19.8c2-3.8,8.9-13.3,9.7-13.3C237.1,307.9,236.3,310.6,235.3,314.2L235.3,314.2z"/>
</svg>
