<?xml version="1.0" encoding="utf-8"?>
<!-- Generator: Adobe Illustrator 22.0.0, SVG Export Plug-In . SVG Version: 6.00 Build 0)  -->
<svg version="1.1" id="WABI" xmlns="http://www.w3.org/2000/svg" xmlns:xlink="http://www.w3.org/1999/xlink" x="0px" y="0px"
	 viewBox="0 0 490 490" style="enable-background:new 0 0 490 490;" xml:space="preserve">
<style type="text/css">
	.st0{fill:#FF5847;}
	.st1{fill:#FFFFFF;}
</style>
<path id="Full" class="st0" d="M0,245c0,135.1,109.9,245,245,245s245-109.9,245-245S380.1,0,245,0S0,109.9,0,245z"/>
<path id="WABI-2" class="st1" d="M245.4,117.1c-70.7,0-128.3,57.6-128.3,128.4s57.6,128.4,128.3,128.4s128.3-57.6,128.3-128.4
	S316.2,117.1,245.4,117.1z M245.4,418C150.4,418,73,340.6,73,245.5S150.4,72.9,245.4,72.9s172.4,77.4,172.4,172.5
	S340.5,418,245.4,418L245.4,418z M207.2,245.5l38.2,38.2l38.2-38.2l-38.2-38.2L207.2,245.5z M245.4,337c-5.9,0-11.5-2.3-15.6-6.5
	l-69.4-69.5c-8.6-8.6-8.6-22.6,0-31.2l69.4-69.5c8.6-8.6,22.6-8.6,31.2,0c0,0,0,0,0,0l69.4,69.5c8.6,8.6,8.6,22.6,0,31.2L261,330.6
	C256.9,334.7,251.3,337,245.4,337z"/>
</svg>
