<svg id="WABI" xmlns="http://www.w3.org/2000/svg" width="512" height="512" viewBox="0 0 512 512">
  <defs>
    <style>
      .cls-1 {
        fill: #ff5847;
      }

      .cls-1, .cls-2 {
        fill-rule: evenodd;
      }

      .cls-2 {
        fill: #fff;
      }
    </style>
  </defs>
  <path id="Full" class="cls-1" d="M11,256c0,135.094,109.906,245,245,245S501,391.094,501,256,391.094,11,256,11,11,120.906,11,256Z"/>
  <path id="WABI-2" data-name="WABI" class="cls-2" d="M256.432,128.1c-70.741,0-128.3,57.584-128.3,128.361s57.557,128.353,128.3,128.353,128.3-57.579,128.3-128.353S327.178,128.1,256.432,128.1Zm0,300.88c-95.081,0-172.439-77.391-172.439-172.519S161.351,83.939,256.432,83.939s172.444,77.393,172.444,172.525S351.517,428.983,256.432,428.983ZM218.209,256.462l38.227,38.243,38.228-38.243-38.228-38.241Zm38.227,91.557a22.067,22.067,0,0,1-15.608-6.467l-69.442-69.473a22.094,22.094,0,0,1,0-31.232l69.442-69.474a22.066,22.066,0,0,1,31.216,0l69.442,69.474a22.1,22.1,0,0,1,0,31.232l-69.442,69.473A22.064,22.064,0,0,1,256.436,348.019Z"/>
</svg>
