<svg xmlns="http://www.w3.org/2000/svg" width="250" height="250" xmlns:v="https://vecta.io/nano"><circle cx="125" cy="125" r="125" fill="#fff"/><path d="M83.54 133.547c7.151-5.856 34.249-9.116 41.866-9.125 13.353.722 35.181 4.394 41.798 10.441 0 1.475-13.177 22.459-14.131 22.459-7.249-2.134-21.24-6.549-28.257-7.167-11.442-.357-18.695 5.388-28.519 5.688-3.958-5.317-11.178-15.598-12.757-22.296z" fill="#edbb4b"/><path d="M124.325 205.992l-2.082-6.978-1.837-6.277-7.315-7.559c-23.539-24.326-35.477-41.413-37.115-53.126l-.321-2.297 4.446-2.051c23.387-10.788 51.154-12.549 76.605-4.859 6.338 1.915 16.283 5.926 17.062 6.882.752.923-1.14 7.557-3.471 12.169-5.53 10.942-18.522 27.407-35.606 45.126l-5.201 5.395-2.269 6.941c-1.248 3.817-2.355 7.03-2.46 7.138s-.301-.118-.436-.503zm5.318-26.487c8.245-8.401 15.029-16.308 15.029-17.515 0-.972-.454-1.287-2.87-1.989-9.271-2.695-19.767-3.164-28.778-1.285-6.311 1.316-8.603 2.208-8.603 3.348 0 1.38 19.061 21.844 20.346 21.844.305 0 2.499-1.981 4.876-4.402zm-26.399-27.229c7.512-2.438 13.126-3.277 21.806-3.258 8.447.018 14.324.952 21.597 3.429 2.055.7 4.142 1.272 4.638 1.272 1.676 0 12.293-16.489 11.907-18.493-.194-1.008-3.582-2.463-10.195-4.38-18.931-5.486-37.138-5.49-56.123-.013-7.986 2.304-10.566 3.469-10.566 4.771 0 1.547 2.009 5.235 6.554 12.035 2.762 4.131 4.363 6.079 4.998 6.079.514 0 2.937-.65 5.383-1.443zm-39.577-32.087c-4.574-.422-10.903-1.798-14.088-3.063-10.329-4.104-17.557-12.352-19.828-22.624-1.05-4.748-1.01-7.223.192-11.921 2.844-11.122 10.962-19.593 22.404-23.381 4.466-1.479 11.291-2.581 15.996-2.584 6.086-.003 14.331 2.667 25.416 8.233 8.808 4.422 15.601 8.492 31.014 18.577 17.283 11.31 25.443 16.157 35.749 21.236 11.914 5.872 15.727 7.07 22.138 6.957 15.786-.278 25.907-6.998 28.704-19.061.58-2.502.65-3.948.284-5.925-2.443-13.214-13.211-21.075-28.988-21.161-4.979-.027-6.005.133-10.225 1.596-6.412 2.224-16.098 6.752-24.24 11.333l-6.792 3.821-.34-2.113c-.187-1.162-.357-5.209-.377-8.994-.042-7.834-.782-14.236-1.832-15.864-1.255-1.946-3.741-2.278-15.343-2.049-5.932.117-11.19.394-11.685.616-1.249.559-2.182 2.55-2.826 6.032-.301 1.631-.614 3.031-.695 3.112s-2.021-.805-4.311-1.969l-4.164-2.116.298-2.013c.492-3.319 2.709-9.457 3.998-11.069l1.207-1.509 18.949-.143L143.229 44l1.4 1.499c2.07 2.216 4.094 8.838 4.39 14.36.322 6.014.513 6.817 1.626 6.817.508 0 3.558-1.252 6.777-2.783s8.63-3.735 12.023-4.898c6.148-2.108 6.193-2.115 13.213-2.065 10.88.079 18.359 2.388 25.765 7.955 9.134 6.866 14.097 19.976 11.448 30.239-3.022 11.707-11.429 19.928-23.88 23.351-5.8 1.595-14.315 2.314-18.742 1.583-12.056-1.99-30.137-11.301-57.735-29.732-17.965-11.997-32.606-19.971-43.521-23.703-2.965-1.014-4.397-1.191-9.056-1.124-14.445.21-24.505 6.585-27.942 17.708-3.138 10.155 2.154 20.774 12.67 25.424 4.067 1.799 10.13 2.969 15.501 2.993 4.251.019 5.439-.194 10.337-1.854 6.739-2.284 15.957-6.675 23.994-11.431 3.301-1.953 6.158-3.48 6.349-3.393 1.615.733 7.644 4.636 7.644 4.949 0 .406-10.044 6.15-19.622 11.222-13.659 7.232-23.151 9.907-32.201 9.073z" fill="#1c1c1a"/></svg>