<?xml version="1.0" encoding="utf-8"?>
<!-- Generator: Adobe Illustrator 22.0.0, SVG Export Plug-In . SVG Version: 6.00 Build 0)  -->
<svg version="1.1" id="WAX" xmlns="http://www.w3.org/2000/svg" xmlns:xlink="http://www.w3.org/1999/xlink" x="0px" y="0px"
	 viewBox="0 0 245 245" style="enable-background:new 0 0 245 245;" xml:space="preserve">
<style type="text/css">
	.st0{fill:#F78E1E;}
	.st1{fill:#FFFFFF;}
</style>
<path id="Full" class="st0" d="M0,122.5C0,190,55,245,122.5,245S245,190,245,122.5S190,0,122.5,0S0,55,0,122.5z"/>
<g>
	<polygon class="st1" points="115.5,105 104.5,134 93.5,105 78.5,105 94.5,149 114,149 124.5,121 134.5,149 148.5,149 132.5,105 	
		"/>
	<polygon class="st1" points="148.5,123.5 155.5,143.5 169.5,105 154.5,105 	"/>
	<path class="st1" d="M205,133.5c0.4-5.8,7.1-10.2,6.1-26.5c-0.5-7.3-12.2-17.1-15.6-25.5c-1.6-3.9,0.6-7.2-4.5-14.5
		c-2.5-3.6-13.6-8.9-16-13.5c-3.8-7.3-9.5-10.2-13-10.5c-8.6-0.8-12.7,2.1-23.5-0.5c-6.5-1.2-6.4-6.5-16-8C101,34.1,90,45.9,84,45.5
		c-9.1,0-12.5,4.4-14.5,7c-3.2,3.9-5.1,13.3-11,17S44.6,77.6,41,87c-4.1,3.7-1.9,23.2-2.1,28.3c-3.2,4.8-5.3,22.4-4.4,32.2
		c2.1,9.1,8.3,13.1,13,17c2.7,3.4,9.1,8.1,8.5,16c0.9,4.5,7.8,12.6,14,16.5c7,3.5,6.5,5.6,26.5,5.5c5.6,0.2,8.8,6.9,17,8.1
		c8-0.1,9-2.4,15.5-3.6c9-0.5,14,8.8,39.5-1.5c14.1-9,12.5-11.4,18-24c3.2-7.4,10.9-7.2,15-10c1.8-1.2,2.9-1.2,5.5-10
		C210.4,150.1,204.4,143,205,133.5z M122.5,180.5C90.2,180.5,64,154.3,64,122s26.2-58.5,58.5-58.5S181,89.7,181,122
		S154.8,180.5,122.5,180.5z"/>
</g>
</svg>
