<svg id="WAX" xmlns="http://www.w3.org/2000/svg" width="256" height="256" viewBox="0 0 512 512">
  <defs>
    <style>
      .cls-1 {
        fill: #f78e1e;
      }

      .cls-1, .cls-2 {
        fill-rule: evenodd;
      }

      .cls-2 {
        fill: #fff;
      }
    </style>
  </defs>
  <path id="Full" class="cls-1" d="M11,256c0,135.094,109.906,245,245,245S501,391.094,501,256,391.094,11,256,11,11,120.906,11,256Z"/>
  <path id="WAX-2" data-name="WAX" class="cls-2" d="M88.738,241.539c0.4-10.08-3.892-49.067,4.262-56.539,7.2-18.841,23.291-27.561,35-35s15.653-26.174,22-34c4-5.12,10.879-14.062,29-14,12.09,0.76,33.911-22.727,77-22,19.264,2.933,19.084,13.693,32,16,21.51,5.165,29.736-.576,47,1,6.976,0.637,18.32,6.412,26,21,4.8,9.114,26.985,19.83,32,27,10.185,14.562,5.862,21.17,9,29,6.75,16.841,30.287,36.329,31.188,51,2,32.6-11.478,41.393-12.188,53-1.161,18.992,10.719,33.246,4,56-5.174,17.523-7.477,17.575-11,20-8.2,5.644-23.643,5.282-30,20-10.929,25.3-7.717,30.023-36,48-50.933,20.526-61.069,2.086-79,3-13,2.473-15.031,6.928-31,7.188-16.5-2.437-22.884-15.761-34-16.188-39.962.136-39-3.943-53-11-12.5-7.789-26.146-24.023-28-33,1.166-15.821-11.542-25.237-17-32-9.389-7.748-21.812-15.863-26-34C78.214,286.417,82.265,251.059,88.738,241.539ZM256,138A117,117,0,1,1,139,255,117,117,0,0,1,256,138Zm-88,83h30l22,58,22-58h34l32,88H280l-20-56-21,56H200Zm182,0-28,77-14-40,12-37h30Z"/>
</svg>
