<?xml version="1.0" encoding="UTF-8" standalone="no"?>
<svg
   xmlns:dc="http://purl.org/dc/elements/1.1/"
   xmlns:cc="http://creativecommons.org/ns#"
   xmlns:rdf="http://www.w3.org/1999/02/22-rdf-syntax-ns#"
   xmlns:svg="http://www.w3.org/2000/svg"
   xmlns="http://www.w3.org/2000/svg"
   xmlns:sodipodi="http://sodipodi.sourceforge.net/DTD/sodipodi-0.dtd"
   xmlns:inkscape="http://www.inkscape.org/namespaces/inkscape"
   width="245"
   height="245"
   viewBox="0 0 245 245"
   version="1.1"
   id="svg17"
   sodipodi:docname="WETH_POLY.svg"
   inkscape:version="1.0.2-2 (e86c870879, 2021-01-15)">
  <metadata
     id="metadata23">
    <rdf:RDF>
      <cc:Work
         rdf:about="">
        <dc:format>image/svg+xml</dc:format>
        <dc:type
           rdf:resource="http://purl.org/dc/dcmitype/StillImage" />
      </cc:Work>
    </rdf:RDF>
  </metadata>
  <defs
     id="defs21" />
  <sodipodi:namedview
     pagecolor="#ffffff"
     bordercolor="#666666"
     borderopacity="1"
     objecttolerance="10"
     gridtolerance="10"
     guidetolerance="10"
     inkscape:pageopacity="0"
     inkscape:pageshadow="2"
     inkscape:window-width="1920"
     inkscape:window-height="1017"
     id="namedview19"
     showgrid="false"
     inkscape:zoom="3.466558"
     inkscape:cx="122.4"
     inkscape:cy="122.4"
     inkscape:window-x="-8"
     inkscape:window-y="-8"
     inkscape:window-maximized="1"
     inkscape:current-layer="ETH_BSC" />
  <g
     id="ETH_BSC"
     transform="translate(-4543,-4455)">
    <g
       id="ETH"
       transform="translate(4543,4455)">
      <path
         id="Full"
         d="M 0,122.5 C 0,190 55,245 122.5,245 190,245 245,190 245,122.5 245,55 190,0 122.5,0 55,0 0,55 0,122.5 Z"
         fill="#b0b0b0" />
      <g
         id="Eth_copy">
        <path
           id="Shape1"
           d="m 122.5,38 -52,86 52,-23.5 z"
           fill="#fff" />
        <path
           id="Shape2"
           d="m 122.5,38 52,86 -52,-23.5 z"
           fill="#fff" />
        <path
           id="Shape3"
           d="m 70.5,123.5 52,-23.5 v 54.5 z"
           fill="#efefef" />
        <path
           id="Shape4"
           d="m 174.5,123.5 -52,-23.5 v 54.5 z"
           fill="#efefef" />
        <path
           id="Shape5"
           d="m 70.5,134 52,30.5 V 207 Z"
           fill="#fff" />
        <path
           id="Shape6"
           d="m 174.5,134 -52,30.5 V 207 Z"
           fill="#fff" />
      </g>
    </g>
  </g>
</svg>
