<?xml version="1.0" encoding="UTF-8" standalone="no"?>
<svg
   xmlns:dc="http://purl.org/dc/elements/1.1/"
   xmlns:cc="http://creativecommons.org/ns#"
   xmlns:rdf="http://www.w3.org/1999/02/22-rdf-syntax-ns#"
   xmlns:svg="http://www.w3.org/2000/svg"
   xmlns="http://www.w3.org/2000/svg"
   id="svg930"
   version="1.1"
   viewBox="0 0 67.733332 67.733335"
   height="256"
   width="256">
  <title
     id="title1508">WHALE</title>
  <defs
     id="defs924" />
  <metadata
     id="metadata927">
    <rdf:RDF>
      <cc:Work
         rdf:about="">
        <dc:format>image/svg+xml</dc:format>
        <dc:type
           rdf:resource="http://purl.org/dc/dcmitype/StillImage" />
        <dc:title>WHALE</dc:title>
      </cc:Work>
    </rdf:RDF>
  </metadata>
  <g
     transform="translate(0,-229.26665)"
     id="layer1">
    <circle
       r="33.863899"
       cy="263.13934"
       cx="33.863934"
       id="path1506"
       style="opacity:1;fill:#1e416b;fill-opacity:1;fill-rule:nonzero;stroke:none;stroke-width:2.52220392;stroke-linecap:round;stroke-linejoin:miter;stroke-miterlimit:4;stroke-dasharray:none;stroke-dashoffset:65.67904663;stroke-opacity:1;paint-order:normal" />
    <g
       transform="matrix(0.27274898,0,0,0.27274898,12.022974,215.78885)"
       id="g1485">
      <path
         d="m 71.256202,101.71928 c 0,-6.03224 0,-11.704642 0,-17.404561 0.105039,-0.0553 0.214048,-0.161131 0.327025,-0.165629 14.184048,-0.546629 28.149025,0.659607 41.369453,6.221413 30.69722,12.913517 49.67235,35.720607 55.4908,68.528407 8.48995,47.86948 -23.33069,93.50666 -71.078728,102.93006 C 49.119308,271.35133 2.0570746,239.92782 -7.7499708,191.64666 -8.93795,185.79778 -9.5536354,179.89254 -9.552577,173.92354 c 0.00159,-7.00961 5.291e-4,-14.01921 0.00344,-21.02882 0,-0.21193 0.030427,-0.4236 0.055827,-0.7575 52.671399,0 105.287232,0 158.10891,0 -5.41919,-16.57271 -15.18946,-29.59391 -29.63306,-39.03398 -14.47192,-9.45859 -30.518103,-12.64338 -47.726338,-11.38396 z M 8.0194606,169.88494 c -1.490927,22.96742 9.3810684,50.74126 35.9746034,66.04926 25.375129,14.60632 56.829856,12.55316 80.007886,-5.65256 19.45878,-15.28471 28.26808,-35.72986 27.86168,-60.35119 -38.16932,0 -76.057389,0 -114.138868,0 0.134938,3.01413 0.02064,5.94757 0.436827,8.80348 1.777471,12.19438 7.764198,21.88792 17.881336,28.92716 7.228416,5.0292 15.332868,7.40384 24.136085,7.39987 2.76516,-0.001 5.530585,-2.7e-4 8.324056,-2.7e-4 0,5.96107 0,11.78957 0,17.51542 -16.152283,1.2483 -31.153629,-1.74175 -44.136998,-11.74671 -16.638852,-12.8225 -24.144552,-30.04185 -23.639727,-50.94446 -4.285457,0 -8.455291,0 -12.7068804,0 z"
         id="path888"
         style="clip-rule:evenodd;fill:#fdfdfd;fill-opacity:1;fill-rule:evenodd;stroke-width:0.26458332" />
      <path
         d="m 69.784589,192.365 c 0.02434,-5.6179 4.601898,-10.13169 10.229321,-10.08724 5.539317,0.0439 10.051521,4.60428 10.049669,10.15709 -0.0019,5.59938 -4.597929,10.18593 -10.1854,10.16423 -5.610754,-0.0217 -10.118196,-4.59237 -10.09359,-10.23408 z"
         id="path892"
         style="clip-rule:evenodd;fill:#fdfdfd;fill-opacity:1;fill-rule:evenodd;stroke-width:0.26458332" />
    </g>
  </g>
</svg>
