<svg xmlns="http://www.w3.org/2000/svg" width="250" height="250" xmlns:v="https://vecta.io/nano"><circle cx="125" cy="125" r="125" fill="#fcf450"/><path d="M139.107 202.119c-.008-.26.388-2.035.867-3.943 1.272-5.06 1.995-9.196 1.995-11.409 0-2.184-.344-2.975-4.505-10.345-1.447-2.563-3.156-6.193-3.797-8.066-1.067-3.115-1.165-3.773-1.155-7.707.009-3.428.169-4.775.786-6.632.426-1.282.777-2.514.779-2.738s-1.488-1.254-3.311-2.287c-7.302-4.139-8.809-5.644-12.009-12.003-5.071-10.073-7.354-20.401-7.866-35.58-.121-3.598-.266-6.542-.321-6.542s-1.2.231-2.544.513c-3.718.781-11.736 1.637-15.349 1.639-1.775.003-7.421-.427-12.547-.951-10.237-1.047-13.462-.945-17.837.561-1.915.659-2.04.665-1.726.079.965-1.802 6.363-5.944 10.243-7.859 6.056-2.989 10.735-4.119 17.028-4.113 6.412.009 13.23 1.38 20.434 4.12l2.33.886.405-3.236c.371-2.966.348-3.328-.275-4.339-1.293-2.097-2.102-5.485-2.102-8.802 0-6.567 3.387-15.423 5.899-15.423.819 0 1.987 1.315 1.991 2.241.007 1.445 1.637 4.354 3.432 6.121.966.951 3.107 2.696 4.758 3.876l3.001 2.147 1.752-.449c.964-.247 1.752-.568 1.752-.713 0-.245-4.441-3.701-6.458-5.025-.859-.564-.868-.61-.256-1.292.863-.96 3.773-2.508 6.074-3.231 1.333-.418 3.117-.588 6.017-.57 5.122.031 9.683 1.142 14.432 3.515 3.056 1.528 3.294 1.591 3.91 1.034.903-.817.538-1.151-3.303-3.02-3.182-1.548-3.257-1.613-3.063-2.662.109-.591.306-2.245.437-3.673.247-2.703.72-3.521 1.831-3.168.797.253 5.969 5.18 7.663 7.3l1.225 1.533 17.523-13.453L194.92 35c.628 0 1.539.874 1.539 1.476 0 .404-5.338 8.964-11.862 19.024l-11.862 18.29.904.95c1.302 1.367 3.255 4.736 4.553 7.853.617 1.483 1.91 4.071 2.873 5.75 3.158 5.507 4.018 9.958 2.875 14.884l-.4 1.727 2.182 2.396c3.412 3.746 3.709 4.519 3.39 8.832-.146 1.981-.238 6.021-.203 8.979.048 4.145-.185 7.349-1.022 13.981l-1.632 13.552c-.343 3.096-.82 5.581-1.275 6.639a17.86 17.86 0 0 0-1.02 3.541c-.358 2.267-1.093 3.44-2.836 4.53-2.423 1.516-3.451 1.672-10.988 1.672-6.088 0-7.354-.092-8.102-.588-.488-.323-2.5-2.15-4.471-4.059-3.239-3.137-3.969-3.65-7.567-5.327-2.19-1.021-4.155-1.856-4.365-1.856-.746 0-1.807 1.829-2.03 3.502-.518 3.877 1.413 8.722 5.344 13.413l2.306 2.752-.848 3.169c-1.001 3.741-2.516 7.654-4.45 11.491-1.612 3.199-6.839 11.252-6.847 10.548zm33.965-39.855c1.902-1.159 2.673-2.718 2.436-4.917-.3-2.781-1.913-7.544-3.275-9.673s-3.872-4.122-6.244-4.955c-.887-.312-3.307-.648-5.377-.747-4.223-.202-8.208-.784-8.851-1.292-.235-.186-.333-.583-.217-.883.175-.456.715-.507 3.295-.31 3.594.275 14.026-.511 21.189-1.597 4.027-.61 5.291-.961 7.528-2.088 2.216-1.117 2.708-1.521 2.8-2.302.082-.696-.135-1.109-.82-1.558-.873-.572-1.163-.573-4.592-.024-7.506 1.203-22.486 2.634-29.472 2.815-2.695.07-3.058-.016-6.024-1.42-1.736-.822-4.145-2.095-5.353-2.829-2.027-1.231-2.484-1.355-5.903-1.599-4.315-.308-6.197-1.05-8.15-3.211-1.31-1.45-1.682-2.846-.758-2.846.286 0 .944.557 1.463 1.237 1.269 1.664 4.147 3.065 6.295 3.065 3.418 0 9.168-2.419 15.694-6.602 3.231-2.071 5.238-4.068 6.876-6.839 1.181-1.999 2.493-3.006 2.49-1.91-.003.261-.4 1.442-.888 2.625-.992 2.409-1.144 4.372-.416 5.369.712.973 2.545.859 3.733-.233 1.573-1.445 3.293-2.335 6.755-3.495 3.832-1.284 7.872-2.178 9.841-2.178 1.303 0 1.411-.076 1.411-.996 0-1.345-.561-2.094-5.186-6.917-5.767-6.014-7.17-7.998-7.72-10.913-.839-4.448.219-7.962 2.939-9.763 1.343-.889 1.802-.986 4.652-.986 1.87 0 3.161-.146 3.16-.358-.01-1.236-4.092-8.197-4.69-7.991-.167.058-1.397 1.711-2.733 3.674-2.791 4.1-3.24 4.341-7.495 4.029-3.553-.261-5.978-1.48-8.672-4.36-2.228-2.381-3.65-5.262-3.65-7.393v-1.081l-3.137.221c-9.426.664-16.92 2.625-24.15 6.318-4.326 2.21-6.549 3.931-7.779 6.022l-.962 1.636.021 11.472c.028 14.879.807 21.326 3.64 30.112 2.31 7.165 5.412 13.376 7.942 15.906 3.235 3.235 27.584 16.111 34.641 18.319 3.434 1.074 8.59 2.096 10.755 2.131 1.199.019 2.179-.207 2.961-.683zm-34.163-57.861c-2.818-.883-2.9-1.01-1.606-2.484.629-.716 2.159-1.802 3.4-2.413 1.97-.97 2.632-1.111 5.21-1.111 2.592 0 3.235.139 5.264 1.138 2.261 1.113 2.328 1.123 3.057.476.41-.364 1.051-1.345 1.425-2.181 1.011-2.259.441-3.974-2.17-6.526-2.489-2.432-5.553-4.109-9.223-5.048-5.752-1.471-10.266-.444-15.004 3.415-1.089.887-2.063 1.613-2.164 1.613-.671 0 .064-1.633 1.409-3.129 1.858-2.067 4.996-3.742 8.647-4.616 5.138-1.23 13.191-.479 17.291 1.613 2.14 1.092 4.253 3.69 4.701 5.781.946 4.413-1.812 10.012-5.982 12.139-3.096 1.579-11.083 2.326-14.255 1.332zm44.12 54.25c.334-.645.86-3.647 1.272-7.259 1.261-11.043 1.228-10.099.375-10.953-1-1-2.184-.964-4.347.133-2.927 1.483-3.149 2.761-1.36 7.845.982 2.791 1.156 3.796 1.19 6.873.022 1.982.159 3.797.305 4.033.53.857 1.97.481 2.566-.671zm-6.734-27.973c.444-.168.805-.592.802-.942-.009-.75-3.795-4.759-4.499-4.759-.537 0-3.383 4.566-3.383 5.428 0 .301.121.668.268.815.32.32 5.658-.106 6.812-.543zm-18.254-.576l4.779-.976 1.429-2.447c2.01-3.441 1.882-3.705-1.719-3.548-3.35.146-5.721-.644-6.779-2.258-1.278-1.95-1.664-1.897-5.827.809-2.107 1.369-4.686 2.92-5.73 3.445s-2 1.218-2.124 1.54c-.276.72 1.474 2.259 4.003 3.52 2.416 1.205 5.764 1.181 11.968-.085zm26.947-4.029c0-1.667.145-2.233.664-2.599.442-.311.746-1.13.907-2.44.479-3.897.665-7.499.435-8.416-.129-.514-1.485-2.339-3.013-4.056l-2.778-3.122.471-1.792c.259-.986.486-3.164.504-4.84.035-3.351-.724-5.757-3.055-9.679-1.665-2.802-2.838-2.869-6.574-.374-2.825 1.886-3.494 3.304-3.261 6.902.094 1.446.443 3.141.783 3.795l.613 1.182 1.048-.882c1.775-1.493 3.266-1.802 5.53-1.144 1.453.422 2.209.895 2.917 1.822.912 1.195 1.245 2.78.699 3.322-.141.14-1.766.252-3.612.249l-3.357-.009.788.901c.433.495 1.691 1.869 2.794 3.052 2.495 2.676 3.012 4.083 2.507 6.816-.393 2.124-1.048 3.266-2.865 4.992-.61.579-1.108 1.228-1.108 1.442s1.302 1.878 2.893 3.697c2.832 3.238 2.926 3.308 4.481 3.308h1.588v-2.131zm-10.394-70.509c12.722-12.763 14.279-14.433 10.753-11.537l-28.299 23.755c-.457.734-.446.938.098 1.767 1.389 2.12 1.415 2.099 17.448-13.986zM77.132 188.083c-4.343-2.992-6.721-4.933-10.028-8.186-4.175-4.107-7.215-8.282-9.563-13.134-2.584-5.34-3.513-9.217-3.482-14.537.03-5.106.85-8.523 3.184-13.263 1.399-2.841 2.186-3.91 4.753-6.453 3.658-3.624 6.035-5.038 15.164-9.025 9.385-4.098 15.772-7.469 19.599-10.343 1.833-1.376 3.479-2.412 3.658-2.301.425.263.398 6.056-.045 9.479-.798 6.172-3.097 12.913-5.85 17.156-.85 1.31-2.798 3.914-4.329 5.787-6.856 8.39-9.156 12.17-10.751 17.675-2.233 7.707-2.034 15.249.74 27.943.118.542.063.986-.124.986s-1.504-.802-2.928-1.783zm-27.217-33.136c-2.919-3.324-5.694-8.654-6.924-13.297-1.06-4.003-1.316-11.409-.546-15.835 1.226-7.051 4.309-13.608 8.574-18.237 4.893-5.31 10.152-8.18 16.711-9.118 2.334-.334 4.757-.191 14.73.871 8.748.931 17.753.628 25.755-.867.918-.171 1.717-.263 1.776-.204s-4.34 3.609-9.776 7.888c-11.049 8.698-12.316 9.465-23.86 14.435-9.121 3.927-12.586 5.951-16.114 9.416-5.994 5.885-8.987 13.053-9.094 21.777l-.106 4.391c-.029.002-.535-.549-1.125-1.221zm54.592-70.49c-4.993-1.609-10.932-2.572-16.132-2.616-2.76-.023-5.642.086-6.405.243l-1.386.285.801-1.126c1.256-1.764 5.722-5.398 8.784-7.148 3.134-1.791 9.761-4.162 12.684-4.537l1.932-.248-.251 1.338c-.785 4.187-.002 8.869 2.122 12.667.494.883.897 1.666.897 1.74 0 .266-.936.083-3.047-.598z"/></svg>