<?xml version="1.0" encoding="UTF-8"?>
<svg id="Layer_1" xmlns="http://www.w3.org/2000/svg" version="1.1" viewBox="0 0 250 250">
  <!-- Generator: Adobe Illustrator 29.0.1, SVG Export Plug-In . SVG Version: 2.1.0 Build 192)  -->
  <defs>
    <style>
      .st0 {
        fill: none;
      }

      .st1 {
        fill: #fff;
      }

      .st2 {
        fill: #6040ff;
      }
    </style>
  </defs>
  <path class="st2" d="M125,247.5c67.7,0,122.5-54.8,122.5-122.5S192.7,2.5,125,2.5,2.5,57.3,2.5,125s54.8,122.5,122.5,122.5Z"/>
  <polygon class="st1" points="164.3 194.9 164.3 194.9 138.3 191.1 145.8 140.8 91.3 182.7 75.3 161.8 123.1 125 75.3 88.2 91.3 67.3 145.8 109.2 138.3 58.9 164.3 55.1 174.7 125 164.3 194.9"/>
  <polygon class="st0" points="-99 196.8 -99 196.7 -125 192.9 -117.6 142.6 -172 184.5 -188 163.6 -140.3 126.8 -188 90.1 -172 69.2 -117.6 111.1 -125 60.8 -99 56.9 -88.7 126.9 -99 196.8"/>
</svg>