<svg xmlns="http://www.w3.org/2000/svg" width="132" height="132" xmlns:v="https://vecta.io/nano"><circle cx="66" cy="66" r="66" fill-rule="evenodd"/><path d="M84.761 103.915c-5.055-.147-6.073.018-6.59-.841-5.423-8.996-8.351-16.839-11.391-25.956 0-.776-.667-.61-.871.217-1.715 4.794-3.95 10.154-5.75 14.474s-4.184 10.028-5.689 11.118l-1.362.987h-6.918c-7.645 0-8.182-.115-9.642-2.069-.443-.592-1.182-2.342-1.644-3.89s-.427-1.566-1.873-6.29l-5.585-18.372-3.913-12.745-2.245-7.406-1.473-4.895-3.539-11.352c-.295-.817-.356-1.425-.162-1.619.349-.349 16.424-.38 17.326-.034.31.119 0 0 .417.455s4.325 15.362 5.376 18.892 1.214 3.626 2.064 6.952 3.835 15.869 4.792 15.831.86-1.965 1.494-3.418l2.308-5.297c.504-1.092 1.066-2.355 1.657-3.807s.818-2.018 2.623-6.012 6.043-7.412 10.554-7.879c4.081-.422 7.2.46 10.055 2.845 2.453 2.049 3.335 3.692 7.571 14.108 2.032 6.263 3.035 13.273 5.409 5.032l1.137-3.956 8.226-.166c4.524-.091 8.412-.112 8.64-.047.495.141.532 1.116.094 2.507-3.03 9.03-5.044 16.924-7.671 25.169-.521 1.631-1.068 2.738-1.25 3.184s-2.276 3.356-3.205 3.709c-1.373.521-2.655.753-8.965.569zm7.187-42.689c-.399-.253-.421-.538-.124-1.569l5.563-18.473c.617-2.003 1.22-4.124 1.338-4.713s.349-1.155.513-1.256c.505-.312 17.216-.268 17.525.046.168.171.072.405-.359 2.215s-1.649 5.172-2.693 8.508l-3.561 11.509c-.386 1.449.04 0-1.32 3.718h-7.777c-4.255 0-7.935.073-8.178.162s-.66.023-.928-.148z" fill="#fff" stroke="#fff" stroke-width=".331"/></svg>