<?xml version="1.0" encoding="utf-8"?>
<!-- Generator: Adobe Illustrator 22.0.0, SVG Export Plug-In . SVG Version: 6.00 Build 0)  -->
<svg version="1.1" id="WPR" xmlns="http://www.w3.org/2000/svg" xmlns:xlink="http://www.w3.org/1999/xlink" x="0px" y="0px"
	 viewBox="0 0 490 490" style="enable-background:new 0 0 490 490;" xml:space="preserve">
<style type="text/css">
	.st0{fill:#F5E74B;}
	.st1{fill:#FFFFFF;}
</style>
<path id="Full" class="st0" d="M0,245c0,135.1,109.9,245,245,245s245-109.9,245-245S380.1,0,245,0S0,109.9,0,245z"/>
<path id="WPR-2" class="st1" d="M191.1,282.6l21.3-89.7h40.3l21.3,89.7l25.1-89.7h40.4l0.3,1.6l43.5,155.4
	c58.3-75.9,43.7-184.4-32.6-242.4C287,59.3,198.8,60.3,136.4,110L191.1,282.6z M319.2,248.5l-21.1,75.3l-0.3,1.6h-45.1l-20.1-73.7
	l-20.1,73.7h-45.1l-0.3-1.6l-58.3-186.3c-59.4,74.4-47.1,182.9,27.3,242.2c0.3,0.3,0.7,0.6,1.1,0.8c64.3,50.6,155.2,49.8,218.6-2
	L319.2,248.5z"/>
</svg>
