<svg id="WPR" xmlns="http://www.w3.org/2000/svg" width="512" height="512" viewBox="0 0 512 512">
  <defs>
    <style>
      .cls-1 {
        fill: #f5e74b;
      }

      .cls-1, .cls-2 {
        fill-rule: evenodd;
      }

      .cls-2 {
        fill: #fff;
      }
    </style>
  </defs>
  <path id="Full" class="cls-1" d="M11,256c0,135.094,109.906,245,245,245S501,391.094,501,256,391.094,11,256,11,11,120.906,11,256Z"/>
  <path id="WPR-2" data-name="WPR" class="cls-2" d="M202.116,293.63l21.262-89.692h40.268l21.261,89.692,25.128-89.692h40.429l0.322,1.6L394.275,360.9c58.3-75.9,43.685-184.417-32.641-242.387a174.679,174.679,0,0,0-214.282,2.46Zm128.052-34.115-21.1,75.277-0.322,1.6h-45.1l-20.134-73.676-20.134,73.676h-45.1l-0.323-1.6L119.647,148.521a172.358,172.358,0,0,0,28.345,243.051,174.761,174.761,0,0,0,218.579-2Z"/>
</svg>
