<?xml version="1.0" encoding="UTF-8" standalone="no"?>
<svg
   width="256"
   height="256"
   version="1.1"
   id="svg8"
   sodipodi:docname="WRX_BEP20.svg"
   inkscape:version="1.1 (c68e22c387, 2021-05-23)"
   xmlns:inkscape="http://www.inkscape.org/namespaces/inkscape"
   xmlns:sodipodi="http://sodipodi.sourceforge.net/DTD/sodipodi-0.dtd"
   xmlns="http://www.w3.org/2000/svg"
   xmlns:svg="http://www.w3.org/2000/svg">
  <defs
     id="defs12" />
  <sodipodi:namedview
     id="namedview10"
     pagecolor="#ffffff"
     bordercolor="#666666"
     borderopacity="1.0"
     inkscape:pageshadow="2"
     inkscape:pageopacity="0.0"
     inkscape:pagecheckerboard="0"
     showgrid="false"
     inkscape:zoom="3.4101562"
     inkscape:cx="128"
     inkscape:cy="128"
     inkscape:window-width="2560"
     inkscape:window-height="1361"
     inkscape:window-x="-9"
     inkscape:window-y="-9"
     inkscape:window-maximized="1"
     inkscape:current-layer="svg8" />
  <circle
     cx="128"
     cy="128"
     r="118"
     fill="#2f67ef"
     paint-order="stroke fill markers"
     id="circle2" />
  <path
     d="M126.162 48l-49.632 84.64-22.984 40.48 22.743-.261 28.732-20.779 61.586-46.12-25.981-37.246L126.162 48M37 78.36l7.354 85.56 7.138-13.101 22.214-39.857 1.727-2.886L37 78.36m182 2.76l-77.212 57.845-44.121 34.155h113.98c3.021-29.451 4.55-62.471 7.354-92M44.354 185.28V200h166.535v-14.72z"
     fill="#fff"
     id="path4" />
  <path
     d="M128 11.485C63.753 11.485 11.485 63.753 11.485 128S63.753 244.516 128 244.516 244.516 192.247 244.516 128 192.247 11.485 128 11.485M128 0c70.527 0 128 57.468 128 128s-57.468 128-128 128S0 198.53 0 128 57.473 0 128 0z"
     fill="#474747"
     id="path6"
     style="fill:#e8a607;fill-opacity:1" />
</svg>
