<svg xmlns="http://www.w3.org/2000/svg" xmlns:xlink="http://www.w3.org/1999/xlink" width="245" height="245" viewBox="0 0 245 245">
  <defs>
    <linearGradient id="linear-gradient" x1="0.907" y1="1.512" x2="0.355" y2="-3.91" gradientUnits="objectBoundingBox">
      <stop offset="0" stop-color="#00ffa3"/>
      <stop offset="1" stop-color="#dc1fff"/>
    </linearGradient>
    <linearGradient id="linear-gradient-2" x1="0.666" y1="5.175" x2="0.114" y2="-0.247" xlink:href="#linear-gradient"/>
    <linearGradient id="linear-gradient-3" x1="0.786" y1="3.356" x2="0.234" y2="-2.067" xlink:href="#linear-gradient"/>
  </defs>
  <g id="SOL-black" transform="translate(-12683 -6701)">
    <g id="BNB" transform="translate(12683 6701)">
      <path id="Main_copy_14" d="M0,122.5C0,190,55,245,122.5,245S245,190,245,122.5,190,0,122.5,0,0,55,0,122.5Z" fill="#fff"/>
    </g>
    <g id="Main_copy_14" transform="translate(12683 6701)" fill="none">
      <path d="M0,122.4c0,67.444,54.954,122.4,122.4,122.4s122.4-54.954,122.4-122.4S189.841,0,122.4,0,0,54.954,0,122.4Z" stroke="none"/>
      <path d="M 122.4000015258789 11 C 60.97383117675781 11 11 60.97383117675781 11 122.4000015258789 C 11 183.826171875 60.97383117675781 233.8000030517578 122.4000015258789 233.8000030517578 C 183.826171875 233.8000030517578 233.8000030517578 183.826171875 233.8000030517578 122.4000015258789 C 233.8000030517578 60.97383117675781 183.826171875 11 122.4000015258789 11 M 122.4000015258789 0 C 189.8410034179688 0 244.8000030517578 54.95399475097656 244.8000030517578 122.4000015258789 C 244.8000030517578 189.8460083007813 189.8460083007813 244.8000030517578 122.4000015258789 244.8000030517578 C 54.95399475097656 244.8000030517578 0 189.843994140625 0 122.4000015258789 C 0 54.95399475097656 54.95899963378906 0 122.4000015258789 0 Z" stroke="none" fill="#1ae5ae"/>
    </g>
    <g id="solana-sol-logo" transform="translate(12735.131 6768.735)">
      <path id="Path_472470" data-name="Path 472470" d="M22.894,235.447a4.614,4.614,0,0,1,3.262-1.347H138.707a2.3,2.3,0,0,1,1.631,3.936L118.1,260.27a4.614,4.614,0,0,1-3.262,1.348H2.292a2.3,2.3,0,0,1-1.631-3.936Z" transform="translate(0 -151.088)" fill="url(#linear-gradient)"/>
      <path id="Path_472471" data-name="Path 472471" d="M22.894,1.347A4.742,4.742,0,0,1,26.157,0H138.707a2.3,2.3,0,0,1,1.631,3.936L118.1,26.17a4.614,4.614,0,0,1-3.262,1.347H2.292A2.3,2.3,0,0,1,.661,23.581Z" transform="translate(0)" fill="url(#linear-gradient-2)"/>
      <path id="Path_472472" data-name="Path 472472" d="M118.1,117.647a4.614,4.614,0,0,0-3.262-1.347H2.292a2.3,2.3,0,0,0-1.631,3.936L22.894,142.47a4.614,4.614,0,0,0,3.262,1.348H138.707a2.3,2.3,0,0,0,1.631-3.936Z" transform="translate(0 -75.06)" fill="url(#linear-gradient-3)"/>
    </g>
  </g>
</svg>