<?xml version="1.0" encoding="UTF-8" standalone="no"?>
<svg
   xmlns:dc="http://purl.org/dc/elements/1.1/"
   xmlns:cc="http://creativecommons.org/ns#"
   xmlns:rdf="http://www.w3.org/1999/02/22-rdf-syntax-ns#"
   xmlns:svg="http://www.w3.org/2000/svg"
   xmlns="http://www.w3.org/2000/svg"
   xmlns:xlink="http://www.w3.org/1999/xlink"
   xmlns:sodipodi="http://sodipodi.sourceforge.net/DTD/sodipodi-0.dtd"
   xmlns:inkscape="http://www.inkscape.org/namespaces/inkscape"
   width="245"
   height="245"
   viewBox="0 0 245 245"
   version="1.1"
   id="svg24"
   sodipodi:docname="WSOL.svg"
   inkscape:version="1.0.2-2 (e86c870879, 2021-01-15)">
  <metadata
     id="metadata28">
    <rdf:RDF>
      <cc:Work
         rdf:about="">
        <dc:format>image/svg+xml</dc:format>
        <dc:type
           rdf:resource="http://purl.org/dc/dcmitype/StillImage" />
      </cc:Work>
    </rdf:RDF>
  </metadata>
  <sodipodi:namedview
     pagecolor="#ffffff"
     bordercolor="#666666"
     borderopacity="1"
     objecttolerance="10"
     gridtolerance="10"
     guidetolerance="10"
     inkscape:pageopacity="0"
     inkscape:pageshadow="2"
     inkscape:window-width="1920"
     inkscape:window-height="1017"
     id="namedview26"
     showgrid="false"
     inkscape:zoom="3.4693878"
     inkscape:cx="122.5"
     inkscape:cy="122.5"
     inkscape:window-x="-8"
     inkscape:window-y="-8"
     inkscape:window-maximized="1"
     inkscape:current-layer="SOL-black" />
  <defs
     id="defs9">
    <linearGradient
       id="linear-gradient"
       x1="0.907"
       y1="1.512"
       x2="0.355"
       y2="-3.91"
       gradientUnits="objectBoundingBox">
      <stop
         offset="0"
         stop-color="#00ffa3"
         id="stop2" />
      <stop
         offset="1"
         stop-color="#dc1fff"
         id="stop4" />
    </linearGradient>
    <linearGradient
       id="linear-gradient-2"
       x1="0.666"
       y1="5.175"
       x2="0.114"
       y2="-0.247"
       xlink:href="#linear-gradient" />
    <linearGradient
       id="linear-gradient-3"
       x1="0.786"
       y1="3.356"
       x2="0.234"
       y2="-2.067"
       xlink:href="#linear-gradient" />
  </defs>
  <g
     id="SOL-black"
     transform="translate(-12683,-6701)">
    <g
       id="BNB"
       transform="translate(12683,6701)">
      <path
         id="Main_copy_14"
         d="M 0,122.5 C 0,190 55,245 122.5,245 190,245 245,190 245,122.5 245,55 190,0 122.5,0 55,0 0,55 0,122.5 Z"
         fill="#fff" />
    </g>
    <g
       id="solana-sol-logo"
       transform="translate(12735.131,6768.735)">
      <path
         id="Path_472470"
         data-name="Path 472470"
         d="m 22.894,235.447 a 4.614,4.614 0 0 1 3.262,-1.347 h 112.551 a 2.3,2.3 0 0 1 1.631,3.936 L 118.1,260.27 a 4.614,4.614 0 0 1 -3.262,1.348 H 2.292 a 2.3,2.3 0 0 1 -1.631,-3.936 z"
         transform="translate(0,-151.088)"
         fill="url(#linear-gradient)" />
      <path
         id="Path_472471"
         data-name="Path 472471"
         d="M 22.894,1.347 A 4.742,4.742 0 0 1 26.157,0 h 112.55 a 2.3,2.3 0 0 1 1.631,3.936 L 118.1,26.17 a 4.614,4.614 0 0 1 -3.262,1.347 H 2.292 A 2.3,2.3 0 0 1 0.661,23.581 Z"
         fill="url(#linear-gradient-2)" />
      <path
         id="Path_472472"
         data-name="Path 472472"
         d="M 118.1,117.647 A 4.614,4.614 0 0 0 114.838,116.3 H 2.292 a 2.3,2.3 0 0 0 -1.631,3.936 l 22.233,22.234 a 4.614,4.614 0 0 0 3.262,1.348 h 112.551 a 2.3,2.3 0 0 0 1.631,-3.936 z"
         transform="translate(0,-75.06)"
         fill="url(#linear-gradient-3)" />
    </g>
  </g>
</svg>
