<?xml version="1.0" encoding="UTF-8"?>
<svg id="Layer_1" xmlns="http://www.w3.org/2000/svg" version="1.1" viewBox="0 0 250 250">
  <!-- Generator: Adobe Illustrator 29.0.1, SVG Export Plug-In . SVG Version: 2.1.0 Build 192)  -->
  <defs>
    <style>
      .st0 {
        fill: #fff;
        fill-rule: evenodd;
      }

      .st1 {
        fill: #d3b25a;
      }
    </style>
  </defs>
  <g id="Layer_1-2">
    <g>
      <circle class="st1" cx="125" cy="125" r="122.5"/>
      <path class="st0" d="M125.2,133.8c21.1,0,38.7-3.6,43-8.3-3.7-4-16.9-7.2-33.7-8.1v10.1c-3,.2-6.1.2-9.3.2s-6.3,0-9.3-.2v-10.1c-16.8.9-30,4-33.7,8.1,4.3,4.8,21.9,8.3,43,8.3h0ZM162.6,86.4v13.8h-28.1v9.6c19.7,1,34.6,5.2,34.7,10.3v10.5c-.1,5.1-14.9,9.3-34.7,10.3v23.6h-18.7v-23.6c-19.7-1-34.5-5.2-34.7-10.3v-10.5c.1-5.1,14.9-9.3,34.7-10.3v-9.6h-28.1v-13.8h74.9,0ZM76.7,64.4h98.7c2.4,0,4.5,1.2,5.7,3.3l28.7,49.4c1.5,2.6,1,5.8-1.1,7.9l-79.1,77.2c-2.6,2.5-6.7,2.5-9.2,0L41.3,125c-2.2-2.1-2.6-5.4-1-8l30.7-49.5c1.2-1.9,3.3-3.1,5.6-3.1h0Z"/>
    </g>
  </g>
</svg>