<svg id="coinmetro-white" xmlns="http://www.w3.org/2000/svg" width="246.261" height="244.754" viewBox="0 0 246.261 244.754">
  <path id="Path_452956" data-name="Path 452956" d="M123.13,0c67.778,0,123.13,54.976,123.13,122.377S190.908,244.754,123.13,244.754C54.976,244.754,0,190.155,0,122.377S54.976,0,123.13,0Z" transform="translate(0 0)" fill="#fecc47"/>
  <path id="Path_452957" data-name="Path 452957" d="M109.3,5c57.611,0,104.3,46.315,104.3,103.55S166.538,212.476,109.3,212.476C51.692,212.476,5,165.785,5,108.55S51.692,5,109.3,5Z" transform="translate(13.827 13.827)" fill="#fecc47"/>
  <path id="Path_452958" data-name="Path 452958" d="M110.962,216.018C52.221,216.018,4.4,168.574,4.4,110.209S52.221,4.4,110.962,4.4,217.525,51.845,217.525,110.209,169.327,216.018,110.962,216.018Zm0-207.1C54.857,8.919,9.3,54.481,9.3,110.209S54.857,211.5,110.962,211.5,212.63,165.938,212.63,110.209,167.068,8.919,110.962,8.919Z" transform="translate(12.168 12.168)" fill="#fff"/>
  <path id="Path_452959" data-name="Path 452959" d="M112.63,120.856H22.259A2.43,2.43,0,0,1,20,118.6V39.522A23.709,23.709,0,0,1,44.1,15.8H91.167a23.946,23.946,0,0,1,24.1,23.722V118.6a2.819,2.819,0,0,1-2.636,2.259ZM24.9,116.338h85.476V39.9a19.285,19.285,0,0,0-19.2-19.2H44.1A19.285,19.285,0,0,0,24.9,39.9Z" transform="translate(55.309 43.694)" fill="#fff"/>
  <path id="Path_452960" data-name="Path 452960" d="M42.782,97.8a9.322,9.322,0,0,1-9.414-9.414h0a9.322,9.322,0,0,1,9.414-9.414h0A9.322,9.322,0,0,1,52.2,88.384h0A9.564,9.564,0,0,1,42.782,97.8Zm0-14.309a4.9,4.9,0,1,0,4.9,4.9c-.377-3.012-2.259-4.9-4.9-4.9ZM90.979,97.8a9.322,9.322,0,0,1-9.414-9.414h0a9.322,9.322,0,0,1,9.414-9.414h0a9.322,9.322,0,0,1,9.414,9.414h0A9.322,9.322,0,0,1,90.979,97.8Zm0-14.309a4.9,4.9,0,1,0,4.9,4.9,4.746,4.746,0,0,0-4.9-4.9ZM80.436,23.619H52.948a2.43,2.43,0,0,1-2.259-2.259A2.43,2.43,0,0,1,52.948,19.1H80.436A2.43,2.43,0,0,1,82.7,21.359,2.17,2.17,0,0,1,80.436,23.619ZM110.56,133.57a2.876,2.876,0,0,1-1.883-.753l-14.685-20.71a2.2,2.2,0,1,1,3.765-2.259l14.685,20.71a2.035,2.035,0,0,1-.753,3.012Zm-87.735,0a2.846,2.846,0,0,1-1.506-.377,2.46,2.46,0,0,1-.753-3.012l14.685-20.71c.753-1.13,2.259-1.506,3.012-.753s1.506,2.259.753,3.012L24.331,132.44c0,.753-.753,1.13-1.506,1.13Z" transform="translate(56.25 52.82)" fill="#fff"/>
  <path id="Path_452961" data-name="Path 452961" d="M27.531,115.954a2.846,2.846,0,0,1-1.506-.377,2.46,2.46,0,0,1-.753-3.012l10.92-15.438c.753-1.13,2.259-1.506,3.012-.753s1.506,2.259.753,3.012l-10.92,15.438C29.037,115.577,28.284,115.954,27.531,115.954Zm85.1-87.735H22.259A2.43,2.43,0,0,1,20,25.959,2.43,2.43,0,0,1,22.259,23.7H112.63a2.43,2.43,0,0,1,2.259,2.259A2.17,2.17,0,0,1,112.63,28.219Zm0,28.994H22.259a2.259,2.259,0,1,1,0-4.519H112.63a2.43,2.43,0,0,1,2.259,2.259A2.17,2.17,0,0,1,112.63,57.213Z" transform="translate(55.309 65.541)" fill="#fff"/>
  <path id="Path_452962" data-name="Path 452962" d="M39.851,53.311c-.753,0-1.13,0-1.506-.753a1.991,1.991,0,0,1-.377-3.012L48.511,37.873c.753-.753,2.259-1.13,3.012,0,.753.753,1.13,2.259,0,3.012L40.98,52.558C40.98,52.935,40.227,53.311,39.851,53.311Zm13.556,0c-.753,0-1.13,0-1.506-.753-.753-.753-1.13-2.259,0-3.012L72.987,25.824c.753-.753,2.259-1.13,3.012,0,.753.753,1.13,2.259,0,3.012L54.913,52.558A1.956,1.956,0,0,1,53.406,53.311Zm43.3,48.951h-65.9a2.259,2.259,0,1,1,0-4.519h65.9A2.43,2.43,0,0,1,98.968,100,2.17,2.17,0,0,1,96.709,102.262Zm7.154,9.79h-80.2a2.259,2.259,0,1,1,0-4.519h80.2a2.43,2.43,0,0,1,2.259,2.259C106.5,110.923,105.37,112.053,103.863,112.053Z" transform="translate(59.181 69.442)" fill="#fff"/>
  <path id="Path_452963" data-name="Path 452963" d="M100.73,191.854c-51.21,0-92.63-41.043-92.63-91.877C8.1,49.52,49.52,8.1,100.354,8.1s92.254,41.043,92.254,91.877A91.76,91.76,0,0,1,100.73,191.854Zm0-179.236A87.5,87.5,0,0,0,13,99.977c0,48.2,39.537,87.358,87.735,87.358s87.735-39.161,87.735-87.358S148.928,12.619,100.73,12.619Z" transform="translate(22.4 22.4)" fill="#fff"/>
</svg>
