<?xml version="1.0" encoding="UTF-8"?><svg id="CIRCLE_OUTLINE_BLACK" xmlns="http://www.w3.org/2000/svg" viewBox="0 0 512 512"><circle cx="256" cy="256" r="256" fill="#000" stroke-width="0"/><path d="M130.96281,256.8045c0-19.39203,4.42937-37.76,12.31375-54.14398l-45.28625-45.28641c-18.16313,28.78719-28.67188,62.88641-28.67188,99.43039,0,35.89117,10.1375,69.41438,27.71187,97.86875l45.44-45.44c-7.38563-15.93594-11.5075-33.70234-11.5075-52.42875Z" fill="#fff" stroke-width="0"/><path d="M414.43219,158.28286l-45.35063,45.3632c7.59062,16.12805,11.82688,34.15039,11.82688,53.15844,0,18.66234-4.09563,36.37758-11.44313,52.28797l45.45312,45.45281c17.52312-28.42883,27.6225-61.90078,27.6225-97.74078,0-36.16-10.29125-69.92641-28.10875-98.52164Z" fill="#fff" stroke-width="0"/><path d="M302.79031,256.17731l61.56812-61.56805,44.6075-44.60797c-12.71-18.18883-28.595-34.00961-46.835-46.66883-30.14375-20.88953-66.73875-33.13914-106.20125-33.13914-39.38562,0-75.93,12.21117-106.06125,33.06234-2.4575,1.70242-4.86375,3.45602-7.23188,5.27359-15.24437,11.64805-28.63375,25.6-39.65437,41.33125l44.60812,44.62078,61.70875,61.69602-62.15688,62.1568-44.67188,44.67195c10.7775,15.53922,23.85938,29.37602,38.74562,40.98563,2.58562,2.02242,5.2225,3.96797,7.91,5.84961,30.25938,21.15836,67.085,33.57438,106.80375,33.57438,39.7825,0,76.64625-12.44156,106.93125-33.66398,18.18875-12.7232,33.99625-28.62078,46.6175-46.88641l-44.6725-44.67203-62.01562-62.01594ZM194.54094,147.9277c18.12437-10.25281,39.07812-16.10242,61.38875-16.10242,22.37438,0,43.36625,5.87523,61.52938,16.17922l-61.41438,61.42711-61.50375-61.50391ZM255.92969,381.78371c-22.64375,0-43.87875-6.01602-62.19563-16.55047l62.31063-62.31031,62.22062,62.22078c-18.3425,10.58555-39.62875,16.64-62.33562,16.64Z" fill="#fff" stroke-width="0"/></svg>