<svg xmlns="http://www.w3.org/2000/svg" width="250" height="250" xmlns:v="https://vecta.io/nano"><path d="M107.351 6.155C90.11 8.823 73.147 14.92 58.575 24.508c-68.913 45.339-71.816 147.401-5.973 196.826 12.934 9.709 28.115 16.414 43.8 20.289 15.33 3.787 31.211 4.328 46.786 1.929 17.135-2.641 33.16-8.71 47.781-17.956 12.997-8.218 24.705-19.337 33.328-32.043 47.505-69.989 9.423-168.988-75.137-186.052-12.927-2.608-28.704-3.375-41.809-1.346m8.959 55.916v31.635c0 6.366.562 12.839-2.178 18.783-21.091 38.499-71.937-1.938-39.627-31.993 3.74-2.68 8.385-4.309 12.937-4.926 5.885-.797 11.529 1.244 16.923 3.307V62.07h11.945m69.681 5.932v12.852h-17.918c12.709 22.421-10.97 49.205-34.841 36.751-17.173-8.96-17.566-35.64-.995-45.426 6.435-6.652 37.968-4.176 53.754-4.176m-45.789 13.586c-17.224 6.569-6.009 32.529 10.948 26.063 17.368-6.622 6.195-32.601-10.948-26.063m-55.745 7.035c-17.31 6.996-4.953 33.187 11.93 25.755 16.517-7.271 5.013-32.603-11.93-25.755m61.717 82.193l-.352 17.717c-3.223-.135-5.475.077-12.589.077.319-16.22-1.293-42.591 3.517-53.384 9.681-16.892 37.383-16.46 46.256.989 11.906 23.415-14.362 47.163-36.832 34.601M63.552 181.69v-12.852H81.47c-11.816-22.383 10.994-48.71 34.841-36.582 17.716 9.01 18.683 36.861.995 45.941-14.018 7.196-39.414 3.445-53.754 3.493m92.576-46.924c-17.947 4.252-10.804 32.14 6.968 27.589 17.93-4.591 10.982-31.842-6.968-27.589m-55.745 6.944c-17.598 4.563-10.532 31.599 6.968 27.587 18.245-4.184 11.091-32.27-6.968-27.587z" fill="#288ec1"/></svg>