<svg id="XEM" xmlns="http://www.w3.org/2000/svg" width="512" height="512" viewBox="0 0 512 512">
  <defs>
    <style>
      .cls-1 {
        fill: #211f33;
      }

      .cls-1, .cls-2 {
        fill-rule: evenodd;
      }

      .cls-2 {
        fill: #fff;
      }
    </style>
  </defs>
  <path id="Full" class="cls-1" d="M11,256c0,135.094,109.906,245,245,245S501,391.094,501,256,391.094,11,256,11,11,120.906,11,256Z"/>
  <path id="XEM-2" data-name="XEM" class="cls-2" d="M256.606,420.008c0.594-.4,1.386-0.791,1.98-1.187a283.6,283.6,0,0,0,53.086-40.145,21.572,21.572,0,0,0,2.575-3.362c0.991-1.978,2.179-4.153,3.17-6.131,7.725-16.018,9.309-32.432,4.159-49.44a67.71,67.71,0,0,0-73.686-47.857,68.473,68.473,0,0,0-25.553,8.5,82,82,0,0,1-73.29,4.153,84.425,84.425,0,0,1-17.233-10.283,5.482,5.482,0,0,0-1.585-.989,6.7,6.7,0,0,0,.594,1.582,279.221,279.221,0,0,0,25.354,49.638,296.215,296.215,0,0,0,37.438,47.066,287.689,287.689,0,0,0,46.351,38.366c7.33,4.746,14.461,9.1,16.64,10.086m80.025-68.228a4.042,4.042,0,0,0,1.584-1.582q9.212-11.568,17.234-23.731a288.787,288.787,0,0,0,40.012-96.111,267.854,267.854,0,0,0,5.348-35.4Q402,182.8,402,170.633a3.848,3.848,0,0,0-.2-1.582,20.787,20.787,0,0,1-2.179-1.385c-6.339-3.559-12.677-6.921-19.214-9.888-9.508-4.35-19.016-8.5-28.92-11.47a64.238,64.238,0,0,0-36.645-1.582,67.788,67.788,0,0,0-50.907,78.115c3.763,19.578,14.261,34.806,31.1,45.485,1.189,0.791,2.377,1.384,3.368,2.175a81.025,81.025,0,0,1,38.626,73.369,58.461,58.461,0,0,1-.4,7.91M111.015,168.655v1.978A311.951,311.951,0,0,0,113,204.054c1.188,10.086,2.971,19.974,5.15,29.862a21.022,21.022,0,0,0,1.783,4.944A68.227,68.227,0,0,0,247.3,228.774a97.08,97.08,0,0,0,2.773-19.974,96.736,96.736,0,0,1,1.387-13.25,80.581,80.581,0,0,1,48.332-59.525,28.165,28.165,0,0,1,4.357-1.582c0.2,0,.6-0.2.4-0.4-3.962-1.384-27.732-3.757-41.994-3.955a288.852,288.852,0,0,0-89.929,12.261,272.667,272.667,0,0,0-61.6,26.3"/>
</svg>
