<?xml version="1.0" encoding="utf-8"?>
<!-- Generator: Adobe Illustrator 22.0.0, SVG Export Plug-In . SVG Version: 6.00 Build 0)  -->
<svg version="1.1" id="XEM" xmlns="http://www.w3.org/2000/svg" xmlns:xlink="http://www.w3.org/1999/xlink" x="0px" y="0px"
	 viewBox="0 0 490 490" style="enable-background:new 0 0 490 490;" xml:space="preserve">
<style type="text/css">
	.st0{fill:#211F33;}
	.st1{fill:#FFFFFF;}
</style>
<path id="Full" class="st0" d="M0,245c0,135.1,109.9,245,245,245s245-109.9,245-245S380.1,0,245,0S0,109.9,0,245z"/>
<path id="XEM-2" class="st1" d="M245.6,409c0.6-0.4,1.4-0.8,2-1.2c19.2-11.3,37-24.7,53.1-40.1c1-1,1.8-2.2,2.6-3.4
	c1-2,2.2-4.2,3.2-6.1c7.7-16,9.3-32.4,4.2-49.4c-9.5-31.9-40.7-52.2-73.7-47.9c-9,1.1-17.7,4-25.6,8.5
	c-22.4,12.9-49.6,14.4-73.3,4.2c-6.1-2.7-11.9-6.2-17.2-10.3c-0.5-0.4-1-0.8-1.6-1c0.1,0.6,0.3,1.1,0.6,1.6
	c6.8,17.4,15.3,34,25.4,49.6c10.9,16.9,23.4,32.7,37.4,47.1c14.1,14.4,29.6,27.2,46.4,38.4C236.3,403.7,243.4,408,245.6,409
	 M325.6,340.8c0.7-0.4,1.2-0.9,1.6-1.6c6.1-7.7,11.9-15.6,17.2-23.7c19-29.3,32.6-61.9,40-96.1c2.6-11.7,4.4-23.5,5.3-35.4
	c0.8-8.1,1.2-16.2,1.2-24.3c0-0.5,0-1.1-0.2-1.6c-0.8-0.4-1.5-0.9-2.2-1.4c-6.3-3.6-12.7-6.9-19.2-9.9c-9.5-4.4-19-8.5-28.9-11.5
	c-11.8-4.1-24.5-4.6-36.6-1.6c-35,8.4-57.4,42.7-50.9,78.1c3.8,19.6,14.3,34.8,31.1,45.5c1.2,0.8,2.4,1.4,3.4,2.2
	c25.4,15.5,40.2,43.7,38.6,73.4C326.1,335.5,325.9,338.2,325.6,340.8 M100,157.7v2c0.1,11.2,0.7,22.3,2,33.4c1.2,10.1,3,20,5.2,29.9
	c0.4,1.7,1,3.4,1.8,4.9c16,34.1,56.6,48.8,90.7,32.9c17.8-8.4,31.2-24,36.7-43c1.6-6.5,2.5-13.2,2.8-20c0.2-4.4,0.6-8.9,1.4-13.2
	c5-26.7,23.2-49.1,48.3-59.5c1.4-0.6,2.9-1.2,4.4-1.6c0.2,0,0.6-0.2,0.4-0.4c-4-1.4-27.7-3.8-42-4c-30.4-0.7-60.8,3.5-89.9,12.3
	C140.1,137.6,119.4,146.4,100,157.7"/>
</svg>
