<?xml version="1.0" encoding="UTF-8" standalone="no"?>
<!-- Generator: Adobe Illustrator 22.0.0, SVG Export Plug-In . SVG Version: 6.00 Build 0)  -->

<svg
   version="1.1"
   id="_0xBTC"
   x="0px"
   y="0px"
   viewBox="0 0 491.33859 491.33859"
   xml:space="preserve"
   sodipodi:docname="OPUL.svg"
   width="491.33859"
   height="491.33859"
   inkscape:version="1.1.1 (c3084ef, 2021-09-22)"
   xmlns:inkscape="http://www.inkscape.org/namespaces/inkscape"
   xmlns:sodipodi="http://sodipodi.sourceforge.net/DTD/sodipodi-0.dtd"
   xmlns="http://www.w3.org/2000/svg"
   xmlns:svg="http://www.w3.org/2000/svg"><defs
   id="defs831" /><sodipodi:namedview
   id="namedview829"
   pagecolor="#ffffff"
   bordercolor="#666666"
   borderopacity="1.0"
   inkscape:pageshadow="2"
   inkscape:pageopacity="0.0"
   inkscape:pagecheckerboard="0"
   showgrid="false"
   inkscape:zoom="0.89230539"
   inkscape:cx="224.69886"
   inkscape:cy="139.52622"
   inkscape:window-width="1624"
   inkscape:window-height="997"
   inkscape:window-x="56"
   inkscape:window-y="25"
   inkscape:window-maximized="1"
   inkscape:current-layer="_0xBTC" />
<style
   type="text/css"
   id="style824">
	.st0{fill:#FF7F00;}
	.st1{fill:#FFFFFF;}
</style>
<path
   id="Full"
   class="st0"
   d="m 0,245.66929 c 0,135.46907 110.20022,245.66929 245.66929,245.66929 135.46907,0 245.66929,-110.20022 245.66929,-245.66929 C 491.33858,110.20022 381.13836,0 245.66929,0 110.20022,0 0,110.20022 0,245.66929 Z"
   style="fill:#ffffff;stroke-width:1.00273" />

<g
   transform="matrix(0.14262151,0,0,-0.14262151,-39.24282,530.91001)"
   fill="#000000"
   stroke="none"
   id="g916"><path
     d="m 803,3045 c -11,-8 -23,-26 -26,-40 -5,-30 -4,-32 338,-523 116,-166 234,-336 263,-378 28,-42 52,-87 52,-100 0,-22 -41,-86 -188,-299 -35,-49 -107,-153 -160,-231 -53,-77 -137,-198 -187,-269 -119,-171 -125,-182 -113,-218 6,-16 21,-33 35,-38 38,-14 774,-11 794,4 8,7 50,62 92,122 154,223 232,336 424,610 107,154 200,290 206,303 14,29 -2,62 -80,167 -33,44 -191,261 -352,482 -160,222 -300,407 -311,413 -12,6 -157,10 -392,10 -313,0 -377,-2 -395,-15 z"
     id="path912" /><path
     d="m 2295,3042 c -17,-11 -55,-54 -85,-98 -30,-43 -83,-119 -117,-167 l -64,-88 27,-34 c 14,-19 30,-35 35,-35 7,0 85,104 203,273 l 47,67 h 375 c 317,0 375,-2 380,-14 3,-9 -38,-78 -98,-166 -113,-164 -250,-364 -386,-562 -48,-70 -95,-142 -105,-160 -34,-63 -33,-66 229,-434 77,-109 243,-340 337,-471 50,-70 58,-98 30,-104 -10,-2 -184,-2 -387,1 l -369,5 -131,182 c -72,100 -134,182 -138,182 -4,1 -19,-17 -34,-38 l -26,-39 132,-181 c 72,-100 141,-188 153,-196 18,-13 82,-15 425,-15 442,0 446,1 477,60 31,59 21,97 -53,200 -458,639 -562,787 -562,796 0,6 68,108 139,209 19,28 72,104 117,170 80,118 202,296 298,435 34,50 50,83 53,114 5,39 2,48 -30,82 l -35,39 -404,3 c -378,2 -405,1 -433,-16 z"
     id="path914" /></g></svg>
