<?xml version="1.0" encoding="UTF-8" standalone="no"?>
<svg
   xmlns:dc="http://purl.org/dc/elements/1.1/"
   xmlns:cc="http://creativecommons.org/ns#"
   xmlns:rdf="http://www.w3.org/1999/02/22-rdf-syntax-ns#"
   xmlns:svg="http://www.w3.org/2000/svg"
   xmlns="http://www.w3.org/2000/svg"
   xmlns:sodipodi="http://sodipodi.sourceforge.net/DTD/sodipodi-0.dtd"
   xmlns:inkscape="http://www.inkscape.org/namespaces/inkscape"
   viewBox="0 0 80 80"
   overflow="visible"
   version="1.1"
   id="svg6"
   sodipodi:docname="XHT.svg"
   inkscape:version="1.0.2-2 (e86c870879, 2021-01-15)">
  <metadata
     id="metadata12">
    <rdf:RDF>
      <cc:Work
         rdf:about="">
        <dc:format>image/svg+xml</dc:format>
        <dc:type
           rdf:resource="http://purl.org/dc/dcmitype/StillImage" />
      </cc:Work>
    </rdf:RDF>
  </metadata>
  <defs
     id="defs10" />
  <sodipodi:namedview
     pagecolor="#ffffff"
     bordercolor="#666666"
     borderopacity="1"
     objecttolerance="10"
     gridtolerance="10"
     guidetolerance="10"
     inkscape:pageopacity="0"
     inkscape:pageshadow="2"
     inkscape:window-width="1920"
     inkscape:window-height="1017"
     id="namedview8"
     showgrid="false"
     inkscape:zoom="5.3125"
     inkscape:cx="32.034428"
     inkscape:cy="37.988775"
     inkscape:window-x="-8"
     inkscape:window-y="-8"
     inkscape:window-maximized="1"
     inkscape:current-layer="svg6" />
  <circle
     cx="40"
     cy="40"
     r="40"
     fill="#1d1d1d"
     id="circle2"
     style="fill:#ffffff" />
  <path
     d="M 50.028571,13.636364 71.651947,39.935065 50.028571,66.233766 H 29.963636 L 8.34026,40 29.963636,13.701299 H 50.028571 M 51.781818,10 H 28.210389 L 3.6,40 28.210389,70 H 51.781818 L 76.392207,40 Z"
     id="path4"
     style="stroke-width:0.649351" />
  <path
     class="st0"
     d="M 47.950649,60.12987 H 32.041558 L 15.483117,40 32.041558,19.87013 H 47.950649 L 64.50909,40 Z M 32.625974,58.896103 H 47.366233 L 62.885714,40 47.366233,21.103896 H 32.625974 L 17.106493,40 Z"
     id="path6"
     style="fill:#6fccdd;stroke-width:0.649351" />
  <path
     class="st0"
     d="M 43.72987,49.545454 H 36.197402 L 36.132462,49.415584 28.405189,40 36.197397,30.454545 h 7.532468 l 0.06494,0.12987 L 51.522077,40 Z m -7.207792,-0.649351 h 6.948051 L 50.742857,40 43.470129,31.103896 H 36.522078 L 29.184415,40 Z"
     id="path8"
     style="fill:#6fccdd;stroke-width:0.649351" />
</svg>
