<svg id="XLM" xmlns="http://www.w3.org/2000/svg" width="512" height="512" viewBox="0 0 512 512">
  <defs>
    <style>
      .cls-1 {
        fill: #08b5e5;
      }

      .cls-1, .cls-2 {
        fill-rule: evenodd;
      }

      .cls-2 {
        fill: #fff;
      }
    </style>
  </defs>
  <path id="Full" class="cls-1" d="M11,256c0,135.094,109.906,245,245,245S501,391.094,501,256,391.094,11,256,11,11,120.906,11,256Z"/>
  <path id="XLM-2" data-name="XLM" class="cls-2" d="M370.836,155.6L332.3,175.318l-186.064,95.2a112.733,112.733,0,0,1-.948-14.539c0.081-61.495,49.772-111.282,110.989-111.2a110.453,110.453,0,0,1,53.9,14.134l22.054-11.288,3.29-1.687a134.991,134.991,0,0,0-189.1,30.179,136.42,136.42,0,0,0-25.819,79.9q0,5.195.392,10.35a24.759,24.759,0,0,1-13.376,23.909L96,296.24v27.786l34.24-17.531h0l11.088-5.685,10.926-5.59h0L348.4,194.821l22.041-11.274L416,160.222V132.45ZM416,188.021L163.394,317.226l-22.042,11.3L96,351.744V379.5l45.044-23.053,38.531-19.72,186.254-95.34a113.858,113.858,0,0,1,.948,14.635c-0.038,61.5-49.695,111.316-110.911,111.278a110.46,110.46,0,0,1-54.141-14.225l-1.354.72-23.909,12.241a134.991,134.991,0,0,0,189.1-30.156,136.426,136.426,0,0,0,25.829-79.858c0-3.5-.136-6.991-0.393-10.446a24.775,24.775,0,0,1,13.363-23.909L416,215.712V188.021Z"/>
</svg>
