<?xml version="1.0" encoding="utf-8"?>
<!-- Generator: Adobe Illustrator 22.0.0, SVG Export Plug-In . SVG Version: 6.00 Build 0)  -->
<svg version="1.1" id="XLM" xmlns="http://www.w3.org/2000/svg" xmlns:xlink="http://www.w3.org/1999/xlink" x="0px" y="0px"
	 viewBox="0 0 490 490" style="enable-background:new 0 0 490 490;" xml:space="preserve">
<style type="text/css">
	.st0{fill:#08B5E5;}
	.st1{fill:#FFFFFF;}
</style>
<path id="Full" class="st0" d="M0,245c0,135.1,109.9,245,245,245s245-109.9,245-245S380.1,0,245,0S0,109.9,0,245z"/>
<path id="XLM-2" class="st1" d="M359.8,144.6l-38.5,19.7l-186.1,95.2c-0.6-4.8-0.9-9.7-0.9-14.5c0.1-61.5,49.8-111.3,111-111.2
	c18.9,0,37.4,4.9,53.9,14.1l22.1-11.3l3.3-1.7c-60.2-43.9-144.7-30.7-188.6,29.5c-0.2,0.2-0.3,0.4-0.5,0.7
	c-16.8,23.3-25.8,51.2-25.8,79.9c0,3.5,0.1,6.9,0.4,10.4c0.8,9.9-4.5,19.4-13.4,23.9l-11.6,6V313l34.2-17.5l0,0l11.1-5.7l10.9-5.6
	l0,0l196.1-100.4l22-11.3l45.6-23.3v-27.8L359.8,144.6z M405,177L152.4,306.2l-22,11.3L85,340.7v27.8l45-23.1l38.5-19.7l186.3-95.3
	c0.6,4.9,0.9,9.7,0.9,14.6c0,61.5-49.7,111.3-110.9,111.3c-19,0-37.6-4.9-54.1-14.2l-1.4,0.7L165.5,355
	c60.2,43.9,144.7,30.7,188.6-29.5c0.2-0.2,0.3-0.4,0.5-0.7c16.8-23.2,25.8-51.2,25.8-79.9c0-3.5-0.1-7-0.4-10.4
	c-0.8-9.9,4.5-19.3,13.4-23.9l11.6-6V177z"/>
</svg>
