<svg id="XLM" xmlns="http://www.w3.org/2000/svg" width="512" height="512" viewBox="0 0 512 512">
  <defs>
    <style>
      .cls-1 {
        fill: #04b5e5;
      }

      .cls-1, .cls-2, .cls-3, .cls-4 {
        fill-rule: evenodd;
      }

      .cls-2, .cls-3 {
        fill: #fff;
      }

      .cls-2 {
        opacity: 0.85;
      }

      .cls-4 {
        fill: none;
        stroke: #fff;
        stroke-width: 5px;
      }
    </style>
  </defs>
  <path id="Full" class="cls-1" d="M11,256c0,135.094,109.906,245,245,245S501,391.094,501,256,391.094,11,256,11,11,120.906,11,256Z"/>
  <path id="Fire_2" data-name="Fire 2" class="cls-2" d="M210.7,328.729c13.786,9.759,38.847-2.63,56.766-27.381s0.762-.978.762-0.978c9.857-14.05,6.956-32.9-7.075-42.834a1.877,1.877,0,0,1-.5-0.575,30.922,30.922,0,0,0-43.235,7.453c-9.843,14.047-.666,1.055-0.666,1.055-17.17,25.29-20.057,53.29-6.274,63.039C210.773,328.745,210.7,328.729,210.7,328.729Z"/>
  <path id="Fire" class="cls-3" d="M223.9,309.383c9.6,6.627,28-1.4,40.618-18.431a5.134,5.134,0,0,0,.546-0.673c6.937-9.665,5.079-22.9-4.682-29.648a2.22,2.22,0,0,0-.776-0.774c-9.773-6.755-22.98-3.683-29.918,5.983a4.92,4.92,0,0,0-.47.723c-12.1,17.4-14.919,36.19-5.318,42.82h0Z"/>
  <path id="Rocket" class="cls-3" d="M270.472,149.2l-51.617,89.775-0.389.765c-4.533,7.883-1.626,11.421,6.455,17.127,1.076,0.8,2.083,1.445,2.083,1.445l22.181,15.677,24.255,17.121,0.913,0.478c8.085,5.708,12.061,6.161,17.942-.772,0.377-.383.687-0.776,0.687-0.776l66.939-78.949,0.59-.757c30.863-38.164,12.244-102.626,8.538-105.243a1.163,1.163,0,0,0-.818-0.477c-3.7-2.618-71.772,1.737-97.239,43.706C270.715,148.741,270.472,149.2,270.472,149.2Zm48.124,0c14.147,0,25.615,11.087,25.615,24.763s-11.468,24.763-25.615,24.763-25.614-11.086-25.614-24.763S304.45,149.2,318.6,149.2Z"/>
  <path id="Wind" class="cls-4" d="M136.583,406.888l41.321-58m-17.736,50.161,23.208-32.575"/>
  <path id="Wings" class="cls-3" d="M269.566,201.784s3.5,71.721-36.352,44.144c0,0,29.242,20.177-.272-0.244s-54.489-16.391-65.705-12.911c0,0,3.481-1.19-.451.031s-3.325-1.27-1.878-3.127c0,0-.068-0.266.107-0.306,47.455-60.689,95.085-34.129,104.551-27.587m-132.983,205.1,41.321-58m-17.736,50.161,23.208-32.575M310.181,232s-68.594,20.662-29.361,48.73c0,0-28.732-20.611.32,0.173s33.6,45.486,34.078,57.136c0,0-.044-3.652.121,0.432s2.305,2.686,3.567.713c0,0,.273-0.025.252-0.2,41.208-64.635.335-100.313-8.977-106.982"/>
</svg>
