<svg id="Monero" xmlns="http://www.w3.org/2000/svg" width="256" height="256" viewBox="0 0 512 512">
<defs>
    <style>
      .cls-1 {
        fill: #f60;
      }

      .cls-1, .cls-2, .cls-3 {
        fill-rule: evenodd;
      }

      .cls-2 {
        fill: #fff;
      }

      .cls-3 {
        fill: none;
        stroke: #fff;
        stroke-width: 20px;
      }
    </style>
  </defs>
  <path id="Main-F" class="cls-1" d="M11,256c0,135.094,109.906,245,245,245S501,391.094,501,256,391.094,11,256,11,11,120.906,11,256Z"/>
  <path id="M" class="cls-2" d="M140,313s-43.943.039-53.684,0.039a178.249,178.249,0,0,0,16.209,35C125.921,348.042,179,348,179,348V255l77,77,77-77v93s63.557,0.106,76.438.106a178.287,178.287,0,0,0,16.25-35.077C413.727,313.029,372,313,372,313V162L256,278,140,162V313Z"/>
  <path id="Ring" class="cls-3" d="M77,256c0,98.7,80.3,179,179,179s179-80.3,179-179S354.7,77,256,77,77,157.3,77,256Z"/>
</svg>
