<?xml version="1.0" encoding="utf-8"?>
<!-- Generator: Adobe Illustrator 22.0.0, SVG Export Plug-In . SVG Version: 6.00 Build 0)  -->
<svg version="1.1" id="Monero" xmlns="http://www.w3.org/2000/svg" xmlns:xlink="http://www.w3.org/1999/xlink" x="0px" y="0px"
	 viewBox="0 0 245 245" style="enable-background:new 0 0 245 245;" xml:space="preserve">
<style type="text/css">
	.st0{fill:#FF6600;}
	.st1{fill:#FFFFFF;}
	.st2{fill:none;stroke:#FFFFFF;stroke-width:20;}
</style>
<path id="Main-F" class="st0" d="M0,122.5C0,190,55,245,122.5,245S245,190,245,122.5S190,0,122.5,0S0,55,0,122.5z"/>
<path id="M" class="st1" d="M64.5,151c0,0-22,0-26.8,0c2.1,6.1,4.8,12,8.1,17.5c11.7,0,38.2,0,38.2,0V122l38.5,38.5L161,122v46.5
	c0,0,31.8,0.1,38.2,0.1c3.3-5.5,6.1-11.4,8.1-17.5c-6,0-26.8,0-26.8,0V75.5l-58,58l-58-58V151z"/>
<path id="Ring" class="st2" d="M33,122.5c0,49.4,40.2,89.5,89.5,89.5s89.5-40.1,89.5-89.5S171.9,33,122.5,33S33,73.2,33,122.5z"/>
</svg>
