<?xml version="1.0" encoding="utf-8"?>
<!-- Generator: Adobe Illustrator 22.0.0, SVG Export Plug-In . SVG Version: 6.00 Build 0)  -->
<svg version="1.1" id="XRP" xmlns="http://www.w3.org/2000/svg" xmlns:xlink="http://www.w3.org/1999/xlink" x="0px" y="0px"
	 viewBox="0 0 490 490" style="enable-background:new 0 0 490 490;" xml:space="preserve">
<style type="text/css">
	.st0{fill:#0A93EB;}
	.st1{fill:#FFFFFF;}
</style>
<path id="Full" class="st0" d="M0,245c0,135.1,109.9,245,245,245s245-109.9,245-245S380.1,0,245,0S0,109.9,0,245z"/>
<path id="XRP-2" class="st1" d="M344.8,123h40.6l-84.6,87.7c-29,30.6-77.4,31.9-108,2.9c-1-0.9-1.9-1.9-2.9-2.9L105.5,123h40.6
	l64.2,66.7c18.4,19.4,49,20.2,68.4,1.8c0.6-0.6,1.2-1.2,1.8-1.8L344.8,123z M145.6,367H105l85.1-88.3c29-30.6,77.4-31.9,108-2.9
	c1,0.9,1.9,1.9,2.9,2.9L386,367h-40.6l-64.8-67.2c-18.4-19.4-49-20.2-68.4-1.8c-0.6,0.6-1.2,1.2-1.8,1.8L145.6,367z"/>
</svg>
