<svg id="XRP" xmlns="http://www.w3.org/2000/svg" width="512" height="512" viewBox="0 0 512 512">
  <defs>
    <style>
      .cls-1 {
        fill: #0a93eb;
      }

      .cls-1, .cls-2 {
        fill-rule: evenodd;
      }

      .cls-2 {
        fill: #fff;
      }
    </style>
  </defs>
  <path id="Full" class="cls-1" d="M11,256c0,135.094,109.906,245,245,245S501,391.094,501,256,391.094,11,256,11,11,120.906,11,256Z"/>
  <path id="XRP-2" data-name="XRP" class="cls-2" d="M355.838,134h40.643l-84.557,87.744a76.378,76.378,0,0,1-110.842,0L116.526,134h40.642L221.4,200.657a48.374,48.374,0,0,0,70.2,0Zm-199.2,244H116l85.079-88.287a76.381,76.381,0,0,1,110.843,0L397,378H356.357L291.6,310.8a48.374,48.374,0,0,0-70.2,0Z"/>
</svg>
