<svg xmlns="http://www.w3.org/2000/svg" viewBox="0 0 490 490" xmlns:v="https://vecta.io/nano"><path d="M0,245c0,135.1,109.9,245,245,245s245-109.9,245-245S380.1,0,245,0S0,109.9,0,245z" fill="#0a93eb"/><path d="M344.8 123h40.6l-84.6 87.7c-29 30.6-77.4 31.9-108 2.9-1-.9-1.9-1.9-2.9-2.9L105.5 123h40.6l64.2 66.7c18.4 19.4 49 20.2 68.4 1.8l1.8-1.8 64.3-66.7zM145.6 367H105l85.1-88.3c29-30.6 77.4-31.9 108-2.9 1 .9 1.9 1.9 2.9 2.9l85 88.3h-40.6l-64.8-67.2c-18.4-19.4-49-20.2-68.4-1.8l-1.8 1.8-64.8 67.2z" fill="#fff"/><path d="M245.241 21.982C122.147 21.982 22.004 122.027 22.004 245s100.144 223.018 223.237 223.018S468.478 367.973 468.478 245 368.334 21.982 245.241 21.982m0-21.982c135.125 0 245.241 109.998 245.241 245S380.376 490 245.241 490 0 379.998 0 245 110.116 0 245.241 0z" fill="#474747"/></svg>