<?xml version="1.0" encoding="utf-8"?>
<!-- Generator: Adobe Illustrator 22.0.0, SVG Export Plug-In . SVG Version: 6.00 Build 0)  -->
<svg version="1.1" id="Snowgem" xmlns="http://www.w3.org/2000/svg" xmlns:xlink="http://www.w3.org/1999/xlink" x="0px" y="0px"
	 viewBox="0 0 245 245" style="enable-background:new 0 0 245 245;" xml:space="preserve">
<style type="text/css">
	.st0{fill:#D21E2B;}
	.st1{fill:#FFFFFF;}
</style>
<path id="Main_copy_23" class="st0" d="M0,122.5C0,190,55,245,122.5,245S245,190,245,122.5S190,0,122.5,0S0,55,0,122.5z"/>
<g id="Snowgem_copy">
	<path id="L" class="st1" d="M45,78.5L63,89v67l-18,10.5V78.5z"/>
	<path id="R" class="st1" d="M200.5,78.5l-18,10.5v67l18,10.5V78.5z"/>
	<path id="TL" class="st1" d="M46,77l18.1,10.3l58-33.5l0.1-20.8L46,77z"/>
	<path id="TR" class="st1" d="M199.5,77.1l-18,10.4l-57.9-33.6L123.5,33L199.5,77.1z"/>
	<path id="BL" class="st1" d="M46,168.5l18.1-10.3l58,33.5l0.1,20.8L46,168.5z"/>
	<path id="BR" class="st1" d="M199.5,168.4l-18-10.4l-57.9,33.6l-0.1,20.9L199.5,168.4z"/>
	<path id="CTR" class="st1" d="M122.5,122.5H134V119l15-8.5l16,9.5l3-4.5l-13.5-7.5l13.5-8l-3-4.5l-13.5,7.5V88h-5v18l-15,8.5
		l-6.5-4v-16l16.5-9.5l-2.5-4l-14,7.5V73h-2.5V122.5z"/>
	<path id="CTL" class="st1" d="M122.5,122.5H111V119l-15-8.5L80,120l-3-4.5l13.5-7.5L77,100l3-4.5l13.5,7.5V88h5v18l15,8.5l6.5-4
		v-16L103.5,85l2.5-4l14,7.5V73h2.5V122.5z"/>
	<path id="CBR" class="st1" d="M122.5,122.5H134v3.5l15,8.5l16-9.5l3,4.5l-13.5,7.5l13.5,8l-3,4.5l-13.5-7.5v15h-5v-18l-15-8.5
		l-6.5,4v16l16.5,9.5l-2.5,4l-14-7.5V172h-2.5V122.5z"/>
	<path id="CTL-2" class="st1" d="M122.5,122.5H111v3.5l-15,8.5L80,125l-3,4.5l13.5,7.5L77,145l3,4.5l13.5-7.5v15h5v-18l15-8.5l6.5,4
		v16l-16.5,9.5l2.5,4l14-7.5V172h2.5V122.5z"/>
</g>
</svg>
