<?xml version="1.0" encoding="UTF-8" standalone="no"?>
<svg
   xmlns:dc="http://purl.org/dc/elements/1.1/"
   xmlns:cc="http://creativecommons.org/ns#"
   xmlns:rdf="http://www.w3.org/1999/02/22-rdf-syntax-ns#"
   xmlns:svg="http://www.w3.org/2000/svg"
   xmlns="http://www.w3.org/2000/svg"
   xmlns:sodipodi="http://sodipodi.sourceforge.net/DTD/sodipodi-0.dtd"
   xmlns:inkscape="http://www.inkscape.org/namespaces/inkscape"
   width="236"
   height="236"
   version="1.1"
   id="svg8"
   sodipodi:docname="XTZ_BEP20.svg"
   inkscape:version="1.0.2-2 (e86c870879, 2021-01-15)">
  <metadata
     id="metadata8">
    <rdf:RDF>
      <cc:Work
         rdf:about="">
        <dc:format>image/svg+xml</dc:format>
        <dc:type
           rdf:resource="http://purl.org/dc/dcmitype/StillImage" />
      </cc:Work>
    </rdf:RDF>
  </metadata>
  <defs
     id="defs12" />
  <sodipodi:namedview
     id="namedview10"
     pagecolor="#ffffff"
     bordercolor="#666666"
     borderopacity="1.0"
     inkscape:pageshadow="2"
     inkscape:pageopacity="0.0"
     inkscape:pagecheckerboard="0"
     showgrid="false"
     inkscape:zoom="3.4101562"
     inkscape:cx="118"
     inkscape:cy="118"
     inkscape:window-width="1920"
     inkscape:window-height="1017"
     inkscape:window-x="-8"
     inkscape:window-y="-8"
     inkscape:window-maximized="1"
     inkscape:current-layer="svg8"
     inkscape:document-rotation="0" />
  <circle
     cx="118"
     cy="118"
     r="118"
     fill="#2c7df7"
     paint-order="stroke fill markers"
     id="circle2" />
  <path
     d="m 139.453,218 q -21.425,0 -31.276,-10.313 c -6.084,-5.82 -9.614,-13.809 -9.82,-22.222 a 14.73,14.73 0 0 1 1.72,-7.345 12.71,12.71 0 0 1 4.691,-4.691 c 4.599,-2.292 10.007,-2.292 14.606,0 1.948,1.117 3.559,2.737 4.664,4.691 a 14.43,14.43 0 0 1 1.782,7.345 14.02,14.02 0 0 1 -2.502,8.594 c -1.459,2.053 -3.545,3.578 -5.945,4.347 2.347,2.985 5.667,5.053 9.383,5.844 4.157,1.206 8.463,1.827 12.791,1.843 a 28.53,28.53 0 0 0 16.107,-4.812 c 4.941,-3.488 8.626,-8.474 10.508,-14.218 2.386,-6.837 3.551,-14.04 3.44,-21.281 0.192,-7.548 -1.082,-15.062 -3.753,-22.126 -2.009,-5.649 -5.823,-10.481 -10.853,-13.75 a 28.88,28.88 0 0 0 -15.635,-4.468 c -4.821,0.408 -9.47,1.985 -13.543,4.594 l -10.042,5.031 v -5.031 L 160.907,69.539 H 98.356 v 62.775 c -0.177,4.53 1.023,9.007 3.44,12.844 a 11.86,11.86 0 0 0 10.508,5.031 17.58,17.58 0 0 0 10.383,-3.656 c 3.378,-2.473 6.317,-5.494 8.695,-8.938 a 3.12,3.12 0 0 1 1.131,-1.499 c 0.419,-0.362 0.954,-0.561 1.508,-0.562 1.087,0.099 2.115,0.536 2.94,1.249 a 6.25,6.25 0 0 1 1.595,4.25 c -0.121,1.053 -0.309,2.096 -0.563,3.125 a 30.26,30.26 0 0 1 -10.728,13.308 c -4.441,3.003 -9.686,4.595 -15.048,4.567 q -20.314,0 -28.146,-8 A 29.95,29.95 0 0 1 76.314,132.157 V 69.538 H 44.5 V 57.874 H 76.464 V 31.281 L 69.146,23.964 V 18 h 21.235 l 7.976,4.126 v 35.749 l 82.629,-0.251 8.227,8.25 -50.667,50.871 c 3.061,-1.23 6.285,-2.009 9.57,-2.313 6.502,0.285 12.846,2.094 18.519,5.282 6.569,3.12 12.105,8.056 15.952,14.223 a 50.17,50.17 0 0 1 7.194,17.156 c 1.075,4.825 1.651,9.747 1.72,14.689 A 61.4,61.4 0 0 1 185.245,193 39.93,39.93 0 0 1 166.479,211.751 c -8.405,4.138 -17.655,6.277 -27.025,6.249 z"
     fill="#ffffff"
     id="path4" />
</svg>
