<?xml version="1.0" encoding="UTF-8" standalone="no"?>
<svg
   width="256"
   height="256"
   version="1.1"
   id="svg8"
   sodipodi:docname="XTZ_BEP20.svg"
   inkscape:version="1.1 (c68e22c387, 2021-05-23)"
   xmlns:inkscape="http://www.inkscape.org/namespaces/inkscape"
   xmlns:sodipodi="http://sodipodi.sourceforge.net/DTD/sodipodi-0.dtd"
   xmlns="http://www.w3.org/2000/svg"
   xmlns:svg="http://www.w3.org/2000/svg">
  <defs
     id="defs12" />
  <sodipodi:namedview
     id="namedview10"
     pagecolor="#ffffff"
     bordercolor="#666666"
     borderopacity="1.0"
     inkscape:pageshadow="2"
     inkscape:pageopacity="0.0"
     inkscape:pagecheckerboard="0"
     showgrid="false"
     inkscape:zoom="3.4101562"
     inkscape:cx="128"
     inkscape:cy="128"
     inkscape:window-width="2560"
     inkscape:window-height="1361"
     inkscape:window-x="-9"
     inkscape:window-y="-9"
     inkscape:window-maximized="1"
     inkscape:current-layer="svg8" />
  <circle
     cx="128"
     cy="128"
     r="118"
     fill="#2c7df7"
     paint-order="stroke fill markers"
     id="circle2" />
  <path
     d="M149.453 228q-21.425 0-31.276-10.313c-6.084-5.82-9.614-13.809-9.82-22.222a14.73 14.73 0 0 1 1.72-7.345 12.71 12.71 0 0 1 4.691-4.691c4.599-2.292 10.007-2.292 14.606 0 1.948 1.117 3.559 2.737 4.664 4.691a14.43 14.43 0 0 1 1.782 7.345 14.02 14.02 0 0 1-2.502 8.594c-1.459 2.053-3.545 3.578-5.945 4.347 2.347 2.985 5.667 5.053 9.383 5.844 4.157 1.206 8.463 1.827 12.791 1.843a28.53 28.53 0 0 0 16.107-4.812c4.941-3.488 8.626-8.474 10.508-14.218 2.386-6.837 3.551-14.04 3.44-21.281.192-7.548-1.082-15.062-3.753-22.126-2.009-5.649-5.823-10.481-10.853-13.75a28.88 28.88 0 0 0-15.635-4.468c-4.821.408-9.47 1.985-13.543 4.594l-10.042 5.031v-5.031l45.131-60.493h-62.551v62.775c-.177 4.53 1.023 9.007 3.44 12.844a11.86 11.86 0 0 0 10.508 5.031 17.58 17.58 0 0 0 10.383-3.656c3.378-2.473 6.317-5.494 8.695-8.938a3.12 3.12 0 0 1 1.131-1.499c.419-.362.954-.561 1.508-.562 1.087.099 2.115.536 2.94 1.249a6.25 6.25 0 0 1 1.595 4.25c-.121 1.053-.309 2.096-.563 3.125a30.26 30.26 0 0 1-10.728 13.308c-4.441 3.003-9.686 4.595-15.048 4.567q-20.314 0-28.146-8a29.95 29.95 0 0 1-7.757-21.876V79.538H54.5V67.874h31.964V41.281l-7.318-7.317V28h21.235l7.976 4.126v35.749l82.629-.251 8.227 8.25-50.667 50.871c3.061-1.23 6.285-2.009 9.57-2.313 6.502.285 12.846 2.094 18.519 5.282 6.569 3.12 12.105 8.056 15.952 14.223a50.17 50.17 0 0 1 7.194 17.156c1.075 4.825 1.651 9.747 1.72 14.689A61.4 61.4 0 0 1 195.245 203a39.93 39.93 0 0 1-18.766 18.751c-8.405 4.138-17.655 6.277-27.025 6.249z"
     fill="#fff"
     id="path4" />
  <path
     d="M128 11.485C63.753 11.485 11.485 63.753 11.485 128S63.753 244.515 128 244.515 244.515 192.247 244.515 128 192.247 11.485 128 11.485M128 0c70.527 0 128 57.468 128 128s-57.468 128-128 128S0 198.53 0 128 57.473 0 128 0z"
     fill="#474747"
     id="path6"
     style="fill:#e8a607;fill-opacity:1" />
</svg>
