<?xml version="1.0" encoding="utf-8"?>
<!-- Generator: Adobe Illustrator 22.0.0, SVG Export Plug-In . SVG Version: 6.00 Build 0)  -->
<svg version="1.1" id="Zcoin" xmlns="http://www.w3.org/2000/svg" xmlns:xlink="http://www.w3.org/1999/xlink" x="0px" y="0px"
	 viewBox="0 0 245 245" style="enable-background:new 0 0 245 245;" xml:space="preserve">
<style type="text/css">
	.st0{fill:#3FAD54;}
	.st1{fill:#FFFFFF;}
</style>
<path id="Main_copy_19" class="st0" d="M0,122.5C0,190,55,245,122.5,245S245,190,245,122.5S190,0,122.5,0S0,55,0,122.5z"/>
<path id="Z" class="st1" d="M62.5,143.5v-71c0-7.5,6.4-10,10-10h100c1.1,0,10,1,10,10c0,2.3-0.9,4.4-2.5,6L96,163h67v-19.5h-22.5
	l42-42v71c0,3.6-2.5,10-10,10h-100c-1.7,0-10-1.1-10-10c0-4,3-6.5,3-6.5l84-84H82v19.5h22.5L62.5,143.5z"/>
</svg>
