<?xml version="1.0" encoding="UTF-8" standalone="no"?>
<svg
   xmlns:dc="http://purl.org/dc/elements/1.1/"
   xmlns:cc="http://creativecommons.org/ns#"
   xmlns:rdf="http://www.w3.org/1999/02/22-rdf-syntax-ns#"
   xmlns:svg="http://www.w3.org/2000/svg"
   xmlns="http://www.w3.org/2000/svg"
   xmlns:sodipodi="http://sodipodi.sourceforge.net/DTD/sodipodi-0.dtd"
   xmlns:inkscape="http://www.inkscape.org/namespaces/inkscape"
   height="245"
   width="245"
   fill="none"
   version="1.1"
   id="svg8"
   sodipodi:docname="YFI_BEP20.svg"
   inkscape:version="1.0.2-2 (e86c870879, 2021-01-15)">
  <metadata
     id="metadata8">
    <rdf:RDF>
      <cc:Work
         rdf:about="">
        <dc:format>image/svg+xml</dc:format>
        <dc:type
           rdf:resource="http://purl.org/dc/dcmitype/StillImage" />
      </cc:Work>
    </rdf:RDF>
  </metadata>
  <defs
     id="defs12" />
  <sodipodi:namedview
     id="namedview10"
     pagecolor="#ffffff"
     bordercolor="#666666"
     borderopacity="1.0"
     inkscape:pageshadow="2"
     inkscape:pageopacity="0.0"
     inkscape:pagecheckerboard="0"
     showgrid="false"
     inkscape:zoom="3.4101562"
     inkscape:cx="122.5"
     inkscape:cy="122.5"
     inkscape:window-width="1920"
     inkscape:window-height="1017"
     inkscape:window-x="-8"
     inkscape:window-y="-8"
     inkscape:window-maximized="1"
     inkscape:current-layer="svg8"
     inkscape:document-rotation="0" />
  <circle
     cx="122.5"
     cy="122.5"
     r="122.5"
     fill="#0065d0"
     paint-order="stroke fill markers"
     id="circle2" />
  <path
     d="M 127.132,174.227 H 115.14 V 69.475 h 11.992 z M 85.034,146.146 c -3.345,5.905 -4.544,11.417 -4.544,18.688 0,22.449 18.198,40.646 40.646,40.646 22.448,0 40.647,-18.197 40.647,-40.646 0,-19.022 -13.068,-34.987 -30.713,-39.42 v 12.132 c 11.141,4.057 19.1,14.741 19.1,27.288 0,16.034 -12.999,29.033 -29.034,29.033 -16.035,0 -29.033,-12.999 -29.033,-29.033 0,-5.926 1.827,-10.954 4.875,-15.548 l 2.109,19.229 11.597,-1.496 -5.612,-36.661 -36.473,7.296 2.057,12.157 z m 73.892,-50.934 c 2.386,-5.172 2.858,-8.976 2.858,-15.045 0,-22.448 -18.199,-40.647 -40.647,-40.647 -22.448,0 -40.648,18.199 -40.648,40.647 0,19.02 13.068,34.985 30.715,39.418 V 107.456 C 100.061,103.399 92.102,92.712 92.102,80.167 c 0,-16.035 12.999,-29.033 29.035,-29.033 16.036,0 29.033,12.999 29.033,29.033 0,4.04 -0.826,7.888 -2.318,11.384 l -6.45,-17.051 -10.666,3.333 10.333,36 35.333,-13 -4.297,-10.13 z"
     fill="#ffffff"
     id="path4" />
</svg>
