<svg id="YOYOW" xmlns="http://www.w3.org/2000/svg" width="512" height="512" viewBox="0 0 512 512">
<defs>
    <style>
      .cls-1 {
        fill: #428bca;
      }

      .cls-1, .cls-2 {
        fill-rule: evenodd;
      }

      .cls-2 {
        fill: #fff;
      }
    </style>
  </defs>
  <path id="Full" class="cls-1" d="M11,256c0,135.094,109.906,245,245,245S501,391.094,501,256,391.094,11,256,11,11,120.906,11,256Z"/>
  <path id="YOYOW-2" data-name="YOYOW" class="cls-2" d="M191.284,270.044a33.978,33.978,0,1,1-34.068,33.978A34.023,34.023,0,0,1,191.284,270.044ZM256.5,205a33.978,33.978,0,1,1-34.068,33.978A34.024,34.024,0,0,1,256.5,205Zm65.216,65.044a33.978,33.978,0,1,1-34.068,33.978A34.023,34.023,0,0,1,321.716,270.044ZM386.932,205a33.978,33.978,0,1,1-34.068,33.978A34.024,34.024,0,0,1,386.932,205Zm-260.864,0A33.978,33.978,0,1,1,92,238.978,34.024,34.024,0,0,1,126.068,205Zm32.608,54.365A12.135,12.135,0,1,1,146.509,271.5,12.151,12.151,0,0,1,158.676,259.365Zm65.216,0A12.135,12.135,0,1,1,211.725,271.5,12.151,12.151,0,0,1,223.892,259.365Zm65.216,0A12.135,12.135,0,1,1,276.941,271.5,12.151,12.151,0,0,1,289.108,259.365Zm65.216,0A12.135,12.135,0,1,1,342.157,271.5,12.151,12.151,0,0,1,354.324,259.365Z"/>
</svg>
