<?xml version="1.0" encoding="utf-8"?>
<!-- Generator: Adobe Illustrator 22.0.0, SVG Export Plug-In . SVG Version: 6.00 Build 0)  -->
<svg version="1.1" id="YOYOW" xmlns="http://www.w3.org/2000/svg" xmlns:xlink="http://www.w3.org/1999/xlink" x="0px" y="0px"
	 viewBox="0 0 490 490" style="enable-background:new 0 0 490 490;" xml:space="preserve">
<style type="text/css">
	.st0{fill:#428BCA;}
	.st1{fill:#FFFFFF;}
</style>
<path id="Full" class="st0" d="M0,245c0,135.1,109.9,245,245,245s245-109.9,245-245S380.1,0,245,0S0,109.9,0,245z"/>
<path id="YOYOW-2" class="st1" d="M180.3,259c18.8,0,33.9,15.3,33.9,34.1c0,18.8-15.3,33.9-34.1,33.9c-18.7,0-33.9-15.2-33.9-34
	C146.2,274.2,161.5,259,180.3,259C180.3,259,180.3,259,180.3,259z M245.5,194c18.8,0,33.9,15.3,33.9,34.1
	c0,18.8-15.3,33.9-34.1,33.9c-18.7,0-33.9-15.2-33.9-34C211.5,209.2,226.7,194,245.5,194z M310.7,259c18.8,0,33.9,15.3,33.9,34.1
	c0,18.8-15.3,33.9-34.1,33.9c-18.7,0-33.9-15.2-33.9-34C276.7,274.2,291.9,259,310.7,259C310.7,259,310.7,259,310.7,259z M375.9,194
	c18.8,0,33.9,15.3,33.9,34.1c0,18.8-15.3,33.9-34.1,33.9c-18.7,0-33.9-15.2-33.9-34C341.9,209.2,357.1,194,375.9,194z M115.1,194
	c18.8,0,33.9,15.3,33.9,34.1c0,18.8-15.3,33.9-34.1,33.9c-18.7,0-33.9-15.2-33.9-34C81,209.2,96.3,194,115.1,194z M147.7,248.4
	c6.7,0,12.1,5.5,12.1,12.2c0,6.7-5.5,12.1-12.2,12.1c-6.7,0-12.1-5.4-12.1-12.1C135.5,253.8,141,248.4,147.7,248.4L147.7,248.4z
	 M212.9,248.4c6.7,0,12.1,5.5,12.1,12.2c0,6.7-5.5,12.1-12.2,12.1c-6.7,0-12.1-5.4-12.1-12.1C200.7,253.8,206.2,248.4,212.9,248.4
	L212.9,248.4z M278.1,248.4c6.7,0,12.1,5.5,12.1,12.2c0,6.7-5.5,12.1-12.2,12.1c-6.7,0-12.1-5.4-12.1-12.1
	C265.9,253.8,271.4,248.4,278.1,248.4C278.1,248.4,278.1,248.4,278.1,248.4z M343.3,248.4c6.7,0,12.1,5.5,12.1,12.2
	c0,6.7-5.5,12.1-12.2,12.1c-6.7,0-12.1-5.4-12.1-12.1C331.2,253.8,336.6,248.4,343.3,248.4C343.3,248.4,343.3,248.4,343.3,248.4z"/>
</svg>
