<?xml version="1.0" encoding="utf-8"?>
<!-- Generator: Adobe Illustrator 26.3.1, SVG Export Plug-In . SVG Version: 6.00 Build 0)  -->
<svg version="1.1"
	 id="svg134" xmlns:sodipodi="http://sodipodi.sourceforge.net/DTD/sodipodi-0.dtd" xmlns:inkscape="http://www.inkscape.org/namespaces/inkscape" xmlns:svg="http://www.w3.org/2000/svg" sodipodi:docname="qi.svg" inkscape:version="1.1.1 (c3084ef, 2021-09-22)"
	 xmlns="http://www.w3.org/2000/svg" xmlns:xlink="http://www.w3.org/1999/xlink" x="0px" y="0px" viewBox="0 0 1400 1400"
	 style="enable-background:new 0 0 1400 1400;" xml:space="preserve">
<style type="text/css">
	.st0{fill-rule:evenodd;clip-rule:evenodd;fill:#FFFFFF;}
	.st1{fill:#346AFD;}
	.st2{fill-rule:evenodd;clip-rule:evenodd;fill:#346AFD;}
</style>
<g>
	<path class="st0" d="M700,1372.1c-90.7,0-178.7-17.8-261.6-52.8c-80-33.8-151.9-82.3-213.6-144s-110.2-133.6-144-213.6
		c-35-82.8-52.8-170.8-52.8-261.6s17.8-178.7,52.8-261.6c33.8-80,82.3-151.9,144-213.6s133.6-110.2,213.6-144
		c82.8-35,170.8-52.8,261.6-52.8s178.8,17.8,261.6,52.8c80,33.8,151.9,82.3,213.6,144s110.2,133.6,144,213.6
		c35,82.8,52.8,170.8,52.8,261.6s-17.8,178.8-52.8,261.6c-33.8,80-82.3,151.9-144,213.6s-133.6,110.2-213.6,144
		C878.8,1354.3,790.7,1372.1,700,1372.1z"/>
	<path class="st1" d="M700,55.4c87,0,171.4,17,250.9,50.6c38.2,16.1,75,36.1,109.5,59.4c34.1,23.1,66.2,49.6,95.4,78.7
		c29.2,29.2,55.7,61.3,78.7,95.4c23.3,34.5,43.3,71.3,59.4,109.5c33.6,79.4,50.6,163.8,50.6,250.9s-17,171.4-50.6,250.9
		c-16.1,38.2-36.1,75-59.4,109.5c-23.1,34.1-49.6,66.2-78.7,95.4c-29.2,29.2-61.3,55.7-95.4,78.7c-34.5,23.3-71.3,43.3-109.5,59.4
		c-79.4,33.6-163.8,50.6-250.9,50.6s-171.4-17-250.9-50.6c-38.2-16.1-75-36.1-109.5-59.4c-34.1-23.1-66.2-49.6-95.4-78.7
		c-29.2-29.2-55.7-61.3-78.7-95.4c-23.3-34.5-43.3-71.3-59.4-109.5C72.5,871.4,55.4,787,55.4,700s17-171.4,50.6-250.9
		c16.1-38.2,36.1-75,59.4-109.5c23.1-34.1,49.6-66.2,78.7-95.4c29.2-29.2,61.3-55.7,95.4-78.7c34.5-23.3,71.3-43.3,109.5-59.4
		C528.6,72.5,613,55.4,700,55.4 M700,0.4C313.6,0.4,0.4,313.6,0.4,700s313.2,699.6,699.6,699.6s699.6-313.2,699.6-699.6
		S1086.4,0.4,700,0.4L700,0.4z"/>
</g>
<path class="st2" d="M366.9,992.1c33.4,10.3,69.8,19.8,109,27.6c104.3,20.7,198.3,23.5,275.4,19.2c10.1,10.9,22.1,22.2,36.3,33.2
	c43.7,33.9,88.4,49.2,120,56.7C907.5,1128.8,583.9,1165.9,366.9,992.1z"/>
<path class="st2" d="M952.5,785.9c101,73.3,151.2,172.3,126.6,242.4c-16.8,47.8-58.3,71.7-58.3,71.7c-47,27-95.8,14.1-106.3,11
	c-24.9-7.5-56.5-20.1-89.4-41.8c-16.4-10.8-30.3-22.1-41.9-32.7C882,1035.1,1026.1,1039.9,952.5,785.9z"/>
<sodipodi:namedview  bordercolor="#666666" borderopacity="1.0" id="namedview136" inkscape:current-layer="svg134" inkscape:cx="699.09579" inkscape:cy="699.09579" inkscape:pagecheckerboard="0" inkscape:pageopacity="0.0" inkscape:pageshadow="2" inkscape:window-height="969" inkscape:window-maximized="0" inkscape:window-width="1312" inkscape:window-x="0" inkscape:window-y="38" inkscape:zoom="0.37119377" pagecolor="#ffffff" showgrid="false">
	</sodipodi:namedview>
<path class="st2" d="M391.7,444.5c0,0,161.6-104.8,457.4-50.6c0,0-143.9,0-190.4,27.1C658.6,421,460.3,426.4,391.7,444.5z"/>
<path class="st2" d="M703.3,216.9l35.2,139.1c0,0,62.5,2.9,78.2,12.3C832.4,377.6,724.1,281.9,703.3,216.9z"/>
<path class="st2" d="M563.3,357.8c0,0,114.3-96.7,126.9-130.5C690.1,227.3,673.3,316.8,563.3,357.8z"/>
<path class="st2" d="M723.4,431.2c0,0,295-5.2,300.2,240.3c0,0,39.2-131.6-22.9-203.9S827.3,407.1,723.4,431.2z"/>
<path class="st2" d="M947.7,538.4c0,0,7.9,45.2,7.9,66.1c0,18.2-6.1,50.9-6.1,50.9s-16.9,57.9,2.1,87.5
	c21.4,37.6,90.4,91.5,90.4,91.5s-43.2-63.1-45.8-87.3s15.2-69.4,6.7-107.2C994.4,602.1,978.3,570.7,947.7,538.4z"/>
<path class="st2" d="M329.3,960.6c-27.4-55.3-29.1-98-25.5-127.2c7.4-59.3,38.4-71.1,43.9-135.4c4.2-48.9-12.3-59.3-11.4-117.9
	c0.7-47,12-85.2,21.5-110.3c-8.1,10.2-16.6,23.1-23.8,38.8c-22.3,48.9-17.7,95.4-13.7,118.2c1.5,7.4,3.2,17.7,4.2,30.1
	c0,0,1.5,28-1.3,56.7c-6.7,69.7-40.7,88.4-44,133.5C277.4,872.3,284.2,910.6,329.3,960.6z"/>
<ellipse class="st2" cx="448.6" cy="658.9" rx="16.5" ry="26.7"/>
<ellipse class="st2" cx="723.4" cy="658.9" rx="16.5" ry="26.7"/>
<path class="st2" d="M1571,1062.2"/>
<path class="st2" d="M-314.6,768.9"/>
</svg>
