<?xml version="1.0" encoding="utf-8"?>
<!-- Generator: Adobe Illustrator 22.0.0, SVG Export Plug-In . SVG Version: 6.00 Build 0)  -->
<svg version="1.1" id="Lager_1" xmlns="http://www.w3.org/2000/svg" xmlns:xlink="http://www.w3.org/1999/xlink" x="0px" y="0px"
	 viewBox="0 0 245 245" style="enable-background:new 0 0 245 245;" xml:space="preserve">
<style type="text/css">
	.st0{fill:#C86F35;}
	.st1{fill:#FFFFFF;}
	.st2{fill:none;stroke:#FFFFFF;stroke-width:5;stroke-linecap:round;stroke-linejoin:round;}
	.st3{fill:none;stroke:#FFFFFF;stroke-width:20;}
</style>
<g id="ZClassic">
	<path id="Main" class="st0" d="M0,122.5C0,190,55,245,122.5,245S245,190,245,122.5S190,0,122.5,0S0,55,0,122.5z"/>
	<g id="ZCL">
		<path id="Z" class="st1" d="M128,82H64.5l-10,21H116L128,82z M179,162.5H87L133,82h25.5l-34,60.5H189L179,162.5z"/>
		<circle id="Round_inner1" class="st2" cx="122.5" cy="122.5" r="69.5"/>
		<circle id="Round_inner2" class="st2" cx="122.5" cy="122.5" r="88.5"/>
		<path id="Round_outer" class="st3" d="M183.5,172.8c-27.8,33.7-77.5,38.5-111.2,10.7S33.8,105.9,61.5,72.2s77.5-38.5,111.2-10.7
			c3.8,3.1,7.3,6.6,10.5,10.4"/>
	</g>
</g>
</svg>
