<svg id="Zcoin" xmlns="http://www.w3.org/2000/svg" width="256" height="256" viewBox="0 0 512 512">
<defs>
    <style>
      .cls-1 {
        fill: #3fad54;
      }

      .cls-1, .cls-2 {
        fill-rule: evenodd;
      }

      .cls-2 {
        fill: #fff;
      }
    </style>
  </defs>
  <path id="Main_copy_19" data-name="Main copy 19" class="cls-1" d="M11,256c0,135.094,109.906,245,245,245S501,391.094,501,256,391.094,11,256,11,11,120.906,11,256Z"/>
  <path id="Z" class="cls-2" d="M136,298V156c0-15,12.786-20,20-20H356c2.181,0,20,1.936,20,20a17.072,17.072,0,0,1-5,12L203,337H337V298H292l84-84V356c0,7.248-5,20-20,20H156c-3.3,0-20-2.27-20-20,0-8,6-13,6-13L310,175H175v39h45Z"/>
</svg>
