<?xml version="1.0" encoding="utf-8"?>
<!-- Generator: Adobe Illustrator 22.0.0, SVG Export Plug-In . SVG Version: 6.00 Build 0)  -->
<svg version="1.1" id="Zcash" xmlns="http://www.w3.org/2000/svg" xmlns:xlink="http://www.w3.org/1999/xlink" x="0px" y="0px"
	 viewBox="0 0 245 245" style="enable-background:new 0 0 245 245;" xml:space="preserve">
<style type="text/css">
	.st0{fill:#F4B728;}
	.st1{fill:#FFFFFF;}
</style>
<path id="Main" class="st0" d="M0,122.5C0,190,55,245,122.5,245S245,190,245,122.5S190,0,122.5,0S0,55,0,122.5z"/>
<path id="Z" class="st1" d="M80,67h29.5V45.5H135v21h32c0,0,0.1,12.8,0,18.5c0.2,7.9-3.5,12-3.5,12L115,152h51.5v25.5h-32l1.5,22
	h-27V178H78c0,0-0.6-15-0.5-19c0.1-7.3,3.5-11,3.5-11l48-55H80V67z"/>
</svg>
