<svg xmlns="http://www.w3.org/2000/svg" viewBox="0 0 245 245" xmlns:v="https://vecta.io/nano"><path d="M0,122.5C0,190,55,245,122.5,245S245,190,245,122.5S190,0,122.5,0S0,55,0,122.5z" fill="#f4b728"/><path d="M80 67h29.5V45.5H135v21h32V85c.2 7.9-3.5 12-3.5 12L115 152h51.5v25.5h-32l1.5 22h-27V178H78l-.5-19c.1-7.3 3.5-11 3.5-11l48-55H80V67z" fill="#fff"/><path d="M122.6 11C61.064 11 11 61.064 11 122.6s50.064 111.6 111.6 111.6 111.6-50.064 111.6-111.6S184.136 11 122.6 11m0-11c67.551 0 122.6 55.044 122.6 122.6s-55.044 122.6-122.6 122.6S0 190.154 0 122.6 55.049 0 122.6 0z" fill="#474747"/></svg>