<?xml version="1.0" encoding="UTF-8" standalone="no"?>
<svg
   xmlns:dc="http://purl.org/dc/elements/1.1/"
   xmlns:cc="http://creativecommons.org/ns#"
   xmlns:rdf="http://www.w3.org/1999/02/22-rdf-syntax-ns#"
   xmlns:svg="http://www.w3.org/2000/svg"
   xmlns="http://www.w3.org/2000/svg"
   height="457"
   width="457"
   xml:space="preserve"
   viewBox="0 0 457.00001 457.00001"
   y="0px"
   x="0px"
   id="Cube"
   version="1.1"><metadata
   id="metadata930"><rdf:RDF><cc:Work
       rdf:about=""><dc:format>image/svg+xml</dc:format><dc:type
         rdf:resource="http://purl.org/dc/dcmitype/StillImage" /><dc:title></dc:title></cc:Work></rdf:RDF></metadata><defs
   id="defs928" />
<style
   id="style914"
   type="text/css">
	.st0{fill:#FFFFFF;stroke:#232220;stroke-width:50;}
	.st1{fill:#232220;}
	.st2{fill:#FFFFFF;}
</style>




<g
   id="g1539"><circle
     class="st0"
     cx="228.5"
     cy="228.5"
     r="222.77519"
     id="circle916"
     style="fill:#ffffff;stroke:#fefefe;stroke-width:11.41734314;stroke-opacity:1" /><g
     id="Box_Left"
     transform="matrix(0.22834686,0,0,0.22834686,0.01613769,0.01612879)">
	<path
   id="Box_Left-2"
   class="st1"
   d="m 268.6,972.6 297,-172 296,172 v 344 l -296,172 -297,-172 z"
   style="fill:#232220" />
</g><g
     id="Box_Right"
     transform="matrix(0.22834686,0,0,0.22834686,0.01613769,0.01612879)">
	<path
   id="Box_Left-3"
   class="st1"
   d="m 1140.6,972.6 297,-172 296,172 v 344 l -296,172 -297,-172 z"
   style="fill:#232220" />
</g><g
     id="Box_Main"
     transform="matrix(0.22834686,0,0,0.22834686,0.01613769,0.01612879)">
	<path
   id="Box_Main-2"
   class="st1"
   d="m 625.6,671.6 375,-219 376,219 v 123 l -269,156 v 315 l -107,62 -106,-62 v -315 l -269,-156 z"
   style="fill:#232220" />
</g><path
     id="_svg"
     class="st2"
     d="m 365.82781,253.38982 v 15.93861 h -29.66226 v 29.66225 h -15.93861 v -29.66225 h -29.66226 v -15.93861 h 29.66226 v -29.66226 h 15.93861 v 29.66226 z"
     style="fill:#ffffff;stroke-width:0.22834685" /></g>
</svg>