<?xml version="1.0" encoding="utf-8"?>
<!-- Generator: Adobe Illustrator 22.0.0, SVG Export Plug-In . SVG Version: 6.00 Build 0)  -->
<svg version="1.1" id="Cube" xmlns="http://www.w3.org/2000/svg" xmlns:xlink="http://www.w3.org/1999/xlink" x="0px" y="0px"
	 viewBox="0 0 1951.2 1951.2" style="enable-background:new 0 0 1951.2 1951.2;" xml:space="preserve">
<style type="text/css">
	.st0{fill:#232220;}
	.st1{fill:#FFFFFF;}
	.st2{display:none;fill:none;stroke:#FFFFFF;stroke-width:25;}
	.st3{display:none;fill:#FFFFFF;}
</style>
<g>
	<path class="st0" d="M975.6,1931.2c-129,0-254.2-25.3-372-75.1c-113.8-48.1-216-117-303.8-204.8c-87.8-87.8-156.7-190-204.8-303.8
		C45.3,1229.8,20,1104.6,20,975.6s25.3-254.2,75.1-372c48.1-113.8,117-216,204.8-303.8c87.8-87.8,190-156.7,303.8-204.8
		C721.4,45.3,846.6,20,975.6,20s254.2,25.3,372,75.1c113.8,48.1,216,117,303.8,204.8c87.8,87.8,156.7,190,204.8,303.8
		c49.8,117.8,75.1,242.9,75.1,372s-25.3,254.2-75.1,372c-48.1,113.8-117,216-204.8,303.8c-87.8,87.8-190,156.7-303.8,204.8
		C1229.8,1905.9,1104.6,1931.2,975.6,1931.2z"/>
	<path class="st1" d="M975.6,40c63.5,0,127,6.4,188.6,19c60.1,12.3,119.1,30.6,175.6,54.5c55.4,23.4,108.9,52.5,158.9,86.3
		c49.6,33.5,96.1,71.9,138.5,114.3c42.3,42.3,80.8,88.9,114.3,138.5c33.8,50,62.8,103.5,86.3,158.9c23.9,56.4,42.2,115.5,54.5,175.6
		c12.6,61.6,19,125.1,19,188.6c0,63.5-6.4,127-19,188.6c-12.3,60.1-30.6,119.1-54.5,175.6c-23.4,55.4-52.5,108.9-86.3,158.9
		c-33.5,49.6-71.9,96.1-114.3,138.5c-42.3,42.3-88.9,80.8-138.5,114.3c-50,33.8-103.5,62.8-158.9,86.3
		c-56.4,23.9-115.5,42.2-175.6,54.5c-61.6,12.6-125.1,19-188.6,19s-127-6.4-188.6-19c-60.1-12.3-119.1-30.6-175.6-54.5
		c-55.4-23.4-108.9-52.5-158.9-86.3c-49.6-33.5-96.1-71.9-138.5-114.3c-42.3-42.3-80.8-88.9-114.3-138.5
		c-33.8-50-62.8-103.5-86.3-158.9c-23.9-56.4-42.2-115.5-54.5-175.6c-12.6-61.6-19-125.1-19-188.6c0-63.5,6.4-127,19-188.6
		c12.3-60.1,30.6-119.1,54.5-175.6C137,556,166,502.5,199.8,452.5C233.2,403,271.7,356.4,314,314c42.3-42.3,88.9-80.8,138.5-114.3
		c50-33.8,103.5-62.8,158.9-86.3C667.9,89.6,726.9,71.3,787,59C848.6,46.4,912.1,40,975.6,40 M975.6,0C436.8,0,0,436.8,0,975.6
		s436.8,975.6,975.6,975.6s975.6-436.8,975.6-975.6S1514.4,0,975.6,0L975.6,0z"/>
</g>
<g id="Box_Left">
	<path id="Box_Left-2" class="st1" d="M243.6,947.6l297-172l296,172v344l-296,172l-297-172L243.6,947.6L243.6,947.6z"/>
	<path id="Stroke" class="st2" d="M250.6,951.6l290-167l288,167v334l-288,168l-290-168L250.6,951.6L250.6,951.6z"/>
</g>
<g id="Box_Right">
	<path id="Box_Left-3" class="st1" d="M1115.6,947.6l297-172l296,172v344l-296,172l-297-172V947.6z"/>
	<path id="Stroke-2" class="st2" d="M1122.6,951.6l290-167l288,167v334l-288,168l-290-168V951.6z"/>
</g>
<g id="Box_Main">
	<path id="Box_Main-2" class="st1" d="M600.6,646.6l375-219l376,219v123l-269,156v315l-107,62l-106-62v-315l-269-156V646.6z"/>
	<path id="Box_Main_stroke" class="st3" d="M608.6,651.6l367-213.6l366,213.6v113l-267,155v316l-99,57l-99-57v-316l-268-155V651.6z"
		/>
</g>
</svg>
