<svg id="Cube" xmlns="http://www.w3.org/2000/svg" width="2001" height="2002" viewBox="0 0 2001 2002">
  <defs>
    <style>
      .cls-1, .cls-3 {
        fill: #fff;
      }

      .cls-1 {
        stroke: #232220;
        stroke-width: 50px;
      }

      .cls-2 {
        fill: #232220;
      }

      .cls-2, .cls-3 {
        fill-rule: evenodd;
      }
    </style>
  </defs>
  <circle class="cls-1" cx="1000.997" cy="1001.997" r="975.622"/>
  <g id="Box_Left" data-name="Box Left">
    <path id="Box_Left-2" data-name="Box Left" class="cls-2" d="M269,974L566,802,862,974v344L566,1490,269,1318V974Z"/>
  </g>
  <g id="Box_Right" data-name="Box Right">
    <path id="Box_Left-3" data-name="Box Left" class="cls-2" d="M1141,974l297-172,296,172v344l-296,172-297-172V974Z"/>
  </g>
  <g id="Box_Main" data-name="Box Main">
    <path id="Box_Main-2" data-name="Box Main" class="cls-2" d="M626,673l375-219,376,219V796L1108,952v315l-107,62-106-62V952L626,796V673Z"/>
  </g>
  <path id="_svg" data-name="+ svg" class="cls-3" d="M1602.37,1110.95v69.84h-129.9V1310.7h-69.85V1180.79h-129.9v-69.84h129.9V981.043h69.85V1110.95h129.9Z"/>
</svg>
