<svg id="Zelcash" xmlns="http://www.w3.org/2000/svg" width="256" height="256" viewBox="0 0 512 512">
<defs>
    <style>
      .cls-1 {
        fill: #183c87;
      }

      .cls-1, .cls-2, .cls-3, .cls-4 {
        fill-rule: evenodd;
      }

      .cls-2 {
        fill: #fff;
      }

      .cls-3 {
        fill: #efefef;
      }

      .cls-4 {
        fill: #f6f6f6;
      }
    </style>
  </defs>
  <path id="Main_copy_16" data-name="Main copy 16" class="cls-1" d="M11,256c0,135.094,109.906,245,245,245S501,391.094,501,256,391.094,11,256,11,11,120.906,11,256Z"/>
  <g id="Zelcash_copy" data-name="Zelcash copy">
    <path class="cls-2" d="M230.619,241.58l-67.807-39.054-0.005-29.836,93.078-54.1L323.6,157.962l25.38,14.758,0,30.093-67.6,38.767-0.029,78.692-25.433,14.783-25.307-14.716Z"/>
    <path class="cls-3" d="M162.805,172.9l92.9,53.919,0.2,108.231-25.283-14.759V241.58l-67.814-38.963V172.9Z"/>
    <path class="cls-4" d="M255.706,226.822l-93.1-54.116H348.8Zm0.2-108.232L349,172.706H162.805Z"/>
    <path class="cls-3" d="M363.2,374.359l-73.493-42.6,0-85.206,73.489-42.6,73.493,42.6,0,85.206Z"/>
    <path class="cls-4" d="M289.809,246.7l73.5-42.7,73.5,42.7H289.809Zm0,0,73.5,42.7,73.5-42.7H289.809Z"/>
    <path class="cls-2" d="M436.8,246.7l-73.5,42.7V374.41L436.8,331.9V246.7Z"/>
    <path class="cls-2" d="M148.983,374.359l-73.493-42.6,0-85.206,73.489-42.6,73.493,42.6,0,85.206Z"/>
    <path class="cls-4" d="M75.2,246.894l73.5-42.7,73.5,42.7H75.2Zm0,0,73.5,42.7,73.5-42.7H75.2Z"/>
    <path class="cls-3" d="M148.89,374.606l-73.5-42.7v-85.01l73.5,42.505v85.207Z"/>
    <path id="Outline" class="cls-2" d="M255.9,118s86.52,50.507,93.2,54.24c0,10.19.095,30.771,0.095,30.771l-67.618,38.766-0.168,78.786L255.9,335.356l-25.311-14.793,0.028-78.786L162.7,202.615V172.438Zm-0.2,4.734c-6.617,3.99-91.96,53.481-89.078,51.873v25.641c25.541,13.828,61.371,35.38,63.571,36.489,5.355,2.623,4.317,1.966,4.316,10.256,0-9.821,0,62.171,0,71.2,8.284,4.92,18.2,10.762,21.191,12.426,11.306-6.222,19.106-10.753,21.779-12.426v-77.12c0.059-2.626.728-2.169,5.493-4.931,36.859-21.263,53.742-30.93,62.2-35.7,0-8.612-.029-21.39,0-25.838C340.846,172.1,260.3,125.4,255.706,122.734ZM149.086,203.6l73.693,42.9-0.2,85.4-73.81,42.9L75.2,332.2,75,246.6Zm214.337,0L437,246.5c0,0.045,0,85.508,0,85.508l-73.3,43-74.085-43.1V246.5Zm-214.65,4.734c-3.34,2-60.028,34.808-69.653,40.433v81.065c8.284,4.7,51.613,29.589,69.653,40.237,10.111-5.9,63.007-36.311,69.85-40.237V248.768C211.926,244.781,187.91,230.847,148.773,208.335Zm214.454,0L293.77,248.768v80.868l69.849,40.236,69.457-40.039V248.768Z"/>
  </g>
</svg>
