<?xml version="1.0" encoding="utf-8"?>
<!-- Generator: Adobe Illustrator 22.0.0, SVG Export Plug-In . SVG Version: 6.00 Build 0)  -->
<svg version="1.1" id="Lager_1" xmlns="http://www.w3.org/2000/svg" xmlns:xlink="http://www.w3.org/1999/xlink" x="0px" y="0px"
	 viewBox="0 0 512 512" style="enable-background:new 0 0 512 512;" xml:space="preserve">
<style type="text/css">
	.st0{fill:url(#Round_1_);}
	.st1{fill:#FFFFFF;}
	.st2{fill:url(#Fingerprint_Purple_1_);}
	.st3{fill:#BB3C88;}
</style>
<linearGradient id="Round_1_" gradientUnits="userSpaceOnUse" x1="6.4883" y1="506.0117" x2="6.4883" y2="505.0117" gradientTransform="matrix(512 0 0 -512 -3066 259078)">
	<stop  offset="0" style="stop-color:#FFFFFF"/>
	<stop  offset="1" style="stop-color:#E5E5E5"/>
</linearGradient>
<circle id="Round" class="st0" cx="256" cy="256" r="256"/>
<path id="Fingerprint_White" class="st1" d="M283.7,295.2v-32.6c0-12.9-10.4-23.3-23.3-23.3s-23.3,10.4-23.3,23.3l0,0V292
	c0,35.4-13.1,69.5-36.7,95.7l-32,35.7c-2.7,3.1-2.5,7.7,0.6,10.5c3.1,2.7,7.7,2.5,10.5-0.6l32-35.7C237.6,368.7,252,331,252,292
	v-29.4c0-4.7,3.8-8.4,8.4-8.4c4.6,0,8.4,3.8,8.4,8.4v32.5c0,43.5-16.2,85.4-45.5,117.6l-31.8,35c-2.7,3.1-2.5,7.7,0.6,10.5
	c3,2.7,7.7,2.5,10.4-0.5l31.8-35C266.2,387.9,283.7,342.4,283.7,295.2z M315.4,262.6c0-30.4-24.6-55-55-55s-55,24.6-55,55V292
	c0,27.5-10.2,54.1-28.6,74.5l-27,29.6c-2.7,3.1-2.5,7.7,0.6,10.5c3.1,2.7,7.7,2.5,10.5-0.6l0,0l27-29.6
	c20.9-23.2,32.4-53.3,32.4-84.5v-29.4c0.1-22.2,18.1-40.1,40.3-40c22,0.1,39.9,17.9,40,40v32.5c0,51.4-19.1,100.9-53.7,138.9
	L220,463.6c-2.7,3.1-2.5,7.8,0.6,10.5c3,2.7,7.7,2.5,10.4-0.5l26.9-29.6c37.1-40.7,57.6-93.8,57.6-148.9V262.6z M347.1,262.6
	c0-47.8-38.9-86.7-86.7-86.7s-86.7,38.9-86.7,86.7V292c0,19.7-7.3,38.7-20.5,53.3l-22.2,24.5c-2.8,3-2.5,7.7,0.5,10.5
	s7.7,2.5,10.5-0.5c0,0,0,0,0,0l22.2-24.5c15.6-17.4,24.3-39.9,24.3-63.3v-29.4c0-39.7,32.2-71.8,71.9-71.8
	c39.6,0,71.8,32.2,71.8,71.8v32.5c0,59.3-22.1,116.4-62,160.2l-13.1,14.5c-2.7,3.1-2.5,7.8,0.6,10.5c3,2.7,7.6,2.5,10.4-0.5
	l13.1-14.5c42.4-46.5,65.9-107.3,65.8-170.2L347.1,262.6L347.1,262.6L347.1,262.6z M142,262.6c0,4.1,3.3,7.4,7.4,7.4
	c4.1,0,7.4-3.3,7.4-7.4c0.1-51.4,37.8-95,88.7-102.4c4.1-0.6,6.9-4.3,6.3-8.4s-4.3-6.9-8.4-6.3C185.3,153.9,142.1,203.8,142,262.6z
	 M156.9,292c0-4.1-3.3-7.4-7.4-7.4c-4.1,0-7.4,3.3-7.4,7.4c0,11.9-4.4,23.3-12.3,32.1l-18.6,20.7c-2.7,3.1-2.4,7.8,0.6,10.5
	c3,2.7,7.7,2.4,10.4-0.6l18.6-20.7C151.2,322.5,156.9,307.5,156.9,292L156.9,292z M364.2,358.3c-4-1-8,1.3-9.1,5.3
	c-2.8,10.5-6.1,20.9-10.1,31c-1.5,3.8,0.4,8.1,4.2,9.6c3.8,1.5,8.1-0.4,9.6-4.2c4.2-10.7,7.8-21.6,10.7-32.7
	C370.6,363.4,368.2,359.4,364.2,358.3z M339.5,174.6c-3.1-2.7-7.7-2.5-10.5,0.6c-2.7,3.1-2.5,7.7,0.6,10.5
	c21.8,19.6,34.3,47.6,34.4,77v32.5c0,12.4-0.8,24.7-2.5,37c-0.6,4.1,2.3,7.8,6.3,8.4c4.1,0.6,7.8-2.3,8.4-6.3
	c1.8-12.9,2.7-26,2.7-39v-32.5C378.8,229,364.5,197.1,339.5,174.6z M304.8,169.1c3.7,1.8,8.1,0.3,9.9-3.4c1.8-3.7,0.3-8.1-3.4-9.9
	c0,0-0.1,0-0.1-0.1c-10.7-5.1-22.1-8.5-33.8-10.2c-4.1-0.6-7.8,2.2-8.4,6.3s2.2,7.8,6.3,8.4C285.5,161.6,295.4,164.7,304.8,169.1
	L304.8,169.1z M260.4,112.6c-2.8,0-5.6,0.1-8.4,0.2c-4.1,0.2-7.2,3.7-7,7.8c0.2,4.1,3.7,7.2,7.8,7c0,0,0,0,0,0
	c2.5-0.1,5-0.2,7.5-0.2c74.6,0,135.2,60.6,135.2,135.2v32.5c0,4.1,3.3,7.4,7.4,7.4c4.1,0,7.4-3.3,7.4-7.4v-32.6
	C410.5,179.9,343.2,112.6,260.4,112.6L260.4,112.6z M179.2,152.9c1.5,0,3-0.5,4.2-1.3c12.3-8.6,25.9-15,40.4-19.1
	c3.9-1.1,6.2-5.2,5.1-9.2c-1.1-3.9-5.2-6.2-9.2-5.1l0,0c-16,4.5-31.2,11.7-44.8,21.2c-3.4,2.3-4.2,7-1.9,10.3
	C174.5,151.7,176.8,152.9,179.2,152.9z M125.2,292v-29.4c0-34.5,13.2-67.6,36.9-92.7c2.8-3,2.7-7.7-0.3-10.5
	c-3-2.8-7.7-2.7-10.5,0.3c-26.3,27.8-40.9,64.6-40.9,102.9V292c0,4-1.5,7.9-4.2,10.9L97,313.1c-2.7,3.1-2.4,7.8,0.6,10.5
	c3,2.7,7.7,2.4,10.4-0.5l9.2-10.2C122.3,307.2,125.2,299.7,125.2,292z M432.8,204.8c-8.1-24.1-21.2-46.3-38.5-65
	c-2.8-3-7.5-3.3-10.5-0.5c-3,2.8-3.3,7.5-0.5,10.5c0,0,0,0,0,0c15.9,17.2,27.9,37.5,35.4,59.7c1.3,3.9,5.6,5.9,9.4,4.6
	C432,212.8,434.1,208.6,432.8,204.8z M319.2,90.6c-3.9-1.4-8.1,0.7-9.5,4.6s0.7,8.1,4.6,9.5c0,0,0.1,0,0.1,0
	c16.4,5.6,31.8,13.8,45.7,24.1c3.3,2.5,7.9,1.8,10.4-1.5c2.5-3.3,1.8-7.9-1.5-10.4C353.8,105.6,337,96.7,319.2,90.6z M145,142.2
	c31-29.9,72.4-46.5,115.5-46.5c8,0,16,0.6,24,1.7c4.1,0.6,7.8-2.2,8.5-6.2c0.6-4.1-2.2-7.8-6.2-8.5c0,0-0.1,0-0.1,0
	c-8.6-1.2-17.4-1.9-26.1-1.9C163.3,81,83.4,157.3,78.8,254.4c-0.2,4.1,3,7.6,7.1,7.8c0,0,0,0,0,0c0.1,0,0.2,0,0.3,0
	c4,0,7.2-3.1,7.4-7.1C95.6,212.2,114,171.8,145,142.2z M260.4,49.2c-16.6,0-33.1,1.9-49.2,5.7c-4,0.9-6.5,4.9-5.6,8.9
	c0.9,4,4.9,6.5,8.9,5.6c0,0,0.1,0,0.1,0c15-3.5,30.4-5.3,45.8-5.3c54.5,0,105.3,21.7,143.2,61.1c2.8,3,7.5,3.1,10.5,0.2
	c3-2.8,3.1-7.5,0.2-10.5l0,0C374.2,72.9,318.6,49.2,260.4,49.2L260.4,49.2z M93.5,141.7c3.2,2.5,7.9,2,10.4-1.3
	c21.2-27,48.9-48.2,80.6-61.3c3.8-1.5,5.6-5.9,4.1-9.7c-1.5-3.8-5.9-5.6-9.7-4.1c0,0-0.1,0-0.1,0c-34.1,14.2-63.9,36.9-86.6,65.9
	C89.7,134.5,90.3,139.2,93.5,141.7C93.5,141.7,93.5,141.7,93.5,141.7z"/>
<linearGradient id="Fingerprint_Purple_1_" gradientUnits="userSpaceOnUse" x1="6.4831" y1="506.0139" x2="6.4831" y2="505.0139" gradientTransform="matrix(354.343 0 0 -433.0696 -2041.2413 219188.4375)">
	<stop  offset="0" style="stop-color:#D83F87"/>
	<stop  offset="1" style="stop-color:#44318D"/>
</linearGradient>
<path id="Fingerprint_Purple" class="st2" d="M283.7,295.2v-32.6c0-12.9-10.4-23.3-23.3-23.3s-23.3,10.4-23.3,23.3l0,0V292
	c0,35.4-13.1,69.5-36.7,95.7l-32,35.7c-2.7,3.1-2.5,7.7,0.6,10.5c3.1,2.7,7.7,2.5,10.5-0.6l32-35.7C237.6,368.7,252,331,252,292
	v-29.4c0-4.7,3.8-8.4,8.4-8.4c4.6,0,8.4,3.8,8.4,8.4v32.5c0,43.5-16.2,85.4-45.5,117.6l-31.8,35c-2.7,3.1-2.5,7.7,0.6,10.5
	c3,2.7,7.7,2.5,10.4-0.5l31.8-35C266.2,387.9,283.7,342.4,283.7,295.2z M315.4,262.6c0-30.4-24.6-55-55-55s-55,24.6-55,55V292
	c0,27.5-10.2,54.1-28.6,74.5l-27,29.6c-2.7,3.1-2.5,7.7,0.6,10.5c3.1,2.7,7.7,2.5,10.5-0.6l0,0l27-29.6
	c20.9-23.2,32.4-53.3,32.4-84.5v-29.4c0.1-22.2,18.1-40.1,40.3-40c22,0.1,39.9,17.9,40,40v32.5c0,51.4-19.1,100.9-53.7,138.9
	L220,463.6c-2.7,3.1-2.5,7.8,0.6,10.5c3,2.7,7.7,2.5,10.4-0.5l26.9-29.6c37.1-40.7,57.6-93.8,57.6-148.9V262.6z M347.1,262.6
	c0-47.8-38.9-86.7-86.7-86.7s-86.7,38.9-86.7,86.7V292c0,19.7-7.3,38.7-20.5,53.3l-22.2,24.5c-2.8,3-2.5,7.7,0.5,10.5
	s7.7,2.5,10.5-0.5c0,0,0,0,0,0l22.2-24.5c15.6-17.4,24.3-39.9,24.3-63.3v-29.4c0-39.7,32.2-71.8,71.9-71.8
	c39.6,0,71.8,32.2,71.8,71.8v32.5c0,59.3-22.1,116.4-62,160.2l-13.1,14.5c-2.7,3.1-2.5,7.8,0.6,10.5c3,2.7,7.6,2.5,10.4-0.5
	l13.1-14.5c42.4-46.5,65.9-107.3,65.8-170.2L347.1,262.6L347.1,262.6L347.1,262.6z M156.9,292c0-4.1-3.3-7.4-7.4-7.4
	c-4.1,0-7.4,3.3-7.4,7.4c0,11.9-4.4,23.3-12.3,32.1l-18.6,20.7c-2.7,3.1-2.4,7.8,0.6,10.5c3,2.7,7.7,2.4,10.4-0.6l18.6-20.7
	C151.2,322.5,156.9,307.6,156.9,292z M364.2,358.3c-4-1-8,1.3-9.1,5.3c-2.8,10.5-6.1,20.9-10.1,31c-1.5,3.8,0.4,8.1,4.2,9.6
	c3.8,1.5,8.1-0.4,9.6-4.2c4.2-10.7,7.8-21.6,10.7-32.7C370.6,363.4,368.2,359.4,364.2,358.3z M339.5,174.6
	c-3.1-2.7-7.7-2.5-10.5,0.6c-2.7,3.1-2.5,7.7,0.6,10.5c21.8,19.6,34.3,47.6,34.4,77v32.5c0,12.4-0.8,24.7-2.5,37
	c-0.6,4.1,2.3,7.8,6.3,8.4c4.1,0.6,7.8-2.3,8.4-6.3c1.8-12.9,2.7-26,2.7-39v-32.5C378.8,229,364.5,197.1,339.5,174.6z M125.2,292
	v-29.4c0-34.5,13.2-67.6,36.9-92.7c2.8-3,2.7-7.7-0.3-10.5c-3-2.8-7.7-2.7-10.5,0.3c-26.3,27.8-40.9,64.6-40.9,102.9V292
	c0,4-1.5,7.9-4.2,10.9L97,313.1c-2.7,3.1-2.4,7.8,0.6,10.5c3,2.7,7.7,2.4,10.4-0.5l9.2-10.2C122.3,307.2,125.2,299.7,125.2,292
	L125.2,292z M432.8,204.8c-8.1-24.1-21.2-46.3-38.5-65c-2.8-3-7.5-3.3-10.5-0.5c-3,2.8-3.3,7.5-0.5,10.5c0,0,0,0,0,0
	c15.9,17.2,27.9,37.5,35.4,59.7c1.3,3.9,5.6,5.9,9.4,4.6C432,212.8,434.1,208.6,432.8,204.8z M319.2,90.6c-3.9-1.4-8.1,0.7-9.5,4.6
	s0.7,8.1,4.6,9.5c0,0,0.1,0,0.1,0c16.4,5.6,31.8,13.8,45.7,24.1c3.3,2.5,7.9,1.8,10.4-1.5c2.5-3.3,1.8-7.9-1.5-10.4
	C353.8,105.6,337,96.7,319.2,90.6z M145,142.2c31-29.9,72.4-46.5,115.5-46.5c8,0,16,0.6,24,1.7c4.1,0.6,7.8-2.2,8.5-6.2
	c0.6-4.1-2.2-7.8-6.2-8.5c0,0-0.1,0-0.1,0c-8.6-1.2-17.4-1.9-26.1-1.9C163.3,81,83.4,157.3,78.8,254.4c-0.2,4.1,3,7.6,7.1,7.8
	c0,0,0,0,0,0c0.1,0,0.2,0,0.3,0c4,0,7.2-3.1,7.4-7.1C95.6,212.2,114,171.8,145,142.2z M260.4,49.2c-16.6,0-33.1,1.9-49.2,5.7
	c-4,0.9-6.5,4.9-5.6,8.9c0.9,4,4.9,6.5,8.9,5.6c0,0,0.1,0,0.1,0c15-3.5,30.4-5.3,45.8-5.3c54.5,0,105.3,21.7,143.2,61.1
	c2.8,3,7.5,3.1,10.5,0.2c3-2.8,3.1-7.5,0.2-10.5l0,0C374.2,72.9,318.6,49.2,260.4,49.2L260.4,49.2z M93.5,141.7
	c3.2,2.5,7.9,2,10.4-1.3c21.2-27,48.9-48.2,80.6-61.3c3.8-1.5,5.6-5.9,4.1-9.7c-1.5-3.8-5.9-5.6-9.7-4.1c0,0-0.1,0-0.1,0
	c-34.1,14.2-63.9,36.9-86.6,65.9C89.7,134.5,90.3,139.2,93.5,141.7C93.5,141.7,93.5,141.7,93.5,141.7z M155.1,266.9
	c0.9-1.2,1.4-2.7,1.5-4.2c0.6-15,4.3-29.7,9.7-43.7c1.5-3.8-0.4-8.1-4.2-9.6c-3.8-1.5-8.1,0.4-9.6,4.2l0,0
	c-6,15.5-10.1,31.8-10.7,48.5c-0.2,4.1,3,7.6,7.1,7.7C151.3,269.9,153.6,268.8,155.1,266.9L155.1,266.9z M410.4,292.4V263
	c0.1-38.3-14.5-75.1-40.7-103c-2.8-3-7.4-3.1-10.4-0.3c0,0,0,0,0,0c-3,2.8-3.1,7.5-0.3,10.5c23.6,25.1,36.8,58.3,36.7,92.8v29.4
	c-0.1,8.3,3.6,10,7.3,10.2C409,302.6,410.4,297.6,410.4,292.4z"/>
<path id="zelID" class="st3" d="M184.1,135.1h20.1l-21.6,26.3v6.1h34.4v-6.8h-23.5l22.4-26.3v-6.1h-31.8V135.1z M227.4,144.4
	c0-1.4,0.3-2.8,0.9-4.1c0.5-1.2,1.2-2.3,2.1-3.3c0.9-0.9,2-1.7,3.2-2.2c1.3-0.5,2.7-0.8,4.1-0.8c1.4,0,2.7,0.3,4,0.9
	c1.1,0.6,2.2,1.3,3,2.3c0.9,1,1.5,2.1,2,3.3c0.5,1.3,0.8,2.6,0.9,3.9L227.4,144.4L227.4,144.4z M256.2,150.1
	c0.4-2.8,0.2-5.7-0.6-8.5c-0.7-2.6-1.9-5.1-3.5-7.3c-1.6-2.1-3.7-3.9-6.1-5.1c-2.6-1.3-5.4-2-8.3-1.9c-5.3-0.1-10.4,2.2-13.8,6.2
	c-1.7,1.9-2.9,4.2-3.8,6.6c-0.9,2.5-1.3,5.2-1.3,7.9c0,2.8,0.4,5.6,1.2,8.3c0.8,2.4,2,4.6,3.7,6.5c1.7,1.8,3.7,3.3,6,4.2
	c2.6,1.1,5.4,1.6,8.2,1.5c2.1,0,4.1-0.3,6.1-0.9c1.9-0.6,3.7-1.4,5.3-2.6c3.3-2.4,5.5-5.9,6.4-9.9h-8.2c-0.6,2-1.8,3.7-3.4,4.9
	c-1.5,1.1-3.6,1.6-6.1,1.6c-1.6,0-3.2-0.3-4.7-0.9c-1.3-0.6-2.4-1.5-3.3-2.5c-0.9-1.1-1.5-2.4-1.9-3.7c-0.4-1.4-0.6-2.9-0.6-4.4
	L256.2,150.1L256.2,150.1z M260.3,167.4h8.6v-54h-8.6V167.4z M275.9,167.4h3.3v-54h-3.3V167.4z M286.1,167.4h17.6
	c3.8,0.1,7.7-0.6,11.2-2.1c3-1.3,5.7-3.2,7.8-5.7c2.1-2.5,3.7-5.4,4.6-8.6c1-3.5,1.5-7.1,1.5-10.7c0-3.4-0.4-6.7-1.2-10
	c-0.7-3.1-2.1-6.1-4-8.6c-2-2.6-4.7-4.7-7.7-6.1c-3.2-1.5-7.2-2.3-12.1-2.3h-17.7L286.1,167.4L286.1,167.4z M289.5,164.5v-48.3h13.8
	c1.5,0,3,0.1,4.4,0.3c1.7,0.2,3.3,0.6,4.9,1.1c1.7,0.6,3.3,1.4,4.8,2.4c1.6,1.1,3,2.6,4.1,4.2c1.3,2,2.3,4.3,2.9,6.6
	c0.8,3.1,1.2,6.3,1.1,9.5c0,4.7-0.6,8.6-1.9,11.7c-1.1,2.8-2.8,5.4-5,7.4c-2,1.8-4.4,3.1-6.9,3.9c-2.5,0.8-5,1.2-7.6,1.2H289.5
	L289.5,164.5z"/>
</svg>
