<svg id="Zen" xmlns="http://www.w3.org/2000/svg" width="256" height="256" viewBox="0 0 512 512">
<defs>
    <style>
      .cls-1 {
        fill: #61b884;
      }

      .cls-1, .cls-2 {
        fill-rule: evenodd;
      }

      .cls-2 {
        fill: #fff;
      }
    </style>
  </defs>
  <path id="Main" class="cls-1" d="M11,256c0,135.094,109.906,245,245,245S501,391.094,501,256,391.094,11,256,11,11,120.906,11,256Z"/>
  <path id="Top" class="cls-2" d="M355,116s-38.305,25.488-42,28c-21.758-9.224-37.088-13.541-58-13-50.481-2.129-125,41.323-125,125,0,24.559,8,42,8,42s14.6-19.01,33-30c-9.87-48,28.062-98,84-98,31.66,0,86,22.245,86,86-32.138,0-144.7-26.648-223,102-1.233-.449-35-38.632-35-102,0-83.211,67.171-173,172-173C315.484,83,355,116,355,116Z"/>
  <path id="Bottom" class="cls-2" d="M156,396l44-28s19.483,13.331,55,13c74.6,0,126-59.934,126-125,0-31.544-14-57-14-57l28-43s33,37.84,33,100c0,86.272-69.251,172-173,172C195.551,428,156,396,156,396Zm29-91c66.015-55.286,150.733-34.2,155-33-12.51,60.758-68,69-68,69S219.635,352.849,185,305Z"/>
</svg>
