<?xml version="1.0" encoding="utf-8"?>
<!-- Generator: Adobe Illustrator 22.0.0, SVG Export Plug-In . SVG Version: 6.00 Build 0)  -->
<svg version="1.1" id="Zen" xmlns="http://www.w3.org/2000/svg" xmlns:xlink="http://www.w3.org/1999/xlink" x="0px" y="0px"
	 viewBox="0 0 245 245" style="enable-background:new 0 0 245 245;" xml:space="preserve">
<style type="text/css">
	.st0{fill:#61B884;}
	.st1{fill:#FFFFFF;}
</style>
<path id="Main" class="st0" d="M0,122.5C0,190,55,245,122.5,245S245,190,245,122.5S190,0,122.5,0S0,55,0,122.5z"/>
<path id="Top" class="st1" d="M172,52.5c0,0-19.2,12.7-21,14c-10.9-4.6-18.5-6.8-29-6.5c-25.2-1.1-62.5,20.7-62.5,62.5
	c0,12.3,4,21,4,21s7.3-9.5,16.5-15c-4.9-24,14-49,42-49c15.8,0,43,11.1,43,43c-16.1,0-72.3-13.3-111.5,51
	c-0.6-0.2-17.5-19.3-17.5-51C36,80.9,69.6,36,122,36C152.2,36,172,52.5,172,52.5z"/>
<path id="Bottom" class="st1" d="M72.5,192.5l22-14c0,0,9.7,6.7,27.5,6.5c37.3,0,63-30,63-62.5c0-15.8-7-28.5-7-28.5l14-21.5
	c0,0,16.5,18.9,16.5,50c0,43.1-34.6,86-86.5,86C92.3,208.5,72.5,192.5,72.5,192.5z M87,147c33-27.6,75.4-17.1,77.5-16.5
	c-6.3,30.4-34,34.5-34,34.5S104.3,170.9,87,147z"/>
</svg>
