<?xml version="1.0" encoding="UTF-8" standalone="no"?>
<svg
   id="Layer_1"
   viewBox="0 0 400.62991 400.62991"
   version="1.1"
   sodipodi:docname="ZENBASE.svg"
   width="400.62991"
   height="400.62991"
   inkscape:version="1.1.1 (c3084ef, 2021-09-22)"
   xmlns:inkscape="http://www.inkscape.org/namespaces/inkscape"
   xmlns:sodipodi="http://sodipodi.sourceforge.net/DTD/sodipodi-0.dtd"
   xmlns="http://www.w3.org/2000/svg"
   xmlns:svg="http://www.w3.org/2000/svg">
  <sodipodi:namedview
     id="namedview837"
     pagecolor="#ffffff"
     bordercolor="#666666"
     borderopacity="1.0"
     inkscape:pageshadow="2"
     inkscape:pageopacity="0.0"
     inkscape:pagecheckerboard="0"
     showgrid="false"
     inkscape:zoom="1.1194596"
     inkscape:cx="155.87878"
     inkscape:cy="77.269425"
     inkscape:window-width="1800"
     inkscape:window-height="1097"
     inkscape:window-x="0"
     inkscape:window-y="44"
     inkscape:window-maximized="1"
     inkscape:current-layer="Layer_1" />
  <defs
     id="defs826">
    <style
       id="style824">.cls-1{fill:#fecb17;}.cls-2{fill:#030e24;}</style>
  </defs>
  <circle
     style="fill:#fecb17;fill-opacity:1;stroke-width:4.67766"
     id="path965"
     cx="200.31496"
     cy="200.31496"
     r="200.31496" />
  <path
     class="cls-2"
     d="m 330.95631,106.31623 -0.0102,0.027 -26.34014,40.7924 c 8.05808,15.89621 12.62762,33.85971 12.62762,52.90101 0,64.72599 -52.47114,117.19683 -117.19713,117.19683 -19.0164,0 -36.95819,-4.55774 -52.83891,-12.59622 l -40.8052,26.37305 c 26.39165,18.90367 58.70499,30.06682 93.64401,30.06682 88.94034,0 161.04079,-72.10034 161.04079,-161.04048 0,-34.97312 -11.18386,-67.31486 -30.12094,-93.72041 z"
     id="path830"
     style="stroke-width:1.00018" />
  <path
     class="cls-2"
     d="m 200.03676,280.68405 c 39.64648,0 72.60744,-28.53224 79.52661,-66.17815 -12.54801,-2.68359 -25.5554,-4.12786 -38.90455,-4.12786 -40.19408,0 -77.36601,12.84716 -107.72129,34.60106 14.53197,21.53955 39.16079,35.70505 67.09923,35.70505 z"
     id="path832"
     style="stroke-width:1.00018" />
  <path
     class="cls-2"
     d="m 239.90408,195.67004 c 14.07869,0 27.79231,1.54078 41.01754,4.39491 0,-0.01 7e-4,-0.0188 7e-4,-0.0283 0,-44.6719 -36.21405,-80.88555 -80.88556,-80.88555 -44.67151,0 -80.88557,36.21365 -80.88557,80.88555 0,3.67008 0.27345,7.27344 0.74934,10.81249 -0.008,0.006 -0.0157,0.011 -0.0241,0.0174 -20.368745,15.46914 -30.02812,27.72719 -30.334377,28.11947 -4.311592,-12.18794 -6.702031,-25.28145 -6.702031,-38.94926 0,-64.72599 52.470438,-117.196824 117.196438,-117.196824 18.95388,0 36.84047,4.527031 52.68248,12.515999 l 40.8297,-26.386947 C 267.18109,50.122706 234.91787,38.996363 200.03656,38.996363 c -88.93955,0 -161.040094,72.100147 -161.040094,161.040277 0,35.79788 11.698549,68.84965 31.461681,95.58146 7.634003,-13.78213 16.900805,-26.52577 27.53826,-37.98768 0,0 15.884023,-16.57474 28.054753,-24.90767 31.95727,-23.28188 71.288,-37.05271 113.85312,-37.05271 z"
     id="path834"
     style="stroke-width:1.00018" />
</svg>
