<?xml version="1.0" encoding="utf-8"?>
<!-- Generator: Adobe Illustrator 22.0.0, SVG Export Plug-In . SVG Version: 6.00 Build 0)  -->
<svg version="1.1" id="zilliqa" xmlns="http://www.w3.org/2000/svg" xmlns:xlink="http://www.w3.org/1999/xlink" x="0px" y="0px"
	 viewBox="0 0 245 245" style="enable-background:new 0 0 245 245;" xml:space="preserve">
<style type="text/css">
	.st0{fill:#49C1BF;}
	.st1{fill:#FFFFFF;}
	.st2{fill:#F6F6F6;}
</style>
<path id="Main_copy_7" class="st0" d="M0,122.5C0,190,55,245,122.5,245S245,190,245,122.5S190,0,122.5,0S0,55,0,122.5z"/>
<path id="Z" class="st1" d="M151,99v21l-55.5,28l55,27.5v21l-82-39.5v-21.5L125,108L68.5,81V59.5L151,99z"/>
<path id="L" class="st2" d="M68.5,60L90,50.5l81.5,40L151,100L68.5,60z"/>
<path id="I" class="st1" d="M150.5,99.5V120l21-9.5V90L150.5,99.5z M150.4,131v65.5l21.1-10v-65L150.4,131z"/>
</svg>
