<?xml version="1.0" encoding="UTF-8" standalone="no"?>
<svg
   viewBox="0 0 245 245"
   version="1.1"
   id="svg12"
   sodipodi:docname="ZIL_BEP20.svg"
   inkscape:version="1.1 (c68e22c387, 2021-05-23)"
   xmlns:inkscape="http://www.inkscape.org/namespaces/inkscape"
   xmlns:sodipodi="http://sodipodi.sourceforge.net/DTD/sodipodi-0.dtd"
   xmlns="http://www.w3.org/2000/svg"
   xmlns:svg="http://www.w3.org/2000/svg">
  <defs
     id="defs16" />
  <sodipodi:namedview
     id="namedview14"
     pagecolor="#ffffff"
     bordercolor="#666666"
     borderopacity="1.0"
     inkscape:pageshadow="2"
     inkscape:pageopacity="0.0"
     inkscape:pagecheckerboard="0"
     showgrid="false"
     inkscape:zoom="3.5632653"
     inkscape:cx="122.5"
     inkscape:cy="122.5"
     inkscape:window-width="2560"
     inkscape:window-height="1361"
     inkscape:window-x="-9"
     inkscape:window-y="-9"
     inkscape:window-maximized="1"
     inkscape:current-layer="svg12" />
  <path
     d="M0,122.5C0,190,55,245,122.5,245S245,190,245,122.5S190,0,122.5,0S0,55,0,122.5z"
     fill="#49c1bf"
     id="path2" />
  <path
     d="M151,99v21l-55.5,28l55,27.5v21l-82-39.5v-21.5L125,108L68.5,81V59.5L151,99z"
     fill="#fff"
     id="path4" />
  <path
     d="M68.5,60L90,50.5l81.5,40L151,100L68.5,60z"
     fill="#f6f6f6"
     id="path6" />
  <path
     d="M150.5 99.5V120l21-9.5V90l-21 9.5zm-.1 31.5v65.5l21.1-10v-65l-21.1 9.5z"
     fill="#fff"
     id="path8" />
  <path
     d="M122.6 11C61.064 11 11 61.064 11 122.6s50.064 111.6 111.6 111.6 111.6-50.064 111.6-111.6S184.136 11 122.6 11m0-11c67.551 0 122.6 55.044 122.6 122.6s-55.044 122.6-122.6 122.6S0 190.154 0 122.6 55.049 0 122.6 0z"
     fill="#474747"
     id="path10"
     style="fill:#e8a607;fill-opacity:1" />
</svg>
