<?xml version="1.0" encoding="UTF-8" standalone="no"?>
<svg
   xmlns:dc="http://purl.org/dc/elements/1.1/"
   xmlns:cc="http://creativecommons.org/ns#"
   xmlns:rdf="http://www.w3.org/1999/02/22-rdf-syntax-ns#"
   xmlns:svg="http://www.w3.org/2000/svg"
   xmlns="http://www.w3.org/2000/svg"
   xmlns:sodipodi="http://sodipodi.sourceforge.net/DTD/sodipodi-0.dtd"
   xmlns:inkscape="http://www.inkscape.org/namespaces/inkscape"
   viewBox="0 0 245 245"
   version="1.1"
   id="svg12"
   sodipodi:docname="ZIL_BEP20.svg"
   inkscape:version="1.0.2-2 (e86c870879, 2021-01-15)">
  <metadata
     id="metadata10">
    <rdf:RDF>
      <cc:Work
         rdf:about="">
        <dc:format>image/svg+xml</dc:format>
        <dc:type
           rdf:resource="http://purl.org/dc/dcmitype/StillImage" />
      </cc:Work>
    </rdf:RDF>
  </metadata>
  <defs
     id="defs16" />
  <sodipodi:namedview
     id="namedview14"
     pagecolor="#ffffff"
     bordercolor="#666666"
     borderopacity="1.0"
     inkscape:pageshadow="2"
     inkscape:pageopacity="0.0"
     inkscape:pagecheckerboard="0"
     showgrid="false"
     inkscape:zoom="3.5632653"
     inkscape:cx="122.5"
     inkscape:cy="122.5"
     inkscape:window-width="1920"
     inkscape:window-height="1017"
     inkscape:window-x="-8"
     inkscape:window-y="-8"
     inkscape:window-maximized="1"
     inkscape:current-layer="svg12"
     inkscape:document-rotation="0" />
  <path
     d="M0,122.5C0,190,55,245,122.5,245S245,190,245,122.5S190,0,122.5,0S0,55,0,122.5z"
     fill="#49c1bf"
     id="path2" />
  <path
     d="M151,99v21l-55.5,28l55,27.5v21l-82-39.5v-21.5L125,108L68.5,81V59.5L151,99z"
     fill="#fff"
     id="path4" />
  <path
     d="M68.5,60L90,50.5l81.5,40L151,100L68.5,60z"
     fill="#f6f6f6"
     id="path6" />
  <path
     d="M150.5 99.5V120l21-9.5V90l-21 9.5zm-.1 31.5v65.5l21.1-10v-65l-21.1 9.5z"
     fill="#fff"
     id="path8" />
</svg>
