<?xml version="1.0" encoding="UTF-8"?><svg id="CIRCLE_OUTLINE_BLACK" xmlns="http://www.w3.org/2000/svg" viewBox="0 0 512 512"><circle cx="256" cy="256" r="256" fill="#1d1d1b" stroke-width="0"/><path d="M256.00553,100.46812c-11.69126,0-23.19084,2.49158-34.11544,6.89976-10.73294,4.59982-20.50759,11.11627-28.74896,19.54929-8.24138,8.43302-14.7578,18.20768-19.16598,29.13228-4.40818,10.9246-6.70809,22.61583-6.51643,34.30709v29.70726h71.8724v-43.12345c0-2.10827.38331-4.02487,1.14997-5.94146.76663-1.9166,1.9166-3.64152,3.25821-4.98317,1.34161-1.34161,3.06657-2.49158,4.98317-3.25821s3.8332-1.14997,5.94146-1.14997h2.68322c1.9166,0,4.02487.38331,5.94146,1.14997,1.9166.76663,3.64152,1.9166,4.98317,3.25821,1.34161,1.34161,2.49158,3.06657,3.25821,4.98317s1.14997,3.8332,1.14997,5.94146v115.3792c9.39132,0,18.78266-1.9166,27.59899-5.55812,8.81636-3.64152,16.67439-9.00803,23.38248-15.71612,6.70809-6.70809,12.07457-14.75782,15.52445-23.38251,3.64152-8.81636,5.55812-18.20768,5.55812-27.59899v-29.70726c0-23.7658-9.19967-46.76497-25.87407-63.63103-8.24138-8.43302-18.01601-14.94947-28.74896-19.54929-10.9246-4.40815-22.42419-6.70809-34.11544-6.70809Z" fill="#fff" stroke-width="0"/><path d="M257.34717,350.77578h-2.68322c-1.9166,0-4.02487-.38334-5.94146-1.14997s-3.44988-1.9166-4.98317-3.25824c-1.34161-1.34164-2.49158-3.06657-3.25821-4.98317s-1.14997-3.8332-1.14997-5.94146v-115.3792c-9.39132,0-18.78266,1.9166-27.59901,5.55812-8.81635,3.64152-16.67439,9.00803-23.38248,15.71612s-12.07457,14.75782-15.52444,23.38251c-3.64154,8.81636-5.55814,18.20768-5.55814,27.59899v29.32392c-.19166,11.69126,2.10825,23.38251,6.51643,34.30709,4.40818,10.92463,10.9246,20.8909,19.16598,29.13231,8.24138,8.43302,18.01602,14.94944,28.74896,19.54932,10.73296,4.59988,22.42419,6.89976,34.11544,6.89976s23.38248-2.29994,34.11544-6.89976c10.73296-4.59982,20.69926-11.11624,28.74896-19.54932,8.24138-8.43302,14.7578-18.20768,19.16598-29.13231,4.40818-10.92463,6.51642-22.61583,6.51642-34.30709v-29.32392h-71.87241v43.1235c0,2.10827-.38331,4.02487-1.14997,5.94146-.76663,1.9166-1.9166,3.64152-3.25821,4.98317s-3.06657,2.49155-4.98317,3.25824c-1.72493.76657-3.64152,1.14991-5.74976,1.14991Z" fill="#fff" stroke-width="0"/></svg>