<?xml version="1.0" encoding="utf-8"?>
<!-- Generator: Adobe Illustrator 22.0.0, SVG Export Plug-In . SVG Version: 6.00 Build 0)  -->
<svg version="1.1" id="zrx" xmlns="http://www.w3.org/2000/svg" xmlns:xlink="http://www.w3.org/1999/xlink" x="0px" y="0px"
	 viewBox="0 0 245 245" style="enable-background:new 0 0 245 245;" xml:space="preserve">
<style type="text/css">
	.st0{fill:#404040;}
	.st1{fill:#FFFFFF;}
</style>
<path id="Main_copy_6" class="st0" d="M0,122.5C0,190,55,245,122.5,245S245,190,245,122.5S190,0,122.5,0S0,55,0,122.5z"/>
<g id="zrx-2">
	<path id="Top" class="st1" d="M51.8,63.6c1.8,2.6,18.9,25.4,20.3,27.6c9.5-15,25.2-21.9,25.2-21.9l15.5,14.6
		c0,0,52.5-38.4,55.3-40.6C143.5,30,93.1,18.7,51.8,63.6z"/>
	<path id="Right" class="st1" d="M181.1,52.2c-2.6,1.8-25.3,18.9-27.5,20.3c14.9,9.5,21.8,25.2,21.8,25.2l-14.6,15.4
		c0,0,38.2,52.4,40.4,55.2C214.5,143.7,225.7,93.4,181.1,52.2z"/>
	<path id="Bottom" class="st1" d="M192.7,181.1c-1.8-2.6-18.9-25.3-20.3-27.4c-9.5,14.9-25.2,21.8-25.2,21.8L131.6,161
		c0,0-52.5,38.2-55.3,40.3C101,214.5,151.4,225.7,192.7,181.1z"/>
	<path id="Left" class="st1" d="M63.4,192.7c2.6-1.8,25.3-18.9,27.5-20.3c-14.9-9.5-21.8-25.2-21.8-25.2l14.6-15.4
		c0,0-38.2-52.4-40.4-55.2C30,101.2,18.8,151.5,63.4,192.7z"/>
</g>
</svg>
