<svg id="zrx" xmlns="http://www.w3.org/2000/svg" width="256" height="256" viewBox="0 0 512 512">
<defs>
    <style>
      .cls-1 {
        fill: #404040;
      }

      .cls-1, .cls-2 {
        fill-rule: evenodd;
      }

      .cls-2 {
        fill: #fff;
      }
    </style>
  </defs>
  <path id="Main_copy_6" data-name="Main copy 6" class="cls-1" d="M11,256c0,135.094,109.906,245,245,245S501,391.094,501,256,391.094,11,256,11,11,120.906,11,256Z"/>
  <g id="zrx-2" data-name="zrx">
    <path id="Top" class="cls-2" d="M114.7,138.154c3.549,5.162,37.805,50.874,40.695,55.222,19.086-30,50.462-43.853,50.462-43.853l30.928,29.235S341.816,101.939,347.471,97.55C298.018,71.048,197.191,48.489,114.7,138.154Z"/>
    <path id="Right" class="cls-2" d="M373.139,115.416c-5.137,3.541-50.64,37.721-54.969,40.6,29.867,19.044,43.652,50.349,43.652,50.349l-29.1,30.859s76.468,104.8,80.836,110.443C439.938,298.329,462.4,197.727,373.139,115.416Z"/>
    <path id="Bottom" class="cls-2" d="M396.305,373.282c-3.549-5.126-37.805-50.527-40.695-54.846-19.086,29.8-50.462,43.554-50.462,43.554L274.22,332.954s-105.036,76.3-110.691,80.656C212.982,439.932,313.809,462.338,396.305,373.282Z"/>
    <path id="Left" class="cls-2" d="M137.861,396.4c5.137-3.541,50.64-37.721,54.969-40.6-29.867-19.043-43.652-50.349-43.652-50.349l29.1-30.859s-76.468-104.8-80.836-110.443C71.062,213.483,48.605,314.085,137.861,396.4Z"/>
  </g>
</svg>
